<?xml version="1.0" encoding="UTF-8" standalone="no"?>
<!-- Generator: Adobe Illustrator 24.0.3, SVG Export Plug-In . SVG Version: 6.00 Build 0)  -->

<svg
   version="1.1"
   id="Layer_8"
   x="0px"
   y="0px"
   viewBox="0 0 128 128"
   style="enable-background:new 0 0 128 128;"
   xml:space="preserve"
   sodipodi:docname="beaver.svg"
   inkscape:version="1.2.2 (732a01da63, 2022-12-09)"
   xmlns:inkscape="http://www.inkscape.org/namespaces/inkscape"
   xmlns:sodipodi="http://sodipodi.sourceforge.net/DTD/sodipodi-0.dtd"
   xmlns="http://www.w3.org/2000/svg"
   xmlns:svg="http://www.w3.org/2000/svg"><defs
   id="defs65647"><inkscape:path-effect
   effect="skeletal"
   id="path-effect5904"
   is_visible="true"
   lpeversion="1"
   pattern="m 12.493554,41.60589 c 1e-6,2.179509 -9.604027,1.691293 -21.4511965,1.691293 -11.8471685,0 -21.4511975,0.488216 -21.4511955,-1.691293 1e-6,-2.179508 9.604028,-1.691292 21.4511955,-1.691292 11.8471683,0 21.4511955,-0.488216 21.4511965,1.691292 z"
   copytype="single_stretched"
   prop_scale="1"
   scale_y_rel="false"
   spacing="0"
   normal_offset="0"
   tang_offset="0"
   prop_units="false"
   vertical_pattern="false"
   hide_knot="false"
   fuse_tolerance="0" />
	
	
	
	
	
	
	
	
	
	
		
	
	
	
	
	
	
	
	
</defs><sodipodi:namedview
   id="namedview65645"
   pagecolor="#ffffff"
   bordercolor="#000000"
   borderopacity="0.25"
   inkscape:showpageshadow="2"
   inkscape:pageopacity="0.0"
   inkscape:pagecheckerboard="0"
   inkscape:deskcolor="#d1d1d1"
   showgrid="false"
   showguides="false"
   inkscape:zoom="2.8284271"
   inkscape:cx="32.350135"
   inkscape:cy="73.185552"
   inkscape:window-width="1366"
   inkscape:window-height="697"
   inkscape:window-x="-8"
   inkscape:window-y="-8"
   inkscape:window-maximized="1"
   inkscape:current-layer="Layer_8" />
<path
   style="opacity:1;fill:#ed6c30;fill-opacity:1;stroke:none;stroke-width:0.5;stroke-linecap:round;stroke-dasharray:none;stroke-opacity:1"
   d="m 24.618124,107.08539 c -5.022912,0 -9.348199,2.53423 -9.348199,7.0064 0,4.47216 2.371931,6.70826 13.115383,6.70826 10.743453,0 13.81301,-1.93795 13.81301,-5.06847 0,-3.13052 -8.231996,-8.64619 -17.580194,-8.64619 z"
   id="path7512"
   sodipodi:nodetypes="sssss" /><path
   style="fill:#ed6c30;stroke-width:0.999997"
   d="m 78.888148,93.895706 c 4.832471,2.460345 13.801459,4.763857 18.565316,4.067903 12.350726,-1.813402 21.260906,-8.949385 26.661906,-18.839777 2.28391,-4.185528 2.47995,-12.664409 -1.18607,-13.585813 -4.64623,-1.166459 -10.16485,-0.254855 -18.73194,3.793442 -8.714133,4.116912 -10.811798,10.625555 -21.074674,5.616645"
   id="path65606" /><path
   style="opacity:1;fill:#f28d5e;fill-opacity:1;stroke-width:0.999997"
   d="m 81.20146,85.377617 c 1.793798,1.195866 2.048654,1.842809 3.528783,3.411156 2.911244,3.097488 9.79237,3.264124 11.125467,3.283729 7.92995,0.10783 11.76261,-1.813402 16.87933,-5.195151 5.11674,-3.38175 9.9296,-10.772588 10.7922,-14.438602 0.59793,-2.528961 0.9018,-4.450187 0.78417,-6.008732 -0.38229,-0.431295 -0.83319,-0.754767 -1.3723,-0.891998 -4.64624,-1.166459 -10.16486,-0.254855 -18.73195,3.793442 -8.714132,4.116912 -10.811797,10.625555 -21.074671,5.616645 l -2.234896,9.968811 z"
   id="path65608" /><path
   style="fill:#d84c15;stroke-width:0.999997"
   d="m 123.92912,70.576337 c 0.17644,-0.931207 0.30388,-1.764392 0.36269,-2.519158 l -5.26378,-2.303512 0.30388,-0.686152 c -1.81341,-0.0294 -3.81304,0.235253 -6.06754,0.81358 l 2.52895,1.117448 -2.60738,5.91071 -5.91071,-2.607377 1.26448,-2.852432 c -1.04883,0.411691 -5.01871,2.097665 -6.69488,3.136695 l 2.20549,0.970415 -2.60738,5.91071 -5.881297,-2.666191 c -1.107644,0.695954 -2.205488,1.26448 -3.391551,1.607557 l -5.930314,13.409372 c 0.715558,0.36268 1.499732,0.646944 2.293708,0.872393 l 2.411334,-5.450008 5.910714,2.607378 c 0,0 -1.225275,2.734806 -1.872218,4.195331 0.382285,0.01961 2.068262,0.0294 2.636789,0.0099 l 1.48012,-3.215111 5.224555,2.2643 c 1.56835,-0.450899 2.98966,-1.058634 4.40118,-1.793797 l 2.13687,-5.018712 3.35234,1.499732 c 0.67635,-0.548922 1.34289,-1.156656 1.98004,-1.803599 l -4.34237,-1.931029 2.60738,-5.91071 5.95973,2.636785 c 0.48031,-0.71556 0.9116,-1.421316 1.29388,-2.107468 l -6.26358,-2.774015 2.60738,-5.910711 z m -26.103175,15.036534 -5.910709,-2.607379 2.607377,-5.910711 5.910707,2.607378 z m 8.155405,3.607199 -5.91071,-2.607378 2.60738,-5.910711 5.9107,2.607378 z m 3.5974,-8.155408 -5.91071,-2.607379 2.60737,-5.91071 5.91071,2.607378 z"
   id="path65610" /><path
   style="fill:#ed6c30;stroke-width:0.999996"
   d="M 22.167347,9.3001161 C 20.78704,8.786172 19.395375,8.3275957 17.972831,7.9492336 17.386138,7.7856078 16.738401,7.6383081 16.16377,7.8377817 15.683555,7.9989135 15.315847,8.3850732 15.00351,8.7825876 13.263644,10.93556 12.506563,13.852698 12.986405,16.576408 c 0.121379,0.674005 0.463877,1.465496 1.137173,1.488215 0.271521,0.01242 0.513224,-0.111093 0.754929,-0.2346 2.37802,-1.185438 4.640687,-2.582057 6.743638,-4.184537 0.358834,-0.272581 0.746418,-0.755633 0.459993,-1.117305"
   id="path65612"
   sodipodi:nodetypes="ccccccccc" /><path
   style="fill:#ed6c30;stroke-width:0.999996"
   d="m 55.604945,14.074328 c 3.978855,1.115459 4.96782,-0.02301 7.95771,0.206993 3.829358,0.28749 3.369375,3.909856 2.805896,5.910782 -0.724474,2.564406 -2.150421,4.645829 -4.185844,6.359266 -0.344988,0.287489 -0.735975,0.586477 -1.195958,0.620978 -0.540479,0.04599 -1.034963,-0.28749 -1.448946,-0.632476 -2.7139,-2.21942 -4.438838,-5.611793 -4.63433,-9.107666"
   id="path65618" /><path
   style="fill:#f79329;stroke-width:0.999997"
   d="m 16.556335,47.163265 c 0,0 -7.7439207,5.612325 -9.8513892,12.062155 -3.0876849,9.42969 5.1167342,14.899303 5.1167342,14.899303 0,0 -2.2544998,19.320082 9.517911,29.906437 11.772409,10.58634 15.614861,10.97843 29.377112,13.49759 13.76225,2.51915 26.593294,-6.35181 29.906429,-9.91981 3.313135,-3.56798 8.469078,-11.007834 9.390483,-20.261085 C 90.935019,78.104405 82.740402,61.921018 75.329959,53.471544 67.919517,45.022071 52.696742,31.926369 52.696742,31.926369 L 30.739874,52.393306 Z"
   id="path65620"
   sodipodi:nodetypes="cccssscsccc" /><path
   style="fill:#f79329;stroke-width:0.999996"
   d="M 56.720406,15.051791 C 50.292141,6.0361215 43.150904,4.2536873 35.296692,4.2536873 c -8.475188,0 -16.513395,6.2212717 -20.216258,11.1430927 -2.989889,3.990353 -6.7157528,10.476114 -7.2447336,17.93934 -0.413984,5.864784 1.4489467,11.350084 7.2447336,15.409434 5.795788,4.059353 28.829442,8.900675 38.282094,2.403412 8.279696,-5.692291 11.085595,-13.339511 10.257625,-19.756275 -0.58648,-4.61133 -1.920432,-9.360656 -6.899747,-16.3409 z"
   id="path65622" /><path
   style="fill:#ffffff;fill-opacity:1;stroke-width:0.999991"
   d="m 19.060835,40.963785 c -0.859162,3.054061 0.599064,7.651933 2.157247,7.58481 1.292976,-0.05874 1.751256,-1.921374 1.751256,-1.921374 0,0 0.900182,2.382841 2.937022,2.231815 1.944845,-0.151025 2.284085,-5.193582 2.989521,-7.660323 l -6.387576,-1.954935 z"
   id="path65626" />
<ellipse
   style="fill:#2f2f2f;fill-opacity:1;stroke-width:1.0004;stroke-linecap:round"
   id="path66181"
   cx="34.610767"
   cy="31.422884"
   rx="3.6063907"
   ry="4.0250077"
   transform="matrix(0.97813078,-0.2079908,0.16820399,0.98575221,0,0)" /><ellipse
   style="fill:#2f2f2f;fill-opacity:1;stroke-width:1.00001;stroke-linecap:round"
   id="path66181-8"
   cx="-22.905693"
   cy="14.809707"
   rx="3.0410604"
   ry="3.5261321"
   transform="matrix(-0.94352067,-0.33131366,-0.32218178,0.94667782,0,0)" /><path
   id="path5889"
   style="opacity:1;fill:#2f2f2f;fill-opacity:1;stroke-width:35.9057;stroke-linecap:round"
   d="m 29.863248,51.904074 c -0.916511,0.02865 -1.836642,0.210887 -2.67401,0.589788 -1.071007,0.51789 -1.913235,1.486904 -2.262685,2.625538 -0.234965,0.739112 -0.284103,1.549983 -0.04808,2.29552 0.0533,0.175989 0.115914,0.349037 0.172894,0.523866 -0.514027,0.17046 -1.036261,0.349131 -1.473523,0.678973 -0.979645,0.688534 -1.610908,1.828355 -1.707451,3.018707 -0.04454,0.433104 0.05529,0.869897 0.195071,1.27796 0.257776,0.725045 0.794974,1.342513 1.478942,1.695766 0.311166,0.174894 0.640069,0.314963 0.961009,0.470495 -0.383368,0.343934 -0.792163,0.676667 -1.054663,1.128601 -0.310787,0.505189 -0.495298,1.09234 -0.523773,1.684345 0.05941,1.036743 0.601541,2.058711 1.496545,2.608058 0.876823,0.551925 1.878915,0.874899 2.896583,1.042875 0.515453,0.09958 1.03249,0.175048 1.543277,0.240917 0.511984,0.06468 1.023353,0.132747 1.534011,0.206282 0.319786,0.04473 0.664371,0.04006 0.947147,0.215527 0.765205,0.337784 1.297538,1.019467 1.773603,1.680672 0.4337,0.612141 0.835765,1.242519 1.25926,1.847922 0.772241,1.26519 1.539686,2.546604 2.530387,3.656846 0.08793,0.09617 0.20831,0.230717 0.312622,0.338397 0.496099,0.526479 1.053507,0.992035 1.653633,1.395433 0.273012,0.188342 0.557551,0.367492 0.831332,0.527997 0.267902,0.157489 0.562656,0.314853 0.812739,0.440353 0.454387,0.22673 0.948868,0.437966 1.408244,0.606761 0.945793,0.345281 1.928764,0.590528 2.927472,0.720071 0.234163,0.03067 0.508514,0.05912 0.75934,0.0791 0.797897,0.06512 1.600399,0.06875 2.399405,0.02126 0.278864,-0.01814 0.594283,-0.04292 0.886115,-0.07694 1.767138,-0.190366 3.492667,-0.654635 5.175456,-1.214308 1.086699,-0.366518 2.151878,-0.797788 3.183722,-1.298613 0.25176,-0.123625 0.534856,-0.266518 0.7945,-0.406018 0.589664,-0.316153 1.186194,-0.671804 1.727246,-1.038778 0.877985,-0.603678 1.732834,-1.272271 2.388573,-2.120282 0.205787,-0.286744 0.427836,-0.599314 0.448847,-0.963032 0.01455,-0.134609 -0.118926,-0.21059 -0.238648,-0.194951 -0.456502,0.02221 -0.880413,0.219774 -1.299184,0.385904 -1.254552,0.544066 -2.483431,1.168295 -3.745921,1.712582 -2.369885,1.036827 -4.83096,1.890486 -7.372065,2.393114 -1.917094,0.370424 -3.913978,0.477818 -5.832111,0.05568 C 42.321567,80.361041 40.605624,79.515419 39.224146,78.280333 38.340927,77.436829 37.728402,76.365984 37.085019,75.340182 36.782973,74.845218 36.46141,74.362561 36.176406,73.857368 35.902412,73.398344 35.612093,72.94859 35.295523,72.517672 35.18572,72.368653 35.046031,72.187427 34.917406,72.031416 34.819626,71.911981 34.726004,71.80156 34.61501,71.67884 c -0.271286,-0.302681 -0.561959,-0.588008 -0.870616,-0.852522 -0.05224,-0.04155 -0.1429,-0.121182 -0.199458,-0.164656 -0.372418,-0.2939 -0.763133,-0.571469 -1.186391,-0.786627 -0.700242,-0.303841 -1.458123,-0.457645 -2.218712,-0.494626 -1.057263,-0.134515 -2.123679,-0.223181 -3.162448,-0.472403 -0.562229,-0.120316 -1.145203,-0.278647 -1.581737,-0.674475 -0.142132,-0.109745 -0.228917,-0.270337 -0.262871,-0.443676 -0.09163,-0.391676 0.149503,-0.762796 0.38745,-1.052028 0.353813,-0.420682 0.82805,-0.715245 1.293936,-0.996205 0.51875,-0.307184 1.080634,-0.527999 1.634532,-0.761274 0.338994,-0.169049 0.721864,-0.364337 0.874678,-0.733763 0.09932,-0.239873 5.63e-4,-0.517525 -0.199133,-0.673152 -0.45904,-0.385101 -1.07971,-0.448022 -1.649067,-0.539585 -0.786374,-0.102103 -1.578274,-0.199308 -2.3405,-0.426023 -0.322967,-0.101961 -0.645041,-0.280866 -0.596763,-0.909666 0.04828,-0.628802 0.433123,-0.828221 0.786474,-1.001105 0.611326,-0.330252 1.308474,-0.47963 1.999646,-0.49232 0.507565,-0.01454 1.018702,0.0807 1.523354,0.0019 0.158527,-0.01394 0.307099,-0.1325 0.299298,-0.302389 2.05e-4,-0.244055 -0.227719,-0.398609 -0.393275,-0.544607 -0.536691,-0.417118 -1.09753,-0.828444 -1.484785,-1.397824 -0.377365,-0.534165 -0.436478,-1.245938 -0.271117,-1.866027 0.194866,-0.631358 0.677236,-1.195814 1.319465,-1.394677 0.862934,-0.345984 1.82127,-0.285016 2.721259,-0.145021 0.368378,0.06802 0.756242,0.102256 1.080816,0.307567 0.578307,0.341522 1.021795,0.864155 1.425176,1.39149 0.732888,1.048566 1.179872,2.259969 1.608148,3.455979 0.413835,1.208102 0.938112,2.691827 2.525302,6.210371 1.418432,3.144442 3.551012,7.637025 9.545455,7.637025 3.05273,0 4.236802,-0.228818 6.648084,-0.987495 1.008659,-0.317362 2.006411,-0.731326 2.855828,-1.372797 0.266265,-0.218093 0.558841,-0.454014 0.672581,-0.790946 0.04201,-0.157577 -0.157183,-0.219545 -0.275207,-0.241723 -0.529931,-0.08727 -1.068849,-5.74e-4 -1.597494,0.05808 -1.603841,0.215215 -3.753802,1.305877 -8.189068,1.1427 -4.62495,-0.170155 -6.667077,-4.266463 -7.781204,-6.953335 -1.289207,-3.109138 -1.780466,-4.780868 -2.269377,-6.165898 -0.05209,-0.142627 -0.105405,-0.295297 -0.16282,-0.445453 -0.235485,-0.624432 -0.502672,-1.237419 -0.811787,-1.82907 -0.04763,-0.08871 -0.120178,-0.227706 -0.18144,-0.33412 -0.281999,-0.494147 -0.582144,-0.980724 -0.934388,-1.428343 -0.03808,-0.04545 -0.118863,-0.143993 -0.175448,-0.207682 -0.920003,-1.052489 -2.212383,-1.773299 -3.595559,-1.985607 -0.515406,-0.08898 -1.039744,-0.125972 -1.562573,-0.112799 z"
   sodipodi:nodetypes="cccccccccccccccccccccccccccccccccccccccccccccccccccccccccccccccccccccccccsssccccssccccccccc" /><path
   id="path6703"
   style="color:#000000;fill:#2f2f2f;fill-opacity:1;stroke:none;stroke-width:0.5;stroke-linecap:round;-inkscape-stroke:none"
   d="m 15.343383,52.419166 c -0.851915,0.02506 -1.710264,0.174441 -2.49181,0.524116 -0.308347,0.139714 -0.603923,0.305811 -0.883316,0.497006 -0.680717,0.46812 -1.250866,1.089034 -1.683045,1.791482 -0.3851588,0.60233 -0.7212848,1.236021 -1.0030489,1.893143 -0.3433041,0.791323 -0.6155751,1.610916 -0.8742796,2.433072 -0.296919,0.952952 -0.5577344,1.918514 -0.8697604,2.866824 -0.1713432,0.455224 -0.272068,0.934037 -0.908168,1.683044 -0.2148241,0.252956 -0.3804555,0.434528 -0.528633,0.589631 0.1020699,0.925053 0.3008041,1.788894 0.5760759,2.586692 0.5237319,-0.395905 1.0308011,-0.812719 1.5068324,-1.265107 0.1306315,-0.125708 0.2636681,-0.250499 0.38631,-0.38405 0.5666566,-0.650737 0.9490668,-1.449166 1.1634468,-2.281711 0.03474,-0.123294 0.05623,-0.249473 0.09037,-0.372756 0.2407998,-0.774304 0.4689348,-1.555423 0.7116238,-2.326894 0.08905,-0.280999 0.179161,-0.56276 0.273354,-0.840391 0.233658,-0.686669 0.492556,-1.373182 0.797469,-2.035468 0.107852,-0.236219 0.226513,-0.467714 0.354681,-0.69355 0.02017,-0.03394 0.04917,-0.08072 0.07229,-0.119734 0.253337,-0.426813 0.551405,-0.826695 0.901389,-1.17926 0.278196,-0.284757 0.590422,-0.554547 0.969163,-0.693551 0.149935,-0.05519 0.309802,-0.07917 0.465379,-0.11296 0.608434,-0.118672 1.233132,-0.180392 1.852478,-0.126511 0.449706,0.04451 0.89499,0.166026 1.287698,0.393087 0.567696,0.360629 0.91516,1.03507 0.892354,1.705635 5.23e-4,0.06177 -0.0036,0.131063 -0.009,0.185249 -0.03638,0.411664 -0.207785,0.808134 -0.483452,1.116005 -0.385441,0.467192 -0.897315,0.80354 -1.353212,1.195075 -0.124548,0.101159 -0.223327,0.256825 -0.212358,0.422455 0.0083,0.108126 0.07897,0.214323 0.185247,0.246244 0.172715,0.06784 0.362739,0.05197 0.544448,0.06099 0.294506,-0.0037 0.592075,-0.02645 0.883317,-0.02937 0.236269,-0.0041 0.471789,0.0123 0.704846,0.05196 0.06456,0.0099 0.119601,0.01831 0.185246,0.03162 0.119928,0.02394 0.239831,0.05517 0.356942,0.09037 0.05786,0.01728 0.126111,0.03909 0.187508,0.06099 0.174831,0.06227 0.346937,0.137648 0.508301,0.221395 0.148894,0.07933 0.298731,0.162713 0.433752,0.264317 0.28766,0.231713 0.416701,0.654822 0.273353,1.00079 -0.07712,0.198223 -0.262569,0.328674 -0.454083,0.404382 -0.14734,0.06029 -0.303613,0.08843 -0.456343,0.131029 -0.157745,0.03904 -0.31694,0.07191 -0.476674,0.101664 -0.05766,0.01009 -0.129333,0.02141 -0.192025,0.03162 -0.51365,0.08539 -1.033308,0.141765 -1.549756,0.230431 -0.293397,0.04625 -0.586326,0.118313 -0.84943,0.2598 -0.162729,0.0897 -0.315437,0.209055 -0.417937,0.365977 -0.102037,0.167596 -0.08349,0.383189 0.0068,0.551224 0.09136,0.177755 0.255593,0.302035 0.417938,0.411161 0.282055,0.182004 0.601247,0.293461 0.908166,0.424714 0.0542,0.02343 0.118338,0.0522 0.176212,0.07907 0.113643,0.05018 0.227282,0.103518 0.338868,0.158139 0.05196,0.02636 0.115802,0.05844 0.171692,0.0881 0.434487,0.226862 0.850109,0.493355 1.222184,0.813283 0.236797,0.222487 0.461854,0.476836 0.564781,0.790691 0.04814,0.144187 0.06583,0.302207 0.02033,0.449565 -0.04916,0.175846 -0.16922,0.329268 -0.320794,0.429234 -0.33995,0.262396 -0.755244,0.394731 -1.167966,0.492487 -0.230135,0.05329 -0.459211,0.102246 -0.69129,0.149103 -0.301874,0.05687 -0.60165,0.101817 -0.905909,0.142324 l -0.632552,0.07907 c -0.446471,0.05394 -0.890683,0.106722 -1.339659,0.144583 -0.586198,0.07608 -1.171029,0.213013 -1.701118,0.481193 -0.958019,0.534935 -1.772927,1.302427 -2.442108,2.166496 -0.229008,0.297731 -0.444814,0.606061 -0.648369,0.921721 -0.07124,0.111237 -0.139018,0.223884 -0.2078378,0.33661 1.0002378,1.016251 1.8154478,1.6041 1.8321458,1.61527 0.190475,-0.281142 0.38271,-0.561228 0.569299,-0.844912 0.149104,-0.215831 0.296579,-0.431108 0.449564,-0.641589 0.329493,-0.453287 0.698597,-0.892056 1.167965,-1.20637 0.257255,-0.158333 0.528737,-0.317634 0.835874,-0.345646 0.884386,-0.120737 1.772214,-0.223475 2.654467,-0.3592 0.30056,-0.04976 0.600058,-0.104615 0.89913,-0.162657 0.696369,-0.142587 1.381191,-0.362405 2.008358,-0.700326 0.22351,-0.122254 0.442721,-0.25667 0.64385,-0.413419 0.634765,-0.51741 1.027116,-1.306042 1.093413,-2.119056 0.0091,-0.09007 0.0102,-0.181247 -0.0023,-0.271095 -0.06316,-0.615334 -0.289532,-1.220824 -0.686771,-1.698858 -0.240453,-0.259485 -0.515838,-0.483435 -0.779397,-0.718399 0.475757,-0.221997 0.971096,-0.419092 1.384842,-0.750028 0.198055,-0.158972 0.37041,-0.348387 0.519596,-0.553485 0.350412,-0.491279 0.539914,-1.090653 0.560261,-1.69208 -0.02566,-1.21566 -0.668196,-2.406617 -1.687562,-3.074664 -0.191971,-0.129791 -0.402767,-0.22765 -0.618998,-0.309499 -0.211639,-0.08103 -0.428396,-0.150321 -0.641591,-0.225912 0.158642,-0.447783 0.307275,-0.911557 0.304981,-1.391618 0.01042,-1.070293 -0.435652,-2.129125 -1.190556,-2.884897 -0.234562,-0.233793 -0.497459,-0.441981 -0.781655,-0.612221 -0.530713,-0.313872 -1.129207,-0.492187 -1.730487,-0.612221 -0.321878,-0.06023 -0.648309,-0.09924 -0.975939,-0.106184 -0.155032,-0.005 -0.310284,-0.006 -0.465379,-0.0045 z" /><path
   style="opacity:1;fill:#ed6c30;fill-opacity:1;stroke:none;stroke-width:0.499999;stroke-linecap:round;stroke-dasharray:none;stroke-opacity:1"
   d="m 72.904805,108.31972 c 6.335309,0 11.790716,2.99166 11.790716,8.27109 0,5.27942 -2.991675,7.91914 -16.542199,7.91914 -13.550525,0 -17.422102,-2.28776 -17.422102,-5.98335 0,-3.69561 10.382868,-10.20688 22.173585,-10.20688 z"
   id="path7514"
   sodipodi:nodetypes="sssss" /><path
   style="fill:#2f2f2f;fill-opacity:1;stroke:none;stroke-width:1.7;stroke-linecap:round"
   d="m 16.73306,31.268435 c 0.250221,-2.783653 4.663881,-2.731875 7.976074,-2.434137 3.312195,0.297739 7.832276,0.835908 7.569378,3.760504 -0.08235,0.916138 -1.077458,5.223741 -8.265721,4.479891 -7.188262,-0.743851 -7.362084,-4.89012 -7.279731,-5.806258 z"
   id="path26189"
   sodipodi:nodetypes="sssss" /><path
   d="m 32.866957,41.384417 c -0.277822,0.524237 -0.859807,0.785017 -1.286924,0.979299 l -0.194322,0.08996 c -2.07983,0.968152 -5.010816,0.48768 -6.926485,-0.678039 l -0.199197,-0.122904 c -0.26831,-0.16728 -0.381114,-0.234772 -0.56369,-0.254348 -0.285929,-0.003 -0.562411,0.07821 -0.811505,0.162299 -0.200513,0.06161 -0.400049,0.114086 -0.57024,0.151234 -2.029253,0.410317 -4.218569,0.591094 -6.119256,-0.369871 -0.525216,-0.268691 -1.219625,-0.7679 -1.568756,-1.387059 -0.249055,-0.432989 -0.299873,-0.992463 -0.133235,-1.42705 0.141528,-0.372643 0.430412,-0.655616 0.806009,-0.800018 0.748265,-0.261421 1.501041,0.124 1.97474,0.442577 1.187345,0.810607 3.355105,1.089207 4.524333,0.08806 0.397133,-0.345236 0.630287,-0.883497 0.670119,-1.59946 l 0.01957,-0.182576 c -1.054047,-0.159185 5.023798,0.252416 3.126624,0.205976 -0.08073,0.665407 -0.166062,1.376491 0.04973,1.861319 l 0.383708,0.382789 c 1.11691,0.950794 2.988954,1.317726 4.373656,0.71826 l 0.241925,-0.103331 c 0.213558,-0.09714 0.417009,-0.186131 0.654037,-0.243821 0.636099,-0.16264 1.292056,0.09237 1.583159,0.649906 0.220689,0.439181 0.208583,0.982675 -0.03401,1.436818 z"
   style="fill:#2f2f2f;fill-rule:nonzero;stroke-width:0.757265"
   id="path27816" /></svg>
