<?xml version="1.0" encoding="UTF-8" standalone="no"?>
<!-- Generator: Adobe Illustrator 24.0.3, SVG Export Plug-In . SVG Version: 6.00 Build 0)  -->

<svg
   version="1.1"
   id="Layer_9"
   x="0px"
   y="0px"
   viewBox="0 0 128 128"
   style="enable-background:new 0 0 128 128;"
   xml:space="preserve"
   sodipodi:docname="bison.svg"
   inkscape:version="1.3 (0e150ed6c4, 2023-07-21)"
   xmlns:inkscape="http://www.inkscape.org/namespaces/inkscape"
   xmlns:sodipodi="http://sodipodi.sourceforge.net/DTD/sodipodi-0.dtd"
   xmlns="http://www.w3.org/2000/svg"
   xmlns:svg="http://www.w3.org/2000/svg"><defs
   id="defs85277" /><sodipodi:namedview
   id="namedview85275"
   pagecolor="#ffffff"
   bordercolor="#000000"
   borderopacity="0.25"
   inkscape:showpageshadow="2"
   inkscape:pageopacity="0.0"
   inkscape:pagecheckerboard="0"
   inkscape:deskcolor="#d1d1d1"
   showgrid="false"
   inkscape:zoom="4"
   inkscape:cx="60.250001"
   inkscape:cy="66.375001"
   inkscape:window-width="1366"
   inkscape:window-height="697"
   inkscape:window-x="-8"
   inkscape:window-y="-8"
   inkscape:window-maximized="1"
   inkscape:current-layer="Layer_9" />&#10;&#10;<linearGradient
   id="SVGID_1_"
   gradientUnits="userSpaceOnUse"
   x1="90.042"
   y1="76.7846"
   x2="84.8327"
   y2="95.8543">&#10;	<stop
   offset="9.566327e-04"
   style="stop-color:#6A463E"
   id="stop85205" />&#10;	<stop
   offset="1"
   style="stop-color:#8C685C"
   id="stop85207" />&#10;</linearGradient>&#10;<path
   style="clip-rule:evenodd;fill:#fcc21b;fill-opacity:1;fill-rule:nonzero;stroke-width:1;stroke-linejoin:round;stroke-miterlimit:1.41421"
   d="m 19.82586,33.683367 c -0.343719,-0.968224 -1.055364,-1.883196 -2.144616,-2.735233 -0.885925,-0.69228 -1.800896,-1.370037 -2.536747,-2.231757 -2.134934,-2.546429 -3.180616,-6.506465 -2.696504,-9.817791 0.111346,-0.745533 0.822991,-2.168822 0.338879,-2.841738 -0.842355,-1.161869 -2.9385601,0.03389 -3.6163171,0.701963 -2.101046,2.071999 -3.364578,4.913737 -3.989083,7.765156 -0.760056,3.5437 -0.658392,7.227793 0.522841,10.664988 0.973065,2.846579 3.330691,5.659269 6.3515501,6.332185 2.589999,0.576093 5.393007,-1.142504 6.816297,-3.175775 1.161869,-1.660504 1.466859,-3.219345 0.9537,-4.661998 z"
   id="path1" /><path
   style="fill:#6a463e;fill-opacity:1"
   d="M86.39,69.93c2.2-0.76,4.78-0.48,6.61,0.95c2.44,1.92,3.12,5.3,3.31,8.4  c0.09,1.56-0.48,6.66-0.77,7.74c-0.75,2.76-0.91,5.76-1.5,8.56c-0.72,3.41-3.24,9.63-4,11.76c-0.18,0.51-0.56,0.91-1.05,1.14  c-1.04,0.48-2.97,1.17-5,0.84c-1.15-0.19-1.98-0.51-2.57-0.83c-0.8-0.44-1.17-1.37-0.93-2.24c0.58-2.08,1.77-6.4,2.39-9.06  c0.79-3.42,1.05-6.91,0.63-9.14c-0.73-3.89-3.26-6.82-2.61-11.04c0.42-2.7,2-5.27,4.39-6.59C85.63,70.23,86,70.06,86.39,69.93z"
   id="path85210" />&#10;<linearGradient
   id="SVGID_2_"
   gradientUnits="userSpaceOnUse"
   x1="73.3128"
   y1="85.1829"
   x2="74.15"
   y2="100.6712">&#10;	<stop
   offset="9.566327e-04"
   style="stop-color:#6A463E"
   id="stop85212" />&#10;	<stop
   offset="1"
   style="stop-color:#8C685C"
   id="stop85214" />&#10;</linearGradient>&#10;<path
   style="fill:#855c52;fill-opacity:1"
   d="M72.27,22.88c0,0,6.11,0.97,18.28,9.86c4.44,3.24,12.73,4.65,15.49,5.35  c7.75,1.95,12.28,7.81,13.12,14.37c0.84,6.56,0.28,17.3-1.26,23.02c-1.53,5.72-2.5,10.88-2.65,13.12  c-0.28,4.19,0.26,9.42-0.42,13.53c-0.69,4.23-1.95,9.07-2.51,11.13c-0.23,0.85-0.79,1.58-1.58,1.98c-0.96,0.49-2.5,0.92-4.77,0.63  c-0.82-0.1-1.5-0.25-2.06-0.42c-1.61-0.48-2.54-2.14-2.16-3.77c0.92-3.96,2.91-12.99,2.48-15.69c-0.56-3.49-6-9.35-6.74-15.4  c0,0-4.16,1.26-14.79,5.45c-3.02,1.19-5.29,2.42-6.93,7.72c-2.34,7.6-3.2,23.06-3.43,27.43c-0.06,1.1-0.76,2.05-1.79,2.42  c-0.89,0.32-2.22,0.57-4.2,0.57c-2.14,0-3.56-0.3-4.48-0.65c-1.02-0.39-1.67-1.38-1.69-2.47c-0.12-5.88-0.68-29.84-2.27-34  c-1.81-4.74-10.12-1.63-11.58,2.37c-0.7,1.92-0.61,2.86-0.42,4.65c0.27,2.53,1.81,12.56,1.26,17.72c-0.47,4.37-1.13,8.2-1.45,9.28  c-0.06,0.21-0.18,0.4-0.35,0.54c-0.78,0.69-3.35,2.6-7.42,2.2c-2.25-0.22-3.56-1.07-4.24-1.71c-0.39-0.36-0.49-0.94-0.23-1.4  c0.88-1.6,2.93-5.79,2.38-9.1c-0.7-4.19-10.54-31.72-10.54-31.72l16.82-37.49L72.27,22.88z"
   id="path85217" />&#10;<path
   style="fill:#855c52;fill-opacity:1"
   d="M72.27,22.88c0,0,6.11,0.97,18.28,9.86c4.44,3.24,12.73,4.65,15.49,5.35  c7.75,1.95,12.28,7.81,13.12,14.37c0.84,6.56,0.28,17.3-1.26,23.02c-1.53,5.72-2.5,10.88-2.65,13.12  c-0.28,4.19,0.26,9.42-0.42,13.53c-0.69,4.23-1.95,9.07-2.51,11.13c-0.23,0.85-0.79,1.58-1.58,1.98c-0.96,0.49-2.5,0.92-4.77,0.63  c-0.82-0.1-1.5-0.25-2.06-0.42c-1.61-0.48-2.54-2.14-2.16-3.77c0.92-3.96,2.91-12.99,2.48-15.69c-0.56-3.49-6-9.35-6.74-15.4  c0,0-4.16,1.26-14.79,5.45c-3.02,1.19-5.29,2.42-6.93,7.72c-2.34,7.6-3.2,23.06-3.43,27.43c-0.06,1.1-0.76,2.05-1.79,2.42  c-0.89,0.32-2.22,0.57-4.2,0.57c-2.14,0-3.56-0.3-4.48-0.65c-1.02-0.39-1.67-1.38-1.69-2.47c-0.12-5.88-0.68-29.84-2.27-34  c-1.81-4.74-11.12-1.86-11.58,2.37l-4.19-47.02L72.27,22.88z"
   id="path85219" />&#10;<path
   style="fill:#5d4037;fill-opacity:1"
   d="M83.4,48.09c0.44-3.5,2.3-2.77,2.57-6.22c0.28-3.49-2.09-3.47-2.16-6.14  c-0.05-2.09,2.07-3.97,0.88-6.6c-1.37-3.02-3.36-2.33-4.86-3.56c-2.15-1.76-0.35-3.91-2.51-6.07c-2.14-2.14-4.15-0.87-5.86-1.91  c-1.53-0.93-0.71-2.92-3.5-4.24c-2.83-1.34-3.71,0.86-6.97-0.93c-1.26-0.69-2.82-2.89-6.11-2.51c-3.3,0.38-3.5,2.39-6.3,2.81  c-2.79,0.42-3.42-1.45-7.19-0.7c-4.69,0.94-7,6.15-8.38,10.2c-3.02,8.87-7.24,44.16-7.16,46.17c0.15,4.05,4.41,9.3,6.8,12.49  c2.05,2.73,5.73,4.74,7.97,7.26c2.24,2.52,6.76,2.75,9.45,0.98c0.72-0.48,1.94-2.62,5.21-1.77c4.79,1.26,7.7,0.18,9.29-4.08  c0.23-0.61,0.72-2.58,5.57-3.22c2.49-0.33,4.58-3.4,3.65-6.85c-0.45-1.69,1.49-4,3.53-4.59c2.74-0.79,3.77-3.35,3.4-5.76  c-0.2-1.31,0.64-3.66,2.3-4.76c2.11-1.4,2.77-3.82,1.74-6.14C84.14,50.58,83.21,49.59,83.4,48.09z"
   id="path85221" />&#10;&#10;<path
   style="fill:#855c52;fill-opacity:1"
   d="M15.62,42.14c0,0-1.31,3.5-0.74,10.51c0.47,5.77,3.02,10.65,2.6,14.42s-1.73,8.14,1.21,12.05  c1.32,1.76,3.24,2.9,5.31,3.55c1.65,0.52,5.12,0.47,5.12,0.47s0.92,4.28,1.75,5.8c1.15,2.08,3.5,3.8,6.09,5.82  c-0.93-1.89,0.2-5.31,1.49-6.98c4.29-5.55,1.82-8.14,3.09-9.02c11.9-8.29,16.78-25.31,16.78-25.31s6.49,0.56,8.44,0  c1.95-0.56,3.91-2.51,1.4-5.3c-2.51-2.79-9.56-6.7-10.26-8.93c-0.7-2.23-30-4.19-30-4.19L15.62,42.14z"
   id="path85229" />&#10;<path
   style="fill:#855c52;fill-opacity:1"
   d="M119.22,53.42c0.94,8.17,1.92,16.49,5.3,23.98c0.43,0.96,0.91,2.24,0.13,2.94  c-1.11,1-2.99-0.5-3.43-1.01c-4.37-5.04-6.71-12.62-7.43-14.06"
   id="path85231" />&#10;<ellipse
   cx="20.9"
   cy="54.18"
   rx="2.68"
   ry="3.3"
   id="ellipse85233"
   style="fill:#2f2f2f;fill-opacity:1" />&#10;<ellipse
   cx="40.52"
   cy="54.18"
   rx="2.68"
   ry="3.3"
   id="ellipse85235"
   style="fill:#2f2f2f;fill-opacity:1" />&#10;<linearGradient
   id="SVGID_3_"
   gradientUnits="userSpaceOnUse"
   x1="27.9581"
   y1="84.2115"
   x2="27.9581"
   y2="67.9242">&#10;	<stop
   offset="0.1386"
   style="stop-color:#BF967C"
   id="stop85237" />&#10;	<stop
   offset="0.9901"
   style="stop-color:#BF967C;stop-opacity:0.0115"
   id="stop85239" />&#10;	<stop
   offset="1"
   style="stop-color:#BF967C;stop-opacity:0"
   id="stop85241" />&#10;</linearGradient>&#10;<path
   style="fill:#b89278;fill-opacity:1"
   d="M22.12,69.56c-1.22,1.09-2.56,4.04-2.45,7.23c0.08,2.51,0.85,4.14,3.04,5.43  c3.23,1.37,6.62,1.63,11.15-0.1c5.29-3.47,0.35-10.66-1.01-12.16C30.78,67.71,24.23,67.66,22.12,69.56z"
   id="path85244" />&#10;&#10;<path
   style="fill:#BF967C;"
   d="M91.69,102.91c-4.85,0.9-8.31,0.41-10.17-0.26c-0.03,0.12-0.09,0.24-0.15,0.36  c-0.34,1.27-0.66,2.43-0.89,3.24c-0.24,0.87,0.13,1.8,0.93,2.24c0.59,0.32,1.42,0.65,2.57,0.83c2.03,0.33,3.96-0.36,5-0.84  c0.49-0.23,0.87-0.63,1.05-1.14C90.36,106.43,91,104.77,91.69,102.91z"
   id="path85248" />&#10;<path
   style="fill:#BF967C;"
   d="M102.38,108.88c-0.23,1.07-0.46,2.04-0.64,2.81c-0.38,1.63,0.56,3.29,2.16,3.77  c0.56,0.17,1.24,0.31,2.06,0.42c2.26,0.29,3.8-0.15,4.77-0.63c0.79-0.4,1.35-1.13,1.58-1.98c0.25-0.91,0.63-2.35,1.04-4.04  c0.02-0.14,0.07-0.29,0.1-0.43C107.55,110.19,104.45,109.57,102.38,108.88z"
   id="path85250" />&#10;<path
   style="fill:#BF967C;"
   d="M72.63,116.1c-5.23,2.04-10.01,1.22-12.57,0.46c0,0.01,0,0.02,0,0.03c0.05,1.89,0.08,3.45,0.1,4.47  c0.02,1.09,0.68,2.08,1.69,2.47c0.93,0.35,2.34,0.65,4.48,0.65c1.98,0,3.31-0.25,4.2-0.57c1.03-0.37,1.73-1.32,1.79-2.42  C72.38,120.1,72.48,118.3,72.63,116.1z"
   id="path85252" />&#10;<path
   style="fill:#BF967C;"
   d="M35.46,115.93c-0.55,1.58-1.57,4.02-2,4.79c-0.26,0.46-0.15,1.04,0.23,1.4  c0.68,0.64,1.99,1.49,4.24,1.71c4.07,0.4,6.63-1.51,7.42-2.2c0.17-0.15,0.28-0.33,0.35-0.54c0.19-0.66,0.51-2.35,0.84-4.56  c0.03-0.25,0.05-0.5,0.09-0.74C42.18,117.74,37.55,116.96,35.46,115.93z"
   id="path85254" />&#10;<path
   style="fill:#5d4037;fill-opacity:1"
   d="M45.2,17.76c0,0-15.26-5.77-24.84,1.02s-9.49,14.05-9.77,17.3c-0.28,3.26,0.93,7.91,0,10.23  c-0.93,2.33-0.88,6.58,2.79,8.28c4.84,2.23,7.52-2.14,7.52-2.14s4.3,3.92,11,3.47c6.7-0.45,7.91-4.68,7.91-4.68s4.12,4.94,9.21,3.07  c7.07-2.6,7.07-12.28,7.07-12.28l-10.6-23.26L45.2,17.76z"
   id="path85256" />&#10;&#10;&#10;&#10;&#10;<path
   style="fill:#2f2f2f;fill-opacity:1"
   d="M56.5,49.78c0.28,3.2,1.84,3.85,1.84,3.85c-0.55,1.85-1.95,5.5-2.95,7.13  c-3.96,6.48-8.02,13.09-13.81,18.01c-0.18,0.15-0.37,0.32-0.47,0.53c-0.08,0.19-0.09,0.4-0.09,0.61c-0.01,1.32,0.03,2.65-0.38,3.92  c-0.57,1.75-1.87,3.14-2.76,4.75c-0.98,1.76-1.48,3.78-1.41,5.8c0.85-4.47,5.47-6.31,7.1-10.28c0.73-1.78,0.88-4,2.46-5.11  c0.82-0.57,1.86-0.71,2.83-0.93c1.79-0.41,3.54-1.71,4.12-3.51c0.52-1.61,0.2-3.53,1.24-4.86c1.36-1.75,4.4-1.62,5.47-3.55  c0.83-1.49-0.01-3.33,0.06-5.04c0.06-1.69,1.11-3.3,2.62-4.05c1.18-0.58,2.57-0.56,3.83-0.96c3.15-1,3.49-3.3,2.96-4.52  c-0.81,1.14-2.27,1.75-3.63,1.83C60.23,53.68,58,51.46,56.5,49.78z"
   id="path85272" />&#10;<g
   id="g23919"
   style="clip-rule:evenodd;fill-rule:evenodd;stroke-linecap:round;stroke-linejoin:round;stroke-miterlimit:1.5;fill:#2f2f2f;fill-opacity:1"
   transform="translate(0,2.0778595e-4)">&#10;        <path
   d="M 47.827853,20.623999 C 46.735875,19.647884 45.514142,18.956533 44.23,18.39 42.89,17.76 41.48,17.33 40.07,16.95 38.65,16.62 37.23,16.3 35.78,16.18 c -1.43,-0.17 -2.87,-0.23 -4.3,-0.14 -2.85,0.09 -5.65,0.74 -8.29,1.89 -1.31,0.59 -2.6,1.29 -3.83,2.14 -1.24,0.84 -2.440781,1.79875 -3.650781,2.83875 l -0.03109,-0.03797 C 16.588125,21.600781 17.52,20.36 18.65,19.29 c 1.15,-1.06 2.42,-1.98 3.78,-2.74 2.72,-1.54 5.83,-2.36 8.95,-2.51 3.13,-0.13 6.26,0.37 9.2,1.42 1.47,0.53 2.89,1.19 4.2,2.04 1.236075,0.808203 2.417905,1.770097 3.261818,3.00603 0.04364,0.06392 0.121541,0.175444 0.03565,0.228303 -0.0859,0.05286 -0.185105,-0.05267 -0.249611,-0.110334 z"
   style="fill:#2f2f2f;fill-opacity:1;fill-rule:nonzero"
   id="path23917"
   sodipodi:nodetypes="scccccccccccccssss" />&#10;    </g><g
   id="g23929"
   style="clip-rule:evenodd;fill-rule:evenodd;stroke-linecap:round;stroke-linejoin:round;stroke-miterlimit:1.5;fill:#2f2f2f;fill-opacity:1"
   transform="translate(-0.31796634,-0.11923345)">&#10;        <path
   d="m 19.787618,43.729547 c 0.09475,1.486346 0.327426,2.784539 0.712382,3.930453 0.24,0.63 0.47,1.23 0.83,1.77 0.32,0.55 0.69,1.11 1.12,1.58 0.19,0.26 0.43,0.48 0.64,0.73 l 0.73,0.65 c 0.49,0.46 1.07,0.82 1.66,1.23 1.21,0.76 2.58,1.45 4.13,2.18 V 56 c -1.62,-0.01 -3.23,-0.33 -4.73,-0.93 -1.49,-0.61 -2.91,-1.52 -3.96,-2.78 -1.02,-1.27 -1.77,-2.79 -1.98,-4.41 -0.185089,-1.427828 -0.03614,-2.87896 0.426294,-4.237003 0.06224,-0.18278 0.122323,-0.331656 0.265599,-0.31387 0.151065,0.01875 0.144638,0.2265 0.155725,0.40042 z"
   style="fill:#2f2f2f;fill-opacity:1;fill-rule:nonzero"
   id="path23927"
   sodipodi:nodetypes="sccccccccccssss" />&#10;    </g><path
   style="fill:#2f2f2f;stroke:none;stroke-width:1.7;stroke-linecap:round;fill-opacity:1"
   d="m 21.54466,73.517008 c 0,1.74567 2.762136,4.02167 4.839262,4.02167 2.077126,0 4.905553,-2.143417 4.905553,-3.977476 0,-0.574524 -0.364602,-1.248485 -1.381068,-1.248485 -1.016466,0 -1.535747,0.585573 -3.612874,0.585573 -2.077126,0 -2.938912,-0.464039 -3.933281,-0.464039 -0.464039,0 -0.817592,0.508233 -0.817592,1.082757 z"
   id="path26189" /><path
   d="m 32.250698,79.452946 c -0.137629,0.34407 -0.481699,0.544778 -0.734017,0.693875 l -0.11469,0.06881 c -1.227184,0.739751 -3.079428,0.63653 -4.346753,0.04014 l -0.131893,-0.06307 c -0.17777,-0.08602 -0.252319,-0.120424 -0.367009,-0.120424 -0.177769,0.0172 -0.34407,0.08602 -0.493167,0.154831 -0.120424,0.05161 -0.240849,0.09749 -0.34407,0.131894 -1.232918,0.389946 -2.580526,0.647999 -3.824913,0.177769 -0.34407,-0.131894 -0.808565,-0.395681 -1.066618,-0.756954 -0.183504,-0.252318 -0.252318,-0.596388 -0.177769,-0.877379 0.06308,-0.240849 0.223645,-0.435822 0.44729,-0.550512 0.447292,-0.212177 0.940459,-0.02294 1.255857,0.143362 0.791362,0.424353 2.156173,0.453026 2.815641,-0.246583 0.223645,-0.240849 0.332601,-0.590654 0.309663,-1.037946 v -0.11469 c -0.665202,-0.02867 3.136773,-0.177769 1.955465,-0.08028 -0.0058,0.418619 -0.01147,0.86591 0.154832,1.152636 l 0.263787,0.212176 c 0.756954,0.516105 1.943996,0.619326 2.76403,0.154831 l 0.143363,-0.08028 c 0.126159,-0.07455 0.246584,-0.143362 0.389946,-0.194973 0.384211,-0.143362 0.808565,-0.02867 1.026476,0.298195 0.166301,0.258052 0.194973,0.596388 0.07455,0.894582 z"
   style="fill:#2f2f2f;fill-rule:nonzero;stroke-width:0.757265"
   id="path27816" /><path
   style="clip-rule:evenodd;fill:#fcc21b;fill-opacity:1;fill-rule:nonzero;stroke-width:1;stroke-linejoin:round;stroke-miterlimit:1.41421"
   d="m 47.787659,34.090021 c 0.343719,-0.973066 1.065046,-1.888037 2.144616,-2.735233 0.881084,-0.69228 1.81542,-1.370037 2.541588,-2.231757 2.139775,-2.546429 3.185457,-6.511306 2.701345,-9.822632 -0.111346,-0.740692 -0.832673,-2.168822 -0.34372,-2.841738 0.847196,-1.152187 2.943401,0.03873 3.616317,0.701963 2.105887,2.071999 3.36942,4.913737 3.984242,7.769997 0.769738,3.548541 0.663233,7.227793 -0.513159,10.664988 -0.977906,2.846579 -3.325849,5.659269 -6.351549,6.327344 -2.594841,0.576093 -5.397849,-1.137663 -6.830821,-3.175775 -1.157027,-1.655663 -1.457177,-3.219345 -0.948859,-4.657157 z"
   id="path2" /></svg>
