<?xml version="1.0" encoding="UTF-8" standalone="no"?>
<svg
   width="128px"
   height="128px"
   version="1.1"
   xml:space="preserve"
   style="fill-rule:evenodd;clip-rule:evenodd;stroke-linejoin:round;stroke-miterlimit:2;"
   id="svg39921"
   sodipodi:docname="biting lip.svg"
   inkscape:version="1.2.2 (732a01da63, 2022-12-09)"
   xmlns:inkscape="http://www.inkscape.org/namespaces/inkscape"
   xmlns:sodipodi="http://sodipodi.sourceforge.net/DTD/sodipodi-0.dtd"
   xmlns="http://www.w3.org/2000/svg"
   xmlns:svg="http://www.w3.org/2000/svg"><defs
     id="defs39925" /><sodipodi:namedview
     id="namedview39923"
     pagecolor="#ffffff"
     bordercolor="#000000"
     borderopacity="0.25"
     inkscape:showpageshadow="2"
     inkscape:pageopacity="0.0"
     inkscape:pagecheckerboard="0"
     inkscape:deskcolor="#d1d1d1"
     showgrid="false"
     inkscape:zoom="4"
     inkscape:cx="56.375"
     inkscape:cy="65.75"
     inkscape:window-width="1366"
     inkscape:window-height="697"
     inkscape:window-x="-8"
     inkscape:window-y="-8"
     inkscape:window-maximized="1"
     inkscape:current-layer="svg39921" /><g
     transform="matrix(1,0,0,1,0,-9.295)"
     id="g39915"><path
       d="m 125.27,72.453 c 0,-9.88 -25.81,-34.36685 -45.89,-34.36685 -7.04,0 -11.87,1.92 -15.3,4.36 -3.43,-2.44 -8.26,-4.36 -15.3,-4.36 -20.08,0 -45.89,24.49685 -45.89,34.36685 0,4.277826 4.166386,7.89897 24.246265,15.563568 20.079879,7.664599 31.875492,18.036772 55.6351,18.036772 27.059795,0 37.548635,-19.85034 41.808635,-30.92034 0.13,-0.33 0.3,-0.68 0.43,-1.15 0.13,-0.47 0.26,-1.02 0.26,-1.53 z"
       style="fill:#9f3621;fill-rule:nonzero"
       id="path39913"
       sodipodi:nodetypes="sscsszsccs" /></g><path
     d="m 56.257,67.796 c 0,0 11.049594,11.99575 28.427271,10.687455 C 102.97447,77.106459 102.196,63.262 102.196,63.262 l -21.879,3.012 z"
     style="fill:#2f2f2f"
     id="path39917"
     sodipodi:nodetypes="csccc" /><path
     d="M26.185,62.264C25.897,62.452 25.729,62.778 25.744,63.122C25.758,63.466 25.953,63.776 26.256,63.939C38.253,70.203 53.741,70.624 68.018,68.824C82.995,66.934 95.999,64.568 101.077,63.602C101.462,63.526 101.765,63.227 101.846,62.843C101.926,62.458 101.769,62.063 101.446,61.839C93.489,56.659 61.695,39.08 26.185,62.264Z"
     style="fill:#fff;"
     id="path39919" /></svg>
