<?xml version="1.0" encoding="UTF-8" standalone="no"?>
<svg
   width="100%"
   height="100%"
   viewBox="0 0 128 128"
   version="1.1"
   xml:space="preserve"
   style="fill-rule:evenodd;clip-rule:evenodd;stroke-linecap:round;stroke-linejoin:round;stroke-miterlimit:1.5;"
   id="svg2482"
   sodipodi:docname="broken chain.svg"
   inkscape:version="1.2.2 (732a01da63, 2022-12-09)"
   xmlns:inkscape="http://www.inkscape.org/namespaces/inkscape"
   xmlns:sodipodi="http://sodipodi.sourceforge.net/DTD/sodipodi-0.dtd"
   xmlns="http://www.w3.org/2000/svg"
   xmlns:svg="http://www.w3.org/2000/svg"><defs
   id="defs2486" /><sodipodi:namedview
   id="namedview2484"
   pagecolor="#ffffff"
   bordercolor="#000000"
   borderopacity="0.25"
   inkscape:showpageshadow="2"
   inkscape:pageopacity="0.0"
   inkscape:pagecheckerboard="0"
   inkscape:deskcolor="#d1d1d1"
   showgrid="false"
   inkscape:zoom="4.2421875"
   inkscape:cx="74.961326"
   inkscape:cy="70.246777"
   inkscape:window-width="1366"
   inkscape:window-height="697"
   inkscape:window-x="-8"
   inkscape:window-y="-8"
   inkscape:window-maximized="1"
   inkscape:current-layer="svg2482" />
    <g
   transform="matrix(0.965926,0.258819,-0.258819,0.965926,10.2632,-5.63643)"
   id="g2428">
        <path
   d="M83.007,70.919L76.551,82.102C71.056,91.619 58.849,94.883 49.34,89.393C39.831,83.903 36.559,71.691 42.049,62.182L45.913,55.489C46.042,55.655 46.18,55.815 46.323,55.966C48.673,58.45 52.642,56.395 55.502,57.633C55.991,57.845 56.412,58.106 56.779,58.408L51.462,67.617C48.967,71.938 50.454,77.484 54.775,79.979C59.096,82.474 64.643,80.988 67.138,76.667L72.182,67.93C72.833,68.405 73.703,68.538 74.629,68.29C76.843,67.697 79.276,66.192 81.426,67.839C82.436,68.613 82.85,69.718 83.007,70.919Z"
   style="fill:rgb(120,163,173);"
   id="path2426" />
    </g>
    <g
   transform="matrix(0.707107,0.707107,-0.707107,0.707107,76.28,-29.6059)"
   id="g2432">
        <path
   d="M45.913,55.489L51.704,45.459C57.194,35.95 69.406,32.677 78.915,38.167C88.424,43.657 91.696,55.87 86.206,65.379L83.007,70.919C82.85,69.718 82.436,68.613 81.426,67.839C79.276,66.192 76.843,67.697 74.629,68.29C73.703,68.538 72.833,68.405 72.182,67.93L76.793,59.944C79.296,55.627 77.801,50.076 73.48,47.581C69.159,45.086 63.612,46.572 61.117,50.894L56.779,58.408C56.412,58.106 55.991,57.845 55.502,57.633C52.642,56.395 48.673,58.45 46.323,55.966C46.18,55.815 46.042,55.655 45.913,55.489Z"
   style="fill:rgb(120,163,173);"
   id="path2430" />
    </g>
    <g
   transform="matrix(0.707107,0.707107,-0.707107,0.707107,12.2217,-12.1259)"
   id="g2436">
        <path
   d="M90.63,126.33C79.65,126.33 70.71,117.39 70.71,106.41L70.71,87.1C70.71,76.12 79.65,67.18 90.63,67.18C101.61,67.18 110.55,76.12 110.55,87.1L110.55,106.41C110.55,117.4 101.61,126.33 90.63,126.33ZM90.63,78.05C85.64,78.05 81.58,82.11 81.58,87.1L81.58,106.41C81.58,111.4 85.64,115.46 90.63,115.46C95.62,115.46 99.68,111.4 99.68,106.41L99.68,87.1C99.69,82.11 95.62,78.05 90.63,78.05Z"
   style="fill:rgb(120,163,173);fill-rule:nonzero;"
   id="path2434" />
    </g>
    <g
   transform="matrix(0.258819,0.965926,-0.965926,0.258819,146.527,-51.7454)"
   id="g2440">
        <path
   d="M90.63,59.09C79.65,59.09 70.71,50.15 70.71,39.17L70.71,19.85C70.71,8.87 79.65,-0.07 90.63,-0.07C101.61,-0.07 110.55,8.87 110.55,19.85L110.55,39.16C110.55,50.15 101.61,59.09 90.63,59.09ZM90.63,10.8C85.64,10.8 81.58,14.86 81.58,19.85L81.58,39.16C81.58,44.15 85.64,48.21 90.63,48.21C95.62,48.21 99.68,44.15 99.68,39.16L99.68,19.85C99.69,14.86 95.62,10.8 90.63,10.8Z"
   style="fill:rgb(120,163,173);fill-rule:nonzero;"
   id="path2438" />
    </g>
    <g
   transform="matrix(0.707107,0.707107,-0.707107,0.707107,60.0291,-59.9334)"
   id="g2444">
        <path
   d="M90.63,155.31C87.63,155.31 85.2,152.88 85.2,149.88L85.2,111.25C85.2,108.25 87.63,105.82 90.63,105.82C93.63,105.82 96.06,108.25 96.06,111.25L96.06,149.88C96.06,152.87 93.63,155.31 90.63,155.31Z"
   style="fill:rgb(100,135,142);fill-rule:nonzero;"
   id="path2442" />
    </g>
    <g
   transform="matrix(0.258819,0.965926,-0.965926,0.258819,146.527,-51.7454)"
   id="g2448">
        <path
   d="M90.63,87.71C87.63,87.71 85.2,85.28 85.2,82.28L85.2,43.64C85.2,40.64 87.63,38.21 90.63,38.21C93.63,38.21 96.06,40.64 96.06,43.64L96.06,82.27C96.06,85.27 93.63,87.71 90.63,87.71Z"
   style="fill:rgb(100,135,142);fill-rule:nonzero;"
   id="path2446" />
    </g>
    
    
    
    
    
    
    
    
<path
   style="fill:#5b808d;fill-opacity:0.298039"
   d="m 58.864353,46.253125 a 0.68,0.68 0 0 0 0.548502,0.322227 l 1.030623,0.03994 c 0.337972,0.01658 0.631565,-0.233535 0.684176,-0.570034 l 2.867789,-18.913401 c 0.02633,-0.168247 -0.0087,-0.32218 -0.08678,-0.450281 -0.114457,-0.187883 -0.308401,-0.316275 -0.546835,-0.323245 l -6.448126,-0.204406 c -0.41002,-0.01954 -0.739636,0.344149 -0.678598,0.751881 l 2.549068,19.080554 a 0.544,0.544 0 0 0 0.08018,0.266759 z"
   id="path1310"
   inkscape:transform-center-x="-6.9234924"
   inkscape:transform-center-y="-12.820632" /><path
   style="fill:#5b808d;fill-opacity:0.298039"
   d="m 39.88136,34.111614 c 0.03122,0.05125 0.07195,0.09605 0.116908,0.150617 l 12.503846,13.951456 c 0.326587,0.363099 0.867405,0.443558 1.285866,0.188633 l 0.281889,-0.171727 c 0.452623,-0.27574 0.623624,-0.859091 0.376843,-1.341064 l -8.437121,-16.499822 -0.04168,-0.06841 c -0.291348,-0.478243 -0.927871,-0.640269 -1.40945,-0.335184 l -4.351296,2.719443 a 1.03,1.03 0 0 0 -0.325825,1.406036 z"
   id="path1308"
   inkscape:transform-center-x="5.4581192"
   inkscape:transform-center-y="-8.3643478" /><path
   style="fill:#5b808d;fill-opacity:0.298039"
   d="m 30.519085,47.525786 c 0.130066,0.213502 0.333823,0.39464 0.596795,0.480335 l 17.253555,5.83438 c 0.544893,0.183256 1.130829,-0.06721 1.365728,-0.585018 l 0.102051,-0.2154 c 0.164025,-0.345826 0.130623,-0.746641 -0.05668,-1.054083 -0.07804,-0.128101 -0.181156,-0.240012 -0.310437,-0.336896 L 34.437804,41.156797 c -0.566887,-0.39235 -1.353332,-0.182844 -1.656156,0.434889 l -2.31924,4.88001 c -0.172564,0.351028 -0.130614,0.746649 0.05668,1.054091 z"
   id="path396"
   inkscape:transform-center-x="13.044427"
   inkscape:transform-center-y="-1.7762944" /><path
   style="fill:#5b808d;fill-opacity:0.298039"
   d="m 76.897474,91.181767 a 0.68,0.68 0 0 0 -0.5485,-0.32222 l -1.03062,-0.0399 c -0.33798,-0.0166 -0.63157,0.23353 -0.68418,0.57003 l -2.86779,18.913403 c -0.0263,0.16825 0.009,0.32218 0.0868,0.45028 0.11446,0.18789 0.3084,0.31628 0.54684,0.32325 l 6.44812,0.2044 c 0.41002,0.0195 0.73964,-0.34415 0.6786,-0.75188 l -2.54907,-19.080553 a 0.544,0.544 0 0 0 -0.0802,-0.26676 z"
   id="path3127"
   inkscape:transform-center-x="6.9234926"
   inkscape:transform-center-y="12.820632" /><path
   style="fill:#5b808d;fill-opacity:0.298039"
   d="m 95.457838,102.58995 c -0.0312,-0.0513 -0.0719,-0.0961 -0.11691,-0.15061 L 82.837078,88.487882 c -0.32659,-0.3631 -0.8674,-0.44356 -1.28586,-0.18863 l -0.28189,0.17172 c -0.45263,0.27574 -0.62363,0.85909 -0.37685,1.34107 l 8.43712,16.499818 0.0417,0.0684 c 0.29135,0.47824 0.92788,0.64027 1.40945,0.33518 l 4.3513,-2.71944 a 1.03,1.03 0 0 0 0.32583,-1.40604 z"
   id="path3129"
   inkscape:transform-center-x="-5.458119"
   inkscape:transform-center-y="8.3643482" /><path
   style="fill:#5b808d;fill-opacity:0.298039"
   d="m 105.24274,89.909107 c -0.13007,-0.2135 -0.33382,-0.39464 -0.5968,-0.48033 l -17.253546,-5.83438 c -0.54489,-0.18326 -1.13083,0.0672 -1.36573,0.58502 l -0.10205,0.2154 c -0.16402,0.34582 -0.13062,0.74664 0.0567,1.05408 0.078,0.1281 0.18116,0.24001 0.31044,0.33689 l 15.032286,10.49231 c 0.56689,0.39235 1.35333,0.18285 1.65616,-0.43489 l 2.31924,-4.88001 c 0.17256,-0.35103 0.13061,-0.74665 -0.0567,-1.05409 z"
   id="path3131"
   inkscape:transform-center-x="-13.044427"
   inkscape:transform-center-y="1.7762948" /></svg>
