<?xml version="1.0" encoding="UTF-8" standalone="no"?>
<svg
   width="100%"
   height="100%"
   viewBox="0 0 128 128"
   version="1.1"
   xml:space="preserve"
   style="fill-rule:evenodd;clip-rule:evenodd;stroke-linejoin:round;stroke-miterlimit:2;"
   id="svg4"
   sodipodi:docname="carpentry saw.svg"
   inkscape:version="1.3 (0e150ed6c4, 2023-07-21)"
   xmlns:inkscape="http://www.inkscape.org/namespaces/inkscape"
   xmlns:sodipodi="http://sodipodi.sourceforge.net/DTD/sodipodi-0.dtd"
   xmlns="http://www.w3.org/2000/svg"
   xmlns:svg="http://www.w3.org/2000/svg"><defs
   id="defs4"><inkscape:path-effect
     effect="fillet_chamfer"
     id="path-effect6"
     is_visible="true"
     lpeversion="1"
     nodesatellites_param="F,0,0,1,0,0,0,1 @ F,0,0,1,0,2.5628853,0,1 @ F,0,0,1,0,2.5628853,0,1 @ F,0,1,1,0,1.9333306,0,1 @ F,0,0,1,0,1.9333306,0,1 @ F,0,1,1,0,1.9333306,0,1 @ F,0,1,1,0,1.9333306,0,1 @ F,0,1,1,0,1.9333306,0,1 @ F,0,1,1,0,1.9333306,0,1 @ F,0,1,1,0,1.9333306,0,1 @ F,0,1,1,0,1.9333306,0,1 @ F,0,1,1,0,1.9333306,0,1 @ F,0,1,1,0,1.9333306,0,1 @ F,0,1,1,0,1.9333306,0,1 @ F,0,1,1,0,1.9333306,0,1 @ F,0,1,1,0,1.9333306,0,1 @ F,0,1,1,0,1.9333306,0,1 @ F,0,0,1,0,0,0,1 @ F,0,0,1,0,0,0,1"
     radius="0"
     unit="px"
     method="auto"
     mode="F"
     chamfer_steps="1"
     flexible="false"
     use_knot_distance="true"
     apply_no_radius="true"
     apply_with_radius="true"
     only_selected="false"
     hide_knots="false" /><inkscape:path-effect
     effect="fillet_chamfer"
     id="path-effect5"
     is_visible="true"
     lpeversion="1"
     nodesatellites_param="F,0,1,1,0,7.7118494,0,1 @ F,0,0,1,0,7.7118494,0,1 @ F,0,1,1,0,7.7118494,0,1 @ F,0,1,1,0,7.7118494,0,1"
     radius="0"
     unit="px"
     method="auto"
     mode="F"
     chamfer_steps="1"
     flexible="false"
     use_knot_distance="true"
     apply_no_radius="true"
     apply_with_radius="true"
     only_selected="false"
     hide_knots="false" /></defs><sodipodi:namedview
   id="namedview4"
   pagecolor="#ffffff"
   bordercolor="#000000"
   borderopacity="0.25"
   inkscape:showpageshadow="2"
   inkscape:pageopacity="0.0"
   inkscape:pagecheckerboard="0"
   inkscape:deskcolor="#d1d1d1"
   inkscape:zoom="2.0273438"
   inkscape:cx="15.044316"
   inkscape:cy="50.558767"
   inkscape:window-width="1366"
   inkscape:window-height="697"
   inkscape:window-x="-8"
   inkscape:window-y="-8"
   inkscape:window-maximized="1"
   inkscape:current-layer="svg4" />&#10;    &#10;    &#10;    &#10;    &#10;<g
   id="g6"
   transform="matrix(1.0294798,0,0,1.0294798,-5.4463301,-7.1084811)"
   style="stroke-width:0.971364"><path
     id="path5"
     style="fill:#6593a2;fill-opacity:1;stroke:none;stroke-width:5.82819;stroke-linecap:round"
     d="m 18.213786,28.01623 a 3.248298,3.248298 0 0 0 -0.472323,3.996809 3.2421139,3.2421139 0 0 0 2.882296,1.490171 l 2.988628,-0.08286 a 1.6645758,1.6645758 0 0 1 1.698716,1.864441 l -0.610434,5.010514 a 1.7985155,1.7985155 0 0 0 1.695946,2.0136 l 3.546585,0.174013 a 1.7985148,1.7985148 0 0 1 1.698709,2.013598 l -0.610423,5.010512 a 1.798514,1.798514 0 0 0 1.697335,2.012215 l 3.546575,0.174016 a 1.7985142,1.7985142 0 0 1 1.695956,2.013597 l -0.609054,5.009133 a 1.7985142,1.7985142 0 0 0 1.69733,2.01498 l 3.5452,0.172633 a 1.7985139,1.7985139 0 0 1 1.697339,2.014974 l -0.609053,5.009136 a 1.7985141,1.7985141 0 0 0 1.695946,2.013599 l 3.546594,0.17401 a 1.7985141,1.7985141 0 0 1 1.69871,2.013599 l -0.610433,5.010515 a 1.7985141,1.7985141 0 0 0 1.697326,2.012221 l 3.545204,0.17539 a 1.7985155,1.7985155 0 0 1 1.697335,2.012218 l -0.610433,5.010514 a 2.2866605,2.2866605 45 0 0 1.621372,2.46935 l 2.285669,0.678103 a 2.7158885,2.7158885 0 0 1 1.941781,2.480399 l 0.248596,5.502173 3.165404,4.604477 L 101.28779,78.469402 36.336165,13.517776 a 2.5628853,2.5628853 0 0 0 -3.625301,0.0014 z m 13.567615,-8.670346 a 3.3294797,3.3294797 0 0 1 4.70944,0 3.3294797,3.3294797 0 0 1 -0.0014,4.708062 3.3294797,3.3294797 0 0 1 -4.706676,-2e-6 3.3294797,3.3294797 0 0 1 -0.0014,-4.70806 z" /><path
     id="rect5"
     style="fill:#ed6c30;stroke-width:5.82819;stroke-linecap:round"
     d="m 64.679824,95.69546 c -3.011703,3.011702 -3.010325,7.89459 0.0014,10.9063 L 81.1767,123.09723 c 3.011161,3.01116 7.89375,3.01116 10.904917,0 L 115.3954,99.783428 c 3.01116,-3.011167 3.01116,-7.893758 -10e-6,-10.904913 L 98.899923,72.383034 c -3.011701,-3.0117 -7.894594,-3.01308 -10.906293,-0.0014 z m 19.848708,10.242 13.707097,-13.707097 c 0.599737,-0.599738 4.100201,-2.777514 7.151171,0.273456 3.05096,3.050961 0.87319,6.551427 0.27345,7.151166 L 91.953154,113.36208 c -0.59974,0.59974 -4.100209,2.77752 -7.151176,-0.27345 -3.050965,-3.05096 -0.873186,-6.55143 -0.273446,-7.15117 z"
     sodipodi:nodetypes="ssssssssssssssss" /></g></svg>
