<?xml version="1.0" encoding="UTF-8" standalone="no"?>
<!-- Generator: Adobe Illustrator 24.0.3, SVG Export Plug-In . SVG Version: 6.00 Build 0)  -->

<svg
   version="1.1"
   id="original"
   x="0px"
   y="0px"
   viewBox="0 0 128 128"
   style="enable-background:new 0 0 128 128;"
   xml:space="preserve"
   sodipodi:docname="cockroach.svg"
   inkscape:version="1.3 (0e150ed6c4, 2023-07-21)"
   xmlns:inkscape="http://www.inkscape.org/namespaces/inkscape"
   xmlns:sodipodi="http://sodipodi.sourceforge.net/DTD/sodipodi-0.dtd"
   xmlns="http://www.w3.org/2000/svg"
   xmlns:svg="http://www.w3.org/2000/svg"><defs
   id="defs19433"><clipPath
   id="SVGID_4_-1"><path
     id="use50-5"
     d="m 99.3,44.6 c 13.1,22.68 6.52,51 -14.7,63.24 C 63.38,120.08 35.58,111.63 22.48,88.94 9.38,66.25 18.02,41.51 39.24,29.27 60.46,17.03 86.2,21.92 99.3,44.6 Z" /></clipPath><clipPath
   id="clipPath1"><path
     id="use1"
     d="m 99.3,44.6 c 13.1,22.68 6.52,51 -14.7,63.24 C 63.38,120.08 35.58,111.63 22.48,88.94 9.38,66.25 18.02,41.51 39.24,29.27 60.46,17.03 86.2,21.92 99.3,44.6 Z" /></clipPath><clipPath
   id="clipPath2"><path
     id="use2"
     d="m 99.3,44.6 c 13.1,22.68 6.52,51 -14.7,63.24 C 63.38,120.08 35.58,111.63 22.48,88.94 9.38,66.25 18.02,41.51 39.24,29.27 60.46,17.03 86.2,21.92 99.3,44.6 Z" /></clipPath><clipPath
   id="clipPath3"><path
     id="use3"
     d="m 99.3,44.6 c 13.1,22.68 6.52,51 -14.7,63.24 C 63.38,120.08 35.58,111.63 22.48,88.94 9.38,66.25 18.02,41.51 39.24,29.27 60.46,17.03 86.2,21.92 99.3,44.6 Z" /></clipPath><path
   id="path102"
   d="m 99.3,44.6 c 13.1,22.68 6.52,51 -14.7,63.24 C 63.38,120.08 35.58,111.63 22.48,88.94 9.38,66.25 18.02,41.51 39.24,29.27 60.46,17.03 86.2,21.92 99.3,44.6 Z" />&#10;	&#10;	&#10;	&#10;	&#10;	&#10;	&#10;	&#10;&#10;		&#10;			<linearGradient
   id="SVGID_5_"
   gradientUnits="userSpaceOnUse"
   x1="67.354897"
   y1="124.7704"
   x2="67.354897"
   y2="69.961899"
   gradientTransform="matrix(0.7071,-0.7071,0.7071,0.7071,-34.0178,60.8639)">&#10;			<stop
   offset="0.3189"
   style="stop-color:#CF7756"
   id="stop19399" />&#10;			<stop
   offset="1"
   style="stop-color:#814D3C"
   id="stop19401" />&#10;		</linearGradient>&#10;		&#10;		&#10;		&#10;	</defs><sodipodi:namedview
   id="namedview19431"
   pagecolor="#ffffff"
   bordercolor="#000000"
   borderopacity="0.25"
   inkscape:showpageshadow="2"
   inkscape:pageopacity="0.0"
   inkscape:pagecheckerboard="0"
   inkscape:deskcolor="#d1d1d1"
   showgrid="false"
   inkscape:zoom="1.4998398"
   inkscape:cx="-17.668554"
   inkscape:cy="115.01229"
   inkscape:window-width="1366"
   inkscape:window-height="697"
   inkscape:window-x="-8"
   inkscape:window-y="-8"
   inkscape:window-maximized="1"
   inkscape:current-layer="original" />&#10;<g
   id="g19369"
   transform="rotate(45,69.589516,61.168843)">&#10;		&#10;			<linearGradient
   id="SVGID_3_"
   gradientUnits="userSpaceOnUse"
   x1="460.22009"
   y1="-63.101002"
   x2="469.83551"
   y2="-72.976303"
   gradientTransform="matrix(-0.1374,0.9905,0.9905,0.1374,208.7247,-395.4498)">&#10;			<stop
   offset="0.2284"
   style="stop-color:#814D3C"
   id="stop19349" />&#10;			<stop
   offset="1"
   style="stop-color:#51362D"
   id="stop19351" />&#10;		</linearGradient>&#10;		&#10;		&#10;			<linearGradient
   id="SVGID_4_"
   gradientUnits="userSpaceOnUse"
   x1="434.9118"
   y1="-106.6886"
   x2="434.9118"
   y2="-47.457699"
   gradientTransform="matrix(-0.1521,0.9884,0.9884,0.1521,208.5643,-396.2417)">&#10;			<stop
   offset="0.2013"
   style="stop-color:#CF7756"
   id="stop19356" />&#10;			<stop
   offset="0.253"
   style="stop-color:#C87354"
   id="stop19358" />&#10;			<stop
   offset="0.5539"
   style="stop-color:#A15E47"
   id="stop19360" />&#10;			<stop
   offset="0.7952"
   style="stop-color:#8A523F"
   id="stop19362" />&#10;			<stop
   offset="0.9449"
   style="stop-color:#814D3C"
   id="stop19364" />&#10;		</linearGradient>&#10;		&#10;	</g><g
   id="g32"
   transform="rotate(-30,74.227239,48.77322)"><path
     style="fill:none;stroke:#f28d5e;stroke-width:4;stroke-linecap:round;stroke-dasharray:none;stroke-opacity:1"
     d="m 68.660256,27.336254 c 0,0 3.692603,-24.0492637 18.737781,-22.0658068 C 104.65986,7.5461323 104.79546,39.29622 123.99964,43.671332"
     id="path32"
     sodipodi:nodetypes="csc" /><path
     style="fill:none;stroke:#f28d5e;stroke-width:4;stroke-linecap:round;stroke-dasharray:none;stroke-opacity:1"
     d="m 59.339744,27.336254 c 0,0 -3.692603,-24.0492637 -18.737781,-22.0658068 C 23.340137,7.5461323 23.20454,39.29622 4.0003565,43.671332"
     id="path31"
     sodipodi:nodetypes="csc" /><path
     d="m 53.771581,47.669039 c 0.830692,-0.478801 1.411317,-1.344469 1.481602,-2.36621 0.111464,-1.63306 -1.125066,-3.051332 -2.758116,-3.162798 v 0 C 50.13043,41.975699 45.936683,41.159477 43.7877,39.641628 43.351604,37.576969 42.365512,32.284927 42.235119,26.470779 c -0.03612,-1.637438 -1.395946,-2.942149 -3.03838,-2.897368 -1.637443,0.03613 -2.942149,1.395949 -2.897371,3.038387 0.189633,8.111553 1.86047,15.057568 1.932341,15.353092 0.129089,0.536409 0.40844,1.032559 0.802471,1.41012 4.032155,3.956098 12.151103,4.613668 13.061244,4.677258 0.611317,0.04117 1.188707,-0.0989 1.676192,-0.383249 z"
     style="fill:#855c52"
     id="path2" /><path
     d="m 36.4521,79.836405 c 0.974128,-0.116927 1.874787,-0.715935 2.333839,-1.671426 4.277907,-8.971289 12.779,-13.583906 12.863039,-13.621814 1.44685,-0.770403 1.990831,-2.563805 1.234428,-4.008641 -0.77041,-1.44685 -2.555796,-1.996821 -4.000631,-1.240415 -0.418257,0.22554 -10.304109,5.524634 -15.452022,16.320962 -0.705623,1.477222 -0.07559,3.253913 1.401634,3.959547 0.521731,0.246572 1.081642,0.32719 1.619713,0.261787 z"
     style="fill:#855c52"
     id="path3" /><path
     d="m 39.287129,110.20303 c 1.403138,0.098 2.720499,-0.80652 3.087293,-2.22862 3.062144,-11.938713 12.616432,-16.277303 12.710788,-16.311894 1.502145,-0.660877 2.177182,-2.410051 1.516314,-3.912195 -0.660876,-1.502155 -2.410051,-2.177192 -3.912205,-1.516315 -0.503712,0.221745 -12.28914,5.574287 -16.061376,20.268044 -0.409114,1.58706 0.550014,3.2003 2.13706,3.60942 0.169305,0.0513 0.347901,0.0759 0.522123,0.0916 z"
     style="fill:#855c52"
     id="path4" /><path
     d="m 74.023809,47.669039 c -0.830692,-0.478801 -1.411317,-1.344469 -1.481602,-2.36621 -0.111464,-1.63306 1.125066,-3.051332 2.758116,-3.162798 v 0 c 2.364637,-0.164332 6.558384,-0.980554 8.707367,-2.498403 0.436096,-2.064659 1.422188,-7.356701 1.552581,-13.170849 0.03612,-1.637438 1.395946,-2.942149 3.03838,-2.897368 1.637443,0.03613 2.942149,1.395949 2.897371,3.038387 -0.189633,8.111553 -1.86047,15.057568 -1.932341,15.353092 -0.129089,0.536409 -0.40844,1.032559 -0.802471,1.41012 -4.032155,3.956098 -12.151103,4.613668 -13.061244,4.677258 -0.611317,0.04117 -1.188707,-0.0989 -1.676192,-0.383249 z"
     style="fill:#855c52"
     id="path43-9-9" /><path
     d="M 91.34329,79.836405 C 90.369162,79.719478 89.468503,79.12047 89.009451,78.164979 84.731544,69.19369 76.230451,64.581073 76.146412,64.543165 c -1.44685,-0.770403 -1.990831,-2.563805 -1.234428,-4.008641 0.77041,-1.44685 2.555796,-1.996821 4.000631,-1.240415 0.418257,0.22554 10.304109,5.524634 15.452022,16.320962 0.705623,1.477222 0.07559,3.253913 -1.401634,3.959547 -0.521731,0.246572 -1.081642,0.32719 -1.619713,0.261787 z"
     style="fill:#855c52"
     id="path44-0-9" /><path
     d="m 88.508261,110.20303 c -1.403138,0.098 -2.720499,-0.80652 -3.087293,-2.22862 C 82.358824,96.035697 72.804536,91.697107 72.71018,91.662516 c -1.502145,-0.660877 -2.177182,-2.410051 -1.516314,-3.912195 0.660876,-1.502155 2.410051,-2.177192 3.912205,-1.516315 0.503712,0.221745 12.28914,5.574287 16.061376,20.268044 0.409114,1.58706 -0.550014,3.2003 -2.13706,3.60942 -0.169305,0.0513 -0.347901,0.0759 -0.522123,0.0916 z"
     style="fill:#855c52"
     id="path45-4-2" /><g
     id="g19379"
     transform="rotate(45,69.611049,61.220828)">&#10;		<g
   id="g19373">&#10;			<path
   style="fill:#ed6c30"
   d="m 105.69,118.48 c -0.63,0.08 -1.25,-0.29 -1.47,-0.9 l -2.82,-7.87 c -0.26,-0.72 0.12,-1.51 0.83,-1.77 0.72,-0.26 1.51,0.12 1.77,0.83 l 2.82,7.87 c 0.26,0.72 -0.12,1.51 -0.83,1.77 -0.1,0.04 -0.2,0.06 -0.3,0.07 z"
   id="path19371" />&#10;		</g>&#10;		<g
   id="g19377">&#10;			<path
   style="fill:#ed6c30"
   d="m 118.94,105.24 c 0.08,-0.63 -0.29,-1.25 -0.9,-1.47 l -7.87,-2.82 c -0.72,-0.26 -1.51,0.12 -1.77,0.83 -0.26,0.72 0.12,1.51 0.83,1.77 l 7.87,2.82 c 0.72,0.26 1.51,-0.12 1.77,-0.83 0.03,-0.11 0.06,-0.2 0.07,-0.3 z"
   id="path19375" />&#10;		</g>&#10;	</g><g
     id="g19389"
     transform="rotate(45,69.413857,60.744765)">&#10;		<path
   style="fill:#f28d5e"
   d="m 42.78,57.91 c 0,0 -5.38,-4.9 -7.04,-9.18 -1.46,-3.77 -1.8,-7.46 2.12,-11.32 4.36,-4.29 8.78,-3.66 13.15,-1.61 3.53,1.65 7.98,6 7.98,6 z"
   id="path19381" />&#10;		&#10;			<ellipse
   transform="rotate(-25.804022)"
   style="fill:#2f2f2f;fill-opacity:1;stroke-width:1.00001"
   cx="15.010233"
   cy="57.890186"
   rx="2.30003"
   ry="2.750036"
   id="ellipse19383" />&#10;		&#10;			<ellipse
   transform="rotate(-63.75011)"
   style="fill:#2f2f2f;fill-opacity:1;stroke-width:1.00003"
   cx="-13.552396"
   cy="58.212612"
   rx="2.3000677"
   ry="2.7500811"
   id="ellipse19385" />&#10;		&#10;	</g><g
     id="g19397"
     transform="rotate(45,69.609281,61.21656)">&#10;		<path
   style="fill:#8d6b63"
   d="m 62.89,43.2 c -6.75,-5.69 -14.32,-3.02 -18.32,0.91 -3.94,4.01 -6.6,11.57 -0.91,18.32 6.59,7.83 12.43,6.12 12.43,6.12 l 8.23,-4.69 4.69,-8.23 c 0,0 1.7,-5.84 -6.12,-12.43 z"
   id="path19391" />&#10;		<path
   style="fill:#f28d5e"
   d="m 59.99,62.34 c -5.96,-1.32 -11.58,1.29 -13.94,2.62 5.6,5.02 10.13,3.7 10.13,3.7 l 6.85,-4.3 c 0,0 -1.13,-1.59 -3.04,-2.02 z"
   id="path19393" />&#10;		<path
   style="fill:#f28d5e"
   d="m 62.8,59.53 c -1.32,-5.96 1.29,-11.58 2.62,-13.94 5.02,5.6 3.7,10.13 3.7,10.13 l -4.3,6.85 c -0.01,0.01 -1.6,-1.13 -2.02,-3.04 z"
   id="path19395" />&#10;	</g><path
     style="fill:#f28d5e"
     d="m 78.926487,63.963075 c -0.608112,-3.903229 -3.365829,-6.505382 -3.365829,-6.505382 0,0 -7.601398,2.085965 -11.561196,2.18496 -3.959798,-0.099 -11.561195,-2.18496 -11.561195,-2.18496 0,0 -2.757717,2.602153 -3.365829,6.505382 -0.608112,3.90323 -0.445477,12.452151 0.07071,18.908035 0.537401,6.689231 1.569777,42.01629 14.849242,42.01629 13.279466,0 14.311842,-35.327059 14.849243,-42.01629 0.537401,-6.462956 0.692964,-15.004805 0.08485,-18.908035 z"
     id="path19404" /><g
     id="g19413"
     transform="rotate(45,69.230009,60.300917)">&#10;			&#10;				<linearGradient
   id="SVGID_6_"
   gradientUnits="userSpaceOnUse"
   x1="439.8609"
   y1="-54.7458"
   x2="425.08191"
   y2="-72.034401"
   gradientTransform="matrix(-0.0253,0.9997,0.9997,0.0253,146.6007,-358.7425)">&#10;				<stop
   offset="0.4957"
   style="stop-color:#734434"
   id="stop19406" />&#10;				<stop
   offset="1"
   style="stop-color:#51362D"
   id="stop19408" />&#10;			</linearGradient>&#10;			<path
   style="fill:#5d4037;fill-opacity:1"
   d="m 96.93,105.98 c 0,-0.05 0,-0.11 0,-0.16 C 96.91,105.62 95.87,98.68 91.98,86.5 90.5,81.87 85.73,72.15 80.81,65.77 75.93,59.43 71.03,55.74 70.83,55.58 c -0.68,-0.51 -1.64,-0.37 -2.15,0.31 -0.51,0.68 -0.37,1.64 0.31,2.15 0.05,0.04 4.78,3.62 9.39,9.6 4.5,5.84 9.13,15.28 10.7,19.86 3.61,10.49 4.79,18.51 4.79,18.55 0.07,0.84 0.81,1.47 1.65,1.41 0.78,-0.06 1.39,-0.71 1.41,-1.48 z"
   id="path19411" />&#10;		</g><g
     id="g19422"
     transform="rotate(45,69.645606,61.304255)">&#10;			&#10;				<linearGradient
   id="SVGID_7_"
   gradientUnits="userSpaceOnUse"
   x1="168.93871"
   y1="202.7988"
   x2="154.1597"
   y2="185.51019"
   gradientTransform="matrix(0.9997,-0.0253,0.0253,0.9997,-93.4809,-118.661)">&#10;				<stop
   offset="0.4957"
   style="stop-color:#734434"
   id="stop19415" />&#10;				<stop
   offset="1"
   style="stop-color:#51362D"
   id="stop19417" />&#10;			</linearGradient>&#10;			<path
   style="fill:#5d4037;fill-opacity:1"
   d="m 106.92,95.98 c -0.05,0 -0.11,0 -0.16,0 -0.2,-0.02 -7.14,-1.06 -19.32,-4.95 C 82.81,89.55 73.09,84.78 66.71,79.86 60.37,74.98 56.68,70.08 56.52,69.88 c -0.51,-0.68 -0.37,-1.64 0.31,-2.15 0.68,-0.51 1.64,-0.37 2.15,0.31 0.04,0.05 3.62,4.78 9.6,9.39 5.84,4.5 15.28,9.13 19.86,10.7 10.49,3.61 18.51,4.79 18.55,4.79 0.84,0.07 1.47,0.81 1.41,1.65 -0.05,0.79 -0.7,1.39 -1.48,1.41 z"
   id="path19420" />&#10;		</g><path
     style="fill:#3e2723"
     d="m 75.676544,54.049438 c 0,0 -6.29325,3.521392 -11.504627,3.726453 -4.907321,0.19799 -11.822826,-2.941564 -11.822826,-2.941564 0,0 -0.650538,0.636396 -0.855599,1.336431 -0.19799,0.692965 -0.205061,1.576849 0.268701,2.149605 0.685893,0.841457 7.771103,3.613316 13.746156,3.040559 5.975052,-0.572756 11.646048,-3.231478 11.087434,-5.727565 -0.311127,-1.357645 -0.919239,-1.583919 -0.919239,-1.583919 z"
     id="path19426" /></g>&#10;</svg>
