<?xml version="1.0" encoding="UTF-8" standalone="no"?>
<!-- Generator: Adobe Illustrator 25.2.3, SVG Export Plug-In . SVG Version: 6.00 Build 0)  -->

<svg
   version="1.1"
   x="0px"
   y="0px"
   viewBox="0 0 128 128"
   style="enable-background:new 0 0 128 128;"
   xml:space="preserve"
   id="svg41198"
   sodipodi:docname="coral.svg"
   inkscape:version="1.2.2 (732a01da63, 2022-12-09)"
   xmlns:inkscape="http://www.inkscape.org/namespaces/inkscape"
   xmlns:sodipodi="http://sodipodi.sourceforge.net/DTD/sodipodi-0.dtd"
   xmlns="http://www.w3.org/2000/svg"
   xmlns:svg="http://www.w3.org/2000/svg"><defs
   id="defs41202" /><sodipodi:namedview
   id="namedview41200"
   pagecolor="#ffffff"
   bordercolor="#000000"
   borderopacity="0.25"
   inkscape:showpageshadow="2"
   inkscape:pageopacity="0.0"
   inkscape:pagecheckerboard="0"
   inkscape:deskcolor="#d1d1d1"
   showgrid="false"
   inkscape:zoom="4.2421875"
   inkscape:cx="48.913444"
   inkscape:cy="63.882136"
   inkscape:window-width="1366"
   inkscape:window-height="697"
   inkscape:window-x="-8"
   inkscape:window-y="-8"
   inkscape:window-maximized="1"
   inkscape:current-layer="Layer_3" />
<g
   id="Layer_2">
</g>
<g
   id="Layer_3">
	<path
   id="path41163"
   style="fill:#ed6c30"
   d="M 68.492188 6.4628906 C 68.259688 6.4624219 68.009765 6.4770313 67.759766 6.5195312 C 66.549767 6.729531 63.630625 7.8894569 63.390625 11.689453 C 63.050625 17.229448 65.119062 26.149846 65.039062 28.839844 C 64.959063 31.529841 64.290153 34.560313 60.910156 34.820312 C 57.53016 35.080312 55.329373 28.070464 53.609375 23.730469 C 52.419376 20.740472 50.459452 17.510076 49.189453 15.330078 C 47.369455 12.210081 44.689685 10.819454 42.179688 11.689453 C 42.016114 11.74615 41.868221 11.819793 41.730469 11.904297 C 38.215143 13.247045 36.959152 16.450967 38.550781 20.660156 C 39.53078 23.280154 43.429846 29.449848 45.339844 33.589844 C 46.529843 36.179841 49.080234 47.440002 48.990234 49 C 48.986957 49.063906 48.961202 49.160962 48.951172 49.234375 C 48.182436 51.48059 47.346398 53.897422 46.566406 56.244141 C 46.149094 57.4362 45.733052 58.698115 45.369141 60.009766 C 44.24187 64.097268 42.597361 71.558718 42.304688 72.890625 C 42.244095 72.868691 40.78334 72.336749 38.109375 70.75 C 36.209377 69.620001 35.169922 67.199219 35.169922 67.199219 C 35.169922 67.199219 36.330859 64.719293 36.380859 60.529297 C 36.410859 57.7393 35.160234 54.819216 34.990234 51.699219 C 34.820235 48.579222 35.25 45.19906 35.25 43.039062 C 35.25 40.869065 34.040389 40.269687 32.650391 40.179688 C 32.628654 40.178427 32.611373 40.186369 32.589844 40.185547 C 31.208592 40.052181 29.147234 40.222619 27.699219 41.289062 C 26.45922 42.199062 24.890625 43.529926 24.390625 47.919922 C 23.760626 53.509916 26.220859 58.299455 26.130859 59.689453 C 26.040859 61.069452 24.930545 63.520157 23.060547 64.160156 C 22.864376 64.227489 22.671019 64.275194 22.480469 64.306641 C 20.293812 63.141343 18.201167 60.966437 17.330078 59.5 C 16.180079 57.570002 14.729218 53.78906 13.949219 51.539062 C 13.16922 49.289065 14.119843 42.110936 13.339844 40.460938 C 12.559845 38.810939 9.359375 38.640625 9.359375 38.640625 C 9.359375 38.640625 9.3478531 38.663717 9.3476562 38.664062 C 8.5795094 38.609168 7.6388189 38.841936 6.4707031 39.529297 C 3.4107062 41.329295 2.1098455 46.240946 3.8398438 54.710938 C 5.6598419 63.660929 13.450947 73.440553 23.210938 79.560547 C 33.640927 86.11054 39.249848 87.749924 43.589844 90.169922 C 48.108088 92.693097 49.331855 95.159798 49.275391 96.792969 C 46.832771 96.1324 44.132357 95.198219 42.970703 94.640625 C 41.700704 94.020626 39.270779 91.88914 36.550781 91.619141 C 34.000784 91.369141 32.210938 93.289062 32.210938 93.289062 C 32.210938 93.289062 32.209458 93.320447 32.208984 93.322266 C 31.500437 93.993594 30.987753 94.813794 30.830078 95.640625 C 30.600078 96.860624 30.100473 98.619456 34.480469 101.18945 C 39.700464 104.24945 47.650234 106.24031 47.240234 107.07031 C 47.225058 107.10067 47.173187 107.1319 47.150391 107.16211 C 46.437306 107.63112 45.657513 108.0192 45.085938 108.36719 C 44.772555 108.51551 44.514314 108.63493 44.169922 108.81055 C 43.609922 109.09055 39.369298 110.79961 40.279297 116.09961 C 41.159296 121.2296 47.169237 120.79086 65.699219 121.13086 C 84.2292 121.47086 87.730315 118.84976 90.320312 116.25977 C 92.91031 113.66977 93.580156 111.17937 93.410156 109.35938 C 93.341545 108.56545 92.837767 107.44057 92.121094 106.69922 C 92.122178 106.69502 92.140625 106.63086 92.140625 106.63086 C 92.140625 106.63086 91.010466 104.98008 87.980469 105.33008 C 84.950472 105.68008 83.910156 107.83984 83.910156 107.83984 C 83.910156 107.83984 82.440624 106.2807 81.140625 104.7207 C 81.006441 104.55896 80.834861 104.38199 80.679688 104.21289 C 82.603841 102.52731 87.224604 97.664927 90.820312 92.890625 C 95.140308 87.140631 96.070939 83.579217 97.460938 81.699219 C 98.620936 80.12922 106.22946 78.549759 113.18945 71.759766 C 120.10945 65.009772 125.36914 58.259135 125.36914 53.119141 C 125.36914 51.399729 124.69554 50.290376 123.06445 49.871094 C 122.97739 49.824745 122.89513 49.771214 122.78906 49.75 C 121.49906 49.49 120.36914 50.359375 120.36914 50.359375 C 120.36914 50.359375 121.15086 41.090388 120.63086 38.150391 C 120.34086 36.530392 119.33031 33.389374 116.82031 32.609375 C 114.31032 31.829376 112.13992 32.789377 110.66992 34.859375 C 109.19992 36.929373 109.80086 42.729144 109.63086 46.369141 C 109.46086 49.999137 106.69078 57.959457 103.05078 61.689453 C 99.410785 65.419449 95.080076 66.109375 92.830078 66.109375 C 90.58008 66.109375 91.619531 59.620543 91.269531 55.810547 C 90.919532 52.000551 89.829606 47.669296 86.599609 47.029297 C 83.799612 46.479297 82.230469 47.539062 82.230469 47.539062 C 82.230469 47.539062 82.230496 47.562199 82.230469 47.5625 C 82.229509 47.563069 82.210938 47.570312 82.210938 47.570312 C 82.210938 47.570312 79.739218 48.740472 79.199219 51.730469 C 78.40922 56.130464 80.560704 60.500944 81.220703 67.210938 C 81.750703 72.670932 81.800781 76.16055 81.050781 79.310547 C 80.280782 82.560544 78.479919 85.099769 75.169922 88.759766 C 72.769924 91.409763 70.290936 92.070077 68.960938 91.080078 C 67.370939 89.880079 68.26086 88.07953 69.130859 86.519531 C 70.000859 84.959533 70.570859 81.620623 69.880859 79.890625 C 69.260689 78.335705 68.348139 76.931531 66.421875 76.277344 C 65.330688 75.713835 63.787443 75.663951 62.269531 76.169922 C 60.767183 76.670705 59.473147 78.985843 58.693359 80.634766 C 58.68363 80.626421 57.167534 79.322884 56.130859 77.080078 C 55.09086 74.83008 55.35086 73.000934 56.130859 69.710938 C 56.910859 66.420941 58.449376 61.099373 59.609375 58.859375 C 60.609374 56.919377 62.140159 55.070544 64.910156 52.560547 C 67.680153 50.050549 69.01086 48.559842 70.130859 47.089844 C 71.250858 45.619845 74.399688 41.660937 75.179688 40.710938 C 75.959687 39.760938 79.679143 39.439996 82.369141 35.5 C 83.219845 34.254879 83.267001 31.742535 82.164062 30.185547 C 82.069596 30.005756 81.906044 29.818369 81.697266 29.628906 C 81.687633 29.620189 81.677715 29.612115 81.667969 29.603516 C 81.318207 29.293967 80.822459 28.97698 80.099609 28.660156 C 78.791437 28.084803 77.390433 28.716706 76.097656 29.230469 C 75.30329 26.888874 75.686433 21.862348 75.339844 17.849609 C 74.879844 12.589615 74.259608 10.890467 73.099609 9.2304688 C 72.190372 7.9293185 70.783735 6.885148 69.757812 6.6582031 C 69.756907 6.655937 69.740234 6.609375 69.740234 6.609375 C 69.740234 6.609375 69.189687 6.4642969 68.492188 6.4628906 z " />
	
	<path
   style="fill:#fafafa"
   d="M30.41,56.38c0,0,0.82-2.45,2.38-1.38c1.57,1.07,0.31,5.71-1.88,6.08c-2.2,0.38-4.96-4.64-3.7-5.9   C28.57,53.83,30.41,56.38,30.41,56.38z"
   id="path41167" />
	<path
   style="fill:#fafafa"
   d="M18.43,65.1c0,0-0.06-3.51-2.45-3.26s-1.44,3.64-1.44,3.64s-2.57,0.63-1.94,2.45   s3.45,1.25,3.45,1.25s0.5,2.95,2.51,2.45c2.01-0.5,1-2.95,1-2.95s3.2,0.31,2.7-2.13C21.75,64.09,18.43,65.1,18.43,65.1z"
   id="path41169" />
	<path
   style="fill:#fafafa"
   d="M34.49,73.44c0,0-1.13-3.14-2.95-2.2c-1.82,0.94-0.25,3.7-0.25,3.7s-3.45,1.07-2.76,2.82   c0.69,1.76,3.76,1.07,3.76,1.07s-0.94,3.76,1.38,4.2c2.32,0.44,2.45-3.83,2.45-3.83s3.51,1.88,4.2-0.38   c0.69-2.26-2.63-2.82-2.63-2.82s2.57-2.32,0.63-3.7C36.37,70.93,34.49,73.44,34.49,73.44z"
   id="path41171" />
	<path
   style="fill:#fafafa"
   d="M48.35,65.97c-1.88,0.63-1.76,3.39-1.32,4.64c0.44,1.25,1.69,3.32,3.2,2.89   c1.51-0.44,1.76-3.07,1.44-4.7C51.36,67.17,49.97,65.43,48.35,65.97z"
   id="path41173" />
	<path
   style="fill:#fafafa"
   d="M56.13,46.4c0,0,0.82-3.26,2.63-3.07c1.82,0.19,1.13,3.89,1.13,3.89s3.39,0.19,3.14,2.13   c-0.25,1.94-4.27,2.07-4.27,2.07s-0.56,5.21-2.89,4.89c-2.1-0.28-0.75-5.27-0.75-5.27s-4.16-0.47-4.08-2.57   c0.06-1.63,2.38-1.19,2.38-1.19s-1.82-2.26-0.06-3.01C55.12,43.52,56.13,46.4,56.13,46.4z"
   id="path41175" />
	<path
   style="fill:#fafafa"
   d="M67.04,14.42c0,0-1.16-1.52-2.32-0.94c-1.85,0.93,1.26,6.17,2.7,6.21c2.13,0.06,3.33-5.96,2.16-6.52   C67.76,12.28,67.04,14.42,67.04,14.42z"
   id="path41177" />
	<path
   style="fill:#fafafa"
   d="M48.13,26.46c0,0,0.44-2.86,2.11-2.55c1.68,0.31,1.18,3.85,1.18,3.85s2.86,0.25,2.86,1.86   s-1.8,2.24-1.8,2.24s1.12,3.54-0.44,4.17s-2.55-2.67-2.55-2.67s-1.68,3.11-3.11,1.55s1.37-4.66,1.37-4.66s-3.93-1.61-2.8-3.67   C45.96,24.78,48.13,26.46,48.13,26.46z"
   id="path41179" />
	<path
   style="fill:#fafafa"
   d="M75.3,30.69c0,0,0.44-4.04,2.05-3.92c1.62,0.12,1.37,3.05,1.37,3.05s2-0.75,2.8,0.75   c0.99,1.86-2.11,3.54-2.11,3.54s1.8,2.92-0.19,4.1c-2.04,1.21-2.8-2.3-2.92-2.11s-1.68,2.8-3.11,1.43   c-1.43-1.37,0.62-3.73,0.62-3.73s-3.33-0.48-2.49-2.55C72.01,29.57,75.3,30.69,75.3,30.69z"
   id="path41181" />
	<path
   style="fill:#fafafa"
   d="M58.02,79.68c0,0,0.25-4.85,2.36-4.54c2.65,0.39,1.18,5.41,1.18,5.41s3.98-0.99,4.41,1.18   S62,84.77,62,84.77s0.5,4.1-1.49,4.66c-1.99,0.56-2.49-3.61-2.49-3.61s-3.23,3.67-4.66,1.55c-1.43-2.11,3.23-4.54,3.23-4.54   s-3.99-2.81-2.8-4.29C55.34,76.63,58.02,79.68,58.02,79.68z"
   id="path41183" />
	<path
   style="fill:#fafafa"
   d="M57.96,98.01c0,0,0.2-4.12,2.11-3.92c2.92,0.31,2.3,6.59,1.43,7.46c-0.87,0.87-7.27,0.81-6.9-1.49   C54.97,97.77,57.96,98.01,57.96,98.01z"
   id="path41185" />
	<path
   style="fill:#fafafa"
   d="M82.57,86.08c0,0-0.37-3.73,1.12-4.23c1.49-0.5,1.74,2.74,1.74,2.74s2.11-2.18,3.11-0.93   c0.99,1.24-0.68,2.67-0.68,2.67s0.99,0.17,0.99,1.31c0,1.55-2.8,1.62-2.8,1.62s0.5,2.36-1.31,2.49s-1.55-2.18-1.55-2.18   s-3.36,0.99-3.54-1.12C79.46,86.33,82.57,86.08,82.57,86.08z"
   id="path41187" />
	<path
   style="fill:#fafafa"
   d="M85.62,68.67c0,0-0.37-3.11,1.43-3.11c1.8,0,1.55,2.86,1.55,2.86s2.36-1.8,3.05-0.19   c0.68,1.62-1.49,2.61-1.49,2.61s2.11,2.11,0.93,3.17c-1.18,1.06-2.74-0.99-2.74-0.99s-0.21,2.81-1.68,2.67   c-1.99-0.19-1.62-3.73-1.62-3.73s-2.8,0.68-3.11-1.31C81.64,68.67,85.62,68.67,85.62,68.67z"
   id="path41189" />
	<path
   style="fill:#fafafa"
   d="M83.69,55c1.21,1.21,5.84-0.87,5.66-2.74c-0.19-1.92-1.93-1.18-1.93-1.18s1.11-2.63-0.81-3.05   C84.31,47.54,82.95,54.25,83.69,55z"
   id="path41191" />
	<path
   style="fill:#fafafa"
   d="M100.54,69.73c-1.25-0.9-3.48-0.25-4.54,1.24c-1.32,1.87-1.43,4.04-0.19,4.97   c1.24,0.93,3.47-0.25,4.48-1.68C101.47,72.59,101.66,70.54,100.54,69.73z"
   id="path41193" />
	<path
   style="fill:#fafafa"
   d="M112.1,57.11c0,0,1.06-4.56,3.05-4.29c2.3,0.31,0.56,4.54,0.56,4.54s3.15-0.89,3.05,1.31   c-0.12,2.55-4.23,1.99-4.23,1.99s0.5,3.98-1.99,4.04c-1.62,0.04-1.49-2.18-1.49-2.18s-1.6,2.6-2.98,1.12   c-1.74-1.86,1.62-4.48,1.62-4.48s-3.16-1.02-2.3-2.74C108.43,54.31,112.1,57.11,112.1,57.11z"
   id="path41195" />
</g>
</svg>
