<?xml version="1.0" encoding="UTF-8" standalone="no"?>
<svg
   width="128px"
   height="128px"
   version="1.1"
   xml:space="preserve"
   style="fill-rule:evenodd;clip-rule:evenodd;stroke-linecap:round;stroke-linejoin:round;stroke-miterlimit:1.5;"
   id="svg37"
   sodipodi:docname="coral.svg"
   inkscape:version="1.3 (0e150ed6c4, 2023-07-21)"
   xmlns:inkscape="http://www.inkscape.org/namespaces/inkscape"
   xmlns:sodipodi="http://sodipodi.sourceforge.net/DTD/sodipodi-0.dtd"
   xmlns="http://www.w3.org/2000/svg"
   xmlns:svg="http://www.w3.org/2000/svg"><defs
     id="defs37" /><sodipodi:namedview
     id="namedview37"
     pagecolor="#ffffff"
     bordercolor="#000000"
     borderopacity="0.25"
     inkscape:showpageshadow="2"
     inkscape:pageopacity="0.0"
     inkscape:pagecheckerboard="0"
     inkscape:deskcolor="#d1d1d1"
     inkscape:zoom="2.867097"
     inkscape:cx="59.467817"
     inkscape:cy="69.582577"
     inkscape:window-width="1366"
     inkscape:window-height="697"
     inkscape:window-x="-8"
     inkscape:window-y="-8"
     inkscape:window-maximized="1"
     inkscape:current-layer="svg37" /><g
     id="g42"
     transform="matrix(0.9314819,0,0,0.9314819,153.58949,10.996173)"
     style="stroke-width:1.07356"><path
       style="fill:#ed6c30;stroke-width:9.73811;stroke-linecap:round"
       d="m -118.56647,14.55106 c -5.49136,5.847929 -2.71291,10.605009 5.67244,18.990366 8.38536,8.385356 15.537575,21.336963 15.537575,31.202089 0,6.202884 -8.797975,4.392992 -18.743735,-5.552764 -10.15976,-10.159764 -15.29095,-31.815028 -25.15607,-31.815028 -9.86513,0 -9.94299,13.63743 -1.7264,27.868978 17.01228,29.466131 40.69364,26.635838 40.69364,43.65318 0,9.865129 -17.36099,9.125239 -17.36099,14.551059 0,5.42582 10.11176,4.93256 26.38921,4.93256 16.277457,0 25.985717,-1.1609 25.985717,-5.79939 0,-6.90558 -18.259351,-7.24908 -18.259351,-16.666277 0,-6.626912 1.977977,-16.403642 16.786842,-22.667278 12.115298,-5.124351 35.782608,-21.482564 25.998107,-31.267065 -8.586924,-8.586924 -28.220857,19.996914 -35.863232,17.949146 -4.519217,-1.21092 -7.498779,-17.644168 -6.658959,-20.77842 0.83982,-3.134252 19.863373,-26.519762 7.5849,-31.3045569 C -88.252379,3.7303524 -92.703306,22.775315 -96.869943,23.891762 -101.03658,25.008209 -110.96995,6.4612834 -118.56647,14.55106 Z"
       id="path37"
       sodipodi:nodetypes="ssssssssssssssssss" /><path
       style="fill:#7a7a7a;fill-opacity:1;stroke-width:9.73811;stroke-linecap:round"
       d="m -93.937914,99.144509 c -26.663246,0 -30.116036,7.892101 -30.116036,14.551061 0,6.65896 7.67287,7.39884 32.60972,7.39884 24.936844,0 29.540569,-1.47977 29.540569,-10.35838 0,-8.87861 -15.153928,-11.591521 -32.034253,-11.591521 z"
       id="path38" /><circle
       style="fill:#40c0e7;fill-opacity:1;stroke-width:9.73811;stroke-linecap:round"
       id="path39"
       cx="-64.123314"
       cy="33.048168"
       r="7.645472" /><circle
       style="fill:#40c0e7;fill-opacity:1;stroke-width:9.73811;stroke-linecap:round"
       id="circle39"
       cx="-137.12524"
       cy="16.030827"
       r="7.645472" /><circle
       style="fill:#40c0e7;fill-opacity:1;stroke-width:9.73811;stroke-linecap:round"
       id="circle40"
       cx="-97.911369"
       cy="1.4797668"
       r="7.645472" /><circle
       style="fill:#40c0e7;fill-opacity:1;stroke-width:9.73811;stroke-linecap:round"
       id="circle41"
       cx="-58.450867"
       cy="87.306358"
       r="7.645472" /><circle
       style="fill:#40c0e7;fill-opacity:1;stroke-width:9.73811;stroke-linecap:round"
       id="circle42"
       cx="-144.27745"
       cy="79.167633"
       r="7.645472" /></g></svg>
