<?xml version="1.0" encoding="UTF-8" standalone="no"?>
<!-- Generator: Adobe Illustrator 25.2.3, SVG Export Plug-In . SVG Version: 6.00 Build 0)  -->

<svg
   version="1.1"
   id="Layer_1"
   x="0px"
   y="0px"
   viewBox="0 0 128 128"
   style="enable-background:new 0 0 128 128;"
   xml:space="preserve"
   sodipodi:docname="crutch.svg"
   inkscape:version="1.2.2 (732a01da63, 2022-12-09)"
   xmlns:inkscape="http://www.inkscape.org/namespaces/inkscape"
   xmlns:sodipodi="http://sodipodi.sourceforge.net/DTD/sodipodi-0.dtd"
   xmlns="http://www.w3.org/2000/svg"
   xmlns:svg="http://www.w3.org/2000/svg"><defs
   id="defs2617" /><sodipodi:namedview
   id="namedview2615"
   pagecolor="#ffffff"
   bordercolor="#000000"
   borderopacity="0.25"
   inkscape:showpageshadow="2"
   inkscape:pageopacity="0.0"
   inkscape:pagecheckerboard="0"
   inkscape:deskcolor="#d1d1d1"
   showgrid="false"
   inkscape:zoom="4.2421875"
   inkscape:cx="51.624309"
   inkscape:cy="63.410681"
   inkscape:window-width="1366"
   inkscape:window-height="697"
   inkscape:window-x="-8"
   inkscape:window-y="-8"
   inkscape:window-maximized="1"
   inkscape:current-layer="Layer_1" />
<g
   id="g2612">
	<g
   id="g2608">
		<g
   id="g2604">
			
				<path
   style="fill:#f69228;fill-opacity:1"
   d="M78.29,64.97c-0.15-0.18-0.29-0.37-0.44-0.56c-0.93-1.16-2.08-2.15-3.37-2.88     c-1.08-0.61-2.25-1.04-3.27-1.76c-3.03-2.14-4.05-6.25-6.89-8.66c-0.63-0.53-1.35-0.98-1.87-1.62c-2.12-2.58,2.28-6.97,4.89-4.5     c0.52,0.49,0.85,1.13,1.2,1.74c1.07,1.85,2.72,2.13,4.4,3.15c1.8,1.1,3.37,2.61,4.52,4.38c1.41,2.17,2.36,4.87,4.6,6.15     c0.57,0.33,1.22,0.55,1.67,1.04c0.83,0.92-0.18,2.2-0.78,2.81L82,65.22c-0.66,0.66-1.97,1.18-2.93,0.52     C78.77,65.53,78.52,65.26,78.29,64.97z"
   id="path2586" /><rect
   x="19.35"
   y="96.45"
   transform="matrix(0.7071 0.7071 -0.7071 0.7071 81.12 13.8714)"
   style="fill:#6593a2;fill-opacity:1"
   width="8.93"
   height="16.82"
   id="rect2576" />
			<path
   style="fill:none;stroke:#6593a2;stroke-width:5.9835;stroke-miterlimit:10;stroke-opacity:1"
   d="M112.43,34.79L74.39,72.83     c-2.44,2.44-5.59,4.14-9.29,5.01c0,0-10.9,1.77-15.8,6.66"
   id="path2578" />
			<path
   style="fill:#6593a2;fill-opacity:1"
   d="M28.02,101.82l-1.78-1.78c-2.26-2.26-2.26-5.92,0-8.18l17.5-17.5l9.96,9.96l-17.5,17.5     C33.94,104.08,30.28,104.08,28.02,101.82z"
   id="path2580" />
			<path
   style="fill:#f69228;fill-opacity:1"
   d="M15.15,122.87c-0.33,0.35-0.7,0.67-1.13,0.88c-1.47,0.75-3.05-0.36-4.12-1.34     c-1.99-1.82-3.94-3.8-4.96-6.3c-0.19-0.47-0.35-0.98-0.2-1.46c0.11-0.37,0.39-0.67,0.66-0.95c1.39-1.45,2.92-2.98,4.9-3.3     c0.73-0.12,1.49-0.06,2.2-0.29c1-0.31,1.58-1.47,2.55-1.71c1.34-0.33,2.52,1.57,3.36,2.36c0.72,0.68,2.12,1.57,2.04,2.71     c-0.1,1.47-2.19,2.14-2.5,3.64c-0.12,0.59,0,1.21-0.11,1.81c-0.11,0.62-0.47,1.17-0.84,1.68c-0.45,0.63-0.93,1.24-1.44,1.82     C15.42,122.57,15.29,122.72,15.15,122.87z"
   id="path2582" />
			<path
   style="fill:#2f2f2f;fill-opacity:1"
   d="M18.43,113.84c0.25,0.25,0.5,0.5,0.75,0.75c0.07,0.07,0.15,0.15,0.18,0.25     c0.21,0.83-1.54,2.04-2.27,2.08c-1.28,0.07-2.79-0.97-3.61-1.87c-1.35-1.47-1.97-3.5-0.63-5.11c0.24-0.29,0.58-0.58,0.95-0.52     c0.24,0.04,0.43,0.22,0.6,0.4C15.75,111.16,17.09,112.5,18.43,113.84z"
   id="path2584" />
			
			<path
   style="fill:none;stroke:#6593a2;stroke-width:5.9835;stroke-miterlimit:10;stroke-opacity:1"
   d="M93.77,15.05L55.73,53.09     c-2.44,2.44-4.14,5.59-5.01,9.29c0,0-1.77,10.9-6.66,15.8"
   id="path2588" />
			<g
   id="g2592">
				
			</g>
			
			
			<g
   id="g2600">
				<path
   style="fill:#f69228;fill-opacity:1"
   d="M110.28,34.07c-3.71-2.93-14.19-13.54-18.41-18.65c-2.16-2.62-4.64-7.53-1.37-10.31      c1.38-1.18,3.46-1.43,5.12-0.7c3.3,1.46,3.2,5.49,5.05,8.09c1.58,2.23,3.81,4.11,5.76,5.99c2.22,2.13,4.48,4.22,6.7,6.35      c1.06,1.02,1.94,1.63,3.42,2.03c1.74,0.47,3.76,0.67,5.08,2.04c0.69,0.72,1.08,1.67,1.36,2.62c0.26,0.91,0.43,1.86,0.31,2.8      c-0.31,2.48-2.13,3.58-4.44,3.72C117.01,38.17,113.99,37,110.28,34.07z"
   id="path2598" />
			</g>
			<path
   style="fill:#f69228;fill-opacity:1"
   d="M19.07,103.28c0,0-1.1-0.46-1.72,0.15s-2.75,2.75-3.43,3.43c-0.68,0.68-1.17,1.47-0.25,3.23     c1.11,2.12,3.06,3.73,4.53,4.52c1.57,0.84,2.08,1.01,3.27,0.23c1.18-0.79,3.39-3.25,3.84-3.84s0.37-1.7,0.37-1.7     s-0.91,0.47-1.99,0.17s-4.14-3.6-4.53-4.58C18.78,103.92,19.07,103.28,19.07,103.28z"
   id="path2602" />
		</g>
		
	</g>
	
</g>
</svg>
