<?xml version="1.0" encoding="UTF-8" standalone="no"?>
<svg
   width="100%"
   height="100%"
   viewBox="0 0 128 128"
   version="1.1"
   xml:space="preserve"
   style="fill-rule:evenodd;clip-rule:evenodd;stroke-linecap:round;stroke-linejoin:round;stroke-miterlimit:1.5;"
   id="svg41672"
   sodipodi:docname="disguised face.svg"
   inkscape:version="1.2.2 (732a01da63, 2022-12-09)"
   xmlns:inkscape="http://www.inkscape.org/namespaces/inkscape"
   xmlns:sodipodi="http://sodipodi.sourceforge.net/DTD/sodipodi-0.dtd"
   xmlns="http://www.w3.org/2000/svg"
   xmlns:svg="http://www.w3.org/2000/svg"><defs
   id="defs41676"><linearGradient
   id="SVGID_4_"
   gradientUnits="userSpaceOnUse"
   x1="113.6633"
   y1="52.194698"
   x2="123.8348"
   y2="52.194698"
   gradientTransform="translate(191.26555,62.207746)">
				<stop
   offset="0.4463"
   style="stop-color:#212121"
   id="stop13938" />
				<stop
   offset="0.7484"
   style="stop-color:#323232"
   id="stop13940" />
				<stop
   offset="0.9664"
   style="stop-color:#424242"
   id="stop13942" />
			</linearGradient><linearGradient
   id="SVGID_5_"
   gradientUnits="userSpaceOnUse"
   x1="-17.1292"
   y1="52.194698"
   x2="-6.9576998"
   y2="52.194698"
   gradientTransform="matrix(-1,0,0,1,188.47305,62.207746)">
				<stop
   offset="0.4463"
   style="stop-color:#212121"
   id="stop13953" />
				<stop
   offset="0.7484"
   style="stop-color:#323232"
   id="stop13955" />
				<stop
   offset="0.9664"
   style="stop-color:#424242"
   id="stop13957" />
			</linearGradient><radialGradient
   id="SVGID_8_"
   cx="69.838097"
   cy="82.850098"
   r="11.5074"
   gradientTransform="matrix(-0.9622,0.2722,0.3237,1.1443,210.09103,-28.676927)"
   gradientUnits="userSpaceOnUse">
			<stop
   offset="1.982868e-04"
   style="stop-color:#B36E00"
   id="stop13982" />
			<stop
   offset="0.7126"
   style="stop-color:#C77B00;stop-opacity:0.2874"
   id="stop13984" />
			<stop
   offset="1"
   style="stop-color:#D18100;stop-opacity:0"
   id="stop13986" />
		</radialGradient><radialGradient
   id="SVGID_7_"
   cx="58.341702"
   cy="82.850098"
   r="11.5074"
   gradientTransform="matrix(0.9622,0.2722,-0.3237,1.1443,129.04023,-25.547727)"
   gradientUnits="userSpaceOnUse">
			<stop
   offset="1.982868e-04"
   style="stop-color:#B36E00"
   id="stop13973" />
			<stop
   offset="0.7126"
   style="stop-color:#C77B00;stop-opacity:0.2874"
   id="stop13975" />
			<stop
   offset="1"
   style="stop-color:#D18100;stop-opacity:0"
   id="stop13977" />
		</radialGradient><linearGradient
   id="SVGID_6_"
   gradientUnits="userSpaceOnUse"
   x1="64"
   y1="20.8333"
   x2="64"
   y2="56.888802"
   gradientTransform="translate(100.02093,2.2868729)">
			<stop
   offset="0.5"
   style="stop-color:#FDE030"
   id="stop13966" />
			<stop
   offset="1"
   style="stop-color:#F7C02B"
   id="stop13968" />
		</linearGradient>
        
    </defs><sodipodi:namedview
   id="namedview41674"
   pagecolor="#ffffff"
   bordercolor="#000000"
   borderopacity="0.25"
   inkscape:showpageshadow="2"
   inkscape:pageopacity="0.0"
   inkscape:pagecheckerboard="0"
   inkscape:deskcolor="#d1d1d1"
   showgrid="false"
   showguides="true"
   inkscape:zoom="4"
   inkscape:cx="58.625001"
   inkscape:cy="67.000001"
   inkscape:window-width="1366"
   inkscape:window-height="697"
   inkscape:window-x="-8"
   inkscape:window-y="-8"
   inkscape:window-maximized="1"
   inkscape:current-layer="svg41672" />
    <path
   d="M 64,9.64 C 1.69,9.64 0.21,79.5 0.21,93.33 c 0,13.83 28.56,25.03 63.79,25.03 35.24,0 63.79,-11.21 63.79,-25.03 C 127.79,79.5 126.32,9.64 64,9.64 Z"
   style="fill:#fcc21b;fill-rule:nonzero"
   id="path41636" /><path
   id="rect18159"
   style="fill:#2f2f2f;stroke-width:5.6693;fill-opacity:1"
   d="m 13.887666,32.765949 28.670293,-8.474644 c 1.429187,-0.422455 4.135173,-0.121197 4.943512,2.895568 l 1.987512,7.417495 c 0.80834,3.016766 -1.384484,4.630656 -2.833422,4.979393 L 43.824722,40.265103 29.551207,35.844856 18.592409,46.338153 17.589036,46.57965 c -1.30883,0.315017 -3.735307,0.109478 -4.465482,-2.615572 l -1.795323,-6.700236 c -0.730174,-2.725049 1.268447,-4.11629 2.559435,-4.497893 z"
   sodipodi:nodetypes="ssssscccssss" />
    <path
   d="m 41.795247,66.47 c -4.49,0.04 -8.17,-4.27 -8.22,-9.62 -0.05,-5.37 3.55,-9.75 8.04,-9.79 4.48,-0.04 8.17,4.27 8.22,9.64 0.05,5.36 -3.55,9.73 -8.04,9.77 z m 44.11,0 c 4.48,-0.01 8.11,-4.36 8.1,-9.71 -0.01,-5.37 -3.66,-9.7 -8.14,-9.69 -4.49,0.01 -8.13,4.36 -8.12,9.73 0.02,5.35 3.67,9.68 8.16,9.67 z"
   style="fill:#2f2f2f;fill-rule:nonzero"
   id="path41638" />
    
    
    
    
    
    
    
    
    
<path
   id="path18894"
   style="fill:#2f2f2f;stroke-width:5.6693;fill-opacity:1"
   d="M 114.11234,32.765949 85.442041,24.291305 c -1.429186,-0.422455 -4.135172,-0.121197 -4.943512,2.895568 l -1.987511,7.417495 c -0.808341,3.016766 1.384483,4.630656 2.833421,4.979393 l 2.83084,0.681342 14.273514,-4.420247 10.958797,10.493297 1.00338,0.241497 c 1.30882,0.315017 3.7353,0.109478 4.46548,-2.615572 l 1.79532,-6.700236 c 0.73017,-2.725049 -1.26845,-4.11629 -2.55943,-4.497893 z"
   sodipodi:nodetypes="ssssscccssss" /><g
   id="g15297"><circle
     style="fill:#40bfe7;fill-opacity:0.32941177;stroke-width:5.66929;stroke-linecap:round"
     id="path15026"
     cx="34.4375"
     cy="57.8125"
     r="19.8125" /><circle
     style="fill:#40bfe7;fill-opacity:0.329412;stroke-width:5.66929;stroke-linecap:round"
     id="path15287"
     cx="93.6875"
     cy="56.875"
     r="18.75" /><g
     id="g14972"
     transform="translate(-191.26555,-57.432748)"><path
       style="fill:#2f2f2f;fill-opacity:1"
       d="m 225.82555,96.577746 c 9.71,0 17.62,7.900004 17.62,17.620004 0,9.72 -7.9,17.62 -17.62,17.62 -9.72,0 -17.62,-7.9 -17.62,-17.62 0,-9.72 7.9,-17.620004 17.62,-17.620004 m 0,-5.34 c -12.68,0 -22.96,10.280004 -22.96,22.960004 0,12.68 10.28,22.96 22.96,22.96 12.68,0 22.96,-10.28 22.96,-22.96 0,-12.68 -10.28,-22.960004 -22.96,-22.960004 z"
       id="path13928" /><path
       style="fill:#2f2f2f;fill-opacity:1"
       d="m 284.65555,96.577746 c 9.71,0 17.62,7.900004 17.62,17.620004 0,9.72 -7.9,17.62 -17.62,17.62 -9.72,0 -17.62,-7.9 -17.62,-17.62 0,-9.72 7.91,-17.620004 17.62,-17.620004 m 0,-5.34 c -12.68,0 -22.96,10.280004 -22.96,22.960004 0,12.68 10.28,22.96 22.96,22.96 12.68,0 22.96,-10.28 22.96,-22.96 0,-12.68 -10.28,-22.960004 -22.96,-22.960004 z"
       id="path13932" /><path
       style="fill:#2f2f2f;fill-opacity:1"
       d="m 306.43555,121.64775 c 1.02,-2.91 5.68,-4.38 7.92,-4.93 0.71,-0.17 1.22,-0.81 1.22,-1.54 v -3.15 c 0,-0.85 -0.66,-1.54 -1.51,-1.58 -2.26,-0.11 -6.39,-0.68 -7.5,-3.32 -1.57,-3.7 -1.48,18.39 -0.13,14.52 z"
       id="path13945" /><path
       style="fill:#2f2f2f;fill-opacity:1"
       d="m 263.65555,105.00775 c -0.01,0 -0.34,1.31 -2.17,1.31 -1.79,0 -2.63,-1.48 -6.22,-1.48 -3.59,0 -4.43,1.48 -6.22,1.48 -1.83,0 -2.17,-1.3 -2.17,-1.31 -0.56,-0.34 -0.25,6.07 -0.25,6.07 0.19,0.63 1.26,6.87 1.85,6.95 0,0 2.45,-4.31 6.79,-4.36 0,0 0,0 0,0 0,0 0,0 0,0 4.33,0.05 6.79,4.36 6.79,4.36 0.59,-0.08 1.66,-6.32 1.85,-6.95 0,0 0.3,-6.41 -0.25,-6.07 z"
       id="path13949" /><path
       style="fill:#2f2f2f;fill-opacity:1"
       d="m 204.09555,121.64775 c -1.02,-2.91 -5.68,-4.38 -7.92,-4.93 -0.71,-0.17 -1.22,-0.81 -1.22,-1.54 v -3.15 c 0,-0.85 0.66,-1.54 1.51,-1.58 2.26,-0.11 6.39,-0.68 7.5,-3.32 1.57,-3.7 1.48,18.39 0.13,14.52 z"
       id="path13960" /></g></g><path
   style="fill:none;fill-opacity:1;stroke:#2f2f2f;stroke-width:5.66929;stroke-linecap:round;stroke-opacity:1"
   d="m 49.674978,89.551777 c 0,0 4.256668,5.271446 13.825022,5.271446 9.568355,0 13.825024,-5.271446 13.825024,-5.271446"
   id="path20405"
   sodipodi:nodetypes="czc" /><path
   style="fill:#2f2f2f;fill-opacity:1;stroke-width:5.66929;stroke-linecap:round"
   d="m 53.779695,77.985917 c 0,0 -16.25212,12.81809 -16.25212,20.392414 0,7.574329 7.620229,5.529019 27.358406,5.529019 19.738174,0 25.586444,1.19937 25.586444,-4.971368 0,-6.170739 -15.309706,-20.658745 -15.309706,-20.658745 z"
   id="path20402"
   sodipodi:nodetypes="czzzcc" /><g
   id="g16486"
   transform="matrix(0.32265725,0,0,0.29626727,43.349867,50.038895)"
   style="stroke-width:3.23435">
	<path
   fill="#ffffff"
   d="M 113.692,103.429 C 116.419,94.605 112.724,81.875 107.706,74.787 100.74,64.951 96.089,54.369 94.687,51.008 94.208,49.617 93.752,48.271 93.252,46.78 91.026,40.137 88.511,32.592 85.14,24.125 78.44,7.257 66.791,7.056 64.688,7.056 c -2.57,0 -13.876,0.201 -20.585,17.069 -3.349,8.457 -5.875,15.99 -8.089,22.633 -0.367,1.124 -0.724,2.137 -1.08,3.216 -0.29,0.734 -5.308,13.309 -13.453,24.813 -5.43,7.667 -9.414,21.977 -5.285,30.756 l 0.022,-0.011 c 0.545,1.501 1.224,2.771 1.98,3.783 l -0.033,0.034 c 0,0 2.158,5.029 12.84,5.029 7.656,0 15.167,-1.302 25.749,3.861 v -0.022 c 2.047,0.824 4.439,1.38 7.833,1.38 3.394,0 5.786,-0.556 7.845,-1.369 v 0.011 c 10.582,-5.163 18.093,-3.861 25.749,-3.861 10.326,0 12.663,-4.663 12.807,-4.974 1.136,-1.457 2.092,-3.538 2.704,-5.975 z"
   id="path16482"
   style="fill:#fcc21b;fill-opacity:1;stroke-width:10.9171" />
	<path
   fill="#cc4079"
   d="m 119.968,88.78 c -1.792,-7.065 -6.776,-15.311 -10.07,-20.763 l -1.246,-2.058 C 105.614,60.84 103.322,53.963 100.406,45.273 98.281,38.875 95.866,31.642 92.595,23.408 83.96,1.676 66.056,1.042 63.953,1.042 61.939,1.042 44.046,1.676 35.423,23.408 32.14,31.631 29.736,38.864 27.6,45.24 24.696,53.952 22.393,60.829 19.344,65.959 l -1.235,2.058 C 14.815,73.469 9.831,81.704 8.028,88.78 c -2.626,10.249 0.734,24.781 9.747,29.232 3.951,1.969 7.611,2.926 11.149,2.926 2.76,0 4.974,-0.556 6.921,-1.046 1.435,-0.356 2.67,-0.667 4.017,-0.69 2.793,0 4.462,1.035 7.01,2.604 3.728,2.292 8.368,5.152 17.081,5.152 8.724,0 13.386,-2.849 17.125,-5.141 2.582,-1.569 4.262,-2.615 7.2,-2.615 v 0 c 1.213,0.022 2.448,0.334 3.883,0.69 1.947,0.49 4.162,1.046 6.91,1.046 3.538,0 7.199,-0.957 11.161,-2.926 9.001,-4.451 12.373,-18.983 9.736,-29.232 z m -21.713926,12.1475 c -3.755358,1.86047 -6.189295,1.69581 -9.197512,0.93884 -1.459052,-0.36456 -3.117176,-0.78401 -5.277489,-0.81104 -4.586059,0 -7.483681,1.77691 -10.046237,3.3359 -2.643659,1.62208 -4.931774,3.01724 -9.771793,3.01724 -4.812985,0 -7.083075,-1.39516 -9.708712,-3.00822 -2.552725,-1.56801 -5.433144,-3.34492 -10.237117,-3.34492 h -0.009 c -1.941579,0.027 -3.601342,0.44648 -5.049744,0.81104 -3.018048,0.75697 -5.451166,0.92163 -9.216354,-0.93884 -2.89926,-1.4312 -5.2226,-8.60521 -3.682445,-14.603622 1.185428,-4.622105 4.885897,-10.75651 7.337857,-14.813345 l 1.048616,-1.740866 c 2.935306,-4.949797 4.939965,-10.94821 7.483679,-18.550678 1.713833,-5.123474 3.655412,-10.939198 6.235172,-17.466016 5.187373,-13.008577 15.36059,-13.163411 15.888994,-13.163411 0.428458,0 10.610686,0.154834 15.770207,13.163411 2.598601,6.535829 4.54018,12.351554 6.254013,17.484039 2.542894,7.593456 4.548372,13.582858 7.483679,18.532655 l 1.048616,1.749878 c 2.45196,4.056835 6.152426,10.182228 7.328846,14.803513 1.54998,5.999232 -0.78401,13.174062 -3.683265,14.604442 z"
   id="path16484"
   style="fill:#2f2f2f;fill-opacity:1;stroke-width:10.9171"
   sodipodi:nodetypes="cccccsccccccscccscsscsccccccscsccccccccsccccccc" />
</g></svg>
