<?xml version="1.0" encoding="UTF-8" standalone="no"?>
<svg
   width="100%"
   height="100%"
   viewBox="0 0 128 128"
   version="1.1"
   xml:space="preserve"
   style="fill-rule:evenodd;clip-rule:evenodd;stroke-linecap:round;stroke-linejoin:round;stroke-miterlimit:1.5;"
   id="svg41672"
   sodipodi:docname="disguised face.svg"
   inkscape:version="1.2.2 (732a01da63, 2022-12-09)"
   xmlns:inkscape="http://www.inkscape.org/namespaces/inkscape"
   xmlns:sodipodi="http://sodipodi.sourceforge.net/DTD/sodipodi-0.dtd"
   xmlns="http://www.w3.org/2000/svg"
   xmlns:svg="http://www.w3.org/2000/svg"><defs
   id="defs41676"><linearGradient
   id="SVGID_4_"
   gradientUnits="userSpaceOnUse"
   x1="113.6633"
   y1="52.194698"
   x2="123.8348"
   y2="52.194698"
   gradientTransform="translate(191.26555,62.207746)">
				<stop
   offset="0.4463"
   style="stop-color:#212121"
   id="stop13938" />
				<stop
   offset="0.7484"
   style="stop-color:#323232"
   id="stop13940" />
				<stop
   offset="0.9664"
   style="stop-color:#424242"
   id="stop13942" />
			</linearGradient><linearGradient
   id="SVGID_5_"
   gradientUnits="userSpaceOnUse"
   x1="-17.1292"
   y1="52.194698"
   x2="-6.9576998"
   y2="52.194698"
   gradientTransform="matrix(-1,0,0,1,188.47305,62.207746)">
				<stop
   offset="0.4463"
   style="stop-color:#212121"
   id="stop13953" />
				<stop
   offset="0.7484"
   style="stop-color:#323232"
   id="stop13955" />
				<stop
   offset="0.9664"
   style="stop-color:#424242"
   id="stop13957" />
			</linearGradient><radialGradient
   id="SVGID_8_"
   cx="69.838097"
   cy="82.850098"
   r="11.5074"
   gradientTransform="matrix(-0.9622,0.2722,0.3237,1.1443,210.09103,-28.676927)"
   gradientUnits="userSpaceOnUse">
			<stop
   offset="1.982868e-04"
   style="stop-color:#B36E00"
   id="stop13982" />
			<stop
   offset="0.7126"
   style="stop-color:#C77B00;stop-opacity:0.2874"
   id="stop13984" />
			<stop
   offset="1"
   style="stop-color:#D18100;stop-opacity:0"
   id="stop13986" />
		</radialGradient><radialGradient
   id="SVGID_7_"
   cx="58.341702"
   cy="82.850098"
   r="11.5074"
   gradientTransform="matrix(0.9622,0.2722,-0.3237,1.1443,129.04023,-25.547727)"
   gradientUnits="userSpaceOnUse">
			<stop
   offset="1.982868e-04"
   style="stop-color:#B36E00"
   id="stop13973" />
			<stop
   offset="0.7126"
   style="stop-color:#C77B00;stop-opacity:0.2874"
   id="stop13975" />
			<stop
   offset="1"
   style="stop-color:#D18100;stop-opacity:0"
   id="stop13977" />
		</radialGradient><linearGradient
   id="SVGID_6_"
   gradientUnits="userSpaceOnUse"
   x1="64"
   y1="20.8333"
   x2="64"
   y2="56.888802"
   gradientTransform="translate(100.02093,2.2868729)">
			<stop
   offset="0.5"
   style="stop-color:#FDE030"
   id="stop13966" />
			<stop
   offset="1"
   style="stop-color:#F7C02B"
   id="stop13968" />
		</linearGradient>
        
    <linearGradient
   id="SVGID_6_-8"
   gradientUnits="userSpaceOnUse"
   x1="64"
   y1="20.8333"
   x2="64"
   y2="56.888802"
   gradientTransform="translate(-101.85608,6.7605843)">
			<stop
   offset="0.5"
   style="stop-color:#FDE030"
   id="stop103" />
			<stop
   offset="1"
   style="stop-color:#F7C02B"
   id="stop105" />
		</linearGradient><radialGradient
   id="SVGID_7_-3"
   cx="58.341702"
   cy="82.850098"
   r="11.5074"
   gradientTransform="matrix(0.9622,0.2722,-0.3237,1.1443,-72.83678,-21.074016)"
   gradientUnits="userSpaceOnUse">
			<stop
   offset="0.00019829"
   style="stop-color:#f69228;stop-opacity:1;"
   id="stop110" />
			<stop
   offset="0.71259999"
   style="stop-color:#f69228;stop-opacity:0.28999999;"
   id="stop112" />
			<stop
   offset="1"
   style="stop-color:#f69228;stop-opacity:0;"
   id="stop114" />
		</radialGradient><radialGradient
   id="SVGID_8_-4"
   cx="69.838097"
   cy="82.850098"
   r="11.5074"
   gradientTransform="matrix(-0.9622,0.2722,0.3237,1.1443,8.21402,-24.203216)"
   gradientUnits="userSpaceOnUse">
			<stop
   offset="0.00019829"
   style="stop-color:#f69228;stop-opacity:1;"
   id="stop119" />
			<stop
   offset="0.71259999"
   style="stop-color:#f69228;stop-opacity:0.28999999;"
   id="stop121" />
			<stop
   offset="1"
   style="stop-color:#f69228;stop-opacity:0;"
   id="stop123" />
		</radialGradient><linearGradient
   id="SVGID_4_-2"
   gradientUnits="userSpaceOnUse"
   x1="113.6633"
   y1="52.194698"
   x2="123.8348"
   y2="52.194698"
   gradientTransform="translate(-101.85608,6.7605843)">
				<stop
   offset="0.4463"
   style="stop-color:#212121"
   id="stop75" />
				<stop
   offset="0.7484"
   style="stop-color:#323232"
   id="stop77" />
				<stop
   offset="0.9664"
   style="stop-color:#424242"
   id="stop79" />
			</linearGradient><linearGradient
   id="SVGID_5_-2"
   gradientUnits="userSpaceOnUse"
   x1="-17.1292"
   y1="52.194698"
   x2="-6.9576998"
   y2="52.194698"
   gradientTransform="matrix(-1,0,0,1,-104.64858,6.7605843)">
				<stop
   offset="0.4463"
   style="stop-color:#212121"
   id="stop90" />
				<stop
   offset="0.7484"
   style="stop-color:#323232"
   id="stop92" />
				<stop
   offset="0.9664"
   style="stop-color:#424242"
   id="stop94" />
			</linearGradient><radialGradient
   id="SVGID_2_"
   cx="36.077599"
   cy="33.319099"
   r="22.066999"
   gradientTransform="matrix(1,0.00626151,-0.00425225,0.6791,1.6669,10.585)"
   gradientUnits="userSpaceOnUse">
				<stop
   offset="0.0323"
   style="stop-color:#000000"
   id="stop47" />
				<stop
   offset="0.9664"
   style="stop-color:#424242"
   id="stop49" />
			</radialGradient><radialGradient
   id="SVGID_3_"
   cx="58.82"
   cy="37.617599"
   r="20.4487"
   gradientTransform="matrix(-1,0.00626151,0.00325101,0.5192,149.7971,13.0701)"
   gradientUnits="userSpaceOnUse">
			<stop
   offset="0.0323"
   style="stop-color:#000000"
   id="stop56" />
			<stop
   offset="1"
   style="stop-color:#424242"
   id="stop58" />
		</radialGradient><radialGradient
   id="SVGID_1_"
   cx="63.972301"
   cy="88.408699"
   r="33.821899"
   gradientTransform="matrix(1,0,0,0.4617,-101.85608,54.347285)"
   gradientUnits="userSpaceOnUse">
		<stop
   offset="0.0323"
   style="stop-color:#000000"
   id="stop40" />
		<stop
   offset="1"
   style="stop-color:#424242"
   id="stop42" />
	</radialGradient>
		
		
		
		
		
	
			<linearGradient
   id="linearGradient589"
   gradientUnits="userSpaceOnUse"
   x1="113.6633"
   y1="52.194698"
   x2="123.8348"
   y2="52.194698">
				<stop
   offset="0.4463"
   style="stop-color:#212121"
   id="stop583" />
				<stop
   offset="0.7484"
   style="stop-color:#323232"
   id="stop585" />
				<stop
   offset="0.9664"
   style="stop-color:#424242"
   id="stop587" />
			</linearGradient>
			
		
			
		
			
		
			
				<linearGradient
   id="linearGradient601"
   gradientUnits="userSpaceOnUse"
   x1="-17.1292"
   y1="52.194698"
   x2="-6.9576998"
   y2="52.194698"
   gradientTransform="matrix(-1,0,0,1,-2.7925,0)">
				<stop
   offset="0.4463"
   style="stop-color:#212121"
   id="stop595" />
				<stop
   offset="0.7484"
   style="stop-color:#323232"
   id="stop597" />
				<stop
   offset="0.9664"
   style="stop-color:#424242"
   id="stop599" />
			</linearGradient>
			
		
			
		
				
			
		<linearGradient
   id="linearGradient610"
   gradientUnits="userSpaceOnUse"
   x1="64"
   y1="20.8333"
   x2="64"
   y2="56.888802">
			<stop
   offset="0.5"
   style="stop-color:#FDE030"
   id="stop606" />
			<stop
   offset="1"
   style="stop-color:#F7C02B"
   id="stop608" />
		</linearGradient>
		
		
			<radialGradient
   id="radialGradient619"
   cx="58.341702"
   cy="82.850098"
   r="11.5074"
   gradientTransform="matrix(0.9622,0.2722,-0.3237,1.1443,29.0193,-27.8346)"
   gradientUnits="userSpaceOnUse">
			<stop
   offset="1.982868e-04"
   style="stop-color:#B36E00"
   id="stop613" />
			<stop
   offset="0.7126"
   style="stop-color:#C77B00;stop-opacity:0.2874"
   id="stop615" />
			<stop
   offset="1"
   style="stop-color:#D18100;stop-opacity:0"
   id="stop617" />
		</radialGradient>
		
		
			<radialGradient
   id="radialGradient628"
   cx="69.838097"
   cy="82.850098"
   r="11.5074"
   gradientTransform="matrix(-0.9622,0.2722,0.3237,1.1443,110.0701,-30.9638)"
   gradientUnits="userSpaceOnUse">
			<stop
   offset="1.982868e-04"
   style="stop-color:#B36E00"
   id="stop622" />
			<stop
   offset="0.7126"
   style="stop-color:#C77B00;stop-opacity:0.2874"
   id="stop624" />
			<stop
   offset="1"
   style="stop-color:#D18100;stop-opacity:0"
   id="stop626" />
		</radialGradient>
		
	
	
	
</defs><sodipodi:namedview
   id="namedview41674"
   pagecolor="#ffffff"
   bordercolor="#000000"
   borderopacity="0.25"
   inkscape:showpageshadow="2"
   inkscape:pageopacity="0.0"
   inkscape:pagecheckerboard="0"
   inkscape:deskcolor="#d1d1d1"
   showgrid="false"
   showguides="true"
   inkscape:zoom="4"
   inkscape:cx="55.875"
   inkscape:cy="71"
   inkscape:window-width="1366"
   inkscape:window-height="697"
   inkscape:window-x="-8"
   inkscape:window-y="-8"
   inkscape:window-maximized="1"
   inkscape:current-layer="svg41672" />
    <path
   d="M 64,9.64 C 1.69,9.64 0.21,79.5 0.21,93.33 c 0,13.83 28.56,25.03 63.79,25.03 35.24,0 63.79,-11.21 63.79,-25.03 C 127.79,79.5 126.32,9.64 64,9.64 Z"
   style="fill:#fcc21b;fill-rule:nonzero"
   id="path41636" />
    <path
   d="m 41.795247,66.47 c -4.49,0.04 -8.17,-4.27 -8.22,-9.62 -0.05,-5.37 3.55,-9.75 8.04,-9.79 4.48,-0.04 8.17,4.27 8.22,9.64 0.05,5.36 -3.55,9.73 -8.04,9.77 z m 44.11,0 c 4.48,-0.01 8.11,-4.36 8.1,-9.71 -0.01,-5.37 -3.66,-9.7 -8.14,-9.69 -4.49,0.01 -8.13,4.36 -8.12,9.73 0.02,5.35 3.67,9.68 8.16,9.67 z"
   style="fill:#2f2f2f;fill-rule:nonzero"
   id="path41638" />
    
    
    
    
    
    
    
    
    
<path
   style="fill:none;fill-opacity:1;stroke:#2f2f2f;stroke-width:5.66928;stroke-linecap:round;stroke-opacity:1"
   d="m 38.674976,92.801777 c 0,0 7.643523,2.771446 24.825021,2.771446 17.1815,0 24.825024,-2.771446 24.825024,-2.771446"
   id="path20405"
   sodipodi:nodetypes="czc" /><g
   id="g4300"
   transform="matrix(0.96683777,0,0,0.96683777,100.60104,-0.10171899)"
   style="stroke-width:1.0343"><path
     style="fill:none;stroke:#ffffff;stroke-width:0.949797;stroke-miterlimit:10"
     d="M -49.266079,61.010585"
     id="path10" /><path
     style="fill:none;stroke:#ffffff;stroke-width:0.949797;stroke-miterlimit:10"
     d="M -79.506079,61.010585"
     id="path12" /><g
     id="g16"
     transform="translate(-101.85608,6.7605843)"
     style="stroke-width:1.0343">
		<circle
   style="opacity:0.460366;fill:#3fc0e7;fill-opacity:1;stroke-width:1.0343"
   cx="34.560001"
   cy="51.990002"
   r="22.959999"
   id="circle14" />
	</g><g
     id="g20"
     transform="translate(-101.85608,6.7605843)"
     style="stroke-width:1.0343">
		<circle
   style="opacity:0.460366;fill:#3fc0e7;fill-opacity:1;stroke-width:1.0343"
   cx="93.389999"
   cy="51.990002"
   r="22.959999"
   id="circle18" />
	</g><g
     id="g38"
     transform="translate(-101.85608,6.7605843)"
     style="stroke-width:1.0343">
		<g
   id="g28"
   style="stroke-width:1.0343">
			<g
   id="g26"
   style="stroke-width:1.0343">
				
					
				
			</g>
		</g>
		<g
   id="g36"
   style="stroke-width:1.0343">
			<g
   id="g34"
   style="stroke-width:1.0343">
				
					
				
			</g>
		</g>
	</g><path
     style="fill:#2f2f2f;fill-opacity:1;stroke-width:1.0343"
     d="m -5.1760787,93.85575 c 0.33,-2.58 -0.58,-5.39 -2.1,-7.43 -0.2,-0.27 -0.63,-0.14 -0.64,0.19 -0.07,1.71 -0.68,5.16 -4.3700003,6.44 -6.97,2.42 -10.42,-9.38 -20.51,-8.43 -2.19,0.21 -3.86,1.18 -5.07,2.62 -0.01,-0.01 -0.02,-0.02 -0.02,-0.02 -0.01,0.01 -0.02,0.02 -0.02,0.02 -1.21,-1.44 -2.88,-2.42 -5.07,-2.62 -10.1,-0.95 -13.55,10.85 -20.51,8.43 -3.69,-1.28 -4.3,-4.73 -4.37,-6.44 -0.01,-0.33 -0.44,-0.46 -0.64,-0.19 -1.52,2.04 -2.44,4.85 -2.1,7.43 0.65,5 5.47,6.48 5.47,6.48 -1.34,1.26 -2.63,1.59 -4.18,1.47 -0.5,-0.04 -0.82,0.56 -0.51,0.95 3.63,4.68001 10.3,6.15001 15.17,3.10001 -0.29,0.94 -0.75,1.82 -1.34,2.56 -0.24,0.31 -0.13,0.77 0.24,0.92 6.22,2.51 12.68,1.36 17.87,-3.68 5.18,5.04 11.65,6.19 17.87,3.68 0.36,-0.15 0.48,-0.61 0.24,-0.92 -0.59,-0.74 -1.05,-1.62 -1.34,-2.56 4.86,3.05 11.5400003,1.58 15.1700003,-3.10001 0.31,-0.4 -0.01,-0.99 -0.51,-0.95 -1.56,0.12 -2.84,-0.21 -4.1800003,-1.47 -0.02,0 4.8100003,-1.48 5.4500003,-6.48 z"
     id="path45" /><g
     id="g63"
     transform="translate(-101.85608,6.7605843)"
     style="fill:#2f2f2f;fill-opacity:1;stroke-width:1.0343">
		<g
   id="g54"
   style="fill:#2f2f2f;fill-opacity:1;stroke-width:1.0343">
			
				<radialGradient
   id="radialGradient566"
   cx="36.077599"
   cy="33.319099"
   r="22.066999"
   gradientTransform="matrix(1,0.00626151,-0.00425225,0.6791,1.6669,10.585)"
   gradientUnits="userSpaceOnUse">
				<stop
   offset="0.0323"
   style="stop-color:#000000"
   id="stop562" />
				<stop
   offset="0.9664"
   style="stop-color:#424242"
   id="stop564" />
			</radialGradient>
			<path
   style="fill:#2f2f2f;fill-opacity:1;stroke-width:1.0343"
   d="m 27.46,19.97 c 2.16,1.26 3.25,3.82 3.25,3.82 0,0 -3.09,-2.29 -8.14,1.07 -2.7,1.79 -2.8,3.18 -6.01,4.34 -0.36,0.13 -0.47,0.61 -0.18,0.87 1.76,1.56 3.74,2.87 5.95,3.68 3.7,1.36 7.47,-0.63 11.29,-0.75 5.12,-0.17 11.75,1.28 16.3,3.86 1.29,-3.68 1.23,-7.81 -0.16,-11.45 -1.26,-3.29 -3.59,-6.15 -6.54,-8.07 -0.38,-0.25 -0.87,0.06 -0.81,0.51 l 0.8,5.42 c -2.3,-3.49 -5.91,-5.59 -10.12,-5.45 -1.72,0.06 -3.95,0.39 -5.62,1.23 -0.36,0.19 -0.36,0.71 -0.01,0.92 z"
   id="path52" />
		</g>
		
			<radialGradient
   id="radialGradient574"
   cx="58.82"
   cy="37.617599"
   r="20.4487"
   gradientTransform="matrix(-1,0.00626151,0.00325101,0.5192,149.7971,13.0701)"
   gradientUnits="userSpaceOnUse">
			<stop
   offset="0.0323"
   style="stop-color:#000000"
   id="stop570" />
			<stop
   offset="1"
   style="stop-color:#424242"
   id="stop572" />
		</radialGradient>
		<path
   style="fill:#2f2f2f;fill-opacity:1;stroke-width:1.0343"
   d="m 100.54,19.97 c -2.16,1.26 -3.25,3.82 -3.25,3.82 0,0 3.09,-2.29 8.14,1.07 2.7,1.79 2.8,3.18 6.01,4.34 0.36,0.13 0.47,0.61 0.18,0.87 -1.76,1.56 -3.74,2.87 -5.95,3.68 -3.7,1.36 -7.47,-0.63 -11.29,-0.75 -5.12,-0.17 -11.75,1.28 -16.3,3.86 -1.29,-3.68 -1.23,-7.81 0.16,-11.45 1.26,-3.29 3.59,-6.15 6.54,-8.07 0.38,-0.25 0.87,0.06 0.81,0.51 l -0.8,5.42 c 2.3,-3.49 5.91,-5.59 10.12,-5.45 1.72,0.06 3.95,0.39 5.62,1.23 0.36,0.19 0.36,0.71 0.01,0.92 z"
   id="path61" />
	</g><path
     id="path65"
     style="fill:#2f2f2f;fill-opacity:1;stroke-width:1.0343"
     d="m -67.296875,35.791016 c -10.17142,0 -18.793181,6.617025 -21.808594,15.779296 -0.01696,0.03468 -0.03342,0.06846 -0.05078,0.109376 -1.109999,2.639997 -5.240002,3.210312 -7.5,3.320312 -0.849999,0.04 -1.509766,0.730079 -1.509766,1.580078 v 3.150391 c 0,0.729999 0.510704,1.371016 1.220704,1.541015 2.239997,0.55 6.899922,2.019691 7.919921,4.929688 0.026,0.07454 0.05111,0.135757 0.07617,0.191406 3.149477,8.922199 11.65242,15.318359 21.652344,15.31836 11.376251,0 20.814866,-8.277991 22.636719,-19.136719 0.0045,0.0013 0.0093,0.0053 0.01367,0.0059 0,0 2.45102,-4.309375 6.791015,-4.359375 4.0898,0.04723 6.482211,3.850605 6.738281,4.277344 1.790205,10.896373 11.247416,19.21289 22.6503911,19.212891 9.9258132,0 18.381187,-6.300477 21.5859379,-15.119141 0.06186,-0.06955 0.126939,-0.194623 0.195312,-0.390625 1.019999,-2.909997 5.679924,-4.379688 7.919922,-4.929688 0.709999,-0.169999 1.21875,-0.811016 1.21875,-1.541015 V 56.580078 C 22.453125,55.730079 21.793359,55.04 20.943359,55 c -2.259997,-0.11 -6.390001,-0.680315 -7.5,-3.320312 -0.05766,-0.135884 -0.112815,-0.231903 -0.166015,-0.300782 -3.072021,-9.062702 -11.643793,-15.58789 -21.7441409,-15.58789 -9.5828991,0 -17.7905431,5.873267 -21.2304691,14.214843 -0.268599,0.379802 -0.82588,0.865235 -1.939453,0.865235 -1.789998,0 -2.628753,-1.480469 -6.21875,-1.480469 -3.589996,0 -4.430705,1.480469 -6.220703,1.480469 -1.345201,0 -1.882471,-0.700018 -2.074219,-1.076172 -0.02508,-0.05914 -0.05256,-0.116899 -0.07813,-0.175781 -0.01287,-0.0365 -0.01758,-0.05734 -0.01758,-0.05859 -0.0033,-0.002 -0.0065,-4.02e-4 -0.0098,-0.002 -3.545646,-8.10299 -11.630633,-13.767578 -21.041016,-13.767578 z m 0,5.339843 c 9.70999,0 17.621094,7.899151 17.621094,17.619141 0,9.71999 -7.901104,17.621094 -17.621094,17.621094 -9.71999,0 -17.619141,-7.901104 -17.619141,-17.621094 0,-9.71999 7.899151,-17.619141 17.619141,-17.619141 z m 58.8300781,0 c 9.7099903,0 17.6210938,7.899151 17.6210938,17.619141 0,9.71999 -7.9011035,17.621094 -17.6210938,17.621094 -9.7199901,0 -17.6191411,-7.901104 -17.6191411,-17.621094 0,-9.71999 7.909151,-17.619141 17.6191411,-17.619141 z" /><path
     id="path16482"
     style="clip-rule:evenodd;fill:#f69228;fill-opacity:1;fill-rule:evenodd;stroke-width:3.49113;stroke-linecap:round;stroke-linejoin:round;stroke-miterlimit:1.5"
     d="m -37.983113,55.208245 c -2.193761,8.4e-5 -6.008169,0.877587 -6.63812,6.187677 -1.764952,14.877415 -9.259368,18.958504 -9.259368,23.759552 0,4.801049 2.821603,5.954937 5.630836,5.954937 5.089453,0 4.483713,1.468346 10.292273,1.468346 5.80856,0 5.976877,-1.468346 10.288796,-1.468346 2.754697,0 5.47071,-1.560501 5.47071,-6.358562 0,-4.798063 -7.040279,-10.055497 -9.039244,-23.355927 -0.774842,-5.155537 -4.55212,-6.187764 -6.745883,-6.187677 z"
     sodipodi:nodetypes="sszszszss" /></g></svg>
