<?xml version="1.0" encoding="UTF-8" standalone="no"?>
<svg
   width="100%"
   height="100%"
   viewBox="0 0 128 128"
   version="1.1"
   xml:space="preserve"
   style="fill-rule:evenodd;clip-rule:evenodd;stroke-linecap:round;stroke-linejoin:round;stroke-miterlimit:1.5;"
   id="svg41672"
   sodipodi:docname="disguised face.svg"
   inkscape:version="1.3 (0e150ed6c4, 2023-07-21)"
   xmlns:inkscape="http://www.inkscape.org/namespaces/inkscape"
   xmlns:sodipodi="http://sodipodi.sourceforge.net/DTD/sodipodi-0.dtd"
   xmlns="http://www.w3.org/2000/svg"
   xmlns:svg="http://www.w3.org/2000/svg"><defs
   id="defs41676"><linearGradient
   id="SVGID_4_"
   gradientUnits="userSpaceOnUse"
   x1="113.6633"
   y1="52.194698"
   x2="123.8348"
   y2="52.194698"
   gradientTransform="translate(191.26555,62.207746)">&#10;				<stop
   offset="0.4463"
   style="stop-color:#212121"
   id="stop13938" />&#10;				<stop
   offset="0.7484"
   style="stop-color:#323232"
   id="stop13940" />&#10;				<stop
   offset="0.9664"
   style="stop-color:#424242"
   id="stop13942" />&#10;			</linearGradient><linearGradient
   id="SVGID_5_"
   gradientUnits="userSpaceOnUse"
   x1="-17.1292"
   y1="52.194698"
   x2="-6.9576998"
   y2="52.194698"
   gradientTransform="matrix(-1,0,0,1,188.47305,62.207746)">&#10;				<stop
   offset="0.4463"
   style="stop-color:#212121"
   id="stop13953" />&#10;				<stop
   offset="0.7484"
   style="stop-color:#323232"
   id="stop13955" />&#10;				<stop
   offset="0.9664"
   style="stop-color:#424242"
   id="stop13957" />&#10;			</linearGradient><radialGradient
   id="SVGID_8_"
   cx="69.838097"
   cy="82.850098"
   r="11.5074"
   gradientTransform="matrix(-0.9622,0.2722,0.3237,1.1443,210.09103,-28.676927)"
   gradientUnits="userSpaceOnUse">&#10;			<stop
   offset="1.982868e-04"
   style="stop-color:#B36E00"
   id="stop13982" />&#10;			<stop
   offset="0.7126"
   style="stop-color:#C77B00;stop-opacity:0.2874"
   id="stop13984" />&#10;			<stop
   offset="1"
   style="stop-color:#D18100;stop-opacity:0"
   id="stop13986" />&#10;		</radialGradient><radialGradient
   id="SVGID_7_"
   cx="58.341702"
   cy="82.850098"
   r="11.5074"
   gradientTransform="matrix(0.9622,0.2722,-0.3237,1.1443,129.04023,-25.547727)"
   gradientUnits="userSpaceOnUse">&#10;			<stop
   offset="1.982868e-04"
   style="stop-color:#B36E00"
   id="stop13973" />&#10;			<stop
   offset="0.7126"
   style="stop-color:#C77B00;stop-opacity:0.2874"
   id="stop13975" />&#10;			<stop
   offset="1"
   style="stop-color:#D18100;stop-opacity:0"
   id="stop13977" />&#10;		</radialGradient><linearGradient
   id="SVGID_6_"
   gradientUnits="userSpaceOnUse"
   x1="64"
   y1="20.8333"
   x2="64"
   y2="56.888802"
   gradientTransform="translate(100.02093,2.2868729)">&#10;			<stop
   offset="0.5"
   style="stop-color:#FDE030"
   id="stop13966" />&#10;			<stop
   offset="1"
   style="stop-color:#F7C02B"
   id="stop13968" />&#10;		</linearGradient>&#10;        &#10;    <linearGradient
   id="SVGID_6_-8"
   gradientUnits="userSpaceOnUse"
   x1="64"
   y1="20.8333"
   x2="64"
   y2="56.888802"
   gradientTransform="translate(-101.85608,6.7605843)">&#10;			<stop
   offset="0.5"
   style="stop-color:#FDE030"
   id="stop103" />&#10;			<stop
   offset="1"
   style="stop-color:#F7C02B"
   id="stop105" />&#10;		</linearGradient><radialGradient
   id="SVGID_7_-3"
   cx="58.341702"
   cy="82.850098"
   r="11.5074"
   gradientTransform="matrix(0.9622,0.2722,-0.3237,1.1443,-72.83678,-21.074016)"
   gradientUnits="userSpaceOnUse">&#10;			<stop
   offset="0.00019829"
   style="stop-color:#f69228;stop-opacity:1;"
   id="stop110" />&#10;			<stop
   offset="0.71259999"
   style="stop-color:#f69228;stop-opacity:0.28999999;"
   id="stop112" />&#10;			<stop
   offset="1"
   style="stop-color:#f69228;stop-opacity:0;"
   id="stop114" />&#10;		</radialGradient><radialGradient
   id="SVGID_8_-4"
   cx="69.838097"
   cy="82.850098"
   r="11.5074"
   gradientTransform="matrix(-0.9622,0.2722,0.3237,1.1443,8.21402,-24.203216)"
   gradientUnits="userSpaceOnUse">&#10;			<stop
   offset="0.00019829"
   style="stop-color:#f69228;stop-opacity:1;"
   id="stop119" />&#10;			<stop
   offset="0.71259999"
   style="stop-color:#f69228;stop-opacity:0.28999999;"
   id="stop121" />&#10;			<stop
   offset="1"
   style="stop-color:#f69228;stop-opacity:0;"
   id="stop123" />&#10;		</radialGradient><linearGradient
   id="SVGID_4_-2"
   gradientUnits="userSpaceOnUse"
   x1="113.6633"
   y1="52.194698"
   x2="123.8348"
   y2="52.194698"
   gradientTransform="translate(-101.85608,6.7605843)">&#10;				<stop
   offset="0.4463"
   style="stop-color:#212121"
   id="stop75" />&#10;				<stop
   offset="0.7484"
   style="stop-color:#323232"
   id="stop77" />&#10;				<stop
   offset="0.9664"
   style="stop-color:#424242"
   id="stop79" />&#10;			</linearGradient><linearGradient
   id="SVGID_5_-2"
   gradientUnits="userSpaceOnUse"
   x1="-17.1292"
   y1="52.194698"
   x2="-6.9576998"
   y2="52.194698"
   gradientTransform="matrix(-1,0,0,1,-104.64858,6.7605843)">&#10;				<stop
   offset="0.4463"
   style="stop-color:#212121"
   id="stop90" />&#10;				<stop
   offset="0.7484"
   style="stop-color:#323232"
   id="stop92" />&#10;				<stop
   offset="0.9664"
   style="stop-color:#424242"
   id="stop94" />&#10;			</linearGradient><radialGradient
   id="SVGID_2_"
   cx="36.077599"
   cy="33.319099"
   r="22.066999"
   gradientTransform="matrix(1,0.00626151,-0.00425225,0.6791,1.6669,10.585)"
   gradientUnits="userSpaceOnUse">&#10;				<stop
   offset="0.0323"
   style="stop-color:#000000"
   id="stop47" />&#10;				<stop
   offset="0.9664"
   style="stop-color:#424242"
   id="stop49" />&#10;			</radialGradient><radialGradient
   id="SVGID_3_"
   cx="58.82"
   cy="37.617599"
   r="20.4487"
   gradientTransform="matrix(-1,0.00626151,0.00325101,0.5192,149.7971,13.0701)"
   gradientUnits="userSpaceOnUse">&#10;			<stop
   offset="0.0323"
   style="stop-color:#000000"
   id="stop56" />&#10;			<stop
   offset="1"
   style="stop-color:#424242"
   id="stop58" />&#10;		</radialGradient><radialGradient
   id="SVGID_1_"
   cx="63.972301"
   cy="88.408699"
   r="33.821899"
   gradientTransform="matrix(1,0,0,0.4617,-101.85608,54.347285)"
   gradientUnits="userSpaceOnUse">&#10;		<stop
   offset="0.0323"
   style="stop-color:#000000"
   id="stop40" />&#10;		<stop
   offset="1"
   style="stop-color:#424242"
   id="stop42" />&#10;	</radialGradient>&#10;		&#10;		&#10;		&#10;		&#10;		&#10;	&#10;			<linearGradient
   id="linearGradient589"
   gradientUnits="userSpaceOnUse"
   x1="113.6633"
   y1="52.194698"
   x2="123.8348"
   y2="52.194698">&#10;				<stop
   offset="0.4463"
   style="stop-color:#212121"
   id="stop583" />&#10;				<stop
   offset="0.7484"
   style="stop-color:#323232"
   id="stop585" />&#10;				<stop
   offset="0.9664"
   style="stop-color:#424242"
   id="stop587" />&#10;			</linearGradient>&#10;			&#10;		&#10;			&#10;		&#10;			&#10;		&#10;			&#10;				<linearGradient
   id="linearGradient601"
   gradientUnits="userSpaceOnUse"
   x1="-17.1292"
   y1="52.194698"
   x2="-6.9576998"
   y2="52.194698"
   gradientTransform="matrix(-1,0,0,1,-2.7925,0)">&#10;				<stop
   offset="0.4463"
   style="stop-color:#212121"
   id="stop595" />&#10;				<stop
   offset="0.7484"
   style="stop-color:#323232"
   id="stop597" />&#10;				<stop
   offset="0.9664"
   style="stop-color:#424242"
   id="stop599" />&#10;			</linearGradient>&#10;			&#10;		&#10;			&#10;		&#10;				&#10;			&#10;		<linearGradient
   id="linearGradient610"
   gradientUnits="userSpaceOnUse"
   x1="64"
   y1="20.8333"
   x2="64"
   y2="56.888802">&#10;			<stop
   offset="0.5"
   style="stop-color:#FDE030"
   id="stop606" />&#10;			<stop
   offset="1"
   style="stop-color:#F7C02B"
   id="stop608" />&#10;		</linearGradient>&#10;		&#10;		&#10;			<radialGradient
   id="radialGradient619"
   cx="58.341702"
   cy="82.850098"
   r="11.5074"
   gradientTransform="matrix(0.9622,0.2722,-0.3237,1.1443,29.0193,-27.8346)"
   gradientUnits="userSpaceOnUse">&#10;			<stop
   offset="1.982868e-04"
   style="stop-color:#B36E00"
   id="stop613" />&#10;			<stop
   offset="0.7126"
   style="stop-color:#C77B00;stop-opacity:0.2874"
   id="stop615" />&#10;			<stop
   offset="1"
   style="stop-color:#D18100;stop-opacity:0"
   id="stop617" />&#10;		</radialGradient>&#10;		&#10;		&#10;			<radialGradient
   id="radialGradient628"
   cx="69.838097"
   cy="82.850098"
   r="11.5074"
   gradientTransform="matrix(-0.9622,0.2722,0.3237,1.1443,110.0701,-30.9638)"
   gradientUnits="userSpaceOnUse">&#10;			<stop
   offset="1.982868e-04"
   style="stop-color:#B36E00"
   id="stop622" />&#10;			<stop
   offset="0.7126"
   style="stop-color:#C77B00;stop-opacity:0.2874"
   id="stop624" />&#10;			<stop
   offset="1"
   style="stop-color:#D18100;stop-opacity:0"
   id="stop626" />&#10;		</radialGradient>&#10;		&#10;	&#10;	&#10;	&#10;</defs><sodipodi:namedview
   id="namedview41674"
   pagecolor="#ffffff"
   bordercolor="#000000"
   borderopacity="0.25"
   inkscape:showpageshadow="2"
   inkscape:pageopacity="0.0"
   inkscape:pagecheckerboard="0"
   inkscape:deskcolor="#d1d1d1"
   showgrid="false"
   showguides="true"
   inkscape:zoom="4"
   inkscape:cx="57.875"
   inkscape:cy="67.625"
   inkscape:window-width="1366"
   inkscape:window-height="697"
   inkscape:window-x="-8"
   inkscape:window-y="-8"
   inkscape:window-maximized="1"
   inkscape:current-layer="svg41672" />&#10;    <path
   d="M 64,9.64 C 1.69,9.64 0.21,79.5 0.21,93.33 c 0,13.83 28.56,25.03 63.79,25.03 35.24,0 63.79,-11.21 63.79,-25.03 C 127.79,79.5 126.32,9.64 64,9.64 Z"
   style="fill:#fcc21b;fill-rule:nonzero"
   id="path41636" />&#10;    <path
   d="m 41.795247,67.97 c -4.49,0.04 -8.17,-4.27 -8.22,-9.62 -0.05,-5.37 3.55,-9.75 8.04,-9.79 4.48,-0.04 8.17,4.27 8.22,9.64 0.05,5.36 -3.55,9.73 -8.04,9.77 z m 44.11,0 c 4.48,-0.01 8.11,-4.36 8.1,-9.71 -0.01,-5.37 -3.66,-9.7 -8.14,-9.69 -4.49,0.01 -8.13,4.36 -8.12,9.73 0.02,5.35 3.67,9.68 8.16,9.67 z"
   style="fill:#2f2f2f;fill-rule:nonzero"
   id="path41638" />&#10;    &#10;    &#10;    &#10;    &#10;    &#10;    &#10;    &#10;    &#10;    &#10;<path
   style="opacity:1;fill:none;fill-opacity:1;stroke:#2f2f2f;stroke-width:5.99998;stroke-linecap:round;stroke-opacity:1"
   d="m 47.3125,88.403281 c 0,0 3.853158,3 16.16782,3 12.314662,0 17.20718,-3 17.20718,-3"
   id="path4"
   sodipodi:nodetypes="czc" /><path
   fill="#2f2f2f"
   d="m 63.248047,76.830078 c -6.316802,0.07002 -12.606724,2.558244 -17.085589,7.038886 -2.476385,2.477367 -4.678936,5.236911 -7.395625,7.464657 -0.930905,0.763363 -1.985552,1.346854 -3.145523,1.695947 -1.331406,0.400686 -2.805394,0.637455 -3.898258,1.527776 -1.334458,1.087139 -1.251901,3.135975 -0.601016,4.628583 0.975613,2.237273 3.205891,3.627663 5.529871,4.182833 4.485281,1.07148 9.241157,0.74742 13.537933,-0.89388 3.753284,-1.43369 7.313419,-3.453313 11.271781,-4.285872 2.172824,-0.457008 4.417772,-0.0025 6.465969,0.78297 2.810359,1.077782 5.473078,2.516352 8.365415,3.388972 3.251934,0.98111 6.642263,1.74278 10.052125,1.54806 2.588832,-0.14784 5.211854,-0.52576 7.604089,-1.51643 2.267604,-0.93905 3.900455,-3.564493 3.511719,-6.054689 C 97.234395,94.886684 95.82477,93.87732 94.382812,93.570312 92.051185,93.073885 89.684277,92.211638 87.931641,90.462891 84.445538,86.984524 81.464366,82.901938 77.208984,80.28125 73.047392,77.718323 68.091417,76.776388 63.248047,76.830078 Z"
   id="path10-1"
   style="stroke-width:0.999999"
   sodipodi:nodetypes="ssssssssssssssssss" /><g
   id="g4300"
   transform="matrix(0.96683777,0,0,0.96683777,100.60104,1.398281)"
   style="stroke-width:1.0343"><path
     style="fill:none;stroke:#ffffff;stroke-width:0.949797;stroke-miterlimit:10"
     d="M -49.266079,61.010585"
     id="path10" /><path
     style="fill:none;stroke:#ffffff;stroke-width:0.949797;stroke-miterlimit:10"
     d="M -79.506079,61.010585"
     id="path12" /><g
     id="g16"
     transform="translate(-101.85608,6.7605843)"
     style="stroke-width:1.0343">&#10;		&#10;	</g><g
     id="g20"
     transform="translate(-101.85608,6.7605843)"
     style="stroke-width:1.0343">&#10;		&#10;	</g><g
     id="g38"
     transform="translate(-101.85608,6.7605843)"
     style="stroke-width:1.0343">&#10;		<g
   id="g28"
   style="stroke-width:1.0343">&#10;			<g
   id="g26"
   style="stroke-width:1.0343">&#10;				&#10;					&#10;				&#10;			</g>&#10;		</g>&#10;		<g
   id="g36"
   style="stroke-width:1.0343">&#10;			<g
   id="g34"
   style="stroke-width:1.0343">&#10;				&#10;					&#10;				&#10;			</g>&#10;		</g>&#10;	</g><g
     id="g63"
     transform="translate(-101.85608,6.7605843)"
     style="fill:#2f2f2f;fill-opacity:1;stroke-width:1.0343">&#10;		<g
   id="g54"
   style="fill:#2f2f2f;fill-opacity:1;stroke-width:1.0343">&#10;			&#10;				<radialGradient
   id="radialGradient566"
   cx="36.077599"
   cy="33.319099"
   r="22.066999"
   gradientTransform="matrix(1,0.00626151,-0.00425225,0.6791,1.6669,10.585)"
   gradientUnits="userSpaceOnUse">&#10;				<stop
   offset="0.0323"
   style="stop-color:#000000"
   id="stop562" />&#10;				<stop
   offset="0.9664"
   style="stop-color:#424242"
   id="stop564" />&#10;			</radialGradient>&#10;			&#10;		</g>&#10;		&#10;			<radialGradient
   id="radialGradient574"
   cx="58.82"
   cy="37.617599"
   r="20.4487"
   gradientTransform="matrix(-1,0.00626151,0.00325101,0.5192,149.7971,13.0701)"
   gradientUnits="userSpaceOnUse">&#10;			<stop
   offset="0.0323"
   style="stop-color:#000000"
   id="stop570" />&#10;			<stop
   offset="1"
   style="stop-color:#424242"
   id="stop572" />&#10;		</radialGradient>&#10;		&#10;	</g><path
     id="path65"
     style="fill:#2f2f2f;fill-opacity:1;stroke-width:1.0343"
     d="m -67.297623,35.790567 c -10.17139,0 -18.791754,6.616887 -21.807158,15.779131 -0.01696,0.03468 -0.03314,0.06817 -0.0505,0.109086 -1.109996,2.639991 -3.172102,3.211072 -5.432094,3.321072 -0.849996,0.04 -3.579646,0.729631 -3.579646,3.094819 0,2.365186 2.58077,3.007644 3.29077,3.177643 2.239988,0.549997 4.830261,2.019096 5.850257,4.929084 0.026,0.07454 0.0517,0.136262 0.07677,0.191911 3.149465,8.922172 11.651715,15.318543 21.651609,15.318543 11.376218,0 20.857709,-8.269169 22.651567,-19.132523 0.20111,-1.217891 1.475441,-6.361663 6.789612,-6.363367 5.314171,-0.0017 6.440843,4.632097 6.739109,6.282563 1.963737,10.866406 11.246605,19.213327 22.6495468,19.213327 9.9257832,0 18.3822251,-6.301934 21.5869652,-15.120571 0.06186,-0.06955 0.127579,-0.193881 0.195952,-0.389883 1.019996,-2.909988 3.610268,-4.379087 5.850257,-4.929084 0.709999,-0.169999 3.286728,-0.812437 3.28673,-3.177643 10e-7,-2.365209 -2.727629,-3.054819 -3.577626,-3.094819 -2.259991,-0.11 -4.322098,-0.681081 -5.432094,-3.321072 -0.05766,-0.135884 -0.112452,-0.230098 -0.165649,-0.298977 -3.072012,-9.062675 -11.6442176,-15.58924 -21.7445352,-15.58924 -9.5828698,0 -17.5834258,5.580785 -21.1142588,13.884262 -0.352308,0.82853 -0.940888,1.195909 -2.054458,1.195909 -1.789992,0 -2.629954,-1.480746 -6.219939,-1.480746 -3.589987,0 -4.429947,1.480746 -6.219939,1.480746 -1.345198,0 -1.882912,-0.700571 -2.07466,-1.076722 -0.02508,-0.05914 -0.05119,-0.116869 -0.07676,-0.175751 -0.01287,-0.0365 -0.01818,-0.05733 -0.01818,-0.05858 -0.0033,-0.002 -0.0068,-4.62e-4 -0.0101,-0.002 C -49.801709,41.454719 -57.887253,35.79059 -67.297609,35.79059 Z m 0,5.341189 c 9.70996,0 17.621477,7.897476 17.621477,17.617436 0,9.719963 -7.901517,17.621477 -17.621477,17.621477 -9.71996,0 -17.617437,-7.901514 -17.617437,-17.621477 0,-9.71996 7.897477,-17.617436 17.617437,-17.617436 z m 58.8298348,0 c 9.7099609,0 17.6214768,7.897476 17.6214768,17.617436 0,9.719963 -7.9015159,17.621477 -17.6214768,17.621477 -9.7199608,0 -17.6174368,-7.901514 -17.6174368,-17.621477 0,-9.71996 7.907476,-17.617436 17.6174368,-17.617436 z"
     sodipodi:nodetypes="ccccscccsszsscccscccsssssccccccssssssssss" /></g><g
   id="g16486"
   transform="matrix(0.32265725,0,0,0.29626727,43.349867,48.69129)"
   style="clip-rule:evenodd;fill-rule:evenodd;stroke-width:3.23435;stroke-linecap:round;stroke-linejoin:round;stroke-miterlimit:1.5">&#10;	<path
   fill="#ffffff"
   d="m 113.692,100.84199 c 0,-9.025127 -0.968,-20.9445 -5.986,-27.832066 C 100.74,63.452067 96.089,53.169305 94.687,49.903347 94.208,48.551681 93.752,47.243743 93.252,45.794906 91.026,39.339757 88.511,32.008114 85.14,23.780544 78.44,7.3895364 66.791,7.1942203 64.688,7.1942203 c -2.57,0 -13.876,0.1953161 -20.585,16.5863237 -3.349,8.217853 -5.875,15.537834 -8.089,21.992984 -0.367,1.092215 -0.724,2.07657 -1.08,3.125058 -0.29,0.713244 -5.308,12.932649 -13.453,24.111338 -5.43,7.450193 -9.414,21.35554 -5.285,29.886286 l 0.022,-0.0107 c 0.545,1.45856 1.224,2.69265 1.98,3.67603 l -0.033,0.033 c 0,0 2.158,4.88679 12.84,4.88679 7.656,0 15.167,-1.26519 25.749,3.75182 v -0.0213 c 2.047,0.8007 4.439,1.34097 7.833,1.34097 3.394,0 5.786,-0.54027 7.845,-1.33028 v 0.0107 c 10.582,-5.017 18.093,-3.75181 25.749,-3.75181 10.326,0 12.663,-4.53114 12.807,-4.83335 1.136,-1.41579 2.704,-3.35506 2.704,-5.80603 z"
   id="path16482"
   style="fill:#fcc21b;fill-opacity:1;stroke-width:10.9171"
   sodipodi:nodetypes="sccccsccccccccsccsccscss" />&#10;	<path
   fill="#cc4079"
   d="M 62.228516,6.4137177 C 58.973394,6.6464564 55.833159,7.7993684 52.881043,9.1714893 47.880212,11.491611 43.542505,15.194573 40.263887,19.697294 35.803908,25.512785 33.415559,32.590468 31.018397,39.475908 26.7976,51.06076 22.857203,62.842118 16.938595,73.663376 c -3.039799,5.4747 -6.62596,10.824943 -7.9279789,17.085538 -1.4768642,6.257076 -1.279202,13.116166 1.4686659,18.982406 2.409954,5.09494 7.107949,8.97925 12.491714,10.26348 4.203897,1.20251 8.679376,0.80964 12.861035,-0.29355 3.586755,-0.85789 7.418282,-0.21953 10.685547,1.4704 4.615093,2.03316 9.379242,4.1919 14.500756,4.1835 7.026844,0.49608 14.090296,-1.13271 20.46613,-4.13015 2.685822,-1.27179 5.705468,-2.12701 8.673739,-1.57784 4.810567,0.39578 9.678475,2.03275 14.488477,0.78033 6.31213,-1.5496 11.68473,-6.53551 13.86666,-12.80106 2.09589,-5.38521 2.06367,-11.478314 0.5533,-17.016206 -2.3022,-8.367759 -7.32936,-15.503073 -11.20088,-23.133728 C 103.45952,59.105161 100.76884,49.955949 97.485428,41.095621 94.394407,32.757559 91.484722,24.045421 85.710336,17.188463 81.455372,12.037347 75.489417,8.368071 69.016831,7.0792559 66.791979,6.5886364 64.504604,6.3449129 62.228516,6.4137177 Z m 3.064453,17.7499863 c 5.814925,1.106774 10.638177,5.599443 13.399208,10.981851 3.060293,5.786275 4.749826,12.21735 7.091393,18.336129 3.385335,9.516932 7.101774,18.997425 12.458618,27.492336 3.043422,4.749267 5.172452,10.51904 4.387742,16.333463 -0.47974,3.689117 -2.683195,7.504497 -6.26971,8.474607 -4.401493,1.15916 -8.659261,-1.18654 -12.97253,-1.73659 -3.772415,-0.74878 -7.51418,0.59063 -11.116662,1.61805 -2.704163,0.72299 -5.421167,1.75597 -8.239758,1.69723 -5.632592,-0.22563 -10.795213,-3.17693 -16.399866,-3.54251 -5.109425,0.0412 -9.833658,3.18975 -14.998592,2.46966 -3.707027,-0.59444 -6.483922,-4.11107 -7.136178,-7.891436 -1.120831,-5.026681 0.397941,-10.265104 2.651139,-14.698196 3.765508,-7.298121 8.368786,-14.152334 11.223323,-21.945115 2.659522,-7.112431 4.831158,-14.431867 7.773107,-21.42632 1.477147,-3.364595 3.037887,-6.739464 5.197594,-9.68146 2.768797,-3.524474 6.777109,-6.077965 11.148788,-6.439524 0.596403,-0.125759 1.201523,-0.02952 1.802384,-0.04218 z"
   id="path16484"
   style="fill:#2f2f2f;fill-opacity:1;stroke-width:10.9171"
   sodipodi:nodetypes="cccccsccccccscccscsscsccccccscsccccccccs" />&#10;</g><path
   style="fill:#2f2f2f;fill-opacity:1;stroke-width:6;stroke-linecap:round"
   d="m 19.765097,37.302632 c 0,4.056526 8.742122,4.059043 17.498892,3.150678 8.75679,-0.908367 15.524011,-2.499745 15.524011,-8.687252 0,-6.930736 -9.911158,-7.23849 -16.907053,-5.388768 -7.802231,2.062917 -16.11585,6.391735 -16.11585,10.925342 z"
   id="path1"
   sodipodi:nodetypes="sssss" /><path
   style="fill:#2f2f2f;fill-opacity:1;stroke-width:6;stroke-linecap:round"
   d="m 108.2349,37.302632 c 0,4.056526 -8.74212,4.059043 -17.498889,3.150678 C 81.979221,39.544943 75.212,37.953565 75.212,31.766058 c 0,-6.930736 9.911158,-7.23849 16.907053,-5.388768 7.802227,2.062917 16.115847,6.391735 16.115847,10.925342 z"
   id="path3"
   sodipodi:nodetypes="sssss" /></svg>
