<?xml version="1.0" encoding="UTF-8" standalone="no"?>
<!-- Generator: Adobe Illustrator 24.0.3, SVG Export Plug-In . SVG Version: 6.00 Build 0)  -->

<svg
   version="1.1"
   id="Layer_8"
   x="0px"
   y="0px"
   viewBox="0 0 128 128"
   style="enable-background:new 0 0 128 128;"
   xml:space="preserve"
   sodipodi:docname="dodo.svg"
   inkscape:version="1.3 (0e150ed6c4, 2023-07-21)"
   xmlns:inkscape="http://www.inkscape.org/namespaces/inkscape"
   xmlns:sodipodi="http://sodipodi.sourceforge.net/DTD/sodipodi-0.dtd"
   xmlns="http://www.w3.org/2000/svg"
   xmlns:svg="http://www.w3.org/2000/svg"><defs
   id="defs9"><inkscape:path-effect
     effect="powerstroke"
     id="path-effect11"
     is_visible="true"
     lpeversion="1.3"
     scale_width="1"
     interpolator_type="CentripetalCatmullRom"
     interpolator_beta="0.2"
     start_linecap_type="zerowidth"
     end_linecap_type="zerowidth"
     offset_points="0.22340515,0.62691531 | 1.0288098,0.93545965 | 1.8240753,0.44352267"
     linejoin_type="round"
     miter_limit="4"
     not_jump="false"
     sort_points="true"
     message="&lt;b&gt;Ctrl + click&lt;/b&gt; on existing node and move it" /></defs><sodipodi:namedview
   id="namedview9"
   pagecolor="#ffffff"
   bordercolor="#000000"
   borderopacity="0.25"
   inkscape:showpageshadow="2"
   inkscape:pageopacity="0.0"
   inkscape:pagecheckerboard="0"
   inkscape:deskcolor="#d1d1d1"
   inkscape:zoom="2.867097"
   inkscape:cx="37.319979"
   inkscape:cy="73.41921"
   inkscape:window-width="1366"
   inkscape:window-height="697"
   inkscape:window-x="-8"
   inkscape:window-y="-8"
   inkscape:window-maximized="1"
   inkscape:current-layer="Layer_8" />&#10;&#10;<g
   id="g14"
   transform="matrix(1.0388435,0,0,1.0388435,109.88675,1.2734633)"
   style="stroke-width:0.962609"><g
     fill="#fcc21b"
     id="g22204"
     transform="matrix(1.1632777,-0.37167414,0.37167414,1.1632777,-156.73797,-11.509657)"
     style="fill:#f79329;fill-opacity:1;stroke-width:0.788241"><path
       d="m 53.519287,100.00254 c -0.75,2.44 -1.25,5.18 -2.68,7.25 -3.2,4.63 -10.878549,-0.49575 -14.454676,1.60823 -1.658623,0.96657 -1.742331,3.51677 -0.930061,5.03579 1.253245,2.34245 4.173653,2.06638 6.432883,2.54333 1.250082,0.27293 2.549573,0.30931 3.845874,0.37716 1.162887,0.067 2.07598,0.20549 3.21598,0.42549 1.5,0.3 3.12,-0.09 4.25,-1.14 1.36,-1.24 1.3,-2.8 1.65,-4.48 0.49,-2.43 1.44,-4.75 2.41,-7.03 0.87,-2.07 2.88,-5.100003 2.58,-7.430003 -0.08,-0.66 -0.6,-0.99 -1.22,-1.21 -0.71,-0.26 -1.74,-0.56 -2.5,-0.48 -1.4,0.13 -1.87,2.44 -2.26,3.5 -0.12,0.34 -0.23,0.68 -0.34,1.030003 z"
       id="path22202"
       style="fill:#f79329;fill-opacity:1;stroke-width:0.788241"
       sodipodi:nodetypes="ccccccccccccccc" /></g><g
     fill="#fcc21b"
     id="g22374"
     transform="matrix(1.1632777,-0.37167414,0.37167414,1.1632777,-140.87521,-5.6087187)"
     style="fill:#f79329;fill-opacity:1;stroke-width:0.788241"><path
       d="m 53.519287,100.00254 c -0.75,2.44 -1.560934,5.68781 -2.518348,8.01443 -2.142924,5.2043 -8.013572,1.35516 -10.473164,4.01628 -1.142169,1.22494 -0.821547,3.79996 0.03909,5.20183 1.327685,2.16169 3.554364,1.43743 5.381344,1.57091 1.012276,0.0829 2.027157,-0.0794 3.044319,-0.20957 0.913412,-0.11057 1.823232,-0.13071 2.719375,-0.34341 1.182485,-0.26982 2.594904,-0.82359 3.475943,-2.08976 1.065405,-1.5007 0.675242,-3.01231 0.66021,-4.72832 -0.03762,-2.47862 0.441231,-4.56239 1.411231,-6.84239 0.87,-2.07 2.88,-5.100003 2.58,-7.430003 -0.08,-0.66 -0.6,-0.99 -1.22,-1.21 -0.71,-0.26 -1.74,-0.56 -2.5,-0.48 -1.4,0.13 -1.87,2.44 -2.26,3.5 -0.12,0.34 -0.23,0.68 -0.34,1.030003 z"
       id="path22372"
       style="fill:#f79329;fill-opacity:1;stroke-width:0.788241"
       sodipodi:nodetypes="ccccccccccccccc" /></g><path
     style="fill:#6593a2;stroke-width:34.563;stroke-linecap:round"
     d="m -58.508658,4.098222 c -6.45252,0 -15.346533,5.75495 -15.346533,10.550742 0,4.795791 5.75495,9.068406 5.75495,13.428216 0,5.667754 -21.293403,19.157139 -21.293403,33.777282 0,12.465596 8.544502,29.891203 38.175376,29.891203 32.617597,0 39.188047,-14.14674 39.188047,-26.552343 0,-12.405602 -12.400117,-21.594851 -27.535621,-21.594851 -9.738346,0 -14.93765,2.632779 -17.665561,2.632779 -1.73061,0 -2.258592,-0.979389 -2.258592,-1.659521 0,-5.57708 14.658233,-12.386758 14.658233,-25.581363 0,-8.50867 -6.143772,-14.892144 -13.676896,-14.892144 z"
     id="path10"
     sodipodi:nodetypes="sssssssssss" /><path
     style="fill:#e0e0e0;stroke-width:0.962609"
     d="m -83.477455,8.1147008 c 4.35,1.63 7.76,2.4700002 10.67,1.75 2.51,-0.63 5.8,-5.37 8.52,-3.38 0.87,0.63 1.61,1.42 2.2,2.32 1.82,2.7700002 2.68,5.4600002 2.39,9.5100002 -0.09,1.27 -1.73,9.82 -7.39,10.24 -2.04,0.15 -3.98,-0.89 -5.49,-2.27 -1.51,-1.38 -2.83,-2.7 -5.41,-4.29 -3.55,-2.19 -6.91,-2.5 -10.82,-3.96 z"
     id="path7-8" /><path
     style="fill:#f79329;stroke-width:0.962609"
     d="m -88.857455,6.4247008 c 1.9,-0.57 4.99,-0.23 7.12,2.14 5.32,5.9500002 -0.39,11.3200002 -3.5,11.4500002 -4.17,0.18 -4.66,-1.02 -7,-1.79 -1.84,-0.6 -3.15,0.3 -4.43,1.05 -0.67,0.39 -1.55,-0.2 -1.35,-0.95 2.21,-8.02 5.37,-10.7700002 9.16,-11.9000002 z"
     id="path8-3" /><ellipse
     transform="rotate(-77.706995)"
     style="fill:#2f2f2f;fill-opacity:1;stroke-width:0.962583"
     cx="-28.352192"
     cy="-63.216259"
     rx="2.9326372"
     ry="2.2243776"
     id="ellipse8-3" /><path
     id="path11"
     style="fill:#2f2f2f;fill-opacity:1;fill-rule:nonzero;stroke:none;stroke-width:0.962609;stroke-linecap:round;stroke-dasharray:none;stroke-opacity:1"
     d="m -89.064714,17.607923 c -0.770949,-0.03972 -1.484001,-0.02175 -2.121398,0.0283 -1.656452,0.130063 -2.795229,0.47578 -3.345861,0.718898 0.296339,0.03975 0.603805,0.117034 0.925646,0.245314 0.632335,0.254007 1.119858,0.5314 1.584696,0.802325 0.287191,-0.01614 0.587072,-0.03067 0.922212,-0.03674 1.160204,-0.02099 2.57145,0.05115 4.120479,0.385697 1.576301,0.340438 3.177351,0.928303 4.754641,1.849223 0.286295,0.167689 0.567456,0.324081 0.840722,0.470809 2.020664,1.084976 3.936845,1.747157 5.725345,2.032842 1.943629,0.310465 3.549905,0.146071 4.801878,-0.198829 1.417874,-0.390603 2.347724,-0.99989 2.821507,-1.392524 0.194602,-0.16127 0.335123,-0.304895 0.432104,-0.420463 0.378722,-0.451309 0.228001,-0.689814 0.182132,-0.733985 -0.06523,-0.06282 -0.247309,-0.166242 -0.716055,0.02648 -0.131526,0.05407 -0.2705,0.119537 -0.479521,0.213878 -0.468325,0.211377 -1.369849,0.616238 -2.58046,0.83846 -1.084328,0.199042 -2.467215,0.264758 -4.156705,-0.06509 -1.562216,-0.305002 -3.273972,-0.926415 -5.139837,-1.946351 -0.252146,-0.13783 -0.511884,-0.285441 -0.777902,-0.443292 -1.753368,-1.042218 -3.552958,-1.703134 -5.324224,-2.061908 -0.869016,-0.176021 -1.698449,-0.273321 -2.469399,-0.313041 z"
     transform="rotate(-3.6708464,-98.786296,-2.9330768)" /><path
     style="fill:#2f2f2f;fill-opacity:1;stroke-width:0.962609"
     d="m -32.673602,73.971259 c 1.49,-2.98 4.74,-7.62 1.55,-14.8 -0.54,-1.22 -1.6,-1.58 -1.65,-0.36 -0.05,1.22 0.72,3.91 0.72,5.54 0,1.44 0.13,3.19 -0.79,4.34 -0.25,0.31 -2.66,-0.48 -5.74,-5.38 -0.22,-0.36 -0.92,-1.46 -1.48,-1.02 -0.11,0.08 -0.61,0.93 0.54,3.64 1.42,3.34 5.32,4.81 3.88,10.13 -0.17,0.63 -3.86,-0.93 -6.76,-5.32 -0.63,-0.96 -1.12,-1.68 -1.83,-1.52 -0.72,0.15 -0.13,2.16 0.31,3.2 1.29,3.07 3.16,4.49 5.03,5.61 3.86,2.3 4.46,4.56 4.35,4.93 -0.11,0.37 -5.09,2.09 -10.15,-2.31 -6.6,-5.74 -6.23,-14.97 -6.39,-17.6 -0.21,-3.59 0.04,-6.54 -2.86,-9.37 -1.56,-1.52 -3.95,-1.49 -4.6,-1.34 -0.29,0.07 -0.73,0.42 -0.73,0.87 0,0.31 0.21,0.78 0.85,0.97 2.97,0.9 4.23,2.13 4.25,9.05 0.07,19.26 11.09,22.96 16.79,23.19 3.52,0.14 6.4,-1.56 6.59,-2.31 0.19,-0.74 -0.98,-2.06 -1.53,-3.58 -1.61,-4.32 -0.53,-6.22 -0.35,-6.56 z"
     id="path6-6" /><path
     style="fill:#e0e0e0;stroke-width:0.962609"
     d="m -20.338563,49.578891 c 0,0 -1.097834,-6.450562 3.774768,-8.988564 3.524961,-1.850932 7.2002997,-1.262727 9.4020752,1.366852 1.3510805,-0.987716 2.7918872,-1.968417 4.4389116,-2.250926 4.6480584,-0.820275 9.3913529,0.734092 11.3377354,5.219412 2.6438778,6.084538 -0.3070922,8.933235 -4.3131458,12.190954 0,0 4.3380888,2.375287 3.9425864,9.616487 -0.3507605,6.412165 -3.2310018,12.847281 -12.555012,14.716354 -3.6278821,0.729501 -14.0117058,0.629997 -17.3691228,-7.105166 -1.614457,-3.727148 0.186545,-5.722867 1.073569,-6.676642 3.012051,-3.245143 7.249207,-1.118478 7.249207,-1.118478 1.179955,-10.219125 -6.981572,-16.970283 -6.981572,-16.970283 z"
     id="path3-2"
     sodipodi:nodetypes="cccccccccccc" /><path
     style="fill:#bdbdbd;stroke-width:0.962609"
     d="M 0.07844174,67.388737 C 0.59511116,60.7789 -6.1083492,60.305064 -6.1083492,60.305064 c 0,0 4.9412623,2.101459 2.0187234,6.767899 -1.5592589,2.49608 -5.5613908,1.340684 -7.3580142,-0.825914 -0.962643,-1.158541 -1.991716,-4.41865 -1.991716,-4.41865 0,0 0.226534,2.876401 0.0847,4.690866 0,0 -4.236377,-2.136634 -7.249207,1.118478 -0.152822,0.158573 -0.32948,0.365435 -0.517666,0.591457 3.562232,-2.841038 6.743204,-0.03461 8.449939,2.255355 2.114845,2.843454 4.9874836,3.178335 7.1675719,2.877312 2.5452278,-0.352726 5.27463721,-2.035142 5.58245684,-5.97313 z"
     id="path4-9" /><path
     style="fill:#bdbdbd;stroke-width:0.962609"
     d="m 4.7596032,57.162436 c 8.0275858,-4.147029 3.8668522,-12.255931 3.8668522,-12.255931 0,0 0.9101101,5.808588 -3.342174,7.853431 -2.4595858,1.181921 -6.3006724,0.661005 -6.7091046,-3.353031 -0.2606614,-2.568123 2.7216964,-3.508571 2.7216964,-3.508571 0,0 -2.14966935,-0.729741 -4.0349154,0.547227 -2.245253,1.519651 -2.9606975,4.513 -1.808685,6.970248 1.7180491,3.685093 5.9284408,5.127591 9.3063304,3.746627 z"
     id="path5-3" /></g></svg>
