<?xml version="1.0" encoding="UTF-8" standalone="no"?>
<svg
   width="128px"
   height="128px"
   version="1.1"
   xml:space="preserve"
   style="fill-rule:evenodd;clip-rule:evenodd;stroke-linejoin:round;stroke-miterlimit:2;"
   id="svg43410"
   sodipodi:docname="dotted line face.svg"
   inkscape:version="1.3 (0e150ed6c4, 2023-07-21)"
   xmlns:inkscape="http://www.inkscape.org/namespaces/inkscape"
   xmlns:sodipodi="http://sodipodi.sourceforge.net/DTD/sodipodi-0.dtd"
   xmlns="http://www.w3.org/2000/svg"
   xmlns:svg="http://www.w3.org/2000/svg"><defs
     id="defs43414"><inkscape:path-effect
       effect="dashed_stroke"
       id="path-effect6"
       is_visible="true"
       lpeversion="1"
       numberdashes="3"
       holefactor="0"
       splitsegments="true"
       halfextreme="true"
       unifysegment="true"
       message="Add &lt;b&gt;&quot;Fill Between Many LPE&quot;&lt;/b&gt; to add fill." /><inkscape:path-effect
       effect="dashed_stroke"
       id="path-effect4"
       is_visible="true"
       lpeversion="1"
       numberdashes="4"
       holefactor="0"
       splitsegments="true"
       halfextreme="true"
       unifysegment="true"
       message="Add &lt;b&gt;&quot;Fill Between Many LPE&quot;&lt;/b&gt; to add fill." /><inkscape:path-effect
       effect="powerstroke"
       id="path-effect2"
       is_visible="true"
       lpeversion="1.3"
       scale_width="1"
       interpolator_type="CentripetalCatmullRom"
       interpolator_beta="0.2"
       start_linecap_type="zerowidth"
       end_linecap_type="zerowidth"
       offset_points="0.2,3.2481349 | 1,3.2481349 | 1.8,3.2481349 | 2.2,3.2481349 | 2.5,3.2481349 | 2.8,3.2481349 | 3.2,3.2481349 | 3.5,3.2481349 | 3.8,3.2481349 | 4.2,3.2481349 | 4.5,3.2481349 | 4.8,3.2481349 | 5.2,3.2481349 | 6,3.2481349 | 6.8,3.2481349 | 7.2,3.2481349 | 7.5,3.2481349 | 7.8,3.2481349 | 8.2,3.2481349 | 8.5,3.2481349 | 8.8,3.2481349 | 9.2,3.2481349 | 10,3.2481349 | 10.8,3.2481349 | 11.2,3.2481349 | 11.5,3.2481349 | 11.8,3.2481349 | 12.2,3.2481349 | 12.5,3.2481349 | 12.8,3.2481349 | 13.2,3.2481349 | 14,3.2481349 | 14.8,3.2481349 | 15.2,3.2481349 | 15.5,3.2481349 | 15.8,3.2481349 | 16.2,3.2481349 | 16.5,3.2481349 | 16.8,3.2481349 | 17.2,3.2481349 | 17.5,3.2481349 | 17.8,3.2481349 | 18.2,3.2481349 | 18.5,3.2481349 | 18.8,3.2481349"
       linejoin_type="round"
       miter_limit="4"
       not_jump="false"
       sort_points="true"
       message="&lt;b&gt;Ctrl + click&lt;/b&gt; on existing node and move it" /><inkscape:path-effect
       effect="dashed_stroke"
       id="path-effect1"
       is_visible="true"
       lpeversion="1"
       numberdashes="4"
       holefactor="0"
       splitsegments="true"
       halfextreme="true"
       unifysegment="true"
       message="Add &lt;b&gt;&quot;Fill Between Many LPE&quot;&lt;/b&gt; to add fill." /></defs><sodipodi:namedview
     id="namedview43412"
     pagecolor="#ffffff"
     bordercolor="#000000"
     borderopacity="0.25"
     inkscape:showpageshadow="2"
     inkscape:pageopacity="0.0"
     inkscape:pagecheckerboard="0"
     inkscape:deskcolor="#d1d1d1"
     showgrid="false"
     inkscape:zoom="2.1210938"
     inkscape:cx="50.681398"
     inkscape:cy="108.19889"
     inkscape:window-width="1366"
     inkscape:window-height="697"
     inkscape:window-x="-8"
     inkscape:window-y="-8"
     inkscape:window-maximized="1"
     inkscape:current-layer="svg43410" /><g
     transform="matrix(0.923607,0,0,0.923607,4.76917,4.88917)"
     id="g43400"><path
       d="M64,9.56C1.59,9.56 0.12,79.52 0.12,93.36C0.12,107.22 28.71,118.44 64,118.44C99.28,118.44 127.88,107.22 127.88,93.36C127.88,79.52 126.4,9.56 64,9.56Z"
       style="fill:#fcc21b;fill-opacity:1;fill-rule:nonzero;opacity:0.5"
       id="path43396" /></g><g
     transform="matrix(0.923607,0,0,0.923607,4.76917,4.88917)"
     id="g43404"><path
       d="M42.21,62.3C37.72,62.34 34.04,58.03 33.99,52.68C33.94,47.31 37.54,42.93 42.03,42.89C46.51,42.85 50.2,47.16 50.25,52.53C50.3,57.88 46.7,62.25 42.21,62.3ZM86.32,62.3C90.8,62.29 94.43,57.94 94.42,52.59C94.41,47.22 90.76,42.89 86.28,42.9C81.79,42.91 78.15,47.26 78.16,52.63C78.18,57.98 81.83,62.31 86.32,62.3Z"
       style="fill:#2f2f2f;fill-rule:nonzero;"
       id="path43402" /></g><g
     transform="matrix(0.923607,0,0,0.923607,10.7532,4.88917)"
     id="g43408"><path
       d="M77.132,84.75L38.31,84.75C36.65,84.75 35.31,83.41 35.31,81.75C35.31,80.09 36.65,78.75 38.31,78.75L77.142,78.75C78.802,78.75 80.142,80.09 80.142,81.75C80.142,83.41 78.792,84.75 77.132,84.75Z"
       style="fill:#2f2f2f;fill-rule:nonzero;"
       id="path43406" /></g><g
     transform="matrix(0.923607,0,0,0.923607,4.76917,4.88917)"
     id="g43898"
     style="stroke:#000000;stroke-opacity:1;stroke-width:6.49626952;stroke-dasharray:19.4888091, 12.9925394;paint-order:normal;stroke-dashoffset:0;fill:none"><path
       d="M 71.431394,9.9098426 C 69.055594,9.6795842 66.579863,9.56 64,9.56 c -2.579991,0 -5.055839,0.1195578 -7.431746,0.3497662 m -14.51935,3.1161418 c -4.955231,1.732885 -9.325271,4.051992 -13.179176,6.810919 m -10.731166,10.24788 c -3.131378,3.921437 -5.719249,8.190167 -7.857822,12.606462 M 4.9993117,56.589889 C 3.54169,61.595186 2.518257,66.528788 1.8000948,71.117381 m 124.3981952,5.93e-4 c -0.71853,-4.588388 -1.74233,-9.521769 -3.20023,-14.526862 m -5.28189,-13.898127 c -2.13862,-4.416163 -4.7264,-8.684799 -7.85751,-12.606204 M 99.128427,19.83848 C 95.274729,17.079215 90.90499,14.759793 85.950179,13.026642 M 71.431394,9.9098426 C 69.055594,9.6795842 66.579863,9.56 64,9.56"
       style="fill:none;fill-opacity:0.6;fill-rule:nonzero;stroke:#ed6c30;stroke-width:7.03359;stroke-linecap:round;stroke-dasharray:none;stroke-dashoffset:0;stroke-opacity:1;paint-order:normal"
       id="path43896"
       sodipodi:nodetypes="csccccccccccccccc" /><path
       d="M 0.44113894,83.443373 C 0.15480995,87.77156 0.12,91.230247 0.12,93.36 c 0,2.884208 1.2380577,5.654094 3.5169145,8.23234 m 15.4094415,9.59115 c 5.105019,1.98474 11.058917,3.63346 17.629343,4.85509 m 18.173161,2.14631 C 57.837333,118.35301 60.892694,118.44 64,118.44 c 3.10714,0 6.162466,-0.087 9.151005,-0.25522 m 18.172828,-2.14692 c 6.569882,-1.22179 12.523757,-2.87065 17.628967,-4.85551 m 15.40966,-9.59047 c 2.2792,-2.578114 3.51754,-5.347843 3.51754,-8.23188 0,-2.129729 -0.035,-5.588363 -0.32173,-9.916483"
       style="fill:none;fill-opacity:0.6;fill-rule:nonzero;stroke:#ed6c30;stroke-width:7.03359;stroke-linecap:round;stroke-dasharray:none;stroke-dashoffset:0;stroke-opacity:1;paint-order:normal"
       id="path4"
       sodipodi:nodetypes="csccccsccccsc" /></g><g
     transform="matrix(0.923607,0,0,0.923607,4.76917,4.88917)"
     id="g2"
     style="stroke:#000000;stroke-opacity:1;stroke-width:6.49626952;stroke-dasharray:19.4888091, 12.9925394;paint-order:normal;stroke-dashoffset:0;fill:none" /></svg>
