<?xml version="1.0" encoding="UTF-8" standalone="no"?>
<svg
   width="100%"
   height="100%"
   viewBox="0 0 534 534"
   version="1.1"
   xml:space="preserve"
   style="fill-rule:evenodd;clip-rule:evenodd;stroke-linejoin:round;stroke-miterlimit:2;"
   id="svg10"
   sodipodi:docname="emoji_u1f92e.svg"
   inkscape:version="1.3 (0e150ed6c4, 2023-07-21)"
   xmlns:inkscape="http://www.inkscape.org/namespaces/inkscape"
   xmlns:sodipodi="http://sodipodi.sourceforge.net/DTD/sodipodi-0.dtd"
   xmlns="http://www.w3.org/2000/svg"
   xmlns:svg="http://www.w3.org/2000/svg"><sodipodi:namedview
   id="namedview10"
   pagecolor="#ffffff"
   bordercolor="#000000"
   borderopacity="0.25"
   inkscape:showpageshadow="2"
   inkscape:pageopacity="0.0"
   inkscape:pagecheckerboard="0"
   inkscape:deskcolor="#d1d1d1"
   inkscape:zoom="0.48595506"
   inkscape:cx="72.023121"
   inkscape:cy="410.53179"
   inkscape:window-width="1366"
   inkscape:window-height="697"
   inkscape:window-x="-8"
   inkscape:window-y="-8"
   inkscape:window-maximized="1"
   inkscape:current-layer="svg10" />&#10;    <path
   id="path20"
   d="M265.792,36C6.167,36 0,327.083 0,384.708C0,442.333 119,489 265.792,489C412.625,489 531.583,442.292 531.583,384.708C531.583,327.083 525.458,36 265.792,36Z"
   style="fill:url(#_Linear1);fill-rule:nonzero;" />&#10;    <path
   id="path22"
   d="m 401.917,400.54926 c -12.875,6.96606 -29.084,2.36669 -43.417,0 -39.917,-6.59129 -75,-6.86044 -91.833,-6.86044 -16.834,0 -51.917,0.26915 -91.834,6.86044 -14.333,2.36669 -30.541,6.96606 -43.416,0 -16.334,-8.82511 -4.292,-40.4665 21.416,-61.8496 15.542,-12.92252 52.542,-38.00669 113.834,-38.00669 61.291,0 98.291,25.07849 113.833,38.00669 25.708,21.3831 37.708,53.02449 21.417,61.8496 z"
   style="fill:url(#_Linear2);fill-rule:nonzero;stroke-width:1" />&#10;    <g
   id="g26"
   transform="translate(0,-9.2298271)">&#10;        <path
   d="m 410.743,274.768 c -1.636,4.745 -6.336,7.785 -11.334,7.334 -0.875,-0.084 -1.75,-0.25 -2.625,-0.542 -33.791,-11.625 -77.916,-7.375 -78.291,-7.333 -5.042,0.5 -9.584,-2.417 -11.375,-7 -1.792,-4.625 -0.167,-9.875 3.791,-12.792 35.459,-25.708 87.5,-38.042 89.667,-38.5 5.958,-1.375 11.833,2.292 13.208,8.208 1.334,5.875 -2.333,11.792 -8.208,13.167 -0.292,0.042 -21.625,5.083 -45.208,15.042 13.666,0.791 29.333,3.625 43.541,8.458 5.75,2 8.792,8.25 6.834,13.958 z"
   style="fill:#2f2f2f"
   id="path1" />&#10;        <path
   d="m 120.993,274.768 c 1.666,4.875 6.416,7.75 11.333,7.334 0.875,-0.084 1.75,-0.25 2.625,-0.542 33.792,-11.625 77.917,-7.375 78.292,-7.333 5.041,0.5 9.583,-2.417 11.375,-7 1.791,-4.625 0.166,-9.875 -3.792,-12.792 -35.458,-25.708 -87.5,-38.042 -89.667,-38.5 -5.958,-1.375 -11.833,2.292 -13.208,8.208 -1.333,5.875 2.333,11.792 8.208,13.167 0.292,0.042 21.625,5.083 45.209,15.042 -13.667,0.791 -29.334,3.625 -43.542,8.458 -4.435,1.502 -7.438,5.689 -7.438,10.371 0,1.221 0.205,2.434 0.605,3.587 z"
   style="fill:#2f2f2f"
   id="path2" />&#10;    </g>&#10;    <path
   d="m 343.04716,381.99894 c 0,-60.38838 -153.97918,-51.79136 -153.97918,5.73038 0,12.58152 -2.50327,26.08559 -20.65748,46.17377 -19.13149,21.16945 -34.28624,35.0626 -34.704,58.49063 -0.42131,23.62658 39.184,35.14199 135.36311,35.14199 95.9096,0 134.96775,-13.90517 134.4367,-32.832 -0.6545,-23.3256 -22.60218,-37.4766 -37.20758,-63.76292 -15.87634,-28.57368 -23.25157,-37.24495 -23.25157,-48.94185 z"
   style="fill:#95942d;stroke-width:0.999998"
   id="path3"
   sodipodi:nodetypes="ssssssss" />&#10;    <path
   id="rect36"
   d="m 274.37162,465.58989 c 0.819,-1.386 0.358,-3.176 -1.028,-3.994 l -3.75,-2.214 c -1.386,-0.818 -3.176,-0.357 -3.994,1.029 l -2.085,3.531 c -0.818,1.386 -0.357,3.176 1.029,3.994 l 3.749,2.214 c 1.387,0.818 3.177,0.357 3.995,-1.029 z"
   style="fill:#ffca28" />&#10;    <path
   id="rect38"
   d="M319.389,434.283C318.631,432.862 316.863,432.324 315.442,433.082L311.601,435.131C310.18,435.889 309.642,437.657 310.4,439.077L312.33,442.695C313.087,444.115 314.855,444.653 316.276,443.896L320.118,441.846C321.538,441.089 322.076,439.32 321.318,437.9L319.389,434.283Z"
   style="fill:rgb(252,194,27);" />&#10;    <path
   id="rect40"
   d="m 293.07318,399.47299 c 0.835,-1.376 0.395,-3.171 -0.981,-4.006 l -0.741,-0.45 c -1.376,-0.835 -3.171,-0.396 -4.006,0.981 l -0.361,0.595 c -0.835,1.376 -0.396,3.171 0.98,4.006 l 0.741,0.45 c 1.376,0.835 3.172,0.395 4.007,-0.981 z"
   style="fill:#b6bf3e" />&#10;    <path
   id="rect42"
   d="m 215.23895,454.67037 c 1.558,-0.406 2.493,-2.001 2.087,-3.558 l -1.099,-4.214 c -0.406,-1.557 -2,-2.492 -3.558,-2.086 l -3.967,1.035 c -1.558,0.406 -2.493,2 -2.087,3.558 l 1.099,4.213 c 0.406,1.558 2,2.493 3.558,2.086 z"
   style="fill:#ccd761" />&#10;    <path
   id="rect44"
   d="m 235.23467,413.32703 c 1.554,-0.425 2.499,-2.038 2.111,-3.601 l -0.567,-2.28 c -0.388,-1.562 -1.965,-2.486 -3.518,-2.061 l -1.751,0.479 c -1.553,0.425 -2.498,2.038 -2.11,3.6 l 0.567,2.281 c 0.388,1.562 1.964,2.485 3.518,2.061 z"
   style="fill:#fff48f" />&#10;    <path
   id="rect46"
   d="m 338.54164,476.82825 c -1.511,0.555 -2.287,2.232 -1.732,3.743 l 1.501,4.088 c 0.555,1.511 2.233,2.287 3.744,1.732 l 3.848,-1.414 c 1.511,-0.555 2.288,-2.232 1.733,-3.743 l -1.502,-4.087 c -0.555,-1.511 -2.232,-2.288 -3.743,-1.733 z"
   style="fill:#4e342e" />&#10;    &#10;    <defs
   id="defs10">&#10;        <linearGradient
   id="_Linear1"
   x1="0"
   y1="0"
   x2="1"
   y2="0"
   gradientUnits="userSpaceOnUse"
   gradientTransform="matrix(2.77348e-14,452.943,-452.943,2.77348e-14,270.919,36.0382)"><stop
     offset="0"
     style="stop-color:rgb(111,161,58);stop-opacity:1"
     id="stop3" /><stop
     offset="1"
     style="stop-color:rgb(255,202,40);stop-opacity:1"
     id="stop5" /></linearGradient>&#10;        <linearGradient
   id="_Linear2"
   x1="0"
   y1="0"
   x2="1"
   y2="0"
   gradientUnits="userSpaceOnUse"
   gradientTransform="matrix(0,-103.68932,91.3042,0,259.842,403.92781)"><stop
     offset="0"
     style="stop-color:rgb(237,108,48);stop-opacity:1"
     id="stop6" /><stop
     offset="1"
     style="stop-color:rgb(213,82,21);stop-opacity:1"
     id="stop7" /></linearGradient>&#10;        <linearGradient
   id="_Linear3"
   x1="0.14487544"
   y1="-0.013317741"
   x2="0.07140445"
   y2="-0.020977281"
   gradientUnits="userSpaceOnUse"
   gradientTransform="matrix(4.90348,217.061,-217.061,4.90348,259.246,316.814)"><stop
     offset="0"
     style="stop-color:#709d2f;stop-opacity:1;"
     id="stop8" /><stop
     offset="0.08"
     style="stop-color:rgb(108,157,47);stop-opacity:1"
     id="stop9" /><stop
     offset="1"
     style="stop-color:rgb(132,157,47);stop-opacity:1"
     id="stop10" /></linearGradient>&#10;    </defs>&#10;</svg>
