<?xml version="1.0" encoding="UTF-8" standalone="no"?>
<svg
   width="128"
   height="128"
   style="enable-background:new 0 0 128 128;"
   version="1.1"
   id="svg36"
   sodipodi:docname="emoji_u1f985.svg"
   inkscape:export-filename="..\emoji_u1f985.png"
   inkscape:export-xdpi="96"
   inkscape:export-ydpi="96"
   inkscape:version="1.3 (0e150ed6c4, 2023-07-21)"
   xmlns:inkscape="http://www.inkscape.org/namespaces/inkscape"
   xmlns:sodipodi="http://sodipodi.sourceforge.net/DTD/sodipodi-0.dtd"
   xmlns="http://www.w3.org/2000/svg"
   xmlns:svg="http://www.w3.org/2000/svg">
  <defs
     id="defs36" />
  <sodipodi:namedview
     id="namedview36"
     pagecolor="#ffffff"
     bordercolor="#000000"
     borderopacity="0.25"
     inkscape:showpageshadow="2"
     inkscape:pageopacity="0.0"
     inkscape:pagecheckerboard="0"
     inkscape:deskcolor="#d1d1d1"
     showguides="true"
     inkscape:zoom="2.8284271"
     inkscape:cx="52.149125"
     inkscape:cy="99.878833"
     inkscape:window-width="1366"
     inkscape:window-height="697"
     inkscape:window-x="-8"
     inkscape:window-y="-8"
     inkscape:window-maximized="1"
     inkscape:current-layer="svg36" />
  <g
     id="g11"
     transform="translate(8.8388351)" />
  <g
     id="g45"
     transform="translate(-117.52617,-15.257359)"
     style="fill:#e0e0e0">
    <g
       id="g42"
       style="fill:#e0e0e0" />
    <g
       id="g44"
       style="fill:#e0e0e0">
      <g
         id="g43"
         style="fill:#e0e0e0" />
    </g>
  </g>
  <g
     id="g55"
     transform="translate(185.44975,-15.257359)">
    <g
       id="g52" />
    <g
       id="g54">
      <g
         id="g53" />
    </g>
  </g>
  <g
     id="g66"
     transform="matrix(0.93371214,0,0,0.93371214,160.01719,-0.64433897)"
     style="stroke-width:1.071">
    <path
       style="fill:#855c52;fill-opacity:1;stroke:none;stroke-width:9.63895;stroke-linecap:round"
       d="m -128.34279,28.696605 c 9.42095,12.554263 16.37382,20.765056 26.41754,22.982316 l -8.20258,17.358241 -9.95269,-5.928827 L -126,48.517926 c -0.54941,-6.867762 -2.34279,-19.821321 -2.34279,-19.821321 z"
       id="path64"
       sodipodi:nodetypes="cccccc" />
    <path
       id="path62"
       style="fill:#855c52;stroke-width:1.071"
       d="m -144.06565,22.044692 c -4.22006,0 -5.93194,1.48033 -12.6582,3.36133 -8.50189,2.37755 -12.11133,3.73913 -12.11133,8.48633 0,4.74719 12.19726,8.22461 12.19726,8.22461 0,0 -12.57332,2.66859 -11.25781,7.57812 1.01418,3.78496 4.05364,6.12503 8.34375,7.19922 -2.74824,2.52362 -5.8415,6.75064 -4.31947,10.0509 2.6483,5.74238 15.28025,6.01512 26.05867,2.35956 10.35963,-3.51352 20.924,-8.18048 18.31158,-19.15264 -0.80697,-3.3893 -2.67489,-12.37811 -6.19467,-18.14459 -3.51978,-5.76647 -11.32962,-9.96284 -18.36978,-9.96284 z"
       sodipodi:nodetypes="ssscscsssss" />
    <path
       style="fill:#2f2f2f;fill-opacity:1;stroke-width:1.071"
       d="m -140.7512,38.589622 c -1.4669,0.0736 -6.75721,2.28203 -11.68164,3.10937 -1.8379,0.30878 -3.31025,0.4181 -4.33984,0.45117 -0.19175,0.0414 -2.71357,0.6126 -5.39649,1.68946 4.27714,0.56125 7.50783,0.45789 11.36914,-0.33399 6.72809,-1.3798 10.98229,-3.64603 10.42969,-4.80664 -0.0414,-0.0869 -0.1713,-0.11989 -0.38086,-0.10937 z"
       id="path1" />
    <path
       id="path63"
       style="fill:#2f2f2f;fill-opacity:1;stroke-width:1.071"
       d="m -137.24924,45.39734 c -0.0401,-0.0045 -0.0825,-0.0025 -0.125,0.0059 -1.09811,0.46902 -2.16868,1.00575 -3.25977,1.49414 -1.85506,0.85614 -3.72284,1.68886 -5.63672,2.40625 -1.23128,0.45865 -2.44701,0.96116 -3.70703,1.33789 -1.38057,0.42693 -2.79275,0.75235 -4.21875,0.98633 -1.80649,0.2524 -3.61177,0.51335 -5.41602,0.78125 -0.56263,0.52076 -1.13162,1.12074 -1.67773,1.75976 1.45588,0.05429 2.91291,0.05559 4.36523,-0.0918 1.93014,-0.16582 3.86133,-0.39013 5.75,-0.83203 2.45457,-0.53179 4.76583,-1.54341 7.05664,-2.54687 1.8189,-0.86593 3.53985,-1.92168 5.21094,-3.04297 0.68597,-0.4991 1.58642,-0.85 1.9961,-1.63086 0.14448,-0.27374 -0.0572,-0.59578 -0.33789,-0.62695 z" />
    <path
       d="m -94.077017,74.981294 c 6.230866,12.493827 10.972854,17.0379 13.730271,20.347224 1.827042,2.17959 3.795663,3.96655 5.737317,5.793272 0.795537,0.73781 1.597818,1.47474 2.339422,2.37647 0.269675,0.32572 0.970827,1.01585 0.889925,1.75 -0.276416,2.52044 -7.196563,2.17696 -13.423607,3.695 -11.333113,2.7628 -16.017181,-0.29451 -16.409391,-2.19163 -0.547,-2.62597 -10.39575,-15.976023 -9.91101,-18.760864"
       style="fill:#e0e0e0;stroke-width:1.07099"
       id="path47"
       sodipodi:nodetypes="cccccscc" />
    <path
       id="path65"
       style="fill:#2f2f2f;fill-opacity:1;stroke-width:1.071"
       d="m -114.37305,44.963764 c -0.29221,3.945052 -0.40146,7.908764 -0.46289,11.855469 -0.059,2.503765 -0.80283,4.873028 -1.79101,7.15039 l 6.9414,4.134766 7.75977,-16.425781 c -4.62378,-1.02075 -8.59124,-3.31459 -12.44727,-6.714844 z" />
    <path
       id="path2"
       style="fill:#e0e0e0;fill-opacity:1;stroke:none;stroke-width:9.63895;stroke-linecap:round"
       d="M -135.7125 38.204154 C -141.93308 38.312071 -148.65346 40.818183 -151.42808 46.749096 C -152.16962 49.717308 -156.22992 54.094332 -152.91952 56.513548 C -149.82489 56.877162 -146.34089 56.254308 -143.75123 58.461 C -140.88185 60.058799 -138.78639 62.527233 -136.96757 66.445343 C -135.5921 69.4084 -134.37426 73.197648 -133.09986 78.077759 C -130.14031 89.410943 -129.4536 95.009187 -132.82165 99.16086 C -135.10475 101.61486 -135.14304 105.61056 -132.21294 107.59703 C -129.84701 110.93154 -125.55715 110.45375 -122.13054 111.65718 C -117.6796 113.93833 -115.30569 119.14934 -110.48557 120.79828 C -106.16818 122.0995 -102.42712 117.74884 -103.47391 113.57953 C -103.60449 108.42441 -104.46486 103.07412 -102.94887 98.054305 C -101.31541 94.643034 -97.945947 92.193756 -97.30942 88.281486 C -95.36117 80.43964 -98.67715 72.468473 -102.45103 65.690209 C -105.09346 61.185482 -108.16891 56.935938 -111.57539 52.970064 C -115.25554 48.685867 -119.32246 44.732495 -123.68683 41.174489 C -126.86414 39.07596 -130.70596 38.239073 -134.47416 38.212521 C -134.8831 38.198682 -135.29571 38.197024 -135.71041 38.204154 L -135.7125 38.204154 z " />
    <path
       id="path46"
       style="fill:#855c52;fill-opacity:1;stroke:none;stroke-width:9.63895;stroke-linecap:round"
       d="m -111.57749,52.967973 c -0.008,0.543087 -0.0392,3.977991 -1.32189,4.633776 -1.28263,0.655784 -4.93761,-0.579592 -6.37763,0.636608 -1.44001,1.216205 -1.66705,4.616968 -2.91838,5.282133 -1.25134,0.665164 -5.15678,-0.812032 -6.52377,-0.02704 -1.367,0.784994 -1.42182,3.875064 -3.36804,4.326573 -1.94621,0.451508 -3.10331,-0.665693 -4.88037,-1.374686 1.37547,2.96306 2.59331,6.7523 3.86771,11.632416 2.95955,11.333195 3.64627,16.931424 0.27821,21.083101 -2.2831,2.454004 -2.32139,6.449704 0.60871,8.436174 2.36594,3.33452 6.65579,2.85672 10.0824,4.06015 4.45094,2.28115 6.82485,7.49216 11.64497,9.1411 4.3174,1.30122 8.05845,-3.04944 7.01166,-7.21875 -0.13058,-5.15513 -0.99095,-10.50541 0.52504,-15.525229 1.63346,-3.411275 5.002922,-5.860545 5.63945,-9.772819 1.948252,-7.841854 -1.367729,-15.813006 -5.14161,-22.591277 -2.64293,-4.505577 -5.7192,-8.755719 -9.12646,-12.722236 z"
       sodipodi:nodetypes="czzzzzcscccccccccc" />
    <ellipse
       style="fill:#2f2f2f;fill-opacity:1;stroke:none;stroke-width:9.63895;stroke-linecap:round"
       id="ellipse45"
       cx="-141.10466"
       cy="46.792358"
       rx="2.5950451"
       ry="2.8182745" />
    <path
       style="fill:#fcc21b;fill-opacity:1;stroke:none;stroke-width:9.63895;stroke-linecap:round"
       d="m -159.53723,56.593763 c 0,3.983094 2.94134,6.638529 4.88715,6.041028 1.17044,-0.359404 0.63638,-2.386252 4.50043,-3.869898 3.04612,-1.169588 5.41268,-0.524947 5.41268,-3.816139 0,-4.267946 -1.78216,-6.791857 -6.49825,-6.791857 -4.99333,0 -8.30201,3.268004 -8.30201,8.436866 z"
       id="path45"
       sodipodi:nodetypes="ssssss" />
    <path
       id="path31-3"
       style="fill:#2f2f2f;fill-opacity:1;stroke-width:1.071"
       d="m -120.58471,91.394062 c -0.35693,-0.02076 -0.49961,0.416528 -0.41836,0.635903 0.38,1.069999 1.3193,2.240378 1.5793,3.290377 0.93,3.769997 -1.50929,10.570028 -1.98929,11.350028 -1.03,1.67 -2.30061,2.62864 -4.07061,3.47864 -0.28827,0.13216 -0.51709,0.36776 -0.76559,0.56478 1.396,0.27247 2.81928,0.48703 4.11872,0.94339 2.93844,1.50598 4.97353,4.28647 7.40283,6.47826 -0.57352,-1.2061 -1.38917,-2.02889 -1.90562,-3.31548 -0.32,-0.79 -1.72991,-2.31051 -1.72991,-4.25051 0,-3.88999 1.22829,-9.51877 1.32829,-10.31877 0.28,-2.220001 2.11021,-4.370628 3.97021,-5.620627 0.35,-0.239999 1.03991,-0.510183 1.31991,-0.870182 0.09,-0.12 0.15082,-0.380705 -0.20918,-0.380705 -1.49,0.01 -3.71085,0.289511 -4.85085,1.219511 -0.09,0.07 -0.28953,0.120053 -0.39953,-0.08995 -0.62,-1.209999 -1.88002,-2.298447 -3.10002,-3.018446 -0.105,-0.06188 -0.19793,-0.09143 -0.2803,-0.09622 z"
       sodipodi:nodetypes="sccccccccscccccccs" />
    <path
       id="path50"
       style="fill:#855c52;stroke-width:1.071"
       d="m -93.939944,17.886702 c -0.382785,-0.0071 -0.763962,-0.0069 -1.142578,0.002 -2.753571,0.06469 -5.385158,0.573441 -7.722658,1.820313 -7.65998,4.089991 -8.73512,24.895074 -8.75722,35.666496 -0.0221,10.771421 -10.16797,18.993583 -6.70177,24.192878 7.25709,10.885655 70.460255,15.800929 75.660154,-10.785156 0.818112,-4.182851 -2.12544,-6.584058 -6.06836,-8.210937 8.814657,-3.416252 12.462374,-8.733567 11.753906,-14.513672 -0.534749,-4.362799 -7.625,-5.199219 -7.625,-5.199219 2.897258,-2.02905 5.907854,-6.737959 5.458985,-11.236328 -0.53053,-5.264046 -6.763501,-5.72422 -8.824219,-5.705078 -10.09957,0.114852 -18.916661,-1.329691 -29.056641,-3.179688 -5.072451,-0.928123 -11.232829,-2.745257 -16.974609,-2.851562 z"
       sodipodi:nodetypes="cccssscscccccc" />
    <path
       id="path58"
       style="fill:#2f2f2f;fill-opacity:1;stroke-width:9.63895;stroke-linecap:round"
       d="m -81.23029,45.281233 c 2.1743,0.51093 4.36023,0.965002 6.55468,1.34375 2.64016,0.429825 5.30704,0.569002 7.9668,0.738281 2.56002,0.135157 5.1285,0.217382 11.20442,-0.87321 6.07592,-1.090593 9.45232,-2.29651 12.668621,-3.954919 0.5364,-0.246392 1.14176,-0.436711 1.63086,-0.808593 -1.7347,-0.663989 -3.337891,-0.867188 -3.337891,-0.867188 -2.04762,0.703953 -4.13439,1.244772 -6.21875,1.779297 -3.25013,0.703034 -7.58084,1.684726 -14.19952,1.731646 -8.21236,0.05822 -10.4683,-0.807822 -12.17938,-1.089068 -2.24097,-0.316644 -3.75342,-0.653506 -5.98242,-1.064453 -1.77569,-0.385884 -4.53007,-1.693968 -4.79114,-0.521282 -0.36673,1.647291 4.4138,3.078736 6.68372,3.585735 z"
       sodipodi:nodetypes="cccsccccsccscc" />
    <path
       id="path61"
       style="fill:#2f2f2f;fill-opacity:1;stroke-width:9.63895;stroke-linecap:round"
       d="m -87.398928,59.781233 c -0.462602,-0.01421 -0.787557,0.110099 -0.869141,0.476563 -0.36673,1.647289 4.413676,3.078939 6.683594,3.585937 2.174298,0.51093 4.360239,0.965003 6.554687,1.34375 2.640158,0.429825 5.30704,0.569003 7.966797,0.738281 2.560018,0.135157 5.129164,0.215591 11.205078,-0.875 4.612181,-0.82786 7.667401,-1.721834 10.279297,-2.830078 -0.908428,-0.627197 -1.949462,-1.176295 -3.09375,-1.648437 0.03999,-0.0155 0.07545,-0.03325 0.115234,-0.04883 -0.851842,0.231872 -1.704703,0.458758 -2.558593,0.677734 -3.250127,0.703033 -7.580546,1.683549 -14.199219,1.730469 -8.212352,0.05822 -10.468609,-0.806645 -12.179688,-1.087891 -2.240967,-0.316644 -3.753424,-0.653506 -5.982421,-1.064453 -1.220786,-0.265295 -2.904152,-0.966784 -3.921875,-0.998047 z" />
    <path
       d="m -131.16665,104.37575 c -0.95,1 -1.68,1.8 -2.59001,2.84 -0.26999,0.31 -0.79,1.21 -1.26999,0.99 -0.48001,-0.21 -0.91,-2.02 -1.14001,-2.47 -0.75999,-1.46 -1.82,-2.81 -3.21,-3.71 -1.29,-0.84 -2.57,-1.31 -4.33999,-1.21 -0.84,0.05 -1.79001,0.21 -2.26001,1.85 -0.29,1.02 0.61001,1.7 1.25,1.92 1.15,0.4 2.33001,0.35 3.28,1.16 2.44,2.09 3.52001,6.67 2.37,9.6 -0.47999,1.21 -1.63999,1.84 -2.87,2.24 -0.75,0.24 -2.19,1.07 -1.97999,2.82 0.21,1.74 1.65999,2.52 3.25,1.91 3.34,-1.27 5.28,-2.13 6.37,-6.26 0.31999,-1.22 0.07,-2.97 0.66999,-3.75 0.83001,-1.06 1.13,-1.46 2.86001,-2.76 1.63,-1.22 3.63999,-2.28 3.06,-4.06 -0.20001,-0.66 -2.37,-2.17 -3.45,-1.11 z"
       style="fill:#fcc21b;stroke-width:1.071"
       id="path13-3" />
    <path
       d="m -113.90665,111.13575 c -0.5,1.28 -0.89001,2.3 -1.33001,3.6 -0.12999,0.39 -0.28,1.41 -0.79999,1.4 -0.53,-0.02 -1.60001,-1.53 -1.98001,-1.86 -1.25,-1.07 -2.73999,-1.92 -4.36999,-2.23 -1.51,-0.29 -2.87,-0.24 -4.48,0.51 -0.76,0.36 -1.58,0.86 -1.4,2.57 0.11,1.06 1.2,1.35 1.88,1.31 1.22,-0.06 2.29,-0.55 3.47,-0.16 3.04,1.02 5.77,4.86 5.8,8.01 0.01,1.3 -0.83,2.32 -1.82,3.15 -0.61,0.51 -1.63,1.81 -0.77,3.36 0.85,1.53 2.49,1.71 3.73,0.55 2.62,-2.43 4.08999,-3.95 3.55,-8.2 -0.16,-1.25 -1.05,-2.78 -0.78,-3.73 0.37,-1.29 0.5,-1.77 1.62,-3.63 1.05,-1.74 2.50999,-3.48 1.31,-4.91 -0.45,-0.54 -3.03,-1.12 -3.63,0.26 z"
       style="fill:#fcc21b;stroke-width:1.071"
       id="path32-6" />
    <path
       d="m -150.04666,104.95575 c -0.44,-0.2 -0.08,-0.97 0.27001,-1.37 1.44999,-1.64 3.56,-1.87 5.24,-1.58 0.51999,0.09 0.86999,0.58 0.77999,1.11 -0.09,0.52 -0.57999,0.87 -1.10999,0.78 -1.29,-0.22 -3.02001,-0.38 -4.01,0.46 -0.28,0.24 -0.8,0.76 -1.17001,0.6 z"
       style="fill:#757575;stroke-width:1.071"
       id="path33" />
    <path
       d="m -145.13666,121.91575 c -1.20999,-0.06 -1.89999,-0.55 -2.66,-1.48 -0.32999,-0.41 -0.47999,-1 -0.29999,-1.27 0.29,-0.44 0.91,0.19 1.29,0.44 1.31999,0.88 2.68,0.53 4.06999,-0.03 0.49001,-0.2 1.05001,0.04 1.25,0.52 0.20001,0.49 -0.04,1.05 -0.52,1.25 -0.98,0.4 -2.07999,0.62 -3.13,0.57 z"
       style="fill:#757575;stroke-width:1.071"
       id="path34" />
    <path
       d="m -129.71665,118.88575 c -0.27001,0 -0.68,-0.34 -0.76,-1.4 -0.13001,-1.72 1.45999,-3.13 3.6,-3.62 0.51,-0.12 1.03,0.2 1.15,0.72 0.11999,0.52 -0.2,1.03 -0.72001,1.15 -1.07,0.25 -1.97999,0.41 -2.76999,2.19 -0.16,0.36 -0.13,0.87 -0.5,0.96 z"
       style="fill:#757575;stroke-width:1.071"
       id="path35" />
    <path
       d="m -123.18665,132.09575 c -0.47,-0.24 -0.70001,-0.56 -0.49,-0.88 0.12999,-0.21 0.71,-0.02 1.2,0.04 0.95999,0.12 2.56,-0.42 3.32,-1.25 0.35,-0.39 0.95999,-0.42 1.35,-0.06 0.39,0.36 0.47,1.01 0.06,1.35 -1.88,1.56 -5.11,0.96 -5.44,0.8 z"
       style="fill:#757575;stroke-width:1.071"
       id="path36" />
  </g>
</svg>
