<?xml version="1.0" encoding="UTF-8" standalone="no"?>
<svg
   width="128"
   height="128"
   style="enable-background:new 0 0 128 128;"
   version="1.1"
   id="svg48"
   sodipodi:docname="emoji_u1f60a.svg"
   inkscape:version="1.3 (0e150ed6c4, 2023-07-21)"
   xmlns:inkscape="http://www.inkscape.org/namespaces/inkscape"
   xmlns:sodipodi="http://sodipodi.sourceforge.net/DTD/sodipodi-0.dtd"
   xmlns:xlink="http://www.w3.org/1999/xlink"
   xmlns="http://www.w3.org/2000/svg"
   xmlns:svg="http://www.w3.org/2000/svg">
  <defs
     id="defs48">
    <linearGradient
       id="linearGradient48"
       inkscape:collect="always">
      <stop
         style="stop-color:#f79329;stop-opacity:1;"
         offset="0"
         id="stop48" />
      <stop
         style="stop-color:#fcc21b;stop-opacity:1;"
         offset="1"
         id="stop49" />
    </linearGradient>
    <radialGradient
       inkscape:collect="always"
       xlink:href="#linearGradient48"
       id="radialGradient49"
       cx="26.473891"
       cy="75.906163"
       fx="26.473891"
       fy="75.906163"
       r="17.608838"
       gradientTransform="matrix(1,0,0,0.98800258,0,0.91067787)"
       gradientUnits="userSpaceOnUse" />
    <radialGradient
       inkscape:collect="always"
       xlink:href="#linearGradient48"
       id="radialGradient50"
       gradientUnits="userSpaceOnUse"
       gradientTransform="matrix(1,0,0,0.98800258,0,0.91067787)"
       cx="26.473891"
       cy="75.906163"
       fx="26.473891"
       fy="75.906163"
       r="17.608838" />
  </defs>
  <sodipodi:namedview
     id="namedview48"
     pagecolor="#ffffff"
     bordercolor="#000000"
     borderopacity="0.25"
     inkscape:showpageshadow="2"
     inkscape:pageopacity="0.0"
     inkscape:pagecheckerboard="0"
     inkscape:deskcolor="#d1d1d1"
     inkscape:zoom="4.0546875"
     inkscape:cx="63.013487"
     inkscape:cy="76.824663"
     inkscape:window-width="1366"
     inkscape:window-height="697"
     inkscape:window-x="-8"
     inkscape:window-y="-8"
     inkscape:window-maximized="1"
     inkscape:current-layer="g48" />
  <g
     id="g48">
    <path
       d="m 63.8,9.47 c -62.52,0 -64,70.08 -64,83.95 0,13.88 28.65,25.11 64,25.11 35.35,0 63.99,-11.23 63.99,-25.11 0,-13.87 -1.48,-83.95 -63.99,-83.95 z"
       style="fill:#fcc21b"
       id="path1" />
    <g
       id="g45">
      <path
         d="M 32.5,92.25 C 23.35,95.53 13.26,90.9 9.93,81.87 6.61,72.85 11.31,62.86 20.45,59.56 c 9.12,-3.28 19.23,1.37 22.57,10.39 3.32,9.03 -1.4,19.02 -10.52,22.3 z"
         style="fill:url(#radialGradient49)"
         id="path24" />
    </g>
    <path
       d="m 29.96,66.18 c -0.78,1.28 -2.44,1.7 -3.73,0.93 -1.29,-0.77 -1.71,-2.42 -0.96,-3.71 0.18,-0.31 4.6,-7.62 14.37,-7.62 9.78,0 14.2,7.31 14.39,7.62 0.76,1.29 0.32,2.97 -0.97,3.73 -0.44,0.26 -0.91,0.38 -1.39,0.38 -0.92,0 -1.83,-0.47 -2.34,-1.32 -0.13,-0.22 -3.12,-4.96 -9.69,-4.96 -6.57,-0.01 -9.54,4.74 -9.68,4.95 z"
       style="fill:#2f2f2f"
       id="path46" />
    <g
       id="g50"
       transform="translate(74.642218)">
      <path
         d="M 32.5,92.25 C 23.35,95.53 13.26,90.9 9.93,81.87 6.61,72.85 11.31,62.86 20.45,59.56 c 9.12,-3.28 19.23,1.37 22.57,10.39 3.32,9.03 -1.4,19.02 -10.52,22.3 z"
         style="fill:url(#radialGradient50)"
         id="path50" />
    </g>
    <path
       d="m 102,67.12 c -0.43,0.26 -0.91,0.38 -1.37,0.38 -0.94,0 -1.85,-0.49 -2.36,-1.34 -0.11,-0.2 -3.08,-4.94 -9.66,-4.94 -6.69,0 -9.66,4.89 -9.69,4.94 -0.77,1.29 -2.43,1.73 -3.73,0.96 -1.29,-0.76 -1.73,-2.44 -0.96,-3.73 0.18,-0.31 4.6,-7.62 14.38,-7.62 9.77,0 14.18,7.31 14.36,7.62 0.76,1.3 0.32,2.98 -0.97,3.73 z"
       style="fill:#2f2f2f"
       id="path47" />
    <path
       d="M64.45,94.1c-19.78,0-28.38-10.38-28.74-10.82c-1.12-1.39-0.9-3.42,0.48-4.54 c1.38-1.11,3.4-0.9,4.52,0.47c0.32,0.38,7.25,8.43,23.73,8.43c15.84,0,22.01-9.27,22.26-9.67c0.96-1.49,2.95-1.93,4.45-0.98 c1.5,0.95,1.95,2.92,1.01,4.43C91.85,81.94,84.02,94.1,64.45,94.1z"
       style="fill:#2F2F2F;"
       id="path48" />
  </g>
</svg>
