<?xml version="1.0" encoding="UTF-8" standalone="no"?>
<!-- Generator: Adobe Illustrator 25.2.3, SVG Export Plug-In . SVG Version: 6.00 Build 0)  -->

<svg
   version="1.1"
   id="Layer_2"
   x="0px"
   y="0px"
   viewBox="0 0 128 128"
   style="enable-background:new 0 0 128 128;"
   xml:space="preserve"
   sodipodi:docname="emoji_u1fa72.svg"
   inkscape:version="1.3 (0e150ed6c4, 2023-07-21)"
   xmlns:inkscape="http://www.inkscape.org/namespaces/inkscape"
   xmlns:sodipodi="http://sodipodi.sourceforge.net/DTD/sodipodi-0.dtd"
   xmlns="http://www.w3.org/2000/svg"
   xmlns:svg="http://www.w3.org/2000/svg"><defs
   id="defs5121">&#10;	&#10;	&#10;	&#10;	&#10;	&#10;	&#10;</defs><sodipodi:namedview
   id="namedview5119"
   pagecolor="#ffffff"
   bordercolor="#000000"
   borderopacity="0.25"
   inkscape:showpageshadow="2"
   inkscape:pageopacity="0.0"
   inkscape:pagecheckerboard="0"
   inkscape:deskcolor="#d1d1d1"
   showgrid="false"
   inkscape:zoom="11.998718"
   inkscape:cx="82.842184"
   inkscape:cy="35.295437"
   inkscape:window-width="1366"
   inkscape:window-height="697"
   inkscape:window-x="-8"
   inkscape:window-y="-8"
   inkscape:window-maximized="1"
   inkscape:current-layer="Layer_2" />&#10;&#10;<g
   id="g1"
   transform="translate(0,1.833026)"><path
     id="path10"
     style="fill:#40c0e7;fill-opacity:1;stroke:none;stroke-width:3;stroke-linecap:round;stroke-dasharray:none;stroke-opacity:1"
     d="m 119.18099,36.393506 c 0,3.647708 1.57033,13.555316 1.57033,19.778822 0,6.627567 -5.63757,14.280502 -12.26004,27.016552 -7.9244,15.239881 -10.103433,18.52697 -18.274091,18.52697 -8.170658,0 -17.792872,-1.28885 -26.218162,-1.28885 -8.425292,0 -18.045542,1.28885 -26.2162,1.28885 -8.170658,0 -10.349694,-3.287089 -18.2741,-18.52697 C 12.886255,70.45283 7.2486845,62.799895 7.2486845,56.172328 c 0,-6.223506 1.5703426,-16.131114 1.5703426,-19.778822 0,-7.767569 6.4582149,-10.108996 55.1809819,-10.108996 48.722761,0 55.180981,2.341427 55.180981,10.108996 z"
     sodipodi:nodetypes="sssssssssss" /><path
     id="path13"
     style="fill:#1e9ddb;fill-opacity:1;stroke:none;stroke-width:3;stroke-linecap:round;stroke-dasharray:none;stroke-opacity:1"
     d="m 11.625774,64.602283 c -0.769989,0.01452 -1.44191,0.07188 -2.0144721,0.143893 2.2543281,4.888083 5.8838531,10.723569 9.8976381,18.442704 7.924397,15.23986 10.103494,18.52697 18.274143,18.52697 2.887605,0 5.97737,-0.17622 9.110349,-0.38439 0.786164,-1.629371 1.136099,-3.444252 0.723566,-5.418518 -1.841802,-8.814335 -9.735256,-13.15575 -19.338936,-23.68033 -6.0023,-6.577859 -12.570673,-7.707411 -16.652288,-7.630329 z" /><path
     id="path11"
     style="fill:#196ca2;fill-opacity:1;stroke:none;stroke-width:3;stroke-linecap:round;stroke-dasharray:none;stroke-opacity:1"
     d="M 41.968943,37.343182 24.644479,65.245683 C 16.452809,60.851751 9.1189724,59.431415 7.6029962,59.1406 c 0.5888381,2.682234 1.9171483,5.623404 3.6979958,9.005513 4.672315,1.512752 12.049464,4.781427 19.297824,11.663384 8.304535,7.884728 12.607948,16.903956 14.454868,21.643243 2.675749,-0.15982 5.397278,-0.35047 8.12778,-0.54062 C 51.603065,96.378392 45.985013,82.081577 34.860042,72.658121 33.746808,71.715149 32.626278,70.840882 31.505329,70.018743 L 47.557385,43.668219 Z"
     sodipodi:nodetypes="ccccsccsccc" /><path
     id="path14"
     style="fill:#1e9ddb;fill-opacity:1;stroke:none;stroke-width:3;stroke-linecap:round;stroke-dasharray:none;stroke-opacity:1"
     d="m 118.92522,61.971136 c -4.68911,0.09672 -11.68254,1.67241 -18.10765,8.713624 -10.96551,12.016999 -19.978109,16.972871 -22.081084,27.037096 -0.251341,1.202845 -0.24949,2.352534 -0.06166,3.447214 3.974848,0.28308 7.908472,0.54678 11.542104,0.54678 8.17065,0 10.34975,-3.28711 18.27413,-18.52697 4.79919,-9.229583 9.06915,-15.782814 11.06316,-21.217744 -0.20668,-0.0021 -0.4121,-0.0042 -0.629,0 z" /><path
     id="path12"
     style="fill:#196ca2;fill-opacity:1;stroke:none;stroke-width:3;stroke-linecap:round;stroke-dasharray:none;stroke-opacity:1"
     d="m 86.136508,37.343182 -5.693887,6.325037 16.052057,26.350524 c -1.120949,0.822139 -2.241479,1.696406 -3.354713,2.639378 -11.126319,9.424603 -16.743826,23.724186 -18.321422,28.256049 2.730404,0.19013 5.452176,0.37877 8.12778,0.53857 1.84692,-4.739287 6.150334,-13.758515 14.454868,-21.643243 7.248359,-6.881957 14.625519,-10.150632 19.297819,-11.663384 1.78085,-3.382109 3.10917,-6.323279 3.698,-9.005513 -1.51598,0.290815 -8.74437,1.711151 -16.93604,6.105083 z"
     sodipodi:nodetypes="cccsccscccc" /><path
     id="rect11"
     style="fill:#1e9ddb;stroke-width:3;stroke-linecap:round"
     d="m 64,22.618098 c -48.722718,0 -55.1816406,6.006919 -55.1816406,13.77448 0,2.291146 -0.5997505,7.054001 -1.0605469,11.820313 0,0 10.1386075,3.997148 55.4414065,3.997148 45.302801,0 57.031251,-4.133867 57.031251,-4.133867 -0.45931,-4.720135 -1.04883,-9.414485 -1.04883,-11.683594 0,-7.767561 -6.45893,-13.77448 -55.18164,-13.77448 z"
     sodipodi:nodetypes="ssczcss" /><path
     d="m 26.299981,38.142694 c -2.016809,-0.20157 -6.29897,-1.106864 -5.996346,-4.232413 0.29041,-2.999401 2.919725,-3.034316 6.462767,-3.5999 16.034135,-2.559566 46.730742,-1.821532 62.885146,-0.857028 8.135191,0.485714 12.656872,0.928904 15.484762,1.977429 2.77582,1.029219 4.1645,4.643508 0.48446,5.794134 -2.53093,0.79134 -6.358893,1.090146 -18.089242,2.054095 -13.362472,1.098069 -43.52081,0.633778 -61.231547,-1.136317 z"
     style="fill:#2f2f2f;stroke-width:1.17232"
     id="path5"
     sodipodi:nodetypes="ssssssss" /></g></svg>
