<?xml version="1.0" encoding="UTF-8" standalone="no"?>
<svg
   height="128"
   width="128"
   version="1.1"
   id="svg58"
   sodipodi:docname="emoji_u1f9ee.svg"
   inkscape:version="1.3 (0e150ed6c4, 2023-07-21)"
   xmlns:inkscape="http://www.inkscape.org/namespaces/inkscape"
   xmlns:sodipodi="http://sodipodi.sourceforge.net/DTD/sodipodi-0.dtd"
   xmlns="http://www.w3.org/2000/svg"
   xmlns:svg="http://www.w3.org/2000/svg">
  <sodipodi:namedview
     id="namedview58"
     pagecolor="#ffffff"
     bordercolor="#000000"
     borderopacity="0.25"
     inkscape:showpageshadow="2"
     inkscape:pageopacity="0.0"
     inkscape:pagecheckerboard="0"
     inkscape:deskcolor="#d1d1d1"
     inkscape:zoom="4.0546875"
     inkscape:cx="69.302505"
     inkscape:cy="64.739884"
     inkscape:window-width="1366"
     inkscape:window-height="697"
     inkscape:window-x="-8"
     inkscape:window-y="-8"
     inkscape:window-maximized="1"
     inkscape:current-layer="svg58" />
  <defs
     id="defs2">
    <linearGradient
       id="a">
      <stop
         offset="0"
         id="stop1" />
      <stop
         offset="1"
         stop-opacity="0"
         id="stop2" />
    </linearGradient>
  </defs>
  <rect
     style="fill:#a1867f;stroke:none;stroke-width:13;stroke-linecap:round;stroke-dasharray:none"
     id="rect58"
     width="93.7258"
     height="7.6181602"
     x="17.137104"
     y="22.449852" />
  <rect
     style="fill:#a1867f;stroke:none;stroke-width:13;stroke-linecap:round;stroke-dasharray:none"
     id="rect59"
     width="93.7258"
     height="7.6181602"
     x="17.137104"
     y="41.320385" />
  <rect
     style="fill:#a1867f;stroke:none;stroke-width:13;stroke-linecap:round;stroke-dasharray:none"
     id="rect60"
     width="93.7258"
     height="7.6181602"
     x="17.137104"
     y="60.190918" />
  <rect
     style="fill:#a1867f;stroke:none;stroke-width:13;stroke-linecap:round;stroke-dasharray:none"
     id="rect61"
     width="93.7258"
     height="7.6181602"
     x="17.137104"
     y="79.061447" />
  <rect
     style="fill:#a1867f;stroke:none;stroke-width:13;stroke-linecap:round;stroke-dasharray:none"
     id="rect62"
     width="93.7258"
     height="7.6181602"
     x="17.137104"
     y="97.931984" />
  <path
     style="color:#000000;fill:#855c52;stroke-width:1;stroke-linecap:round;stroke-linejoin:round;-inkscape-stroke:none"
     d="m 22.237036,6.8671367 c -9.447788,0 -12.3641011,1.9517907 -12.3641011,10.8397683 v 92.586185 c 0,8.88799 2.9163251,10.83977 12.3641011,10.83977 h 83.528014 c 9.44778,0 12.36202,-1.95177 12.36202,-10.83977 V 17.706905 c 0,-8.8879847 -2.91423,-10.8397683 -12.36202,-10.8397683 z m 1.051794,9.4368393 h 81.42456 c 2.51484,0 3.41578,1.67087 3.41578,3.964409 v 87.463225 c 0,2.29355 -0.90093,3.96442 -3.41578,3.96442 H 23.28883 c -2.514845,0 -3.417998,-1.67086 -3.417998,-3.96442 V 20.268385 c 0,-2.293547 0.903165,-3.964409 3.417998,-3.964409 z"
     id="rect2"
     sodipodi:nodetypes="ssssssssssssssssss" />
  <g
     id="g92"
     transform="translate(3e-6,-4)">
    <path
       id="path63"
       style="fill:#ed6c30;stroke-width:5.99999;stroke-linecap:round"
       d="m 39.92916,30.258933 c 0,4.398774 -2.06715,7.964684 -7.130079,7.964684 -5.062927,0 -7.130077,-3.56591 -7.130077,-7.964684 0,-4.398776 2.067148,-7.964686 7.130077,-7.964686 5.062929,0 7.130079,3.565912 7.130079,7.964686 z"
       sodipodi:nodetypes="sssss" />
    <path
       id="path65"
       style="fill:#ed6c30;stroke-width:5.99999;stroke-linecap:round"
       d="m 71.130076,30.258933 c 0,4.398774 -2.06715,7.964684 -7.13008,7.964684 -5.062928,0 -7.130078,-3.56591 -7.130078,-7.964684 0,-4.398776 2.067149,-7.964686 7.130078,-7.964686 5.06293,0 7.13008,3.565912 7.13008,7.964686 z"
       sodipodi:nodetypes="sssss" />
    <path
       id="path66"
       style="fill:#ed6c30;stroke-width:5.99999;stroke-linecap:round"
       d="m 86.730527,30.258933 c 0,4.398774 -2.067149,7.964684 -7.130073,7.964684 -5.062929,0 -7.130078,-3.56591 -7.130078,-7.964684 0,-4.398776 2.067148,-7.964686 7.130078,-7.964686 5.062924,0 7.130073,3.565912 7.130073,7.964686 z"
       sodipodi:nodetypes="sssss" />
    <path
       id="path68"
       style="fill:#ed6c30;stroke-width:5.99999;stroke-linecap:round"
       d="m 102.33099,30.258933 c 0,4.398774 -2.06715,7.964684 -7.130079,7.964684 -5.062928,0 -7.130077,-3.56591 -7.130077,-7.964684 0,-4.398776 2.067148,-7.964686 7.130077,-7.964686 5.062929,0 7.130079,3.565912 7.130079,7.964686 z"
       sodipodi:nodetypes="sssss" />
  </g>
  <g
     id="g93"
     transform="translate(3e-6,-2)">
    <path
       id="path69"
       style="fill:#f79329;stroke-width:5.99999;stroke-linecap:round"
       d="m 39.92916,47.129466 c 0,4.398774 -2.06715,7.964684 -7.130079,7.964684 -5.062927,0 -7.130077,-3.56591 -7.130077,-7.964684 0,-4.398776 2.067148,-7.964686 7.130077,-7.964686 5.062929,0 7.130079,3.565912 7.130079,7.964686 z"
       sodipodi:nodetypes="sssss" />
    <path
       id="path70"
       style="fill:#f79329;stroke-width:5.99999;stroke-linecap:round"
       d="m 55.529617,47.129466 c 0,4.398774 -2.06715,7.964684 -7.130079,7.964684 -5.062927,0 -7.130077,-3.56591 -7.130077,-7.964684 0,-4.398776 2.06715,-7.964686 7.130077,-7.964686 5.062929,0 7.130079,3.565912 7.130079,7.964686 z"
       sodipodi:nodetypes="sssss" />
    <path
       id="path72"
       style="fill:#f79329;stroke-width:5.99999;stroke-linecap:round"
       d="m 86.730527,47.129466 c 0,4.398774 -2.067149,7.964684 -7.130073,7.964684 -5.062929,0 -7.130078,-3.56591 -7.130078,-7.964684 0,-4.398776 2.067148,-7.964686 7.130078,-7.964686 5.062924,0 7.130073,3.565912 7.130073,7.964686 z"
       sodipodi:nodetypes="sssss" />
    <path
       id="path73"
       style="fill:#f79329;stroke-width:5.99999;stroke-linecap:round"
       d="m 102.33099,47.129466 c 0,4.398774 -2.06715,7.964684 -7.130079,7.964684 -5.062928,0 -7.130077,-3.56591 -7.130077,-7.964684 0,-4.398776 2.067148,-7.964686 7.130077,-7.964686 5.062929,0 7.130079,3.565912 7.130079,7.964686 z"
       sodipodi:nodetypes="sssss" />
  </g>
  <g
     id="g94">
    <path
       id="path74"
       style="fill:#fcc21b;stroke-width:5.99999;stroke-linecap:round"
       d="m 39.92916,63.999995 c 0,4.398774 -2.06715,7.964684 -7.130079,7.964684 -5.062927,0 -7.130077,-3.56591 -7.130077,-7.964684 0,-4.398776 2.067148,-7.964686 7.130077,-7.964686 5.062929,0 7.130079,3.565912 7.130079,7.964686 z"
       sodipodi:nodetypes="sssss" />
    <path
       id="path75"
       style="fill:#fcc21b;stroke-width:5.99999;stroke-linecap:round"
       d="m 55.529617,63.999995 c 0,4.398774 -2.06715,7.964684 -7.130079,7.964684 -5.062927,0 -7.130077,-3.56591 -7.130077,-7.964684 0,-4.398776 2.06715,-7.964686 7.130077,-7.964686 5.062929,0 7.130079,3.565912 7.130079,7.964686 z"
       sodipodi:nodetypes="sssss" />
    <path
       id="path76"
       style="fill:#fcc21b;stroke-width:5.99999;stroke-linecap:round"
       d="m 71.130076,63.999995 c 0,4.398774 -2.06715,7.964684 -7.13008,7.964684 -5.062928,0 -7.130078,-3.56591 -7.130078,-7.964684 0,-4.398776 2.067149,-7.964686 7.130078,-7.964686 5.06293,0 7.13008,3.565912 7.13008,7.964686 z"
       sodipodi:nodetypes="sssss" />
    <path
       id="path78"
       style="fill:#fcc21b;stroke-width:5.99999;stroke-linecap:round"
       d="m 102.33099,63.999995 c 0,4.398774 -2.06715,7.964684 -7.130079,7.964684 -5.062928,0 -7.130077,-3.56591 -7.130077,-7.964684 0,-4.398776 2.067148,-7.964686 7.130077,-7.964686 5.062929,0 7.130079,3.565912 7.130079,7.964686 z"
       sodipodi:nodetypes="sssss" />
  </g>
  <g
     id="g95"
     transform="translate(3e-6,2)">
    <path
       id="path83"
       style="fill:#bdcf46;stroke-width:5.99999;stroke-linecap:round"
       d="m 39.92916,80.870524 c 0,4.398774 -2.06715,7.964684 -7.130079,7.964684 -5.062927,0 -7.130077,-3.56591 -7.130077,-7.964684 0,-4.398776 2.067148,-7.964686 7.130077,-7.964686 5.062929,0 7.130079,3.565912 7.130079,7.964686 z"
       sodipodi:nodetypes="sssss" />
    <path
       id="path84"
       style="fill:#bdcf46;stroke-width:5.99999;stroke-linecap:round"
       d="m 55.529617,80.870524 c 0,4.398774 -2.06715,7.964684 -7.130079,7.964684 -5.062927,0 -7.130077,-3.56591 -7.130077,-7.964684 0,-4.398776 2.06715,-7.964686 7.130077,-7.964686 5.062929,0 7.130079,3.565912 7.130079,7.964686 z"
       sodipodi:nodetypes="sssss" />
    <path
       id="path86"
       style="fill:#bdcf46;stroke-width:5.99999;stroke-linecap:round"
       d="m 86.730527,80.870524 c 0,4.398774 -2.067149,7.964684 -7.130073,7.964684 -5.062929,0 -7.130078,-3.56591 -7.130078,-7.964684 0,-4.398776 2.067148,-7.964686 7.130078,-7.964686 5.062924,0 7.130073,3.565912 7.130073,7.964686 z"
       sodipodi:nodetypes="sssss" />
    <path
       id="path87"
       style="fill:#bdcf46;stroke-width:5.99999;stroke-linecap:round"
       d="m 102.33099,80.870524 c 0,4.398774 -2.06715,7.964684 -7.130079,7.964684 -5.062928,0 -7.130077,-3.56591 -7.130077,-7.964684 0,-4.398776 2.067148,-7.964686 7.130077,-7.964686 5.062929,0 7.130079,3.565912 7.130079,7.964686 z"
       sodipodi:nodetypes="sssss" />
  </g>
  <g
     id="g96"
     transform="translate(3e-6,4)">
    <path
       id="path88"
       style="fill:#40c0e7;stroke-width:5.99999;stroke-linecap:round"
       d="m 39.92916,97.741057 c 0,4.398773 -2.06715,7.964683 -7.130079,7.964683 -5.062927,0 -7.130077,-3.56591 -7.130077,-7.964683 0,-4.398776 2.067148,-7.964686 7.130077,-7.964686 5.062929,0 7.130079,3.565912 7.130079,7.964686 z"
       sodipodi:nodetypes="sssss" />
    <path
       id="path90"
       style="fill:#40c0e7;stroke-width:5.99999;stroke-linecap:round"
       d="m 71.130076,97.741057 c 0,4.398773 -2.06715,7.964683 -7.13008,7.964683 -5.062928,0 -7.130078,-3.56591 -7.130078,-7.964683 0,-4.398776 2.067149,-7.964686 7.130078,-7.964686 5.06293,0 7.13008,3.565912 7.13008,7.964686 z"
       sodipodi:nodetypes="sssss" />
    <path
       id="path91"
       style="fill:#40c0e7;stroke-width:5.99999;stroke-linecap:round"
       d="m 86.730527,97.741057 c 0,4.398773 -2.067149,7.964683 -7.130073,7.964683 -5.062929,0 -7.130078,-3.56591 -7.130078,-7.964683 0,-4.398776 2.067148,-7.964686 7.130078,-7.964686 5.062924,0 7.130073,3.565912 7.130073,7.964686 z"
       sodipodi:nodetypes="sssss" />
    <path
       id="path92"
       style="fill:#40c0e7;stroke-width:5.99999;stroke-linecap:round"
       d="m 102.33099,97.741057 c 0,4.398773 -2.06715,7.964683 -7.130079,7.964683 -5.062928,0 -7.130077,-3.56591 -7.130077,-7.964683 0,-4.398776 2.067148,-7.964686 7.130077,-7.964686 5.062929,0 7.130079,3.565912 7.130079,7.964686 z"
       sodipodi:nodetypes="sssss" />
  </g>
</svg>
