<?xml version="1.0" encoding="UTF-8" standalone="no"?>
<svg
   width="128"
   height="128"
   version="1.1"
   id="svg4"
   sodipodi:docname="emoji_u1f61a.svg"
   inkscape:version="1.3 (0e150ed6c4, 2023-07-21)"
   xmlns:inkscape="http://www.inkscape.org/namespaces/inkscape"
   xmlns:sodipodi="http://sodipodi.sourceforge.net/DTD/sodipodi-0.dtd"
   xmlns:xlink="http://www.w3.org/1999/xlink"
   xmlns="http://www.w3.org/2000/svg"
   xmlns:svg="http://www.w3.org/2000/svg">
  <defs
     id="defs4">
    <radialGradient
       inkscape:collect="always"
       xlink:href="#linearGradient41787"
       id="radialGradient41789"
       cx="-34.711712"
       cy="73.926163"
       fx="-34.711712"
       fy="73.926163"
       r="18.291407"
       gradientTransform="matrix(1.0288362,0,0,1.0163743,61.000955,-1.2104896)"
       gradientUnits="userSpaceOnUse" />
    <linearGradient
       inkscape:collect="always"
       id="linearGradient41787">
      <stop
         style="stop-color:#f79329;stop-opacity:1;"
         offset="0"
         id="stop41783" />
      <stop
         style="stop-color:#fcc21b;stop-opacity:1;"
         offset="1"
         id="stop41785" />
    </linearGradient>
    <radialGradient
       inkscape:collect="always"
       xlink:href="#linearGradient41787"
       id="radialGradient41864"
       gradientUnits="userSpaceOnUse"
       gradientTransform="matrix(1.0288362,0,0,1.0163743,138.00439,-1.2104896)"
       cx="-34.711712"
       cy="73.926163"
       fx="-34.711712"
       fy="73.926163"
       r="18.291407" />
  </defs>
  <sodipodi:namedview
     id="namedview4"
     pagecolor="#ffffff"
     bordercolor="#000000"
     borderopacity="0.25"
     inkscape:showpageshadow="2"
     inkscape:pageopacity="0.0"
     inkscape:pagecheckerboard="0"
     inkscape:deskcolor="#d1d1d1"
     inkscape:zoom="4.0546875"
     inkscape:cx="64"
     inkscape:cy="64"
     inkscape:window-width="1366"
     inkscape:window-height="697"
     inkscape:window-x="-8"
     inkscape:window-y="-8"
     inkscape:window-maximized="1"
     inkscape:current-layer="svg4" />
  <g
     fill="#2f2f2f"
     id="g1">
    <path
       d="M52.39 52.14c-.69.44-1.56.57-2.37.55-2.05-.01-5.03-.89-6.69.62-1.34 1.24-1.67 3.52-1.2 5.19.69 2.58 3.18 2.51 5.13 3.73.5.3.69.98.52 1.5-.06.21-.2.39-.39.53-.82.52-1.98.28-2.91.28-1.04 0-1.98-.11-2.82.54-1.4 1.07-1.98 3.94-1.24 5.53.88 1.88 3.28 2.67 4.61 4.21.7.82 3.25 3.97 1.37 4.73-1.87.77-5.74.55-6.25-1.87-.6-2.79-3.1-4.88-3.99-7.59-.94-2.84-.19-5.57 1.91-7.69 1.02-1.04-.14-3.15-.25-4.38-.13-1.55.23-3.25.94-4.65 2.11-4.41 6.94-3.51 10.99-4.29.95-.18 1.7-.1 2.48.61.72.65 1.1 1.87.16 2.45zM26.6 37.84c.14-.31 3.43-7.63 11.23-7.8h.05c7.84-.14 11.38 7.1 11.53 7.41.66 1.38.09 3.06-1.27 3.74-.37.19-.77.28-1.15.29-1.03.02-2.04-.56-2.53-1.57-.11-.2-2.22-4.35-6.48-4.26h-.02c-4.28.09-6.24 4.3-6.31 4.48-.64 1.4-2.27 2.02-3.66 1.4-1.37-.65-2-2.28-1.39-3.69zM86.03 50.01c-.1.01-.21.01-.31.02-1.38.03-2.59-1-2.78-2.44-.03-.2-.85-5.58-5.64-7.09-4.89-1.51-8.66 2.6-8.7 2.64a2.73 2.73 0 0 1-3.9.19 2.825 2.825 0 0 1-.18-3.95c.26-.29 6.2-6.79 14.4-4.23 8.22 2.58 9.45 11.35 9.49 11.73.19 1.52-.88 2.93-2.38 3.13z"
       id="path1" />
  </g>
  <path
     d="M.12 93.36c0 13.86 28.59 25.08 63.88 25.08 35.29 0 63.88-11.22 63.88-25.08 0-13.84-1.47-83.8-63.88-83.8C1.6 9.56.12 79.52.12 93.36z"
     fill="#fcc21b"
     id="path2" />
  <g
     id="g41868"
     transform="translate(0.21,1.08)">
    <path
       d="M 32.793341,94.302908 C 21.388783,98.396544 8.8077546,92.622236 4.6540945,81.361736 0.52444397,70.11324 6.3707806,57.664264 17.775339,53.546619 29.143882,49.452982 41.760925,55.2513 45.92659,66.499796 50.056241,77.772301 44.173889,90.221277 32.793341,94.302908 Z"
       style="fill:url(#radialGradient41789);fill-opacity:1;stroke-width:1"
       id="path8838" />
    <path
       d="M 109.79677,94.302908 C 98.39221,98.396544 85.81118,92.622236 81.65752,81.361736 77.52787,70.11324 83.37421,57.664264 94.77877,53.546619 c 11.36854,-4.093637 23.98559,1.704681 28.15125,12.953177 4.12965,11.272505 -1.7527,23.721481 -13.13325,27.803112 z"
       style="fill:url(#radialGradient41864);fill-opacity:1;stroke-width:1"
       id="path41862" />
  </g>
  <g
     fill="#2f2f2f"
     id="g3">
    <path
       d="M30.96 55.45a2.728 2.728 0 0 1-3.73.93 2.72 2.72 0 0 1-.96-3.71c.18-.31 4.6-7.62 14.37-7.62 9.78 0 14.2 7.31 14.39 7.62a2.735 2.735 0 0 1-2.36 4.11c-.92 0-1.83-.47-2.34-1.32-.13-.22-3.12-4.96-9.69-4.96-6.57-.01-9.54 4.74-9.68 4.95zM101 56.39c-.43.26-.91.38-1.37.38-.94 0-1.85-.49-2.36-1.34-.11-.2-3.08-4.94-9.66-4.94-6.69 0-9.66 4.89-9.69 4.94a2.724 2.724 0 0 1-4.69-2.77c.18-.31 4.6-7.62 14.38-7.62 9.77 0 14.18 7.31 14.36 7.62.76 1.3.32 2.97-.97 3.73z"
       id="path3" />
  </g>
  <path
     d="M63.94 67.66c2.65-.62 6.47-.29 8.53 1.4 1.66 1.36 2.74 3.35 2.8 5.75.05 1.79-.93 3.86-2.71 5.58 2.07 1.24 3.58 2.87 3.88 4.76.38 2.39-.17 4.58-1.61 6.31-2.15 2.59-5.76 3.91-10.59 3.91-1.54 0-4.09-.55-4.13-2.06-.03-1.22 2.08-1.81 3.99-2.06 2.81-.38 4.94-1.06 6.55-3.06.3-.37.7-1.57.49-2.23-.32-1.04-1.15-2.16-4.89-2.91l-.58-.12c-.81-.16-1.55-.71-1.78-1.51-.43-1.44.89-2.51 2.2-2.85 3.23-.82 3.92-2.89 3.89-3.62-.04-1.33-.58-1.78-.76-1.93-.56-.47-1.57-1.1-5.04-1.09-1.4 0-3.84.04-4.09-1.35-.23-1.39 2.1-2.45 3.85-2.92z"
     fill="#2f2f2f"
     id="path4" />
</svg>
