<?xml version="1.0" encoding="UTF-8" standalone="no"?>
<svg
   width="128"
   height="128"
   version="1.1"
   id="svg29"
   sodipodi:docname="emoji_u1f6ba.svg"
   inkscape:version="1.3 (0e150ed6c4, 2023-07-21)"
   xmlns:inkscape="http://www.inkscape.org/namespaces/inkscape"
   xmlns:sodipodi="http://sodipodi.sourceforge.net/DTD/sodipodi-0.dtd"
   xmlns="http://www.w3.org/2000/svg"
   xmlns:svg="http://www.w3.org/2000/svg">
  <defs
     id="defs29" />
  <sodipodi:namedview
     id="namedview29"
     pagecolor="#ffffff"
     bordercolor="#000000"
     borderopacity="0.25"
     inkscape:showpageshadow="2"
     inkscape:pageopacity="0.0"
     inkscape:pagecheckerboard="0"
     inkscape:deskcolor="#d1d1d1"
     inkscape:zoom="4.0546875"
     inkscape:cx="64.863198"
     inkscape:cy="66.219653"
     inkscape:window-width="1366"
     inkscape:window-height="697"
     inkscape:window-x="-8"
     inkscape:window-y="-8"
     inkscape:window-maximized="1"
     inkscape:current-layer="svg29" />
  <path
     d="M121.03 0H7.02C3.24 0 .14 3.09.14 6.88v114.01c0 3.79 3.1 6.88 6.88 6.88h114.01c3.78 0 6.88-3.09 6.88-6.88V6.88c0-3.79-3.1-6.88-6.88-6.88z"
     fill="#40c0e7"
     id="path26"
     style="fill:#ed6c30;fill-opacity:1" />
  <g
     id="g2"
     transform="matrix(0.87459908,0,0,0.87459908,8.0288078,7.1480812)"
     style="fill:#ffffff;fill-opacity:1;stroke-width:1.14338">&#10;	<path
   fill="#fcc21b"
   d="M 96.94,79.48 C 95.28,77.09 91.59,78.17 89.43,72 86.84,64.59 82.93,54.38 79.61,50.04 73.51,42.09 68.56,44.72 68.56,41.23 c 0,-0.8 1.53,-1.62 3.55,-2.84 4.37,5.16 16.93,3.83 11.98,-1.11 -3.76,-3.77 -1.06,-8.56 -2.32,-17.07 v 0.01 C 80.37,10.58 73.08,4.88 64,4.88 c -9.09,0 -16.38,5.7 -17.76,15.34 l -0.01,-0.01 c -1.25,8.51 1.45,13.3 -2.32,17.07 -4.95,4.95 7.61,6.28 11.98,1.11 2.01,1.21 3.56,2.04 3.56,2.84 0,3.5 -4.97,0.86 -11.06,8.81 -3.33,4.34 -7.24,14.55 -9.83,21.96 -2.16,6.17 -5.84,5.09 -7.51,7.48 -4.09,5.89 3.83,10.91 7.64,6.91 3.8,-4.01 6.46,-9.67 8.34,-15.67 1.88,-6 3.07,-9.6 4.38,-9.6 2.52,0 1.07,7.16 -1.75,13.6 -2.07,4.7 -5.43,8.51 -5.64,11.37 -0.36,5.05 7.81,5.17 8.81,7.04 1.36,2.53 4.13,19.19 1.39,21.54 -1.62,1.39 -3.8,2.56 -4.18,4.98 -0.74,4.78 3.52,6.4 8.44,4.97 4.58,-1.33 4.43,-4.07 4.08,-11.24 -0.35,-7.17 -1.53,-18.25 1.43,-18.25 2.96,0 1.78,11.08 1.43,18.25 -0.36,7.17 -0.51,9.91 4.07,11.24 4.92,1.44 9.17,-0.18 8.44,-4.97 -0.38,-2.42 -2.56,-3.59 -4.18,-4.98 -2.74,-2.35 0.02,-19.01 1.38,-21.54 1.01,-1.87 9.18,-1.98 8.82,-7.04 -0.21,-2.85 -3.58,-6.66 -5.63,-11.37 -2.83,-6.43 -4.28,-13.6 -1.75,-13.6 1.3,0 2.5,3.6 4.38,9.6 1.87,6 4.54,11.66 8.34,15.67 3.81,4 11.75,-1.02 7.65,-6.91 z"
   id="path1-5"
   style="fill:#ffffff;fill-opacity:1;stroke-width:1.14338" />
&#10;</g>
</svg>
