<?xml version="1.0" encoding="UTF-8" standalone="no"?>
<!-- Generator: Adobe Illustrator 16.0.0, SVG Export Plug-In . SVG Version: 6.00 Build 0)  -->

<svg
   version="1.1"
   id="レイヤー_1"
   x="0px"
   y="0px"
   width="128px"
   height="128px"
   viewBox="0 0 128 128"
   enable-background="new 0 0 128 128"
   xml:space="preserve"
   sodipodi:docname="emoji_u1f52c.svg"
   inkscape:version="1.3 (0e150ed6c4, 2023-07-21)"
   xmlns:inkscape="http://www.inkscape.org/namespaces/inkscape"
   xmlns:sodipodi="http://sodipodi.sourceforge.net/DTD/sodipodi-0.dtd"
   xmlns="http://www.w3.org/2000/svg"
   xmlns:svg="http://www.w3.org/2000/svg"><defs
   id="defs22" /><sodipodi:namedview
   id="namedview22"
   pagecolor="#ffffff"
   bordercolor="#000000"
   borderopacity="0.25"
   inkscape:showpageshadow="2"
   inkscape:pageopacity="0.0"
   inkscape:pagecheckerboard="0"
   inkscape:deskcolor="#d1d1d1"
   inkscape:zoom="2.867097"
   inkscape:cx="53.189689"
   inkscape:cy="66.443513"
   inkscape:window-width="1366"
   inkscape:window-height="697"
   inkscape:window-x="-8"
   inkscape:window-y="-8"
   inkscape:window-maximized="1"
   inkscape:current-layer="レイヤー_1" />&#10;<g
   id="g22">&#10;	<path
   fill="#2F2F2F"
   d="M46.93,97.27c-0.6,0.25-1.15,0.51-1.56,0.67c-0.73,0.28-1.44,0.63-2.17,0.92c-3.4,1.36-6.82,3.74-8.4,7.13   c-0.83,1.78-0.97,4.06-0.23,5.89c0.71,1.75,2.48,2.8,4.32,2.97c2.21,0.21,3.98-1,5.7-2.2c1-0.71,2.19-1.56,3.38-1.94   c1.12-0.36,2-1.11,3.1-1.55c0.74-0.29,1.54-0.46,2.27-0.74c1.83-0.71,0.24-3.8-0.08-4.95c-0.46-1.6-0.88-5.43-2.17-6.55   C50.11,96.07,48.36,96.66,46.93,97.27z"
   id="path1"
   style="fill:#757575;fill-opacity:1" />&#10;	&#10;	<path
   fill="#2F2F2F"
   d="M69.42,49.13c0,0,14.01,12.32,3.14,28.51l19.33,10.87c0,0,16.67-32.86-17.88-53.64L69.42,49.13z"
   id="path3"
   style="fill:#757575;fill-opacity:1" /><path
   fill="#2F2F2F"
   d="M74.13,102.4c0.93,0.95,2.23,1.29,3.5,1.46c0.98,0.12,2.2-0.57,3.02,0.23c2.11,2.05,0.18,4.89-1.54,6.22   c-2.19,1.71-5.49,3.21-8.15,4.02c-1.79,0.55-3.64,1.24-5.3,2.11c-2.19,1.14-3.39,3.71-3.38,6.13c0.01,1.23,0.5,2.78,1.45,3.63   c0.74,0.67,2.13,1.48,3.14,1.57c9.17,0.82,18.04-3.66,24.96-9.33c3.24-2.65,6.77-5.77,8.46-9.68c1.9-4.37,0.99-10.94-0.82-15.21   c-0.81-1.92-1.31-2.63-1.31-4.79c0-0.92-0.26-1.79-0.55-2.67c-0.72-2.24-1.8-5.03-4.03-6.17c-0.37-0.19-0.74-0.43-1.12-0.6   c-0.59-0.27-1.14-0.24-1.78-0.24c-1.71,0-3.26,0.35-4.85,0.99c-2.13,0.86-4.92,2.31-5.53,4.69L74.13,102.4z"
   id="path2"
   style="fill:#616161;fill-opacity:1" /><g
   id="g18">&#10;		<polygon
   fill="#FFFFFF"
   points="71.46,28.25 55.85,22.39 62.35,4.18 77.95,10.04   "
   id="polygon17"
   style="fill:#6593a2;fill-opacity:1" />&#10;		&#10;	</g>&#10;	<g
   id="g5"
   style="fill:#3e5259">&#10;		<path
   fill="#2F2F2F"
   d="M68.99,104.33c-2.74,4.81-9.49,6.72-14.53,4.38c-4.42-2.09-5.75-6.82-3.17-10.7    c2.47-3.77,7.73-5.9,12.52-4.66C69.08,94.71,71.7,99.64,68.99,104.33z"
   id="path4"
   style="fill:#3e5259" />&#10;		<path
   fill="#2F2F2F"
   d="M59.11,114.54c-2.34,0-4.65-0.5-6.69-1.45c-3.48-1.64-5.9-4.42-6.85-7.84c-0.93-3.34-0.33-6.87,1.69-9.91    c2.9-4.42,8.17-7.18,13.74-7.18c1.36,0,2.71,0.17,4.01,0.5c4.19,1.08,7.48,3.78,9,7.41c1.43,3.4,1.12,7.29-0.84,10.68    C70.47,111.47,64.95,114.54,59.11,114.54z M61,97.83c-2.28,0-4.56,1.14-5.67,2.84c-0.33,0.49-0.66,1.23-0.45,2    c0.19,0.67,0.77,1.27,1.64,1.68c0.74,0.35,1.65,0.54,2.59,0.54c2.39,0,4.68-1.18,5.68-2.94c0.46-0.81,0.56-1.51,0.31-2.11    c-0.34-0.81-1.27-1.48-2.5-1.79C62.08,97.9,61.54,97.83,61,97.83z"
   id="path5"
   style="fill:#3e5259;fill-opacity:1" />&#10;	</g>&#10;	<g
   id="g6">&#10;		<path
   fill="#FFFFFF"
   d="M68.3,103.15c-2.75,4.81-9.49,6.72-14.54,4.38c-4.42-2.09-5.75-6.82-3.17-10.7    c2.48-3.77,7.73-5.9,12.52-4.66C68.39,93.52,71.01,98.45,68.3,103.15z"
   id="path6"
   style="fill:#4b6b75" />&#10;	</g>&#10;	<g
   id="g8">&#10;		<polygon
   fill="#2F2F2F"
   points="26.77,81.38 26.65,85.49 92.01,88.75 92.01,84.52   "
   id="polygon6"
   style="fill:#3e5259" />&#10;		&#10;		<path
   fill="#2F2F2F"
   d="M43.63,72.57L27.11,84.25c0,0-1.74,1.74,2.54,3.17c3.35,1.11,26.39,9.8,36.29,13.54    c2.76,1.04,5.28,1.95,6.31,2.1c1.44,0.2,3.38,0.21,4.41-0.94L91.4,89.24c0,0,2.18-1.36-1.47-2.94    c-3.65-1.59-41.38-14.84-41.38-14.84S46.33,70.51,43.63,72.57z"
   id="path8"
   style="fill:#3e5259" /><path
   fill="#2F2F2F"
   d="M43.63,68.7L27.11,80.39c0,0-1.74,1.74,2.54,3.18c3.35,1.12,26.39,9.8,36.29,13.54    c2.76,1.04,5.28,1.95,6.31,2.1c1.44,0.21,3.38,0.21,4.41-0.94L91.4,85.37c0,0,2.18-1.36-1.47-2.94    c-3.65-1.59-41.38-14.84-41.38-14.84S46.33,66.64,43.63,68.7z"
   id="path7"
   style="fill:#4b6b75;fill-opacity:1" />&#10;	</g>&#10;	<path
   fill="#FFFFFF"
   d="M45.26,74.25l-7.73,5.8c0,0-1.33,1.33,1.93,2.42c2.55,0.85,20.08,7.46,27.62,10.3   c2.11,0.79,4.02,1.48,4.81,1.6c1.09,0.15,2.57,0.16,3.36-0.71l6.38-6.71c0,0,1.66-1.04-1.12-2.24C77.72,83.49,49,73.41,49,73.41   S47.31,72.68,45.26,74.25z"
   id="path9" />&#10;	<g
   id="g11">&#10;		&#10;		&#10;	<path
   id="path11"
   style="fill:#9e9e9e"
   d="m 52.021484,66.136719 c -0.32152,0.01042 0.02424,0.567484 -0.06915,0.746953 0.303948,4.133075 0.559183,8.292621 0.893366,12.409297 2.339467,0.875436 5.22308,0.877026 7.308594,-0.591797 0.09526,-4.283613 0.212201,-8.580414 0.267578,-12.857422 -2.011073,-0.01035 -4.078329,0.149064 -6.11059,0.202823 -0.763267,0.03005 -1.526534,0.0601 -2.289801,0.09015 z" /></g>&#10;	<g
   id="g13">&#10;		&#10;		&#10;	<path
   id="path13"
   style="fill:#9e9e9e"
   d="m 34.119141,68.771484 c 0.732358,2.308746 2.630044,4.47799 5.091797,4.892578 3.701171,-3.071614 7.402343,-6.143229 11.103515,-9.214843 -1.876953,-1.995443 -3.753906,-3.990886 -5.630859,-5.986328 -3.521485,3.436198 -7.042969,6.872395 -10.564453,10.308593 z" /></g>&#10;	<g
   id="g15">&#10;		<path
   fill="#2F2F2F"
   d="M64.08,61.71c0,0-5.42,0.2-11.7-2.08c-6.28-2.28-10.01-5.92-10.01-5.92l10.97-31.52    c0,0,4.6,0.13,11.73,2.66c7.13,2.54,9.98,5.35,9.98,5.35L64.08,61.71z"
   id="path14"
   style="fill:#bdbdbd" />&#10;		<path
   fill="#2F2F2F"
   d="M63.72,63.78c-1.4,0-6.41-0.16-12.04-2.21c-6.62-2.41-10.58-6.23-10.75-6.39    c-0.57-0.56-0.77-1.41-0.51-2.16L51.39,21.5c0.29-0.85,1.06-1.37,2.01-1.39c0.2,0,5.01,0.16,12.36,2.79    c7.48,2.66,10.61,5.69,10.73,5.82c0.57,0.56,0.76,1.4,0.5,2.15L66.03,62.39c-0.28,0.8-1.03,1.35-1.88,1.39L63.72,63.78z     M44.79,53.05c1.42,1.13,4.32,3.18,8.3,4.63c3.99,1.46,7.61,1.83,9.53,1.93l10-28.73c-1.29-0.93-3.93-2.56-8.24-4.09    c-4.39-1.56-7.79-2.17-9.61-2.4L44.79,53.05z"
   id="path15"
   style="fill:#bdbdbd" />&#10;	</g>&#10;	<g
   id="g17">&#10;		&#10;		<path
   fill="#2F2F2F"
   d="m 54.770616,70.339998 c -1.595545,0 -3.295374,-0.26071 -5.078629,-0.761273 C 39.774582,66.75263 39.211449,57.575641 40.30643,53.112288 c 0.166855,-0.677846 0.677846,-1.230551 1.334835,-1.439119 0.677846,-0.208568 1.397405,-0.073 1.929253,0.385851 0.08343,0.06257 8.655569,7.164308 21.221786,6.486462 0.625704,-0.03128 1.251408,0.229425 1.668543,0.729988 0.406708,0.490134 0.552705,1.147123 0.406708,1.772827 -0.823843,3.211946 -4.379926,9.291701 -12.096939,9.291701 z"
   id="path17"
   style="fill:#6593a2;stroke-width:1"
   sodipodi:nodetypes="scccccccs" />&#10;	</g>&#10;	&#10;	<path
   fill="#ffffff"
   d="m 79.191184,43.544587 c -1.17021,5.957736 -6.910565,9.959422 -12.840685,8.929136 -5.93012,-1.030285 -9.804464,-6.704319 -8.634253,-12.676985 1.17021,-5.972667 6.926379,-9.974353 12.840685,-8.944069 5.930118,1.045217 9.788649,6.704319 8.634253,12.691918 z"
   id="path22"
   style="fill:#2f2f2f;fill-opacity:1;stroke-width:1" /><path
   fill="#ffffff"
   d="m 74.276573,42.683642 c -0.634706,3.231399 -3.748203,5.401864 -6.964624,4.84305 -3.216422,-0.558814 -5.317816,-3.636337 -4.683109,-6.875835 0.634707,-3.239499 3.756779,-5.409964 6.964625,-4.851151 3.21642,0.566913 5.309237,3.636338 4.683108,6.883936 z"
   id="path19"
   style="stroke-width:0.999993" />&#10;	<g
   id="g21">&#10;		<path
   fill="#2F2F2F"
   d="M71.83,3.37c5.02,1.71,8.72,4.13,8.25,5.41c-0.46,1.28-4.91,0.94-9.93-0.77C65.13,6.3,61.44,3.88,61.9,2.6    C62.37,1.32,66.82,1.67,71.83,3.37z"
   id="path20" />&#10;		<path
   fill="#2F2F2F"
   d="M77.77,11.26c-2.13,0-5.11-0.6-8.17-1.63c-3.73-1.27-8.11-3.41-9.17-5.61c-0.41-0.85-0.31-1.55-0.15-2    c0.47-1.27,1.79-1.91,3.93-1.91c2.13,0,5.1,0.59,8.16,1.63c3.74,1.27,8.12,3.42,9.17,5.62c0.41,0.85,0.3,1.56,0.14,2    C81.23,10.63,79.91,11.26,77.77,11.26z M64.66,3.55c1.17,0.8,3.19,1.87,6.04,2.84c2.46,0.84,4.89,1.37,6.62,1.44    c-1.17-0.8-3.19-1.87-6.05-2.83C68.82,4.16,66.39,3.63,64.66,3.55z"
   id="path21" />&#10;	</g>&#10;</g>&#10;</svg>
