<?xml version="1.0" encoding="UTF-8" standalone="no"?>
<svg
   width="128"
   height="128"
   style="enable-background:new 0 0 128 128;"
   version="1.1"
   id="svg65079"
   sodipodi:docname="emoji_u1f60d.svg"
   inkscape:version="1.2.2 (732a01da63, 2022-12-09)"
   xmlns:inkscape="http://www.inkscape.org/namespaces/inkscape"
   xmlns:sodipodi="http://sodipodi.sourceforge.net/DTD/sodipodi-0.dtd"
   xmlns="http://www.w3.org/2000/svg"
   xmlns:svg="http://www.w3.org/2000/svg">
  <defs
     id="defs65083" />
  <sodipodi:namedview
     id="namedview65081"
     pagecolor="#ffffff"
     bordercolor="#000000"
     borderopacity="0.25"
     inkscape:showpageshadow="2"
     inkscape:pageopacity="0.0"
     inkscape:pagecheckerboard="0"
     inkscape:deskcolor="#d1d1d1"
     showgrid="false"
     inkscape:zoom="4.2421874"
     inkscape:cx="52.920811"
     inkscape:cy="69.303869"
     inkscape:window-width="1366"
     inkscape:window-height="697"
     inkscape:window-x="-8"
     inkscape:window-y="-8"
     inkscape:window-maximized="1"
     inkscape:current-layer="svg65079" />
  <path
     d="M63.79,8.64C1.48,8.64,0,78.5,0,92.33c0,13.83,28.56,25.03,63.79,25.03 c35.24,0,63.79-11.21,63.79-25.03C127.58,78.5,126.11,8.64,63.79,8.64z"
     style="fill:#FCC21B;"
     id="path64971" />
  <g
     id="g65071"
     transform="translate(0,4.3337963)">
    <path
       d="m 45.06,30.55 c -3.37,0.93 -5.8,3.54 -6.61,6.68 -2.31,-2.23 -5.8,-3.22 -9.04,-2.3 -2.42,0.68 -4.43,2.23 -5.68,4.41 -1.24,2.17 -1.56,4.68 -0.89,7.07 2.97,10.85 21.03,15.3 21.79,15.49 0.19,0.05 0.38,0.04 0.56,0.01 0.23,-0.05 0.44,-0.16 0.61,-0.33 C 46.36,61.01 59.54,47.82 56.56,37 55.21,32.08 49.94,29.1 45.06,30.55 Z"
       style="fill:#d7598b"
       id="path65067" />
    <path
       d="m 82.77,30.64 c 3.39,0.87 5.86,3.44 6.72,6.56 2.27,-2.27 5.74,-3.32 9,-2.46 2.43,0.63 4.47,2.16 5.75,4.31 1.28,2.15 1.64,4.65 1.02,7.05 C 102.49,57 84.51,61.76 83.75,61.96 83.56,62.01 83.37,62.01 83.19,61.97 82.96,61.92 82.75,61.81 82.57,61.65 82,61.11 68.6,48.16 71.38,37.29 c 1.26,-4.95 6.48,-8.02 11.39,-6.65 z"
       style="fill:#d7598b"
       id="path65069" />
  </g>
  <g
     id="g65077"
     transform="translate(0,1.0405513)">
    <path
       id="path65073"
       style="fill:#ed6c30"
       d="m 46.613281,73.001953 c -0.368925,0.0084 -0.730547,0.05242 -1.083984,0.138672 -5.209995,1.259999 -7.379058,6.580164 -2.539063,14.660156 2.429998,4.039996 10.379542,10.5 21.019532,10.5 11.319988,0 18.459533,-6.190004 21.019531,-10.5 4.799995,-8.099992 2.670932,-13.400157 -2.539063,-14.660156 -3.769996,-0.919999 -8.33946,2.919767 -15.439453,4.509766 -1.109999,0.249999 -2.111016,0.340078 -3.041015,0.330078 -0.929999,0.01 -1.929064,-0.08008 -3.039063,-0.330078 -6.434368,-1.440936 -10.791146,-4.729195 -14.357422,-4.648438 z" />
  </g>
</svg>
