<?xml version="1.0" encoding="UTF-8" standalone="no"?>
<svg
   width="128"
   height="128"
   version="1.1"
   id="svg452"
   sodipodi:docname="emoji_u1f376.svg"
   xml:space="preserve"
   inkscape:version="1.2.2 (732a01da63, 2022-12-09)"
   xmlns:inkscape="http://www.inkscape.org/namespaces/inkscape"
   xmlns:sodipodi="http://sodipodi.sourceforge.net/DTD/sodipodi-0.dtd"
   xmlns:xlink="http://www.w3.org/1999/xlink"
   xmlns="http://www.w3.org/2000/svg"
   xmlns:svg="http://www.w3.org/2000/svg"><sodipodi:namedview
     id="namedview454"
     pagecolor="#ffffff"
     bordercolor="#000000"
     borderopacity="0.25"
     inkscape:showpageshadow="2"
     inkscape:pageopacity="0.0"
     inkscape:pagecheckerboard="0"
     inkscape:deskcolor="#d1d1d1"
     showgrid="false"
     inkscape:zoom="2"
     inkscape:cx="49"
     inkscape:cy="87.5"
     inkscape:window-width="1366"
     inkscape:window-height="697"
     inkscape:window-x="-8"
     inkscape:window-y="-8"
     inkscape:window-maximized="1"
     inkscape:current-layer="svg452" /><defs
     id="defs420"><path
       id="a"
       d="M77.83 108.7c-7.32 10.9-23.88 11.22-25.74 11.22H51.49c-1.87 0-18.43-.32-25.74-11.22-14.48-21.56-3.68-38.16 5-51.5 3.25-4.99 6.06-9.3 7.28-13.53 2.12-7.29 1.72-14.42.68-19.99.02-.02.05-.03.07-.05 3.61 1.25 7.61 1.83 10.79 1.9 4.67.11 10.14-.09 14.94-1.55.12.04.23.09.29.18-.97 5.5-1.29 12.41.77 19.5 1.23 4.22 4.03 8.54 7.28 13.53 8.66 13.35 19.46 29.95 4.98 51.51z" /><defs
       id="defs427"><path
         id="b"
         d="M58.88 18.12c-2.72.5-5.43.63-6.83.67-2.75.07-5.74-.06-8.41-.76-2.08-.54-4.48-1.31-6.03-2.85-3.12-3.1.35-6.33 3.22-7.61 1.37-.61 2.81-1.07 4.28-1.42 3.39-.81 6.56-.64 10.03-.47 3.95.19 10.11 1.26 11.54 5.63 1.36 4.11-3.25 5.97-7.8 6.81z" /></defs><defs
       id="defs434"><path
         id="c"
         d="M109.66 107.6l-.34.61c-2.28 4.15-5.73 10.41-9.24 12.22-2.22 1.14-4.85 1.74-7.63 1.74-4.86 0-9.58-1.83-12.64-4.89-2.07-2.07-4.11-4.73-5.94-7.66l.18.16c-2.46-4.54-.47-4.85.16-4.79.14.01.25.04.36.06.07.02.11.03.16.04.06.02.13.04.13.04l-.01-.01c3.93.96 8.11 1.35 11.66 1.43.65.02 1.36.04 2.05.05.52.02 1.01.03 1.54.04h.31c1.2.03 2.44.05 3.7.05h.56c.68-.01 1.35-.01 2.03-.03.18-.01.35-.01.53-.01.82-.02 1.63-.06 2.44-.11.2-.02.39-.03.59-.04.67-.05 1.34-.11 2-.18l.59-.06c.81-.1 1.61-.21 2.39-.35.16-.03.31-.06.46-.09.65-.12 1.29-.26 1.93-.42.2-.04.39-.1.59-.15.04-.01.07-.03.11-.03v.01l-.01.01s.29-.11.65-.14c.63-.05 1.73.24.69 2.5z" /></defs><defs
       id="defs439"><path
         id="d"
         d="M111.93 97.96c-3.53 2.55-8.73 3.84-13.06 3.95-1.62.04-3.24-.01-4.86-.01-6.37 0-12.72-.37-18.95-1.7-1.83-.39-3.68-1.12-5.2-2.19-.88-.62-1.7-1.33-2.05-2.37-.32-.95-.9-1.78-.96-2.81-.06-1.09.07-2.77 1.89-4.7 4.27-4.51 13.87-6.88 21.15-6.88l.5.01c2.98.04 5.94.32 8.8.82 7.93 1.37 13.2 4.01 14.85 7.43.78 1.61.67 4.1-.06 5.72-.24.54-.29 1.08-.68 1.56-.34.44-.81.77-1.25 1.09-.03.02-.08.06-.12.08z" /></defs><clipPath
       id="e-2"><use
         xlink:href="#d"
         overflow="visible"
         id="use443-8" /></clipPath></defs><path
     id="use422"
     style="fill:#d1ebed;fill-opacity:1"
     d="M 46.130859,0.27929688 C 37.000869,0.12929703 23.129922,4.3800096 23.669922,14 c 0.03,0.559999 0.129531,1.11086 0.269531,1.630859 l -0.05859,0.0098 c 0,0 0.109297,0.218907 0.279297,0.628906 0.1,0.27 0.200313,0.550547 0.320313,0.810547 1.429998,3.709996 4.728669,14.120479 1.638672,24.730469 -3.849997,13.249987 -33.9099,37.099643 -11.419922,70.599609 9.199991,13.68998 28.621252,14.16015 31.28125,14.16015 h 0.599609 c 2.659997,0 22.089306,-0.48017 31.279297,-14.16015 22.499971,-33.489966 -7.56016,-57.349857 -11.410156,-70.589844 -2.819997,-9.68999 -0.319296,-19.179613 1.220703,-23.599609 0.16,-0.25 0.309687,-0.5 0.429687,-0.75 0.25,-0.539999 0.440079,-1.160313 0.580079,-1.820312 C 69.109687,13.530393 68.92914,10.960467 68.119141,9.2304688 65.759143,4.2204738 59.200307,1.9704678 53.570312,0.98046875 51.120315,0.55046918 48.620857,0.31929683 46.130859,0.27929688 Z M 33.279297,23.630859 c 0.902499,0.3125 1.829376,0.583204 2.761719,0.814453 -0.932343,-0.231249 -1.85922,-0.501953 -2.761719,-0.814453 z m 18.212891,1.712891 c -1.275624,0.109375 -2.548439,0.169219 -3.792969,0.195312 1.24453,-0.02609 2.517345,-0.08594 3.792969,-0.195312 z" /><path
     id="use441"
     style="fill:#d1ebed;fill-opacity:1;stroke-width:1"
     d="m 92.41767,76.885205 c -0.26737,0 -0.56443,0.01843 -0.8318,0.02798 -0.35331,0.0095 -0.7058,0.0087 -1.06866,0.0373 -0.38196,0.0191 -0.77436,0.04782 -1.15632,0.07647 -0.37241,0.0382 -0.74475,0.05878 -1.11716,0.09698 -0.40105,0.0382 -0.79256,0.094 -1.19362,0.141742 -0.38195,0.04774 -0.75362,0.09564 -1.14512,0.152932 -0.41061,0.06684 -0.81286,0.143683 -1.22346,0.220074 -0.38196,0.06684 -0.76317,0.134357 -1.14513,0.210748 -0.41061,0.08594 -0.82054,0.190085 -1.2216,0.276025 -0.38195,0.09549 -0.76526,0.172851 -1.13766,0.277889 -0.41061,0.105039 -0.82054,0.237904 -1.2216,0.352491 -0.37241,0.105039 -0.73564,0.209704 -1.0985,0.33384 -0.40106,0.133686 -0.80189,0.287588 -1.20295,0.430822 -0.35331,0.124137 -0.70602,0.248423 -1.05933,0.391656 -0.39151,0.152784 -0.76504,0.333542 -1.147,0.505424 -0.33421,0.152783 -0.67685,0.28714 -1.00152,0.449472 -0.37241,0.18143 -0.72632,0.390911 -1.08917,0.581889 -0.30557,0.171881 -0.62904,0.333319 -0.92506,0.514749 -0.35331,0.210077 -0.67872,0.440371 -1.00339,0.669546 -0.27691,0.190979 -0.56443,0.362934 -0.8318,0.553913 -0.31511,0.238724 -0.61039,0.504976 -0.9064,0.762798 -0.23873,0.200528 -0.49655,0.401652 -0.71618,0.611729 -0.28646,0.267371 -0.52526,0.56421 -0.79263,0.841129 -0.20053,0.219626 -0.41911,0.43873 -0.60054,0.658355 -0.23873,0.305567 -0.44082,0.639781 -0.6509,0.954895 -0.15278,0.238724 -0.32302,0.468124 -0.46626,0.706847 -0.19097,0.343763 -0.33585,0.714904 -0.48863,1.087313 -0.10504,0.238724 -0.22925,0.467899 -0.31519,0.716171 -0.14324,0.420153 -0.2197,0.87 -0.31519,1.309251 -0.0382,0.219626 -0.11288,0.42008 -0.15107,0.639705 -0.0955,0.677976 -0.12421,1.374305 -0.0765,2.100024 0.0286,0.420154 0.10474,0.811438 0.17158,1.202945 h -0.1921 c 0.0477,0 0.13511,0.163003 0.25924,0.449472 0.18143,0.830758 0.48573,1.585276 0.84859,2.301447 0.8785,2.530462 1.95843,5.939072 2.11122,6.301932 2.39678,5.77711 6.28366,12.10837 10.72392,16.53908 0.45835,0.45835 0.94467,0.88746 1.46032,1.29807 0.15278,0.12413 0.31511,0.24886 0.47744,0.373 0.36286,0.27692 0.74452,0.54437 1.12648,0.79264 0.19098,0.12414 0.37226,0.24909 0.56324,0.36368 0.40106,0.24827 0.82196,0.47581 1.24211,0.70498 0.16233,0.0955 0.32422,0.18262 0.4961,0.26857 0.59203,0.28646 1.19422,0.56323 1.80535,0.80195 0.10504,0.0382 0.21947,0.066 0.32451,0.11377 0.51565,0.19098 1.03957,0.37316 1.56476,0.52594 0.21963,0.0668 0.44082,0.11429 0.6509,0.17158 0.43925,0.11459 0.88656,0.21971 1.33536,0.3152 0.22918,0.0477 0.4497,0.0865 0.67887,0.13427 0.49655,0.0859 0.99339,0.14205 1.49949,0.2089 l 0.49609,0.0578 c 0.65888,0.0573 1.31806,0.0951 1.97693,0.0951 0.0382,0 0.0756,0.01 0.11377,0.01 0.0955,0 0.20105,-0.0186 0.29654,-0.0186 0.63023,-0.01 1.26091,-0.0472 1.89114,-0.10444 0.20053,-0.0191 0.39091,-0.0292 0.58189,-0.0579 0.73527,-0.0859 1.47129,-0.20903 2.19701,-0.36181 l 0.21821,-0.0578 c 0.65887,-0.15278 1.3094,-0.35294 1.93963,-0.57257 0.18143,-0.0573 0.36315,-0.12525 0.54458,-0.19209 0.69708,-0.26737 1.37379,-0.544 2.04222,-0.88776 5.16597,-2.66416 8.94849,-10.05565 11.65084,-14.93515 2.35858,-4.25884 4.00914,-9.12821 4.75396,-13.950425 v -0.0094 -0.01865 c 0.51564,-2.597312 0.27692,-5.625081 -0.71617,-7.687653 -2.92198,-6.073129 -11.0562,-8.804584 -18.04604,-10.007751 -3.0506,-0.52691 -6.13823,-0.810666 -9.23376,-0.848589 -0.18143,0 -0.37248,-0.0094 -0.55391,-0.0094 z M 70.47373,93.655554 c 0.0939,0.466971 0.28338,0.899372 0.47745,1.331631 -0.03,-0.05766 -0.0676,-0.110747 -0.0951,-0.169718 -0.17189,-0.372408 -0.31117,-0.755934 -0.38233,-1.161913 z"
     sodipodi:nodetypes="ccccccccccccccccccccccccccccccccccccccccscccccccccccssccccccccsccccccsccccc" /><path
     d="m 69.775,11.25 c 0,6.8 -10.532436,10.5 -23.4625,10.5 C 33.382436,21.75 22.85,17.95 22.85,11.25 22.85,4.55 33.382436,0.74999999 46.3125,0.74999999 59.242564,0.74999999 69.775,4.55 69.775,11.25 Z"
     fill="#aecece"
     id="path6058"
     style="stroke-width:1" /><path
     class="st0"
     d="m 67.034854,11.25 c 0,5.2 -9.247993,8.1 -20.722354,8.1 -11.474361,0 -20.722354,-2.9 -20.722354,-8.1 0,-5.2 9.247993,-8.1 20.722354,-8.1 11.474361,0 20.722354,2.9 20.722354,8.1 z"
     id="path6060"
     style="fill:#d1ebed;stroke-width:1" /><path
     class="st2"
     d="m 86.73045,118.7516 c 1.8231,-1.14301 4.38566,-2.81351 6.25253,-4.44719 1.00301,-0.82052 0.80492,-1.92625 0.21153,-2.59246 -6.77659,-7.64192 -9.32474,-10.96826 -10.71519,-13.424149 -1.54173,-2.723072 -2.47578,-4.440704 -2.98702,-4.733109 -0.85079,-0.486657 -2.18048,0.5928 -4.60804,2.399218 -2.42756,1.806427 -3.45131,2.403143 -3.60671,3.198342 -0.32467,1.661338 7.84977,14.351118 12.64068,19.190168 0,0 1.32592,1.32506 2.81222,0.40918 z"
     id="path6056-3"
     style="fill:#ffffff;stroke-width:1"
     sodipodi:nodetypes="cccsszscc" /><path
     d="m 121.23189,90.581544 c 0,9.327318 -12.63057,14.402486 -28.13639,14.402486 -15.50583,0 -28.1364,-5.212334 -28.1364,-14.402486 0,-9.190153 12.63057,-14.402476 28.1364,-14.402476 15.50582,0 28.13639,5.212323 28.13639,14.402476 z"
     fill="#aecece"
     id="path6058-3"
     style="stroke-width:1" /><path
     class="st0"
     d="m 117.94589,90.313239 c 0,7.304902 -11.09025,11.378791 -24.85039,11.378791 -13.76013,0 -24.8504,-4.073889 -24.8504,-11.378791 0,-7.3049 11.09027,-11.378789 24.8504,-11.378789 13.76014,0 24.85039,4.073889 24.85039,11.378789 z"
     id="path6060-8"
     style="fill:#d1ebed;stroke-width:1" /><path
     class="st2"
     d="m 13.317862,79.405102 c 1.845485,1.106487 4.496463,2.632802 6.799111,3.555789 1.186157,0.521828 2.081814,-0.15617 2.406476,-0.987161 3.737707,-9.505293 9.413468,-19.913503 12.804181,-25.876577 1.546764,-2.720215 2.835027,-4.220422 2.863793,-4.808671 0.04788,-0.978973 -1.517193,-1.674534 -4.228076,-3.018894 -2.710882,-1.344359 -3.706984,-1.986172 -4.486186,-1.764049 -1.627907,0.464061 -14.929825,23.743144 -17.069962,30.207588 0,0 -0.579654,1.782652 0.910663,2.691975 z"
     id="path6056"
     style="fill:#ffffff;stroke-width:1"
     sodipodi:nodetypes="cccsszscc" /></svg>
