<svg width="128" height="128" xmlns="http://www.w3.org/2000/svg"><path d="M63.89 9.64C1.58 9.64.1 79.5.1 93.33c0 13.83 28.56 25.03 63.79 25.03 35.24 0 63.79-11.21 63.79-25.03 0-13.83-1.47-83.69-63.79-83.69z" fill="#fcc21b"/><path d="M63.89 95.08c-14.13 0-22.18-8.14-22.52-8.48a3.254 3.254 0 0 1 4.67-4.53c.25.25 6.58 6.51 17.85 6.51 11.27 0 17.6-6.25 17.87-6.52a3.26 3.26 0 0 1 4.59-.04 3.238 3.238 0 0 1 .06 4.58c-.34.34-8.39 8.48-22.52 8.48z" fill="#2f2f2f"/><path fill="none" d="M.41 0H128v128H.41z"/><g fill="#2f2f2f"><path d="M42 68c-4.49.04-8.17-4.27-8.22-9.62-.05-5.37 3.55-9.75 8.04-9.79 4.48-.04 8.17 4.27 8.22 9.64.05 5.36-3.55 9.73-8.04 9.77zM86.11 68c4.48-.01 8.11-4.36 8.1-9.71-.01-5.37-3.66-9.7-8.14-9.69-4.49.01-8.13 4.36-8.12 9.73.02 5.35 3.67 9.68 8.16 9.67z"/></g><path d="M105.68 90.666c-1.55-2.5-3.31-7.87-3.57-9.57-.46-2.94-1.7-8.28-2.6-12.74-.24-1.21-.23-2.88 1.29-2.96 1.21-.04 3.12.69 4.24 1.07 3.29 1.12 6.74 3.04 9.6 4.97 5.22 3.57 8.75 9.3 8.05 15.78-.53 4.78-5.02 7.94-9.08 7.75-2.92-.14-6.48-1.98-7.93-4.3z" fill="#fff"/></svg>