<?xml version="1.0" encoding="UTF-8" standalone="no"?>
<svg
   width="128"
   height="128"
   style="enable-background:new 0 0 128 128;"
   version="1.1"
   id="svg23817"
   sodipodi:docname="emoji_u1f42f.svg"
   inkscape:version="1.2.2 (732a01da63, 2022-12-09)"
   xmlns:inkscape="http://www.inkscape.org/namespaces/inkscape"
   xmlns:sodipodi="http://sodipodi.sourceforge.net/DTD/sodipodi-0.dtd"
   xmlns="http://www.w3.org/2000/svg"
   xmlns:svg="http://www.w3.org/2000/svg">
  <defs
     id="defs23821" />
  <sodipodi:namedview
     id="namedview23819"
     pagecolor="#ffffff"
     bordercolor="#000000"
     borderopacity="0.25"
     inkscape:showpageshadow="2"
     inkscape:pageopacity="0.0"
     inkscape:pagecheckerboard="0"
     inkscape:deskcolor="#d1d1d1"
     showgrid="false"
     inkscape:zoom="2.9996795"
     inkscape:cx="48.505181"
     inkscape:cy="72.67443"
     inkscape:window-width="1366"
     inkscape:window-height="697"
     inkscape:window-x="-8"
     inkscape:window-y="-8"
     inkscape:window-maximized="1"
     inkscape:current-layer="svg23817" />
  <g
     id="g24600"
     transform="matrix(1.0233389,0,0,1.0233389,141.79155,-19.947713)"
     style="stroke-width:0.977193">
    <path
       id="path23765-4"
       style="fill:#fcc21b;stroke-width:0.977193"
       d="M -117.52711 22.214409 C -120.83775 22.282866 -124.16261 23.265536 -126.96886 24.978034 C -133.49885 28.94803 -135.87888 36.878661 -134.35889 44.088654 C -133.85889 46.478652 -132.889 48.797398 -131.559 50.837396 C -128.509 55.497391 -129.49887 57.007058 -131.01887 62.327053 C -132.07887 66.037049 -132.80927 69.81814 -133.59927 73.578136 C -134.22927 76.698133 -134.5895 79.807283 -135.1395 82.90728 C -135.8395 86.837273 -136.7998 90.498175 -136.7198 94.538171 C -136.64469 98.321998 -135.8356 102.16487 -134.42187 105.76253 C -133.3626 109.89617 -130.32375 113.69597 -127.36966 116.51739 C -127.36607 116.52082 -127.36181 116.5235 -127.35821 116.52693 C -126.94283 116.92323 -126.5136 117.30613 -126.07374 117.67208 C -123.78881 119.57506 -121.18863 121.06755 -118.4585 122.26222 C -117.55921 122.6554 -116.64675 123.01643 -115.72541 123.34629 C -115.63924 123.37717 -115.55597 123.41709 -115.46966 123.44744 C -111.11908 124.98151 -106.59686 125.70516 -103.33681 128.76284 C -103.3335 128.76595 -103.33058 128.76928 -103.32727 128.77239 C -102.82923 129.24167 -102.36006 129.76447 -101.92637 130.3546 C -101.70812 130.65158 -101.49845 130.96556 -101.29845 131.29744 C -100.60845 132.44244 -99.87803 133.4648 -99.036781 134.3798 C -98.616294 134.83805 -98.168574 135.26754 -97.683597 135.67381 C -97.195476 136.08273 -96.671067 136.46843 -96.099475 136.8285 C -96.044087 136.86359 -95.983355 136.89112 -95.927703 136.92584 C -95.21326 137.37108 -94.477976 137.78675 -93.723292 138.17215 C -84.804941 142.73224 -73.294975 143.08677 -64.021957 138.98329 C -63.446738 138.72867 -62.880028 138.45743 -62.32332 138.16833 C -62.009508 138.00541 -61.699289 137.83837 -61.391933 137.66446 C -60.843018 137.35381 -60.30565 137.02544 -59.779182 136.67964 C -59.478942 136.48248 -59.18403 136.27941 -58.891692 136.0708 C -58.379827 135.70542 -57.881142 135.32247 -57.395365 134.92183 C -55.736656 133.55421 -54.223284 131.99933 -52.929286 130.21718 C -48.00929 123.45719 -37.63837 124.23793 -30.818377 120.59793 C -24.190294 117.03857 -17.972654 111.91293 -16.080316 104.50287 C -15.813555 103.60032 -15.605412 102.67619 -15.479113 101.7278 C -15.159113 99.437801 -15.289081 97.028088 -15.939081 94.498091 C -15.990722 94.298799 -16.05686 94.183579 -16.118487 94.038123 C -16.723226 90.693967 -17.658344 87.400547 -18.498488 84.128771 C -20.028486 78.178777 -20.678072 72.077945 -22.098071 66.107951 C -22.81807 63.097954 -24.419642 59.868107 -23.359643 56.66811 C -22.199644 53.198114 -19.609128 50.617087 -18.819129 46.877091 C -17.289131 39.667098 -19.679618 31.736924 -26.199611 27.756928 C -30.699607 25.026931 -36.498263 24.157972 -41.468258 25.89797 C -43.888255 26.74797 -46.259311 27.777371 -48.419309 29.167369 C -50.469307 30.487368 -52.039352 30.208436 -54.38935 29.938436 C -56.169348 29.728436 -57.848246 28.977914 -59.548244 28.487915 C -63.70824 27.287916 -67.989477 26.487457 -72.299472 26.117457 C -80.319464 25.417458 -88.448946 26.157837 -96.068938 28.447834 C -97.898936 28.997834 -99.198966 29.638178 -101.07896 28.858179 C -102.46896 28.27818 -103.56978 27.127857 -104.81978 26.317858 C -106.95978 24.95786 -109.31831 23.947167 -111.69831 23.117168 C -113.5583 22.460919 -115.54073 22.173335 -117.52711 22.214409 z " />
    <path
       d="m -98.768852,66.617877 c -0.16,-0.23 -0.32,-0.47 -0.47,-0.71 -3.139998,-5.21 4.25,-3.67 6.95,-3 4.55,1.11 9.11,2.31 13.78,2.75 4.92,0.47 9.7,-1.2 14.49,-1.99 2.29,-0.38 4.78,-0.67 7.07,-0.21 2.94,0.58 -0.26,4.71 -1.19,5.72 -2.35,2.55 -5.5,3.96 -8.53,5.49 -4.76,2.4 -9.39,3.41 -14.65,2.22 -2.55,-0.58 -4.99,-1.61 -7.39,-2.68 -3.8,-1.69 -7.65,-4.09 -10.06,-7.59 z"
       style="fill:#2f2f2f;stroke-width:0.977193"
       id="path23769-5" />
    <path
       d="m -95.138852,54.307877 c -1,3.48 -4.61,5.68 -8.029998,4.95 -3.43,-0.76 -5.42,-4.19 -4.42,-7.67 1.01,-3.48 4.61,-5.7 8.049998,-4.94 3.43,0.74 5.4,4.19 4.4,7.66 z"
       style="fill:#2f2f2f;stroke-width:0.977193"
       id="path23771-3" />
    <path
       d="m -56.608852,55.017877 c 1.44,3.37 5.29,5.2 8.61,4.14 3.32,-1.09 4.85,-4.68 3.42,-8.05 -1.44,-3.35 -5.31,-5.22 -8.62,-4.14 -3.33,1.08 -4.85,4.69 -3.41,8.05 z"
       style="fill:#2f2f2f;stroke-width:0.977193"
       id="path23773-4" />
    <path
       d="m -105.24885,90.797874 c -0.04,0.02 -0.06,0.04 -0.11,0.06 0.95,1.25 2.82,1.44 3.97,2.51 3.639998,3.4 2.029998,9.299996 0.81,13.049996 -0.8,2.48 -1.11,5.17 -0.84,7.81 0.63,6.37 5.929998,9.27 11.419998,10.95 7.02,2.14 14.21,2.68 21.4,0.99 3,-0.7 5.94,-1.38 8.64,-2.81 2.44,-1.29 4.13,-2.57 5.28,-5.1 3.24,-7.11 -3.7,-15.3 -0.5,-22.239996 0.54,-1.18 1.71,-1.85 2.71,-2.59 0.07,-0.05 2.48,-2.13 1.57,-2.25 -1.08,-0.14 -2.25,-0.05 -3.36,-0.05 -1.53,0 -2.88,-0.33 -4.38,-0.48 -3.55,-0.35 -7.06,-0.97 -10.58,-1.28 -1.35,-0.12 -2.45,-0.33 -3.56,-1.18 -1.21,-0.92 -3.13,-4.039997 -4.85,-2.61 -1.49,1.26 -3.38,2.27 -5.25,3.12 -1.67,0.76 -3.22,1.21 -5.02,1.55 -1.06,0.2 -2.24,0.64 -3.35,0.48 -0.9,-0.14 -1.55,-0.6 -2.48,-0.62 -2.93,-0.05 -5.9,0.34 -8.789998,0.48 -0.86,0.02 -1.92,-0.21 -2.73,0.21 z"
       style="fill:#ed6c30;stroke-width:0.977193"
       id="path23775-9" />
    <path
       d="m -76.938852,91.767874 c 0.25,0.25 0.54,0.5 0.84,0.73 2.24,1.73 4.51,2.13 6.41,2.3 1.76,0.15 3.52,0.39 5.39,0.65 1.11,0.15 2.23,0.3 3.35,0.43 -1.23,4.459996 -0.18,8.829996 0.71,12.439996 0.76,3.12 1.43,5.82 0.58,7.67 -0.45,0.98 -0.94,1.51 -2.87,2.52 -2.04,1.09 -4.45,1.65 -7.32,2.32 -2.4,0.56 -4.89,0.84 -7.39,0.84 -3.59,0 -7.35,-0.59 -11.15,-1.75 -6.32,-1.93 -7.38,-4.24 -7.57,-6.26 -0.19,-1.84 0.02,-3.76 0.59,-5.56 0.79,-2.41 2.47,-7.58 1.32,-12.529996 0.46,0.16 1.14,0.4 2.03,0.53 0.43,0.06 0.87,0.1 1.33,0.1 1.29,0 2.42,-0.27 3.24,-0.47 0.21,-0.05 0.41,-0.1 0.61,-0.14 2.35,-0.44 4.28,-1.04 6.28,-1.95 1.35,-0.61 2.55,-1.23 3.62,-1.87 m 0.29,-6.59 c -0.32,0 -0.64,0.11 -0.95,0.38 -1.49,1.26 -3.38,2.27 -5.25,3.12 -1.67,0.76 -3.22,1.21 -5.02,1.55 -0.9,0.17 -1.89,0.51 -2.83,0.51 -0.18,0 -0.34,-0.01 -0.51,-0.03 -0.9,-0.14 -1.55,-0.6 -2.48,-0.62 -0.19,-0.01 -0.37,-0.01 -0.55,-0.01 -2.74,0 -5.53,0.35 -8.229998,0.48 -0.09,0.01 -0.17,0.01 -0.26,0.01 -0.38,0 -0.76,-0.03 -1.13,-0.03 -0.49,0 -0.97,0.05 -1.38,0.26 -0.04,0.02 -0.06,0.04 -0.11,0.06 0.95,1.25 2.82,1.44 3.97,2.51 3.639998,3.4 2.029998,9.299996 0.81,13.049996 -0.8,2.48 -1.11,5.17 -0.84,7.81 0.63,6.37 5.929998,9.27 11.419998,10.95 4.21,1.28 8.47,1.98 12.76,1.98 2.88,0 5.77,-0.32 8.65,-0.99 3,-0.7 5.94,-1.38 8.64,-2.81 2.44,-1.29 4.13,-2.57 5.28,-5.1 3.24,-7.11 -3.7,-15.3 -0.5,-22.239996 0.54,-1.18 1.71,-1.85 2.71,-2.59 0.07,-0.05 2.48,-2.13 1.57,-2.25 -0.47,-0.06 -0.96,-0.08 -1.45,-0.08 -0.61,0 -1.22,0.03 -1.82,0.03 h -0.1 c -1.53,0 -2.88,-0.33 -4.38,-0.48 -3.55,-0.35 -7.06,-0.97 -10.58,-1.28 -1.35,-0.12 -2.45,-0.33 -3.56,-1.18 -0.98,-0.78 -2.45,-3.01 -3.88,-3.01 z"
       style="fill:#2f2f2f;stroke-width:0.977193"
       id="path23779-8" />
    <path
       d="m -32.898852,51.577877 c -0.37,-0.29 -0.79,-0.43 -1.25,-0.33 -0.86,0.19 -0.4,1.96 -0.25,2.49 0.33,1.2 0.53,2.46 0.19,3.68 -0.85,2.96 -4.91,1.8 -7.14,2.09 -0.66,3.35 6.19,3.77 8.4,3.29 4.43,-0.94 2.64,-9.22 0.05,-11.22 z"
       style="fill:#2f2f2f;stroke-width:0.977193"
       id="path23781-1" />
    <path
       d="m -28.028852,59.847877 c 0.65,2.37 1.15,4.7 0.55,7.31 -0.34,1.5 -0.99,5.2 -2.99,5.29 -0.39,0.02 -0.92,-0.22 -1.27,-0.35 -0.83,-0.31 -1.39,-1 -2.02,-1.58 -0.7,-0.64 -1.26,-1.4 -2.04,-1.9 -0.39,-0.25 -0.77,-0.48 -1.27,-0.36 -1.84,0.45 -0.29,1.9 0.24,2.79 1.56,2.65 1.88,6.86 0.51,9.64 -0.4,0.81 -1.55,2.22 -1.4,3.15 0.31,1.899997 2.81,-0.24 3.55,-0.85 1.99,-1.64 3.36,-3.96 5.42,-5.51 1.36,-1.02 3.01,-1.41 4.24,-2.7 1.11,-1.15 1.72,-2.6 2.11,-4.13 0.8,-3.12 0.61,-6.59 -0.62,-9.58 -0.7,-1.68 -2.79,-7.31 -5.19,-7.19 -1.36,0.07 -1,1.4 -0.82,2.21 0.28,1.3 0.66,2.54 1,3.76 z"
       style="fill:#2f2f2f;stroke-width:0.977193"
       id="path23783-6" />
    <path
       d="m -127.56885,65.437877 c -0.27,6.95 0.14,14.48 4.39,20.289997 2.26,3.06 5.17,5.07 8.58,6.69 1.85,0.88 9.96,3.16 7.06,6.649996 -0.8,0.97 -2.89,0.63 -3.95,0.63 -4.04,-0.01 -7.79,-1.29 -11.29,-3.179996 -3.16,-1.71 -6.1,-4.54 -8,-7.57 -3.1,-4.94 -1.02,-13.609997 -0.35,-19.019997 0.34,-2.82 1.4,-5.98 3.74,-7.75 -0.07,1.06 -0.14,2.16 -0.18,3.26 z"
       style="fill:#2f2f2f;stroke-width:0.977193"
       id="path23789-4" />
    <path
       d="m -125.58885,54.507877 c 0.58,-0.7 1.28,-1.18 2.06,-0.89 0.66,0.24 -0.38,4.15 -0.61,4.64 -0.75,1.63 -0.88,2.65 -0.88,4.46 0,1.55 0.08,3.04 0.84,4.42 0.66,1.21 1.28,2.56 2.54,3.25 0.91,0.49 0.97,0.31 1.68,-0.26 0.91,-0.75 1.5,-1.44 2.62,-1.78 1.92,-0.57 1.77,0.95 0.71,2.04 -1.46,1.51 -1.93,3.28 -2.01,5.33 -0.06,2.34 0.3,5.01 1.11,7.21 0.45,1.2 1.46,1.97 1.18,3.339997 -2.2,0.62 -4.92,-3.019997 -5.79,-4.569997 -0.65,-1.16 -0.95,-2.34 -1.4,-3.52 -0.41,-1.1 -1.07,-1.22 -1.93,-1.91 -1.91,-1.52 -3.19,-3.48 -4.21,-5.55 -0.73,-1.48 -0.94,-3.29 -0.85,-4.92 0.1,-1.67 0.88,-2.94 1.36,-4.46 0.48,-1.54 1.26,-3.12 2.11,-4.49 0.33,-0.53 0.84,-1.56 1.47,-2.34 z"
       style="fill:#2f2f2f;stroke-width:0.977193"
       id="path23791-0" />
    <path
       d="m -111.84885,32.117877 c -0.64,-0.37 -1.31,-0.66 -1.9,-0.85 -3.44,-1.11 -8.29,-0.7 -10.59,2.42 -1.91,2.6 -2.3,6.1 -1.57,9.2 0.45,1.87 2.72,7.63 5.52,6.62 0.8,-0.29 1.56,-1.35 1.97,-2.06 0.58,-0.98 1.17,-1.8 1.84,-2.74 0.69,-0.94 1.27,-2.02 2.04,-2.88 1.42,-1.62 4.73,-3.04 5.46,-5.11 0.68,-1.92 -0.97,-3.57 -2.77,-4.6 z"
       style="fill:#2f2f2f;stroke-width:0.977193"
       id="path23793-0" />
    <path
       d="m -41.258852,34.367877 c 0.63,-0.36 1.29,-0.65 1.88,-0.84 3.38,-1.13 8.24,-0.92 10.64,1.87 2.01,2.32 2.54,5.51 1.91,8.36 -0.38,1.73 -2.43,7.07 -5.28,6.25 -0.81,-0.24 -1.6,-1.19 -2.05,-1.82 -0.62,-0.88 -1.22,-1.6 -1.94,-2.44 -0.71,-0.85 -1.35,-1.81 -2.14,-2.58 -1.48,-1.44 -4.83,-2.62 -5.63,-4.5 -0.73,-1.74 0.85,-3.3 2.61,-4.3 z"
       style="fill:#2f2f2f;stroke-width:0.977193"
       id="path23795-0" />
    <path
       d="m -115.71885,49.387877 c -0.11,0.03 -0.22,0.06 -0.34,0.1 -3.02,1.03 -5.18,5.23 -4.15,8.29 1.04,3.1 6.29,5.22 9.27,4.5 0.7,-0.18 1.77,-1.45 1.44,-2.24 -0.33,-0.78 -2.46,-1.28 -3.19,-1.67 -1.39,-0.77 -2.72,-1.2 -2.88,-2.99 -0.14,-1.3 2.84,-6.79 -0.15,-5.99 z"
       style="fill:#2f2f2f;stroke-width:0.977193"
       id="path23797-4" />
    <path
       style="fill:#2f2f2f;stroke-width:0.977193"
       d="m -20.858205,88.237874 c 1.297459,-2.58 1.816443,-5.479997 1.177694,-8.639997 -0.42916,-2.14 -0.389238,-4.68 -1.786501,-6.48 -2.036012,-2.64 -2.335426,3.12 -2.614879,3.99 -0.768494,2.48 -2.026031,4.65 -3.33347,6.86 -2.075934,3.529997 -5.28964,5.989997 -8.413521,8.479997 -2.754605,2.21 -6.247763,3.91 -9.521351,5.2 -0.998045,0.39 -3.672806,0.85 -4.052063,2.02 -0.998046,2.999996 6.317625,1.799996 7.405495,1.659996 7.425456,-1 17.435849,-5.739996 21.138596,-13.089996 z"
       id="path24160" />
    <path
       style="fill:#2f2f2f;stroke-width:0.977193"
       d="m -20.528394,89.904577 c -0.21,0.899314 -0.31,1.903201 -0.44,2.405144 -2.25,9.045429 -11.88,14.838679 -19.84,17.421599 -1.74,0.56469 -3.56,0.83657 -5.28,1.49537 -0.84,0.32417 -1.23,0.47057 -1.2,1.45355 0.01,0.5124 0.07,0.8784 0.4,1.26531 1.14,1.3908 3.96,1.08754 5.52,1.01434 3.29,-0.1464 6.57,-1.13983 9.61,-2.46788 5.55,-2.42606 10.5,-5.83509 13.68,-11.15777 0.54,-0.89932 1.457978,-3.215164 0.962162,-7.837674 -0.377838,-3.522599 -1.112162,-5.756619 -2.432162,-5.380162 -0.48,0.156858 -0.78,0.920229 -0.98,1.788173 z"
       id="path24158"
       sodipodi:nodetypes="cccccccccccc" />
    <path
       style="fill:#2f2f2f;stroke-width:0.977193"
       d="m -133.95898,92.164719 c 0.28,-0.68 0.69,-1.3 1.37,-1.45 0.97,-0.21 1.9,0.72 2.34,1.48 0.71,1.22 0.47,2.75 0.8,4.1 0.37,1.56 0.95,3.2 1.66,4.630001 2.22,4.44999 6.05,7.12999 10.52,9.02999 1.98,0.84 13.43,4.53 6.14,6.27 -5.58,1.34 -11.52,-0.69 -16.36,-3.41 -2.4,-1.35 -4.4,-3.28 -5.78,-5.68 -2.34,-4.07 -2.24,-8.949991 -1.16,-13.389991 0.12,-0.45 0.26,-1.04 0.47,-1.58 z"
       id="path23799-4" />
    <path
       d="m -71.978852,36.347877 c 0.21,-1.69 0.19,-3.41 0.47,-5.1 0.33,-2 2.97,-1.49 4.3,-1.1 1.37,0.39 2.33,0.28 1.58,-1.33 -0.72,-1.57 -1.89,-1.87 -3.47,-1.65 -2.37,0.34 -4.73,-0.15 -7.11,-0.21 -2.19,-0.05 -4.39,-0.04 -6.59,0.07 -1.72,0.09 -3.82,-0.01 -5.06,1.49 -1.39,1.71 2.69,0.88 3.58,1.33 1.83,0.93 1.82,3.65 1.85,5.41 0.03,2.75 0.07,5.5 0.55,8.21 0.39,2.2 1.27,7.22 4.43,6.89 0.16,-0.02 0.32,-0.05 0.47,-0.1 3.58,-1 4.1,-6.69 4.43,-9.68 0.11,-0.94 0.37,-2.5 0.57,-4.23 z"
       style="fill:#2f2f2f;stroke-width:0.977193"
       id="path23803-4" />
    <path
       d="m -89.828852,34.217877 c -1.9,0.6 -4.59,1.2 -5.95,2.72 -2.05,2.3 2.18,2.35 3.56,2.24 4.34,-0.35 8.4,-1.71 12.85,-1.77 6.7,-0.09 12.89,1.33 19.45,2.19 1.45,0.2 4.58,-0.34 2.95,-2.38 -1.85,-2.33 -6.18,-2.91 -8.92,-3.66 -1.16,-0.31 -2.39,-0.45 -3.57,-0.7 -6.37,-1.32 -14.15,-0.59 -20.37,1.36 z"
       style="fill:#2f2f2f;stroke-width:0.977193"
       id="path23805-5" />
    <path
       d="m -89.538852,42.107877 c -0.8,0.25 -2,0.73 -2.13,1.69 -0.16,1.16 1.41,1.9 2.34,2.07 1.2,0.21 2.57,-0.28 3.71,-0.49 1.63,-0.29 3.29,-0.54 4.96,-0.56 5.68,-0.08 10.92,1.13 16.48,1.86 1.25,0.16 3.89,-0.29 2.51,-2.02 -1.56,-1.97 -5.23,-2.47 -7.57,-3.11 -0.99,-0.27 -2.03,-0.38 -3.03,-0.59 -5.38,-1.12 -11.98,-0.5 -17.27,1.15 z"
       style="fill:#2f2f2f;stroke-width:0.977193"
       id="path23807-8" />
    <path
       d="m -81.718852,75.777877 c 0.04,0.99 0.2,2.12 0.19,2.61 -0.04,0.95 -0.02,2 -0.33,2.9 -3.12,8.959997 -21.439998,4.939997 -25.769998,-0.85 -0.75,-1 -1.33,-1.63 -1.62,-2.85 -0.25,-1.09 -0.5,-2.18 -0.68,-3.29 -0.2,-1.18 -1.13,-1.57 -2.32,-1.02 -2.33,1.09 -2.7,4.46 -2.54,6.7 0.74,10.659997 12.15,14.439997 21.259998,14.649997 2.24,0.05 4.64,0.15 6.81,-0.47 2.93,-0.82 5.55,-3.42 8.55,-3.83 2.7,-0.37 4.7,1.59 7.1,2.48 9.12,3.34 22.45,4.36 29.16,-4.17 1.57,-2 2.18,-4.749997 2.55,-7.169997 0.34,-2.27 0.5,-4.48 -1.52,-6.14 -2.16,-1.8 -2.6,2.22 -2.86,3.49 -0.61,2.94 -1.48,4.78 -4.3,6.279997 -4.8,2.56 -10.23,2.19 -15.42,1.28 -3.29,-0.59 -8.92,-0.58 -9.42,-4.859997 -0.14,-1.11 -0.32,-2.35 -0.19,-3.47 0.09,-0.7 0.39,-1.32 0.44,-2.02 0.08,-1.36 0.01,-2.21 -1.39,-2.28 -1.07,-0.05 -2.15,0.04 -3.22,0.04 -0.9,0 -3.64,-0.45 -4.24,0.31 -0.24,0.27 -0.27,0.94 -0.24,1.68 z"
       style="fill:#2f2f2f;stroke-width:0.977193"
       id="path23813-6" />
  </g>
</svg>
