<?xml version="1.0" encoding="UTF-8" standalone="no"?>
<svg
   width="100%"
   height="100%"
   viewBox="0 0 128 128"
   version="1.1"
   xml:space="preserve"
   style="fill-rule:evenodd;clip-rule:evenodd;stroke-linejoin:round;stroke-miterlimit:1.41421;"
   id="svg82"
   sodipodi:docname="emoji_u1fa79.svg"
   inkscape:version="1.3 (0e150ed6c4, 2023-07-21)"
   xmlns:inkscape="http://www.inkscape.org/namespaces/inkscape"
   xmlns:sodipodi="http://sodipodi.sourceforge.net/DTD/sodipodi-0.dtd"
   xmlns="http://www.w3.org/2000/svg"
   xmlns:svg="http://www.w3.org/2000/svg"><defs
   id="defs82"><inkscape:path-effect
   effect="fillet_chamfer"
   id="path-effect82"
   is_visible="true"
   lpeversion="1"
   nodesatellites_param="F,0,1,1,0,3.0129032,0,1 @ F,0,1,1,0,3.0129032,0,1 @ F,0,1,1,0,3.0129032,0,1 @ F,0,0,1,0,3.0129032,0,1"
   radius="0"
   unit="px"
   method="auto"
   mode="F"
   chamfer_steps="1"
   flexible="false"
   use_knot_distance="true"
   apply_no_radius="true"
   apply_with_radius="true"
   only_selected="false"
   hide_knots="false" />&#10;        &#10;        &#10;    </defs><sodipodi:namedview
   id="namedview82"
   pagecolor="#ffffff"
   bordercolor="#000000"
   borderopacity="0.25"
   inkscape:showpageshadow="2"
   inkscape:pageopacity="0.0"
   inkscape:pagecheckerboard="0"
   inkscape:deskcolor="#d1d1d1"
   inkscape:zoom="2.867097"
   inkscape:cx="113.18068"
   inkscape:cy="70.977716"
   inkscape:window-width="1366"
   inkscape:window-height="697"
   inkscape:window-x="-8"
   inkscape:window-y="-8"
   inkscape:window-maximized="1"
   inkscape:current-layer="svg82" />&#10;    &#10;    <g
   id="g101"
   transform="rotate(45,64.000247,64.000599)"><path
     id="circle101"
     style="fill:#f79329;stroke-width:0.999999;stroke-linecap:round"
     d="M 67.532674,-88.918945 A 3.5326741,3.5326741 0 0 1 64,-85.386271 3.5326741,3.5326741 0 0 1 60.467326,-88.918945 3.5326741,3.5326741 0 0 1 64,-92.451619 a 3.5326741,3.5326741 0 0 1 3.532674,3.532674 z m 10.624939,0 a 3.5326741,3.5326741 0 0 1 -3.532674,3.532674 3.5326741,3.5326741 0 0 1 -3.532674,-3.532674 3.5326741,3.5326741 0 0 1 3.532674,-3.532674 3.5326741,3.5326741 0 0 1 3.532674,3.532674 z m -21.249874,0 a 3.5326741,3.5326741 0 0 1 -3.532674,3.532674 3.5326741,3.5326741 0 0 1 -3.532674,-3.532674 3.5326741,3.5326741 0 0 1 3.532674,-3.532674 3.5326741,3.5326741 0 0 1 3.532674,3.532674 z m 15.937405,-8.854111 a 3.5326741,3.5326741 0 0 1 -3.532675,3.532674 3.5326741,3.5326741 0 0 1 -3.532674,-3.532674 3.5326741,3.5326741 0 0 1 3.532674,-3.532674 3.5326741,3.5326741 0 0 1 3.532675,3.532674 z m -10.624939,0 a 3.5326741,3.5326741 0 0 1 -3.532674,3.532674 3.5326741,3.5326741 0 0 1 -3.532675,-3.532674 3.5326741,3.5326741 0 0 1 3.532675,-3.532674 3.5326741,3.5326741 0 0 1 3.532674,3.532674 z m 5.312469,-9.145894 A 3.5326741,3.5326741 0 0 1 64,-103.38628 3.5326741,3.5326741 0 0 1 60.467326,-106.91895 3.5326741,3.5326741 0 0 1 64,-110.45163 a 3.5326741,3.5326741 0 0 1 3.532674,3.53268 z m 10.624939,0 a 3.5326741,3.5326741 0 0 1 -3.532674,3.53267 3.5326741,3.5326741 0 0 1 -3.532674,-3.53267 3.5326741,3.5326741 0 0 1 3.532674,-3.53268 3.5326741,3.5326741 0 0 1 3.532674,3.53268 z m -21.249874,0 a 3.5326741,3.5326741 0 0 1 -3.532674,3.53267 3.5326741,3.5326741 0 0 1 -3.532674,-3.53267 3.5326741,3.5326741 0 0 1 3.532674,-3.53268 3.5326741,3.5326741 0 0 1 3.532674,3.53268 z m 15.937405,-8.85411 a 3.5326741,3.5326741 0 0 1 -3.532675,3.53267 3.5326741,3.5326741 0 0 1 -3.532674,-3.53267 3.5326741,3.5326741 0 0 1 3.532674,-3.53268 3.5326741,3.5326741 0 0 1 3.532675,3.53268 z m -10.624939,0 a 3.5326741,3.5326741 0 0 1 -3.532674,3.53267 3.5326741,3.5326741 0 0 1 -3.532675,-3.53267 3.5326741,3.5326741 0 0 1 3.532675,-3.53268 3.5326741,3.5326741 0 0 1 3.532674,3.53268 z m 5.312469,76.692372 A 3.5326741,3.5326741 0 0 0 64,-42.613363 3.5326741,3.5326741 0 0 0 60.467326,-39.080688 3.5326741,3.5326741 0 0 0 64,-35.548014 a 3.5326741,3.5326741 0 0 0 3.532674,-3.532674 z m 10.624939,0 a 3.5326741,3.5326741 0 0 0 -3.532674,-3.532675 3.5326741,3.5326741 0 0 0 -3.532674,3.532675 3.5326741,3.5326741 0 0 0 3.532674,3.532674 3.5326741,3.5326741 0 0 0 3.532674,-3.532674 z m -21.249874,0 a 3.5326741,3.5326741 0 0 0 -3.532674,-3.532675 3.5326741,3.5326741 0 0 0 -3.532674,3.532675 3.5326741,3.5326741 0 0 0 3.532674,3.532674 3.5326741,3.5326741 0 0 0 3.532674,-3.532674 z m 15.937405,8.85411 a 3.5326741,3.5326741 0 0 0 -3.532675,-3.532674 3.5326741,3.5326741 0 0 0 -3.532674,3.532674 3.5326741,3.5326741 0 0 0 3.532674,3.532674 3.5326741,3.5326741 0 0 0 3.532675,-3.532674 z m -10.624939,0 a 3.5326741,3.5326741 0 0 0 -3.532674,-3.532674 3.5326741,3.5326741 0 0 0 -3.532675,3.532674 3.5326741,3.5326741 0 0 0 3.532675,3.532674 3.5326741,3.5326741 0 0 0 3.532674,-3.532674 z m 5.312469,9.14589 A 3.5326741,3.5326741 0 0 0 64,-24.613363 3.5326741,3.5326741 0 0 0 60.467326,-21.080688 3.5326741,3.5326741 0 0 0 64,-17.548014 a 3.5326741,3.5326741 0 0 0 3.532674,-3.532674 z m 10.624939,0 a 3.5326741,3.5326741 0 0 0 -3.532674,-3.532675 3.5326741,3.5326741 0 0 0 -3.532674,3.532675 3.5326741,3.5326741 0 0 0 3.532674,3.532674 3.5326741,3.5326741 0 0 0 3.532674,-3.532674 z m -21.249874,0 a 3.5326741,3.5326741 0 0 0 -3.532674,-3.532675 3.5326741,3.5326741 0 0 0 -3.532674,3.532675 3.5326741,3.5326741 0 0 0 3.532674,3.532674 3.5326741,3.5326741 0 0 0 3.532674,-3.532674 z m 15.937405,8.854112 a 3.5326741,3.5326741 0 0 0 -3.532675,-3.532674 3.5326741,3.5326741 0 0 0 -3.532674,3.532674 3.5326741,3.5326741 0 0 0 3.532674,3.5326742 3.5326741,3.5326741 0 0 0 3.532675,-3.5326742 z m -10.624939,0 a 3.5326741,3.5326741 0 0 0 -3.532674,-3.532674 3.5326741,3.5326741 0 0 0 -3.532675,3.532674 3.5326741,3.5326741 0 0 0 3.532675,3.5326742 3.5326741,3.5326741 0 0 0 3.532674,-3.5326742 z m 1.779444,12.89435291 c -15.479081,0 -23.916703,-9.74722391 -23.916703,-21.75092591 v -85.835441 c 0,-12.00369 8.437622,-21.74881 23.916703,-21.74881 15.479081,0 23.9167,9.74512 23.9167,21.74881 v 85.835441 c 0,12.003702 -8.437619,21.75092591 -23.9167,21.75092591 z"
     transform="scale(1,-1)" /><g
     transform="matrix(0,-1.2798502,1.9837684,0,-26.622284,145.5794)"
     id="g1"
     style="stroke-width:0.922554">&#10;        &#10;    </g><path
     d="m 47.71158,52.704904 v 22.589857 a 4.2530127,4.2530127 0 0 0 4.253012,4.253012 h 24.06969 a 4.2530127,4.2530127 0 0 0 4.253012,-4.253012 V 52.704904 a 4.2530127,4.2530127 0 0 0 -4.253012,-4.253012 h -24.06969 a 4.2530127,4.2530127 0 0 0 -4.253012,4.253012 z"
     style="fill:#fcc21b;stroke:none;stroke-width:0.694762"
     id="path2"
     sodipodi:nodetypes="ccccc" /></g>&#10;    &#10;    &#10;    &#10;    &#10;    &#10;    &#10;    &#10;    &#10;    &#10;    &#10;    &#10;    &#10;    &#10;    &#10;    &#10;    &#10;    &#10;    &#10;    &#10;    &#10;    &#10;    &#10;    &#10;    &#10;    &#10;    &#10;    &#10;    &#10;    &#10;    &#10;    &#10;    &#10;    &#10;    &#10;    &#10;    &#10;    &#10;    &#10;    &#10;    &#10;    &#10;    &#10;    &#10;    &#10;    &#10;    &#10;    &#10;    &#10;    &#10;    &#10;    &#10;    &#10;    &#10;    &#10;    &#10;    &#10;    &#10;    &#10;    &#10;    &#10;    &#10;    &#10;    &#10;    &#10;    &#10;    &#10;    &#10;    &#10;    &#10;    &#10;    &#10;    &#10;    &#10;    &#10;    &#10;    &#10;    &#10;    &#10;    &#10;</svg>
