<?xml version="1.0" encoding="UTF-8" standalone="no"?>
<!-- Generator: Adobe Illustrator 25.2.3, SVG Export Plug-In . SVG Version: 6.00 Build 0)  -->

<svg
   version="1.1"
   id="Layer_2"
   x="0px"
   y="0px"
   viewBox="0 0 128 128"
   style="enable-background:new 0 0 128 128;"
   xml:space="preserve"
   sodipodi:docname="emoji_u1f6f7.svg"
   inkscape:version="1.3 (0e150ed6c4, 2023-07-21)"
   xmlns:inkscape="http://www.inkscape.org/namespaces/inkscape"
   xmlns:sodipodi="http://sodipodi.sourceforge.net/DTD/sodipodi-0.dtd"
   xmlns="http://www.w3.org/2000/svg"
   xmlns:svg="http://www.w3.org/2000/svg"><defs
   id="defs17"><clipPath
     clipPathUnits="userSpaceOnUse"
     id="clipPath27"><path
       style="fill:#f79329;stroke:none;stroke-width:6;stroke-linecap:round"
       d="m 58.193304,199.17059 c -6.293062,2.18491 -27.223269,23.02365 -40.004446,37.24657 -7.692016,8.55969 -4.15732,17.46346 6.276855,23.79888 10.434175,6.33542 19.000616,3.73766 28.499122,-5.52133 13.920306,-13.56931 37.6694,-33.05962 36.667951,-38.09032 -0.490685,-2.46492 -8.894831,-5.80994 -15.675565,-9.76656 -7.05821,-4.11853 -12.554297,-8.7816 -15.763917,-7.66724 z"
       id="path28"
       sodipodi:nodetypes="sssssss" /></clipPath></defs><sodipodi:namedview
   id="namedview17"
   pagecolor="#ffffff"
   bordercolor="#000000"
   borderopacity="0.25"
   inkscape:showpageshadow="2"
   inkscape:pageopacity="0.0"
   inkscape:pagecheckerboard="0"
   inkscape:deskcolor="#d1d1d1"
   inkscape:zoom="2.867097"
   inkscape:cx="44.121283"
   inkscape:cy="66.443513"
   inkscape:window-width="1366"
   inkscape:window-height="697"
   inkscape:window-x="-8"
   inkscape:window-y="-8"
   inkscape:window-maximized="1"
   inkscape:current-layer="Layer_2" />&#10;&#10;&#10;&#10;&#10;&#10;&#10;&#10;&#10;&#10;&#10;&#10;&#10;&#10;&#10;&#10;&#10;&#10;<g
   id="g23"
   transform="matrix(1.0083219,0,0,1.0083219,-0.53259914,2.9552493)"
   style="stroke-width:0.991747"><path
     id="path18"
     style="fill:#f79329;stroke-width:5.95048;stroke-linecap:round"
     d="m 30.893991,49.089657 7.696634,-4.639325 6.67316,24.513657 -7.696633,4.639325 z"
     sodipodi:nodetypes="ccccc" /><path
     id="path19"
     style="fill:#f79329;stroke-width:5.95048;stroke-linecap:round"
     d="m 55.329617,35.562499 7.696631,-4.639314 6.673159,24.513658 -7.696634,4.639314 z"
     sodipodi:nodetypes="ccccc" /><path
     id="path20"
     style="fill:#f79329;stroke-width:5.95048;stroke-linecap:round"
     d="m 79.76523,22.035341 7.696633,-4.639313 6.673148,24.513657 -7.696624,4.639325 z"
     sodipodi:nodetypes="ccccc" /><path
     style="fill:#f79329;stroke-width:0.991747"
     d="m 99.649989,35.377427 c 2.022381,-1.228621 2.379731,0.297306 3.586341,2.424005 1.10154,1.941501 2.84945,3.437019 0.0833,5.137681 L 35.688897,84.519525 C 30.830724,87.506408 25.831442,89.209205 18.57271,87.264232 5.5833981,83.783758 4.0447378,69.366989 4.9337415,67.827184 5.4335983,66.961406 6.4463072,67.251779 8.4674372,67.022731 10.488564,66.793695 11.32183,66.335404 12.097616,66.661435 c 1.772284,0.7448 0.854945,9.640131 9.013032,11.826079 5.879718,1.575474 8.642186,-0.646236 16.172406,-5.220982 z"
     id="path24"
     sodipodi:nodetypes="sssssszssss" /><path
     id="path21"
     style="fill:#f79329;stroke-width:5.95048;stroke-linecap:round"
     d="m 49.3637,72.619477 7.696632,-4.639325 6.67316,24.513657 -7.696633,4.639325 z"
     sodipodi:nodetypes="ccccc" /><path
     id="use21"
     style="fill:#f79329;stroke-width:5.95048;stroke-linecap:round"
     d="m 73.799325,59.092319 7.696631,-4.639314 6.673157,24.513658 -7.696632,4.639313 z"
     sodipodi:nodetypes="ccccc" /><path
     id="use22"
     style="fill:#f79329;stroke-width:5.95048;stroke-linecap:round"
     d="m 98.234935,45.565161 7.696635,-4.639313 6.67315,24.513657 -7.69663,4.639325 z"
     sodipodi:nodetypes="ccccc" /><path
     style="fill:#f79329;stroke-width:0.991747"
     d="m 118.1197,58.907246 c 2.02238,-1.22862 2.37973,0.297307 3.58634,2.424006 1.10152,1.9415 2.84944,3.437018 0.0833,5.137681 L 54.158607,108.04934 c -4.858172,2.98689 -9.857454,4.68968 -17.116187,2.74471 -12.989313,-3.48047 -14.527973,-17.897242 -13.638969,-19.437046 0.499857,-0.865778 1.512566,-0.575405 3.533696,-0.804453 2.021126,-0.229036 2.854392,-0.687327 3.630178,-0.361308 1.772284,0.744811 0.854946,9.640143 9.013032,11.826087 5.879718,1.57548 8.642187,-0.64623 16.172407,-5.220978 z"
     id="path22"
     sodipodi:nodetypes="sssssszssss" /><path
     style="fill:#fcc21b;stroke:none;stroke-width:5.95048;stroke-linecap:round"
     d="m 87.071772,16.384827 c -7.664677,0.555678 -37.208985,17.526949 -55.697566,29.559327 -11.126868,7.241366 -9.846613,18.218152 -0.111473,28.393047 9.735144,10.174895 20.0563,9.837951 33.40492,2.356716 C 84.230408,65.72997 116.51318,51.1029 116.8993,45.198212 117.0885,42.305059 108.72255,36.068469 102.34816,29.635085 95.71293,22.938427 90.980948,16.10141 87.071772,16.384827 Z"
     id="path23"
     sodipodi:nodetypes="sssssss" /><path
     id="path25"
     clip-path="url(#clipPath27)"
     style="fill:#f79329;stroke-width:5.15817;stroke-linecap:round"
     d="m 74.529297,189.40625 c -0.193814,-0.0125 -0.740924,0.18554 -1.453125,0.67187 -0.712201,0.48634 -1.611135,1.2282 -2.666016,2.1836 -2.109761,1.91079 -4.850053,4.6788 -8.083984,8.02344 -6.467862,6.68928 -14.916472,15.6849 -24.335938,24.78906 -10.039355,9.7033 -17.2535,16.63303 -21.919922,21.60156 -2.33321,2.48427 -4.028903,4.48015 -5.117187,6.07227 -1.0882836,1.59211 -1.5461704,2.77728 -1.5019531,3.58789 0.011717,0.21479 0.043789,0.37572 0.082031,0.47265 0.038243,0.0969 0.069445,0.12163 0.09375,0.13477 0.04861,0.0263 0.2657662,0.038 0.7070311,-0.19727 0.88253,-0.47052 2.426412,-1.76352 4.738282,-3.94336 4.623739,-4.35967 12.406741,-12.27627 25.080078,-24.52539 12.668278,-12.24422 21.708528,-21.299 27.373047,-27.65234 2.832259,-3.17667 4.819671,-5.68143 5.988281,-7.55078 0.584305,-0.93468 0.963071,-1.71076 1.142578,-2.31445 0.179507,-0.6037 0.153646,-1.01027 0.01953,-1.26368 -0.04443,-0.084 -0.04251,-0.0832 -0.146484,-0.0898 z m 6.314453,8.30664 c -0.255622,0.0105 -0.912836,0.30003 -1.753906,0.89453 -0.841071,0.5945 -1.898457,1.47007 -3.13086,2.57617 -2.464806,2.21222 -5.637704,5.34863 -9.292968,9.05078 -7.310529,7.40431 -16.552129,17.07249 -25.970704,26.17579 -10.038389,9.70236 -16.348666,15.86705 -20.107421,20.06445 -3.758755,4.1974 -4.913303,6.39426 -4.81836,8.13476 0.01086,0.19904 0.05581,0.31373 0.08399,0.35352 0.02817,0.0398 0.02292,0.0406 0.101562,0.0449 0.157284,0.009 0.62344,-0.14726 1.259766,-0.56836 1.272651,-0.8422 3.28002,-2.6175 6.066406,-5.27734 5.572773,-5.31968 14.300969,-14.192 26.974609,-26.44141 12.668577,-12.2445 20.761618,-20.34407 25.476563,-25.73633 2.357472,-2.69612 3.86976,-4.71859 4.679687,-6.21679 0.809928,-1.4982 0.893408,-2.41168 0.582032,-3 -0.03286,-0.0621 -0.01272,-0.0604 -0.150391,-0.0547 z m 7.285156,8.82031 c -0.167811,-0.0129 -0.727861,0.17731 -1.458984,0.65625 -0.731124,0.47894 -1.663158,1.21088 -2.761719,2.1543 -2.197121,1.88684 -5.064373,4.62482 -8.431641,7.93945 -6.734534,6.62927 -15.469332,15.56684 -24.892578,24.66797 -10.043993,9.70068 -17.012608,16.6909 -21.472656,21.7207 -2.230024,2.51491 -3.83193,4.54029 -4.875,6.15821 -1.04307,1.61791 -1.513265,2.82922 -1.537109,3.66601 -0.01277,0.44822 0.06733,0.72559 0.103515,0.77149 0.01809,0.0229 0.0038,0.0177 0.04492,0.0215 0.04117,0.004 0.144351,-0.008 0.298828,-0.0703 0.617912,-0.24736 1.917444,-1.24906 3.978516,-3.14063 4.122143,-3.78313 11.449141,-11.12481 24.130859,-23.37304 12.677043,-12.24372 22.241005,-21.87284 28.47461,-28.80274 3.116802,-3.46495 5.401059,-6.25741 6.818359,-8.34961 0.70865,-1.04609 1.199409,-1.91714 1.46875,-2.59375 0.269342,-0.6766 0.294531,-1.14052 0.203125,-1.36328 -0.03077,-0.075 -0.0029,-0.0557 -0.0918,-0.0625 z"
     transform="matrix(1.1142938,0.29857412,-0.29857412,1.1142938,81.694521,-222.92474)" /></g></svg>
