<?xml version="1.0" encoding="UTF-8" standalone="no"?>
<svg
   width="128"
   height="128"
   version="1.1"
   id="svg64848"
   sodipodi:docname="emoji_u1f970.svg"
   inkscape:version="1.2.2 (732a01da63, 2022-12-09)"
   xmlns:inkscape="http://www.inkscape.org/namespaces/inkscape"
   xmlns:sodipodi="http://sodipodi.sourceforge.net/DTD/sodipodi-0.dtd"
   xmlns="http://www.w3.org/2000/svg"
   xmlns:svg="http://www.w3.org/2000/svg">
  <defs
     id="defs64852" />
  <sodipodi:namedview
     id="namedview64850"
     pagecolor="#ffffff"
     bordercolor="#000000"
     borderopacity="0.25"
     inkscape:showpageshadow="2"
     inkscape:pageopacity="0.0"
     inkscape:pagecheckerboard="0"
     inkscape:deskcolor="#d1d1d1"
     showgrid="false"
     inkscape:zoom="4.0000001"
     inkscape:cx="74.124998"
     inkscape:cy="66.249998"
     inkscape:window-width="1366"
     inkscape:window-height="697"
     inkscape:window-x="-8"
     inkscape:window-y="-8"
     inkscape:window-maximized="1"
     inkscape:current-layer="svg64848" />
  <path
     d="M63.8 9.47c-62.52 0-64 70.08-64 83.95 0 13.88 28.65 25.11 64 25.11s63.99-11.23 63.99-25.11c0-13.87-1.48-83.95-63.99-83.95z"
     fill="#fcc21b"
     id="path64752" />
  <path
     d="m 29.96,62.512942 a 2.728,2.728 0 0 1 -3.73,0.93 2.72,2.72 0 0 1 -0.96,-3.71 c 0.18,-0.31 4.6,-7.62 14.37,-7.62 9.78,0 14.2,7.31 14.39,7.62 a 2.735,2.735 0 0 1 -2.36,4.11 c -0.92,0 -1.83,-0.47 -2.34,-1.32 -0.13,-0.22 -3.12,-4.96 -9.69,-4.96 -6.57,-0.01 -9.54,4.74 -9.68,4.95 z m 72.04,0.94 c -0.43,0.26 -0.91,0.38 -1.37,0.38 -0.94,0 -1.85,-0.49 -2.36,-1.34 -0.11,-0.2 -3.08,-4.94 -9.66,-4.94 -6.69,0 -9.66,4.89 -9.69,4.94 a 2.724,2.724 0 0 1 -4.69,-2.77 c 0.18,-0.31 4.6,-7.62 14.38,-7.62 9.77,0 14.18,7.31 14.36,7.62 0.76,1.3 0.32,2.98 -0.97,3.73 z m -37.55,26.98 c -19.78,0 -28.38,-10.38 -28.74,-10.82 -1.12,-1.39 -0.9,-3.42 0.48,-4.54 1.38,-1.11 3.4,-0.9 4.52,0.47 0.32,0.38 7.25,8.43 23.73,8.43 15.84,0 22.01,-9.27 22.26,-9.67 a 3.238,3.238 0 0 1 4.45,-0.98 c 1.5,0.95 1.95,2.92 1.01,4.43 -0.31,0.52 -8.14,12.68 -27.71,12.68 z"
     fill="#2f2f2f"
     id="path64844" />
  <path
     d="m 21.751479,33.515898 c -2.946681,0.813179 -5.071439,3.095327 -5.779692,5.840898 -2.019831,-1.94988 -5.071438,-2.815522 -7.9044483,-2.011087 -2.116014,0.594582 -3.87353,1.94988 -4.966513,3.856042 -1.084238,1.897417 -1.364042,4.092126 -0.778203,6.181909 2.596926,9.487087 18.3883363,13.378105 19.0528703,13.544238 0.166133,0.04372 0.332266,0.03498 0.489656,0.0087 0.201108,-0.04372 0.38473,-0.139902 0.533375,-0.288547 0.489656,-0.4984 12.014063,-12.031551 9.408393,-21.492407 -1.180421,-4.301979 -5.788435,-6.907649 -10.055438,-5.63979 z"
     style="fill:#d7598b;stroke-width:1"
     id="path65067" />
  <path
     d="M 98.308018,3.971336 C 94.759147,3.9978183 91.690603,5.9186442 90.07133,8.78481 88.392131,5.9912042 85.23006,4.103468 81.811291,4.1543058 79.259647,4.1852582 76.88145,5.1770242 75.08296,6.9862373 c -1.786059,1.8020353 -2.759326,4.1791867 -2.730301,6.6987867 0.06154,11.419525 16.601414,20.528195 17.296726,20.914187 0.17317,0.09895 0.362104,0.13907 0.546504,0.156893 0.238668,0.01138 0.47349,-0.04129 0.684852,-0.163314 0.698882,-0.411788 17.088369,-9.882553 17.009139,-21.275288 -0.0311,-5.1791055 -4.4157,-9.4858561 -9.581846,-9.3462158 z"
     style="fill:#d7598b;stroke-width:1"
     id="path65067-1" />
  <path
     d="m 115.96557,83.510787 c -2.80535,-1.591876 -6.09347,-1.47444 -8.67048,0.04567 -0.0521,-2.961926 -1.68321,-5.884707 -4.39722,-7.39829 -2.02246,-1.135187 -4.345024,-1.435296 -6.582786,-0.828558 -2.224707,0.606739 -4.071017,2.035509 -5.193157,4.031872 -5.140959,9.016256 3.738291,23.701929 4.110159,24.321709 0.09134,0.15658 0.221818,0.27402 0.358857,0.37184 0.182687,0.11741 0.39145,0.18268 0.613265,0.18268 0.737218,-0.007 17.941192,-0.0131 23.056052,-9.01626 2.32907,-4.090609 0.83508,-9.472943 -3.29465,-11.710694 z"
     style="fill:#d7598b;stroke-width:0.999996"
     id="path65067-1-4" />
</svg>
