<?xml version="1.0" encoding="UTF-8" standalone="no"?>
<svg
   width="100%"
   height="100%"
   viewBox="0 0 128 128"
   version="1.1"
   xml:space="preserve"
   style="fill-rule:evenodd;clip-rule:evenodd;stroke-linejoin:round;stroke-miterlimit:2;"
   id="svg2"
   sodipodi:docname="emoji_u1f92a.svg"
   inkscape:version="1.3 (0e150ed6c4, 2023-07-21)"
   xmlns:inkscape="http://www.inkscape.org/namespaces/inkscape"
   xmlns:sodipodi="http://sodipodi.sourceforge.net/DTD/sodipodi-0.dtd"
   xmlns="http://www.w3.org/2000/svg"
   xmlns:svg="http://www.w3.org/2000/svg"><defs
   id="defs2" /><sodipodi:namedview
   id="namedview2"
   pagecolor="#ffffff"
   bordercolor="#000000"
   borderopacity="0.25"
   inkscape:showpageshadow="2"
   inkscape:pageopacity="0.0"
   inkscape:pagecheckerboard="0"
   inkscape:deskcolor="#d1d1d1"
   inkscape:zoom="4.0546875"
   inkscape:cx="64.493256"
   inkscape:cy="72.878613"
   inkscape:window-width="1366"
   inkscape:window-height="697"
   inkscape:window-x="-8"
   inkscape:window-y="-8"
   inkscape:window-maximized="1"
   inkscape:current-layer="svg2" />&#10;    <path
   id="path10"
   d="M63.89,9.64C1.58,9.64 0.1,79.5 0.1,93.33C0.1,107.16 28.66,118.36 63.89,118.36C99.13,118.36 127.68,107.15 127.68,93.33C127.68,79.5 126.21,9.64 63.89,9.64Z"
   style="fill:rgb(252,194,27);fill-rule:nonzero;" />&#10;    <path
   id="path20"
   d="m 95.593,68.44476 c -3.385,-1.568 -7.004,0.416 -10.286,1.668 -9.14,3.487 -17.438,4.913 -21.426,5.56 -3.988,0.646 -12.312,1.915 -22.086,1.493 -3.509,-0.15 -7.57,-0.89 -10.285,1.667 -3.446,3.243 0.927,12.159 8.045,17.509 4.303,3.233 14.273,9.245 28.794,6.891 14.52,-2.354 22.08,-11.208 25.142,-15.635 5.063,-7.324 6.386,-17.163 2.102,-19.153 z"
   style="fill:#ec6c31;fill-rule:nonzero" />&#10;    <path
   id="path4"
   d="m 38.057804,95.334311 c -1.525922,5.694819 -3.638,17.276999 4.383,24.212999 1.494,1.301 3.666,2.332 6.013,2.922 l 0.02,-0.078 -0.02,0.078 c 2.354,0.561 4.757,0.65 6.681,0.193 10.326,-2.436 13.563409,-13.73649 15.093,-19.445 0.493284,-1.84096 -0.543116,-5.039652 -15.778116,-8.918652 -13.061,-3.325 -15.934179,-0.672524 -16.391884,1.035653 z"
   style="fill:#eb7aa4;fill-rule:nonzero"
   sodipodi:nodetypes="scccccscs" />&#10;    <g
   id="ellipse15"
   transform="rotate(-83.649982,2.3425705,2.0963387)">&#10;        <ellipse
   cx="-31.851"
   cy="87.140999"
   rx="16.611"
   ry="15.501"
   style="fill:#ffffff"
   id="ellipse1" />&#10;    </g>&#10;    <path
   id="path17"
   d="m 86.833,42.795678 c -0.19,2.711 -2.58,4.782 -5.333,4.618 -2.76,-0.157 -4.848,-2.498 -4.659,-5.21 0.181,-2.72 2.564,-4.782 5.325,-4.618 2.76,0.157 4.856,2.498 4.667,5.21"
   style="fill:#2f2f2f;fill-rule:nonzero" />&#10;    <g
   id="ellipse19"
   transform="rotate(-4.3130016,55.671049,2.0963963)">&#10;        <ellipse
   cx="40.18"
   cy="51.525002"
   rx="15.5"
   ry="16.611"
   style="fill:#ffffff"
   id="ellipse2" />&#10;    </g>&#10;    <path
   id="path21"
   d="m 49.815,54.267678 c 0.313,2.707 -1.654,5.184 -4.394,5.53 -2.749,0.354 -5.234,-1.564 -5.547,-4.263 -0.33,-2.708 1.638,-5.185 4.386,-5.539 2.74,-0.345 5.234,1.572 5.555,4.272"
   style="fill:#2f2f2f;fill-rule:nonzero" />&#10;</svg>
