<?xml version="1.0" encoding="UTF-8" standalone="no"?>
<svg
   width="128"
   height="128"
   version="1.1"
   id="svg67444"
   sodipodi:docname="emoji_u1f94e.svg"
   xml:space="preserve"
   inkscape:version="1.2.2 (732a01da63, 2022-12-09)"
   xmlns:inkscape="http://www.inkscape.org/namespaces/inkscape"
   xmlns:sodipodi="http://sodipodi.sourceforge.net/DTD/sodipodi-0.dtd"
   xmlns:xlink="http://www.w3.org/1999/xlink"
   xmlns="http://www.w3.org/2000/svg"
   xmlns:svg="http://www.w3.org/2000/svg"><defs
     id="defs67448" /><sodipodi:namedview
     id="namedview67446"
     pagecolor="#ffffff"
     bordercolor="#000000"
     borderopacity="0.25"
     inkscape:showpageshadow="2"
     inkscape:pageopacity="0.0"
     inkscape:pagecheckerboard="0"
     inkscape:deskcolor="#d1d1d1"
     showgrid="false"
     inkscape:zoom="2.9996795"
     inkscape:cx="46.838337"
     inkscape:cy="60.006411"
     inkscape:window-width="1366"
     inkscape:window-height="697"
     inkscape:window-x="-8"
     inkscape:window-y="-8"
     inkscape:window-maximized="1"
     inkscape:current-layer="svg67444" /><g
     id="g67442"><defs
       id="defs67419"><path
         id="c"
         d="M63.99.04C28.72.04.03 28.73.03 64c0 35.28 28.69 63.97 63.96 63.97 35.27 0 63.97-28.69 63.97-63.97C127.97 28.73 99.26.04 63.99.04z" /></defs><use
       xlink:href="#c"
       overflow="visible"
       fill="#e0e0e0"
       id="use67421"
       style="fill:#bdcf46;fill-opacity:1" /><clipPath
       id="d"><use
         xlink:href="#c"
         overflow="visible"
         id="use67423" /></clipPath><g
       clip-path="url(#d)"
       id="g67440"><defs
         id="defs67427"><path
           id="e"
           d="M132.02 64c0 37.57-30.46 68.02-68.03 68.02-37.56 0-68.02-30.46-68.02-68.02 0-37.57 30.45-68.02 68.02-68.02 37.58 0 68.03 30.45 68.03 68.02z" /></defs><clipPath
         id="f"><use
           xlink:href="#e"
           overflow="visible"
           id="use67429" /></clipPath><g
         fill="#ed6c30"
         clip-path="url(#f)"
         id="g67438"><path
           d="M118.46 23.39c-.36 0-.73-.11-1.03-.33-2.67-1.86-5.47-.93-5.6-.89-.94.32-1.99-.18-2.32-1.12-.33-.95.16-1.99 1.1-2.32.16-.06 3.37-1.18 6.93.27 1.82-3.39 5.01-4.58 5.16-4.64.95-.34 2 .15 2.33 1.1.34.94-.13 1.98-1.08 2.33-.11.05-2.87 1.13-3.73 4.26-.16.57-.58 1.03-1.14 1.24-.2.07-.4.1-.62.1zM121.81 32.64c-.37 0-.73-.11-1.04-.33-2.66-1.86-5.47-.93-5.58-.89-.94.32-1.99-.17-2.32-1.12-.33-.95.14-1.98 1.09-2.32.16-.05 3.37-1.18 6.93.27 1.82-3.39 5-4.58 5.16-4.64.95-.34 2 .15 2.34 1.1.34.94-.14 1.98-1.08 2.33-.15.06-2.87 1.14-3.72 4.26-.16.57-.58 1.03-1.14 1.24-.22.07-.43.1-.64.1zM122.05 41.94c-.19 0-.38-.03-.57-.08-.56-.19-1-.63-1.17-1.21-.96-3.11-3.82-4.12-3.85-4.13a1.822 1.822 0 0 1-1.16-2.3c.31-.96 1.34-1.48 2.3-1.17.16.05 3.38 1.14 5.3 4.47 3.52-1.55 6.76-.54 6.92-.48.96.31 1.49 1.34 1.17 2.3-.31.96-1.33 1.49-2.29 1.17-.14-.04-2.96-.87-5.56 1.08-.32.23-.7.35-1.09.35zM119 51.3a1.836 1.836 0 0 1-1.74-1.29c-.96-3.11-3.74-4.1-3.86-4.14-.94-.33-1.46-1.35-1.14-2.3.32-.95 1.34-1.47 2.29-1.16.16.05 3.39 1.14 5.3 4.47 3.52-1.55 6.76-.53 6.93-.48.95.31 1.48 1.35 1.16 2.3-.31.96-1.33 1.49-2.28 1.17-.15-.04-2.97-.86-5.56 1.08-.32.22-.71.35-1.1.35zM119.83 62.62c-.63 0-1.26-.33-1.58-.92-.08-.13-1.6-2.64-4.82-2.98-.59-.06-1.11-.4-1.4-.92-.28-.52-.31-1.14-.05-1.68 1.4-2.95-.01-5.63-.03-5.65-.5-.88-.18-2 .7-2.48.89-.5 2-.18 2.48.7.08.15 1.72 3.14.89 6.87 3.63 1.24 5.33 4.19 5.41 4.34.49.88.18 1.99-.7 2.48-.29.17-.61.24-.9.24zM111.24 67.43c-.63 0-1.25-.33-1.58-.92-.09-.13-1.6-2.64-4.82-2.98a1.86 1.86 0 0 1-1.4-.93c-.29-.51-.31-1.15-.05-1.67 1.4-2.95-.01-5.63-.02-5.65-.5-.87-.19-2 .7-2.48.88-.5 1.99-.18 2.48.69.09.15 1.72 3.13.88 6.88 3.63 1.24 5.33 4.19 5.41 4.34.49.88.18 1.98-.7 2.48-.28.17-.59.24-.9.24zM102.67 72.25c-.63 0-1.26-.33-1.6-.92-.07-.13-1.58-2.65-4.8-2.98-.59-.06-1.12-.41-1.41-.92-.29-.52-.31-1.15-.05-1.68 1.4-2.95-.02-5.63-.03-5.65-.5-.88-.18-2 .7-2.48.88-.49 2-.18 2.48.7.08.15 1.72 3.13.88 6.88 3.64 1.24 5.33 4.19 5.42 4.33.49.88.17 1.99-.7 2.49-.29.16-.6.23-.89.23zM94.59 76.83c-.58 0-1.15-.28-1.51-.79-.07-.11-1.8-2.5-5.05-2.56-.59-.01-1.14-.3-1.48-.8-.33-.49-.4-1.11-.2-1.67 1.15-3.06-.49-5.6-.51-5.62-.57-.84-.35-1.98.49-2.53.83-.57 1.97-.35 2.54.48.1.14 1.97 2.97 1.46 6.78 3.73.92 5.67 3.71 5.77 3.86.57.83.36 1.96-.47 2.53-.34.22-.7.32-1.04.32zM86.44 82.36c-.58 0-1.15-.27-1.51-.79-.08-.13-1.81-2.5-5.04-2.56-.6-.01-1.15-.31-1.48-.8-.34-.49-.41-1.11-.2-1.67 1.14-3.05-.5-5.6-.52-5.63a1.82 1.82 0 0 1 .49-2.53c.83-.56 1.98-.35 2.53.49.1.13 1.99 2.98 1.47 6.78 3.73.92 5.67 3.72 5.77 3.85.56.84.35 1.98-.49 2.53a1.7 1.7 0 0 1-1.02.33zM78.3 87.89c-.58 0-1.15-.27-1.5-.79-.09-.13-1.82-2.49-5.05-2.55-.59-.01-1.14-.31-1.48-.79-.34-.5-.41-1.12-.2-1.67 1.15-3.05-.5-5.6-.51-5.63-.57-.84-.35-1.96.49-2.53a1.83 1.83 0 0 1 2.53.48c.1.14 1.98 2.98 1.46 6.78 3.73.92 5.67 3.72 5.77 3.86.57.83.35 1.96-.49 2.53-.31.2-.66.31-1.02.31zM65.46 91.63c-.26 0-.54-.06-.79-.17-.53-.26-.91-.76-1-1.34-.55-3.21-3.18-4.55-3.3-4.61-.9-.45-1.28-1.54-.83-2.43.44-.91 1.52-1.28 2.42-.86.16.07 3.21 1.57 4.68 5.12 3.7-1.09 6.78.35 6.93.42.91.43 1.3 1.52.86 2.43-.43.9-1.51 1.29-2.42.87-.13-.06-2.81-1.25-5.65.34-.29.15-.59.23-.9.23zM61.22 100.51c-.27 0-.54-.05-.78-.17-.54-.26-.92-.75-1.01-1.33-.55-3.21-3.18-4.56-3.3-4.62a1.822 1.822 0 0 1-.82-2.44c.43-.9 1.51-1.28 2.42-.84.15.07 3.21 1.57 4.68 5.12 3.67-1.09 6.77.35 6.92.42.92.43 1.3 1.52.87 2.43-.43.91-1.52 1.3-2.42.87-.14-.05-2.82-1.25-5.65.34a2 2 0 0 1-.91.22zM56.98 109.39c-.27 0-.54-.06-.79-.18-.53-.25-.91-.75-1.02-1.34-.54-3.2-3.18-4.55-3.28-4.6a1.82 1.82 0 0 1-.83-2.44c.44-.89 1.52-1.28 2.42-.84.15.08 3.21 1.57 4.68 5.12 3.69-1.08 6.78.35 6.93.43a1.82 1.82 0 1 1-1.56 3.29c-.13-.06-2.82-1.24-5.65.34a1.9 1.9 0 0 1-.9.22zM56 118.67c-.46 0-.91-.18-1.26-.5-2.38-2.24-5.35-1.71-5.39-1.7-.99.2-1.95-.44-2.15-1.42-.2-.99.44-1.95 1.43-2.15.17-.03 3.51-.68 6.82 1.27 2.28-3.08 5.62-3.8 5.78-3.83a1.828 1.828 0 0 1 .74 3.58c-.14.03-3.01.7-4.31 3.67a1.794 1.794 0 0 1-1.66 1.08zM57.95 128.31c-.45 0-.91-.18-1.25-.49-2.38-2.24-5.36-1.71-5.39-1.7-.99.2-1.95-.44-2.15-1.43-.2-.99.43-1.96 1.43-2.15.16-.03 3.51-.68 6.82 1.27 2.28-3.08 5.61-3.79 5.78-3.83a1.831 1.831 0 0 1 .73 3.59c-.17.03-3.01.72-4.3 3.66-.24.55-.73.94-1.31 1.06-.11.01-.23.02-.36.02zM59.92 137.95c-.47 0-.91-.18-1.26-.5-2.38-2.24-5.35-1.71-5.39-1.7-.98.19-1.94-.44-2.14-1.43-.2-.99.43-1.95 1.42-2.15.17-.03 3.52-.68 6.82 1.27 2.29-3.08 5.62-3.79 5.79-3.83.98-.19 1.95.44 2.15 1.43.19.99-.43 1.94-1.42 2.16-.15.03-3.01.7-4.31 3.66-.23.55-.73.94-1.31 1.06-.11.03-.24.03-.35.03z"
           id="path67432"
           style="fill:#bf360c;fill-opacity:1" /><g
           id="g67436"><path
             d="M9.14 96.68c-.3 0-.59-.06-.86-.22-.15-.08-3.13-1.74-4.42-5.35-3.74.89-6.75-.7-6.9-.78a1.823 1.823 0 0 1-.73-2.47c.48-.89 1.57-1.22 2.46-.74.11.06 2.76 1.39 5.66-.05.53-.27 1.15-.25 1.68.03.52.29.87.8.94 1.39.38 3.23 2.95 4.71 3.05 4.76.87.5 1.19 1.61.71 2.48-.34.61-.96.95-1.59.95zM13.82 88.03c-.3 0-.59-.08-.87-.22-.15-.08-3.13-1.73-4.41-5.34-3.73.9-6.75-.69-6.9-.78a1.814 1.814 0 0 1-.73-2.47c.47-.89 1.57-1.22 2.46-.74.13.06 2.76 1.39 5.65-.05.54-.27 1.16-.25 1.68.03.53.28.88.8.95 1.39.38 3.23 2.94 4.71 3.05 4.77.87.5 1.19 1.61.71 2.48-.33.59-.95.93-1.59.93zM18.51 79.38c-.3 0-.59-.08-.87-.22-.15-.08-3.13-1.73-4.41-5.35-3.74.89-6.75-.7-6.9-.77a1.82 1.82 0 0 1-.73-2.47c.47-.89 1.57-1.21 2.46-.74.12.06 2.76 1.39 5.65-.05.54-.26 1.16-.25 1.68.03.53.28.88.8.95 1.38.38 3.23 2.94 4.71 3.05 4.77.86.49 1.19 1.6.71 2.47-.33.61-.95.95-1.59.95zM23.2 70.73c-.3 0-.59-.08-.87-.22-.15-.08-3.13-1.73-4.41-5.35-3.74.9-6.75-.69-6.9-.77-.89-.49-1.21-1.6-.73-2.48.47-.88 1.57-1.21 2.46-.74.12.07 2.76 1.39 5.65-.04.54-.27 1.16-.25 1.68.03.53.27.88.8.95 1.38.38 3.23 2.94 4.71 3.05 4.77.86.49 1.19 1.59.71 2.47-.33.61-.96.95-1.59.95zM25.78 58.8c-.06 0-.13 0-.19-.01-.17-.01-3.56-.4-6.12-3.25-3.11 2.25-6.51 1.93-6.66 1.92-1-.11-1.73-1-1.62-2.01.11-1 1.01-1.71 2-1.63.16.02 3.07.22 5.21-2.21.39-.45.97-.68 1.56-.62.58.06 1.11.4 1.39.92 1.6 2.84 4.52 3.22 4.65 3.24.99.12 1.71 1.03 1.61 2.02-.13.94-.91 1.63-1.83 1.63zM26.8 49.01c-.06 0-.13-.01-.19-.01-.17-.02-3.56-.41-6.12-3.26-3.12 2.26-6.51 1.93-6.66 1.92-1-.11-1.73-1.01-1.63-2.01.11-.99.99-1.7 2-1.63.15.02 3.07.23 5.21-2.21.38-.44.96-.68 1.56-.61.58.07 1.11.4 1.39.92 1.59 2.84 4.52 3.23 4.65 3.24a1.85 1.85 0 0 1 1.61 2.02c-.12.94-.9 1.63-1.82 1.63zM27.83 39.23c-.06 0-.13 0-.19-.01-.17-.02-3.56-.41-6.13-3.26-3.1 2.26-6.49 1.94-6.66 1.92-1-.11-1.73-1-1.63-2.01.11-.99.99-1.71 1.99-1.63.15.02 3.08.23 5.22-2.2.39-.45.97-.68 1.56-.61.58.06 1.11.41 1.39.92 1.59 2.84 4.52 3.23 4.65 3.24a1.85 1.85 0 0 1 1.61 2.02c-.11.93-.9 1.62-1.81 1.62zM29.41 31.76c-.25 0-.51-.06-.75-.17-.16-.06-3.23-1.52-4.76-5.05-3.65 1.15-6.77-.24-6.93-.32-.92-.42-1.32-1.5-.9-2.42.42-.91 1.49-1.31 2.41-.9.14.05 2.84 1.19 5.64-.42a1.76 1.76 0 0 1 1.68-.08c.54.24.93.74 1.03 1.32.6 3.2 3.25 4.51 3.36 4.56.91.43 1.3 1.51.88 2.42-.32.67-.97 1.06-1.66 1.06zM33.52 22.82c-.25 0-.51-.05-.76-.17-.15-.06-3.23-1.52-4.75-5.04-3.67 1.14-6.78-.25-6.93-.31a1.825 1.825 0 0 1-.9-2.42c.41-.91 1.49-1.31 2.41-.9.15.06 2.84 1.2 5.64-.42.51-.3 1.14-.33 1.68-.08.54.24.92.74 1.03 1.32.59 3.2 3.24 4.51 3.36 4.56.9.43 1.29 1.51.87 2.42-.31.65-.97 1.04-1.65 1.04zM37.63 13.87c-.25 0-.52-.05-.76-.16-.15-.07-3.23-1.53-4.75-5.05-3.66 1.14-6.78-.25-6.94-.32a1.842 1.842 0 0 1-.9-2.42c.42-.92 1.5-1.32 2.41-.91.16.07 2.85 1.2 5.65-.42.51-.3 1.14-.33 1.67-.08.55.25.93.74 1.03 1.33.6 3.19 3.25 4.5 3.37 4.55.9.43 1.29 1.52.86 2.42-.3.67-.96 1.06-1.64 1.06zM40.03 8.19c-.59 0-1.18-.3-1.53-.83-.1-.14-1.92-3.01-1.33-6.81-3.71-.99-5.6-3.83-5.69-3.97-.55-.84-.31-1.97.54-2.52a1.81 1.81 0 0 1 2.51.52c.09.14 1.77 2.53 4.99 2.65.6.02 1.14.34 1.47.83.32.49.38 1.12.17 1.67-1.2 3.03.38 5.61.4 5.63.55.85.31 1.98-.54 2.53-.3.2-.65.3-.99.3zM48.28 2.82c-.6 0-1.18-.3-1.53-.83-.1-.14-1.92-3.02-1.33-6.81-3.71-.99-5.6-3.82-5.69-3.97-.55-.85-.31-1.98.53-2.53.84-.55 1.98-.32 2.52.53.09.13 1.77 2.52 4.99 2.65.59.02 1.14.33 1.46.82.33.49.39 1.12.17 1.67-1.2 3.04.39 5.62.4 5.65.55.84.32 1.98-.53 2.52-.3.2-.65.3-.99.3zM55.54-2.25c-.69 0-1.35-.4-1.66-1.08-.06-.15-1.43-3.27-.27-6.93-3.51-1.55-4.94-4.64-5.01-4.79-.41-.92 0-2.01.92-2.42.92-.41 1.99 0 2.41.91.06.14 1.35 2.78 4.52 3.39.59.11 1.08.49 1.32 1.04s.21 1.17-.09 1.67c-1.65 2.81-.51 5.53-.47 5.65.4.92-.02 2-.94 2.4-.23.1-.48.16-.73.16zM64-4.78c-.8 0-1.53-.53-1.75-1.34-.04-.16-.92-3.45.8-6.88-3.23-2.08-4.17-5.35-4.21-5.51-.27-.97.31-1.98 1.28-2.25.96-.27 1.97.31 2.24 1.27.04.13.91 2.95 3.95 4.04a1.838 1.838 0 0 1 .79 2.89c-2.07 2.51-1.34 5.46-1.33 5.48.26.97-.31 1.98-1.28 2.25-.16.03-.32.05-.49.05z"
             id="path67434"
             style="fill:#bf360c;fill-opacity:1" /></g></g></g></g></svg>
