<?xml version="1.0" encoding="UTF-8" standalone="no"?>
<!-- Generator: Adobe Illustrator 25.2.3, SVG Export Plug-In . SVG Version: 6.00 Build 0)  -->

<svg
   version="1.1"
   id="Layer_1"
   x="0px"
   y="0px"
   viewBox="0 0 128 128"
   style="enable-background:new 0 0 128 128;"
   xml:space="preserve"
   sodipodi:docname="emoji_u1f9e2.svg"
   inkscape:version="1.2.2 (732a01da63, 2022-12-09)"
   xmlns:inkscape="http://www.inkscape.org/namespaces/inkscape"
   xmlns:sodipodi="http://sodipodi.sourceforge.net/DTD/sodipodi-0.dtd"
   xmlns="http://www.w3.org/2000/svg"
   xmlns:svg="http://www.w3.org/2000/svg"><defs
   id="defs8239">
	
	
	
	
	
	
	
</defs><sodipodi:namedview
   id="namedview8237"
   pagecolor="#ffffff"
   bordercolor="#000000"
   borderopacity="0.25"
   inkscape:showpageshadow="2"
   inkscape:pageopacity="0.0"
   inkscape:pagecheckerboard="0"
   inkscape:deskcolor="#d1d1d1"
   showgrid="false"
   inkscape:zoom="4.2421875"
   inkscape:cx="84.154696"
   inkscape:cy="61.996317"
   inkscape:window-width="1366"
   inkscape:window-height="697"
   inkscape:window-x="-8"
   inkscape:window-y="-8"
   inkscape:window-maximized="1"
   inkscape:current-layer="Layer_1" />
<path
   id="path8218"
   style="fill:#b5b5b5;fill-opacity:1"
   d="M 79.240234 21.986328 C 62.75256 21.83241 47.650777 31.725708 43.769531 36.720703 C 36.489539 46.080694 32.330078 67.910156 32.330078 67.910156 C 32.330078 67.910156 38.837125 67.751468 49.324219 70.083984 C 50.265163 65.999288 51.290311 61.554931 51.742188 59.521484 C 52.920823 54.217622 55.042443 49.621169 57.517578 43.138672 C 59.992715 36.656173 63.174954 33.472883 70.128906 29.347656 C 75.433304 26.20098 80.560832 23.58075 83.234375 22.232422 C 81.89717 22.082658 80.564641 21.998692 79.240234 21.986328 z " /><path
   style="fill:#b5b5b5;fill-opacity:1"
   d="m 97.1,42.89 c -0.33,-1.56 -7.05,-19.4 -7.05,-19.4 0,0 13.19,3.42 22.99,13.75 4.67,4.92 10.09,11.17 10.79,18.19 1.04,10.39 -3.11,32.2 -3.12,32.23 -0.14,0.73 -7.38,0.78 -7.95,0.79 -3.26,0.07 -14.55,-0.36 -21.04,-3.01 0.01,0 6.63,-36.55 5.38,-42.55 z"
   id="path8220" /><path
   style="fill:#005792;fill-opacity:1"
   d="m 5.26,93.26 c -0.09,1.02 -0.03,4.01 3.65,2.27 3.68,-1.74 11.31,-7.5 11.31,-7.5 0,0 -7.42,-2.77 -11.33,-0.44 -3.91,2.33 -3.54,4.65 -3.63,5.67 z"
   id="path8226" /><path
   id="path8789"
   style="fill:#37b4e2;fill-opacity:1"
   d="m 83.234375,22.232422 c -2.673543,1.348328 -7.801071,3.968558 -13.105469,7.115234 -6.953952,4.125227 -10.136191,7.308517 -12.611328,13.791016 -2.475135,6.482497 -4.596755,11.07895 -5.77539,16.382812 -0.451877,2.033447 -1.477025,6.477804 -2.417969,10.5625 6.538777,1.454341 14.615734,3.871979 23.65625,7.916016 6.959993,3.119997 23.353327,8.619248 23.353327,8.619248 0,0 5.169454,-29.428682 5.439454,-39.388672 0.18,-6.359994 -9.283955,-19.140346 -11.493953,-23.740342 l -1.798828,-0.291015 c -1.747361,-0.460065 -3.500521,-0.771297 -5.246094,-0.966797 z"
   sodipodi:nodetypes="csssccccccc" /><path
   style="fill:#005792;fill-opacity:1"
   d="M 7.56,86.27 32.34,67.91 c 0,0 5.16,-0.98 17,0.97 14.38,2.37 49.52,18.28 49.52,18.28 l -17.42,14.5 c 0,0 -10.96,8.52 -22.04,3.42 C 42.84,97.45 24.93,87.52 19.74,86.35 9.63,84.05 7.56,86.27 7.56,86.27 Z"
   id="path8228" /><g
   id="g8232"
   style="fill:#2f2f2f;fill-opacity:1">
		<path
   style="fill:#2f2f2f;fill-opacity:1"
   d="m 62.94,108.11 c -7.83,-1.94 -34.43,-16.84 -43.1,-19.5 -2.59,-0.79 -7.01,-1.69 -9.77,-0.23 -2.4,1.27 -4.45,3.77 -3.8,6.64 0.1,0.44 0.31,0.92 0.74,1.04 C 6.04,96.44 4.9,95.82 4.4,94.91 3.9,94 3.93,92.89 4.14,91.87 4.57,89.79 5.8,87.5 7.56,86.27 c 2.33,-1.63 6.43,-2.73 13.35,-0.59 12.14,3.75 36.32,18.07 42.57,19.36 9.19,1.89 17.269358,-4.07265 18.85,-4.97 1.580642,-0.904257 1.461215,-0.186374 0.365304,0.60744 C 81.606417,101.47125 72.83,110.56 62.94,108.11 Z"
   id="path8230"
   sodipodi:nodetypes="cccccsccccccc" />
	</g>
<path
   id="path9571"
   style="fill:#0f60b2;fill-opacity:1;stroke-width:5.6693;stroke-linecap:round"
   d="m 87.243503,18.483449 c -4.608335,-0.841898 -6.98412,0.477873 -7.36648,2.570824 -0.382361,2.092953 1.373316,4.167498 5.981649,5.009395 4.608333,0.841896 6.984119,-0.477871 7.36648,-2.570823 0.382363,-2.092953 -1.373314,-4.167499 -5.981649,-5.009396 z"
   sodipodi:nodetypes="zzzzz" /></svg>
