<?xml version="1.0" encoding="UTF-8" standalone="no"?>
<svg
   width="128"
   height="128"
   style="enable-background:new 0 0 128 128;"
   version="1.1"
   id="svg46112"
   sodipodi:docname="emoji_u1f927.svg"
   inkscape:version="1.2.2 (732a01da63, 2022-12-09)"
   xmlns:inkscape="http://www.inkscape.org/namespaces/inkscape"
   xmlns:sodipodi="http://sodipodi.sourceforge.net/DTD/sodipodi-0.dtd"
   xmlns:xlink="http://www.w3.org/1999/xlink"
   xmlns="http://www.w3.org/2000/svg"
   xmlns:svg="http://www.w3.org/2000/svg">
  <defs
     id="defs46116">
    <linearGradient
       inkscape:collect="always"
       id="linearGradient46656">
      <stop
         style="stop-color:#f79329;stop-opacity:1;"
         offset="0"
         id="stop46652" />
      <stop
         style="stop-color:#fcc21b;stop-opacity:1;"
         offset="1"
         id="stop46654" />
    </linearGradient>
    <radialGradient
       inkscape:collect="always"
       xlink:href="#linearGradient46656"
       id="radialGradient46658"
       cx="63.999028"
       cy="70.503216"
       fx="63.999028"
       fy="70.503216"
       r="58.208418"
       gradientTransform="matrix(1,0,0,0.44698809,0,38.989118)"
       gradientUnits="userSpaceOnUse" />
  </defs>
  <sodipodi:namedview
     id="namedview46114"
     pagecolor="#ffffff"
     bordercolor="#000000"
     borderopacity="0.25"
     inkscape:showpageshadow="2"
     inkscape:pageopacity="0.0"
     inkscape:pagecheckerboard="0"
     inkscape:deskcolor="#d1d1d1"
     showgrid="false"
     inkscape:zoom="2.9996795"
     inkscape:cx="46.671652"
     inkscape:cy="67.340526"
     inkscape:window-width="1366"
     inkscape:window-height="697"
     inkscape:window-x="-8"
     inkscape:window-y="-8"
     inkscape:window-maximized="1"
     inkscape:current-layer="svg46112" />
  <g
     id="g46739">
    <path
       d="m 0.21,92.33 c 0,13.83 28.55,25.03 63.79,25.03 35.23,0 63.79,-11.21 63.79,-25.03 C 127.79,78.5 126.31,8.65 64,8.65 1.68,8.64 0.21,78.5 0.21,92.33 Z"
       style="fill:#fcc21b"
       id="path46048" />
    <g
       id="g46094">
      <path
         d="M 83.9,94.94 C 53.65,99.86 20.29,92.92 9.3,79.42 -1.65,65.93 13.87,50.99 44.09,46.06 74.24,41.15 107.68,48.1 118.71,61.6 129.65,75.1 114.07,90.04 83.9,94.94 Z"
         style="fill:url(#radialGradient46658);fill-opacity:1"
         id="path46050" />
    </g>
    <g
       id="g46100">
      <path
         d="m 99.19,61.36 c -0.4,1.17 -1.54,1.86 -2.72,1.76 -0.21,-0.02 -0.42,-0.06 -0.63,-0.13 -8.11,-2.79 -18.7,-1.77 -18.79,-1.76 -1.21,0.12 -2.3,-0.58 -2.73,-1.68 -0.43,-1.11 -0.04,-2.37 0.91,-3.07 8.51,-6.17 21,-9.13 21.52,-9.24 1.43,-0.33 2.84,0.55 3.17,1.97 0.32,1.41 -0.56,2.83 -1.97,3.16 -0.07,0.01 -5.19,1.22 -10.85,3.61 3.28,0.19 7.04,0.87 10.45,2.03 1.38,0.48 2.11,1.98 1.64,3.35 z"
         style="fill:#2f2f2f"
         id="path46096" />
      <path
         d="m 29.65,61.36 c 0.4,1.17 1.54,1.86 2.72,1.76 0.21,-0.02 0.42,-0.06 0.63,-0.13 8.11,-2.79 18.7,-1.77 18.79,-1.76 1.21,0.12 2.3,-0.58 2.73,-1.68 0.43,-1.11 0.04,-2.37 -0.91,-3.07 -8.51,-6.17 -21,-9.13 -21.52,-9.24 -1.43,-0.33 -2.84,0.55 -3.17,1.97 -0.32,1.41 0.56,2.83 1.97,3.16 0.07,0.01 5.19,1.22 10.85,3.61 -3.28,0.19 -7.04,0.87 -10.45,2.03 -1.39,0.48 -2.12,1.98 -1.64,3.35 z"
         style="fill:#2f2f2f"
         id="path46098" />
    </g>
    <path
       d="m 62.34,98.77 c -0.77,0 -1.54,-0.29 -2.12,-0.88 -1.17,-1.17 -1.17,-3.07 0,-4.24 10.08,-10.07 25.27,-15.27 34.81,-5.73 1.17,1.17 1.17,3.07 0,4.24 -1.17,1.17 -3.07,1.17 -4.24,0 -6.69,-6.69 -18.56,-2.04 -26.33,5.73 -0.59,0.59 -1.36,0.88 -2.12,0.88 z"
       style="fill:#2f2f2f"
       id="path46102" />
    <path
       d="m 37.64,70.2 c -12.6,3.63 -36.93,5.34 -36.28,9.98 0.58,4.09 4.33,6 5.9,9.09 2.14,4.21 0.51,8.26 1.67,11.62 1.47,4.24 4.84,6.53 6.26,8.69 3.02,4.59 0.62,10.79 4.44,14.65 2.33,2.35 21.85,-10.17 29.58,-19.05 C 60.07,92.7 73.4,68.02 66.95,62.28 61.77,57.67 54.22,65.42 37.64,70.2 Z"
       style="fill:#eeeeee"
       id="path46104" />
    <path
       d="m 47.99,76.63 c -3.84,2.35 -9.01,4.88 -14.39,7.51 -4.27,2.09 -8.91,4.24 -14.08,5.47 -1.05,0.25 -2.16,1.68 0.16,1.59 5.27,-0.2 9.82,-1.92 14.49,-4.06 4.34,-1.99 10.72,-5.76 15.07,-9.72 1.55,-1.42 0.33,-1.76 -1.25,-0.79 z"
       style="fill:#e0e0e0"
       id="path46106" />
    <path
       d="m 48.73,87.92 c -2.88,2.97 -6.91,6.4 -11.1,9.96 -3.33,2.83 -6.97,5.81 -11.29,8.08 -0.88,0.46 -1.54,1.99 0.5,1.38 4.64,-1.38 8.31,-3.95 11.98,-6.92 3.41,-2.76 8.24,-7.57 11.21,-12.09 1.05,-1.61 -0.11,-1.64 -1.3,-0.41 z"
       style="fill:#e0e0e0"
       id="path46108" />
  </g>
</svg>
