<?xml version="1.0" encoding="UTF-8" standalone="no"?>
<svg
   width="128"
   height="128"
   version="1.1"
   id="svg15752"
   sodipodi:docname="emoji_u1f929.svg"
   inkscape:version="1.3 (0e150ed6c4, 2023-07-21)"
   xmlns:inkscape="http://www.inkscape.org/namespaces/inkscape"
   xmlns:sodipodi="http://sodipodi.sourceforge.net/DTD/sodipodi-0.dtd"
   xmlns:xlink="http://www.w3.org/1999/xlink"
   xmlns="http://www.w3.org/2000/svg"
   xmlns:svg="http://www.w3.org/2000/svg">
  <sodipodi:namedview
     id="namedview15754"
     pagecolor="#ffffff"
     bordercolor="#000000"
     borderopacity="0.25"
     inkscape:showpageshadow="2"
     inkscape:pageopacity="0.0"
     inkscape:pagecheckerboard="0"
     inkscape:deskcolor="#d1d1d1"
     showgrid="false"
     inkscape:zoom="4.2421874"
     inkscape:cx="63.528547"
     inkscape:cy="56.928178"
     inkscape:window-width="1366"
     inkscape:window-height="697"
     inkscape:window-x="-8"
     inkscape:window-y="-8"
     inkscape:window-maximized="1"
     inkscape:current-layer="svg15752" />
  <defs
     id="defs15738">
    <linearGradient
       gradientTransform="translate(0 -6.773)"
       xlink:href="#a"
       id="b"
       x1="95.743"
       y1="70.878"
       x2="95.743"
       y2="82.469"
       gradientUnits="userSpaceOnUse" />
    <linearGradient
       id="a">
      <stop
         offset="0"
         stop-color="#fff"
         id="stop15733" />
      <stop
         offset="1"
         stop-color="#fff"
         stop-opacity=".787"
         id="stop15735" />
    </linearGradient>
  </defs>
  <path
     d="M33.983 64.788c-1 .01-1.794.21-2.525.681h-.002c-.302.195-.547.502-.671 1.381-.125.88-.003 2.216.452 3.733.522 1.74 1.476 3.704 2.738 5.611 6.878 1.122 27.836 3.656 60.168-.18 1.203-1.85 2.115-3.745 2.62-5.431.454-1.517.576-2.855.452-3.735-.124-.88-.37-1.185-.669-1.379-.974-.628-2.061-.774-3.602-.632-1.541.141-3.379.63-5.319 1.011l.002-.002C77.305 67.882 68.27 67.96 64.002 67.96c-4.268 0-13.3-.078-23.623-2.114v.002c-1.94-.382-3.778-.87-5.32-1.011a10.564 10.564 0 0 0-1.076-.05z"
     fill="#fff"
     stroke-width="1.3"
     id="path15740" />
  <path
     d="M63.89 9.64C1.58 9.64.1 79.5.1 93.33c0 13.83 28.56 25.03 63.79 25.03 35.24 0 63.79-11.21 63.79-25.03 0-13.83-1.47-83.69-63.79-83.69z"
     fill="#fcc21b"
     id="path15742" />
  <path
     d="m 96.462,70.083623 c -3.09,-2.09 -6.98,-0.71 -10.42,0 -9.58,1.98 -18,2.06 -22.04,2.06 -4.04,0 -12.46,-0.08 -22.04,-2.06 -3.44,-0.71 -7.33,-2.09 -10.42,0 -3.92,2.65 -1.03,12.15 5.14,18.57 3.73,3.879998 12.61,11.409997 27.32,11.409997 14.71,0 23.59,-7.529999 27.32,-11.409997 6.17,-6.42 9.05,-15.92 5.14,-18.57 z"
     fill="#ec6c31"
     stroke-width="5"
     id="path15744" />
  <g
     id="g2"
     transform="matrix(1.2145257,0,0,1.2145257,-10.223491,-21.958733)"
     style="stroke-width:0.823366">
    <path
       id="path1"
       style="fill:#9531a6;stroke-width:0.823365"
       d="m 30.645497,25.396088 c -1.327949,-0.0215 -2.469174,1.15655 -2.492902,2.469235 -0.516711,4.05002 -1.033422,8.100039 -1.550133,12.150061 -4.075224,1.462186 -8.170925,2.872879 -12.233414,4.367092 -1.38179,0.657359 -1.798889,2.643479 -0.800179,3.802672 0.69791,0.823402 1.825584,1.037319 2.73884,1.541288 3.186424,1.465739 6.372847,2.931477 9.55927,4.397216 0.102636,4.334441 0.159953,8.671582 0.290805,13.004341 0.146203,1.521401 1.877058,2.597712 3.304729,2.038457 1.046096,-0.375333 1.607305,-1.426278 2.3865,-2.153066 2.402882,-2.607273 4.805765,-5.214547 7.208648,-7.821822 4.118881,1.272491 8.225861,2.58904 12.352147,3.834107 1.484772,0.340863 3.048763,-0.947072 2.98126,-2.473793 -0.01576,-1.116566 -0.840071,-1.985503 -1.282026,-2.95898 -1.718807,-3.128523 -3.437615,-6.257045 -5.156423,-9.385568 2.469495,-3.514411 4.98866,-6.996385 7.427152,-10.53104 0.731747,-1.30829 -0.02614,-3.134266 -1.4713,-3.536291 -1.059855,-0.326175 -2.137252,0.173249 -3.194366,0.288015 -3.485037,0.64277 -6.970072,1.285542 -10.455109,1.928313 -2.612251,-3.407325 -5.178397,-6.852771 -7.819404,-10.236319 -0.47241,-0.465117 -1.13006,-0.738124 -1.794095,-0.723918 z" />
    <path
       id="path2"
       style="fill:#9531a6;stroke-width:0.823365"
       d="m 91.580811,25.396088 c 1.327949,-0.0215 2.469169,1.15655 2.492904,2.469235 0.516707,4.05002 1.033422,8.100039 1.550129,12.150061 4.075225,1.462186 8.170936,2.872879 12.233406,4.367092 1.38179,0.657359 1.7989,2.643479 0.80019,3.802672 -0.69792,0.823402 -1.82559,1.037319 -2.73884,1.541288 -3.18643,1.465739 -6.372845,2.931477 -9.559269,4.397216 -0.102636,4.334441 -0.159955,8.671582 -0.290807,13.004341 -0.146205,1.521401 -1.877056,2.597712 -3.30473,2.038457 -1.046095,-0.375333 -1.607304,-1.426278 -2.3865,-2.153066 -2.402882,-2.607273 -4.805765,-5.214547 -7.208648,-7.821822 -4.118879,1.272491 -8.225861,2.58904 -12.352147,3.834107 -1.484772,0.340863 -3.048763,-0.947072 -2.98126,-2.473793 0.01576,-1.116566 0.840071,-1.985503 1.282027,-2.95898 1.718806,-3.128523 3.437614,-6.257045 5.156422,-9.385568 -2.469495,-3.514411 -4.98866,-6.996385 -7.427152,-10.53104 -0.731747,-1.30829 0.02614,-3.134266 1.4713,-3.536291 1.059856,-0.326175 2.137252,0.173249 3.194366,0.288015 3.485037,0.64277 6.970072,1.285542 10.45511,1.928313 2.61225,-3.407325 5.178396,-6.852771 7.819403,-10.236319 0.47241,-0.465117 1.13006,-0.738124 1.794096,-0.723918 z" />
  </g>
</svg>
