<?xml version="1.0" encoding="UTF-8" standalone="no"?>
<svg
   width="128"
   height="128"
   version="1.1"
   id="svg20"
   sodipodi:docname="emoji_u1f4bb.svg"
   inkscape:version="1.3 (0e150ed6c4, 2023-07-21)"
   xml:space="preserve"
   xmlns:inkscape="http://www.inkscape.org/namespaces/inkscape"
   xmlns:sodipodi="http://sodipodi.sourceforge.net/DTD/sodipodi-0.dtd"
   xmlns:xlink="http://www.w3.org/1999/xlink"
   xmlns="http://www.w3.org/2000/svg"
   xmlns:svg="http://www.w3.org/2000/svg"><sodipodi:namedview
     id="namedview22"
     pagecolor="#ffffff"
     bordercolor="#000000"
     borderopacity="0.25"
     inkscape:showpageshadow="2"
     inkscape:pageopacity="0.0"
     inkscape:pagecheckerboard="0"
     inkscape:deskcolor="#d1d1d1"
     showgrid="false"
     inkscape:zoom="2.6074562"
     inkscape:cx="76.127837"
     inkscape:cy="64.238855"
     inkscape:current-layer="svg20"
     inkscape:window-width="1366"
     inkscape:window-height="697"
     inkscape:window-x="-8"
     inkscape:window-y="-8"
     inkscape:window-maximized="1" /><defs
     id="defs7"><inkscape:path-effect
       effect="fillet_chamfer"
       id="path-effect1"
       is_visible="true"
       lpeversion="1"
       nodesatellites_param="F,0,0,1,0,0,0,1 @ F,0,0,1,0,0,0,1 @ F,0,0,1,0,0,0,1 @ F,0,0,1,0,0,0,1 @ F,0,1,1,0,1.6447757,0,1 | F,0,0,1,0,1.6447757,0,1 @ F,0,0,1,0,0,0,1 @ F,0,0,1,0,0,0,1 @ F,0,0,1,0,0,0,1 @ F,0,0,1,0,0,0,1"
       radius="0"
       unit="px"
       method="auto"
       mode="F"
       chamfer_steps="1"
       flexible="false"
       use_knot_distance="true"
       apply_no_radius="true"
       apply_with_radius="true"
       only_selected="false"
       hide_knots="false" /><path
       id="a"
       d="M12.47 63.07c-2.4 0-4.35-1.96-4.35-4.36V18.12c0-2.4 1.95-4.36 4.35-4.36h79.36c2.39 0 4.35 1.96 4.35 4.36v40.59c0 2.4-1.96 4.36-4.35 4.36H12.47z" /></defs><clipPath
     id="b"><use
       xlink:href="#a"
       overflow="visible"
       id="use11" /></clipPath><g
     id="g53807"
     transform="matrix(0.97779652,0,0,0.97779652,1.4210229,0.08907026)"
     style="stroke-width:1.02271"><path
       id="path53795"
       style="fill:#78a3ad;fill-opacity:1;stroke-width:1.0227"
       d="m 2.0527344,118.20703 v 2.45117 c 0,3.01924 2.6033384,5.49024 5.7832031,5.49024 H 120.17578 c 3.16974,0 5.77149,-2.471 5.77149,-5.49024 v -2.4414 z" /><path
       d="M 115.51019,76.281545 V 9.7215446 c 0,-3.14 -2.57,-5.71 -5.7,-5.71 H 18.200191 c -3.14,0 -5.71,2.57 -5.71,5.71 V 76.291545 Z"
       id="path356"
       sodipodi:nodetypes="ccssccc"
       style="fill:#78a3ad;fill-opacity:1;stroke-width:1.02271" /><path
       d="m 12.490191,76.291545 -10.4,41.550005 c -0.21,1.04 0.48,1.90009 1.55,1.9 l 120.719999,-0.01 c 1.06,-9e-5 1.76,-0.85 1.55,-1.9 l -10.4,-41.550005 z"
       id="path354"
       sodipodi:nodetypes="ccssccc"
       style="fill:#afc7cf;fill-opacity:1;stroke-width:1.02271" /><path
       id="rect474"
       style="fill:#5a818e;fill-opacity:1;stroke-width:5.94991"
       d="m 51.573387,98.00466 h 24.853228 c 2.591971,0 5.180783,-0.76738 5.860664,2.5 l 2.705053,13 c 0.679882,3.26739 -2.86703,2.5 -5.860664,2.5 H 48.868332 c -2.993635,0 -6.540546,0.76739 -5.860664,-2.5 l 2.705055,-13 c 0.679881,-3.267379 3.268692,-2.5 5.860664,-2.5 z"
       sodipodi:nodetypes="sssssssss" /><use
       xlink:href="#a"
       overflow="visible"
       fill="#006ca2"
       id="use9"
       transform="translate(11.85,-1.5184554)"
       style="fill:#196ca2;fill-opacity:1;stroke-width:1.04593" /><path
       clip-path="url(#b)"
       fill="#ffffff"
       d="M 50.73,11.35 32.85,68.11 5.22,67.83 V 11.92 Z"
       id="path14"
       transform="translate(11.85,-1.5184554)"
       style="fill:#ecf0f0;fill-opacity:1;stroke-width:1.02271" /><path
       d="M 18.782493,79.837224 H 109.2025 c 1.07,0 1.94,0.87 1.94,1.94 0,1.07 -0.87,1.94 -1.94,1.94 H 18.782493 c -1.06,0 -1.94,-0.87 -1.94,-1.94 0,-1.08 0.88,-1.94 1.94,-1.94 z M 111.0625,92.999431 H 16.932493 c -1.07,0 -1.94,-0.87 -1.94,-1.94 0,-1.07 0.87,-1.94 1.94,-1.94 H 111.0725 c 2.58667,0.0067 2.57667,3.886667 -0.01,3.88 z"
       fill="#ffffff"
       id="path16"
       sodipodi:nodetypes="ssssssscssscc"
       style="fill:#2b3b40;stroke-width:1.02271" /><path
       d="m 103.49,16.781545 v 40.22 H 24.51 v -40.22 h 78.98 m 0.2,-4.54 H 24.32 c -2.4,0 -4.35,1.96 -4.35,4.36 v 40.59 c 0,2.4 1.95,4.36 4.35,4.36 h 79.36 c 2.39,0 4.35,-1.96 4.35,-4.36 v -40.59 c 0,-2.4 -1.96,-4.36 -4.34,-4.36 z"
       fill="#006ca2"
       id="path18"
       style="fill:#196ca2;fill-opacity:1;stroke-width:1.02271" /></g></svg>
