<?xml version="1.0" encoding="UTF-8" standalone="no"?>
<svg
   width="128"
   height="128"
   style="enable-background:new 0 0 128 128;"
   version="1.1"
   id="svg18136"
   sodipodi:docname="emoji_u1f92b.svg"
   inkscape:version="1.3 (0e150ed6c4, 2023-07-21)"
   xmlns:inkscape="http://www.inkscape.org/namespaces/inkscape"
   xmlns:sodipodi="http://sodipodi.sourceforge.net/DTD/sodipodi-0.dtd"
   xmlns="http://www.w3.org/2000/svg"
   xmlns:svg="http://www.w3.org/2000/svg">
  <defs
     id="defs18140" />
  <sodipodi:namedview
     id="namedview18138"
     pagecolor="#ffffff"
     bordercolor="#000000"
     borderopacity="0.25"
     inkscape:showpageshadow="2"
     inkscape:pageopacity="0.0"
     inkscape:pagecheckerboard="0"
     inkscape:deskcolor="#d1d1d1"
     showgrid="false"
     inkscape:zoom="2.9996796"
     inkscape:cx="82.84218"
     inkscape:cy="68.507316"
     inkscape:window-width="1366"
     inkscape:window-height="697"
     inkscape:window-x="-8"
     inkscape:window-y="-8"
     inkscape:window-maximized="1"
     inkscape:current-layer="svg18136" />
  <path
     d="M 64,9.64 C 1.69,9.64 0.21,79.5 0.21,93.33 c 0,13.83 28.56,25.03 63.79,25.03 35.24,0 63.79,-11.21 63.79,-25.03 C 127.79,79.5 126.32,9.64 64,9.64 Z"
     style="fill:#fcc21b"
     id="path18126" />
  <g
     id="g23143"
     transform="matrix(0.92718071,-0.9271807,0.9271807,0.92718071,177.41987,110.36306)"
     style="stroke-width:0.762642" />
  <path
     d="m 52.604192,72.425361 c 5.626193,4.469593 17.165422,4.469593 22.791616,0"
     style="clip-rule:evenodd;fill:none;fill-rule:nonzero;stroke:#2f2f2f;stroke-width:5.24183px;stroke-linecap:round;stroke-miterlimit:10"
     id="path33798" />
  <g
     id="g11261"
     transform="translate(-0.20519794,-4.7402971)">
    <path
       d="m 42.210117,66.470276 c -4.49,0.04 -8.17,-4.27 -8.22,-9.62 -0.05,-5.37 3.55,-9.75 8.04,-9.79 4.48,-0.04 8.17,4.27 8.22,9.64 0.05,5.36 -3.55,9.73 -8.04,9.77 z m 44.109999,0 c 4.48,-0.01 8.11,-4.36 8.1,-9.71 -0.01,-5.37 -3.66,-9.7 -8.14,-9.69 -4.49,0.01 -8.129999,4.36 -8.119999,9.73 0.02,5.35 3.669999,9.68 8.159999,9.67 z"
       style="clip-rule:evenodd;fill:#2f2f2f;fill-rule:nonzero;stroke-linejoin:round;stroke-miterlimit:2"
       id="path18522" />
    <g
       transform="matrix(1.13352,0,0,0.833333,38.546317,11.500277)"
       id="g18530"
       style="clip-rule:evenodd;fill-rule:evenodd;stroke-linejoin:round;stroke-miterlimit:2">
      <ellipse
         cx="42.119999"
         cy="69"
         rx="11.88"
         ry="6"
         style="fill:#fcc21b"
         id="ellipse18528" />
    </g>
    <g
       transform="matrix(1.13352,0,0,0.833333,-5.6236435,11.500277)"
       id="g18534"
       style="clip-rule:evenodd;fill-rule:evenodd;stroke-linejoin:round;stroke-miterlimit:2">
      <ellipse
         cx="42.119999"
         cy="69"
         rx="11.88"
         ry="6"
         style="fill:#fcc21b"
         id="ellipse18532" />
    </g>
  </g>
  <path
     d="m 41.036899,95.634542 c -0.519779,0 -3.47921,13.821898 -3.47921,13.821898 l 8.174584,10.43697 9.475193,-5.25702 4.231891,-15.167526 3.071831,-0.46987 -0.189519,-1.358507 1.096628,-5.528059 -20.117577,-0.889407 z"
     style="clip-rule:evenodd;fill:none;fill-rule:nonzero;stroke-width:1.35127;stroke-miterlimit:10"
     id="path11775" />
  <g
     id="g10"
     transform="matrix(0.95512242,0,0,0.95799882,2.5237472,2.7832449)"
     style="stroke-width:1.04541">
    <g
       id="g9"
       style="stroke-width:1.04541">
      <g
         id="g8"
         style="stroke-width:1.04541">
        <g
           id="g4"
           transform="translate(-1.0001068,-2.1668981)"
           style="stroke-width:1.04541">
          <path
             d="m 40.619984,80.884707 c 2.383834,-1.180635 5.030299,1.369791 7.007302,5.050072 0.836125,1.55677 2.709578,4.583805 2.709578,4.583805 1.223774,2.070372 -0.306641,2.841866 -1.880208,4.952501 l -0.305071,0.409507 c -1.573567,2.11064 -5.027639,-0.19877 -6.131646,-2.319742 l -2.593325,-4.985872 c -1.104422,-2.12333 -2.118026,-6.050621 1.19337,-7.690271 z"
             style="clip-rule:evenodd;fill:none;fill-rule:nonzero;stroke:#2f2f2f;stroke-width:9.93148;stroke-miterlimit:10;stroke-dasharray:none;stroke-opacity:1"
             id="path12269" />
          <path
             d="m 40.619984,80.884707 c 2.383834,-1.180635 5.030299,1.369791 7.007302,5.050072 0.836125,1.55677 2.709578,4.583805 2.709578,4.583805 1.223774,2.070372 -0.306641,2.841866 -1.880208,4.952501 l -0.305071,0.409507 c -1.573567,2.11064 -5.027639,-0.19877 -6.131646,-2.319742 l -2.593325,-4.985872 c -1.104422,-2.12333 -2.118026,-6.050621 1.19337,-7.690271 z"
             style="clip-rule:evenodd;fill:#fcc21b;fill-rule:nonzero;stroke:none;stroke-width:13.0677px;stroke-miterlimit:10"
             id="path11765" />
        </g>
        <g
           id="g3"
           transform="translate(0.20410445)"
           style="stroke-width:1.04541">
          <path
             id="path12271"
             style="clip-rule:evenodd;fill:none;fill-rule:nonzero;stroke:#2f2f2f;stroke-width:9.93148;stroke-linecap:round;stroke-linejoin:round;stroke-miterlimit:10;stroke-dasharray:none;stroke-opacity:1"
             d="m 64.414924,66.453178 c -2.730649,0 -3.800367,1.262863 -3.989007,7.101457 l -0.525972,16.279349 8.521484,2.423828 -0.525972,-20.192634 c -0.03903,-1.498358 -0.282452,-5.612 -3.480533,-5.612 z"
             sodipodi:nodetypes="ssccss" />
          <path
             id="path11767"
             style="clip-rule:evenodd;fill:#fcc21b;fill-rule:nonzero;stroke:none;stroke-width:13.0677px;stroke-linecap:round;stroke-linejoin:round;stroke-miterlimit:10"
             d="m 64.414921,66.453178 c -2.730649,0 -3.800367,1.262863 -3.989007,7.101457 l -0.525972,16.279349 8.521484,2.423828 -0.525972,-20.192634 c -0.03903,-1.498358 -0.282452,-5.612 -3.480533,-5.612 z"
             sodipodi:nodetypes="ssccss" />
        </g>
      </g>
      <g
         id="g5"
         style="stroke-width:1.04541">
        <path
           d="m 69.57565,90.312345 c -7.872473,-5.577427 -16.012548,-6.480689 -22.95092,-1.756959 -5.277813,3.600166 -7.955954,5.584843 -9.474229,10.259008 -1.659788,5.136036 1.124584,7.213396 1.201703,9.454096 0.133416,4.04896 4.646403,5.57762 4.800641,6.2118 2.743941,4.95958 5.183161,11.11044 16.532327,10.76627 17.495541,-0.53057 20.561011,-27.371137 9.890478,-34.934215 z"
           style="clip-rule:evenodd;fill:none;fill-rule:nonzero;stroke:#2f2f2f;stroke-width:9.40872;stroke-miterlimit:10;stroke-dasharray:none;stroke-opacity:1"
           id="path1"
           sodipodi:nodetypes="cccccsc" />
        <path
           d="m 69.57565,90.312345 c -7.872473,-5.577427 -16.012548,-6.480689 -22.95092,-1.756959 -5.277813,3.600166 -7.955954,5.584843 -9.474229,10.259008 -1.659788,5.136036 1.124584,7.213396 1.201703,9.454096 0.133416,4.04896 4.646403,5.57762 4.800641,6.2118 2.743941,4.95958 5.183161,11.11044 16.532327,10.76627 17.495541,-0.53057 20.561011,-27.371137 9.890478,-34.934215 z"
           style="clip-rule:evenodd;fill:#fcc21b;fill-rule:nonzero;stroke:none;stroke-width:13.0677px;stroke-miterlimit:10"
           id="path11771"
           sodipodi:nodetypes="cccccsc" />
      </g>
    </g>
    <g
       id="g7"
       style="stroke-width:1.04541">
      <g
         id="path11773"
         transform="matrix(0.19279682,0,0,0.19513095,14.661524,10.785166)"
         style="clip-rule:evenodd;fill-rule:evenodd;stroke-width:5.38983;stroke-miterlimit:10">
        <path
           style="color:#000000;clip-rule:nonzero;fill:#fcc21b;fill-rule:nonzero;stroke-width:18.8644;stroke-linecap:round;stroke-linejoin:round;-inkscape-stroke:none"
           d="m 196.958,424.875 c -29.625,15.383 -77.354,51.5 -70.583,76.783 2.65,9.888 5.033,16.846 17.979,20.054"
           id="path16082" />
        <path
           style="color:#000000;clip-rule:nonzero;fill:#2f2f2f;fill-rule:nonzero;stroke-width:5.38983;stroke-linecap:round;stroke-linejoin:round;-inkscape-stroke:none"
           d="m 199.14674,422.68962 c -10.90221,3.1039 -41.42665,15.7923 -57.02955,30.68147 -7.80145,7.44459 -14.58503,15.30605 -19.20899,23.63868 -4.62396,8.33262 -7.26247,17.62363 -4.78906,26.85937 v 0.002 c 1.36106,5.07857 2.77198,10.43961 6.55859,15.46289 3.78662,5.02329 9.86663,8.75229 17.6211,10.67383 4.58167,1.13513 9.2161,-1.65865 10.35156,-6.24023 1.13513,-4.58167 -1.65865,-9.2161 -6.24023,-10.35156 -5.19152,-1.28646 -6.77816,-2.64139 -8.08204,-4.3711 -1.30368,-1.72945 -2.40857,-4.78947 -3.69726,-9.59765 v -0.002 c -0.91135,-3.4056 -0.12147,-8.1108 3.22461,-14.14062 3.34666,-6.03086 9.07496,-12.89851 16.0625,-19.56641 13.97507,-13.3358 38.42897,-29.62255 48.25406,-32.45866 2.92981,-0.84572 7.08766,-3.30661 5.758,-7.22103 -1.32282,-3.89425 -4.04824,-4.71706 -8.78329,-3.36898 z"
           id="path16084"
           sodipodi:nodetypes="sssccscccsccsssss" />
      </g>
      <path
         style="color:#000000;clip-rule:nonzero;fill:#2f2f2f;fill-rule:nonzero;stroke-width:1.04541;stroke-linecap:round;stroke-linejoin:round;stroke-miterlimit:10;-inkscape-stroke:none"
         d="m 46.059164,104.68317 c -1.716207,1.69264 -3.063468,3.60908 -3.714351,5.69538 -0.838353,2.6872 -0.151763,5.92745 2.840918,6.90264 2.511535,0.8184 5.127204,-0.63839 6.490532,-1.54262 0.926281,-0.61437 1.835948,-1.21068 2.713841,-1.75199 -0.244273,0.91042 -0.383837,1.34582 -0.414964,2.28162 -0.158982,4.77972 3.669643,7.02122 4.515458,6.12463 0.954955,-1.01228 -1.694812,-1.85131 -1.694812,-5.49873 0,-2.1069 0.460227,-3.31074 1.325912,-4.96522 0.711692,-1.36016 1.420284,-1.97224 0.857643,-2.78373 -0.62929,-0.90763 -2.845297,0.17738 -9.109804,3.80364 -1.373095,0.79483 -2.561182,1.61777 -3.643289,1.24599 -1.082108,-0.37176 -1.162123,-1.45481 -0.738709,-2.812 0.423475,-1.35738 1.441087,-2.89954 2.871996,-4.31079 2.861815,-2.82252 8.955435,-6.55828 10.996809,-7.177576 0.732524,-0.22224 0.977653,-0.60099 0.873763,-1.12299 -0.103891,-0.522007 -0.523956,-0.848839 -1.337355,-0.699034 -1.621948,0.298717 -9.401172,3.2255 -12.833588,6.61078 z"
         id="path11777"
         sodipodi:nodetypes="sssscsssssssssssss" />
    </g>
  </g>
  <path
     d="m 41.55668,106.11307 9.925759,-9.340915 17.073894,2.867449 2.691829,2.546446 -1.490127,2.39037 -8.57541,3.89871 c 0.759041,0.17796 4.618255,22.56592 -5.34934,20.26103 -2.931284,-0.67476 -16.096222,-11.26062 -16.096222,-11.26062 z"
     style="clip-rule:evenodd;fill:none;fill-rule:nonzero;stroke-width:1.35127;stroke-miterlimit:10"
     id="path11779" />
</svg>
