<?xml version="1.0" encoding="UTF-8" standalone="no"?>
<svg
   width="100%"
   height="100%"
   viewBox="0 0 128 128"
   version="1.1"
   xml:space="preserve"
   style="fill-rule:evenodd;clip-rule:evenodd;stroke-linejoin:round;stroke-miterlimit:2;"
   id="svg13"
   sodipodi:docname="emoji_u1f973.svg"
   inkscape:version="1.3 (0e150ed6c4, 2023-07-21)"
   xmlns:inkscape="http://www.inkscape.org/namespaces/inkscape"
   xmlns:sodipodi="http://sodipodi.sourceforge.net/DTD/sodipodi-0.dtd"
   xmlns="http://www.w3.org/2000/svg"
   xmlns:svg="http://www.w3.org/2000/svg"><defs
   id="defs13" /><sodipodi:namedview
   id="namedview13"
   pagecolor="#ffffff"
   bordercolor="#000000"
   borderopacity="0.25"
   inkscape:showpageshadow="2"
   inkscape:pageopacity="0.0"
   inkscape:pagecheckerboard="0"
   inkscape:deskcolor="#d1d1d1"
   inkscape:zoom="5.8339794"
   inkscape:cx="58.45067"
   inkscape:cy="46.280589"
   inkscape:current-layer="svg13" />&#10;    &#10;    &#10;    &#10;    &#10;    &#10;    &#10;    &#10;    &#10;    &#10;    &#10;    &#10;    &#10;    &#10;    &#10;<g
   id="g7"
   transform="translate(-0.00441489,9.5205655e-4)">&#10;	<g
   id="g5">&#10;		<g
   id="g4">&#10;			<g
   id="g3">&#10;				<g
   id="g2">&#10;					<g
   id="g1">&#10;						<path
   fill="#fcc21b"
   d="M 15.99,32.83 C 35.23,4.03 67.35,-9.12 101.4,8.21 c 22.78,11.6 30.71,39.11 20.8,71.46 -4.07,13.34 6.13,15.6 5.47,22.68 -1.29,13.85 -28.42,25.21 -63.48,25.21 C 29.13,127.56 1.64,116.23 0.7,102.35 -1.19,74.37 3.73,51.23 15.99,32.83"
   id="path1-7" />&#10;					</g>&#10;				</g>&#10;			</g>&#10;		</g>&#10;	</g>&#10;	&#10;	<path
   fill="#2f2f2f"
   d="m 28.48,31.84 c 0.17,-0.26 4.59,-6.51 12.03,-5.27 l 0.06,0.02 c 7.44,1.27 9.53,8.67 9.62,8.99 0.39,1.42 -0.46,2.88 -1.87,3.27 -0.39,0.11 -0.77,0.12 -1.15,0.05 -0.99,-0.17 -1.84,-0.89 -2.11,-1.91 -0.08,-0.21 -1.34,-4.46 -5.41,-5.15 h -0.01 c -4.09,-0.68 -6.69,2.9 -6.8,3.06 -0.85,1.19 -2.51,1.48 -3.72,0.64 -1.18,-0.86 -1.47,-2.49 -0.64,-3.7 z"
   id="path6-9" />&#10;	<path
   fill="#2f2f2f"
   d="m 87.49,59.32 c -0.09,-0.01 -0.2,-0.03 -0.3,-0.06 -1.35,-0.37 -2.24,-1.71 -2.02,-3.14 0.02,-0.22 0.75,-5.61 -3.49,-8.43 -4.33,-2.87 -9.18,0 -9.25,0.03 -1.31,0.81 -3.03,0.38 -3.83,-0.95 -0.8,-1.32 -0.38,-3.04 0.94,-3.85 0.34,-0.2 7.97,-4.72 15.24,0.08 7.29,4.84 5.99,13.61 5.92,13.98 -0.23,1.54 -1.67,2.59 -3.21,2.34 z"
   id="path7-2" />&#10;</g><g
   id="g14"
   transform="matrix(0.63468087,0.47290757,-0.47290757,0.63468087,144.49793,151.45573)"><g
     id="g13"
     transform="translate(-13.136397,45.834476)"><g
       transform="matrix(1.2939,0,0,1,-223.28707,-125.539)"
       id="g9">&#10;        <ellipse
   cx="61.337002"
   cy="82.058998"
   rx="4.039"
   ry="6.8060002"
   style="fill:#d84c15"
   id="ellipse9" />&#10;    </g><path
       d="m -191.35067,-59.256 c -0.441,0.01 -0.89,0.045 -1.342,0.104 -7.23,0.945 -12.402,7.726 -11.47,15.045 0.842,6.6 6.38,11.491 12.762,11.697 4.964,-0.673 4.246,-0.533 5.106,-0.643 l 42.607,-4.786 c 2.257,-0.254 3.271,-4.136 2.98,-6.416 -0.29,-2.28 -1.361,-5.227 -3.613,-4.933 l -18.246,2.383 c -9.125,0.961 -13.968,1.652 -21.426,4.142 -1.388,0.493 -2.422,1.386 -3.672,2.174 -1.404,0.75 -1.656,0.883 -3.99,0.931 -2.823,-0.286 -5.134,-2.472 -5.515,-5.463 -0.446,-3.495 1.926,-6.606 5.379,-7.057 3.283,-0.428 4.927,5.94 6.093,5.73 l 6.782,-1.229 c -0.012,-5.858 -6.159,-11.835 -12.434,-11.68 z"
       style="fill:#0083bd;fill-rule:nonzero"
       id="path10" /><g
       id="g12"
       transform="translate(-204.27067,-125.539)">&#10;        <path
   d="m 57.298,76.698 -8.201,1.072 v 11.22 l 8.201,-0.921 z m -14.874,1.943 -0.72,0.093 c -2.85,0.3 -5.257,0.58 -7.481,0.89 v 11.037 l 8.201,-0.92 z m -12.503,1.682 c -2.678,0.51 -5.272,1.17 -8.2,2.096 v 9.645 l 8.2,-0.92 z M 8.572,83.836 6.377,91.15 c 1.953,1.217 4.193,1.9 6.493,1.98 0.931,-0.127 0.956,-0.125 1.535,-0.201 l 2.406,-8.016 c -0.07,0.046 -0.134,0.092 -0.206,0.137 -1.404,0.75 -1.655,0.885 -3.99,0.933 C 11.01,85.82 9.585,85.027 8.572,83.836 Z M 1.894,72.857 c -1.427,2.41 -2.066,5.206 -1.83,7.996 L 7.808,82.74 C 7.439,82.048 7.2,81.295 7.101,80.518 c -0.298,-2.339 0.67,-4.5 2.375,-5.813 z m 18.501,-3.916 -7.179,4.551 c 2.798,0.508 4.282,5.894 5.356,5.7 L 19.93,78.945 25.05,75.7 c -0.667,-2.575 -2.396,-5.007 -4.656,-6.758 z"
   style="fill:#dd82ff;fill-opacity:0.85;fill-rule:nonzero"
   id="path12" />&#10;    </g></g><g
     id="g11"
     transform="translate(-217.40807,-79.703524)">&#10;        <path
   d="m 57.298,76.698 -8.201,1.072 v 11.22 l 8.201,-0.921 z m -14.874,1.943 -0.72,0.093 c -2.85,0.3 -5.257,0.58 -7.481,0.89 v 11.037 l 8.201,-0.92 z m -12.503,1.682 c -2.678,0.51 -5.272,1.17 -8.2,2.096 v 9.645 l 8.2,-0.92 z M 8.572,83.836 6.377,91.15 c 1.953,1.217 4.193,1.9 6.493,1.98 0.931,-0.127 0.956,-0.125 1.535,-0.201 l 2.406,-8.016 c -0.07,0.046 -0.134,0.092 -0.206,0.137 -1.404,0.75 -1.655,0.885 -3.99,0.933 C 11.01,85.82 9.585,85.027 8.572,83.836 Z M 1.894,72.857 c -1.427,2.41 -2.066,5.206 -1.83,7.996 L 7.808,82.74 C 7.439,82.048 7.2,81.295 7.101,80.518 c -0.298,-2.339 0.67,-4.5 2.375,-5.813 z m 18.501,-3.916 -7.179,4.551 c 2.798,0.508 4.282,5.894 5.356,5.7 L 19.93,78.945 25.05,75.7 c -0.667,-2.575 -2.396,-5.007 -4.656,-6.758 z"
   style="fill:#ff6b22;fill-opacity:0.85;fill-rule:nonzero"
   id="path11" />&#10;    </g></g><g
   id="g15"
   transform="translate(225.02067,123.034)"><path
     d="m -131.03367,-102.113 34.013003,-20.92 -5.998003,40.133 c 0,0 -13.959,-4.619 -28.015,-19.213 z"
     style="fill:#3183ec"
     id="path4" /><path
     d="m -122.86667,-107.137 -7.449,4.582 28.512,11.522 1.07,-7.158 z m 13.59,-8.357 -7.45,4.58 16.876003,6.82 1.07,-7.16 z m 12.256003,-7.539 -7.053003,4.338 6.040003,2.441 1.013,-6.78 z"
     style="fill:#ec6a31;fill-rule:nonzero"
     id="path5" /></g><path
   d="m 15.858807,88.940164 c 0.195222,-0.90489 0.206737,-2.156243 0.08347,-3.002479 -0.128719,-0.95119 -0.334524,-1.955244 -0.693621,-2.824148 -0.51389,-1.21911 -1.2274,-0.679113 -2.656077,-0.32002 -0.988798,0.240838 -1.901275,0.295893 -2.8806157,0.598038 -1.031861,0.316967 -2.055223,0.685438 -3.086185,0.99385 -2.421356,0.714774 -3.642867,1.346117 -3.229798,3.537307 0.301128,1.579918 0.840292,3.121486 1.251302,4.670165 0.422554,0.289263 1.275133,-0.01346 1.796819,-0.186121 0.920673,-0.302229 1.827693,-0.462238 2.747469,-0.72143 C 10.851523,91.235392 12.588069,90.837453 14.222091,90.284973 15.05295,90.021 15.698145,89.71742 15.858803,88.940164 Z M 38.410522,21.630781 c 0.779672,0.982278 1.126932,2.390075 2.971999,1.995001 1.735214,-0.371896 3.316241,-1.788595 4.863653,-2.646014 1.001313,-0.551378 1.747811,-1.404323 1.986588,-2.384472 0.272876,-1.116715 -0.197842,-1.918912 -0.746024,-2.772611 -0.408272,-0.643334 -0.663165,-1.411523 -0.981595,-2.101176 -0.32603,-0.71523 -0.843691,-1.326456 -1.181292,-2.03168 -0.226083,-0.49831 -0.148185,-0.464296 -0.687575,-0.580448 -0.339543,-0.05355 -0.684073,-0.06519 -1.026889,-0.03528 -1.736759,0.17852 -3.689298,1.986224 -4.989062,3.067662 -1.043698,0.855859 -3.09048,1.574444 -2.937731,2.918912 0.106971,0.997997 0.862567,1.878977 1.371972,2.684536 0.423759,0.648351 0.876489,1.276834 1.355956,1.885567 z"
   style="fill:#fd3353;fill-rule:nonzero"
   id="path6" /><path
   d="m 118.98315,55.426791 c -0.0663,0.412307 -1.49162,3.833849 -1.10852,3.881103 0.87614,0.08163 1.69508,0.346251 2.58146,0.443914 1.02342,0.106215 2.07928,0.156107 3.02596,0.457527 1.1412,0.364749 1.86643,0.01581 2.37786,-0.621158 0.71889,-0.901665 0.99755,-2.389473 1.36317,-3.324271 0.28615,-0.732284 0.47833,-1.549243 -0.0574,-1.973239 -0.61452,-0.475875 -1.65452,-0.66004 -2.46884,-0.792798 -1.02084,-0.168594 -2.1513,-0.550917 -3.2111,-0.504324 -1.44592,0.04473 -2.30814,1.316129 -2.50263,2.433246 z M 58.432836,94.435338 c -1.270625,-0.34772 -2.51076,-0.479386 -3.818121,-0.646516 -0.461434,-0.06378 -0.751709,-0.229159 -1.247899,0.06354 -0.638087,0.36277 -1.3737,1.433681 -1.743666,2.018071 -0.879817,1.44114 -1.541174,2.83779 -2.165115,4.316677 -0.33907,0.79102 -1.302617,2.12904 -1.107379,2.8954 0.171105,0.64671 1.247247,0.92304 1.850791,1.13617 0.809597,0.27451 1.573554,0.68753 2.394632,0.90726 1.055669,0.27874 2.508183,0.54177 3.654756,0.54485 0.632681,0.007 1.089284,-0.28054 1.451427,-0.68808 0.331984,-0.36745 0.588156,-0.83217 0.843082,-1.26055 1.286518,-2.20612 2.894868,-5.483127 2.942961,-7.848317 0.02593,-1.120444 -2.116817,-1.179654 -3.055469,-1.438505 z"
   style="fill:#50e740;fill-rule:nonzero"
   id="path7" /><path
   d="m 110.58829,75.648749 c -0.68434,-0.897223 -1.29304,-1.717771 -2.10899,-2.54501 -0.79819,-0.795918 -1.38651,-0.896988 -2.44085,-0.01326 -0.66502,0.542402 -1.41507,0.999661 -2.05205,1.573295 -0.60496,0.534801 -1.1163,1.182063 -1.72169,1.734351 -0.43157,0.398606 -1.27066,0.848851 -1.52947,1.357594 -0.35517,0.713927 0.30654,1.210187 0.703,1.652169 0.49132,0.552587 0.86085,1.174201 1.40206,1.721508 0.69303,0.685401 1.44876,1.319178 2.23294,1.940281 0.64169,0.5076 1.40871,1.315439 2.14543,1.678379 0.20594,0.09363 0.43003,0.140199 0.65641,0.136042 0.89963,-6.5e-4 1.99215,-0.597969 2.71283,-1.060418 0.98483,-0.627099 1.94933,-1.498991 2.82143,-2.270247 1.36499,-1.2138 0.13971,-2.420553 -0.59539,-3.312003 -0.73546,-0.855604 -1.53145,-1.678059 -2.22566,-2.592681 z"
   style="fill:#fd3353;fill-rule:nonzero"
   id="path8" /><path
   d="m 109.65836,96.297603 c -0.63906,-0.55162 -1.43264,-1.21567 -2.35075,-1.458569 -0.81177,-0.221558 -1.68347,0.540269 -2.36366,0.988969 -0.76299,0.50137 -1.39312,1.17227 -1.97435,1.83615 -0.52921,0.61371 -1.239,1.29413 -1.64269,1.97923 -0.46716,0.781997 0.11808,0.979057 0.70623,1.335397 0.70346,0.43811 1.4158,0.89188 2.00547,1.44966 0.79906,0.76094 1.59415,1.62643 2.44559,2.30942 0.2868,0.23631 0.64232,0.26126 1.02127,0.1511 1.1898,-0.32831 2.65174,-1.98557 3.36835,-2.56065 0.57167,-0.45157 1.57323,-1.24792 1.7678,-1.89841 0.23852,-0.735177 -0.20084,-1.356297 -0.57425,-1.897547 -0.60603,-0.87264 -1.56776,-1.51496 -2.40901,-2.23475 z"
   style="fill:#50e740;fill-rule:nonzero"
   id="path9" /><path
   d="m 19.298958,16.685943 c 0.22302,0.103493 0.438411,0.154989 0.636863,0.156314 1.046,0.03249 1.788596,-1.188357 2.653012,-2.029968 1.038704,-0.986362 2.259076,-1.820507 3.212312,-2.874524 1.026023,-1.152739 0.299488,-1.9743261 -0.691805,-2.3929941 -1.078993,-0.451725 -2.032246,-1.068963 -3.099233,-1.548181 -0.950809,-0.432416 -1.716069,-0.827459 -2.82398,-0.08693 -1.006586,0.673907 -1.592731,1.708389 -2.301411,2.5996721 -1.314239,1.664354 -3.500682,3.150595 -1.472163,4.535463 1.134515,0.778879 2.627079,1.045648 3.886405,1.641151 z M 29.93003,60.721956 c -0.345605,-0.721378 -1.277356,-0.408273 -2.173917,-0.469134 -1.991226,-0.15083 -4.030834,0.154494 -6.08741,0.417711 -0.765151,0.098 -2.693007,0.08942 -3.264871,0.769828 -0.457169,0.552193 -0.119385,1.484899 -0.08357,2.053109 l 0.145683,2.216288 c 0.0253,0.348878 -0.138996,2.675325 0.190401,2.826578 0.561786,0.271276 1.661712,-0.03714 2.317443,-0.129448 1.204187,-0.18934 2.392712,-0.473253 3.615146,-0.630407 1.57969,-0.202148 3.289244,-0.438813 4.833887,-0.970524 0.588945,-1.333771 0.494083,-2.632883 0.550862,-4.021383 0.02685,-0.646254 0.219903,-1.498188 -0.04278,-2.063111 z"
   style="fill:#50e740;fill-rule:nonzero"
   id="path13" /></svg>
