<?xml version="1.0" encoding="UTF-8" standalone="no"?>
<!-- Generator: Adobe Illustrator 25.2.3, SVG Export Plug-In . SVG Version: 6.00 Build 0)  -->

<svg
   version="1.1"
   id="Layer_3"
   x="0px"
   y="0px"
   viewBox="0 0 128 128"
   style="enable-background:new 0 0 128 128;"
   xml:space="preserve"
   sodipodi:docname="emoji_u1f9f1.svg"
   inkscape:version="1.3 (0e150ed6c4, 2023-07-21)"
   xmlns:inkscape="http://www.inkscape.org/namespaces/inkscape"
   xmlns:sodipodi="http://sodipodi.sourceforge.net/DTD/sodipodi-0.dtd"
   xmlns="http://www.w3.org/2000/svg"
   xmlns:svg="http://www.w3.org/2000/svg"><defs
   id="defs75739">&#10;	&#10;	&#10;	&#10;<linearGradient
   id="SVGID_2_"
   gradientUnits="userSpaceOnUse"
   x1="63.9951"
   x2="63.9951"
   y1="0.6375"
   y2="127.5806"
   gradientTransform="translate(1.5e-6,0.005)"><stop
     offset="0"
     style="stop-color:#ED6C30"
     id="stop1" /><stop
     offset="0.5337"
     style="stop-color:#F79329"
     id="stop2" /><stop
     offset="1"
     style="stop-color:#FCC21B"
     id="stop3" /></linearGradient><clipPath
   clipPathUnits="userSpaceOnUse"
   id="clipPath1"><path
     id="path1"
     d="m 123.30073,111.40206 c 0,6.17195 -5.04135,11.2133 -11.2133,11.2133 H 15.903297 c -6.1626788,0 -11.2132957,-5.04135 -11.2132957,-11.2133 V 15.21793 c 0,-6.1719468 5.0413497,-11.2132965 11.2132957,-11.2132965 H 112.0967 c 6.16268,0 11.21329,5.0413497 11.21329,11.2132965 v 96.18413 z"
     style="fill:#000000;fill-opacity:1;stroke-width:1" /></clipPath></defs><sodipodi:namedview
   id="namedview75737"
   pagecolor="#ffffff"
   bordercolor="#000000"
   borderopacity="0.25"
   inkscape:showpageshadow="2"
   inkscape:pageopacity="0.0"
   inkscape:pagecheckerboard="0"
   inkscape:deskcolor="#d1d1d1"
   showgrid="false"
   inkscape:zoom="2.9996796"
   inkscape:cx="51.83887"
   inkscape:cy="58.839617"
   inkscape:window-width="1366"
   inkscape:window-height="697"
   inkscape:window-x="-8"
   inkscape:window-y="-8"
   inkscape:window-maximized="1"
   inkscape:current-layer="Layer_3" />&#10;<g
   id="g75977"
   transform="matrix(1.0790761,0,0,1.0790761,-5.0608668,-4.3163043)"
   style="stroke-width:0.926719"
   clip-path="url(#clipPath1)"><path
     style="fill:#afc7cf;stroke-width:0.926719"
     d="M 119.56,122.62 H 8.45 c -2.45,0 -4.44,-1.99 -4.44,-4.44 V 8.44 C 4.01,5.99 6,4 8.45,4 h 111.11 c 2.45,0 4.44,1.99 4.44,4.44 v 109.74 c 0,2.45 -1.99,4.44 -4.44,4.44 z"
     id="path75576"
     sodipodi:nodetypes="sssssssss" /><g
     id="g75732"
     style="stroke-width:0.926719">&#10;		<g
   id="g75664"
   style="stroke-width:0.926719">&#10;			<g
   id="g75662"
   style="stroke-width:0.926719">&#10;				<path
   style="fill:#ed6c30;fill-opacity:1;stroke-width:0.926719"
   d="M 39.65,16.53 H 5.91 c -1.05,0 -1.9,-0.85 -1.9,-1.9 V 5.9 C 4.01,4.85 4.86,4 5.91,4 h 33.74 c 1.05,0 1.9,0.85 1.9,1.9 v 8.72 c 0,1.05 -0.85,1.91 -1.9,1.91 z"
   id="path75656" />&#10;				<path
   style="fill:#ed6c30;fill-opacity:1;stroke-width:0.926719"
   d="M 80.87,16.53 H 47.14 c -1.05,0 -1.9,-0.85 -1.9,-1.9 V 5.9 c 0,-1.05 0.85,-1.9 1.9,-1.9 h 33.74 c 1.05,0 1.9,0.85 1.9,1.9 v 8.72 c -0.01,1.05 -0.86,1.91 -1.91,1.91 z"
   id="path75658" />&#10;				<path
   style="fill:#ed6c30;fill-opacity:1;stroke-width:0.926719"
   d="M 122.1,16.53 H 88.36 c -1.05,0 -1.9,-0.85 -1.9,-1.9 V 5.9 c 0,-1.05 0.85,-1.9 1.9,-1.9 h 33.74 c 1.05,0 1.9,0.85 1.9,1.9 v 8.72 c 0,1.05 -0.85,1.91 -1.9,1.91 z"
   id="path75660" />&#10;			</g>&#10;		</g>&#10;		<g
   id="g75674"
   style="stroke-width:0.926719">&#10;			<g
   id="g75672"
   style="stroke-width:0.926719">&#10;				<path
   style="fill:#ed6c30;fill-opacity:1;stroke-width:0.926719"
   d="M 39.65,51.89 H 5.91 c -1.05,0 -1.9,-0.85 -1.9,-1.9 v -8.72 c 0,-1.05 0.85,-1.9 1.9,-1.9 h 33.74 c 1.05,0 1.9,0.85 1.9,1.9 v 8.72 c 0,1.05 -0.85,1.9 -1.9,1.9 z"
   id="path75666" />&#10;				<path
   style="fill:#ed6c30;fill-opacity:1;stroke-width:0.926719"
   d="M 80.87,51.89 H 47.14 c -1.05,0 -1.9,-0.85 -1.9,-1.9 v -8.72 c 0,-1.05 0.85,-1.9 1.9,-1.9 h 33.74 c 1.05,0 1.9,0.85 1.9,1.9 v 8.72 c -0.01,1.05 -0.86,1.9 -1.91,1.9 z"
   id="path75668" />&#10;				<path
   style="fill:#ed6c30;fill-opacity:1;stroke-width:0.926719"
   d="M 122.1,51.89 H 88.36 c -1.05,0 -1.9,-0.85 -1.9,-1.9 v -8.72 c 0,-1.05 0.85,-1.9 1.9,-1.9 h 33.74 c 1.05,0 1.9,0.85 1.9,1.9 v 8.72 c 0,1.05 -0.85,1.9 -1.9,1.9 z"
   id="path75670" />&#10;			</g>&#10;		</g>&#10;		<g
   id="g75684"
   style="stroke-width:0.926719">&#10;			<g
   id="g75682"
   style="stroke-width:0.926719">&#10;				<path
   style="fill:#ed6c30;fill-opacity:1;stroke-width:0.926719"
   d="M 39.65,87.26 H 5.91 c -1.05,0 -1.9,-0.85 -1.9,-1.9 v -8.72 c 0,-1.05 0.85,-1.9 1.9,-1.9 h 33.74 c 1.05,0 1.9,0.85 1.9,1.9 v 8.72 c 0,1.04 -0.85,1.9 -1.9,1.9 z"
   id="path75676" />&#10;				<path
   style="fill:#ed6c30;fill-opacity:1;stroke-width:0.926719"
   d="M 80.87,87.26 H 47.14 c -1.05,0 -1.9,-0.85 -1.9,-1.9 v -8.72 c 0,-1.05 0.85,-1.9 1.9,-1.9 h 33.74 c 1.05,0 1.9,0.85 1.9,1.9 v 8.72 c -0.01,1.04 -0.86,1.9 -1.91,1.9 z"
   id="path75678" />&#10;				<path
   style="fill:#ed6c30;fill-opacity:1;stroke-width:0.926719"
   d="M 122.1,87.26 H 88.36 c -1.05,0 -1.9,-0.85 -1.9,-1.9 v -8.72 c 0,-1.05 0.85,-1.9 1.9,-1.9 h 33.74 c 1.05,0 1.9,0.85 1.9,1.9 v 8.72 c 0,1.04 -0.85,1.9 -1.9,1.9 z"
   id="path75680" />&#10;			</g>&#10;		</g>&#10;		<g
   id="g75694"
   style="stroke-width:0.926719">&#10;			<g
   id="g75692"
   style="stroke-width:0.926719">&#10;				<path
   style="fill:#ed6c30;fill-opacity:1;stroke-width:0.926719"
   d="M 39.65,122.62 H 5.91 c -1.05,0 -1.9,-0.85 -1.9,-1.9 V 112 c 0,-1.05 0.85,-1.9 1.9,-1.9 h 33.74 c 1.05,0 1.9,0.85 1.9,1.9 v 8.72 c 0,1.05 -0.85,1.9 -1.9,1.9 z"
   id="path75686" />&#10;				<path
   style="fill:#ed6c30;fill-opacity:1;stroke-width:0.926719"
   d="M 80.87,122.62 H 47.14 c -1.05,0 -1.9,-0.85 -1.9,-1.9 V 112 c 0,-1.05 0.85,-1.9 1.9,-1.9 h 33.74 c 1.05,0 1.9,0.85 1.9,1.9 v 8.72 c -0.01,1.05 -0.86,1.9 -1.91,1.9 z"
   id="path75688" />&#10;				<path
   style="fill:#ed6c30;fill-opacity:1;stroke-width:0.926719"
   d="M 122.1,122.62 H 88.36 c -1.05,0 -1.9,-0.85 -1.9,-1.9 V 112 c 0,-1.05 0.85,-1.9 1.9,-1.9 h 33.74 c 1.05,0 1.9,0.85 1.9,1.9 v 8.72 c 0,1.05 -0.85,1.9 -1.9,1.9 z"
   id="path75690" />&#10;			</g>&#10;		</g>&#10;		<g
   id="g75706"
   style="stroke-width:0.926719">&#10;			<g
   id="g75704"
   style="stroke-width:0.926719">&#10;				<path
   style="fill:#ed6c30;fill-opacity:1;stroke-width:0.926719"
   d="M 19.52,21.68 H 4 v 12.53 h 15.52 c 1.05,0 1.9,-0.85 1.9,-1.9 v -8.72 c 0,-1.06 -0.85,-1.91 -1.9,-1.91 z"
   id="path75696" />&#10;				<path
   style="fill:#ed6c30;fill-opacity:1;stroke-width:0.926719"
   d="M 60.42,34.21 H 26.69 c -1.05,0 -1.9,-0.85 -1.9,-1.9 v -8.72 c 0,-1.05 0.85,-1.9 1.9,-1.9 h 33.74 c 1.05,0 1.9,0.85 1.9,1.9 v 8.72 c -0.01,1.05 -0.86,1.9 -1.91,1.9 z"
   id="path75698" />&#10;				<path
   style="fill:#ed6c30;fill-opacity:1;stroke-width:0.926719"
   d="M 101.32,34.21 H 67.59 c -1.05,0 -1.9,-0.85 -1.9,-1.9 v -8.72 c 0,-1.05 0.85,-1.9 1.9,-1.9 h 33.74 c 1.05,0 1.9,0.85 1.9,1.9 v 8.72 c -0.01,1.05 -0.86,1.9 -1.91,1.9 z"
   id="path75700" />&#10;				<path
   style="fill:#ed6c30;fill-opacity:1;stroke-width:0.926719"
   d="m 108.49,21.68 c -1.05,0 -1.9,0.85 -1.9,1.9 v 8.72 c 0,1.05 0.85,1.9 1.9,1.9 H 124 V 21.68 Z"
   id="path75702" />&#10;			</g>&#10;		</g>&#10;		<g
   id="g75718"
   style="stroke-width:0.926719">&#10;			<g
   id="g75716"
   style="stroke-width:0.926719">&#10;				<path
   style="fill:#ed6c30;fill-opacity:1;stroke-width:0.926719"
   d="M 19.52,57.05 H 4 v 12.53 h 15.52 c 1.05,0 1.9,-0.85 1.9,-1.9 v -8.72 c 0,-1.06 -0.85,-1.91 -1.9,-1.91 z"
   id="path75708" />&#10;				<path
   style="fill:#ed6c30;fill-opacity:1;stroke-width:0.926719"
   d="M 60.42,69.57 H 26.69 c -1.05,0 -1.9,-0.85 -1.9,-1.9 v -8.72 c 0,-1.05 0.85,-1.9 1.9,-1.9 h 33.74 c 1.05,0 1.9,0.85 1.9,1.9 v 8.72 c -0.01,1.05 -0.86,1.9 -1.91,1.9 z"
   id="path75710" />&#10;				<path
   style="fill:#ed6c30;fill-opacity:1;stroke-width:0.926719"
   d="M 101.32,69.57 H 67.59 c -1.05,0 -1.9,-0.85 -1.9,-1.9 v -8.72 c 0,-1.05 0.85,-1.9 1.9,-1.9 h 33.74 c 1.05,0 1.9,0.85 1.9,1.9 v 8.72 c -0.01,1.05 -0.86,1.9 -1.91,1.9 z"
   id="path75712" />&#10;				<path
   style="fill:#ed6c30;fill-opacity:1;stroke-width:0.926719"
   d="m 108.49,57.05 c -1.05,0 -1.9,0.85 -1.9,1.9 v 8.72 c 0,1.05 0.85,1.9 1.9,1.9 H 124 V 57.05 Z"
   id="path75714" />&#10;			</g>&#10;		</g>&#10;		<g
   id="g75730"
   style="stroke-width:0.926719">&#10;			<g
   id="g75728"
   style="stroke-width:0.926719">&#10;				<path
   style="fill:#ed6c30;fill-opacity:1;stroke-width:0.926719"
   d="M 19.52,92.41 H 4 v 12.53 h 15.52 c 1.05,0 1.9,-0.85 1.9,-1.9 v -8.72 c 0,-1.06 -0.85,-1.91 -1.9,-1.91 z"
   id="path75720" />&#10;				<path
   style="fill:#ed6c30;fill-opacity:1;stroke-width:0.926719"
   d="M 60.42,104.94 H 26.69 c -1.05,0 -1.9,-0.85 -1.9,-1.9 v -8.72 c 0,-1.05 0.85,-1.9 1.9,-1.9 h 33.74 c 1.05,0 1.9,0.85 1.9,1.9 v 8.72 c -0.01,1.05 -0.86,1.9 -1.91,1.9 z"
   id="path75722" />&#10;				<path
   style="fill:#ed6c30;fill-opacity:1;stroke-width:0.926719"
   d="M 101.32,104.94 H 67.59 c -1.05,0 -1.9,-0.85 -1.9,-1.9 v -8.72 c 0,-1.05 0.85,-1.9 1.9,-1.9 h 33.74 c 1.05,0 1.9,0.85 1.9,1.9 v 8.72 c -0.01,1.05 -0.86,1.9 -1.91,1.9 z"
   id="path75724" />&#10;				<path
   style="fill:#ed6c30;fill-opacity:1;stroke-width:0.926719"
   d="m 108.49,92.41 c -1.05,0 -1.9,0.85 -1.9,1.9 v 8.72 c 0,1.05 0.85,1.9 1.9,1.9 H 124 V 92.41 Z"
   id="path75726" />&#10;			</g>&#10;		</g>&#10;	</g></g>&#10;</svg>
