<?xml version="1.0" encoding="UTF-8" standalone="no"?>
<svg
   width="100%"
   height="100%"
   viewBox="0 0 128 128"
   version="1.1"
   xml:space="preserve"
   style="fill-rule:evenodd;clip-rule:evenodd;stroke-linejoin:round;stroke-miterlimit:2;"
   id="svg8"
   sodipodi:docname="emoji_u1f90f_1f3fb.svg"
   inkscape:version="1.3 (0e150ed6c4, 2023-07-21)"
   xmlns:inkscape="http://www.inkscape.org/namespaces/inkscape"
   xmlns:sodipodi="http://sodipodi.sourceforge.net/DTD/sodipodi-0.dtd"
   xmlns="http://www.w3.org/2000/svg"
   xmlns:svg="http://www.w3.org/2000/svg"><defs
   id="defs8" /><sodipodi:namedview
   id="namedview8"
   pagecolor="#ffffff"
   bordercolor="#000000"
   borderopacity="0.25"
   inkscape:showpageshadow="2"
   inkscape:pageopacity="0.0"
   inkscape:pagecheckerboard="0"
   inkscape:deskcolor="#d1d1d1"
   inkscape:zoom="4.0546875"
   inkscape:cx="82.867052"
   inkscape:cy="63.013487"
   inkscape:window-width="1366"
   inkscape:window-height="697"
   inkscape:window-x="-8"
   inkscape:window-y="-8"
   inkscape:window-maximized="1"
   inkscape:current-layer="svg8" />&#10;    <path
   id="path1"
   style="fill:#fadcbc;fill-rule:nonzero"
   d="M 66.494141 16.001953 C 60.376022 15.889453 56.36289 20.817425 55.650391 24.169922 C 54.920391 27.589918 54.350859 30.350159 53.880859 32.910156 L 54.410156 26.140625 C 54.410156 26.140625 54.159919 26.370155 51.419922 24.660156 C 47.689926 22.330159 40.459605 20.720708 35.599609 25.470703 C 28.429617 31.480697 23.279444 34.360473 14.189453 38.230469 C 8.9494584 40.470467 4.3390667 45.079381 8.5390625 50.609375 C 16.209055 60.699365 42.769531 43.210938 42.769531 43.210938 C 42.769531 43.210938 48.659457 47.500941 52.439453 51.210938 C 53.169452 53.270935 54.57047 54.760235 56.230469 55.740234 C 61.520463 67.180223 52.70015 70.230469 46.660156 70.230469 C 40.550162 70.230469 29.890067 61.390625 18.330078 61.390625 C 13.440083 61.390625 7.4404695 63.029617 8.2304688 70.349609 C 8.6604683 74.269605 16.990234 76.699219 16.990234 76.699219 C 38.660213 84.019211 37.150008 92.00001 44.75 102 C 55.23999 115.79999 81.179389 119.58945 95.609375 114.43945 C 103.84937 111.49946 113.17047 103.19062 117.73047 94.140625 C 124.11046 81.490638 122.75054 63.360534 116.81055 50.560547 C 110.95055 37.940559 89.599515 27.329053 73.269531 18.039062 C 70.807034 16.636564 68.533514 16.039453 66.494141 16.001953 z " />&#10;    <path
   id="path2"
   style="fill:#dba689"
   d="M 66.111328 15.457031 L 66.013672 15.458984 L 65.914062 15.460938 L 65.816406 15.462891 L 65.71875 15.466797 L 65.621094 15.470703 L 65.523438 15.474609 L 65.427734 15.480469 L 65.330078 15.486328 L 65.234375 15.492188 L 65.138672 15.501953 L 65.044922 15.509766 L 64.949219 15.519531 L 64.853516 15.529297 L 64.759766 15.541016 L 64.664062 15.552734 L 64.572266 15.566406 L 64.478516 15.578125 L 64.384766 15.59375 L 64.199219 15.623047 L 64.017578 15.65625 L 63.835938 15.693359 L 63.654297 15.732422 L 63.474609 15.773438 L 63.298828 15.818359 L 63.121094 15.865234 L 62.947266 15.916016 L 62.775391 15.96875 L 62.603516 16.023438 L 62.433594 16.080078 L 62.265625 16.140625 L 62.099609 16.203125 L 61.933594 16.267578 L 61.771484 16.335938 L 61.609375 16.404297 L 61.449219 16.476562 L 61.291016 16.550781 L 61.134766 16.626953 L 60.980469 16.703125 L 60.826172 16.783203 L 60.675781 16.865234 L 60.525391 16.949219 L 60.376953 17.035156 L 60.230469 17.121094 L 60.085938 17.212891 L 59.943359 17.302734 L 59.802734 17.394531 L 59.662109 17.490234 L 59.525391 17.585938 L 59.388672 17.683594 L 59.255859 17.78125 L 59.123047 17.882812 L 58.992188 17.984375 L 58.863281 18.087891 L 58.736328 18.191406 L 58.613281 18.298828 L 58.488281 18.404297 L 58.367188 18.513672 L 58.248047 18.621094 L 58.15625 18.708984 L 58.130859 18.732422 L 58.015625 18.84375 L 57.902344 18.955078 L 57.789062 19.068359 L 57.679688 19.183594 L 57.570312 19.298828 L 57.464844 19.412109 L 57.359375 19.529297 L 57.257812 19.646484 L 57.15625 19.765625 L 57.058594 19.882812 L 56.960938 20.003906 L 56.865234 20.121094 L 56.773438 20.242188 L 56.681641 20.363281 L 56.59375 20.484375 L 56.505859 20.605469 L 56.421875 20.728516 L 56.337891 20.849609 L 56.257812 20.972656 L 56.177734 21.095703 L 56.101562 21.21875 L 56.025391 21.341797 L 55.953125 21.464844 L 55.882812 21.587891 L 55.8125 21.712891 L 55.746094 21.835938 L 55.681641 21.958984 L 55.617188 22.082031 L 55.558594 22.205078 L 55.498047 22.328125 L 55.443359 22.451172 L 55.388672 22.574219 L 55.335938 22.695312 L 55.285156 22.818359 L 55.238281 22.939453 L 55.191406 23.0625 L 55.148438 23.183594 L 55.107422 23.304688 L 55.068359 23.425781 L 55.03125 23.544922 L 54.996094 23.664062 L 54.962891 23.783203 L 54.933594 23.902344 L 54.90625 24.015625 L 54.707031 24.875 L 54.517578 25.705078 L 54.333984 26.511719 L 54.15625 27.294922 L 53.986328 28.056641 L 53.822266 28.796875 L 53.664062 29.519531 L 53.511719 30.226562 L 53.365234 30.919922 L 53.222656 31.597656 L 53.085938 32.265625 L 52.953125 32.921875 L 52.824219 33.570312 L 52.699219 34.212891 L 52.578125 34.849609 L 52.460938 35.482422 L 52.347656 36.113281 L 52.236328 36.746094 L 52.128906 37.378906 L 52.021484 38.013672 L 51.917969 38.652344 L 51.853516 39.060547 L 51.814453 39.298828 L 51.714844 39.953125 L 51.613281 40.615234 L 51.515625 41.289062 L 51.417969 41.976562 L 51.320312 42.677734 L 51.222656 43.392578 L 51.125 44.126953 L 51.027344 44.878906 L 50.929688 45.652344 L 50.830078 46.449219 L 50.816406 46.5625 L 50.802734 46.677734 L 50.791016 46.792969 L 50.779297 46.90625 L 50.771484 47.021484 L 50.761719 47.134766 L 50.753906 47.246094 L 50.746094 47.359375 L 50.740234 47.470703 L 50.734375 47.582031 L 50.730469 47.693359 L 50.728516 47.804688 L 50.726562 47.914062 L 50.724609 48.023438 L 50.724609 48.132812 L 50.724609 48.240234 L 50.726562 48.349609 L 50.728516 48.455078 L 50.728516 48.460938 L 50.720703 48.453125 L 50.525391 48.265625 L 50.330078 48.078125 L 50.134766 47.890625 L 49.9375 47.707031 L 49.740234 47.521484 L 49.542969 47.337891 L 49.150391 46.974609 L 48.761719 46.619141 L 48.759766 46.617188 L 48.369141 46.271484 L 47.982422 45.931641 L 47.603516 45.601562 L 47.232422 45.28125 L 46.869141 44.970703 L 46.519531 44.673828 L 46.179688 44.386719 L 45.853516 44.113281 L 45.544922 43.855469 L 45.25 43.611328 L 45.064453 43.458984 L 44.972656 43.384766 L 44.783203 43.234375 C 45.532264 41.784023 46.084127 39.650882 45.730469 37.890625 C 45.674219 37.620625 45.442248 37.469459 45.207031 37.464844 C 45.024085 37.461256 44.839844 37.54672 44.730469 37.730469 C 43.404689 39.943029 41.793628 42.023869 39.890625 43.554688 L 39.638672 43.712891 L 39.242188 43.957031 L 38.822266 44.212891 L 38.376953 44.480469 L 38.146484 44.619141 L 37.910156 44.759766 L 37.667969 44.902344 L 37.421875 45.048828 L 37.169922 45.195312 L 36.910156 45.34375 L 36.771484 45.423828 L 36.648438 45.496094 L 36.382812 45.652344 L 36.111328 45.808594 L 35.835938 45.966797 L 35.556641 46.126953 L 35.271484 46.287109 L 34.984375 46.449219 L 34.691406 46.613281 L 34.394531 46.775391 L 34.095703 46.939453 L 33.791016 47.103516 L 33.484375 47.269531 L 33.173828 47.435547 L 32.859375 47.601562 L 32.541016 47.767578 L 32.34375 47.871094 L 32.220703 47.933594 L 31.898438 48.099609 L 31.574219 48.267578 L 31.246094 48.433594 L 30.914062 48.599609 L 30.582031 48.763672 L 30.246094 48.927734 L 29.910156 49.089844 L 29.570312 49.251953 L 29.228516 49.414062 L 28.886719 49.572266 L 28.542969 49.728516 L 28.195312 49.884766 L 27.847656 50.039062 L 27.498047 50.191406 L 27.148438 50.341797 L 26.798828 50.490234 L 26.447266 50.634766 L 26.09375 50.779297 L 25.740234 50.919922 L 25.388672 51.056641 L 25.033203 51.191406 L 24.679688 51.324219 L 24.501953 51.388672 L 24.324219 51.453125 L 24.148438 51.515625 L 23.970703 51.578125 L 23.794922 51.638672 L 23.617188 51.701172 L 23.439453 51.759766 L 23.263672 51.818359 L 23.087891 51.876953 L 22.910156 51.933594 L 22.732422 51.990234 L 22.556641 52.044922 L 22.380859 52.099609 L 22.205078 52.152344 L 22.029297 52.205078 L 21.853516 52.255859 L 21.677734 52.304688 L 21.503906 52.353516 L 21.486328 52.359375 L 21.328125 52.402344 L 21.154297 52.449219 L 20.980469 52.494141 L 20.806641 52.539062 L 20.632812 52.582031 L 20.458984 52.625 L 20.285156 52.666016 L 20.113281 52.705078 L 19.941406 52.744141 L 19.769531 52.78125 L 19.597656 52.816406 L 19.427734 52.851562 L 19.257812 52.884766 L 19.087891 52.917969 L 18.917969 52.949219 L 18.748047 52.978516 L 18.580078 53.007812 L 18.412109 53.035156 L 18.246094 53.058594 L 18.078125 53.083984 L 17.912109 53.107422 L 17.748047 53.128906 L 17.582031 53.148438 L 17.419922 53.167969 L 17.255859 53.183594 L 17.091797 53.201172 L 16.929688 53.214844 L 16.769531 53.226562 L 16.607422 53.238281 L 16.447266 53.248047 L 16.289062 53.255859 L 16.130859 53.263672 L 15.972656 53.267578 L 15.816406 53.271484 L 15.660156 53.273438 L 15.505859 53.273438 L 15.349609 53.273438 L 15.197266 53.269531 L 15.044922 53.265625 L 14.892578 53.259766 L 14.742188 53.251953 L 14.591797 53.242188 L 14.443359 53.230469 L 14.294922 53.216797 L 14.148438 53.203125 L 14.001953 53.185547 L 13.857422 53.167969 L 13.712891 53.146484 L 13.570312 53.125 L 13.427734 53.101562 L 13.287109 53.076172 L 13.146484 53.048828 L 13.007812 53.017578 L 12.869141 52.988281 L 12.734375 52.955078 L 12.597656 52.919922 L 12.464844 52.882812 L 12.330078 52.84375 L 12.199219 52.802734 L 12.068359 52.759766 L 11.9375 52.714844 L 11.808594 52.667969 L 11.681641 52.621094 L 11.554688 52.568359 L 11.429688 52.515625 L 11.306641 52.460938 L 11.183594 52.404297 L 11.0625 52.345703 L 10.943359 52.285156 L 10.824219 52.220703 L 10.705078 52.15625 L 10.589844 52.087891 L 10.474609 52.017578 L 10.361328 51.945312 L 10.248047 51.871094 L 10.136719 51.794922 L 10.027344 51.716797 L 9.9199219 51.634766 L 9.8125 51.550781 L 9.7050781 51.464844 L 9.6015625 51.376953 L 9.4980469 51.287109 L 9.4316406 51.224609 L 9.3984375 51.193359 L 9.2988281 51.097656 L 9.1992188 50.998047 L 9.1035156 50.896484 L 9.0078125 50.792969 L 8.9140625 50.6875 L 8.8222656 50.580078 L 8.7304688 50.46875 L 8.6347656 50.34375 L 8.5390625 50.21875 L 8.4472656 50.095703 L 8.359375 49.972656 L 8.2734375 49.847656 L 8.1914062 49.724609 L 8.1113281 49.603516 L 8.0351562 49.480469 L 7.9628906 49.357422 L 7.8925781 49.238281 L 7.8242188 49.115234 L 7.7617188 48.994141 L 7.6992188 48.875 L 7.640625 48.753906 L 7.5859375 48.632812 L 7.53125 48.513672 L 7.4824219 48.394531 L 7.4335938 48.275391 L 7.390625 48.158203 L 7.3476562 48.039062 L 7.3085938 47.921875 L 7.2714844 47.802734 L 7.2382812 47.685547 L 7.2070312 47.568359 L 7.1777344 47.453125 L 7.1523438 47.335938 L 7.1289062 47.220703 L 7.1074219 47.105469 L 7.0898438 46.990234 L 7.0722656 46.875 L 7.0605469 46.761719 L 7.0488281 46.646484 L 7.0390625 46.533203 L 7.0332031 46.419922 L 7.0292969 46.306641 L 7.0292969 46.193359 L 7.0292969 46.082031 L 7.0332031 45.970703 L 7.0371094 45.859375 L 7.046875 45.748047 L 7.0566406 45.636719 L 7.0625 45.583984 L 7.0683594 45.527344 L 7.0839844 45.417969 L 7.1015625 45.308594 L 7.1210938 45.199219 L 7.1425781 45.089844 L 7.1679688 44.982422 L 7.1933594 44.875 L 7.2207031 44.767578 L 7.2519531 44.660156 L 7.2832031 44.554688 L 7.3183594 44.449219 L 7.3535156 44.34375 L 7.3925781 44.238281 L 7.4335938 44.132812 L 7.4746094 44.029297 L 7.5195312 43.925781 L 7.5644531 43.824219 L 7.6132812 43.720703 L 7.6621094 43.619141 L 7.7148438 43.515625 L 7.7675781 43.416016 L 7.8222656 43.314453 L 7.8808594 43.214844 L 7.9394531 43.115234 L 7.9980469 43.015625 L 8.0605469 42.917969 L 8.125 42.820312 L 8.1914062 42.722656 L 8.2578125 42.626953 L 8.3261719 42.53125 L 8.3964844 42.433594 L 8.46875 42.339844 L 8.5429688 42.246094 L 8.6171875 42.150391 L 8.6933594 42.058594 L 8.7714844 41.964844 L 8.8515625 41.873047 L 8.9316406 41.78125 L 9.015625 41.691406 L 9.0976562 41.599609 L 9.1835938 41.511719 L 9.2695312 41.421875 L 9.3574219 41.333984 L 9.4453125 41.246094 L 9.5351562 41.160156 L 9.6289062 41.072266 L 9.7207031 40.988281 L 9.8144531 40.902344 L 9.9101562 40.816406 L 10.005859 40.734375 L 10.103516 40.650391 L 10.201172 40.568359 L 10.300781 40.488281 L 10.310547 40.480469 L 10.300781 40.486328 L 10.199219 40.564453 L 10.097656 40.642578 L 9.9960938 40.722656 L 9.8984375 40.802734 L 9.8007812 40.884766 L 9.703125 40.966797 L 9.6074219 41.048828 L 9.5117188 41.132812 L 9.4199219 41.216797 L 9.3261719 41.300781 L 9.234375 41.386719 L 9.1464844 41.472656 L 9.0566406 41.560547 L 8.9707031 41.648438 L 8.8847656 41.738281 L 8.7988281 41.826172 L 8.7167969 41.916016 L 8.6347656 42.005859 L 8.5546875 42.097656 L 8.4746094 42.189453 L 8.3964844 42.283203 L 8.3222656 42.376953 L 8.2460938 42.470703 L 8.1738281 42.564453 L 8.1035156 42.660156 L 8.0332031 42.757812 L 7.9648438 42.853516 L 7.8984375 42.951172 L 7.8320312 43.050781 L 7.7695312 43.148438 L 7.7089844 43.248047 L 7.6484375 43.349609 L 7.5917969 43.451172 L 7.5351562 43.550781 L 7.4804688 43.654297 L 7.4277344 43.757812 L 7.3769531 43.861328 L 7.328125 43.964844 L 7.28125 44.070312 L 7.2363281 44.175781 L 7.1933594 44.283203 L 7.1523438 44.388672 L 7.1132812 44.498047 L 7.0761719 44.605469 L 7.0410156 44.714844 L 7.0078125 44.824219 L 6.9765625 44.935547 L 6.9472656 45.046875 L 6.921875 45.158203 L 6.8984375 45.269531 L 6.8769531 45.382812 L 6.8554688 45.496094 L 6.8476562 45.554688 L 6.8378906 45.609375 L 6.8222656 45.724609 L 6.8085938 45.839844 L 6.796875 45.955078 L 6.7871094 46.072266 L 6.78125 46.189453 L 6.7773438 46.306641 L 6.7753906 46.425781 L 6.7753906 46.544922 L 6.7792969 46.664062 L 6.7851562 46.783203 L 6.7929688 46.904297 L 6.8046875 47.025391 L 6.8183594 47.146484 L 6.8339844 47.269531 L 6.8535156 47.392578 L 6.8730469 47.515625 L 6.8984375 47.640625 L 6.9257812 47.763672 L 6.9550781 47.888672 L 6.9882812 48.015625 L 7.0234375 48.140625 L 7.0605469 48.267578 L 7.1015625 48.394531 L 7.1445312 48.521484 L 7.1914062 48.650391 L 7.2421875 48.779297 L 7.2949219 48.908203 L 7.3496094 49.037109 L 7.4082031 49.167969 L 7.46875 49.296875 L 7.5332031 49.427734 L 7.6015625 49.558594 L 7.671875 49.691406 L 7.7441406 49.824219 L 7.8222656 49.955078 L 7.9023438 50.087891 L 7.984375 50.220703 L 8.0703125 50.355469 L 8.1601562 50.490234 L 8.2539062 50.623047 L 8.3496094 50.757812 L 8.4394531 50.880859 L 8.53125 51.001953 L 8.6269531 51.121094 L 8.7226562 51.236328 L 8.8222656 51.349609 L 8.921875 51.460938 L 9.0234375 51.568359 L 9.0585938 51.603516 L 9.1269531 51.675781 L 9.2324219 51.779297 L 9.3398438 51.880859 L 9.4472656 51.980469 L 9.5585938 52.078125 L 9.6699219 52.173828 L 9.7832031 52.265625 L 9.8984375 52.355469 L 10.015625 52.443359 L 10.134766 52.529297 L 10.255859 52.613281 L 10.376953 52.693359 L 10.5 52.771484 L 10.625 52.849609 L 10.751953 52.923828 L 10.880859 52.996094 L 11.009766 53.064453 L 11.140625 53.132812 L 11.271484 53.199219 L 11.40625 53.261719 L 11.541016 53.324219 L 11.677734 53.382812 L 11.816406 53.439453 L 11.955078 53.494141 L 12.095703 53.546875 L 12.236328 53.597656 L 12.380859 53.646484 L 12.523438 53.693359 L 12.669922 53.738281 L 12.816406 53.78125 L 12.964844 53.822266 L 13.113281 53.859375 L 13.263672 53.896484 L 13.414062 53.931641 L 13.566406 53.964844 L 13.720703 53.996094 L 13.873047 54.023438 L 14.029297 54.050781 L 14.185547 54.078125 L 14.34375 54.099609 L 14.501953 54.123047 L 14.662109 54.142578 L 14.822266 54.160156 L 14.982422 54.177734 L 15.144531 54.191406 L 15.308594 54.205078 L 15.472656 54.216797 L 15.636719 54.224609 L 15.802734 54.232422 L 15.96875 54.240234 L 16.136719 54.244141 L 16.304688 54.248047 L 16.472656 54.248047 L 16.642578 54.248047 L 16.8125 54.248047 L 16.984375 54.244141 L 17.15625 54.240234 L 17.328125 54.232422 L 17.501953 54.224609 L 17.675781 54.214844 L 17.849609 54.205078 L 18.025391 54.191406 L 18.199219 54.179688 L 18.376953 54.164062 L 18.552734 54.146484 L 18.730469 54.130859 L 18.908203 54.111328 L 19.087891 54.089844 L 19.265625 54.068359 L 19.445312 54.044922 L 19.625 54.021484 L 19.804688 53.996094 L 19.986328 53.96875 L 20.167969 53.939453 L 20.349609 53.912109 L 20.53125 53.880859 L 20.712891 53.849609 L 20.896484 53.816406 L 21.078125 53.78125 L 21.261719 53.746094 L 21.445312 53.710938 L 21.630859 53.671875 L 21.796875 53.636719 L 21.814453 53.634766 L 21.998047 53.59375 L 22.183594 53.554688 L 22.369141 53.511719 L 22.554688 53.470703 L 22.740234 53.425781 L 22.925781 53.382812 L 23.111328 53.335938 L 23.296875 53.291016 L 23.482422 53.242188 L 23.669922 53.193359 L 23.855469 53.144531 L 24.042969 53.095703 L 24.228516 53.042969 L 24.414062 52.992188 L 24.601562 52.939453 L 24.789062 52.884766 L 24.974609 52.832031 L 25.162109 52.775391 L 25.535156 52.664062 L 25.908203 52.546875 L 26.28125 52.427734 L 26.652344 52.306641 L 27.023438 52.181641 L 27.394531 52.054688 L 27.763672 51.925781 L 28.132812 51.794922 L 28.501953 51.662109 L 28.867188 51.525391 L 29.232422 51.388672 L 29.595703 51.25 L 29.957031 51.107422 L 30.316406 50.966797 L 30.673828 50.822266 L 31.029297 50.677734 L 31.382812 50.53125 L 31.734375 50.382812 L 32.082031 50.234375 L 32.429688 50.085938 L 32.771484 49.9375 L 33.113281 49.787109 L 33.240234 49.730469 L 33.449219 49.636719 L 33.783203 49.482422 L 34.113281 49.332031 L 34.439453 49.179688 L 34.763672 49.027344 L 35.082031 48.875 L 35.398438 48.722656 L 35.710938 48.572266 L 36.017578 48.421875 L 36.320312 48.271484 L 36.621094 48.125 L 36.914062 47.976562 L 37.205078 47.830078 L 37.490234 47.683594 L 37.771484 47.541016 L 37.900391 47.474609 L 38.046875 47.396484 L 38.314453 47.253906 L 38.578125 47.113281 L 38.837891 46.974609 L 39.089844 46.837891 L 39.337891 46.703125 L 39.578125 46.568359 L 40.042969 46.310547 L 40.484375 46.064453 L 40.898438 45.830078 L 41.285156 45.607422 L 41.644531 45.398438 L 41.720703 45.353516 L 41.974609 45.201172 L 42.271484 45.017578 L 42.4375 44.916016 L 42.537109 44.851562 L 42.748047 44.716797 L 43.027344 44.914062 L 43.269531 45.087891 L 43.533203 45.279297 L 43.628906 45.345703 L 43.820312 45.480469 L 44.126953 45.699219 L 44.451172 45.927734 L 44.791016 46.171875 L 45.144531 46.425781 L 45.511719 46.691406 L 45.890625 46.96875 L 46.277344 47.255859 L 46.675781 47.550781 L 47.078125 47.851562 L 47.486328 48.162109 L 47.488281 48.164062 L 47.902344 48.472656 L 48.320312 48.791016 L 48.529297 48.949219 L 48.740234 49.109375 L 48.949219 49.271484 L 49.158203 49.435547 L 49.365234 49.597656 L 49.574219 49.761719 L 49.78125 49.925781 L 49.986328 50.091797 L 50.189453 50.255859 L 50.392578 50.421875 L 50.59375 50.585938 L 50.792969 50.751953 L 50.990234 50.916016 L 51.085938 50.998047 L 51.107422 51.074219 L 51.134766 51.167969 L 51.160156 51.261719 L 51.1875 51.353516 L 51.216797 51.445312 L 51.246094 51.537109 L 51.275391 51.628906 L 51.306641 51.71875 L 51.339844 51.808594 L 51.371094 51.898438 L 51.404297 51.986328 L 51.439453 52.074219 L 51.474609 52.162109 L 51.509766 52.248047 L 51.544922 52.335938 L 51.582031 52.421875 L 51.619141 52.507812 L 51.658203 52.591797 L 51.697266 52.675781 L 51.738281 52.759766 L 51.777344 52.841797 L 51.820312 52.923828 L 51.861328 53.005859 L 51.904297 53.087891 L 51.947266 53.167969 L 51.992188 53.248047 L 52.037109 53.326172 L 52.082031 53.40625 L 52.130859 53.486328 L 52.222656 53.638672 L 52.318359 53.791016 L 52.417969 53.941406 L 52.519531 54.089844 L 52.623047 54.234375 L 52.728516 54.376953 L 52.837891 54.515625 L 52.949219 54.654297 L 53.0625 54.789062 L 53.177734 54.921875 L 53.294922 55.052734 L 53.412109 55.179688 L 53.533203 55.306641 L 53.65625 55.429688 L 53.78125 55.548828 L 53.908203 55.667969 L 54.035156 55.783203 L 54.166016 55.896484 L 54.296875 56.007812 L 54.429688 56.115234 L 54.564453 56.220703 L 54.699219 56.324219 L 54.837891 56.425781 L 54.976562 56.523438 L 55.115234 56.621094 L 55.257812 56.714844 L 55.400391 56.806641 L 55.423828 56.820312 L 55.443359 56.865234 L 55.498047 56.988281 L 55.552734 57.109375 L 55.603516 57.230469 L 55.654297 57.349609 L 55.705078 57.46875 L 55.753906 57.587891 L 55.800781 57.703125 L 55.845703 57.820312 L 55.890625 57.935547 L 55.935547 58.050781 L 55.976562 58.164062 L 56.017578 58.279297 L 56.058594 58.390625 L 56.097656 58.503906 L 56.134766 58.613281 L 56.171875 58.724609 L 56.207031 58.832031 L 56.240234 58.941406 L 56.275391 59.048828 L 56.306641 59.15625 L 56.337891 59.261719 L 56.367188 59.367188 L 56.396484 59.472656 L 56.423828 59.576172 L 56.449219 59.679688 L 56.476562 59.78125 L 56.5 59.882812 L 56.523438 59.982422 L 56.546875 60.082031 L 56.566406 60.181641 L 56.587891 60.28125 L 56.607422 60.378906 L 56.625 60.474609 L 56.642578 60.570312 L 56.658203 60.666016 L 56.673828 60.761719 L 56.6875 60.853516 L 56.701172 60.947266 L 56.714844 61.039062 L 56.724609 61.130859 L 56.734375 61.222656 L 56.744141 61.3125 L 56.753906 61.400391 L 56.761719 61.490234 L 56.767578 61.576172 L 56.773438 61.664062 L 56.779297 61.751953 L 56.783203 61.835938 L 56.785156 61.921875 L 56.787109 62.005859 L 56.789062 62.089844 L 56.789062 62.171875 L 56.789062 62.253906 L 56.789062 62.335938 L 56.787109 62.416016 L 56.783203 62.496094 L 56.779297 62.574219 L 56.775391 62.654297 L 56.771484 62.732422 L 56.765625 62.808594 L 56.757812 62.884766 L 56.751953 62.960938 L 56.742188 63.037109 L 56.732422 63.111328 L 56.724609 63.185547 L 56.712891 63.259766 L 56.701172 63.330078 L 56.689453 63.404297 L 56.677734 63.474609 L 56.662109 63.546875 L 56.648438 63.615234 L 56.634766 63.685547 L 56.619141 63.755859 L 56.601562 63.824219 L 56.585938 63.890625 L 56.568359 63.958984 L 56.550781 64.025391 L 56.53125 64.091797 L 56.511719 64.15625 L 56.490234 64.222656 L 56.46875 64.287109 L 56.447266 64.351562 L 56.425781 64.414062 L 56.402344 64.478516 L 56.378906 64.539062 L 56.355469 64.601562 L 56.330078 64.664062 L 56.304688 64.724609 L 56.277344 64.785156 L 56.251953 64.845703 L 56.224609 64.904297 L 56.195312 64.962891 L 56.167969 65.021484 L 56.138672 65.080078 L 56.109375 65.138672 L 56.078125 65.195312 L 56.046875 65.251953 L 56.015625 65.308594 L 55.982422 65.363281 L 55.951172 65.419922 L 55.917969 65.474609 L 55.882812 65.527344 L 55.849609 65.582031 L 55.8125 65.636719 L 55.777344 65.689453 L 55.740234 65.742188 L 55.705078 65.794922 L 55.667969 65.845703 L 55.628906 65.898438 L 55.589844 65.949219 L 55.550781 65.998047 L 55.511719 66.050781 L 55.470703 66.099609 L 55.429688 66.148438 L 55.388672 66.197266 L 55.347656 66.246094 L 55.304688 66.294922 L 55.261719 66.34375 L 55.21875 66.390625 L 55.173828 66.4375 L 55.130859 66.482422 L 55.037109 66.576172 L 54.945312 66.667969 L 54.849609 66.757812 L 54.753906 66.845703 L 54.654297 66.931641 L 54.552734 67.015625 L 54.449219 67.099609 L 54.34375 67.181641 L 54.236328 67.261719 L 54.128906 67.339844 L 54.017578 67.417969 L 53.904297 67.492188 L 53.791016 67.568359 L 53.675781 67.640625 L 53.558594 67.712891 L 53.439453 67.78125 L 53.318359 67.849609 L 53.195312 67.916016 L 53.072266 67.980469 L 52.947266 68.044922 L 52.820312 68.107422 L 52.693359 68.167969 L 52.5625 68.226562 L 52.433594 68.285156 L 52.302734 68.341797 L 52.169922 68.396484 L 52.035156 68.449219 L 51.900391 68.501953 L 51.765625 68.550781 L 51.628906 68.599609 L 51.490234 68.646484 L 51.351562 68.693359 L 51.212891 68.738281 L 51.072266 68.78125 L 50.933594 68.822266 L 50.792969 68.861328 L 50.650391 68.900391 L 50.507812 68.9375 L 50.365234 68.974609 L 50.222656 69.009766 L 50.078125 69.042969 L 49.935547 69.074219 L 49.791016 69.103516 L 49.646484 69.132812 L 49.503906 69.160156 L 49.357422 69.1875 L 49.214844 69.212891 L 49.070312 69.236328 L 48.925781 69.257812 L 48.78125 69.279297 L 48.636719 69.298828 L 48.492188 69.318359 L 48.349609 69.335938 L 48.207031 69.351562 L 48.064453 69.365234 L 47.921875 69.380859 L 47.779297 69.392578 L 47.638672 69.404297 L 47.498047 69.414062 L 47.357422 69.421875 L 47.21875 69.429688 L 47.080078 69.4375 L 46.943359 69.441406 L 46.806641 69.445312 L 46.671875 69.449219 L 46.607422 69.451172 L 46.542969 69.451172 L 46.478516 69.451172 L 46.414062 69.449219 L 46.347656 69.447266 L 46.283203 69.445312 L 46.148438 69.4375 L 46.011719 69.427734 L 45.873047 69.416016 L 45.732422 69.400391 L 45.587891 69.382812 L 45.443359 69.361328 L 45.294922 69.337891 L 45.144531 69.3125 L 44.992188 69.283203 L 44.837891 69.251953 L 44.681641 69.21875 L 44.523438 69.181641 L 44.363281 69.142578 L 44.199219 69.101562 L 44.035156 69.058594 L 43.869141 69.011719 L 43.701172 68.964844 L 43.53125 68.914062 L 43.359375 68.861328 L 43.185547 68.806641 L 43.009766 68.748047 L 42.832031 68.689453 L 42.654297 68.628906 L 42.472656 68.566406 L 42.291016 68.501953 L 42.107422 68.435547 L 41.921875 68.365234 L 41.734375 68.296875 L 41.544922 68.224609 L 41.355469 68.150391 L 41.162109 68.074219 L 40.970703 67.998047 L 40.775391 67.919922 L 40.578125 67.839844 L 40.380859 67.759766 L 39.980469 67.591797 L 39.574219 67.421875 L 39.162109 67.244141 L 38.744141 67.064453 L 38.322266 66.880859 L 37.896484 66.693359 L 37.462891 66.503906 L 37.353516 66.455078 L 36.585938 66.113281 L 36.138672 65.914062 L 35.6875 65.716797 L 35.232422 65.515625 L 34.773438 65.314453 L 34.308594 65.115234 L 33.841797 64.914062 L 33.369141 64.714844 L 32.892578 64.517578 L 32.652344 64.417969 L 32.412109 64.320312 L 32.171875 64.222656 L 31.929688 64.125 L 31.685547 64.027344 L 31.441406 63.933594 L 31.195312 63.837891 L 30.949219 63.742188 L 30.703125 63.648438 L 30.455078 63.556641 L 30.207031 63.464844 L 29.957031 63.373047 L 29.707031 63.283203 L 29.455078 63.195312 L 29.205078 63.107422 L 28.951172 63.021484 L 28.699219 62.935547 L 28.443359 62.851562 L 28.189453 62.769531 L 27.933594 62.6875 L 27.677734 62.609375 L 27.419922 62.529297 L 27.162109 62.453125 L 26.904297 62.378906 L 26.644531 62.304688 L 26.384766 62.232422 L 26.123047 62.162109 L 25.863281 62.09375 L 25.601562 62.027344 L 25.339844 61.962891 L 25.076172 61.900391 L 24.8125 61.839844 L 24.548828 61.78125 L 24.283203 61.724609 L 24.017578 61.669922 L 23.751953 61.617188 L 23.486328 61.568359 L 23.21875 61.519531 L 22.951172 61.474609 L 22.683594 61.431641 L 22.414062 61.390625 L 22.146484 61.353516 L 21.876953 61.318359 L 21.607422 61.285156 L 21.337891 61.255859 L 21.066406 61.228516 L 20.794922 61.203125 L 20.523438 61.181641 L 20.251953 61.162109 L 19.980469 61.146484 L 19.707031 61.134766 L 19.570312 61.128906 L 19.435547 61.123047 L 19.298828 61.119141 L 19.160156 61.117188 L 19.025391 61.115234 L 18.888672 61.113281 L 18.751953 61.113281 L 18.613281 61.113281 L 18.476562 61.113281 L 18.339844 61.115234 L 18.107422 61.119141 L 17.873047 61.128906 L 17.636719 61.138672 L 17.400391 61.150391 L 17.162109 61.166016 L 16.925781 61.185547 L 16.685547 61.205078 L 16.566406 61.21875 L 16.447266 61.230469 L 16.326172 61.244141 L 16.207031 61.259766 L 16.087891 61.273438 L 15.96875 61.289062 L 15.847656 61.306641 L 15.728516 61.324219 L 15.609375 61.34375 L 15.490234 61.361328 L 15.371094 61.382812 L 15.251953 61.404297 L 15.132812 61.425781 L 15.013672 61.449219 L 14.896484 61.472656 L 14.777344 61.498047 L 14.744141 61.505859 L 14.660156 61.523438 L 14.542969 61.550781 L 14.425781 61.578125 L 14.308594 61.605469 L 14.191406 61.636719 L 14.074219 61.666016 L 13.958984 61.697266 L 13.84375 61.730469 L 13.728516 61.763672 L 13.613281 61.798828 L 13.5 61.835938 L 13.386719 61.871094 L 13.273438 61.910156 L 13.160156 61.949219 L 13.048828 61.988281 L 12.9375 62.029297 L 12.826172 62.072266 L 12.716797 62.117188 L 12.607422 62.162109 L 12.498047 62.207031 L 12.392578 62.255859 L 12.285156 62.302734 L 12.177734 62.353516 L 12.072266 62.404297 L 11.96875 62.455078 L 11.863281 62.509766 L 11.761719 62.564453 L 11.658203 62.621094 L 11.558594 62.677734 L 11.457031 62.736328 L 11.359375 62.796875 L 11.259766 62.857422 L 11.162109 62.921875 L 11.066406 62.984375 L 10.972656 63.050781 L 10.878906 63.117188 L 10.785156 63.185547 L 10.693359 63.255859 L 10.601562 63.326172 L 10.513672 63.398438 L 10.425781 63.472656 L 10.337891 63.548828 L 10.251953 63.625 L 10.167969 63.703125 L 10.083984 63.783203 L 10.001953 63.863281 L 9.921875 63.947266 L 9.84375 64.03125 L 9.765625 64.117188 L 9.6894531 64.203125 L 9.6132812 64.292969 L 9.5410156 64.382812 L 9.46875 64.474609 L 9.3984375 64.568359 L 9.3300781 64.664062 L 9.2636719 64.759766 L 9.1972656 64.857422 L 9.1347656 64.957031 L 9.0722656 65.060547 L 9.0117188 65.162109 L 8.9511719 65.267578 L 8.8945312 65.373047 L 8.8398438 65.482422 L 8.7851562 65.591797 L 8.734375 65.703125 L 8.6835938 65.816406 L 8.6367188 65.931641 L 8.5898438 66.046875 L 8.546875 66.164062 L 8.5039062 66.285156 L 8.4628906 66.40625 L 8.4238281 66.529297 L 8.3867188 66.654297 L 8.3535156 66.78125 L 8.3203125 66.908203 L 8.2890625 67.039062 L 8.2617188 67.171875 L 8.234375 67.304688 L 8.2109375 67.439453 L 8.1875 67.576172 L 8.1679688 67.716797 L 8.1503906 67.857422 L 8.1347656 68 L 8.1210938 68.144531 L 8.109375 68.291016 L 8.0996094 68.439453 L 8.09375 68.589844 L 8.0898438 68.740234 L 8.0878906 68.894531 L 8.0878906 69.050781 L 8.0898438 69.199219 L 8.0898438 69.208984 L 8.09375 69.367188 L 8.0996094 69.529297 L 8.109375 69.693359 L 8.1191406 69.859375 L 8.1347656 70.027344 L 8.1503906 70.195312 L 8.1699219 70.367188 L 8.1816406 70.460938 L 8.1972656 70.554688 L 8.2148438 70.646484 L 8.2363281 70.738281 L 8.2597656 70.830078 L 8.2851562 70.919922 L 8.3144531 71.009766 L 8.3476562 71.099609 L 8.3808594 71.1875 L 8.4179688 71.275391 L 8.4570312 71.363281 L 8.4980469 71.449219 L 8.5429688 71.535156 L 8.5878906 71.619141 L 8.6367188 71.705078 L 8.6875 71.789062 L 8.7402344 71.871094 L 8.7949219 71.953125 L 8.8515625 72.035156 L 8.9101562 72.117188 L 8.9707031 72.197266 L 9.0332031 72.277344 L 9.0976562 72.357422 L 9.1640625 72.435547 L 9.2324219 72.513672 L 9.3027344 72.589844 L 9.3730469 72.666016 L 9.4472656 72.742188 L 9.5214844 72.816406 L 9.5996094 72.892578 L 9.6757812 72.966797 L 9.7558594 73.039062 L 9.8359375 73.111328 L 9.9179688 73.183594 L 10.001953 73.253906 L 10.085938 73.324219 L 10.171875 73.394531 L 10.257812 73.462891 L 10.345703 73.53125 L 10.435547 73.599609 L 10.525391 73.666016 L 10.615234 73.732422 L 10.707031 73.798828 L 10.800781 73.863281 L 10.894531 73.927734 L 10.988281 73.992188 L 11.083984 74.054688 L 11.179688 74.117188 L 11.275391 74.177734 L 11.373047 74.238281 L 11.470703 74.298828 L 11.568359 74.359375 L 11.667969 74.417969 L 11.767578 74.476562 L 11.867188 74.533203 L 11.966797 74.589844 L 12.167969 74.701172 L 12.367188 74.810547 L 12.568359 74.914062 L 12.771484 75.017578 L 12.972656 75.117188 L 13.171875 75.214844 L 13.371094 75.308594 L 13.570312 75.400391 L 13.765625 75.488281 L 13.960938 75.572266 L 14.150391 75.654297 L 14.332031 75.732422 L 14.152344 75.652344 L 13.962891 75.566406 L 13.769531 75.478516 L 13.576172 75.386719 L 13.378906 75.292969 L 13.181641 75.195312 L 12.982422 75.095703 L 12.783203 74.992188 L 12.585938 74.886719 L 12.384766 74.777344 L 12.185547 74.666016 L 11.988281 74.552734 L 11.890625 74.492188 L 11.792969 74.433594 L 11.693359 74.375 L 11.597656 74.314453 L 11.5 74.253906 L 11.402344 74.191406 L 11.308594 74.130859 L 11.212891 74.066406 L 11.117188 74.003906 L 11.025391 73.939453 L 10.931641 73.873047 L 10.839844 73.808594 L 10.748047 73.742188 L 10.658203 73.675781 L 10.568359 73.607422 L 10.480469 73.539062 L 10.392578 73.470703 L 10.306641 73.402344 L 10.222656 73.332031 L 10.138672 73.261719 L 10.056641 73.189453 L 9.9746094 73.119141 L 9.8945312 73.046875 L 9.8164062 72.972656 L 9.7382812 72.900391 L 9.6640625 72.824219 L 9.5898438 72.751953 L 9.5175781 72.675781 L 9.4453125 72.599609 L 9.3769531 72.523438 L 9.3105469 72.445312 L 9.2441406 72.367188 L 9.1796875 72.289062 L 9.1171875 72.210938 L 9.0585938 72.132812 L 9 72.052734 L 8.9433594 71.972656 L 8.8886719 71.890625 L 8.8378906 71.810547 L 8.7871094 71.728516 L 8.7382812 71.646484 L 8.6933594 71.5625 L 8.6503906 71.478516 L 8.609375 71.396484 L 8.5703125 71.310547 L 8.5332031 71.226562 L 8.5 71.140625 L 8.46875 71.054688 L 8.4394531 70.96875 L 8.4121094 70.882812 L 8.3886719 70.794922 L 8.3671875 70.707031 L 8.3496094 70.619141 L 8.3339844 70.53125 L 8.3203125 70.441406 L 8.3105469 70.351562 L 8.2949219 70.181641 L 8.28125 70.015625 L 8.2714844 69.849609 L 8.2617188 69.685547 L 8.2558594 69.523438 L 8.2519531 69.363281 L 8.2519531 69.207031 L 8.2519531 69.197266 L 8.2519531 69.052734 L 8.2558594 68.898438 L 8.2617188 68.746094 L 8.2695312 68.597656 L 8.2792969 68.451172 L 8.2929688 68.306641 L 8.3085938 68.162109 L 8.3242188 68.021484 L 8.34375 67.882812 L 8.3632812 67.746094 L 8.3867188 67.609375 L 8.4121094 67.476562 L 8.4394531 67.345703 L 8.46875 67.216797 L 8.4980469 67.089844 L 8.53125 66.964844 L 8.5664062 66.839844 L 8.6035156 66.71875 L 8.6425781 66.597656 L 8.6816406 66.480469 L 8.7246094 66.363281 L 8.7675781 66.248047 L 8.8125 66.136719 L 8.8613281 66.025391 L 8.9101562 65.916016 L 8.9609375 65.808594 L 9.0136719 65.703125 L 9.0664062 65.599609 L 9.1230469 65.496094 L 9.1796875 65.396484 L 9.2382812 65.298828 L 9.2988281 65.199219 L 9.3613281 65.105469 L 9.4257812 65.011719 L 9.4902344 64.917969 L 9.5566406 64.828125 L 9.6230469 64.738281 L 9.6933594 64.650391 L 9.7636719 64.564453 L 9.8359375 64.480469 L 9.9082031 64.396484 L 9.984375 64.316406 L 10.060547 64.236328 L 10.138672 64.158203 L 10.216797 64.080078 L 10.296875 64.005859 L 10.376953 63.931641 L 10.460938 63.859375 L 10.542969 63.787109 L 10.628906 63.71875 L 10.714844 63.648438 L 10.800781 63.582031 L 10.888672 63.517578 L 10.978516 63.451172 L 11.068359 63.388672 L 11.160156 63.328125 L 11.253906 63.267578 L 11.347656 63.208984 L 11.441406 63.150391 L 11.537109 63.095703 L 11.632812 63.039062 L 11.730469 62.986328 L 11.828125 62.933594 L 11.927734 62.882812 L 12.027344 62.832031 L 12.128906 62.783203 L 12.230469 62.734375 L 12.332031 62.689453 L 12.435547 62.644531 L 12.539062 62.599609 L 12.644531 62.556641 L 12.751953 62.515625 L 12.857422 62.474609 L 12.964844 62.435547 L 13.070312 62.396484 L 13.179688 62.359375 L 13.287109 62.322266 L 13.398438 62.287109 L 13.507812 62.253906 L 13.617188 62.220703 L 13.728516 62.189453 L 13.841797 62.158203 L 13.953125 62.128906 L 14.064453 62.099609 L 14.177734 62.072266 L 14.291016 62.046875 L 14.404297 62.019531 L 14.519531 61.994141 L 14.632812 61.970703 L 14.748047 61.947266 L 14.830078 61.933594 L 14.863281 61.927734 L 14.978516 61.90625 L 15.09375 61.886719 L 15.210938 61.867188 L 15.326172 61.849609 L 15.441406 61.832031 L 15.558594 61.816406 L 15.675781 61.802734 L 15.792969 61.787109 L 15.908203 61.773438 L 16.025391 61.761719 L 16.142578 61.748047 L 16.259766 61.738281 L 16.376953 61.728516 L 16.492188 61.71875 L 16.609375 61.710938 L 16.726562 61.701172 L 16.958984 61.6875 L 17.191406 61.677734 L 17.423828 61.669922 L 17.654297 61.664062 L 17.884766 61.662109 L 18.113281 61.662109 L 18.339844 61.664062 L 18.474609 61.667969 L 18.607422 61.671875 L 18.740234 61.675781 L 18.875 61.679688 L 19.007812 61.685547 L 19.140625 61.691406 L 19.273438 61.699219 L 19.40625 61.707031 L 19.539062 61.716797 L 19.673828 61.724609 L 19.939453 61.746094 L 20.203125 61.769531 L 20.46875 61.796875 L 20.732422 61.826172 L 20.996094 61.859375 L 21.259766 61.894531 L 21.521484 61.931641 L 21.783203 61.972656 L 22.046875 62.015625 L 22.306641 62.060547 L 22.568359 62.107422 L 22.828125 62.158203 L 23.087891 62.210938 L 23.347656 62.265625 L 23.605469 62.322266 L 23.863281 62.382812 L 24.121094 62.443359 L 24.378906 62.507812 L 24.634766 62.572266 L 24.890625 62.640625 L 25.146484 62.708984 L 25.400391 62.78125 L 25.654297 62.853516 L 25.908203 62.929688 L 26.160156 63.005859 L 26.412109 63.083984 L 26.664062 63.164062 L 26.914062 63.246094 L 27.166016 63.328125 L 27.414062 63.414062 L 27.664062 63.5 L 27.912109 63.587891 L 28.160156 63.677734 L 28.40625 63.767578 L 28.652344 63.859375 L 28.898438 63.951172 L 29.142578 64.046875 L 29.386719 64.140625 L 29.630859 64.236328 L 29.873047 64.333984 L 30.113281 64.431641 L 30.355469 64.53125 L 30.595703 64.630859 L 30.835938 64.732422 L 31.072266 64.832031 L 31.310547 64.935547 L 31.548828 65.037109 L 31.783203 65.140625 L 32.019531 65.244141 L 32.253906 65.349609 L 32.486328 65.455078 L 32.951172 65.666016 L 33.412109 65.878906 L 33.871094 66.091797 L 34.324219 66.304688 L 34.775391 66.517578 L 35.220703 66.732422 L 35.662109 66.943359 L 36.101562 67.15625 L 36.859375 67.521484 L 36.966797 67.574219 L 37.392578 67.78125 L 37.814453 67.984375 L 38.232422 68.1875 L 38.646484 68.384766 L 39.056641 68.578125 L 39.460938 68.767578 L 39.861328 68.951172 L 40.060547 69.042969 L 40.257812 69.132812 L 40.453125 69.21875 L 40.650391 69.306641 L 40.84375 69.390625 L 41.037109 69.474609 L 41.230469 69.554688 L 41.421875 69.636719 L 41.611328 69.714844 L 41.800781 69.791016 L 41.986328 69.865234 L 42.173828 69.939453 L 42.359375 70.009766 L 42.544922 70.078125 L 42.728516 70.146484 L 42.910156 70.212891 L 43.091797 70.275391 L 43.271484 70.335938 L 43.451172 70.394531 L 43.628906 70.451172 L 43.806641 70.505859 L 43.982422 70.556641 L 44.158203 70.607422 L 44.332031 70.654297 L 44.505859 70.697266 L 44.677734 70.740234 L 44.847656 70.779297 L 45.017578 70.814453 L 45.1875 70.849609 L 45.355469 70.878906 L 45.523438 70.90625 L 45.689453 70.931641 L 45.855469 70.953125 L 46.019531 70.970703 L 46.181641 70.986328 L 46.265625 70.992188 L 46.283203 70.994141 C 49.785453 71.89078 54.350943 73.859023 60.119141 79.830078 C 62.529138 82.320076 64.64922 87.25094 65.699219 89.960938 C 65.789219 90.200937 66.160625 90.119375 66.140625 89.859375 C 65.801715 85.712707 63.819179 73.859635 52.228516 70.257812 L 52.335938 70.224609 L 52.492188 70.171875 L 52.650391 70.119141 L 52.806641 70.0625 L 52.960938 70.005859 L 53.115234 69.947266 L 53.269531 69.884766 L 53.423828 69.822266 L 53.576172 69.757812 L 53.728516 69.689453 L 53.878906 69.619141 L 54.027344 69.548828 L 54.175781 69.474609 L 54.324219 69.398438 L 54.470703 69.320312 L 54.615234 69.238281 L 54.759766 69.15625 L 54.902344 69.070312 L 55.042969 68.982422 L 55.183594 68.894531 L 55.322266 68.800781 L 55.458984 68.707031 L 55.59375 68.609375 L 55.728516 68.509766 L 55.859375 68.40625 L 55.990234 68.302734 L 56.117188 68.195312 L 56.244141 68.085938 L 56.369141 67.972656 L 56.490234 67.859375 L 56.552734 67.798828 L 56.611328 67.740234 L 56.671875 67.679688 L 56.730469 67.619141 L 56.789062 67.558594 L 56.845703 67.496094 L 56.902344 67.433594 L 56.960938 67.369141 L 57.015625 67.306641 L 57.070312 67.240234 L 57.126953 67.175781 L 57.179688 67.109375 L 57.232422 67.042969 L 57.285156 66.974609 L 57.337891 66.90625 L 57.390625 66.837891 L 57.439453 66.767578 L 57.490234 66.697266 L 57.539062 66.626953 L 57.587891 66.554688 L 57.636719 66.482422 L 57.683594 66.410156 L 57.730469 66.335938 L 57.775391 66.261719 L 57.820312 66.185547 L 57.865234 66.109375 L 57.908203 66.033203 L 57.951172 65.955078 L 57.992188 65.878906 L 58.033203 65.800781 L 58.074219 65.720703 L 58.113281 65.640625 L 58.152344 65.560547 L 58.191406 65.478516 L 58.228516 65.396484 L 58.263672 65.3125 L 58.298828 65.230469 L 58.332031 65.146484 L 58.367188 65.060547 L 58.400391 64.974609 L 58.431641 64.888672 L 58.462891 64.802734 L 58.492188 64.714844 L 58.521484 64.626953 L 58.548828 64.537109 L 58.576172 64.447266 L 58.603516 64.357422 L 58.628906 64.267578 L 58.652344 64.175781 L 58.675781 64.083984 L 58.697266 63.990234 L 58.720703 63.898438 L 58.740234 63.804688 L 58.759766 63.708984 L 58.779297 63.613281 L 58.796875 63.517578 L 58.8125 63.421875 L 58.828125 63.324219 L 58.84375 63.226562 L 58.857422 63.128906 L 58.869141 63.029297 L 58.880859 62.929688 L 58.890625 62.828125 L 58.900391 62.728516 L 58.908203 62.626953 L 58.917969 62.523438 L 58.923828 62.421875 L 58.929688 62.318359 L 58.933594 62.214844 L 58.935547 62.109375 L 58.9375 62.003906 L 58.939453 61.898438 L 58.939453 61.791016 L 58.939453 61.683594 L 58.9375 61.576172 L 58.933594 61.46875 L 58.929688 61.359375 L 58.923828 61.248047 L 58.917969 61.138672 L 58.910156 61.027344 L 58.902344 60.917969 L 58.892578 60.804688 L 58.882812 60.691406 L 58.869141 60.578125 L 58.857422 60.464844 L 58.84375 60.351562 L 58.828125 60.234375 L 58.8125 60.119141 L 58.794922 60.003906 L 58.775391 59.886719 L 58.755859 59.769531 L 58.734375 59.650391 L 58.712891 59.53125 L 58.689453 59.412109 L 58.666016 59.292969 L 58.640625 59.171875 L 58.615234 59.048828 L 58.587891 58.927734 L 58.558594 58.804688 L 58.527344 58.681641 L 58.496094 58.556641 L 58.464844 58.431641 L 58.431641 58.306641 L 58.396484 58.181641 L 58.384766 58.134766 L 58.435547 58.148438 L 58.591797 58.193359 L 58.75 58.234375 L 58.908203 58.273438 L 59.066406 58.310547 L 59.226562 58.345703 L 59.384766 58.376953 L 59.542969 58.408203 L 59.701172 58.435547 L 59.861328 58.462891 L 60.019531 58.486328 L 60.179688 58.507812 L 60.337891 58.527344 L 60.496094 58.544922 L 60.654297 58.560547 L 60.814453 58.572266 L 60.972656 58.583984 L 61.130859 58.59375 L 61.287109 58.599609 L 61.445312 58.605469 L 61.601562 58.607422 L 61.757812 58.607422 L 61.914062 58.605469 L 62.070312 58.601562 L 62.226562 58.595703 L 62.380859 58.587891 L 62.535156 58.576172 L 62.6875 58.564453 L 62.841797 58.548828 L 62.994141 58.53125 L 63.146484 58.513672 L 63.296875 58.492188 L 63.447266 58.46875 L 63.597656 58.441406 L 63.744141 58.414062 L 63.892578 58.384766 L 64.039062 58.351562 L 64.128906 58.330078 L 64.134766 58.410156 L 64.152344 58.691406 L 64.173828 58.966797 L 64.173828 58.96875 L 64.195312 59.232422 L 64.220703 59.490234 L 64.244141 59.740234 L 64.269531 59.984375 L 64.298828 60.21875 L 64.326172 60.445312 L 64.357422 60.664062 L 64.390625 60.875 L 64.423828 61.074219 L 64.443359 61.177734 L 64.462891 61.275391 L 64.496094 61.447266 L 64.535156 61.621094 L 64.576172 61.794922 L 64.619141 61.966797 L 64.667969 62.138672 L 64.716797 62.308594 L 64.767578 62.478516 L 64.822266 62.648438 L 64.880859 62.816406 L 64.939453 62.982422 L 65.001953 63.148438 L 65.066406 63.314453 L 65.132812 63.478516 L 65.201172 63.640625 L 65.273438 63.802734 L 65.347656 63.962891 L 65.423828 64.121094 L 65.503906 64.28125 L 65.582031 64.4375 L 65.666016 64.59375 L 65.751953 64.748047 L 65.839844 64.900391 L 65.927734 65.052734 L 66.019531 65.203125 L 66.113281 65.353516 L 66.208984 65.5 L 66.306641 65.646484 L 66.40625 65.792969 L 66.507812 65.935547 L 66.611328 66.076172 L 66.716797 66.216797 L 66.824219 66.355469 L 66.933594 66.492188 L 67.044922 66.628906 L 67.158203 66.761719 L 67.273438 66.892578 L 67.388672 67.023438 L 67.507812 67.152344 L 67.628906 67.277344 L 67.75 67.402344 L 67.873047 67.525391 L 67.998047 67.646484 L 68.125 67.765625 L 68.253906 67.882812 L 68.382812 67.998047 L 68.515625 68.111328 L 68.648438 68.220703 L 68.783203 68.330078 L 68.919922 68.4375 L 69.056641 68.541016 L 69.195312 68.642578 L 69.337891 68.742188 L 69.478516 68.841797 L 69.623047 68.935547 L 69.767578 69.029297 L 69.914062 69.119141 L 70.0625 69.207031 L 70.212891 69.292969 L 70.361328 69.375 L 70.513672 69.455078 L 70.667969 69.533203 L 70.822266 69.607422 L 70.978516 69.679688 L 71.134766 69.748047 L 71.292969 69.816406 L 71.451172 69.880859 L 71.613281 69.939453 L 71.773438 69.998047 L 71.9375 70.052734 L 72.101562 70.103516 L 72.265625 70.152344 L 72.431641 70.197266 L 72.599609 70.240234 L 72.767578 70.279297 L 72.935547 70.314453 L 73.105469 70.345703 L 73.271484 70.373047 L 73.361328 70.386719 L 73.447266 70.398438 L 73.533203 70.410156 L 73.619141 70.419922 L 73.705078 70.429688 L 73.792969 70.4375 L 73.878906 70.445312 L 73.966797 70.451172 L 74.052734 70.457031 L 74.140625 70.462891 L 74.228516 70.466797 L 74.314453 70.46875 L 74.402344 70.470703 L 74.490234 70.470703 L 74.578125 70.470703 L 74.666016 70.470703 L 74.753906 70.466797 L 74.84375 70.464844 L 74.931641 70.460938 L 75.019531 70.455078 L 75.107422 70.449219 L 75.195312 70.441406 L 75.283203 70.433594 L 75.373047 70.423828 L 75.460938 70.412109 L 75.550781 70.402344 L 75.638672 70.390625 L 75.726562 70.376953 L 75.816406 70.361328 L 75.904297 70.345703 L 75.992188 70.330078 L 76.082031 70.3125 L 76.169922 70.292969 L 76.259766 70.273438 L 76.347656 70.251953 L 76.435547 70.230469 L 76.523438 70.207031 L 76.613281 70.183594 L 76.701172 70.158203 L 76.789062 70.130859 L 76.876953 70.103516 L 76.964844 70.074219 L 77.052734 70.046875 L 77.140625 70.015625 L 77.228516 69.982422 L 77.314453 69.949219 L 77.402344 69.916016 L 77.490234 69.880859 L 77.576172 69.84375 L 77.662109 69.806641 L 77.75 69.767578 L 77.835938 69.728516 L 77.921875 69.6875 L 78.007812 69.646484 L 78.09375 69.603516 L 78.179688 69.558594 L 78.265625 69.513672 L 78.349609 69.466797 L 78.435547 69.419922 L 78.519531 69.371094 L 78.603516 69.320312 L 78.6875 69.271484 L 78.771484 69.21875 L 78.855469 69.166016 L 78.9375 69.111328 L 79.021484 69.056641 L 79.103516 69 L 79.185547 68.941406 L 79.267578 68.884766 L 79.349609 68.824219 L 79.431641 68.763672 L 79.511719 68.701172 L 79.574219 68.652344 L 79.626953 68.916016 L 79.6875 69.222656 L 79.748047 69.527344 L 79.810547 69.830078 L 79.873047 70.132812 L 79.9375 70.433594 L 80.001953 70.734375 L 80.066406 71.03125 L 80.132812 71.328125 L 80.199219 71.621094 L 80.267578 71.914062 L 80.335938 72.205078 L 80.404297 72.494141 L 80.472656 72.783203 L 80.542969 73.068359 L 80.613281 73.351562 L 80.685547 73.632812 L 80.757812 73.916016 L 80.777344 73.992188 L 80.800781 74.072266 L 80.826172 74.152344 L 80.851562 74.232422 L 80.878906 74.3125 L 80.90625 74.390625 L 80.935547 74.46875 L 80.964844 74.546875 L 80.996094 74.623047 L 81.029297 74.699219 L 81.0625 74.775391 L 81.097656 74.849609 L 81.132812 74.925781 L 81.169922 74.998047 L 81.207031 75.072266 L 81.246094 75.144531 L 81.287109 75.216797 L 81.328125 75.287109 L 81.369141 75.357422 L 81.412109 75.429688 L 81.457031 75.498047 L 81.501953 75.566406 L 81.548828 75.634766 L 81.595703 75.701172 L 81.642578 75.769531 L 81.691406 75.835938 L 81.740234 75.900391 L 81.791016 75.964844 L 81.810547 75.988281 L 81.841797 76.029297 L 81.894531 76.09375 L 81.947266 76.15625 L 82.001953 76.21875 L 82.054688 76.279297 L 82.109375 76.339844 L 82.166016 76.400391 L 82.222656 76.458984 L 82.279297 76.517578 L 82.339844 76.576172 L 82.396484 76.634766 L 82.460938 76.693359 L 82.578125 76.802734 L 82.701172 76.910156 L 82.828125 77.017578 L 82.957031 77.121094 L 83.089844 77.224609 L 83.224609 77.322266 L 83.359375 77.419922 L 83.498047 77.513672 L 83.640625 77.607422 L 83.783203 77.697266 L 83.927734 77.783203 L 84.076172 77.869141 L 84.224609 77.953125 L 84.376953 78.033203 L 84.529297 78.111328 L 84.685547 78.189453 L 84.841797 78.263672 L 85.001953 78.335938 L 85.162109 78.404297 L 85.324219 78.472656 L 85.488281 78.539062 L 85.654297 78.603516 L 85.697266 78.619141 C 85.66735 78.637589 85.639558 78.651067 85.609375 78.669922 C 74.449386 85.629915 73.160156 97.169922 73.160156 97.169922 C 73.160156 97.169922 82.159239 79.000237 102.19922 81.740234 C 103.26922 81.890234 104.20937 81.009686 104.10938 79.929688 C 103.71938 75.769692 105.77008 70.589528 107.08008 67.769531 C 107.58008 66.709532 107.07 65.499296 106 65.029297 C 102.93 63.669298 99.719685 60.870857 97.679688 58.880859 C 96.639689 57.87086 94.920859 58.239845 94.380859 59.589844 L 92.359375 64.679688 C 92.359375 64.679687 99.380471 63.099066 101.23047 66.539062 C 102.60525 69.095418 101.89762 71.822967 100.99219 73.605469 L 100.55859 73.712891 L 100.55078 73.71875 L 100.40234 73.830078 L 100.28711 73.914062 L 100.26172 73.933594 L 100.11719 74.033203 L 99.974609 74.132812 L 99.828125 74.230469 L 99.681641 74.324219 L 99.53125 74.417969 L 99.382812 74.507812 L 99.230469 74.597656 L 99.076172 74.683594 L 98.921875 74.769531 L 98.767578 74.851562 L 98.609375 74.933594 L 98.451172 75.011719 L 98.292969 75.089844 L 98.132812 75.164062 L 97.970703 75.238281 L 97.808594 75.308594 L 97.644531 75.378906 L 97.480469 75.445312 L 97.314453 75.511719 L 97.148438 75.574219 L 96.980469 75.636719 L 96.8125 75.695312 L 96.644531 75.753906 L 96.474609 75.808594 L 96.304688 75.863281 L 96.134766 75.914062 L 95.962891 75.964844 L 95.789062 76.013672 L 95.720703 76.03125 L 95.617188 76.058594 L 95.445312 76.103516 L 95.271484 76.146484 L 95.097656 76.185547 L 94.923828 76.224609 L 94.748047 76.261719 L 94.574219 76.296875 L 94.400391 76.328125 L 94.224609 76.359375 L 94.050781 76.388672 L 93.875 76.416016 L 93.699219 76.441406 L 93.525391 76.464844 L 93.349609 76.486328 L 93.175781 76.507812 L 93 76.525391 L 92.826172 76.541016 L 92.650391 76.554688 L 92.476562 76.568359 L 92.304688 76.578125 L 92.130859 76.587891 L 91.957031 76.59375 L 91.785156 76.599609 L 91.613281 76.603516 L 91.443359 76.605469 L 91.271484 76.603516 L 91.101562 76.603516 L 90.933594 76.599609 L 90.765625 76.59375 L 90.597656 76.587891 L 90.431641 76.578125 L 90.265625 76.566406 L 90.099609 76.554688 L 89.935547 76.541016 L 89.773438 76.525391 L 89.611328 76.509766 L 89.451172 76.490234 L 89.292969 76.46875 L 89.134766 76.447266 L 88.978516 76.423828 L 88.822266 76.398438 L 88.669922 76.371094 L 88.515625 76.34375 L 88.365234 76.3125 L 88.216797 76.28125 L 88.068359 76.248047 L 87.921875 76.214844 L 87.777344 76.177734 L 87.634766 76.140625 L 87.494141 76.101562 L 87.355469 76.060547 L 87.21875 76.019531 L 87.082031 75.976562 L 86.949219 75.931641 L 86.818359 75.886719 L 86.689453 75.839844 L 86.5625 75.792969 L 86.4375 75.742188 L 86.314453 75.691406 L 86.195312 75.640625 L 86.076172 75.587891 L 85.962891 75.533203 L 85.849609 75.478516 L 85.738281 75.421875 L 85.630859 75.363281 L 85.523438 75.306641 L 85.421875 75.246094 L 85.320312 75.1875 L 85.222656 75.126953 L 85.128906 75.064453 L 85.035156 75.003906 L 84.947266 74.939453 L 84.859375 74.876953 L 84.775391 74.8125 L 84.695312 74.746094 L 84.617188 74.681641 L 84.541016 74.615234 L 84.464844 74.546875 L 84.433594 74.515625 L 84.398438 74.482422 L 84.365234 74.449219 L 84.332031 74.414062 L 84.298828 74.382812 L 84.267578 74.347656 L 84.236328 74.314453 L 84.205078 74.279297 L 84.177734 74.246094 L 84.148438 74.212891 L 84.119141 74.177734 L 84.091797 74.144531 L 84.064453 74.109375 L 84.039062 74.076172 L 84.013672 74.042969 L 83.988281 74.007812 L 83.964844 73.974609 L 83.941406 73.939453 L 83.917969 73.904297 L 83.896484 73.871094 L 83.875 73.835938 L 83.853516 73.802734 L 83.833984 73.767578 L 83.814453 73.732422 L 83.794922 73.697266 L 83.777344 73.664062 L 83.759766 73.628906 L 83.742188 73.59375 L 83.726562 73.558594 L 83.710938 73.523438 L 83.695312 73.488281 L 83.679688 73.453125 L 83.666016 73.419922 L 83.652344 73.382812 L 83.638672 73.347656 L 83.626953 73.3125 L 83.615234 73.277344 L 83.603516 73.240234 L 83.59375 73.205078 L 83.582031 73.164062 L 83.511719 72.900391 L 83.441406 72.630859 L 83.371094 72.357422 L 83.302734 72.083984 L 83.234375 71.808594 L 83.166016 71.529297 L 83.099609 71.248047 L 83.03125 70.966797 L 82.964844 70.681641 L 82.900391 70.396484 L 82.835938 70.109375 L 82.769531 69.818359 L 82.707031 69.527344 L 82.644531 69.236328 L 82.580078 68.941406 L 82.519531 68.646484 L 82.457031 68.349609 L 82.398438 68.050781 L 82.337891 67.751953 L 82.279297 67.449219 L 82.220703 67.148438 L 82.1875 66.96875 L 82.164062 66.845703 L 82.107422 66.542969 L 82.050781 66.236328 L 81.994141 65.931641 L 81.939453 65.623047 L 81.886719 65.316406 L 81.832031 65.007812 L 81.779297 64.699219 L 81.728516 64.390625 L 81.677734 64.080078 L 81.626953 63.769531 L 81.578125 63.457031 L 81.529297 63.146484 L 81.482422 62.835938 L 81.435547 62.523438 L 81.390625 62.210938 L 81.345703 61.898438 L 81.300781 61.585938 L 81.257812 61.273438 L 81.216797 60.960938 L 81.175781 60.648438 L 81.134766 60.335938 L 81.095703 60.023438 L 81.056641 59.712891 L 81.019531 59.400391 L 80.988281 59.134766 L 80.982422 59.089844 L 80.945312 58.779297 L 80.910156 58.46875 L 80.876953 58.158203 L 80.84375 57.849609 L 80.810547 57.541016 L 80.779297 57.234375 L 80.748047 56.927734 L 80.720703 56.621094 L 80.691406 56.316406 L 80.664062 56.011719 L 80.638672 55.707031 L 80.613281 55.40625 L 80.589844 55.105469 L 80.566406 54.804688 L 80.544922 54.507812 L 80.523438 54.210938 L 80.505859 53.916016 L 80.496094 53.783203 L 80.490234 53.65625 L 80.486328 53.529297 L 80.482422 53.404297 L 80.480469 53.279297 L 80.480469 53.15625 L 80.482422 53.033203 L 80.484375 52.912109 L 80.488281 52.791016 L 80.492188 52.671875 L 80.5 52.552734 L 80.507812 52.433594 L 80.517578 52.316406 L 80.517578 52.308594 L 80.527344 52.201172 L 80.539062 52.085938 L 80.552734 51.970703 L 80.566406 51.857422 L 80.580078 51.746094 L 80.597656 51.634766 L 80.615234 51.523438 L 80.634766 51.414062 L 80.654297 51.304688 L 80.677734 51.197266 L 80.699219 51.089844 L 80.724609 50.984375 L 80.75 50.878906 L 80.775391 50.775391 L 80.804688 50.671875 L 80.832031 50.568359 L 80.863281 50.466797 L 80.894531 50.367188 L 80.927734 50.267578 L 80.960938 50.167969 L 80.996094 50.070312 L 81.03125 49.972656 L 81.068359 49.876953 L 81.107422 49.78125 L 81.146484 49.6875 L 81.1875 49.59375 L 81.228516 49.5 L 81.271484 49.408203 L 81.316406 49.316406 L 81.361328 49.226562 L 81.40625 49.138672 L 81.453125 49.050781 L 81.501953 48.962891 L 81.552734 48.875 L 81.601562 48.789062 L 81.652344 48.703125 L 81.705078 48.619141 L 81.759766 48.537109 L 81.814453 48.455078 L 81.869141 48.373047 L 81.925781 48.292969 L 81.984375 48.212891 L 82.042969 48.132812 L 82.101562 48.054688 L 82.162109 47.978516 L 82.181641 47.953125 L 82.224609 47.900391 L 82.285156 47.824219 L 82.347656 47.748047 L 82.412109 47.673828 L 82.476562 47.599609 L 82.542969 47.525391 L 82.609375 47.453125 L 82.677734 47.382812 L 82.746094 47.310547 L 82.814453 47.240234 L 82.886719 47.171875 L 82.957031 47.103516 L 83.03125 47.035156 L 83.103516 46.970703 L 83.179688 46.904297 L 83.255859 46.839844 L 83.330078 46.775391 L 83.408203 46.712891 L 83.488281 46.650391 L 83.566406 46.587891 L 83.648438 46.527344 L 83.728516 46.46875 L 83.810547 46.410156 L 83.894531 46.351562 L 83.978516 46.294922 L 84.064453 46.238281 L 84.150391 46.183594 L 84.236328 46.128906 L 84.324219 46.076172 L 84.414062 46.023438 L 84.503906 45.972656 L 84.59375 45.921875 L 84.685547 45.871094 L 84.777344 45.822266 L 84.871094 45.775391 L 84.939453 45.740234 L 84.966797 45.728516 L 85.060547 45.679688 L 85.154297 45.634766 L 85.251953 45.589844 L 85.349609 45.544922 L 85.447266 45.501953 L 85.546875 45.458984 L 85.644531 45.417969 L 85.746094 45.378906 L 85.847656 45.337891 L 85.949219 45.300781 L 86.052734 45.261719 L 86.15625 45.226562 L 86.261719 45.191406 L 86.365234 45.15625 L 86.472656 45.123047 L 86.580078 45.091797 L 86.6875 45.060547 L 86.796875 45.029297 L 86.904297 45 L 87.015625 44.972656 L 87.126953 44.945312 L 87.238281 44.919922 L 87.349609 44.894531 L 87.462891 44.871094 L 87.576172 44.847656 L 87.691406 44.826172 L 87.806641 44.806641 L 87.923828 44.787109 L 88.039062 44.769531 L 88.15625 44.751953 L 88.273438 44.734375 L 88.275391 44.734375 L 88.392578 44.71875 L 88.511719 44.703125 L 88.634766 44.689453 L 89.318359 44.617188 L 89.998047 44.548828 L 90.671875 44.480469 L 91.339844 44.416016 L 91.789062 44.373047 L 91.996094 44.351562 L 92.646484 44.287109 L 93.283203 44.226562 L 93.910156 44.167969 L 94.525391 44.111328 L 94.966797 44.070312 L 95.123047 44.054688 L 95.708984 43.998047 L 96.277344 43.943359 L 96.830078 43.892578 L 97.363281 43.84375 L 97.878906 43.798828 L 98.371094 43.755859 L 98.84375 43.714844 L 99.294922 43.675781 L 99.945312 43.623047 L 100.12109 43.607422 L 100.8457 43.542969 L 101.45703 43.490234 L 101.94922 43.449219 L 102.31055 43.419922 L 102.51953 43.402344 L 102.61133 43.396484 L 102.78516 43.21875 L 102.60938 43.044922 L 102.51758 43.037109 L 102.30859 43.021484 L 101.94531 42.996094 L 101.45312 42.964844 L 100.83789 42.925781 L 100.11133 42.882812 L 99.933594 42.871094 L 99.279297 42.841797 L 98.826172 42.820312 L 98.351562 42.800781 L 97.853516 42.779297 L 97.335938 42.759766 L 96.798828 42.740234 L 96.242188 42.720703 L 95.667969 42.701172 L 95.076172 42.683594 L 94.919922 42.679688 L 94.472656 42.671875 L 93.851562 42.660156 L 93.21875 42.652344 L 92.574219 42.646484 L 91.917969 42.640625 L 91.707031 42.638672 L 91.251953 42.640625 L 90.576172 42.644531 L 89.892578 42.650391 L 89.203125 42.658203 L 88.505859 42.669922 L 88.367188 42.673828 L 88.226562 42.677734 L 88.089844 42.683594 L 88.087891 42.683594 L 87.947266 42.693359 L 87.808594 42.703125 L 87.669922 42.714844 L 87.53125 42.726562 L 87.392578 42.742188 L 87.255859 42.757812 L 87.119141 42.775391 L 86.982422 42.792969 L 86.845703 42.8125 L 86.710938 42.835938 L 86.576172 42.857422 L 86.441406 42.882812 L 86.306641 42.90625 L 86.173828 42.933594 L 86.041016 42.962891 L 85.908203 42.992188 L 85.777344 43.023438 L 85.646484 43.056641 L 85.515625 43.089844 L 85.384766 43.125 L 85.255859 43.162109 L 85.126953 43.199219 L 84.998047 43.238281 L 84.871094 43.279297 L 84.744141 43.322266 L 84.617188 43.365234 L 84.492188 43.410156 L 84.367188 43.457031 L 84.242188 43.505859 L 84.119141 43.554688 L 83.996094 43.603516 L 83.962891 43.619141 L 83.875 43.65625 L 83.753906 43.712891 L 83.634766 43.767578 L 83.515625 43.824219 L 83.396484 43.882812 L 83.279297 43.943359 L 83.162109 44.003906 L 83.046875 44.066406 L 82.931641 44.130859 L 82.816406 44.197266 L 82.703125 44.263672 L 82.591797 44.330078 L 82.480469 44.400391 L 82.369141 44.472656 L 82.259766 44.544922 L 82.150391 44.617188 L 82.044922 44.691406 L 81.9375 44.767578 L 81.830078 44.845703 L 81.726562 44.925781 L 81.623047 45.005859 L 81.519531 45.087891 L 81.419922 45.169922 L 81.318359 45.253906 L 81.21875 45.339844 L 81.119141 45.425781 L 81.023438 45.513672 L 80.927734 45.603516 L 80.832031 45.693359 L 80.738281 45.787109 L 80.644531 45.880859 L 80.552734 45.974609 L 80.462891 46.070312 L 80.373047 46.167969 L 80.285156 46.265625 L 80.226562 46.335938 L 80.199219 46.367188 L 80.115234 46.46875 L 80.03125 46.572266 L 79.949219 46.675781 L 79.869141 46.78125 L 79.789062 46.888672 L 79.712891 46.996094 L 79.636719 47.105469 L 79.560547 47.216797 L 79.486328 47.328125 L 79.414062 47.439453 L 79.34375 47.554688 L 79.273438 47.669922 L 79.205078 47.785156 L 79.138672 47.902344 L 79.072266 48.021484 L 79.009766 48.140625 L 78.947266 48.261719 L 78.886719 48.384766 L 78.826172 48.507812 L 78.769531 48.630859 L 78.712891 48.755859 L 78.658203 48.882812 L 78.605469 49.009766 L 78.552734 49.138672 L 78.503906 49.267578 L 78.455078 49.398438 L 78.408203 49.529297 L 78.361328 49.662109 L 78.318359 49.794922 L 78.275391 49.929688 L 78.236328 50.064453 L 78.197266 50.201172 L 78.160156 50.339844 L 78.123047 50.478516 L 78.089844 50.617188 L 78.058594 50.757812 L 78.027344 50.898438 L 77.998047 51.041016 L 77.970703 51.183594 L 77.945312 51.328125 L 77.921875 51.472656 L 77.900391 51.619141 L 77.880859 51.765625 L 77.861328 51.912109 L 77.845703 52.050781 L 77.84375 52.0625 L 77.830078 52.210938 L 77.816406 52.361328 L 77.806641 52.511719 L 77.796875 52.664062 L 77.789062 52.816406 L 77.783203 52.970703 L 77.779297 53.125 L 77.777344 53.279297 L 77.777344 53.435547 L 77.779297 53.591797 L 77.783203 53.75 L 77.787109 53.908203 L 77.794922 54.064453 L 77.810547 54.371094 L 77.826172 54.677734 L 77.845703 54.986328 L 77.863281 55.296875 L 77.882812 55.605469 L 77.904297 55.917969 L 77.925781 56.230469 L 77.949219 56.542969 L 77.972656 56.857422 L 77.998047 57.171875 L 78.025391 57.488281 L 78.052734 57.804688 L 78.080078 58.121094 L 78.109375 58.439453 L 78.140625 58.757812 L 78.171875 59.076172 L 78.203125 59.396484 L 78.207031 59.443359 L 78.236328 59.716797 L 78.273438 60.035156 L 78.308594 60.355469 L 78.345703 60.677734 L 78.384766 60.998047 L 78.423828 61.318359 L 78.462891 61.638672 L 78.503906 61.960938 L 78.544922 62.28125 L 78.587891 62.601562 L 78.632812 62.923828 L 78.675781 63.242188 L 78.722656 63.564453 L 78.767578 63.884766 L 78.814453 64.203125 L 78.863281 64.521484 L 78.912109 64.841797 L 78.953125 65.097656 L 78.90625 65.154297 L 78.851562 65.222656 L 78.796875 65.287109 L 78.742188 65.353516 L 78.6875 65.417969 L 78.632812 65.478516 L 78.576172 65.541016 L 78.521484 65.601562 L 78.466797 65.660156 L 78.412109 65.71875 L 78.357422 65.775391 L 78.302734 65.832031 L 78.246094 65.886719 L 78.191406 65.941406 L 78.136719 65.994141 L 78.080078 66.046875 L 78.025391 66.097656 L 77.970703 66.146484 L 77.914062 66.195312 L 77.859375 66.244141 L 77.802734 66.291016 L 77.748047 66.337891 L 77.691406 66.382812 L 77.636719 66.427734 L 77.580078 66.470703 L 77.525391 66.511719 L 77.470703 66.552734 L 77.414062 66.59375 L 77.359375 66.632812 L 77.304688 66.671875 L 77.248047 66.708984 L 77.193359 66.746094 L 77.136719 66.78125 L 77.082031 66.816406 L 77.025391 66.851562 L 76.970703 66.884766 L 76.916016 66.917969 L 76.859375 66.947266 L 76.804688 66.978516 L 76.748047 67.009766 L 76.693359 67.037109 L 76.638672 67.066406 L 76.582031 67.09375 L 76.527344 67.121094 L 76.472656 67.146484 L 76.417969 67.171875 L 76.361328 67.195312 L 76.306641 67.220703 L 76.251953 67.242188 L 76.195312 67.263672 L 76.140625 67.285156 L 76.085938 67.306641 L 76.03125 67.326172 L 75.974609 67.345703 L 75.919922 67.363281 L 75.865234 67.382812 L 75.810547 67.398438 L 75.753906 67.414062 L 75.699219 67.429688 L 75.644531 67.445312 L 75.589844 67.460938 L 75.533203 67.472656 L 75.478516 67.486328 L 75.423828 67.498047 L 75.367188 67.509766 L 75.3125 67.521484 L 75.257812 67.53125 L 75.201172 67.539062 L 75.146484 67.548828 L 75.089844 67.556641 L 75.035156 67.564453 L 74.978516 67.572266 L 74.923828 67.578125 L 74.867188 67.583984 L 74.8125 67.589844 L 74.757812 67.59375 L 74.701172 67.597656 L 74.644531 67.599609 L 74.589844 67.601562 L 74.533203 67.603516 L 74.478516 67.605469 L 74.421875 67.605469 L 74.365234 67.605469 L 74.310547 67.605469 L 74.253906 67.603516 L 74.197266 67.601562 L 74.142578 67.599609 L 74.085938 67.595703 L 74.029297 67.59375 L 73.974609 67.587891 L 73.917969 67.582031 L 73.861328 67.578125 L 73.804688 67.572266 L 73.748047 67.564453 L 73.697266 67.558594 L 73.580078 67.541016 L 73.46875 67.521484 L 73.355469 67.501953 L 73.242188 67.476562 L 73.128906 67.451172 L 73.015625 67.423828 L 72.902344 67.392578 L 72.789062 67.359375 L 72.677734 67.322266 L 72.564453 67.285156 L 72.453125 67.244141 L 72.339844 67.203125 L 72.228516 67.158203 L 72.115234 67.111328 L 72.003906 67.0625 L 71.892578 67.009766 L 71.78125 66.957031 L 71.671875 66.900391 L 71.560547 66.84375 L 71.451172 66.783203 L 71.341797 66.720703 L 71.232422 66.65625 L 71.123047 66.589844 L 71.017578 66.521484 L 70.908203 66.449219 L 70.802734 66.378906 L 70.697266 66.302734 L 70.591797 66.226562 L 70.488281 66.148438 L 70.384766 66.068359 L 70.28125 65.986328 L 70.179688 65.900391 L 70.078125 65.816406 L 69.978516 65.728516 L 69.880859 65.638672 L 69.78125 65.546875 L 69.685547 65.453125 L 69.589844 65.359375 L 69.494141 65.263672 L 69.400391 65.166016 L 69.308594 65.066406 L 69.216797 64.966797 L 69.128906 64.863281 L 69.039062 64.759766 L 68.951172 64.654297 L 68.865234 64.548828 L 68.78125 64.439453 L 68.697266 64.330078 L 68.617188 64.220703 L 68.537109 64.107422 L 68.457031 63.994141 L 68.380859 63.880859 L 68.306641 63.765625 L 68.232422 63.648438 L 68.158203 63.53125 L 68.089844 63.412109 L 68.019531 63.292969 L 67.953125 63.171875 L 67.886719 63.050781 L 67.824219 62.929688 L 67.761719 62.804688 L 67.701172 62.681641 L 67.644531 62.556641 L 67.587891 62.431641 L 67.533203 62.304688 L 67.480469 62.177734 L 67.431641 62.050781 L 67.382812 61.921875 L 67.335938 61.792969 L 67.291016 61.664062 L 67.248047 61.533203 L 67.208984 61.402344 L 67.169922 61.273438 L 67.134766 61.142578 L 67.099609 61.009766 L 67.068359 60.878906 L 67.037109 60.744141 L 67.023438 60.673828 L 67.009766 60.599609 L 66.978516 60.435547 L 66.947266 60.261719 L 66.917969 60.074219 L 66.888672 59.878906 L 66.861328 59.669922 L 66.832031 59.451172 L 66.806641 59.222656 L 66.779297 58.984375 L 66.755859 58.736328 L 66.730469 58.478516 L 66.705078 58.212891 L 66.683594 57.9375 L 66.660156 57.654297 L 66.638672 57.363281 L 66.617188 57.064453 L 66.597656 56.755859 L 66.578125 56.441406 L 66.558594 56.119141 L 66.541016 55.789062 L 66.523438 55.453125 L 66.507812 55.111328 L 66.490234 54.761719 L 66.474609 54.40625 L 66.460938 54.044922 L 66.445312 53.677734 L 66.431641 53.302734 L 66.419922 52.925781 L 66.394531 52.150391 L 66.371094 51.357422 L 66.351562 50.546875 L 66.332031 49.71875 L 66.316406 48.875 L 66.300781 48.019531 L 66.285156 47.150391 L 66.273438 46.271484 L 66.259766 45.382812 L 66.248047 44.486328 L 66.228516 42.679688 L 66.212891 41.25 L 66.207031 40.859375 L 66.185547 39.037109 L 66.162109 37.232422 L 66.162109 37.083984 L 66.162109 36.939453 L 66.162109 36.796875 L 66.166016 36.654297 L 66.169922 36.511719 L 66.175781 36.371094 L 66.183594 36.232422 L 66.191406 36.095703 L 66.201172 35.958984 L 66.212891 35.822266 L 66.224609 35.689453 L 66.238281 35.554688 L 66.253906 35.423828 L 66.269531 35.292969 L 66.287109 35.162109 L 66.306641 35.035156 L 66.328125 34.908203 L 66.349609 34.78125 L 66.373047 34.65625 L 66.396484 34.533203 L 66.423828 34.410156 L 66.449219 34.289062 L 66.478516 34.169922 L 66.494141 34.105469 L 66.507812 34.052734 L 66.537109 33.933594 L 66.570312 33.818359 L 66.603516 33.703125 L 66.636719 33.589844 L 66.671875 33.478516 L 66.708984 33.367188 L 66.746094 33.257812 L 66.785156 33.148438 L 66.826172 33.041016 L 66.869141 32.935547 L 66.912109 32.830078 L 66.955078 32.726562 L 67.001953 32.625 L 67.048828 32.523438 L 67.095703 32.423828 L 67.144531 32.326172 L 67.195312 32.228516 L 67.246094 32.132812 L 67.300781 32.037109 L 67.353516 31.945312 L 67.410156 31.853516 L 67.466797 31.761719 L 67.523438 31.673828 L 67.582031 31.583984 L 67.642578 31.496094 L 67.703125 31.412109 L 67.767578 31.326172 L 67.830078 31.244141 L 67.896484 31.162109 L 67.962891 31.080078 L 68.029297 31.001953 L 68.097656 30.923828 L 68.167969 30.845703 L 68.238281 30.771484 L 68.3125 30.695312 L 68.386719 30.623047 L 68.460938 30.550781 L 68.537109 30.480469 L 68.615234 30.410156 L 68.693359 30.341797 L 68.773438 30.273438 L 68.855469 30.207031 L 68.927734 30.152344 L 68.939453 30.142578 L 69.021484 30.078125 L 69.107422 30.015625 L 69.193359 29.951172 L 69.28125 29.890625 L 69.369141 29.830078 L 69.460938 29.771484 L 69.552734 29.714844 L 69.644531 29.65625 L 69.740234 29.601562 L 69.837891 29.548828 L 69.935547 29.496094 L 70.033203 29.443359 L 70.115234 29.402344 L 70.134766 29.394531 L 70.236328 29.34375 L 70.339844 29.292969 L 70.445312 29.244141 L 70.550781 29.197266 L 70.658203 29.152344 L 70.769531 29.107422 L 70.880859 29.064453 L 70.994141 29.023438 L 71.107422 28.982422 L 71.224609 28.943359 L 71.34375 28.90625 L 71.462891 28.871094 L 71.576172 28.837891 L 71.583984 28.835938 L 71.707031 28.800781 L 71.830078 28.767578 L 71.957031 28.734375 L 72.085938 28.703125 L 72.214844 28.675781 L 72.347656 28.646484 L 72.480469 28.621094 L 72.615234 28.595703 L 72.751953 28.572266 L 72.890625 28.550781 L 73.029297 28.53125 L 73.171875 28.511719 L 73.314453 28.494141 L 73.460938 28.480469 L 73.607422 28.466797 L 73.757812 28.453125 L 73.90625 28.443359 L 74.060547 28.433594 L 74.214844 28.427734 L 74.369141 28.421875 L 74.527344 28.417969 L 74.685547 28.414062 L 74.847656 28.414062 L 74.923828 28.416016 L 75.009766 28.416016 L 75.175781 28.417969 L 75.341797 28.421875 L 75.509766 28.427734 L 75.679688 28.435547 L 75.849609 28.443359 L 76.023438 28.455078 L 76.197266 28.46875 L 76.375 28.482422 L 76.552734 28.498047 L 76.732422 28.517578 L 76.914062 28.537109 L 77.060547 28.554688 L 77.226562 28.576172 L 77.412109 28.601562 L 77.617188 28.630859 L 78.078125 28.695312 L 78.115234 28.701172 L 78.605469 28.78125 L 79.191406 28.878906 L 79.833984 28.986328 L 80.486328 29.097656 L 80.525391 29.105469 L 81.255859 29.255859 L 82.027344 29.417969 L 82.832031 29.585938 L 83.667969 29.763672 L 84.197266 29.876953 L 84.527344 29.947266 L 85.40625 30.142578 L 86.298828 30.341797 L 87.201172 30.542969 L 88.109375 30.748047 L 89.017578 30.953125 L 89.802734 31.134766 L 89.919922 31.162109 L 90.810547 31.369141 L 91.6875 31.576172 L 92.544922 31.78125 L 93.375 31.980469 L 94.175781 32.177734 L 94.943359 32.367188 L 95.310547 32.458984 L 95.669922 32.550781 L 96.015625 32.638672 L 96.351562 32.724609 L 96.673828 32.808594 L 96.982422 32.890625 L 97.277344 32.970703 L 97.558594 33.046875 L 97.826172 33.121094 L 98.076172 33.191406 L 98.310547 33.259766 L 98.529297 33.324219 L 98.728516 33.386719 L 98.884766 33.435547 L 98.912109 33.443359 L 99.076172 33.498047 L 99.220703 33.550781 L 99.076172 33.496094 L 98.914062 33.4375 L 98.888672 33.427734 L 98.732422 33.375 L 98.533203 33.308594 L 98.318359 33.238281 L 98.085938 33.164062 L 97.835938 33.087891 L 97.570312 33.005859 L 97.291016 32.923828 L 96.998047 32.835938 L 96.689453 32.746094 L 96.369141 32.654297 L 96.037109 32.558594 L 95.691406 32.462891 L 95.337891 32.363281 L 94.970703 32.261719 L 94.207031 32.052734 L 93.412109 31.837891 L 92.585938 31.615234 L 91.734375 31.390625 L 90.861328 31.162109 L 89.976562 30.931641 L 89.859375 30.902344 L 89.078125 30.699219 L 88.177734 30.466797 L 87.275391 30.236328 L 86.378906 30.007812 L 85.490234 29.783203 L 84.617188 29.564453 L 84.289062 29.482422 L 83.765625 29.349609 L 82.935547 29.140625 L 82.136719 28.939453 L 81.371094 28.748047 L 80.646484 28.568359 L 80.607422 28.558594 L 79.96875 28.380859 L 79.339844 28.207031 L 78.763672 28.052734 L 78.28125 27.923828 L 78.244141 27.912109 L 77.791016 27.787109 L 77.587891 27.732422 L 77.402344 27.683594 L 77.234375 27.640625 L 77.085938 27.601562 L 76.898438 27.556641 L 76.714844 27.515625 L 76.529297 27.474609 L 76.347656 27.435547 L 76.164062 27.398438 L 75.984375 27.363281 L 75.804688 27.330078 L 75.626953 27.300781 L 75.449219 27.271484 L 75.273438 27.244141 L 75.097656 27.220703 L 75.005859 27.208984 L 74.923828 27.199219 L 74.751953 27.179688 L 74.578125 27.160156 L 74.408203 27.146484 L 74.238281 27.132812 L 74.070312 27.119141 L 73.902344 27.111328 L 73.736328 27.103516 L 73.570312 27.097656 L 73.40625 27.09375 L 73.244141 27.091797 L 73.082031 27.091797 L 72.921875 27.095703 L 72.761719 27.099609 L 72.603516 27.105469 L 72.445312 27.113281 L 72.289062 27.123047 L 72.134766 27.136719 L 71.980469 27.150391 L 71.826172 27.167969 L 71.675781 27.185547 L 71.523438 27.205078 L 71.375 27.228516 L 71.226562 27.251953 L 71.216797 27.253906 L 71.078125 27.279297 L 70.933594 27.310547 L 70.787109 27.341797 L 70.644531 27.375 L 70.503906 27.410156 L 70.361328 27.449219 L 70.222656 27.488281 L 70.082031 27.53125 L 69.945312 27.574219 L 69.810547 27.619141 L 69.675781 27.667969 L 69.541016 27.716797 L 69.408203 27.769531 L 69.384766 27.779297 L 69.279297 27.824219 L 69.150391 27.880859 L 69.021484 27.939453 L 68.896484 28.001953 L 68.771484 28.064453 L 68.648438 28.128906 L 68.525391 28.195312 L 68.404297 28.263672 L 68.285156 28.335938 L 68.167969 28.40625 L 68.052734 28.480469 L 67.9375 28.556641 L 67.824219 28.634766 L 67.808594 28.646484 L 67.712891 28.716797 L 67.603516 28.798828 L 67.496094 28.884766 L 67.390625 28.970703 L 67.285156 29.058594 L 67.181641 29.148438 L 67.080078 29.238281 L 66.980469 29.332031 L 66.882812 29.427734 L 66.787109 29.523438 L 66.691406 29.621094 L 66.599609 29.720703 L 66.507812 29.822266 L 66.417969 29.925781 L 66.328125 30.029297 L 66.242188 30.136719 L 66.15625 30.242188 L 66.074219 30.351562 L 65.992188 30.462891 L 65.912109 30.574219 L 65.833984 30.6875 L 65.757812 30.802734 L 65.683594 30.919922 L 65.609375 31.037109 L 65.537109 31.15625 L 65.46875 31.275391 L 65.400391 31.398438 L 65.333984 31.521484 L 65.269531 31.646484 L 65.205078 31.771484 L 65.144531 31.898438 L 65.085938 32.027344 L 65.027344 32.15625 L 64.970703 32.287109 L 64.916016 32.419922 L 64.863281 32.552734 L 64.8125 32.6875 L 64.761719 32.822266 L 64.714844 32.960938 L 64.667969 33.097656 L 64.623047 33.236328 L 64.580078 33.376953 L 64.537109 33.519531 L 64.519531 33.583984 L 64.498047 33.660156 L 64.460938 33.804688 L 64.425781 33.949219 L 64.390625 34.095703 L 64.357422 34.242188 L 64.326172 34.390625 L 64.296875 34.541016 L 64.269531 34.691406 L 64.242188 34.841797 L 64.21875 34.994141 L 64.195312 35.148438 L 64.173828 35.302734 L 64.152344 35.457031 L 64.134766 35.613281 L 64.117188 35.771484 L 64.103516 35.929688 L 64.089844 36.087891 L 64.076172 36.248047 L 64.066406 36.410156 L 64.056641 36.572266 L 64.050781 36.734375 L 64.044922 36.898438 L 64.039062 37.064453 L 64.037109 37.228516 L 64.015625 39.037109 L 63.994141 40.859375 L 63.988281 41.251953 L 63.974609 42.679688 L 63.957031 44.490234 L 63.949219 45.388672 L 63.943359 46.279297 L 63.939453 47.162109 L 63.935547 48.035156 L 63.933594 48.896484 L 63.931641 49.744141 L 63.933594 50.578125 L 63.9375 51.396484 L 63.943359 52.199219 L 63.951172 52.980469 L 63.957031 53.365234 L 63.962891 53.744141 L 63.970703 54.117188 L 63.976562 54.484375 L 63.984375 54.847656 L 63.994141 55.203125 L 63.996094 55.257812 L 63.990234 55.259766 L 63.900391 55.292969 L 63.869141 55.306641 L 63.810547 55.326172 L 63.71875 55.359375 L 63.625 55.390625 L 63.529297 55.419922 L 63.433594 55.449219 L 63.335938 55.476562 L 63.234375 55.501953 L 63.132812 55.527344 L 63.029297 55.550781 L 62.925781 55.572266 L 62.820312 55.591797 L 62.712891 55.611328 L 62.605469 55.628906 L 62.494141 55.644531 L 62.384766 55.660156 L 62.273438 55.673828 L 62.160156 55.685547 L 62.046875 55.695312 L 61.931641 55.703125 L 61.816406 55.710938 L 61.699219 55.716797 L 61.582031 55.720703 L 61.466797 55.722656 L 61.347656 55.724609 L 61.228516 55.722656 L 61.107422 55.720703 L 60.988281 55.716797 L 60.867188 55.710938 L 60.746094 55.703125 L 60.625 55.693359 L 60.503906 55.683594 L 60.380859 55.671875 L 60.257812 55.65625 L 60.134766 55.640625 L 60.011719 55.623047 L 59.888672 55.605469 L 59.765625 55.583984 L 59.642578 55.5625 L 59.519531 55.537109 L 59.396484 55.511719 L 59.275391 55.484375 L 59.152344 55.455078 L 59.029297 55.425781 L 58.90625 55.392578 L 58.785156 55.357422 L 58.664062 55.322266 L 58.542969 55.283203 L 58.421875 55.244141 L 58.300781 55.203125 L 58.181641 55.160156 L 58.0625 55.115234 L 57.943359 55.070312 L 57.826172 55.021484 L 57.707031 54.972656 L 57.591797 54.921875 L 57.476562 54.867188 L 57.361328 54.8125 L 57.246094 54.757812 L 57.132812 54.699219 L 57.019531 54.638672 L 56.908203 54.576172 L 56.798828 54.513672 L 56.6875 54.449219 L 56.580078 54.382812 L 56.472656 54.314453 L 56.365234 54.244141 L 56.259766 54.171875 L 56.15625 54.099609 L 56.052734 54.023438 L 55.951172 53.945312 L 55.851562 53.867188 L 55.751953 53.787109 L 55.654297 53.705078 L 55.558594 53.621094 L 55.462891 53.535156 L 55.369141 53.449219 L 55.277344 53.359375 L 55.185547 53.269531 L 55.097656 53.175781 L 55.009766 53.082031 L 54.923828 52.986328 L 54.837891 52.888672 L 54.755859 52.789062 L 54.673828 52.6875 L 54.59375 52.583984 L 54.515625 52.478516 L 54.439453 52.371094 L 54.363281 52.263672 L 54.289062 52.148438 L 54.255859 52.095703 L 54.220703 52.039062 L 54.185547 51.982422 L 54.150391 51.923828 L 54.117188 51.865234 L 54.082031 51.808594 L 54.050781 51.748047 L 54.017578 51.689453 L 53.986328 51.628906 L 53.953125 51.568359 L 53.923828 51.507812 L 53.892578 51.445312 L 53.861328 51.384766 L 53.832031 51.320312 L 53.802734 51.257812 L 53.773438 51.193359 L 53.746094 51.130859 L 53.71875 51.064453 L 53.691406 51 L 53.664062 50.933594 L 53.638672 50.867188 L 53.613281 50.800781 L 53.587891 50.734375 L 53.5625 50.666016 L 53.539062 50.597656 L 53.515625 50.527344 L 53.492188 50.457031 L 53.470703 50.388672 L 53.449219 50.316406 L 53.427734 50.246094 L 53.40625 50.173828 L 53.386719 50.101562 L 53.367188 50.027344 L 53.349609 49.955078 L 53.330078 49.880859 L 53.3125 49.806641 L 53.296875 49.730469 L 53.279297 49.654297 L 53.263672 49.576172 L 53.248047 49.5 L 53.234375 49.421875 L 53.220703 49.34375 L 53.205078 49.265625 L 53.193359 49.185547 L 53.181641 49.105469 L 53.171875 49.023438 L 53.160156 48.941406 L 53.150391 48.859375 L 53.140625 48.777344 L 53.132812 48.693359 L 53.123047 48.609375 L 53.117188 48.525391 L 53.109375 48.439453 L 53.105469 48.353516 L 53.099609 48.267578 L 53.095703 48.179688 L 53.091797 48.091797 L 53.089844 48.003906 L 53.087891 47.914062 L 53.085938 47.824219 L 53.085938 47.732422 L 53.085938 47.642578 L 53.085938 47.550781 L 53.087891 47.457031 L 53.089844 47.365234 L 53.09375 47.271484 L 53.097656 47.175781 L 53.101562 47.080078 L 53.107422 46.984375 L 53.115234 46.888672 L 53.121094 46.791016 L 53.130859 46.691406 L 53.201172 45.898438 L 53.271484 45.128906 L 53.341797 44.378906 L 53.412109 43.648438 L 53.484375 42.935547 L 53.556641 42.240234 L 53.630859 41.558594 L 53.703125 40.888672 L 53.779297 40.232422 L 53.857422 39.582031 L 53.886719 39.347656 L 53.935547 38.943359 L 54.017578 38.308594 L 54.101562 37.679688 L 54.1875 37.052734 L 54.277344 36.425781 L 54.369141 35.800781 L 54.462891 35.171875 L 54.5625 34.537109 L 54.664062 33.900391 L 54.769531 33.253906 L 54.878906 32.599609 L 54.992188 31.935547 L 55.111328 31.257812 L 55.234375 30.566406 L 55.363281 29.859375 L 55.496094 29.136719 L 55.634766 28.392578 L 55.777344 27.630859 L 55.927734 26.845703 L 56.083984 26.035156 L 56.246094 25.201172 L 56.414062 24.34375 L 56.433594 24.248047 L 56.453125 24.154297 L 56.476562 24.058594 L 56.501953 23.962891 L 56.527344 23.863281 L 56.556641 23.765625 L 56.587891 23.664062 L 56.619141 23.564453 L 56.654297 23.462891 L 56.691406 23.359375 L 56.730469 23.255859 L 56.771484 23.150391 L 56.8125 23.044922 L 56.857422 22.9375 L 56.904297 22.832031 L 56.953125 22.724609 L 57.003906 22.615234 L 57.054688 22.507812 L 57.109375 22.398438 L 57.166016 22.289062 L 57.224609 22.181641 L 57.283203 22.070312 L 57.345703 21.962891 L 57.410156 21.851562 L 57.476562 21.742188 L 57.542969 21.632812 L 57.613281 21.521484 L 57.683594 21.410156 L 57.757812 21.300781 L 57.832031 21.191406 L 57.910156 21.082031 L 57.988281 20.972656 L 58.068359 20.863281 L 58.152344 20.755859 L 58.236328 20.646484 L 58.322266 20.539062 L 58.410156 20.431641 L 58.5 20.324219 L 58.591797 20.21875 L 58.683594 20.111328 L 58.779297 20.007812 L 58.876953 19.902344 L 58.974609 19.800781 L 59.074219 19.697266 L 59.095703 19.675781 L 59.175781 19.595703 L 59.279297 19.494141 L 59.386719 19.394531 L 59.492188 19.296875 L 59.601562 19.197266 L 59.712891 19.101562 L 59.824219 19.005859 L 59.939453 18.912109 L 60.054688 18.818359 L 60.171875 18.726562 L 60.289062 18.636719 L 60.410156 18.546875 L 60.53125 18.458984 L 60.65625 18.373047 L 60.78125 18.287109 L 60.908203 18.203125 L 61.037109 18.121094 L 61.167969 18.042969 L 61.298828 17.962891 L 61.431641 17.886719 L 61.566406 17.810547 L 61.701172 17.738281 L 61.839844 17.666016 L 61.978516 17.595703 L 62.119141 17.527344 L 62.261719 17.462891 L 62.40625 17.398438 L 62.552734 17.335938 L 62.699219 17.275391 L 62.847656 17.21875 L 62.996094 17.162109 L 63.148438 17.109375 L 63.300781 17.058594 L 63.455078 17.009766 L 63.611328 16.962891 L 63.769531 16.917969 L 63.927734 16.875 L 64.089844 16.835938 L 64.251953 16.798828 L 64.414062 16.763672 L 64.580078 16.732422 L 64.662109 16.716797 L 64.744141 16.701172 L 64.828125 16.689453 L 64.912109 16.675781 L 64.998047 16.662109 L 65.082031 16.650391 L 65.167969 16.640625 L 65.253906 16.630859 L 65.339844 16.619141 L 65.425781 16.611328 L 65.511719 16.603516 L 65.599609 16.595703 L 65.6875 16.589844 L 65.775391 16.582031 L 65.863281 16.576172 L 65.951172 16.572266 L 66.039062 16.568359 L 66.130859 16.566406 L 66.21875 16.5625 L 66.308594 16.5625 L 66.400391 16.560547 L 66.490234 16.560547 L 66.582031 16.560547 L 66.673828 16.5625 L 66.765625 16.564453 L 66.857422 16.568359 L 66.949219 16.572266 L 67.042969 16.576172 L 67.136719 16.582031 L 67.230469 16.589844 L 67.324219 16.595703 L 67.419922 16.603516 L 67.513672 16.611328 L 67.609375 16.621094 L 67.705078 16.632812 L 67.800781 16.644531 L 67.896484 16.65625 L 67.994141 16.669922 L 68.091797 16.683594 L 68.1875 16.697266 L 68.285156 16.712891 L 68.384766 16.730469 L 68.482422 16.746094 L 68.582031 16.765625 L 68.681641 16.785156 L 68.78125 16.804688 L 68.880859 16.826172 L 68.980469 16.847656 L 69.082031 16.871094 L 69.183594 16.894531 L 69.283203 16.919922 L 69.386719 16.945312 L 69.488281 16.972656 L 69.591797 17.001953 L 69.693359 17.029297 L 69.796875 17.058594 L 69.900391 17.089844 L 70.005859 17.121094 L 70.109375 17.154297 L 70.214844 17.1875 L 70.318359 17.222656 L 70.423828 17.257812 L 70.529297 17.294922 L 70.636719 17.332031 L 70.742188 17.371094 L 70.849609 17.410156 L 70.957031 17.451172 L 71.064453 17.494141 L 71.171875 17.537109 L 71.28125 17.580078 L 71.388672 17.626953 L 71.498047 17.673828 L 71.607422 17.720703 L 71.716797 17.769531 L 71.826172 17.818359 L 71.9375 17.869141 L 72.048828 17.919922 L 72.158203 17.972656 L 72.271484 18.027344 L 72.382812 18.082031 L 72.394531 18.087891 L 72.494141 18.138672 L 72.605469 18.197266 L 72.71875 18.257812 L 72.830078 18.316406 L 72.943359 18.378906 L 73.058594 18.441406 L 73.830078 18.871094 L 74.611328 19.304688 L 75.398438 19.738281 L 76.189453 20.175781 L 76.988281 20.613281 L 77.789062 21.052734 L 79.408203 21.9375 L 81.041016 22.830078 L 81.861328 23.28125 L 82.683594 23.732422 L 83.507812 24.185547 L 84.332031 24.642578 L 84.4375 24.699219 L 85.158203 25.101562 L 85.984375 25.5625 L 86.808594 26.027344 L 87.634766 26.492188 L 88.457031 26.960938 L 89.279297 27.431641 L 89.689453 27.667969 L 90.099609 27.902344 L 90.507812 28.140625 L 90.917969 28.378906 L 91.324219 28.615234 L 91.730469 28.855469 L 92.136719 29.09375 L 92.542969 29.333984 L 92.945312 29.574219 L 93.347656 29.814453 L 93.75 30.056641 L 94.150391 30.298828 L 94.550781 30.542969 L 94.947266 30.785156 L 95.345703 31.029297 L 95.740234 31.273438 L 96.134766 31.519531 L 96.527344 31.765625 L 96.917969 32.011719 L 97.306641 32.257812 L 97.695312 32.505859 L 98.080078 32.753906 L 98.464844 33.003906 L 98.847656 33.251953 L 99.226562 33.501953 L 99.605469 33.753906 L 99.980469 34.003906 L 100.35547 34.255859 L 100.72852 34.509766 L 101.09766 34.761719 L 101.46484 35.015625 L 101.83008 35.269531 L 102.19336 35.525391 L 102.55273 35.78125 L 102.63281 35.837891 L 102.91016 36.037109 L 103.26562 36.294922 L 103.61719 36.552734 L 103.9668 36.810547 L 104.31445 37.070312 L 104.6582 37.330078 L 104.99805 37.591797 L 105.33789 37.853516 L 105.67383 38.115234 L 106.00586 38.376953 L 106.33398 38.640625 L 106.66016 38.904297 L 106.98242 39.169922 L 107.30273 39.433594 L 107.61914 39.699219 L 107.93164 39.966797 L 108.24023 40.234375 L 108.54688 40.501953 L 108.84961 40.769531 L 109.14844 41.039062 L 109.29688 41.173828 L 109.44336 41.308594 L 109.58984 41.443359 L 109.73438 41.580078 L 109.87891 41.714844 L 110.02148 41.851562 L 110.16406 41.986328 L 110.30664 42.123047 L 110.44531 42.259766 L 110.58594 42.394531 L 110.72461 42.53125 L 110.86133 42.669922 L 110.99609 42.806641 L 111.13281 42.943359 L 111.26758 43.080078 L 111.40039 43.216797 L 111.5332 43.355469 L 111.66406 43.492188 L 111.79492 43.630859 L 111.92383 43.769531 L 112.05078 43.90625 L 112.17773 44.046875 L 112.30469 44.183594 L 112.42969 44.322266 L 112.55273 44.462891 L 112.67578 44.601562 L 112.79688 44.740234 L 112.91797 44.880859 L 113.03516 45.019531 L 113.1543 45.160156 L 113.27148 45.300781 L 113.38672 45.439453 L 113.50195 45.580078 L 113.61523 45.720703 L 113.72852 45.861328 L 113.83984 46.003906 L 113.94922 46.144531 L 114.05859 46.285156 L 114.16602 46.427734 L 114.27148 46.568359 L 114.37695 46.710938 L 114.48047 46.851562 L 114.58398 46.994141 L 114.68555 47.136719 L 114.78516 47.279297 L 114.88477 47.421875 L 114.98242 47.564453 L 115.08008 47.707031 L 115.17578 47.851562 L 115.26953 47.994141 L 115.36133 48.138672 L 115.45312 48.283203 L 115.54297 48.427734 L 115.63281 48.570312 L 115.7207 48.714844 L 115.80664 48.859375 L 115.89062 49.005859 L 115.97461 49.150391 L 116.05664 49.294922 L 116.13672 49.439453 L 116.2168 49.585938 L 116.29492 49.730469 L 116.37109 49.876953 L 116.44727 50.023438 L 116.52148 50.169922 L 116.59375 50.316406 L 116.66406 50.462891 L 116.73438 50.609375 L 116.875 50.908203 L 117.01367 51.210938 L 117.14844 51.513672 L 117.2832 51.820312 L 117.41797 52.126953 L 117.54883 52.435547 L 117.67773 52.746094 L 117.80469 53.058594 L 117.93164 53.373047 L 118.03711 53.640625 L 118.05664 53.689453 L 118.17773 54.007812 L 118.29883 54.326172 L 118.41797 54.648438 L 118.5332 54.970703 L 118.64844 55.294922 L 118.76172 55.621094 L 118.87305 55.947266 L 118.98242 56.277344 L 119.08984 56.607422 L 119.19531 56.9375 L 119.30078 57.271484 L 119.40234 57.605469 L 119.50195 57.939453 L 119.60156 58.277344 L 119.69727 58.615234 L 119.79297 58.953125 L 119.88477 59.294922 L 119.97461 59.636719 L 120.06445 59.978516 L 120.15039 60.322266 L 120.23633 60.666016 L 120.31836 61.011719 L 120.40039 61.357422 L 120.47852 61.705078 L 120.55664 62.054688 L 120.63281 62.402344 L 120.70508 62.753906 L 120.77539 63.103516 L 120.8457 63.455078 L 120.91211 63.808594 L 120.97656 64.162109 L 121.03906 64.515625 L 121.10156 64.869141 L 121.16016 65.226562 L 121.2168 65.582031 L 121.27148 65.9375 L 121.32422 66.294922 L 121.375 66.652344 L 121.42383 67.009766 L 121.4707 67.369141 L 121.51367 67.728516 L 121.55664 68.087891 L 121.5957 68.445312 L 121.63477 68.806641 L 121.66992 69.166016 L 121.70312 69.527344 L 121.73438 69.888672 L 121.76367 70.248047 L 121.78906 70.609375 L 121.81445 70.970703 L 121.83789 71.332031 L 121.85742 71.693359 L 121.87695 72.054688 L 121.89258 72.417969 L 121.9043 72.777344 L 121.91602 73.138672 L 121.92578 73.501953 L 121.93164 73.861328 L 121.93555 74.222656 L 121.9375 74.583984 L 121.9375 74.804688 L 121.93945 74.583984 L 121.93945 74.222656 L 121.93945 73.861328 L 121.93359 73.501953 L 121.92773 73.138672 L 121.91992 72.777344 L 121.9082 72.416016 L 121.89453 72.054688 L 121.88086 71.693359 L 121.86133 71.330078 L 121.8418 70.96875 L 121.82031 70.607422 L 121.79688 70.246094 L 121.76953 69.884766 L 121.74023 69.523438 L 121.70898 69.162109 L 121.67578 68.802734 L 121.64062 68.441406 L 121.60352 68.082031 L 121.56445 67.722656 L 121.52148 67.361328 L 121.47852 67.003906 L 121.43164 66.644531 L 121.38477 66.287109 L 121.33398 65.929688 L 121.28125 65.572266 L 121.22656 65.214844 L 121.17188 64.859375 L 121.11133 64.503906 L 121.05273 64.148438 L 120.98828 63.794922 L 120.92383 63.441406 L 120.85742 63.087891 L 120.78906 62.736328 L 120.71875 62.384766 L 120.64453 62.035156 L 120.57031 61.685547 L 120.49219 61.337891 L 120.41406 60.988281 L 120.33398 60.642578 L 120.25195 60.296875 L 120.16797 59.951172 L 120.08008 59.607422 L 119.99023 59.265625 L 119.90039 58.923828 L 119.80859 58.583984 L 119.71484 58.244141 L 119.61719 57.90625 L 119.51953 57.570312 L 119.41992 57.234375 L 119.31836 56.900391 L 119.21484 56.566406 L 119.10938 56.236328 L 119.00195 55.904297 L 118.89258 55.576172 L 118.78125 55.248047 L 118.66797 54.923828 L 118.55273 54.599609 L 118.43555 54.275391 L 118.31836 53.955078 L 118.19727 53.634766 L 118.17969 53.587891 L 118.07617 53.316406 L 117.95312 53 L 117.82812 52.685547 L 117.70117 52.371094 L 117.57227 52.060547 L 117.44336 51.751953 L 117.31055 51.443359 L 117.17773 51.136719 L 117.04297 50.832031 L 116.9043 50.529297 L 116.83594 50.382812 L 116.76562 50.232422 L 116.69336 50.083984 L 116.62109 49.935547 L 116.54688 49.787109 L 116.4707 49.638672 L 116.39258 49.490234 L 116.31445 49.34375 L 116.23438 49.195312 L 116.15234 49.048828 L 116.07031 48.902344 L 115.98633 48.755859 L 115.90039 48.607422 L 115.81445 48.460938 L 115.72656 48.314453 L 115.63672 48.167969 L 115.54688 48.021484 L 115.45312 47.876953 L 115.35938 47.730469 L 115.26562 47.585938 L 115.16992 47.439453 L 115.07227 47.294922 L 114.97461 47.148438 L 114.875 47.005859 L 114.77344 46.859375 L 114.67188 46.714844 L 114.56836 46.570312 L 114.46484 46.427734 L 114.35742 46.283203 L 114.25195 46.138672 L 114.14258 45.996094 L 114.0332 45.851562 L 113.92383 45.708984 L 113.81055 45.566406 L 113.69727 45.423828 L 113.58398 45.279297 L 113.46875 45.138672 L 113.35352 44.994141 L 113.23438 44.853516 L 113.11719 44.710938 L 112.99609 44.568359 L 112.87695 44.427734 L 112.75391 44.285156 L 112.63086 44.144531 L 112.50586 44.003906 L 112.38086 43.863281 L 112.25586 43.722656 L 112.12695 43.580078 L 111.99805 43.441406 L 111.86914 43.300781 L 111.73828 43.160156 L 111.60742 43.019531 L 111.47461 42.880859 L 111.33984 42.740234 L 111.20508 42.601562 L 111.07031 42.462891 L 110.93359 42.322266 L 110.79492 42.183594 L 110.65625 42.044922 L 110.51758 41.90625 L 110.37695 41.767578 L 110.23438 41.630859 L 110.0918 41.492188 L 109.94727 41.353516 L 109.80273 41.216797 L 109.6582 41.078125 L 109.51172 40.941406 L 109.36328 40.804688 L 109.06641 40.529297 L 108.76562 40.257812 L 108.46094 39.984375 L 108.15234 39.712891 L 107.83984 39.441406 L 107.52539 39.169922 L 107.20703 38.900391 L 106.88477 38.630859 L 106.56055 38.361328 L 106.23242 38.09375 L 105.90039 37.826172 L 105.56641 37.560547 L 105.23047 37.294922 L 104.89062 37.029297 L 104.54688 36.763672 L 104.20117 36.5 L 103.85352 36.236328 L 103.50195 35.972656 L 103.14844 35.710938 L 102.87109 35.507812 L 102.79297 35.449219 L 102.43359 35.1875 L 102.07227 34.927734 L 101.71094 34.667969 L 101.3457 34.40625 L 100.97656 34.148438 L 100.60742 33.890625 L 100.23438 33.632812 L 99.859375 33.375 L 99.484375 33.119141 L 99.105469 32.863281 L 98.726562 32.607422 L 98.34375 32.353516 L 97.960938 32.099609 L 97.574219 31.845703 L 97.1875 31.591797 L 96.798828 31.339844 L 96.408203 31.087891 L 96.015625 30.837891 L 95.621094 30.587891 L 95.228516 30.337891 L 94.832031 30.087891 L 94.433594 29.839844 L 94.035156 29.591797 L 93.636719 29.34375 L 93.234375 29.095703 L 92.832031 28.849609 L 92.431641 28.603516 L 92.027344 28.359375 L 91.621094 28.113281 L 91.216797 27.869141 L 90.810547 27.626953 L 90.404297 27.384766 L 89.996094 27.140625 L 89.589844 26.900391 L 88.771484 26.417969 L 87.953125 25.9375 L 87.132812 25.460938 L 86.3125 24.986328 L 85.492188 24.513672 L 84.775391 24.101562 L 84.671875 24.042969 L 83.853516 23.572266 L 83.035156 23.103516 L 82.220703 22.638672 L 81.40625 22.175781 L 79.789062 21.255859 L 78.185547 20.34375 L 77.390625 19.890625 L 76.601562 19.439453 L 75.816406 18.992188 L 75.039062 18.544922 L 74.267578 18.101562 L 73.501953 17.658203 L 73.384766 17.591797 L 73.267578 17.525391 L 73.150391 17.458984 L 73.033203 17.394531 L 72.917969 17.332031 L 72.8125 17.277344 L 72.800781 17.271484 L 72.685547 17.208984 L 72.570312 17.148438 L 72.455078 17.089844 L 72.339844 17.03125 L 72.224609 16.976562 L 72.111328 16.919922 L 71.996094 16.865234 L 71.882812 16.8125 L 71.767578 16.759766 L 71.654297 16.708984 L 71.541016 16.658203 L 71.427734 16.609375 L 71.314453 16.5625 L 71.203125 16.515625 L 71.091797 16.470703 L 70.978516 16.425781 L 70.867188 16.382812 L 70.755859 16.339844 L 70.644531 16.298828 L 70.53125 16.257812 L 70.421875 16.21875 L 70.310547 16.179688 L 70.201172 16.142578 L 70.089844 16.107422 L 69.980469 16.072266 L 69.871094 16.037109 L 69.761719 16.005859 L 69.652344 15.972656 L 69.544922 15.941406 L 69.435547 15.912109 L 69.326172 15.882812 L 69.21875 15.855469 L 69.111328 15.828125 L 69.003906 15.802734 L 68.896484 15.777344 L 68.789062 15.753906 L 68.683594 15.730469 L 68.576172 15.707031 L 68.470703 15.6875 L 68.365234 15.667969 L 68.259766 15.648438 L 68.154297 15.630859 L 68.048828 15.613281 L 67.945312 15.595703 L 67.839844 15.580078 L 67.736328 15.566406 L 67.632812 15.552734 L 67.529297 15.541016 L 67.425781 15.529297 L 67.322266 15.517578 L 67.220703 15.507812 L 67.117188 15.498047 L 67.015625 15.490234 L 66.914062 15.484375 L 66.8125 15.478516 L 66.712891 15.472656 L 66.611328 15.46875 L 66.511719 15.464844 L 66.410156 15.460938 L 66.310547 15.458984 L 66.212891 15.457031 L 66.111328 15.457031 z " />&#10;    &#10;    &#10;    &#10;    &#10;    <g
   transform="matrix(1,0,0,1,5.68434e-14,0.00332827)"
   id="g7">&#10;        &#10;    </g>&#10;    &#10;</svg>
