<?xml version="1.0" encoding="UTF-8" standalone="no"?>
<svg
   width="100%"
   height="100%"
   viewBox="0 0 128 128"
   version="1.1"
   xml:space="preserve"
   style="fill-rule:evenodd;clip-rule:evenodd;stroke-linejoin:round;stroke-miterlimit:1.41421;"
   id="svg10"
   sodipodi:docname="emoji_u1f9bf.svg"
   inkscape:version="1.3 (0e150ed6c4, 2023-07-21)"
   xmlns:inkscape="http://www.inkscape.org/namespaces/inkscape"
   xmlns:sodipodi="http://sodipodi.sourceforge.net/DTD/sodipodi-0.dtd"
   xmlns="http://www.w3.org/2000/svg"
   xmlns:svg="http://www.w3.org/2000/svg"><sodipodi:namedview
   id="namedview10"
   pagecolor="#ffffff"
   bordercolor="#000000"
   borderopacity="0.25"
   inkscape:showpageshadow="2"
   inkscape:pageopacity="0.0"
   inkscape:pagecheckerboard="0"
   inkscape:deskcolor="#d1d1d1"
   inkscape:zoom="2.867097"
   inkscape:cx="60.514171"
   inkscape:cy="76.209489"
   inkscape:window-width="1366"
   inkscape:window-height="697"
   inkscape:window-x="-8"
   inkscape:window-y="-8"
   inkscape:window-maximized="1"
   inkscape:current-layer="svg10" />&#10;    &#10;    &#10;    &#10;    &#10;    &#10;    &#10;    &#10;    &#10;    &#10;    <defs
   id="defs10">&#10;        <linearGradient
   id="_Linear1"
   x1="0"
   y1="0"
   x2="1"
   y2="0"
   gradientUnits="userSpaceOnUse"
   gradientTransform="matrix(-15.4049,25.4222,-25.4222,-15.4049,54.1815,52.3627)"><stop
     offset="0"
     style="stop-color:rgb(195,195,195);stop-opacity:1"
     id="stop9" /><stop
     offset="1"
     style="stop-color:rgb(152,152,152);stop-opacity:1"
     id="stop10" /></linearGradient>&#10;    </defs>&#10;<path
   style="fill:#6593a2;stroke-width:9.07087;stroke-linecap:round"
   d="m 50.474137,102.00038 c -23.716489,0 -34.487127,9.96879 -34.487127,16.13449 0,6.16571 6.782273,4.80925 12.208092,4.80925 10.60501,0 12.331407,-0.73988 18.743738,-0.73988 5.055877,0 7.768786,0.8632 12.331407,0.8632 4.932562,0 6.905587,-2.71291 6.905587,-6.16571 0,-5.67244 -4.247386,-14.90135 -15.701697,-14.90135 z"
   id="path4"
   sodipodi:nodetypes="sssssss" /><path
   id="circle3"
   style="fill:#4b6b75;stroke-width:9.07085;stroke-linecap:round"
   d="M 50.474609 102 C 44.81929 102 39.907899 102.57064 35.695312 103.51758 A 15.480738 15.480738 0 0 0 51.042969 117.11523 A 15.480738 15.480738 0 0 0 64.232422 109.70117 C 61.982561 105.60935 57.638036 102 50.474609 102 z " /><path
   style="fill:#6593a2;stroke-width:9.07087;stroke-linecap:round"
   d="M 36.645612,36.509067 C 22.910101,40.189486 28.484381,51.788506 34.996344,76.091486 41.508309,100.39446 38.738002,113.94992 51.8823,112.16394 64.956974,110.38741 62.27775,95.769646 56.436822,73.970999 50.595891,52.172353 46.070826,33.983588 36.645612,36.509067 Z"
   id="path3"
   sodipodi:nodetypes="sssss" /><path
   id="path5"
   style="fill:#4b6b75;fill-opacity:1;stroke-width:9.07087;stroke-linecap:round"
   d="M 38.357422 36.273438 C 37.805111 36.273626 37.23556 36.351923 36.646484 36.509766 C 27.461005 38.971007 26.928364 44.999609 29.519531 55.974609 C 31.188965 57.413596 33.09119 58.597835 35.082031 59.507812 C 40.344705 61.933501 46.259581 62.73665 51.958984 62.787109 C 52.425489 62.74399 52.895976 62.687996 53.361328 62.607422 C 49.148061 47.524601 45.043953 36.271158 38.357422 36.273438 z " /><path
   style="fill:#6593a2;stroke-width:9.07087;stroke-linecap:round"
   d="M 70.483654,10.244084 C 32.745713,24.456129 26.384689,35.205914 29.818856,46.128318 33.253026,57.050723 54.033988,61.385434 82.846435,50.534716 111.65887,39.683998 116.92297,32.471537 116.11253,19.750829 115.02758,2.7214922 97.613329,0.02709507 70.483654,10.244084 Z"
   id="path1"
   sodipodi:nodetypes="sssss" /><circle
   style="fill:#4b6b75;stroke-width:9.0709;stroke-linecap:round"
   id="path2"
   cx="97.310974"
   cy="22.322233"
   r="11.534688" /><circle
   style="fill:#4b6b75;stroke-width:9.0709;stroke-linecap:round"
   id="circle6"
   cx="45.690815"
   cy="40.284653"
   r="8.2212315" /><circle
   style="fill:#4b6b75;stroke-width:9.0709;stroke-linecap:round"
   id="circle7"
   cx="51.116634"
   cy="101.69505"
   r="5.261694" /></svg>
