<?xml version="1.0" encoding="UTF-8" standalone="no"?>
<svg
   width="128"
   height="128"
   version="1.1"
   id="svg58"
   sodipodi:docname="emoji_u1f967.svg"
   inkscape:version="1.2.2 (732a01da63, 2022-12-09)"
   xmlns:inkscape="http://www.inkscape.org/namespaces/inkscape"
   xmlns:sodipodi="http://sodipodi.sourceforge.net/DTD/sodipodi-0.dtd"
   xmlns:xlink="http://www.w3.org/1999/xlink"
   xmlns="http://www.w3.org/2000/svg"
   xmlns:svg="http://www.w3.org/2000/svg"
   xmlns:rdf="http://www.w3.org/1999/02/22-rdf-syntax-ns#"
   xmlns:cc="http://creativecommons.org/ns#"
   xmlns:dc="http://purl.org/dc/elements/1.1/">
  <metadata
     id="metadata64">
    <rdf:RDF>
      <cc:Work
         rdf:about="">
        <dc:format>image/svg+xml</dc:format>
        <dc:type
           rdf:resource="http://purl.org/dc/dcmitype/StillImage" />
      </cc:Work>
    </rdf:RDF>
  </metadata>
  <defs
     id="defs62" />
  <sodipodi:namedview
     pagecolor="#ffffff"
     bordercolor="#666666"
     borderopacity="1"
     objecttolerance="10"
     gridtolerance="10"
     guidetolerance="10"
     inkscape:pageopacity="0"
     inkscape:pageshadow="2"
     inkscape:window-width="1366"
     inkscape:window-height="697"
     id="namedview60"
     showgrid="false"
     inkscape:object-nodes="false"
     inkscape:zoom="0.921875"
     inkscape:cx="-84.067797"
     inkscape:cy="100.88136"
     inkscape:window-x="-8"
     inkscape:window-y="-8"
     inkscape:window-maximized="1"
     inkscape:current-layer="svg58"
     inkscape:showpageshadow="2"
     inkscape:pagecheckerboard="0"
     inkscape:deskcolor="#d1d1d1" />
  <linearGradient
     id="a"
     gradientTransform="rotate(2.292 65.738 66.222)"
     gradientUnits="userSpaceOnUse"
     x1="53.505"
     x2="53.505"
     y1="22.295"
     y2="10.358">
    <stop
       offset="0"
       stop-color="#c29f76"
       id="stop2" />
  </linearGradient>
  <linearGradient
     id="b"
     gradientTransform="rotate(2.292 65.738 66.222)"
     gradientUnits="userSpaceOnUse"
     x1="70.932"
     x2="70.932"
     y1="11.915"
     y2="29.375">
    <stop
       offset=".019"
       stop-color="#f8dfc2"
       id="stop7" />
  </linearGradient>
  <linearGradient
     id="c"
     gradientTransform="rotate(2.292 65.738 66.222)"
     gradientUnits="userSpaceOnUse"
     x1="90.734"
     x2="90.734"
     y1="19.497"
     y2="37.69">
    <stop
       offset=".019"
       stop-color="#f8dfc2"
       id="stop12" />
  </linearGradient>
  <linearGradient
     id="d"
     gradientTransform="rotate(2.292 65.738 66.222)"
     gradientUnits="userSpaceOnUse"
     x1="111.296"
     x2="111.296"
     y1="33.427"
     y2="52.659">
    <stop
       offset=".019"
       stop-color="#f8dfc2"
       id="stop17" />
  </linearGradient>
  <linearGradient
     id="e"
     gradientTransform="rotate(2.292 65.738 66.222)"
     gradientUnits="userSpaceOnUse"
     x1="63.955"
     x2="63.955"
     y1="56.614"
     y2="113.225">
    <stop
       offset="0"
       stop-color="#a68367"
       id="stop24" />
  </linearGradient>
  <linearGradient
     id="f"
     gradientTransform="rotate(2.292 65.738 66.222)"
     gradientUnits="userSpaceOnUse"
     x1="7.025"
     x2="82.139"
     y1="96.858"
     y2="35.144">
    <stop
       offset=".019"
       stop-color="#f89d53"
       id="stop33" />
  </linearGradient>
  <path
     d="M33.31 52.36c.04.01.07.01.11.02-.03.01-.07.03-.1.04-.01-.02-.01-.04-.01-.06z"
     fill="#fbe2c5"
     id="path46" />
  <use
     xlink:href="#a"
     overflow="visible"
     id="use11"
     transform="translate(79.186441,165.9661)"
     style="overflow:visible;fill:#fcc21b"
     x="0"
     y="0"
     width="100%"
     height="100%" />
  <path
     style="fill:#fcc21b;fill-opacity:1;stroke:#fcc21b;stroke-width:3.3;stroke-linecap:round;stroke-linejoin:round;stroke-miterlimit:4;stroke-dasharray:none;stroke-opacity:1"
     d="m 5.36,92.33 c 7.727592,-28.229464 19.609769,-54.783003 41.71,-74.07 0,0 4.250977,-13.0386028 7.984218,-11.8981534 4.181399,1.2773551 2.533801,5.5123314 8.110955,8.1982584 5.313684,2.559041 10.330443,-0.210417 16.200935,1.362576 9.163816,2.455438 6.749508,14.734777 17.239166,17.545473 7.185366,1.925312 12.769636,-0.984854 19.285376,-0.984854 6.18164,0 7.75216,5.871193 7.75216,10.256005 0,6.174179 -2.83541,7.007171 -2.83541,13.351531 0,39.264395 -75.447046,28.75968 -115.4474,36.239164 z"
     id="path880"
     inkscape:connector-curvature="0"
     sodipodi:nodetypes="ccsssssssc" />
  <path
     style="fill:#fcc21b;fill-opacity:1;stroke:#fcc21b;stroke-width:3.3;stroke-linecap:round;stroke-linejoin:round;stroke-miterlimit:4;stroke-dasharray:none;stroke-opacity:1"
     d="m 5.36,92.33 c 0,0 -0.2811997,14.02889 -0.3309234,23.01805 -0.021141,3.82192 3.3792831,6.34266 5.8052394,6.32395 C 43.89469,121.41696 112.612,101.83482 119.65685,94.250632 c 2.98358,-3.211995 1.15055,-24.559314 1.15055,-38.159796"
     id="path882"
     inkscape:connector-curvature="0"
     sodipodi:nodetypes="csssc" />
  <path
     style="fill:#ed6c30;fill-opacity:1;stroke:#ed6c30;stroke-width:4;stroke-linecap:round;stroke-linejoin:round;stroke-miterlimit:4;stroke-dasharray:none;stroke-opacity:1"
     d="m 5.3261018,93.07576 0.1448132,21.68555 c 22.322326,-2.78091 33.195516,-3.56703 50.778075,-8.1278 17.524038,-4.5456 41.768929,-12.858626 57.13103,-19.966118 0.8811,-9.323236 0.46502,-15.567809 0.85609,-26.398426"
     id="path890"
     inkscape:connector-curvature="0"
     sodipodi:nodetypes="ccscc" />
  <path
     style="fill:#f3a17d;fill-opacity:1;stroke:none;stroke-width:4;stroke-linecap:round;stroke-linejoin:round;stroke-miterlimit:4;stroke-dasharray:none;stroke-dashoffset:0;stroke-opacity:1"
     d="M 5.8601083,93.706354 C 12.593518,66.371522 24.026835,40.282736 44.541415,20.093695 72.446675,26.621438 89.787375,44.553781 114.22774,59.00125 81.792745,78.568299 48.994938,87.386704 5.8601083,93.706354 Z"
     id="path888-3"
     inkscape:connector-curvature="0"
     sodipodi:nodetypes="cccc" />
  <path
     id="path888"
     style="color:#000000;font-style:normal;font-variant:normal;font-weight:normal;font-stretch:normal;font-size:medium;line-height:normal;font-family:sans-serif;font-variant-ligatures:normal;font-variant-position:normal;font-variant-caps:normal;font-variant-numeric:normal;font-variant-alternates:normal;font-feature-settings:normal;text-indent:0;text-align:start;text-decoration:none;text-decoration-line:none;text-decoration-style:solid;text-decoration-color:#000000;letter-spacing:normal;word-spacing:normal;text-transform:none;writing-mode:lr-tb;direction:ltr;text-orientation:mixed;dominant-baseline:auto;baseline-shift:baseline;text-anchor:start;white-space:normal;shape-padding:0;clip-rule:nonzero;display:inline;overflow:visible;visibility:visible;opacity:1;isolation:auto;mix-blend-mode:normal;color-interpolation:sRGB;color-interpolation-filters:linearRGB;solid-color:#000000;solid-opacity:1;vector-effect:none;fill:#ed6c30;fill-opacity:1;fill-rule:nonzero;stroke:none;stroke-width:4;stroke-linecap:round;stroke-linejoin:round;stroke-miterlimit:4;stroke-dasharray:none;stroke-dashoffset:0;stroke-opacity:1;color-rendering:auto;image-rendering:auto;shape-rendering:auto;text-rendering:auto;enable-background:accumulate"
     d="m 44.642578,18.617188 c -0.544601,-0.01592 -1.053161,0.210931 -1.460937,0.572265 C 21.580125,38.330743 6.4862743,60.877511 3.4179688,91.851562 3.2779356,93.265175 4.2448643,94.514522 5.6503906,94.308594 48.846101,87.979867 82.526979,81.008226 115.30273,61.236328 c 1.29682,-0.782304 1.28816,-2.664893 -0.0156,-3.435547 C 91.113668,43.512052 73.556441,25.338583 45.039062,18.667969 44.909,18.637546 44.776096,18.62109 44.642578,18.617188 Z m 1.544922,5.640624 c 2.747048,-5.94e-4 9.173199,3.484454 17.757812,7.888672 16.818993,8.628754 39.692488,21.899814 43.285158,27.447266 1.83196,2.828738 -6.05739,6.295028 -19.04297,11.408203 -9.798527,3.858246 -21.940351,8.150919 -33.705078,11.310547 -21.056108,5.654992 -41.763005,9.96385 -44.25,5.697266 C 8.099899,84.351299 11.951204,70.223954 19.59375,55.724609 26.135287,43.314085 35.557645,30.580175 45.240234,24.478516 45.478058,24.328647 45.795065,24.257897 46.1875,24.257812 Z"
     sodipodi:nodetypes="sssssssssssssssss" />
  <path
     id="path17351"
     d="m 48.64602,29.958009 c -1.107034,0.639146 0.453543,4.672521 -0.719043,6.248405 -0.921028,1.237805 -2.940225,2.203755 -5.48816,2.323421 -2.547934,0.119665 -3.751427,0.768378 -4.987446,2.185468 -1.376969,1.580845 -1.371548,3.898576 -1.371548,3.898576 0,0 -2.179297,0.938429 -3.00331,3.130196 -0.867382,2.305135 -0.303584,4.194589 -0.303584,4.194589 0,0 -3.187628,1.152567 -3.919482,4.553586 -0.558377,2.601149 1.027921,5.393821 2.399469,6.754229 1.371548,1.360406 6.816916,5.404528 20.087409,5.010774 13.996032,-0.415282 17.821772,-5.684404 18.946421,-7.132558 1.949804,-2.510663 1.252737,-7.170613 -0.986193,-8.644387 -2.23893,-1.480073 -3.76769,-1.297425 -3.76769,-1.297425 0,0 0.76438,-3.961558 0.103001,-5.258983 -0.661379,-1.297425 -1.425759,-2.128785 -2.694305,-2.897163 -1.273967,-0.768379 -1.881135,-0.711695 -1.881135,-0.711695 0,0 0.958559,-4.319603 -4.625212,-8.41972 -3.767154,-2.76619 -6.682158,-4.576459 -7.789192,-3.937313 z"
     style="clip-rule:evenodd;fill:#ffffff;fill-rule:nonzero;stroke-width:0.999999;stroke-linejoin:round;stroke-miterlimit:2"
     sodipodi:nodetypes="zsscccccsssccsccsz" />
</svg>
