<?xml version="1.0" encoding="UTF-8" standalone="no"?>
<!DOCTYPE svg PUBLIC "-//W3C//DTD SVG 1.1//EN" "http://www.w3.org/Graphics/SVG/1.1/DTD/svg11.dtd">
<svg width="100%" height="100%" viewBox="0 0 128 128" version="1.1" xmlns="http://www.w3.org/2000/svg" xmlns:xlink="http://www.w3.org/1999/xlink" xml:space="preserve" xmlns:serif="http://www.serif.com/" style="fill-rule:evenodd;clip-rule:evenodd;stroke-linecap:round;stroke-linejoin:round;stroke-miterlimit:1.5;">
    <g transform="matrix(1,0,0,1,0,-3.34034)">
        <path d="M64,16.181C1.59,16.181 0.34,79.58 0.34,93.42C0.34,107.28 28.93,118.5 64.22,118.5C99.5,118.5 128.1,107.28 128.1,93.42C128.1,79.58 126.4,16.181 64,16.181Z" style="fill:rgb(252,194,27);fill-rule:nonzero;"/>
    </g>
    <ellipse ry="19" rx="17" cy="85" cx="64" style="fill:rgb(237,108,48)"/>
    <g transform="matrix(1,0,0,0.85,0,12)">
        <g transform="matrix(1,0,0,-1,-12,115) scale(1.3)">
            <path d="m 41.776502,46.576187 c 1.520028,0.762292 1.943559,1.821525 1.943559,3.831525 0,4.199 -3.011765,1.621923 -6.907765,1.621923 -3.896,0 -7.208235,2.577077 -7.208235,-1.621923 0,-1.421 -0.238938,-1.640114 1.104676,-2.778114 1.657559,-1.151532 3.316,-1.264473 5.067,-1.483473 2.118,-0.265 3.843972,-0.375235 6.000765,0.430062 z" style="fill:rgb(51,51,51)"/>
        </g>
        <g transform="matrix(-1,0,0,-1,140,115) scale(1.3)">
            <path d="m 41.776502,46.576187 c 1.520028,0.762292 1.943559,1.821525 1.943559,3.831525 0,4.199 -3.011765,1.621923 -6.907765,1.621923 -3.896,0 -7.208235,2.577077 -7.208235,-1.621923 0,-1.421 -0.238938,-1.640114 1.104676,-2.778114 1.657559,-1.151532 3.316,-1.264473 5.067,-1.483473 2.118,-0.265 3.843972,-0.375235 6.000765,0.430062 z" style="fill:rgb(51,51,51)"/>
        </g>
    </g>
    <g transform="matrix(1,0,0,1,0,-12)">
        <path d="m 41.402,44.949 c 0,0 -5.41,0.105 -11.197,3.055" style="fill:none;stroke:rgb(51,51,51);stroke-width:3px"/>
    </g>
    <g transform="matrix(-1,0,0,1,128,-12)">
        <path d="m 41.402,44.949 c 0,0 -5.41,0.105 -11.197,3.055" style="fill:none;stroke:rgb(51,51,51);stroke-width:3px"/>
    </g>
    <g transform="matrix(1,0,0,1,5,12) scale(0.9)">
        <path d="m 29.01,68.77 c 8.44,1.49 0.99,10.87 0.37,14.61 -0.14,0.83 0.05,1.87 0.73,1.36 0.28,-0.21 20.39,-12.31 20.39,-12.31 2.19,-1.34 4.78,-1.11 6.12,1.07 1.34,2.18 0.38,4.6 -1.81,5.94 l -15.13,9.57 20.61,-12.3 c 2.19,-1.34 4.78,-1.11 6.12,1.07 1.34,2.18 0.38,4.6 -1.81,5.94 L 44.18,96.61 61,86.57 c 2.19,-1.34 4.78,-1.11 6.12,1.07 1.34,2.18 0.38,4.6 -1.81,5.94 l -16.64,10.57 10.27,-6.02 c 2.19,-1.34 4.78,-1.11 6.12,1.07 1.34,2.18 0.11,4.15 -2.08,5.5 0,0 -22.22,13.75 -24.62,14.95 -6,3 -19.16,2.27 -25,-7 -7.19,-11.42 1.48,-21.36 3.89,-25.31 1.89,-3.09 4.3,-6.21 5.9,-9.58 1.4,-2.95 3.37,-9.43 5.86,-8.99 z" style="fill:rgb(252,194,27);stroke:rgb(51,51,51);stroke-width:3px"/>
    </g>
</svg>
