<?xml version="1.0" encoding="UTF-8" standalone="no"?>
<svg
   width="100%"
   height="100%"
   viewBox="0 0 128 128"
   version="1.1"
   xml:space="preserve"
   style="fill-rule:evenodd;clip-rule:evenodd;stroke-linejoin:round;stroke-miterlimit:2;"
   id="svg1"
   sodipodi:docname="emoji_u1f9f9.svg"
   inkscape:version="1.3 (0e150ed6c4, 2023-07-21)"
   xmlns:inkscape="http://www.inkscape.org/namespaces/inkscape"
   xmlns:sodipodi="http://sodipodi.sourceforge.net/DTD/sodipodi-0.dtd"
   xmlns="http://www.w3.org/2000/svg"
   xmlns:svg="http://www.w3.org/2000/svg"><defs
   id="defs1"><inkscape:path-effect
     effect="powerstroke"
     id="path-effect9"
     is_visible="true"
     lpeversion="1.3"
     scale_width="1"
     interpolator_type="CentripetalCatmullRom"
     interpolator_beta="0.2"
     start_linecap_type="round"
     end_linecap_type="round"
     offset_points="0.51252407,2.6562087 | 0.0013038099,3.3797078 | 1,2.2169936"
     linejoin_type="round"
     miter_limit="4"
     not_jump="false"
     sort_points="true"
     message="&lt;b&gt;Ctrl + click&lt;/b&gt; on existing node and move it" /><inkscape:path-effect
     effect="powerstroke"
     id="path-effect7"
     is_visible="true"
     lpeversion="1.3"
     scale_width="1"
     interpolator_type="CentripetalCatmullRom"
     interpolator_beta="0.2"
     start_linecap_type="round"
     end_linecap_type="round"
     offset_points="0.51252407,2.6562087 | 0.0013038099,3.3797078 | 1,2.2169936"
     linejoin_type="round"
     miter_limit="4"
     not_jump="false"
     sort_points="true"
     message="&lt;b&gt;Ctrl + click&lt;/b&gt; on existing node and move it" /><inkscape:path-effect
     effect="powerstroke"
     id="path-effect5"
     is_visible="true"
     lpeversion="1.3"
     scale_width="1"
     interpolator_type="CentripetalCatmullRom"
     interpolator_beta="0.2"
     start_linecap_type="round"
     end_linecap_type="round"
     offset_points="0.51252407,2.6562087 | 0.0013038099,3.3797078 | 1,2.2169936"
     linejoin_type="round"
     miter_limit="4"
     not_jump="false"
     sort_points="true"
     message="&lt;b&gt;Ctrl + click&lt;/b&gt; on existing node and move it" /></defs><sodipodi:namedview
   id="namedview1"
   pagecolor="#ffffff"
   bordercolor="#000000"
   borderopacity="0.25"
   inkscape:showpageshadow="2"
   inkscape:pageopacity="0.0"
   inkscape:pagecheckerboard="0"
   inkscape:deskcolor="#d1d1d1"
   inkscape:zoom="2.867097"
   inkscape:cx="30.518674"
   inkscape:cy="48.655487"
   inkscape:window-width="1366"
   inkscape:window-height="697"
   inkscape:window-x="-8"
   inkscape:window-y="-8"
   inkscape:window-maximized="1"
   inkscape:current-layer="svg1" />&#10;    &#10;<g
   id="g16"
   transform="matrix(0.87132857,0.87132857,-0.87132857,0.87132857,61.271816,-47.387753)"
   style="stroke-width:0.811527"><g
     id="g4"
     style="stroke-width:0.811527"><g
       id="g23264"
       transform="rotate(-45,64.525241,63.460268)"
       style="stroke-width:0.811527">&#10;        <g
   id="g23238"
   style="stroke-width:0.811527">&#10;            <g
   id="g23236"
   style="stroke-width:0.811527">&#10;                <path
   id="path23232"
   d="m 48.531623,85.86547 c -1.583606,0 -3.077232,-0.611847 -4.210949,-1.745563 -1.115721,-1.115721 -1.745563,-2.609348 -1.745563,-4.210947 0,-1.583604 0.574696,-3.11564 1.745563,-4.210947 L 101.48657,22.221229 c 0.64754,-0.605759 1.47647,-0.980939 2.36639,-0.980939 0.88992,0 1.72929,0.343835 2.36639,0.980939 1.30455,1.304548 1.26035,3.385482 0,4.732777 L 52.74257,84.119907 c -1.095307,1.170868 -2.627344,1.745563 -4.210947,1.745563 z"
   style="fill:#855c52;fill-rule:nonzero;stroke-width:0.811527"
   sodipodi:nodetypes="ssssssssss" />&#10;                &#10;            </g>&#10;        </g>&#10;        &#10;        &#10;        <g
   id="g23250"
   style="stroke-width:0.811527">&#10;            &#10;        </g>&#10;        &#10;        <g
   id="g23262"
   style="stroke-width:0.811527">&#10;            <g
   id="g23256"
   style="stroke-width:0.811527">&#10;                &#10;            </g>&#10;            <g
   id="g23260"
   style="stroke-width:0.811527">&#10;                &#10;            </g>&#10;        </g>&#10;    </g><path
       style="fill:#fcc21b;stroke-width:4.86916;stroke-linecap:round"
       d="m 62.030685,54.445965 c -1.020402,0.04686 -2.102619,0.358187 -2.782368,1.165792 -0.749634,0.828468 -1.139409,1.895816 -1.63313,2.880682 -1.138907,2.907626 -2.057731,5.896159 -3.211604,8.798114 -1.306876,2.685275 -3.019292,5.145907 -4.40271,7.789692 -0.826878,1.606659 -1.48477,3.298459 -1.952466,5.04404 -1.174282,4.009309 -1.818497,8.161504 -2.097663,12.325658 -0.10996,1.906436 -0.161824,3.815375 -0.232011,5.723524 0.118909,1.370174 0.591342,2.705743 1.361005,3.845523 0.878617,0.96375 2.10324,1.48812 3.288331,1.96751 1.512008,0.44605 3.048023,0.80654 4.596357,1.10159 5.512621,0.48259 11.053646,0.62456 16.584344,0.4538 3.363691,-0.0803 6.746819,-0.35623 10.00725,-1.22915 0.767249,-0.17083 1.514097,-0.47568 2.117004,-0.99007 0.619405,-0.50746 1.229137,-1.12561 1.409811,-1.93334 0.180911,-0.76358 0.188643,-1.55773 0.211546,-2.338715 0.02777,-2.306524 -0.222411,-4.603984 -0.43512,-6.897421 -0.372303,-3.361193 -0.833346,-6.726804 -1.742563,-9.990745 -0.554059,-2.053501 -1.272589,-4.065186 -2.176595,-5.991106 -0.847073,-1.813124 -1.873913,-3.541358 -3.052786,-5.158406 -0.856556,-1.228293 -1.785846,-2.428238 -2.373391,-3.816658 -0.915638,-2.06011 -1.532598,-4.234426 -2.308284,-6.347915 -0.570468,-1.564141 -1.141109,-3.160314 -2.110123,-4.529877 -0.715372,-0.931248 -1.916867,-1.314492 -3.045267,-1.417799 -1.622567,-0.112871 -3.243438,-0.25455 -4.861344,-0.423667 -0.385925,-0.0294 -0.771273,-0.03956 -1.158223,-0.03106 z"
       id="path1"
       sodipodi:nodetypes="zsssz" /></g><path
     id="path4"
     style="fill:#f79329;stroke-width:4.86916;stroke-linecap:round"
     d="m 63.943398,83.462457 c -0.0078,1.162328 -0.07615,5.065531 -0.153456,7.427662 -0.05368,1.640555 0.298125,4.236335 -1.191106,5.08778 -1.489236,0.851444 -3.272842,0.573162 -4.291273,0.02375 -1.018432,-0.549411 -1.050162,-2.385007 -1.074189,-3.412558 -0.05545,-2.371287 -0.08934,-5.692326 -0.08768,-7.029722 9.13e-4,-0.740276 -0.09726,-1.82844 -1.350044,-1.856439 -1.252781,-0.028 -1.380158,1.054927 -1.413983,1.793916 -0.06118,1.336658 -0.278553,4.663417 -0.460365,7.030132 -0.170535,2.219915 -0.441998,3.972488 -3.673797,4.521457 -3.231801,0.548968 -4.634722,-0.613823 -4.634722,-0.613823 -0.01053,0.442367 -0.01644,0.882844 -0.01644,1.322641 0,5.739217 4.042151,8.058227 20.943018,8.058227 16.900869,0 18.922522,-2.13343 18.922522,-6.021288 0,-0.973017 -0.0453,-1.999004 -0.109609,-3.043534 0,0 -0.753292,1.408549 -3.719468,1.09063 -2.966179,-0.317918 -4.115412,-1.976093 -4.415499,-6.059665 -0.173954,-2.367141 -0.397325,-5.796987 -0.458539,-7.133639 -0.03382,-0.738288 -0.22623,-1.822072 -1.412157,-1.796324 -1.185926,0.02576 -1.352781,1.118568 -1.35187,1.858845 0.0017,1.337394 -0.03042,4.765599 -0.08587,7.136885 -0.02828,1.209514 -0.171049,3.250975 -1.401195,4.002631 -1.230145,0.751654 -3.083157,0.658424 -4.073877,-0.102304 -0.990719,-0.760732 -1.168928,-2.504053 -1.331774,-4.905095 -0.159975,-2.35868 -0.347321,-6.259008 -0.396427,-7.421044 -0.02922,-0.691537 -0.374986,-1.462066 -1.404846,-1.462066 -1.029859,0 -1.352744,0.81099 -1.357348,1.502945 z"
     sodipodi:nodetypes="sssssssssscssscsssssssssszs" /></g></svg>
