<?xml version="1.0" encoding="UTF-8" standalone="no"?>
<!-- Generator: Adobe Illustrator 25.2.3, SVG Export Plug-In . SVG Version: 6.00 Build 0)  -->

<svg
   version="1.1"
   id="Layer_2"
   x="0px"
   y="0px"
   viewBox="0 0 128 128"
   style="enable-background:new 0 0 128 128;"
   xml:space="preserve"
   sodipodi:docname="emoji_u1fa94.svg"
   inkscape:version="1.2.2 (732a01da63, 2022-12-09)"
   xmlns:inkscape="http://www.inkscape.org/namespaces/inkscape"
   xmlns:sodipodi="http://sodipodi.sourceforge.net/DTD/sodipodi-0.dtd"
   xmlns="http://www.w3.org/2000/svg"
   xmlns:svg="http://www.w3.org/2000/svg"><defs
   id="defs37098">
	

	
</defs><sodipodi:namedview
   id="namedview37096"
   pagecolor="#ffffff"
   bordercolor="#000000"
   borderopacity="0.25"
   inkscape:showpageshadow="2"
   inkscape:pageopacity="0.0"
   inkscape:pagecheckerboard="0"
   inkscape:deskcolor="#d1d1d1"
   showgrid="false"
   inkscape:zoom="4.2421875"
   inkscape:cx="51.152855"
   inkscape:cy="85.097606"
   inkscape:window-width="1366"
   inkscape:window-height="697"
   inkscape:window-x="-8"
   inkscape:window-y="-8"
   inkscape:window-maximized="1"
   inkscape:current-layer="Layer_2" />
<path
   style="fill:#891E0D;"
   d="M56.1,81.32c-0.6,0.24-52.2,0.39-52.2,0.39s-1.02,6.57,2.98,15.1c2.7,5.75,7.07,13.65,12.75,18.35  c3.46,2.86,10.84,9.29,29.55,9.41c20.38,0.13,28.12-9.18,32.53-13.35c4.41-4.17,10.61-12.99,15.13-17.4s9.41-7.39,9.77-11.56  c0.36-4.17-2.74-4.29-2.74-4.29L56.1,81.32z"
   id="path37011" />
<path
   style="fill:#D75010;"
   d="M48.95,106.82c20.49-0.82,27.29-8.1,40.99-16.33c11.74-7.04,16.21-9.65,16.21-11.44  s-10.79-5.11-17.04-7.98c-8.82-4.05-21.81-11.8-44.69-11.92c-19.67-0.1-40.56,7.87-40.56,23.12  C3.87,97.76,29.18,107.61,48.95,106.82z"
   id="path37013" />
<path
   id="path37015"
   style="fill:#FE9700;"
   d="M 43.189453 68.869141 C 26.43947 68.869141 15.79914 74.899538 15.369141 81.269531 C 15.265292 82.803743 15.696002 84.25567 16.537109 85.609375 L 79.726562 86.525391 C 83.733621 84.148635 86.897015 81.960761 88.789062 80.580078 C 81.949069 77.610081 61.180921 69.190859 44.960938 68.880859 C 44.370938 68.870859 43.769453 68.869141 43.189453 68.869141 z " />
<path
   id="path37017"
   style="fill:#fe9700;fill-opacity:1"
   d="M 43.558594 73.880859 C 31.348328 73.706177 24.966012 76.755862 20.869141 79.849609 C 18.343559 81.760708 16.997609 83.764412 16.28125 85.167969 C 19.438538 90.958871 30.207017 95.01743 40.439453 95.900391 C 55.469438 97.200389 63.470946 94.949136 72.210938 90.619141 C 74.936261 89.269079 77.452894 87.872113 79.710938 86.533203 C 78.470127 85.656015 76.293331 84.135999 72.980469 81.980469 C 68.400473 78.990472 58.850065 74.570937 46.080078 73.960938 C 45.213204 73.919688 44.372611 73.892505 43.558594 73.880859 z " />

























<radialGradient
   id="SVGID_1_"
   cx="93.645"
   cy="9.376"
   r="57.5758"
   gradientUnits="userSpaceOnUse">
	<stop
   offset="0.4179"
   style="stop-color:#FFCF18"
   id="stop37071" />
	<stop
   offset="0.6005"
   style="stop-color:#FFCC16"
   id="stop37073" />
	<stop
   offset="0.7438"
   style="stop-color:#FEC212"
   id="stop37075" />
	<stop
   offset="0.8733"
   style="stop-color:#FDB10A"
   id="stop37077" />
	<stop
   offset="0.9821"
   style="stop-color:#FC9D00"
   id="stop37079" />
</radialGradient>



<radialGradient
   id="SVGID_2_"
   cx="91.3772"
   cy="51.1426"
   r="49.412"
   gradientTransform="matrix(0.0162 -0.9999 0.741 0.012 52.002 141.8952)"
   gradientUnits="userSpaceOnUse">
	<stop
   offset="0.184"
   style="stop-color:#FFD874"
   id="stop37088" />
	<stop
   offset="1"
   style="stop-color:#FFD874;stop-opacity:0"
   id="stop37090" />
</radialGradient>

<g
   id="g11658"
   transform="matrix(0.50210046,0,0,0.50210046,68.852352,24.44311)"
   style="stroke-width:1.99163"><path
     d="m 98.59,51.16 c -4.23,0.92 -7.88,3.28 -9.59,7.35 -1.03,2.47 -2.47,8.85 -6.42,7.2 -1.89,-0.78 -1.86,-3.49 -1.64,-5.18 0.47,-3.47 2.03,-6.64 3.1,-9.94 1.1,-3.42 2.05,-6.86 2.73,-10.4 C 89.05,28.47 88.42,14.97 80.13,5.6 78.73,4 75.2,0.3 72.87,0.22 c -1.44,-0.04 -0.02,1.66 0.38,2.23 0.81,1.17 1.49,2.44 2.01,3.77 6.13,15.64 -8.98,27.55 -18.91,36.82 -4.76,4.45 -8.56,9.17 -11.98,14.68 -0.34,0.53 -1.09,2.31 -2.06,1.94 -1.15,-0.44 -1.27,-3.07 -1.63,-4.05 -0.68,-1.88 -1.73,-3.93 -3.08,-5.4 -2.61,-2.86 -6.26,-4.79 -10.21,-4.53 -0.15,0.01 -0.58,0.08 -1.11,0.2 -0.83,0.18 -3.05,0.47 -2.45,1.81 0.31,0.69 1.22,0.63 1.87,0.82 8.34,2.56 8.15,11.3 6.8,18.32 -2.44,12.78 -9.2,24.86 -4.4,38 5.66,15.49 23.38,25.16 39.46,22.5 4.39,-0.72 9.45,-2.14 13.39,-4.26 4.19,-2.26 8.78,-5.35 12.05,-8.83 4.21,-4.47 6.89,-10.2 7.68,-16.27 0.93,-7.02 -1.31,-13.64 -3.35,-20.27 -2.46,-8 -5.29,-21.06 4.93,-24.97 0.5,-0.2 1.5,-0.35 1.85,-0.88 1.3,-1.94 -4.94,-0.81 -5.52,-0.69 z"
     style="fill:#ed6c30;stroke-width:1.99163"
     id="path11654" /><path
     d="m 68.13,106.07 c 2.12,1.78 5.09,0.91 7.09,-0.61 1.07,-0.81 1.99,-1.85 2.59,-3.06 0.25,-0.52 0.54,-1.18 0.54,-1.77 0,-0.79 -0.47,-1.57 -0.27,-2.38 1.68,-0.33 3.76,4.5 3.97,5.62 1.68,8.83 -6.64,16.11 -14.67,17.52 -13.55,2.37 -21.34,-9.5 -19.78,-20.04 0.97,-6.56 5.37,-11.07 9.85,-15.57 3.71,-3.73 7.15,-6.93 8.35,-11.78 0.21,-0.86 0.16,-2.18 -0.09,-3.03 -0.21,-0.73 -0.61,-1.4 -0.63,-2.19 -0.06,-1.66 1.55,0.51 1.92,0.93 4.46,5.03 5.73,12.46 4.54,18.96 -0.77,4.2 -3.77,7.2 -4.82,11.22 -0.61,2.29 -0.55,4.52 1.41,6.18 z"
     style="fill:#fcc21b;stroke-width:1.99163"
     id="path11656" /></g></svg>
