<?xml version="1.0" encoding="UTF-8" standalone="no"?>
<!-- Generator: Adobe Illustrator 24.1.2, SVG Export Plug-In . SVG Version: 6.00 Build 0)  -->

<svg
   version="1.1"
   id="Layer_2"
   x="0px"
   y="0px"
   viewBox="0 0 128 128"
   style="enable-background:new 0 0 128 128;"
   xml:space="preserve"
   sodipodi:docname="emoji_u1f985.svg"
   inkscape:version="1.2.2 (732a01da63, 2022-12-09)"
   xmlns:inkscape="http://www.inkscape.org/namespaces/inkscape"
   xmlns:sodipodi="http://sodipodi.sourceforge.net/DTD/sodipodi-0.dtd"
   xmlns="http://www.w3.org/2000/svg"
   xmlns:svg="http://www.w3.org/2000/svg"><defs
   id="defs47693" /><sodipodi:namedview
   id="namedview47691"
   pagecolor="#ffffff"
   bordercolor="#000000"
   borderopacity="0.25"
   inkscape:showpageshadow="2"
   inkscape:pageopacity="0.0"
   inkscape:pagecheckerboard="0"
   inkscape:deskcolor="#d1d1d1"
   showgrid="false"
   inkscape:zoom="5.9993592"
   inkscape:cx="43.504646"
   inkscape:cy="77.674962"
   inkscape:window-width="1366"
   inkscape:window-height="697"
   inkscape:window-x="-8"
   inkscape:window-y="-8"
   inkscape:window-maximized="1"
   inkscape:current-layer="Layer_2" />
<path
   style="fill:#2f2f2f;fill-opacity:1"
   d="M44.99,69.48c0,0,11.83-0.7,10-16.75c-1.83-16.05-7.6-16.33-9.85-24.35  c-2.25-8.02-2.3-16.03-3.38-16.61c-0.83-0.45-7.32,4.5-7.32,4.5s-6.01,5.05-6.48,3.66c-0.66-1.97,5.07-11.12,5.91-12.95  c0.84-1.83,0.49-4.83-3.38-2.53C27.02,6.5,6.27,23.31,6.7,36.4s16.05,27.73,16.05,27.73l9.43-9.43L44.99,69.48z"
   id="path47655" />
<linearGradient
   id="SVGID_1_"
   gradientUnits="userSpaceOnUse"
   x1="68.597"
   y1="90.4617"
   x2="76.8784"
   y2="115.6414">
	<stop
   offset="0.20739999"
   style="stop-color:#ffeac8;stop-opacity:1;"
   id="stop47657" />
	<stop
   offset="0.309"
   style="stop-color:#B59482"
   id="stop47659" />
	<stop
   offset="0.4853"
   style="stop-color:#CDB099"
   id="stop47661" />
	<stop
   offset="0.7137"
   style="stop-color:#F4DDBE"
   id="stop47663" />
	<stop
   offset="0.7707"
   style="stop-color:#FFEAC8"
   id="stop47665" />
</linearGradient>
<path
   style="fill:#dbdbdb;fill-opacity:1"
   d="M67.89,90.69c0,0,10.89,6.29,13.7,8.45s7.13,5.63,7.13,5.63s-1.97,4.97-3.94,6.19  s-4.5,1.6-4.5,1.6s-3.38,3.57-5.73,3.75s-4.32-1.03-4.32-1.03s-3.1,1.13-4.41,1.03c-1.31-0.09-5.16-3.1-5.16-3.1L67.89,90.69z"
   id="path47668" />
<path
   style="fill:#6d4c41;fill-opacity:1"
   d="M51.18,61.6c0,0,5.16,0.47,7.7-8.07c2.53-8.54,1.97-15.3,6.85-20.37s9.67-6.1,14.92-6.48  c5.26-0.38,25.15-1.13,30.13-1.5c4.97-0.38,9.1-1.69,9.57-0.66c0.35,0.77-5.54,10.79-5.54,10.79s-13.23,0.19-13.51,3  c-0.28,2.82,9.88,1.29,9.95,2.72c0.1,1.97-8.54,12.95-11.64,16.05c-3.1,3.1-5.63,3.47-6.66,5.07s-5.54,15.39-10.89,20.27  c-5.35,4.88-12.11,5.26-12.11,5.26s4.04,5.63,2.72,10.42c-1.31,4.79-3.66,11.12-6.48,14.41c-1.99,2.33-5.12,4.36-8.26,2.11  c-3.5-2.51-3.28-7.6-2.44-10.7c0.84-3.1,0.38-5.16,0.38-5.16s-5,5.21-7.98,7.79c-3.14,2.72-6.05,7.23-10.14,2.25  c-4.58-5.57,0.33-8.82,2.21-11.26c1.88-2.44,2.58-3.47,2.58-3.47l-6.76-14.27L51.18,61.6z"
   id="path47670" />
<path
   style="fill:#dbdbdb;fill-opacity:1"
   d="M24.65,52.94c-2.05,2.05-7.46,7.58-0.28,13.77s7.39,9.88,9.29,12.48c1.91,2.62,3.45,5.14,4.65,6.41  c1.2,1.27,4.29,3.87,5.28,3.59c0.99-0.28-1.06-7.74-0.56-8.17s5.98,3.38,6.83,2.82c0.89-0.6-0.99-7.81-0.56-8.17  c0.42-0.35,5.33,3.02,5.98,2.46c0.92-0.77-2.82-15.7-3.17-16.47c-0.19-0.41-5.33-4.21-9.71-7.18c-3.9-2.64-5.49-3.87-9.15-4.36  C29.87,49.67,26.19,51.39,24.65,52.94z"
   id="path47672" />
<path
   style="fill:#fcc21b;fill-opacity:1"
   d="M23.66,75.75c0.42-1.06,0.92-2.22,3.66-4.26c2.75-2.04,7.07-5.07,7.18-6.02  c0.11-0.88-5.75-0.31-7.51-0.45c-1.76-0.14-3.75-0.4-4.88-1.31c-1.01-0.82-1.03-1.6-1.03-1.6s-4.3,2.96-4.81,6.38  c-0.56,3.8,0.7,6.48,3.24,8.31s3.6,2.32,4.26,1.97C24.58,78.35,23.66,75.75,23.66,75.75z"
   id="path47674" />
<path
   style="fill:#ed6c30;fill-opacity:1"
   d="M21.85,74.51c0.14-1.02,0.5-3.12,2.65-5.23c1.83-1.8,5-4.29,5.88-4.29c0.88,0,2.46,0,2.46,0  s-0.7,1.44-1.97,2.25c-1.27,0.81-2.87,2.05-4.89,3.84c-2.11,1.87-2.29,4.61-2.29,4.61s0.77,2.22,0.18,2.96  C23.34,79.28,21.71,75.54,21.85,74.51z"
   id="path47676" />
<path
   style="fill:#2f2f2f;fill-opacity:1"
   d="M29.01,61.25c0.08,0.66,0.6,1.97,2.43,1.58c1.52-0.32,2.64-2.39,2.15-3.87  c-0.4-1.19-1.37-1.44-2.04-1.02C30.88,58.36,28.83,59.81,29.01,61.25z"
   id="path47678" />
<path
   style="fill:#6d4c41;fill-opacity:1"
   d="M79.95,111.34c-0.22,0.13-1.83,2.96-4.79,3.71c-2.96,0.75-4.13-0.75-4.74-0.75s-2.7,1.29-4.62,1.1  c-1.5-0.15-3.97-2.28-3.97-2.28l-1.03,1.64c0,0,2.39,2.58,5.07,2.72c2.67,0.14,4.36-1.03,4.36-1.03s2.63,1.34,5.4,0.8  c3.85-0.75,5.3-4.13,5.3-4.13s3.19-0.33,5.3-1.92c2.11-1.6,4.01-5.77,2.6-6.43s-2.18,2.86-3.87,4.22S80.56,110.97,79.95,111.34z"
   id="path47680" />
<path
   id="path47682"
   style="fill:#fcc21b;fill-opacity:1"
   d="m 32.601562,105.00781 c -5.24236,0.15268 -7.214686,5.37789 -6.710937,6.46289 0.262394,0.55881 0.79905,0.84126 1.460937,0.95313 0.0053,9e-4 0.01027,0.003 0.01563,0.004 0.138966,0.0366 0.325823,0.0514 0.544921,0.0527 0.418899,0.0148 0.864817,-0.0228 1.3125,-0.0879 0.778983,-0.0809 1.562875,-0.16211 1.945313,-0.16211 2.009763,0 3.270625,1.47898 3.640625,2.45898 0.37,0.98 1.240391,3.56133 1.900391,3.61133 0.01835,10e-4 0.03532,-0.002 0.05273,-0.004 0.05549,0.0712 0.110654,0.1344 0.166016,0.17382 0.649999,0.47 3.370625,-0.8407 3.890624,-4.9707 0.51,-4.13 -2.071177,-8.30023 -7.701171,-8.49023 -0.175938,-0.006 -0.34847,-0.007 -0.517579,-0.002 z"
   sodipodi:nodetypes="ccscccssccccscc" />



<path
   id="path48359"
   style="fill:#fcc21b;fill-opacity:1"
   d="m 54.759941,111.25459 c -5.24236,0.15268 -7.214686,5.37789 -6.710937,6.46289 0.262394,0.55881 0.79905,0.84126 1.460937,0.95313 0.0053,9e-4 0.01027,0.003 0.01563,0.004 0.138966,0.0366 0.325823,0.0514 0.544921,0.0527 0.418899,0.0148 0.864817,-0.0228 1.3125,-0.0879 0.778983,-0.0809 1.562875,-0.16211 1.945313,-0.16211 2.009763,0 3.270625,1.47898 3.640625,2.45898 0.37,0.98 1.240391,3.56133 1.900391,3.61133 0.01835,10e-4 0.03532,-0.002 0.05273,-0.004 0.05549,0.0712 0.110654,0.1344 0.166016,0.17382 0.649999,0.47 3.370625,-0.8407 3.890624,-4.9707 0.51,-4.13 -2.071177,-8.30023 -7.701171,-8.49023 -0.175938,-0.006 -0.34847,-0.007 -0.517579,-0.002 z"
   sodipodi:nodetypes="ccscccssccccscc" /></svg>
