<?xml version="1.0" encoding="UTF-8" standalone="no"?>
<svg
   width="128px"
   height="128px"
   version="1.1"
   xml:space="preserve"
   style="fill-rule:evenodd;clip-rule:evenodd;stroke-linejoin:round;stroke-miterlimit:2;"
   id="svg12"
   sodipodi:docname="emoji_u1f999.svg"
   inkscape:version="1.3 (0e150ed6c4, 2023-07-21)"
   xmlns:inkscape="http://www.inkscape.org/namespaces/inkscape"
   xmlns:sodipodi="http://sodipodi.sourceforge.net/DTD/sodipodi-0.dtd"
   xmlns="http://www.w3.org/2000/svg"
   xmlns:svg="http://www.w3.org/2000/svg"><defs
     id="defs12" /><sodipodi:namedview
     id="namedview12"
     pagecolor="#ffffff"
     bordercolor="#000000"
     borderopacity="0.25"
     inkscape:showpageshadow="2"
     inkscape:pageopacity="0.0"
     inkscape:pagecheckerboard="0"
     inkscape:deskcolor="#d1d1d1"
     inkscape:zoom="2.8670971"
     inkscape:cx="70.977715"
     inkscape:cy="75.511918"
     inkscape:window-width="1366"
     inkscape:window-height="697"
     inkscape:window-x="-8"
     inkscape:window-y="-8"
     inkscape:window-maximized="1"
     inkscape:current-layer="svg12" /><path
     d="M94.82,52.36C94.82,52.36 99.21,48.05 104.3,48.23C109.74,48.42 113.73,51.37 115.05,55.88C116.36,60.38 116.5,62.12 117.49,63.58C118.48,65.03 119.74,66.07 119.74,66.86C119.74,67.65 118.8,68.69 117.53,69.21C116.26,69.73 114.06,69.12 114.06,69.12C114.06,69.12 113.5,71.94 111.43,72.59C109.37,73.25 107.49,73.01 107.49,73.01L104.86,62.83C104.86,62.83 106.7,60.04 105.24,58.09C103.27,55.47 99.78,57.91 99.78,57.91L94.82,52.36Z"
     style="fill:#855c52;fill-rule:nonzero"
     id="path1" /><path
     d="M68.43,93.82C68.43,93.82 67.68,98.84 66.74,100.48C65.8,102.12 65.38,102.45 65.38,102.45C65.38,102.45 65.33,110.71 65.33,113.01C65.33,114.8 65.79,117.42 64.77,118.22C63.5,119.21 58.48,119.25 57.78,118.22C57.08,117.19 59.66,114.89 59.75,114.18C59.84,113.48 59.47,106.48 59.42,105.12C59.37,103.76 57.06,94.82 57.06,94.82L68.43,93.82Z"
     style="fill:#4b6b75;fill-rule:nonzero"
     id="path2" /><path
     d="M98.8,100.53C99.18,101.12 99.68,107.76 99.77,109.82C99.86,111.88 99.86,115.22 99.72,115.73C99.58,116.25 96.48,118.78 97.61,119.72C98.74,120.66 104.7,120.1 105.17,119.25C105.64,118.41 105.59,101.14 105.59,99.73C105.59,98.65 103.75,94.23 103.08,93.23C102.43,92.25 98.43,99.94 98.8,100.53Z"
     style="fill:#4b6b75;fill-rule:nonzero"
     id="path3" /><path
     id="path4"
     style="fill:#ffcc80;fill-rule:nonzero;fill-opacity:1"
     d="M 16.357422 8.0429688 C 15.968201 8.0529488 15.68185 8.1281844 15.519531 8.2304688 C 15.275054 8.2885058 15.061164 8.4277314 15.029297 8.7304688 C 14.959297 9.4004681 16.620861 11.179221 18.130859 13.199219 C 19.440858 14.959217 20.630859 16.900391 20.630859 16.900391 L 22.636719 16.828125 C 22.922237 17.275825 23.359375 17.960938 23.359375 17.960938 L 23.708984 16.789062 L 24.490234 16.759766 L 23.943359 16.001953 L 24.220703 15.070312 C 24.220703 15.070312 21.400388 10.000546 19.150391 8.8105469 C 18.025392 8.2105475 17.039921 8.0254688 16.357422 8.0429688 z " /><path
     id="path5"
     style="fill:#ffcc80;fill-rule:nonzero;fill-opacity:1"
     d="M 25.484375 4.4375 C 25.122412 4.4289082 24.894809 4.55408 24.863281 4.828125 C 24.756756 4.9459042 24.669957 5.1302115 24.609375 5.390625 C 24.359375 6.4506239 26.570236 8.9996135 28.240234 13.099609 C 28.920234 14.769608 29.509766 19.220703 29.509766 19.220703 L 31.619141 20.224609 C 31.624423 20.32017 31.630859 20.408959 31.630859 20.429688 C 31.630859 20.639687 34.370469 20.77945 34.230469 17.189453 C 34.090469 13.599457 33.529216 11.560622 31.199219 8.390625 C 29.45172 6.0131274 26.708749 4.4665625 25.484375 4.4375 z " /><path
     d="M19.79,19.6C19.79,19.6 17.21,21.15 14.72,22.09C12.69,22.85 8.28,24.37 8.63,26.34C8.77,27.13 7.75,28.09 8.24,29.54C8.67,30.82 9.49,30.92 9.79,31.09C10.28,31.37 11.3,33.34 13.59,33.54C16.16,33.76 17.67,32.79 17.67,32.79L23.73,38L32.32,29.88L32.93,20.92L26.74,18.57L19.79,19.6Z"
     style="fill:#ffcc80;fill-rule:nonzero;fill-opacity:1"
     id="path8" /><path
     d="m 12.30657,28.528343 c 0.170125,-0.149956 1.917674,-1.012206 2.766686,-1.4342 0.840993,-0.418008 0.772383,-2.143971 -0.84,-1.51 -1.617639,0.636038 -2.260487,1.37 -2.964971,1.37 -0.504479,0 -1.115029,-1.02 -1.5750287,-1.48 -0.46,-0.46 -1.337597,0.518181 -0.46,1.68 0.8824067,1.168186 1.0484787,0.896807 1.2599997,1.52 0.113644,0.334824 0,0.77 -0.04,1.06 -0.04,0.29 -2.0897875,-0.875313 -2.0549708,0.104528 0.018773,0.528338 0.4349711,1.125472 1.5249711,1.265472 1.0899997,0.14 1.0358077,0.123683 1.5499997,0.21 1.119844,0.187986 1.76,0.7 3.34,0.67 1.58,-0.03 3.797505,-1.867477 3.13,-2.53 -0.672505,-0.667486 -2.290113,0.704997 -3.73,0.67 -1.44013,-0.035 -1.779659,-0.363984 -1.961657,-0.496628 -0.16947,-0.123512 -0.146642,-0.92146 0.05497,-1.099172 z"
     style="fill:#855c52;fill-opacity:1;fill-rule:nonzero"
     id="path9"
     sodipodi:nodetypes="ssssssssssssssss" /><path
     d="M28.52,13.95C28.52,13.95 23.87,13.64 20.92,15.62C17.97,17.6 16.98,18.9 17.49,19.8C18,20.7 19.37,20.69 21.1,20.55C22.84,20.41 24.76,20.17 26.59,20.32C28.42,20.46 29.5,20.88 30.16,21.26C30.82,21.64 31.8,22.48 31.8,22.48C31.8,22.48 29.88,25.1 28.37,27.45C26.87,29.8 25.98,31.34 25.18,33.18C24.6,34.52 23.82,36.42 23.82,36.42C23.82,36.42 21.52,34.26 20.96,33.89C20.4,33.51 18.38,32.39 18.38,32.39L17.39,33C17.39,33 17.25,36.99 18.84,41.45C20.43,45.91 22.83,49.76 22.83,49.76C22.83,49.76 22.36,56.85 26.16,63.46C28.16,66.95 32.54,69.33 32.54,69.33C32.54,69.33 32.26,74.07 35.03,77.17C37.8,80.27 40.15,80.27 40.15,80.27C40.15,80.27 40.43,82.38 42.03,85.76C43.67,89.23 45.74,90.26 45.74,90.26C45.74,90.26 45.18,93.26 46.12,98.24C46.97,102.73 49.5,105.04 49.5,105.04C49.5,105.04 49.83,117.1 49.5,117.85C49.17,118.6 46.4,121.56 46.97,122.54C47.53,123.53 50.07,123.62 51.33,123.62C52.59,123.62 54.66,123.2 55.22,122.68C55.78,122.16 55.92,114.09 55.92,112.59C55.92,111.09 56.25,105.6 56.25,105.6C56.25,105.6 59.72,104.05 60.94,101.42C62.16,98.79 62.02,96.68 62.02,96.68C62.02,96.68 66.2,97.2 71.31,95.79C76.43,94.38 81.59,89.74 81.59,89.74C81.59,89.74 84.45,94.86 85.81,97.25C87.17,99.64 89.7,103.02 89.7,103.02C89.7,103.02 89.75,116.68 89.47,117.24C89.19,117.8 85.81,121.74 86.51,122.5C87.21,123.25 88.95,123.34 90.87,123.3C92.79,123.25 94.76,123.16 95.14,122.03C95.52,120.9 95.14,118.42 95.23,116.54C95.32,114.66 95.65,104.48 95.65,104.48C95.65,104.48 101.13,101.42 103.63,95.05C105.7,89.77 105.65,84.26 105.65,84.26C105.65,84.26 107.2,79.19 107.48,77.31C107.76,75.43 108.32,71.73 106.12,65.44C103.92,59.15 98.94,51.88 91.53,48.83C84.12,45.78 76.65,45.59 70.23,45.64C63.8,45.69 52.54,47.14 50.71,46.58C48.88,46.02 45.31,40.81 43.95,35.36C42.59,29.92 40.95,24 38.65,21.24C36.35,18.48 34.24,17.58 34.24,17.58C34.24,17.58 33.11,21.01 31,19.55C29.32,18.39 29.22,17 29.08,16.07C28.94,15.08 28.52,13.95 28.52,13.95Z"
     style="fill:#6593a2;fill-rule:nonzero"
     id="path11" /><path
     d="M93.3,101.32C94.21,101.6 97.01,99.87 98.27,98.69C99.82,97.25 100.66,94.75 100.52,93.9C100.38,93.06 98.31,95.59 97.7,94.7C97.09,93.81 99.96,91.72 100.98,90.05C102.38,87.77 102.77,85.86 102.16,85.49C101.55,85.12 99.3,88.17 98.63,87.14C97.8,85.87 99.3,84.67 100.86,83.3C102.3,82.03 103.89,80.94 104.64,77.28C105.39,73.62 105.13,68.25 103.82,65.24C102.51,62.24 98.49,55.93 90.99,51.56C83.48,47.2 72.03,47.71 67.43,47.85C62.83,47.99 51.47,50.01 49.6,49.07C47.72,48.13 44.34,46.07 42.19,38.98C40.03,31.89 40.13,28.21 37.87,24.48C36.74,22.61 34.94,21.41 34.94,21.41C34.94,21.41 32.43,25.94 30.79,28.47C29.15,31 26.33,35.74 25.39,42.55C24.45,49.35 25.78,55.3 26.35,57.78C27.53,62.94 32.15,65.97 32.15,65.97C32.15,65.97 32.99,62.63 33.23,61.61C33.58,60.11 34.36,58.23 35.39,58.89C36.42,59.55 34.39,67.82 35.13,71.82C36.07,76.91 40.17,77.05 40.17,77.05C40.17,77.05 40.55,74.47 41.48,73.3C42.42,72.13 42.89,72.08 43.26,72.55C43.64,73.02 42.44,76.83 43.07,80.67C43.99,86.23 47.68,89.14 47.96,89.75C48.24,90.36 46.87,103.23 54,103.34C60.15,103.43 58.88,96.68 58.88,96.68C58.88,96.68 61.37,95.79 61.88,92.22C62.39,88.65 61.36,84.55 60.85,83.21C59.82,80.54 61.51,80.16 62.3,82.04C63.1,83.92 63.68,85.54 64.04,87.67C64.4,89.85 63.9,92.5 64.46,92.78C65.38,93.24 69.43,93.25 73.09,91.42C76.75,89.59 79.94,85.6 79.94,85.6C79.94,85.6 77.59,79.69 78.02,73.87C78.45,68.05 80.27,64.63 81.12,65.33C81.96,66.03 80.74,70.68 81.64,76.22C82.53,81.76 83.8,86.97 87.37,92.88C90.95,98.79 92.22,101 93.3,101.32Z"
     style="fill:#f8f9fc;fill-rule:nonzero;"
     id="path12" /><ellipse
     style="fill:#2f2f2f;fill-opacity:1;stroke-width:35.9055;stroke-linecap:round"
     id="path13"
     cx="22.243723"
     cy="25.119612"
     rx="1.8766081"
     ry="2.144695" /></svg>
