<?xml version="1.0" encoding="UTF-8" standalone="no"?>
<svg
   width="100%"
   height="100%"
   viewBox="0 0 534 534"
   version="1.1"
   xml:space="preserve"
   style="fill-rule:evenodd;clip-rule:evenodd;"
   id="svg19046"
   sodipodi:docname="emoji_u1f92d.svg"
   inkscape:version="1.2.2 (732a01da63, 2022-12-09)"
   xmlns:inkscape="http://www.inkscape.org/namespaces/inkscape"
   xmlns:sodipodi="http://sodipodi.sourceforge.net/DTD/sodipodi-0.dtd"
   xmlns="http://www.w3.org/2000/svg"
   xmlns:svg="http://www.w3.org/2000/svg"><defs
     id="defs19050" /><sodipodi:namedview
     id="namedview19048"
     pagecolor="#ffffff"
     bordercolor="#000000"
     borderopacity="0.25"
     inkscape:showpageshadow="2"
     inkscape:pageopacity="0.0"
     inkscape:pagecheckerboard="0"
     inkscape:deskcolor="#d1d1d1"
     showgrid="false"
     inkscape:zoom="1.0168539"
     inkscape:cx="227.17127"
     inkscape:cy="378.61879"
     inkscape:window-width="1366"
     inkscape:window-height="697"
     inkscape:window-x="-8"
     inkscape:window-y="-8"
     inkscape:window-maximized="1"
     inkscape:current-layer="svg19046" /><path
     d="M265.833,39.458c-260.5,0 -266.666,292 -266.666,349.792c-0,57.833 119.375,104.625 266.666,104.625c147.292,0 266.625,-46.792 266.625,-104.625c0,-57.792 -6.166,-349.792 -266.625,-349.792Z"
     style="fill:#fcc21b;fill-rule:nonzero;"
     id="path18948" /><path
     d="M441.167,387.125c-38.125,13.667 -80.167,-5.625 -94.042,-43.208c-13.792,-37.584 5.75,-79.209 43.833,-92.959c38,-13.666 80.125,5.709 94.042,43.292c13.833,37.625 -5.833,79.25 -43.833,92.875Z"
     style="fill:#fcc21b;fill-rule:nonzero;"
     id="path18950" /><path
     d="M440.125,384.375c-36.583,13.125 -76.917,-5.375 -90.208,-41.458c-13.25,-36.042 5.5,-76 42.083,-89.167c36.458,-13.125 76.875,5.458 90.208,41.5c13.25,36.083 -5.583,76.042 -42.083,89.125Z"
     style="fill:#fcc01c;fill-rule:nonzero;"
     id="path18952" /><path
     d="M439.125,381.583c-35,12.542 -73.625,-5.166 -86.375,-39.708c-12.708,-34.542 5.292,-72.75 40.292,-85.375c34.916,-12.542 73.625,5.25 86.375,39.75c12.666,34.583 -5.375,72.833 -40.292,85.333Z"
     style="fill:#fcbe1c;fill-rule:nonzero;"
     id="path18954" /><path
     d="M438.083,378.833c-33.458,12 -70.375,-4.916 -82.541,-37.958c-12.125,-33 5.041,-69.542 38.5,-81.583c33.375,-12 70.333,5 82.583,38c12.083,33 -5.167,69.541 -38.542,81.541Z"
     style="fill:#fbbb1d;fill-rule:nonzero;"
     id="path18956" /><path
     d="M437.083,376.042c-31.916,11.458 -67.125,-4.709 -78.708,-36.167c-11.583,-31.458 4.833,-66.333 36.708,-77.792c31.834,-11.458 67.084,4.75 78.75,36.25c11.5,31.459 -4.916,66.292 -36.75,77.709Z"
     style="fill:#fbb91e;fill-rule:nonzero;"
     id="path18958" /><path
     d="M436.042,373.292c-30.375,10.875 -63.834,-4.459 -74.875,-34.417c-11,-29.958 4.583,-63.083 34.916,-74.042c30.292,-10.875 63.834,4.542 74.917,34.459c10.958,29.958 -4.667,63.125 -34.958,74Z"
     style="fill:#fbb71e;fill-rule:nonzero;"
     id="path18960" /><path
     d="M435.042,370.5c-28.792,10.333 -60.584,-4.25 -71.042,-32.667c-10.458,-28.416 4.333,-59.875 33.125,-70.25c28.708,-10.333 60.542,4.292 71.083,32.709c10.417,28.458 -4.458,59.916 -33.166,70.208Z"
     style="fill:#fbb51f;fill-rule:nonzero;"
     id="path18962" /><path
     d="M434,367.75c-27.25,9.792 -57.333,-4 -67.208,-30.917c-9.875,-26.875 4.125,-56.625 31.333,-66.458c27.167,-9.792 57.292,4.083 67.25,30.958c9.875,26.875 -4.167,56.625 -31.375,66.417Z"
     style="fill:#fab220;fill-rule:nonzero;"
     id="path18964" /><path
     d="M432.958,364.958c-25.708,9.209 -54.041,-3.791 -63.416,-29.125c-9.334,-25.333 3.875,-53.416 29.583,-62.666c25.625,-9.209 54.042,3.833 63.417,29.208c9.333,25.333 -3.917,53.375 -29.584,62.583Z"
     style="fill:#fab020;fill-rule:nonzero;"
     id="path18966" /><path
     d="M431.958,362.208c-24.166,8.667 -50.791,-3.541 -59.583,-27.375c-8.75,-23.833 3.625,-50.166 27.792,-58.875c24.083,-8.666 50.791,3.625 59.583,27.417c8.75,23.792 -3.708,50.167 -27.792,58.833Z"
     style="fill:#faae21;fill-rule:nonzero;"
     id="path18968" /><path
     d="M430.917,359.417c-22.584,8.125 -47.542,-3.334 -55.75,-25.625c-8.209,-22.292 3.416,-46.959 26,-55.125c22.541,-8.084 47.5,3.375 55.75,25.666c8.208,22.334 -3.417,47 -26,55.084Z"
     style="fill:#faac22;fill-rule:nonzero;"
     id="path18970" /><path
     d="M429.917,356.667c-21.042,7.541 -44.25,-3.084 -51.917,-23.875c-7.625,-20.75 3.167,-43.75 24.208,-51.334c21,-7.541 44.25,3.125 51.917,23.917c7.625,20.75 -3.208,43.75 -24.208,51.292Z"
     style="fill:#f9a922;fill-rule:nonzero;"
     id="path18972" /><path
     d="M428.875,353.875c-19.5,7 -41,-2.875 -48.083,-22.125c-7.084,-19.208 2.958,-40.5 22.416,-47.542c19.459,-7 41,2.917 48.084,22.125c7.083,19.292 -2.959,40.542 -22.417,47.542Z"
     style="fill:#f9a723;fill-rule:nonzero;"
     id="path18974" /><path
     d="M427.875,351.083c-17.917,6.417 -37.75,-2.625 -44.25,-20.333c-6.5,-17.708 2.708,-37.292 20.625,-43.75c17.875,-6.417 37.708,2.667 44.292,20.375c6.458,17.708 -2.75,37.292 -20.667,43.708Z"
     style="fill:#f9a524;fill-rule:nonzero;"
     id="path18976" /><path
     d="M426.833,348.333c-16.375,5.875 -34.458,-2.416 -40.416,-18.583c-5.959,-16.167 2.458,-34.042 18.833,-39.958c16.333,-5.875 34.458,2.458 40.458,18.625c5.959,16.166 -2.5,34.041 -18.875,39.916Z"
     style="fill:#f9a324;fill-rule:nonzero;"
     id="path18978" /><path
     d="M425.833,345.542c-14.833,5.333 -31.208,-2.167 -36.583,-16.834c-5.375,-14.625 2.25,-30.833 17.083,-36.166c14.792,-5.334 31.209,2.208 36.625,16.875c5.334,14.625 -2.333,30.833 -17.125,36.125Z"
     style="fill:#f8a025;fill-rule:nonzero;"
     id="path18980" /><path
     d="M424.792,342.792c-13.292,4.75 -27.959,-1.959 -32.75,-15.084c-4.834,-13.125 2,-27.625 15.291,-32.416c13.25,-4.75 27.917,2 32.792,15.083c4.792,13.167 -2.042,27.667 -15.333,32.417Z"
     style="fill:#f89e26;fill-rule:nonzero;"
     id="path18982" /><path
     d="M423.792,340c-11.709,4.208 -24.667,-1.708 -28.959,-13.292c-4.25,-11.583 1.792,-24.375 13.5,-28.625c11.709,-4.208 24.667,1.75 28.959,13.334c4.25,11.583 -1.792,24.375 -13.5,28.583Z"
     style="fill:#f89c26;fill-rule:nonzero;"
     id="path18984" /><path
     d="M422.75,337.25c-10.167,3.667 -21.417,-1.5 -25.125,-11.542c-3.708,-10.041 1.542,-21.166 11.708,-24.833c10.167,-3.667 21.417,1.542 25.125,11.583c3.709,10.042 -1.541,21.125 -11.708,24.792Z"
     style="fill:#f89a27;fill-rule:nonzero;"
     id="path18986" /><path
     d="M421.75,334.458c-8.625,3.084 -18.167,-1.291 -21.292,-9.791c-3.125,-8.5 1.292,-17.917 9.917,-21.042c8.625,-3.083 18.125,1.292 21.292,9.833c3.125,8.5 -1.292,17.917 -9.917,21Z"
     style="fill:#f79728;fill-rule:nonzero;"
     id="path18988" /><path
     d="M420.708,331.708c-7.083,2.542 -14.875,-1.041 -17.458,-8.041c-2.583,-7 1.083,-14.709 8.125,-17.25c7.083,-2.542 14.875,1.041 17.458,8.041c2.584,7 -1.041,14.709 -8.125,17.25Z"
     style="fill:#f79528;fill-rule:nonzero;"
     id="path18990" /><path
     d="M419.708,328.917c-5.5,1.958 -11.625,-0.834 -13.625,-6.25c-2,-5.459 0.834,-11.459 6.375,-13.459c5.5,-2 11.625,0.834 13.625,6.292c2,5.417 -0.875,11.417 -6.375,13.417Z"
     style="fill:#f79329;fill-rule:nonzero;"
     id="path18992" /><g
     id="g19038"><path
       d="M135.417,384.375c-38.125,13.667 -80.167,-5.625 -94.042,-43.25c-13.833,-37.583 5.75,-79.208 43.833,-92.958c38,-13.667 80.125,5.708 94.042,43.291c13.833,37.625 -5.833,79.25 -43.833,92.917Z"
       style="fill:#fcc21b;fill-rule:nonzero;"
       id="path18994" /><path
       d="M134.375,381.583c-36.583,13.125 -76.917,-5.375 -90.208,-41.5c-13.25,-36.041 5.5,-75.958 42.083,-89.166c36.458,-13.084 76.875,5.458 90.208,41.541c13.25,36.125 -5.583,76.042 -42.083,89.125Z"
       style="fill:#fcc01c;fill-rule:nonzero;"
       id="path18996" /><path
       d="M133.375,378.833c-35,12.542 -73.625,-5.166 -86.375,-39.708c-12.708,-34.5 5.292,-72.75 40.292,-85.375c34.916,-12.542 73.625,5.25 86.375,39.792c12.666,34.5 -5.375,72.75 -40.292,85.291Z"
       style="fill:#fcbe1c;fill-rule:nonzero;"
       id="path18998" /><path
       d="M132.333,376.042c-33.458,12 -70.375,-4.917 -82.541,-37.959c-12.125,-33 5.041,-69.5 38.5,-81.583c33.375,-12 70.333,5 82.583,38c12.083,33 -5.167,69.583 -38.542,81.542Z"
       style="fill:#fbbb1d;fill-rule:nonzero;"
       id="path19000" /><path
       d="M131.333,373.292c-31.916,11.458 -67.125,-4.709 -78.708,-36.209c-11.583,-31.458 4.833,-66.291 36.708,-77.791c31.834,-11.417 67.084,4.75 78.75,36.25c11.5,31.458 -4.916,66.291 -36.75,77.75Z"
       style="fill:#fbb91e;fill-rule:nonzero;"
       id="path19002" /><path
       d="M130.292,370.5c-30.375,10.875 -63.834,-4.458 -74.875,-34.458c-11,-29.917 4.583,-63.084 34.916,-74.042c30.292,-10.875 63.834,4.542 74.917,34.5c10.958,29.958 -4.667,63.125 -34.958,74Z"
       style="fill:#fbb71e;fill-rule:nonzero;"
       id="path19004" /><path
       d="M129.292,367.75c-28.792,10.333 -60.584,-4.25 -71.042,-32.667c-10.458,-28.416 4.333,-59.833 33.125,-70.25c28.708,-10.333 60.542,4.292 71.083,32.709c10.417,28.416 -4.458,59.875 -33.166,70.208Z"
       style="fill:#fbb51f;fill-rule:nonzero;"
       id="path19006" /><path
       d="M128.25,364.958c-27.25,9.792 -57.333,-4 -67.208,-30.916c-9.875,-26.875 4.125,-56.625 31.333,-66.459c27.167,-9.75 57.292,4.084 67.25,30.959c9.875,26.875 -4.167,56.666 -31.375,66.416Z"
       style="fill:#fab220;fill-rule:nonzero;"
       id="path19008" /><path
       d="M127.25,362.208c-25.708,9.209 -54.042,-3.791 -63.417,-29.166c-9.333,-25.334 3.875,-53.417 29.584,-62.667c25.625,-9.208 54.041,3.833 63.416,29.208c9.292,25.334 -3.958,53.375 -29.583,62.625Z"
       style="fill:#fab020;fill-rule:nonzero;"
       id="path19010" /><path
       d="M126.208,359.417c-24.166,8.666 -50.791,-3.542 -59.583,-27.417c-8.75,-23.792 3.625,-50.167 27.792,-58.875c24.083,-8.667 50.791,3.583 59.583,27.417c8.75,23.833 -3.708,50.208 -27.792,58.875Z"
       style="fill:#faae21;fill-rule:nonzero;"
       id="path19012" /><path
       d="M125.208,356.667c-22.583,8.083 -47.541,-3.334 -55.75,-25.625c-8.208,-22.292 3.417,-46.959 26,-55.084c22.542,-8.083 47.5,3.375 55.75,25.667c8.167,22.25 -3.458,46.917 -26,55.042Z"
       style="fill:#faac22;fill-rule:nonzero;"
       id="path19014" /><path
       d="M124.167,353.875c-21.042,7.542 -44.25,-3.125 -51.917,-23.875c-7.625,-20.75 3.167,-43.708 24.208,-51.333c21,-7.542 44.25,3.125 51.917,23.916c7.625,20.75 -3.208,43.75 -24.208,51.292Z"
       style="fill:#f9a922;fill-rule:nonzero;"
       id="path19016" /><path
       d="M123.125,351.083c-19.5,7 -41,-2.875 -48.083,-22.125c-7.084,-19.208 2.958,-40.5 22.416,-47.541c19.459,-7 41,2.916 48.084,22.125c7.083,19.291 -2.959,40.583 -22.417,47.541Z"
       style="fill:#f9a723;fill-rule:nonzero;"
       id="path19018" /><path
       d="M122.125,348.333c-17.917,6.417 -37.75,-2.666 -44.25,-20.375c-6.5,-17.666 2.708,-37.291 20.625,-43.75c17.875,-6.416 37.708,2.667 44.292,20.375c6.5,17.709 -2.75,37.292 -20.667,43.75Z"
       style="fill:#f9a524;fill-rule:nonzero;"
       id="path19020" /><path
       d="M121.083,345.542c-16.375,5.875 -34.458,-2.417 -40.416,-18.584c-5.959,-16.166 2.458,-34.041 18.833,-39.958c16.333,-5.875 34.458,2.417 40.458,18.625c5.959,16.167 -2.5,34.042 -18.875,39.917Z"
       style="fill:#f9a324;fill-rule:nonzero;"
       id="path19022" /><path
       d="M120.083,342.792c-14.833,5.291 -31.208,-2.209 -36.583,-16.834c-5.375,-14.625 2.25,-30.833 17.083,-36.166c14.792,-5.334 31.209,2.208 36.625,16.833c5.334,14.625 -2.333,30.833 -17.125,36.167Z"
       style="fill:#f8a025;fill-rule:nonzero;"
       id="path19024" /><path
       d="M119.042,340c-13.292,4.75 -27.959,-1.958 -32.792,-15.083c-4.833,-13.084 2,-27.584 15.292,-32.375c13.25,-4.75 27.916,1.958 32.791,15.083c4.834,13.125 -2,27.625 -15.291,32.375Z"
       style="fill:#f89e26;fill-rule:nonzero;"
       id="path19026" /><path
       d="M118.042,337.25c-11.709,4.208 -24.667,-1.75 -28.959,-13.333c-4.25,-11.542 1.792,-24.375 13.5,-28.584c11.709,-4.208 24.667,1.75 28.959,13.334c4.25,11.541 -1.792,24.375 -13.5,28.583Z"
       style="fill:#f89c26;fill-rule:nonzero;"
       id="path19028" /><path
       d="M117,334.458c-10.167,3.625 -21.417,-1.5 -25.125,-11.541c-3.708,-10.042 1.542,-21.167 11.708,-24.834c10.167,-3.666 21.417,1.5 25.125,11.542c3.709,10.083 -1.541,21.167 -11.708,24.833Z"
       style="fill:#f89a27;fill-rule:nonzero;"
       id="path19030" /><path
       d="M116,331.708c-8.625,3.084 -18.167,-1.291 -21.292,-9.791c-3.125,-8.5 1.292,-17.917 9.917,-21.042c8.625,-3.083 18.167,1.292 21.292,9.792c3.125,8.5 -1.292,17.916 -9.917,21.041Z"
       style="fill:#f79728;fill-rule:nonzero;"
       id="path19032" /><path
       d="M114.958,328.917c-7.041,2.541 -14.875,-1.042 -17.458,-8.042c-2.583,-6.958 1.083,-14.708 8.125,-17.25c7.083,-2.542 14.875,1.042 17.458,8.042c2.584,7 -1.041,14.708 -8.125,17.25Z"
       style="fill:#f79528;fill-rule:nonzero;"
       id="path19034" /><path
       d="M113.958,326.167c-5.5,1.958 -11.625,-0.834 -13.625,-6.292c-2,-5.417 0.834,-11.5 6.375,-13.458c5.5,-1.959 11.625,0.791 13.625,6.25c2,5.458 -0.875,11.5 -6.375,13.5Z"
       style="fill:#f79329;fill-rule:nonzero;"
       id="path19036" /></g><g
     id="g19042"><path
       d="M124.833,250.146c-3.214,5.307 -10.211,7.052 -15.541,3.875c-5.318,-3.159 -7.119,-10.117 -4,-15.458c0.75,-1.292 19.166,-31.751 59.875,-31.751c40.75,0 59.166,30.459 59.958,31.75c1.012,1.74 1.545,3.717 1.545,5.73c-0,6.245 -5.133,11.386 -11.378,11.395c-3.834,0 -7.625,-1.958 -9.75,-5.5c-0.542,-0.916 -13,-20.666 -40.375,-20.666c-27.375,-0.042 -39.75,19.75 -40.334,20.625Zm300.167,3.917c-1.792,1.083 -3.792,1.583 -5.708,1.583c-3.917,-0 -7.709,-2.042 -9.834,-5.583c-0.458,-0.834 -12.833,-20.584 -40.25,-20.584c-27.875,0 -40.25,20.375 -40.375,20.584c-2.065,3.343 -5.726,5.385 -9.656,5.385c-6.226,-0 -11.35,-5.124 -11.35,-11.35c0,-1.954 0.505,-3.875 1.465,-5.577c0.75,-1.292 19.166,-31.75 59.916,-31.75c40.709,-0 59.084,30.458 59.834,31.75c3.166,5.416 1.333,12.416 -4.042,15.541Z"
       style="fill:#2f2f2f;fill-rule:nonzero;"
       id="path19040" /></g><path
     d="m 296.62481,406.79559 c 2.38038,1.19504 3.6446,-1.43415 3.6446,-1.43415 0,0 21.58593,-42.43617 23.18502,-44.51397 2.25153,-2.93264 7.42398,-8.01564 15.43236,-3.50073 3.324,1.8726 9.23636,6.49068 4.25786,18.20695 -1.06717,2.52397 -34.77296,68.34125 -36.81508,71.9511 0,0 -16.10717,28.58298 -27.31353,40.86507 -3.11237,3.42045 -6.65883,7.09167 -11.131,10.25649 -4.44694,3.15468 -9.70871,5.9703 -15.61545,7.71877 -5.87575,1.81038 -12.33659,2.4674 -18.75289,2.06451 -6.4071,-0.42228 -12.73224,-1.94491 -18.67984,-4.09057 -1.47588,-0.55609 -2.95258,-1.11531 -4.38702,-1.75692 l -4.0973,-1.72798 c -2.80719,-1.23632 -5.55813,-2.59765 -8.24457,-4.07861 -5.22308,-2.83882 -10.21678,-6.08251 -14.93398,-9.70053 -4.58791,-3.5495 -8.39164,-7.72439 -12.28662,-11.39612 -6.72081,-6.33329 -11.52394,-15.46411 -14.45471,-22.71398 -6.58943,-16.33466 -4.34441,-35.60742 -4.34441,-35.60742 l 1.60038,-6.70894 c 6.66912,-19.45676 25.64335,-54.91639 25.64335,-54.91639 5.87899,-12.3627 15.21519,-14.14878 19.62603,-12.60631 12.70486,4.43723 12.48021,15.10808 7.28766,26.1171 l -17.82221,34.17828 c -0.48122,3.31086 4.19457,5.55456 6.08735,2.80937 5.92232,-8.64261 17.23854,-30.95582 17.23854,-30.95582 5.29709,-9.2253 34.28815,-64.01357 36.31333,-67.42436 4.05809,-6.84646 10.34051,-11.61704 16.87699,-9.25193 6.67134,2.41016 10.05551,8.19203 6.7593,16.56403 -0.89569,2.26656 -29.82363,58.96212 -29.82363,58.96212 -1.7004,3.29246 2.26088,6.05495 4.22153,2.77309 0,0 36.19054,-69.81978 37.80381,-73.06773 3.62845,-7.36909 11.83576,-11.17189 18.32955,-7.91063 6.34373,3.18475 8.48087,10.8731 4.81827,18.46871 -1.17417,2.41223 -26.51681,52.06746 -36.57785,72.29605 -0.68169,1.35242 -1.02065,2.99783 0.84221,3.93317 0.0124,0.007 1.96115,1.16951 3.26686,-1.42175 2.74064,-5.44296 30.46154,-58.84718 32.02864,-61.75545 3.58542,-6.67329 9.71214,-11.13063 16.69948,-7.72759 6.3878,3.10273 9.56302,10.88256 5.44436,18.2519 l -33.35304,65.39882 c 0,0 -1.00868,2.3315 1.22565,3.45235 z"
     style="fill:none;fill-rule:nonzero;stroke:#2f2f2f;stroke-width:44.031;stroke-dasharray:none;stroke-opacity:1"
     id="path19169" /><path
     id="path19044"
     style="fill:#fac036;fill-rule:nonzero;stroke:none;stroke-width:12.5px"
     d="m 258.95245,300.37683 c -3.9081,1.33815 -6.76365,4.62166 -8.89729,8.02722 -2.87761,5.06623 -5.55273,10.24595 -8.32287,15.37165 -9.02718,16.83622 -17.94813,33.72628 -27.12764,50.47906 -2.16986,3.86131 -4.08013,7.86145 -6.20097,11.75023 -3.71722,6.95525 -7.4366,13.92584 -11.7189,20.55457 -0.81578,1.48849 -2.2478,2.72534 -3.99629,2.85286 -3.30159,0.38379 -6.64349,-2.60831 -6.27669,-5.99172 0.0551,-1.07212 0.85737,-1.92343 1.2561,-2.89429 5.62588,-10.81199 11.29148,-21.60459 16.89256,-32.42869 1.90166,-4.16686 3.46069,-8.75592 2.88899,-13.39718 -0.36192,-3.1217 -2.24,-5.95061 -4.87571,-7.63039 -1.74297,-1.09792 -3.6493,-2.0788 -5.70626,-2.38428 -4.30489,-0.37725 -8.37454,1.99597 -11.21547,5.06548 -2.17383,2.2795 -3.67445,5.07289 -5.06712,7.86936 -5.71905,10.84151 -11.26313,21.88813 -16.43252,33.04324 -3.10321,6.8026 -6.17559,13.64226 -8.59019,20.72374 -0.49557,2.23136 -1.13122,4.4393 -1.53738,6.6856 -0.68454,8.54676 -0.24157,17.22074 1.63097,25.59881 1.5118,6.81962 4.41793,13.25583 7.90652,19.27907 2.65517,4.54073 5.8821,8.77049 9.79334,12.3043 4.29395,4.1855 8.46655,8.55588 13.41873,11.98518 7.4755,5.41957 15.61224,9.92898 24.18294,13.36619 9.59805,4.17431 20.15031,6.63761 30.65464,5.73287 0.93634,-0.0815 1.98081,-0.19175 2.77689,-0.30972 7.39142,-1.00407 14.49476,-3.80455 20.70466,-7.91699 0.9112,-0.6054 2.02565,-1.37341 2.97103,-2.10376 1.06682,-0.81002 2.10775,-1.67543 3.03471,-2.50587 5.24117,-4.71041 9.79836,-10.13244 13.87099,-15.87163 7.1132,-9.99702 13.51307,-20.48317 19.62231,-31.11721 6.50908,-12.37676 12.84124,-24.84583 19.23057,-37.28492 5.78873,-11.35871 11.63775,-22.68772 17.31065,-34.10472 1.42489,-3.2327 2.50989,-6.92277 1.56509,-10.44217 -0.89532,-3.31821 -3.9478,-5.51265 -7.04369,-6.61095 -2.57426,-0.97274 -5.58921,-0.53323 -7.76616,1.15506 -1.67241,1.21882 -3.02774,2.84339 -3.92217,4.70967 -5.40282,9.99976 -10.53472,20.12743 -15.73183,30.22616 -2.16067,4.17571 -4.24316,8.38544 -6.43536,12.5438 -1.04972,1.80772 -3.34004,2.9241 -5.37369,2.1685 -2.01124,-0.60219 -3.50161,-2.64512 -3.23309,-4.76524 0.133,-1.74025 1.29386,-3.14849 1.96851,-4.70319 10.81044,-21.21466 21.65015,-42.41616 32.44247,-63.63894 1.60015,-3.49753 1.26878,-7.84889 -1.10394,-10.92207 -2.10356,-2.79003 -5.6728,-4.77664 -9.23082,-4.2164 -3.58473,0.63283 -6.28153,3.47259 -8.1411,6.43195 -1.92292,3.34436 -3.60257,6.82441 -5.41795,10.22828 -9.22177,17.72903 -18.42151,35.46953 -27.59147,53.22491 -0.92735,1.76417 -3.10777,2.83204 -5.0396,2.14784 -1.89021,-0.5754 -3.3877,-2.45433 -3.13249,-4.48012 0.21829,-2.02889 1.50329,-3.7163 2.30174,-5.54355 11.56936,-23.09334 23.33483,-46.08802 34.99535,-69.13519 1.83002,-3.70991 2.32923,-8.39243 0.1445,-12.0664 -1.97261,-3.41859 -6.19011,-5.3761 -10.06876,-4.52706 -4.46042,0.86185 -8.07122,4.30353 -9.91743,8.35586 -12.47484,24.23144 -25.04791,48.41124 -37.57303,72.61749 -0.97202,1.79868 -3.18216,2.95043 -5.18914,2.28416 -2.43834,-0.71619 -3.76775,-3.62041 -2.947,-5.98009 0.75647,-1.94533 1.8638,-3.73935 2.76198,-5.62324 8.97283,-17.65978 18.02011,-35.28253 26.84337,-53.01771 1.48368,-2.9893 2.32697,-6.63116 1.04291,-9.84057 -1.26627,-3.06359 -4.40217,-4.97325 -7.54279,-5.63137 -1.28401,-0.2167 -2.60798,-0.0917 -3.84571,0.30252 z" /></svg>
