<?xml version="1.0" encoding="UTF-8" standalone="no"?>
<svg
   width="128"
   height="128"
   version="1.1"
   id="svg5"
   sodipodi:docname="emoji_u1f625.svg"
   inkscape:version="1.3 (0e150ed6c4, 2023-07-21)"
   xmlns:inkscape="http://www.inkscape.org/namespaces/inkscape"
   xmlns:sodipodi="http://sodipodi.sourceforge.net/DTD/sodipodi-0.dtd"
   xmlns="http://www.w3.org/2000/svg"
   xmlns:svg="http://www.w3.org/2000/svg">
  <defs
     id="defs5" />
  <sodipodi:namedview
     id="namedview5"
     pagecolor="#ffffff"
     bordercolor="#000000"
     borderopacity="0.25"
     inkscape:showpageshadow="2"
     inkscape:pageopacity="0.0"
     inkscape:pagecheckerboard="0"
     inkscape:deskcolor="#d1d1d1"
     inkscape:zoom="8.515625"
     inkscape:cx="64"
     inkscape:cy="64"
     inkscape:current-layer="svg5" />
  <g
     id="g5"
     transform="translate(0.00132218,-0.00195383)">&#10;	<g
   id="g2">&#10;		<path
   fill="#fcc21b"
   d="M 124.24,72.86 C 134.79,44.43 119.75,18.46 90.61,13.1 27.96,1.58 -3.75,51.78 0.82,92.17 c 0,13.47 27.84,24.41 62.18,24.41 34.35,0 62.17,-10.94 62.17,-24.41 0,-6.39 -5.24,-7.73 -0.93,-19.31 z"
   id="path1" />
&#10;		<path
   fill="#ffffff"
   d="m 36.06,37.95 c -0.83,3.33 -1.95,6.57 -2.76,9.91 -0.77,3.19 -0.52,6.01 -1.9,9.26 -1.65,3.88 -6.64,5.77 -10.17,3.22 -3.7,-2.69 -3.26,-7.2 -1.53,-10.87 2.86,-6.02 6.28,-9.06 11.7,-12.2 0.61,-0.36 1.27,-0.64 1.95,-0.89 1.49,-0.54 3.24,-0.68 2.71,1.57 z"
   id="path2" />
&#10;	</g>
&#10;	<path
   fill="#2f2f2f"
   d="m 58.98,68.48 c -1.58,-0.41 -2.52,-2.02 -2.11,-3.6 0.4,-1.56 2,-2.5 3.57,-2.12 0.49,0.13 12.02,2.9 19.69,-6.25 1.04,-1.25 2.9,-1.41 4.16,-0.37 1.24,1.05 1.4,2.9 0.35,4.16 -5.24,6.22 -11.74,8.23 -16.9,8.71 -4.81,0.45 -8.45,-0.46 -8.76,-0.53 z"
   id="path3" />
&#10;	<path
   fill="#ed6c30"
   d="m 108.21,94.03 c -0.62,0.82 -1.17,1.52 -1.89,2.13 -2.18,2.18 -5.23,3.05 -8.31,1.85 -2.23,-0.95 -4.16,-2.88 -6.51,-3.94 -2.3,-1.06 -3.08,-1.69 -5.81,-1.33 -6.22,0.96 -10.13,4.73 -15.28,9.99 -4.85,4.85 -12.98,8.96 -18.11,1.95 -5.47,-7.74 0.18,-17.98 5.74,-22.24 11.58,-8.63 30.26,-8.06 38.16,-6.03 7.7,2.04 17.65,8.12 12.01,17.62 z"
   id="path4" />
&#10;	<path
   fill="#2f2f2f"
   d="m 114.88,74.72 c -0.38,1.14 -1.44,1.87 -2.59,1.87 -0.28,0 -0.57,-0.04 -0.86,-0.15 -13.1,-4.33 -12.98,-14.76 -12.96,-15.2 0.03,-1.51 1.21,-2.81 2.79,-2.65 1.49,0.04 2.67,1.28 2.64,2.76 0,0.34 0.14,6.92 9.24,9.92 1.43,0.48 2.21,2.02 1.74,3.45 z"
   id="path5" />
&#10;</g>
</svg>
