<?xml version="1.0" encoding="UTF-8" standalone="no"?>
<svg
   width="128"
   height="128"
   version="1.1"
   id="svg7"
   sodipodi:docname="emoji_u1f910.svg"
   xml:space="preserve"
   inkscape:version="1.3 (0e150ed6c4, 2023-07-21)"
   xmlns:inkscape="http://www.inkscape.org/namespaces/inkscape"
   xmlns:sodipodi="http://sodipodi.sourceforge.net/DTD/sodipodi-0.dtd"
   xmlns="http://www.w3.org/2000/svg"
   xmlns:svg="http://www.w3.org/2000/svg"><defs
     id="defs7" /><sodipodi:namedview
     id="namedview7"
     pagecolor="#ffffff"
     bordercolor="#000000"
     borderopacity="0.25"
     inkscape:showpageshadow="2"
     inkscape:pageopacity="0.0"
     inkscape:pagecheckerboard="0"
     inkscape:deskcolor="#d1d1d1"
     inkscape:zoom="8.515625"
     inkscape:cx="64"
     inkscape:cy="64"
     inkscape:current-layer="svg7" /><g
     id="g6"
     transform="translate(-0.13814508,-0.14910903)">&#10;	<g
   id="g3">&#10;		<g
   id="g2">&#10;			<g
   id="g1">&#10;				<path
   fill="#fcc21b"
   d="M 16.01,32.9 C 35.29,4.02 67.5,-9.15 101.63,8.22 c 22.84,11.63 30.79,39.22 20.86,71.64 -4.09,13.37 6.14,15.64 5.48,22.74 -1.29,13.88 -28.49,25.27 -63.64,25.27 C 29.17,127.87 1.61,116.51 0.67,102.6 -1.23,74.54 3.71,51.35 16.01,32.9"
   id="path1" />&#10;			</g>&#10;		</g>&#10;	</g>&#10;	<path
   fill="#2f2f2f"
   d="m 88.97,63.81 -5.16,1.91 c -2.31,0.88 -3.24,4.57 -2.07,8.31 l 10.22,32.53 c 1.23,3.9 5.48,5.92 9.5,4.51 l 8.96,-3.17 c 4.06,-1.44 5.68,-5.56 3.59,-9.2 L 96.74,68.5 C 94.78,65.03 91.3,62.95 88.97,63.81 Z m 18.61,41.05 -6.32,2.24 c -2.06,0.73 -4.31,-0.33 -5.05,-2.35 -0.73,-2.03 0.23,-4.21 2.13,-4.89 l 5.88,-2.11 c 1.91,-0.68 4.28,0.33 5.28,2.26 1,1.95 0.14,4.12 -1.92,4.85 z"
   id="path3" />&#10;	<path
   fill="#2f2f2f"
   d="m 43.83,32.05 c -5.43,-1.47 -6.38,-7.72 -3.86,-12.17 1.99,-3.11 5.31,-4.7 8.11,-4.34 2.94,0.4 5.75,2.94 5.88,6.77 0.21,5.69 -4.11,11.26 -10.13,9.74 z"
   id="path4" />&#10;	<path
   fill="#2f2f2f"
   d="m 74.33,36.68 c 3.94,4.42 10.37,2.38 13.45,-2.1 2.06,-3.35 2.05,-7.23 0.39,-9.71 -1.76,-2.57 -5.51,-4.02 -9.24,-2.34 -5.54,2.51 -8.87,9.2 -4.6,14.15 z"
   id="path5" />&#10;	<path
   fill="#2f2f2f"
   d="M 89.09,73.4 C 88.34,73.31 87.61,72.9 87.14,72.22 L 79.36,60.79 69.28,63.82 c -1.02,0.32 -2.14,-0.08 -2.78,-0.96 l -6.41,-8.72 -12.2,4.1 c -1.02,0.34 -2.14,-0.03 -2.77,-0.92 l -4.82,-6.74 -8.89,4.04 c -0.96,0.44 -2.09,0.18 -2.79,-0.64 l -4.35,-5.14 -5.62,2.22 c -1.21,0.48 -2.58,-0.14 -3.04,-1.38 -0.47,-1.25 0.12,-2.63 1.33,-3.12 l 7.15,-2.84 c 0.93,-0.37 1.99,-0.09 2.65,0.68 l 4.29,5.03 9.02,-4.12 c 1.04,-0.48 2.28,-0.14 2.96,0.8 L 47.95,53 60.11,48.89 c 1.03,-0.35 2.16,0.02 2.81,0.89 l 6.46,8.72 10.15,-3.07 c 1.07,-0.33 2.24,0.1 2.88,1.04 l 8.92,13.01 c 0.82,1.2 0.54,2.77 -0.62,3.53 -0.49,0.33 -1.06,0.44 -1.62,0.39 z"
   id="path6" />&#10;</g></svg>
