<?xml version="1.0" encoding="UTF-8" standalone="no"?>
<svg
   width="128"
   height="128"
   version="1.1"
   id="svg3"
   sodipodi:docname="emoji_u1f9e4.svg"
   inkscape:version="1.3 (0e150ed6c4, 2023-07-21)"
   xmlns:inkscape="http://www.inkscape.org/namespaces/inkscape"
   xmlns:sodipodi="http://sodipodi.sourceforge.net/DTD/sodipodi-0.dtd"
   xmlns="http://www.w3.org/2000/svg"
   xmlns:svg="http://www.w3.org/2000/svg">
  <defs
     id="defs3" />
  <sodipodi:namedview
     id="namedview3"
     pagecolor="#ffffff"
     bordercolor="#000000"
     borderopacity="0.25"
     inkscape:showpageshadow="2"
     inkscape:pageopacity="0.0"
     inkscape:pagecheckerboard="0"
     inkscape:deskcolor="#d1d1d1"
     inkscape:zoom="2.867097"
     inkscape:cx="47.260347"
     inkscape:cy="66.443513"
     inkscape:window-width="1366"
     inkscape:window-height="697"
     inkscape:window-x="-8"
     inkscape:window-y="-8"
     inkscape:window-maximized="1"
     inkscape:current-layer="svg3" />
  <path
     fill="none"
     d="M.03 0h127.94v128H.03z"
     id="path2" />
  <g
     id="g3"
     transform="translate(1.3875748,-7.6110801)">
    <g
       id="g37"
       transform="matrix(-0.88372564,0,0,0.88372564,123.5758,34.2563)"
       style="stroke-width:1.13157">
      <path
         d="m 65.802161,95.248642 c 0,0 -0.69,2.94 -18.18,7.269998 -17.49,4.33 -19.72,2.11 -19.72,2.11 L 22.74,72.65 55.58,64.52 Z"
         fill="#37474f"
         id="path34"
         style="fill:#fcc21b;fill-opacity:1;stroke-width:1.13157"
         sodipodi:nodetypes="cscccc" />
      <path
         id="path35"
         style="fill:#f79329;fill-opacity:1;stroke-width:1.13157"
         d="m 55.580078,64.519531 -32.839844,8.13086 1.807171,11.196149 c 0,0 6.394192,3.459174 19.113056,-0.179569 12.718863,-3.638744 15.213896,-9.243869 15.213896,-9.243869 z"
         sodipodi:nodetypes="ccczcc" />
      <path
         id="path36"
         style="fill:#fcc21b;stroke-width:1.13157"
         d="m 26.234575,5.5763318 c -1.695033,0.064902 -3.449306,0.9264804 -4.24773,2.4755239 -0.821505,1.5772192 -0.714884,3.4351923 -0.444157,5.1389663 0.401385,2.343498 1.199227,4.592009 1.852202,6.871827 1.645366,5.485871 3.27811,10.954 4.759721,16.487112 0.103611,0.45018 0.282424,0.9513 0.3496,1.418683 -0.09443,0.326783 -0.329958,0.780605 -0.745283,0.646395 -0.227482,-0.05806 -0.500338,-0.12499 -0.531699,-0.399348 -2.460732,-6.060223 -4.706787,-12.204919 -7.097166,-18.292457 -0.754031,-1.879857 -1.588968,-3.803275 -3.027203,-5.2701 -0.919565,-0.945601 -2.25285,-1.528782 -3.58214,-1.352655 -1.507341,0.180936 -3.061152,0.976408 -3.7190102,2.40772 -0.6853058,1.486563 -0.4421673,3.192902 -0.04908,4.724376 0.4929522,1.851825 1.2795162,3.606531 1.9316652,5.404575 2.238632,5.864636 4.463362,11.732673 6.771262,17.57031 -0.01,0.439005 0.02639,1.012028 -0.367554,1.301085 -0.223152,0.10504 -0.482181,0.06104 -0.713631,0.0103 C 15.380236,40.635629 13.426185,36.530417 11.288054,32.519912 10.442772,31.005724 9.5672765,29.423905 8.1672822,28.348484 7.246025,27.632471 5.9736012,27.410954 4.8725501,27.809822 c -1.4060516,0.474945 -2.7566736,1.487993 -3.1721138,2.971733 -0.4379754,1.562457 0.036886,3.19284 0.5827111,4.664447 0.7499862,1.944788 1.6732505,3.816605 2.5090013,5.725087 2.1376843,4.76202 4.2309523,9.49543 6.1990373,14.326022 0.921072,2.285909 1.825838,4.585047 2.561298,6.95094 1.595533,4.789538 4.06843,9.337541 7.521432,13.044448 2.003708,2.109235 4.369323,3.997726 7.167386,4.912278 1.487179,0.475386 3.064294,0.54542 4.612826,0.61174 5.937284,0.142462 11.886897,-1.463818 17.008844,-4.453953 2.183106,-1.286752 4.233037,-2.818812 6.02016,-4.618401 1.151966,-1.325377 1.923151,-2.92401 2.71788,-4.476113 0.662263,-1.324093 1.300649,-2.662537 2.042076,-3.944641 1.259156,-2.564304 2.43558,-5.172099 3.807657,-7.679211 0.341398,-0.602342 0.892429,-1.048049 1.336063,-1.572344 1.333112,-1.456092 2.751533,-2.829464 4.176581,-4.194314 1.446717,-1.469836 2.995537,-2.982307 3.677013,-4.981499 0.474819,-1.300816 0.400835,-2.888563 -0.535855,-3.970585 -0.82898,-0.99868 -2.154034,-1.407585 -3.413751,-1.447138 -2.232267,-0.128129 -4.562318,0.12317 -6.564344,1.180856 -0.935001,0.492083 -1.721916,1.239226 -2.270147,2.141723 -1.611093,2.337078 -3.183061,4.70087 -4.770822,7.05395 -0.470477,0.300056 -1.114279,0.276296 -1.524661,-0.1183 -0.923253,-0.827197 -1.37663,-2.029486 -1.805859,-3.160779 -0.139836,-0.39587 -0.284958,-0.849691 -0.387227,-1.196155 C 51.577937,42.869574 51.143254,40.07845 50.707227,37.304262 49.707948,30.083069 48.695635,22.873508 47.788699,15.639365 47.628546,14.155243 47.492321,12.637561 46.884352,11.254698 46.269262,9.7544311 45.069322,8.399644 43.456073,7.9831985 42.098158,7.6155839 40.518177,7.8399792 39.474081,8.8363371 38.200846,10.020845 37.651698,11.773357 37.44232,13.455304 c -0.191769,1.418543 0.09726,2.835749 0.199789,4.248935 0.58136,6.021153 1.170679,12.043995 2.004344,18.035849 0.01442,0.168715 0.04796,0.423387 -0.197759,0.420641 C 39.138326,36.121099 38.85287,35.901151 38.821368,35.575493 37.419625,31.209869 36.220457,26.7824 34.988604,22.366651 34.028741,18.923246 33.123204,15.464517 32.153857,12.02399 31.567831,10.164868 30.804559,8.269247 29.385078,6.8828925 28.549565,6.0677993 27.413997,5.5446674 26.234575,5.5763318 Z" />
      <path
         id="path37"
         style="fill:#f79329;fill-opacity:1;fill-rule:nonzero;stroke:none;stroke-width:3;stroke-linecap:round;stroke-dasharray:none"
         d="m 50.680357,80.934261 a 1.3642372,1.3642372 0 0 0 -1.041114,1.898151 c 0.186132,0.510651 0.673297,1.895396 1.116673,3.062957 0.598665,1.576488 1.82057,4.608516 2.18473,5.530084 a 1.8024578,1.8024578 0 0 0 3.299636,-1.451406 c -0.433314,-0.891146 -1.84091,-3.840816 -2.598574,-5.347354 -0.561132,-1.115758 -1.253224,-2.411274 -1.503906,-2.893526 a 1.3642372,1.3642372 0 0 0 -1.457445,-0.798906 z m -5.733146,2.458797 A 1.3642372,1.3642372 0 0 0 43.745781,85.193 c 0.141072,0.524889 0.505578,1.947604 0.845867,3.149263 0.459472,1.622528 1.414975,4.749778 1.697712,5.699493 a 1.8024578,1.8024578 0 1 0 3.412548,-1.16064 c -0.354275,-0.925414 -1.501484,-3.986468 -2.125428,-5.553122 -0.462099,-1.16028 -1.038898,-2.510089 -1.246745,-3.012292 a 1.3642372,1.3642372 0 0 0 -1.382524,-0.922644 z m -6.172461,1.606088 a 1.3642372,1.3642372 0 0 0 -1.360942,1.682121 c 0.09225,0.535629 0.323814,1.985582 0.552242,3.213427 0.308438,1.657884 0.971131,4.858794 1.165404,5.830472 a 1.8025751,1.8025751 0 0 0 3.505608,-0.841318 C 42.369321,93.929795 41.509142,90.77673 41.031796,89.15937 40.678268,87.961539 40.227463,86.563668 40.066642,86.04449 A 1.3642372,1.3642372 0 0 0 38.77475,84.999146 Z m -6.797108,0.695765 a 1.3642372,1.3642372 0 0 0 -1.416443,1.636461 c 0.07479,0.538346 0.261083,1.994612 0.449478,3.229233 0.254377,1.667034 0.811162,4.887704 0.973745,5.865184 a 1.8028506,1.8028506 0 0 0 3.531962,-0.725476 C 35.2798,94.73806 34.520528,91.557892 34.096013,89.92587 33.78161,88.71718 33.376682,87.305667 33.232825,86.781535 a 1.3642372,1.3642372 0 0 0 -1.255183,-1.086624 z"
         transform="matrix(1.1315729,0,0,1.1315729,-3.5037578,-6.6403099)" />
    </g>
    <path
       d="m 59.800107,95.246923 c 0,0 -0.609771,2.598153 -16.066132,6.424687 -15.456361,3.82653 -17.42707,1.86466 -17.42707,1.86466 l -4.561934,-28.260346 29.02155,-7.18469 z"
       fill="#37474f"
       id="path6"
       style="fill:#fcc21b;fill-opacity:1;stroke-width:0.999997"
       sodipodi:nodetypes="cscccc" />
    <path
       id="path11"
       style="fill:#f79329;fill-opacity:1;stroke-width:0.999997"
       d="m 50.76659,68.09082 -29.021412,7.185449 1.597043,9.894324 c 0,0 5.650712,3.056961 16.890698,-0.15869 11.239985,-3.215651 13.44491,-8.169044 13.44491,-8.169044 z"
       sodipodi:nodetypes="ccczcc" />
    <path
       id="path1-0"
       style="fill:#fcc21b;stroke-width:0.999997"
       d="m 24.833217,16.001203 c -1.497944,0.05736 -3.04824,0.818755 -3.753828,2.187684 -0.725985,1.393829 -0.631761,3.035768 -0.392513,4.541436 0.354714,2.07101 1.059788,4.058077 1.636838,6.07281 1.454053,4.848005 2.89695,9.680331 4.206288,14.570084 0.09156,0.397835 0.249585,0.840688 0.30895,1.253726 -0.08345,0.288787 -0.291592,0.689841 -0.658625,0.571236 -0.201032,-0.05131 -0.442162,-0.110457 -0.469876,-0.352914 -2.174612,-5.355574 -4.159509,-10.7858 -6.271948,-16.165513 -0.666356,-1.661278 -1.404212,-3.361052 -2.675217,-4.657323 -0.812643,-0.835652 -1.990901,-1.351024 -3.165629,-1.195376 -1.332076,0.159898 -2.705218,0.862877 -3.286584,2.127764 -0.6056229,1.313714 -0.3907549,2.82165 -0.04337,4.175052 0.435635,1.636506 1.130742,3.187184 1.707062,4.776162 1.978337,5.182729 3.944388,10.368464 5.983938,15.527333 -0.0088,0.38796 0.02332,0.894356 -0.324817,1.149803 -0.197205,0.09283 -0.426115,0.05394 -0.630654,0.0091 C 15.240959,46.984003 13.514114,43.356122 11.624593,39.811936 10.877596,38.473809 10.103898,37.075915 8.8666871,36.125538 8.0525485,35.492779 6.9280749,35.297019 5.9550479,35.649509 4.712484,36.06923 3.5189047,36.964486 3.1517696,38.275705 c -0.3870501,1.380784 0.032597,2.821595 0.5149567,4.122092 0.662782,1.718659 1.4786944,3.372831 2.2172688,5.059406 1.8891264,4.208319 3.739001,8.391355 5.4782479,12.660273 0.813975,2.020116 1.61354,4.051923 2.263485,6.142724 1.410013,4.232637 3.595376,8.251824 6.646882,11.527713 1.770728,1.863985 3.861283,3.532893 6.334003,4.341106 1.314258,0.420111 2.707995,0.482001 4.076473,0.54061 5.24693,0.125897 10.504755,-1.293613 15.031151,-3.936072 1.929267,-1.137136 3.740843,-2.491057 5.32017,-4.0814 1.018022,-1.171269 1.699538,-2.584022 2.40186,-3.955656 0.585259,-1.170134 1.149417,-2.352952 1.804635,-3.48598 1.112748,-2.266141 2.152385,-4.570716 3.364924,-6.786316 0.301702,-0.532305 0.788663,-0.926187 1.180713,-1.38952 1.178106,-1.286786 2.431601,-2.50047 3.690952,-3.706623 1.278501,-1.298932 2.647233,-2.635541 3.249471,-4.402279 0.419609,-1.149564 0.354228,-2.552697 -0.473549,-3.508907 -0.732591,-0.882559 -1.903575,-1.243919 -3.016819,-1.278873 -1.972712,-0.113231 -4.031838,0.108848 -5.80108,1.043552 -0.826284,0.434867 -1.521701,1.095136 -2.006187,1.892696 -1.423764,2.065336 -2.812952,4.154279 -4.216097,6.233757 -0.415773,0.265167 -0.984717,0.244169 -1.347382,-0.104545 -0.815903,-0.731015 -1.216564,-1.793509 -1.595884,-2.793262 -0.123577,-0.34984 -0.251825,-0.750893 -0.342203,-1.057073 -0.697965,-2.39493 -1.082106,-4.861518 -1.467434,-7.313139 -0.883089,-6.381554 -1.777695,-12.752828 -2.579178,-19.145825 -0.141531,-1.311557 -0.261917,-2.652772 -0.799195,-3.874843 -0.543571,-1.325824 -1.603988,-2.523084 -3.029658,-2.891108 -1.200024,-0.32487 -2.596294,-0.126567 -3.518988,0.75394 -1.125191,1.04678 -1.610487,2.59552 -1.795519,4.0819 -0.169472,1.253603 0.08595,2.506024 0.176558,3.754893 0.513763,5.321047 1.034559,10.643587 1.77129,15.938742 0.01274,0.149098 0.04238,0.374158 -0.174764,0.371731 -0.274281,-0.03502 -0.526545,-0.229396 -0.554384,-0.517188 -1.238757,-3.858014 -2.298492,-7.770682 -3.387112,-11.672992 -0.848256,-3.043026 -1.648502,-6.099593 -2.505139,-9.140075 -0.517886,-1.642954 -1.192409,-3.318163 -2.446841,-4.54332 -0.738364,-0.720318 -1.741895,-1.182623 -2.78418,-1.154641 z" />
    <path
       id="path20"
       style="fill:#f79329;fill-opacity:1;fill-rule:nonzero;stroke:none;stroke-width:3;stroke-linecap:round;stroke-dasharray:none"
       d="m 49.233047,86.139305 a 1.3642372,1.3642372 0 0 0 -1.041114,1.898151 c 0.186132,0.510651 0.673297,1.895396 1.116673,3.062957 0.598665,1.576488 1.82057,4.608516 2.18473,5.530084 a 1.8024578,1.8024578 0 0 0 3.299636,-1.451406 c -0.433314,-0.891146 -1.84091,-3.840816 -2.598574,-5.347354 -0.561132,-1.115758 -1.253224,-2.411274 -1.503906,-2.893526 a 1.3642372,1.3642372 0 0 0 -1.457445,-0.798906 z m -5.733146,2.458797 a 1.3642372,1.3642372 0 0 0 -1.20143,1.799942 c 0.141072,0.524889 0.505578,1.947604 0.845867,3.149263 0.459472,1.622528 1.414975,4.749778 1.697712,5.699493 a 1.8024578,1.8024578 0 1 0 3.412548,-1.16064 C 47.900323,97.160746 46.753114,94.099692 46.12917,92.533038 45.667071,91.372758 45.090272,90.022949 44.882425,89.520746 A 1.3642372,1.3642372 0 0 0 43.499901,88.598102 Z M 37.32744,90.20419 a 1.3642372,1.3642372 0 0 0 -1.360942,1.682121 c 0.09225,0.535629 0.323814,1.985582 0.552242,3.213427 0.308438,1.657884 0.971131,4.858794 1.165404,5.830472 a 1.8025751,1.8025751 0 0 0 3.505608,-0.84132 c -0.267741,-0.954051 -1.12792,-4.107116 -1.605266,-5.724476 -0.353528,-1.197831 -0.804333,-2.595702 -0.965154,-3.11488 A 1.3642372,1.3642372 0 0 0 37.32744,90.20419 Z m -6.797108,0.695765 a 1.3642372,1.3642372 0 0 0 -1.416443,1.636461 c 0.07479,0.538346 0.261083,1.994612 0.449478,3.229233 0.254377,1.667034 0.811162,4.887701 0.973745,5.865181 a 1.8028506,1.8028506 0 0 0 3.531962,-0.72547 C 33.83249,99.943104 33.073218,96.762936 32.648703,95.130914 32.3343,93.922224 31.929372,92.510711 31.785515,91.986579 a 1.3642372,1.3642372 0 0 0 -1.255183,-1.086624 z" />
  </g>
</svg>
