<?xml version="1.0" encoding="UTF-8" standalone="no"?>
<svg
   width="128"
   height="128"
   version="1.1"
   id="svg10"
   sodipodi:docname="emoji_u1f983.svg"
   inkscape:version="1.3 (0e150ed6c4, 2023-07-21)"
   xmlns:inkscape="http://www.inkscape.org/namespaces/inkscape"
   xmlns:sodipodi="http://sodipodi.sourceforge.net/DTD/sodipodi-0.dtd"
   xmlns="http://www.w3.org/2000/svg"
   xmlns:svg="http://www.w3.org/2000/svg">
  <defs
     id="defs10" />
  <sodipodi:namedview
     id="namedview10"
     pagecolor="#ffffff"
     bordercolor="#000000"
     borderopacity="0.25"
     inkscape:showpageshadow="2"
     inkscape:pageopacity="0.0"
     inkscape:pagecheckerboard="0"
     inkscape:deskcolor="#d1d1d1"
     inkscape:zoom="4.0546875"
     inkscape:cx="50.558767"
     inkscape:cy="74.111753"
     inkscape:window-width="1366"
     inkscape:window-height="697"
     inkscape:window-x="-8"
     inkscape:window-y="-8"
     inkscape:window-maximized="1"
     inkscape:current-layer="svg10" />
  <path
     d="M64.93 112.89l1.37 3.14c.17.37-.1.96-.5.96H49.43c-.43 0-.7-.8-.48-1.17l1.95-3.53c.62-1.07 2.1-1.32 2.94-.41l.19.5c.14.15.34.54.56.54h2.6c.26 0 .49-.53.54-.79l.87-9.16c1.25-.22 2.5-.38 3.7-.68l-.95 9.66c-.07.34.2.96.55.96h2.53c.22-.01.41-.22.5-.02z"
     fill="#f79329"
     id="path1" />
  <path
     d="M123.58 40.28c.91 5.89-6.16 9.83-4.62 10.92.6.42 1.78-.19 2.77-.38 1.5-.27 2.77.04 2.77 3.36 0 5.53-4.68 10.82-5.23 11.82-1.05 1.86 2.58-1.16 2.69 2.56.11 3.7-5.94 6.35-7.25 8.58-1.32 2.23 2.08-.41 1.24 3.71-.86 4.12-4.96 5.78-7.07 7.48-2.09 1.7 2.55-.27.85 3.47-1.39 3.06-11.06 2.67-12.37 3.78-.65.56 2.91 1.16 2.38 2.83s-5.13 4.42-10.43 3.4c0 0 .31 2.95-3.51 4.65-3.82 1.7-18.72-3.85-18.72-3.85s-7.14-10.68-8.92-24.03c-1.8-13.42 4.25-30.66 4.25-30.66.08-.84.29-1.81.71-2.95 1.7-4.65 4.13-2.42 4.13-2.42s-1.06-4.22 1.44-7.19c2.49-2.98 4.85-1.51 4.85-1.51s1.31-5.38 3.86-8.12c2.54-2.72 6.21-1.05 6.21-1.05s1.44-5.02 5.28-6.88 5.79.38 6.77 1.13c.98.73 3.97-4.64 9.06-3.4 5.57 1.36 4.49 7.6 5.7 8.72.92.86 4.81-1.59 7.22 2.09 2.95 4.5-.26 7.56.38 9.93.42 1.51 4.82-.82 5.56 4.01z"
     fill="#403732"
     id="path2" />
  <path
     d="M59.89 46.45c4.76.78 8.19 2.24 10.28 3.14 2.46 1.07 5.81 2.55 9.43 5.44 2.25 1.8 5.7 5.02 8.64 10.17.68.68 2.66 3.93.96 11.9-1.7 7.97-3.4 12.92-9.52 18.65-2.88 2.69-7.49 4.85-12.71 6.53-1.17.38-2.39.72-3.63 1.02 0 0-1.54.53-3.67.76-4.28.47-11.18.78-14.43.35-.29-.04-.56-.08-.84-.11-12.43-1.81-23.47-7.45-27.7-19.39-1.73-4.91-1.93-10.74-1.56-15.57 0 0 .64 3.22 3.47 2.88 1.73-.2 2.45-1.24 2.75-2 .12-.34.56-.42.82-.18.75.72 2.11 1.59 3.85.75 1.43-.69 1.84-1.81 1.9-2.72.03-.39.47-.61.79-.38.58.42 1.4.68 2.37 0 1.28-.9.86-2.56.44-3.56-.14-.31.07-.65.41-.69.46-.04 1.1-.29 1.88-1.03 1.62-1.54-1.37-3.66-1.67-3.88.75-1.75 2.34-4.81 5.5-7.49 3.1-2.63 6.17-3.59 8.07-4.16 5.77-1.75 10.69-1 14.17-.43z"
     fill="#403732"
     id="path3" />
  <path
     d="M46.73 115.75c.31.67-.18 1.23-.91 1.23h-28.3c-4.56 0-4.06-.23-3.6-2.44.6-2.89 4.6-4.76 6.62-5.58.72-.3 1.54-.2 2.2.2l6.39 3.58c.38.22.82.17 1.25.17h4.19c.65 0 1.24-.21 1.46-.82l3.65-9.75c.17-.46.64-.68 1.12-.59l1.3.25c.62.11.99.76.77 1.35L40 111c-.37 1.02.38 1.91 1.47 1.91h3.05c.61 0 1.16.45 1.42 1.01l.79 1.83z"
     fill="#f79329"
     id="path4" />
  <path
     d="m 47.14,21.38 c 4.02,7.44 -1.9,13.873719 -2.46,14.693719 -3.56,5.18 -7.15,7.376281 -10.4,13.436281 -2.33,4.31 -2.8,8.77 -2.18,9 0.01,0 0.01,0.01 0.03,0.01 0.3,0.22 3.29,2.34 1.67,3.88 -0.78,0.75 -1.41,0.99 -1.88,1.03 -0.34,0.04 -0.54,0.38 -0.41,0.69 0.42,1.01 0.84,2.67 -0.44,3.56 -0.97,0.68 -1.78,0.42 -2.37,0 -0.31,-0.23 -0.76,0 -0.79,0.38 -0.07,0.91 -0.48,2.03 -1.9,2.72 -1.74,0.84 -3.1,-0.03 -3.85,-0.75 -0.26,-0.24 -0.69,-0.16 -0.82,0.18 -0.3,0.76 -1.02,1.79 -2.75,2 -2.83,0.34 -3.47,-2.88 -3.47,-2.88 0.01,-0.08 0.01,-0.15 0.03,-0.23 1.22,-0.29 2.41,-0.83 3.33,-1.5 2.08,-1.51 2.77,-3.88 4.08,-8.53 1.13,-4.01 2.18,-7.76 2.04,-13.04 -0.09025,-3.575046 -0.710327,-7.116928 -1.84,-10.51 0.11,-0.14 0.16,-0.2 0.16,-0.2 1.03,-3.24 -0.72,-5.28 -0.72,-5.28 -0.14,-0.78 -0.97,-6.21 2.91,-10.81 4.04,-4.8 9.87,-4.69 10.7,-4.66 4.83,0.17 9.24,2.92 11.33,6.81 z"
     fill="#b89278"
     id="path5"
     sodipodi:nodetypes="cccccccccccccccccccccccccc" />
  <path
     d="m 30.185601,22.985981 c 1.462673,0 2.632812,1.424352 2.632812,3.165227 0,1.758459 -1.180974,3.182811 -2.632812,3.182811 -1.462673,0 -2.654481,-1.424352 -2.654481,-3.182811 0.01083,-1.740875 1.202643,-3.165227 2.654481,-3.165227 z"
     fill="#292323"
     id="path6"
     style="stroke-width:1" />
  <path
     d="M15.17 69.11c-1.77.44-3.63.31-4.94-.73-2.72-2.18-1.66-7.21-1.59-7.48 1.59-7.03 9.86-9.83 11.33-15.53.46-1.77.68-3.74.68-3.74.18-1.59.2-3.01.16-4.15.95-.71 1.67-1.56 1.97-1.94.92 2.77 1.73 6.35 1.84 10.51.14 5.28-.91 9.03-2.04 13.04-1.31 4.65-2 7.02-4.08 8.53-.92.66-2.1 1.2-3.33 1.49z"
     fill="#f24338"
     id="path7"
     style="fill:#db4437" />
  <path
     d="m 21.432078,37.421971 c -1.318252,0.821878 -2.956469,1.433018 -4.581886,0.990468 C 15.199177,37.948816 12.101924,36.33667 9.5550107,35.904657 6.5985424,35.398885 2.797369,36.494723 2.797369,36.494723 2.1318437,33.112377 6.0993985,28.771173 10.09255,28.33916 c 3.967555,-0.44255 7.435966,2.465635 8.9078,2.391877 1.855792,-0.0843 4.223527,-1.127448 4.223527,-1.127448 0,0 2.239748,2.149528 0.921496,5.563484 0,0 -0.06399,0.07376 -0.204777,0.210738 -0.371158,0.389866 -1.292654,1.296039 -2.508518,2.04416 z"
     fill="#f79329"
     id="path8"
     style="stroke-width:1" />
  <path
     d="M96.01 74.7c1.08-.75 1.74-2.17 1.93-3.38.09-.55.33-3.28-.15-2.99l-2.51 1.95s-.72.51-.85 0 1.17-1.39 1.87-2.01c.78-.68 1.73-1.72 2.2-3.05.49-1.37.38-3.07.24-3.86A.632.632 0 0 0 97.7 61c-.99.87-2.95 2.39-5.49 3.46-2.38 1-5.69 1.34-7.89 1.19-5.67-.4-15.12-4.88-27.84-4.08-.52.01-10.38.28-14.11 7.31-2.21 4.15-1.29 8.82.7 12.76 1.42 2.81 8.34 8.84 15.87 10.3 4.67.9 11.35 2.37 18.98.74 1.39-.3 4.06-.7 6.18-1.53 1.23-.48 2.11-.74 2.76-1.53.65-.79 1.05-1.27 1.06-1.61.02-.62-4.29.28-4.5-.45s1.92-.75 3.12-.91c.92-.13 3.07-.18 4.27-.66 1.2-.48 2.13-.99 3.28-4.15.13-.35-1.45.88-4.22.89-.66 0-.89-1.12.25-1.29 2-.3 3.62-.57 4.63-1.46 2.18-1.9 2.08-3.92 2.31-4.77.18-.67-1.45 1.07-3.6 1.59-.56.14-.56-.47-.05-.7 1.52-.68 1.52-.65 2.6-1.4z"
     fill="#855c52"
     id="path9" />
  <path
     d="M97.92 89.03a1.359 1.359 0 0 1-.23-2.7c1.63-.28 3.13-.96 3.56-1.61.1-.15.09-.23.07-.31-.29-1.24-.94-1.4-1.07-1.42-.72-.11-1.26-.76-1.19-1.49.07-.72.68-1.26 1.39-1.22 1.01.06 2.88.86 3.51 3.5.2.84.04 1.68-.45 2.43-1.29 1.95-4.43 2.63-5.36 2.8-.07.01-.15.02-.23.02zM103.65 77.88c-.51 0-1-.29-1.23-.79-.32-.68-.02-1.49.66-1.81 1.4-.65 3.48-2.13 3.5-3.22.03-1.07-.56-1.35-.91-1.43-.72-.15-1.21-.86-1.07-1.59.14-.73.8-1.21 1.54-1.09 1.12.18 3.23 1.29 3.16 4.17-.08 3.21-4.57 5.38-5.08 5.62-.18.1-.38.14-.57.14zM105.76 67.53c-.44 0-.87-.21-1.13-.61-.42-.63-.25-1.47.38-1.89.86-.57 3.09-2.52 3.13-4.54.01-.71-.23-.92-.31-.99-.42-.37-1.32-.38-1.61-.34a1.364 1.364 0 0 1-.38-2.7c.23-.03 2.34-.29 3.79.99.57.51 1.25 1.46 1.22 3.08-.08 3.87-4.17 6.63-4.35 6.75-.22.17-.48.25-.74.25zM106.61 55.3c-.44 0-.87-.21-1.14-.61-.41-.63-.24-1.47.38-1.88.47-.32 1.79-1.48 1.6-2.56-.17-.98-.87-1.08-1.31-1.08-.74.06-1.38-.54-1.42-1.28a1.35 1.35 0 0 1 1.25-1.43c1.42-.12 3.72.69 4.17 3.33.53 3.07-2.64 5.21-2.78 5.29-.23.15-.49.22-.75.22zM105.53 45.79c-.36 0-.72-.14-.99-.43-.52-.55-.49-1.41.05-1.92.47-.45 1.38-1.66 1.19-2.49-.16-.7-1.55-.86-1.82-.86-.75-.01-1.35-.63-1.34-1.38.01-.75.6-1.29 1.38-1.34 1.39.02 3.89.67 4.42 2.97.6 2.56-1.71 4.83-1.97 5.08-.24.24-.58.37-.92.37zM101.12 35.82c-.05 0-.1 0-.14-.01a1.36 1.36 0 0 1-1.21-1.5c.04-.44.14-2.7-2.01-3.07-2.44-.41-3.55 2.06-3.56 2.08-.3.69-1.1 1-1.79.7-.69-.3-1-1.1-.7-1.79.67-1.54 2.89-4.29 6.5-3.68 3.81.65 4.45 4.23 4.26 6.04a1.37 1.37 0 0 1-1.35 1.23zM82.23 40.38c-.61 0-1.16-.41-1.32-1.03-.04-.15-.9-3.79 1.41-6.05 1.93-1.89 4.76-1.34 6.12-.71.68.31.98 1.12.67 1.8-.31.68-1.12.98-1.8.67-.01 0-2.01-.87-3.09.19-1.17 1.15-.67 3.44-.67 3.46.17.73-.27 1.46-1 1.64-.1.02-.21.03-.32.03zM73.92 49.9c-.6 0-1.16-.41-1.32-1.02-.03-.14-.85-3.42 1.15-5.92 1.71-2.14 3.91-2.19 4.94-1.88.72.22 1.13.97.91 1.69-.22.72-.97 1.13-1.69.91-.08-.02-1.08-.22-2.04.97-1.14 1.42-.64 3.52-.63 3.54.19.73-.25 1.47-.98 1.66-.11.04-.22.05-.34.05z"
     fill="#b89278"
     id="path10" />
</svg>
