<?xml version="1.0" encoding="UTF-8" standalone="no"?>
<!-- Generator: Adobe Illustrator 25.2.3, SVG Export Plug-In . SVG Version: 6.00 Build 0)  -->

<svg
   version="1.1"
   id="Layer_3"
   x="0px"
   y="0px"
   viewBox="0 0 128 128"
   style="enable-background:new 0 0 128 128;"
   xml:space="preserve"
   sodipodi:docname="emoji_u1f954.svg"
   inkscape:version="1.2.2 (732a01da63, 2022-12-09)"
   xmlns:inkscape="http://www.inkscape.org/namespaces/inkscape"
   xmlns:sodipodi="http://sodipodi.sourceforge.net/DTD/sodipodi-0.dtd"
   xmlns="http://www.w3.org/2000/svg"
   xmlns:svg="http://www.w3.org/2000/svg"><defs
   id="defs11748" /><sodipodi:namedview
   id="namedview11746"
   pagecolor="#ffffff"
   bordercolor="#000000"
   borderopacity="0.25"
   inkscape:showpageshadow="2"
   inkscape:pageopacity="0.0"
   inkscape:pagecheckerboard="0"
   inkscape:deskcolor="#d1d1d1"
   showgrid="false"
   inkscape:zoom="2.1210938"
   inkscape:cx="31.116021"
   inkscape:cy="77.318599"
   inkscape:window-width="1366"
   inkscape:window-height="697"
   inkscape:window-x="-8"
   inkscape:window-y="-8"
   inkscape:window-maximized="1"
   inkscape:current-layer="Layer_3" />
<path
   id="path11719"
   style="fill:#a47337;fill-opacity:1;stroke-width:1"
   d="M 87.28125,12.192684 C 78.190536,11.927378 68.113664,14.367176 59.919922,19.581891 48.399933,26.917179 42.370773,36.861004 33.800781,41.319527 31.940783,42.290783 28.089835,43.013233 19.839844,48.06376 11.769852,53.003285 2.2498453,65.258766 3.8398438,80.706347 c 0.1390442,1.352621 0.3798759,2.653159 0.6953124,3.911402 -7.78e-4,-0.0022 -0.015625,-0.03433 -0.015625,-0.03433 0,0 2.9101703,15.816231 16.9101568,25.186531 15.839984,10.60056 32.64102,6.42843 37.541015,5.41093 7.269993,-1.50776 13.689147,-4.59635 20.119141,-7.82461 6.429993,-3.22827 29.289536,-13.412675 38.269536,-29.44301 9.90999,-17.686094 7.55155,-31.857283 2.60156,-42.161838 -5.24,-10.905807 -10.35156,-14.910299 -10.35156,-14.910299 0,0 0.008,0.03863 0.008,0.03975 -2.41399,-2.230219 -5.04079,-3.977684 -7.65625,-5.304331 -4.125188,-2.091667 -9.225452,-3.224675 -14.67988,-3.383859 z" />

<path
   style="fill:#614421;stroke:#B8885A;stroke-miterlimit:10;fill-opacity:1"
   d="M47.5,118.52"
   id="path11723" />
<path
   style="fill:#614421;fill-opacity:1"
   d="m 60.165543,83.733536 c 0.06,1.26 4.55,1.16 7.81,0.63 3.45,-0.56 6.3,-0.61 6.78,-1.94 0.48,-1.33 -4.78,-5.96 -7.88,-5.8 -1.94,0.11 -6.8,5.27 -6.71,7.11 z"
   id="path11725" />
<path
   style="fill:#614421;fill-opacity:1"
   d="m 95.076188,80.27035 c 0.67,0.97 3.45,-0.51 4.47,-1.84 1.020002,-1.33 2.170002,-3.9 1.250002,-4.47 -0.920002,-0.57 -3.550002,-0.56 -4.850002,1.04 -1.29,1.61 -1.54,4.3 -0.87,5.27 z"
   id="path11727" />
<path
   style="fill:#614421;fill-opacity:1"
   d="m 109.94245,42.994549 c -1.09,-1.92 -3.04,2.62 -3.13,4.19 -0.09,1.57 1.09,2.49 2.4,2.77 1.29,0.27 4.23,-0.79 0.73,-6.96 z"
   id="path11729" />
<path
   style="fill:#614421;fill-opacity:1"
   d="m 36.623278,99.065267 c -0.88,1.490003 0.57,2.570003 2.04,3.570003 1.16,0.79 4,1.21 4.56,0.33 0.57,-0.88 -0.55,-2.07 -2.67,-3.850003 -1.45,-1.21 -3.05,-1.54 -3.93,-0.05 z"
   id="path11731" />
<path
   style="fill:#614421;stroke:#513531;stroke-miterlimit:10;fill-opacity:1"
   d="M43.81,93.79"
   id="path11733" />
<path
   style="fill:#614421;fill-opacity:1"
   d="m 19.993002,81.646998 c -1.25,0.87 -0.24,4.73 -0.07,5.47 0.17,0.74 5.15,1 5.89,-0.14 0.74,-1.14 -0.82,-2.79 -1.92,-3.94 -1.1,-1.14 -2.65,-2.26 -3.9,-1.39 z"
   id="path11735" />
<path
   style="fill:#614421;fill-opacity:1"
   d="m 29.600184,66.99954 c 1.54,2.09 4.33,-0.42 4.78,-2.29 0.48,-2.01 -1.21,-3.32 -3.12,-2.13 -1.53,0.94 -2.56,3.21 -1.66,4.42 z"
   id="path11737" />
<path
   style="fill:#614421;fill-opacity:1"
   d="m 58.713555,44.417643 c -2,-0.84 -2.76,0.92 -3.51,2.7 -0.75,1.78 -3.17,5.02 -1.65,5.47 1.52,0.45 5.1,0.24 5.99,-1.21 0.89,-1.46 1.17,-6.11 -0.83,-6.96 z"
   id="path11739" />

<path
   style="fill:#614421;fill-opacity:1"
   d="m 80.648453,32.169908 c 0.43,3.2 4.83,4.94 7.42,4.97 2.43,0.03 4.18,-1.55 4.15,-3.16 -0.03,-1.93 -3.17,-2.82 -4.4,-3.3 -2.41,-0.93 -2.97,-2.95 -5.22,-2.23 -2.04,0.66 -2.01,3.23 -1.95,3.72 z"
   id="path11743" />
</svg>
