<?xml version="1.0" encoding="UTF-8" standalone="no"?>
<!-- Generator: Adobe Illustrator 25.2.3, SVG Export Plug-In . SVG Version: 6.00 Build 0)  -->

<svg
   version="1.1"
   id="Layer_2"
   x="0px"
   y="0px"
   viewBox="0 0 128 128"
   style="enable-background:new 0 0 128 128;"
   xml:space="preserve"
   sodipodi:docname="emoji_u1fa94.svg"
   inkscape:version="1.2.2 (732a01da63, 2022-12-09)"
   xmlns:inkscape="http://www.inkscape.org/namespaces/inkscape"
   xmlns:sodipodi="http://sodipodi.sourceforge.net/DTD/sodipodi-0.dtd"
   xmlns="http://www.w3.org/2000/svg"
   xmlns:svg="http://www.w3.org/2000/svg"><defs
   id="defs37098">
	

	
</defs><sodipodi:namedview
   id="namedview37096"
   pagecolor="#ffffff"
   bordercolor="#000000"
   borderopacity="0.25"
   inkscape:showpageshadow="2"
   inkscape:pageopacity="0.0"
   inkscape:pagecheckerboard="0"
   inkscape:deskcolor="#d1d1d1"
   showgrid="false"
   inkscape:zoom="4"
   inkscape:cx="34.125"
   inkscape:cy="59"
   inkscape:window-width="1366"
   inkscape:window-height="697"
   inkscape:window-x="-8"
   inkscape:window-y="-8"
   inkscape:window-maximized="1"
   inkscape:current-layer="Layer_2" />
<path
   style="fill:#855c52;fill-opacity:1"
   d="m 58.6,67.377612 c -0.6,0.24 -52.2,0.39 -52.2,0.39 0,0 -1.02,6.57 2.98,15.1 2.7,5.75 7.07,13.649998 12.75,18.349998 3.46,2.86 10.84,9.29 29.55,9.41 20.38,0.13 28.12,-9.18 32.53,-13.35 4.41,-4.169998 10.61,-12.989998 15.13,-17.399998 4.52,-4.41 9.41,-7.39 9.77,-11.56 0.36,-4.17 -2.74,-4.29 -2.74,-4.29 z"
   id="path37011" />
<path
   style="fill:#e65619;fill-opacity:1"
   d="m 51.45,92.877612 c 20.49,-0.82 27.29,-8.1 40.99,-16.33 11.74,-7.04 16.21,-9.65 16.21,-11.44 0,-1.79 -10.79,-5.11 -17.04,-7.98 -8.82,-4.05 -21.81,-11.8 -44.69,-11.92 -19.67,-0.1 -40.56,7.87 -40.56,23.12 0.01,15.49 25.32,25.34 45.09,24.55 z"
   id="path37013" />
<path
   id="path37015"
   style="fill:#fcc21b;fill-opacity:1"
   d="m 45.689453,54.926753 c -16.749949,0 -27.390315,6.030411 -27.820312,12.40039 -0.09265,1.368821 0.241907,2.671937 0.912109,3.898438 0.08098,0.148193 0.165188,0.295476 0.255859,0.441406 h 0.0059 c 3.451882,5.554528 13.926878,9.430733 23.896484,10.291016 15.029955,1.299994 23.031509,-0.951265 31.771485,-5.28125 2.725317,-1.35006 5.24196,-2.74703 7.5,-4.085938 -0.0028,-0.002 -0.0089,-0.0058 -0.01172,-0.0078 h 0.02734 c 4.007051,-2.376752 7.170457,-4.564632 9.0625,-5.945313 -6.839979,-2.969991 -27.608175,-11.389219 -43.828124,-11.699219 -0.59,-0.01 -1.191485,-0.01172 -1.771485,-0.01172 z" />


























<radialGradient
   id="SVGID_1_"
   cx="93.645"
   cy="9.376"
   r="57.5758"
   gradientUnits="userSpaceOnUse">
	<stop
   offset="0.4179"
   style="stop-color:#FFCF18"
   id="stop37071" />
	<stop
   offset="0.6005"
   style="stop-color:#FFCC16"
   id="stop37073" />
	<stop
   offset="0.7438"
   style="stop-color:#FEC212"
   id="stop37075" />
	<stop
   offset="0.8733"
   style="stop-color:#FDB10A"
   id="stop37077" />
	<stop
   offset="0.9821"
   style="stop-color:#FC9D00"
   id="stop37079" />
</radialGradient>



<radialGradient
   id="SVGID_2_"
   cx="91.3772"
   cy="51.1426"
   r="49.412"
   gradientTransform="matrix(0.0162 -0.9999 0.741 0.012 52.002 141.8952)"
   gradientUnits="userSpaceOnUse">
	<stop
   offset="0.184"
   style="stop-color:#FFD874"
   id="stop37088" />
	<stop
   offset="1"
   style="stop-color:#FFD874;stop-opacity:0"
   id="stop37090" />
</radialGradient>

<g
   id="g11658"
   transform="matrix(0.39037924,0,0,0.39037924,80.888723,21.84997)"
   style="stroke-width:2.56161"><path
     d="m 98.59,51.16 c -4.23,0.92 -7.88,3.28 -9.59,7.35 -1.03,2.47 -2.47,8.85 -6.42,7.2 -1.89,-0.78 -1.86,-3.49 -1.64,-5.18 0.47,-3.47 2.03,-6.64 3.1,-9.94 1.1,-3.42 2.05,-6.86 2.73,-10.4 C 89.05,28.47 88.42,14.97 80.13,5.6 78.73,4 75.2,0.3 72.87,0.22 c -1.44,-0.04 -0.02,1.66 0.38,2.23 0.81,1.17 1.49,2.44 2.01,3.77 6.13,15.64 -8.98,27.55 -18.91,36.82 -4.76,4.45 -8.56,9.17 -11.98,14.68 -0.34,0.53 -1.09,2.31 -2.06,1.94 -1.15,-0.44 -1.27,-3.07 -1.63,-4.05 -0.68,-1.88 -1.73,-3.93 -3.08,-5.4 -2.61,-2.86 -6.26,-4.79 -10.21,-4.53 -0.15,0.01 -0.58,0.08 -1.11,0.2 -0.83,0.18 -3.05,0.47 -2.45,1.81 0.31,0.69 1.22,0.63 1.87,0.82 8.34,2.56 8.15,11.3 6.8,18.32 -2.44,12.78 -9.2,24.86 -4.4,38 5.66,15.49 23.38,25.16 39.46,22.5 4.39,-0.72 9.45,-2.14 13.39,-4.26 4.19,-2.26 8.78,-5.35 12.05,-8.83 4.21,-4.47 6.89,-10.2 7.68,-16.27 0.93,-7.02 -1.31,-13.64 -3.35,-20.27 -2.46,-8 -5.29,-21.06 4.93,-24.97 0.5,-0.2 1.5,-0.35 1.85,-0.88 1.3,-1.94 -4.94,-0.81 -5.52,-0.69 z"
     style="fill:#ed6c30;stroke-width:2.56161"
     id="path11654" /><path
     d="m 68.13,106.07 c 2.12,1.78 5.09,0.91 7.09,-0.61 1.07,-0.81 1.99,-1.85 2.59,-3.06 0.25,-0.52 0.54,-1.18 0.54,-1.77 0,-0.79 -0.47,-1.57 -0.27,-2.38 1.68,-0.33 3.76,4.5 3.97,5.62 1.68,8.83 -6.64,16.11 -14.67,17.52 -13.55,2.37 -21.34,-9.5 -19.78,-20.04 0.97,-6.56 5.37,-11.07 9.85,-15.57 3.71,-3.73 7.15,-6.93 8.35,-11.78 0.21,-0.86 0.16,-2.18 -0.09,-3.03 -0.21,-0.73 -0.61,-1.4 -0.63,-2.19 -0.06,-1.66 1.55,0.51 1.92,0.93 4.46,5.03 5.73,12.46 4.54,18.96 -0.77,4.2 -3.77,7.2 -4.82,11.22 -0.61,2.29 -0.55,4.52 1.41,6.18 z"
     style="fill:#fcc21b;stroke-width:2.56161"
     id="path11656" /></g></svg>
