<?xml version="1.0" encoding="UTF-8" standalone="no"?>
<!-- Generator: Adobe Illustrator 25.2.3, SVG Export Plug-In . SVG Version: 6.00 Build 0)  -->

<svg
   version="1.1"
   id="Layer_2"
   x="0px"
   y="0px"
   viewBox="0 0 128 128"
   style="enable-background:new 0 0 128 128;"
   xml:space="preserve"
   sodipodi:docname="emoji_u1f94f.svg"
   inkscape:version="1.2.2 (732a01da63, 2022-12-09)"
   xmlns:inkscape="http://www.inkscape.org/namespaces/inkscape"
   xmlns:sodipodi="http://sodipodi.sourceforge.net/DTD/sodipodi-0.dtd"
   xmlns="http://www.w3.org/2000/svg"
   xmlns:svg="http://www.w3.org/2000/svg"><defs
   id="defs2242" /><sodipodi:namedview
   id="namedview2240"
   pagecolor="#ffffff"
   bordercolor="#000000"
   borderopacity="0.25"
   inkscape:showpageshadow="2"
   inkscape:pageopacity="0.0"
   inkscape:pagecheckerboard="0"
   inkscape:deskcolor="#d1d1d1"
   showgrid="false"
   inkscape:zoom="2.9996795"
   inkscape:cx="79.175124"
   inkscape:cy="83.675605"
   inkscape:window-width="1366"
   inkscape:window-height="697"
   inkscape:window-x="-8"
   inkscape:window-y="-8"
   inkscape:window-maximized="1"
   inkscape:current-layer="Layer_2" />
<path
   style="fill:#196ca2"
   d="M14.44,69.4l-8.75,8.22c0,0-0.02,9.43,6.27,17.3c5.62,7.03,28.24,19.84,66.7,4.06  c45.66-18.73,43.92-49.14,42.06-55.72c-2.48-8.76-6.68-13.58-17.12-17.12S14.44,69.4,14.44,69.4z"
   id="path2217" />
<path
   style="fill:#42ade7"
   d="M44.63,30.63c-29.06,13-44.36,39.51-37.27,53.3c7.85,15.28,40.28,19.4,72.12,4.66  c32.61-15.1,43.61-42.49,35.22-54.61S76.64,16.31,44.63,30.63z"
   id="path2219" />



<g
   id="g2229"
   style="fill:#94d4f1">
	<path
   style="fill:#94d4f1"
   d="m 44.31,79.85 c -11.37,0 -19.58,-4.07 -22.19,-10.11 -3.99,-9.2 4.17,-23.95 26.33,-33.95 v 0 c 21.75,-9.81 41.69,-7.23 47.08,1.71 2.03,3.36 2.54,8.08 0.99,12.79 -3.18,9.67 -13.36,18.3 -27.48,24.16 -9.11,3.78 -17.55,5.4 -24.73,5.4 z M 50.60873,40.244283 C 37.508822,46.332097 24.559999,57.974484 28.523743,67.119535 31.421009,73.811686 46.209507,78.40643 66.783651,69.865717 83.660669,62.86251 88.539807,53.548599 89.766257,49.807038 90.912721,46.323209 90.814961,43.390394 89.401877,41.035254 85.8114,35.080751 70.116395,31.445837 50.60873,40.244283 Z"
   id="path2227"
   sodipodi:nodetypes="scsscccscccccc" />
</g>
<path
   style="fill:#757575"
   d="M34.06,29.45c0.82,1.56,3.58-1.02,8.28-3.33s14.51-6.49,27.23-8.45s24.58-0.26,28.08,0.43  c3.5,0.68,5.46,0.77,5.72,0c0.26-0.77-0.6-2.05-5.72-3.41s-17.92-3.16-28.76-1.45s-21.37,5.53-27.6,9.54S33.3,27.99,34.06,29.45z"
   id="path2231" />
<path
   style="fill:#757575"
   d="M52.59,10.58c0.3,1.97,9.22-1.88,16.9-2.73C77.14,7,84.93,7.6,86.47,7.68  c1.54,0.09,2.48-0.17,2.65-0.94c0.17-0.77-4.22-4.22-19.63-2.81C56.55,5.1,52.41,9.45,52.59,10.58z"
   id="path2233" />
<path
   style="fill:#757575"
   d="M15.12,112.66c-0.18,0.71,2.62,2.06,7.6,3.07c5.04,1.02,17.49,1.88,29.45,0.17  c12.75-1.82,22.86-6.29,25.17-7.57c2.3-1.28,4.88-3.78,4.11-4.63c-0.77-0.85-5.89,2.13-10.16,3.33s-12.72,3.93-23.64,5.12  s-21.34,0.51-24.75,0.43C19.47,112.49,15.37,111.64,15.12,112.66z"
   id="path2235" />
<path
   style="fill:#757575"
   d="M50.37,122.74c0.25,1.43,8.59,2.56,21.08-1.86c12.91-4.57,16.47-10.03,15.96-10.86  c-0.94-1.54-7.62,3.95-17.75,7.17C57.02,121.2,50.11,121.28,50.37,122.74z"
   id="path2237" />
</svg>
