<?xml version="1.0" encoding="UTF-8" standalone="no"?>
<svg
   enable-background="new 0 0 128 128"
   viewBox="0 0 128 128"
   version="1.1"
   id="svg15600"
   sodipodi:docname="emoji_u1f9a7.svg"
   inkscape:version="1.2.2 (732a01da63, 2022-12-09)"
   xml:space="preserve"
   xmlns:inkscape="http://www.inkscape.org/namespaces/inkscape"
   xmlns:sodipodi="http://sodipodi.sourceforge.net/DTD/sodipodi-0.dtd"
   xmlns="http://www.w3.org/2000/svg"
   xmlns:svg="http://www.w3.org/2000/svg"><defs
     id="defs15604" /><sodipodi:namedview
     id="namedview15602"
     pagecolor="#ffffff"
     bordercolor="#000000"
     borderopacity="0.25"
     inkscape:showpageshadow="2"
     inkscape:pageopacity="0.0"
     inkscape:pagecheckerboard="0"
     inkscape:deskcolor="#d1d1d1"
     showgrid="false"
     inkscape:zoom="2.9996795"
     inkscape:cx="48.005128"
     inkscape:cy="72.341061"
     inkscape:window-width="1366"
     inkscape:window-height="697"
     inkscape:window-x="-8"
     inkscape:window-y="-8"
     inkscape:window-maximized="1"
     inkscape:current-layer="svg15600" /><linearGradient
     id="b"
     x1="63.696"
     x2="63.885"
     y1="115.66"
     y2="11.887"
     gradientUnits="userSpaceOnUse"><stop
       stop-color="#BF360C"
       offset="0"
       id="stop15530" /><stop
       stop-color="#E64A19"
       offset=".5049"
       id="stop15532" /><stop
       stop-color="#FF7043"
       offset="1"
       id="stop15534" /></linearGradient><linearGradient
     id="a"
     x1="65.962"
     x2="65.962"
     y1="23.278"
     y2="63.348"
     gradientUnits="userSpaceOnUse"><stop
       stop-color="#E64A19"
       offset="0"
       id="stop15559" /><stop
       stop-color="#FF7043"
       offset="1"
       id="stop15561" /></linearGradient><g
     id="g20173"><path
       d="m 67.46,116.74989 c -4.71,0 -12.35,-0.87 -19.67,-3.31 -5.81,-1.94 -13.42,-5.58 -16.61,-11.9 -3.03,-5.989997 -1.57,-13.079997 4.33,-21.089997 2.31,-3.14 3.24,-6.322479 3.24,-8.35 0,-2.027521 -9.97,-9.16 -11.63,-13.59 0.25,3.52 1.93418,8.142639 3.47,10.14 0.654814,0.851597 1.757981,2.583137 1.56,2.82 -0.347763,0.416061 -1.806319,-0.44028 -2.88,-1.44 -4.313812,-4.016656 -8.32,-7.8 -10.05,-12.33 0.51,3.99 0.849982,5.557494 1.32,7.65 0.280737,1.249835 0.498674,2.47433 0.110755,2.645715 -0.377629,0.16684 -1.060764,-0.57319 -1.830755,-1.755715 -4.19298,-6.439427 -6.74,-12.56 -7.21,-17.07 -1.37,3.89 -1.279,2.571431 -2.03,7.03 C 9.251037,58.152895 9.1790731,59.740161 8.7149866,59.71488 8.2277598,59.688338 7.7148531,58.334653 7.2849599,56.19488 6.39892,51.784658 3.7,36.759893 8.06,32.699893 c 4.45,-4.15 32.94,-21.32 34.15,-22.05 l 1.29,-0.7799998 0.21,1.4999998 c 2.59,18.3 -6.787608,25.355512 -7.15,25.7 -0.807909,0.767994 -1.326823,1.4414 -1.9,1.4 -0.661616,-0.04779 0.96,-7.16 0.96,-7.16 -2.08,4.18 -5.25,8.38 -9.67,8.9 l -1.72,0.2 c 2.1,1.54 6.14,3.81 11.81,3.81 4,0 8.22,-1.11 12.55,-3.31 l 1.97,-1 -0.56,2.12 c -1.05,4.1 -0.84,9.89 -0.37,15.8 6.97,-12.28 12.55,-18.03 17.48,-18.03 7.27,0 10.46,4.61 14.17,11.88 l 0.96,-12.58 1.62,3.26 c 6.35,12.82 16.39,18.48 24.47,23.04 8.87,5 15.87,8.96 13.74,19.52 -0.54,2.7 -2.99,7.23 -13.26,7.23 -1.81,0 -3.8,-0.14 -5.92,-0.43 -2.08,-0.28 -4.06,-0.72 -5.91,-1.32 0.21,1.69 0.31,3.34 0.3,4.92 -0.07,15.819997 -16.1,21.429997 -29.82,21.429997 z M 23.21,39.579893 c 0.21,0.18 0.47,0.4 0.78,0.63 l 1.01,-1.56 c 0.78,-1.21 1.48,-2.48 2.02,-3.61 z"
       fill="url(#b)"
       id="path15537"
       style="fill:#855c52;fill-opacity:1"
       sodipodi:nodetypes="sccczcssscssscsssccccsscccsccccscccccscccsccccc" /><path
       d="M 46.21,18.499893"
       fill="#b39ddb"
       id="path15541" /><path
       d="m 51.94,116.18289 c -3.27,0 -7.06,-0.92 -9.89,-2.41 -4.83,-2.53 -7.79,-6.81 -9.48,-10.19 0.98,3.94 3.748317,7.21139 3.79,7.26 0.983333,1.14667 2.046274,1.96203 1.845028,2.46762 -0.177534,0.44602 -1.648361,-0.28095 -3.025028,-0.90762 -8.402366,-3.82481 -10.84,-10.21 -11.45,-14.689995 -0.83,3.619995 -0.14,6.649995 -0.13,6.689995 0.540956,2.16382 1.139166,3.00667 0.78,3.29 -0.195426,0.15416 -1.018062,0.0788 -2.626796,-2.1532 -2.815051,-3.90572 -4.81973,-6.58191 -5.413204,-10.766795 -0.369748,-2.607276 0.04,-6.55 2.27,-9.09 1.38,-1.57 3.23,-2.37 5.49,-2.37 h 0.12 c 6.28,0.08 21.35,5.67 33.41,26.289995 1.19,2.03 0.88,3.42 0.41,4.23 -0.84,1.52 -3.02,2.35 -6.1,2.35 z"
       fill="#FF7043"
       id="path15543"
       style="fill:#ed6c30"
       sodipodi:nodetypes="sccssscsssscscccs" /><path
       id="path15547"
       d="m 45.794134,112.96234 c -1.144477,0.28488 -1.97077,0.82582 -2.55805,2.04465 -0.541621,1.12408 -1.531769,3.15997 -2.050274,5.31222 -0.335832,1.39399 -1.346883,3.75207 3.57338,4.5404 2.319731,0.37167 5.280891,0.54488 8.070888,0.54488 1.949998,0 3.719879,-0.0984 3.85157,-1.33076 0.130093,-1.21739 -0.546176,-1.81725 -2.031257,-2.07939 -1.151511,-0.20326 -3.107735,-0.16093 -3.116498,-0.78063 -0.01119,-0.79114 3.313387,-4.91888 4.026654,-5.11 0.713267,-0.19112 3.900391,0.71602 3.900391,1.32031 0,0.60429 -2.037286,1.95724 -3.370342,2.6917 -1.333057,0.73447 -0.770751,1.71846 0.179521,1.63381 0.950273,-0.0846 3.43009,-0.65457 5.130274,-1.46418 1.659813,-0.79039 2.000315,-2.64118 1.560547,-4.03125 -0.430231,-1.35993 -2.082863,-2.24085 -3.025128,-3.26878 -0.927737,-1.01207 -2.18323,-3.02028 -4.06,-2.61037 -2.698856,0.58946 -8.890019,2.29075 -10.081676,2.58739 z"
       style="fill:#5d4037;fill-opacity:1"
       sodipodi:nodetypes="sssssssszzzssssss" /><path
       d="m 65.9,76.039893 c -6.35,0 -9.93,-3.58 -12.14,-7.17 l 0.56,6.67 -2.03,-2.43 c -3.15,-3.78 -4.5,-7.63 -5.01,-10.81 l -1.68,5.48 -0.97,-3.06 c -2.53,-7.95 -1.52,-15.59 3.48,-26.36 3.79,-8.17 8.01,-15.51 17.78,-15.51 h 0.12 c 9.77,0 13.98,7.34 17.78,15.51 5,10.77 6.01,18.41 3.48,26.36 l -0.97,3.06 -1.67,-5.48 c -0.51,3.18 -1.85,7.04 -5.01,10.81 l -2.03,2.43 0.56,-6.67 c -2.21,3.59 -5.79,7.17 -12.14,7.17 z"
       fill="url(#a)"
       id="path15564"
       style="fill:#ed6c30;fill-opacity:1" /><path
       d="m 74.13,32.799893 c -0.62,-0.68 -2.15,-2.59 -3.22,-2.45 -0.24,0.03 -0.46,0.17 -0.67,0.3 -1.45,0.88 -3.09,1.43 -4.78,1.6 0.51,-0.85 0.8,-1.83 0.83,-2.83 -2.02,1.52 -4.23,2.8 -6.56,3.8 0.49,-1.1 0.93,-2.21 1.33,-3.34 -2.59,1.51 -4.4,4.06 -5.4,6.84 -1,2.77 -1.57,5.7 -2,8.61 -0.04,0.25 -0.55,4.56 -0.48,4.56 0.09,0 0.16,-0.07 0.22,-0.13 0.77,-0.72 1.82,-1.16 2.87,-1.5 2.67,-0.87 5.51,-1.28 8.34,-1.57 0.04,0 0.09,-0.01 0.13,-0.01 0.4,-0.04 0.8,-0.08 1.2,-0.11 0.4,0.03 0.8,0.07 1.2,0.11 0.04,0 0.09,0.01 0.13,0.01 2.83,0.29 5.67,0.7 8.34,1.57 1.05,0.34 2.1,0.77 2.87,1.5 0.06,0.06 0.13,0.12 0.22,0.13 0.13,0 -0.91,-13.11 -4.57,-17.09 z"
       fill="#BDAAD1"
       id="path15568"
       style="fill:#855c52;fill-opacity:1" /><path
       d="M 76.99,49.279893"
       fill="none"
       opacity="0.2"
       stroke="#212121"
       stroke-miterlimit="10"
       id="path15572" /><path
       d="m 72.02,38.439893 c -5.3,-1.31 -3.5,4.88 -10.79,3.75 -6.21,-0.96 -6.32,6.67 -6.5,6.81 l 3.09,-0.77 c 2.25,-0.56 4.09,-0.48 5.25,-1.05 0.85,-0.42 1.09,-1.25 1.52,-2.02 0.68,-1.21 2.06,-1.13 2.73,0.04 0.44,0.77 0.67,1.6 1.52,2.02 1.15,0.57 3,0.49 5.25,1.05 3.09,0.77 3.42,1.24 3.42,1.24 0,0 -1.54,-10.09 -5.49,-11.07 z"
       fill="#927DB2"
       id="path15574"
       style="fill:#5d4037" /><path
       d="m 71.38,49.279893 c -1.9,-1.33 -3.25,-2.98 -4.12,-4.28 -0.31,-0.46 -0.81,-0.67 -1.3,-0.65 -0.49,-0.03 -0.99,0.19 -1.3,0.65 -0.87,1.3 -2.23,2.95 -4.12,4.28 -3.59,2.51 -6.3,6.69 -6.2,10.5 0.17,6.38 5.17,11.56 11.56,11.56 h 0.06 0.06 c 6.38,0 11.38,-5.18 11.56,-11.56 0.1,-3.81 -2.61,-7.99 -6.2,-10.5 z"
       fill="#7E6E9E"
       id="path15576"
       style="fill:#8d5f55;fill-opacity:1" /><path
       d="m 67.14,50.369893 1.09,-0.74 c 0.43,-0.29 1.01,-0.17 1.29,0.26 0.29,0.43 0.17,1.02 -0.26,1.3 l -1.09,0.74 c -0.43,0.29 -1.01,0.17 -1.29,-0.26 -0.28,-0.43 -0.17,-1.02 0.26,-1.3 z"
       id="path15580"
       style="fill:#212121" /><path
       d="m 63.85,51.919893 -1.14,-0.66 c -0.44,-0.26 -0.6,-0.84 -0.34,-1.28 0.26,-0.45 0.83,-0.6 1.27,-0.34 l 1.14,0.66 c 0.44,0.26 0.6,0.84 0.34,1.28 -0.25,0.45 -0.83,0.6 -1.27,0.34 z"
       id="path15582"
       style="fill:#212121" /><ellipse
       cx="61.23"
       cy="45.179893"
       rx="2.4400001"
       ry="2.3800001"
       id="ellipse15584"
       style="fill:#212121" /><ellipse
       cx="70.690002"
       cy="45.179893"
       rx="2.4400001"
       ry="2.3800001"
       id="ellipse15586"
       style="fill:#212121" /><path
       d="m 70.69,64.559893 c -0.54,1.75 -2.99,0.94 -4.56,0.94 -1.57,0 -4.16,0.84 -4.16,-0.62 0,-1.46 2.59,-3.04 4.16,-3.04 1.57,0 5.03,1.21 4.56,2.72 z"
       id="path15588"
       style="fill:#212121" /><path
       d="m 63.369937,24.672505 c -0.302692,0 -0.594172,-0.03363 -0.874442,-0.112108 -0.639015,-0.179373 -1.109869,-0.627805 -1.289242,-1.233188 -0.42601,-1.457403 3.040107,-5.554842 2.892386,-6.07625 -0.147721,-0.521408 -0.969213,0.02242 -2.542873,0.02242 -2.757856,0 -3.757883,-0.940869 -4.788987,-0.863231 -1.031104,0.07764 -2.438731,6.524645 -12.141291,6.77132 l -1.076237,0.02242 -0.840809,-13.2063158 0.627804,-0.336324 c 0.269059,-0.145741 8.78932,-3.9186074 11.793756,-3.9186074 3.004437,0 11.805356,4.3775432 14.787039,6.0150252 1.121468,0.615888 4.107056,2.244152 2.343056,5.695084 -0.545429,1.067028 -5.112122,7.219752 -8.89016,7.219752 z"
       fill="#bdaad1"
       id="path15590"
       style="fill:#f28d5e;stroke-width:1"
       sodipodi:nodetypes="scczszcccczssss" /><path
       d="m 80.08,116.18289 c 3.27,0 7.06,-0.92 9.89,-2.41 4.83,-2.53 7.79,-6.81 9.48,-10.19 -0.98,3.94 -3.748317,7.21139 -3.79,7.26 -0.983333,1.14667 -2.046274,1.96203 -1.845028,2.46762 0.177534,0.44602 1.648361,-0.28095 3.025028,-0.90762 8.40237,-3.82481 10.84,-10.21 11.45,-14.689995 0.83,3.619995 0.14,6.649995 0.13,6.689995 -0.54096,2.16382 -1.13917,3.00667 -0.78,3.29 0.19543,0.15416 1.01806,0.0788 2.6268,-2.1532 2.81505,-3.90572 4.81973,-6.58191 5.4132,-10.766795 0.36975,-2.607276 -0.04,-6.55 -2.27,-9.09 -1.38,-1.57 -3.23,-2.37 -5.49,-2.37 h -0.12 c -6.28,0.08 -21.35,5.67 -33.41,26.289995 -1.19,2.03 -0.88,3.42 -0.41,4.23 0.84,1.52 3.02,2.35 6.1,2.35 z"
       fill="#FF7043"
       id="path20151"
       style="fill:#ed6c30"
       sodipodi:nodetypes="sccssscsssscscccs" /><path
       d="m 90.63,93.080133 c -1.225,0 -4.236159,-0.706793 -3.916523,-4.868204 C 87.033113,84.050518 94.605433,73.633245 97.82,72.67936 c 3.21457,-0.953886 11.55488,1.765995 13.34,3.510773 1.7549,1.715237 2.28905,4.159612 1.38,6.38 -0.83095,2.029612 -2.25717,3.100534 -5.00519,3.100534 -2.23237,0 -3.18652,-0.56904 -4.28107,-0.384807 -1.09456,0.184234 -6.623126,4.62667 -8.596086,6.142077 C 93.254789,92.505461 91.855,93.080133 90.63,93.080133 Z"
       fill="#BDAAD1"
       id="path15594"
       style="fill:#f28d5e"
       sodipodi:nodetypes="zzzssszsz" /><path
       id="path20153"
       d="m 86.225866,112.96234 c 1.144477,0.28488 1.97077,0.82582 2.55805,2.04465 0.541621,1.12408 1.531769,3.15997 2.050274,5.31222 0.335832,1.39399 1.346883,3.75207 -3.57338,4.5404 -2.319731,0.37167 -5.280891,0.54488 -8.070888,0.54488 -1.949998,0 -3.719879,-0.0984 -3.85157,-1.33076 -0.130093,-1.21739 0.546176,-1.81725 2.031257,-2.07939 1.151511,-0.20326 3.107735,-0.16093 3.116498,-0.78063 0.01119,-0.79114 -3.313387,-4.91888 -4.026654,-5.11 -0.713267,-0.19112 -3.900391,0.71602 -3.900391,1.32031 0,0.60429 2.037286,1.95724 3.370342,2.6917 1.333057,0.73447 0.770751,1.71846 -0.179521,1.63381 -0.950273,-0.0846 -3.43009,-0.65457 -5.130274,-1.46418 -1.659813,-0.79039 -2.000315,-2.64118 -1.560547,-4.03125 0.430231,-1.35993 2.082863,-2.24085 3.025128,-3.26878 0.927737,-1.01207 2.18323,-3.02028 4.06,-2.61037 2.698856,0.58946 8.890019,2.29075 10.081676,2.58739 z"
       style="fill:#5d4037;fill-opacity:1"
       sodipodi:nodetypes="sssssssszzzssssss" /></g></svg>
