<?xml version="1.0" encoding="UTF-8" standalone="no"?>
<svg
   width="128"
   height="128"
   version="1.1"
   id="svg15309"
   sodipodi:docname="emoji_u1f3f4_200d_2620.svg"
   inkscape:version="1.2.2 (732a01da63, 2022-12-09)"
   xmlns:inkscape="http://www.inkscape.org/namespaces/inkscape"
   xmlns:sodipodi="http://sodipodi.sourceforge.net/DTD/sodipodi-0.dtd"
   xmlns="http://www.w3.org/2000/svg"
   xmlns:svg="http://www.w3.org/2000/svg">
  <defs
     id="defs15313" />
  <sodipodi:namedview
     id="namedview15311"
     pagecolor="#ffffff"
     bordercolor="#000000"
     borderopacity="0.25"
     inkscape:showpageshadow="2"
     inkscape:pageopacity="0.0"
     inkscape:pagecheckerboard="0"
     inkscape:deskcolor="#d1d1d1"
     showgrid="false"
     inkscape:zoom="2.9996795"
     inkscape:cx="44.171385"
     inkscape:cy="75.67475"
     inkscape:window-width="1366"
     inkscape:window-height="697"
     inkscape:window-x="-8"
     inkscape:window-y="-8"
     inkscape:window-maximized="1"
     inkscape:current-layer="svg15309" />
  <path
     style="font-variant-east_asian:normal"
     d="M124 20.82a49.167 49.167 0 0 1-5.43 2.85c-1.78.8-3.52 1.45-5.24 1.98-1.72.53-3.4.95-5.06 1.26-1.66.32-3.29.54-4.89.68-1.6.14-3.19.2-4.75.2s-3.1-.06-4.62-.18c-1.52-.11-3.02-.28-4.5-.48-1.48-.21-2.95-.45-4.4-.73-1.45-.28-2.89-.58-4.32-.91a138.8 138.8 0 0 1-4.25-1.05c-1.41-.37-2.81-.76-4.21-1.15-1.4-.39-2.79-.81-4.17-1.22-1.39-.41-2.77-.83-4.16-1.25-1.38-.42-2.77-.84-4.16-1.25-1.39-.41-2.78-.82-4.17-1.22-1.39-.4-2.8-.78-4.21-1.15-1.41-.37-2.83-.72-4.25-1.05-1.43-.33-2.87-.64-4.32-.91-1.45-.28-2.92-.52-4.4-.73-1.48-.21-2.98-.37-4.5-.48a63.94 63.94 0 0 0-4.62-.18c-1.56 0-3.14.06-4.75.2a47.91 47.91 0 0 0-9.95 1.94c-1.72.53-3.46 1.18-5.24 1.98-1.78.8-3.58 1.73-5.43 2.85v86.36c1.85-1.12 3.66-2.06 5.43-2.85 1.78-.8 3.52-1.45 5.24-1.98 1.72-.53 3.4-.95 5.06-1.26 1.66-.32 3.29-.54 4.89-.68 1.61-.14 3.19-.2 4.75-.2s3.1.06 4.62.18c1.52.11 3.02.28 4.5.48 1.48.21 2.95.45 4.4.73 1.45.28 2.89.58 4.32.91 1.43.33 2.85.68 4.25 1.05 1.41.37 2.81.76 4.21 1.15 1.4.4 2.79.81 4.17 1.22 1.38.41 2.77.83 4.16 1.25 1.38.42 2.77.84 4.16 1.25 1.39.41 2.78.82 4.17 1.22 1.4.4 2.8.78 4.21 1.15 1.41.37 2.83.72 4.25 1.05 1.43.33 2.87.64 4.32.91 1.45.28 2.92.52 4.4.73 1.48.21 2.98.37 4.5.48 1.52.11 3.06.18 4.62.18s3.14-.06 4.75-.2a47.91 47.91 0 0 0 9.95-1.94c1.72-.53 3.46-1.18 5.24-1.98 1.78-.8 3.59-1.74 5.43-2.85V26.15z"
     fill="#3e3e3e"
     paint-order="stroke fill markers"
     id="path15257" />
  <g
     fill="#ffffff"
     id="g15307"
     transform="matrix(1.2061051,0.32317489,0,1.2061051,-13.190873,-33.040792)"
     style="stroke-width:0.829115">
    <path
       d="m 80.454,44.173 c -1.847,1.966 -3.72,3.907 -5.586,5.855 0.369,0.292 0.72,0.601 1.049,0.93 a 12.152,12.152 0 0 1 1.84,2.379 c 2.018,-1.936 4.031,-3.877 6.07,-5.791 z m -28.307,28.66 a 811.732,811.732 0 0 1 -7.678,7.326 l 3.373,3.371 a 811.554,811.554 0 0 1 7.174,-7.521 12.181,12.181 0 0 1 -0.195,-1.38 11.54,11.54 0 0 1 -2.674,-1.796 z"
       id="path15261"
       style="stroke-width:0.829115" />
    <g
       transform="translate(5.21,-1.948)"
       id="g15271"
       style="stroke-width:0.829115">
      <path
         d="m 40.828,85.864 a 3.546,3.546 0 0 1 -1.878,0.984 c 0.146,0.4 0.374,0.77 0.691,1.084 1.245,1.245 3.334,1.17 4.667,-0.164 1.334,-1.333 1.409,-3.422 0.164,-4.663 -0.741,-0.742 -1.782,-1.006 -2.788,-0.82 0.432,1.173 0.14,2.585 -0.856,3.58 z"
         id="path15263"
         style="stroke-width:0.829115" />
      <ellipse
         cx="-30.735001"
         cy="86.197998"
         rx="3.4159999"
         ry="3.184"
         transform="rotate(-45)"
         id="ellipse15265"
         style="stroke-width:0.829115" />
      <g
         stroke-width="2.32567"
         id="g15269">
        <path
           d="m 45.353,85.123 c 0.01,-1.409 0.488,-3.12 2.107,-4.739 l -3.027,2.08 -0.496,0.848 z M 39.62,79.39 c 1.408,-0.011 3.12,-0.489 4.738,-2.107 l -2.078,3.027 -0.849,0.495 z"
           id="path15267"
           style="stroke-width:2.32567" />
      </g>
    </g>
    <g
       transform="translate(5.21,-1.948)"
       id="g15281"
       style="stroke-width:0.829115">
      <path
         d="m 73.11,48.788 c 0.74,0.742 1.782,1.006 2.787,0.82 -0.431,-1.17 -0.139,-2.585 0.856,-3.58 a 3.546,3.546 0 0 1 1.879,-0.983 c -0.146,-0.4 -0.374,-0.77 -0.692,-1.084 -1.244,-1.244 -3.33,-1.17 -4.663,0.164 -1.337,1.333 -1.409,3.423 -0.168,4.663 z"
         id="path15273"
         style="stroke-width:0.829115" />
      <ellipse
         cx="20.612"
         cy="90.209999"
         rx="3.4159999"
         ry="3.184"
         transform="rotate(-45)"
         id="ellipse15275"
         style="stroke-width:0.829115" />
      <g
         stroke-width="2.32567"
         id="g15279">
        <path
           d="m 72.232,46.777 c -0.01,1.409 -0.488,3.12 -2.107,4.739 l 3.027,-2.079 0.496,-0.848 z m 5.733,5.733 c -1.408,0.011 -3.12,0.489 -4.738,2.108 l 2.078,-3.027 0.849,-0.496 z"
           id="path15277"
           style="stroke-width:2.32567" />
      </g>
    </g>
    <path
       d="m 47.842,44.47 -3.373,3.373 c 1.936,1.817 3.846,3.661 5.764,5.498 0.248,-0.418 0.516,-0.819 0.809,-1.201 0.012,-0.017 0.022,-0.037 0.035,-0.053 a 11.994,11.994 0 0 1 2.047,-2.08 C 51.36,48.164 49.589,46.329 47.842,44.47 Z m 28.004,28.37 a 11.304,11.304 0 0 1 -1.25,0.975 c -0.117,0.079 -0.24,0.15 -0.36,0.225 -0.112,0.07 -0.222,0.143 -0.337,0.209 l -0.004,0.002 c -0.233,0.134 -0.471,0.26 -0.715,0.379 -0.039,0.485 -0.108,0.932 -0.191,1.361 l -0.002,0.008 c 2.503,2.595 4.998,5.2 7.467,7.828 l 3.373,-3.373 a 812.412,812.412 0 0 1 -7.98,-7.613 z"
       id="path15283"
       style="stroke-width:0.829115" />
    <g
       transform="translate(5.21,-1.948)"
       id="g15293"
       style="stroke-width:0.829115">
      <path
         d="m 38.875,47.986 a 3.546,3.546 0 0 1 -0.984,-1.879 c -0.4,0.146 -0.77,0.375 -1.084,0.692 -1.245,1.244 -1.17,3.333 0.164,4.667 1.333,1.333 3.423,1.408 4.663,0.164 0.742,-0.742 1.006,-1.783 0.82,-2.788 -1.173,0.431 -2.585,0.139 -3.58,-0.856 z"
         id="path15285"
         style="stroke-width:0.829115" />
      <ellipse
         cx="-3.0550001"
         cy="62.529999"
         rx="3.184"
         ry="3.4159999"
         transform="rotate(-45)"
         id="ellipse15287"
         style="stroke-width:0.829115" />
      <g
         stroke-width="2.32567"
         id="g15291">
        <path
           d="m 39.616,52.51 c 1.409,0.011 3.12,0.489 4.739,2.108 l -2.079,-3.027 -0.849,-0.496 z m 5.734,-5.733 c 0.01,1.409 0.488,3.12 2.106,4.739 l -3.027,-2.079 -0.495,-0.848 z"
           id="path15289"
           style="stroke-width:2.32567" />
      </g>
    </g>
    <g
       transform="translate(5.21,-1.948)"
       id="g15303"
       style="stroke-width:0.829115">
      <path
         d="m 75.95,80.267 c -0.74,0.741 -1.005,1.782 -0.82,2.788 1.17,-0.432 2.586,-0.14 3.58,0.856 0.539,0.538 0.86,1.198 0.984,1.879 0.4,-0.147 0.77,-0.375 1.084,-0.692 1.245,-1.244 1.17,-3.33 -0.164,-4.664 -1.333,-1.337 -3.423,-1.408 -4.663,-0.167 z"
         id="path15295"
         style="stroke-width:0.829115" />
      <ellipse
         cx="-7.0669999"
         cy="113.878"
         rx="3.184"
         ry="3.4159999"
         transform="rotate(-45)"
         id="ellipse15297"
         style="stroke-width:0.829115" />
      <g
         stroke-width="2.32567"
         id="g15301">
        <path
           d="m 77.962,79.39 c -1.409,-0.011 -3.12,-0.489 -4.739,-2.107 l 2.079,3.027 0.848,0.495 z m -5.734,5.733 c -0.01,-1.409 -0.488,-3.12 -2.107,-4.739 l 3.027,2.08 0.496,0.848 z"
           id="path15299"
           style="stroke-width:2.32567" />
      </g>
    </g>
    <path
       d="m 63.905,47.731 c -10.005,0 -14.88,5.565 -14.88,14.35 0,6.65 2.618,10.224 6.599,11.97 0.202,6.195 3.871,6.214 8.377,6.214 4.505,0 8.174,-0.019 8.376,-6.213 3.981,-1.747 6.598,-5.322 6.598,-11.971 0,-8.785 -4.873,-14.346 -15.07,-14.35 z M 58.11,58.477 c 2.603,0 4.21,2.1 3.861,4.364 -0.392,2.57 -2.962,3.933 -5.564,3.933 -2.603,0 -4.076,-1.68 -4.076,-3.402 0,-2.293 3.176,-4.895 5.779,-4.895 z m 11.78,0.004 c 2.602,0 5.78,2.602 5.78,4.895 0,1.722 -1.473,3.402 -4.076,3.402 -2.602,0 -5.172,-1.367 -5.564,-3.937 -0.35,-2.264 1.253,-4.36 3.86,-4.36 z M 64,67.497 A 2.125,3.152 0 0 1 66.126,70.649 2.125,3.152 0 0 1 64,73.802 2.125,3.152 0 0 1 61.875,70.649 2.125,3.152 0 0 1 64,67.497 Z"
       id="path15305"
       style="stroke-width:0.829115" />
  </g>
</svg>
