<?xml version="1.0" encoding="UTF-8" standalone="no"?>
<svg
   width="128"
   height="128"
   style="enable-background:new 0 0 128 128;"
   version="1.1"
   id="svg36"
   sodipodi:docname="emoji_u1f985.svg"
   inkscape:export-filename="..\emoji_u1f985.png"
   inkscape:export-xdpi="96"
   inkscape:export-ydpi="96"
   inkscape:version="1.3 (0e150ed6c4, 2023-07-21)"
   xmlns:inkscape="http://www.inkscape.org/namespaces/inkscape"
   xmlns:sodipodi="http://sodipodi.sourceforge.net/DTD/sodipodi-0.dtd"
   xmlns="http://www.w3.org/2000/svg"
   xmlns:svg="http://www.w3.org/2000/svg">
  <defs
     id="defs36" />
  <sodipodi:namedview
     id="namedview36"
     pagecolor="#ffffff"
     bordercolor="#000000"
     borderopacity="0.25"
     inkscape:showpageshadow="2"
     inkscape:pageopacity="0.0"
     inkscape:pagecheckerboard="0"
     inkscape:deskcolor="#d1d1d1"
     showguides="true"
     inkscape:zoom="2"
     inkscape:cx="77"
     inkscape:cy="98.25"
     inkscape:window-width="1366"
     inkscape:window-height="697"
     inkscape:window-x="-8"
     inkscape:window-y="-8"
     inkscape:window-maximized="1"
     inkscape:current-layer="svg36" />
  <g
     id="g11"
     transform="translate(8.8388351)" />
  <g
     id="g45"
     transform="translate(-117.52617,-15.257359)"
     style="fill:#e0e0e0">
    <g
       id="g42"
       style="fill:#e0e0e0" />
    <g
       id="g44"
       style="fill:#e0e0e0">
      <g
         id="g43"
         style="fill:#e0e0e0" />
    </g>
  </g>
  <g
     id="g55"
     transform="translate(185.44975,-15.257359)">
    <g
       id="g52" />
    <g
       id="g54">
      <g
         id="g53" />
    </g>
  </g>
  <g
     id="g66"
     transform="matrix(0.93371214,0,0,0.93371214,160.01719,0.76987459)"
     style="stroke-width:1.071">
    <path
       style="fill:#855c52;fill-opacity:1;stroke:none;stroke-width:9.63895;stroke-linecap:round"
       d="m -128.34279,24.152763 c 9.42095,12.554263 16.37382,20.765056 26.41754,22.982316 l -8.20258,17.358241 -9.95269,-5.928827 L -126,43.974084 c -0.54941,-6.867762 -2.34279,-19.821321 -2.34279,-19.821321 z"
       id="path64"
       sodipodi:nodetypes="cccccc" />
    <path
       id="path62"
       style="fill:#855c52;stroke-width:1.071"
       d="m -144.06565,17.50085 c -4.22006,0 -5.93194,1.48033 -12.6582,3.36133 -8.50189,2.37755 -12.11133,3.73913 -12.11133,8.48633 0,4.74719 12.19726,8.22461 12.19726,8.22461 0,0 -12.57332,2.66859 -11.25781,7.57812 1.01418,3.78496 4.05364,6.12503 8.34375,7.19922 -2.74824,2.52362 -5.8415,6.75064 -4.31947,10.0509 2.6483,5.74238 15.28025,6.01512 26.05867,2.35956 10.35963,-3.51352 20.924,-8.18048 18.31158,-19.15264 -0.80697,-3.3893 -2.67489,-12.37811 -6.19467,-18.14459 -3.51978,-5.76647 -11.32962,-9.96284 -18.36978,-9.96284 z"
       sodipodi:nodetypes="ssscscsssss" />
    <path
       style="fill:#2f2f2f;fill-opacity:1;stroke-width:1.071"
       d="m -140.7512,34.04578 c -1.4669,0.0736 -6.75721,2.28203 -11.68164,3.10937 -1.8379,0.30878 -3.31025,0.4181 -4.33984,0.45117 -0.19175,0.0414 -2.71357,0.6126 -5.39649,1.68946 4.27714,0.56125 7.50783,0.45789 11.36914,-0.33399 6.72809,-1.3798 10.98229,-3.64603 10.42969,-4.80664 -0.0414,-0.0869 -0.1713,-0.11989 -0.38086,-0.10937 z"
       id="path1" />
    <path
       id="path63"
       style="fill:#2f2f2f;fill-opacity:1;stroke-width:1.071"
       d="m -137.24924,45.39734 c -0.0401,-0.0045 -0.0825,-0.0025 -0.125,0.0059 -1.09811,0.46902 -2.16868,1.00575 -3.25977,1.49414 -1.85506,0.85614 -3.72284,1.68886 -5.63672,2.40625 -1.23128,0.45865 -2.44701,0.96116 -3.70703,1.33789 -1.38057,0.42693 -2.79275,0.75235 -4.21875,0.98633 -1.80649,0.2524 -3.61177,0.51335 -5.41602,0.78125 -0.56263,0.52076 -1.13162,1.12074 -1.67773,1.75976 1.45588,0.05429 2.91291,0.05559 4.36523,-0.0918 1.93014,-0.16582 3.86133,-0.39013 5.75,-0.83203 2.45457,-0.53179 4.76583,-1.54341 7.05664,-2.54687 1.8189,-0.86593 3.53985,-1.92168 5.21094,-3.04297 0.68597,-0.4991 1.58642,-0.85 1.9961,-1.63086 0.14448,-0.27374 -0.0572,-0.59578 -0.33789,-0.62695 z" />
    <path
       d="m -101.46076,76.119112 c 6.230866,13.324915 10.992053,18.526033 14.501935,21.989273 2.325619,2.282335 4.831452,4.212665 7.302959,6.177055 1.01263,0.79484 2.033843,1.58969 2.977821,2.53214 0.343266,0.34065 1.235754,1.07872 1.132775,1.76001 -0.351847,2.33911 -9.324837,3.52543 -17.086742,1.79375 -14.236448,-3.17613 -21.334688,-13.27048 -21.833928,-15.106522 -0.69627,-2.541949 -1.30807,-5.879154 -0.82333,-8.599339"
       style="fill:#e0e0e0;stroke-width:1.07099"
       id="path47"
       sodipodi:nodetypes="cccccscc" />
    <path
       id="path65"
       style="fill:#2f2f2f;fill-opacity:1;stroke-width:1.071"
       d="m -114.37305,40.419922 c -0.29221,3.945052 -0.40146,7.908764 -0.46289,11.855469 -0.059,2.503765 -0.80283,4.873028 -1.79101,7.15039 l 6.9414,4.134766 7.75977,-16.425781 c -4.62378,-1.02075 -8.59124,-3.31459 -12.44727,-6.714844 z" />
    <path
       id="path46"
       style="fill:#855c52;fill-opacity:1;stroke:none;stroke-width:9.63895;stroke-linecap:round"
       d="m -111.5768,52.96875 c -0.002,0.143371 -0.004,0.28613 -0.01,0.431641 -0.009,0.223853 -0.0223,0.449306 -0.041,0.673828 -0.0187,0.224521 -0.0422,0.448108 -0.0723,0.667969 -0.0301,0.21986 -0.0668,0.436613 -0.10938,0.646484 -0.0426,0.209871 -0.0901,0.412869 -0.14648,0.607422 -0.0564,0.194552 -0.11998,0.380782 -0.19141,0.554687 -0.0357,0.08695 -0.0736,0.171162 -0.11328,0.251953 -0.0397,0.08079 -0.0811,0.158458 -0.125,0.232422 -0.0438,0.07397 -0.0905,0.144467 -0.13867,0.210938 -0.0482,0.06647 -0.0978,0.129188 -0.15039,0.1875 -0.0526,0.05831 -0.10879,0.112623 -0.16602,0.162109 -0.0572,0.04949 -0.11574,0.09282 -0.17773,0.132813 -0.062,0.03999 -0.12644,0.07563 -0.19336,0.105468 -0.0669,0.02984 -0.13699,0.05521 -0.20899,0.07422 -0.072,0.01901 -0.14737,0.03154 -0.22461,0.03906 -0.0772,0.0075 -0.15566,0.0085 -0.23828,0.0039 -0.0655,-0.0037 -0.14295,-0.01335 -0.22851,-0.0293 -0.0856,-0.01594 -0.18048,-0.03813 -0.28321,-0.06445 -0.20544,-0.05264 -0.44087,-0.122324 -0.69726,-0.205078 -0.51278,-0.165508 -1.10482,-0.377401 -1.67969,-0.572266 -0.28743,-0.09743 -0.57035,-0.191442 -0.83789,-0.273437 -0.26754,-0.082 -0.52011,-0.151751 -0.74414,-0.203125 -0.11202,-0.02569 -0.21579,-0.04731 -0.3125,-0.0625 -0.0967,-0.01519 -0.18522,-0.02456 -0.26367,-0.02734 -0.0785,-0.0028 -0.14783,0.0022 -0.20508,0.01367 -0.0286,0.0058 -0.0534,0.01375 -0.0762,0.02344 -0.0228,0.0097 -0.044,0.0213 -0.0605,0.03516 -0.0419,0.03513 -0.0814,0.07202 -0.11914,0.111328 -0.0377,0.03931 -0.0737,0.07981 -0.10742,0.123046 -0.0675,0.08648 -0.12635,0.180544 -0.17969,0.28125 -0.0533,0.100707 -0.10106,0.209314 -0.14258,0.322266 -0.0415,0.112953 -0.0774,0.230301 -0.10937,0.353516 -0.032,0.123215 -0.0592,0.251319 -0.084,0.382812 -0.0248,0.131494 -0.0465,0.266508 -0.0664,0.404297 -0.0398,0.275578 -0.0734,0.562705 -0.10743,0.851563 -0.0341,0.288857 -0.0684,0.580919 -0.11523,0.867187 -0.0234,0.143134 -0.05,0.284317 -0.0801,0.423828 -0.03,0.139512 -0.0645,0.276251 -0.10351,0.410157 -0.039,0.133905 -0.0826,0.264309 -0.13282,0.390624 -0.0502,0.126316 -0.10611,0.248493 -0.16992,0.365235 -0.0638,0.116742 -0.13517,0.228799 -0.21484,0.333984 -0.0398,0.05259 -0.0827,0.103013 -0.12695,0.152344 -0.0442,0.04933 -0.0898,0.09676 -0.13868,0.142578 -0.0405,0.03792 -0.0871,0.07296 -0.13672,0.103516 -0.0496,0.03055 -0.10201,0.05646 -0.16015,0.08008 -0.0581,0.02361 -0.1215,0.04539 -0.1875,0.0625 -0.066,0.01711 -0.13577,0.02999 -0.20899,0.04102 -0.0732,0.01103 -0.14874,0.02002 -0.22851,0.02539 -0.0798,0.0054 -0.16432,0.0077 -0.25,0.0078 -0.17137,3.04e-4 -0.3538,-0.0093 -0.54492,-0.02734 -0.19113,-0.01802 -0.39002,-0.04521 -0.59571,-0.07813 -0.20569,-0.03292 -0.41774,-0.0728 -0.63281,-0.117188 -0.21507,-0.04439 -0.43308,-0.09209 -0.65234,-0.144531 -0.21926,-0.05244 -0.43994,-0.108956 -0.65821,-0.166016 -0.43652,-0.114119 -0.86617,-0.233651 -1.26757,-0.345703 -0.40141,-0.112051 -0.77483,-0.21625 -1.09961,-0.298828 -0.1624,-0.04129 -0.31182,-0.07669 -0.44727,-0.105469 -0.13545,-0.02878 -0.25605,-0.0516 -0.35937,-0.06445 -0.10333,-0.01285 -0.18985,-0.01628 -0.25586,-0.0098 -0.033,0.0033 -0.0613,0.0088 -0.084,0.01758 -0.0227,0.0087 -0.039,0.02051 -0.0508,0.03516 -0.061,0.07602 -0.11667,0.157457 -0.16601,0.242188 -0.0493,0.08473 -0.0918,0.173229 -0.13086,0.265625 -0.0391,0.0924 -0.0734,0.188089 -0.10352,0.287109 -0.0301,0.09902 -0.0575,0.200086 -0.0801,0.304688 -0.0226,0.104601 -0.0422,0.213123 -0.0586,0.322265 -0.0164,0.109142 -0.0294,0.219391 -0.041,0.332031 -0.0233,0.225282 -0.0384,0.456428 -0.0508,0.689454 -0.0123,0.233025 -0.0228,0.468735 -0.0352,0.701171 -0.0124,0.232437 -0.0273,0.462035 -0.0508,0.685547 -0.0117,0.111756 -0.0245,0.222116 -0.041,0.330078 -0.0166,0.107963 -0.0359,0.213279 -0.0586,0.316407 -0.0227,0.103127 -0.0498,0.20353 -0.0801,0.300781 -0.0303,0.09725 -0.0643,0.190918 -0.10352,0.28125 -0.0382,0.08797 -0.0801,0.171481 -0.12695,0.248047 -0.0468,0.07657 -0.0994,0.147199 -0.1543,0.21289 -0.0549,0.06569 -0.11332,0.126297 -0.17578,0.181641 -0.0625,0.05534 -0.12778,0.104866 -0.19727,0.150391 -0.0695,0.04552 -0.14275,0.08681 -0.21875,0.123047 -0.076,0.03623 -0.15434,0.06823 -0.23632,0.0957 -0.082,0.02747 -0.16842,0.04913 -0.25586,0.06836 -0.0874,0.01923 -0.17715,0.03535 -0.26953,0.04687 -0.0924,0.01153 -0.1864,0.01909 -0.28321,0.02344 -0.0968,0.0043 -0.19617,0.0062 -0.29687,0.0039 -0.10071,-0.0023 -0.20256,-0.0091 -0.30664,-0.01758 -0.10409,-0.0084 -0.20947,-0.01917 -0.31641,-0.0332 -0.21387,-0.02806 -0.43408,-0.066 -0.65625,-0.113282 -0.22216,-0.04729 -0.44755,-0.103726 -0.67383,-0.166015 -0.22628,-0.06229 -0.45347,-0.132009 -0.67969,-0.205079 -0.22621,-0.07307 -0.45184,-0.148887 -0.67382,-0.228515 -0.44397,-0.159256 -0.87341,-0.328122 -1.27539,-0.488281 -0.0294,-0.01171 -0.051,-0.02159 -0.0801,-0.0332 1.37547,2.963063 2.59279,6.752692 3.86719,11.632813 2.95955,11.333206 3.64736,16.93035 0.27929,21.082031 -2.2831,2.454004 -2.32268,6.451034 0.60742,8.437504 2.36595,3.33453 6.65738,2.85711 10.08399,4.06054 4.45094,2.28115 6.82441,7.49169 11.64453,9.14063 4.31741,1.30122 8.05851,-3.04944 7.01172,-7.21875 -0.13058,-5.15514 -0.9906,-10.50557 0.52539,-15.525392 1.63346,-3.411279 5.002142,-5.86116 5.638671,-9.773438 1.948254,-7.841862 -1.366739,-15.813519 -5.140621,-22.591797 -2.64294,-4.505581 -5.7197,-8.754182 -9.12696,-12.720703 z" />
    <path
       id="path48"
       style="fill:#e0e0e0;fill-opacity:1;stroke:none;stroke-width:9.63895;stroke-linecap:round"
       d="m -135.71156,38.203125 c -6.2206,0.107917 -12.94218,2.61595 -15.7168,8.546875 -0.74154,2.968218 -4.80064,7.344452 -1.49024,9.763672 3.09465,0.363614 6.57831,-0.25943 9.16797,1.947266 2.86938,1.597803 4.96439,4.066256 6.78321,7.984374 0.0291,0.01161 0.0507,0.0215 0.0801,0.0332 0.40198,0.160159 0.83142,0.329025 1.27539,0.488281 0.22198,0.07963 0.44761,0.155446 0.67382,0.228515 0.22622,0.07307 0.45341,0.142789 0.67969,0.205079 0.22628,0.06229 0.45167,0.118728 0.67383,0.166015 0.22217,0.04729 0.44238,0.08522 0.65625,0.113282 0.10694,0.01403 0.21232,0.02477 0.31641,0.0332 0.10408,0.0084 0.20593,0.01527 0.30664,0.01758 0.1007,0.0023 0.20007,4.38e-4 0.29687,-0.0039 0.0968,-0.0043 0.19082,-0.01191 0.28321,-0.02344 0.0924,-0.01153 0.18208,-0.02764 0.26953,-0.04687 0.0874,-0.01923 0.17388,-0.04089 0.25586,-0.06836 0.082,-0.02747 0.16033,-0.05947 0.23632,-0.0957 0.076,-0.03623 0.14927,-0.07752 0.21875,-0.123047 0.0695,-0.04552 0.13481,-0.09505 0.19727,-0.150391 0.0625,-0.05534 0.12088,-0.11595 0.17578,-0.181641 0.0549,-0.06569 0.10747,-0.136324 0.1543,-0.21289 0.0468,-0.07657 0.0887,-0.160079 0.12695,-0.248047 0.0393,-0.09033 0.0732,-0.184 0.10352,-0.28125 0.0303,-0.09725 0.0573,-0.197654 0.0801,-0.300781 0.0228,-0.103128 0.042,-0.208444 0.0586,-0.316407 0.0165,-0.107962 0.0293,-0.218322 0.041,-0.330078 0.0235,-0.223512 0.0384,-0.45311 0.0508,-0.685547 0.0124,-0.232436 0.0228,-0.468146 0.0352,-0.701171 0.0123,-0.233026 0.0275,-0.464172 0.0508,-0.689454 0.0116,-0.11264 0.0246,-0.222889 0.041,-0.332031 0.0164,-0.109142 0.036,-0.217664 0.0586,-0.322265 0.0226,-0.104602 0.0499,-0.205668 0.0801,-0.304688 0.0301,-0.09902 0.0645,-0.194714 0.10352,-0.287109 0.0391,-0.0924 0.0815,-0.180895 0.13086,-0.265625 0.0493,-0.08473 0.105,-0.166165 0.16601,-0.242188 0.0118,-0.01465 0.0281,-0.02642 0.0508,-0.03516 0.0227,-0.0087 0.051,-0.01432 0.084,-0.01758 0.066,-0.0065 0.15253,-0.0031 0.25586,0.0098 0.10332,0.01285 0.22392,0.03567 0.35937,0.06445 0.13545,0.02878 0.28487,0.06418 0.44727,0.105469 0.32478,0.08258 0.6982,0.186777 1.09961,0.298828 0.4014,0.112052 0.83105,0.231584 1.26757,0.345703 0.21827,0.05706 0.43895,0.113578 0.65821,0.166016 0.21926,0.05244 0.43727,0.10014 0.65234,0.144531 0.21507,0.04439 0.42712,0.08427 0.63281,0.117188 0.20569,0.03292 0.40458,0.06011 0.59571,0.07813 0.19112,0.01802 0.37355,0.02765 0.54492,0.02734 0.0857,-1.53e-4 0.17023,-0.0024 0.25,-0.0078 0.0798,-0.0054 0.1553,-0.01436 0.22851,-0.02539 0.0732,-0.01103 0.14299,-0.02391 0.20899,-0.04102 0.066,-0.01711 0.12935,-0.03889 0.1875,-0.0625 0.0581,-0.02361 0.11051,-0.04953 0.16015,-0.08008 0.0496,-0.03055 0.0962,-0.0656 0.13672,-0.103516 0.0489,-0.04582 0.0944,-0.09325 0.13868,-0.142578 0.0442,-0.04933 0.0871,-0.09975 0.12695,-0.152344 0.0797,-0.105185 0.15104,-0.217242 0.21484,-0.333984 0.0638,-0.116742 0.11968,-0.238919 0.16992,-0.365235 0.0502,-0.126315 0.0938,-0.256719 0.13282,-0.390624 0.039,-0.133906 0.0735,-0.270645 0.10351,-0.410157 0.03,-0.139511 0.0567,-0.280694 0.0801,-0.423828 0.0468,-0.286268 0.0812,-0.57833 0.11523,-0.867187 0.0341,-0.288858 0.0676,-0.575985 0.10743,-0.851563 0.0199,-0.137789 0.0416,-0.272803 0.0664,-0.404297 0.0248,-0.131493 0.052,-0.259597 0.084,-0.382812 0.032,-0.123215 0.0679,-0.240563 0.10937,-0.353516 0.0415,-0.112952 0.0892,-0.221559 0.14258,-0.322266 0.0533,-0.100706 0.11222,-0.194773 0.17969,-0.28125 0.0337,-0.04324 0.0697,-0.08374 0.10742,-0.123046 0.0377,-0.03931 0.0772,-0.0762 0.11914,-0.111328 0.0165,-0.01385 0.0378,-0.02547 0.0605,-0.03516 0.0228,-0.0097 0.0475,-0.01768 0.0762,-0.02344 0.0572,-0.01151 0.12662,-0.01646 0.20508,-0.01367 0.0785,0.0028 0.16696,0.01216 0.26367,0.02734 0.0967,0.01519 0.20048,0.03681 0.3125,0.0625 0.22403,0.05137 0.4766,0.121129 0.74414,0.203125 0.26754,0.08199 0.55046,0.176005 0.83789,0.273437 0.57487,0.194865 1.16691,0.406758 1.67969,0.572266 0.25639,0.08275 0.49182,0.152439 0.69726,0.205078 0.10273,0.02632 0.19765,0.04851 0.28321,0.06445 0.0856,0.01594 0.16306,0.02563 0.22851,0.0293 0.0826,0.0046 0.16105,0.0036 0.23828,-0.0039 0.0772,-0.0075 0.15262,-0.02005 0.22461,-0.03906 0.072,-0.01901 0.14207,-0.04438 0.20899,-0.07422 0.0669,-0.02984 0.13136,-0.06547 0.19336,-0.105468 0.062,-0.03999 0.1205,-0.08333 0.17773,-0.132813 0.0572,-0.04949 0.1134,-0.103798 0.16602,-0.162109 0.0526,-0.05831 0.10223,-0.121029 0.15039,-0.1875 0.0482,-0.06647 0.0948,-0.136973 0.13867,-0.210938 0.0439,-0.07396 0.0853,-0.15163 0.125,-0.232422 0.0397,-0.08079 0.0776,-0.165 0.11328,-0.251953 0.0714,-0.173905 0.13502,-0.360135 0.19141,-0.554687 0.0564,-0.194553 0.10389,-0.397551 0.14648,-0.607422 0.0426,-0.209871 0.0793,-0.426624 0.10938,-0.646484 0.03,-0.219861 0.0535,-0.443448 0.0723,-0.667969 0.0187,-0.224522 0.0323,-0.449975 0.041,-0.673828 0.006,-0.145511 0.008,-0.28827 0.01,-0.431641 -3.68015,-4.284206 -7.74696,-8.236908 -12.11133,-11.794922 -3.17731,-2.098533 -7.01888,-2.934385 -10.7871,-2.960937 -0.40894,-0.01384 -0.82163,-0.01696 -1.23633,-0.0098 z" />
    <ellipse
       style="fill:#2f2f2f;fill-opacity:1;stroke:none;stroke-width:9.63895;stroke-linecap:round"
       id="ellipse45"
       cx="-141.10466"
       cy="46.792358"
       rx="2.5950451"
       ry="2.8182745" />
    <path
       style="fill:#fcc21b;fill-opacity:1;stroke:none;stroke-width:9.63895;stroke-linecap:round"
       d="m -159.53723,56.593763 c 0,3.983094 2.94134,6.638529 4.88715,6.041028 1.17044,-0.359404 0.63638,-2.386252 4.50043,-3.869898 3.04612,-1.169588 5.41268,-0.524947 5.41268,-3.816139 0,-4.267946 -1.78216,-6.791857 -6.49825,-6.791857 -4.99333,0 -8.30201,3.268004 -8.30201,8.436866 z"
       id="path45"
       sodipodi:nodetypes="ssssss" />
    <path
       d="m -126.7841,110.57971 c 0.78,0.19 0.57,-0.08 1.3,-0.43 1.77,-0.85 3.04,-1.81 4.07,-3.48 0.48,-0.78 2.92,-7.580003 1.99,-11.350003 -0.26,-1.05 -1.2,-2.22 -1.58,-3.29 -0.1,-0.27 0.14,-0.87 0.7,-0.54 1.22,0.72 2.48,1.81 3.1,3.02 0.11,0.21 0.31,0.16 0.4,0.09 1.14,-0.93 3.36,-1.21 4.85,-1.22 0.36,0 0.3,0.26 0.21,0.38 -0.28,0.36 -0.97,0.63 -1.32,0.87 -1.86,1.25 -3.69,3.4 -3.97,5.620003 -0.1,0.8 -1.33,6.43 -1.33,10.32 0,1.94 1.41,3.46 1.73,4.25 0.57,1.42 1.51,2.27 2.08,3.7 -1.41,-1.34 -3.13,-2.3 -4.8,-3.31 -1.91,-1.16 -3.77,-2.4 -5.57,-3.73 -0.34,-0.25 -0.68,-0.5 -1.07,-0.65 -0.45,-0.17 -0.3,-0.24 -0.79,-0.25 z"
       style="fill:#2f2f2f;fill-opacity:1;stroke-width:1.071"
       id="path31-3" />
    <path
       id="path50"
       style="fill:#855c52;stroke-width:1.071"
       d="m -93.939944,15.217099 c -0.382785,-0.0071 -0.763962,-0.0069 -1.142578,0.002 -2.753571,0.06469 -5.385158,0.573441 -7.722658,1.820313 -7.65998,4.089991 -8.73512,24.895074 -8.75722,35.666496 -0.0221,10.771421 -10.16797,18.993583 -6.70177,24.192878 7.25709,10.885655 70.460255,15.800929 75.660154,-10.785156 0.818112,-4.182851 -2.12544,-6.584058 -6.06836,-8.210937 8.814657,-3.416252 12.462374,-8.733567 11.753906,-14.513672 -0.534749,-4.362799 -7.625,-5.199219 -7.625,-5.199219 2.897258,-2.02905 5.907854,-6.737959 5.458985,-11.236328 -0.53053,-5.264046 -6.763501,-5.72422 -8.824219,-5.705078 -10.09957,0.114852 -18.916661,-1.329691 -29.056641,-3.179688 -5.072451,-0.928123 -11.232829,-2.745257 -16.974609,-2.851562 z"
       sodipodi:nodetypes="cccssscscccccc" />
    <path
       id="path58"
       style="fill:#2f2f2f;fill-opacity:1;stroke-width:9.63895;stroke-linecap:round"
       d="m -81.23029,42.61163 c 2.1743,0.51093 4.36023,0.965002 6.55468,1.34375 2.64016,0.429825 5.30704,0.569002 7.9668,0.738281 2.56002,0.135157 5.1285,0.217382 11.20442,-0.87321 6.07592,-1.090593 9.45232,-2.29651 12.668621,-3.954919 0.5364,-0.246392 1.14176,-0.436711 1.63086,-0.808593 -1.7347,-0.663989 -3.337891,-0.867188 -3.337891,-0.867188 -2.04762,0.703953 -4.13439,1.244772 -6.21875,1.779297 -3.25013,0.703034 -7.58084,1.684726 -14.19952,1.731646 -8.21236,0.05822 -10.4683,-0.807822 -12.17938,-1.089068 -2.24097,-0.316644 -3.75342,-0.653506 -5.98242,-1.064453 -1.77569,-0.385884 -4.53007,-1.693968 -4.79114,-0.521282 -0.36673,1.647291 4.4138,3.078736 6.68372,3.585735 z"
       sodipodi:nodetypes="cccsccccsccscc" />
    <path
       id="path61"
       style="fill:#2f2f2f;fill-opacity:1;stroke-width:9.63895;stroke-linecap:round"
       d="m -87.398928,57.11163 c -0.462602,-0.01421 -0.787557,0.110099 -0.869141,0.476563 -0.36673,1.647289 4.413676,3.078939 6.683594,3.585937 2.174298,0.51093 4.360239,0.965003 6.554687,1.34375 2.640158,0.429825 5.30704,0.569003 7.966797,0.738281 2.560018,0.135157 5.129164,0.215591 11.205078,-0.875 4.612181,-0.82786 7.667401,-1.721834 10.279297,-2.830078 -0.908428,-0.627197 -1.949462,-1.176295 -3.09375,-1.648437 0.03999,-0.0155 0.07545,-0.03325 0.115234,-0.04883 -0.851842,0.231872 -1.704703,0.458758 -2.558593,0.677734 -3.250127,0.703033 -7.580546,1.683549 -14.199219,1.730469 -8.212352,0.05822 -10.468609,-0.806645 -12.179688,-1.087891 -2.240967,-0.316644 -3.753424,-0.653506 -5.982421,-1.064453 -1.220786,-0.265295 -2.904152,-0.966784 -3.921875,-0.998047 z" />
    <path
       d="m -131.16665,104.37575 c -0.95,1 -1.68,1.8 -2.59001,2.84 -0.26999,0.31 -0.79,1.21 -1.26999,0.99 -0.48001,-0.21 -0.91,-2.02 -1.14001,-2.47 -0.75999,-1.46 -1.82,-2.81 -3.21,-3.71 -1.29,-0.84 -2.57,-1.31 -4.33999,-1.21 -0.84,0.05 -1.79001,0.21 -2.26001,1.85 -0.29,1.02 0.61001,1.7 1.25,1.92 1.15,0.4 2.33001,0.35 3.28,1.16 2.44,2.09 3.52001,6.67 2.37,9.6 -0.47999,1.21 -1.63999,1.84 -2.87,2.24 -0.75,0.24 -2.19,1.07 -1.97999,2.82 0.21,1.74 1.65999,2.52 3.25,1.91 3.34,-1.27 5.28,-2.13 6.37,-6.26 0.31999,-1.22 0.07,-2.97 0.66999,-3.75 0.83001,-1.06 1.13,-1.46 2.86001,-2.76 1.63,-1.22 3.63999,-2.28 3.06,-4.06 -0.20001,-0.66 -2.37,-2.17 -3.45,-1.11 z"
       style="fill:#fcc21b;stroke-width:1.071"
       id="path13-3" />
    <path
       d="m -113.90665,111.13575 c -0.5,1.28 -0.89001,2.3 -1.33001,3.6 -0.12999,0.39 -0.28,1.41 -0.79999,1.4 -0.53,-0.02 -1.60001,-1.53 -1.98001,-1.86 -1.25,-1.07 -2.73999,-1.92 -4.36999,-2.23 -1.51,-0.29 -2.87,-0.24 -4.48,0.51 -0.76,0.36 -1.58,0.86 -1.4,2.57 0.11,1.06 1.2,1.35 1.88,1.31 1.22,-0.06 2.29,-0.55 3.47,-0.16 3.04,1.02 5.77,4.86 5.8,8.01 0.01,1.3 -0.83,2.32 -1.82,3.15 -0.61,0.51 -1.63,1.81 -0.77,3.36 0.85,1.53 2.49,1.71 3.73,0.55 2.62,-2.43 4.08999,-3.95 3.55,-8.2 -0.16,-1.25 -1.05,-2.78 -0.78,-3.73 0.37,-1.29 0.5,-1.77 1.62,-3.63 1.05,-1.74 2.50999,-3.48 1.31,-4.91 -0.45,-0.54 -3.03,-1.12 -3.63,0.26 z"
       style="fill:#fcc21b;stroke-width:1.071"
       id="path32-6" />
    <path
       d="m -150.04666,104.95575 c -0.44,-0.2 -0.08,-0.97 0.27001,-1.37 1.44999,-1.64 3.56,-1.87 5.24,-1.58 0.51999,0.09 0.86999,0.58 0.77999,1.11 -0.09,0.52 -0.57999,0.87 -1.10999,0.78 -1.29,-0.22 -3.02001,-0.38 -4.01,0.46 -0.28,0.24 -0.8,0.76 -1.17001,0.6 z"
       style="fill:#757575;stroke-width:1.071"
       id="path33" />
    <path
       d="m -145.13666,121.91575 c -1.20999,-0.06 -1.89999,-0.55 -2.66,-1.48 -0.32999,-0.41 -0.47999,-1 -0.29999,-1.27 0.29,-0.44 0.91,0.19 1.29,0.44 1.31999,0.88 2.68,0.53 4.06999,-0.03 0.49001,-0.2 1.05001,0.04 1.25,0.52 0.20001,0.49 -0.04,1.05 -0.52,1.25 -0.98,0.4 -2.07999,0.62 -3.13,0.57 z"
       style="fill:#757575;stroke-width:1.071"
       id="path34" />
    <path
       d="m -129.71665,118.88575 c -0.27001,0 -0.68,-0.34 -0.76,-1.4 -0.13001,-1.72 1.45999,-3.13 3.6,-3.62 0.51,-0.12 1.03,0.2 1.15,0.72 0.11999,0.52 -0.2,1.03 -0.72001,1.15 -1.07,0.25 -1.97999,0.41 -2.76999,2.19 -0.16,0.36 -0.13,0.87 -0.5,0.96 z"
       style="fill:#757575;stroke-width:1.071"
       id="path35" />
    <path
       d="m -123.18665,132.09575 c -0.47,-0.24 -0.70001,-0.56 -0.49,-0.88 0.12999,-0.21 0.71,-0.02 1.2,0.04 0.95999,0.12 2.56,-0.42 3.32,-1.25 0.35,-0.39 0.95999,-0.42 1.35,-0.06 0.39,0.36 0.47,1.01 0.06,1.35 -1.88,1.56 -5.11,0.96 -5.44,0.8 z"
       style="fill:#757575;stroke-width:1.071"
       id="path36" />
  </g>
</svg>
