<?xml version="1.0" encoding="UTF-8" standalone="no"?>
<svg
   width="128"
   height="128"
   style="enable-background:new 0 0 128 128;"
   version="1.1"
   id="svg18136"
   sodipodi:docname="emoji_u1f92b.svg"
   inkscape:version="1.2.2 (732a01da63, 2022-12-09)"
   xmlns:inkscape="http://www.inkscape.org/namespaces/inkscape"
   xmlns:sodipodi="http://sodipodi.sourceforge.net/DTD/sodipodi-0.dtd"
   xmlns="http://www.w3.org/2000/svg"
   xmlns:svg="http://www.w3.org/2000/svg">
  <defs
     id="defs18140" />
  <sodipodi:namedview
     id="namedview18138"
     pagecolor="#ffffff"
     bordercolor="#000000"
     borderopacity="0.25"
     inkscape:showpageshadow="2"
     inkscape:pageopacity="0.0"
     inkscape:pagecheckerboard="0"
     inkscape:deskcolor="#d1d1d1"
     showgrid="false"
     inkscape:zoom="5.9993592"
     inkscape:cx="60.589804"
     inkscape:cy="90.509666"
     inkscape:window-width="1366"
     inkscape:window-height="697"
     inkscape:window-x="-8"
     inkscape:window-y="-8"
     inkscape:window-maximized="1"
     inkscape:current-layer="svg18136" />
  <path
     d="M 64,9.64 C 1.69,9.64 0.21,79.5 0.21,93.33 c 0,13.83 28.56,25.03 63.79,25.03 35.24,0 63.79,-11.21 63.79,-25.03 C 127.79,79.5 126.32,9.64 64,9.64 Z"
     style="fill:#fcc21b"
     id="path18126" />
  <g
     id="g23143"
     transform="matrix(0.92718071,-0.9271807,0.9271807,0.92718071,177.41987,110.36306)"
     style="stroke-width:0.762642" />
  <g
     id="g11270"
     transform="translate(-0.20519794,-1.3257189)">
    <path
       d="m 52.394192,82.332877 c 5.626193,4.469593 17.165422,4.469593 22.791616,0"
       style="clip-rule:evenodd;fill:none;fill-rule:nonzero;stroke:#2f2f2f;stroke-width:5.24183px;stroke-linecap:round;stroke-miterlimit:10"
       id="path33798" />
    <g
       id="g11261">
      <path
         d="m 42.210117,66.470276 c -4.49,0.04 -8.17,-4.27 -8.22,-9.62 -0.05,-5.37 3.55,-9.75 8.04,-9.79 4.48,-0.04 8.17,4.27 8.22,9.64 0.05,5.36 -3.55,9.73 -8.04,9.77 z m 44.109999,0 c 4.48,-0.01 8.11,-4.36 8.1,-9.71 -0.01,-5.37 -3.66,-9.7 -8.14,-9.69 -4.49,0.01 -8.129999,4.36 -8.119999,9.73 0.02,5.35 3.669999,9.68 8.159999,9.67 z"
         style="clip-rule:evenodd;fill:#2f2f2f;fill-rule:nonzero;stroke-linejoin:round;stroke-miterlimit:2"
         id="path18522" />
      <g
         transform="matrix(1.13352,0,0,0.833333,38.546317,11.500277)"
         id="g18530"
         style="clip-rule:evenodd;fill-rule:evenodd;stroke-linejoin:round;stroke-miterlimit:2">
        <ellipse
           cx="42.119999"
           cy="69"
           rx="11.88"
           ry="6"
           style="fill:#fcc21b"
           id="ellipse18528" />
      </g>
      <g
         transform="matrix(1.13352,0,0,0.833333,-5.6236435,11.500277)"
         id="g18534"
         style="clip-rule:evenodd;fill-rule:evenodd;stroke-linejoin:round;stroke-miterlimit:2">
        <ellipse
           cx="42.119999"
           cy="69"
           rx="11.88"
           ry="6"
           style="fill:#fcc21b"
           id="ellipse18532" />
      </g>
    </g>
  </g>
  <g
     id="g12284"
     transform="matrix(0.20378475,0,0,0.20571512,7.7394693,14.52501)"
     style="clip-rule:evenodd;fill-rule:evenodd;stroke-width:4.88406;stroke-miterlimit:10">
    <path
       d="m 142.971,359.142 c 12.943,-6.51 25.42,7.553 33.871,27.846 3.574,8.584 11.808,25.275 11.808,25.275 5.333,11.416 -2.983,15.67 -12.179,27.308 l -1.783,2.258 c -9.196,11.638 -25.98,-1.096 -30.667,-12.791 l -11.008,-27.492 c -4.688,-11.708 -8.021,-33.363 9.958,-42.404 z"
       style="fill:none;fill-rule:nonzero;stroke:#2f2f2f;stroke-width:46.3986;stroke-dasharray:none;stroke-opacity:1"
       id="path12269" />
    <path
       d="m 142.971,359.142 c 12.943,-6.51 25.42,7.553 33.871,27.846 3.574,8.584 11.808,25.275 11.808,25.275 5.333,11.416 -2.983,15.67 -12.179,27.308 l -1.783,2.258 c -9.196,11.638 -25.98,-1.096 -30.667,-12.791 l -11.008,-27.492 c -4.688,-11.708 -8.021,-33.363 9.958,-42.404 z"
       style="fill:#fcc21b;fill-rule:nonzero;stroke:none;stroke-width:61.0507px"
       id="path11765" />
    <path
       d="m 297.696,464.763 c 5.521,-0.25 -3.584,-9.588 -3.459,-13.817 0.242,-8.896 0.288,-123.163 0.617,-135.408 0.236,-8.76 -1.674,-32.813 -20.598,-32.813 -16.158,0 -22.358,7.382 -23.602,41.513 -0.856,23.501 -2.687,86.691 -6.587,95.462 -2.771,6.233 -27.7,10.888 -23.992,15.933 6.75,9.175 37.033,7.084 46.558,13.271 9.875,6.413 19.492,16.392 31.063,15.859 z"
       style="fill:none;fill-rule:nonzero;stroke:#2f2f2f;stroke-width:46.3986;stroke-linecap:round;stroke-linejoin:round;stroke-dasharray:none;stroke-opacity:1"
       id="path12271" />
    <path
       d="m 297.696,464.763 c 5.521,-0.25 -3.584,-9.588 -3.459,-13.817 0.242,-8.896 0.288,-123.163 0.617,-135.408 0.236,-8.76 -1.674,-32.813 -20.598,-32.813 -16.158,0 -22.358,7.382 -23.602,41.513 -0.856,23.501 -2.687,86.691 -6.587,95.462 -2.771,6.233 -27.7,10.888 -23.992,15.933 6.75,9.175 37.033,7.084 46.558,13.271 9.875,6.413 19.492,16.392 31.063,15.859 z"
       style="fill:#fcc21b;fill-rule:nonzero;stroke:none;stroke-width:61.0507px;stroke-linecap:round;stroke-linejoin:round"
       id="path11767" />
    <path
       d="m 173.846,515.042 c -2.733,-0.334 -6.342,-2.992 -6.342,-5.292 l -1.058,-28.875 c 0,-2.292 4.704,-6.888 7.475,-7.217 3.354,-0.4 8.421,3.9 8.421,6.638 l -1.059,29.166 c -0.033,2.696 -4.116,5.98 -7.437,5.58 z"
       style="fill:#eda600;fill-rule:nonzero;stroke-width:6.59967"
       id="path11769" />
    <path
       d="m 284.829,407.558 c -40.833,-28.583 -83.054,-33.212 -119.042,-9.004 -27.375,18.45 -41.266,28.621 -49.141,52.575 -8.609,26.321 5.833,36.967 6.233,48.45 0.692,20.75 24.1,28.584 24.9,31.834 2.954,11.666 -4.996,63.17231 85.75,60.45331 90.746,-2.719 106.646,-145.54931 51.3,-184.30831 z"
       style="fill:none;fill-rule:nonzero;stroke:#2f2f2f;stroke-width:46.3986;stroke-dasharray:none;stroke-opacity:1"
       id="path12267"
       sodipodi:nodetypes="cccccsc" />
    <path
       d="m 284.829,407.558 c -40.833,-28.583 -83.054,-33.212 -119.042,-9.004 -27.375,18.45 -41.266,28.621 -49.141,52.575 -8.609,26.321 5.833,36.967 6.233,48.45 0.692,20.75 24.1,28.584 24.9,31.834 2.954,11.666 -4.996,63.17231 85.75,60.45331 90.746,-2.719 106.646,-145.54931 51.3,-184.30831 z"
       style="fill:#fcc21b;fill-rule:nonzero;stroke:none;stroke-width:61.0507px"
       id="path11771"
       sodipodi:nodetypes="cccccsc" />
    <g
       id="path11773">
      <path
         style="color:#000000;clip-rule:nonzero;fill:#fcc21b;fill-rule:nonzero;stroke-width:17.0942;stroke-linecap:round;stroke-linejoin:round;-inkscape-stroke:none"
         d="m 196.958,424.875 c -29.625,15.383 -77.354,51.5 -70.583,76.783 2.65,9.888 5.033,16.846 17.979,20.054"
         id="path16082" />
      <path
         style="color:#000000;clip-rule:nonzero;fill:#2f2f2f;fill-rule:nonzero;stroke-linecap:round;stroke-linejoin:round;-inkscape-stroke:none"
         d="m 199.14674,422.68962 c -10.90221,3.1039 -41.42665,15.7923 -57.02955,30.68147 -7.80145,7.44459 -14.58503,15.30605 -19.20899,23.63868 -4.62396,8.33262 -7.26247,17.62363 -4.78906,26.85937 v 0.002 c 1.36106,5.07857 2.77198,10.43961 6.55859,15.46289 3.78662,5.02329 9.86663,8.75229 17.6211,10.67383 4.58167,1.13513 9.2161,-1.65865 10.35156,-6.24023 1.13513,-4.58167 -1.65865,-9.2161 -6.24023,-10.35156 -5.19152,-1.28646 -6.77816,-2.64139 -8.08204,-4.3711 -1.30368,-1.72945 -2.40857,-4.78947 -3.69726,-9.59765 v -0.002 c -0.91135,-3.4056 -0.12147,-8.1108 3.22461,-14.14062 3.34666,-6.03086 9.07496,-12.89851 16.0625,-19.56641 13.97507,-13.3358 38.42897,-29.62255 48.25406,-32.45866 2.92981,-0.84572 7.08766,-3.30661 5.758,-7.22103 -1.32282,-3.89425 -4.04824,-4.71706 -8.78329,-3.36898 z"
         id="path16084"
         sodipodi:nodetypes="sssccscccsccsssss" />
    </g>
    <path
       d="m 136.804,434.833 c -2.696,0 -18.046,70.834 -18.046,70.834 l 42.4,53.487 49.146,-26.941 21.95,-77.73 15.933,-2.408 -0.983,-6.962 5.688,-28.33 -104.346,-4.558 z"
       style="fill:none;fill-rule:nonzero;stroke-width:6.59967"
       id="path11775" />
    <path
       style="color:#000000;clip-rule:nonzero;fill:#2f2f2f;fill-rule:nonzero;stroke-linecap:round;stroke-linejoin:round;-inkscape-stroke:none"
       d="m 162.85352,481.20508 c -8.90164,8.67437 -15.88962,18.49569 -19.26563,29.1875 -3.37601,10.69181 -2.67003,22.71153 4.05469,32.74219 l 0.002,0.002 c 2.57668,3.84188 6.89616,6.69164 11.19922,7.48047 4.30306,0.78882 8.23976,0.007 11.89258,-1.21094 7.30564,-2.43536 14.18063,-6.91091 21.25195,-11.54492 4.80444,-3.14846 9.52271,-6.20443 14.07617,-8.97852 -1.267,4.66568 -1.99089,9.53041 -2.15234,14.32617 -0.50446,14.98486 10.74735,31.17392 20.39533,35.64373 2.86395,1.32684 6.26139,0.0807 7.58824,-2.78321 1.32684,-2.86395 -0.81577,-5.13652 -2.78323,-7.58823 -7.20418,-8.97736 -8.47964,-13.90669 -8.11636,-24.69807 0.36329,-10.79137 5.40702,-20.84941 10.35352,-23.41992 7.21354,-3.75137 5.60948,-14.50536 -2.38482,-15.98833 -8.85953,-1.64128 -16.84667,1.64412 -24.45117,5.60156 -7.6045,3.95745 -15.0377,9.09316 -21.89648,13.58789 -6.85879,4.49473 -13.28436,8.29067 -17.28711,9.625 -2.00138,0.66717 -3.22021,0.64703 -3.4043,0.61328 -0.18179,-0.0333 0.29139,0.37948 -0.084,-0.1875 l -0.002,-0.002 c -3.73232,-5.56854 -4.14734,-11.11895 -1.95117,-18.07422 2.19648,-6.95623 7.47464,-14.85944 14.89649,-22.09179 14.84368,-14.46472 46.45012,-33.60959 57.03833,-36.78341 3.79946,-1.13889 5.0709,-3.07988 4.53204,-5.75503 -0.53886,-2.67514 -2.71766,-4.3501 -6.9366,-3.58239 -8.41273,1.53084 -48.76207,16.52994 -66.56535,33.87869 z"
       id="path11777"
       sodipodi:nodetypes="ssccscscsssssccssssccssssss" />
    <path
       d="m 139.5,488.533 51.483,-47.87 88.559,14.695 13.962,13.05 -7.729,12.25 -44.479,19.98 c 3.937,0.912 23.954,115.645 -27.746,103.833 -15.204,-3.458 -83.488,-57.708 -83.488,-57.708 z"
       style="fill:none;fill-rule:nonzero;stroke-width:6.59967"
       id="path11779" />
  </g>
</svg>
