<?xml version="1.0" encoding="UTF-8" standalone="no"?>
<svg
   width="128"
   height="128"
   style="enable-background:new 0 0 128 128;"
   version="1.1"
   id="svg33212"
   sodipodi:docname="emoji_u1f518.svg"
   inkscape:version="1.2.2 (732a01da63, 2022-12-09)"
   xmlns:inkscape="http://www.inkscape.org/namespaces/inkscape"
   xmlns:sodipodi="http://sodipodi.sourceforge.net/DTD/sodipodi-0.dtd"
   xmlns="http://www.w3.org/2000/svg"
   xmlns:svg="http://www.w3.org/2000/svg">
  <defs
     id="defs33216">
    <defs
       id="defs33193">
      <path
         id="SVGID_1_"
         d="m 6.26,37.74 c -6.09,13.56 -7.75,31.35 -4.24,45.7 3.99,16.28 16.87,29.77 32.14,36.19 12.91,5.44 26.79,7.58 40.74,5.93 5.12,-0.6 10.3,-1.84 15.14,-3.63 15.16,-5.61 27.92,-18.19 33.76,-33.29 1.89,-4.89 3.09,-10.43 3.61,-15.65 C 131.11,35.9 107.73,7.34 75.47,2.63 47.76,-1.41 18.06,11.43 6.26,37.74 Z" />
    </defs>
  </defs>
  <sodipodi:namedview
     id="namedview33214"
     pagecolor="#ffffff"
     bordercolor="#000000"
     borderopacity="0.25"
     inkscape:showpageshadow="2"
     inkscape:pageopacity="0.0"
     inkscape:pagecheckerboard="0"
     inkscape:deskcolor="#d1d1d1"
     showgrid="false"
     inkscape:zoom="2.1210938"
     inkscape:cx="-6.6003683"
     inkscape:cy="71.189687"
     inkscape:window-width="1366"
     inkscape:window-height="697"
     inkscape:window-x="-8"
     inkscape:window-y="-8"
     inkscape:window-maximized="1"
     inkscape:current-layer="svg33212" />
  <g
     id="g34043">
    <path
       id="use33195"
       style="fill:#196ca2;fill-opacity:1"
       d="M 65.023438 1.9003906 C 63.611204 1.9068056 62.202031 1.9663342 60.794922 2.0566406 C 60.617775 2.0680084 60.440691 2.0752012 60.263672 2.0878906 C 58.933515 2.1832485 57.607605 2.3206722 56.287109 2.4902344 C 56.042579 2.5216326 55.798798 2.553963 55.554688 2.5878906 C 54.238171 2.7708683 52.928673 2.9860831 51.626953 3.2421875 C 51.437576 3.2794431 51.249558 3.3205807 51.060547 3.359375 C 48.34244 3.9172847 45.66409 4.6353509 43.042969 5.5078125 C 42.845758 5.5734535 42.647713 5.6357242 42.451172 5.703125 C 41.206964 6.1298147 39.978523 6.5950071 38.763672 7.0917969 C 38.539775 7.1833502 38.316564 7.2752211 38.09375 7.3691406 C 36.88819 7.8773266 35.696695 8.4171182 34.525391 8.9941406 C 34.33898 9.0859721 34.156184 9.1837795 33.970703 9.2773438 C 32.765857 9.8851123 31.576932 10.518803 30.414062 11.199219 C 30.396226 11.209654 30.377201 11.218063 30.359375 11.228516 C 29.672823 11.631093 28.996742 12.048862 28.326172 12.476562 C 28.061845 12.645155 27.802754 12.821663 27.541016 12.994141 C 27.123165 13.269488 26.705978 13.546815 26.294922 13.832031 C 26.028982 14.016562 25.766919 14.205884 25.503906 14.394531 C 25.102964 14.682096 24.704494 14.972433 24.310547 15.269531 C 24.050713 15.465496 23.793816 15.665137 23.537109 15.865234 C 23.1566 16.161828 22.779706 16.461935 22.40625 16.767578 C 22.144328 16.981935 21.883362 17.197223 21.625 17.416016 C 21.259731 17.725344 20.898988 18.041211 20.541016 18.359375 C 20.291076 18.581527 20.041217 18.802853 19.794922 19.029297 C 19.409492 19.383635 19.032528 19.746518 18.65625 20.111328 C 18.453558 20.307853 18.246849 20.499666 18.046875 20.699219 C 17.475664 21.269204 16.913595 21.848784 16.365234 22.443359 C 15.81763 23.037114 15.28358 23.645567 14.759766 24.263672 C 14.569751 24.487897 14.387966 24.719852 14.201172 24.947266 C 13.872011 25.347988 13.543565 25.749567 13.224609 26.160156 C 13.023328 26.419277 12.827992 26.68423 12.630859 26.947266 C 12.335338 27.34157 12.041872 27.737555 11.755859 28.140625 C 11.554958 28.423749 11.358226 28.710614 11.162109 28.998047 C 10.877955 29.414509 10.600085 29.836244 10.326172 30.261719 C 10.161619 30.517325 9.9967268 30.772403 9.8359375 31.03125 C 9.551526 31.489103 9.2763221 31.953919 9.0039062 32.421875 C 8.8464543 32.692352 8.6865736 32.960536 8.5332031 33.234375 C 8.2607423 33.720834 7.9995783 34.215861 7.7402344 34.712891 C 7.611787 34.959059 7.4767365 35.200467 7.3515625 35.449219 C 6.9730657 36.201391 6.6076559 36.964557 6.2597656 37.740234 C 2.8341475 45.367719 0.81093911 54.332504 0.3203125 63.271484 C 0.32027696 63.272132 0.32034803 63.27279 0.3203125 63.273438 C 0.10239109 67.245665 0.18670545 71.212792 0.5859375 75.054688 C 0.59712693 75.162392 0.61331624 75.267495 0.625 75.375 C 0.82178287 77.185266 1.0836253 78.970497 1.421875 80.710938 C 1.6010379 81.632808 1.8001567 82.54258 2.0195312 83.439453 C 2.2415945 84.345516 2.5011896 85.239096 2.7773438 86.126953 C 2.8568414 86.382753 2.9415362 86.636399 3.0253906 86.890625 C 3.2520561 87.577192 3.4941514 88.257125 3.7519531 88.931641 C 3.8360316 89.151911 3.9126855 89.374804 4 89.59375 C 4.328082 90.415278 4.680206 91.227336 5.0527344 92.029297 C 5.1827486 92.309642 5.3217612 92.585418 5.4570312 92.863281 C 5.7252162 93.413225 6.0026762 93.958187 6.2910156 94.498047 C 6.459388 94.81388 6.6276564 95.129122 6.8027344 95.441406 C 7.1232155 96.011986 7.4584733 96.574523 7.8007812 97.132812 C 8.1075603 97.634088 8.4243122 98.128134 8.7480469 98.619141 C 9.0070649 99.011263 9.267585 99.401764 9.5371094 99.787109 C 9.8315891 100.20892 10.132769 100.62559 10.439453 101.03906 C 10.631203 101.29711 10.827049 101.55193 11.023438 101.80664 C 12.199118 103.33426 13.456369 104.79895 14.787109 106.19922 C 14.913811 106.33235 15.039964 106.46574 15.167969 106.59766 C 17.183371 108.67755 19.356376 110.60326 21.660156 112.35742 C 25.524722 115.30001 29.736366 117.77096 34.160156 119.63086 C 47.070143 125.07085 60.950405 127.21055 74.900391 125.56055 C 80.020386 124.96055 85.199067 123.71969 90.039062 121.92969 C 105.19905 116.31969 117.96079 103.74061 123.80078 88.640625 C 125.69078 83.75063 126.89016 78.210229 127.41016 72.990234 C 129.51885 51.85203 122.8227 33.493533 110.70898 20.732422 C 110.69566 20.718386 110.68131 20.705428 110.66797 20.691406 C 108.45239 18.361971 106.05518 16.222726 103.49805 14.285156 C 103.40259 14.212773 103.30879 14.138219 103.21289 14.066406 C 102.66319 13.655103 102.10514 13.255623 101.54102 12.863281 C 101.3704 12.744518 101.19925 12.626775 101.02734 12.509766 C 100.51877 12.163922 100.00604 11.824467 99.486328 11.494141 C 99.232363 11.332561 98.975325 11.175408 98.71875 11.017578 C 98.21435 10.707613 97.707653 10.400784 97.193359 10.105469 C 96.975185 9.9800553 96.753126 9.8610291 96.533203 9.7382812 C 95.98672 9.4336 95.441831 9.1278983 94.884766 8.8398438 C 94.87831 8.8365054 94.871692 8.8334143 94.865234 8.8300781 C 94.746202 8.7685125 94.623414 8.7131428 94.503906 8.6523438 C 93.431663 8.1074634 92.337783 7.59747 91.228516 7.1152344 C 90.878438 6.9628692 90.531367 6.8042046 90.177734 6.6582031 C 89.758482 6.4853049 89.332342 6.3259884 88.908203 6.1621094 C 88.461269 5.9892349 88.014747 5.8170359 87.5625 5.6542969 C 87.16581 5.5116986 86.76591 5.3769199 86.365234 5.2421875 C 85.885935 5.0808472 85.404803 4.9233881 84.919922 4.7734375 C 84.509507 4.6466439 84.097898 4.5228601 83.683594 4.4042969 C 83.185453 4.2616054 82.683325 4.1286974 82.179688 3.9980469 C 81.787308 3.8963414 81.39562 3.7935564 81 3.6992188 C 80.4479 3.5674723 79.890295 3.4492553 79.332031 3.3320312 C 78.96724 3.2554759 78.605621 3.1718679 78.238281 3.1015625 C 77.323092 2.9263236 76.401185 2.7667109 75.470703 2.6308594 C 73.738832 2.3783599 71.99882 2.1917846 70.255859 2.0703125 C 68.513295 1.9488551 66.766981 1.8924707 65.023438 1.9003906 z " />
    <g
       id="g33208">
      <path
         d="m 25.13,48.12 c -6.15,13.22 -5.67,31.37 3.75,42.86 4.33,5.27 10.07,9.31 16.3,12.04 16.35,7.15 37.49,3.92 49.87,-9.41 11.7,-12.6 15.2,-33.67 5.94,-48.65 C 98.28,40.57 94.08,35.52 89.81,32.56 84.82,29.12 77.76,26.12 71.74,25.28 53.08,22.65 33.08,31 25.13,48.12 Z"
         style="fill:#ffffff"
         id="path33204" />
      <path
         d="m 46.028637,55.921363 c -4.56,9.62 -0.72,23.21 10.06,27.1 12.29,4.44 25.94,-1.36 28.37,-14.75 1.47,-8.11 -3.23,-17.79 -10.35,-21.6 -7.71,-4.12 -18.05,-1.69 -24.16,3.9 -1.68,1.54 -2.98,3.36 -3.92,5.35 z"
         style="fill:#196ca2;fill-opacity:1"
         id="path33206"
         sodipodi:nodetypes="cccccc" />
    </g>
  </g>
</svg>
