<?xml version="1.0" encoding="UTF-8" standalone="no"?>
<svg
   width="128"
   height="128"
   style="enable-background:new 0 0 128 128;"
   version="1.1"
   id="svg18136"
   sodipodi:docname="emoji_u1f92b.svg"
   inkscape:version="1.2.2 (732a01da63, 2022-12-09)"
   xmlns:inkscape="http://www.inkscape.org/namespaces/inkscape"
   xmlns:sodipodi="http://sodipodi.sourceforge.net/DTD/sodipodi-0.dtd"
   xmlns="http://www.w3.org/2000/svg"
   xmlns:svg="http://www.w3.org/2000/svg">
  <defs
     id="defs18140">
    <radialGradient
       id="SVGID_3_"
       cx="65.467796"
       cy="50.8256"
       r="41.894699"
       gradientTransform="matrix(0.0773,0.997,0.7189,-0.0558,-84.644607,27.542833)"
       gradientUnits="userSpaceOnUse">
		<stop
   offset="0"
   style="stop-color:#FFF176"
   id="stop12568" />

		<stop
   offset="0.1478"
   style="stop-color:#FFEE6E"
   id="stop12570" />

		<stop
   offset="0.3769"
   style="stop-color:#FFE658"
   id="stop12572" />

		<stop
   offset="0.6585"
   style="stop-color:#FFD835"
   id="stop12574" />

		<stop
   offset="0.9793"
   style="stop-color:#FFC503"
   id="stop12576" />

		<stop
   offset="1"
   style="stop-color:#FFC400"
   id="stop12578" />

	</radialGradient>
  </defs>
  <sodipodi:namedview
     id="namedview18138"
     pagecolor="#ffffff"
     bordercolor="#000000"
     borderopacity="0.25"
     inkscape:showpageshadow="2"
     inkscape:pageopacity="0.0"
     inkscape:pagecheckerboard="0"
     inkscape:deskcolor="#d1d1d1"
     showgrid="false"
     inkscape:zoom="2.9996796"
     inkscape:cx="62.67336"
     inkscape:cy="88.009399"
     inkscape:window-width="1366"
     inkscape:window-height="697"
     inkscape:window-x="-8"
     inkscape:window-y="-8"
     inkscape:window-maximized="1"
     inkscape:current-layer="svg18136" />
  <path
     d="M 64,9.64 C 1.69,9.64 0.21,79.5 0.21,93.33 c 0,13.83 28.56,25.03 63.79,25.03 35.24,0 63.79,-11.21 63.79,-25.03 C 127.79,79.5 126.32,9.64 64,9.64 Z"
     style="fill:#fcc21b"
     id="path18126" />
  <g
     id="g23143"
     transform="matrix(0.92718071,-0.9271807,0.9271807,0.92718071,177.41987,110.36306)"
     style="stroke-width:0.762642" />
  <g
     id="g11270"
     transform="translate(-0.20519794,-9.3404517)">
    <path
       d="m 52.394192,83.747242 c 5.626193,4.469593 17.165422,4.469593 22.791616,0"
       style="clip-rule:evenodd;fill:none;fill-rule:nonzero;stroke:#2f2f2f;stroke-width:5.24183px;stroke-linecap:round;stroke-miterlimit:10"
       id="path33798" />
    <g
       id="g11261">
      <path
         d="m 42.210117,71.184825 c -4.49,0.04 -8.17,-4.27 -8.22,-9.62 -0.05,-5.37 3.55,-9.75 8.04,-9.79 4.48,-0.04 8.17,4.27 8.22,9.64 0.05,5.36 -3.55,9.73 -8.04,9.77 z m 44.109999,0 c 4.48,-0.01 8.11,-4.36 8.1,-9.71 -0.01,-5.37 -3.66,-9.7 -8.14,-9.69 -4.49,0.01 -8.129999,4.36 -8.119999,9.73 0.02,5.35 3.669999,9.68 8.159999,9.67 z"
         style="clip-rule:evenodd;fill:#2f2f2f;fill-rule:nonzero;stroke-linejoin:round;stroke-miterlimit:2"
         id="path18522" />
      <g
         transform="matrix(1.13352,0,0,0.833333,38.546317,11.500277)"
         id="g18530"
         style="clip-rule:evenodd;fill-rule:evenodd;stroke-linejoin:round;stroke-miterlimit:2">
        <ellipse
           cx="42.119999"
           cy="74.657463"
           rx="11.88"
           ry="6"
           style="fill:#fcc21b"
           id="ellipse18528" />
      </g>
      <g
         transform="matrix(1.13352,0,0,0.833333,-5.6236435,11.500277)"
         id="g18534"
         style="clip-rule:evenodd;fill-rule:evenodd;stroke-linejoin:round;stroke-miterlimit:2">
        <ellipse
           cx="42.119999"
           cy="74.657463"
           rx="11.88"
           ry="6"
           style="fill:#fcc21b"
           id="ellipse18532" />
      </g>
    </g>
  </g>
  <g
     id="g13629"
     transform="matrix(0.82093012,0,0,0.83159714,18.826022,-3.223785)"
     style="stroke-width:1.21029">
    <path
       id="path13625"
       style="fill:none;fill-opacity:1;stroke:#2f2f2f;stroke-width:11.4978;stroke-dasharray:none;stroke-opacity:1"
       d="m 53.196929,84.444133 c -1.379998,0.149999 -1.950156,0.479223 -2.160156,5.199218 -0.17,3.859996 0.911399,14.480559 -6.808594,26.810549 -4.279995,6.82998 -6.737157,13.18699 -6.737157,16.85016 0,2.51318 0.134764,6.63678 1.971532,9.67132 6.321253,10.44339 22.577198,8.80653 26.744141,5.45898 3.549996,-2.85 4.089843,-6.03187 3.339844,-5.67187 -1.229999,0.59 -2.889535,1.16015 -5.769532,-0.83985 -1.909998,-2.06999 -1.978018,-5.69729 -0.128906,-6.88867 1.130886,-0.72863 2.926547,-0.98976 3.094811,-0.36179 0.168264,0.62797 -0.557625,0.77816 -1.504967,1.64109 -1.072665,0.97708 -0.509999,3.02969 0.5,3.92969 0.459999,0.44 3.139611,1.36124 4.849609,-1.46875 2.349998,-3.88 2.319686,-5.53055 0.429688,-7.81055 -0.67518,-0.88038 -3.041688,-3.14588 -7.13142,-2.80197 -4.405306,0.37046 -7.377475,4.29988 -8.178433,3.83745 -0.800958,-0.46244 0.420558,-2.01486 2.280556,-3.64486 1.13455,-0.98287 3.973518,-2.44801 7.080747,-2.74717 2.014195,-0.19392 4.141113,0.1021 5.989565,1.33702 1.569999,-3.11 1.769216,-7.06016 -1.800781,-8.66015 -2.2902,-0.81686 -5.097732,-0.25513 -7.797108,0.73513 -3.719946,1.36467 -6.756063,3.83719 -7.122814,3.29416 -0.366751,-0.54303 0.489143,-1.40946 2.119141,-2.93946 1.629998,-1.52999 9.631646,-6.92077 15.43164,-3.05077 0.11,-5.52 -2.940161,-8.58906 -8.660156,-7.78906 -8.739991,1.22999 -11.561087,6.5612 -12.451172,5.01953 -0.890085,-1.54168 4.841095,-4.69938 6.121094,-6.10938 1.319999,-1.46 1.43961,-4.5311 1.59961,-8.621091 0.369999,-9.479991 -0.790786,-14.398906 -5.300782,-14.378906 z m 22.34375,35.984367 c -0.230722,0.009 -0.468516,0.0272 -0.71289,0.0547 1.029999,3.21 -0.621173,6.88063 -1.451172,8.64062 0.709999,0.85 1.151641,1.91969 1.43164,3.17969 0.744827,0.0185 1.37309,-0.0404 1.916016,-0.13476 3.52897,-0.80696 5.542586,-4.08181 4.664062,-7.94532 -0.459374,-2.02499 -2.386819,-3.92763 -5.847656,-3.79492 z"
       sodipodi:nodetypes="cccsscccszscccszcsccszscczcccscccccss" />
    <path
       id="path12581"
       style="fill:#fcc21b;fill-opacity:1;stroke:none;stroke-width:11.4978;stroke-dasharray:none;stroke-opacity:1"
       d="m 53.196929,84.444133 c -1.379998,0.149999 -1.950156,0.479223 -2.160156,5.199218 -0.17,3.859996 0.911399,14.480559 -6.808594,26.810549 -4.279995,6.82998 -6.737157,13.18699 -6.737157,16.85016 0,2.51318 0.134764,6.63678 1.971532,9.67132 6.321253,10.44339 22.577198,8.80653 26.744141,5.45898 3.549996,-2.85 4.089843,-6.03187 3.339844,-5.67187 -1.229999,0.59 -2.889535,1.16015 -5.769532,-0.83985 -1.909998,-2.06999 -1.978018,-5.69729 -0.128906,-6.88867 1.130886,-0.72863 2.926547,-0.98976 3.094811,-0.36179 0.168264,0.62797 -0.557625,0.77816 -1.504967,1.64109 -1.072665,0.97708 -0.509999,3.02969 0.5,3.92969 0.459999,0.44 3.139611,1.36124 4.849609,-1.46875 2.349998,-3.88 2.319686,-5.53055 0.429688,-7.81055 -0.67518,-0.88038 -3.041688,-3.14588 -7.13142,-2.80197 -4.405306,0.37046 -7.377475,4.29988 -8.178433,3.83745 -0.800958,-0.46244 0.420558,-2.01486 2.280556,-3.64486 1.13455,-0.98287 3.973518,-2.44801 7.080747,-2.74717 2.014195,-0.19392 4.141113,0.1021 5.989565,1.33702 1.569999,-3.11 1.769216,-7.06016 -1.800781,-8.66015 -2.2902,-0.81686 -5.097732,-0.25513 -7.797108,0.73513 -3.719946,1.36467 -6.756063,3.83719 -7.122814,3.29416 -0.366751,-0.54303 0.489143,-1.40946 2.119141,-2.93946 1.629998,-1.52999 9.631646,-6.92077 15.43164,-3.05077 0.11,-5.52 -2.940161,-8.58906 -8.660156,-7.78906 -8.739991,1.22999 -11.561087,6.5612 -12.451172,5.01953 -0.890085,-1.54168 4.841095,-4.69938 6.121094,-6.10938 1.319999,-1.46 1.43961,-4.5311 1.59961,-8.621091 0.369999,-9.479991 -0.790786,-14.398906 -5.300782,-14.378906 z m 22.34375,35.984367 c -0.230722,0.009 -0.468516,0.0272 -0.71289,0.0547 1.029999,3.21 -0.621173,6.88063 -1.451172,8.64062 0.709999,0.85 1.151641,1.91969 1.43164,3.17969 0.744827,0.0185 1.37309,-0.0404 1.916016,-0.13476 3.52897,-0.80696 5.542586,-4.08181 4.664062,-7.94532 -0.459374,-2.02499 -2.386819,-3.92763 -5.847656,-3.79492 z"
       sodipodi:nodetypes="cccsscccszscccszcsccszscczcccscccccss" />
  </g>
</svg>
