<?xml version="1.0" encoding="UTF-8" standalone="no"?>
<svg
   width="128"
   height="128"
   version="1.1"
   id="svg3"
   sodipodi:docname="emoji_u1f611.svg"
   xml:space="preserve"
   inkscape:version="1.3 (0e150ed6c4, 2023-07-21)"
   xmlns:inkscape="http://www.inkscape.org/namespaces/inkscape"
   xmlns:sodipodi="http://sodipodi.sourceforge.net/DTD/sodipodi-0.dtd"
   xmlns="http://www.w3.org/2000/svg"
   xmlns:svg="http://www.w3.org/2000/svg"><defs
     id="defs3" /><sodipodi:namedview
     id="namedview3"
     pagecolor="#ffffff"
     bordercolor="#000000"
     borderopacity="0.25"
     inkscape:showpageshadow="2"
     inkscape:pageopacity="0.0"
     inkscape:pagecheckerboard="0"
     inkscape:deskcolor="#d1d1d1"
     inkscape:zoom="8.515625"
     inkscape:cx="64"
     inkscape:cy="64"
     inkscape:current-layer="svg3" /><g
     id="g6">&#10;	<g
   id="g5">&#10;		<g
   id="g4">&#10;			<g
   id="g2">&#10;				<g
   id="g1">&#10;					<path
   fill="#fcc21b"
   d="M 64,9.9 C 1.99,9.9 0.51,79.42 0.51,93.19 c 0,13.76 28.43,24.91 63.49,24.91 35.07,0 63.49,-11.16 63.49,-24.91 C 127.49,79.42 126.02,9.9 64,9.9 Z"
   id="path1" />&#10;				</g>&#10;				<path
   fill="#2f2f2f"
   d="M 77.51,93.75 H 49.78 c -1.82,0 -3.29,-1.49 -3.29,-3.3 0,-1.82 1.47,-3.29 3.29,-3.29 h 27.73 c 1.83,0 3.3,1.47 3.3,3.29 0,1.82 -1.47,3.3 -3.3,3.3 z"
   id="path2" />&#10;			</g>&#10;			<g
   id="g3">&#10;				<path
   fill="#2f2f2f"
   d="M 50.54,70 H 27.07 c -1.66,0 -3.01,-1.35 -3.01,-3.01 0,-1.66 1.35,-3.01 3.01,-3.01 h 23.47 c 1.68,0 3.01,1.35 3.01,3.01 0,1.66 -1.34,3.01 -3.01,3.01 z"
   id="path3" />&#10;			</g>&#10;		</g>&#10;	</g>&#10;	<path
   fill="#2f2f2f"
   d="M 98.17,69.94 H 74.7 c -1.66,0 -3.01,-1.35 -3.01,-3.01 0,-1.66 1.35,-3.01 3.01,-3.01 h 23.47 c 1.67,0 3.01,1.35 3.01,3.01 0,1.66 -1.35,3.01 -3.01,3.01 z"
   id="path5" />&#10;</g></svg>
