<?xml version="1.0" encoding="UTF-8" standalone="no"?>
<!-- Generator: Adobe Illustrator 24.1.2, SVG Export Plug-In . SVG Version: 6.00 Build 0)  -->

<svg
   version="1.1"
   id="Layer_3"
   x="0px"
   y="0px"
   viewBox="0 0 128 128"
   style="enable-background:new 0 0 128 128;"
   xml:space="preserve"
   sodipodi:docname="emoji_u1f996.svg"
   inkscape:version="1.3 (0e150ed6c4, 2023-07-21)"
   xmlns:inkscape="http://www.inkscape.org/namespaces/inkscape"
   xmlns:sodipodi="http://sodipodi.sourceforge.net/DTD/sodipodi-0.dtd"
   xmlns="http://www.w3.org/2000/svg"
   xmlns:svg="http://www.w3.org/2000/svg"><defs
   id="defs19" /><sodipodi:namedview
   id="namedview19"
   pagecolor="#ffffff"
   bordercolor="#000000"
   borderopacity="0.25"
   inkscape:showpageshadow="2"
   inkscape:pageopacity="0.0"
   inkscape:pagecheckerboard="0"
   inkscape:deskcolor="#d1d1d1"
   inkscape:lockguides="true"
   showguides="false"
   inkscape:zoom="4.0546875"
   inkscape:cx="60.547206"
   inkscape:cy="68.192678"
   inkscape:window-width="1366"
   inkscape:window-height="697"
   inkscape:window-x="-8"
   inkscape:window-y="-8"
   inkscape:window-maximized="1"
   inkscape:current-layer="Layer_3"><sodipodi:guide
     position="1.220747,85.535445"
     orientation="1,0"
     id="guide19"
     inkscape:locked="true" /></sodipodi:namedview>&#10;&#10;&#10;&#10;&#10;&#10;&#10;&#10;&#10;&#10;&#10;&#10;&#10;&#10;&#10;&#10;&#10;&#10;&#10;&#10;&#10;&#10;<g
   id="g19"
   transform="translate(130.10487,4.3013462)"><path
     style="fill:#757f3f;fill-opacity:1;stroke-width:1"
     d="m -82.733252,55.464251 c 0,0 -7.310315,-3.453665 -10.141481,2.485205 -2.844343,5.925738 0.897378,9.142348 -1.960135,12.223689 -1.60652,1.72508 -3.213047,-0.618882 -6.794812,1.72508 -2.68632,1.751341 -4.08215,5.807174 -3.58176,9.270407 0.50039,3.463275 2.47563,7.914132 4.70106,7.545439 2.225432,-0.368794 1.488011,-5.188297 1.488011,-5.188297 0,0 1.698708,4.569361 3.831961,4.569361 3.094535,0 1.356336,-7.04501 2.225435,-7.545385 0.8691,-0.500387 5.34233,0.756302 8.401333,-0.869138 6.860743,-3.510478 8.308241,-21.479185 8.308241,-21.479185 z"
     id="path16-1"
     sodipodi:nodetypes="ccccsccssccc" /><path
     style="fill:#757f3f;fill-opacity:1;stroke-width:6;stroke-linecap:round"
     d="m -68.956315,79.743754 c -2.887195,0 -10.216211,2.554052 -10.216211,12.548178 0,9.994118 6.218557,11.326668 6.218557,13.103388 0,1.77674 -13.880716,-1.77673 -13.880716,4.33079 0,6.10751 5.552288,5.44124 14.213855,5.44124 8.661573,0 14.880134,-0.44418 14.880134,-5.88542 0,-5.12578 -2.984405,-8.73168 -2.984405,-12.560417 0,-7.166703 0.370049,-16.977759 -8.231214,-16.977759 z"
     id="path10-3"
     sodipodi:nodetypes="ssssssss" /><path
     style="fill:#ed6c30;fill-opacity:1;stroke-width:6;stroke-linecap:round"
     d="m -120.77169,28.685296 c 0,0 6.30247,4.382741 6.30247,11.254218 0,4.450646 -1.84873,9.252544 -1.84873,9.252544 l 20.924634,-3.396628 14.476374,1.265961 -7.903112,-24.314243 z"
     id="path3-4"
     sodipodi:nodetypes="csccccc" /><path
     style="fill:#ffffff;fill-opacity:1;stroke-width:6;stroke-linecap:round"
     d="m -113.2549,31.86262 c 0.88838,1.226178 1.57848,2.869 2.61321,3.084752 0.63613,0.132639 1.96699,-2.618643 1.52012,-4.288515 -0.24194,-0.904036 -1.00491,-1.491109 -2.68123,-1.13203 -1.20072,0.257197 -2.225,1.269018 -1.4521,2.335793 z"
     id="path4-5"
     sodipodi:nodetypes="sssss" /><path
     style="fill:#ffffff;fill-opacity:1;stroke-width:6;stroke-linecap:round"
     d="m -99.161137,43.297931 c -0.977103,-2.101799 -1.948873,-3.313401 -2.884933,-3.1847 -0.64503,0.08868 -1.71871,3.134832 -1.12066,4.958544 0.32377,0.987317 1.13735,1.566043 2.7737,0.991207 1.172085,-0.411736 1.842172,-1.452311 1.231893,-2.765051 z"
     id="path5-2"
     sodipodi:nodetypes="sssss" /><path
     style="fill:#ffffff;fill-opacity:1;stroke-width:6;stroke-linecap:round"
     d="m -98.867597,28.687494 c 0.760542,1.309316 1.904452,3.536944 2.940135,3.325794 1.163273,-0.237162 0.76791,-2.460861 1.293305,-4.107711 0.361794,-1.134047 -0.199377,-1.590782 -1.903325,-1.40213 -1.220487,0.135122 -2.991801,1.044946 -2.330115,2.184047 z"
     id="path6-8"
     sodipodi:nodetypes="sssss" /><path
     style="fill:#bdcf46;stroke-width:6;stroke-linecap:round"
     d="m -80.100211,2.2574362 c -8.203618,0 -12.470484,3.9348803 -18.506591,7.3085097 -5.026048,2.8090991 -6.692248,4.3704841 -13.216188,5.6023731 -8.80581,1.662766 -12.47436,5.279853 -12.47436,11.729402 0,1.894462 2.23471,4.749255 7.1386,4.759317 13.68923,0.02808 25.788513,-7.570553 27.255468,-2.404446 0.78493,2.764254 -0.728643,13.278047 -14.121268,15.76866 -8.81489,1.639294 -16.11479,2.230941 -15.29016,5.13501 0.82463,2.90407 6.91397,4.454332 14.46921,4.454332 4.873513,0 10.193544,-1.480653 12.555841,-0.193668 1.70733,0.930155 2.875423,5.301609 5.433699,14.849222 2.811147,10.491338 8.61884,32.710902 37.753201,32.710902 9.420067,0 17.163275,-2.437652 23.219321,-6.042023 9.10291,-5.417771 15.504774,-14.794304 15.504774,-27.297197 0,-16.212826 -8.134725,-23.954527 -12.831355,-23.28216 -4.408558,0.631127 -1.738649,5.026371 -1.753552,13.190164 -0.01684,9.226375 -5.003896,13.753992 -15.45418,13.753992 -22.706626,0 -22.633325,-27.895308 -22.633325,-45.534134 0,-15.840809 -3.197065,-24.5082558 -17.049135,-24.5082558 z"
     id="path1-1"
     sodipodi:nodetypes="sssssssssssssssssss" /><ellipse
     style="fill:#2f2f2f;fill-opacity:1;stroke-width:6;stroke-linecap:round"
     id="path2-8"
     cx="-80.655327"
     cy="16.88179"
     rx="3.65973"
     ry="4.1776252" /><path
     style="fill:#bdcf46;fill-opacity:1;stroke-width:1"
     d="m -76.745716,59.839756 c 0,0 -7.310315,-3.453666 -10.141481,2.485203 -2.844345,5.925739 0.897376,9.14235 -1.960135,12.22369 -1.60652,1.725081 -3.213047,-0.618881 -6.794812,1.725081 -2.686321,1.75134 -4.082153,5.807173 -3.581758,9.270406 0.50039,3.463274 2.475627,7.914131 4.701059,7.545438 2.225431,-0.368794 1.488008,-5.188298 1.488008,-5.188298 0,0 1.69871,4.569362 3.831963,4.569362 3.094535,0 1.356336,-7.045008 2.225435,-7.545384 0.8691,-0.500388 5.34233,0.756303 8.401333,-0.869138 6.860743,-3.510477 8.308241,-21.479184 8.308241,-21.479184 z"
     id="path8-7"
     sodipodi:nodetypes="ccccsccssccc" /><path
     id="path14-9"
     style="fill:#2f2f2f;fill-opacity:1;stroke-width:6;stroke-linecap:round"
     d="m -44.44363,78.653916 c -2.561106,0 -5.888077,0.917886 -8.993821,3.591316 -3.105734,2.673438 -5.598262,7.247883 -5.598262,13.590271 0,1.96802 0.217009,3.71102 0.575909,5.260537 2.820403,0.56239 5.92113,0.88091 9.357056,0.88091 6.47798,0 12.162623,-1.15285 17.051269,-3.045067 0.01787,-3.57074 0.0011,-7.66978 -1.123256,-11.502088 -0.657655,-2.24136 -1.751094,-4.457787 -3.667847,-6.141176 -1.916748,-1.683384 -4.595803,-2.634703 -7.601048,-2.634703 z" /><path
     style="fill:#bdcf46;fill-opacity:1;stroke-width:6;stroke-linecap:round"
     d="m -44.443813,81.904046 c -3.205529,0 -11.342645,2.835663 -11.342645,13.931727 0,11.096067 6.904223,12.575547 6.904223,14.548177 0,1.97263 -15.411206,-1.97264 -15.411206,4.8083 0,6.78092 6.164479,6.04118 15.781067,6.04118 9.616601,0 16.520814,-0.49315 16.520814,-6.53435 0,-5.69094 -3.313461,-9.69442 -3.313461,-13.94532 0,-7.956891 0.410849,-18.849714 -9.138792,-18.849714 z"
     id="path11-2"
     sodipodi:nodetypes="ssssssss" /><path
     id="path9-1"
     style="fill:#2f2f2f;fill-opacity:1;stroke-width:6;stroke-linecap:round"
     d="m -81.080912,56.594284 c -5.677037,0 -8.484938,2.866811 -9.022278,10.005793 -0.380265,5.052078 -0.864595,5.681585 -4.298639,6.601734 -3.434047,0.920154 -7.369521,4.605724 -7.369521,10.746777 0,5.390311 2.020241,12.775815 7.16754,11.960185 1.871799,-0.2966 2.328448,-1.5588 2.927041,-1.71232 0.598593,-0.15353 1.365753,1.61153 3.707733,1.38502 2.974456,-0.28766 4.006755,-4.254477 4.006755,-6.720055 0,-1.919078 2.892973,-0.05374 6.755348,-1.995855 2.918,-1.467229 5.423014,-4.919655 7.249184,-11.734996 0.817386,-3.050531 1.930382,-9.654255 -0.620272,-9.880284 -1.119902,-0.09924 -1.482074,3.4197 -2.283529,6.996405 -1.082499,4.830959 -2.713291,10.273515 -5.714585,11.809208 -3.058999,1.625441 -7.532175,0.368885 -8.401269,0.869271 -0.869101,0.500377 0.869084,7.545316 -2.225441,7.545316 -2.133256,0 -2.647684,-4.88662 -3.831998,-4.569277 -1.184316,0.317335 0.737555,4.819419 -1.487881,5.188166 -2.225422,0.36874 -4.200873,-4.082047 -4.701263,-7.545317 -0.500395,-3.463231 0.89557,-7.51921 3.581889,-9.270544 3.581759,-2.343963 5.188204,1.23e-4 6.794718,-1.724953 2.857511,-3.081341 0.656463,-4.990485 2.344118,-10.995497 0.880744,-3.133866 3.062034,-4.133497 5.930363,-4.133497 2.300035,0 4.528245,2.056326 5.052187,1.30263 0.66443,-0.955793 -2.052937,-4.12791 -5.5602,-4.12791 z"
     sodipodi:nodetypes="ssssszsssssscsszssccssss" /></g></svg>
