<?xml version="1.0" encoding="UTF-8" standalone="no"?>
<svg
   enable-background="new 0 0 128 128"
   viewBox="0 0 128 128"
   version="1.1"
   id="svg6321"
   sodipodi:docname="emoji_u265f_fe0f.svg"
   xml:space="preserve"
   inkscape:version="1.3 (0e150ed6c4, 2023-07-21)"
   xmlns:inkscape="http://www.inkscape.org/namespaces/inkscape"
   xmlns:sodipodi="http://sodipodi.sourceforge.net/DTD/sodipodi-0.dtd"
   xmlns="http://www.w3.org/2000/svg"
   xmlns:svg="http://www.w3.org/2000/svg"><defs
     id="defs6325" /><sodipodi:namedview
     id="namedview6323"
     pagecolor="#ffffff"
     bordercolor="#000000"
     borderopacity="0.25"
     inkscape:showpageshadow="2"
     inkscape:pageopacity="0.0"
     inkscape:pagecheckerboard="0"
     inkscape:deskcolor="#d1d1d1"
     showgrid="false"
     inkscape:zoom="1.4142136"
     inkscape:cx="51.265242"
     inkscape:cy="89.449008"
     inkscape:window-width="1366"
     inkscape:window-height="697"
     inkscape:window-x="-8"
     inkscape:window-y="-8"
     inkscape:window-maximized="1"
     inkscape:current-layer="svg6321" /><radialGradient
     id="e"
     cx="44.5"
     cy="89"
     r="30.537"
     gradientUnits="userSpaceOnUse"><stop
       stop-color="#757575"
       offset=".00018029"
       id="stop6274" /><stop
       stop-color="#1A1A1A"
       offset=".9995"
       id="stop6276" /></radialGradient><linearGradient
     id="d"
     x1="64"
     x2="64"
     y1="113.25"
     y2="122.25"
     gradientUnits="userSpaceOnUse"><stop
       stop-color="#757575"
       offset="0"
       id="stop6281" /><stop
       stop-color="#6D6D6D"
       offset=".0525"
       id="stop6283" /><stop
       stop-color="#494949"
       offset=".328"
       id="stop6285" /><stop
       stop-color="#2F2F2F"
       offset=".586"
       id="stop6287" /><stop
       stop-color="#202020"
       offset=".8174"
       id="stop6289" /><stop
       stop-color="#1A1A1A"
       offset=".9995"
       id="stop6291" /></linearGradient><linearGradient
     id="c"
     x1="64"
     x2="64"
     y1="76.583"
     y2="86.596"
     gradientUnits="userSpaceOnUse"><stop
       stop-color="#696969"
       offset=".0018229"
       id="stop6296" /><stop
       stop-color="#1A1A1A"
       offset=".9995"
       id="stop6298" /></linearGradient><linearGradient
     id="b"
     x1="64"
     x2="64"
     y1="34.75"
     y2="49.852"
     gradientUnits="userSpaceOnUse"><stop
       stop-color="#757575"
       offset=".00018029"
       id="stop6303" /><stop
       stop-color="#1A1A1A"
       offset=".9995"
       id="stop6305" /></linearGradient><radialGradient
     id="a"
     cx="59.75"
     cy="15.25"
     r="21.408"
     gradientUnits="userSpaceOnUse"><stop
       stop-color="#757575"
       offset=".1512"
       id="stop6310" /><stop
       stop-color="#1C1C1C"
       offset=".9979"
       id="stop6312" /></radialGradient><g
     id="g4"
     transform="matrix(0.92301102,0,0,0.92301102,4.9272948,0.96606839)"
     style="stroke-width:1.08341"><path
       style="opacity:1;fill:#616161;fill-opacity:1;stroke:none;stroke-width:6.50046;stroke-linecap:round"
       d="m 64.615039,102.05724 c -30.136923,0 -39.608529,8.70099 -39.608529,15.24362 0,6.54265 7.162415,15.28241 39.621804,15.28241 32.459389,0 38.365176,-7.43088 38.365176,-15.00657 0,-7.57568 -8.241527,-15.51946 -38.378451,-15.51946 z"
       id="path2"
       sodipodi:nodetypes="zzzzz" /><path
       d="m 96.458202,108.46504 c 0,-9.693182 -6.922591,-10.51848 -11.9032,-17.928364 -6.663938,-9.914251 -9.363249,-33.297338 -9.363249,-44.592845 0,-11.227255 -6.30435,-14.685895 -11.197575,-14.683831 -4.893225,0.0021 -11.197575,2.404423 -11.197575,14.691927 0,11.296963 -2.507699,34.520813 -9.23576,44.530462 -4.629018,6.886805 -12.030689,8.472855 -12.030689,17.989261 0,9.51641 13.91087,13.93434 32.464024,13.93434 18.553154,0 32.464024,-4.24777 32.464024,-13.94095 z"
       fill="url(#e)"
       id="path6279"
       style="fill:#2f2f2f;fill-opacity:1;stroke-width:1.08341"
       sodipodi:nodetypes="zssssszzz" /><path
       style="opacity:1;fill:#757575;fill-opacity:1;stroke:none;stroke-width:6.50046;stroke-linecap:round"
       d="m 64.288034,33.057241 c -14.113761,0 -18.549515,4.641295 -18.549515,8.453613 0,3.812319 5.944129,6.736622 18.555731,6.736622 12.611602,0 17.967225,-2.161637 17.967225,-6.5759 0,-4.414265 -3.859682,-8.614335 -17.973441,-8.614335 z"
       id="path1"
       sodipodi:nodetypes="zzzzz" /><circle
       cx="64"
       cy="21.549999"
       r="17.549999"
       fill="url(#a)"
       id="circle6315"
       style="fill:#616161;fill-opacity:1;stroke-width:1.08341" /><path
       style="opacity:1;fill:#616161;fill-opacity:1;stroke:none;stroke-width:6.50046;stroke-linecap:round"
       d="m 64.427301,91.236023 c -20.986953,0 -26.012931,-4.237141 -27.582854,0.28116 -1.569922,4.518301 13.132995,7.07612 27.592099,7.07612 14.459102,0 28.508742,-1.74494 26.716998,-6.901654 -1.791745,-5.156716 -5.739291,-0.455626 -26.726243,-0.455626 z"
       id="path3"
       sodipodi:nodetypes="zzzzz" /><path
       style="opacity:1;fill:#ffffff;fill-opacity:1;stroke:none;stroke-width:6.50046;stroke-linecap:round"
       d="m 62.317163,8.2607228 c -8.716407,0 -13.676284,11.4550452 -10.233372,12.8983132 2.776527,1.163918 4.075693,-3.631626 9.68572,-4.799511 3.905696,-0.813081 5.567797,-1.989075 5.567797,-4.093537 0,-2.104462 -1.415938,-4.0052652 -5.020145,-4.0052652 z"
       id="path4"
       sodipodi:nodetypes="sssss" /></g></svg>
