<?xml version="1.0" encoding="UTF-8" standalone="no"?>
<!-- Generator: Adobe Illustrator 24.1.2, SVG Export Plug-In . SVG Version: 6.00 Build 0)  -->

<svg
   version="1.1"
   id="Layer_3"
   x="0px"
   y="0px"
   viewBox="0 0 128 128"
   style="enable-background:new 0 0 128 128;"
   xml:space="preserve"
   sodipodi:docname="emoji_u1f986.svg"
   inkscape:version="1.3 (0e150ed6c4, 2023-07-21)"
   xmlns:inkscape="http://www.inkscape.org/namespaces/inkscape"
   xmlns:sodipodi="http://sodipodi.sourceforge.net/DTD/sodipodi-0.dtd"
   xmlns="http://www.w3.org/2000/svg"
   xmlns:svg="http://www.w3.org/2000/svg"><defs
   id="defs39921" /><sodipodi:namedview
   id="namedview39919"
   pagecolor="#ffffff"
   bordercolor="#000000"
   borderopacity="0.25"
   inkscape:showpageshadow="2"
   inkscape:pageopacity="0.0"
   inkscape:pagecheckerboard="0"
   inkscape:deskcolor="#d1d1d1"
   showgrid="false"
   inkscape:zoom="5.999359"
   inkscape:cx="43.254621"
   inkscape:cy="63.090073"
   inkscape:window-width="1366"
   inkscape:window-height="697"
   inkscape:window-x="-8"
   inkscape:window-y="-8"
   inkscape:window-maximized="1"
   inkscape:current-layer="Layer_3" />&#10;<linearGradient
   id="SVGID_1_"
   gradientUnits="userSpaceOnUse"
   x1="47.4891"
   y1="11.504"
   x2="51.0205"
   y2="45.1025">&#10;	<stop
   offset="0.1705"
   style="stop-color:#01AB46"
   id="stop39885" />&#10;	<stop
   offset="0.3448"
   style="stop-color:#089E42"
   id="stop39887" />&#10;	<stop
   offset="0.6711"
   style="stop-color:#1A7A37"
   id="stop39889" />&#10;	<stop
   offset="1"
   style="stop-color:#2F502A"
   id="stop39891" />&#10;</linearGradient>&#10;&#10;&#10;&#10;&#10;&#10;&#10;&#10;&#10;&#10;&#10;&#10;&#10;<g
   id="g1"
   transform="matrix(0.97737105,0,0,0.97737105,2.5634926,0.10960362)"
   style="stroke-width:1.02315"><g
     fill="#fcc21b"
     id="g22204"
     transform="matrix(-1.0073214,-0.32184518,-0.32184518,1.0073214,160.72806,14.237364)"
     style="fill:#ed6c30;stroke-width:0.967531"><path
       d="m 48.573892,102.66268 c -0.75,2.44 -1.25,5.18 -2.68,7.25 -3.2,4.63 -10.878549,-0.49575 -14.454676,1.60823 -1.658623,0.96657 -1.742331,3.51677 -0.930061,5.03579 1.253245,2.34245 4.173653,2.06638 6.432883,2.54333 1.250082,0.27293 2.549573,0.30931 3.845874,0.37716 1.162887,0.067 2.07598,0.20549 3.21598,0.42549 1.5,0.3 3.12,-0.09 4.25,-1.14 1.36,-1.24 1.3,-2.8 1.65,-4.48 0.49,-2.43 1.44,-4.75 2.41,-7.03 0.87,-2.07 2.88,-5.1 2.58,-7.429999 -0.08,-0.659999 -0.6,-0.989999 -1.22,-1.209999 -0.71,-0.26 -1.74,-0.56 -2.5,-0.48 -1.4,0.13 -1.87,2.439998 -2.26,3.499998 -0.12,0.34 -0.23,0.68 -0.34,1.03 z"
       id="path22202"
       style="fill:#ed6c30;stroke-width:0.967531"
       sodipodi:nodetypes="ccccccccccccccc" /></g><g
     fill="#fcc21b"
     id="g22374"
     transform="matrix(-1.0073214,-0.32184518,-0.32184518,1.0073214,143.63823,15.514829)"
     style="fill:#ed6c30;stroke-width:0.967531"><path
       d="m 52.29,103.85 c -0.75,2.44 -1.560934,5.68781 -2.518348,8.01443 -2.142924,5.2043 -8.013572,1.35516 -10.473164,4.01628 -1.142169,1.22494 -0.821547,3.79996 0.03909,5.20183 1.327685,2.16169 3.554364,1.43743 5.381344,1.57091 1.012276,0.0829 2.027157,-0.0794 3.044319,-0.20957 0.913412,-0.11057 1.823232,-0.13071 2.719375,-0.34341 1.182485,-0.26982 2.594904,-0.82359 3.475943,-2.08976 1.065405,-1.5007 0.675242,-3.01231 0.66021,-4.72832 C 54.581149,112.80377 55.06,110.72 56.03,108.44 c 0.87,-2.07 2.88,-5.1 2.58,-7.43 -0.08,-0.66 -0.6,-0.99 -1.22,-1.209999 -0.71,-0.26 -1.74,-0.559999 -2.5,-0.479999 -1.4,0.129999 -1.87,2.439998 -2.26,3.499998 -0.12,0.34 -0.23,0.68 -0.34,1.03 z"
       id="path22372"
       style="fill:#ed6c30;stroke-width:0.967531"
       sodipodi:nodetypes="ccccccccccccccc" /></g><path
     id="path9"
     style="fill:#757f3f;fill-opacity:1;stroke-width:6.13891;stroke-linecap:round"
     d="m 91.345163,52.521465 c -0.463196,-0.991108 -0.731806,-2.020184 -0.731806,-3.129487 0,-8.62497 8.514843,-9.473357 8.514843,-22.340109 0,-10.745861 -8.231315,-21.9787704 -23.384866,-21.9787704 v 0 c -15.15347,0 -23.742579,10.5635744 -23.742579,21.5613674 0,11.977493 9.298213,13.368905 9.298213,21.926986 0,1.064045 -0.281906,2.023176 -0.806721,2.849924" /><path
     id="path14"
     style="fill:#93b1bb;fill-opacity:1;stroke-width:6.13891;stroke-linecap:round"
     d="m 60.492247,51.411376 c -1.303403,2.053037 -4.105117,3.289761 -7.809549,3.289761 -15.061611,0 -17.243392,-13.069673 -22.277591,-13.069673 -3.499305,0 -10.397949,13.297347 -10.397949,23.895217 0,15.396905 10.969627,40.988089 43.207267,40.988089 29.975252,0 41.575825,-15.044774 41.575825,-29.441872 0,-13.622548 -10.542836,-18.341852 -13.445087,-24.551433"
     sodipodi:nodetypes="csssssc" /><path
     id="path10"
     style="fill:#855c52;fill-opacity:1;stroke-width:6.13891;stroke-linecap:round"
     d="m 60.931627,63.383354 c -9.092635,0 -10.702264,6.665372 -18.872219,6.665372 -6.711309,0 -8.804575,-3.41348 -12.245964,-3.41348 -1.956768,0 -3.238896,1.477258 -3.238896,3.017868 0,9.37228 9.893539,24.212048 26.779884,24.212048 15.361169,0 21.523386,-7.634719 21.523386,-16.139554 0,-8.504836 -5.669515,-14.342254 -13.946191,-14.342254 z"
     sodipodi:nodetypes="ssssszs" /><ellipse
     style="fill:#2f2f2f;fill-opacity:1;stroke-width:6.13891;stroke-linecap:round"
     id="path11"
     cx="74.686806"
     cy="11.268877"
     rx="4.0163665"
     ry="4.637188"
     transform="rotate(10.278818)" /><ellipse
     style="fill:#2f2f2f;fill-opacity:1;stroke-width:6.13891;stroke-linecap:round"
     id="ellipse11"
     cx="81.71154"
     cy="44.925297"
     rx="3.8046467"
     ry="4.3927422"
     transform="rotate(-13.547096)" /><path
     style="fill:#f79329;fill-opacity:1;stroke-width:6.13891;stroke-linecap:round"
     d="m 95.729025,32.305478 c -6.552605,0 -6.874726,-1.322238 -11.294343,-1.322238 -3.312016,0 -5.260472,2.29888 -5.260472,5.533962 0,4.644478 4.983593,6.789264 13.289742,6.789264 8.348878,0 12.764398,-4.901589 12.764398,-9.386068 0,-1.39815 -1.03974,-2.199058 -2.30163,-2.199058 -2.09115,0 -3.267868,0.584138 -7.197695,0.584138 z"
     id="path12"
     sodipodi:nodetypes="sssssss" /><path
     id="path13"
     style="fill:#ffffff;fill-opacity:1;stroke-width:6.13891;stroke-linecap:round"
     d="m 61.287536,48.409213 c 7.3e-4,0.05278 0.01135,0.09869 0.01135,0.15202 0,2.260352 -1.276241,4.04405 -3.447335,5.094271 0,0 6.683545,4.572132 18.413597,4.572132 11.730053,0 16.573219,-3.32113 16.573219,-3.32113 -1.256864,-1.641893 -2.110529,-3.29572 -2.205877,-5.170281 0,0 -3.946367,2.193504 -14.267373,2.193504 -10.320926,0 -15.077338,-3.520516 -15.077338,-3.520516 z"
     sodipodi:nodetypes="csczcczcc" /></g></svg>
