<?xml version="1.0" encoding="UTF-8" standalone="no"?>
<svg
   width="128"
   height="128"
   version="1.1"
   id="svg40657"
   sodipodi:docname="emoji_u1f606.svg"
   inkscape:version="1.2.2 (732a01da63, 2022-12-09)"
   xmlns:inkscape="http://www.inkscape.org/namespaces/inkscape"
   xmlns:sodipodi="http://sodipodi.sourceforge.net/DTD/sodipodi-0.dtd"
   xmlns="http://www.w3.org/2000/svg"
   xmlns:svg="http://www.w3.org/2000/svg">
  <defs
     id="defs40661" />
  <sodipodi:namedview
     id="namedview40659"
     pagecolor="#ffffff"
     bordercolor="#000000"
     borderopacity="0.25"
     inkscape:showpageshadow="2"
     inkscape:pageopacity="0.0"
     inkscape:pagecheckerboard="0"
     inkscape:deskcolor="#d1d1d1"
     showgrid="false"
     inkscape:zoom="4.2421875"
     inkscape:cx="48.913444"
     inkscape:cy="63.882136"
     inkscape:window-width="1366"
     inkscape:window-height="697"
     inkscape:window-x="-8"
     inkscape:window-y="-8"
     inkscape:window-maximized="1"
     inkscape:current-layer="svg40657" />
  <path
     d="M63.79 8.64C1.48 8.64 0 78.5 0 92.33c0 13.83 28.56 25.03 63.79 25.03 35.24 0 63.79-11.21 63.79-25.03 0-13.83-1.47-83.69-63.79-83.69z"
     fill="#fcc21b"
     id="path40559" />
  <g
     fill="#2f2f2f"
     id="g40653">
    <path
       d="M98.46 57.78c-.5 1.13-1.7 1.72-2.86 1.52-.21-.04-.42-.1-.61-.19-7.83-3.49-18.47-3.39-18.57-3.39-1.21.02-2.24-.78-2.57-1.92-.33-1.15.16-2.37 1.18-2.98 9.01-5.41 21.72-7.26 22.25-7.33 1.45-.2 2.78.8 2.98 2.24.2 1.44-.81 2.77-2.24 2.98-.07.01-5.28.76-11.12 2.65 3.25.47 6.94 1.48 10.24 2.94 1.32.59 1.92 2.16 1.32 3.48zM29.76 57.78c.5 1.13 1.7 1.72 2.86 1.52.21-.04.42-.1.61-.19 7.83-3.49 18.47-3.39 18.57-3.39 1.21.02 2.24-.78 2.57-1.92.33-1.15-.16-2.37-1.18-2.98-9.01-5.41-21.72-7.26-22.25-7.33-1.45-.2-2.78.8-2.98 2.24-.2 1.44.81 2.77 2.24 2.98.07.01 5.28.76 11.12 2.65-3.25.47-6.94 1.48-10.24 2.94a2.65 2.65 0 0 0-1.32 3.48z"
       id="path40651" />
  </g>
  <path
     d="M96.46 68.26c-3.09-2.09-6.98-.71-10.42 0-9.58 1.98-18 2.06-22.04 2.06s-12.46-.08-22.04-2.06c-3.44-.71-7.33-2.09-10.42 0-3.92 2.65-1.03 12.15 5.14 18.57C40.41 90.71 49.29 98.24 64 98.24s23.59-7.53 27.32-11.41c6.17-6.42 9.05-15.92 5.14-18.57z"
     fill="#ed6c30"
     id="path40655" />
</svg>
