<?xml version="1.0" encoding="UTF-8" standalone="no"?>
<svg
   enable-background="new 0 0 128 128"
   viewBox="0 0 128 128"
   version="1.1"
   id="svg17212"
   sodipodi:docname="emoji_u1fa80.svg"
   inkscape:version="1.2.2 (732a01da63, 2022-12-09)"
   xmlns:inkscape="http://www.inkscape.org/namespaces/inkscape"
   xmlns:sodipodi="http://sodipodi.sourceforge.net/DTD/sodipodi-0.dtd"
   xmlns:xlink="http://www.w3.org/1999/xlink"
   xmlns="http://www.w3.org/2000/svg"
   xmlns:svg="http://www.w3.org/2000/svg">
  <defs
     id="defs17216">
    <inkscape:path-effect
       effect="perspective-envelope"
       up_left_point="22.856089,30.617518"
       up_right_point="51.185914,27.617198"
       down_left_point="22.856089,75.45986"
       down_right_point="51.185914,78.126812"
       id="path-effect26395"
       is_visible="true"
       lpeversion="1"
       deform_type="perspective"
       horizontal_mirror="false"
       vertical_mirror="false"
       overflow_perspective="false" />
    <inkscape:path-effect
       effect="bounding_box"
       id="path-effect26393"
       is_visible="true"
       lpeversion="1"
       linkedpath=""
       visualbounds="false" />
  </defs>
  <sodipodi:namedview
     id="namedview17214"
     pagecolor="#ffffff"
     bordercolor="#000000"
     borderopacity="0.25"
     inkscape:showpageshadow="2"
     inkscape:pageopacity="0.0"
     inkscape:pagecheckerboard="0"
     inkscape:deskcolor="#d1d1d1"
     showgrid="false"
     inkscape:zoom="2.9996795"
     inkscape:cx="61.006517"
     inkscape:cy="65.673682"
     inkscape:window-width="1366"
     inkscape:window-height="697"
     inkscape:window-x="-8"
     inkscape:window-y="-8"
     inkscape:window-maximized="1"
     inkscape:current-layer="svg17212" />
  <linearGradient
     id="a">
    <stop
       offset="0"
       stop-color="#b71c1c"
       id="stop17130" />
    <stop
       offset=".5254"
       stop-color="#e53935"
       id="stop17132" />
    <stop
       offset=".6739"
       stop-color="#db3330"
       id="stop17134" />
    <stop
       offset=".9258"
       stop-color="#c02221"
       id="stop17136" />
    <stop
       offset="1"
       stop-color="#b71c1c"
       id="stop17138" />
  </linearGradient>
  <linearGradient
     id="b"
     gradientUnits="userSpaceOnUse"
     x1="72.9"
     x2="72.9"
     xlink:href="#a"
     y1="102.4"
     y2="4.1" />
  <linearGradient
     id="c"
     gradientUnits="userSpaceOnUse"
     x1="127.2"
     x2="67.662"
     y1="53.3"
     y2="53.3">
    <stop
       offset="0"
       stop-color="#b71c1c"
       id="stop17142" />
    <stop
       offset=".1671"
       stop-color="#ad1e1e"
       id="stop17144" />
    <stop
       offset=".4514"
       stop-color="#922422"
       id="stop17146" />
    <stop
       offset=".816"
       stop-color="#672e2a"
       id="stop17148" />
    <stop
       offset="1"
       stop-color="#4e342e"
       id="stop17150" />
  </linearGradient>
  <linearGradient
     id="d"
     gradientUnits="userSpaceOnUse"
     x1="78.1"
     x2="78.1"
     y1="41.8749"
     y2="53.008">
    <stop
       offset="0"
       stop-color="#bcaaa4"
       id="stop17153" />
    <stop
       offset="1"
       stop-color="#a1887f"
       id="stop17155" />
  </linearGradient>
  <linearGradient
     id="e"
     gradientUnits="userSpaceOnUse"
     x1="51.3"
     x2="51.3"
     xlink:href="#a"
     y1="97.3019"
     y2="6.9099" />
  <linearGradient
     id="f"
     gradientUnits="userSpaceOnUse"
     x1="37"
     x2="37"
     y1="94.587"
     y2="13.657">
    <stop
       offset="0"
       stop-color="#4e342e"
       id="stop17159" />
    <stop
       offset=".5305"
       stop-color="#b71c1c"
       id="stop17161" />
    <stop
       offset=".609"
       stop-color="#ad1e1e"
       id="stop17163" />
    <stop
       offset=".7425"
       stop-color="#922422"
       id="stop17165" />
    <stop
       offset=".9136"
       stop-color="#672e2a"
       id="stop17167" />
    <stop
       offset="1"
       stop-color="#4e342e"
       id="stop17169" />
  </linearGradient>
  <ellipse
     cx="72.9"
     cy="53.3"
     fill="url(#b)"
     rx="45.9"
     ry="49.1"
     id="ellipse17172"
     style="fill:#e65619" />
  <ellipse
     cx="69.4"
     cy="53.3"
     fill="url(#c)"
     rx="42"
     ry="47.9"
     id="ellipse17174"
     style="fill:#bf3f0c" />
  <ellipse
     cx="78.1"
     cy="51.7"
     fill="url(#d)"
     rx="16.6"
     ry="27.2"
     id="ellipse17176"
     style="fill:#5a818e" />
  <path
     d="m86.2 47c3.1 2.9 4.1 13.7 4.2 17.8.4 12.3 1.6 30.5 16 35.8 15.2 5.6 16.3 9.1 8.8 12.6-15.2 6.9-41.8 8.6-53 7.1-11.2-1.6-8.8-9.1-1.8-10 13.8-1.8 31.3 2.6 39.5 8.3"
     fill="none"
     stroke="#bcaaa4"
     stroke-miterlimit="10"
     stroke-width="5"
     id="path17182"
     style="fill:none;stroke:#86a8b4" />
  <ellipse
     cx="51.3"
     cy="53.3"
     fill="url(#e)"
     rx="37.8"
     ry="49.1"
     id="ellipse17186"
     style="fill:#e65619" />
  <ellipse
     cx="43.2"
     cy="53.3"
     fill="#e53935"
     rx="36.1"
     ry="49.1"
     id="ellipse17188"
     style="fill:#ed6c30;fill-opacity:1" />
  <ellipse
     cx="37"
     cy="53.3"
     fill="url(#f)"
     rx="22"
     ry="31.4"
     id="ellipse17190"
     style="fill:#bf3f0c" />
  <ellipse
     cx="39.5"
     cy="53.3"
     fill="#f5f5f5"
     rx="19.5"
     ry="29.1"
     id="ellipse17192"
     style="fill:#fafafa" />
  <g
     id="g26391"
     transform="matrix(1.041186,0,0,0.95428039,-0.44129679,2.4133115)"
     style="stroke-width:1.00322">
    <path
       d="m 51.185914,46.672719 c 0,3.531883 -0.22963,6.43619 -0.687639,8.70672 -0.233688,1.159769 -0.527835,2.247568 -0.882017,3.262858 -0.353184,1.012433 -0.786712,1.978752 -1.299745,2.898257 -1.009416,1.791698 -2.123739,2.965904 -3.340046,3.529278 -0.25401,0.115075 -0.510028,0.3558 -0.768041,0.721777 -0.257471,0.365203 -0.526983,0.84564 -0.808455,1.440856 -0.571005,1.239401 -0.995023,2.009142 -1.273573,2.313035 -0.12911,0.152313 -0.270477,0.276962 -0.424058,0.373976 -0.153387,0.0969 -0.318927,0.183976 -0.496569,0.261249 -0.511731,0.232458 -0.840262,0.918625 -0.987077,2.058196 -0.05868,0.45544 -0.122211,0.852821 -0.190592,1.192164 -0.06834,0.339151 -0.141525,0.620302 -0.21954,0.84349 -0.146139,0.393824 -0.486441,0.867386 -1.019264,1.419207 -0.260705,0.275429 -0.501594,0.486218 -0.722784,0.632613 -0.220783,0.146125 -0.431586,0.2535 -0.632461,0.32224 -0.200537,0.06862 -0.403119,0.101997 -0.607734,0.100219 -0.204264,-0.0018 -0.420023,-0.01339 -0.647214,-0.03477 -0.47192,-0.04443 -0.880968,-0.152244 -1.227784,-0.323211 -0.345801,-0.170469 -0.639402,-0.387492 -0.88119,-0.651036 -0.398792,-0.44924 -0.72701,-0.882322 -0.98524,-1.299696 -0.257663,-0.416458 -0.436772,-0.825583 -0.537687,-1.227799 l -0.261058,-1.56071 c -0.09146,-0.553994 -0.210253,-1.006902 -0.356294,-1.358719 -0.145857,-0.351378 -0.337018,-0.602952 -0.57326,-0.754819 l -0.624633,-0.49958 c -0.34257,-0.394981 -0.787298,-1.252262 -1.333006,-2.568042 -0.489827,-1.15534 -0.959879,-1.867564 -1.410384,-2.139545 -0.518974,-0.324156 -1.011575,-0.775436 -1.478129,-1.35316 -0.464651,-0.57537 -0.907986,-1.293163 -1.330245,-2.152731 -0.420689,-0.856377 -0.775767,-1.745421 -1.065844,-2.667733 -0.289332,-0.919945 -0.527048,-1.882381 -0.713474,-2.887826 -0.363486,-1.956649 -0.544788,-4.566067 -0.544788,-7.832998 0,-2.758015 0.451691,-5.458841 1.360557,-8.118525 0.907654,-2.664038 2.143769,-4.903216 3.719038,-6.720081 1.606156,-1.843098 3.2803,-2.86572 5.024906,-3.050486 1.221074,-0.12932 2.295312,0.519205 3.218515,1.954945 0.930438,-1.62608 2.036428,-2.511479 3.322771,-2.647711 1.851912,-0.19613 3.682402,0.469473 5.489847,2.016043 1.844693,1.550524 3.335239,3.758871 4.458363,6.62678 1.154554,2.874204 1.735828,5.939262 1.735828,9.175279 z"
       id="path8218"
       style="fill:#d7598b;stroke-width:1.00322" />
    <path
       d="m 45.956754,34.93455 c -1.497912,-1.916206 -3.157768,-3.068188 -4.972671,-3.468786 0.206895,0.548757 0.359831,1.098887 0.458602,1.650023 0.09885,0.551584 0.148306,1.094376 0.148306,1.628041 0,0.60482 -0.113717,0.915988 -0.340833,0.933479 -0.256231,0.01973 -0.408726,-0.358668 -0.457877,-1.134937 -0.0098,-0.105577 -0.03194,-0.250013 -0.06633,-0.433276 -0.03437,-0.183217 -0.07855,-0.369974 -0.132534,-0.560248 -0.05396,-0.190188 -0.110336,-0.380078 -0.169139,-0.569662 -0.05878,-0.189491 -0.117526,-0.352347 -0.176243,-0.488589 -0.04891,-0.137069 -0.102688,-0.26037 -0.161328,-0.369908 -0.05861,-0.109477 -0.126958,-0.187078 -0.205017,-0.232821 -0.05851,-0.06519 -0.168148,-0.134378 -0.328762,-0.207505 -0.160401,-0.07303 -0.376363,-0.140681 -0.647586,-0.202912 -0.665765,0.151128 -1.342202,0.888825 -2.029099,2.208003 v 2.171719 c 0.381122,-0.676046 0.878406,-1.039915 1.493302,-1.090176 0.154219,-0.01261 0.289323,0.03786 0.405248,0.151488 0.116037,0.113738 0.174097,0.267425 0.174097,0.460976 0,0.140763 -0.06773,0.216436 -0.20309,0.227009 -0.568749,0.114589 -1.022291,0.504372 -1.36192,1.168337 -0.338664,0.662089 -0.507637,1.5419 -0.507637,2.640842 v 2.95668 c 0.266657,-0.449995 0.607989,-0.804441 1.024637,-1.063257 0.418105,-0.259722 0.844921,-0.402094 1.280534,-0.426503 0.320454,-0.01796 0.753938,0.152098 1.301668,0.511417 0.530529,0.36198 0.949715,0.53573 1.25639,0.520029 0.138752,-0.0071 0.300003,-0.07773 0.483841,-0.212037 0.184117,-0.134505 0.390958,-0.323998 0.620637,-0.568672 0.480727,-0.527681 0.897885,-0.80238 1.250813,-0.822582 0.790192,-0.04523 1.187199,0.383522 1.187199,1.286479 0,0.415361 -0.117199,0.62881 -0.351264,0.640331 l -0.851077,-0.25463 c -0.201772,0.01017 -0.365468,0.130582 -0.491239,0.361056 -0.125642,0.230238 -0.243628,0.455404 -0.353981,0.675527 -0.330459,0.641297 -0.779648,0.973385 -1.346255,0.997477 -0.178382,0.0076 -0.376278,-0.04624 -0.59359,-0.161311 -0.216924,-0.114865 -0.458042,-0.290506 -0.72321,-0.526688 -0.538363,-0.470346 -0.957599,-0.697388 -1.258936,-0.682721 -0.252154,0.01227 -0.494112,0.07681 -0.725933,0.193458 -0.231375,0.116423 -0.44548,0.266898 -0.642407,0.451365 -0.196604,0.184168 -0.36418,0.401737 -0.502851,0.652716 -0.138511,0.250689 -0.241096,0.517067 -0.307848,0.799234 l -0.257123,0.821494 v 1.936232 l 0.04281,0.574507 c 0.276291,-0.513826 0.548443,-0.77514 0.816426,-0.783061 0.162999,-0.0048 0.244582,0.124204 0.244582,0.38707 0,0.210292 -0.09118,0.440487 -0.273322,0.690298 -0.220121,0.267838 -0.478006,0.95532 -0.77341,2.060759 0.06664,0.557385 0.161903,1.023082 0.285862,1.397148 0.124089,0.374456 0.272209,0.68354 0.444448,0.927224 0.17249,0.244036 0.364436,0.440134 0.575934,0.588227 0.211871,0.148352 0.443431,0.266153 0.694794,0.353341 l 0.290689,-0.132911 c 0.476308,-0.05451 0.822568,-0.391573 1.037652,-1.011846 0.215467,-0.621368 0.323345,-1.375348 0.323345,-2.261107 v -0.584604 c 0,-0.620034 0.161998,-0.933789 0.486644,-0.941281 0.444106,-0.01025 0.66677,0.652104 0.66677,1.987083 0,0.711987 -0.07427,1.308979 -0.222664,1.790533 -0.148216,0.480967 -0.365273,0.979347 -0.650801,1.494668 0.265815,-3.52e-4 0.547031,0.05705 0.843753,0.172418 0.297448,0.115637 0.588162,0.276163 0.87209,0.481725 0.284592,0.206035 0.554818,0.457261 0.810581,0.753781 0.2563,0.297141 0.480373,0.626103 0.67204,0.986841 l 0.531169,1.274118 c 1.746153,-0.647286 2.628562,-1.738847 2.628562,-3.267765 0,-1.274096 -0.542573,-2.724422 -1.620644,-4.340371 -0.234899,-0.339191 -0.428609,-0.678554 -0.581323,-1.018257 -0.152525,-0.33928 -0.228716,-0.833184 -0.228716,-1.482026 0,-0.21628 0.0127,-0.428425 0.03809,-0.636468 0.0254,-0.208087 0.06605,-0.403176 0.121967,-0.585298 0.05594,-0.182205 0.122089,-0.32875 0.198456,-0.439624 0.07641,-0.110945 0.165623,-0.16822 0.267654,-0.171774 0.20432,-0.0071 0.306607,0.215467 0.306607,0.667758 l -0.06139,0.598847 -0.06136,0.462928 0.107382,0.539733 c 0.184306,0.556506 0.422776,1.044754 0.715722,1.464864 0.293641,0.421104 0.580224,0.852428 0.859698,1.293965 0.280103,0.44253 0.521809,0.936649 0.724893,1.482277 0.203415,0.546518 0.305247,1.231443 0.305247,2.054106 v 0.329064 c 0.219614,-0.438876 0.402921,-0.89675 0.54976,-1.373462 0.147012,-0.477274 0.2679,-0.973236 0.36259,-1.48776 0.09476,-0.514914 0.171151,-1.039132 0.229132,-1.572548 0.05801,-0.533664 0.108127,-1.085784 0.150346,-1.656318 0,-1.249568 -0.316311,-2.250099 -0.946547,-2.998757 -0.209374,-0.230427 -0.400123,-0.452006 -0.57233,-0.664807 -0.17197,-0.212506 -0.317698,-0.39839 -0.437274,-0.557756 -0.119463,-0.159211 -0.199906,-0.292558 -0.241405,-0.40013 -0.04149,-0.107538 -0.03112,-0.180828 0.03112,-0.219909 0,-0.14574 0.04929,-0.293643 0.147939,-0.443799 0.09872,-0.150277 0.231344,-0.229237 0.39797,-0.236798 0.114685,-0.0052 0.242526,0.02098 0.383564,0.0786 0.141198,0.05768 0.279936,0.133854 0.416206,0.228539 0.136419,0.09479 0.262477,0.199304 0.378142,0.313544 0.115772,0.114339 0.205305,0.225302 0.268543,0.332849 -0.136975,-1.24236 -0.415733,-2.521918 -0.835326,-3.83638 -0.125605,-0.1575 -0.355551,-0.674292 -0.689262,-1.548737 -0.228911,-0.623758 -0.618131,-1.135258 -1.166157,-1.534036 -0.566156,-0.413684 -1.083721,-0.602771 -1.553285,-0.568774 -0.31544,0.02284 -0.614868,0.179573 -0.898397,0.469744 -0.192023,0.193313 -0.333321,0.293018 -0.42407,0.299339 -0.171232,0.01193 -0.256757,-0.134579 -0.256757,-0.439504 0,-0.215241 0.171111,-0.568666 0.514053,-1.061309 0.333774,-0.493234 0.942968,-0.775072 1.831684,-0.844883 z"
       id="path8216"
       style="fill:#f193b3;fill-opacity:1;stroke-width:1.00322" />
    <path
       d="m 24.255032,45.039296 0.153667,-0.130321 c 0.265144,-0.242798 0.481568,-0.442586 0.648991,-0.59911 0.167672,-0.156754 0.298973,-0.237367 0.393776,-0.241669 0.146671,-0.0067 0.258959,0.05475 0.336762,0.184296 0.07786,0.129634 0.116804,0.261044 0.116804,0.394164 0,0.1664 -0.02164,0.292097 -0.06491,0.377067 -0.06054,0.118901 -0.380035,0.596875 -0.956293,1.430779 -0.428137,0.610179 -0.684242,1.510269 -0.769481,2.701325 0.06819,1.170913 0.194012,2.242667 0.377673,3.215916 0.183959,0.974832 0.413258,1.727596 0.688171,2.258066 l -0.0129,-0.298564 c 0,-0.812714 0.107557,-1.50176 0.322978,-2.067942 0.112181,-0.300157 0.274176,-0.646934 0.486199,-1.040658 0.212419,-0.394459 0.47524,-0.844728 0.788811,-1.351299 0.454462,-0.7286 0.682373,-1.353662 0.682373,-1.873008 l -0.05264,-0.425638 -0.05262,-0.551035 c 0,-0.418633 0.09647,-0.631309 0.289661,-0.638038 0.08792,-0.0031 0.164907,0.04459 0.230936,0.143012 0.06607,0.09848 0.121154,0.230955 0.165241,0.397447 0.0441,0.166558 0.0794,0.346054 0.105879,0.538475 0.02648,0.192464 0.03972,0.38955 0.03972,0.591223 0,0.605025 -0.07062,1.073008 -0.211734,1.403644 -0.140938,0.33023 -0.303683,0.647884 -0.48814,0.952898 -0.92655,1.517825 -1.387017,2.855004 -1.387017,4.020738 0,1.415536 0.743752,2.43123 2.245946,3.053166 l 0.225709,-0.602963 c 0.159591,-0.436247 0.357169,-0.826461 0.592931,-1.170717 0.236245,-0.344964 0.493096,-0.639836 0.770691,-0.884526 0.278263,-0.245277 0.568458,-0.435976 0.870672,-0.571917 0.303004,-0.136298 0.599989,-0.204772 0.890908,-0.205158 -0.272758,-0.340503 -0.474641,-0.795452 -0.606017,-1.364961 -0.131227,-0.568865 -0.196785,-1.150635 -0.196785,-1.745793 0,-1.292338 0.199049,-1.943101 0.598173,-1.952311 0.327578,-0.0076 0.482588,0.287827 0.46434,0.886105 l -0.01368,0.717676 c -0.0091,0.35884 0.0091,0.708754 0.05475,1.049862 0.04564,0.341239 0.116416,0.643934 0.212375,0.908145 0.09604,0.264426 0.212761,0.486167 0.350232,0.665218 0.137633,0.17926 0.289217,0.294381 0.454805,0.345259 l 0.512042,0.153033 c 0.231381,-0.103925 0.449295,-0.22954 0.653667,-0.376882 0.204727,-0.1476 0.391151,-0.342857 0.559186,-0.585837 0.168274,-0.243325 0.313369,-0.551699 0.435199,-0.92515 0.121956,-0.373835 0.211157,-0.838601 0.267529,-1.394207 -0.07516,-0.414724 -0.176074,-0.781022 -0.302686,-1.098837 -0.126475,-0.317474 -0.269184,-0.612597 -0.428065,-0.885348 -0.195971,-0.219597 -0.293834,-0.441466 -0.293834,-0.665878 0,-0.25894 0.08388,-0.390889 0.251813,-0.395853 0.0934,-0.0028 0.1822,0.02921 0.266387,0.09594 0.08425,0.06678 0.163869,0.142392 0.238856,0.22684 0.07503,0.0845 0.138383,0.169384 0.190024,0.254633 0.05166,0.08528 0.0869,0.136354 0.105701,0.153204 l 0.0423,-0.573425 V 45.615335 L 35.27466,44.817986 c -0.07506,-0.256784 -0.185213,-0.498926 -0.330368,-0.726339 -0.144978,-0.227135 -0.313116,-0.427012 -0.504314,-0.59963 -0.190888,-0.172339 -0.400045,-0.309043 -0.627371,-0.410173 -0.226888,-0.100929 -0.455647,-0.1457 -0.686263,-0.134476 -0.266949,0.01299 -0.647907,0.271236 -1.141759,0.773156 -0.500857,0.500198 -0.918106,0.75662 -1.252636,0.770844 -0.504487,0.02145 -0.903813,-0.257799 -1.199055,-0.836568 -0.09825,-0.198226 -0.203098,-0.400185 -0.314539,-0.605855 -0.111333,-0.205471 -0.255904,-0.303646 -0.433591,-0.294686 l -0.743297,0.314628 c -0.202685,0.01 -0.303893,-0.177946 -0.303893,-0.563753 0,-0.234841 0.03079,-0.43359 0.0924,-0.596314 0.06164,-0.162812 0.140948,-0.297307 0.237954,-0.40349 0.09708,-0.106276 0.205299,-0.183845 0.324675,-0.232677 0.119499,-0.04888 0.241339,-0.07688 0.365528,-0.08399 0.355564,-0.02035 0.739024,0.19434 1.150651,0.64533 0.197385,0.20963 0.377119,0.369674 0.539118,0.479982 0.162226,0.110459 0.306617,0.16251 0.433108,0.156034 0.262455,-0.01344 0.64816,-0.220756 1.158343,-0.623253 0.494083,-0.403252 0.89822,-0.614277 1.211466,-0.631829 0.415879,-0.0233 0.82859,0.06562 1.238094,0.267369 0.410929,0.202444 0.74821,0.522155 1.011208,0.959333 v -2.939603 c -0.09399,-1.935722 -0.586245,-3.077191 -1.4718,-3.423602 -0.102109,-0.02652 -0.220352,-0.04315 -0.35468,-0.04989 -0.134175,-0.0067 -0.201204,-0.07887 -0.201204,-0.216426 0,-0.189137 0.06009,-0.348721 0.180374,-0.478852 0.120403,-0.130259 0.250207,-0.201125 0.389442,-0.212505 0.595922,-0.04871 1.082336,0.231863 1.457868,0.843358 v -2.159174 c -0.6751,-1.186524 -1.332416,-1.789947 -1.972214,-1.815231 -0.184798,0.08634 -0.353174,0.162431 -0.505197,0.228309 -0.151824,0.06578 -0.294268,0.18205 -0.427366,0.348718 -0.132946,0.166468 -0.261166,0.413604 -0.384672,0.74129 -0.123375,0.327338 -0.248901,0.804011 -0.376571,1.429764 l -0.06834,0.543433 c -0.05464,0.362843 -0.116084,0.645016 -0.184311,0.846556 -0.06819,0.201422 -0.156775,0.306286 -0.265711,0.314676 -0.0907,0.007 -0.16548,-0.06812 -0.224361,-0.225255 -0.05885,-0.157054 -0.08826,-0.363152 -0.08826,-0.618353 0,-1.088858 0.190195,-2.169317 0.571519,-3.244013 -1.6524,0.698018 -3.122293,2.053379 -4.416182,4.056423 0.737575,-0.05794 1.262911,0.119511 1.573059,0.533466 0.319884,0.431289 0.48016,0.740236 0.48016,0.92594 0,0.286997 -0.08462,0.43639 -0.253667,0.448165 l -0.186556,-0.08812 c -0.38989,-0.325915 -0.707912,-0.479511 -0.954659,-0.461647 -0.211075,0.01528 -0.432725,0.08576 -0.664887,0.211259 -0.231689,0.125247 -0.458551,0.304205 -0.680613,0.536725 -0.22163,0.232062 -0.429829,0.516907 -0.62467,0.854439 -0.194507,0.336951 -0.360654,0.725538 -0.498565,1.16579 -0.180755,0.541774 -0.309689,0.864289 -0.386979,0.968138 -0.154421,0.588357 -0.291508,1.170889 -0.411323,1.747738 -0.119688,0.576241 -0.217908,1.171585 -0.294715,1.786177 z"
       id="path8214"
       style="fill:#f193b3;fill-opacity:1;stroke-width:1.00322" />
    <path
       d="m 30.529,62.797962 c 0,0.543318 0.06311,1.051017 0.189418,1.523481 0.12645,0.47298 0.300546,0.884903 0.5225,1.235884 0.222378,0.351653 0.486151,0.633539 0.7916,0.845571 0.30625,0.212588 0.633958,0.328309 0.983301,0.346784 0.322686,0.01706 0.618493,-0.05762 0.887212,-0.224387 0.269336,-0.167143 0.502016,-0.409908 0.697823,-0.728402 0.196134,-0.319023 0.348127,-0.709818 0.455811,-1.172304 0.107781,-0.46291 0.161708,-0.971677 0.161708,-1.525985 L 31.683824,59.538265 C 30.912667,60.40547 30.529,61.490603 30.529,62.797962 Z"
       id="path8212"
       style="fill:#004d40;fill-opacity:1;stroke-width:1.00322" />
    <path
       d="m 40.866015,59.74244 -3.689734,3.428522 c 0,0.57636 0.05723,1.102705 0.171786,1.579376 0.114662,0.477129 0.272501,0.882395 0.473691,1.215875 0.201528,0.334044 0.439479,0.60032 0.714069,0.798746 0.275222,0.198883 0.572882,0.306948 0.893143,0.323885 0.379592,0.02008 0.733493,-0.06289 1.061472,-0.24933 0.32887,-0.186944 0.614287,-0.452064 0.855941,-0.79549 0.242135,-0.344112 0.432724,-0.749123 0.571521,-1.214917 0.138956,-0.466325 0.208494,-0.976022 0.208494,-1.52869 0,-1.354931 -0.421583,-2.542685 -1.260383,-3.557977 z"
       id="path8210"
       style="fill:#004d40;fill-opacity:1;stroke-width:1.00322" />
    <path
       d="m 37.505755,72.125948 c 0.316003,0.02351 0.474318,-0.262623 0.474318,-0.858451 0,-0.28039 -0.0504,-0.542323 -0.151125,-0.785646 -0.100642,-0.243116 -0.246663,-0.493377 -0.437896,-0.750627 -0.391071,-0.496408 -0.757131,-0.754509 -1.098406,-0.775478 -0.387483,-0.02381 -0.764299,0.213214 -1.130544,0.70985 -0.374461,0.494476 -0.561248,1.034834 -0.561248,1.622249 0,0.449199 0.154078,0.685296 0.462837,0.708336 0.206288,0.01539 0.403536,-0.14329 0.591697,-0.476471 0.197892,-0.350405 0.391391,-0.519207 0.580475,-0.505948 0.14201,0.01 0.3506,0.198806 0.626119,0.567176 0.285693,0.352465 0.500412,0.534344 0.643773,0.54501 z"
       id="path8047"
       style="fill:#212121;fill-opacity:1;stroke-width:1.00322" />
  </g>
</svg>
