<?xml version="1.0" encoding="UTF-8" standalone="no"?>
<svg
   width="100%"
   height="100%"
   viewBox="0 0 128 128"
   version="1.1"
   xml:space="preserve"
   style="fill-rule:evenodd;clip-rule:evenodd;stroke-linejoin:round;stroke-miterlimit:2;"
   id="svg9448"
   sodipodi:docname="emoji_u1f92c.svg"
   inkscape:version="1.2.2 (732a01da63, 2022-12-09)"
   xmlns:inkscape="http://www.inkscape.org/namespaces/inkscape"
   xmlns:sodipodi="http://sodipodi.sourceforge.net/DTD/sodipodi-0.dtd"
   xmlns="http://www.w3.org/2000/svg"
   xmlns:svg="http://www.w3.org/2000/svg"><sodipodi:namedview
   id="namedview9450"
   pagecolor="#ffffff"
   bordercolor="#000000"
   borderopacity="0.25"
   inkscape:showpageshadow="2"
   inkscape:pageopacity="0.0"
   inkscape:pagecheckerboard="0"
   inkscape:deskcolor="#d1d1d1"
   showgrid="false"
   showguides="false"
   inkscape:zoom="2.8284271"
   inkscape:cx="82.024387"
   inkscape:cy="72.124892"
   inkscape:window-width="1366"
   inkscape:window-height="697"
   inkscape:window-x="-8"
   inkscape:window-y="-8"
   inkscape:window-maximized="1"
   inkscape:current-layer="svg9448" />
    <path
   d="M63.99,9.64C1.68,9.64 0.2,79.5 0.2,93.33C0.2,107.16 28.76,118.36 63.99,118.36C99.23,118.36 127.78,107.15 127.78,93.33C127.78,79.5 126.31,9.64 63.99,9.64Z"
   style="fill:rgb(252,194,27);fill-rule:nonzero;"
   id="path9416" />
    <g
   id="g9427">
        <clipPath
   id="_clip1">
            <path
   d="M63.99,9.64C1.68,9.64 0.2,79.5 0.2,93.33C0.2,107.16 28.76,118.36 63.99,118.36C99.23,118.36 127.78,107.15 127.78,93.33C127.78,79.5 126.31,9.64 63.99,9.64Z"
   id="path9418" />
        </clipPath>
        <g
   clip-path="url(#_clip1)"
   id="g9425">
            <g
   transform="matrix(2.19156,0,0,1.86971,-76.2596,-57.7292)"
   id="g9423">
                <ellipse
   cx="64"
   cy="47.638"
   rx="64"
   ry="47.638"
   style="fill:url(#_Radial2);"
   id="ellipse9421" />
            </g>
        </g>
    </g>
    
    <path
   d="m 43.483999,95.798332 c 2.050157,1.246016 4.516522,0.250254 6.702742,-0.312012 6.113795,-1.565983 11.525608,-1.867957 14.122795,-1.988856 2.597188,-0.120899 8.023639,-0.323446 14.246485,0.668267 2.228999,0.356738 4.777204,1.119072 6.702742,-0.312013 2.437759,-1.825329 0.295194,-7.85222 -3.86302,-11.803138 -2.513653,-2.385697 -8.462978,-6.964008 -17.932724,-6.523191 -9.469745,0.440816 -14.958035,5.551547 -17.249179,8.160907 -3.752754,4.329185 -5.326164,10.529054 -2.729841,12.110036 z"
   style="fill:#ed6c30;fill-rule:nonzero"
   id="path9433" />
    
    
    <defs
   id="defs9446">
        <radialGradient
   id="_Radial2"
   cx="0"
   cy="0"
   r="1"
   gradientUnits="userSpaceOnUse"
   gradientTransform="matrix(64,0,0,47.6377,64,47.6377)"><stop
     offset="0"
     style="stop-color:rgb(219,68,55);stop-opacity:1"
     id="stop9441" /><stop
     offset="1"
     style="stop-color:rgb(219,68,55);stop-opacity:0"
     id="stop9443" /></radialGradient>
    </defs>
<g
   id="g9431"
   style="clip-rule:evenodd;fill-rule:evenodd;stroke-linejoin:round;stroke-miterlimit:2"
   transform="translate(2.6801823e-4,-1.9435181)">
        <path
   d="m 51.25,51.1 c 0.94,0.08 1.72,0.82 1.81,1.75 v 0.02 c 0.5,5.74 -2.99,10.73 -7.78,11.15 -4.79,0.42 -9.1,-3.89 -9.61,-9.63 -0.19,-2.15 0.19,-4.2 0.98,-5.94 0.49,-1.07 1.82,-1.44 2.84,-0.85 3.31,1.91 7.35,3.15 11.76,3.5 z m 27.13,0 c -0.94,0.08 -1.72,0.82 -1.81,1.75 v 0.02 c -0.5,5.74 2.99,10.73 7.78,11.15 4.79,0.42 9.1,-3.89 9.61,-9.63 0.19,-2.15 -0.19,-4.2 -0.98,-5.94 -0.49,-1.07 -1.82,-1.44 -2.84,-0.85 -3.31,1.91 -7.35,3.15 -11.76,3.5 z"
   style="fill:#2f2f2f;fill-rule:nonzero"
   id="path9429" />
    </g><g
   id="g13417"><path
     d="m 104.92235,74.937798 c -0.0957,-1.766266 -1.61028,-3.125255 -3.37654,-3.029594 l -74.963375,4.060005 c -1.766261,0.09566 -3.125248,1.610284 -3.029587,3.37655 l 1.085299,20.03881 c 0.09566,1.766271 1.610282,3.125261 3.376544,3.029601 l 74.963379,-4.060006 c 1.76626,-0.09566 3.12524,-1.610282 3.02958,-3.376554 z"
     style="fill:#2f2f2f;fill-opacity:1;stroke-width:0.999998"
     id="path9435"
     sodipodi:nodetypes="sssssssss" /><path
     style="color:#000000;clip-rule:nonzero;fill:#ffffff;stroke-width:1.78066;stroke-linejoin:miter;-inkscape-stroke:none"
     d="m 51.785818,92.103723 c 1.014389,-4.906897 -1.570831,-9.979612 -6.911517,-10.719833 -3.89922,-0.540442 -7.911987,1.873441 -8.813944,5.811621 -0.788218,3.441625 1.460575,6.759646 5.044342,7.528604 3.076033,0.66005 5.970755,-0.84179 6.610689,-4.049286 0.536511,-2.689107 -1.477304,-4.838069 -3.686578,-5.138849 -2.283661,-0.310907 -4.032729,0.783627 -4.301828,2.701975 -0.208786,1.488349 1.061712,2.962886 2.38485,2.940586 0.438771,-0.0079 0.806679,-0.253194 0.812937,-0.691999 0.0051,-0.36136 -0.266041,-0.574251 -0.583787,-0.746432 -0.510799,-0.276757 -0.704909,-0.777723 -0.641763,-1.227856 0.09974,-0.711007 0.868479,-1.119716 1.986176,-1.021511 1.029277,0.09044 2.149575,1.055542 1.81689,2.723025 -0.340616,1.707246 -1.90413,2.81653 -4.040313,2.349406 -2.096209,-0.458382 -3.354797,-2.70611 -2.876796,-4.793194 0.566153,-2.47198 3.270276,-4.046294 5.780505,-3.670492 3.681363,0.551104 5.602029,3.985079 4.790362,7.27514 -0.924529,3.747553 -4.978077,5.973289 -8.715164,5.035068 -4.200133,-1.054456 -6.68259,-5.568926 -5.607704,-9.727567 1.082036,-4.186262 4.092015,-6.53007 9.602615,-6.577843 1.314102,-0.01132 2.503261,-0.07939 2.563761,-1.121146 0.05813,-1.001196 -0.969409,-1.544484 -2.127473,-1.641299 -5.752136,-0.480838 -11.475708,2.885047 -12.95107,8.593075 -1.48254,5.735802 1.381277,12.339188 8.244663,13.147398 6.565609,0.773148 10.694308,-2.500006 11.620147,-6.978591 z"
     id="path11228"
     sodipodi:nodetypes="sssssssssssssssssssssssss" /><path
     style="fill:#ffffff;fill-opacity:1;stroke-width:2.99999;stroke-linecap:round;stroke-dasharray:none"
     d="m 54.699898,81.14906 c 0.17988,3.864235 1.05513,10.89368 2.341218,10.833813 1.286089,-0.05987 1.043827,-8.388552 0.956319,-10.268426 -0.08751,-1.879894 -0.493228,-4.215966 -1.937845,-4.148719 -1.444619,0.06725 -1.427754,2.121205 -1.359692,3.583332 z"
     id="path11237"
     sodipodi:nodetypes="sssss" /><circle
     style="fill:#ffffff;stroke-width:0.999995"
     cx="52.662319"
     cy="97.892479"
     r="2.1701586"
     id="circle3055"
     transform="rotate(-2.6651924)" /><path
     d="m 91.797598,76.679636 c -4.175856,2.511983 -11.35475,9.957783 -10.043022,10.623948 0.893862,0.455319 6.884967,0.09967 7.67767,0.551629 0.792701,0.451958 -3.214976,7.745082 -3.149431,8.024847 0.08486,0.34754 0.627059,0.972754 3.50557,-1.415619 4.453798,-3.698 7.184111,-7.881373 7.184111,-7.881373 0,0 2.608685,-2.45662 -6.127737,-2.926649 -0.843434,-0.760683 5.750863,-6.978181 4.943556,-8.079603 -0.815878,-1.113106 -2.808103,0.391409 -3.990717,1.10282 z"
     fill="#ffca28"
     id="path15516"
     style="fill:#ffffff;stroke-width:1"
     sodipodi:nodetypes="scsccccss" /><path
     id="path12714"
     style="fill:#ffffff;fill-opacity:1;stroke-width:0.999995"
     d="m 70.080719,76.133597 c -6.203655,0.205128 -9.111291,3.75575 -8.931162,9.203312 0.136207,4.119282 1.829309,6.282223 4.329703,7.284955 0.248168,3.850795 2.531854,3.776273 5.328759,3.683791 2.796906,-0.09249 5.080536,-0.168695 5.07377,-4.02776 2.428693,-1.165715 3.975214,-3.435778 3.839007,-7.555061 -0.180129,-5.447562 -3.316962,-8.796212 -9.640077,-8.589237 z m -3.371286,6.781847 c 1.613933,-0.05337 2.653667,1.215802 2.483429,2.626868 -0.190492,1.60207 -1.756044,2.499849 -3.369976,2.553216 -1.613925,0.05337 -2.56252,-0.957811 -2.597829,-2.025658 -0.04701,-1.421562 1.870445,-3.10106 3.484376,-3.154426 z m 7.303759,-0.238786 c 1.613932,-0.05337 3.638139,1.495776 3.685146,2.917359 0.03531,1.067846 -0.84441,2.139479 -2.458342,2.192845 -1.613932,0.05337 -3.235469,-0.741774 -3.531369,-2.32776 -0.263088,-1.396738 0.688425,-2.729005 2.304565,-2.782444 z m -3.466951,5.712126 a 1.95547,1.3183938 88.106155 0 1 1.38274,1.911001 1.95547,1.3183938 88.106155 0 1 -1.25348,1.998162 1.95547,1.3183938 88.106155 0 1 -1.382739,-1.910994 1.95547,1.3183938 88.106155 0 1 1.253479,-1.998169 z" /></g></svg>
