<?xml version="1.0" encoding="UTF-8" standalone="no"?>
<svg
   width="128"
   height="128"
   version="1.1"
   id="svg21"
   sodipodi:docname="emoji_u1f989_test.svg"
   inkscape:version="1.3 (0e150ed6c4, 2023-07-21)"
   xmlns:inkscape="http://www.inkscape.org/namespaces/inkscape"
   xmlns:sodipodi="http://sodipodi.sourceforge.net/DTD/sodipodi-0.dtd"
   xmlns="http://www.w3.org/2000/svg"
   xmlns:svg="http://www.w3.org/2000/svg">
  <defs
     id="defs21" />
  <sodipodi:namedview
     id="namedview21"
     pagecolor="#ffffff"
     bordercolor="#000000"
     borderopacity="0.25"
     inkscape:showpageshadow="2"
     inkscape:pageopacity="0.0"
     inkscape:pagecheckerboard="0"
     inkscape:deskcolor="#d1d1d1"
     inkscape:zoom="2.867097"
     inkscape:cx="50.922588"
     inkscape:cy="75.51192"
     inkscape:window-width="1366"
     inkscape:window-height="697"
     inkscape:window-x="-8"
     inkscape:window-y="-8"
     inkscape:window-maximized="1"
     inkscape:current-layer="svg21" />
  <style
     id="style1">.st0{fill:#885c52}.st1{fill:#bb917a}.st2{fill:#fff}.st3{fill:#2f2f2f}.st4{fill:#fef6e0}.st5{fill:#ffc148}.st6{fill:none;stroke:#bb917a;stroke-width:3;stroke-linecap:round;stroke-linejoin:round;stroke-miterlimit:10}</style>
  <g
     id="g40"
     transform="matrix(-1.0067655,0,0,1.0312462,128.26855,-1.8585078)"
     style="stroke-width:0.98142">
    <path
       style="fill:#855c52;fill-opacity:1;stroke-width:8.83277;stroke-linecap:round"
       d="m 50.126326,59.985541 c -3.88216,-0.662742 -7.909469,-0.753114 -11.751613,0.204417 -4.008263,0.957887 -7.776401,3.061433 -10.49732,6.182851 -2.078295,2.366515 -3.624878,5.162018 -4.836015,8.05751 -1.676772,4.201161 -2.408738,8.900838 -1.416138,13.358242 0.445816,1.745634 1.219683,3.558749 2.733217,4.632293 1.413867,0.873128 3.363749,0.680862 4.583249,-0.447628 3.05834,-2.14501 5.065229,-5.372844 7.294002,-8.29524 2.888303,-4.006804 5.887889,-7.997495 9.650507,-11.235497 1.953221,-1.805017 4.036493,-3.494956 5.701617,-5.584388 0.962907,-1.642385 1.229189,-3.876065 0.07268,-5.494789 -0.356782,-0.597012 -0.85856,-1.149404 -1.534187,-1.377771 z"
       id="path39" />
    <path
       id="path40"
       style="fill:#2f2f2f;fill-opacity:1;stroke-width:0.981405"
       class="st0"
       d="m 45.044922,59.978516 c -1.011348,0.171463 -1.685008,1.063107 -2.089844,1.939453 -1.775973,2.881932 -4.150253,5.327536 -6.607235,7.631759 -3.253058,3.188317 -6.075086,6.950108 -7.549129,11.30107 -1.306765,3.546027 -1.909858,7.302028 -2.294808,11.04764 -0.479839,0.88289 0.960364,1.338616 1.418868,0.636004 2.237701,-1.137043 3.689668,-3.296122 4.960726,-5.380437 2.003427,-3.190252 3.69642,-6.63578 6.33447,-9.372292 1.763712,-1.811864 3.849444,-3.267169 6.023704,-4.541457 1.909507,-1.149979 3.810118,-2.404884 5.220955,-4.160359 0.661696,-0.823688 1.450664,-1.645023 1.664324,-2.714663 0.386866,-1.568729 0.484705,-3.33941 -0.325335,-4.793734 -0.636277,-1.102474 -1.945247,-1.710367 -3.199266,-1.595892 -1.185828,8.35e-4 -2.371847,-0.03065 -3.55743,0.0029 z" />
  </g>
  <path
     style="fill:#fcc21b;fill-opacity:1;stroke-width:9;stroke-linecap:round"
     d="m 89.25527,103.00639 c 3.939219,2.47996 7.239233,6.32576 9.17508,9.88035 1.76576,3.24229 0.797979,6.82904 -1.35375,8.21995 -4.153613,2.68493 -13.377208,0.81361 -20.480739,-2.0923 -7.809921,-3.1949 -12.765308,-9.24808 -4.669003,-17.0145 4.602685,-4.415156 14.280511,-0.91231 17.328412,1.0065 z"
     id="path36"
     sodipodi:nodetypes="ssssss" />
  <path
     style="fill:#fcc21b;fill-opacity:1;stroke-width:9;stroke-linecap:round"
     d="m 36.257824,103.00639 c -3.939219,2.47996 -7.239233,6.32576 -9.17508,9.88035 -1.765762,3.24229 -0.797976,6.82904 1.35375,8.21995 4.153613,2.68493 13.377208,0.81361 20.480739,-2.0923 7.809921,-3.1949 12.765308,-9.24808 4.669003,-17.0145 -4.602685,-4.415156 -14.280511,-0.91231 -17.328412,1.0065 z"
     id="path35"
     sodipodi:nodetypes="ssssss" />
  <g
     id="g39"
     transform="matrix(1.0067655,0,0,1.0312462,-0.43243889,-1.8585078)"
     style="stroke-width:0.98142">
    <path
       style="fill:#855c52;fill-opacity:1;stroke-width:8.83277;stroke-linecap:round"
       d="m 50.126326,59.985541 c -3.88216,-0.662742 -7.909469,-0.753114 -11.751613,0.204417 -4.008263,0.957887 -7.776401,3.061433 -10.49732,6.182851 -2.078295,2.366515 -3.624878,5.162018 -4.836015,8.05751 -1.676772,4.201161 -2.408738,8.900838 -1.416138,13.358242 0.445816,1.745634 1.219683,3.558749 2.733217,4.632293 1.413867,0.873128 3.363749,0.680862 4.583249,-0.447628 3.05834,-2.14501 5.065229,-5.372844 7.294002,-8.29524 2.888303,-4.006804 5.887889,-7.997495 9.650507,-11.235497 1.953221,-1.805017 4.036493,-3.494956 5.701617,-5.584388 0.962907,-1.642385 1.229189,-3.876065 0.07268,-5.494789 -0.356782,-0.597012 -0.85856,-1.149404 -1.534187,-1.377771 z"
       id="path37" />
    <path
       id="path38"
       style="fill:#2f2f2f;fill-opacity:1;stroke-width:0.981405"
       class="st0"
       d="m 45.044922,59.978516 c -1.011348,0.171463 -1.685008,1.063107 -2.089844,1.939453 -1.775973,2.881932 -4.150253,5.327536 -6.607235,7.631759 -3.253058,3.188317 -6.075086,6.950108 -7.549129,11.30107 -1.306765,3.546027 -1.909858,7.302028 -2.294808,11.04764 -0.479839,0.88289 0.960364,1.338616 1.418868,0.636004 2.237701,-1.137043 3.689668,-3.296122 4.960726,-5.380437 2.003427,-3.190252 3.69642,-6.63578 6.33447,-9.372292 1.763712,-1.811864 3.849444,-3.267169 6.023704,-4.541457 1.909507,-1.149979 3.810118,-2.404884 5.220955,-4.160359 0.661696,-0.823688 1.450664,-1.645023 1.664324,-2.714663 0.386866,-1.568729 0.484705,-3.33941 -0.325335,-4.793734 -0.636277,-1.102474 -1.945247,-1.710367 -3.199266,-1.595892 -1.185828,8.35e-4 -2.371847,-0.03065 -3.55743,0.0029 z" />
  </g>
  <path
     class="st0"
     d="m 64.06801,117.11919 c -25.141033,0 -32.352561,-17.99982 -31.901432,-30.111098 0.451132,-12.111294 7.810791,-37.875687 31.919843,-37.875687 24.109055,0 31.450303,25.764393 31.892226,37.875687 0.441925,12.111278 -6.76961,30.111098 -31.910637,30.111098 z"
     id="path1"
     sodipodi:nodetypes="zszsz"
     style="fill:#855c52;stroke-width:0.999985" />
  <path
     id="path6"
     class="st4"
     d="m 63.412713,108.31535 c -12.028568,0 -19.687846,-6.78493 -19.687846,-18.178017 0,-9.047436 5.712872,-26.007711 19.687846,-26.007711 13.974975,0 19.687845,16.960275 19.687845,26.007711 0,11.393087 -7.659278,18.178017 -19.687845,18.178017 z"
     sodipodi:nodetypes="zszsz"
     style="fill:#ffe0b2;stroke-width:0.999985" />
  <g
     id="g21" />
  <path
     style="fill:#855c52;fill-opacity:1;stroke-width:9;stroke-linecap:round"
     d="m 83.338996,4.4471738 c 3.771046,-0.9004015 10.817401,5.5714832 10.817401,12.5494072 0,6.078336 -6.313336,14.369877 -13.289785,14.369877 -5.85476,0 -8.431343,-5.088843 -8.431343,-8.027194 0,-2.868303 5.470718,-3.437057 7.573353,-8.542138 2.314672,-5.6198733 -0.312755,-9.4800705 3.330374,-10.3499522 z"
     id="path23"
     sodipodi:nodetypes="ssssss" />
  <path
     style="fill:#855c52;fill-opacity:1;stroke-width:9;stroke-linecap:round"
     d="M 44.805447,4.4471738 C 41.034401,3.5467723 33.988039,10.018657 33.988039,16.996581 c 0,6.078336 6.313344,14.369877 13.289791,14.369877 5.854762,0 8.431344,-5.088843 8.431344,-8.027194 0,-2.868303 -5.470718,-3.437057 -7.573354,-8.542138 C 45.821149,9.1772527 48.448576,5.3170555 44.805447,4.4471738 Z"
     id="path22"
     sodipodi:nodetypes="ssssss" />
  <path
     class="st0"
     d="m 64.067572,68.791422 c -27.704677,0 -35.651573,-15.481512 -35.154438,-25.89835 0.497133,-10.416837 8.607261,-32.57661 35.17473,-32.57661 26.567467,0 34.657305,22.159773 35.144295,32.57661 0.486983,10.416838 -7.459909,25.89835 -35.164587,25.89835 z"
     id="path21"
     sodipodi:nodetypes="zszsz"
     style="fill:#855c52;stroke-width:0.999995" />
  <ellipse
     class="st1"
     cx="79.526718"
     cy="36.482021"
     id="circle1"
     style="fill:#ffffff;fill-opacity:1;stroke-width:0.999995"
     rx="11.086995"
     ry="11.876175" />
  <circle
     class="st3"
     cx="79.526718"
     cy="36.482021"
     r="4.9024124"
     id="circle3"
     style="stroke-width:0.999995" />
  <ellipse
     class="st1"
     cx="48.60788"
     cy="36.482021"
     id="circle4"
     style="fill:#ffffff;fill-opacity:1;stroke-width:0.999995"
     rx="11.086995"
     ry="11.876175" />
  <circle
     class="st3"
     cx="48.60788"
     cy="36.482021"
     r="4.9024124"
     id="circle6"
     style="stroke-width:0.999995" />
  <path
     class="st5"
     d="m 67.369177,46.763978 c -1.7263,-1.772502 -4.874256,-1.772502 -6.600555,0 -1.320111,1.350477 -2.538674,3.207383 -2.33558,5.655123 0.203094,3.545003 2.640222,6.077149 4.264973,7.343221 0.812375,0.590832 1.929392,0.590832 2.741768,0 1.624752,-1.266072 4.06188,-3.798218 4.264974,-7.343221 0.101548,-2.532143 -1.01547,-4.389052 -2.33558,-5.655123 z"
     id="path20"
     style="fill:#fcc21b;stroke-width:0.999995" />
</svg>
