<?xml version="1.0" encoding="UTF-8" standalone="no"?>
<svg
   width="100%"
   height="100%"
   viewBox="0 0 534 534"
   version="1.1"
   xml:space="preserve"
   style="fill-rule:evenodd;clip-rule:evenodd;stroke-linejoin:round;stroke-miterlimit:2;"
   id="svg29066"
   sodipodi:docname="emoji_u1f602.svg"
   inkscape:version="1.2.2 (732a01da63, 2022-12-09)"
   xmlns:inkscape="http://www.inkscape.org/namespaces/inkscape"
   xmlns:sodipodi="http://sodipodi.sourceforge.net/DTD/sodipodi-0.dtd"
   xmlns="http://www.w3.org/2000/svg"
   xmlns:svg="http://www.w3.org/2000/svg"><defs
     id="defs29070" /><sodipodi:namedview
     id="namedview29068"
     pagecolor="#ffffff"
     bordercolor="#000000"
     borderopacity="0.25"
     inkscape:showpageshadow="2"
     inkscape:pageopacity="0.0"
     inkscape:pagecheckerboard="0"
     inkscape:deskcolor="#d1d1d1"
     showgrid="false"
     inkscape:zoom="1.0168539"
     inkscape:cx="282.24309"
     inkscape:cy="296.01105"
     inkscape:window-width="1366"
     inkscape:window-height="697"
     inkscape:window-x="-8"
     inkscape:window-y="-8"
     inkscape:window-maximized="1"
     inkscape:current-layer="svg29066" /><path
     d="M266.208,40.167c-259.625,-0 -265.791,291.083 -265.791,348.708c-0,57.625 119,104.292 265.791,104.292c146.834,-0 265.792,-46.709 265.792,-104.292c0,-57.625 -6.125,-348.708 -265.792,-348.708Z"
     style="fill:#fcc21b;fill-rule:nonzero;fill-opacity:1"
     id="path29052" /><g
     id="g29056"><path
       d="M133.167,218.825c-3.217,5.308 -10.213,7.05 -15.542,3.875c-5.317,-3.159 -7.117,-10.117 -4,-15.459c0.75,-1.291 19.167,-31.75 59.875,-31.75c40.75,0 59.167,30.459 59.958,31.75c1.013,1.742 1.546,3.717 1.546,5.73c0,6.245 -5.133,11.387 -11.379,11.395c-3.833,0 -7.625,-1.958 -9.75,-5.5c-0.542,-0.916 -13,-20.666 -40.375,-20.666c-27.375,-0.042 -39.75,19.75 -40.333,20.625Zm283.5,3.916c-1.792,1.084 -3.792,1.584 -5.709,1.584c-3.916,-0 -7.708,-2.042 -9.833,-5.584c-0.458,-0.833 -12.833,-20.583 -40.25,-20.583c-27.875,0 -40.25,20.375 -40.375,20.583c-2.067,3.342 -5.725,5.384 -9.654,5.384c-6.229,-0 -11.35,-5.121 -11.35,-11.35c-0,-1.954 0.504,-3.875 1.462,-5.575c0.75,-1.292 19.167,-31.75 59.917,-31.75c40.708,-0 59.083,30.458 59.833,31.75c3.167,5.416 1.334,12.375 -4.041,15.541Z"
       style="fill:#2f2f2f;fill-rule:nonzero;"
       id="path29054" /></g><g
     id="g29060"
     transform="translate(0,-5.9005525)"><path
       d="m 444.042,330.875 c -5.75,-9.208 -12.209,-29.042 -13.209,-35.375 -1.708,-10.875 -6.25,-30.583 -9.583,-47.083 -0.917,-4.459 -0.833,-10.667 4.792,-10.959 4.5,-0.125 11.541,2.542 15.666,3.959 12.167,4.166 24.917,11.208 35.459,18.333 19.25,13.208 32.333,34.375 29.75,58.292 -1.959,17.666 -18.542,29.333 -33.542,28.625 -10.833,-0.417 -24,-7.209 -29.333,-15.792 z m -354.75,0 c 5.75,-9.208 12.208,-29.042 13.208,-35.375 1.708,-10.875 6.25,-30.583 9.583,-47.083 0.917,-4.459 0.834,-10.667 -4.791,-10.959 -4.5,-0.125 -11.542,2.542 -15.667,3.959 -12.167,4.166 -24.917,11.208 -35.458,18.333 -19.25,13.208 -32.334,34.375 -29.75,58.292 1.958,17.666 18.541,29.333 33.541,28.625 10.834,-0.417 24,-7.209 29.334,-15.792 z"
       style="fill:#ffffff;fill-rule:nonzero"
       id="path29058" /></g><g
     id="g29064"
     transform="translate(0,6.9538678)"><path
       d="m 397.809,265.944 c -12.483,-8.443 -28.198,-2.868 -42.096,0 -38.701,7.999 -72.717,8.322 -89.038,8.322 -16.321,0 -50.337,-0.323 -89.039,-8.322 -13.897,-2.868 -29.612,-8.443 -42.095,0 -15.836,10.706 -4.161,49.085 20.765,75.02 15.069,15.675 50.943,46.095 110.369,46.095 59.426,0 95.3,-30.42 110.369,-46.095 24.926,-25.935 36.561,-64.314 20.765,-75.02 z"
       style="fill:#ec6c31;fill-rule:nonzero"
       id="path29062" /></g></svg>
