<?xml version="1.0" encoding="UTF-8" standalone="no"?>
<svg
   width="128"
   height="128"
   version="1.1"
   id="svg14"
   sodipodi:docname="emoji_u1f6b8.svg"
   inkscape:version="1.3 (0e150ed6c4, 2023-07-21)"
   xmlns:inkscape="http://www.inkscape.org/namespaces/inkscape"
   xmlns:sodipodi="http://sodipodi.sourceforge.net/DTD/sodipodi-0.dtd"
   xmlns="http://www.w3.org/2000/svg"
   xmlns:svg="http://www.w3.org/2000/svg">
  <defs
     id="defs14" />
  <sodipodi:namedview
     id="namedview14"
     pagecolor="#ffffff"
     bordercolor="#000000"
     borderopacity="0.25"
     inkscape:showpageshadow="2"
     inkscape:pageopacity="0.0"
     inkscape:pagecheckerboard="0"
     inkscape:deskcolor="#d1d1d1"
     inkscape:zoom="2.867097"
     inkscape:cx="66.443513"
     inkscape:cy="83.185186"
     inkscape:window-width="1366"
     inkscape:window-height="697"
     inkscape:window-x="-8"
     inkscape:window-y="-8"
     inkscape:window-maximized="1"
     inkscape:current-layer="svg14" />
  <path
     d="M 122.55701,67.358888 67.359316,122.55658 c -1.849245,1.85853 -4.85733,1.85853 -6.706576,0 L 5.4438552,67.358888 c -1.8585328,-1.849245 -1.8585328,-4.857328 0,-6.706573 L 60.641545,5.4434336 c 1.849246,-1.8585329 4.857329,-1.8585329 6.706575,0 l 55.20889,55.1976844 c 1.84746,1.858204 1.84746,4.859566 0,6.71777 z"
     fill="none"
     stroke="#444444"
     stroke-width="3.23451"
     stroke-miterlimit="10"
     id="path2"
     style="fill:#fcc21b;fill-opacity:1;stroke:none"
     sodipodi:nodetypes="ccccccccc" />
  <path
     id="path15"
     style="fill:#2f2f2f;fill-opacity:1;stroke:none"
     d="m 63.993918,11.476194 c -1.104887,0 -2.209823,0.421559 -3.051112,1.267073 L 12.720082,60.978155 c -1.691028,1.682577 -1.691028,4.417619 0,6.100196 l 48.23286,48.224759 c 1.682578,1.69102 4.419647,1.69102 6.102224,0 L 115.27992,67.078351 c 1.68096,-1.690728 1.68096,-4.419604 0,-6.110332 L 67.04503,12.743267 c -0.841289,-0.845514 -1.946224,-1.267073 -3.051112,-1.267073 z m 0.0022,5.6449 c 0.949546,0 1.898085,0.363205 2.621094,1.089844 l 43.169918,43.162109 c 1.44462,1.45302 1.44462,3.800885 0,5.253906 L 66.626953,109.78906 c -1.446015,1.45327 -3.800078,1.45327 -5.246094,0 L 18.210938,66.626953 c -1.45328,-1.446016 -1.45328,-3.798125 0,-5.244141 L 61.373047,18.210938 c 0.723009,-0.726639 1.6735,-1.089844 2.623047,-1.089844 z"
     sodipodi:nodetypes="sccccccccssccccccccss" />
  <g
     id="g6"
     transform="matrix(0.58718049,0,0,0.58718049,27.401761,17.703221)"
     style="fill:#2f2f2f;fill-opacity:1;stroke-width:1.70305">&#10;	<path
   fill="#fcc21b"
   d="m 53.141031,78.670223 c 0.204784,-0.07123 0.36505,0.169169 0.471894,0.302725 0.204785,0.258206 0.409569,0.587642 0.560932,0.863656 1.30884,2.208111 3.810772,4.99496 6.054497,6.277089 2.964923,1.709505 7.372241,1.006115 7.959884,-2.858079 C 68.330697,82.338536 68.07249,81.368035 67.520462,80.673549 66.834879,79.8277 65.62398,79.453746 64.644576,78.8572 62.445369,77.530553 60.735864,75.135465 59.222239,73.105427 57.922303,71.351404 56.782633,69.472729 55.714192,67.558439 55.090935,66.436576 54.200568,65.519498 53.354719,64.557901 52.980765,64.130525 52.304085,63.471653 51.90342,62.803878 c 0.04452,-0.03562 0.08013,-0.08013 0.133555,-0.115748 0.694487,-0.454087 1.442395,-0.783523 2.136882,-1.246514 2.564258,-1.727313 4.425125,-4.300474 5.377818,-7.203072 0.925982,-2.769042 1.077345,-5.751772 0.828042,-8.636562 -0.216969,-2.907383 -2.256004,-6.768574 -4.111778,-8.789281 -3.592508,-3.911795 -7.320538,-5.39427 -10.69503,-5.634669 -4.184726,-0.293821 -8.609852,0.658872 -11.895307,3.214226 -5.965461,4.665524 -8.235897,12.189128 -5.288782,19.303162 0.997212,2.386185 2.564258,4.558681 4.514162,6.348319 1.246515,1.121863 4.229245,1.807446 2.377281,3.944327 -0.0089,0.01781 -0.04452,0.05342 -0.06233,0.08013 -0.658871,0.569835 -1.335551,1.077345 -1.807445,1.522528 -4.932635,4.53197 -9.242013,9.954306 -10.73783,16.623157 -0.26711,1.201996 -0.276013,2.760139 -0.07123,3.979942 0.195881,1.112959 0.925982,2.439606 1.851964,3.169708 0.908175,0.721197 2.314955,0.819138 3.481336,0.819138 0.632161,0 1.175285,-0.02671 1.736216,-0.258207 0.578739,-0.231495 1.148574,-0.587642 1.540336,-1.095152 0.400665,-0.525316 0.578738,-1.210899 0.641064,-1.834156 0.04452,-0.418473 0,-0.863657 0,-1.282129 0,-0.60545 -0.03561,-1.077345 -0.231495,-1.638276 -0.186978,-0.525317 -0.08013,-0.979404 0.03561,-1.513624 0.293821,-1.299937 0.596546,-2.608776 1.246514,-3.775158 0.382858,-0.676679 0.890368,-1.415684 1.664987,-1.67389 0.284918,-0.08904 0.60545,-0.08904 0.77462,0.258206 0.213688,0.454088 0.0089,1.006115 -0.231496,1.406781 -0.284917,0.471894 -0.569835,0.80133 -0.70339,1.371165 -0.338339,1.388973 -0.329436,2.831368 -0.222592,4.255956 0.178074,2.27934 0.03561,3.703928 -0.979404,5.742869 -0.373954,0.747908 -0.694486,1.531432 -1.086248,2.270436 -0.400665,0.756813 -0.845849,1.451299 -1.335551,2.172497 -1.210899,1.745119 -2.555354,3.303262 -4.060074,4.816885 -1.11296,1.112958 -2.35057,2.234828 -3.098479,3.597088 -0.63216,1.16638 -1.015018,2.51083 -0.997211,3.84639 0.07123,3.83748 5.529181,9.57144 9.464604,7.19416 1.282129,-0.76571 2.021134,-2.29714 1.629372,-3.75735 -0.19588,-0.739 -0.578738,-1.43349 -0.694486,-2.1903 -0.160266,-0.95269 0.249303,-1.4424 0.739005,-2.1814 1.807445,-2.68001 3.472432,-5.51137 5.876424,-7.72839 0.925982,-0.863656 2.030037,-1.682794 3.285455,-1.994422 0.560931,-0.142459 1.13967,-0.178074 1.718409,-0.06233 1.887578,0.373954 2.938212,2.314955 3.810772,3.828574 1.424587,2.466318 3.045056,4.790178 4.603199,7.185268 0.997211,1.55814 1.967711,3.13409 2.902597,4.73675 1.362262,2.35947 3.748446,2.88479 6.250378,2.09236 1.04173,-0.33834 2.172496,-0.92598 3.018345,-1.63827 1.513625,-1.28213 3.383396,-3.59709 2.715621,-5.60041 -0.284918,-0.85476 -0.961597,-1.65609 -1.673891,-2.1814 -0.9705,-0.70339 -1.567046,-0.49861 -2.626583,-0.55203 -1.843061,-0.0979 -3.009442,-2.11907 -3.801869,-3.52585 -1.273225,-2.261533 -2.688909,-4.540873 -3.775157,-6.935961 -1.148574,-2.528643 -1.522528,-5.039479 -1.967712,-7.764002 -0.169169,-1.04173 -0.400665,-2.074556 -0.596546,-3.107382 -0.09794,-0.525317 -0.249303,-1.104056 -0.249303,-1.638276 -0.03561,-0.445184 -0.596546,-2.1814 -0.115747,-2.359473 z"
   id="path1-2"
   style="fill:#2f2f2f;fill-opacity:1;stroke-width:1.70305"
   sodipodi:nodetypes="cccccccccccccccsccccccccccscccsccccccccccccccccccccccccccscccccccc" />
&#10;	<g
   id="g5"
   style="fill:#2f2f2f;fill-opacity:1;stroke-width:1.70305">&#10;		&#10;		&#10;		&#10;		&#10;	</g>
&#10;<path
   fill="#fcc21b"
   d="m 91.910161,84.691126 c 0.170472,-0.0593 0.303885,0.140824 0.392827,0.252 0.170471,0.214943 0.340943,0.48918 0.466943,0.718946 1.089536,1.838128 3.172254,4.158023 5.040034,5.225323 2.468135,1.423067 6.136975,0.837534 6.626155,-2.37919 0.11859,-0.763415 -0.0964,-1.571302 -0.55589,-2.149423 -0.57071,-0.704122 -1.57871,-1.015418 -2.39401,-1.512009 -1.83072,-1.104359 -3.253785,-3.098135 -4.513788,-4.788026 -1.082129,-1.460126 -2.030842,-3.024018 -2.920258,-4.617555 -0.518827,-0.933888 -1.260008,-1.697304 -1.964129,-2.49778 -0.311296,-0.355766 -0.874593,-0.90424 -1.208125,-1.460125 0.03706,-0.02965 0.06671,-0.06671 0.111177,-0.09635 0.578121,-0.378003 1.200713,-0.65224 1.778834,-1.037653 2.134602,-1.437891 3.683675,-3.579902 4.476734,-5.996152 0.770827,-2.305072 0.896831,-4.788026 0.689296,-7.189451 -0.180611,-2.420233 -1.87799,-5.634457 -3.422825,-7.316582 -2.990559,-3.256349 -6.093936,-4.490425 -8.90301,-4.690544 -3.483549,-0.24459 -7.167217,0.548474 -9.902173,2.675662 -4.96591,3.883786 -6.855921,10.146763 -4.402612,16.068796 0.830121,1.986364 2.134599,3.794844 3.757785,5.284617 1.037653,0.933888 3.520607,1.504597 1.978952,3.28343 -0.0074,0.01482 -0.03706,0.04447 -0.05188,0.06671 -0.548474,0.474356 -1.111771,0.896829 -1.504596,1.267419 -4.106141,3.772609 -4.355204,4.37776 -7.417788,4.624609 -1.021524,0.08437 -2.262444,0.461934 -3.181635,0.925852 -0.836446,0.430468 -1.710897,1.338392 -2.062741,2.254778 -0.34916,0.900032 -0.07975,2.042598 0.208184,2.96987 0.156055,0.502567 0.311363,0.927758 0.633874,1.31655 0.326906,0.40295 0.750711,0.76805 1.25089,0.954217 0.516534,0.18885 1.095639,0.125272 3.652305,-0.559784 1.47748,-0.39589 3.686086,-1.193934 4.808638,-1.60096 1.122552,-0.407026 2.426978,-1.079312 3.071805,-1.294255 0.237178,-0.07411 0.504002,-0.07411 0.644827,0.214943 0.177883,0.378002 0.0074,0.837534 -0.192707,1.171065 -0.237178,0.392826 -0.474356,0.667062 -0.585533,1.141418 -0.281649,1.156242 -0.274236,2.356955 -0.185295,3.542844 0.148237,1.897422 0.02965,3.08331 -0.815298,4.780614 -0.311297,0.622592 -0.578121,1.274831 -0.904241,1.890012 -0.333531,0.630006 -0.704122,1.208121 -1.111771,1.808478 -1.008005,1.452722 -2.243028,3.75447 -3.111974,5.30417 -0.64418,1.14094 -1.386341,2.31684 -1.682128,3.57624 -0.246672,1.07649 -0.253672,2.24014 0.05866,3.30724 0.913541,3.06165 6.570303,6.44208 9.195861,3.6573 0.857345,-0.90022 1.108235,-2.29331 0.46818,-3.37692 -0.322013,-0.54894 -0.784041,-1.02045 -1.045768,-1.60157 -0.34114,-0.72826 -0.121964,-1.21239 0.105838,-1.91434 0.851423,-2.55265 1.384887,-4.11221 3.386074,-5.95775 0.770828,-0.71895 1.689892,-1.400818 2.734957,-1.660238 0.466943,-0.11859 0.948711,-0.14824 1.430478,-0.0519 1.571303,0.3113 2.445896,1.927068 3.172253,3.187078 1.185889,2.05307 2.534838,3.98754 3.831904,5.98132 0.830123,1.29707 1.63801,2.60896 2.41625,3.94309 1.134006,1.96412 3.120374,2.40141 5.203094,1.74177 0.867181,-0.28165 1.808481,-0.77083 2.512601,-1.36378 1.26001,-1.0673 2.81649,-2.99437 2.2606,-4.66202 -0.23718,-0.71153 -0.80047,-1.37859 -1.39342,-1.81589 -0.80788,-0.58553 -1.30448,-0.41506 -2.18649,-0.45954 -1.534239,-0.0816 -2.505185,-1.764 -3.164831,-2.93507 -1.059893,-1.8826 -2.238368,-3.780018 -3.142613,-5.773796 -0.956123,-2.104955 -1.267419,-4.195084 -1.638009,-6.463097 -0.140825,-0.867181 -0.333531,-1.726951 -0.496591,-2.58672 -0.08153,-0.437297 -0.207531,-0.919064 -0.207531,-1.363773 -0.02965,-0.370591 -0.49659,-1.815893 -0.09635,-1.964128 z"
   id="path14"
   style="fill:#2f2f2f;fill-opacity:1;stroke-width:1.70305"
   sodipodi:nodetypes="cccccccccccccccsccccccccccsccszcccccccccccccccccccccccsccccccccc" />
</g>
</svg>
