<?xml version="1.0" encoding="UTF-8" standalone="no"?>
<svg
   width="128"
   height="128"
   version="1.1"
   id="svg4"
   sodipodi:docname="emoji_u1f634.svg"
   xml:space="preserve"
   inkscape:version="1.3 (0e150ed6c4, 2023-07-21)"
   xmlns:inkscape="http://www.inkscape.org/namespaces/inkscape"
   xmlns:sodipodi="http://sodipodi.sourceforge.net/DTD/sodipodi-0.dtd"
   xmlns="http://www.w3.org/2000/svg"
   xmlns:svg="http://www.w3.org/2000/svg"><defs
     id="defs4" /><sodipodi:namedview
     id="namedview4"
     pagecolor="#ffffff"
     bordercolor="#000000"
     borderopacity="0.25"
     inkscape:showpageshadow="2"
     inkscape:pageopacity="0.0"
     inkscape:pagecheckerboard="0"
     inkscape:deskcolor="#d1d1d1"
     inkscape:zoom="8.515625"
     inkscape:cx="64"
     inkscape:cy="64"
     inkscape:current-layer="svg4" /><g
     id="g9"
     transform="translate(9.7606494e-4,1.4402213)">&#10;	<g
   id="g8">&#10;		<g
   id="g3">&#10;			<path
   fill="#fcc21b"
   d="m 3.1,103.98 c 0,11.68 24.11,21.14 53.85,21.14 29.74,0 53.85,-9.46 53.85,-21.14 C 114.77,69 93.32,17.52 33.03,30.19 6.2,35.82 -5.24,62.63 3.91,87.25 7.63,97.29 3.1,98.45 3.1,103.98 Z"
   id="path1" />&#10;			<path
   fill="#2f2f2f"
   d="m 60.61,83.13 c 7.09,-0.62 9.87,-5.9 9.99,-6.12 0.55,-1.08 0.13,-2.41 -0.96,-2.95 -1.08,-0.57 -2.39,-0.14 -2.96,0.92 -0.1,0.18 -1.9,3.36 -6.46,3.76 -4.66,0.38 -7.02,-2.52 -7.05,-2.55 -0.73,-0.96 -2.12,-1.14 -3.09,-0.4 -0.96,0.75 -1.14,2.13 -0.4,3.09 0.14,0.18 3.39,4.31 9.63,4.31 0.42,0 0.86,-0.02 1.3,-0.06 z"
   id="path2" />&#10;			<path
   fill="#2f2f2f"
   d="m 14.89,82.26 c 0.13,0.19 3.31,4.21 9.39,4.21 0.41,0 0.83,-0.01 1.26,-0.06 6.91,-0.6 9.62,-5.74 9.74,-5.95 0.56,-1.09 0.13,-2.42 -0.95,-2.97 -1.07,-0.56 -2.39,-0.14 -2.96,0.92 -0.08,0.16 -1.82,3.23 -6.21,3.62 -4.45,0.38 -6.76,-2.42 -6.78,-2.45 -0.74,-0.97 -2.13,-1.14 -3.09,-0.41 -0.97,0.75 -1.15,2.13 -0.4,3.09 z"
   id="path3" />&#10;		</g>&#10;		<g
   id="g6">&#10;			<path
   fill="#d7598b"
   d="m 97.23,48.44 c -0.38,-0.19 -0.79,-0.33 -1.2,-0.47 -0.48,-0.19 -0.96,-0.37 -1.45,-0.51 -0.76,-0.24 -1.52,-0.45 -2.27,-0.69 -0.91,-0.29 -1.83,-0.59 -2.74,-0.89 -1.75,-0.57 -3.95,-1.91 -5.06,0.58 -0.24,0.52 -0.5,1.23 -0.46,1.78 0.05,0.91 0.68,1.31 1.47,1.64 0.81,0.33 1.65,0.61 2.48,0.88 0.28,0.09 0.56,0.17 0.84,0.25 0.16,0.06 0.44,0.1 0.42,0.3 -0.02,0.15 -0.2,0.28 -0.32,0.37 -0.2,0.15 -0.41,0.29 -0.62,0.44 l -0.3,0.2 c -0.62,0.41 -1.24,0.82 -1.85,1.21 -0.49,0.32 -0.98,0.65 -1.45,0.99 -0.2,0.13 -0.4,0.26 -0.6,0.39 -0.66,0.42 -1.22,0.89 -1.83,1.37 l -0.23,0.2 c -0.56,0.51 -1.15,1.08 -1.21,1.85 -0.08,0.99 0.69,1.46 1.57,1.88 0.31,0.15 0.63,0.27 0.97,0.37 l 0.03,0.01 c 1.08,0.46 2.29,0.77 3.45,1.14 0.92,0.29 1.83,0.59 2.74,0.88 1.75,0.57 3.95,1.91 5.06,-0.57 0.24,-0.52 0.51,-1.23 0.47,-1.79 C 95.09,59.34 94.46,58.94 93.67,58.61 92.86,58.28 92.03,58 91.19,57.73 91,57.67 90.82,57.62 90.64,57.56 90.52,57.52 90.27,57.49 90.19,57.4 c -0.22,-0.22 0.19,-0.4 0.33,-0.49 0.45,-0.27 0.89,-0.55 1.33,-0.84 0.46,-0.3 0.92,-0.59 1.35,-0.94 0.23,-0.15 0.46,-0.29 0.69,-0.44 0.49,-0.33 1,-0.64 1.46,-1.03 1.17,-0.98 3.92,-2.14 3,-4.06 -0.21,-0.38 -0.69,-0.94 -1.12,-1.16 z"
   id="path4" />&#10;			<path
   fill="#d7598b"
   d="m 112.65,31.36 c -0.4,-0.25 -0.83,-0.45 -1.25,-0.66 -0.52,-0.25 -1.02,-0.5 -1.54,-0.72 -0.8,-0.33 -1.6,-0.65 -2.4,-1 -0.95,-0.42 -1.92,-0.85 -2.88,-1.27 -1.86,-0.81 -4.1,-2.52 -5.6,0.07 -0.31,0.54 -0.67,1.28 -0.71,1.89 -0.04,1 0.6,1.51 1.43,1.95 0.85,0.45 1.73,0.85 2.6,1.24 0.29,0.13 0.6,0.25 0.88,0.38 0.18,0.07 0.47,0.15 0.42,0.37 -0.02,0.16 -0.24,0.28 -0.37,0.36 -0.25,0.14 -0.49,0.28 -0.74,0.41 -0.12,0.06 -0.24,0.13 -0.36,0.19 -0.71,0.38 -1.44,0.75 -2.15,1.11 -0.57,0.29 -1.14,0.6 -1.69,0.92 -0.23,0.12 -0.46,0.25 -0.69,0.36 -0.77,0.39 -1.43,0.84 -2.15,1.3 -0.1,0.07 -0.19,0.13 -0.28,0.2 -0.67,0.49 -1.37,1.05 -1.53,1.89 -0.19,1.08 0.6,1.67 1.51,2.22 0.33,0.2 0.66,0.36 1.02,0.51 l 0.03,0.02 c 1.12,0.62 2.41,1.09 3.64,1.62 0.97,0.42 1.93,0.85 2.89,1.27 1.85,0.81 4.11,2.52 5.6,-0.07 0.31,-0.53 0.67,-1.29 0.7,-1.89 0.04,-1 -0.59,-1.51 -1.42,-1.95 -0.85,-0.45 -1.72,-0.85 -2.6,-1.24 -0.2,-0.08 -0.39,-0.16 -0.59,-0.25 -0.13,-0.06 -0.38,-0.11 -0.47,-0.22 -0.22,-0.26 0.26,-0.42 0.42,-0.5 0.52,-0.25 1.03,-0.51 1.54,-0.77 0.53,-0.28 1.07,-0.54 1.58,-0.87 0.26,-0.13 0.54,-0.26 0.8,-0.41 0.58,-0.3 1.17,-0.58 1.72,-0.96 1.38,-0.94 4.5,-1.91 3.71,-4.1 -0.15,-0.47 -0.62,-1.13 -1.07,-1.4 z"
   id="path5" />&#10;			<path
   fill="#d7598b"
   d="M 126.98,7.6 C 126.73,7 126.06,6.16 125.45,5.82 124.9,5.51 124.32,5.27 123.74,5.02 123.05,4.73 122.35,4.42 121.65,4.16 120.57,3.77 119.48,3.4 118.4,3 c -1.3,-0.49 -2.61,-1 -3.93,-1.49 -2.51,-0.96 -5.61,-3.08 -7.42,0.46 -0.38,0.74 -0.81,1.75 -0.81,2.56 0,1.33 0.88,1.97 2.02,2.5 1.16,0.54 2.35,1.01 3.55,1.47 0.4,0.15 0.8,0.3 1.2,0.44 0.23,0.09 0.63,0.17 0.59,0.46 -0.03,0.22 -0.3,0.39 -0.48,0.51 -0.31,0.21 -0.63,0.4 -0.95,0.6 -0.14,0.09 -0.3,0.18 -0.45,0.27 -0.93,0.55 -1.86,1.1 -2.78,1.62 -0.74,0.42 -1.48,0.87 -2.2,1.33 -0.29,0.17 -0.6,0.36 -0.9,0.53 -0.99,0.57 -1.85,1.21 -2.78,1.87 -0.12,0.09 -0.23,0.18 -0.35,0.28 -0.86,0.69 -1.75,1.49 -1.89,2.6 -0.2,1.44 0.9,2.18 2.15,2.86 0.44,0.24 0.89,0.43 1.37,0.6 l 0.05,0.02 c 1.53,0.75 3.27,1.28 4.94,1.91 1.31,0.49 2.62,1 3.93,1.49 2.52,0.96 5.62,3.08 7.43,-0.46 0.38,-0.73 0.81,-1.75 0.8,-2.56 0,-1.33 -0.88,-1.97 -2.02,-2.5 -1.16,-0.54 -2.35,-1.01 -3.55,-1.47 -0.27,-0.1 -0.53,-0.19 -0.79,-0.29 -0.18,-0.07 -0.52,-0.13 -0.64,-0.27 -0.3,-0.33 0.31,-0.58 0.52,-0.69 0.67,-0.36 1.33,-0.74 1.99,-1.13 0.69,-0.4 1.39,-0.79 2.04,-1.26 0.35,-0.2 0.7,-0.39 1.05,-0.6 0.74,-0.44 1.51,-0.86 2.21,-1.38 1.8,-1.33 5.88,-2.82 4.68,-5.68 z"
   id="path6" />&#10;		</g>&#10;		<path
   fill="#ffffff"
   d="m 54.48,106.07 c 3.67,0 3.79,4.99 3.9,6.43 0.15,1.87 0.2,3.91 0.77,5.59 0.67,1.96 2.44,2.82 3.7,1.99 3.42,-2.24 0.6,-8.42 3.5,-14.52 z"
   id="path7" />&#10;		<path
   fill="#ed6c30"
   d="m 66.43,102.98 c -1.33,-2.33 -3.13,-3.8 -4.55,-5.12 -3.35,-3.11 -6.08,-3.91 -9.53,-3.9 -4.88,0 -9.37,2.01 -12.72,9.87 -1.18,2.73 1.45,2.54 1.45,2.54 0,0 20.89,0 23.4,0 2.51,0 2.82,-1.82 1.95,-3.39 z"
   id="path8" />&#10;	</g>&#10;</g></svg>
