<?xml version="1.0" encoding="UTF-8" standalone="no"?>
<svg
   height="128"
   width="128"
   version="1.1"
   id="svg7"
   sodipodi:docname="emoji_u1f9fa.svg"
   inkscape:version="1.3 (0e150ed6c4, 2023-07-21)"
   xmlns:inkscape="http://www.inkscape.org/namespaces/inkscape"
   xmlns:sodipodi="http://sodipodi.sourceforge.net/DTD/sodipodi-0.dtd"
   xmlns="http://www.w3.org/2000/svg"
   xmlns:svg="http://www.w3.org/2000/svg">
  <sodipodi:namedview
     id="namedview7"
     pagecolor="#ffffff"
     bordercolor="#000000"
     borderopacity="0.25"
     inkscape:showpageshadow="2"
     inkscape:pageopacity="0.0"
     inkscape:pagecheckerboard="0"
     inkscape:deskcolor="#d1d1d1"
     showguides="false"
     inkscape:zoom="2.867097"
     inkscape:cx="48.481094"
     inkscape:cy="72.024071"
     inkscape:window-width="1366"
     inkscape:window-height="697"
     inkscape:window-x="-8"
     inkscape:window-y="-8"
     inkscape:window-maximized="1"
     inkscape:current-layer="svg7" />
  <defs
     id="defs2">
    <inkscape:path-effect
       effect="powerstroke"
       id="path-effect6"
       is_visible="true"
       lpeversion="1.3"
       scale_width="1"
       interpolator_type="CentripetalCatmullRom"
       interpolator_beta="0.2"
       start_linecap_type="zerowidth"
       end_linecap_type="zerowidth"
       offset_points="0.1583099,1.752117 | 1.0072977,3.0826484 | 1.8698035,1.804785"
       linejoin_type="round"
       miter_limit="4"
       not_jump="false"
       sort_points="true"
       message="&lt;b&gt;Ctrl + click&lt;/b&gt; on existing node and move it" />
    <inkscape:path-effect
       effect="powerstroke"
       id="path-effect4"
       is_visible="true"
       lpeversion="1.3"
       scale_width="1"
       interpolator_type="CentripetalCatmullRom"
       interpolator_beta="0.2"
       start_linecap_type="zerowidth"
       end_linecap_type="zerowidth"
       offset_points="0.1583099,1.752117 | 1.0072977,3.0826484 | 1.8698035,1.804785"
       linejoin_type="round"
       miter_limit="4"
       not_jump="false"
       sort_points="true"
       message="&lt;b&gt;Ctrl + click&lt;/b&gt; on existing node and move it" />
    <inkscape:path-effect
       effect="skeletal"
       id="path-effect3"
       is_visible="true"
       lpeversion="1"
       pattern="M 0,0 H 1"
       copytype="single_stretched"
       prop_scale="1"
       scale_y_rel="false"
       spacing="0"
       normal_offset="0"
       tang_offset="0"
       prop_units="false"
       vertical_pattern="false"
       hide_knot="false"
       fuse_tolerance="0" />
    <inkscape:path-effect
       effect="bend_path"
       id="path-effect1"
       is_visible="true"
       lpeversion="1"
       bendpath="M 19.132676,41.510497 H 54.033274"
       prop_scale="1"
       scale_y_rel="false"
       vertical="false"
       hide_knot="false" />
    <inkscape:path-effect
       effect="powerstroke"
       id="path-effect18"
       is_visible="true"
       lpeversion="1.3"
       scale_width="1"
       interpolator_type="CentripetalCatmullRom"
       interpolator_beta="0.2"
       start_linecap_type="zerowidth"
       end_linecap_type="zerowidth"
       offset_points="0.16020614,1.9927772 | 0.9976116,5.1766335 | 1.8380005,2.4649441"
       linejoin_type="round"
       miter_limit="4"
       not_jump="false"
       sort_points="true"
       message="&lt;b&gt;Ctrl + click&lt;/b&gt; on existing node and move it" />
    <inkscape:path-effect
       effect="powerstroke"
       id="path-effect17"
       is_visible="true"
       lpeversion="1.3"
       scale_width="1"
       interpolator_type="CentripetalCatmullRom"
       interpolator_beta="0.2"
       start_linecap_type="zerowidth"
       end_linecap_type="zerowidth"
       offset_points="0.23797282,2.1060233 | 0.99862325,2.8767491 | 1.7516711,1.9117836"
       linejoin_type="round"
       miter_limit="4"
       not_jump="false"
       sort_points="true"
       message="&lt;b&gt;Ctrl + click&lt;/b&gt; on existing node and move it" />
    <inkscape:path-effect
       effect="powerstroke"
       id="path-effect15"
       is_visible="true"
       lpeversion="1.3"
       scale_width="1"
       interpolator_type="CentripetalCatmullRom"
       interpolator_beta="0.2"
       start_linecap_type="zerowidth"
       end_linecap_type="zerowidth"
       offset_points="0.23797282,2.1060233 | 0.99862325,2.8767491 | 1.7516711,1.9117836"
       linejoin_type="round"
       miter_limit="4"
       not_jump="false"
       sort_points="true"
       message="&lt;b&gt;Ctrl + click&lt;/b&gt; on existing node and move it" />
    <inkscape:path-effect
       effect="powerstroke"
       id="path-effect14"
       is_visible="true"
       lpeversion="1.3"
       scale_width="1"
       interpolator_type="CentripetalCatmullRom"
       interpolator_beta="0.2"
       start_linecap_type="round"
       end_linecap_type="round"
       offset_points="0.014509258,2.4411674 | 0.0035158928,2.4400608 | 0.94739026,3.0738317"
       linejoin_type="round"
       miter_limit="4"
       not_jump="false"
       sort_points="true"
       message="&lt;b&gt;Ctrl + click&lt;/b&gt; on existing node and move it" />
    <inkscape:path-effect
       effect="powerstroke"
       id="path-effect2"
       is_visible="true"
       lpeversion="1.3"
       scale_width="1"
       interpolator_type="CentripetalCatmullRom"
       interpolator_beta="0.2"
       start_linecap_type="round"
       end_linecap_type="round"
       offset_points="0.010991771,2.4411674 | 0,2.4400608 | 0.94296116,3.0738317"
       linejoin_type="round"
       miter_limit="4"
       not_jump="false"
       sort_points="true"
       message="&lt;b&gt;Ctrl + click&lt;/b&gt; on existing node and move it" />
    <inkscape:path-effect
       effect="powerstroke"
       id="path-effect12"
       is_visible="true"
       lpeversion="1.3"
       scale_width="1"
       interpolator_type="CentripetalCatmullRom"
       interpolator_beta="0.2"
       start_linecap_type="round"
       end_linecap_type="round"
       offset_points="0.010991771,2.4411674 | 0,2.4400608 | 0.94296116,3.0738317"
       linejoin_type="round"
       miter_limit="4"
       not_jump="false"
       sort_points="true"
       message="&lt;b&gt;Ctrl + click&lt;/b&gt; on existing node and move it" />
    <inkscape:path-effect
       effect="powerstroke"
       id="path-effect11"
       is_visible="true"
       lpeversion="1.3"
       scale_width="1"
       interpolator_type="CentripetalCatmullRom"
       interpolator_beta="0.2"
       start_linecap_type="zerowidth"
       end_linecap_type="zerowidth"
       offset_points="0.24973723,2.0611945 | 2.0128117,3.1406818 | 3.8370852,2.2040249"
       linejoin_type="round"
       miter_limit="4"
       not_jump="false"
       sort_points="true"
       message="&lt;b&gt;Ctrl + click&lt;/b&gt; on existing node and move it" />
    <inkscape:path-effect
       effect="powerstroke"
       id="path-effect9"
       is_visible="true"
       lpeversion="1.3"
       scale_width="1"
       interpolator_type="CentripetalCatmullRom"
       interpolator_beta="0.2"
       start_linecap_type="zerowidth"
       end_linecap_type="zerowidth"
       offset_points="0.24973723,2.0611945 | 2.0128117,3.1406818 | 3.8370852,2.2040249"
       linejoin_type="round"
       miter_limit="4"
       not_jump="false"
       sort_points="true"
       message="&lt;b&gt;Ctrl + click&lt;/b&gt; on existing node and move it" />
    <linearGradient
       id="a">
      <stop
         offset="0"
         id="stop1" />
      <stop
         offset="1"
         stop-opacity="0"
         id="stop2" />
    </linearGradient>
    <clipPath
       id="b">
      <path
         d="M109.38 48.823a45.525 10.583 0 0 1-45.525 10.583A45.525 10.583 0 0 1 18.33 48.823a45.525 10.583 0 0 1 45.525-10.584 45.525 10.583 0 0 1 45.526 10.584z"
         fill="#ab6208"
         paint-order="stroke fill markers"
         id="path2" />
    </clipPath>
  </defs>
  <g
     id="g3"
     transform="matrix(1.0335763,0,0,1.0335763,-2.6423055,-4.1347534)"
     style="stroke-width:0.967514">
    <path
       id="path3"
       style="fill:#f79329;fill-rule:nonzero;stroke:none;stroke-width:5.80507;stroke-linecap:round"
       d="m 89.921019,13.667969 c -3.507334,0.200017 -6.851504,1.775027 -9.448689,4.104622 -1.2362,1.105636 -2.29906,2.388039 -3.29495,3.710027 -2.22361,3.043289 -3.82257,6.497775 -5.05251,10.048208 -1.24072,3.598115 -2.13261,7.312408 -2.73403,11.069116 -0.3046,1.953375 -0.54441,3.917392 -0.68826,5.889261 -0.0782,1.637059 -0.2487,3.307921 0.15545,4.917984 0.19958,0.98831 0.70109,2.055167 1.74463,2.366251 1.01486,0.34389 1.95729,-0.455128 2.46883,-1.259684 0.62645,-0.968775 0.86129,-2.118245 1.18742,-3.209066 0.99068,-3.896906 1.9007,-7.815532 3.01563,-11.679688 0.94189,-3.126951 1.92291,-6.255074 3.2992,-9.22312 0.53956,-1.157999 1.11783,-2.301226 1.79063,-3.388208 0.903185,-1.384 2.085375,-2.595285 3.490679,-3.471371 1.373832,-0.850219 2.959344,-1.36449 4.573782,-1.46027 1.350273,-0.04141 2.751191,0.157819 3.929688,0.855469 1.402498,0.914457 2.509533,2.226082 3.332033,3.673828 0.963409,1.777435 1.622199,3.702052 2.173809,5.641543 0.595539,2.185019 1.133859,4.386183 1.560209,6.610877 0.55079,2.697598 0.94146,5.424625 1.3167,8.151107 0.52745,4.013549 0.87725,8.048793 1.44342,12.057411 0.14402,0.976323 0.2768,1.989774 0.82483,2.837599 0.45225,0.744992 1.22398,1.43756 2.15368,1.359666 0.94196,-0.05015 1.72638,-0.728122 2.11524,-1.55664 0.44463,-0.940836 0.60187,-1.983847 0.74023,-3.00586 0.12491,-1.240165 0.16445,-2.486756 0.20966,-3.731634 0.0287,-3.315051 -0.0321,-6.634882 -0.34492,-9.937029 -0.20326,-2.302894 -0.48913,-4.599104 -0.86591,-6.880226 -0.55285,-3.377367 -1.30803,-6.733109 -2.4662,-9.957824 -0.924,-2.574133 -2.11821,-5.057931 -3.62833,-7.340943 C 101.76062,19.140516 100.36488,17.56 98.688391,16.32655 96.945322,15.009752 94.882754,14.095782 92.711634,13.800613 91.788443,13.665225 90.852821,13.635201 89.921019,13.667969 Z" />
    <g
       id="g18"
       transform="matrix(1.0991665,0,0,1.0991665,-6.393999,-3.6207252)"
       style="stroke-width:0.880225">
      <g
         id="g17"
         transform="matrix(0.99951174,0,0,0.99951174,151.93202,18.885588)"
         style="stroke-width:0.880657">
        <path
           d="m -40.67624,37.238453 c 1.561208,-9.177951 -3.866427,-16.921517 -46.82107,-16.921517 -42.95464,0 -48.3812,7.743189 -46.82106,16.920064 l 7.29623,42.917019 c 1.31701,7.746731 7.2659,14.280751 39.523859,14.280751 32.257957,0 38.204193,-6.53418 39.521918,-14.280751 z"
           fill="#ef9d44"
           paint-order="stroke fill markers"
           id="path4-7"
           style="fill:#f79329;stroke:none;stroke-width:0.880657"
           sodipodi:nodetypes="szsszss" />
        <path
           id="path12"
           style="fill:#ed6c30;fill-rule:nonzero;stroke:none;stroke-width:2.64197;stroke-linecap:round;stroke-dasharray:none;stroke-opacity:1"
           d="m -87.565183,39.824329 a 2.7027363,2.7027363 0 0 0 -0.534356,0.06707 2.7027363,2.7027363 0 0 0 -2.100642,2.634998 c 0,0.038 8.3e-5,0.130059 0,0.227156 -1.48e-4,0.17169 0.0029,0.285182 0,0.713915 -0.0223,3.352534 -0.427642,35.481161 -0.592767,50.923831 1.089495,0.01654 2.13875,0.04327 3.29483,0.04327 1.156839,0 2.206832,-0.02671 3.296992,-0.04327 -0.165124,-15.44267 -0.570468,-47.571297 -0.592766,-50.923831 -0.0029,-0.428733 1.47e-4,-0.542225 0,-0.713915 -8.3e-5,-0.0971 0,-0.189154 0,-0.227156 a 2.7027363,2.7027363 0 0 0 -2.771291,-2.702063 z m 26.98818,0.0043 a 2.7027363,2.7027363 0 0 0 -0.538681,0.02163 2.7027363,2.7027363 0 0 0 -2.314817,2.446784 c -0.0103,0.118788 -0.02361,0.285505 -0.06274,0.713916 -0.303285,3.320078 -3.350062,34.619884 -4.8503,50.335392 2.533188,-0.349726 4.748402,-0.777889 6.6935,-1.274232 1.207864,-16.415523 3.295442,-45.394659 3.545782,-48.604686 0.03345,-0.428894 0.04856,-0.595095 0.05842,-0.713916 a 2.7027363,2.7027363 0 0 0 -2.531157,-2.924891 z m -53.301387,0.02163 a 2.7027363,2.7027363 0 0 0 -3.072,2.903258 c 0.01,0.118821 0.0271,0.285022 0.0606,0.713916 0.25035,3.210027 2.33792,32.189163 3.54579,48.604686 1.94536,0.496196 4.16016,0.92463 6.6935,1.274232 -1.50024,-15.715508 -4.54703,-47.015314 -4.8503,-50.335392 -0.0391,-0.428411 -0.0525,-0.595128 -0.0627,-0.713916 a 2.7027363,2.7027363 0 0 0 -2.31483,-2.446784 z" />
        <path
           id="path11"
           style="fill:#fcc21b;stroke-width:5.28393;stroke-linecap:round"
           d="m -40.221075,34.121277 c 0,8.957502 -11.463284,16.218993 -47.276271,16.218993 -35.812984,0 -47.276274,-7.261492 -47.276274,-16.218993 0,-8.957501 11.46329,-16.218993 47.276274,-16.218993 35.812987,0 47.276271,7.26149 47.276271,16.218993 z"
           sodipodi:nodetypes="sssss" />
        <path
           id="path8"
           style="fill:#855c52;stroke-width:5.28393;stroke-linecap:round"
           d="m -55.820652,32.194468 c 0,3.801747 -7.680786,6.883671 -31.676697,6.883671 -23.995911,0 -31.676691,-3.081925 -31.676691,-6.883671 0,-3.801745 7.68078,-6.88367 31.676691,-6.88367 23.995911,0 31.676697,3.081924 31.676697,6.88367 z"
           sodipodi:nodetypes="sssss" />
        <path
           id="path14"
           style="fill:#ed6c30;fill-opacity:1;fill-rule:nonzero;stroke:none;stroke-width:5.28394;stroke-linecap:round;stroke-opacity:1"
           d="m -131.5597,53.460122 0.98866,5.819495 c 2.49169,1.016782 6.13436,2.160599 11.25824,3.247235 8.3283,1.766213 19.10735,3.002759 32.162986,2.991956 h 0.136293 c 12.919272,-0.0195 23.62301,-1.126 31.883913,-2.673938 4.605946,-0.863069 8.031186,-1.769408 10.542157,-2.604712 l 0.919437,-5.412779 c -2.546798,0.442248 -6.480324,1.26131 -12.45026,2.148237 -8.037648,1.194118 -18.261867,2.189477 -30.895247,2.169871 h -0.131967 c -12.698095,-0.02812 -22.941232,-1.285626 -30.936352,-2.782108 -7.13435,-1.33537 -11.19602,-2.515529 -13.47786,-2.903257 z m 2.96166,17.430363 1.06872,6.286785 c 2.17981,0.707457 4.86859,1.440394 8.21652,2.150401 8.3283,1.766212 19.10735,3.002759 32.162986,2.991956 l 0.136293,-0.0022 c 12.919272,-0.01951 23.62301,-1.123838 31.883913,-2.671775 2.969745,-0.556475 5.460096,-1.131412 7.528566,-1.693928 l 0.984339,-5.789209 c -2.38719,0.44639 -5.467346,1.014537 -9.501571,1.613882 -8.037648,1.194119 -18.261867,2.189478 -30.895247,2.169872 h -0.131967 c -12.698095,-0.02812 -22.941232,-1.285626 -30.936352,-2.782108 -4.77161,-0.893125 -8.08352,-1.699592 -10.5162,-2.273713 z" />
      </g>
    </g>
    <path
       id="path1"
       style="fill:#f79329;fill-rule:nonzero;stroke:none;stroke-width:5.80507;stroke-linecap:round"
       d="m 39.086939,13.667969 c -3.507334,0.200017 -6.851502,1.775027 -9.448694,4.104622 -1.236196,1.105636 -2.299055,2.388039 -3.294949,3.710027 -2.223613,3.043289 -3.822569,6.497775 -5.052514,10.048208 -1.240715,3.598115 -2.132606,7.312408 -2.734024,11.069116 -0.304601,1.953375 -0.544416,3.917392 -0.688264,5.889261 -0.07815,1.637059 -0.248699,3.307921 0.155453,4.917984 0.19958,0.98831 0.701093,2.055167 1.744633,2.366251 1.01486,0.34389 1.957289,-0.455128 2.46883,-1.259684 0.626441,-0.968775 0.861284,-2.118245 1.18742,-3.209066 0.990676,-3.896906 1.900698,-7.815532 3.015624,-11.679688 0.941894,-3.126951 1.922908,-6.255074 3.299205,-9.22312 0.539569,-1.157999 1.117838,-2.301226 1.790639,-3.388208 0.903182,-1.384 2.085366,-2.595285 3.490671,-3.471371 1.373832,-0.850219 2.959344,-1.36449 4.573782,-1.46027 1.350273,-0.04141 2.751191,0.157819 3.929688,0.855469 1.402498,0.914457 2.509533,2.226082 3.332031,3.673828 0.963416,1.777435 1.622205,3.702052 2.173813,5.641543 0.595535,2.185019 1.133858,4.386183 1.560207,6.610877 0.550796,2.697598 0.941458,5.424625 1.316701,8.151107 0.527451,4.013549 0.877248,8.048793 1.44342,12.057411 0.144021,0.976323 0.276799,1.989774 0.824826,2.837599 0.452257,0.744992 1.223987,1.43756 2.153689,1.359666 0.941953,-0.05015 1.72638,-0.728122 2.115235,-1.55664 0.44463,-0.940836 0.601874,-1.983847 0.740234,-3.00586 0.124911,-1.240165 0.164442,-2.486756 0.209658,-3.731634 0.02871,-3.315051 -0.03212,-6.634882 -0.344919,-9.937029 -0.203267,-2.302894 -0.489129,-4.599104 -0.865913,-6.880226 -0.552849,-3.377367 -1.30803,-6.733109 -2.466199,-9.957824 -0.924,-2.574133 -2.118209,-5.057931 -3.62833,-7.340943 C 50.926545,19.140516 49.530806,17.56 47.854313,16.32655 46.111241,15.009752 44.048674,14.095782 41.877554,13.800613 40.954363,13.665225 40.018741,13.635201 39.086939,13.667969 Z" />
  </g>
</svg>
