<?xml version="1.0" encoding="UTF-8" standalone="no"?>
<svg
   xmlns:dc="http://purl.org/dc/elements/1.1/"
   xmlns:cc="http://creativecommons.org/ns#"
   xmlns:rdf="http://www.w3.org/1999/02/22-rdf-syntax-ns#"
   xmlns:svg="http://www.w3.org/2000/svg"
   xmlns="http://www.w3.org/2000/svg"
   xmlns:xlink="http://www.w3.org/1999/xlink"
   xmlns:sodipodi="http://sodipodi.sourceforge.net/DTD/sodipodi-0.dtd"
   xmlns:inkscape="http://www.inkscape.org/namespaces/inkscape"
   width="128"
   height="128"
   version="1.1"
   id="svg111"
   sodipodi:docname="emoji_u1f976.svg"
   inkscape:version="0.92.4 (5da689c313, 2019-01-14)">
  <metadata
     id="metadata115">
    <rdf:RDF>
      <cc:Work
         rdf:about="">
        <dc:format>image/svg+xml</dc:format>
        <dc:type
           rdf:resource="http://purl.org/dc/dcmitype/StillImage" />
      </cc:Work>
    </rdf:RDF>
  </metadata>
  <sodipodi:namedview
     pagecolor="#ffffff"
     bordercolor="#666666"
     borderopacity="1"
     objecttolerance="10"
     gridtolerance="10"
     guidetolerance="10"
     inkscape:pageopacity="0"
     inkscape:pageshadow="2"
     inkscape:window-width="1866"
     inkscape:window-height="1016"
     id="namedview113"
     showgrid="false"
     inkscape:zoom="5.2149125"
     inkscape:cx="38.530274"
     inkscape:cy="41.013502"
     inkscape:window-x="1134"
     inkscape:window-y="644"
     inkscape:window-maximized="1"
     inkscape:current-layer="svg111" />
  <defs
     id="defs15">
    <linearGradient
       id="b">
      <stop
         offset="0"
         stop-color="#1b9cfc"
         id="stop2" />
      <stop
         offset="1"
         stop-color="#e1fc1b"
         id="stop4" />
    </linearGradient>
    <linearGradient
       gradientTransform="matrix(.62521 0 0 -.62521 23.986 135.698)"
       xlink:href="#a"
       id="d"
       x1="95.743"
       y1="70.878"
       x2="95.743"
       y2="82.469"
       gradientUnits="userSpaceOnUse" />
    <linearGradient
       id="a">
      <stop
         offset="0"
         stop-color="#fff"
         id="stop8" />
      <stop
         offset="1"
         stop-color="#fff"
         stop-opacity=".901"
         id="stop10" />
    </linearGradient>
    <linearGradient
       xlink:href="#a"
       id="e"
       gradientUnits="userSpaceOnUse"
       gradientTransform="matrix(.62521 0 0 -.62521 23.986 135.698)"
       x1="95.743"
       y1="96.735"
       x2="95.743"
       y2="81.998" />
    <linearGradient
       xlink:href="#b"
       id="c"
       x1="63.89"
       y1="9.64"
       x2="63.89"
       y2="118.36"
       gradientUnits="userSpaceOnUse" />
  </defs>
  <path
     fill="none"
     d="M.06 0h127.99v128H.06z"
     id="path17" />
  <path
     d="M63.89 9.64C1.58 9.64.1 79.5.1 93.33c0 13.83 28.56 25.03 63.79 25.03 35.24 0 63.79-11.21 63.79-25.03 0-13.83-1.47-83.69-63.79-83.69z"
     fill="url(#c)"
     id="path19"
     style="fill:#42ade7;fill-opacity:1" />
  <circle
     cx="101.268"
     cy="7.897"
     r="1.186"
     fill="#fff"
     stroke-width="3.08"
     paint-order="stroke fill markers"
     id="circle57" />
  <circle
     r="1.186"
     cy="6.116"
     cx="121.421"
     fill="#fff"
     stroke-width="3.08"
     paint-order="stroke fill markers"
     id="circle63" />
  <circle
     cx="8.589"
     cy="7.239"
     r="1.186"
     fill="#fff"
     stroke-width="3.08"
     paint-order="stroke fill markers"
     id="circle67" />
  <circle
     r="1.186"
     cy="6.197"
     cx="63.276"
     fill="#fff"
     stroke-width="3.08"
     paint-order="stroke fill markers"
     id="circle71" />
  <path
     style="fill:#eaf1fa;fill-opacity:1;stroke:none;stroke-width:1px;stroke-linecap:butt;stroke-linejoin:miter;stroke-opacity:1"
     d="m 18.839119,86.445779 c 0,0 9.243989,38.830901 10.904632,38.866211 1.831454,0.0389 10.110199,-39.606956 10.110199,-39.606956 z"
     id="path4661"
     inkscape:connector-curvature="0"
     sodipodi:nodetypes="cscc" />
  <g
     id="g4659"
     transform="translate(-0.57527331,-4.695243)">
    <path
       id="path8"
       d="M 95.622371,105.56602 H 33.622366 c -7.7,0 -13.999997,-6.299999 -13.999997,-13.999999 0,-7.7 6.299997,-14 13.999997,-14 h 62.000005 c 7.699999,0 13.999999,6.3 13.999999,14 0,7.7 -6.3,13.999999 -13.999999,13.999999 z"
       style="fill:#ffffff"
       inkscape:connector-curvature="0" />
    <g
       id="g14"
       style="fill:#838383"
       transform="translate(0.62236872,3.9660237)">
      <path
         id="path10"
         d="m 47.44,75.17 h 3.12 v 25 h -3.12 z m -15,0 h 3.12 v 25 h -3.12 z m 60.01,0 h 3.12 v 25 h -3.12 z m -15.01,0 h 3.12 v 25 h -3.12 z m -15,0 h 3.12 v 25 h -3.12 z"
         inkscape:connector-curvature="0" />
      <path
         id="path12"
         d="m 20.49,86.04 h 87.01 v 3.12 H 20.49 Z"
         inkscape:connector-curvature="0" />
    </g>
    <path
       id="path16"
       d="m 95.622371,81.566021 c 5.509999,0 9.999999,4.49 9.999999,10 0,5.51 -4.49,9.999999 -9.999999,9.999999 H 33.622366 c -5.51,0 -10,-4.489999 -10,-9.999999 0,-5.51 4.49,-10 10,-10 h 62.000005 m 0,-4 H 33.622366 c -7.7,0 -13.999997,6.3 -13.999997,14 0,7.7 6.299997,13.999999 13.999997,13.999999 h 62.000005 c 7.699999,0 13.999999,-6.299999 13.999999,-13.999999 0,-7.7 -6.3,-14 -13.999999,-14 z"
       style="fill:#2f2f2f"
       inkscape:connector-curvature="0" />
  </g>
  <path
     style="fill:#eaf1fa;fill-opacity:1;stroke:none;stroke-width:1px;stroke-linecap:butt;stroke-linejoin:miter;stroke-opacity:1"
     d="m 81.823952,56.587394 c 0,0 4.013517,30.305442 5.472436,30.427219 1.081546,0.09028 6.4339,-30.305054 6.4339,-30.305054 z"
     id="path4661-6"
     inkscape:connector-curvature="0"
     sodipodi:nodetypes="cscc" />
  <path
     d="m 41.808244,64.34862 c -4.49,0.04 -8.17,-4.27 -8.22,-9.62 -0.05,-5.37 3.55,-9.75 8.04,-9.79 4.48,-0.04 8.17,4.27 8.22,9.64 0.05,5.36 -3.55,9.73 -8.04,9.77 z m 44.11,0 c 4.48,-0.01 8.11,-4.36 8.1,-9.71 -0.01,-5.37 -3.66,-9.7 -8.14,-9.69 -4.49,0.01 -8.13,4.36 -8.12,9.73 0.02,5.35 3.67,9.68 8.16,9.67 z"
     id="path21"
     inkscape:connector-curvature="0"
     style="fill:#2f2f2f" />
  <path
     style="fill:#eaf1fa;fill-opacity:1;stroke:none;stroke-width:1.29999995;stroke-linecap:butt;stroke-linejoin:miter;stroke-miterlimit:4;stroke-dasharray:none;stroke-opacity:1"
     d="m 44.027711,12.414643 c 0,0 7.696201,34.480709 8.793301,34.531223 C 54.195095,47.009133 63.89,9.64 63.89,9.64 c 0,0 -3.490633,-1.3315226 -9.783521,-0.7161988 C 47.81359,9.539125 44.027711,12.414643 44.027711,12.414643 Z"
     id="path4661-3"
     inkscape:connector-curvature="0"
     sodipodi:nodetypes="csczc" />
</svg>
