<?xml version="1.0" encoding="UTF-8" standalone="no"?>
<svg
   width="128"
   height="128"
   version="1.1"
   id="svg3"
   sodipodi:docname="emoji_u1f497.svg"
   inkscape:version="1.3 (0e150ed6c4, 2023-07-21)"
   xmlns:inkscape="http://www.inkscape.org/namespaces/inkscape"
   xmlns:sodipodi="http://sodipodi.sourceforge.net/DTD/sodipodi-0.dtd"
   xmlns="http://www.w3.org/2000/svg"
   xmlns:svg="http://www.w3.org/2000/svg">
  <defs
     id="defs3" />
  <sodipodi:namedview
     id="namedview3"
     pagecolor="#ffffff"
     bordercolor="#000000"
     borderopacity="0.25"
     inkscape:showpageshadow="2"
     inkscape:pageopacity="0.0"
     inkscape:pagecheckerboard="0"
     inkscape:deskcolor="#d1d1d1"
     inkscape:zoom="4.0546875"
     inkscape:cx="65.109827"
     inkscape:cy="74.358382"
     inkscape:window-width="1366"
     inkscape:window-height="697"
     inkscape:window-x="-8"
     inkscape:window-y="-8"
     inkscape:window-maximized="1"
     inkscape:current-layer="svg3" />
  <g
     id="g13"
     transform="translate(-6.2792329)">
    <path
       d="m 109.1701,45.296807 c -0.14088,-0.290032 -0.29832,-0.563493 -0.44748,-0.84524 -0.10773,-0.207166 -0.21546,-0.422619 -0.33147,-0.621499 -0.20717,-0.356326 -0.41433,-0.696079 -0.6215,-1.027545 -0.0663,-0.116018 -0.13259,-0.240312 -0.20717,-0.348039 -0.19887,-0.306606 -0.40604,-0.59664 -0.61321,-0.886673 -0.0911,-0.132587 -0.1823,-0.27346 -0.28174,-0.39776 -0.20717,-0.281746 -0.43091,-0.546919 -0.64636,-0.812092 -0.10773,-0.1243 -0.19888,-0.265174 -0.30661,-0.381186 -0.22374,-0.256886 -0.45577,-0.4972 -0.68779,-0.745799 -0.10773,-0.116018 -0.21546,-0.240313 -0.32318,-0.356327 -0.23203,-0.232025 -0.47234,-0.447479 -0.70437,-0.662932 -0.1243,-0.116018 -0.24031,-0.232027 -0.36461,-0.339753 -0.23203,-0.207166 -0.48891,-0.39776 -0.72923,-0.588352 -0.14087,-0.107731 -0.27346,-0.22374 -0.39776,-0.323181 -0.24031,-0.174018 -0.48891,-0.331466 -0.73751,-0.497199 -0.14916,-0.09944 -0.29832,-0.207166 -0.44748,-0.306606 -0.24031,-0.157446 -0.4972,-0.290033 -0.75408,-0.430907 -0.15745,-0.09116 -0.32318,-0.190592 -0.48892,-0.273459 -0.248597,-0.132587 -0.505483,-0.240314 -0.76237,-0.356326 -0.174018,-0.08286 -0.356325,-0.165733 -0.538633,-0.2486 -0.248599,-0.09944 -0.513771,-0.190593 -0.770658,-0.281746 -0.19888,-0.06629 -0.389473,-0.14916 -0.588353,-0.215453 -0.256887,-0.08286 -0.513772,-0.14916 -0.770659,-0.215453 -0.215452,-0.05801 -0.422619,-0.1243 -0.638073,-0.17402 -0.256886,-0.05801 -0.522058,-0.09944 -0.778945,-0.14916 -0.232026,-0.04143 -0.455767,-0.09944 -0.687793,-0.132586 -0.265172,-0.04143 -0.538633,-0.0663 -0.803805,-0.09116 -0.232027,-0.02486 -0.472341,-0.05801 -0.720941,-0.07457 -0.273459,-0.02486 -0.546918,-0.02486 -0.828665,-0.03314 -0.232026,-0.0083 -0.455765,-0.02486 -0.696079,-0.02486 h -0.116018 c -0.323179,0 -0.638072,0 -0.961252,0.0083 -3.364382,0.05801 -6.629325,0.803805 -9.720249,2.096523 -3.306377,1.392158 -5.568634,3.47211 -8.510396,5.344894 -0.2486,0.157447 -0.530346,0.273459 -0.820379,0.356326 -0.08286,0.02487 -0.17402,0.04143 -0.265173,0.0663 -0.215453,0.04972 -0.439194,0.07458 -0.64636,0.09116 -0.09116,0 -0.182305,0.0083 -0.273459,0.0083 -0.29832,-0.0083 -0.604926,-0.04143 -0.894959,-0.116018 -0.323181,-0.09116 -0.629786,-0.22374 -0.903246,-0.39776 -2.941764,-1.872783 -5.204021,-3.952735 -8.510397,-5.344893 -3.090922,-1.292718 -6.355866,-2.038517 -9.720249,-2.096524 -0.323179,-0.0083 -0.638072,-0.0083 -0.961252,-0.0083 h -0.1243 c -0.232026,0 -0.464051,0.01657 -0.696079,0.02486 -0.27346,0.0083 -0.555206,0.0083 -0.828666,0.03314 -0.240312,0.01658 -0.480625,0.04972 -0.720939,0.07457 -0.265173,0.02486 -0.530347,0.04973 -0.795518,0.09116 -0.240314,0.03314 -0.472339,0.09116 -0.712653,0.132586 -0.2486,0.04972 -0.513772,0.09116 -0.754086,0.140873 -0.232026,0.05801 -0.455766,0.1243 -0.687793,0.190593 -0.240313,0.06629 -0.488912,0.1243 -0.729225,0.19888 -0.22374,0.06629 -0.430906,0.157446 -0.646359,0.232026 -0.240314,0.08286 -0.480626,0.165734 -0.712654,0.265173 -0.207166,0.08286 -0.406046,0.182307 -0.604926,0.281746 -0.232025,0.107731 -0.464053,0.207166 -0.696078,0.32318 -0.19888,0.09944 -0.389473,0.223739 -0.588353,0.331466 -0.215453,0.124301 -0.439193,0.240313 -0.654645,0.3729 -0.190594,0.124299 -0.372901,0.256886 -0.563494,0.381186 -0.207167,0.140873 -0.422619,0.27346 -0.621499,0.42262 -0.182305,0.140873 -0.356326,0.281745 -0.530346,0.430905 -0.19888,0.157448 -0.397759,0.314894 -0.596639,0.480627 -0.165734,0.14916 -0.331466,0.306606 -0.4972,0.464052 -0.190592,0.182307 -0.381186,0.356327 -0.563492,0.538633 -0.14916,0.157447 -0.298319,0.32318 -0.439192,0.480627 -0.190594,0.207166 -0.389474,0.406046 -0.571781,0.621499 -0.140872,0.165733 -0.273459,0.34804 -0.414333,0.522059 -0.174019,0.223741 -0.364612,0.439193 -0.530345,0.679506 -0.132587,0.17402 -0.248599,0.364613 -0.3729,0.538633 -0.17402,0.2486 -0.356327,0.488912 -0.522059,0.745799 -0.107731,0.17402 -0.215454,0.356326 -0.323181,0.530346 -0.174018,0.281747 -0.348039,0.555206 -0.513771,0.853526 -0.107732,0.198879 -0.215453,0.406046 -0.32318,0.604925 -0.14916,0.290034 -0.306608,0.563493 -0.455767,0.861813 -0.248598,0.505487 -0.488912,1.027545 -0.712652,1.557891 -1.557892,3.62127 -1.582752,9.082178 -0.944679,12.885752 0.629786,3.79529 2.212536,7.217678 4.358781,10.416328 7.184533,10.648354 19.962557,15.595489 29.177321,24.188752 0.986112,0.91982 1.947363,1.905931 2.958336,2.834037 1.060692,0.977825 2.353411,3.231789 4.060462,3.339519 1.707051,-0.0994 2.99977,-2.361694 4.068748,-3.339519 1.002686,-0.928106 1.972226,-1.905931 2.958336,-2.834037 9.214764,-8.601549 21.984503,-13.540398 29.152463,-24.213611 2.14624,-3.19865 3.7207,-6.621039 4.35878,-10.416329 0.63808,-3.803576 0.60493,-9.264482 -0.95297,-12.885751 -0.23201,-0.530373 -0.47233,-1.044147 -0.71264,-1.549632 z"
       id="path1"
       style="fill:#d7598b;stroke-width:0.999998" />
    <path
       d="M 119.719,42.653364 C 114.31611,29.999638 104.03237,22.748813 91.38693,22.748813 c -0.447479,0 -0.886673,0 -1.151846,0.0083 -4.60738,0.08286 -9.206476,1.068979 -13.689557,2.941763 -2.494284,1.052406 -4.532801,2.328552 -6.24814,3.505256 C 68.58205,28.027428 66.535245,26.742995 64.007814,25.682303 59.55788,23.817806 54.958786,22.839979 50.541996,22.7654 c -0.44748,-0.01657 -0.886671,-0.01657 -1.450163,-0.01657 -12.52114,0 -22.804881,7.250825 -28.216069,19.887977 -3.223508,7.507711 -2.088237,16.341287 -1.665617,18.877005 0.845239,5.030001 2.809176,9.811401 6.024399,14.60109 5.535487,8.245223 13.333232,13.523823 20.202871,18.180924 3.886441,2.626872 7.55743,5.112869 10.524054,7.888894 0.397759,0.3729 0.787231,0.75409 1.176705,1.14356 0.538633,0.52206 1.077265,1.04412 1.615898,1.54132 l 0.232026,0.26518 c 1.44188,1.71534 4.839408,5.73437 10.656641,6.09069 l 0.64636,0.0248 0.638072,-0.0331 c 5.808948,-0.34804 9.206477,-4.36707 10.656641,-6.08241 l 0.22374,-0.26518 c 0.530346,-0.4972 1.052406,-1.00268 1.574465,-1.49989 0.406046,-0.39775 0.812094,-0.78723 1.226426,-1.1767 2.974909,-2.776028 6.645898,-5.262025 10.532341,-7.897183 6.877924,-4.648814 14.667384,-9.927415 20.202864,-18.180924 3.20694,-4.781403 5.17916,-9.554517 6.03269,-14.601091 0.87838,-5.212308 0.89497,-12.910611 -1.65734,-18.860432 z m -3.92787,17.915752 c -0.70436,4.234481 -2.39484,8.286657 -5.13772,12.388552 -4.93056,7.333692 -11.924502,12.07366 -18.686415,16.656181 -4.077035,2.759457 -7.913757,5.361467 -11.220132,8.435817 -0.414333,0.397759 -0.828666,0.795519 -1.301005,1.259571 -0.488914,0.480627 -0.986113,0.961253 -1.483313,1.425303 l -0.439193,0.45577 -0.256886,0.29832 c -1.143558,1.35072 -3.27323,3.87815 -6.670759,4.07703 l -0.306606,0.0165 -0.306607,-0.0165 c -3.389243,-0.20717 -5.527199,-2.72631 -6.695618,-4.11846 l -0.232027,-0.26518 -0.439193,-0.46405 C 62.11017,100.25392 61.604684,99.756717 61.041192,99.218084 60.635146,98.820326 60.237386,98.430852 59.823054,98.049666 56.516677,94.975316 52.679955,92.373306 48.60292,89.605562 41.841007,85.031328 34.847068,80.29136 29.933082,72.974241 27.173623,68.864059 25.491432,64.811884 24.787067,60.577403 24.53018,59.052658 23.386621,51.130614 26.071499,44.865901 30.612587,34.250693 38.783231,28.4086 49.083545,28.4086 c 0.488913,0 0.870099,0 1.342438,0.01657 3.720709,0.0663 7.656872,0.928105 11.377581,2.47771 2.187678,0.928107 3.977595,2.071664 5.278601,2.966624 a 5.673874,5.673874 0 0 0 6.413872,0 c 1.301005,-0.89496 3.074349,-2.038517 5.22888,-2.950051 3.811862,-1.591037 7.714879,-2.436277 11.609608,-2.50257 h 0.124299 c 0.207167,-0.0084 0.563493,-0.0084 0.928106,-0.0084 10.37489,0 18.59526,5.850381 23.13635,16.473876 2.07166,4.839407 1.98052,11.47702 1.26785,15.686642 z"
       id="path2"
       style="fill:#d7598b;fill-opacity:1;stroke-width:0.999998" />
    <path
       id="path4"
       style="color:#000000;fill:#d7598b;fill-opacity:1;stroke-width:1;-inkscape-stroke:none"
       d="m 47.196323,11.833603 c -16.326556,0 -30.364349,10.070287 -37.135954,25.884522 C 5.537484,48.257024 7.2212739,58.811332 7.780178,62.164757 v 0.0049 0.0049 c 1.0932742,6.506058 3.681688,12.724213 7.647983,18.632769 6.949967,10.352119 16.401772,16.615966 23.883437,21.687974 l 0.0049,0.003 0.0026,0.003 c 4.231132,2.85985 7.953692,5.42789 10.608494,7.91213 0.359171,0.33686 0.7287,0.69631 1.116422,1.08403 l 0.03988,0.0398 0.03738,0.0374 c 0.489044,0.47398 1.02297,0.98273 1.569968,1.4952 l 0.04984,0.0573 -0.04487,-0.0549 c 0.0062,0.005 0.01124,0.0117 0.01743,0.0175 1.640445,1.95125 7.163665,8.46739 16.447275,9.03604 l 0.07973,0.004 1.096485,0.0424 1.036677,-0.0549 h 0.0274 c 9.357549,-0.56067 14.924805,-7.21222 16.504591,-9.0809 l 0.0026,-0.002 c 0.504732,-0.4778 0.998716,-0.95009 1.442874,-1.37309 l 0.03489,-0.0349 0.03489,-0.0324 c 0.401593,-0.3934 0.802689,-0.77976 1.21361,-1.16626 l 0.0075,-0.004 c 2.666833,-2.48731 6.388445,-5.05392 10.618466,-7.92209 l 0.008,-0.005 c 7.49779,-5.067725 16.94003,-11.33403 23.88593,-21.690471 3.95186,-5.892072 6.54953,-12.098668 7.65296,-18.622801 v -0.0026 -0.0026 C 133.94768,55.408713 134.1768,46.230039 130.5393,37.743122 123.77815,21.908301 109.71185,11.83368 93.276259,11.83368 c -0.461966,0 -0.900992,-0.0013 -1.395527,0.01251 -5.923266,0.108513 -11.814753,1.382231 -17.454046,3.738016 l -0.01251,0.0049 -0.01,0.0049 c -1.698405,0.716605 -2.749201,1.508785 -4.109326,2.297634 -1.374324,-0.797392 -2.428141,-1.594646 -4.156673,-2.320064 h -0.0026 l -0.0026,-0.0026 C 60.511421,13.213668 54.655121,11.951498 48.900906,11.853346 h -0.0075 c -0.594218,-0.01896 -1.129776,-0.01994 -1.697059,-0.01994 z m 0,6.060572 c 0.558875,0 1.010951,0.0024 1.48773,0.01743 0.121722,0.0087 -0.481719,-0.0156 0.04487,0.0026 h 0.03738 0.03489 c 4.934498,0.08483 10.043917,1.172446 14.989448,3.244598 1.589359,0.667009 2.638875,1.411132 4.311179,2.432203 l 2.19297,1.340703 2.192971,-1.340703 c 1.600096,-0.976473 2.648157,-1.684068 4.119294,-2.325047 l 0.256678,-0.06728 0.159489,-0.104655 c 4.891961,-2.008157 9.926474,-3.097064 14.96702,-3.189775 h 0.02242 0.02242 c 0.365526,-0.01043 0.769328,-0.01 1.241021,-0.01 14.030977,0 25.720367,8.257056 31.685917,22.221266 l 0.002,0.0026 v 0.0026 c 2.94022,6.854112 2.86487,15.12592 1.86652,21.050021 -0.94991,5.616456 -3.16494,10.97089 -6.71098,16.25788 -6.15245,9.172801 -14.72735,14.963609 -22.238771,20.040556 l -0.0026,0.0026 c -0.0014,9.71e-4 -0.0036,0.0015 -0.0049,0.0026 l -0.01251,0.01 c -4.243898,2.877568 -8.176479,5.541018 -11.361081,8.512708 l -0.0049,0.004 -0.0049,0.004 c -0.40853,0.38416 -0.807793,0.76728 -1.206134,1.15629 l -0.08722,0.0822 -0.09719,0.0948 c -0.468985,0.44721 -0.947993,0.90999 -1.430415,1.36562 l -0.152011,0.14453 -0.104656,0.11962 -0.02242,0.0199 -0.112142,0.13457 c -1.601828,1.89474 -5.554143,6.53015 -12.215839,6.94026 l -0.76505,0.0424 -0.777507,-0.0324 c -6.675537,-0.41379 -10.631749,-5.05188 -12.223316,-6.94523 v -0.002 h -0.0026 l -0.0026,-0.002 -0.241726,-0.27411 -0.152013,-0.14206 c -0.514804,-0.48091 -1.022858,-0.96606 -1.50996,-1.43785 l -0.01496,-0.0175 c -0.0041,-0.003 -0.0083,-0.009 -0.01251,-0.0125 l -0.02991,-0.0299 -0.0026,-0.002 c -0.418247,-0.41821 -0.832738,-0.82151 -1.253373,-1.21599 l -0.0026,-0.002 -0.0026,-0.002 c -3.085762,-2.88812 -6.899862,-5.48934 -11.006919,-8.266327 L 43.044197,97.703973 42.71276,97.4772 C 35.207926,92.388618 26.618527,86.598565 20.462024,77.428325 16.911253,72.138774 14.706548,66.783882 13.763498,61.195364 l -0.0049,-0.0274 c -0.51099,-3.065441 -1.815006,-12.46708 1.873907,-21.062486 v -0.0026 C 21.607389,26.149358 33.290832,17.894119 47.19633,17.894119 Z" />
  </g>
  <g
     id="g12">
    <path
       style="fill:#f4a4bf;fill-opacity:1;stroke:none;stroke-width:6.6;stroke-linecap:round;stroke-dasharray:none;stroke-opacity:1"
       d="m -98.14488,18.075885 -26.7921,-1.356562 -21.36585,22.383271 -3.05226,21.36585 22.72241,31.879207 27.809519,21.365859 12.209056,7.12194 14.243902,-8.47851 25.774677,-20.687569 15.26133,-18.991868 3.052253,-14.2439 1.695712,-17.296164 -14.243916,-19.670151 -22.722404,-6.782808 -21.36585,8.139371 z"
       id="path8" />
    <path
       style="fill:#eb7aa4;fill-opacity:1;stroke:none;stroke-width:6.6;stroke-linecap:round;stroke-dasharray:none;stroke-opacity:1"
       d="m -95.609472,26.49886 -21.527268,-1.089988 -17.16733,17.984812 -2.45247,17.167321 18.25731,25.614734 22.344765,17.167321 9.809896,5.72244 11.444882,-6.81243 20.709784,-16.622325 12.26238,-15.259841 2.452471,-11.444881 1.362487,-13.897355 -11.444886,-15.804837 -18.25731,-5.449942 -17.167321,6.539931 z"
       id="path9" />
    <path
       d="m -48.150589,45.296807 c -0.140872,-0.290032 -0.298318,-0.563493 -0.447478,-0.84524 -0.107731,-0.207166 -0.215454,-0.422619 -0.331466,-0.621499 -0.207167,-0.356326 -0.414333,-0.696079 -0.621499,-1.027545 -0.0663,-0.116018 -0.132587,-0.240312 -0.207167,-0.348039 -0.198879,-0.306606 -0.406046,-0.59664 -0.613213,-0.886673 -0.09116,-0.132587 -0.182306,-0.27346 -0.281746,-0.39776 -0.207168,-0.281746 -0.430907,-0.546919 -0.646359,-0.812092 -0.107731,-0.1243 -0.19888,-0.265174 -0.306607,-0.381186 -0.22374,-0.256886 -0.455765,-0.4972 -0.687793,-0.745799 -0.107731,-0.116018 -0.215452,-0.240313 -0.32318,-0.356327 -0.232025,-0.232025 -0.472338,-0.447479 -0.704365,-0.662932 -0.1243,-0.116018 -0.240312,-0.232027 -0.364613,-0.339753 -0.232027,-0.207166 -0.488913,-0.39776 -0.729225,-0.588352 -0.140873,-0.107731 -0.27346,-0.22374 -0.39776,-0.323181 -0.240313,-0.174018 -0.488913,-0.331466 -0.737513,-0.497199 -0.14916,-0.09944 -0.298319,-0.207166 -0.447479,-0.306606 -0.240314,-0.157446 -0.4972,-0.290033 -0.754086,-0.430907 -0.157447,-0.09116 -0.323179,-0.190592 -0.488913,-0.273459 -0.248599,-0.132587 -0.505486,-0.240314 -0.762372,-0.356326 -0.174019,-0.08286 -0.356326,-0.165733 -0.538633,-0.2486 -0.2486,-0.09944 -0.513772,-0.190593 -0.770659,-0.281746 -0.19888,-0.06629 -0.389473,-0.14916 -0.588353,-0.215453 -0.256887,-0.08286 -0.513772,-0.14916 -0.770658,-0.215453 -0.215453,-0.05801 -0.42262,-0.1243 -0.638074,-0.17402 -0.256885,-0.05801 -0.522058,-0.09944 -0.778945,-0.14916 -0.232026,-0.04143 -0.455767,-0.09944 -0.687792,-0.132586 -0.265173,-0.04143 -0.538633,-0.0663 -0.803806,-0.09116 -0.232027,-0.02486 -0.47234,-0.05801 -0.720941,-0.07457 -0.273459,-0.02486 -0.546918,-0.02486 -0.828664,-0.03314 -0.232027,-0.0083 -0.455766,-0.02486 -0.69608,-0.02486 h -0.116018 c -0.323178,0 -0.638072,0 -0.961252,0.0083 -3.364382,0.05801 -6.629325,0.803805 -9.720249,2.096523 -3.306377,1.392158 -5.568633,3.47211 -8.510396,5.344894 -0.2486,0.157447 -0.530346,0.273459 -0.820379,0.356326 -0.08286,0.02487 -0.17402,0.04143 -0.265173,0.0663 -0.215453,0.04972 -0.439194,0.07458 -0.64636,0.09116 -0.09116,0 -0.182305,0.0083 -0.273459,0.0083 -0.298319,-0.0083 -0.604926,-0.04143 -0.894959,-0.116018 -0.323181,-0.09116 -0.629786,-0.22374 -0.903245,-0.39776 -2.941765,-1.872783 -5.204022,-3.952735 -8.510398,-5.344893 -3.090924,-1.292718 -6.355864,-2.038517 -9.720254,-2.096524 -0.32317,-0.0083 -0.63807,-0.0083 -0.96125,-0.0083 h -0.12429 c -0.23203,0 -0.46405,0.01657 -0.69608,0.02486 -0.27347,0.0083 -0.55521,0.0083 -0.82867,0.03314 -0.24032,0.01658 -0.48063,0.04972 -0.72095,0.07457 -0.26516,0.02486 -0.53034,0.04973 -0.79551,0.09116 -0.24031,0.03314 -0.47234,0.09116 -0.71266,0.132586 -0.24859,0.04972 -0.51376,0.09116 -0.75408,0.140873 -0.23203,0.05801 -0.45576,0.1243 -0.68779,0.190593 -0.24032,0.06629 -0.48891,0.1243 -0.72923,0.19888 -0.22373,0.06629 -0.4309,0.157446 -0.64635,0.232026 -0.24032,0.08286 -0.48063,0.165734 -0.71266,0.265173 -0.20717,0.08286 -0.40604,0.182307 -0.60493,0.281746 -0.23201,0.107731 -0.46405,0.207166 -0.69607,0.32318 -0.19888,0.09944 -0.38948,0.223739 -0.58836,0.331466 -0.21545,0.124301 -0.43919,0.240313 -0.65464,0.3729 -0.1906,0.124299 -0.3729,0.256886 -0.56349,0.381186 -0.20717,0.140873 -0.42263,0.27346 -0.6215,0.42262 -0.1823,0.140873 -0.35633,0.281745 -0.53035,0.430905 -0.19888,0.157448 -0.39776,0.314894 -0.59663,0.480627 -0.16574,0.14916 -0.33148,0.306606 -0.49721,0.464052 -0.19059,0.182307 -0.38119,0.356327 -0.56349,0.538633 -0.14916,0.157447 -0.29832,0.32318 -0.43919,0.480627 -0.1906,0.207166 -0.38947,0.406046 -0.57179,0.621499 -0.14087,0.165733 -0.27346,0.34804 -0.41433,0.522059 -0.17402,0.223741 -0.36461,0.439193 -0.53034,0.679506 -0.13258,0.17402 -0.2486,0.364613 -0.3729,0.538633 -0.17402,0.2486 -0.35633,0.488912 -0.52206,0.745799 -0.10771,0.17402 -0.21545,0.356326 -0.32319,0.530346 -0.174,0.281747 -0.34804,0.555206 -0.51376,0.853526 -0.10771,0.198879 -0.21545,0.406046 -0.32318,0.604925 -0.14916,0.290034 -0.30661,0.563493 -0.45576,0.861813 -0.24861,0.505487 -0.48893,1.027545 -0.71266,1.557891 -1.55789,3.62127 -1.58275,9.082178 -0.94468,12.885752 0.62978,3.79529 2.21253,7.217678 4.35878,10.416328 7.18453,10.648354 19.96256,15.595489 29.177321,24.188752 0.986112,0.91982 1.947364,1.905931 2.958336,2.834037 1.060692,0.977825 2.353411,3.231789 4.060462,3.339519 1.707051,-0.0994 2.99977,-2.361694 4.068749,-3.339519 1.002685,-0.928106 1.972225,-1.905931 2.958336,-2.834037 9.214763,-8.601549 21.984502,-13.540398 29.152461,-24.213611 2.146243,-3.19865 3.720702,-6.621039 4.358786,-10.416329 0.638072,-3.803576 0.604923,-9.264482 -0.952973,-12.885751 -0.232016,-0.530373 -0.472333,-1.044147 -0.712647,-1.549632 z"
       id="path10"
       style="fill:#d7598b;stroke-width:0.999998" />
    <path
       d="m -37.601679,42.653364 c -5.402895,-12.653726 -15.686636,-19.904551 -28.332075,-19.904551 -0.447479,0 -0.886673,0 -1.151846,0.0083 -4.60738,0.08286 -9.206476,1.068979 -13.689557,2.941763 -2.494284,1.052406 -4.532801,2.328552 -6.24814,3.505256 -1.715337,-1.176704 -3.762142,-2.461137 -6.289572,-3.521829 -4.449935,-1.864497 -9.049031,-2.842324 -13.465821,-2.916903 -0.44748,-0.01657 -0.88667,-0.01657 -1.45017,-0.01657 -12.52113,0 -22.80487,7.250825 -28.21605,19.887977 -3.22352,7.507711 -2.08824,16.341287 -1.66563,18.877005 0.84524,5.030001 2.80918,9.811401 6.0244,14.60109 5.53548,8.245223 13.33324,13.523823 20.20287,18.180924 3.88644,2.626872 7.55743,5.112869 10.52406,7.888894 0.39776,0.3729 0.78723,0.75409 1.1767,1.14356 0.538635,0.52206 1.077267,1.04412 1.6159,1.54132 l 0.232026,0.26518 c 1.44188,1.71534 4.839408,5.73437 10.656641,6.09069 l 0.64636,0.0248 0.638072,-0.0331 c 5.808948,-0.34804 9.206477,-4.36707 10.656641,-6.08241 l 0.22374,-0.26518 c 0.530346,-0.4972 1.052406,-1.00268 1.574465,-1.49989 0.406046,-0.39775 0.812094,-0.78723 1.226426,-1.1767 2.974909,-2.776028 6.645898,-5.262025 10.532341,-7.897183 6.877925,-4.648814 14.667385,-9.927415 20.202868,-18.180924 3.206937,-4.781403 5.179161,-9.554517 6.032685,-14.601091 0.878381,-5.212308 0.894966,-12.910611 -1.657334,-18.860432 z m -3.927873,17.915752 c -0.704361,4.234481 -2.394845,8.286657 -5.137719,12.388552 -4.930567,7.333692 -11.924505,12.07366 -18.686417,16.656181 -4.077035,2.759457 -7.913758,5.361467 -11.220133,8.435817 -0.414333,0.397759 -0.828666,0.795519 -1.301005,1.259571 -0.488914,0.480627 -0.986113,0.961253 -1.483313,1.425303 l -0.439193,0.45577 -0.256886,0.29832 c -1.143558,1.35072 -3.27323,3.87815 -6.670759,4.07703 l -0.306606,0.0165 -0.306607,-0.0165 c -3.389243,-0.20717 -5.527199,-2.72631 -6.695618,-4.11846 l -0.232027,-0.26518 -0.439193,-0.46405 c -0.505486,-0.46405 -1.010972,-0.961253 -1.574464,-1.499886 -0.406046,-0.397758 -0.803806,-0.787232 -1.218138,-1.168418 -3.30638,-3.07435 -7.1431,-5.67636 -11.22013,-8.444104 -6.76192,-4.574234 -13.75586,-9.314202 -18.66984,-16.631321 -2.75946,-4.110182 -4.44165,-8.162357 -5.14602,-12.396838 -0.25688,-1.524745 -1.40045,-9.446789 1.28443,-15.711502 4.54109,-10.615208 12.71174,-16.457301 23.01205,-16.457301 0.48891,0 0.8701,0 1.34244,0.01657 3.72071,0.0663 7.656871,0.928105 11.37758,2.47771 2.187678,0.928107 3.977595,2.071664 5.278601,2.966624 a 5.673874,5.673874 0 0 0 6.413872,0 c 1.301005,-0.89496 3.074349,-2.038517 5.22888,-2.950051 3.811863,-1.591037 7.714879,-2.436277 11.609608,-2.50257 h 0.124299 c 0.207168,-0.0084 0.563493,-0.0084 0.928106,-0.0084 10.374895,0 18.595261,5.850381 23.13635,16.473876 2.071662,4.839407 1.980516,11.47702 1.267852,15.686642 z"
       id="path11"
       style="fill:#f193b3;stroke-width:0.999998" />
    <path
       id="path12"
       style="color:#000000;fill:#f9c3d5;fill-opacity:1;stroke-width:1;-inkscape-stroke:none"
       d="m -110.12436,11.833603 c -16.32655,0 -30.36435,10.070287 -37.13595,25.884522 -4.52289,10.538899 -2.8391,21.093207 -2.28019,24.446632 v 0.0049 0.0049 c 1.09327,6.506058 3.68168,12.724213 7.64798,18.632769 6.94996,10.352119 16.40176,16.615966 23.88343,21.687974 l 0.005,0.003 0.002,0.003 c 4.23113,2.85985 7.95369,5.42789 10.6085,7.91213 0.35917,0.33686 0.7287,0.69631 1.11642,1.08403 l 0.0399,0.0398 0.0374,0.0374 c 0.48905,0.47398 1.02297,0.98273 1.56997,1.4952 l 0.0498,0.0573 -0.0449,-0.0549 c 0.006,0.005 0.0112,0.0117 0.0174,0.0175 1.64045,1.95125 7.163668,8.46739 16.447278,9.03604 l 0.07973,0.004 1.096486,0.0424 1.036676,-0.0549 h 0.0274 c 9.357549,-0.56067 14.924805,-7.21222 16.504591,-9.0809 l 0.0026,-0.002 c 0.504732,-0.4778 0.998716,-0.95009 1.442874,-1.37309 l 0.03489,-0.0349 0.03489,-0.0324 c 0.401593,-0.3934 0.802689,-0.77976 1.213609,-1.16626 l 0.0075,-0.004 c 2.666832,-2.48731 6.388445,-5.05392 10.618461,-7.92209 l 0.0075,-0.005 c 7.497801,-5.067725 16.940042,-11.33403 23.885932,-21.690471 3.951871,-5.892072 6.549538,-12.098668 7.652967,-18.622801 v -0.0026 -0.0026 c 1.140644,-6.76858 1.369758,-15.947254 -2.267734,-24.434171 -6.761154,-15.834821 -20.827452,-25.909442 -37.263046,-25.909442 -0.461966,0 -0.900991,-0.0013 -1.395526,0.01251 -5.923266,0.108513 -11.814753,1.382231 -17.454047,3.738016 l -0.01251,0.0049 -0.01,0.0049 c -1.698405,0.716605 -2.749201,1.508785 -4.109326,2.297634 -1.374324,-0.797392 -2.428141,-1.594646 -4.156673,-2.320064 h -0.0026 l -0.0026,-0.0026 c -5.621539,-2.355282 -11.477832,-3.617452 -17.232052,-3.715604 h -0.008 c -0.59421,-0.01896 -1.12977,-0.01994 -1.69706,-0.01994 z m 0,6.060572 c 0.55887,0 1.01095,0.0024 1.48773,0.01743 0.12172,0.0087 -0.48171,-0.0156 0.0449,0.0026 h 0.0374 0.0349 c 4.93449,0.08483 10.043912,1.172446 14.989442,3.244598 1.589359,0.667009 2.638875,1.411132 4.31118,2.432203 l 2.19297,1.340703 2.192971,-1.340703 c 1.600096,-0.976473 2.648156,-1.684068 4.119293,-2.325047 l 0.256679,-0.06728 0.159488,-0.104655 c 4.891962,-2.008157 9.926474,-3.097064 14.967021,-3.189775 h 0.02242 0.02242 c 0.365526,-0.01043 0.769328,-0.01 1.241022,-0.01 14.030984,0 25.72037,8.257056 31.685919,22.221266 l 0.0022,0.0026 v 0.0026 c 2.940218,6.854112 2.864865,15.12592 1.866515,21.050021 -0.949908,5.616456 -3.164941,10.97089 -6.710983,16.25788 -6.152448,9.172801 -14.727345,14.963609 -22.238769,20.040556 l -0.0026,0.0026 c -0.0014,9.71e-4 -0.0036,0.0015 -0.0049,0.0026 l -0.01251,0.01 c -4.243899,2.877568 -8.176479,5.541018 -11.361081,8.512708 l -0.0049,0.004 -0.0049,0.004 c -0.408531,0.38416 -0.807793,0.76728 -1.206135,1.15629 l -0.08722,0.0822 -0.09719,0.0948 c -0.468985,0.44721 -0.947993,0.90999 -1.430415,1.36562 l -0.152012,0.14453 -0.104655,0.11962 -0.02242,0.0199 -0.112142,0.13457 c -1.601829,1.89474 -5.554143,6.53015 -12.21584,6.94026 l -0.76505,0.0424 -0.777506,-0.0324 c -6.675537,-0.41379 -10.631749,-5.05188 -12.223312,-6.94523 v -0.002 h -0.003 l -0.003,-0.002 -0.24172,-0.27411 -0.15202,-0.14206 c -0.5148,-0.48091 -1.02285,-0.96606 -1.50996,-1.43785 l -0.0149,-0.0175 c -0.004,-0.003 -0.008,-0.009 -0.0125,-0.0125 l -0.0299,-0.0299 -0.003,-0.002 c -0.41825,-0.41821 -0.83274,-0.82151 -1.25337,-1.21599 l -0.003,-0.002 -0.003,-0.002 c -3.08576,-2.88812 -6.89986,-5.48934 -11.00692,-8.266327 l -0.0174,-0.01743 -0.33144,-0.226773 c -7.50497,-5.088387 -16.09437,-10.87844 -22.25087,-20.04868 -3.55077,-5.289551 -5.75548,-10.644443 -6.69853,-16.232961 l -0.004,-0.0274 c -0.511,-3.065441 -1.81501,-12.46708 1.8739,-21.062486 v -0.0026 c 5.97488,-13.95351 17.65832,-22.208749 31.56381,-22.208749 z" />
  </g>
</svg>
