<?xml version="1.0" encoding="UTF-8" standalone="no"?>
<svg
   width="128"
   height="128"
   version="1.1"
   id="svg6"
   sodipodi:docname="emoji_u1f61d.svg"
   xml:space="preserve"
   inkscape:version="1.3 (0e150ed6c4, 2023-07-21)"
   xmlns:inkscape="http://www.inkscape.org/namespaces/inkscape"
   xmlns:sodipodi="http://sodipodi.sourceforge.net/DTD/sodipodi-0.dtd"
   xmlns="http://www.w3.org/2000/svg"
   xmlns:svg="http://www.w3.org/2000/svg"><defs
     id="defs6" /><sodipodi:namedview
     id="namedview6"
     pagecolor="#ffffff"
     bordercolor="#000000"
     borderopacity="0.25"
     inkscape:showpageshadow="2"
     inkscape:pageopacity="0.0"
     inkscape:pagecheckerboard="0"
     inkscape:deskcolor="#d1d1d1"
     inkscape:zoom="8.515625"
     inkscape:cx="64"
     inkscape:cy="64"
     inkscape:current-layer="svg6" /><g
     id="g5"
     transform="translate(0.00225409,0.00257076)">&#10;	<g
   id="g3">&#10;		<g
   id="g1">&#10;			<path
   fill="#fcc21b"
   d="M 16.13,32.91 C 35.31,4.18 67.34,-8.92 101.3,8.35 c 22.73,11.57 30.62,39.01 20.75,71.27 -4.07,13.31 6.11,15.56 5.45,22.62 -1.3,13.82 -28.34,25.15 -63.32,25.15 -34.97,0 -62.4,-11.3 -63.33,-25.15 -1.87,-27.9 3.04,-50.97 15.28,-69.33"
   id="path1" />&#10;		</g>&#10;		<path
   fill="#2f2f2f"
   d="m 37.65,29.23 c 0.02,0 0.04,0 0.07,0 3.41,0.22 6.74,0.73 9.69,1.32 -3.94,-3.77 -7.33,-6.37 -7.38,-6.42 -1.42,-1.1 -1.7,-3.12 -0.61,-4.54 1.08,-1.43 3.11,-1.7 4.54,-0.61 0.38,0.3 9.51,7.32 15.83,15.55 0.86,1.14 0.88,2.72 0.04,3.87 -0.66,0.9 -1.7,1.38 -2.77,1.33 -0.32,-0.01 -0.63,-0.07 -0.93,-0.17 -0.09,-0.04 -9.22,-3.24 -18.83,-3.86 -1.79,-0.12 -3.15,-1.66 -3.04,-3.45 0.12,-1.75 1.64,-3.1 3.39,-3.02 z"
   id="path2" />&#10;		<path
   fill="#2f2f2f"
   d="m 99.76,41.72 c -0.07,0.01 -5.39,0.17 -11.92,1.15 3.24,1.43 6.89,3.25 10.4,5.45 1.52,0.95 1.99,2.95 1.04,4.48 -0.65,1.03 -1.76,1.57 -2.9,1.51 -0.54,-0.02 -1.08,-0.18 -1.57,-0.48 -9.03,-5.65 -19.25,-8.65 -19.36,-8.68 -1.38,-0.4 -2.33,-1.67 -2.33,-3.1 -0.01,-1.43 0.93,-2.7 2.31,-3.12 10.95,-3.25 23.61,-3.66 24.14,-3.67 1.81,-0.09 3.28,1.36 3.34,3.15 0.05,1.78 -1.35,3.26 -3.15,3.31 z"
   id="path3" />&#10;	</g>&#10;	<path
   fill="#d7598b"
   d="M 72.59,63.69 C 72.7,61.8 66.98,61.72 65.77,61.35 64.04,60.84 62.46,60.14 60.65,59.81 55.24,58.8 50.35,55.36 44.76,55.22 c -6.07,-0.15 -10.63,3.62 -13.63,8.63 -1.6,2.64 -2.52,6.44 -1.41,9.5 0.68,1.9 1.69,3.43 3.6,4.73 2.9,1.96 8.42,2.48 12.34,0.91 6.21,-2.51 9.02,-6.89 13.42,-10.51 5.67,-4.69 10.97,-4.66 13.51,-4.79 z"
   id="path4" />&#10;	<path
   fill="#2f2f2f"
   d="m 87.45,65.91 c -39.98,0 -55.09,-15.58 -55.72,-16.25 -1.1,-1.17 -1.05,-3.02 0.13,-4.12 1.17,-1.1 3.01,-1.05 4.12,0.12 0.22,0.23 14.41,14.42 51.49,14.42 0.23,0 0.42,0.04 0.68,0 1.61,0 2.91,1.3 2.92,2.91 0.01,1.61 -1.29,2.93 -2.91,2.93 -0.24,-0.01 -0.47,-0.01 -0.71,-0.01 z"
   id="path5" />&#10;</g></svg>
