<?xml version="1.0" encoding="UTF-8" standalone="no"?>
<svg
   width="128"
   height="128"
   version="1.1"
   id="svg22235"
   sodipodi:docname="Emoji_u1f628.svg"
   inkscape:version="1.2.2 (732a01da63, 2022-12-09)"
   xmlns:inkscape="http://www.inkscape.org/namespaces/inkscape"
   xmlns:sodipodi="http://sodipodi.sourceforge.net/DTD/sodipodi-0.dtd"
   xmlns="http://www.w3.org/2000/svg"
   xmlns:svg="http://www.w3.org/2000/svg">
  <defs
     id="defs22239" />
  <sodipodi:namedview
     id="namedview22237"
     pagecolor="#ffffff"
     bordercolor="#000000"
     borderopacity="0.25"
     inkscape:showpageshadow="2"
     inkscape:pageopacity="0.0"
     inkscape:pagecheckerboard="0"
     inkscape:deskcolor="#d1d1d1"
     showgrid="false"
     inkscape:zoom="4.2421874"
     inkscape:cx="84.272561"
     inkscape:cy="62.939228"
     inkscape:window-width="1366"
     inkscape:window-height="697"
     inkscape:window-x="-8"
     inkscape:window-y="-8"
     inkscape:window-maximized="1"
     inkscape:current-layer="svg22235" />
  <linearGradient
     id="a"
     gradientUnits="userSpaceOnUse"
     x1="63.79"
     x2="63.79"
     y1="65.667"
     y2="3.276">
    <stop
       offset="0"
       stop-color="#fcc21b"
       id="stop22212" />
    <stop
       offset=".151"
       stop-color="#e5bf34"
       id="stop22214" />
    <stop
       offset=".473"
       stop-color="#abb973"
       id="stop22216" />
    <stop
       offset=".935"
       stop-color="#4fafd8"
       id="stop22218" />
    <stop
       offset="1"
       stop-color="#42ade7"
       id="stop22220" />
  </linearGradient>
  <path
     d="M63.79 8.64C1.48 8.64 0 78.5 0 92.33c0 13.83 28.56 25.03 63.79 25.03 35.24 0 63.79-11.21 63.79-25.03 0-13.83-1.47-83.69-63.79-83.69z"
     fill="url(#a)"
     id="path22223" />
  <ellipse
     cx="-56.578842"
     cy="-79.967804"
     rx="16.611"
     ry="15.501"
     transform="matrix(-0.11060166,-0.99386482,-0.99386482,0.11060166,0,0)"
     fill="#ffffff"
     id="ellipse22225" />
  <path
     d="m 90.730922,47.296 c -0.19,2.711 -2.58,4.782 -5.333,4.618 -2.76,-0.157 -4.848,-2.498 -4.659,-5.21 0.181,-2.72 2.564,-4.782 5.325,-4.618 2.76,0.157 4.856,2.498 4.667,5.21"
     fill="#2f2f2f"
     id="path22227" />
  <ellipse
     cx="-45.698368"
     cy="44.087677"
     rx="15.5"
     ry="16.611"
     transform="matrix(-0.9971681,-0.07520498,-0.07520498,0.9971681,0,0)"
     fill="#ffffff"
     id="ellipse22229" />
  <path
     d="m 47.225539,46.266 c 0.313,2.707 -1.654,5.184 -4.394,5.53 -2.749,0.354 -5.234,-1.564 -5.547,-4.263 -0.33,-2.708 1.638,-5.185 4.386,-5.539 2.74,-0.345 5.234,1.572 5.555,4.272"
     fill="#2f2f2f"
     id="path22231" />
  <path
     d="M 101.32214,84.663169 C 94.169195,72.243036 82.646939,67.54486 68.410747,66.206244 67.061401,66.090428 65.572656,66.026685 64.000054,66.013218 a 42.540864,35.069774 0 0 0 -4.410694,0.206493 c -14.236193,1.337719 -25.758448,6.035894 -32.911394,18.456027 -4.786419,8.314505 -3.938041,16.295032 2.741163,20.606262 3.438163,2.21307 10.228453,2.08468 14.514993,0.83674 4.619793,-1.35208 10.422304,-3.71957 17.825735,-3.86142 0.751451,-0.0126 1.502902,0.0126 2.226038,0.0646 a 21.113607,17.405604 0 0 1 2.227128,-0.0646 c 7.40343,0.14185 13.205942,2.52281 17.825735,3.86053 4.28654,1.24883 11.090988,1.37722 14.513903,-0.83585 6.708609,-4.3247 7.556979,-12.290859 2.769479,-20.618831 z"
     fill="#ed6c30"
     id="path22233"
     style="stroke-width:0.999996" />
</svg>
