<?xml version="1.0" encoding="UTF-8" standalone="no"?>
<svg
   width="128"
   height="128"
   version="1.1"
   id="svg34965"
   sodipodi:docname="emoji_u1f635.svg"
   inkscape:version="1.3 (0e150ed6c4, 2023-07-21)"
   xmlns:inkscape="http://www.inkscape.org/namespaces/inkscape"
   xmlns:sodipodi="http://sodipodi.sourceforge.net/DTD/sodipodi-0.dtd"
   xmlns="http://www.w3.org/2000/svg"
   xmlns:svg="http://www.w3.org/2000/svg">
  <defs
     id="defs34969" />
  <sodipodi:namedview
     id="namedview34967"
     pagecolor="#ffffff"
     bordercolor="#000000"
     borderopacity="0.25"
     inkscape:showpageshadow="2"
     inkscape:pageopacity="0.0"
     inkscape:pagecheckerboard="0"
     inkscape:deskcolor="#d1d1d1"
     showgrid="false"
     inkscape:zoom="4.2421874"
     inkscape:cx="61.642727"
     inkscape:cy="67.535913"
     inkscape:window-width="1366"
     inkscape:window-height="697"
     inkscape:window-x="-8"
     inkscape:window-y="-8"
     inkscape:window-maximized="1"
     inkscape:current-layer="svg34965" />
  <path
     d="M64.22 9.62C1.81 9.62.34 79.58.34 93.42c0 13.86 28.59 25.08 63.88 25.08 35.28 0 63.88-11.22 63.88-25.08 0-13.84-1.48-83.8-63.88-83.8z"
     fill="#fcc21b"
     id="path34945" />
  <path
     d="M-128.11 9.62c-62.41 0-63.88 69.96-63.88 83.8 0 13.86 28.59 25.08 63.88 25.08 35.28 0 63.88-11.22 63.88-25.08 0-13.84-1.48-83.8-63.88-83.8z"
     fill="#fcc21b"
     id="path34951" />
  <path
     d="M-107.19 71.43c-5.4-4.59-13.77-7.55-20.92-7.55s-15.53 2.95-20.92 7.55c-6.63 5.65-13.2 15.48-11.2 22.95.47 1.74 1.34 3.57 2.4 4.92 1.34 1.71 3.59 3.22 5.49 3.83 3.79 1.21 7.78.32 11.34-1.45 3.59-1.78 6.46-4.39 12.89-4.39s9.3 2.61 12.89 4.39c3.56 1.76 7.55 2.65 11.34 1.45 1.9-.61 4.16-2.13 5.49-3.83 1.06-1.35 1.93-3.18 2.4-4.92 2-7.47-4.57-17.3-11.2-22.95z"
     fill="#ed6c30"
     id="path34953" />
  <path
     d="M-84.62 40.85c1.24 10.87-4.81 19-18.92 19.61-11.73.51-17.15-5.72-18.31-14.94s6.24-17.74 16.52-19.03 19.66 5.13 20.71 14.36z"
     fill="#fff"
     id="path34955" />
  <path
     d="M-103.52 46.15s-1.94 2.25-5 1.05c-2.64-1.03-3.4-4.09-2.47-6.68.93-2.59 4.25-4 7.84-3.63 3.83.39 10.26 5.37 7.9 13.27-2.56 8.56-12.55 8.84-16.98 7.22-4.55-1.66-11.2-7.34-9.48-17.65 1.77-10.63 11.67-13.37 17.23-13.37 5.26 0 17.38 2.83 20.01 17.16"
     fill="none"
     stroke="#2f2f2f"
     stroke-width="5"
     stroke-linecap="round"
     stroke-linejoin="round"
     stroke-miterlimit="10"
     id="path34957" />
  <g
     id="g34963">
    <path
       d="M-169.35 53.28c-4.87-7.91-4.43-27.65 16.79-28.92 5.6-.34 10.3 1.35 15.17 9.26 4.87 7.91 1.66 18.73-7.16 24.16-8.83 5.43-19.93 3.41-24.8-4.5z"
       fill="#fff"
       id="path34959" />
    <path
       d="M-154.33 40.63s.84-2.85 4.12-3.02c2.83-.15 4.78 2.32 5.01 5.06.23 2.74-2.22 5.4-5.64 6.55-3.65 1.23-11.57-.64-12.69-8.81-1.21-8.85 7.77-13.24 12.47-13.6 4.82-.37 13.23 2.05 15.94 12.15 2.79 10.41-5.09 17-10.15 19.3-4.79 2.18-16.99 4.62-25.32-7.34"
       fill="none"
       stroke="#2f2f2f"
       stroke-width="5"
       stroke-linecap="round"
       stroke-linejoin="round"
       stroke-miterlimit="10"
       id="path34961" />
  </g>
  <path
     id="path35562"
     style="font-variation-settings:'opsz' 12, 'wght' 400;fill:none;fill-opacity:1;stroke:#2f2f2f;stroke-width:5;stroke-linecap:round;stroke-opacity:1"
     d="m 97.764854,36.470393 c 0,0 -12.762834,1.143817 -33.544856,6.752405 -20.782021,5.608588 -36.328345,13.778806 -36.328345,13.778806 m 2.78349,-20.531211 c 0,0 12.689018,0.858998 33.544855,6.752405 20.855837,5.893407 36.328342,13.778806 36.328342,13.778806"
     sodipodi:nodetypes="czcczc" />
  <path
     d="M 88.917298,68.130434 C 82.485491,62.868299 72.516189,59.474853 64,59.474853 c -8.516189,0 -18.497401,3.381982 -24.917296,8.655581 -7.89683,6.477355 -15.722195,17.746808 -13.340045,26.310675 0.559805,1.994801 1.596041,4.092779 2.858581,5.640461 1.596041,1.9604 4.27596,3.69152 6.539003,4.39085 4.514177,1.38718 9.266568,0.36686 13.506795,-1.66234 C 52.923,100.76944 56.341386,97.777239 64,97.777239 c 7.658615,0 11.077002,2.992201 15.352962,5.032841 4.240229,2.01774 8.99262,3.03806 13.506795,1.66234 2.263043,-0.69933 4.954873,-2.44191 6.539002,-4.39085 1.262541,-1.547682 2.298781,-3.64566 2.858581,-5.640461 2.38215,-8.563867 -5.443214,-19.83332 -13.340042,-26.310675 z"
     style="fill:#ed6c30;stroke-width:0.999997"
     id="path2" />
</svg>
