<?xml version="1.0" encoding="UTF-8" standalone="no"?>
<svg
   width="100%"
   height="100%"
   viewBox="0 0 534 534"
   version="1.1"
   xml:space="preserve"
   style="fill-rule:evenodd;clip-rule:evenodd;"
   id="svg19046"
   sodipodi:docname="emoji_u1f92d.svg"
   inkscape:version="1.2.2 (732a01da63, 2022-12-09)"
   xmlns:inkscape="http://www.inkscape.org/namespaces/inkscape"
   xmlns:sodipodi="http://sodipodi.sourceforge.net/DTD/sodipodi-0.dtd"
   xmlns="http://www.w3.org/2000/svg"
   xmlns:svg="http://www.w3.org/2000/svg"><defs
     id="defs19050" /><sodipodi:namedview
     id="namedview19048"
     pagecolor="#ffffff"
     bordercolor="#000000"
     borderopacity="0.25"
     inkscape:showpageshadow="2"
     inkscape:pageopacity="0.0"
     inkscape:pagecheckerboard="0"
     inkscape:deskcolor="#d1d1d1"
     showgrid="false"
     inkscape:zoom="1.4380486"
     inkscape:cx="237.1269"
     inkscape:cy="310.14251"
     inkscape:window-width="1366"
     inkscape:window-height="697"
     inkscape:window-x="-8"
     inkscape:window-y="-8"
     inkscape:window-maximized="1"
     inkscape:current-layer="svg19046" /><path
     d="M265.833,39.458c-260.5,0 -266.666,292 -266.666,349.792c-0,57.833 119.375,104.625 266.666,104.625c147.292,0 266.625,-46.792 266.625,-104.625c0,-57.792 -6.166,-349.792 -266.625,-349.792Z"
     style="fill:#fcc21b;fill-rule:nonzero;"
     id="path18948" /><path
     d="M441.167,387.125c-38.125,13.667 -80.167,-5.625 -94.042,-43.208c-13.792,-37.584 5.75,-79.209 43.833,-92.959c38,-13.666 80.125,5.709 94.042,43.292c13.833,37.625 -5.833,79.25 -43.833,92.875Z"
     style="fill:#fcc21b;fill-rule:nonzero;"
     id="path18950" /><path
     d="M440.125,384.375c-36.583,13.125 -76.917,-5.375 -90.208,-41.458c-13.25,-36.042 5.5,-76 42.083,-89.167c36.458,-13.125 76.875,5.458 90.208,41.5c13.25,36.083 -5.583,76.042 -42.083,89.125Z"
     style="fill:#fcc01c;fill-rule:nonzero;"
     id="path18952" /><path
     d="M439.125,381.583c-35,12.542 -73.625,-5.166 -86.375,-39.708c-12.708,-34.542 5.292,-72.75 40.292,-85.375c34.916,-12.542 73.625,5.25 86.375,39.75c12.666,34.583 -5.375,72.833 -40.292,85.333Z"
     style="fill:#fcbe1c;fill-rule:nonzero;"
     id="path18954" /><path
     d="M438.083,378.833c-33.458,12 -70.375,-4.916 -82.541,-37.958c-12.125,-33 5.041,-69.542 38.5,-81.583c33.375,-12 70.333,5 82.583,38c12.083,33 -5.167,69.541 -38.542,81.541Z"
     style="fill:#fbbb1d;fill-rule:nonzero;"
     id="path18956" /><path
     d="M437.083,376.042c-31.916,11.458 -67.125,-4.709 -78.708,-36.167c-11.583,-31.458 4.833,-66.333 36.708,-77.792c31.834,-11.458 67.084,4.75 78.75,36.25c11.5,31.459 -4.916,66.292 -36.75,77.709Z"
     style="fill:#fbb91e;fill-rule:nonzero;"
     id="path18958" /><path
     d="M436.042,373.292c-30.375,10.875 -63.834,-4.459 -74.875,-34.417c-11,-29.958 4.583,-63.083 34.916,-74.042c30.292,-10.875 63.834,4.542 74.917,34.459c10.958,29.958 -4.667,63.125 -34.958,74Z"
     style="fill:#fbb71e;fill-rule:nonzero;"
     id="path18960" /><path
     d="M435.042,370.5c-28.792,10.333 -60.584,-4.25 -71.042,-32.667c-10.458,-28.416 4.333,-59.875 33.125,-70.25c28.708,-10.333 60.542,4.292 71.083,32.709c10.417,28.458 -4.458,59.916 -33.166,70.208Z"
     style="fill:#fbb51f;fill-rule:nonzero;"
     id="path18962" /><path
     d="M434,367.75c-27.25,9.792 -57.333,-4 -67.208,-30.917c-9.875,-26.875 4.125,-56.625 31.333,-66.458c27.167,-9.792 57.292,4.083 67.25,30.958c9.875,26.875 -4.167,56.625 -31.375,66.417Z"
     style="fill:#fab220;fill-rule:nonzero;"
     id="path18964" /><path
     d="M432.958,364.958c-25.708,9.209 -54.041,-3.791 -63.416,-29.125c-9.334,-25.333 3.875,-53.416 29.583,-62.666c25.625,-9.209 54.042,3.833 63.417,29.208c9.333,25.333 -3.917,53.375 -29.584,62.583Z"
     style="fill:#fab020;fill-rule:nonzero;"
     id="path18966" /><path
     d="M431.958,362.208c-24.166,8.667 -50.791,-3.541 -59.583,-27.375c-8.75,-23.833 3.625,-50.166 27.792,-58.875c24.083,-8.666 50.791,3.625 59.583,27.417c8.75,23.792 -3.708,50.167 -27.792,58.833Z"
     style="fill:#faae21;fill-rule:nonzero;"
     id="path18968" /><path
     d="M430.917,359.417c-22.584,8.125 -47.542,-3.334 -55.75,-25.625c-8.209,-22.292 3.416,-46.959 26,-55.125c22.541,-8.084 47.5,3.375 55.75,25.666c8.208,22.334 -3.417,47 -26,55.084Z"
     style="fill:#faac22;fill-rule:nonzero;"
     id="path18970" /><path
     d="M429.917,356.667c-21.042,7.541 -44.25,-3.084 -51.917,-23.875c-7.625,-20.75 3.167,-43.75 24.208,-51.334c21,-7.541 44.25,3.125 51.917,23.917c7.625,20.75 -3.208,43.75 -24.208,51.292Z"
     style="fill:#f9a922;fill-rule:nonzero;"
     id="path18972" /><path
     d="M428.875,353.875c-19.5,7 -41,-2.875 -48.083,-22.125c-7.084,-19.208 2.958,-40.5 22.416,-47.542c19.459,-7 41,2.917 48.084,22.125c7.083,19.292 -2.959,40.542 -22.417,47.542Z"
     style="fill:#f9a723;fill-rule:nonzero;"
     id="path18974" /><path
     d="M427.875,351.083c-17.917,6.417 -37.75,-2.625 -44.25,-20.333c-6.5,-17.708 2.708,-37.292 20.625,-43.75c17.875,-6.417 37.708,2.667 44.292,20.375c6.458,17.708 -2.75,37.292 -20.667,43.708Z"
     style="fill:#f9a524;fill-rule:nonzero;"
     id="path18976" /><path
     d="M426.833,348.333c-16.375,5.875 -34.458,-2.416 -40.416,-18.583c-5.959,-16.167 2.458,-34.042 18.833,-39.958c16.333,-5.875 34.458,2.458 40.458,18.625c5.959,16.166 -2.5,34.041 -18.875,39.916Z"
     style="fill:#f9a324;fill-rule:nonzero;"
     id="path18978" /><path
     d="M425.833,345.542c-14.833,5.333 -31.208,-2.167 -36.583,-16.834c-5.375,-14.625 2.25,-30.833 17.083,-36.166c14.792,-5.334 31.209,2.208 36.625,16.875c5.334,14.625 -2.333,30.833 -17.125,36.125Z"
     style="fill:#f8a025;fill-rule:nonzero;"
     id="path18980" /><path
     d="M424.792,342.792c-13.292,4.75 -27.959,-1.959 -32.75,-15.084c-4.834,-13.125 2,-27.625 15.291,-32.416c13.25,-4.75 27.917,2 32.792,15.083c4.792,13.167 -2.042,27.667 -15.333,32.417Z"
     style="fill:#f89e26;fill-rule:nonzero;"
     id="path18982" /><path
     d="M423.792,340c-11.709,4.208 -24.667,-1.708 -28.959,-13.292c-4.25,-11.583 1.792,-24.375 13.5,-28.625c11.709,-4.208 24.667,1.75 28.959,13.334c4.25,11.583 -1.792,24.375 -13.5,28.583Z"
     style="fill:#f89c26;fill-rule:nonzero;"
     id="path18984" /><path
     d="M422.75,337.25c-10.167,3.667 -21.417,-1.5 -25.125,-11.542c-3.708,-10.041 1.542,-21.166 11.708,-24.833c10.167,-3.667 21.417,1.542 25.125,11.583c3.709,10.042 -1.541,21.125 -11.708,24.792Z"
     style="fill:#f89a27;fill-rule:nonzero;"
     id="path18986" /><path
     d="M421.75,334.458c-8.625,3.084 -18.167,-1.291 -21.292,-9.791c-3.125,-8.5 1.292,-17.917 9.917,-21.042c8.625,-3.083 18.125,1.292 21.292,9.833c3.125,8.5 -1.292,17.917 -9.917,21Z"
     style="fill:#f79728;fill-rule:nonzero;"
     id="path18988" /><path
     d="M420.708,331.708c-7.083,2.542 -14.875,-1.041 -17.458,-8.041c-2.583,-7 1.083,-14.709 8.125,-17.25c7.083,-2.542 14.875,1.041 17.458,8.041c2.584,7 -1.041,14.709 -8.125,17.25Z"
     style="fill:#f79528;fill-rule:nonzero;"
     id="path18990" /><path
     d="M419.708,328.917c-5.5,1.958 -11.625,-0.834 -13.625,-6.25c-2,-5.459 0.834,-11.459 6.375,-13.459c5.5,-2 11.625,0.834 13.625,6.292c2,5.417 -0.875,11.417 -6.375,13.417Z"
     style="fill:#f79329;fill-rule:nonzero;"
     id="path18992" /><g
     id="g19038"><path
       d="M135.417,384.375c-38.125,13.667 -80.167,-5.625 -94.042,-43.25c-13.833,-37.583 5.75,-79.208 43.833,-92.958c38,-13.667 80.125,5.708 94.042,43.291c13.833,37.625 -5.833,79.25 -43.833,92.917Z"
       style="fill:#fcc21b;fill-rule:nonzero;"
       id="path18994" /><path
       d="M134.375,381.583c-36.583,13.125 -76.917,-5.375 -90.208,-41.5c-13.25,-36.041 5.5,-75.958 42.083,-89.166c36.458,-13.084 76.875,5.458 90.208,41.541c13.25,36.125 -5.583,76.042 -42.083,89.125Z"
       style="fill:#fcc01c;fill-rule:nonzero;"
       id="path18996" /><path
       d="M133.375,378.833c-35,12.542 -73.625,-5.166 -86.375,-39.708c-12.708,-34.5 5.292,-72.75 40.292,-85.375c34.916,-12.542 73.625,5.25 86.375,39.792c12.666,34.5 -5.375,72.75 -40.292,85.291Z"
       style="fill:#fcbe1c;fill-rule:nonzero;"
       id="path18998" /><path
       d="M132.333,376.042c-33.458,12 -70.375,-4.917 -82.541,-37.959c-12.125,-33 5.041,-69.5 38.5,-81.583c33.375,-12 70.333,5 82.583,38c12.083,33 -5.167,69.583 -38.542,81.542Z"
       style="fill:#fbbb1d;fill-rule:nonzero;"
       id="path19000" /><path
       d="M131.333,373.292c-31.916,11.458 -67.125,-4.709 -78.708,-36.209c-11.583,-31.458 4.833,-66.291 36.708,-77.791c31.834,-11.417 67.084,4.75 78.75,36.25c11.5,31.458 -4.916,66.291 -36.75,77.75Z"
       style="fill:#fbb91e;fill-rule:nonzero;"
       id="path19002" /><path
       d="M130.292,370.5c-30.375,10.875 -63.834,-4.458 -74.875,-34.458c-11,-29.917 4.583,-63.084 34.916,-74.042c30.292,-10.875 63.834,4.542 74.917,34.5c10.958,29.958 -4.667,63.125 -34.958,74Z"
       style="fill:#fbb71e;fill-rule:nonzero;"
       id="path19004" /><path
       d="M129.292,367.75c-28.792,10.333 -60.584,-4.25 -71.042,-32.667c-10.458,-28.416 4.333,-59.833 33.125,-70.25c28.708,-10.333 60.542,4.292 71.083,32.709c10.417,28.416 -4.458,59.875 -33.166,70.208Z"
       style="fill:#fbb51f;fill-rule:nonzero;"
       id="path19006" /><path
       d="M128.25,364.958c-27.25,9.792 -57.333,-4 -67.208,-30.916c-9.875,-26.875 4.125,-56.625 31.333,-66.459c27.167,-9.75 57.292,4.084 67.25,30.959c9.875,26.875 -4.167,56.666 -31.375,66.416Z"
       style="fill:#fab220;fill-rule:nonzero;"
       id="path19008" /><path
       d="M127.25,362.208c-25.708,9.209 -54.042,-3.791 -63.417,-29.166c-9.333,-25.334 3.875,-53.417 29.584,-62.667c25.625,-9.208 54.041,3.833 63.416,29.208c9.292,25.334 -3.958,53.375 -29.583,62.625Z"
       style="fill:#fab020;fill-rule:nonzero;"
       id="path19010" /><path
       d="M126.208,359.417c-24.166,8.666 -50.791,-3.542 -59.583,-27.417c-8.75,-23.792 3.625,-50.167 27.792,-58.875c24.083,-8.667 50.791,3.583 59.583,27.417c8.75,23.833 -3.708,50.208 -27.792,58.875Z"
       style="fill:#faae21;fill-rule:nonzero;"
       id="path19012" /><path
       d="M125.208,356.667c-22.583,8.083 -47.541,-3.334 -55.75,-25.625c-8.208,-22.292 3.417,-46.959 26,-55.084c22.542,-8.083 47.5,3.375 55.75,25.667c8.167,22.25 -3.458,46.917 -26,55.042Z"
       style="fill:#faac22;fill-rule:nonzero;"
       id="path19014" /><path
       d="M124.167,353.875c-21.042,7.542 -44.25,-3.125 -51.917,-23.875c-7.625,-20.75 3.167,-43.708 24.208,-51.333c21,-7.542 44.25,3.125 51.917,23.916c7.625,20.75 -3.208,43.75 -24.208,51.292Z"
       style="fill:#f9a922;fill-rule:nonzero;"
       id="path19016" /><path
       d="M123.125,351.083c-19.5,7 -41,-2.875 -48.083,-22.125c-7.084,-19.208 2.958,-40.5 22.416,-47.541c19.459,-7 41,2.916 48.084,22.125c7.083,19.291 -2.959,40.583 -22.417,47.541Z"
       style="fill:#f9a723;fill-rule:nonzero;"
       id="path19018" /><path
       d="M122.125,348.333c-17.917,6.417 -37.75,-2.666 -44.25,-20.375c-6.5,-17.666 2.708,-37.291 20.625,-43.75c17.875,-6.416 37.708,2.667 44.292,20.375c6.5,17.709 -2.75,37.292 -20.667,43.75Z"
       style="fill:#f9a524;fill-rule:nonzero;"
       id="path19020" /><path
       d="M121.083,345.542c-16.375,5.875 -34.458,-2.417 -40.416,-18.584c-5.959,-16.166 2.458,-34.041 18.833,-39.958c16.333,-5.875 34.458,2.417 40.458,18.625c5.959,16.167 -2.5,34.042 -18.875,39.917Z"
       style="fill:#f9a324;fill-rule:nonzero;"
       id="path19022" /><path
       d="M120.083,342.792c-14.833,5.291 -31.208,-2.209 -36.583,-16.834c-5.375,-14.625 2.25,-30.833 17.083,-36.166c14.792,-5.334 31.209,2.208 36.625,16.833c5.334,14.625 -2.333,30.833 -17.125,36.167Z"
       style="fill:#f8a025;fill-rule:nonzero;"
       id="path19024" /><path
       d="M119.042,340c-13.292,4.75 -27.959,-1.958 -32.792,-15.083c-4.833,-13.084 2,-27.584 15.292,-32.375c13.25,-4.75 27.916,1.958 32.791,15.083c4.834,13.125 -2,27.625 -15.291,32.375Z"
       style="fill:#f89e26;fill-rule:nonzero;"
       id="path19026" /><path
       d="M118.042,337.25c-11.709,4.208 -24.667,-1.75 -28.959,-13.333c-4.25,-11.542 1.792,-24.375 13.5,-28.584c11.709,-4.208 24.667,1.75 28.959,13.334c4.25,11.541 -1.792,24.375 -13.5,28.583Z"
       style="fill:#f89c26;fill-rule:nonzero;"
       id="path19028" /><path
       d="M117,334.458c-10.167,3.625 -21.417,-1.5 -25.125,-11.541c-3.708,-10.042 1.542,-21.167 11.708,-24.834c10.167,-3.666 21.417,1.5 25.125,11.542c3.709,10.083 -1.541,21.167 -11.708,24.833Z"
       style="fill:#f89a27;fill-rule:nonzero;"
       id="path19030" /><path
       d="M116,331.708c-8.625,3.084 -18.167,-1.291 -21.292,-9.791c-3.125,-8.5 1.292,-17.917 9.917,-21.042c8.625,-3.083 18.167,1.292 21.292,9.792c3.125,8.5 -1.292,17.916 -9.917,21.041Z"
       style="fill:#f79728;fill-rule:nonzero;"
       id="path19032" /><path
       d="M114.958,328.917c-7.041,2.541 -14.875,-1.042 -17.458,-8.042c-2.583,-6.958 1.083,-14.708 8.125,-17.25c7.083,-2.542 14.875,1.042 17.458,8.042c2.584,7 -1.041,14.708 -8.125,17.25Z"
       style="fill:#f79528;fill-rule:nonzero;"
       id="path19034" /><path
       d="M113.958,326.167c-5.5,1.958 -11.625,-0.834 -13.625,-6.292c-2,-5.417 0.834,-11.5 6.375,-13.458c5.5,-1.959 11.625,0.791 13.625,6.25c2,5.458 -0.875,11.5 -6.375,13.5Z"
       style="fill:#f79329;fill-rule:nonzero;"
       id="path19036" /></g><g
     id="g19042"><path
       d="M124.833,250.146c-3.214,5.307 -10.211,7.052 -15.541,3.875c-5.318,-3.159 -7.119,-10.117 -4,-15.458c0.75,-1.292 19.166,-31.751 59.875,-31.751c40.75,0 59.166,30.459 59.958,31.75c1.012,1.74 1.545,3.717 1.545,5.73c-0,6.245 -5.133,11.386 -11.378,11.395c-3.834,0 -7.625,-1.958 -9.75,-5.5c-0.542,-0.916 -13,-20.666 -40.375,-20.666c-27.375,-0.042 -39.75,19.75 -40.334,20.625Zm300.167,3.917c-1.792,1.083 -3.792,1.583 -5.708,1.583c-3.917,-0 -7.709,-2.042 -9.834,-5.583c-0.458,-0.834 -12.833,-20.584 -40.25,-20.584c-27.875,0 -40.25,20.375 -40.375,20.584c-2.065,3.343 -5.726,5.385 -9.656,5.385c-6.226,-0 -11.35,-5.124 -11.35,-11.35c0,-1.954 0.505,-3.875 1.465,-5.577c0.75,-1.292 19.166,-31.75 59.916,-31.75c40.709,-0 59.084,30.458 59.834,31.75c3.166,5.416 1.333,12.416 -4.042,15.541Z"
       style="fill:#2f2f2f;fill-rule:nonzero;"
       id="path19040" /></g><path
     d="m 294.32598,419.00584 c 1.98997,1.77041 3.8916,-0.44199 3.8916,-0.44199 0,0 31.83369,-35.40334 33.91607,-36.99647 2.93383,-2.24997 9.24561,-5.82104 15.81257,0.61275 2.72607,2.6691 7.24173,8.66006 -0.59953,18.68858 -1.68406,2.16176 -51.27612,57.01267 -54.18295,59.97098 0,0 -22.95615,23.44019 -36.9595,32.40336 -3.8916,2.49836 -8.2674,5.1266 -13.4063,7.0261 -5.1119,1.89623 -10.92312,3.25406 -17.08113,3.41418 -6.1441,0.22794 -12.55484,-0.80962 -18.64824,-2.85944 -6.07949,-2.06617 -11.79501,-5.17399 -16.98462,-8.78589 -1.28166,-0.91912 -2.56331,-1.84149 -3.78281,-2.8325 l -3.51045,-2.72955 c -2.39156,-1.92075 -4.69642,-3.94769 -6.90803,-6.07349 -4.31036,-4.09392 -8.29438,-8.51955 -11.91443,-13.23519 -3.5129,-4.61599 -6.10648,-9.63311 -8.91843,-14.18782 -4.85263,-7.85696 -7.12887,-17.9198 -8.08337,-25.68118 -2.13718,-17.48354 5.0195,-35.51854 5.0195,-35.51854 l 3.28225,-6.06613 c 11.47766,-17.06769 38.98299,-46.40817 38.98299,-46.40817 8.87837,-10.41986 18.35871,-9.72869 22.22004,-7.09717 11.12351,7.5743 8.1447,17.8234 0.27973,27.11337 l -26.06092,28.40095 c -1.32174,3.0735 2.61402,6.45093 5.15281,4.28917 7.95739,-6.81531 24.66311,-25.43936 24.66311,-25.43936 7.50428,-7.53997 49.68774,-52.95794 52.52669,-55.72835 5.69181,-5.56287 12.99488,-8.54488 18.6965,-4.5686 5.82022,4.05471 7.59262,10.51545 2.24189,17.74906 -1.4518,1.95751 -44.06793,49.23412 -44.06793,49.23412 -2.49461,2.74017 0.6167,6.43378 3.35995,3.77121 0,0 53.02807,-58.07393 55.427,-60.79367 5.41208,-6.17888 14.32396,-7.72789 19.75241,-2.89704 5.3033,4.71811 5.37772,12.69762 -0.12596,19.08646 -1.7585,2.02614 -39.08933,43.43025 -54.04309,60.36558 -1.00849,1.1299 -1.76177,2.63152 -0.20447,4.01713 0.0101,0.0101 1.59164,1.63725 3.52353,-0.52778 4.05599,-4.54816 44.65435,-48.95798 46.92077,-51.36156 5.19043,-5.51793 12.26203,-8.23768 18.13051,-3.14213 5.36709,4.65029 6.42055,12.98683 0.53491,19.03908 l -49.14303,54.53801 c 0,0 -1.57774,1.99099 0.29036,3.65193 z"
     style="fill:none;fill-rule:nonzero;stroke:#2f2f2f;stroke-width:44.031;stroke-dasharray:none;stroke-opacity:1"
     id="path19169" /><path
     id="path19044"
     style="fill:#fac036;fill-rule:nonzero;stroke:none;stroke-width:12.5px"
     d="m 285.48047,306.46289 c -4.12127,0.28106 -7.72936,2.71362 -10.67172,5.45091 -4.09079,4.14882 -8.01537,8.45968 -12.01775,12.69376 -13.07712,13.92613 -26.06556,27.93177 -39.26823,41.73788 -3.0953,3.16813 -5.97579,6.53756 -9.03086,9.74492 -5.39071,5.75616 -10.78747,11.52659 -16.6395,16.82111 -1.17323,1.22664 -2.87658,2.0507 -4.5985,1.72134 -3.28842,-0.4838 -5.74203,-4.2389 -4.51204,-7.41209 0.33074,-1.02132 1.32597,-1.63598 1.9624,-2.47056 8.23253,-8.9875 16.49841,-17.94598 24.71012,-26.9516 2.91532,-3.53269 5.60897,-7.56187 6.25799,-12.19295 0.45837,-3.10901 -0.62354,-6.32761 -2.73468,-8.63232 -1.39942,-1.51162 -2.98692,-2.95248 -4.89473,-3.77993 -4.06056,-1.47858 -8.60578,-0.23953 -12.14435,1.9901 -2.68974,1.6392 -4.86221,3.94902 -6.9312,6.28976 -8.33017,8.99189 -16.54442,18.22719 -24.42482,27.66426 -4.75811,5.76764 -9.49604,11.57906 -13.66118,17.7943 -1.05621,2.02706 -2.24165,3.99525 -3.21536,6.05989 -2.87328,8.07836 -4.69039,16.57143 -5.05006,25.14867 -0.30476,6.97853 0.83653,13.9476 2.64732,20.66851 1.38947,5.07322 3.4117,9.99405 6.27505,14.41975 3.06435,5.15424 5.96364,10.45565 9.85951,15.04982 5.81809,7.1697 12.51045,13.6314 19.8995,19.16975 8.19061,6.51623 17.74576,11.62672 28.12633,13.47153 0.92553,0.1636 1.96294,0.32746 2.76243,0.41955 7.39944,0.94318 14.98556,0.0766 22.04824,-2.28847 1.03684,-0.34893 2.31209,-0.80233 3.41428,-1.26312 1.24012,-0.5063 2.46957,-1.07281 3.57988,-1.63504 6.28172,-3.19339 12.08695,-7.25118 17.50622,-11.74074 9.45825,-7.81535 18.35406,-16.28778 27.00743,-24.97829 9.49063,-10.27036 18.83425,-20.67567 28.22535,-31.03723 8.53133,-9.47344 17.11321,-18.90258 25.54775,-28.4623 2.21302,-2.75376 4.21611,-6.03728 4.2144,-9.68129 -0.006,-3.43687 -2.38651,-6.34658 -5.09265,-8.20873 -2.23478,-1.60586 -5.26075,-1.96165 -7.80048,-0.89432 -1.93088,0.74443 -3.6605,1.96286 -5.00748,3.53405 -7.80685,8.26068 -15.38512,16.71502 -23.01889,25.12454 -3.1678,3.4742 -6.26889,7.0015 -9.46265,10.45078 -1.48183,1.47444 -3.98305,1.96 -5.75184,0.7038 -1.78685,-1.10222 -2.69769,-3.46127 -1.88959,-5.43966 0.57888,-1.64652 2.06467,-2.70633 3.11871,-4.03344 15.93284,-17.69384 31.89055,-35.36739 47.80799,-53.07377 2.45085,-2.9642 3.25699,-7.25306 1.76052,-10.83563 -1.30977,-3.2394 -4.24322,-6.0821 -7.82501,-6.46184 -3.62637,-0.31653 -6.96626,1.72849 -9.52841,4.10572 -2.72298,2.73271 -5.2461,5.65946 -7.88061,8.47749 -13.49615,14.73816 -26.974,29.4931 -40.42693,44.27012 -1.35235,1.46404 -3.73486,1.93119 -5.42378,0.77031 -1.67688,-1.04502 -2.63704,-3.24751 -1.86621,-5.13822 0.73596,-1.90326 2.41391,-3.20059 3.65808,-4.75892 17.15214,-19.31208 34.46817,-38.47811 51.69642,-57.722 2.72786,-3.10986 4.42198,-7.50362 3.26259,-11.61785 -1.0206,-3.81265 -4.58775,-6.79503 -8.55399,-6.97879 -4.5315,-0.32196 -8.91003,2.0679 -11.74216,5.50432 -18.32132,20.17705 -36.72417,40.27879 -55.08754,60.41849 -1.40444,1.48582 -3.83736,2.0263 -5.60351,0.86328 -2.1699,-1.32287 -2.70234,-4.47221 -1.29883,-6.53906 1.23419,-1.68325 2.76811,-3.12955 4.12327,-4.71678 13.23778,-14.7357 26.53788,-29.41636 39.6507,-44.2636 2.20681,-2.50344 3.96395,-5.80294 3.5543,-9.23534 -0.43021,-3.28693 -2.965,-5.94315 -5.82827,-7.3917 -1.18417,-0.54164 -2.49539,-0.76354 -3.79297,-0.70313 z" /></svg>
