<?xml version="1.0" encoding="UTF-8" standalone="no"?>
<svg
   width="128"
   height="128"
   version="1.1"
   id="svg6"
   sodipodi:docname="emoji_u1f929.svg"
   inkscape:version="1.3 (0e150ed6c4, 2023-07-21)"
   xmlns:inkscape="http://www.inkscape.org/namespaces/inkscape"
   xmlns:sodipodi="http://sodipodi.sourceforge.net/DTD/sodipodi-0.dtd"
   xmlns:xlink="http://www.w3.org/1999/xlink"
   xmlns="http://www.w3.org/2000/svg"
   xmlns:svg="http://www.w3.org/2000/svg">
  <sodipodi:namedview
     id="namedview6"
     pagecolor="#ffffff"
     bordercolor="#000000"
     borderopacity="0.25"
     inkscape:showpageshadow="2"
     inkscape:pageopacity="0.0"
     inkscape:pagecheckerboard="0"
     inkscape:deskcolor="#d1d1d1"
     inkscape:zoom="2.2436235"
     inkscape:cx="-91.370055"
     inkscape:cy="114.99256"
     inkscape:current-layer="g48" />
  <defs
     id="defs2">
    <linearGradient
       gradientTransform="translate(-177.05517,-53.967826)"
       xlink:href="#a"
       id="b"
       x1="95.743"
       y1="70.878"
       x2="95.743"
       y2="82.469"
       gradientUnits="userSpaceOnUse" />
    <linearGradient
       id="a">
      <stop
         offset="0"
         stop-color="#fff"
         id="stop1" />
      <stop
         offset="1"
         stop-color="#fff"
         stop-opacity=".787"
         id="stop2" />
    </linearGradient>
    <clipPath
       id="SVGID_2_">&#10;				<use
   xlink:href="#SVGID_1_"
   overflow="visible"
   id="use2" />
&#10;			</clipPath>
    <path
       id="SVGID_1_"
       d="M 122.22,79.49 C 132.12,47.51 124.2,20.3 101.4,8.84 67.34,-8.28 35.2,4.71 15.97,33.18 3.92,51.03 -1.01,73.42 0.58,100.39 c -0.07,0.51 -0.19,1.01 -0.19,1.52 0,13.76 28.44,24.92 63.51,24.92 0.04,0 0.09,0 0.14,0 0.04,0 0.09,0 0.13,0 9.41,0 18.23,-0.83 26.16,-2.28 19.59,-3.52 33.8,-10.83 36.56,-19.56 0.39,-1.02 0.69,-2.04 0.79,-3.09 0.67,-6.98 -9.55,-9.23 -5.46,-22.41 z" />
  </defs>
  <g
     id="g50"
     transform="translate(-9.8068666e-4,0.00366124)">&#10;	<g
   id="g48">&#10;		<g
   id="g47">&#10;			<defs
   id="defs2-2">&#10;				<path
   id="path7"
   d="M 122.22,79.49 C 132.12,47.51 124.2,20.3 101.4,8.84 67.34,-8.28 35.2,4.71 15.97,33.18 3.92,51.03 -1.01,73.42 0.58,100.39 c -0.07,0.51 -0.19,1.01 -0.19,1.52 0,13.76 28.44,24.92 63.51,24.92 0.04,0 0.09,0 0.14,0 0.04,0 0.09,0 0.13,0 9.41,0 18.23,-0.83 26.16,-2.28 19.59,-3.52 33.8,-10.83 36.56,-19.56 0.39,-1.02 0.69,-2.04 0.79,-3.09 0.67,-6.98 -9.55,-9.23 -5.46,-22.41 z" />
&#10;			</defs>
&#10;			<use
   xlink:href="#SVGID_1_"
   overflow="visible"
   fill="#fcc21b"
   id="use1" />
&#10;			<clipPath
   id="clipPath3">&#10;				<use
   xlink:href="#SVGID_1_"
   overflow="visible"
   id="use3" />
&#10;			</clipPath>
&#10;			<g
   clip-path="url(#SVGID_2_)"
   id="g46">&#10;				&#10;				&#10;			</g>
&#10;		</g>
&#10;		<path
   fill="#ed6c30"
   d="m 68.562432,100.28209 c -7.381486,1.71617 -16.549486,1.40549 -22.615323,-0.68055 -9.015662,-3.106869 -21.452013,-12.294325 -19.942478,-24.544266 0.512411,-4.053724 2.188133,-7.841146 5.359541,-9.897597 4.819432,-3.151253 10.705233,0.784114 16.24481,3.698653 2.021946,1.035623 4.030042,1.9233 5.844254,2.263577 7.880048,1.50905 18.876109,-1.864122 25.786731,5.873462 8.752532,9.794035 -1.163311,20.978764 -10.677535,23.286721 z"
   id="path47"
   style="stroke-width:1.4314" />
&#10;	</g>
&#10;	&#10;</g>
  <g
     stroke-width="0.796"
     fill="#a439f4"
     id="g6"
     transform="matrix(1.0089658,0.21394343,-0.21394343,1.0089658,10.909422,-7.6581259)">
    <path
       d="m 24.94,7.387 c -0.511,0.147 -0.886,0.59 -0.943,1.119 l -1.791,16.586 -15.749,5.94 c -0.503,0.19 -0.832,0.66 -0.846,1.197 a 1.3,1.3 0 0 0 0.786,1.234 l 15.318,6.688 0.684,16.938 c 0.024,0.532 0.368,1 0.87,1.185 a 1.317,1.317 0 0 0 1.425,-0.367 l 11.19,-12.625 16.198,4.71 a 1.326,1.326 0 0 0 1.4,-0.45 c 0.329,-0.418 0.375,-1 0.106,-1.465 L 45.142,33.385 54.531,19.561 c 0.301,-0.441 0.303,-1.02 0.006,-1.463 A 1.323,1.323 0 0 0 53.184,17.537 L 36.692,20.908 26.335,7.831 A 1.32,1.32 0 0 0 24.94,7.387 Z m 75.576,-3.351 a 1.486,1.486 0 0 1 1.067,1.267 l 2.027,18.77 17.821,6.72 c 0.57,0.216 0.942,0.747 0.958,1.355 a 1.472,1.472 0 0 1 -0.89,1.396 l -17.333,7.569 -0.775,19.167 a 1.503,1.503 0 0 1 -0.984,1.34 1.49,1.49 0 0 1 -1.612,-0.415 L 88.13,46.92 69.801,52.25 a 1.5,1.5 0 0 1 -1.585,-0.509 1.488,1.488 0 0 1 -0.12,-1.658 L 77.654,33.457 67.03,17.814 a 1.474,1.474 0 0 1 -0.007,-1.655 1.497,1.497 0 0 1 1.531,-0.636 L 87.216,19.339 98.936,4.54 a 1.493,1.493 0 0 1 1.58,-0.503 z"
       id="path6" />
  </g>
</svg>
