<?xml version="1.0" encoding="UTF-8" standalone="no"?>
<svg
   width="100%"
   height="100%"
   viewBox="0 0 128 128"
   version="1.1"
   xml:space="preserve"
   style="fill-rule:evenodd;clip-rule:evenodd;stroke-linejoin:round;stroke-miterlimit:2;"
   id="svg1"
   sodipodi:docname="emoji_u1f992.svg"
   inkscape:version="1.3 (0e150ed6c4, 2023-07-21)"
   xmlns:inkscape="http://www.inkscape.org/namespaces/inkscape"
   xmlns:sodipodi="http://sodipodi.sourceforge.net/DTD/sodipodi-0.dtd"
   xmlns="http://www.w3.org/2000/svg"
   xmlns:svg="http://www.w3.org/2000/svg"><defs
   id="defs1" /><sodipodi:namedview
   id="namedview1"
   pagecolor="#ffffff"
   bordercolor="#000000"
   borderopacity="0.25"
   inkscape:showpageshadow="2"
   inkscape:pageopacity="0.0"
   inkscape:pagecheckerboard="0"
   inkscape:deskcolor="#d1d1d1"
   inkscape:zoom="2.867097"
   inkscape:cx="91.904807"
   inkscape:cy="42.028574"
   inkscape:window-width="1366"
   inkscape:window-height="697"
   inkscape:window-x="-8"
   inkscape:window-y="-8"
   inkscape:window-maximized="1"
   inkscape:current-layer="svg1" />&#10;    <path
   style="fill:#fcc21b;fill-opacity:1;stroke-width:9.07087;stroke-linecap:round"
   d="m 89.339618,69.069938 c 0,0 2.259724,4.258059 6.708365,6.457674 4.448647,2.199615 7.358907,6.380087 7.259927,10.509936 -0.099,4.129849 -1.42538,5.789653 -2.99298,5.999368 -1.567607,0.209715 -1.344933,-2.501532 -2.068543,-6.851796 -0.723612,-4.350263 -3.191396,-5.011503 -6.51944,-7.162756 -3.328043,-2.151253 -5.306639,-5.578281 -5.306639,-5.578281 z"
   id="path34" /><path
   id="path15493-1"
   d="m 105.52743,96.804146 c -1.04543,3.843764 -3.34979,6.947104 -5.46831,8.720444 -1.639586,1.37457 -3.336955,1.86546 -3.744529,1.47718 -0.407575,-0.38826 0.938581,-4.83358 0.951267,-8.178897 0.01269,-3.34532 -1.776194,-11.888277 3.407262,-12.269102 3.99777,-0.293716 6.19327,5.369024 4.85431,10.250375 z"
   style="clip-rule:evenodd;fill:#f79329;fill-opacity:1;fill-rule:nonzero;stroke-width:1;stroke-linejoin:round;stroke-miterlimit:2"
   sodipodi:nodetypes="ccsssc" /><path
   style="fill:#f79329;stroke-width:9.07089;stroke-linecap:round"
   d="M 35.818994,8.1556625 35.437873,19.510559 40.297157,18.931966 38.677395,8.2279866 Z"
   id="path3"
   sodipodi:nodetypes="ccccc" /><circle
   style="fill:#855c52;stroke-width:9.07092;stroke-linecap:round"
   id="path4"
   cx="37.055458"
   cy="7.150775"
   r="3.6206422" />&#10;    &#10;    &#10;    &#10;    &#10;    &#10;    &#10;    &#10;    &#10;    &#10;    &#10;    &#10;    &#10;    &#10;    &#10;    &#10;    &#10;    &#10;    &#10;    &#10;    &#10;    &#10;    &#10;    &#10;    &#10;    &#10;    &#10;    &#10;    &#10;    &#10;    &#10;    &#10;    &#10;    &#10;    &#10;    &#10;    &#10;<path
   style="fill:#f79329;stroke-width:9.07089;stroke-linecap:round"
   d="m 51.575129,10.537434 -2.57073,11.066629 -4.543957,-1.816554 4.334964,-9.9200245 z"
   id="path5"
   sodipodi:nodetypes="ccccc" /><circle
   style="fill:#855c52;stroke-width:9.07092;stroke-linecap:round"
   id="circle5"
   cx="-51.308571"
   cy="-4.1751342"
   r="3.6206424"
   transform="matrix(-0.96592582,-0.25881905,-0.25881905,0.96592582,0,0)" /><path
   style="fill:#fcc21b;stroke-width:9.07087;stroke-linecap:round"
   d="m 41.365949,14.166592 c -11.682165,0 -12.427835,13.173505 -17.523247,14.789124 -5.095412,1.615617 -8.523622,3.159737 -7.705257,6.213917 1.388271,5.181096 6.004456,8.699483 18.641752,8.699483 14.664844,0 20.505926,-5.841081 20.505926,-13.794895 0,-6.835309 -3.355515,-15.907629 -13.919174,-15.907629 z"
   id="path1"
   sodipodi:nodetypes="ssssss" /><path
   id="path16463-5"
   d="m 38.440391,22.926216 c -1.526398,-0.408998 -2.939863,0.825587 -3.361861,2.400501 -0.421996,1.574914 0.182897,3.352983 1.710539,3.762314 1.527304,0.410596 2.941441,-0.826499 3.363771,-2.402657 0.42233,-1.576158 -0.185718,-3.352406 -1.712449,-3.760158 z"
   style="clip-rule:evenodd;fill:#212121;fill-rule:nonzero;stroke-width:1;stroke-linejoin:round;stroke-miterlimit:2" /><path
   style="fill:#fcc21b;stroke-width:9.07086;stroke-linecap:round"
   d="m 64.212381,22.757316 c -0.236467,-1.476269 -8.751442,-4.409065 -12.56635,-2.206526 -3.814909,2.202538 -6.132239,5.947547 -5.801129,7.183263 0.331108,1.235716 7.019423,3.748005 11.498893,2.547734 4.479472,-1.20027 7.105052,-6.048201 6.868586,-7.524471 z"
   id="path2"
   sodipodi:nodetypes="zsssz" /><ellipse
   style="fill:#212121;fill-opacity:1;stroke-width:9.07087;stroke-linecap:round"
   id="path6"
   cx="13.222531"
   cy="39.052612"
   rx="2.1438017"
   ry="1.5534794"
   transform="rotate(-15)" /><path
   style="fill:#f79329;fill-opacity:1;stroke-width:9.07088;stroke-linecap:round"
   d="m 46.764516,76.53147 c 0,0 -4.14765,38.07868 -4.14765,41.20664 0,3.12796 12.182543,2.96331 12.182543,0.16461 0,-2.79868 0.690441,-41.535878 0.690441,-41.535878 z"
   id="path10"
   sodipodi:nodetypes="csscc" /><path
   style="fill:#f79329;fill-opacity:1;stroke-width:9.07088;stroke-linecap:round"
   d="m 89.142257,79.762707 c 0,0 6.757495,34.847443 6.757495,37.975403 0,3.12796 -12.182543,2.96331 -12.182543,0.16461 0,-2.79868 -3.300286,-38.304641 -3.300286,-38.304641 z"
   id="path11"
   sodipodi:nodetypes="csscc" /><path
   style="fill:#fcc21b;fill-opacity:1;stroke-width:9.07084;stroke-linecap:round"
   d="m 41.24167,37.336967 c 0,0 4.042285,20.68699 4.042285,24.729276 0,4.042285 -1.426689,9.273478 -1.426689,14.504671 0,8.593931 3.870374,16.342227 23.534394,16.342227 19.664019,0 25.686375,-5.166498 25.686375,-14.677756 0,-6.657883 -7.164464,-15.340031 -17.358049,-18.071395 C 65.526401,57.432629 61.162074,56.895257 56.459685,48.750479 51.693058,40.494438 49.564023,33.056901 49.564023,33.056901"
   id="path7"
   sodipodi:nodetypes="csszsssc" /><path
   style="fill:#fcc21b;fill-opacity:1;stroke-width:9.07088;stroke-linecap:round"
   d="m 56.321458,89.496921 c 0,0 -0.414125,28.974689 -0.414125,32.102649 0,3.12796 12.182541,2.96331 12.182541,0.16461 0,-2.79868 -3.043083,-32.431887 -3.043083,-32.431887 z"
   id="path8"
   sodipodi:nodetypes="csscc" /><path
   style="fill:#fcc21b;fill-opacity:1;stroke-width:9.07088;stroke-linecap:round"
   d="m 74.232175,89.496921 c 0,0 0.459792,10.264022 0.06182,14.861989 -0.397972,4.59796 -5.57689,15.62179 -5.57689,17.24066 0,3.12796 12.182544,2.96331 12.182544,0.16461 0,-1.43735 3.625914,-12.38693 3.500307,-17.11102 C 84.274348,99.929075 82.95751,89.332293 82.95751,89.332293 Z"
   id="path9"
   sodipodi:nodetypes="czsszcc" /><path
   id="path27"
   style="fill:#ed6c30;fill-opacity:1;stroke-width:9.07087;stroke-linecap:round"
   d="m 51.576673,38.670896 a 3.9545135,3.9545135 0 0 0 -1.348352,2.925039 3.9545135,3.9545135 0 0 0 3.954511,3.954512 3.9545135,3.9545135 0 0 0 0.488163,-0.09645 c -1.291426,-2.517 -2.306483,-4.827037 -3.094322,-6.783098 z m -5.214286,6.879551 a 6.5908544,6.5908544 0 0 0 -3.407296,0.97042 c 0.761727,4.20348 1.533759,8.703176 1.976271,12.021005 a 6.5908544,6.5908544 0 0 0 1.431025,0.188967 6.5908544,6.5908544 0 0 0 6.590196,-6.590196 6.5908544,6.5908544 0 0 0 -6.590196,-6.590196 z m 11.633232,5.592218 a 5.3605624,5.3605624 0 0 0 -0.911369,2.930945 5.3605624,5.3605624 0 0 0 5.359947,5.361915 5.3605624,5.3605624 0 0 0 4.074584,-1.889662 c -3.516809,-1.277297 -6.067506,-2.955572 -8.523162,-6.403198 z m 13.034729,7.769267 a 4.481782,4.481782 0 0 0 -1.293237,3.0707 4.481782,4.481782 0 0 0 4.482042,4.482042 4.481782,4.481782 0 0 0 4.482042,-4.482042 4.481782,4.481782 0 0 0 -0.08661,-0.836569 c -0.936605,-0.374312 -1.896876,-0.714647 -2.895514,-0.982231 -1.739933,-0.466212 -3.257789,-0.864789 -4.688723,-1.2519 z m -22.99876,3.509653 a 8.6120501,8.6120501 0 0 0 -2.781346,0.521625 c -0.172457,3.908995 -1.393625,8.761487 -1.393625,13.627218 0,0.678656 0.0364,1.348962 0.09054,2.013672 a 8.6120501,8.6120501 0 0 0 4.084425,1.062935 8.6120501,8.6120501 0 0 0 8.611741,-8.611741 8.6120501,8.6120501 0 0 0 -8.611741,-8.613709 z m 36.126006,1.73219 a 5.7120748,5.7120748 0 0 0 -2.820714,4.859974 5.7120748,5.7120748 0 0 0 5.712291,5.712291 5.7120748,5.7120748 0 0 0 4.505662,-2.210511 c -1.507625,-3.009653 -4.066665,-5.99318 -7.397239,-8.361754 z m -17.438037,2.582538 a 5.343969,5.343969 0 0 0 -5.3442,5.3442 5.343969,5.343969 0 0 0 5.3442,5.3442 5.343969,5.343969 0 0 0 5.342232,-5.3442 5.343969,5.343969 0 0 0 -5.342232,-5.3442 z m 11.015155,9.747506 a 9.5787094,9.5787094 0 0 0 -9.578224,9.578224 9.5787094,9.5787094 0 0 0 2.901418,6.783099 c 7.023013,-0.262588 12.026641,-1.312242 15.46964,-3.09629 a 9.5787094,9.5787094 0 0 0 0.785389,-3.686809 9.5787094,9.5787094 0 0 0 -9.578223,-9.578224 z m -21.091383,6.501619 a 6.854489,6.854489 0 0 0 -6.767352,6.196516 c 2.869358,1.855287 7.013772,3.138325 12.918595,3.568705 a 6.854489,6.854489 0 0 0 0.704687,-2.909292 6.854489,6.854489 0 0 0 -6.85593,-6.855929 z" /></svg>
