<?xml version="1.0" encoding="UTF-8" standalone="no"?>
<svg
   width="128"
   height="128"
   version="1.1"
   id="svg26823"
   sodipodi:docname="emoji_u1f9df.svg"
   inkscape:version="1.2.2 (732a01da63, 2022-12-09)"
   xmlns:inkscape="http://www.inkscape.org/namespaces/inkscape"
   xmlns:sodipodi="http://sodipodi.sourceforge.net/DTD/sodipodi-0.dtd"
   xmlns="http://www.w3.org/2000/svg"
   xmlns:svg="http://www.w3.org/2000/svg">
  <defs
     id="defs26827">
        
    </defs>
  <sodipodi:namedview
     id="namedview26825"
     pagecolor="#ffffff"
     bordercolor="#000000"
     borderopacity="0.25"
     inkscape:showpageshadow="2"
     inkscape:pageopacity="0.0"
     inkscape:pagecheckerboard="0"
     inkscape:deskcolor="#d1d1d1"
     showgrid="false"
     inkscape:zoom="2.1210938"
     inkscape:cx="11.550645"
     inkscape:cy="91.462247"
     inkscape:window-width="1366"
     inkscape:window-height="697"
     inkscape:window-x="-8"
     inkscape:window-y="-8"
     inkscape:window-maximized="1"
     inkscape:current-layer="svg26823" />
  <path
     d="M14 118.09v9.89h100v-9.89c0-15.17-24.54-22.87-49.62-22.84-24.92.03-50.38 6.78-50.38 22.84z"
     fill="#606060"
     id="path26799" />
  <path
     d="M63.95 90.25h-9.08v9.59c0 4.34 3.7 7.86 8.26 7.86h1.65c4.56 0 8.26-3.52 8.26-7.86v-9.59z"
     fill="#539d47"
     id="path26801" />
  <path
     id="path26803"
     d="M 63.890625 13.570312 C 59.055549 13.570312 54.931113 14.317099 51.423828 15.71875 C 52.678107 19.240418 51.165389 21.906361 47.609375 21.96875 C 48.638288 24.786955 47.555703 26.816685 44.919922 27.009766 C 44.072467 27.067856 43.103728 26.933415 42.076172 26.613281 C 42.395396 28.546637 41.544718 29.967491 39.8125 30.394531 C 39.115572 30.564783 38.299097 30.555992 37.421875 30.392578 C 34.301321 38.005482 33.169922 47.804416 33.169922 58.960938 C 33.169922 85.470911 52.060637 93.560547 63.890625 93.560547 C 75.720613 93.560547 94.609375 85.470911 94.609375 58.960938 C 94.609375 32.450964 88.240601 13.570312 63.890625 13.570312 z "
     style="fill:#76bf6a;fill-opacity:1" />
  <path
     d="M96.54 52.84s5.97 1.03 5.97 7.47c0 5.68-4.36 7.92-8.72 7.92V52.84zM31.38 52.84s-5.97 1.03-5.97 7.47c0 5.68 4.36 7.92 8.72 7.92V52.84z"
     fill="#539d47"
     id="path26807" />
  <path
     d="M50.765 64.19c-2.23-.66-3.434-3.334-2.656-5.96.792-2.677 3.207-4.28 5.403-3.684 2.23.66 3.433 3.334 2.656 5.961-.743 2.691-3.173 4.344-5.403 3.684zM78.134 64.243c2.261-1.46 2.642-4.84.922-7.503-1.752-2.714-5.007-3.674-7.218-2.246-2.261 1.46-2.642 4.84-.922 7.503 1.752 2.713 4.957 3.706 7.218 2.246z"
     class="st1"
     fill="#fff"
     id="path26811" />
  <path
     class="st2"
     d="M74.624 74.876c-.827-2.068-5.014-5.325-10.648-5.428h-.207c-5.583.103-9.718 3.412-10.597 5.428-.879 2.067-.103 3.463 2.223 3.463h17.058c2.275 0 3.05-1.396 2.171-3.463z"
     fill="#47423c"
     id="path26813" />
  <path
     class="st3"
     d="M74.366 77.77s0-.361-.569-.516c-.775-.207-1.912.62-3.618.568-1.706-.052-4.032-.465-5.531-.465-1.706-.052-1.758.982-1.758.982h9.356c1.19 0 1.706-.207 2.12-.569z"
     fill="#c08198"
     id="path26815" />
  <path
     class="st3"
     d="M66.25 78.34c2.171.413 3.102 1.033 3.102 3.67 0 1.136-.155 2.532 0 3.67.206 1.24 1.085 1.498 1.705 1.395 1.5-.258.983-2.791 1.19-5.583.154-2.12 1.809-2.222 2.119-3.67z"
     fill="#c08198"
     id="path26817" />
  <g
     fill="#6aac5f"
     id="g26821">
    <path
       d="M45.248 74.681c-1.08 2.194-.97 3.295-3.088 3.295-2.117 0-4.638-1.857-4.638-4.303 0-2.445 4.904-4.785 6.997-4.468 2.883.438 1.72 3.46.73 5.476zM48.339 78.977c0 1.144-.291 2.495-1.287 2.495s-2.32-1.351-2.32-2.495c0-1.144 1.334-1.99 2.33-1.99s1.277.846 1.277 1.99z"
       id="path26819" />
  </g>
  <g
     id="g26380">
    <g
       id="g23592"
       transform="matrix(1.1099389,0,0,1.1099389,0.7378792,-9.8655075)"
       style="stroke-width:0.90095">
	<path
   style="fill:#76bf6a;fill-opacity:1;stroke-width:0.90095"
   d="m 40.62,104.26 c -0.6,-0.7 -1.31,-0.91 -2,-1 -1.05,-0.14 -1.95,0.11 -2.46,0.87 -0.89,1.33 -1.2,3.89 -3.71,4.17 -1.64,0.18 -1.93,-5.48 -1.95,-7.67 -0.07,-7.76 0.4,-11.27 0.59,-11.94 0.2,-0.68 0.35,-1.89 0.78,-2.59 1.58,-0.03 2.72,-1.32 2.85,-2.9 0.13,-1.71 -2.93,-4.5 -6.32,-2.09 -1.7,1.21 -3.7,4.7 -3.9,14.7 0,0 -0.38,1.51 -1.12,-0.35 -0.74,-1.86 -1.99,-5.3 -0.41,-9.3 1.03,0.02 2.13,-0.92 2.18,-2.53 0.07,-2.02 -1.76,-2.91 -3.08,-2.77 -1.32,0.14 -3.94,0.76 -4.88,4.5 -0.54,2.14 -0.47,4.34 -0.47,4.34 0,0 -2.46,0.57 -2.72,0.79 -0.68,0.59 -2.42,1.68 -2.21,5.71 0.09,1.79 0.72,4.02 0.72,4.02 0,0 -1.39,0.72 -1.93,1.38 -0.81,0.98 -1.47,2.08 -1.79,3.3 -0.56,2.19 -0.35,4.42 0.31,6.56 0.41,1.34 0.98,2.64 1.63,3.89 0.43,0.83 1.06,1.6 1.32,2.52 0.12,0.43 0.1,0.81 0.02,1.2 -0.08,0.42 -0.84,3.88 -1.09,5.14 h 14.08 c 0.1,-0.43 0.27,-0.95 0.38,-1.38 0.23,-0.87 2.07,-1.36 2.8,-1.76 4.6,-2.49 9.43,-6.34 12.13,-11.29 0.91,-1.66 1.45,-4.12 0.25,-5.52 z m -22.95,-4.62 -0.78,-4.22 1.06,-0.39 c 0,0 0.53,1.38 0.85,3.29 0.32,1.91 -1.13,1.32 -1.13,1.32 z"
   id="path23574" />

	<path
   style="fill:#539d47;fill-opacity:1;stroke-width:0.90095"
   d="m 22.03,117.39 v 0 c -0.14,0.03 0.88,-2.91 -1.49,-5.67 -2.04,-2.37 -4.99,-1.4 -4.99,-1.4 0,0 2.39,0.42 4.15,2.38 1.76,1.97 2.33,4.69 2.33,4.69 z"
   id="path23576" />

	<path
   style="fill:#539d47;fill-opacity:1;stroke-width:0.90095"
   d="m 15.5,101.12 c 0.73,0.59 1.31,1.49 1.19,2.42 -0.14,1.1 -1.24,1.88 -2.35,2 -1.11,0.12 -2.19,-0.26 -3.22,-0.69 0.76,1.48 2.25,1.49 2.25,1.49 0,0 0.86,3.63 1.31,3.8 l 0.09,-3.58 c 0,0 2.1,0.33 2.96,-2.48 0.54,-1.78 -0.38,-3.15 -1.67,-3.74 -1.29,-0.59 -3.12,-0.05 -3.12,-0.05 0,0 1.82,0.23 2.56,0.83 z"
   id="path23578" />

	<path
   style="fill:#539d47;fill-opacity:1;stroke-width:0.90095"
   d="m 17.27,90.49 c 0.8,0.29 1.53,0.77 1.61,1.71 0.1,1.1 -0.81,2.1 -1.86,2.46 -1.05,0.36 -2.2,0.22 -3.29,0.02 0.93,1.05 2.17,0.94 2.29,1.19 0.16,0.34 0.07,2.19 0.76,3.24 0.35,0.53 1.25,0.62 1.25,0.62 0,0 -1.02,-1.59 -0.83,-3.92 0,0 0.84,-0.23 1.44,-0.61 0.92,-0.58 1.3,-1.67 1.38,-2.7 0.14,-1.86 -1.61,-2.64 -2.88,-2.77 -1.9,-0.2 -3.14,0.77 -3.14,0.77 0,0 2.37,-0.34 3.27,-0.01 z"
   id="path23580" />

	<path
   style="fill:#539d47;fill-opacity:1;stroke-width:0.90095"
   d="m 12.07,119.1 c 1.45,0.95 3.68,1.33 5.22,1.17 -1.93,-0.47 -4.57,-2.28 -5.87,-3.78 0.26,0.44 0.51,0.88 0.64,1.37 0.12,0.43 0.1,0.81 0.02,1.2 0,0.01 -0.01,0.03 -0.01,0.04 z"
   id="path23582" />

	<path
   style="fill:#539d47;fill-opacity:1;stroke-width:0.90095"
   d="m 20.54,121.85 c 0.95,0.84 3.12,1.33 4.84,1.18 0.02,-0.07 0.04,-0.14 0.06,-0.21 0.15,-0.57 0.98,-0.97 1.75,-1.3 -1.69,0.58 -4.88,0.59 -6.65,0.33 z"
   id="path23584" />

	<path
   style="fill:#539d47;fill-opacity:1;stroke-width:0.90095"
   d="m 19.99,85.39 c -0.02,0.03 -0.02,0.07 -0.01,0.1 0.09,0.71 0.49,1.38 1.07,1.8 0.42,0.3 0.92,0.46 1.43,0.48 0.11,-0.53 0.26,-1.06 0.48,-1.62 -0.97,0.03 -1.94,-0.23 -2.75,-0.76 -0.06,-0.03 -0.17,-0.07 -0.22,0 z"
   id="path23586" />

	<path
   style="fill:#539d47;fill-opacity:1;stroke-width:0.90095"
   d="m 28.87,84.7 c -0.01,0.94 0.5,1.82 1.19,2.46 0.35,0.33 0.77,0.61 1.23,0.78 0.14,-0.62 0.3,-1.33 0.59,-1.83 -0.45,-0.01 -0.9,-0.12 -1.31,-0.3 -0.63,-0.27 -1.17,-0.69 -1.7,-1.11 z"
   id="path23588" />

	<path
   style="fill:#539d47;fill-opacity:1;stroke-width:0.90095"
   d="m 35.64,105.11 c -0.6,1.33 -1.21,2.96 -3.19,3.18 -0.22,0.02 -0.41,-0.06 -0.59,-0.22 0.12,1.6 0.33,3.53 0.03,5.01 2.08,-2.12 3.67,-4.61 3.75,-7.97 z"
   id="path23590" />

</g>
    <g
       id="g23626"
       transform="matrix(1.1099389,0,0,1.1099389,-15.176337,-9.8655075)"
       style="stroke-width:0.90095">
	<path
   style="fill:#76bf6a;fill-opacity:1;stroke-width:0.90095"
   d="m 87.96,109.77 c 2.7,4.95 7.53,8.8 12.13,11.29 0.73,0.4 2.58,0.89 2.8,1.76 0.11,0.43 0.28,0.95 0.38,1.38 h 14.08 c -0.26,-1.26 -1.01,-4.72 -1.09,-5.14 -0.07,-0.38 -0.09,-0.77 0.02,-1.2 0.25,-0.92 0.88,-1.68 1.32,-2.52 0.65,-1.25 1.22,-2.54 1.63,-3.89 0.66,-2.14 0.87,-4.38 0.31,-6.56 -0.32,-1.23 -0.98,-2.33 -1.79,-3.3 -0.54,-0.65 -1.93,-1.38 -1.93,-1.38 0,0 0.63,-2.23 0.72,-4.02 0.21,-4.03 -1.53,-5.12 -2.21,-5.71 -0.26,-0.23 -2.72,-0.79 -2.72,-0.79 0,0 0.07,-2.2 -0.47,-4.34 -0.94,-3.74 -3.56,-4.36 -4.88,-4.5 -1.32,-0.14 -3.15,0.75 -3.08,2.77 0.06,1.6 1.15,2.55 2.18,2.53 1.58,4 0.34,7.45 -0.41,9.3 -0.74,1.85 -1.12,0.35 -1.12,0.35 -0.2,-10 -2.2,-13.49 -3.9,-14.7 -3.39,-2.41 -6.45,0.38 -6.32,2.09 0.12,1.58 1.27,2.87 2.85,2.9 0.44,0.7 0.59,1.91 0.78,2.59 0.19,0.66 0.66,4.18 0.59,11.94 -0.02,2.19 -0.31,7.86 -1.95,7.67 -2.51,-0.28 -2.81,-2.84 -3.71,-4.17 -0.51,-0.76 -1.41,-1 -2.46,-0.87 -0.69,0.09 -1.4,0.3 -2,1 -1.19,1.41 -0.66,3.87 0.25,5.52 z m 21.58,-11.45 c 0.32,-1.91 0.85,-3.29 0.85,-3.29 l 1.06,0.39 -0.78,4.22 c 0,0 -1.46,0.58 -1.13,-1.32 z"
   id="path23608" />

	<path
   style="fill:#539d47;fill-opacity:1;stroke-width:0.90095"
   d="m 106.3,117.39 v 0 c 0.14,0.03 -0.88,-2.91 1.49,-5.67 2.04,-2.37 4.99,-1.4 4.99,-1.4 0,0 -2.39,0.42 -4.15,2.38 -1.75,1.97 -2.33,4.69 -2.33,4.69 z"
   id="path23610" />

	<path
   style="fill:#539d47;fill-opacity:1;stroke-width:0.90095"
   d="m 112.83,101.12 c -0.73,0.59 -1.31,1.49 -1.19,2.42 0.14,1.1 1.24,1.88 2.35,2 1.1,0.13 2.19,-0.26 3.22,-0.69 -0.76,1.48 -2.25,1.49 -2.25,1.49 0,0 -0.86,3.63 -1.31,3.8 l -0.09,-3.58 c 0,0 -2.1,0.33 -2.96,-2.48 -0.54,-1.78 0.38,-3.15 1.67,-3.74 1.29,-0.59 3.12,-0.05 3.12,-0.05 0,0 -1.81,0.23 -2.56,0.83 z"
   id="path23612" />

	<path
   style="fill:#539d47;fill-opacity:1;stroke-width:0.90095"
   d="m 111.06,90.49 c -0.8,0.29 -1.53,0.77 -1.61,1.71 -0.1,1.1 0.81,2.1 1.86,2.46 1.05,0.36 2.2,0.22 3.29,0.02 -0.93,1.05 -2.17,0.94 -2.29,1.19 -0.16,0.34 -0.07,2.19 -0.76,3.24 -0.35,0.53 -1.25,0.62 -1.25,0.62 0,0 1.02,-1.59 0.83,-3.92 0,0 -0.84,-0.23 -1.44,-0.61 -0.92,-0.58 -1.3,-1.67 -1.38,-2.7 -0.14,-1.86 1.61,-2.64 2.88,-2.77 1.9,-0.2 3.14,0.77 3.14,0.77 0,0 -2.37,-0.34 -3.27,-0.01 z"
   id="path23614" />

	<path
   style="fill:#539d47;fill-opacity:1;stroke-width:0.90095"
   d="m 116.27,119.1 c -1.45,0.95 -3.68,1.33 -5.22,1.17 1.93,-0.47 4.57,-2.28 5.87,-3.78 -0.26,0.44 -0.51,0.88 -0.64,1.37 -0.12,0.43 -0.1,0.81 -0.02,1.2 0,0.01 0,0.03 0.01,0.04 z"
   id="path23616" />

	<path
   style="fill:#539d47;fill-opacity:1;stroke-width:0.90095"
   d="m 107.79,121.85 c -0.95,0.84 -3.12,1.33 -4.84,1.18 -0.02,-0.07 -0.04,-0.14 -0.06,-0.21 -0.15,-0.57 -0.98,-0.97 -1.75,-1.3 1.69,0.58 4.88,0.59 6.65,0.33 z"
   id="path23618" />

	<path
   style="fill:#539d47;fill-opacity:1;stroke-width:0.90095"
   d="m 108.34,85.39 c 0.02,0.03 0.02,0.07 0.01,0.1 -0.09,0.71 -0.49,1.38 -1.07,1.8 -0.42,0.3 -0.92,0.46 -1.43,0.48 -0.11,-0.53 -0.26,-1.06 -0.48,-1.62 0.97,0.03 1.94,-0.23 2.75,-0.76 0.07,-0.03 0.18,-0.07 0.22,0 z"
   id="path23620" />

	<path
   style="fill:#539d47;fill-opacity:1;stroke-width:0.90095"
   d="m 99.47,84.7 c 0.01,0.94 -0.5,1.82 -1.19,2.46 -0.35,0.33 -0.77,0.61 -1.23,0.78 -0.14,-0.62 -0.3,-1.33 -0.59,-1.83 0.45,-0.01 0.9,-0.12 1.31,-0.3 0.62,-0.27 1.17,-0.69 1.7,-1.11 z"
   id="path23622" />

	<path
   style="fill:#539d47;fill-opacity:1;stroke-width:0.90095"
   d="m 92.69,105.11 c 0.6,1.33 1.21,2.96 3.19,3.18 0.22,0.02 0.41,-0.06 0.59,-0.22 -0.12,1.6 -0.33,3.53 -0.03,5.01 -2.07,-2.12 -3.67,-4.61 -3.75,-7.97 z"
   id="path23624" />

</g>
  </g>
  <path
     id="path28853"
     style="clip-rule:evenodd;fill:#5f4f4f;fill-opacity:1;fill-rule:nonzero;stroke-width:1.98325;stroke-linejoin:round;stroke-miterlimit:2"
     d="M 64.330078 12.585938 C 64.119843 12.585937 63.664062 12.603516 63.664062 12.603516 C 58.796178 12.699984 54.649186 13.588451 51.107422 14.943359 C 52.886313 18.842533 51.422219 21.901855 47.609375 21.96875 C 48.638288 24.786955 47.555703 26.816685 44.919922 27.009766 C 44.072467 27.067856 43.103728 26.933415 42.076172 26.613281 C 42.395396 28.546637 41.544718 29.967491 39.8125 30.394531 C 38.979941 30.597916 37.982237 30.561367 36.90625 30.289062 C 36.709379 32.514452 35.012901 33.835919 32.412109 33.789062 C 32.046783 33.782235 31.669978 33.749354 31.283203 33.689453 C 30.035011 36.427083 29.36648 39.378862 29.060547 42.240234 C 28.656823 42.99745 28.312175 43.784064 28.070312 44.625 C 27.889847 45.25012 27.752624 45.885479 27.648438 46.527344 C 27.603787 46.802694 27.558974 47.08021 27.527344 47.357422 C 27.514324 47.472772 27.380651 47.721735 27.494141 47.703125 C 27.88298 47.641729 28.499469 46.869756 28.841797 46.568359 C 28.860402 52.657703 30.148438 57.476562 30.148438 57.476562 C 30.148437 57.476563 30.56617 57.060475 31.306641 56.470703 C 32.102925 55.843722 33.015625 55.482422 33.015625 55.482422 C 31.532824 60.317804 31.263055 69.273796 33.015625 73.203125 C 39.811951 66.488661 43.088855 52.009228 42.912109 41.291016 C 45.792129 42.690094 48.598324 44.206771 50.925781 46.515625 C 52.190907 47.767726 53.256968 49.269993 54.259766 50.730469 C 54.527674 51.119308 55.169655 52.499129 55.595703 52.677734 C 55.744542 52.73913 56.303648 51.921611 56.361328 51.837891 C 57.142728 50.708581 57.7409 49.456076 58.146484 48.142578 C 59.058118 45.184419 58.661873 42.01785 57.480469 39.160156 C 57.686983 39.148996 57.895142 39.140212 58.103516 39.132812 C 58.458867 39.229557 58.818755 39.311926 59.179688 39.378906 C 61.250399 39.756583 63.33536 39.843629 65.363281 40.46875 C 66.888873 40.937591 68.33352 41.587299 69.775391 42.242188 C 71.269354 43.395684 72.615635 44.744981 73.917969 46.173828 C 74.619369 46.942205 75.225608 47.778204 75.833984 48.619141 C 76.046078 48.913096 76.258423 49.208183 76.466797 49.505859 C 76.490983 49.541208 76.796875 49.951172 76.796875 49.951172 C 77.116877 49.659076 77.072459 48.447997 77.037109 48.03125 C 76.938503 46.859148 76.664872 45.709481 76.328125 44.582031 C 77.226736 44.736451 78.141286 44.823189 79.056641 44.880859 C 79.983159 45.171094 80.859865 45.601928 81.693359 46.119141 C 82.106386 46.374026 82.812224 47.087503 83.277344 47.158203 C 83.468973 47.18797 83.071629 46.83132 82.980469 46.660156 C 82.811165 46.336434 82.673851 45.994393 82.556641 45.646484 C 82.454314 45.343226 82.376968 45.019035 82.298828 44.695312 C 83.370463 44.241355 84.611558 43.280805 85.832031 42.212891 C 87.165994 59.878127 92.05381 70.191011 95.644531 73.203125 C 97.851058 69.478449 96.837098 60.866644 95.644531 55.482422 C 95.644531 55.482422 96.536766 55.843722 97.353516 56.470703 C 98.112591 57.060475 98.511719 57.476562 98.511719 57.476562 C 98.511719 57.476563 99.087175 55.667715 99.425781 52.642578 C 99.742063 52.934673 100.07779 53.20782 100.42383 53.458984 C 100.65267 53.624567 100.88164 53.740582 101.13281 53.865234 C 101.22211 53.909887 101.41525 54.094607 101.40625 53.994141 C 101.28532 52.890878 100.26455 51.7962 99.576172 50.958984 C 99.698959 49.158041 99.716556 47.052067 99.515625 44.724609 C 99.889581 44.968332 100.27393 45.196565 100.63672 45.457031 C 100.83207 45.596567 101.23108 46.140392 101.20508 45.900391 C 101.04321 44.345031 100.16074 42.761627 99.074219 41.308594 C 98.499331 37.987641 97.445474 34.356285 95.644531 30.607422 C 95.1329 29.543229 94.425306 28.326698 93.513672 27.042969 C 93.844838 27.149016 94.214414 27.310741 94.519531 27.275391 C 94.683253 27.256786 94.343113 26.996958 94.251953 26.857422 C 94.108696 26.636025 93.93902 26.437075 93.773438 26.232422 C 93.293434 25.64265 92.791877 25.07468 92.181641 24.613281 C 91.688614 24.241186 91.189736 23.908726 90.685547 23.605469 C 89.783215 22.649183 88.772259 21.692142 87.650391 20.765625 L 87.744141 20.777344 C 88.032514 20.814554 88.324907 20.835185 88.613281 20.859375 C 88.814212 20.876115 89.268794 21.099739 89.214844 20.90625 C 89.168332 20.733225 88.645303 20.443568 88.503906 20.330078 C 87.81553 19.781238 87.122078 19.296588 86.357422 18.859375 C 85.099738 18.13937 83.645289 17.517205 82.130859 17.039062 C 77.593154 14.573929 71.915118 12.798866 64.994141 12.603516 C 64.994141 12.603516 64.519846 12.585938 64.330078 12.585938 z " />
  <path
     style="fill:#5f4f4f;fill-opacity:1;stroke:none;stroke-width:4.001;stroke-linecap:round"
     d="M 83.414493,22.922347 96.798064,13.699846 95.204828,30.174342 Z"
     id="path29470" />
</svg>
