<?xml version="1.0" encoding="UTF-8" standalone="no"?>
<svg
   width="128"
   height="128"
   version="1.1"
   id="svg16"
   sodipodi:docname="emoji_u1f995.svg"
   inkscape:version="1.3 (0e150ed6c4, 2023-07-21)"
   xmlns:inkscape="http://www.inkscape.org/namespaces/inkscape"
   xmlns:sodipodi="http://sodipodi.sourceforge.net/DTD/sodipodi-0.dtd"
   xmlns:xlink="http://www.w3.org/1999/xlink"
   xmlns="http://www.w3.org/2000/svg"
   xmlns:svg="http://www.w3.org/2000/svg">
  <sodipodi:namedview
     id="namedview16"
     pagecolor="#ffffff"
     bordercolor="#000000"
     borderopacity="0.25"
     inkscape:showpageshadow="2"
     inkscape:pageopacity="0.0"
     inkscape:pagecheckerboard="0"
     inkscape:deskcolor="#d1d1d1"
     inkscape:zoom="2.867097"
     inkscape:cx="52.49212"
     inkscape:cy="67.838654"
     inkscape:window-width="1366"
     inkscape:window-height="697"
     inkscape:window-x="-8"
     inkscape:window-y="-8"
     inkscape:window-maximized="1"
     inkscape:current-layer="svg16" />
  <linearGradient
     id="a"
     gradientUnits="userSpaceOnUse"
     x1="48.665"
     x2="48.665"
     y1="84.939"
     y2="121.277">
    <stop
       offset="0"
       stop-color="#2d80b1"
       id="stop2" />
  </linearGradient>
  <linearGradient
     id="b"
     gradientUnits="userSpaceOnUse"
     x1="70.213"
     x2="70.213"
     y1="84.939"
     y2="121.277">
    <stop
       offset="0"
       stop-color="#2d80b1"
       id="stop3" />
  </linearGradient>
  <linearGradient
     id="c"
     gradientUnits="userSpaceOnUse"
     x1="68.25"
     x2="68.25"
     y1="88.373"
     y2="114.027">
    <stop
       offset="0"
       stop-color="#f9e4b8"
       id="stop5" />
  </linearGradient>
  <linearGradient
     id="d"
     gradientUnits="userSpaceOnUse"
     x1="63.979"
     x2="63.979"
     y1="11.177"
     y2="123.857">
    <stop
       offset="0"
       stop-color="#2db1a8"
       id="stop6" />
  </linearGradient>
  <defs
     id="defs9">
    <path
       id="e"
       d="M121.15 78.64c-1.36-3.68-3.46-5.39-8.55-7.61-6.53-2.58-13.88-2.57-13.88-2.57s-1.49.2-.65.48c.84.28 19.33 2.84 20.17 10.72.84 7.88-9.8 14.13-19.18 11.18-9.38-2.96-6.83-7.13-16.36-15.44-9.52-8.31-26.98-7.35-33.98-7.91-7-.56-13.27-.97-21.87-10.04-6.91-7.29-13.26-19.47-10.02-26.61 1.23-9.35 12.45-13.12 23.08-14.49-.71-1.67-2.88-2.39-4.65-3.39-3.5-1.97-.98-3.61-3.61-6.19-2.22-2.19-5.23-2-7.46-.9-3.31 1.64-3.83 4.79-7.19 6.33C11.37 14.79.53 26.89 8.65 49.7c0 0 1.85 4.31 5.2 10.07.49.53 6.04 8.8 14.07 16.88 3.69 3.71 6.96 8.14 11.01 11.36-.35 3.43-.64 7.37-1.24 11.2-1.45 9.36-5.18 17.46-5.59 19.05-.41 1.59-.36 2.21 3.36 2.49 3.73.28 10.09.57 11.03.06.93-.51 1.6-4.76 1.29-7.88-.31-3.12.26-9.87 1.81-12.64.76-1.35 2.7-3.99 4.52-6.85 5.46.69 16.02.67 16.9.42.69 2.92 1.75 6.56 3.32 10.07 3.42 7.64 4.5 7.49 3.68 9.76-.83 2.27-2.28 4.55-1.66 6.25.62 1.7 5.02 1.5 7.92 1.29 2.9-.21 6.47-.31 5.54-3.82s-4.92-11.52-4.09-14.57c.46-1.71 1.77-4.41 2.24-7.27 4.16-.58 5.73-.4 12.97.61 12.75.99 25.07-4.4 20.22-17.54z" />
  </defs>
  <clipPath
     id="f">
    <use
       xlink:href="#e"
       overflow="visible"
       id="use9" />
  </clipPath>
  <g
     id="g17"
     transform="matrix(0.91539389,0,0,0.91539389,103.7819,-3.9195139)"
     style="stroke-width:1.09243">
    <path
       style="fill:#047e70;fill-opacity:1;stroke:none;stroke-width:6.55455;stroke-linecap:round"
       d="m -77.32352,106.01812 c 0,0 -2.21203,20.7395 -2.21203,25.23723 0,4.49772 5.02445,4.87253 11.57146,4.87253 8.39671,0 11.67337,-1.31418 11.67337,-3.93785 0,-2.62368 -1.9927,-24.92254 -1.9927,-24.92254 z"
       id="path169"
       sodipodi:nodetypes="cssscc" />
    <path
       style="fill:#047e70;fill-opacity:1;stroke:none;stroke-width:6.55455;stroke-linecap:round"
       d="m -39.48036,106.01812 c 0,0 -2.21203,20.7395 -2.21203,25.23723 0,4.49772 5.02445,4.87253 11.57146,4.87253 8.39671,0 11.67337,-1.31418 11.67337,-3.93785 0,-2.62368 -1.9927,-24.92254 -1.9927,-24.92254 z"
       id="path170"
       sodipodi:nodetypes="cssscc" />
    <path
       style="fill:#13ab96;fill-opacity:1;stroke:none;stroke-width:6.55455;stroke-linecap:round"
       d="m -69.32352,108.01812 c 0,0 -2.21203,20.7395 -2.21203,25.23723 0,4.49772 5.02445,4.87253 11.57146,4.87253 8.39671,0 11.67337,-1.31418 11.67337,-3.93785 0,-2.62368 -1.9927,-24.92254 -1.9927,-24.92254 z"
       id="path167"
       sodipodi:nodetypes="cssscc" />
    <path
       style="fill:#13ab96;stroke:none;stroke-width:6.55455;stroke-linecap:round"
       d="m -74.56835,11.790279 c -25.24771,0 -30.77368,18.116279 -30.77368,37.106645 0,38.871102 25.87994,67.873816 63.36741,67.873816 34.9096498,0 60.3991,-4.99923 60.3991,-30.460243 0,-13.817443 -8.4124,-21.810519 -21.9864202,-21.810519 -6.1752,0 -8.8643898,2.604622 -8.8643898,5.854764 0,3.250145 3.0875898,4.050433 9.2627698,4.050433 7.62175,0 9.86477,3.294987 9.86477,7.979424 0,5.547636 -3.89392,7.282606 -9.82546,7.282606 -16.5960798,0 -14.8403198,-10.562072 -40.3016098,-12.305997 -25.4613,-1.743924 -41.33874,-10.747427 -41.33874,-27.056752 0,-5.294835 4.28942,-6.680116 9.72579,-6.680116 11.24338,0 18.50452,-5.174995 18.50452,-15.05453 0,-9.879537 -9.90829,-16.779531 -18.03406,-16.779531 z"
       id="path165"
       sodipodi:nodetypes="ssssssssssssss" />
    <ellipse
       style="fill:#2f2f2f;fill-opacity:1;stroke:none;stroke-width:6.55455;stroke-linecap:round"
       id="path166"
       cx="-69.468674"
       cy="26.266438"
       rx="3.8830543"
       ry="4.218627" />
    <path
       style="fill:#13ab96;fill-opacity:1;stroke:none;stroke-width:6.55455;stroke-linecap:round"
       d="m -31.48036,108.01812 c 0,0 -2.21203,20.7395 -2.21203,25.23723 0,4.49772 5.02445,4.87253 11.57146,4.87253 8.39671,0 11.67337,-1.31418 11.67337,-3.93785 0,-2.62368 -1.9927,-24.92254 -1.9927,-24.92254 z"
       id="path168"
       sodipodi:nodetypes="cssscc" />
    <path
       style="fill:#a5a936;fill-opacity:1;stroke:none;stroke-width:6.55455;stroke-linecap:round"
       d="m -73.85734,34.28628 c -0.31972,0 -0.63944,0 -0.95916,0"
       id="path171" />
    <path
       style="fill:#2f2f2f;fill-opacity:1;stroke:none;stroke-width:6.55455;stroke-linecap:round"
       d="m -83.89841,32.175023 c -1.01896,0.306683 -0.71588,1.441428 -0.0512,2.27264 0.70235,0.878312 1.66624,1.507846 2.59615,2.135563 1.49434,0.90378 3.22601,1.26735 4.92237,1.58049 1.06152,0.203679 2.1409,0.326445 3.22289,0.31261 1.75179,0.01213 3.49542,-0.274318 5.18091,-0.740756 0.92714,-0.344017 2.07959,-0.670385 2.46514,-1.689963 0.2176,-0.670527 -0.48231,-1.14646 -1.08657,-1.104712 -0.81527,-0.08384 -1.61917,0.151085 -2.43326,0.15405 -1.91347,0.150297 -3.85212,0.378451 -5.75976,0.04492 -1.65825,-0.246639 -3.26344,-0.792054 -4.75322,-1.556511 -1.00375,-0.476048 -2.00348,-0.968809 -3.06319,-1.310676 -0.40753,-0.07442 -0.82505,-0.176445 -1.24023,-0.09766 z"
       id="path172"
       sodipodi:nodetypes="ssccccccccccss" />
  </g>
</svg>
