<?xml version="1.0" encoding="UTF-8" standalone="no"?>
<!-- Generator: Adobe Illustrator 25.2.3, SVG Export Plug-In . SVG Version: 6.00 Build 0)  -->

<svg
   version="1.1"
   id="_x31_"
   x="0px"
   y="0px"
   viewBox="0 0 128 128"
   style="enable-background:new 0 0 128 128;"
   xml:space="preserve"
   sodipodi:docname="emoji_u1f9ff.svg"
   inkscape:version="1.2.2 (732a01da63, 2022-12-09)"
   xmlns:inkscape="http://www.inkscape.org/namespaces/inkscape"
   xmlns:sodipodi="http://sodipodi.sourceforge.net/DTD/sodipodi-0.dtd"
   xmlns="http://www.w3.org/2000/svg"
   xmlns:svg="http://www.w3.org/2000/svg"><defs
   id="defs27108" /><sodipodi:namedview
   id="namedview27106"
   pagecolor="#ffffff"
   bordercolor="#000000"
   borderopacity="0.25"
   inkscape:showpageshadow="2"
   inkscape:pageopacity="0.0"
   inkscape:pagecheckerboard="0"
   inkscape:deskcolor="#d1d1d1"
   showgrid="false"
   inkscape:zoom="2.9996795"
   inkscape:cx="45.004807"
   inkscape:cy="84.675711"
   inkscape:window-width="1366"
   inkscape:window-height="697"
   inkscape:window-x="-8"
   inkscape:window-y="-8"
   inkscape:window-maximized="1"
   inkscape:current-layer="_x31_" />
<g
   id="g27103">
	<g
   id="g27097">
		<path
   style="fill:#196ca2"
   d="M6.22,61.05C9.72,21.94,45.89,4,65.89,4c26.66,0,54.29,22.01,55.96,60    c2.85,33.01-22.82,60-55.96,60S2.65,101.02,6.22,61.05z"
   id="path27087" />
		
		<path
   style="fill:#fafafa;stroke-width:1"
   d="m 27.328362,65.025637 c 0,-20.92146 17.677909,-41.419364 35.801668,-41.419364 18.123759,0 34.452975,17.276645 37.33985,41.419364 C 102.96663,85.935952 83.003746,106.70137 60.087111,104.18232 36.869529,101.62983 27.328362,85.958244 27.328362,65.025637 Z"
   id="path27091" />
		<ellipse
   style="fill:#40c0e7;stroke-width:1"
   cx="63.999996"
   cy="63.999996"
   rx="21.61009"
   ry="22.389614"
   id="ellipse27093" />
		
			<ellipse
   transform="rotate(-64.093492)"
   style="fill:#212121;stroke-width:0.999991"
   cx="-29.60391"
   cy="85.52639"
   rx="9.9171667"
   ry="9.2350903"
   id="ellipse27095" />
	</g>
	
	
</g>
</svg>
