<?xml version="1.0" encoding="UTF-8" standalone="no"?>
<svg
   width="128px"
   height="128px"
   version="1.1"
   xml:space="preserve"
   style="fill-rule:evenodd;clip-rule:evenodd;stroke-linejoin:round;stroke-miterlimit:2;"
   id="svg73645"
   sodipodi:docname="emoji_u1f4ce.svg"
   inkscape:version="1.2.2 (732a01da63, 2022-12-09)"
   xmlns:inkscape="http://www.inkscape.org/namespaces/inkscape"
   xmlns:sodipodi="http://sodipodi.sourceforge.net/DTD/sodipodi-0.dtd"
   xmlns="http://www.w3.org/2000/svg"
   xmlns:svg="http://www.w3.org/2000/svg"><defs
     id="defs73649" /><sodipodi:namedview
     id="namedview73647"
     pagecolor="#ffffff"
     bordercolor="#000000"
     borderopacity="0.25"
     inkscape:showpageshadow="2"
     inkscape:pageopacity="0.0"
     inkscape:pagecheckerboard="0"
     inkscape:deskcolor="#d1d1d1"
     showgrid="false"
     inkscape:zoom="1.8101934"
     inkscape:cx="37.288834"
     inkscape:cy="180.09126"
     inkscape:window-width="1366"
     inkscape:window-height="697"
     inkscape:window-x="-8"
     inkscape:window-y="-8"
     inkscape:window-maximized="1"
     inkscape:current-layer="svg73645" /><path
     d="m 71.934,123.37196 -0.007,0.004 c -6.088,3.515 -13.17,4.441 -19.944,2.626 -6.785,-1.818 -12.467,-6.164 -15.978,-12.245 -3.51,-6.08 -4.437,-13.163 -2.619,-19.947999 l 21.421,-79.92 C 56.1,8.9689611 59.27,5.0969611 63.734,2.9989611 c 4.113,-1.943 9.09,-2.28499995 14.024,-0.97 10.176,2.734 16.447,12.4869999 13.966,21.7459999 l -17.974,67.079 c -1.503,5.633 -7.266,8.48 -13.719,6.77 -6.121,-1.641 -12.631,-7.358 -11.201,-12.717 l 14.707,-54.865 7.306,1.958 -14.693,54.856 c -0.308,1.148 3.668,2.874 5.846,3.457 0.628,0.169 3.833,0.9 4.44,-1.412 l 17.982,-67.084 c 1.395,-5.23 -2.468,-10.827 -8.618,-12.4809999 -3.197,-0.857 -6.328,-0.68 -8.82,0.498 -2.437,1.1369999 -4.129,3.2339999 -4.868,5.9929999 l -21.42,79.92 c -1.303,4.792999 -0.63,9.912999 1.866,14.206999 2.5,4.332 6.539,7.426 11.382,8.723 4.83,1.295 9.867,0.64 14.199,-1.862 4.339,-2.505 7.444,-6.54 8.727,-11.374 l 7.878,-29.406999 7.306,1.958 -7.886,29.409999 c -1.806,6.789 -6.149,12.46 -12.23,15.97 z"
     style="fill:#5b6073;fill-rule:nonzero"
     id="path73623" /><text
     xml:space="preserve"
     style="font-weight:800;font-size:22.4846px;font-family:Podkova;-inkscape-font-specification:'Podkova Ultra-Bold';font-variant-numeric:ordinal;fill:#2f2f2f;stroke-width:1;stroke-linecap:round"
     x="-29.616013"
     y="155.13898"
     id="text73822"><tspan
       sodipodi:role="line"
       id="tspan73820"
       x="-29.616013"
       y="155.13898"
       style="font-style:normal;font-variant:normal;font-weight:bold;font-stretch:normal;font-family:'Comic Neue';-inkscape-font-specification:'Comic Neue Bold';stroke-width:1">This paperclip has</tspan><tspan
       sodipodi:role="line"
       x="-29.616013"
       y="183.40971"
       id="tspan73874"
       style="font-style:normal;font-variant:normal;font-weight:bold;font-stretch:normal;font-family:'Comic Neue';-inkscape-font-specification:'Comic Neue Bold';stroke-width:1"><tspan
   style="font-style:italic;font-variant:normal;font-weight:bold;font-stretch:normal;font-family:'Comic Neue';-inkscape-font-specification:'Comic Neue Bold Italic';stroke-width:1"
   id="tspan73882">nothing</tspan> to do with</tspan><tspan
       sodipodi:role="line"
       x="-29.616013"
       y="211.68047"
       id="tspan73876"
       style="font-style:normal;font-variant:normal;font-weight:bold;font-stretch:normal;font-family:'Comic Neue';-inkscape-font-specification:'Comic Neue Bold';stroke-width:1">Microsoft, hence the</tspan><tspan
       sodipodi:role="line"
       x="-29.616013"
       y="239.9512"
       id="tspan73878"
       style="font-style:normal;font-variant:normal;font-weight:bold;font-stretch:normal;font-family:'Comic Neue';-inkscape-font-specification:'Comic Neue Bold';stroke-width:1">reason I removed the</tspan><tspan
       sodipodi:role="line"
       x="-29.616013"
       y="268.22195"
       id="tspan73880"
       style="font-style:normal;font-variant:normal;font-weight:bold;font-stretch:normal;font-family:'Comic Neue';-inkscape-font-specification:'Comic Neue Bold';stroke-width:1">eyes.</tspan></text></svg>
