<?xml version="1.0" encoding="UTF-8" standalone="no"?>
<svg
   width="128"
   height="128"
   version="1.1"
   id="svg6"
   sodipodi:docname="emoji_u1f913.svg"
   inkscape:version="1.3 (0e150ed6c4, 2023-07-21)"
   xmlns:inkscape="http://www.inkscape.org/namespaces/inkscape"
   xmlns:sodipodi="http://sodipodi.sourceforge.net/DTD/sodipodi-0.dtd"
   xmlns:xlink="http://www.w3.org/1999/xlink"
   xmlns="http://www.w3.org/2000/svg"
   xmlns:svg="http://www.w3.org/2000/svg">
  <sodipodi:namedview
     id="namedview6"
     pagecolor="#ffffff"
     bordercolor="#000000"
     borderopacity="0.25"
     inkscape:showpageshadow="2"
     inkscape:pageopacity="0.0"
     inkscape:pagecheckerboard="0"
     inkscape:deskcolor="#d1d1d1"
     inkscape:zoom="8.515625"
     inkscape:cx="64"
     inkscape:cy="64"
     inkscape:current-layer="svg6" />
  <g
     id="g12"
     transform="translate(365.01335,42.153044)"
     style="fill:#fcc21b;fill-opacity:1">&#10;		<path
   id="path1-9"
   d="m -301.01252,-36.151183 c -24.89998,0 -48.74923,13.790254 -57.69922,32.9902343 -13.57608,29.0987247 0.7406,56.3767767 0.79101,56.4726567 3.37337,10.852871 25.99815,19.319991 53.89844,19.896481 0.99658,0.03929 1.99947,0.06055 3.00977,0.06055 1.01061,0 2.01485,-0.02126 3.01171,-0.06055 27.87717,-0.57639 50.47963,-9.03057 53.87891,-19.87109 l 0.01,-0.0078 c 0,0 14.39881,-27.340264 0.79882,-56.4902347 -8.94999,-19.1999803 -32.79924,-32.9902343 -57.69921,-32.9902343 z"
   style="fill:#fcc21b;fill-opacity:1" />
&#10;		&#10;		&#10;		&#10;		&#10;	</g>
  <path
     d="M64.14 144.6c-17.44 0-25.05-11.1-25.38-11.54a3.17 3.17 0 0 1 .62-4.43 3.153 3.153 0 0 1 4.41.61c.3.38 6.19 9.04 20.56 9.04 13.24 0 19.46-8.35 19.72-8.73.99-1.43 2.95-1.8 4.39-.82a3.16 3.16 0 0 1 .85 4.37c-.33.5-8.03 11.5-25.17 11.5z"
     fill="#2f2f2f"
     id="path2" />
  <path
     d="M115.69 50.68c-.03-.78-.11-4.07-.24-4.85-.3-1.76-.48-1.84-2.25-2.15-28.45-5.02-33.52 1.06-49.2 1.39-15.68-.32-20.76-6.41-49.2-1.39-1.77.32-1.95.39-2.25 2.15-.12.78-.21 4.08-.24 4.85-.06 1.44.23 1.63 1.66 2.4 1.25.66 1.83.86 1.83 3.49 0 17.35 7.88 22.71 18.46 23.13 11.19.44 20.29-5.93 24.08-15.69 2.61-6.73 4.15-10.16 5.67-10.33 1.51.17 3.05 3.61 5.67 10.33 3.79 9.77 12.89 16.13 24.08 15.69 10.59-.42 18.46-5.78 18.46-23.13 0-2.63.58-2.83 1.83-3.49 1.41-.77 1.7-.96 1.64-2.4zm-60.66 5.05C52.19 64 48.78 74.81 34.4 74.27c-10.63-.39-13.72-7.98-13.94-18.05-.15-6.53.78-8.04 4.92-8.89 3.88-.8 7.86-1.18 11.78-1.03 4.72.19 10.12 1.21 13.74 2.82 4.63 2.08 5.14 3.69 4.13 6.61zm52.5.5c-.22 10.06-3.31 17.66-13.94 18.05-14.37.53-17.78-10.28-20.62-18.55-1.01-2.92-.5-4.54 4.13-6.61 3.62-1.61 9.02-2.64 13.74-2.82 3.92-.15 7.9.23 11.78 1.03 4.14.85 5.06 2.37 4.91 8.9z"
     fill-rule="evenodd"
     clip-rule="evenodd"
     fill="#2f2f2f"
     id="path3" />
  <path
     d="M91.76 83.96c-3.96-4.03-12.4 1.07-27.76 1.07s-23.8-5.1-27.76-1.07c-.98 1-1.38 3.35-.35 4.93 2.82 4.32 13.31 11.45 28.1 11.7 14.79-.24 25.29-7.38 28.1-11.7 1.05-1.58.65-3.93-.33-4.93z"
     fill="#ed6c30"
     id="path4" />
  <defs
     id="defs4">
    <path
       id="a"
       d="M91.76 83.96c-3.96-4.03-12.4 1.07-27.76 1.07s-23.8-5.1-27.76-1.07c-.98 1-1.38 3.35-.35 4.93 2.82 4.32 13.31 11.45 28.1 11.7 14.79-.24 25.29-7.38 28.1-11.7 1.05-1.58.65-3.93-.33-4.93z" />
  </defs>
  <clipPath
     id="b">
    <use
       xlink:href="#a"
       overflow="visible"
       id="use4" />
  </clipPath>
  <g
     clip-path="url(#b)"
     fill="#fff"
     id="g5">
    <path
       d="M52.93 83.91v5.5a3.74 3.74 0 0 0 3.22 3.71l3.58.51c2.25.32 4.27-1.43 4.27-3.71v-6.01s-6.94.66-11.07 0zM75.07 83.91v5.5a3.74 3.74 0 0 1-3.22 3.71l-3.58.51A3.747 3.747 0 0 1 64 89.92v-6.01s6.94.66 11.07 0z"
       id="path5" />
  </g>
  <g
     fill="#2f2f2f"
     id="g6">
    <path
       d="M42 68c-4.49.04-8.17-4.27-8.22-9.62-.05-5.37 3.55-9.75 8.04-9.79 4.48-.04 8.17 4.27 8.22 9.64.05 5.36-3.55 9.73-8.04 9.77zM86.11 68c4.48-.01 8.11-4.36 8.1-9.71-.01-5.37-3.66-9.7-8.14-9.69-4.49.01-8.13 4.36-8.12 9.73.02 5.35 3.67 9.68 8.16 9.67z"
       id="path6" />
  </g>
</svg>
