<?xml version="1.0" encoding="UTF-8" standalone="no"?>
<svg
   width="128"
   height="128"
   version="1.1"
   id="svg22006"
   sodipodi:docname="emoji_u1f4d6.svg"
   inkscape:version="1.2.2 (732a01da63, 2022-12-09)"
   xmlns:inkscape="http://www.inkscape.org/namespaces/inkscape"
   xmlns:sodipodi="http://sodipodi.sourceforge.net/DTD/sodipodi-0.dtd"
   xmlns="http://www.w3.org/2000/svg"
   xmlns:svg="http://www.w3.org/2000/svg">
  <sodipodi:namedview
     id="namedview22008"
     pagecolor="#ffffff"
     bordercolor="#000000"
     borderopacity="0.25"
     inkscape:showpageshadow="2"
     inkscape:pageopacity="0.0"
     inkscape:pagecheckerboard="0"
     inkscape:deskcolor="#d1d1d1"
     showgrid="false"
     inkscape:zoom="2.8284271"
     inkscape:cx="39.06765"
     inkscape:cy="78.135299"
     inkscape:window-width="1366"
     inkscape:window-height="697"
     inkscape:window-x="-8"
     inkscape:window-y="-8"
     inkscape:window-maximized="1"
     inkscape:current-layer="svg22006" />
  <defs
     id="defs21974">
    <linearGradient
       y2="3.276"
       y1="65.667"
       x2="63.79"
       x1="63.79"
       gradientUnits="userSpaceOnUse"
       id="a">
      <stop
         offset="0"
         stop-color="#fcc21b"
         id="stop21963" />
      <stop
         offset=".151"
         stop-color="#e5bf34"
         id="stop21965" />
      <stop
         offset=".473"
         stop-color="#abb973"
         id="stop21967" />
      <stop
         offset=".935"
         stop-color="#4fafd8"
         id="stop21969" />
      <stop
         offset="1"
         stop-color="#42ade7"
         id="stop21971" />
    </linearGradient>
    <linearGradient
       y2="3.276"
       y1="65.667"
       x2="63.790001"
       x1="63.790001"
       gradientUnits="userSpaceOnUse"
       id="a-5">
      <stop
         offset="0"
         stop-color="#fcc21b"
         id="stop21963-5" />
      <stop
         offset=".151"
         stop-color="#e5bf34"
         id="stop21965-3" />
      <stop
         offset=".473"
         stop-color="#abb973"
         id="stop21967-8" />
      <stop
         offset=".935"
         stop-color="#4fafd8"
         id="stop21969-9" />
      <stop
         offset="1"
         stop-color="#42ade7"
         id="stop21971-9" />
    </linearGradient>
  </defs>
  <g
     id="g24614"
     transform="translate(-0.00626749,-3.8061646)">
    <path
       d="m 87.027,33.89 a 32.775,32.775 0 0 0 -1.855,0.022 H 85.17 a 23.652,23.652 0 0 0 -10.12,2.73 c -1.514,0.795 -2.924,1.728 -4.257,2.72 l -0.004,0.003 -0.004,0.002 c -1.235,0.907 -2.872,1.96 -4.117,3.42 l -0.004,0.006 -0.006,0.006 C 65.574,44.1 65.14,45.514 65.035,46.82 l -0.008,0.094 0.004,0.094 c 0.318,7.106 0.452,19.576 0.49,30.557 0.02,5.49 0.016,10.612 0,14.517 -0.015,3.905 -0.049,6.685 -0.07,7.172 v 0.066 c 0,0.068 -0.024,0.254 -0.039,0.559 l -0.008,0.174 0.032,0.17 c 0.06,0.33 0.233,0.824 0.662,1.199 0.429,0.375 0.994,0.508 1.453,0.508 1.165,0 1.863,-0.534 2.267,-0.746 l 0.006,-0.004 c 0.934,-0.482 1.875,-0.952 2.815,-1.403 l 0.01,-0.004 c 6.032,-2.84 12.355,-4.321 19.019,-4.535 l -0.002,0.002 c 4.51,-0.137 9.034,0.079 13.48,0.705 a 72.385,72.385 0 0 1 11.268,2.537 l 0.004,0.002 h 0.006 c 0.997,0.304 1.938,0.535 2.549,0.844 0.213,0.11 0.524,0.362 1.203,0.47 0.68,0.11 1.652,-0.293 2.121,-0.862 0.727,-0.879 0.75,-1.885 0.695,-2.643 -0.053,-0.751 -0.207,-1.398 -0.252,-1.736 l -0.002,-0.016 c -0.222,-1.911 -0.494,-3.799 -0.763,-5.674 v -0.008 c -1.258,-8.423 -2.957,-16.718 -4.098,-25.033 -0.506,-3.682 -0.917,-7.407 -1.389,-11.142 v -0.002 a 158.955,158.955 0 0 0 -0.828,-5.774 c -0.183,-1.126 -0.29,-2.21 -0.726,-3.336 -0.437,-1.126 -1.273,-2.218 -2.578,-3.062 v 0.002 c -4.012,-2.599 -8.64,-3.661 -12.883,-4.69 -4.035,-0.978 -8.146,-1.86 -12.446,-1.931 z m -46.093,0.014 c -4.298,0.077 -8.41,0.95 -12.448,1.928 -4.246,1.03 -8.87,2.102 -12.87,4.69 v -0.003 c -1.306,0.845 -2.142,1.938 -2.579,3.065 -0.436,1.126 -0.543,2.208 -0.726,3.334 -0.314,1.921 -0.587,3.85 -0.829,5.775 C 11,56.421 10.59,60.156 10.094,63.84 8.953,72.162 7.265,80.444 5.998,88.861 c -0.293,1.9 -0.546,3.8 -0.768,5.705 -0.038,0.327 -0.19,0.984 -0.242,1.74 -0.052,0.754 -0.028,1.755 0.694,2.631 0.469,0.575 1.441,0.981 2.117,0.873 0.671,-0.107 0.987,-0.356 1.203,-0.468 0.627,-0.314 1.568,-0.543 2.559,-0.848 l 0.003,-0.002 h 0.002 A 71.258,71.258 0 0 1 22.83,95.955 78.246,78.246 0 0 1 36.3,95.25 h 0.003 c 6.678,0.214 13.003,1.695 19.027,4.537 h 0.002 l 0.002,0.002 c 0.937,0.44 1.877,0.908 2.809,1.398 l 0.002,0.002 h 0.002 c 0.385,0.202 1.078,0.761 2.273,0.747 0.457,-0.002 1.017,-0.132 1.444,-0.504 0.429,-0.375 0.6,-0.869 0.662,-1.2 l 0.03,-0.17 -0.007,-0.173 c -0.012,-0.258 -0.033,-0.469 -0.04,-0.631 l 10e-4,0.006 c -0.021,-0.487 -0.053,-3.267 -0.068,-7.172 -0.015,-3.905 -0.018,-9.027 0.002,-14.518 0.04,-10.98 0.174,-23.451 0.486,-30.558 L 62.934,46.922 62.926,46.83 C 62.821,45.525 62.384,44.109 61.291,42.809 H 61.289 C 60.053,41.33 58.405,40.288 57.182,39.381 l -0.008,-0.006 a 31.99,31.99 0 0 0 -4.262,-2.72 H 52.91 A 23.608,23.608 0 0 0 42.79,33.922 h -0.003 a 33.276,33.276 0 0 0 -1.853,-0.018 z"
       fill="#ffffff"
       stroke-width="4"
       paint-order="stroke fill markers"
       id="path21978" />
    <g
       id="g21838"
       transform="translate(-0.00373597,0.0102993)">
      <path
         d="m 36.36,93.75 c -4.59,-0.15 -9.19,0.08 -13.73,0.72 -3.9,0.55 -7.75,1.42 -11.5,2.59 C 10.22,97.34 9.2,97.57 8.34,98 7.79,98.28 7.34,98.6 6.85,97.99 6.17,97.17 6.62,95.68 6.73,94.74 6.95,92.85 7.2,90.97 7.49,89.09 c 1.26,-8.37 2.95,-16.66 4.1,-25.05 0.5,-3.71 0.91,-7.45 1.39,-11.16 0.24,-1.91 0.51,-3.82 0.82,-5.72 0.38,-2.33 0.46,-3.97 2.64,-5.38 3.71,-2.4 8.16,-3.46 12.41,-4.49 4.58,-1.11 9.15,-2.05 13.89,-1.87 3.32,0.13 6.55,1.01 9.48,2.56 1.42,0.75 2.78,1.63 4.07,2.6 1.28,0.95 2.84,1.97 3.86,3.19 0.91,1.08 1.2,2.06 1.29,3.18 -0.63,14.33 -0.53,49.86 -0.42,52.38 0.01,0.21 0.03,0.42 0.04,0.63 -0.05,0.27 -0.2,0.48 -0.64,0.48 -0.53,0.01 -1.11,-0.34 -1.57,-0.58 C 57.9,99.36 56.94,98.88 55.98,98.43 49.77,95.5 43.23,93.97 36.36,93.75 Z"
         style="fill:#ffffff"
         id="path21814" />
      <path
         d="m 121.15,97.98 c -0.5,0.61 -0.94,0.29 -1.49,0.01 -0.85,-0.43 -1.87,-0.66 -2.79,-0.94 -3.75,-1.17 -7.6,-2.03 -11.5,-2.59 -4.54,-0.64 -9.15,-0.86 -13.74,-0.72 -6.86,0.22 -13.4,1.75 -19.62,4.68 -0.96,0.46 -1.92,0.94 -2.87,1.43 -0.46,0.24 -1.04,0.58 -1.58,0.58 -0.44,0 -0.59,-0.21 -0.64,-0.48 0.01,-0.21 0.04,-0.42 0.04,-0.63 0.11,-2.52 0.22,-38.05 -0.42,-52.38 0.09,-1.12 0.38,-2.1 1.28,-3.18 1.04,-1.22 2.59,-2.25 3.87,-3.19 1.29,-0.96 2.64,-1.85 4.07,-2.6 2.94,-1.55 6.16,-2.43 9.48,-2.56 4.74,-0.19 9.31,0.76 13.89,1.87 4.25,1.03 8.7,2.08 12.42,4.49 2.18,1.41 2.26,3.05 2.64,5.38 0.31,1.9 0.58,3.81 0.82,5.72 0.47,3.72 0.88,7.45 1.39,11.16 1.15,8.38 2.85,16.68 4.1,25.05 0.27,1.88 0.54,3.76 0.76,5.65 0.12,0.94 0.57,2.43 -0.11,3.25 z"
         style="fill:#ffffff"
         id="path21816" />
      <g
         id="g21836">
        <path
           d="m 126.8,106.82 c 0.07,-1.4 0.71,-5.31 0.69,-6.07 -0.07,-9.74 -6.25,-41.84 -7.24,-49.66 l -0.06,-0.48 c -0.34,-3.07 -0.47,-6.72 -1.6,-9.62 -1.14,-2.92 -4.83,-3.94 -7.49,-4.97 -11.01,-4.2 -23.44,-7.74 -35.12,-4.04 -4.56,1.44 -8.67,4.01 -11.97,8.06 -3.29,-4.05 -7.41,-6.62 -11.96,-8.06 -11.68,-3.7 -24.11,-0.16 -35.12,4.04 -2.66,1.02 -6.37,2.04 -7.5,4.97 -1.13,2.9 -1.26,6.54 -1.6,9.62 l -0.06,0.48 c -0.99,7.82 -7.16,39.92 -7.24,49.66 -0.02,0.77 0.63,4.67 0.7,6.07 0.1,2.02 -0.14,4.05 -0.04,6.06 -0.2,0.7 -0.02,1.36 0.41,1.88 0.28,0.54 0.71,0.87 1.18,1.04 1.07,1.18 3.01,0.4 4.28,0 11.38,-3.68 23.89,-3.54 35.63,-1.98 2.08,0.27 4.15,0.61 6.21,1.01 2.14,0.42 4.17,1.18 6.22,1.91 1.69,0.6 3.46,1.1 5.24,1.44 1.28,0.29 2.53,0.41 3.1,0.42 0.2,0 0.38,-0.02 0.57,-0.03 0.19,0 0.38,0.03 0.57,0.03 0.57,0 1.82,-0.12 3.1,-0.42 1.78,-0.34 3.55,-0.84 5.24,-1.44 2.05,-0.73 4.09,-1.49 6.23,-1.91 2.06,-0.4 4.13,-0.74 6.21,-1.01 11.73,-1.56 24.25,-1.7 35.63,1.98 1.26,0.41 3.2,1.18 4.27,0 0.48,-0.17 0.9,-0.5 1.18,-1.04 0.43,-0.52 0.61,-1.18 0.41,-1.88 0.07,-2.02 -0.17,-4.04 -0.07,-6.06 z M 36.36,93.75 c -4.59,-0.15 -9.19,0.08 -13.73,0.72 -3.9,0.55 -7.75,1.42 -11.5,2.59 C 10.22,97.34 9.2,97.57 8.34,98 7.79,98.28 7.34,98.6 6.85,97.99 6.17,97.17 6.62,95.68 6.73,94.74 6.95,92.85 7.2,90.97 7.49,89.09 c 1.26,-8.37 2.95,-16.66 4.1,-25.05 0.5,-3.71 0.91,-7.45 1.39,-11.16 0.24,-1.91 0.51,-3.82 0.82,-5.72 0.38,-2.33 0.46,-3.97 2.64,-5.38 3.71,-2.4 8.16,-3.46 12.41,-4.49 4.58,-1.11 9.15,-2.05 13.89,-1.87 3.32,0.13 6.55,1.01 9.48,2.56 1.42,0.75 2.78,1.63 4.07,2.6 1.28,0.95 2.84,1.97 3.86,3.19 0.91,1.08 1.2,2.06 1.29,3.18 -0.63,14.33 -0.53,49.86 -0.42,52.38 0.01,0.21 0.03,0.42 0.04,0.63 -0.05,0.27 -0.2,0.48 -0.64,0.48 -0.53,0.01 -1.11,-0.34 -1.57,-0.58 C 57.9,99.36 56.94,98.88 55.98,98.43 49.77,95.5 43.23,93.97 36.36,93.75 Z m 84.79,4.23 c -0.5,0.61 -0.94,0.29 -1.49,0.01 -0.85,-0.43 -1.87,-0.66 -2.79,-0.94 -3.75,-1.17 -7.6,-2.03 -11.5,-2.59 -4.54,-0.64 -9.15,-0.86 -13.74,-0.72 -6.86,0.22 -13.4,1.75 -19.62,4.68 -0.96,0.46 -1.92,0.94 -2.87,1.43 -0.46,0.24 -1.04,0.58 -1.58,0.58 -0.44,0 -0.59,-0.21 -0.64,-0.48 0.01,-0.21 0.04,-0.42 0.04,-0.63 0.11,-2.52 0.22,-38.05 -0.42,-52.38 0.09,-1.12 0.38,-2.1 1.28,-3.18 1.04,-1.22 2.59,-2.25 3.87,-3.19 1.29,-0.96 2.64,-1.85 4.07,-2.6 2.94,-1.55 6.16,-2.43 9.48,-2.56 4.74,-0.19 9.31,0.76 13.89,1.87 4.25,1.03 8.7,2.08 12.42,4.49 2.18,1.41 2.26,3.05 2.64,5.38 0.31,1.9 0.58,3.81 0.82,5.72 0.47,3.72 0.88,7.45 1.39,11.16 1.15,8.38 2.85,16.68 4.1,25.05 0.27,1.88 0.54,3.76 0.76,5.65 0.12,0.94 0.57,2.43 -0.11,3.25 z"
           style="fill:#2f2f2f"
           id="path21818" />
        <path
           d="M 53.07,46.61 C 43.6,42.17 30.84,41.93 21.31,46.49 c -2.52,1.21 -0.32,4.86 2.18,3.73 8.11,-3.7 19.23,-3.14 27.1,0.63 2.84,1.35 5.33,-2.9 2.48,-4.24 z"
           style="fill:#2f2f2f"
           id="path21820" />
        <path
           d="M 52.77,58.31 C 42.69,53.89 29.73,52.22 19.56,57.46 c -2.21,1.14 -0.27,4.26 1.92,3.28 9.33,-4.17 20.51,-1.72 29.58,1.64 2.35,0.88 4.02,-3.06 1.71,-4.07 z"
           style="fill:#2f2f2f"
           id="path21822" />
        <path
           d="m 52.24,69.98 c -1.07,-0.9 -2.56,-1.32 -3.85,-1.79 -9.36,-3.42 -21.79,-3.56 -30.78,1.04 -1.98,1.01 -0.31,3.89 1.64,3.33 4.9,-1.39 9.51,-2.16 14.6,-2.21 3.99,-0.04 7.61,0.38 11.42,1.52 1.15,0.34 2.25,0.47 3.35,0.99 0.79,0.37 1.77,0.84 2.64,0.95 1.9,0.23 2.29,-2.56 1.22,-3.62 z"
           style="fill:#2f2f2f"
           id="path21824" />
        <path
           d="m 51.25,81.25 c -10.82,-5.1 -22.96,-4.16 -33.91,-0.3 -2.26,0.8 -1.18,4.28 1.12,3.56 5.15,-1.62 9.44,-2.83 14.91,-2.9 5.26,-0.06 10.97,1.66 15.79,3.55 2.59,1.03 4.72,-2.67 2.09,-3.91 z"
           style="fill:#2f2f2f"
           id="path21826" />
        <path
           d="m 77.41,50.84 c 7.87,-3.77 18.99,-4.32 27.1,-0.63 2.49,1.14 4.7,-2.52 2.18,-3.73 -9.52,-4.56 -22.28,-4.32 -31.75,0.12 -2.86,1.35 -0.38,5.6 2.47,4.24 z"
           style="fill:#2f2f2f"
           id="path21828" />
        <path
           d="m 76.95,62.38 c 9.07,-3.36 20.25,-5.81 29.58,-1.64 2.19,0.98 4.13,-2.14 1.92,-3.28 -10.18,-5.24 -23.14,-3.57 -33.21,0.85 -2.31,1.01 -0.65,4.95 1.71,4.07 z"
           style="fill:#2f2f2f"
           id="path21830" />
        <path
           d="m 76.74,73.82 c 0.88,-0.11 1.84,-0.58 2.63,-0.95 1.11,-0.52 2.21,-0.65 3.36,-0.99 3.81,-1.13 7.43,-1.55 11.42,-1.52 5.09,0.04 9.71,0.81 14.61,2.21 1.94,0.56 3.61,-2.33 1.64,-3.33 -8.99,-4.6 -21.43,-4.46 -30.78,-1.04 -1.29,0.47 -2.78,0.88 -3.86,1.79 l -0.24,0.22 c -1.08,1.04 -0.67,3.84 1.22,3.61 z"
           style="fill:#2f2f2f"
           id="path21832" />
        <path
           d="m 110.67,80.95 c -10.95,-3.86 -23.09,-4.8 -33.91,0.3 -2.63,1.24 -0.5,4.94 2.1,3.91 4.81,-1.89 10.51,-3.61 15.78,-3.55 5.46,0.07 9.76,1.28 14.9,2.9 2.31,0.73 3.39,-2.76 1.13,-3.56 z"
           style="fill:#2f2f2f"
           id="path21834" />
      </g>
    </g>
    <path
       d="m 95.018,98.654 a 81.302,81.302 0 0 0 -3.247,0.035 h -0.029 c -6.21,0.204 -12.026,1.57 -17.625,4.206 h -0.002 l -0.09,0.044 c -0.865,0.417 -1.735,0.852 -2.603,1.3 l -0.016,0.007 c 0.223,-0.113 -1.653,1.133 -3.855,1.133 -0.167,0 -0.427,-0.198 -0.52,-0.037 -0.27,0.47 -0.13,7.26 0.049,7.902 0.148,0.531 2.815,-0.68 4.19,-1.168 1.996,-0.71 4.28,-1.582 6.937,-2.103 l 0.012,-0.002 0.316,-0.063 h 0.067 c 2.024,-0.385 4.06,-0.727 6.115,-0.994 11.922,-1.585 24.888,-1.781 37.111,2.01 h 0.066 c -0.044,-1.263 -0.128,-2.486 -0.05,-4.215 v -0.05 l 0.004,-0.083 v -0.004 c 0.057,-1.156 0.246,-2.426 0.41,-3.65 -0.744,0.268 -1.548,0.457 -2.63,0.283 -1.314,-0.211 -2.632,-1.01 -2.212,-0.799 0.031,0.016 -0.776,-0.24 -1.52,-0.472 h -0.294 l -0.399,-0.2 a 68.97,68.97 0 0 0 -10.537,-2.373 74.214,74.214 0 0 0 -9.648,-0.707 z m -62.067,0.004 a 73.89,73.89 0 0 0 -9.638,0.713 c -3.571,0.504 -7.1,1.311 -10.542,2.375 l 0.077,-0.039 -0.254,0.078 -0.02,0.006 -0.09,0.027 -0.388,0.123 h -0.004 c -0.748,0.234 -1.552,0.489 -1.547,0.487 0.243,-0.117 -0.938,0.587 -2.201,0.789 -1.07,0.17 -1.864,-0.014 -2.598,-0.278 0.165,1.211 0.36,2.47 0.418,3.633 v 0.004 l 0.004,0.082 v 0.088 l -0.004,-0.17 c 0.091,1.837 0.006,3.087 -0.03,4.37 12.243,-3.818 25.229,-3.621 37.182,-2.034 v -0.002 c 2.062,0.268 4.105,0.612 6.133,0.998 h 0.067 l 0.316,0.063 h 0.002 l 0.01,0.002 c 2.407,0.472 4.418,1.238 6.27,1.904 h 0.093 l 0.56,0.197 c 1.292,0.459 2.496,0.976 3.941,1.086 0.345,-0.384 0.047,-4.691 0.07,-7.037 0,-0.694 -0.263,-0.74 -0.327,-0.74 -1.379,0.014 -2.449,-0.396 -3.162,-0.744 l -1.187,-0.615 a 64.96,64.96 0 0 0 -1.582,-0.788 h 0.037 l -0.633,-0.296 c -0.018,-0.008 -0.037,-0.019 -0.055,-0.028 l -0.547,-0.256 c -5.31,-1.995 -12.028,-3.758 -17.129,-3.959 h -0.005 a 77.486,77.486 0 0 0 -3.237,-0.039 z"
       style="line-height:normal;font-variant-ligatures:normal;font-variant-position:normal;font-variant-caps:normal;font-variant-numeric:normal;font-variant-alternates:normal;font-variant-east-asian:normal;font-feature-settings:normal;text-indent:0;text-align:start;text-decoration-line:none;text-decoration-style:solid;text-decoration-color:#000000;text-transform:none;text-orientation:mixed;shape-padding:0;isolation:auto;mix-blend-mode:normal;fill:#bdcf46"
       color="#000000"
       font-weight="400"
       font-family="sans-serif"
       white-space="normal"
       overflow="visible"
       fill="#fff"
       stroke-width="6.9"
       id="path21982" />
    <rect
       style="fill:#ffffff;fill-opacity:1;stroke-width:35.9055;stroke-linecap:round"
       id="rect24179"
       width="18.504604"
       height="10.345143"
       x="36.71455"
       y="42.04528" />
    <path
       id="path24125"
       style="fill:#2f2f2f;fill-opacity:1;stroke-width:35.9055;stroke-linecap:round"
       d="m 36.687762,43.183594 -0.281281,4.546875 c 2.857108,0 4.944838,1.314873 5.82089,0.05664 0.650811,-0.934731 -0.06705,-2.896487 -2.263204,-3.784429 -1.297647,-0.524659 -2.161678,-0.819086 -3.276405,-0.819086 z"
       sodipodi:nodetypes="ccssc" />
    <g
       transform="matrix(0.0947509,0,0,0.0947509,45.59817,43.665893)"
       stroke-width="10.5535"
       id="g22002">
      <path
         d="M 65.656,15.647 C 10.245,3.956 0.399,66.074 -1.4,79.22 c -1.837,13.428 24.124,30.509 58.162,37.932 34.208,7.46 62.485,2.1 63.025,-11.715 0.528,-13.533 1.712,-78.01 -54.131,-89.791"
         fill="url(#a)"
         transform="translate(-17.29,-21.25)"
         id="path21990"
         style="fill:url(#a-5);stroke-width:10.5535" />
      <ellipse
         cx="-18.407"
         cy="70.916"
         rx="16.611"
         ry="15.501"
         transform="rotate(-83.65)"
         fill="#ffffff"
         id="ellipse21992"
         style="stroke-width:15.4928" />
      <path
         d="m 70.705,34.008 c -0.34,2.452 -2.678,3.887 -5.211,3.192 -2.54,-0.69 -4.307,-3.252 -3.949,-5.695 0.35,-2.443 2.673,-3.85 5.194,-3.162 2.523,0.681 4.305,3.224 3.966,5.665"
         fill="#2f2f2f"
         id="path21994"
         style="stroke-width:15.4928" />
      <ellipse
         cx="22.924999"
         cy="27.952999"
         rx="15.5"
         ry="16.611"
         transform="rotate(-4.313)"
         fill="#ffffff"
         id="ellipse21996"
         style="stroke-width:15.4928" />
      <path
         d="m 30.74,24.527 c 0.041,2.519 -1.991,4.39 -4.542,4.167 -2.56,-0.217 -4.655,-2.45 -4.679,-4.961 -0.037,-2.51 1.997,-4.358 4.538,-4.142 2.531,0.222 4.634,2.433 4.683,4.936"
         fill="#2f2f2f"
         id="path21998"
         style="stroke-width:15.4928" />
      <path
         d="M 74.864,71.808 C 69.513,57.168 59.956,50.09 47.878,46.075 a 43.361,43.361 0 0 0 -3.753,-1.01 37.182,37.182 0 0 0 -3.787,-0.594 c -12.289,-1.215 -22.65,1.57 -30.26,13.364 -5.182,8.03 -5.456,16.877 -0.135,22.897 2.755,3.113 8.76,4.273 12.684,3.708 4.223,-0.614 9.587,-2.127 16.12,-0.867 0.663,0.13 1.322,0.302 1.955,0.497 0.655,0.084 1.307,0.197 1.968,0.355 6.515,1.575 11.433,5.341 15.41,7.728 3.701,2.228 9.734,3.688 12.934,1.86 6.235,-3.546 7.498,-12.208 3.85,-22.205"
         fill="#ed6c30"
         id="path22000"
         style="stroke-width:15.4928" />
    </g>
  </g>
</svg>
