<?xml version="1.0" encoding="UTF-8" standalone="no"?>
<svg
   width="128"
   height="128"
   id="svg20"
   version="1.1"
   sodipodi:docname="emoji_u1f924_200d_2063.svg"
   inkscape:version="1.3 (0e150ed6c4, 2023-07-21)"
   xmlns:inkscape="http://www.inkscape.org/namespaces/inkscape"
   xmlns:sodipodi="http://sodipodi.sourceforge.net/DTD/sodipodi-0.dtd"
   xmlns="http://www.w3.org/2000/svg"
   xmlns:svg="http://www.w3.org/2000/svg">
  <defs
     id="defs1" />
  <sodipodi:namedview
     id="namedview1"
     pagecolor="#ffffff"
     bordercolor="#000000"
     borderopacity="0.25"
     inkscape:showpageshadow="2"
     inkscape:pageopacity="0.0"
     inkscape:pagecheckerboard="0"
     inkscape:deskcolor="#d1d1d1"
     inkscape:zoom="8.515625"
     inkscape:cx="64"
     inkscape:cy="64"
     inkscape:current-layer="g18" />
  <style
     id="style2" />
  <g
     id="g18">
    <path
       fill="#fcc21b"
       d="M 112.4289,38.070007 H 112.41 C 102.34002,24.329988 83.380016,14.999998 63.699997,14.999998 c -19.689997,0 -38.639996,9.32999 -48.71,23.070009 v 0 c 0,0 -14.9899992660368,12.209991 -14.9899992660368,31.250004 C -2.2660368e-6,88.830008 12.7,98.100017 12.7,98.100017 c 0,0 0.02003,0.01134 0.06002,0.01134 5.52,9.040023 26.21,15.770003 50.939997,15.770003 24.739994,0 45.430033,-6.72998 50.949993,-15.770003 0.0189,0 0.0601,-0.01134 0.0601,-0.01134 0,0 12.69001,-9.270009 12.69001,-28.780006 0,-19.040013 -14.97001,-31.250004 -14.97001,-31.250004 z"
       id="path1-7"
       style="stroke-width:0.999999" />
    <g
       transform="translate(.21 .96)"
       id="g102"
       fill="#2f2f2f">
      <path
         d="M30.96 54.45a2.728 2.728 0 0 1-3.73.93 2.72 2.72 0 0 1-.96-3.71c.18-.31 4.6-7.62 14.37-7.62 9.78 0 14.2 7.31 14.39 7.62a2.735 2.735 0 0 1-2.36 4.11c-.92 0-1.83-.47-2.34-1.32-.13-.22-3.12-4.96-9.69-4.96-6.57-.01-9.54 4.74-9.68 4.95z"
         id="path98" />
      <path
         d="M101 55.39c-.43.26-.91.38-1.37.38-.94 0-1.85-.49-2.36-1.34-.11-.2-3.08-4.94-9.66-4.94-6.69 0-9.66 4.89-9.69 4.94a2.724 2.724 0 0 1-4.69-2.77c.18-.31 4.6-7.62 14.38-7.62 9.77 0 14.18 7.31 14.36 7.62.76 1.3.32 2.97-.97 3.73z"
         id="path100" />
    </g>
    <path
       d="M94.485 74.974c-2.882-1.69-6.51-.574-9.719 0-8.935 1.6-16.788 1.664-20.556 1.664-3.768 0-11.621-.064-20.557-1.664-3.208-.574-6.836-1.69-9.718 0-3.656 2.141-.96 9.818 4.794 15.006 3.479 3.135 11.761 9.22 25.48 9.22 13.72 0 22.003-6.085 25.482-9.22 5.755-5.188 8.44-12.865 4.794-15.006z"
       id="path110"
       fill="#ed6c30"
       stroke-width=".868" />
    <path
       d="M87.277 87.898c-1.929.1-2.707 2.781-4.511 3.433-2.586.934-5.99-1.034-8.296.411-1.392.873-1.139 3.03-2.184 4.26-.929 1.093-3.487 1.208-3.491 2.61-.002.406.588.672 1.008.763 1.953.423 3.92-1.735 5.862-1.264 1.559.379 3.005 1.62 3.717 3.059 1.193 2.41-.81 5.613.3 8.062.204.45.585 1.01 1.08 1.019 1.3.023 2.396-1.39 2.932-2.574.187-.413.135-.927 0-1.36-.152-.488-.735-.769-.874-1.262-.287-1.02-.088-2.15.182-3.176.587-2.23 1.793-4.277 3.06-6.203.77-1.173 1.87-2.099 2.727-3.205.642-.83 2.03-1.565 1.805-2.57-.272-1.212-2.007-2.07-3.317-2.003z"
       id="path941"
       fill="#fffdf8"
       stroke-width="1.043" />
  </g>
</svg>
