<?xml version="1.0" encoding="UTF-8" standalone="no"?>
<svg
   width="100%"
   height="100%"
   viewBox="0 0 128 128"
   version="1.1"
   xml:space="preserve"
   style="fill-rule:evenodd;clip-rule:evenodd;stroke-linejoin:round;stroke-miterlimit:2;"
   id="svg4"
   sodipodi:docname="emoji_u1f621.svg"
   inkscape:version="1.3 (0e150ed6c4, 2023-07-21)"
   xmlns:inkscape="http://www.inkscape.org/namespaces/inkscape"
   xmlns:sodipodi="http://sodipodi.sourceforge.net/DTD/sodipodi-0.dtd"
   xmlns:xlink="http://www.w3.org/1999/xlink"
   xmlns="http://www.w3.org/2000/svg"
   xmlns:svg="http://www.w3.org/2000/svg"><sodipodi:namedview
   id="namedview4"
   pagecolor="#ffffff"
   bordercolor="#000000"
   borderopacity="0.25"
   inkscape:showpageshadow="2"
   inkscape:pageopacity="0.0"
   inkscape:pagecheckerboard="0"
   inkscape:deskcolor="#d1d1d1"
   inkscape:zoom="2.1327669"
   inkscape:cx="-25.319223"
   inkscape:cy="17.817231"
   inkscape:current-layer="svg4" />&#10;    <g
   id="g49"
   transform="translate(0.01499)">&#10;	<g
   id="g47">&#10;		<path
   fill="#fcc21b"
   d="m 112.75,37.62 h -0.01 C 102.67,23.87 83.7,14.53 64,14.53 c -19.7,0 -38.66,9.34 -48.74,23.09 h -0.01 c 0,0 -14.99,12.21 -14.99,31.27 0,19.52 12.7,28.79 12.7,28.79 0,0 0.04,0.01 0.05,0.01 5.53,9.05 26.23,15.78 50.98,15.78 24.76,0 45.45,-6.73 50.98,-15.78 0.01,0 0.05,-0.01 0.05,-0.01 0,0 12.69,-9.27 12.69,-28.79 0.02,-19.06 -14.96,-31.27 -14.96,-31.27 z"
   id="path1-3"
   style="fill:url(#linearGradient10)" />&#10;		&#10;		&#10;		&#10;	</g>&#10;	&#10;</g>&#10;    <path
   d="M51.25,51.1C52.19,51.18 52.97,51.92 53.06,52.85L53.06,52.87C53.56,58.61 50.07,63.6 45.28,64.02C40.49,64.44 36.18,60.13 35.67,54.39C35.48,52.24 35.86,50.19 36.65,48.45C37.14,47.38 38.47,47.01 39.49,47.6C42.8,49.51 46.84,50.75 51.25,51.1ZM78.38,51.1C77.44,51.18 76.66,51.92 76.57,52.85L76.57,52.87C76.07,58.61 79.56,63.6 84.35,64.02C89.14,64.44 93.45,60.13 93.96,54.39C94.15,52.24 93.77,50.19 92.98,48.45C92.49,47.38 91.16,47.01 90.14,47.6C86.83,49.51 82.79,50.75 78.38,51.1Z"
   style="fill:rgb(47,47,47);fill-rule:nonzero;"
   id="path2" />&#10;    <path
   d="M62.78,79.19C76.7,76.74 86.04,83.35 86.43,83.63C87.873,84.677 88.202,86.724 87.16,88.17C86.113,89.613 84.066,89.942 82.62,88.9C82.33,88.69 75.01,83.63 63.91,85.59C52.81,87.55 47.66,94.81 47.45,95.11C46.43,96.58 44.41,96.96 42.94,95.95C41.472,94.95 41.085,92.921 42.08,91.45C42.35,91.06 48.87,81.65 62.78,79.19Z"
   style="fill:rgb(47,47,47);fill-rule:nonzero;"
   id="path3" />&#10;    <defs
   id="defs4">&#10;        <radialGradient
   id="_Radial1"
   cx="0"
   cy="0"
   r="1"
   gradientUnits="userSpaceOnUse"
   gradientTransform="matrix(0,108.72,-147.285,0,205.59844,-4.8531977)"><stop
     offset="0"
     style="stop-color:rgb(246,46,5);stop-opacity:1"
     id="stop3" /><stop
     offset="1"
     style="stop-color:rgb(252,194,27);stop-opacity:1"
     id="stop4" /></radialGradient>&#10;    <linearGradient
   inkscape:collect="always"
   xlink:href="#_Radial1"
   id="linearGradient10"
   x1="64"
   y1="14.53"
   x2="63.990002"
   y2="113.47"
   gradientUnits="userSpaceOnUse" /></defs>&#10;</svg>
