<?xml version="1.0" encoding="UTF-8" standalone="no"?>
<svg
   width="128"
   height="128"
   version="1.1"
   id="svg36"
   sodipodi:docname="emoji_u1f96a.svg"
   inkscape:version="1.3 (0e150ed6c4, 2023-07-21)"
   xmlns:inkscape="http://www.inkscape.org/namespaces/inkscape"
   xmlns:sodipodi="http://sodipodi.sourceforge.net/DTD/sodipodi-0.dtd"
   xmlns="http://www.w3.org/2000/svg"
   xmlns:svg="http://www.w3.org/2000/svg">
  <sodipodi:namedview
     id="namedview36"
     pagecolor="#ffffff"
     bordercolor="#000000"
     borderopacity="0.25"
     inkscape:showpageshadow="2"
     inkscape:pageopacity="0.0"
     inkscape:pagecheckerboard="0"
     inkscape:deskcolor="#d1d1d1"
     inkscape:zoom="4.0546875"
     inkscape:cx="58.327553"
     inkscape:cy="64.739884"
     inkscape:window-width="1366"
     inkscape:window-height="697"
     inkscape:window-x="-8"
     inkscape:window-y="-8"
     inkscape:window-maximized="1"
     inkscape:current-layer="svg36" />
  <defs
     id="defs8">
    <linearGradient
       y2="39.244"
       y1="39.244"
       x2="124.084"
       x1="21.123"
       gradientUnits="userSpaceOnUse"
       gradientTransform="rotate(2.56 -380.023 -142.253)"
       id="f">
      <stop
         offset=".005"
         stop-color="#fbc02d"
         id="stop1" />
    </linearGradient>
    <linearGradient
       id="g"
       gradientUnits="userSpaceOnUse"
       x1="9.732"
       x2="74.285"
       y1="67.527"
       y2="67.527">
      <stop
         offset="0"
         stop-color="#ffc044"
         id="stop2" />
    </linearGradient>
    <linearGradient
       id="h"
       gradientUnits="userSpaceOnUse"
       x1="72.836"
       x2="118.397"
       y1="59.201"
       y2="59.201">
      <stop
         offset="0"
         stop-color="#ffb219"
         id="stop3" />
    </linearGradient>
    <linearGradient
       id="e"
       gradientUnits="userSpaceOnUse"
       x1="93.584"
       x2="121.796"
       y1="54.139"
       y2="56.158">
      <stop
         offset="0"
         stop-color="#ff3d2a"
         id="stop4" />
    </linearGradient>
    <linearGradient
       id="d"
       gradientUnits="userSpaceOnUse"
       x1="76.479"
       x2="104.69"
       y1="68.922"
       y2="70.941">
      <stop
         offset="0"
         stop-color="#ff3d2a"
         id="stop5" />
    </linearGradient>
    <linearGradient
       id="c"
       gradientUnits="userSpaceOnUse"
       x1="64.886"
       x2="93.097"
       y1="78.777"
       y2="80.796">
      <stop
         offset="0"
         stop-color="#ff3d2a"
         id="stop6" />
    </linearGradient>
    <linearGradient
       id="b"
       gradientTransform="rotate(-9.633 -419.545 -82.064)"
       gradientUnits="userSpaceOnUse"
       x1="5.446"
       x2="33.749"
       y1="156.275"
       y2="158.301">
      <stop
         offset="0"
         stop-color="#ff3d2a"
         id="stop7" />
    </linearGradient>
    <linearGradient
       id="a"
       gradientUnits="userSpaceOnUse"
       x1="17.181"
       x2="45.393"
       y1="71.738"
       y2="73.757">
      <stop
         offset="0"
         stop-color="#ff3d2a"
         id="stop8" />
    </linearGradient>
  </defs>
  <path
     d="m 72.504298,108.05784 c -2.726026,-2.94002 -6.402472,-3.799 -10.328109,-5.37937 -11.253048,-3.657572 -21.687433,-6.569226 -32.600073,-11.62344 -3.091484,-1.194122 -6.203526,-1.678471 -9.3105,-2.512927 -3.689637,-1.24991 -6.984851,-3.523797 -9.50867,-6.975585 -0.230363,0.700737 -0.373822,1.475282 -0.380423,2.325785 -0.04252,5.403175 -0.4040193,9.381304 0.844289,11.306798 1.247879,1.935487 40.057071,15.107519 50.17084,18.956239 7.041405,2.67545 8.645413,4.47613 11.725048,4.31849 -0.219684,-3.96312 2.02017,-7.63014 -0.612402,-10.41599 z"
     fill="#df8826"
     id="path8"
     style="fill:#f79329" />
  <path
     d="m 118.93788,72.25255 c 0.67145,-4.435217 -0.36768,-4.710182 -5.82181,-6.126166 C 107.66152,64.720391 73.183428,52.545642 67.929022,50.908046 62.674616,49.27045 59.687772,47.970733 56.220598,48.992498 52.753424,50.014264 48.855831,52.198586 48.855831,52.198586 40.04096,58.164838 15.865106,76.14128 15.865106,76.14128 c 0,0 -3.855238,1.665665 -5.088178,5.426098 2.523818,3.451788 5.819032,5.725676 9.50867,6.975586 3.106973,0.834455 6.218585,1.328795 9.310499,2.512926 10.912641,5.054215 21.347025,7.965878 32.600074,11.62344 3.768367,1.51354 7.725603,2.82503 10.413292,5.49314 1.191006,-1.15983 3.0772,-0.79834 4.334269,-1.86524 C 115.37116,78.374756 118.908,72.481477 118.93788,72.25255 Z"
     fill="#f6d9a4"
     id="path9"
     style="fill:#ffcc80;fill-opacity:1" />
  <path
     d="m 76.621834,105.18234 c -1.257069,1.0669 -4.129773,2.6948 -4.117536,2.8755 0.200468,3.71206 -0.0091,10.66949 0.324917,10.58378 3.267453,-0.80015 11.325179,-6.84906 17.601438,-11.0429 6.266268,-4.19427 27.821157,-23.13438 28.461627,-24.758327 0.6179,-1.564863 0.37407,-4.037644 0.38555,-5.698688 0.0202,-2.561502 0.0218,-5.153836 -0.10829,-7.711801 0.12662,2.637891 -1.66708,4.312264 -3.1951,5.627737 C 103.5549,85.703129 91.022553,94.5521 76.621834,105.18234 Z"
     fill="#d76208"
     id="path10"
     style="fill:#ed6c30" />
  <path
     style="fill:#bdcf46;fill-opacity:1;stroke-width:6;stroke-linecap:round"
     d="m 71.207031,47.536906 c -12.660883,0.54493 -25.403862,0.774821 -37.900538,3.086308 -8.587209,1.674526 -16.948827,5.217673 -23.5796277,11.008243 -3.3829441,3.030646 -5.8653071,7.29956 -6.0422212,11.909022 -0.1053779,2.034978 0.4666894,4.100883 1.6948615,5.737655 1.4908212,2.096614 3.8901577,3.527266 6.4568234,3.780469 2.243877,0.354018 4.629121,0.822893 6.359349,2.410075 2.340765,1.744697 4.542806,3.744307 7.230103,4.954947 4.43636,1.174498 9.07988,0.638994 13.583704,1.328793 1.103584,0.128242 2.205416,0.270487 3.306921,0.415348 4.015589,1.854364 6.907714,5.569542 11.144532,7.015622 2.797474,0.879852 5.731045,0.08705 8.49263,-0.53521 1.962717,-0.39782 3.912383,-1.09265 5.93637,-1.00327 2.452242,0.3666 4.544424,1.79922 6.732609,2.863232 2.535667,1.33024 5.397487,2.54953 8.320716,2.02393 2.444112,-0.41803 4.605716,-2.03986 5.780284,-4.211872 1.581749,-2.452907 2.827249,-5.30356 5.343265,-6.970012 2.680416,-1.903284 5.967748,-2.809543 9.223568,-2.994998 1.8794,-0.07509 3.80535,-0.64051 5.18243,-1.97531 1.04867,-0.993842 1.72318,-2.294733 2.52156,-3.482958 1.45122,-2.335251 2.7545,-4.785299 4.55641,-6.879545 2.13317,-1.859955 4.92557,-2.815981 6.90625,-4.869141 2.20475,-3.501225 2.13225,-8.412579 -0.51928,-11.660981 -2.33465,-2.875196 -5.82111,-4.407901 -9.1312,-5.860409 -5.57184,-2.459959 -11.3107,-4.868999 -17.433879,-5.453332 -8.034429,-0.703184 -16.108138,-0.637816 -24.16564,-0.636606 z"
     id="path37"
     sodipodi:nodetypes="ssssssssssssss" />
  <path
     style="fill:#fcc21b;fill-opacity:1;stroke-width:6;stroke-linecap:round"
     d="m 62.890174,33.048169 c -10.358382,0 -13.811176,4.932563 -34.527939,17.757226 C 13.0427,60.288917 6.4123314,59.684008 6.4123314,64.123314 c 0,4.439306 16.7707126,11.83815 34.2813106,19.236994 17.510597,7.398844 23.6763,11.098266 30.581888,11.098266 6.905588,0 13.289223,-8.927202 27.622351,-19.236994 14.057809,-10.111754 22.689789,-13.317919 22.689789,-18.49711 0,-5.179191 -5.42582,-5.179191 -24.662815,-12.578035 C 77.687861,36.747591 73.495183,33.048169 62.890174,33.048169 Z"
     id="path41"
     sodipodi:nodetypes="sssssssss" />
  <path
     style="fill:#db4437;fill-opacity:1;stroke-width:6;stroke-linecap:round"
     d="m 39.157552,58.741101 c -4.815046,-1.54945 -12.404728,-1.64562 -16.230037,1.58837 -9.513376,8.042796 3.862182,23.013554 16.506623,17.78975 11.485277,-4.744917 8.644372,-16.507414 -0.276586,-19.37812 z"
     id="path38"
     sodipodi:nodetypes="ssss" />
  <path
     style="fill:#db4437;fill-opacity:1;stroke-width:6;stroke-linecap:round"
     d="m 63.113758,65.777017 c 5.057248,-0.09847 12.353639,1.993243 15.08664,6.191138 6.796866,10.439992 -10.320635,20.929032 -20.927282,12.287903 -9.634292,-7.848965 -3.529053,-18.296604 5.840642,-18.479041 z"
     id="path40"
     sodipodi:nodetypes="ssss" />
  <path
     d="M 72.504375,75.053202 C 69.778349,72.113188 66.101904,71.254207 62.176266,69.673837 50.923218,66.016269 40.488833,63.104617 29.576193,58.050402 c -3.091484,-1.194122 -6.203526,-1.678471 -9.3105,-2.512926 -3.689637,-1.24991 -6.984851,-3.523798 -9.50867,-6.975586 -0.230363,0.700738 -0.373822,1.475282 -0.380423,2.325786 -0.04252,5.403174 -0.4040193,9.381304 0.844289,11.306798 1.257869,1.935914 40.066632,15.117931 50.17084,18.956235 7.041405,2.675446 8.645413,4.476128 11.725048,4.318488 -0.229674,-3.963552 2.02017,-7.630145 -0.612402,-10.415995 z"
     fill="url(#g)"
     id="path34"
     style="fill:#f79329" />
  <path
     style="fill:#db4437;fill-opacity:1;stroke-width:6;stroke-linecap:round"
     d="m 87.441784,56.178016 c 4.403154,-2.489517 11.817188,-4.115762 16.216556,-1.720522 10.94105,5.956861 0.86285,23.319426 -12.575782,20.755563 C 78.875904,72.884235 79.28395,60.79041 87.441784,56.178016 Z"
     id="path39"
     sodipodi:nodetypes="ssss" />
  <path
     d="m 118.93796,39.247923 c 0.67145,-4.435217 -0.36768,-4.710182 -5.82181,-6.126166 -5.45455,-1.405993 -39.932645,-13.580743 -45.187051,-15.218339 -5.254406,-1.637595 -8.24125,-2.937313 -11.708424,-1.915547 -3.467174,1.021765 -7.364767,3.206088 -7.364767,3.206088 -8.814871,5.966251 -32.990725,23.942694 -32.990725,23.942694 0,0 -3.855238,1.665665 -5.088178,5.426098 2.523818,3.451788 5.819032,5.725675 9.50867,6.975586 3.106973,0.834455 6.218585,1.328795 9.310499,2.512926 10.912641,5.054214 21.347025,7.965867 32.600074,11.623434 3.768367,1.513542 7.725603,2.825023 10.413292,5.493136 1.191007,-1.159829 3.0772,-0.798338 4.334269,-1.865239 C 115.37123,45.370128 118.89809,39.476419 118.93796,39.247923 Z"
     fill="#ffd688"
     id="path35"
     style="fill:#ffcc80" />
  <path
     d="m 76.621911,72.177703 c -1.257069,1.0669 -4.129773,2.694805 -4.117536,2.875499 0.200468,3.712063 -0.0091,10.66949 0.324917,10.583781 3.267453,-0.800153 11.325179,-6.849058 17.601438,-11.042896 6.266268,-4.194268 27.82116,-23.134374 28.46162,-24.758321 0.61791,-1.564863 0.37408,-4.037644 0.38556,-5.698689 0.0202,-2.561501 0.0218,-5.153836 -0.10829,-7.711801 0.12662,2.637891 -1.66709,4.312265 -3.1951,5.627738 -12.41954,10.645488 -24.95189,19.494458 -39.352609,30.124689 z"
     fill="url(#h)"
     id="path36"
     style="fill:#ed6c30" />
</svg>
