<?xml version="1.0" encoding="UTF-8" standalone="no"?>
<!-- Generator: Adobe Illustrator 24.1.2, SVG Export Plug-In . SVG Version: 6.00 Build 0)  -->

<svg
   version="1.1"
   id="Layer_2"
   x="0px"
   y="0px"
   viewBox="0 0 128 128"
   style="enable-background:new 0 0 128 128;"
   xml:space="preserve"
   sodipodi:docname="emoji_u1f988.svg"
   inkscape:version="1.2.2 (732a01da63, 2022-12-09)"
   xmlns:inkscape="http://www.inkscape.org/namespaces/inkscape"
   xmlns:sodipodi="http://sodipodi.sourceforge.net/DTD/sodipodi-0.dtd"
   xmlns="http://www.w3.org/2000/svg"
   xmlns:svg="http://www.w3.org/2000/svg"><defs
   id="defs31384" /><sodipodi:namedview
   id="namedview31382"
   pagecolor="#ffffff"
   bordercolor="#000000"
   borderopacity="0.25"
   inkscape:showpageshadow="2"
   inkscape:pageopacity="0.0"
   inkscape:pagecheckerboard="0"
   inkscape:deskcolor="#d1d1d1"
   showgrid="false"
   inkscape:zoom="4"
   inkscape:cx="61"
   inkscape:cy="56.75"
   inkscape:window-width="1366"
   inkscape:window-height="697"
   inkscape:window-x="-8"
   inkscape:window-y="-8"
   inkscape:window-maximized="1"
   inkscape:current-layer="Layer_2" />
<path
   style="fill:#62c0ea;fill-opacity:1"
   d="M30.77,22.75c-15.51,7.17-26.7,18.4-26.61,21.12c0.05,1.41,0.77,3.94,2.82,6.1  c1.21,1.28,4.43,3.61,6.69,3.75c2.25,0.14,18.51-10.7,18.51-10.7l16.19-2.25l9.85,23.51c0,0,3.24,4.65,7.74,8.45  s8.87,5.07,9.85,4.22s-1.9-6.55-2.11-8.02c-0.28-1.96-1.13-6.76,3.66-6.05s13.66,4.22,13.66,9.43c0,5.21-3.52,10.98-13.51,10.98  s-24.07-3.24-30.55-2.96c-6.48,0.28-12.25,0.84-18.16,3.24c-4.38,1.77-9.29,5.07-9.15,5.49c0.14,0.42,5.63,2.25,12.11,3.1  s19.01,0.7,21.12,3.8c2.11,3.1,2.67,7.56,1.97,14.17s-0.42,12.01-0.28,12.01c0.14,0,5.67-3.16,8.45-8.02  c4.5-7.88,4.5-17.46,6.19-19.43c1.69-1.97,8.69-2.51,14.36-3.24c5.82-0.75,38.86-2.11,38.86-35.05c0-26.47-25.2-32.38-25.76-32.94  c-0.56-0.56-1.48-4.7,0.42-8.45c1.5-2.96,4.04-7.46,3.24-8.59c-0.99-1.4-10.14,0.14-16.89,3.66S72.44,18.1,72.44,18.1  S46.47,15.49,30.77,22.75z"
   id="path31355" />
<path
   style="fill:#E0E0E0;"
   d="M34.71,36.82c5.13-2.27,13.53-4.11,19.85-4.5c11.33-0.7,20.98,0.63,20.98,0.63s4.12,8.59,7.46,12.88  c5.84,7.5,14.25,13.3,15.38,11.68c0.94-1.35,0.18-8.45-1.3-12.81c-0.73-2.15-3.1-7.88-3.1-7.88s10.28,0.84,16.19,9.29  c5.91,8.45,8.3,26.33-4.65,33.93c-11.26,6.62-17.6,5.63-17.6,5.63s6.75-7.46,5.68-12.72c-1.13-5.54-3.57-7.04-7.79-7.84  c-2.67-0.5-25.58,0-31.63-0.14s-15.16-0.56-21.45-2.49c-3.01-0.92-5.16-2.35-5.16-2.35l0.14-5.07c0,0-5.16,1.03-8.12,0.75  s-7.13-1.97-7.41-2.39c-0.28-0.42,3.33-3.58,6.34-5.91C22.28,44.61,28.66,39.5,34.71,36.82z"
   id="path31357" />
<path
   style="fill:#f4a4bf;fill-opacity:1"
   d="M 41.742523,45.947864 C 40.834392,48.429833 39.54946,51.024068 35.14,55.03 c -3.57,3.24 -6.95,5.4 -7.51,5.21 -0.56,-0.19 -1.64,-2.96 -1.88,-3.99 -2.39,0.7 -7.77,-0.37 -6.95,-0.56 2.77,-0.66 6.91,-2.56 9.67,-4.65 1.92,-1.45 5.61,-4.35 6.76,-5.12 0.99,-0.66 3.874072,-2.626868 5.12,-2.91 1.438567,-0.326908 1.956845,1.395543 1.392523,2.937864 z"
   id="path31359"
   sodipodi:nodetypes="scsccccss" />

<path
   id="path31363"
   style="fill:#fffefd"
   d="M 38.3125 43.957031 C 37.580476 44.379519 36.831191 44.859388 36.210938 45.267578 C 36.211219 45.26815 36.210591 45.268993 36.210938 45.269531 C 36.420936 45.569531 37.899846 47.150779 38.839844 46.300781 C 39.587267 45.630677 38.605335 44.315862 38.3125 43.957031 z M 33.751953 47 C 33.045497 47.531702 32.277754 48.114496 31.439453 48.759766 C 31.550295 48.871365 33.481997 50.963832 34.660156 49.960938 C 35.505223 49.248802 33.916338 47.206638 33.751953 47 z M 37.914062 48.263672 C 37.582812 48.274998 37.267264 48.396719 37.009766 48.699219 C 36.369674 49.448799 37.912946 51.149455 38.419922 51.671875 C 39.140447 50.81455 39.702715 50.02824 40.158203 49.287109 C 39.969792 49.135518 38.881986 48.230577 37.914062 48.263672 z M 28.607422 50.933594 C 28.570362 50.961659 28.506557 51.011985 28.470703 51.039062 C 27.860024 51.501497 27.1789 51.954262 26.462891 52.386719 C 26.536942 52.49197 28.31521 54.768305 29.5 53.759766 C 30.358979 53.035906 28.723518 51.070929 28.607422 50.933594 z M 33.810547 52.267578 C 33.550131 52.269691 33.310389 52.362969 33.119141 52.589844 C 32.465918 53.354801 33.714676 55.319659 34.269531 55.800781 C 34.557693 55.5508 34.848478 55.294439 35.140625 55.029297 C 35.588221 54.622662 35.994779 54.234371 36.380859 53.855469 C 36.112998 53.572385 34.822603 52.259367 33.810547 52.267578 z M 29.566406 55.976562 C 29.315516 55.979514 29.08375 56.073906 28.890625 56.300781 C 28.152734 57.164891 29.67388 59.124084 29.763672 59.238281 C 30.425632 58.813579 31.194823 58.267732 32.041016 57.617188 C 31.932842 57.490604 30.609529 55.964291 29.566406 55.976562 z " />



<path
   style="fill:#197cb7;fill-opacity:1"
   d="M65.17,25.42c-1.13,0.75-0.38,2.35,0.28,3.66c0.66,1.31,1.08,2.51,1.15,4.29  c0.06,1.6-0.35,4.48-0.54,5.47c-0.17,0.91-0.78,2.9,0.56,3.24c1.69,0.42,2.16-0.89,2.53-2.16c0.49-1.65,0.74-5.01,0.66-6.71  c-0.19-3.64-1.41-5.82-1.97-6.66S66.27,24.68,65.17,25.42z"
   id="path31371" />
<path
   style="fill:#197cb7;fill-opacity:1"
   d="m 72.505,27.67 c -0.75,0.6 0,2.39 0.33,3.19 0.33,0.8 0.49,1.92 0.49,3.07 0,0.8 -0.16,2.65 -0.26,3.68 -0.14,1.54 -0.06,2.46 1.08,2.67 1.78,0.33 1.85,-2.06 2.02,-3.05 0.13,-0.79 0.25,-3.39 0.15,-4.61 -0.09,-1.22 -0.67,-2.99 -1.37,-4.07 -0.57,-0.85 -1.5,-1.63 -2.44,-0.88 z"
   id="path31373" />
<path
   style="fill:#197cb7;fill-opacity:1"
   d="M57.66,24.72c-1.54,0.79,0.14,3.43,0.56,4.32s1.03,2.86,0.99,4.93c-0.05,2.06-0.21,4.18-0.56,5.33  c-0.31,1-1.22,2.7-0.52,3.4c1.03,1.03,2.69-0.04,3.26-1.71c0.84-2.46,1.06-4.48,0.96-7.67C62.23,29.03,59.96,23.54,57.66,24.72z"
   id="path31375" />


<ellipse
   style="fill:#2f2f2f;fill-opacity:1;stroke-width:5.66929;stroke-linecap:round"
   id="path21969"
   cx="36.220268"
   cy="35.178562"
   rx="3.6436439"
   ry="4.4836297" /></svg>
