<?xml version="1.0" encoding="UTF-8" standalone="no"?>
<svg
   height="128"
   width="128"
   version="1.1"
   id="svg7"
   sodipodi:docname="emoji_u1f9fa.svg"
   inkscape:version="1.3 (0e150ed6c4, 2023-07-21)"
   xmlns:inkscape="http://www.inkscape.org/namespaces/inkscape"
   xmlns:sodipodi="http://sodipodi.sourceforge.net/DTD/sodipodi-0.dtd"
   xmlns="http://www.w3.org/2000/svg"
   xmlns:svg="http://www.w3.org/2000/svg">
  <sodipodi:namedview
     id="namedview7"
     pagecolor="#ffffff"
     bordercolor="#000000"
     borderopacity="0.25"
     inkscape:showpageshadow="2"
     inkscape:pageopacity="0.0"
     inkscape:pagecheckerboard="0"
     inkscape:deskcolor="#d1d1d1"
     showguides="false"
     inkscape:zoom="2.867097"
     inkscape:cx="54.584829"
     inkscape:cy="70.628932"
     inkscape:window-width="1366"
     inkscape:window-height="697"
     inkscape:window-x="-8"
     inkscape:window-y="-8"
     inkscape:window-maximized="1"
     inkscape:current-layer="svg7" />
  <defs
     id="defs2">
    <inkscape:path-effect
       effect="powerstroke"
       id="path-effect17"
       is_visible="true"
       lpeversion="1.3"
       scale_width="1"
       interpolator_type="CentripetalCatmullRom"
       interpolator_beta="0.2"
       start_linecap_type="zerowidth"
       end_linecap_type="zerowidth"
       offset_points="0.23797282,2.1060233 | 0.99862325,2.8767491 | 1.7516711,1.9117836"
       linejoin_type="round"
       miter_limit="4"
       not_jump="false"
       sort_points="true"
       message="&lt;b&gt;Ctrl + click&lt;/b&gt; on existing node and move it" />
    <inkscape:path-effect
       effect="powerstroke"
       id="path-effect15"
       is_visible="true"
       lpeversion="1.3"
       scale_width="1"
       interpolator_type="CentripetalCatmullRom"
       interpolator_beta="0.2"
       start_linecap_type="zerowidth"
       end_linecap_type="zerowidth"
       offset_points="0.23797282,2.1060233 | 0.99862325,2.8767491 | 1.7516711,1.9117836"
       linejoin_type="round"
       miter_limit="4"
       not_jump="false"
       sort_points="true"
       message="&lt;b&gt;Ctrl + click&lt;/b&gt; on existing node and move it" />
    <inkscape:path-effect
       effect="powerstroke"
       id="path-effect14"
       is_visible="true"
       lpeversion="1.3"
       scale_width="1"
       interpolator_type="CentripetalCatmullRom"
       interpolator_beta="0.2"
       start_linecap_type="round"
       end_linecap_type="round"
       offset_points="0.014509258,2.4411674 | 0.0035158928,2.4400608 | 0.94739026,3.0738317"
       linejoin_type="round"
       miter_limit="4"
       not_jump="false"
       sort_points="true"
       message="&lt;b&gt;Ctrl + click&lt;/b&gt; on existing node and move it" />
    <inkscape:path-effect
       effect="powerstroke"
       id="path-effect2"
       is_visible="true"
       lpeversion="1.3"
       scale_width="1"
       interpolator_type="CentripetalCatmullRom"
       interpolator_beta="0.2"
       start_linecap_type="round"
       end_linecap_type="round"
       offset_points="0.010991771,2.4411674 | 0,2.4400608 | 0.94296116,3.0738317"
       linejoin_type="round"
       miter_limit="4"
       not_jump="false"
       sort_points="true"
       message="&lt;b&gt;Ctrl + click&lt;/b&gt; on existing node and move it" />
    <inkscape:path-effect
       effect="powerstroke"
       id="path-effect12"
       is_visible="true"
       lpeversion="1.3"
       scale_width="1"
       interpolator_type="CentripetalCatmullRom"
       interpolator_beta="0.2"
       start_linecap_type="round"
       end_linecap_type="round"
       offset_points="0.010991771,2.4411674 | 0,2.4400608 | 0.94296116,3.0738317"
       linejoin_type="round"
       miter_limit="4"
       not_jump="false"
       sort_points="true"
       message="&lt;b&gt;Ctrl + click&lt;/b&gt; on existing node and move it" />
    <inkscape:path-effect
       effect="powerstroke"
       id="path-effect11"
       is_visible="true"
       lpeversion="1.3"
       scale_width="1"
       interpolator_type="CentripetalCatmullRom"
       interpolator_beta="0.2"
       start_linecap_type="zerowidth"
       end_linecap_type="zerowidth"
       offset_points="0.24973723,2.0611945 | 2.0128117,3.1406818 | 3.8370852,2.2040249"
       linejoin_type="round"
       miter_limit="4"
       not_jump="false"
       sort_points="true"
       message="&lt;b&gt;Ctrl + click&lt;/b&gt; on existing node and move it" />
    <inkscape:path-effect
       effect="powerstroke"
       id="path-effect9"
       is_visible="true"
       lpeversion="1.3"
       scale_width="1"
       interpolator_type="CentripetalCatmullRom"
       interpolator_beta="0.2"
       start_linecap_type="zerowidth"
       end_linecap_type="zerowidth"
       offset_points="0.24973723,2.0611945 | 2.0128117,3.1406818 | 3.8370852,2.2040249"
       linejoin_type="round"
       miter_limit="4"
       not_jump="false"
       sort_points="true"
       message="&lt;b&gt;Ctrl + click&lt;/b&gt; on existing node and move it" />
    <linearGradient
       id="a">
      <stop
         offset="0"
         id="stop1" />
      <stop
         offset="1"
         stop-opacity="0"
         id="stop2" />
    </linearGradient>
    <clipPath
       id="b">
      <path
         d="M109.38 48.823a45.525 10.583 0 0 1-45.525 10.583A45.525 10.583 0 0 1 18.33 48.823a45.525 10.583 0 0 1 45.525-10.584 45.525 10.583 0 0 1 45.526 10.584z"
         fill="#ab6208"
         paint-order="stroke fill markers"
         id="path2" />
    </clipPath>
  </defs>
  <g
     id="g17"
     transform="matrix(1.0627385,0,0,1.0627385,157.49439,17.712633)"
     style="stroke-width:0.940965">
    <path
       style="fill:#f79329;fill-rule:nonzero;stroke:none;stroke-width:5.64579;stroke-linecap:round;stroke-opacity:1"
       d="m -120.39852,29.352884 c 0.32483,-0.0074 1.55312,-0.09399 2.00743,-1.014609 0.22694,-0.459881 0.37057,-1.246002 0.34423,-2.45795 -0.0348,-1.600309 -0.40281,-4.368671 -1.58132,-7.141527 a 0.16678866,0.00182876 63.962519 0 0 -0.0554,-0.116604 c -0.99092,-2.040112 -2.13595,-3.796498 -3.42428,-5.240324 -1.26567,-1.418436 -2.65259,-2.515421 -4.12549,-3.275255 -1.50453,-0.7761555 -3.04368,-1.1716044 -4.54235,-1.2328637 -1.59007,-0.064996 -3.05458,0.2483903 -4.33002,0.7830595 -0.0992,0.04167 -0.1973,0.084715 -0.2943,0.1290703 -1.70251,0.7784509 -3.2622,2.0475809 -4.45178,3.7621819 -1.15289,1.661709 -1.93802,3.719622 -2.11847,6.020415 -0.17518,2.233607 0.22699,4.620739 1.32606,6.973858 1.10678,2.369602 2.87062,4.601564 5.28006,6.588559 1.05375,0.866148 2.19005,1.555801 3.21409,2.079194 1.14972,0.587631 2.2332,1.004951 3.09592,1.267422 1.70387,0.518379 2.61815,0.484714 3.07535,0.191667 0.57105,-0.366023 0.9404,-1.69603 1.02306,-1.995166 0.0781,-0.282834 0.46,-1.640976 0.27734,-2.216707 -0.16627,-0.524038 -0.72918,-0.929537 -2.04718,-1.65574 -0.6363,-0.350591 -1.49185,-0.801458 -2.31037,-1.289034 -0.76047,-0.452993 -1.49823,-0.941768 -2.12563,-1.465495 -1.76461,-1.463474 -2.88625,-2.941285 -3.54807,-4.311412 -0.65373,-1.353353 -0.86829,-2.618748 -0.81069,-3.717031 0.06,-1.143611 0.41511,-2.128881 0.91631,-2.894626 0.51797,-0.791368 1.17381,-1.326344 1.82723,-1.630708 0.0374,-0.01743 0.0751,-0.03427 0.11313,-0.0505 0.48295,-0.207452 1.02763,-0.32095 1.62308,-0.293729 0.5574,0.02548 1.20575,0.176557 1.92684,0.547289 0.71406,0.367114 1.51917,0.962086 2.3593,1.877749 0.86258,0.940112 1.73598,2.188313 2.57566,3.801446 l -0.0554,-0.116602 c 0.91637,1.885209 1.48867,4.101518 1.8886,5.409679 0.30607,1.00116 0.54164,1.602971 0.84364,1.978138 0.56406,0.700725 1.77371,0.713686 2.1034,0.706155 z"
       id="path9"
       sodipodi:nodetypes="ccssc"
       inkscape:path-effect="#path-effect9"
       inkscape:original-d="m -120.39852,29.352884 c 0,0 -0.1163,-5.091126 -2.03265,-9.35403 -3.72712,-7.438748 -8.76801,-9.004595 -12.45351,-7.449069 -5.3371,2.252608 -7.8318,11.051003 0.62183,18.039181 3.25184,2.688131 8.30713,4.085046 8.30713,4.085046" />
    <path
       style="fill:#f79329;fill-rule:nonzero;stroke:none;stroke-width:5.64579;stroke-linecap:round;stroke-opacity:1"
       d="m -120.39852,29.352884 c 0.32483,-0.0074 1.55312,-0.09399 2.00743,-1.014609 0.22694,-0.459881 0.37057,-1.246002 0.34423,-2.45795 -0.0348,-1.600309 -0.40281,-4.368671 -1.58132,-7.141527 a 0.16678866,0.00182876 63.962519 0 0 -0.0554,-0.116604 c -0.99092,-2.040112 -2.13595,-3.796498 -3.42428,-5.240324 -1.26567,-1.418436 -2.65259,-2.515421 -4.12549,-3.275255 -1.50453,-0.7761555 -3.04368,-1.1716044 -4.54235,-1.2328637 -1.59007,-0.064996 -3.05458,0.2483903 -4.33002,0.7830595 -0.0992,0.04167 -0.1973,0.084715 -0.2943,0.1290703 -1.70251,0.7784509 -3.2622,2.0475809 -4.45178,3.7621819 -1.15289,1.661709 -1.93802,3.719622 -2.11847,6.020415 -0.17518,2.233607 0.22699,4.620739 1.32606,6.973858 1.10678,2.369602 2.87062,4.601564 5.28006,6.588559 1.05375,0.866148 2.19005,1.555801 3.21409,2.079194 1.14972,0.587631 2.2332,1.004951 3.09592,1.267422 1.70387,0.518379 2.61815,0.484714 3.07535,0.191667 0.57105,-0.366023 0.9404,-1.69603 1.02306,-1.995166 0.0781,-0.282834 0.46,-1.640976 0.27734,-2.216707 -0.16627,-0.524038 -0.72918,-0.929537 -2.04718,-1.65574 -0.6363,-0.350591 -1.49185,-0.801458 -2.31037,-1.289034 -0.76047,-0.452993 -1.49823,-0.941768 -2.12563,-1.465495 -1.76461,-1.463474 -2.88625,-2.941285 -3.54807,-4.311412 -0.65373,-1.353353 -0.86829,-2.618748 -0.81069,-3.717031 0.06,-1.143611 0.41511,-2.128881 0.91631,-2.894626 0.51797,-0.791368 1.17381,-1.326344 1.82723,-1.630708 0.0374,-0.01743 0.0751,-0.03427 0.11313,-0.0505 0.48295,-0.207452 1.02763,-0.32095 1.62308,-0.293729 0.5574,0.02548 1.20575,0.176557 1.92684,0.547289 0.71406,0.367114 1.51917,0.962086 2.3593,1.877749 0.86258,0.940112 1.73598,2.188313 2.57566,3.801446 l -0.0554,-0.116602 c 0.91637,1.885209 1.48867,4.101518 1.8886,5.409679 0.30607,1.00116 0.54164,1.602971 0.84364,1.978138 0.56406,0.700725 1.77371,0.713686 2.1034,0.706155 z"
       id="path10"
       sodipodi:nodetypes="ccssc"
       inkscape:path-effect="#path-effect11"
       inkscape:original-d="m -120.39852,29.352884 c 0,0 -0.1163,-5.091126 -2.03265,-9.35403 -3.72712,-7.438748 -8.76801,-9.004595 -12.45351,-7.449069 -5.3371,2.252608 -7.8318,11.051003 0.62183,18.039181 3.25184,2.688131 8.30713,4.085046 8.30713,4.085046"
       transform="matrix(-1,0,0,1,-175.94997,0)" />
    <path
       d="m -45.226727,35.796301 c 1.409476,-8.285958 -3.490654,-15.276937 -42.27059,-15.276937 -38.779933,0 -43.679093,6.990639 -42.270583,15.275625 l 6.58712,38.745969 c 1.18901,6.993836 6.55974,12.892823 35.682586,12.892823 29.122848,0 34.491177,-5.899131 35.680834,-12.892823 z"
       fill="#ef9d44"
       paint-order="stroke fill markers"
       id="path4-7"
       style="fill:#f79329;stroke:none;stroke-width:0.940962"
       sodipodi:nodetypes="szsszss" />
    <path
       id="path12"
       style="fill:#ed6c30;fill-rule:nonzero;stroke:none;stroke-width:2.8229;stroke-linecap:round;stroke-dasharray:none;stroke-opacity:1"
       d="m -87.725486,38.130859 a 2.4400608,2.4400608 0 0 0 -0.482422,0.06055 2.4400608,2.4400608 0 0 0 -1.896484,2.378906 c 0,0.03431 7.5e-5,0.117419 0,0.205079 -1.33e-4,0.155004 0.0026,0.257466 0,0.644531 -0.02013,3.026705 -0.38608,32.032792 -0.535156,45.974609 0.983608,0.01493 1.930887,0.03906 2.974609,0.03906 1.044408,0 1.992353,-0.02411 2.976562,-0.03906 -0.149076,-13.941817 -0.515025,-42.947904 -0.535156,-45.974609 -0.0026,-0.387065 1.33e-4,-0.489527 0,-0.644531 -7.5e-5,-0.08766 0,-0.17077 0,-0.205079 a 2.4400608,2.4400608 0 0 0 -2.501953,-2.439453 z m 24.365234,0.0039 a 2.4400608,2.4400608 0 0 0 -0.486328,0.01953 2.4400608,2.4400608 0 0 0 -2.089843,2.208984 c -0.0093,0.107243 -0.02131,0.257757 -0.05664,0.644531 -0.273809,2.997404 -3.024474,31.255222 -4.378906,45.44336 2.286991,-0.315737 4.286911,-0.702287 6.042968,-1.150391 1.090473,-14.820119 2.975162,-40.98281 3.201172,-43.880859 0.0302,-0.38721 0.04384,-0.537258 0.05274,-0.644531 a 2.4400608,2.4400608 0 0 0 -2.285157,-2.640625 z m -48.121098,0.01953 a 2.4400608,2.4400608 0 0 0 -2.77343,2.621094 c 0.009,0.107273 0.0245,0.257321 0.0547,0.644531 0.22602,2.898049 2.1107,29.06074 3.20118,43.880859 1.75629,0.447971 3.75584,0.834766 6.04297,1.150391 -1.35444,-14.188138 -4.10511,-42.445956 -4.37891,-45.44336 -0.0353,-0.386774 -0.0474,-0.537288 -0.0566,-0.644531 a 2.4400608,2.4400608 0 0 0 -2.08985,-2.208984 z"
       transform="translate(0.16689215)" />
    <path
       id="path11"
       style="fill:#fcc21b;stroke-width:5.64578;stroke-linecap:round"
       d="m -44.815799,32.982079 c 0,8.086934 -10.349182,14.64269 -42.681551,14.64269 -32.33237,0 -42.68155,-6.555757 -42.68155,-14.64269 0,-8.086933 10.34918,-14.64269 42.68155,-14.64269 32.332369,0 42.681551,6.555755 42.681551,14.64269 z"
       sodipodi:nodetypes="sssss" />
    <path
       id="path8"
       style="fill:#855c52;stroke-width:5.64578;stroke-linecap:round"
       d="m -58.899273,31.242534 c 0,3.43226 -6.9343,6.214656 -28.598079,6.214656 -21.663778,0 -28.598078,-2.782397 -28.598078,-6.214656 0,-3.432258 6.9343,-6.214655 28.598078,-6.214655 21.663779,0 28.598079,2.782396 28.598079,6.214655 z"
       sodipodi:nodetypes="sssss" />
    <path
       id="path14"
       style="fill:#ed6c30;fill-opacity:1;fill-rule:nonzero;stroke:none;stroke-width:5.64579;stroke-linecap:round;stroke-opacity:1"
       d="m -127.27734,50.934663 0.89257,5.253906 c 2.24953,0.917962 5.53817,1.950613 10.16407,2.93164 7.51888,1.594557 17.250327,2.710925 29.037106,2.701172 h 0.123047 c 11.663665,-0.01761 21.32712,-1.016566 28.785156,-2.414062 4.1583,-0.779188 7.250646,-1.597441 9.517579,-2.351563 l 0.830078,-4.886718 c -2.299278,0.399266 -5.85051,1.138725 -11.240235,1.939453 -7.25648,1.078063 -16.48702,1.976684 -27.892578,1.958984 h -0.119141 c -11.463984,-0.02539 -20.711602,-1.160678 -27.929692,-2.511719 -6.44097,-1.205587 -10.10789,-2.271048 -12.16796,-2.621093 z m 2.67382,15.736328 0.96485,5.675781 c 1.96796,0.6387 4.39542,1.300404 7.41797,1.941406 7.51888,1.594556 17.250327,2.710925 29.037106,2.701172 l 0.123047,-0.002 c 11.663665,-0.01761 21.32712,-1.014614 28.785156,-2.412109 2.68112,-0.502392 4.929437,-1.021451 6.796875,-1.529297 l 0.888672,-5.226563 c -2.155182,0.403006 -4.935982,0.915935 -8.578125,1.457031 -7.25648,1.078064 -16.48702,1.976685 -27.892578,1.958985 h -0.119141 c -11.463984,-0.02539 -20.711602,-1.160678 -27.929692,-2.511719 -4.30786,-0.806323 -7.29789,-1.534411 -9.49414,-2.052734 z"
       transform="translate(0,-0.49325626)" />
  </g>
</svg>
