<?xml version="1.0" encoding="UTF-8" standalone="no"?>
<!-- Generator: Adobe Illustrator 25.2.3, SVG Export Plug-In . SVG Version: 6.00 Build 0)  -->

<svg
   version="1.1"
   id="Layer_2"
   x="0px"
   y="0px"
   viewBox="0 0 128 128"
   style="enable-background:new 0 0 128 128;"
   xml:space="preserve"
   sodipodi:docname="emoji_u1fa72.svg"
   inkscape:version="1.3 (0e150ed6c4, 2023-07-21)"
   xmlns:inkscape="http://www.inkscape.org/namespaces/inkscape"
   xmlns:sodipodi="http://sodipodi.sourceforge.net/DTD/sodipodi-0.dtd"
   xmlns="http://www.w3.org/2000/svg"
   xmlns:svg="http://www.w3.org/2000/svg"><defs
   id="defs5121">&#10;	&#10;	&#10;	&#10;	&#10;	&#10;	&#10;</defs><sodipodi:namedview
   id="namedview5119"
   pagecolor="#ffffff"
   bordercolor="#000000"
   borderopacity="0.25"
   inkscape:showpageshadow="2"
   inkscape:pageopacity="0.0"
   inkscape:pagecheckerboard="0"
   inkscape:deskcolor="#d1d1d1"
   showgrid="false"
   inkscape:zoom="4.2421874"
   inkscape:cx="41.48803"
   inkscape:cy="83.093924"
   inkscape:window-width="1366"
   inkscape:window-height="697"
   inkscape:window-x="-8"
   inkscape:window-y="-8"
   inkscape:window-maximized="1"
   inkscape:current-layer="Layer_2" />&#10;&#10;<g
   id="g1"
   transform="matrix(1.0524591,0,0,1.0524591,1.0456826,-130.10265)"
   style="stroke-width:0.950156"><path
     id="path10"
     style="fill:#40c0e7;fill-opacity:1;stroke:none;stroke-width:2.85047;stroke-linecap:round;stroke-dasharray:none;stroke-opacity:1"
     d="m 112.24693,158.19727 c 0,3.46589 1.49206,12.87966 1.49206,18.79296 0,6.29722 -5.35657,13.5687 -11.64894,25.66993 -7.529417,14.48026 -9.599839,17.60351 -17.363236,17.60351 -7.763397,0 -16.905999,-1.22461 -24.911336,-1.22461 -8.005339,0 -17.146074,1.22461 -24.909471,1.22461 -7.763397,0 -9.833821,-3.12325 -17.36324,-17.60351 -6.29238,-12.10123 -11.6489495,-19.37271 -11.6489495,-25.66993 0,-5.9133 1.49207,-15.32707 1.49207,-18.79296 0,-7.3804 6.1363095,-9.60512 52.4305235,-9.60512 46.294209,0 52.430519,2.22472 52.430519,9.60512 z"
     sodipodi:nodetypes="sssssssssss" /><path
     id="path13"
     style="fill:#1e9ddb;fill-opacity:1;stroke:none;stroke-width:2.85047;stroke-linecap:round;stroke-dasharray:none;stroke-opacity:1"
     d="m 10.052734,185 c -0.7316098,0.0138 -1.3700386,0.0683 -1.9140621,0.13672 2.1419631,4.64444 5.5905761,10.18906 9.4042971,17.52344 7.529411,14.48024 9.599892,17.60351 17.363281,17.60351 2.743674,0 5.679432,-0.16744 8.65625,-0.36523 0.746978,-1.54816 1.079471,-3.27258 0.6875,-5.14844 -1.749998,-8.37499 -9.250009,-12.50001 -18.375,-22.5 -5.703119,-6.24999 -11.944096,-7.32324 -15.822266,-7.25 z" /><path
     id="path11"
     style="fill:#196ca2;fill-opacity:1;stroke:none;stroke-width:2.85047;stroke-linecap:round;stroke-dasharray:none;stroke-opacity:1"
     d="m 38.883469,159.09961 -16.460938,26.51172 c -7.783362,-4.17492 -14.7516488,-5.52446 -16.1920622,-5.80078 0.5594879,2.54854 1.8215894,5.34311 3.5136718,8.55664 4.4394264,1.43735 11.4488664,4.5431 18.3359374,11.08203 7.890601,7.49172 11.979513,16.06139 13.734375,20.56445 2.542378,-0.15185 5.128254,-0.333 7.722656,-0.51367 -1.499725,-4.30775 -6.837749,-17.89195 -17.408203,-26.8457 -1.057746,-0.89597 -2.122424,-1.72666 -3.1875,-2.50782 l 15.251953,-25.0371 z"
     sodipodi:nodetypes="ccccsccsccc" /><path
     id="path14"
     style="fill:#1e9ddb;fill-opacity:1;stroke:none;stroke-width:2.85047;stroke-linecap:round;stroke-dasharray:none;stroke-opacity:1"
     d="m 112.00391,182.5 c -4.45538,0.0919 -11.10023,1.58905 -17.205082,8.2793 -10.418943,11.41802 -18.982316,16.12687 -20.980469,25.68945 -0.238813,1.14289 -0.237055,2.23527 -0.05859,3.27539 3.776725,0.26897 7.51428,0.51953 10.966796,0.51953 7.76339,0 9.833872,-3.12327 17.363275,-17.60351 4.55997,-8.76954 8.6171,-14.99613 10.51172,-20.16016 -0.19638,-0.002 -0.39156,-0.004 -0.59765,0 z" /><path
     id="path12"
     style="fill:#196ca2;fill-opacity:1;stroke:none;stroke-width:2.85047;stroke-linecap:round;stroke-dasharray:none;stroke-opacity:1"
     d="m 80.849532,159.09961 -5.410079,6.00977 15.251953,25.0371 c -1.065076,0.78116 -2.129754,1.61185 -3.1875,2.50782 -10.571735,8.95484 -15.909241,22.54167 -17.408203,26.84765 2.594309,0.18065 5.180416,0.35989 7.722656,0.51172 1.754862,-4.50306 5.843775,-13.07273 13.734375,-20.56445 6.887073,-6.53893 13.896516,-9.64468 18.335936,-11.08203 1.69208,-3.21353 2.95419,-6.0081 3.51367,-8.55664 -1.44041,0.27632 -8.30851,1.62586 -16.091871,5.80078 z"
     sodipodi:nodetypes="cccsccscccc" /><path
     id="rect11"
     style="fill:#1e9ddb;stroke-width:2.85047;stroke-linecap:round"
     d="m 59.817376,148.5918 c -46.29417,0 -52.4316397,2.22507 -52.4316397,9.60547 0,1.35155 -0.2427016,3.71618 -0.5195313,6.3164 9.596128,0.87103 26.783304,1.98633 52.287109,1.98633 26.713123,0 44.312976,-1.2209 53.601556,-2.10547 -0.27096,-2.54915 -0.50781,-4.86672 -0.50781,-6.19726 0,-7.3804 -6.13552,-9.60547 -52.429684,-9.60547 z" /></g></svg>
