<?xml version="1.0" encoding="UTF-8" standalone="no"?>
<!-- Generator: Adobe Illustrator 16.0.0, SVG Export Plug-In . SVG Version: 6.00 Build 0)  -->

<svg
   version="1.1"
   id="レイヤー_1"
   x="0px"
   y="0px"
   width="128px"
   height="128px"
   viewBox="0 0 128 128"
   enable-background="new 0 0 128 128"
   xml:space="preserve"
   sodipodi:docname="emoji_u1f993.svg"
   inkscape:version="1.3 (0e150ed6c4, 2023-07-21)"
   xmlns:inkscape="http://www.inkscape.org/namespaces/inkscape"
   xmlns:sodipodi="http://sodipodi.sourceforge.net/DTD/sodipodi-0.dtd"
   xmlns="http://www.w3.org/2000/svg"
   xmlns:svg="http://www.w3.org/2000/svg"><defs
   id="defs5078">&#10;	&#10;	&#10;	&#10;&#10;		&#10;		&#10;		&#10;	&#10;			&#10;			&#10;		&#10;	&#10;	&#10;	&#10;&#10;		&#10;		&#10;		&#10;	&#10;			&#10;			&#10;		</defs><sodipodi:namedview
   id="namedview5076"
   pagecolor="#ffffff"
   bordercolor="#000000"
   borderopacity="0.25"
   inkscape:showpageshadow="2"
   inkscape:pageopacity="0.0"
   inkscape:pagecheckerboard="0"
   inkscape:deskcolor="#d1d1d1"
   showgrid="false"
   inkscape:zoom="2.1210937"
   inkscape:cx="35.594844"
   inkscape:cy="72.83978"
   inkscape:window-width="1366"
   inkscape:window-height="697"
   inkscape:window-x="-8"
   inkscape:window-y="-8"
   inkscape:window-maximized="1"
   inkscape:current-layer="レイヤー_1" />&#10;<path
   fill="#2f2f2f"
   d="m 58.73,82.38 c 0,0 -0.25,-2.68 -1.92,-6.72 l 3.22,-6.38 9.4,-0.98 4.3,7.63 -3.32,7.83 z"
   id="path5057" /><path
   fill="#F79329"
   d="m 115.84,107.57 c 0.07,-4.35 -0.11,-8.72 -0.52,-13.05 C 113.87,78.77 109.37,63.32 101.84,49.79 98.85,44.42 96.29,38.78 92.76,33.73 90.8,30.92 88.8,28.02 86.22,25.71 83.75,23.5 81.38,23.49 81.47,19.97 81.52,18.1 81.29,16.09 80.99,14.24 80.53,11.46 80.19,8.66 79.56,5.91 78.85,2.78 76.96,-0.53 73.37,1.7 c -2.71,1.69 -4.8,4.25 -6.32,7.03 -0.82,1.49 -1.47,3.06 -1.98,4.68 -0.48,1.53 -0.85,2.01 -2.49,2.43 -2.44,0.62 -5.72,0.91 -7.55,-1.08 C 52.28,11.78 50.21,8.25 47.8,5 47.09,4.04 46.32,3.12 45.33,2.42 c -4.67,-3.32 -6.05,2.1 -6.92,5.6 -0.88,3.54 -0.65,9 0.76,14.08 0.16,0.58 0.35,1.15 0.54,1.72 -2.95,1.57 -5.66,3.39 -7.92,5.34 -2.28,1.99 -2.47,4.4 -2.99,7.16 -0.57,3.06 -1.64,4.93 -3.53,7.38 -5.43,7.06 -12.01,12.9 -17.71,19.77 -3.45,4.16 -6.64,8.85 -4.51,14.5 0.97,2.56 2.36,4.66 4.35,6.48 2.08,1.89 3.92,3.51 6.42,4.88 3.75,2.05 8.22,2.93 12.43,2.04 5.32,-1.12 8.46,-5.38 12.58,-8.55 4.46,-3.42 9.73,-5.21 15.17,-6.38 2.12,-0.46 4.18,-1.2 6.15,-2.12 0.66,-0.31 1.98,-1.29 2.72,-1.21 1.14,0.12 0.95,1.94 0.63,2.65 -0.59,1.32 -1.95,2.36 -3.09,3.17 -0.62,0.45 -1.13,0.86 -1.37,1.62 -0.61,1.96 -0.24,4.26 -0.09,6.25 0.19,2.59 0.25,5.19 0.19,7.78 -0.11,5.13 -0.67,10.26 -1.64,15.31 -0.44,2.31 -1.02,4.58 -1.74,6.8 -1.55,4.76 -1.71,5.88 2.82,7.6 9.09,3.43 19.15,2.53 28.59,2.72 3.9,0.08 7.69,-0.13 11.57,-0.54 4.2,-0.44 8.48,-1.19 12.65,-1.73 1.56,-0.2 3.39,-1.04 4.1,-2.67 0.71,-1.61 0.47,-3.69 0.53,-5.43 0.09,-3.05 -0.22,-6.04 -0.18,-9.07 z"
   id="path5061"
   style="fill:#e0e0e0;fill-opacity:1" /><path
   style="fill:#303030;fill-opacity:1;stroke:none;stroke-width:40.8;stroke-linecap:round"
   d="M 76.226882,12.167967 C 54.234664,6.2751695 33.173738,11.79032 26.588413,15.592359 c -1.819739,1.050627 -2.341014,2.572514 -2.036855,6.266708 0.442854,5.37871 2.635553,13.495797 5.118065,15.978309 4.424902,4.424902 25.706298,-11.591772 44.485969,-6.243308 23.024063,6.55727 28.565858,15.767677 38.303918,52.110625 0.70911,2.646444 1.42617,2.704648 4.91099,2.217088 2.67521,-0.374287 3.10171,-1.133633 3.10171,-3.045744 0,-19.783521 -8.81744,-61.215195 -44.245328,-70.70807 z"
   id="path3"
   sodipodi:nodetypes="sssssssss" /><path
   fill="#2f2f2f"
   d="m 40.103309,48.56 c -2.27,-1.65 -2.78,-4.82 -1.12,-7.09 1.65,-2.27 4.82,-2.77 7.09,-1.13 2.27,1.64 2.77,4.82 1.13,7.1 -1.65,2.26 -4.84,2.76 -7.1,1.12 z"
   id="path5067" />&#10;<path
   id="path1"
   style="fill:#2f2f2f;fill-opacity:1;stroke-width:15.1181;stroke-linecap:round"
   d="m 12.308594,58.113281 c -1.619392,1.741001 -3.216354,3.511329 -4.7480471,5.357422 -3.4499966,4.159996 -6.6397635,8.850006 -4.5097657,14.5 0.9699991,2.559998 2.3596114,4.658518 4.3496094,6.478516 2.0799984,1.889998 3.9199244,3.51086 6.4199214,4.880859 3.749997,2.049998 8.219692,2.929062 12.429688,2.039063 5.319995,-1.119999 8.460082,-5.378832 12.580078,-8.548829 3.216035,-2.466085 5.09333,-7.591235 -6.307139,-18.991704 C 20.787486,52.093154 15.474833,55.062138 12.308594,58.113281 Z"
   sodipodi:nodetypes="cccccccsc" /><path
   fill="#2f2f2f"
   d="m 21.63,76.72 c -0.38,2 -2.95,2.99 -4.75,3.14 -1.17,0.1 -2.76,-0.07 -3.59,-1.01 -0.84,-0.96 -0.67,-3.14 0.22,-4.07 1.44,-1.5 3.79,-2.18 5.76,-1.53 1.06,0.33 1.97,1.22 2.29,2.27 0.11,0.37 0.14,0.78 0.07,1.2 z"
   id="path5071"
   style="fill:#ffffff;fill-opacity:1" /><path
   fill="#F79329"
   d="M 81.47,19.97 C 81.52,18.1 81.29,16.09 80.99,14.24 80.53,11.46 80.19,8.66 79.56,5.91 78.85,2.78 76.96,-0.53 73.37,1.7 c -2.71,1.69 -4.8,4.25 -6.32,7.03 -0.82,1.49 -1.47,3.06 -1.98,4.68 -1.004552,2.311701 -6.229801,13.121775 -6.581263,15.757476 -0.866187,6.49576 5.035534,4.782478 10.104164,6.140613 7.503645,2.010596 11.015999,4.277533 12.321258,-1.160402 C 81.442712,31.945644 81.47,21.233873 81.47,19.97 Z"
   id="path2"
   style="fill:#e0e0e0;fill-opacity:1"
   sodipodi:nodetypes="ccccccsssc" /><path
   id="path5"
   style="fill:#303030;fill-opacity:1;stroke:none;stroke-width:40.8;stroke-linecap:round"
   d="m 83.083984,28.5625 c -0.402316,-0.0088 -0.757268,0.01254 -1.042968,0.06836 -2.540649,0.496359 -10.534863,27.869457 -15.064454,39.185547 -0.511027,1.276688 -1.793478,4.362048 0.513672,5.515625 1.784992,0.892495 4.442828,-1.220304 7.248047,-3.324219 0.983359,-0.737517 21.270183,-14.371173 27.214849,-20.001953 -0.0394,-0.07122 -0.0737,-0.14568 -0.11329,-0.216797 -1.39034,-2.497031 -2.69186,-5.048949 -4.037106,-7.576171 -0.02654,-0.04987 -0.05154,-0.100543 -0.07813,-0.150391 -2.570688,1.620842 -8.173755,6.785774 -11.755859,9.742188 -2.194902,1.811513 -2.627945,1.714446 -3.033203,1.480468 -0.405262,-0.233978 -0.578189,-0.820487 0.466797,-3.660156 1.728554,-4.697215 6.351911,-13.341909 7.193359,-17.410156 0.418479,-2.023256 -4.695501,-3.590957 -7.511719,-3.652344 z m 21.947266,27.519531 c -5.47748,5.326367 -14.495634,13.535689 -23.388672,19.152344 -9.815746,6.199419 -18.334523,9.95643 -22.6875,11.705078 0.09105,1.272409 0.154002,2.545621 0.183594,3.820313 0.02958,1.274049 0.03141,2.548717 0.002,3.820312 -0.02162,1.008497 -0.06921,2.015929 -0.130859,3.023438 -0.05038,0.905146 -0.121499,1.809164 -0.199219,2.712894 4.734775,-1.105726 15.706143,-4.687086 27.792969,-15.658207 10.464012,-9.4981 17.421107,-17.781229 21.056647,-22.470703 -0.81765,-2.065339 -1.68845,-4.103238 -2.62891,-6.105469 z m 5.79883,15.152344 C 108.18695,75.017371 98.96962,87.29423 85.238281,95.408203 73.419943,102.39176 62.723305,107.01235 57.640625,109.06445 c -0.05025,0.27471 -0.08795,0.55193 -0.140625,0.82617 -0.44,2.31 -1.020235,4.57884 -1.740234,6.79883 -0.226963,0.697 -0.418045,1.30916 -0.56836,1.85743 -0.150315,0.54826 -0.259863,1.03264 -0.326172,1.4707 6.313584,-0.88811 20.17798,-3.84351 32.357422,-13.43946 11.791064,-9.289919 21.088684,-22.039149 25.412114,-28.499995 -0.002,-0.0066 -0.004,-0.01292 -0.006,-0.01953 -0.18585,-0.792574 -0.38675,-1.580601 -0.58594,-2.369141 -0.33425,-1.302502 -0.67603,-2.603074 -1.05469,-3.890625 -0.0549,-0.187425 -0.10216,-0.377438 -0.1582,-0.564453 z m 3.59375,16.138672 c -2.61829,4.118635 -7.86615,11.467626 -16.25586,19.158203 -9.388813,8.60641 -22.347189,16.58749 -28.390626,20.12305 5.791197,0.50899 11.703725,0.24097 17.392578,0.35547 1.470082,0.0301 2.923512,0.008 4.373047,-0.0391 4.603236,-3.70174 14.983381,-11.0726 20.568361,-21.3164 1.43544,-2.63286 2.55818,-4.81316 3.5332,-6.753909 -0.0851,-1.46305 -0.18632,-2.924576 -0.32422,-4.38086 -0.14025,-1.523384 -0.33395,-3.040335 -0.53125,-4.55664 -0.11586,-0.858061 -0.23318,-1.716401 -0.36328,-2.572266 -8.8e-4,-0.0058 -0.001,-0.01175 -0.002,-0.01758 z m 1.49023,23.228513 c -3.61136,5.05771 -7.37055,10.1142 -11.84179,15.17188 2.45223,-0.35264 4.90301,-0.72043 7.31835,-1.03321 1.56,-0.2 3.38962,-1.03992 4.09961,-2.66992 0.71,-1.61 0.4693,-3.68969 0.5293,-5.42969 0.0599,-2.02893 -0.0321,-4.03379 -0.10547,-6.03906 z" /><path
   id="path8"
   style="fill:#303030;fill-opacity:1;stroke:none;stroke-width:40.8;stroke-linecap:round"
   d="m 59.541016,45.757812 c -0.681292,-0.0111 -1.327306,0.184964 -1.824219,0.677735 -7.60368,7.540295 -11.082486,20.095152 -11.681641,32.357422 2.398073,-0.95951 4.909017,-1.658648 7.457032,-2.226563 1.158618,-9.063437 3.095625,-17.470324 9.785156,-24.736328 1.067599,-1.1596 0.943811,-2.30632 0.04687,-3.912109 -0.616645,-1.10398 -2.284362,-2.135745 -3.783203,-2.160157 z" /><path
   style="fill:#303030;fill-opacity:1;stroke:none;stroke-width:40.8;stroke-linecap:round"
   d="m 73.375507,11.001175 c -1.900023,0 -3.081915,2.861975 -3.845763,4.771594 -0.608635,1.521589 -3.985911,8.29802 -1.353139,9.614406 0.794013,0.397006 5.596736,1.41319 7.050565,0.427307 1.391281,-0.943467 0.794772,-4.831193 0.621195,-8.401939 -0.174669,-3.593236 -0.676846,-6.411368 -2.472858,-6.411368 z"
   id="path9"
   sodipodi:nodetypes="ssssss" /><path
   id="path10"
   style="fill:#303030;fill-opacity:1;stroke:none;stroke-width:40.8;stroke-linecap:round"
   d="m 57.425932,18.623047 -10.283354,5.185547 c 0,0 5.379737,18.196332 16.385915,18.196332 6.891656,0 11.75828,-5.736225 11.75828,-8.247421 0,-1.857477 -2.672587,-2.794008 -3.469965,-2.794008 -1.947613,0 -2.687703,4.350073 -7.091825,4.350073 -10.020913,0 -7.299051,-16.690523 -7.299051,-16.690523 z"
   sodipodi:nodetypes="ccssssc" /><path
   id="path11"
   style="fill:#303030;fill-opacity:1;stroke:none;stroke-width:40.8;stroke-linecap:round"
   d="m 29.066406,34.863281 c -0.08725,0.47815 -0.171102,0.955332 -0.265625,1.457031 -0.569999,3.059997 -1.641252,4.928909 -3.53125,7.378907 -2.325232,3.02323 -4.875305,5.810019 -7.46289,8.5625 4.836517,-0.868154 13.417681,-3.038802 14.660156,-7.675781 1.221907,-4.560219 -1.601229,-8.043159 -3.400391,-9.722657 z" /></svg>
