<?xml version="1.0" encoding="UTF-8" standalone="no"?>
<svg
   width="128"
   height="128"
   id="svg14"
   version="1.1"
   sodipodi:docname="emoji_u1f577.svg"
   inkscape:version="1.2.2 (732a01da63, 2022-12-09)"
   xmlns:inkscape="http://www.inkscape.org/namespaces/inkscape"
   xmlns:sodipodi="http://sodipodi.sourceforge.net/DTD/sodipodi-0.dtd"
   xmlns="http://www.w3.org/2000/svg"
   xmlns:svg="http://www.w3.org/2000/svg">
  <defs
     id="defs12355" />
  <sodipodi:namedview
     id="namedview12353"
     pagecolor="#ffffff"
     bordercolor="#000000"
     borderopacity="0.25"
     inkscape:showpageshadow="2"
     inkscape:pageopacity="0.0"
     inkscape:pagecheckerboard="0"
     inkscape:deskcolor="#d1d1d1"
     showgrid="false"
     inkscape:zoom="2.9996796"
     inkscape:cx="54.172452"
     inkscape:cy="66.340418"
     inkscape:window-width="1366"
     inkscape:window-height="697"
     inkscape:window-x="-8"
     inkscape:window-y="-8"
     inkscape:window-maximized="1"
     inkscape:current-layer="svg14" />
  <style
     id="style2">.st1{fill:#2f2f2f}</style>
  <g
     id="g325"
     transform="translate(-0.58673644,0.14841181)">
    <path
       d="m 112.03,60.69 a 6.23,6.23 0 0 0 -3.16,-2.53 l -19.24,-6.89 14.18,-0.73 c 2.1,-0.11 3.99,-1.26 5.06,-3.07 2.31,-3.92 7.06,-15.65 1.36,-39.89 a 3.724,3.724 0 0 0 -4.49,-2.78 3.732,3.732 0 0 0 -2.78,4.49 c 4.89,20.78 1.43,30.64 -0.22,33.83 l -20.06,1.03 v -0.14 c 0,-0.2 -0.02,-0.39 -0.03,-0.59 l 10.49,-3.64 c 2.29,-0.8 3.93,-2.87 4.16,-5.27 0.42,-4.36 0.68,-15.93 -5.99,-29.09 A 3.727,3.727 0 0 0 86.29,3.78 3.727,3.727 0 0 0 84.65,8.8 c 5.41,10.67 5.58,19.99 5.28,24.2 l -9.56,3.32 a 14.284,14.284 0 0 0 -6,-5.15 c -0.01,-2.2 -0.31,-6.91 -2.76,-7.79 -4.35,-1.55 -4.06,3.68 -7.02,3.68 -2.74,0 -2.67,-5.24 -7.02,-3.68 -2.35,0.84 -2.72,5.21 -2.75,7.51 -2.67,1.06 -4.95,2.9 -6.54,5.25 L 39.23,33 C 38.94,28.8 39.11,19.48 44.51,8.8 A 3.735,3.735 0 0 0 37.85,5.42 c -6.67,13.16 -6.41,24.73 -5.99,29.09 a 6.235,6.235 0 0 0 4.16,5.28 l 9.88,3.43 c -0.02,0.27 -0.04,0.53 -0.04,0.8 v 0.11 l -19.44,-1 C 24.77,39.94 21.32,30.09 26.2,9.3 26.67,7.29 25.43,5.28 23.42,4.81 21.41,4.34 19.4,5.58 18.93,7.59 c -5.7,24.24 -0.95,35.98 1.36,39.89 a 6.223,6.223 0 0 0 5.06,3.07 l 14.18,0.73 -19.24,6.89 a 6.18,6.18 0 0 0 -3.16,2.53 c -2.38,3.78 -9.54,18.14 -1.9,44.44 0.47,1.63 1.97,2.7 3.59,2.7 a 3.747,3.747 0 0 0 3.59,-4.78 c -6.62,-22.79 -0.93,-34.99 0.82,-38 l 22.84,-8.18 c 0,0.03 0.01,0.06 0.01,0.08 L 31.65,70.15 c -0.85,0.78 -1.47,1.78 -1.79,2.9 -1.17,4.09 -6.53,25.7 2.5,48.9 a 3.739,3.739 0 0 0 3.48,2.38 c 0.45,0 0.91,-0.08 1.35,-0.26 a 3.749,3.749 0 0 0 2.13,-4.84 C 31.37,98.82 35.74,79.83 36.95,75.42 L 49.49,63.97 a 14.47,14.47 0 0 0 4.42,3.33 c -5.09,0.9 -9.37,4.55 -10.85,9.6 -1.29,4.41 -1.98,10.63 -0.79,19.22 3.1,22.52 18.7,25.54 22.24,25.54 3.54,0 18.67,-3.03 21.77,-25.54 1.18,-8.59 0.5,-14.81 -0.79,-19.22 -1.48,-5.05 -5.75,-8.7 -10.84,-9.6 1.81,-0.87 3.42,-2.11 4.71,-3.64 l 12.88,11.76 c 1.21,4.41 5.58,23.4 -2.37,43.81 -0.75,1.92 0.2,4.09 2.13,4.84 0.45,0.17 0.9,0.26 1.35,0.26 1.5,0 2.91,-0.9 3.48,-2.38 9.03,-23.2 3.67,-44.81 2.5,-48.9 a 6.318,6.318 0 0 0 -1.79,-2.9 l -14.6,-13.34 23.02,8.24 c 1.76,3.01 7.44,15.2 0.82,38 -0.58,1.98 0.56,4.05 2.55,4.63 0.35,0.1 0.7,0.15 1.04,0.15 1.62,0 3.11,-1.06 3.59,-2.7 7.62,-26.3 0.45,-40.66 -1.93,-44.44 z"
       fill="#474c4f"
       id="path6-9" />
  </g>
</svg>
