<?xml version="1.0" encoding="UTF-8" standalone="no"?>
<svg
   width="128"
   height="128"
   version="1.1"
   id="svg4"
   sodipodi:docname="emoji_u1f60e.svg"
   xml:space="preserve"
   inkscape:version="1.3 (0e150ed6c4, 2023-07-21)"
   xmlns:inkscape="http://www.inkscape.org/namespaces/inkscape"
   xmlns:sodipodi="http://sodipodi.sourceforge.net/DTD/sodipodi-0.dtd"
   xmlns="http://www.w3.org/2000/svg"
   xmlns:svg="http://www.w3.org/2000/svg"><defs
     id="defs4" /><sodipodi:namedview
     id="namedview4"
     pagecolor="#ffffff"
     bordercolor="#000000"
     borderopacity="0.25"
     inkscape:showpageshadow="2"
     inkscape:pageopacity="0.0"
     inkscape:pagecheckerboard="0"
     inkscape:deskcolor="#d1d1d1"
     inkscape:zoom="5.2427425"
     inkscape:cx="6.8666352"
     inkscape:cy="94.225494"
     inkscape:current-layer="g3" /><g
     id="g8"
     transform="translate(0.005)">&#10;	<g
   id="g6">&#10;		<g
   id="g4">&#10;			<g
   id="g2">&#10;				<g
   id="g1">&#10;					<path
   fill="#fcc21b"
   d="m 127.51,93.55 c 0,13.93 -28.43,25.22 -63.51,25.22 C 28.92,118.77 0.48,107.48 0.48,93.55 0.49,79.62 1.96,9.23 64,9.23 c 62.04,0 63.51,70.39 63.51,84.32"
   id="path1" />&#10;				</g>&#10;			</g>&#10;			<g
   id="g3">&#10;				<path
   fill="#2f2f2f"
   d="m 62.78,105.52 c -3.34,0 -6.53,-0.27 -9.43,-0.67 -1.36,-0.18 -2.31,-1.44 -2.12,-2.8 0.19,-1.35 1.47,-2.3 2.8,-2.12 10.71,1.49 25.68,1.04 36.23,-9.51 0.97,-0.97 2.55,-0.97 3.51,0 0.98,0.97 0.98,2.54 0,3.51 -9.04,9.05 -20.72,11.59 -30.99,11.59 z"
   id="path2" />&#10;			</g>&#10;		</g>&#10;		<g
   id="g5">&#10;			<path
   fill="#2f2f2f"
   d="M 3.36,45.68 58.4,58.89 H 69.3 L 126.74,45.8 c 0,0 -0.57,35.09 -30.61,37.72 C 72.94,85.54 69.71,69.74 68.89,67.65 L 58.28,67.24 c 0,0 -3.37,18.36 -28.37,16.41 C 4.87,81.69 3.36,45.68 3.36,45.68 Z"
   id="path4" />&#10;		</g>&#10;	</g>&#10;	<g
   id="g7">&#10;		<path
   fill="#ffffff"
   d="m 12.45,53.96 c -0.4,-0.08 -0.82,0.05 -1.11,0.34 -0.29,0.29 -0.42,0.7 -0.34,1.11 3.02,15.02 12.36,19.04 12.76,19.2 0.15,0.06 0.31,0.09 0.47,0.09 0.43,0 0.85,-0.23 1.08,-0.63 l 7.96,-14.36 c 0.19,-0.34 0.2,-0.76 0.04,-1.11 -0.17,-0.35 -0.49,-0.61 -0.88,-0.69 z"
   id="path6" />&#10;		<path
   fill="#ffffff"
   d="m 89.09,60.54 c -0.3,-0.37 -0.78,-0.52 -1.24,-0.41 l -12.43,3.01 c -0.59,0.14 -0.98,0.69 -0.93,1.29 0.02,0.31 0.69,7.68 7.17,11.04 0.18,0.09 0.37,0.14 0.57,0.14 0.14,0 0.27,-0.02 0.4,-0.07 0.32,-0.11 0.58,-0.35 0.71,-0.65 l 5.92,-13.06 c 0.2,-0.43 0.13,-0.94 -0.17,-1.29 z"
   id="path7" />&#10;	</g>&#10;</g></svg>
