<?xml version="1.0" encoding="UTF-8" standalone="no"?>
<!-- Generator: Adobe Illustrator 25.2.3, SVG Export Plug-In . SVG Version: 6.00 Build 0)  -->

<svg
   version="1.1"
   id="Layer_4"
   x="0px"
   y="0px"
   viewBox="0 0 128 128"
   style="enable-background:new 0 0 128 128;"
   xml:space="preserve"
   sodipodi:docname="emoji_u1f9f3.svg"
   inkscape:version="1.2.2 (732a01da63, 2022-12-09)"
   xmlns:inkscape="http://www.inkscape.org/namespaces/inkscape"
   xmlns:sodipodi="http://sodipodi.sourceforge.net/DTD/sodipodi-0.dtd"
   xmlns="http://www.w3.org/2000/svg"
   xmlns:svg="http://www.w3.org/2000/svg"><defs
   id="defs77">
	

		
		
		
	
			
				<linearGradient
   id="SVGID_1_"
   gradientUnits="userSpaceOnUse"
   x1="55.085899"
   y1="20.4088"
   x2="60.0741"
   y2="20.4088"
   gradientTransform="matrix(0.8526,0.5225,-0.5225,0.8526,40.4956,-26.3602)">
				<stop
   offset="0"
   style="stop-color:#EEEEEE"
   id="stop20" />
				<stop
   offset="1"
   style="stop-color:#757575"
   id="stop22" />
			</linearGradient>
			
			
				<linearGradient
   id="SVGID_2_"
   gradientUnits="userSpaceOnUse"
   x1="74.671501"
   y1="20.365499"
   x2="79.659599"
   y2="20.365499"
   gradientTransform="matrix(0.8526,0.5225,-0.5225,0.8526,40.4956,-26.3602)">
				<stop
   offset="0"
   style="stop-color:#EEEEEE"
   id="stop27" />
				<stop
   offset="1"
   style="stop-color:#757575"
   id="stop29" />
			</linearGradient>
			
			
			
		
			
			
			
			
		
			
			
			
			
			
			
			
			
			
			
			
			
		
				
				
			
				
					
				
			
				
				
			
            
            
            
            
            
            
            
            
            
            
            
            
            
            
            
            
            
            
            
            
            
            
            
            
            
            
            
        </defs><sodipodi:namedview
   id="namedview75"
   pagecolor="#ffffff"
   bordercolor="#000000"
   borderopacity="0.25"
   inkscape:showpageshadow="2"
   inkscape:pageopacity="0.0"
   inkscape:pagecheckerboard="0"
   inkscape:deskcolor="#d1d1d1"
   showgrid="false"
   inkscape:zoom="2.9996795"
   inkscape:cx="90.009615"
   inkscape:cy="83.008867"
   inkscape:window-width="1366"
   inkscape:window-height="697"
   inkscape:window-x="-8"
   inkscape:window-y="-8"
   inkscape:window-maximized="1"
   inkscape:current-layer="Layer_4" />
<circle
   style="fill:#616161"
   cx="58.5"
   cy="117.94"
   r="6.0599999"
   id="circle2" /><circle
   style="fill:#9e9e9e"
   cx="58.5"
   cy="117.94"
   r="2.5599999"
   id="circle4" /><path
   style="fill:#616161"
   d="m 44.18,115.27 -1.16,-0.71 c -1.48,-0.91 -1.94,-2.84 -1.03,-4.32 l 2.62,-4.26 c 0.91,-1.48 2.84,-1.94 4.32,-1.03 l 1.16,0.71 c 1.48,0.91 1.94,2.84 1.03,4.32 l -2.62,4.26 c -0.91,1.48 -2.85,1.94 -4.32,1.03 z"
   id="path8" /><circle
   style="fill:#616161"
   cx="28.75"
   cy="99.639999"
   r="6.0599999"
   id="circle10" /><circle
   style="fill:#9e9e9e"
   cx="28.75"
   cy="99.639999"
   r="2.5599999"
   id="circle12" /><path
   style="fill:#616161"
   d="m 14.42,96.97 -1.16,-0.71 c -1.48,-0.91 -1.94,-2.84 -1.03,-4.32 l 2.62,-4.26 c 0.91,-1.48 2.84,-1.94 4.32,-1.03 l 1.16,0.71 c 1.48,0.91 1.94,2.84 1.03,4.32 l -2.62,4.26 c -0.91,1.47 -2.84,1.93 -4.32,1.03 z"
   id="path16" /><polygon
   style="fill:#bdbdbd;stroke:#bdbdbd;stroke-width:1.0225;stroke-miterlimit:10;stroke-opacity:1"
   points="71.86,28.86 82.63,11.3 85.89,13.56 75.21,30.98 "
   id="polygon25" /><polygon
   style="fill:#bdbdbd;stroke:#bdbdbd;stroke-width:1.0225;stroke-miterlimit:10;stroke-opacity:1"
   points="88.43,39.31 99.48,21.27 102.87,23.34 91.81,41.38 "
   id="polygon32" /><path
   style="fill:#616161"
   d="m 84.25,6.02 -3.07,5.01 c -0.29,0.47 -0.26,1.02 0.19,1.29 0,0 0.82,-0.47 2.43,0.57 1.61,1.04 1.75,2.02 1.75,2.02 0.45,0.27 0.88,-0.08 1.17,-0.55 l 1.19,-1.95 c 0.79,-1.29 2.16,-1.84 3.39,-1.09 l 7.33,4.49 c 1.23,0.75 1.58,2.41 0.79,3.7 l -0.51,0.85 c -0.34,0.56 -0.91,1.21 -0.38,1.54 0,0 0.8,-0.2 2.44,0.87 1.64,1.08 1.76,1.71 1.76,1.71 0.53,0.33 1.06,0.01 1.4,-0.55 l 2.55,-4.17 c 0.64,-1.04 1.11,-3.09 -0.39,-5.31 -1.21,-1.79 -2.3,-2.88 -7.91,-6.32 C 92.73,4.67 91.62,4.49 89.53,4.06 87.18,3.65 84.88,4.99 84.25,6.02 Z"
   id="path34" /><path
   style="fill:#0277bd"
   d="m 107.11,57.86 c 2.05,-3.33 1,-7.7 -2.33,-9.74 l -14.67,-9.02 -40.68,66.13 14.71,9.05 c 3.33,2.05 7.7,1 9.74,-2.33 z"
   id="path40" /><path
   style="fill:#03a9f4"
   d="m 19.09,86.64 30.66,18.86 c 3.33,2.05 7.7,1 9.74,-2.33 L 92.75,49.03 c 2.05,-3.33 1,-7.7 -2.33,-9.74 L 59.76,20.44 c -3.33,-2.05 -7.7,-1 -9.74,2.33 L 16.76,76.9 c -2.05,3.34 -1.01,7.7 2.33,9.74 z"
   id="path42" /><path
   style="fill:#212121"
   d="m 58.96,111.09 c 1.44,-0.03 2.78,-0.41 4.21,-0.85 1.81,-0.56 3.33,-1.46 4.35,-3.11 0,0 32.18,-52.4 32.18,-52.4 1.18,-1.92 1.18,-4.23 0.46,-6.31 -0.36,-1.05 -0.8,-2.21 -1.64,-3.33 -0.7,-0.93 -1.95,-2.04 -2.01,-2.07 0.78,0 1.94,0.72 3.54,2.22 2.93,2.74 3.38,7.17 1.33,10.51 0,0.01 -32.18,52.4 -32.18,52.4 -1.16,1.9 -3.03,3.3 -5.17,3.9 -0.97,0.27 -2.17,0.38 -3.2,0.27 -1.54,-0.16 -1.87,-1.23 -1.87,-1.23 z"
   id="path44" /><path
   style="fill:#424242"
   d="m 54.92,108.65 -4.49,-2.72 4.37,-7.14 7.67,4.65 c 0.66,0.4 0.86,1.26 0.46,1.91 0.01,0.01 -3.14,6.3 -8.01,3.3 z"
   id="path58" /><path
   style="fill:#757575"
   d="m 50.75,96.3 c -0.66,-0.4 -1.51,-0.19 -1.92,0.46 l -1.51,2.47 c -1.17,1.91 -0.57,4.41 1.32,5.59 l 1.11,0.68 c 3.02,1.86 7.59,1.9 10.25,-2.93 0.15,-0.27 0.05,-0.61 -0.21,-0.76 z"
   id="path60" /><path
   style="fill:#424242"
   d="m 73.11,110.06 c -1.04,-0.63 -2.01,-0.39 -2.84,0.73 -2.22,2.99 -4.53,3.54 -6.12,3.5 l 0.58,0.35 c 3.53,2.25 7.65,0.79 9.76,-3.5 0.05,-0.1 0.01,-0.22 -0.08,-0.28 z"
   id="path62" />
<g
   id="g23143"
   transform="matrix(0.92718071,-0.9271807,0.9271807,0.92718071,128.75484,72.65647)"
   style="stroke-width:0.762642" /><g
   id="g13941"><path
     d="M 48.666075,34.778784 C 36.8293,37.950439 40.104108,51.296792 40.808073,53.92402 c 0.703962,2.627229 6.699483,3.301108 13.391982,1.507857 6.694398,-1.793758 11.547321,-5.376505 10.843868,-8.001834 C 64.339959,44.802815 60.50475,31.606621 48.666075,34.778784 Z"
     style="fill:#ffffff;stroke-width:0.196667"
     id="path12059" /><path
     d="m 49.346876,36.66511 c -9.727151,2.606383 -7.035999,13.574064 -6.4575,15.733051 0.578498,2.158988 5.505459,2.712764 11.005179,1.239118 5.50128,-1.474064 9.489285,-4.418271 8.911205,-6.575697 C 62.227261,44.902595 59.075587,34.05831 49.346876,36.66511 Z"
     style="fill:#fcc21b;stroke-width:0.161616"
     id="path18126" /><g
     id="g11270"
     transform="matrix(0.15610899,-0.04182928,0.04182928,0.15610899,38.529929,36.387749)"><path
       d="m 52.394192,83.747242 c 5.626193,4.469593 17.165422,4.469593 22.791616,0"
       style="clip-rule:evenodd;fill:none;fill-rule:nonzero;stroke:#2f2f2f;stroke-width:5.24183px;stroke-linecap:round;stroke-miterlimit:10"
       id="path33798" /><g
       id="g11261"><path
         d="m 42.210117,71.184825 c -4.49,0.04 -8.17,-4.27 -8.22,-9.62 -0.05,-5.37 3.55,-9.75 8.04,-9.79 4.48,-0.04 8.17,4.27 8.22,9.64 0.05,5.36 -3.55,9.73 -8.04,9.77 z m 44.109999,0 c 4.48,-0.01 8.11,-4.36 8.1,-9.71 -0.01,-5.37 -3.66,-9.7 -8.14,-9.69 -4.49,0.01 -8.129999,4.36 -8.119999,9.73 0.02,5.35 3.669999,9.68 8.159999,9.67 z"
         style="clip-rule:evenodd;fill:#2f2f2f;fill-rule:nonzero;stroke-linejoin:round;stroke-miterlimit:2"
         id="path18522" /><g
         transform="matrix(1.13352,0,0,0.833333,38.546317,11.500277)"
         id="g18530"
         style="clip-rule:evenodd;fill-rule:evenodd;stroke-linejoin:round;stroke-miterlimit:2"><ellipse
           cx="42.119999"
           cy="74.657463"
           rx="11.88"
           ry="6"
           style="fill:#fcc21b"
           id="ellipse18528" /></g><g
         transform="matrix(1.13352,0,0,0.833333,-5.6236435,11.500277)"
         id="g18534"
         style="clip-rule:evenodd;fill-rule:evenodd;stroke-linejoin:round;stroke-miterlimit:2"><ellipse
           cx="42.119999"
           cy="74.657463"
           rx="11.88"
           ry="6"
           style="fill:#fcc21b"
           id="ellipse18532" /></g></g></g><g
     id="g13629"
     transform="matrix(0.12815457,-0.03433891,0.0347851,0.12981978,41.756729,36.546554)"
     style="stroke-width:1.21029"><path
       style="color:#000000;fill:#2f2f2f;-inkscape-stroke:none"
       d="m 53.171875,78.695312 -0.298828,0.002 -0.296875,0.03125 c -0.527771,0.05737 -1.515576,0.122044 -2.845703,0.789062 -1.330128,0.667019 -2.613684,2.065958 -3.207032,3.267578 -1.186695,2.40324 -1.115462,4.018618 -1.230468,6.603516 v 0.002 c -0.118759,2.696535 0.109666,5.551131 -0.511719,9.611328 -0.621385,4.060194 -2.023796,8.966914 -5.425781,14.400384 -4.606596,7.35139 -7.611328,13.67062 -7.611328,19.90235 0,2.71627 -0.166344,7.74448 2.800781,12.64648 4.359876,7.20299 12.015027,10.06761 18.58789,10.65235 3.286432,0.29236 6.412884,0.0677 9.199219,-0.51368 2.785429,-0.5812 5.186968,-1.33641 7.472656,-3.17187 l 0.002,-0.002 c 2.477055,-1.9892 4.040761,-4.14467 4.947265,-6.2129 0.453397,-1.03444 0.832117,-1.89622 0.835938,-3.59375 7.82e-4,-0.34749 -0.01782,-0.82926 -0.0957,-1.34179 0.0032,-0.005 0.0086,-0.008 0.01172,-0.0137 l 0.002,-0.002 c 0.773431,-1.27707 1.407609,-2.55077 1.892579,-3.89843 0.09168,-0.0142 0.220211,-0.006 0.308593,-0.0215 l 0.148438,-0.0254 0.148437,-0.0332 c 6.359613,-1.45424 10.440958,-8.4237 8.988282,-14.82227 -0.910222,-4.0124 -4.787084,-7.24845 -9.445313,-7.96875 -0.198468,-3.37091 -1.294222,-6.72816 -3.896484,-9.14062 -2.596625,-2.40724 -6.155525,-3.25596 -9.675782,-3.08008 0.09415,-1.22345 0.21534,-2.42943 0.265625,-3.714842 0.195647,-5.012808 0.151522,-9.023567 -1.113281,-12.800781 -0.632401,-1.888608 -1.677469,-3.842029 -3.496094,-5.337891 -1.818624,-1.495862 -4.287459,-2.222529 -6.460937,-2.212891 z m -3.777344,40.273438 c 0.01,0.004 0.01931,0.006 0.0293,0.01 -0.225105,0.39001 -0.456997,0.57537 -0.648437,1.21679 -0.396712,1.32918 -0.273078,3.75171 0.796875,5.33594 0.444141,0.65762 1.076249,1.19401 1.740234,1.62109 -0.07167,0.10043 -0.157293,0.14241 -0.228516,0.24805 -0.484516,0.71868 -1.085475,1.52876 -1.320312,3.31445 -0.234837,1.7857 1.113296,5.1349 3.068359,6.26368 1.458546,0.84208 2.711352,0.84895 3.765625,0.69335 -0.0057,0.19182 -0.04644,0.39778 -0.04297,0.58399 0.04351,2.33366 0.877467,4.59681 2.417969,6.63476 -1.473768,0.22561 -3.094056,0.41334 -4.820312,0.25977 -4.177155,-0.37161 -7.810121,-1.91196 -9.771485,-5.15234 -0.706403,-1.16705 -1.140625,-4.38328 -1.140625,-6.69336 0,-1.09419 1.906531,-7.49091 5.859375,-13.79883 v -0.002 c 0.113367,-0.18107 0.184842,-0.35457 0.294922,-0.53516 z"
       id="path13625" /><path
       id="path12581"
       style="fill:#fcc21b;fill-opacity:1;stroke:none;stroke-width:11.4978;stroke-dasharray:none;stroke-opacity:1"
       d="m 53.196929,84.444133 c -1.379998,0.149999 -1.950156,0.479223 -2.160156,5.199218 -0.17,3.859996 0.911399,14.480559 -6.808594,26.810549 -4.279995,6.82998 -6.737157,13.18699 -6.737157,16.85016 0,2.51318 0.134764,6.63678 1.971532,9.67132 6.321253,10.44339 22.577198,8.80653 26.744141,5.45898 3.549996,-2.85 4.089843,-6.03187 3.339844,-5.67187 -1.229999,0.59 -2.889535,1.16015 -5.769532,-0.83985 -1.909998,-2.06999 -1.978018,-5.69729 -0.128906,-6.88867 1.130886,-0.72863 2.926547,-0.98976 3.094811,-0.36179 0.168264,0.62797 -0.557625,0.77816 -1.504967,1.64109 -1.072665,0.97708 -0.509999,3.02969 0.5,3.92969 0.459999,0.44 3.139611,1.36124 4.849609,-1.46875 2.349998,-3.88 2.319686,-5.53055 0.429688,-7.81055 -0.67518,-0.88038 -3.041688,-3.14588 -7.13142,-2.80197 -4.405306,0.37046 -7.377475,4.29988 -8.178433,3.83745 -0.800958,-0.46244 0.420558,-2.01486 2.280556,-3.64486 1.13455,-0.98287 3.973518,-2.44801 7.080747,-2.74717 2.014195,-0.19392 4.141113,0.1021 5.989565,1.33702 1.569999,-3.11 1.769216,-7.06016 -1.800781,-8.66015 -2.2902,-0.81686 -5.097732,-0.25513 -7.797108,0.73513 -3.719946,1.36467 -6.756063,3.83719 -7.122814,3.29416 -0.366751,-0.54303 0.489143,-1.40946 2.119141,-2.93946 1.629998,-1.52999 9.631646,-6.92077 15.43164,-3.05077 0.11,-5.52 -2.940161,-8.58906 -8.660156,-7.78906 -8.739991,1.22999 -11.561087,6.5612 -12.451172,5.01953 -0.890085,-1.54168 4.841095,-4.69938 6.121094,-6.10938 1.319999,-1.46 1.43961,-4.5311 1.59961,-8.621091 0.369999,-9.479991 -0.790786,-14.398906 -5.300782,-14.378906 z m 22.34375,35.984367 c -0.230722,0.009 -0.468516,0.0272 -0.71289,0.0547 1.029999,3.21 -0.621173,6.88063 -1.451172,8.64062 0.709999,0.85 1.151641,1.91969 1.43164,3.17969 0.744827,0.0185 1.37309,-0.0404 1.916016,-0.13476 3.52897,-0.80696 5.542586,-4.08181 4.664062,-7.94532 -0.459374,-2.02499 -2.386819,-3.92763 -5.847656,-3.79492 z"
       sodipodi:nodetypes="cccsscccszscccszcsccszscczcccscccccss" /></g></g><g
   id="g12326"
   transform="translate(-1.4143646,0.70718232)"><path
     d="m 58.405949,58.825691 c -15.422132,-4.132578 -20.419547,13.057402 -21.33677,16.478364 -0.916528,3.42356 5.408999,8.087359 14.12777,10.42489 8.72102,2.335537 16.526991,1.458614 17.444818,-1.965293 0.917222,-3.420964 5.184668,-20.806332 -10.235818,-24.937961 z"
     style="clip-rule:evenodd;fill:#ffffff;fill-rule:nonzero;stroke-width:1.344;stroke-linejoin:round;stroke-miterlimit:2"
     id="path12213" /><path
     d="m 57.800716,60.502262 c -13.546684,-3.630026 -17.936375,11.469522 -18.742057,14.47447 -0.805071,3.007229 4.751224,7.103875 12.409726,9.157144 7.660478,2.051518 14.517184,1.281236 15.323396,-1.726299 0.805681,-3.004948 4.554173,-18.276124 -8.991065,-21.905315 z"
     style="clip-rule:evenodd;fill:#fcc21b;fill-rule:nonzero;stroke-width:1.18056;stroke-linejoin:round;stroke-miterlimit:2"
     id="path32154" /><path
     d="m 62.373762,79.908897 c -2.173949,0.179187 -4.090701,-1.409404 -4.28978,-3.557246 -0.192766,-2.14709 1.403687,-4.039059 3.576109,-4.223947 2.166191,-0.180774 4.087057,1.414047 4.287276,3.561584 0.194824,2.150204 -1.408248,4.040281 -3.574745,4.219915 z"
     style="clip-rule:evenodd;fill:#fcc21b;fill-rule:nonzero;stroke-width:1.18056;stroke-linejoin:round;stroke-miterlimit:2"
     id="path32156" /><path
     d="m 62.357071,79.750817 c -2.085288,0.17254 -3.924775,-1.3512 -4.112952,-3.412743 -0.187566,-2.059261 1.344871,-3.875412 3.430688,-4.050539 2.07981,-0.174739 3.922271,1.355538 4.113563,3.415023 0.185591,2.061014 -1.350573,3.876941 -3.431299,4.048259 z"
     style="clip-rule:evenodd;fill:#fcc01c;fill-rule:nonzero;stroke-width:1.18056;stroke-linejoin:round;stroke-miterlimit:2"
     id="path32158" /><path
     d="m 62.3438,79.59182 c -1.994345,0.165283 -3.756872,-1.294747 -3.937568,-3.269073 -0.180085,-1.972046 1.288112,-3.708651 3.284962,-3.878272 1.990618,-0.165506 3.755814,1.299919 3.937039,3.27166 0.149517,1.721129 -0.968807,3.317542 -2.638248,3.764871 -0.210961,0.05653 -0.427116,0.09367 -0.646185,0.110814 z"
     style="clip-rule:evenodd;fill:#fcbe1c;fill-rule:nonzero;stroke-width:1.18056;stroke-linejoin:round;stroke-miterlimit:2"
     id="path32160" /><path
     d="m 62.328554,79.434574 c -1.907434,0.156662 -3.590945,-1.236542 -3.76302,-3.123958 -0.145397,-1.646456 0.924264,-3.173609 2.519584,-3.601077 0.202978,-0.05439 0.410011,-0.08909 0.618206,-0.105761 1.903402,-0.158025 3.588441,1.24088 3.765077,3.127073 0.169183,1.885746 -1.23789,3.544863 -3.139847,3.703723 z"
     style="clip-rule:evenodd;fill:#fbbb1d;fill-rule:nonzero;stroke-width:1.18056;stroke-linejoin:round;stroke-miterlimit:2"
     id="path32162" /><path
     d="m 62.315284,79.275577 c -1.819607,0.151461 -3.42563,-1.180618 -3.589307,-2.977396 -0.138386,-1.570115 0.880638,-3.026255 2.401836,-3.433863 0.193856,-0.05194 0.391461,-0.08534 0.591368,-0.101014 1.81474,-0.151379 3.422514,1.182675 3.589694,2.983404 0.134048,1.56761 -0.884752,3.020024 -2.40367,3.42702 -0.193856,0.05194 -0.39146,0.08534 -0.590227,0.100709 z"
     style="clip-rule:evenodd;fill:#fbb91e;fill-rule:nonzero;stroke-width:1.18056;stroke-linejoin:round;stroke-miterlimit:2"
     id="path32164" /><path
     d="m 62.299733,79.117192 c -1.731557,0.142533 -3.257952,-1.120439 -3.414759,-2.832282 -0.131374,-1.493773 0.839293,-2.879512 2.28751,-3.267564 0.183593,-0.04919 0.371769,-0.08128 0.560802,-0.09649 1.726384,-0.143592 3.255753,1.125917 3.415675,2.835703 0.128788,1.493243 -0.841349,2.876396 -2.288426,3.264143 -0.183593,0.04919 -0.371769,0.08128 -0.560802,0.09649 z"
     style="clip-rule:evenodd;fill:#fbb71e;fill-rule:nonzero;stroke-width:1.18056;stroke-linejoin:round;stroke-miterlimit:2"
     id="path32166" /><path
     d="m 62.286462,78.958195 c -1.641448,0.136722 -3.091496,-1.06482 -3.239376,-2.688613 -0.125502,-1.417125 0.794527,-2.731852 2.168623,-3.100043 0.17447,-0.04675 0.353218,-0.07753 0.532823,-0.09144 1.637721,-0.136946 3.08838,1.066877 3.241432,2.691727 0.121776,1.416902 -0.797723,2.729043 -2.171819,3.097234 -0.17333,0.04644 -0.352078,0.07723 -0.531683,0.09113 z"
     style="clip-rule:evenodd;fill:#fbb51f;fill-rule:nonzero;stroke-width:1.18056;stroke-linejoin:round;stroke-miterlimit:2"
     id="path32168" /><path
     d="m 62.270076,78.801255 c -1.553092,0.128935 -2.925569,-1.006616 -3.063687,-2.543803 -0.117351,-1.341088 0.754627,-2.584275 2.054601,-2.932605 0.164208,-0.044 0.331247,-0.07287 0.501118,-0.08661 1.536434,-0.131806 2.913331,1.011117 3.065438,2.545777 0.117045,1.339949 -0.753792,2.582829 -2.052626,2.930854 -0.165348,0.04431 -0.334667,0.07379 -0.504844,0.08639 z"
     style="clip-rule:evenodd;fill:#fab220;fill-rule:nonzero;stroke-width:1.18056;stroke-linejoin:round;stroke-miterlimit:2"
     id="path32170" /><path
     d="m 62.255359,78.641423 c -1.464735,0.121149 -2.757666,-0.950162 -2.891419,-2.398076 -0.111174,-1.263301 0.709861,-2.436616 1.934573,-2.764779 0.156225,-0.04186 0.316423,-0.0689 0.476866,-0.08133 1.460703,-0.122513 2.756832,0.951608 2.890055,2.402108 0.110868,1.26216 -0.708497,2.432583 -1.932069,2.760441 -0.156225,0.04186 -0.316422,0.0689 -0.478006,0.08164 z"
     style="clip-rule:evenodd;fill:#fab020;fill-rule:nonzero;stroke-width:1.18056;stroke-linejoin:round;stroke-miterlimit:2"
     id="path32172" /><path
     d="m 62.24156,78.485012 c -1.377825,0.112528 -2.59174,-0.891958 -2.717177,-2.254101 -0.105608,-1.187793 0.666234,-2.289261 1.817966,-2.59787 0.145962,-0.03911 0.296426,-0.06598 0.44744,-0.07712 1.362002,-0.116843 2.582089,0.896989 2.717788,2.256382 0.103022,1.187264 -0.669126,2.287592 -1.819718,2.595894 -0.145962,0.03911 -0.29445,0.06423 -0.445159,0.0765 z"
     style="clip-rule:evenodd;fill:#faae21;fill-rule:nonzero;stroke-width:1.18056;stroke-linejoin:round;stroke-miterlimit:2"
     id="path32174" /><path
     d="m 62.226843,78.32518 c -1.287411,0.107857 -2.426424,-0.836033 -2.542934,-2.110126 -0.09746,-1.111757 0.625724,-2.143964 1.703335,-2.432711 0.136839,-0.03667 0.275899,-0.06048 0.41718,-0.07145 1.273645,-0.109057 2.415021,0.839089 2.542099,2.111572 0.09974,1.111146 -0.621468,2.141602 -1.699078,2.430349 -0.13798,0.03697 -0.278181,0.06109 -0.420602,0.07237 z"
     style="clip-rule:evenodd;fill:#faac22;fill-rule:nonzero;stroke-width:1.18056;stroke-linejoin:round;stroke-miterlimit:2"
     id="path32176" /><path
     d="m 62.212738,78.167629 c -1.185818,0.103857 -2.25107,-0.779133 -2.36694,-1.964176 -0.09075,-1.036555 0.582098,-1.99661 1.585587,-2.265496 0.127717,-0.03422 0.257349,-0.05674 0.387756,-0.06723 1.187264,-0.103022 2.25168,0.781414 2.367856,1.967597 0.09014,1.034274 -0.581569,1.994024 -1.583917,2.262605 -0.127717,0.03422 -0.25849,0.05704 -0.390342,0.0667 z"
     style="clip-rule:evenodd;fill:#f9a922;fill-rule:nonzero;stroke-width:1.18056;stroke-linejoin:round;stroke-miterlimit:2"
     id="path32178" /><path
     d="m 62.196881,78.008103 c -1.098602,0.09637 -2.084308,-0.722374 -2.191557,-1.820507 -0.08343,-0.959072 0.539918,-1.848421 1.469286,-2.097447 0.117454,-0.03147 0.237657,-0.05268 0.359776,-0.06218 1.098908,-0.09523 2.083168,0.72268 2.191557,1.820507 0.08457,0.958767 -0.537331,1.848951 -1.46784,2.098282 -0.117453,0.03147 -0.239103,0.05185 -0.361222,0.06135 z"
     style="clip-rule:evenodd;fill:#f9a723;fill-rule:nonzero;stroke-width:1.18056;stroke-linejoin:round;stroke-miterlimit:2"
     id="path32180" /><path
     d="m 62.184751,77.848801 c -1.011386,0.08889 -1.918381,-0.66417 -2.017844,-1.673946 -0.07756,-0.882425 0.496292,-1.701067 1.351538,-1.930232 0.108332,-0.02903 0.219413,-0.04779 0.330658,-0.05682 1.011162,-0.08517 1.916711,0.667062 2.018454,1.676227 0.07612,0.88159 -0.496903,1.698786 -1.351009,1.927645 -0.108331,0.02903 -0.219412,0.04779 -0.331797,0.05713 z"
     style="clip-rule:evenodd;fill:#f9a524;fill-rule:nonzero;stroke-width:1.18056;stroke-linejoin:round;stroke-miterlimit:2"
     id="path32182" /><path
     d="m 62.168364,77.691861 c -0.924169,0.08141 -1.752759,-0.607106 -1.84246,-1.530277 -0.07055,-0.806082 0.451526,-1.553407 1.233791,-1.763017 0.09921,-0.02658 0.199721,-0.04374 0.302678,-0.05177 0.931094,-0.07838 1.756486,0.607329 1.844212,1.532252 0.07138,0.804636 -0.450691,1.551961 -1.231816,1.761265 -0.100349,0.02689 -0.203447,0.04351 -0.306405,0.05155 z"
     style="clip-rule:evenodd;fill:#f9a324;fill-rule:nonzero;stroke-width:1.18056;stroke-linejoin:round;stroke-miterlimit:2"
     id="path32184" /><path
     d="m 62.155094,77.532864 c -0.836953,0.07393 -1.587138,-0.550042 -1.667077,-1.386607 -0.07705,-0.834897 0.545725,-1.571316 1.392188,-1.641685 0.837565,-0.07165 1.58775,0.552322 1.668829,1.388582 0.06095,0.729211 -0.412237,1.403549 -1.119241,1.592992 -0.09009,0.02414 -0.181476,0.03885 -0.274699,0.04672 z"
     style="clip-rule:evenodd;fill:#f8a025;fill-rule:nonzero;stroke-width:1.18056;stroke-linejoin:round;stroke-miterlimit:2"
     id="path32186" /><path
     d="m 62.139848,77.375618 c -0.749737,0.06645 -1.421517,-0.492977 -1.493669,-1.241186 -0.05797,-0.654233 0.367389,-1.260757 1.001411,-1.430644 0.07982,-0.02139 0.16262,-0.03624 0.245275,-0.0425 0.755826,-0.06197 1.424103,0.493506 1.496256,1.241716 0.05653,0.653398 -0.367695,1.259616 -1.000577,1.429198 -0.0821,0.022 -0.165206,0.03571 -0.249001,0.04228 z"
     style="clip-rule:evenodd;fill:#f89e26;fill-rule:nonzero;stroke-width:1.18056;stroke-linejoin:round;stroke-miterlimit:2"
     id="path32188" /><path
     d="m 62.126272,77.215481 c -0.666859,0.05647 -1.258705,-0.432716 -1.319956,-1.094625 -0.04982,-0.578197 0.324903,-1.113708 0.884805,-1.263735 0.0707,-0.01894 0.142093,-0.03074 0.215015,-0.03684 0.668304,-0.05563 1.259316,0.434996 1.320567,1.096906 0.05065,0.576751 -0.323234,1.110816 -0.883136,1.260843 -0.0707,0.01894 -0.144374,0.03135 -0.217295,0.03745 z"
     style="clip-rule:evenodd;fill:#f89c26;fill-rule:nonzero;stroke-width:1.18056;stroke-linejoin:round;stroke-miterlimit:2"
     id="path32190" /><path
     d="m 62.111026,77.058235 c -0.574164,0.05118 -1.090803,-0.376262 -1.146853,-0.950344 -0.04395,-0.501549 0.281277,-0.966354 0.767057,-1.09652 0.06158,-0.0165 0.125824,-0.0276 0.189316,-0.03239 0.578503,-0.04868 1.091721,0.379683 1.143739,0.952401 0.04478,0.500103 -0.280443,0.964908 -0.765083,1.094768 -0.06158,0.0165 -0.124683,0.0273 -0.188176,0.03209 z"
     style="clip-rule:evenodd;fill:#f89a27;fill-rule:nonzero;stroke-width:1.18056;stroke-linejoin:round;stroke-miterlimit:2"
     id="path32192" /><path
     d="m 62.09745,76.898098 c -0.486113,0.04226 -0.922596,-0.318669 -0.970859,-0.804395 -0.03694,-0.425207 0.238791,-0.819305 0.65045,-0.92961 0.05132,-0.01375 0.105298,-0.0221 0.159057,-0.02673 0.487559,-0.04142 0.923512,0.32209 0.969495,0.808427 0.03777,0.423761 -0.237122,0.816414 -0.64764,0.926413 -0.05246,0.01405 -0.106438,0.02241 -0.160197,0.02704 z"
     style="clip-rule:evenodd;fill:#f79728;fill-rule:nonzero;stroke-width:1.18056;stroke-linejoin:round;stroke-miterlimit:2"
     id="path32194" /><path
     d="m 62.08137,76.742298 c -0.398898,0.03477 -0.757281,-0.262744 -0.795782,-0.661865 -0.03106,-0.34856 0.195471,-0.670811 0.533008,-0.761255 0.04219,-0.0113 0.0853,-0.01919 0.129632,-0.02251 0.40407,-0.03372 0.759255,0.260993 0.796922,0.66156 0.0322,0.348254 -0.192885,0.67134 -0.530422,0.761784 -0.04333,0.01161 -0.08789,0.01866 -0.133358,0.02229 z"
     style="clip-rule:evenodd;fill:#f79528;fill-rule:nonzero;stroke-width:1.18056;stroke-linejoin:round;stroke-miterlimit:2"
     id="path32196" /><path
     d="m 62.067793,76.582161 c -0.310846,0.02585 -0.588767,-0.204011 -0.620622,-0.51447 -0.02375,-0.271076 0.152151,-0.522316 0.415566,-0.592899 0.03421,-0.0092 0.06903,-0.01605 0.103934,-0.01807 0.312822,-0.0276 0.592799,0.205375 0.620094,0.517056 0.0223,0.270242 -0.153903,0.520342 -0.415038,0.590313 -0.03421,0.0092 -0.06903,0.01605 -0.103934,0.01807 z"
     style="clip-rule:evenodd;fill:#f79329;fill-rule:nonzero;stroke-width:1.18056;stroke-linejoin:round;stroke-miterlimit:2"
     id="path32198" /><g
     id="g32244"
     transform="matrix(1.1403286,-0.30555269,0.30555269,1.1403286,-37.030076,15.705366)"
     style="clip-rule:evenodd;fill-rule:evenodd;stroke-linejoin:round;stroke-miterlimit:2">
                <path
   d="m 55.243,67.243 c -1.817,-0.33 -3.038,-2.05 -2.728,-3.852 0.31,-1.8 2.033,-2.997 3.851,-2.672 1.812,0.327 3.034,2.053 2.727,3.854 -0.312,1.802 -2.037,2.997 -3.85,2.67 z"
   style="fill:#fcc21b;fill-rule:nonzero"
   id="path32200" />
                <path
   d="m 55.266,67.11 c -1.744,-0.316 -2.916,-1.967 -2.617,-3.697 0.299,-1.725 1.95,-2.874 3.695,-2.562 1.739,0.315 2.912,1.969 2.616,3.698 -0.265,1.505 -1.586,2.614 -3.114,2.614 -0.195,0 -0.389,-0.018 -0.58,-0.054 z"
   style="fill:#fcc01c;fill-rule:nonzero"
   id="path32202" />
                <path
   d="m 55.289,66.978 c -1.668,-0.303 -2.79,-1.883 -2.506,-3.538 0.285,-1.652 1.868,-2.752 3.538,-2.453 1.665,0.301 2.788,1.886 2.504,3.541 -0.286,1.652 -1.871,2.75 -3.536,2.45 z"
   style="fill:#fcbe1c;fill-rule:nonzero"
   id="path32204" />
                <path
   d="m 55.311,66.844 c -1.595,-0.289 -2.667,-1.799 -2.394,-3.381 0.274,-1.58 1.784,-2.63 3.38,-2.344 1.592,0.287 2.664,1.8 2.396,3.383 -0.244,1.377 -1.453,2.391 -2.852,2.391 -0.178,0 -0.355,-0.017 -0.53,-0.049 z"
   style="fill:#fbbb1d;fill-rule:nonzero"
   id="path32206" />
                <path
   d="m 55.335,66.713 c -1.522,-0.276 -2.544,-1.717 -2.283,-3.225 0.26,-1.507 1.702,-2.508 3.223,-2.235 1.518,0.275 2.541,1.717 2.284,3.227 -0.234,1.313 -1.387,2.279 -2.721,2.279 -0.169,0 -0.337,-0.015 -0.503,-0.046 z"
   style="fill:#fbb91e;fill-rule:nonzero"
   id="path32208" />
                <path
   d="m 55.357,66.579 c -1.448,-0.264 -2.42,-1.632 -2.171,-3.069 0.221,-1.251 1.319,-2.172 2.59,-2.172 0.16,0 0.32,0.015 0.477,0.044 1.444,0.262 2.417,1.635 2.172,3.071 -0.222,1.25 -1.319,2.17 -2.589,2.17 -0.16,0 -0.321,-0.015 -0.479,-0.044 z"
   style="fill:#fbb71e;fill-rule:nonzero"
   id="path32210" />
                <path
   d="m 55.38,66.447 c -1.372,-0.248 -2.295,-1.55 -2.06,-2.91 0.209,-1.187 1.25,-2.061 2.455,-2.061 0.153,0 0.305,0.014 0.455,0.042 1.369,0.246 2.293,1.55 2.061,2.913 -0.211,1.186 -1.252,2.058 -2.456,2.058 -0.153,0 -0.304,-0.014 -0.454,-0.042 z"
   style="fill:#fbb51f;fill-rule:nonzero"
   id="path32212" />
                <path
   d="m 55.403,66.313 c -1.3,-0.235 -2.173,-1.465 -1.95,-2.753 0.198,-1.123 1.184,-1.949 2.324,-1.949 0.144,0 0.287,0.013 0.429,0.039 1.296,0.234 2.17,1.467 1.95,2.755 -0.198,1.122 -1.182,1.948 -2.321,1.948 -0.145,0 -0.29,-0.013 -0.432,-0.04 z"
   style="fill:#fab220;fill-rule:nonzero"
   id="path32214" />
                <path
   d="m 55.426,66.182 c -1.225,-0.223 -2.048,-1.382 -1.84,-2.598 0.186,-1.058 1.115,-1.838 2.189,-1.838 0.137,0 0.274,0.013 0.409,0.038 1.222,0.22 2.047,1.383 1.838,2.599 -0.188,1.058 -1.117,1.836 -2.192,1.836 -0.135,0 -0.271,-0.012 -0.404,-0.037 z"
   style="fill:#fab020;fill-rule:nonzero"
   id="path32216" />
                <path
   d="m 55.449,66.048 c -1.153,-0.21 -1.926,-1.298 -1.728,-2.442 0.176,-0.994 1.048,-1.726 2.058,-1.726 0.128,0 0.256,0.012 0.382,0.035 1.148,0.207 1.924,1.3 1.728,2.441 -0.175,0.995 -1.048,1.727 -2.058,1.727 -0.128,0 -0.256,-0.012 -0.382,-0.035 z"
   style="fill:#faae21;fill-rule:nonzero"
   id="path32218" />
                <path
   d="m 55.472,65.916 c -1.076,-0.195 -1.802,-1.215 -1.618,-2.283 0.163,-0.931 0.98,-1.616 1.925,-1.616 0.12,0 0.24,0.011 0.358,0.033 1.066,0.19 1.792,1.216 1.617,2.285 -0.165,0.93 -0.981,1.614 -1.926,1.614 -0.119,0 -0.239,-0.011 -0.356,-0.033 z"
   style="fill:#faac22;fill-rule:nonzero"
   id="path32220" />
                <path
   d="m 55.494,65.782 c -0.993,-0.176 -1.669,-1.131 -1.506,-2.126 0.153,-0.868 0.914,-1.506 1.795,-1.506 0.112,0 0.223,0.01 0.332,0.03 0.994,0.176 1.67,1.133 1.505,2.129 -0.153,0.866 -0.913,1.504 -1.792,1.504 -0.112,0 -0.224,-0.01 -0.334,-0.031 z"
   style="fill:#f9a922;fill-rule:nonzero"
   id="path32222" />
                <path
   d="m 55.517,65.648 c -0.921,-0.162 -1.548,-1.048 -1.395,-1.97 0.142,-0.803 0.847,-1.394 1.662,-1.394 0.103,0 0.206,0.009 0.308,0.028 0.92,0.163 1.546,1.048 1.394,1.97 -0.14,0.803 -0.845,1.395 -1.66,1.395 -0.104,0 -0.208,-0.01 -0.31,-0.029 z"
   style="fill:#f9a723;fill-rule:nonzero"
   id="path32224" />
                <path
   d="m 55.54,65.517 c -0.847,-0.15 -1.424,-0.966 -1.283,-1.814 0.13,-0.739 0.779,-1.283 1.529,-1.283 0.095,0 0.19,0.009 0.283,0.026 0.846,0.151 1.423,0.965 1.285,1.814 -0.131,0.739 -0.78,1.283 -1.53,1.283 -0.095,0 -0.19,-0.009 -0.284,-0.026 z"
   style="fill:#f9a524;fill-rule:nonzero"
   id="path32226" />
                <path
   d="m 55.563,65.383 c -0.774,-0.136 -1.301,-0.881 -1.173,-1.656 0.119,-0.675 0.71,-1.172 1.396,-1.172 0.087,0 0.173,0.008 0.259,0.024 0.779,0.14 1.306,0.88 1.173,1.658 -0.118,0.674 -0.709,1.17 -1.394,1.17 -0.087,0 -0.175,-0.008 -0.261,-0.024 z"
   style="fill:#f9a324;fill-rule:nonzero"
   id="path32228" />
                <path
   d="m 55.586,65.251 c -0.7,-0.124 -1.176,-0.798 -1.061,-1.499 0.12,-0.7 0.792,-1.166 1.5,-1.038 0.7,0.125 1.177,0.798 1.062,1.5 -0.111,0.61 -0.647,1.058 -1.267,1.058 -0.079,0 -0.157,-0.007 -0.234,-0.021 z"
   style="fill:#f8a025;fill-rule:nonzero"
   id="path32230" />
                <path
   d="m 55.608,65.117 c -0.627,-0.111 -1.054,-0.715 -0.95,-1.343 0.096,-0.547 0.576,-0.949 1.131,-0.949 0.07,0 0.141,0.006 0.21,0.019 0.632,0.115 1.058,0.714 0.951,1.344 -0.095,0.547 -0.575,0.95 -1.13,0.95 -0.071,0 -0.142,-0.007 -0.212,-0.02 z"
   style="fill:#f89e26;fill-rule:nonzero"
   id="path32232" />
                <path
   d="m 55.631,64.986 c -0.554,-0.099 -0.931,-0.632 -0.84,-1.187 0.086,-0.482 0.509,-0.837 0.999,-0.837 0.063,0 0.125,0.005 0.187,0.017 0.558,0.1 0.934,0.63 0.84,1.186 -0.085,0.483 -0.509,0.838 -0.999,0.838 -0.063,0 -0.125,-0.006 -0.187,-0.017 z"
   style="fill:#f89c26;fill-rule:nonzero"
   id="path32234" />
                <path
   d="m 55.654,64.852 c -0.481,-0.085 -0.809,-0.547 -0.73,-1.029 0.074,-0.419 0.442,-0.728 0.868,-0.728 0.054,0 0.108,0.005 0.162,0.015 0.48,0.084 0.808,0.547 0.729,1.028 -0.073,0.42 -0.441,0.729 -0.867,0.729 -0.054,0 -0.109,-0.005 -0.162,-0.015 z"
   style="fill:#f89a27;fill-rule:nonzero"
   id="path32236" />
                <path
   d="m 55.677,64.72 c -0.407,-0.072 -0.684,-0.464 -0.617,-0.872 0.063,-0.355 0.375,-0.616 0.735,-0.616 0.046,0 0.091,0.004 0.136,0.012 0.407,0.072 0.685,0.464 0.618,0.872 -0.063,0.356 -0.375,0.618 -0.736,0.618 -0.045,0 -0.091,-0.005 -0.136,-0.013 z"
   style="fill:#f79728;fill-rule:nonzero"
   id="path32238" />
                <path
   d="m 55.7,64.587 c -0.334,-0.059 -0.562,-0.381 -0.506,-0.716 0.051,-0.292 0.307,-0.506 0.603,-0.506 0.037,0 0.074,0.003 0.111,0.01 0.337,0.061 0.564,0.38 0.506,0.716 -0.05,0.291 -0.305,0.507 -0.601,0.507 -0.038,0 -0.076,-0.004 -0.113,-0.011 z"
   style="fill:#f79528;fill-rule:nonzero"
   id="path32240" />
                <path
   d="m 55.723,64.455 c -0.26,-0.047 -0.438,-0.298 -0.395,-0.559 0.04,-0.227 0.239,-0.394 0.47,-0.394 0.03,0 0.06,0.002 0.089,0.008 0.26,0.046 0.438,0.296 0.396,0.557 -0.041,0.228 -0.241,0.396 -0.473,0.396 -0.029,0 -0.058,-0.003 -0.087,-0.008 z"
   style="fill:#f79329;fill-rule:nonzero"
   id="path32242" />
            </g><path
     d="m 47.474854,69.708873 c -0.0755,0.07401 -0.167682,0.126818 -0.269172,0.154012 -0.323853,0.08678 -0.662189,-0.10856 -0.749272,-0.433554 -0.05683,-0.212101 0.0055,-0.440239 0.163243,-0.594954 0.05803,-0.0571 1.43919,-1.384172 3.556391,-0.817276 2.120093,0.568566 2.65219,2.408401 2.675554,2.486473 0.0692,0.317562 -0.126992,0.639017 -0.440582,0.723044 -0.309029,0.0828 -0.633801,-0.08928 -0.739107,-0.391056 -0.01497,-0.05588 -0.389114,-1.256047 -1.812474,-1.63731 -1.422831,-0.383849 -2.341964,0.473535 -2.384581,0.510621 z m 15.554529,4.386332 c -0.104605,0.02925 -0.214262,0.03052 -0.318403,0.0022 -0.209423,-0.05633 -0.373954,-0.218793 -0.433292,-0.426556 -0.01344,-0.05017 -0.381273,-1.249593 -1.806079,-1.63169 -1.449834,-0.388836 -2.377903,0.499054 -2.386638,0.507505 -0.0711,0.06305 -0.156525,0.109162 -0.248891,0.133912 -0.323854,0.08678 -0.661884,-0.10742 -0.748967,-0.432414 -0.05408,-0.201838 -0.001,-0.418938 0.142128,-0.573408 0.05803,-0.0571 1.43919,-1.384172 3.557837,-0.816441 2.117201,0.566897 2.649298,2.406732 2.670076,2.484274 0.08906,0.323242 -0.104529,0.663554 -0.427771,0.752611 z m -9.702311,3.665509 c -4.285903,-1.148104 -5.546624,-3.896351 -5.598398,-4.012032 -0.01281,-0.02957 -0.02365,-0.06088 -0.0319,-0.09167 -0.102971,-0.38429 0.128567,-0.783659 0.511718,-0.886325 0.335256,-0.08983 0.690512,0.07286 0.840394,0.385916 0.04636,0.100022 1.080196,2.247851 4.650957,3.203807 3.432694,0.919618 5.307843,-0.730478 5.385096,-0.802511 0.293068,-0.265525 0.75188,-0.245466 1.02052,0.04555 0.268335,0.289871 0.250863,0.749212 -0.03756,1.018382 -0.09662,0.09555 -2.50064,2.276023 -6.740826,1.138892 z"
     style="clip-rule:evenodd;fill:#2f2f2f;fill-rule:nonzero;stroke-width:1.18056;stroke-linejoin:round;stroke-miterlimit:2"
     id="path32246" /><path
     d="M 57.800716,60.502262 C 44.298915,56.884653 39.923005,71.935287 39.120051,74.932171 c -0.802954,2.996885 4.734544,7.082678 12.368854,9.127763 7.635756,2.04592 14.47269,1.274825 15.274809,-1.720613 0.802953,-2.996884 4.54139,-18.218922 -8.962998,-21.837059 z"
     style="clip-rule:evenodd;fill:none;fill-rule:nonzero;stroke-width:1.18056;stroke-linejoin:round;stroke-miterlimit:2"
     id="path32248" /><path
     style="fill:#ffffff;stroke:none;stroke-width:6.62624;stroke-linecap:round;stroke-opacity:1"
     d="m 41.537815,80.817897 c 0,0 -1.046621,2.33987 1.360544,3.729647 2.350368,1.356985 4.494192,-0.767839 4.494192,-0.767839"
     id="path12269"
     sodipodi:nodetypes="csc" /><path
     style="fill:#ffffff;stroke:none;stroke-width:6.62624;stroke-linecap:round;stroke-opacity:1"
     d="m 61.813089,85.569996 c 0,0 0.252843,2.55078 -2.47031,3.107879 -2.6589,0.543955 -4.020638,-2.14984 -4.020638,-2.14984"
     id="path12271"
     sodipodi:nodetypes="csc" /><g
     id="g32252"
     transform="matrix(1.1403286,-0.30555269,0.30555269,1.1403286,-37.030076,15.705366)"
     style="clip-rule:evenodd;fill-rule:evenodd;stroke-linejoin:round;stroke-miterlimit:2">
                <path
   d="m 51.034,73.158 c 0.646,0.664 1.735,0.841 2.18,0.117 l 1.511,-2.368 c 0.026,-0.038 1.7,-2.535 1.157,-4.699 l -0.007,-0.032 c -0.304,-1.66 -0.264,-2.687 0.113,-4.32 0.123,-0.54 0.038,-1.164 -0.576,-1.426 -0.435,-0.186 -0.926,-0.24 -1.649,1.073 -0.84,1.529 -1.408,3.206 -1.41,4.61 -0.005,1.96 -1.196,3.515 -1.726,4.646 -0.335,0.709 -0.289,1.727 0.407,2.399 z m 11.493,6.635 c -0.898,-0.227 -1.596,-1.082 -1.191,-1.829 l 1.295,-2.493 c 0.02,-0.041 1.345,-2.74 3.49,-3.351 l 0.032,-0.01 c 1.589,-0.566 2.459,-1.115 3.684,-2.257 0.407,-0.378 0.99,-0.616 1.524,-0.215 0.378,0.284 0.67,0.683 -0.105,1.964 -0.904,1.493 -2.073,2.823 -3.287,3.526 -1.696,0.985 -2.446,2.794 -3.16,3.819 -0.447,0.644 -1.352,1.113 -2.282,0.846 z"
   style="fill:#e48c15;fill-rule:nonzero"
   id="path32250" />
            </g></g></svg>
