<?xml version="1.0" encoding="UTF-8" standalone="no"?>
<svg
   width="128"
   height="128"
   version="1.1"
   id="svg48"
   sodipodi:docname="emoji_u1f604.svg"
   xml:space="preserve"
   inkscape:version="1.3 (0e150ed6c4, 2023-07-21)"
   xmlns:inkscape="http://www.inkscape.org/namespaces/inkscape"
   xmlns:sodipodi="http://sodipodi.sourceforge.net/DTD/sodipodi-0.dtd"
   xmlns:xlink="http://www.w3.org/1999/xlink"
   xmlns="http://www.w3.org/2000/svg"
   xmlns:svg="http://www.w3.org/2000/svg"><defs
     id="defs48"><path
       id="SVGID_1_"
       d="M64,9.81C1.88,9.81,0.41,79.45,0.41,93.24c0,13.77,28.47,24.94,63.59,24.94     c35.13,0,63.59-11.17,63.59-24.94C127.59,79.45,126.12,9.81,64,9.81z" /></defs><sodipodi:namedview
     id="namedview48"
     pagecolor="#ffffff"
     bordercolor="#000000"
     borderopacity="0.25"
     inkscape:showpageshadow="2"
     inkscape:pageopacity="0.0"
     inkscape:pagecheckerboard="0"
     inkscape:deskcolor="#d1d1d1"
     inkscape:zoom="8.515625"
     inkscape:cx="64"
     inkscape:cy="64"
     inkscape:current-layer="svg48" /><g
     id="g48"
     transform="translate(0,0.005)">&#10;	<g
   id="g46">&#10;		<defs
   id="defs1">&#10;			<path
   id="path48"
   d="M 64,9.81 C 1.88,9.81 0.41,79.45 0.41,93.24 c 0,13.77 28.47,24.94 63.59,24.94 35.13,0 63.59,-11.17 63.59,-24.94 C 127.59,79.45 126.12,9.81 64,9.81 Z" />&#10;		</defs>&#10;		<use
   xlink:href="#SVGID_1_"
   overflow="visible"
   fill="#fcc21b"
   id="use1" />&#10;		<clipPath
   id="SVGID_2_">&#10;			<use
   xlink:href="#SVGID_1_"
   overflow="visible"
   id="use2" />&#10;		</clipPath>&#10;		<g
   clip-path="url(#SVGID_2_)"
   id="g23">&#10;			<path
   fill="#fcc21b"
   d="M 21.72,63.5 C 12.63,66.76 2.6,62.16 -0.7,53.19 -3.99,44.23 0.67,34.3 9.76,31.02 c 9.06,-3.26 19.11,1.36 22.43,10.33 3.28,8.97 -1.4,18.89 -10.47,22.15 z"
   id="path2" />&#10;			<path
   fill="#fcc01c"
   d="M 21.48,62.84 C 12.76,65.97 3.14,61.56 -0.03,52.95 -3.19,44.35 1.28,34.83 10,31.68 c 8.69,-3.13 18.34,1.3 21.52,9.9 3.15,8.61 -1.34,18.13 -10.04,21.26 z"
   id="path3" />&#10;			<path
   fill="#fcbe1c"
   d="m 21.23,62.18 c -8.35,3 -17.56,-1.23 -20.6,-9.47 -3.02,-8.23 1.26,-17.35 9.61,-20.36 8.32,-2.99 17.56,1.25 20.6,9.48 3.02,8.24 -1.27,17.36 -9.61,20.35 z"
   id="path4" />&#10;			<path
   fill="#fbbb1d"
   d="M 20.99,61.52 C 13.01,64.39 4.21,60.34 1.3,52.47 -1.59,44.6 2.51,35.89 10.49,33.01 c 7.95,-2.86 16.79,1.19 19.69,9.06 2.9,7.87 -1.23,16.59 -9.19,19.45 z"
   id="path5" />&#10;			<path
   fill="#fbb91e"
   d="m 20.75,60.86 c -7.61,2.73 -16,-1.12 -18.77,-8.63 -2.75,-7.5 1.15,-15.81 8.76,-18.56 7.59,-2.73 16.02,1.13 18.78,8.64 2.75,7.5 -1.18,15.82 -8.77,18.55 z"
   id="path6" />&#10;			<path
   fill="#fbb71e"
   d="M 20.5,60.19 C 13.26,62.79 5.27,59.12 2.64,51.98 0.02,44.84 3.74,36.94 10.97,34.33 c 7.22,-2.6 15.24,1.08 17.86,8.22 2.64,7.14 -1.1,15.05 -8.33,17.64 z"
   id="path7" />&#10;			<path
   fill="#fbb51f"
   d="M 20.26,59.53 C 13.39,62 5.81,58.52 3.31,51.74 0.82,44.97 4.35,37.47 11.22,34.99 c 6.85,-2.46 14.46,1.02 16.95,7.8 2.5,6.78 -1.05,14.28 -7.91,16.74 z"
   id="path8" />&#10;			<path
   fill="#fab220"
   d="M 20.02,58.87 C 13.52,61.2 6.35,57.91 3.99,51.5 1.63,45.09 4.97,38 11.46,35.65 c 6.48,-2.33 13.68,0.97 16.04,7.38 2.36,6.41 -1,13.51 -7.48,15.84 z"
   id="path9" />&#10;			<path
   fill="#fab020"
   d="M 19.77,58.21 C 13.64,60.41 6.88,57.31 4.65,51.26 2.43,45.22 5.58,38.53 11.71,36.31 c 6.11,-2.2 12.9,0.91 15.13,6.96 2.22,6.05 -0.95,12.74 -7.07,14.94 z"
   id="path10" />&#10;			<path
   fill="#faae21"
   d="M 19.53,57.55 C 13.77,59.62 7.42,56.7 5.32,51.02 3.24,45.34 6.19,39.05 11.95,36.98 c 5.74,-2.06 12.12,0.86 14.21,6.54 2.09,5.67 -0.88,11.97 -6.63,14.03 z"
   id="path11" />&#10;			<path
   fill="#faac22"
   d="M 19.29,56.89 C 13.9,58.82 7.95,56.09 5.99,50.78 4.04,45.47 6.81,39.58 12.2,37.64 c 5.37,-1.93 11.34,0.8 13.3,6.12 1.95,5.31 -0.83,11.2 -6.21,13.13 z"
   id="path12" />&#10;			<path
   fill="#f9a922"
   d="M 19.04,56.23 C 14.02,58.03 8.48,55.49 6.66,50.54 4.85,45.59 7.42,40.11 12.44,38.3 c 5,-1.8 10.56,0.75 12.39,5.7 1.82,4.94 -0.78,10.43 -5.79,12.23 z"
   id="path13" />&#10;			<path
   fill="#f9a723"
   d="M 18.8,55.57 C 14.15,57.24 9.02,54.88 7.33,50.3 5.65,45.72 8.04,40.64 12.68,38.96 c 4.64,-1.67 9.78,0.69 11.47,5.28 1.69,4.58 -0.71,9.66 -5.35,11.33 z"
   id="path14" />&#10;			<path
   fill="#f9a524"
   d="M 18.56,54.91 C 14.28,56.44 9.56,54.28 8,50.06 6.45,45.84 8.65,41.17 12.93,39.63 c 4.27,-1.53 9,0.64 10.56,4.86 1.55,4.21 -0.66,8.88 -4.93,10.42 z"
   id="path15" />&#10;			<path
   fill="#f9a324"
   d="m 18.31,54.25 c -3.91,1.4 -8.22,-0.58 -9.65,-4.44 -1.41,-3.85 0.59,-8.12 4.5,-9.53 3.9,-1.4 8.23,0.58 9.65,4.44 1.43,3.85 -0.6,8.12 -4.5,9.53 z"
   id="path16" />&#10;			<path
   fill="#f8a025"
   d="m 18.07,53.58 c -3.54,1.27 -7.44,-0.52 -8.73,-4.01 -1.28,-3.49 0.54,-7.35 4.08,-8.63 3.53,-1.27 7.45,0.53 8.74,4.02 1.27,3.49 -0.56,7.35 -4.09,8.62 z"
   id="path17" />&#10;			<path
   fill="#f89e26"
   d="m 17.83,52.92 c -3.17,1.14 -6.67,-0.47 -7.82,-3.6 -1.14,-3.12 0.48,-6.58 3.65,-7.73 3.16,-1.14 6.67,0.47 7.82,3.6 1.15,3.13 -0.49,6.6 -3.65,7.73 z"
   id="path18" />&#10;			<path
   fill="#f89c26"
   d="m 17.58,52.26 c -2.8,1 -5.89,-0.42 -6.91,-3.18 -1.01,-2.76 0.43,-5.82 3.23,-6.82 2.79,-1 5.89,0.42 6.91,3.18 1.02,2.76 -0.43,5.82 -3.23,6.82 z"
   id="path19" />&#10;			<path
   fill="#f89a27"
   d="m 17.34,51.6 c -2.43,0.87 -5.11,-0.36 -6,-2.76 -0.87,-2.39 0.37,-5.05 2.8,-5.92 2.42,-0.87 5.11,0.36 6,2.76 0.88,2.39 -0.38,5.05 -2.8,5.92 z"
   id="path20" />&#10;			<path
   fill="#f79728"
   d="m 17.1,50.94 c -2.06,0.74 -4.34,-0.31 -5.08,-2.34 -0.74,-2.03 0.32,-4.28 2.37,-5.02 2.05,-0.74 4.33,0.31 5.08,2.34 0.75,2.03 -0.32,4.28 -2.37,5.02 z"
   id="path21" />&#10;			<path
   fill="#f79528"
   d="m 16.85,50.28 c -1.69,0.6 -3.56,-0.25 -4.17,-1.92 -0.61,-1.66 0.26,-3.51 1.95,-4.12 1.69,-0.6 3.55,0.25 4.17,1.92 0.62,1.67 -0.26,3.51 -1.95,4.12 z"
   id="path22" />&#10;			<path
   fill="#f79329"
   d="m 16.61,49.62 c -1.32,0.47 -2.78,-0.2 -3.26,-1.5 -0.47,-1.3 0.21,-2.74 1.52,-3.21 1.32,-0.47 2.76,0.2 3.26,1.5 0.47,1.29 -0.2,2.73 -1.52,3.21 z"
   id="path23" />&#10;		</g>&#10;		<g
   clip-path="url(#SVGID_2_)"
   id="g45">&#10;			<path
   fill="#fcc21b"
   d="m 100.93,75.09 c -9.09,3.26 -19.12,-1.34 -22.42,-10.31 -3.3,-8.96 1.37,-18.89 10.46,-22.17 9.06,-3.26 19.11,1.36 22.42,10.32 3.29,8.98 -1.4,18.91 -10.46,22.16 z"
   id="path24" />&#10;			<path
   fill="#fcc01c"
   d="m 100.69,74.43 c -8.72,3.13 -18.34,-1.29 -21.51,-9.89 -3.16,-8.6 1.32,-18.12 10.04,-21.26 8.69,-3.13 18.33,1.3 21.51,9.9 3.15,8.61 -1.35,18.13 -10.04,21.25 z"
   id="path25" />&#10;			<path
   fill="#fcbe1c"
   d="m 100.44,73.77 c -8.35,3 -17.56,-1.23 -20.6,-9.47 -3.03,-8.23 1.26,-17.35 9.61,-20.36 8.32,-3 17.56,1.25 20.6,9.48 3.03,8.24 -1.28,17.36 -9.61,20.35 z"
   id="path26" />&#10;			<path
   fill="#fbbb1d"
   d="M 100.2,73.11 C 92.22,75.98 83.42,71.93 80.52,64.06 77.63,56.19 81.73,47.48 89.7,44.6 c 7.95,-2.86 16.78,1.19 19.68,9.06 2.89,7.88 -1.22,16.59 -9.18,19.45 z"
   id="path27" />&#10;			<path
   fill="#fbb91e"
   d="m 99.95,72.45 c -7.61,2.73 -16,-1.12 -18.77,-8.63 -2.76,-7.5 1.15,-15.81 8.76,-18.56 7.58,-2.73 16,1.14 18.77,8.64 2.76,7.52 -1.17,15.82 -8.76,18.55 z"
   id="path28" />&#10;			<path
   fill="#fbb71e"
   d="m 99.71,71.79 c -7.24,2.6 -15.22,-1.07 -17.86,-8.21 -2.63,-7.14 1.09,-15.04 8.33,-17.65 7.22,-2.6 15.22,1.08 17.86,8.22 2.63,7.14 -1.11,15.05 -8.33,17.64 z"
   id="path29" />&#10;			<path
   fill="#fbb51f"
   d="M 99.47,71.13 C 92.6,73.6 85.02,70.12 82.53,63.34 c -2.49,-6.77 1.04,-14.27 7.91,-16.75 6.85,-2.46 14.44,1.03 16.94,7.8 2.48,6.78 -1.06,14.28 -7.91,16.74 z"
   id="path30" />&#10;			<path
   fill="#fab220"
   d="m 99.22,70.47 c -6.5,2.33 -13.67,-0.96 -16.03,-7.37 -2.36,-6.41 0.98,-13.5 7.48,-15.85 6.48,-2.33 13.66,0.97 16.03,7.38 2.36,6.41 -0.99,13.51 -7.48,15.84 z"
   id="path31" />&#10;			<path
   fill="#fab020"
   d="m 98.98,69.81 c -6.13,2.2 -12.89,-0.91 -15.12,-6.95 -2.22,-6.04 0.93,-12.73 7.05,-14.95 6.11,-2.2 12.89,0.92 15.12,6.96 2.22,6.05 -0.94,12.74 -7.05,14.94 z"
   id="path32" />&#10;			<path
   fill="#faae21"
   d="m 98.74,69.14 c -5.76,2.07 -12.11,-0.85 -14.21,-6.53 -2.09,-5.68 0.87,-11.97 6.63,-14.04 5.74,-2.07 12.11,0.86 14.21,6.54 2.08,5.68 -0.89,11.97 -6.63,14.03 z"
   id="path33" />&#10;			<path
   fill="#faac22"
   d="m 98.49,68.48 c -5.39,1.93 -11.33,-0.8 -13.29,-6.11 -1.96,-5.31 0.81,-11.2 6.2,-13.14 5.37,-1.93 11.33,0.81 13.29,6.12 1.96,5.32 -0.82,11.2 -6.2,13.13 z"
   id="path34" />&#10;			<path
   fill="#f9a922"
   d="m 98.25,67.82 c -5.02,1.8 -10.55,-0.74 -12.38,-5.69 -1.82,-4.95 0.76,-10.43 5.77,-12.24 5,-1.8 10.55,0.75 12.38,5.7 1.82,4.95 -0.76,10.43 -5.77,12.23 z"
   id="path35" />&#10;			<path
   fill="#f9a723"
   d="m 98.01,67.16 c -4.65,1.67 -9.78,-0.69 -11.47,-5.27 -1.69,-4.58 0.7,-9.66 5.35,-11.34 4.63,-1.67 9.77,0.7 11.46,5.28 1.69,4.59 -0.71,9.67 -5.34,11.33 z"
   id="path36" />&#10;			<path
   fill="#f9a524"
   d="m 97.76,66.5 c -4.28,1.53 -9,-0.63 -10.55,-4.85 -1.55,-4.22 0.65,-8.89 4.92,-10.43 4.27,-1.53 9,0.64 10.55,4.86 1.56,4.21 -0.65,8.89 -4.92,10.42 z"
   id="path37" />&#10;			<path
   fill="#f9a324"
   d="m 97.52,65.84 c -3.91,1.4 -8.22,-0.58 -9.64,-4.43 -1.42,-3.85 0.59,-8.12 4.5,-9.53 3.9,-1.4 8.22,0.58 9.64,4.44 1.41,3.85 -0.6,8.12 -4.5,9.52 z"
   id="path38" />&#10;			<path
   fill="#f8a025"
   d="m 97.28,65.18 c -3.54,1.27 -7.44,-0.52 -8.73,-4.01 -1.29,-3.49 0.54,-7.35 4.07,-8.63 3.53,-1.27 7.44,0.53 8.73,4.02 1.28,3.49 -0.54,7.35 -4.07,8.62 z"
   id="path39" />&#10;			<path
   fill="#f89e26"
   d="m 97.03,64.52 c -3.17,1.14 -6.66,-0.47 -7.81,-3.59 -1.15,-3.12 0.48,-6.58 3.64,-7.73 3.16,-1.14 6.66,0.47 7.81,3.6 1.16,3.12 -0.48,6.58 -3.64,7.72 z"
   id="path40" />&#10;			<path
   fill="#f89c26"
   d="m 96.79,63.86 c -2.8,1 -5.88,-0.42 -6.9,-3.18 -1.02,-2.76 0.42,-5.81 3.22,-6.82 2.79,-1 5.88,0.42 6.9,3.18 1.01,2.76 -0.43,5.81 -3.22,6.82 z"
   id="path41" />&#10;			<path
   fill="#f89a27"
   d="m 96.55,63.2 c -2.43,0.87 -5.11,-0.36 -5.99,-2.76 -0.88,-2.39 0.37,-5.05 2.79,-5.92 2.42,-0.87 5.1,0.36 5.99,2.76 0.88,2.39 -0.37,5.04 -2.79,5.92 z"
   id="path42" />&#10;			<path
   fill="#f79728"
   d="m 96.3,62.53 c -2.06,0.74 -4.33,-0.31 -5.07,-2.34 -0.75,-2.03 0.31,-4.28 2.37,-5.02 2.05,-0.74 4.33,0.31 5.07,2.34 0.75,2.04 -0.31,4.28 -2.37,5.02 z"
   id="path43" />&#10;			<path
   fill="#f79528"
   d="m 96.06,61.87 c -1.69,0.6 -3.55,-0.25 -4.16,-1.92 -0.62,-1.66 0.26,-3.51 1.94,-4.12 1.68,-0.6 3.55,0.25 4.16,1.92 0.61,1.67 -0.26,3.52 -1.94,4.12 z"
   id="path44" />&#10;			<path
   fill="#f79329"
   d="m 95.82,61.21 c -1.32,0.47 -2.77,-0.2 -3.25,-1.5 -0.48,-1.3 0.2,-2.74 1.51,-3.21 1.31,-0.47 2.77,0.2 3.25,1.5 0.48,1.3 -0.2,2.74 -1.51,3.21 z"
   id="path45" />&#10;		</g>&#10;	</g>&#10;	<path
   fill="#2f2f2f"
   d="m 26.6,37.84 c 0.14,-0.31 3.43,-7.63 11.23,-7.8 h 0.05 c 7.84,-0.14 11.38,7.1 11.53,7.41 0.66,1.38 0.09,3.06 -1.27,3.74 -0.37,0.19 -0.77,0.28 -1.15,0.29 -1.03,0.02 -2.04,-0.56 -2.53,-1.57 -0.11,-0.2 -2.22,-4.35 -6.48,-4.26 h -0.02 c -4.28,0.09 -6.24,4.3 -6.31,4.48 -0.64,1.4 -2.27,2.02 -3.66,1.4 -1.37,-0.65 -2,-2.28 -1.39,-3.69 z"
   id="path46" />&#10;	<path
   fill="#ed6c30"
   d="m 73.18,80.85 c -8.91,6.22 -21.98,5.97 -31.56,2.35 -5.1,-2 -12.43,-7.38 -15.54,-15.87 -1.35,-3.68 -1.57,-9.85 -0.23,-13.41 1.05,-2.84 3.48,-3.98 5.93,-4.18 3.79,-0.3 8.38,3.48 12.13,4.88 7.09,2.67 13.86,2.6 22.11,1.51 5.29,-0.99 10.7,-2.9 15.26,0.01 2.72,1.79 3.28,5.62 2.91,8.91 -0.56,4.92 -4.21,11.04 -11.01,15.8 z"
   id="path47" />&#10;	<path
   fill="#2f2f2f"
   d="m 86.03,50.01 c -0.1,0.01 -0.21,0.01 -0.31,0.02 -1.38,0.03 -2.59,-1 -2.78,-2.44 -0.03,-0.2 -0.85,-5.58 -5.64,-7.09 -4.89,-1.51 -8.66,2.6 -8.7,2.64 -1.04,1.15 -2.77,1.23 -3.9,0.19 -1.12,-1.04 -1.21,-2.81 -0.18,-3.95 0.26,-0.29 6.2,-6.79 14.4,-4.23 8.22,2.58 9.45,11.35 9.49,11.73 0.19,1.52 -0.88,2.93 -2.38,3.13 z"
   id="path49" />&#10;</g></svg>
