<?xml version="1.0" encoding="UTF-8" standalone="no"?>
<svg
   width="100%"
   height="100%"
   viewBox="0 0 128 128"
   version="1.1"
   xml:space="preserve"
   style="fill-rule:evenodd;clip-rule:evenodd;stroke-linejoin:round;stroke-miterlimit:2;"
   id="svg1"
   sodipodi:docname="emoji_u1f96b.svg"
   inkscape:version="1.3 (0e150ed6c4, 2023-07-21)"
   xmlns:inkscape="http://www.inkscape.org/namespaces/inkscape"
   xmlns:sodipodi="http://sodipodi.sourceforge.net/DTD/sodipodi-0.dtd"
   xmlns="http://www.w3.org/2000/svg"
   xmlns:svg="http://www.w3.org/2000/svg"><defs
   id="defs1"><inkscape:path-effect
     down_right_point="74.415967,72.383844"
     down_left_point="51.690646,73.691787"
     up_right_point="73.718397,57.211035"
     up_left_point="51.690646,57.036643"
     effect="perspective-envelope"
     id="path-effect1"
     is_visible="true"
     lpeversion="1"
     deform_type="perspective"
     horizontal_mirror="false"
     vertical_mirror="false"
     overflow_perspective="false" /></defs><sodipodi:namedview
   id="namedview1"
   pagecolor="#ffffff"
   bordercolor="#000000"
   borderopacity="0.25"
   inkscape:showpageshadow="2"
   inkscape:pageopacity="0.0"
   inkscape:pagecheckerboard="0"
   inkscape:deskcolor="#d1d1d1"
   inkscape:zoom="4.0546875"
   inkscape:cx="38.22736"
   inkscape:cy="86.689788"
   inkscape:window-width="1366"
   inkscape:window-height="697"
   inkscape:window-x="-8"
   inkscape:window-y="-8"
   inkscape:window-maximized="1"
   inkscape:current-layer="svg1" />&#10;    <path
   id="path16137"
   d="M57.64,20.92L28.19,26.29C28.19,26.29 28.54,55.41 28.23,69.06C27.92,82.71 27.81,102.06 28.03,104.51C28.22,106.64 34.78,113.41 34.78,113.41L56.87,121.39L78.34,120.62L97.05,111.88C97.05,111.88 99.84,108.13 100.37,106.86C100.78,105.89 100.4,78.73 100.4,65.8C100.4,54.91 100.95,25.34 100.95,25.34L57.64,20.92Z"
   style="fill:#db4437;fill-rule:nonzero" />&#10;    <path
   id="path16139"
   d="M28.3,109.44C28.64,110.92 40.51,124.29 64.48,124.29C88.45,124.29 99.94,112.56 100.16,111.35C100.38,110.14 100.42,106.69 100.42,106.69C100.42,106.69 88.78,119.34 64.81,119.45C40.5,119.56 28.01,104.37 28.01,104.37C28.01,104.37 27.96,107.96 28.3,109.44Z"
   style="fill:rgb(101,147,162);fill-rule:nonzero;" />&#10;    <path
   id="path16141"
   d="M38.42,10.35L28.15,18.05C28.15,18.05 27.85,21.34 27.86,22.89C27.88,25.19 28.19,26.3 28.19,26.3C28.19,26.3 35.09,37.5 64.87,38.3C91.78,39.02 100.89,28.84 100.89,28.84C100.89,28.84 102.04,26.43 102.29,24.69C102.71,21.82 102.21,19.38 102.21,19.38L38.42,10.35Z"
   style="fill:rgb(203,219,224);fill-rule:nonzero;" />&#10;    <path
   id="path16143"
   d="M65.37,3.86C47.56,3.21 28.19,9.25 28.08,18.7C27.97,28.49 52.61,34.23 64.81,34.32C79.96,34.43 101.98,29.04 102.31,20.24C102.65,11.45 84.85,4.57 65.37,3.86Z"
   style="fill:rgb(101,147,162);fill-rule:nonzero;" />&#10;    <path
   id="path16145"
   d="M65.37,16.72C65.37,16.72 36.56,22.22 34.91,20.79C33.26,19.36 31.94,18.15 35.68,14.85C39.42,11.55 49.74,7.11 66.25,7.81C83.57,8.55 96.47,14.42 97.3,19.08C97.45,19.9 97.22,21.4 96.28,21.92C96.07,22.04 90.81,24.58 90.81,24.58C90.81,24.58 64.6,16.61 65.37,16.72Z"
   style="fill:rgb(203,219,224);fill-rule:nonzero;" />&#10;    <path
   id="path16147"
   d="M83.18,13.23C72.01,10.07 53.74,9.25 44.06,13.54C34.38,17.83 34.98,20.84 34.98,20.84C34.98,20.84 43.3,28.68 65.04,28.94C88.25,29.22 96.27,21.9 96.27,21.9C96.27,21.9 95.61,16.75 83.18,13.23Z"
   style="fill:rgb(175,199,207);fill-rule:nonzero;" />&#10;    <path
   id="path16149"
   style="fill:#fcc21b;fill-rule:nonzero;stroke-width:1"
   d="M 28.298828 39.378906 C 28.369439 49.069486 28.415747 60.902347 28.230469 69.060547 C 28.008358 78.840584 27.894735 91.34823 27.925781 98.667969 C 33.855486 103.51953 45.632341 111.95807 64.498047 111.60938 C 82.611772 111.27184 94.531033 104.19278 100.54688 100.53125 C 100.58963 91.55517 100.40039 75.111081 100.40039 65.800781 C 100.40039 60.282676 100.54037 50.102662 100.67969 41.269531 C 97.569435 42.499045 84.145589 47.30171 64.679688 47.048828 C 45.17705 46.795468 31.447099 40.867383 28.298828 39.378906 z " />&#10;    &#10;    &#10;    &#10;<path
   d="m 62.551724,53.68554 c -4.385804,0.239376 -8.850599,0.959212 -12.79276,2.989628 -5.628767,2.953133 -9.906826,8.167288 -12.168482,14.065386 -2.018312,5.056898 -2.37389,10.875873 -0.435315,16.013483 1.630271,4.464007 4.869162,8.401656 9.144005,10.550155 4.244777,2.243557 8.982448,3.411348 13.731032,3.949888 5.726959,0.57248 11.708904,-0.26052 16.792018,-3.063077 5.161696,-2.758407 9.636938,-7.061448 11.983065,-12.480754 2.080687,-4.771223 2.36866,-10.330463 0.602824,-15.244863 C 87.441876,64.780361 83.21279,59.878464 77.790632,57.239348 75.799743,56.258651 73.741758,55.399949 71.626325,54.727363 68.89398,53.86404 66.01061,53.470842 63.147721,53.664792 c -0.198666,0.007 -0.397331,0.01383 -0.595997,0.02075 z"
   fill="#db4437"
   id="path1"
   style="stroke-width:1" /><path
   d="m 74.296551,72.224675 c -0.356091,0.14148 -0.66008,0.352358 -1.022149,0.478663 -0.45517,0.161134 -0.927326,0.250157 -1.447237,0.248517 -1.540498,-0.0061 -3.132724,-0.532707 -4.712126,-1.085852 -1.742559,-0.605621 -3.163901,-1.904919 -4.814613,-2.827962 -0.239135,-0.139202 -0.646912,-0.128603 -0.878578,-0.103436 -1.193109,0.108487 -2.044477,1.39927 -2.960231,2.003009 -1.045959,0.693958 -2.241588,1.185857 -3.577867,1.392488 -1.305738,0.205096 -3.233861,0.437327 -4.416268,-0.775304 0.229407,-0.518175 1.287808,-0.702215 1.739938,-1.028659 0.527585,-0.387504 0.929697,-0.876972 1.270818,-1.413634 0.710314,-1.120558 1.085461,-2.432667 1.725988,-3.558417 0.174314,-0.310681 1.00274,-0.920723 0.503457,-1.369756 -0.251959,-0.229275 -0.704596,-0.24863 -1.005072,-0.353239 -0.411394,-0.142032 -0.817427,-0.335125 -1.205898,-0.556543 -0.787933,-0.442101 -1.55174,-1.008499 -2.173718,-1.668034 -0.371984,-0.396716 -1.208877,-1.39423 -1.022596,-1.888626 0.150858,-0.405087 0.794966,0.0609 1.134644,0.177778 0.463353,0.158213 0.869473,0.206959 1.259059,0.212077 0.638473,0.0051 1.215611,-0.134452 1.921901,-0.1509 1.198847,-0.02665 2.332276,0.33677 3.519192,0.743692 0.961687,0.328629 1.756372,0.3991 2.149712,-0.458593 0.667719,-1.463413 1.647993,-3.115179 3.077452,-3.839872 0.497608,-0.25036 1.11195,-0.535769 1.676837,-0.660416 0.247956,-0.05044 0.841209,-0.232537 1.122223,-0.01783 0.334518,0.250772 -0.167814,1.741757 -0.226624,1.995656 -0.202228,0.870071 -0.513285,1.596791 -0.09655,2.598755 0.299725,0.705304 0.611738,0.857549 1.241663,0.608705 2.307904,-0.903437 5.244222,0.59831 7.505678,-0.136819 0.199005,-0.06256 0.371649,-0.24079 0.595883,-0.216473 0.143989,0.287434 0.0054,0.652817 -0.03433,0.916289 -0.115816,0.833782 -0.524671,1.654443 -1.148726,2.125415 -0.925053,0.707537 -1.77066,0.986316 -2.943276,1.292696 -0.38325,0.101451 -2.441013,0.428919 -2.268891,1.113198 0.0862,0.340591 0.325996,0.487496 0.608045,0.655447 0.770573,0.474238 1.3819,1.349289 1.885551,2.107758 0.205949,0.305781 0.388918,0.587256 0.656218,0.849193 0.948755,0.939168 1.962497,1.26095 3.023258,1.911481 0.07232,0.384626 -0.409644,0.577576 -0.662755,0.679565 z"
   fill="#bdcf46"
   id="path2"
   style="stroke-width:1" /><path
   d="m 60.445406,62.9193 c -1.023628,0.68577 -1.167857,1.847478 0.07757,2.845366 1.629838,1.307754 5.813645,0.586956 4.946657,-1.766952 -0.64358,-1.745344 -3.991474,-1.774143 -5.024224,-1.078414 z"
   fill="#ffffff"
   id="path3"
   style="stroke-width:1" /></svg>
