<?xml version="1.0" encoding="UTF-8" standalone="no"?>
<svg
   width="128"
   height="128"
   style="enable-background:new 0 0 128 128;"
   version="1.1"
   id="svg4"
   sodipodi:docname="emoji_u1f97a.svg"
   inkscape:version="1.3 (0e150ed6c4, 2023-07-21)"
   xmlns:inkscape="http://www.inkscape.org/namespaces/inkscape"
   xmlns:sodipodi="http://sodipodi.sourceforge.net/DTD/sodipodi-0.dtd"
   xmlns="http://www.w3.org/2000/svg"
   xmlns:svg="http://www.w3.org/2000/svg">
  <defs
     id="defs4" />
  <sodipodi:namedview
     id="namedview4"
     pagecolor="#ffffff"
     bordercolor="#000000"
     borderopacity="0.25"
     inkscape:showpageshadow="2"
     inkscape:pageopacity="0.0"
     inkscape:pagecheckerboard="0"
     inkscape:deskcolor="#d1d1d1"
     inkscape:zoom="2.867097"
     inkscape:cx="61.560526"
     inkscape:cy="78.302199"
     inkscape:window-width="1366"
     inkscape:window-height="697"
     inkscape:window-x="-8"
     inkscape:window-y="-8"
     inkscape:window-maximized="1"
     inkscape:current-layer="svg4" />
  <path
     d="m 127.22,93.42 c 0,13.86 -28.29,25.1 -63.22,25.1 C 29.08,118.52 0.77,107.28 0.77,93.42 0.77,79.55 2.24,9.48 64,9.48 c 61.77,0 63.22,70.06 63.22,83.94"
     style="fill:#fcc21b"
     id="path1" />
  <path
     style="fill:none;stroke:#2f2f2f;stroke-width:5.99998;stroke-linecap:round;stroke-opacity:1"
     d="m 54.913285,95.506433 c 0,0 3.279566,-2.927802 9.086715,-2.927802 5.807149,0 9.086714,2.927802 9.086714,2.927802"
     id="path5"
     sodipodi:nodetypes="czc" />
  <g
     id="g7"
     transform="matrix(0.88658088,0,0,0.88658088,3.5253073,10.004367)"
     style="stroke-width:1.12793">
    <path
       style="fill:#ffffff;stroke-width:1.12793"
       d="M 41.047572,42.017594 C 53.035888,42.055119 62.73416,51.803468 62.696619,63.79179 62.659082,75.7801 52.910749,85.478368 40.922433,85.440831 28.934117,85.403305 19.235845,75.654957 19.273386,63.666646 19.348472,51.690845 29.07177,42.030114 41.047572,42.017594"
       id="path5-1" />
    <g
       id="g6"
       style="stroke-width:1.12793">
      <path
         id="circle5"
         style="fill:#2f2f2f;stroke-width:1.12793"
         d="M 59.943561,60.913592 A 19.271405,19.271405 0 0 1 40.672156,80.184996 19.271405,19.271405 0 0 1 21.400751,60.913592 19.271405,19.271405 0 0 1 40.672156,41.642176 19.271405,19.271405 0 0 1 59.943561,60.913592 Z" />
      <path
         id="ellipse5"
         style="fill:#ffffff;stroke-width:1.12787"
         d="m 51.402597,64.888582 a 4.7511724,5.1471029 49.989747 0 1 -0.887672,6.948262 4.7511724,5.1471029 49.989747 0 1 -6.996962,-0.329863 4.7511724,5.1471029 49.989747 0 1 0.887671,-6.948262 4.7511724,5.1471029 49.989747 0 1 6.996963,0.329863 z" />
      <path
         id="ellipse6"
         style="fill:#ffffff;stroke-width:1.12796"
         d="m 44.343301,48.456925 a 8.7824497,10.827677 53.338654 0 1 -3.44187,13.510129 8.7824497,10.827677 53.338654 0 1 -13.929593,-0.58006 8.7824497,10.827677 53.338654 0 1 3.44187,-13.510127 8.7824497,10.827677 53.338654 0 1 13.929593,0.580058 z" />
    </g>
  </g>
  <g
     id="g13"
     transform="matrix(0.88658088,0,0,0.88658088,51.791654,10.004367)"
     style="stroke-width:1.12793">
    <path
       style="fill:#ffffff;stroke-width:1.12793"
       d="M 41.047572,42.017594 C 53.035888,42.055119 62.73416,51.803468 62.696619,63.79179 62.659082,75.7801 52.910749,85.478368 40.922433,85.440831 28.934117,85.403305 19.235845,75.654957 19.273386,63.666646 19.348472,51.690845 29.07177,42.030114 41.047572,42.017594"
       id="path9" />
    <g
       id="g12"
       style="stroke-width:1.12793">
      <path
         id="path10"
         style="fill:#2f2f2f;stroke-width:1.12793"
         d="M 59.943561,60.913592 A 19.271405,19.271405 0 0 1 40.672156,80.184996 19.271405,19.271405 0 0 1 21.400751,60.913592 19.271405,19.271405 0 0 1 40.672156,41.642176 19.271405,19.271405 0 0 1 59.943561,60.913592 Z" />
      <path
         id="path11"
         style="fill:#ffffff;stroke-width:1.12787"
         d="m 51.402597,64.888582 a 4.7511724,5.1471029 49.989747 0 1 -0.887672,6.948262 4.7511724,5.1471029 49.989747 0 1 -6.996962,-0.329863 4.7511724,5.1471029 49.989747 0 1 0.887671,-6.948262 4.7511724,5.1471029 49.989747 0 1 6.996963,0.329863 z" />
      <path
         id="path12"
         style="fill:#ffffff;stroke-width:1.12796"
         d="m 44.343301,48.456925 a 8.7824497,10.827677 53.338654 0 1 -3.44187,13.510129 8.7824497,10.827677 53.338654 0 1 -13.929593,-0.58006 8.7824497,10.827677 53.338654 0 1 3.44187,-13.510127 8.7824497,10.827677 53.338654 0 1 13.929593,0.580058 z" />
    </g>
  </g>
  <path
     style="color:#000000;fill:#e28100;fill-rule:evenodd;stroke-linecap:round;stroke-linejoin:round;-inkscape-stroke:none"
     d="m 41.132812,33.732422 a 1.89,1.89 0 0 0 -1.324218,0.578125 c -4.649501,4.829302 -12.783203,5.761719 -12.783203,5.761719 a 1.89,1.89 0 0 0 -1.701172,2.0625 1.89,1.89 0 0 0 2.0625,1.701171 c 0,0 9.198322,-0.728141 15.144531,-6.904296 a 1.89,1.89 0 0 0 -0.05078,-2.671875 1.89,1.89 0 0 0 -1.347658,-0.527344 z"
     id="path2430-2" />
  <path
     style="color:#000000;fill:#e28100;fill-rule:evenodd;stroke-linecap:round;stroke-linejoin:round;-inkscape-stroke:none"
     d="m 85.509766,34.259766 a 1.89,1.89 0 0 0 -0.05078,2.671875 c 5.946209,6.176155 15.144534,6.904296 15.144534,6.904296 a 1.89,1.89 0 0 0 2.0625,-1.701171 1.89,1.89 0 0 0 -1.70117,-2.0625 c 0,0 -8.13371,-0.932417 -12.783207,-5.761719 a 1.89,1.89 0 0 0 -2.671875,-0.05078 z"
     id="path14-1" />
</svg>
