<?xml version="1.0" encoding="UTF-8" standalone="no"?>
<svg
   width="128"
   height="128"
   style="enable-background:new 0 0 128 128;"
   version="1.1"
   id="svg15"
   sodipodi:docname="emoji_u1f98f.svg"
   inkscape:version="1.3 (0e150ed6c4, 2023-07-21)"
   xmlns:inkscape="http://www.inkscape.org/namespaces/inkscape"
   xmlns:sodipodi="http://sodipodi.sourceforge.net/DTD/sodipodi-0.dtd"
   xmlns="http://www.w3.org/2000/svg"
   xmlns:svg="http://www.w3.org/2000/svg">
  <defs
     id="defs15">
    <clipPath
       id="clipPath1">
      <rect
         id="rect1"
         height="128"
         width="128"
         x="0"
         y="0" />
    </clipPath>
  </defs>
  <sodipodi:namedview
     id="namedview15"
     pagecolor="#ffffff"
     bordercolor="#000000"
     borderopacity="0.25"
     inkscape:showpageshadow="2"
     inkscape:pageopacity="0.0"
     inkscape:pagecheckerboard="0"
     inkscape:deskcolor="#d1d1d1"
     inkscape:zoom="1.4335485"
     inkscape:cx="54.410436"
     inkscape:cy="82.662009"
     inkscape:window-width="1366"
     inkscape:window-height="697"
     inkscape:window-x="-8"
     inkscape:window-y="-8"
     inkscape:window-maximized="1"
     inkscape:current-layer="svg15" />
  <style
     type="text/css"
     id="style1">&#10;.st0{clip-path:url(#SVGID_2_);fill:#79A3AC;}&#10;.st1{clip-path:url(#SVGID_2_);fill:#55787C;}&#10;.st2{clip-path:url(#SVGID_2_);fill:#65878D;}&#10;.st3{clip-path:url(#SVGID_2_);fill:#2F2F2F;}&#10;.st4{clip-path:url(#SVGID_2_);fill:#C2CBCE;}&#10;  </style>
  <g
     id="g24"
     transform="matrix(1.042865,0,0,1.042865,-3.7666663,-12.382346)"
     style="stroke-width:0.958898">
    <g
       id="g20"
       style="stroke-width:0.958898">
      <g
         id="g19"
         style="stroke-width:0.958898">
        <path
           style="fill:#6593a2;fill-opacity:1;stroke-width:34.4297;stroke-linecap:round"
           d="m 94.815152,62.899148 c 0,0 2.0452,-6.172055 8.138508,-7.804756 9.14,-2.449054 13.83996,1.762268 16.80323,12.821374 1.18649,4.428058 1.62644,8.850514 1.62644,8.850514 l -2.95147,0.790843 c 0,0 -0.5391,-4.792542 -1.72412,-9.215104 -1.69331,-6.319489 -5.2863,-11.350396 -12.23649,-9.488095 -6.950206,1.862298 -9.656098,4.045224 -9.656098,4.045224 z"
           id="path11"
           sodipodi:nodetypes="cssccssc" />
        <path
           d="m 116.79683,85.506251 c 0.0322,1.615718 -0.34081,2.184445 1.73999,1.948542 3.03362,-0.355608 4.69959,-1.704998 5.60166,-4.631181 0.77565,-2.529308 0.29877,-5.263854 -1.79368,-7.03479 -2.13738,-1.812891 -4.33074,-1.085115 -5.84079,1.066268 -2.13596,3.048122 0.2341,5.457738 0.29282,8.651161 z"
           style="fill:#2f2f2f;stroke-width:0.958898"
           id="path1-5" />
      </g>
      <path
         d="m 69.601793,35.55953 c -22.693335,0 -35.712158,13.941914 -35.712158,51.191205 0,19.027695 -0.119062,17.425205 -0.256426,21.207625 -0.10991,3.26955 -1.611885,10.23911 1.996524,12.31806 4.460152,2.57352 13.591086,3.05891 16.759893,-1.6943 1.34629,-2.03317 1.621027,-4.51509 1.621027,-6.86881 0,-2.70174 0.155705,-7.26853 0.155705,-9.97943 0,-1.14479 -0.430442,-3.269542 0.430451,-4.167065 0.51287,-0.540347 1.190586,-0.412129 1.840829,-0.412129 1.0349,0 2.088112,-0.109901 3.123012,-0.210644 5.824754,-0.595295 5.348518,2.188857 5.843076,6.310148 0.357184,2.99481 -0.20149,9.47571 -0.439603,12.48881 -0.31139,3.95644 3.342804,5.40348 6.877966,5.57749 3.754944,0.18316 8.416565,-0.22897 11.741067,-2.11561 3.480197,-1.98736 2.124756,-5.11038 1.996543,-8.3433 -0.09161,-2.25298 -0.274756,-8.01036 -0.448773,-10.25418 -0.137373,-1.831675 -0.467075,-3.654198 -0.375487,-5.495038 0.09161,-1.602722 -0.265595,-4.386878 1.767572,-5.055442 1.437869,-0.476237 3.049745,0 4.54256,-0.28391 2.198032,-0.40297 2.042337,9.387667 2.106443,10.55994 0.155695,2.82995 -0.256435,4.87228 2.362869,6.59406 3.113861,2.05149 8.297517,1.51114 11.667807,0.52203 6.11783,-1.8042 4.08467,-7.05198 4.37772,-11.860143 0.29307,-4.643313 0.34361,-7.824626 0.29127,-17.859871 C 111.70363,45.50532 92.295137,35.55953 69.601793,35.55953 Z"
         id="path2-1"
         sodipodi:nodetypes="zscccsscsccccccccccccccsz"
         style="fill:#6593a2;fill-opacity:1;stroke-width:0.958898" />
    </g>
    <g
       id="g23"
       style="stroke-width:0.958898">
      <path
         id="path17"
         style="fill:#2f2f2f;fill-opacity:1;stroke-width:0.958898"
         d="m 49.201172,41.296875 c -9.904369,7.157573 -15.3125,21.46605 -15.3125,45.453125 0,4.242123 -0.0069,7.161041 -0.01758,9.640625 3.417371,-0.629167 6.400843,-2.28296 8.050781,-6 0.797331,-1.814714 1.114616,-2.46117 2.667969,-3.791016 1.766466,-1.501343 3.582759,-2.795088 5.404297,-4.160156 C 56.576691,77.5001 62.948206,70.600822 62.601562,62.251953 62.445823,58.549204 60.586061,50.422493 54.25,44.810547 52.552298,43.306866 50.865006,42.170491 49.201172,41.296875 Z" />
      <g
         id="g22"
         style="stroke-width:0.958898">
        <path
           d="m 34.156718,34.427826 c -3.734551,0.267162 -6.712618,1.615995 -9.694483,3.358334 -2.625412,1.53526 -4.819224,3.669941 -6.365645,6.282001 -3.070141,5.194274 -3.472119,11.53229 -3.690279,17.423453 -0.08513,2.389916 0.296354,5.485566 -0.44635,7.730723 -1.022209,3.060996 -3.610526,5.681582 -4.346754,8.833145 -0.7310939,3.068568 0.481742,7.204886 2.666344,9.43303 2.645297,2.693986 6.810769,5.054919 10.562518,5.515803 6.356446,0.778009 13.664142,0.823335 16.622828,-6.106524 0.78059,-1.847091 1.091985,-2.504752 2.612722,-3.858324 1.729376,-1.528129 3.508176,-2.84493 5.291466,-4.234351 C 53.813423,73.777639 60.05046,66.753947 59.711095,58.256126 59.558625,54.487315 57.739118,46.217715 51.536094,40.505645 45.333072,34.793574 39.239843,34.064188 34.156718,34.427826 Z"
           style="fill:#6593a2;stroke-width:0.958897"
           id="path1-0-0"
           sodipodi:nodetypes="sccccccccccczs" />
        <path
           d="m 16.748123,81.571277 c 0.43711,0.172799 0.858088,0.438324 1.203886,0.74086 0.681224,0.60443 1.308762,1.403409 0.969689,2.340533 -0.920764,2.598644 -3.548391,0.124439 -4.106351,-1.295068 -0.81908,-2.081299 0.581846,-2.338406 1.932776,-1.786325 z m 14.885896,2.960752 c 1.382975,0.03337 2.807287,0.746191 2.02837,2.228904 -0.755603,1.442495 -3.226758,1.99797 -4.694132,1.813593 -1.302027,-0.163749 -2.55252,-0.824181 -1.910409,-2.284101 0.693239,-1.61297 3.099182,-1.787161 4.576171,-1.758396 z"
           fill="#2f2f2f"
           id="path7-7"
           style="stroke-width:0.958897" />
        <g
           id="g21"
           style="stroke-width:0.958898">
          <path
             style="fill:#6593a2;stroke-width:34.4297;stroke-linecap:round"
             d="m 19.730466,24.329765 c -3.341903,0.760766 -4.822155,7.036997 -3.641666,12.22268 1.18051,5.185684 6.101076,9.762377 8.521061,9.211478 2.419975,-0.550899 5.210019,-6.398041 3.97705,-11.814198 -1.232958,-5.41616 -6.551708,-10.144627 -8.856445,-9.61996 z"
             id="path8-8" />
          <path
             style="fill:#6593a2;stroke-width:34.4297;stroke-linecap:round"
             d="m 57.650456,25.90866 c 3.495173,1.264889 4.250495,8.217327 2.287752,13.640866 -1.962763,5.423543 -7.869502,9.69239 -10.400485,8.776438 -2.530983,-0.915956 -4.753243,-7.581423 -2.703264,-13.246009 2.05,-5.664589 8.405532,-10.043631 10.815997,-9.171295 z"
             id="path9-4" />
        </g>
        <path
           d="m 35.585655,55.727463 c -1.471708,1.908533 -1.326359,4.781316 0.321653,6.424376 1.670037,1.623593 4.21341,1.416236 5.68384,-0.471546 1.46198,-1.919549 1.317264,-4.802704 -0.341766,-6.43603 -1.659029,-1.633327 -4.212765,-1.426613 -5.663727,0.483206 z"
           style="fill:#2f2f2f;stroke-width:0.958897"
           id="path1-6" />
        <g
           id="g18"
           style="stroke-width:0.958898">
          <path
             class="st4"
             d="m 23.568853,59.484956 c -1.446319,1.640293 -2.750132,1.960517 -3.251641,1.988827 -0.16717,0.0095 -0.307614,-0.03196 -0.421335,-0.124186 -0.493658,-0.356862 -1.974632,-1.427445 -3.134906,-3.108024 -1.409205,-2.070986 -3.112939,-4.815884 -2.317457,-5.403356 0.795484,-0.587474 2.677888,0.953692 6.283852,1.746479 1.750841,0.433865 2.912593,1.445104 3.244885,1.825095 0.332292,0.37999 0.754181,1.737254 -0.403398,3.075165 z"
             clip-path="url(#SVGID_2_)"
             id="path11-1"
             style="fill:#ffffff;fill-opacity:1;stroke-width:0.958896"
             sodipodi:nodetypes="csccscsc" />
          <path
             id="path15"
             clip-path="url(#SVGID_2_)"
             style="fill:#ffffff;fill-opacity:1;stroke-width:0.958896"
             class="st4"
             d="m 4.8452276,57.516236 c -0.3203756,0.05282 -0.4414468,0.633141 -0.3398438,1.583984 0.2680713,2.50872 1.3616217,5.869977 2.7949219,8.892578 1.4863082,3.134386 3.1069073,5.448557 5.9257813,7.470704 1.247355,0.894802 3.664867,0.130319 5.683594,-2.109375 2.018726,-2.239695 1.503644,-5.710466 0.417968,-6.439454 C 18.363403,66.267221 16.702055,66.334051 12.966321,64.500611 9.230588,62.667171 8.190319,62.16639 6.3745245,59.102173 5.6846408,57.93797 5.1656032,57.463421 4.8452276,57.516236 Z"
             sodipodi:nodetypes="sssssssss" />
        </g>
      </g>
    </g>
  </g>
</svg>
