<?xml version="1.0" encoding="UTF-8" standalone="no"?>
<svg
   width="128"
   height="128"
   version="1.1"
   id="svg4"
   sodipodi:docname="emoji_u1f619.svg"
   xml:space="preserve"
   inkscape:version="1.3 (0e150ed6c4, 2023-07-21)"
   xmlns:inkscape="http://www.inkscape.org/namespaces/inkscape"
   xmlns:sodipodi="http://sodipodi.sourceforge.net/DTD/sodipodi-0.dtd"
   xmlns="http://www.w3.org/2000/svg"
   xmlns:svg="http://www.w3.org/2000/svg"><defs
     id="defs4" /><sodipodi:namedview
     id="namedview4"
     pagecolor="#ffffff"
     bordercolor="#000000"
     borderopacity="0.25"
     inkscape:showpageshadow="2"
     inkscape:pageopacity="0.0"
     inkscape:pagecheckerboard="0"
     inkscape:deskcolor="#d1d1d1"
     inkscape:zoom="8.515625"
     inkscape:cx="64"
     inkscape:cy="64"
     inkscape:current-layer="svg4" /><g
     id="g7"
     transform="translate(-0.00441489,9.5205655e-4)">&#10;	<g
   id="g5">&#10;		<g
   id="g4">&#10;			<g
   id="g3">&#10;				<g
   id="g2">&#10;					<g
   id="g1">&#10;						<path
   fill="#fcc21b"
   d="M 15.99,32.83 C 35.23,4.03 67.35,-9.12 101.4,8.21 c 22.78,11.6 30.71,39.11 20.8,71.46 -4.07,13.34 6.13,15.6 5.47,22.68 -1.29,13.85 -28.42,25.21 -63.48,25.21 C 29.13,127.56 1.64,116.23 0.7,102.35 -1.19,74.37 3.73,51.23 15.99,32.83"
   id="path1" />&#10;					</g>&#10;				</g>&#10;			</g>&#10;		</g>&#10;	</g>&#10;	<path
   fill="#2f2f2f"
   d="m 49.57,48.43 c -0.93,0.35 -1.97,0.29 -2.91,0.09 -2.41,-0.5 -7.15,-2.73 -9.21,-1.51 -1.67,1.02 -2.49,3.33 -2.37,5.19 0.18,2.86 2.82,3.31 4.6,4.99 0.46,0.43 0.52,1.18 0.23,1.7 -0.13,0.19 -0.3,0.35 -0.52,0.46 -0.97,0.38 -2.15,-0.12 -3.11,-0.32 -1.1,-0.21 -2.04,-0.54 -3.08,-0.04 -1.68,0.83 -2.3,2.68 -1.88,4.51 0.54,2.16 4.27,5.68 5.42,7.75 0.62,1.09 2.8,5.28 0.49,5.71 -2.32,0.45 -6.68,-0.69 -6.72,-3.58 -0.05,-3.32 -3.82,-7.26 -4.17,-10.29 -0.38,-3.18 1,-5.89 3.63,-7.67 1.3,-0.87 0.53,-3.33 0.68,-4.64 0.2,-1.66 0.94,-3.36 1.97,-4.67 3.15,-4.18 9.6,-1.97 14.54,-1.91 1.17,0.01 2.03,0.28 2.77,1.3 0.74,0.95 0.89,2.47 -0.36,2.93 z"
   id="path5" />&#10;	<path
   fill="#2f2f2f"
   d="m 28.48,31.84 c 0.17,-0.26 4.59,-6.51 12.03,-5.27 l 0.06,0.02 c 7.44,1.27 9.53,8.67 9.62,8.99 0.39,1.42 -0.46,2.88 -1.87,3.27 -0.39,0.11 -0.77,0.12 -1.15,0.05 -0.99,-0.17 -1.84,-0.89 -2.11,-1.91 -0.08,-0.21 -1.34,-4.46 -5.41,-5.15 h -0.01 c -4.09,-0.68 -6.69,2.9 -6.8,3.06 -0.85,1.19 -2.51,1.48 -3.72,0.64 -1.18,-0.86 -1.47,-2.49 -0.64,-3.7 z"
   id="path6" />&#10;	<path
   fill="#2f2f2f"
   d="m 87.49,59.32 c -0.09,-0.01 -0.2,-0.03 -0.3,-0.06 -1.35,-0.37 -2.24,-1.71 -2.02,-3.14 0.02,-0.22 0.75,-5.61 -3.49,-8.43 -4.33,-2.87 -9.18,0 -9.25,0.03 -1.31,0.81 -3.03,0.38 -3.83,-0.95 -0.8,-1.32 -0.38,-3.04 0.94,-3.85 0.34,-0.2 7.97,-4.72 15.24,0.08 7.29,4.84 5.99,13.61 5.92,13.98 -0.23,1.54 -1.67,2.59 -3.21,2.34 z"
   id="path7" />&#10;</g></svg>
