<?xml version="1.0" encoding="UTF-8" standalone="no"?>
<svg
   width="128"
   height="128"
   version="1.1"
   id="svg10"
   sodipodi:docname="emoji_u1f52b.svg"
   inkscape:version="1.3 (0e150ed6c4, 2023-07-21)"
   xmlns:inkscape="http://www.inkscape.org/namespaces/inkscape"
   xmlns:sodipodi="http://sodipodi.sourceforge.net/DTD/sodipodi-0.dtd"
   xmlns="http://www.w3.org/2000/svg"
   xmlns:svg="http://www.w3.org/2000/svg">
  <defs
     id="defs10">
    <inkscape:path-effect
       effect="fillet_chamfer"
       id="path-effect11"
       is_visible="true"
       lpeversion="1"
       nodesatellites_param="F,0,0,1,0,8.2651224,0,1 @ F,0,0,1,0,8.2651224,0,1 @ F,0,0,1,0,5.3315384,0,1 @ F,0,1,1,0,5.3315384,0,1"
       radius="0"
       unit="px"
       method="auto"
       mode="F"
       chamfer_steps="1"
       flexible="false"
       use_knot_distance="true"
       apply_no_radius="true"
       apply_with_radius="true"
       only_selected="false"
       hide_knots="false" />
    <inkscape:path-effect
       effect="fillet_chamfer"
       id="path-effect17"
       is_visible="true"
       lpeversion="1"
       nodesatellites_param="F,0,1,1,0,0.41846048,0,1 @ F,0,0,1,0,0.41846048,0,1 @ F,0,1,1,0,0.41846048,0,1 @ F,0,1,1,0,0.41846048,0,1"
       radius="0"
       unit="px"
       method="auto"
       mode="F"
       chamfer_steps="1"
       flexible="false"
       use_knot_distance="true"
       apply_no_radius="true"
       apply_with_radius="true"
       only_selected="false"
       hide_knots="false" />
  </defs>
  <sodipodi:namedview
     id="namedview10"
     pagecolor="#ffffff"
     bordercolor="#000000"
     borderopacity="0.25"
     inkscape:showpageshadow="2"
     inkscape:pageopacity="0.0"
     inkscape:pagecheckerboard="0"
     inkscape:deskcolor="#d1d1d1"
     inkscape:zoom="2.867097"
     inkscape:cx="51.79455"
     inkscape:cy="78.999768"
     inkscape:window-width="1366"
     inkscape:window-height="697"
     inkscape:window-x="-8"
     inkscape:window-y="-8"
     inkscape:window-maximized="1"
     inkscape:current-layer="svg10" />
  <path
     id="path14"
     style="fill:#b22424;fill-opacity:1;stroke:none;stroke-width:5.99999;stroke-linecap:round"
     d="m 52.608694,56.398438 v 6.225226 c 0,10.572301 5.622886,16.222924 18.885816,16.222924 10.725127,0 14.594754,-3.883735 14.594754,-3.883735 L 84.73281,65.999832 c 0,0 -3.685592,3.642919 -11.888852,3.642919 -8.986378,0 -10.643018,-3.790966 -10.643018,-8.481129 v -4.763184 z"
     sodipodi:nodetypes="cssccsscc" />
  <path
     id="rect11"
     style="fill:#4b6b75;fill-opacity:1;stroke-width:6;stroke-linecap:round"
     d="m 32.495187,23.10111 h 63.707198 c 4.732525,1e-6 8.568995,1.683176 8.568995,6.723392 v 8.388996 c 0,3.251266 -2.47477,5.886938 -5.527549,5.886938 H 29.453745 c -3.052788,0 -5.527562,-2.635672 -5.527562,-5.886938 v -8.388996 c 0,-5.040216 3.836474,-6.723391 8.569004,-6.723392 z"
     sodipodi:nodetypes="cccccsssc" />
  <path
     style="fill:#db4437;stroke:none;stroke-width:6;stroke-linecap:round"
     d="m 15.022185,33.965565 c -1.992567,0.351496 -4.014993,1.223244 -5.51006,2.951131 -1.223925,1.419477 -1.799282,3.446324 -1.925216,5.414513 -0.137953,2.238652 0.152315,4.540422 1.038123,6.490228 0.633713,1.42148 1.671496,2.550765 2.914394,3.166828 1.545184,0.906293 3.338683,0.718299 5.02817,0.819704 2.89765,0.04724 5.779729,0.381921 8.680063,0.360189 2.286425,-0.05027 4.610456,-0.425348 6.776239,-1.439282 1.628977,-0.794797 3.143206,-2.048088 4.240555,-3.726803 1.022929,-1.645365 1.571036,-3.825056 1.101883,-5.790032 -0.497764,-2.317909 -1.983269,-4.056907 -3.553134,-5.386054 -2.369575,-1.961537 -5.204825,-3.132548 -8.128517,-3.263168 -2.355628,-0.172347 -4.724296,0.115275 -7.08616,0.205984 -1.192101,0.06576 -2.384277,0.131527 -3.576416,0.197291 z"
     id="path4-8"
     sodipodi:nodetypes="sssss" />
  <path
     style="fill:#db4437;stroke:none;stroke-width:6;stroke-linecap:round"
     d="m 112.98682,34.188572 c -1.40893,0.124914 -2.80127,0.76023 -3.83886,1.862759 -0.72015,0.807591 -1.22087,1.848363 -1.45989,2.963562 -0.27363,1.322483 -0.20182,2.73885 0.2298,4.009066 0.37304,1.108373 1.00981,2.089202 1.77177,2.893686 0.84011,0.823846 1.89116,1.417092 3.01009,1.497581 0.94053,0.117808 1.89936,-0.08701 2.77251,-0.487272 0.86067,-0.463469 1.70763,-1.022521 2.35941,-1.824223 0.63787,-0.763306 1.0608,-1.734006 1.29898,-2.745853 0.2041,-1.397023 0.18596,-2.86574 -0.24869,-4.206407 -0.43264,-1.48659 -1.41853,-2.774453 -2.69881,-3.379566 -0.99254,-0.518268 -2.11347,-0.673327 -3.19593,-0.583333 z"
     id="path3-0"
     sodipodi:nodetypes="ssssssssss" />
  <g
     id="g17"
     transform="matrix(3.7795276,0,0,3.7795276,-661.09377,-330.52264)" />
  <path
     id="path1-1"
     style="fill:#6593a2;stroke:none;stroke-width:6;stroke-linecap:round"
     d="m 107.12891,29.978516 -81.466801,0.002 c -6.426702,1.55e-4 -8.853825,1.315929 -9.154297,7.158203 -0.170078,3.310523 0.142579,9.981602 0.142579,13.611328 0,4.319504 2.871037,5.648438 11.126953,5.648438 h 82.056636 c 2.89211,0 5.90625,-1.750233 5.90625,-5.481986 V 35.878906 c 0,-5.049633 -2.53362,-5.900538 -8.61132,-5.90039 z"
     sodipodi:nodetypes="cccsssssc" />
  <path
     d="M 91.458293,38.222712 H 21.877681 c 0,0 -0.08013,-1.550023 0.24,-2.500007 0.300094,-0.870009 1.321436,-0.72 1.321436,-0.72 h 68.019176 z m 2.490028,-3.220007 h 4.789984 v 3.220007 h -4.789984 z"
     fill="#ffffff"
     id="path6-3"
     style="stroke-width:0.999999"
     sodipodi:nodetypes="ccccccccccc" />
  <path
     id="rect13"
     style="fill:#db4437;fill-opacity:1;stroke:none;stroke-width:5.99999;stroke-linecap:round"
     d="m 80.251566,56.398485 5.316793,45.390575 c 0.525776,4.48866 3.26677,5.99805 8.697266,5.99805 H 108.0957 c 5.07696,0 6.7157,-3.21903 6.125,-8.867188 l -4.35937,-41.683594 c -0.0317,-0.30327 -0.0339,-0.575788 -0.0273,-0.83789 z"
     sodipodi:nodetypes="cssssccc" />
</svg>
