<?xml version="1.0" encoding="UTF-8" standalone="no"?>
<!-- Generator: Adobe Illustrator 25.2.3, SVG Export Plug-In . SVG Version: 6.00 Build 0)  -->

<svg
   version="1.1"
   id="Layer_2"
   x="0px"
   y="0px"
   viewBox="0 0 128 128"
   style="enable-background:new 0 0 128 128;"
   xml:space="preserve"
   sodipodi:docname="emoji_u1f94f.svg"
   inkscape:version="1.2.2 (732a01da63, 2022-12-09)"
   xmlns:inkscape="http://www.inkscape.org/namespaces/inkscape"
   xmlns:sodipodi="http://sodipodi.sourceforge.net/DTD/sodipodi-0.dtd"
   xmlns="http://www.w3.org/2000/svg"
   xmlns:svg="http://www.w3.org/2000/svg"><defs
   id="defs2242" /><sodipodi:namedview
   id="namedview2240"
   pagecolor="#ffffff"
   bordercolor="#000000"
   borderopacity="0.25"
   inkscape:showpageshadow="2"
   inkscape:pageopacity="0.0"
   inkscape:pagecheckerboard="0"
   inkscape:deskcolor="#d1d1d1"
   showgrid="false"
   inkscape:zoom="2.9996795"
   inkscape:cx="64.840259"
   inkscape:cy="84.675711"
   inkscape:window-width="1366"
   inkscape:window-height="697"
   inkscape:window-x="-8"
   inkscape:window-y="-8"
   inkscape:window-maximized="1"
   inkscape:current-layer="Layer_2" />
<path
   style="fill:#94d4f1;stroke:none;stroke-width:35.9055;stroke-linecap:round"
   d="m 84.861878,10.698437 c 6.600369,0 9.13372,1.483408 9.13372,4.312137 0,8.839779 -33.649373,4.838516 -33.649373,28.925432 0,23.591594 5.893186,33.001842 5.893186,33.001842 l -37.480663,7.071823 c 0,0 -5.421731,-10.13628 -5.421731,-33.001842 0,-22.865561 25.222836,-40.309392 61.524861,-40.309392 z"
   id="path5385"
   sodipodi:nodetypes="sssccss" /><path
   style="fill:#196ca2;stroke-width:1"
   d="m 19.595991,79.73632 -8.809204,5.812303 c 0,0 -1.4275289,8.166028 2.844452,15.924287 3.817192,6.93039 21.496773,21.41014 57.173703,13.49173 C 113.16024,105.56742 116.20056,78.963644 115.57329,72.98537 114.73493,65.025891 111.81735,60.222335 103.30278,55.594459 94.788216,50.966583 19.595991,79.73632 19.595991,79.73632 Z"
   id="path2217" />
<path
   style="fill:#42ade7;stroke-width:1"
   d="M 51.546821,50.665409 C 24.428652,57.581278 7.2101454,78.25832 11.289848,91.264588 c 4.515253,14.410692 31.99258,22.829492 61.779212,14.822022 30.5075,-8.204174 44.13261,-30.286584 38.677,-42.040573 -5.4556,-11.753988 -30.328149,-20.99883 -60.199239,-13.380628 z"
   id="path2219" />



<g
   id="g2229"
   style="fill:#94d4f1;stroke-width:1.13754"
   transform="matrix(0.86627968,0.14954462,-0.14954462,0.86627968,17.46531,17.457085)">
	<path
   style="fill:#94d4f1;stroke-width:1.13754"
   d="m 44.31,79.85 c -11.37,0 -19.58,-4.07 -22.19,-10.11 -3.99,-9.2 4.17,-23.95 26.33,-33.95 v 0 c 21.75,-9.81 41.69,-7.23 47.08,1.71 2.03,3.36 2.54,8.08 0.99,12.79 -3.18,9.67 -13.36,18.3 -27.48,24.16 -9.11,3.78 -17.55,5.4 -24.73,5.4 z M 50.60873,40.244283 C 37.508822,46.332097 24.559999,57.974484 28.523743,67.119535 31.421009,73.811686 46.209507,78.40643 66.783651,69.865717 83.660669,62.86251 88.539807,53.548599 89.766257,49.807038 90.912721,46.323209 90.814961,43.390394 89.401877,41.035254 85.8114,35.080751 70.116395,31.445837 50.60873,40.244283 Z"
   id="path2227"
   sodipodi:nodetypes="scsscccscccccc" />
</g>




</svg>
