<?xml version="1.0" encoding="UTF-8" standalone="no"?>
<svg
   width="128"
   height="128"
   version="1.1"
   id="svg3"
   sodipodi:docname="emoji_u1f610.svg"
   xml:space="preserve"
   inkscape:version="1.3 (0e150ed6c4, 2023-07-21)"
   xmlns:inkscape="http://www.inkscape.org/namespaces/inkscape"
   xmlns:sodipodi="http://sodipodi.sourceforge.net/DTD/sodipodi-0.dtd"
   xmlns="http://www.w3.org/2000/svg"
   xmlns:svg="http://www.w3.org/2000/svg"><defs
     id="defs3" /><sodipodi:namedview
     id="namedview3"
     pagecolor="#ffffff"
     bordercolor="#000000"
     borderopacity="0.25"
     inkscape:showpageshadow="2"
     inkscape:pageopacity="0.0"
     inkscape:pagecheckerboard="0"
     inkscape:deskcolor="#d1d1d1"
     inkscape:zoom="8.515625"
     inkscape:cx="64"
     inkscape:cy="64"
     inkscape:current-layer="svg3" /><g
     id="g4"
     transform="translate(8.4625053e-4,7.662769e-4)">&#10;	<path
   fill="#fcc21b"
   d="M 125.74,74.99 C 133.53,45.33 117.01,15.77 87.51,10.36 24.09,-1.31 -3.8,53.67 0.83,94.54 c 0,13.63 28.17,24.69 62.93,24.69 32.58,0 59.37,-9.73 62.59,-22.17 0.22,-0.83 0.33,-1.67 0.33,-2.52 0.01,-6.48 -4.12,-7.46 -0.94,-19.55 z"
   id="path1" />&#10;	<path
   fill="#2f2f2f"
   d="m 31.07,40.17 c 2.28,-4.54 7.2,-6.69 10.99,-4.84 3.78,1.86 5.01,7.03 2.74,11.56 -2.27,4.53 -7.18,6.69 -10.97,4.83 -3.78,-1.86 -5.02,-7.04 -2.76,-11.55 z"
   id="path2" />&#10;	<path
   fill="#2f2f2f"
   d="m 73.26,76.53 c 0.1,-1.28 -0.68,-2.43 -1.84,-2.84 -0.25,-0.09 -0.51,-0.15 -0.78,-0.17 -18.1,-1.23 -36.02,-5.94 -36.2,-5.99 -1.52,-0.39 -3.05,0.5 -3.46,2.01 -0.38,1.51 0.49,3.06 2.01,3.46 0.75,0.2 18.63,4.89 37.27,6.15 1.56,0.11 2.89,-1.06 3,-2.62 z"
   id="path3" />&#10;	<path
   fill="#2f2f2f"
   d="m 84.1,52.1 c -1.09,5.07 -5.41,8.47 -9.65,7.59 -4.27,-0.89 -6.84,-5.72 -5.77,-10.79 1.09,-5.08 5.41,-8.48 9.67,-7.59 4.25,0.87 6.83,5.69 5.75,10.79 z"
   id="path4" />&#10;</g></svg>
