<?xml version="1.0" encoding="UTF-8" standalone="no"?>
<svg
   width="128"
   height="128"
   version="1.1"
   id="svg4"
   sodipodi:docname="emoji_u1f607.svg"
   inkscape:version="1.3 (0e150ed6c4, 2023-07-21)"
   xmlns:inkscape="http://www.inkscape.org/namespaces/inkscape"
   xmlns:sodipodi="http://sodipodi.sourceforge.net/DTD/sodipodi-0.dtd"
   xmlns="http://www.w3.org/2000/svg"
   xmlns:svg="http://www.w3.org/2000/svg">
  <defs
     id="defs4" />
  <sodipodi:namedview
     id="namedview4"
     pagecolor="#ffffff"
     bordercolor="#000000"
     borderopacity="0.25"
     inkscape:showpageshadow="2"
     inkscape:pageopacity="0.0"
     inkscape:pagecheckerboard="0"
     inkscape:deskcolor="#d1d1d1"
     inkscape:zoom="2.0273438"
     inkscape:cx="33.788054"
     inkscape:cy="91.992293"
     inkscape:window-width="1366"
     inkscape:window-height="697"
     inkscape:window-x="-8"
     inkscape:window-y="-8"
     inkscape:window-maximized="1"
     inkscape:current-layer="svg4"
     showguides="true" />
  <path
     d="m 63.79,15.869538 c -62.31,0 -63.79,69.85 -63.79,83.68 0,13.830002 28.56,25.030002 63.79,25.030002 35.24,0 63.79,-11.21 63.79,-25.030002 0,-13.83 -1.47,-83.68 -63.79,-83.68 z"
     fill="#fcc21b"
     id="path1" />
  <g
     fill="#2f2f2f"
     id="g3"
     transform="translate(0,-3.040462)">
    <path
       d="m 31.96,73.81 a 2.728,2.728 0 0 1 -3.73,0.93 2.72,2.72 0 0 1 -0.96,-3.71 c 0.18,-0.31 4.6,-7.62 14.37,-7.62 9.78,0 14.2,7.31 14.39,7.62 a 2.735,2.735 0 0 1 -2.36,4.11 c -0.92,0 -1.83,-0.47 -2.34,-1.32 C 51.2,73.6 48.21,68.86 41.64,68.86 35.07,68.85 32.1,73.6 31.96,73.81 Z M 100,74.75 c -0.43,0.26 -0.91,0.38 -1.37,0.38 -0.94,0 -1.85,-0.49 -2.36,-1.34 -0.11,-0.2 -3.08,-4.94 -9.66,-4.94 -6.69,0 -9.66,4.89 -9.69,4.94 a 2.724,2.724 0 0 1 -4.69,-2.77 c 0.18,-0.31 4.6,-7.62 14.38,-7.62 9.77,0 14.18,7.31 14.36,7.62 0.76,1.3 0.32,2.98 -0.97,3.73 z"
       id="path3" />
  </g>
  <path
     d="m 63.8,2.9595376 c -31.21,0 -56.52,10.3935594 -56.52,23.2196544 0,12.837151 25.31,23.219654 56.52,23.219654 31.21,0 56.5,-10.382503 56.5,-23.219654 C 120.3,13.353097 95.01,2.9595376 63.8,2.9595376 Z M 63.7904,28.872708 c -18.134827,0 -32.85399,-3.440081 -32.85399,-7.683749 0,-4.234642 14.719163,-7.683751 32.85399,-7.683751 18.12457,0 32.823218,3.449109 32.823218,7.683751 0,4.252698 -14.698648,7.683749 -32.823218,7.683749 z"
     fill="#40c0e7"
     id="path4"
     sodipodi:nodetypes="ssssssssss"
     style="stroke-width:1" />
  <path
     style="fill:none;stroke:#2f2f2f;stroke-width:6;stroke-linecap:round;stroke-opacity:1"
     d="m 40.541299,85.06509 c 0,0 8.406824,7.177 23.248702,7.177 14.841878,0 23.248703,-7.177 23.248703,-7.177"
     id="path5"
     sodipodi:nodetypes="czc" />
</svg>
