<?xml version="1.0" encoding="UTF-8" standalone="no"?>
<svg
   width="128"
   height="128"
   version="1.1"
   id="svg67794"
   sodipodi:docname="emoji_u1f3a8.svg"
   inkscape:version="1.2.2 (732a01da63, 2022-12-09)"
   xmlns:inkscape="http://www.inkscape.org/namespaces/inkscape"
   xmlns:sodipodi="http://sodipodi.sourceforge.net/DTD/sodipodi-0.dtd"
   xmlns:xlink="http://www.w3.org/1999/xlink"
   xmlns="http://www.w3.org/2000/svg"
   xmlns:svg="http://www.w3.org/2000/svg">
  <sodipodi:namedview
     id="namedview67796"
     pagecolor="#ffffff"
     bordercolor="#000000"
     borderopacity="0.25"
     inkscape:showpageshadow="2"
     inkscape:pageopacity="0.0"
     inkscape:pagecheckerboard="0"
     inkscape:deskcolor="#d1d1d1"
     showgrid="false"
     inkscape:zoom="2.9996795"
     inkscape:cx="30.503258"
     inkscape:cy="67.673895"
     inkscape:window-width="1366"
     inkscape:window-height="697"
     inkscape:window-x="-8"
     inkscape:window-y="-8"
     inkscape:window-maximized="1"
     inkscape:current-layer="svg67794" />
  <defs
     id="defs67756">
    <path
       id="a"
       d="M103.44 27.85c-2.15-5.08-6.79-11.67-11.58-14.6C80.72 6.4 66.56 5.08 53.93 7.5 34.09 11.3 15.5 24.13 6.19 42.21c-6.59 12.8-7.95 32.31.83 44.59 5.73 8.01 17.1 11.04 26.12 7.28 6.13-2.55 9.93-8.23 15.23-11.95 6.88-4.84 14.34-3.47 22.32-3.78 22.91-.87 41.64-29.39 32.75-50.5zM69.75 60.89c-1.82.7-4.21 1.11-6.17.82-1.98-.31-4.08-1.76-5.13-3.48-3.65-5.92 2.41-12.77 8.01-14.26 2.78-.74 6.86-.28 9.07 1.63 5.73 4.95-.52 13.25-5.78 15.29z" />
  </defs>
  <g
     id="g70153"
     transform="matrix(1.1653271,0,0,1.1653282,-35.063389,-9.8120037)"
     style="stroke-width:0.858128">
    <use
       xlink:href="#a"
       overflow="visible"
       fill="#f79329"
       id="use67758-9"
       transform="translate(31.741612,12.3089)"
       style="stroke-width:0.817546" />
    <path
       d="m 75.211612,33.8989 c 1.57,-1.26 3.59,-2.05 5.48,-2.21 3.45,-0.3 5.89,2.77 5.75,6.17 -0.19,4.3 -4.91,6.39 -8.85,6.22 -3.06,-0.13 -5.58,-2.89 -5.07,-5.87 0.31,-1.74 1.33,-3.2 2.69,-4.31 z"
       fill="#ed6c30"
       id="path67760-3"
       style="stroke-width:0.817546" />
    <path
       d="m 48.231612,65.9889 c 1.19,-4.79 6.88,-7.82 10.93,-4.4 3.86,3.25 2.05,9.69 -2.04,12.05 -2.72,1.57 -6.76,0.52 -8.33,-2.39 -0.87,-1.61 -1,-3.5 -0.56,-5.26 z"
       fill="#bdcf46"
       id="path67762-2"
       style="stroke-width:0.817546" />
    <path
       d="m 60.471612,82.3289 c 2.27,4.3 0.76,10.93 -4.77,11.39 -5.53,0.46 -8.62,-6.05 -7.19,-10.81 1.43,-4.74 7.29,-5.52 10.59,-2.4 0.56,0.53 1.02,1.14 1.37,1.82 z"
       fill="#006ca2"
       id="path67764-1"
       style="stroke-width:0.817546" />
    <path
       d="m 70.021612,51.7689 c -1.49,2.74 -4.96,5.13 -8.17,4.73 -4.03,-0.5 -5.61,-5.3 -3.86,-8.73 2.4,-4.7 9.92,-6.58 12.44,-0.8 0.69,1.59 0.42,3.29 -0.41,4.8 z"
       fill="#fcc21b"
       id="path67766-2"
       style="stroke-width:0.817546" />
  </g>
</svg>
