<?xml version="1.0" encoding="UTF-8" standalone="no"?>
<svg
   width="100%"
   height="100%"
   viewBox="0 0 128 128"
   version="1.1"
   xml:space="preserve"
   style="fill-rule:evenodd;clip-rule:evenodd;stroke-linejoin:round;stroke-miterlimit:1.41421;"
   id="svg10"
   sodipodi:docname="emoji_u1f9bf.svg"
   inkscape:version="1.3 (0e150ed6c4, 2023-07-21)"
   xmlns:inkscape="http://www.inkscape.org/namespaces/inkscape"
   xmlns:sodipodi="http://sodipodi.sourceforge.net/DTD/sodipodi-0.dtd"
   xmlns="http://www.w3.org/2000/svg"
   xmlns:svg="http://www.w3.org/2000/svg"><sodipodi:namedview
   id="namedview10"
   pagecolor="#ffffff"
   bordercolor="#000000"
   borderopacity="0.25"
   inkscape:showpageshadow="2"
   inkscape:pageopacity="0.0"
   inkscape:pagecheckerboard="0"
   inkscape:deskcolor="#d1d1d1"
   inkscape:zoom="2.0273438"
   inkscape:cx="31.321773"
   inkscape:cy="79.16763"
   inkscape:window-width="1366"
   inkscape:window-height="697"
   inkscape:window-x="-8"
   inkscape:window-y="-8"
   inkscape:window-maximized="1"
   inkscape:current-layer="svg10" />&#10;    &#10;    &#10;    &#10;    &#10;    &#10;    &#10;    &#10;    &#10;    &#10;    <defs
   id="defs10">&#10;        <linearGradient
   id="_Linear1"
   x1="0"
   y1="0"
   x2="1"
   y2="0"
   gradientUnits="userSpaceOnUse"
   gradientTransform="matrix(-15.4049,25.4222,-25.4222,-15.4049,54.1815,52.3627)"><stop
     offset="0"
     style="stop-color:rgb(195,195,195);stop-opacity:1"
     id="stop9" /><stop
     offset="1"
     style="stop-color:rgb(152,152,152);stop-opacity:1"
     id="stop10" /></linearGradient>&#10;    </defs>&#10;<path
   style="fill:#6593a2;stroke-width:9.07087;stroke-linecap:round"
   d="M 67.496871,11.078836 C 32.476517,23.129511 26.573563,32.244468 29.760429,41.505792 32.947297,50.767117 52.23178,54.442604 78.969383,45.242065 105.70698,36.041525 110.592,29.925936 109.83992,19.139794 108.8331,4.7002811 92.672883,2.4156481 67.496871,11.078836 Z"
   id="path1"
   sodipodi:nodetypes="sssss" /><path
   style="fill:#6593a2;stroke-width:9.07087;stroke-linecap:round"
   d="M 41.233761,50.068385 C 30.028872,53.070726 34.57615,62.53275 39.888353,82.358164 45.200558,102.18357 43.851024,112.45142 54.303433,109.65071 64.755843,106.85 62.14345,98.410832 57.378651,80.628354 52.61385,62.845877 48.92248,48.008199 41.233761,50.068385 Z"
   id="path3"
   sodipodi:nodetypes="sssss" /><circle
   style="fill:#4b6b75;stroke-width:9.07088;stroke-linecap:round"
   id="path2"
   cx="40.807827"
   cy="48.82988"
   r="13.976182" /><path
   style="fill:#6593a2;stroke-width:9.07087;stroke-linecap:round"
   d="m 50.474137,102.00038 c -23.716489,0 -34.487127,9.96879 -34.487127,16.13449 0,6.16571 6.782273,4.80925 12.208092,4.80925 10.60501,0 12.331407,-0.73988 18.743738,-0.73988 5.055877,0 7.768786,0.8632 12.331407,0.8632 4.932562,0 6.905587,-2.71291 6.905587,-6.16571 0,-5.67244 -4.247386,-14.90135 -15.701697,-14.90135 z"
   id="path4"
   sodipodi:nodetypes="sssssss" /><circle
   style="fill:#4b6b75;stroke-width:9.07085;stroke-linecap:round"
   id="circle3"
   cx="53.134979"
   cy="104.40636"
   r="11.041431" /></svg>
