<?xml version="1.0" encoding="UTF-8" standalone="no"?>
<svg
   width="128"
   height="128"
   style="enable-background:new 0 0 128 128;"
   version="1.1"
   id="svg93943"
   sodipodi:docname="emoji_u1f37f.svg"
   inkscape:version="1.2.2 (732a01da63, 2022-12-09)"
   xml:space="preserve"
   xmlns:inkscape="http://www.inkscape.org/namespaces/inkscape"
   xmlns:sodipodi="http://sodipodi.sourceforge.net/DTD/sodipodi-0.dtd"
   xmlns="http://www.w3.org/2000/svg"
   xmlns:svg="http://www.w3.org/2000/svg"><defs
     id="defs93947" /><sodipodi:namedview
     id="namedview93945"
     pagecolor="#ffffff"
     bordercolor="#000000"
     borderopacity="0.25"
     inkscape:showpageshadow="2"
     inkscape:pageopacity="0.0"
     inkscape:pagecheckerboard="0"
     inkscape:deskcolor="#d1d1d1"
     showgrid="false"
     inkscape:zoom="2.9996795"
     inkscape:cx="59.673041"
     inkscape:cy="84.008974"
     inkscape:window-width="1366"
     inkscape:window-height="697"
     inkscape:window-x="-8"
     inkscape:window-y="-8"
     inkscape:window-maximized="1"
     inkscape:current-layer="svg93943" /><g
     id="g572"
     transform="matrix(0.96538039,0,0,0.96538039,2.1630346,0.85748763)"
     style="stroke-width:1.03586"><path
       id="XMLID_983_"
       d="m 100.76141,45.36276 c 0.77769,-0.764286 1.27381,-1.863787 1.27381,-3.043738 0,-2.333089 -1.89061,-4.237103 -4.210288,-4.237103 -0.04022,0 -0.08046,0 -0.134085,0 0.321805,-0.657017 0.522933,-1.38108 0.522933,-2.158774 0,-1.743113 -0.92519,-3.271687 -2.319679,-4.116425 -0.442482,0.589976 -1.072683,1.005642 -1.783337,1.19336 -0.02682,0.134086 -0.05364,0.268172 -0.107262,0.388849 -0.402257,1.072683 -1.595617,1.609025 -2.668301,1.220178 0,0.254762 -0.02682,0.522933 -0.134086,0.777695 -0.362031,0.978825 -1.394488,1.515165 -2.40013,1.30063 -0.02682,-0.02682 -0.05364,-0.04022 -0.08046,-0.06704 1.032458,-1.246996 0.952006,-3.083968 -0.241354,-4.223693 -1.246995,-1.179953 -3.204643,-1.139727 -4.398004,0.09385 -0.174311,0.174312 -0.308396,0.375439 -0.429072,0.589977 -0.214537,-0.187719 -0.455892,-0.321804 -0.697245,-0.442482 -0.0134,-0.362031 0.02682,-0.724061 0.134085,-1.086093 -0.147494,-0.0134 -0.294987,-0.05364 -0.429073,-0.08045 1.461531,-0.643611 2.493989,-2.105142 2.493989,-3.808027 0,-0.670428 -0.160903,-1.314039 -0.455891,-1.863789 0.09385,0 0.174312,0.02682 0.268172,0.02682 2.131959,0 3.901887,-1.46153 4.424821,-3.432587 0.09385,-0.36203 0.160902,-0.750879 0.160902,-1.153136 0,-2.064916 -1.38108,-3.794618 -3.271685,-4.371186 -0.56316,-1.890605 -2.292863,-3.271684 -4.371187,-3.271684 -1.541983,0 -2.882838,0.764287 -3.714168,1.930829 0,-0.05364 0.0134,-0.107273 0.0134,-0.160902 0,-1.997873 -1.622433,-3.606898 -3.620307,-3.606898 -0.469299,0 -0.898373,0.09385 -1.314038,0.254762 -0.6302,-1.394489 -1.863788,-2.440356 -3.365545,-2.8292037 0.04022,-1.8503797 -1.300629,-3.4728129 -3.177825,-3.7275756 -0.294988,-0.040217 -0.576568,-0.040217 -0.871556,0 C 66.033271,3.5146881 64.65219,1.7581685 62.694542,1.4899975 61.70231,1.355912 60.750302,1.6374915 60.012833,2.187242 59.637394,1.5972659 59.007191,1.1547839 58.256313,1.0609241 c -1.354262,-0.18771973 -2.614667,0.764287 -2.788977,2.1185504 -0.04022,0.3218051 -0.0134,0.643611 0.05364,0.938598 -1.340855,-0.1609021 -2.574441,0.7776953 -2.762162,2.1319597 -0.02682,0.1609032 -0.02682,0.3218053 -0.0134,0.4827073 -1.086093,0.5497508 -1.890605,1.6090261 -2.064917,2.896246 -0.04022,0.2815799 -0.04022,0.5631595 -0.0134,0.8313305 -2.051507,0.37544 -3.700759,2.078323 -3.888479,4.250508 0,0.08045 0,0.147494 0,0.227946 -0.509524,-0.0134 -0.978823,0.120677 -1.421305,0.321805 -0.831331,-0.898372 -2.011283,-1.47494 -3.338728,-1.47494 -2.534217,0 -4.585724,2.051507 -4.585724,4.585723 0,0.06704 0.0134,0.147495 0.02682,0.214536 -1.609025,0.120678 -2.882837,1.448124 -2.882837,3.083966 0,0.576567 0.174311,1.11291 0.442481,1.582209 -1.850379,-0.764287 -4.049381,-0.254762 -5.336601,1.394488 -1.273812,1.635843 -1.260403,3.848254 -0.120676,5.457279 -0.402257,1.045868 -0.402257,2.185594 -0.04022,3.218052 -2.13196,0.402255 -3.740985,2.252635 -3.740985,4.491864 0,0.06703 0.0134,0.147493 0.02682,0.214536 -1.609026,0.120677 -2.882838,1.448123 -2.882838,3.083965 0,1.206771 0.697245,2.252637 1.702885,2.762161 l 1.00564,4.625949 h 74.47105 z"
       style="fill:#fbc21a;stroke-width:1.03586" /><circle
       id="XMLID_1_"
       cx="94.834831"
       cy="42.520142"
       r="3.8750703"
       style="fill:#ffffff;stroke-width:1.03586" /><circle
       id="XMLID_3_"
       cx="89.86026"
       cy="41.273151"
       r="3.8750703"
       style="fill:#ffffff;stroke-width:1.03586" /><circle
       id="XMLID_4_"
       cx="57.585884"
       cy="42.520142"
       r="5.1220651"
       style="fill:#ffffff;stroke-width:1.03586" /><path
       id="XMLID_968_"
       d="m 34.603633,47.333817 -0.0134,-0.05364 c 0,0.0134 0,0.02682 0.0134,0.05364 z"
       style="fill:none;stroke-width:1.03586" /><path
       id="XMLID_969_"
       d="m 34.590224,47.065646 c 0,-0.120677 0.0134,-0.241353 0.0134,-0.36203 -0.0134,0 -0.02682,0.0134 -0.04022,0.0134 0.02682,0.120678 0.02682,0.227946 0.02682,0.348623 z"
       style="fill:none;stroke-width:1.03586" /><path
       id="XMLID_970_"
       d="m 45.585233,46.328176 c 0.04022,0.28158 0.08045,0.576568 0.08045,0.884964 l 0.02682,-0.0134 v 0.0134 c 0,-0.214536 0.0134,-0.415665 0.04022,-0.630201 -0.05364,-0.09385 -0.09385,-0.174312 -0.147497,-0.254763 z"
       style="fill:none;stroke-width:1.03586" /><path
       id="XMLID_971_"
       d="m 67.843422,47.186324 v 0.134085 h 0.02682 c 0,-0.04022 0,-0.08046 0,-0.120677 0,-0.362031 0.04022,-0.710653 0.107273,-1.045867 -0.06704,0.0134 -0.134085,0.0134 -0.214536,0.02682 0.05364,0.335215 0.08046,0.670428 0.08046,1.005642 z"
       style="fill:#fff1d4;stroke-width:1.03586" /><path
       id="XMLID_972_"
       d="m 43.801896,38.336682 c -0.0134,-0.0134 -0.0134,-0.0134 -0.02682,-0.02682 -0.0134,0.0134 -0.02682,0.02682 -0.04022,0.04022 0.02682,0 0.04022,0 0.06703,-0.0134 z"
       style="fill:#ffffff;stroke-width:1.03586" /><path
       id="XMLID_973_"
       d="m 46.456789,44.397346 c 0.0134,-0.01341 0.0134,-0.02682 0.02682,-0.05364 -0.0134,0.0134 -0.02682,0.0134 -0.04022,0.02682 0.0134,0.0134 0.0134,0.0134 0.0134,0.02682 z"
       style="fill:#ffffff;stroke-width:1.03586" /><path
       id="XMLID_980_"
       d="m 30.634704,41.903356 c 0.05364,0.0134 0.107273,0.02682 0.147493,0.05364 0,-0.02682 -0.0134,-0.05364 -0.0134,-0.08046 -0.04022,0.0134 -0.08046,0.0134 -0.134085,0.02682 z"
       style="fill:#fff1d4;stroke-width:1.03586" /><path
       id="XMLID_991_"
       d="m 34.576817,46.717025 c 0.0134,0 0.02682,-0.0134 0.04022,-0.0134 0.06704,-0.804514 0.321805,-1.568801 0.697245,-2.239228 -0.37544,0.201128 -0.804513,0.321805 -1.260403,0.348623 0.281579,0.589975 0.45589,1.233586 0.522933,1.904012 z"
       style="fill:#fff1d4;stroke-width:1.03586" /><path
       id="XMLID_994_"
       d="m 54.75668,12.109564 c 0.375439,0.05364 0.724061,-0.0134 1.045865,-0.134086 0.20113,1.783338 1.58221,3.271687 3.445997,3.52645 2.199003,0.294987 4.223693,-1.246996 4.518681,-3.445998 0,-0.02682 0,-0.04022 0,-0.06704 0.08046,0.02682 0.147495,0.04022 0.227945,0.05364 C 64.652187,10.581 65.966224,9.481499 67.57525,9.1328766 67.588649,7.6445198 66.502567,6.3304817 64.9874,6.1293544 64.839907,6.1159452 64.692412,6.1159452 64.558327,6.1159452 64.652181,4.8287243 63.740405,3.6755894 62.453185,3.5012786 61.313459,3.3537847 60.254183,4.0108037 59.851927,5.0298527 59.583755,4.3996514 59.007188,3.9303522 58.283128,3.8364925 c -1.099502,-0.147494 -2.118551,0.6302014 -2.266045,1.7297019 -0.0134,0.134086 -0.0134,0.2547628 -0.0134,0.3888477 -0.898374,-0.093853 -1.716294,0.5363427 -1.836972,1.4347149 -0.02682,0.2413547 -0.0134,0.4692992 0.05364,0.6838367 -0.65702,0.2815779 -1.153136,0.8983722 -1.260405,1.6492514 -0.174311,1.1665429 0.643612,2.2258179 1.796747,2.3867219 z m 0.938597,-4.4650453 c 0.429073,-0.026818 0.670428,-0.147494 1.032459,-0.4290729 0.308397,-0.2279456 0.616792,-0.8045125 0.844739,-1.2067704 0.147493,-0.2681698 0.402255,-0.026818 0.482707,0.1877203 0.147494,0.3352133 0.294988,0.589975 0.616793,1.0324582 0.268171,0.3620304 0.657018,0.6570195 0.992232,0.8715549 0.335213,0.2145365 0.201128,0.429074 -0.05364,0.5229336 -0.388847,0.134086 -0.750878,0.3352133 -1.01905,0.6570186 -0.254762,0.294988 -0.402256,0.6436104 -0.375438,0.978825 0.02682,0.415665 -0.06703,0.576568 -0.335215,0.442482 C 57.652923,10.580991 57.331118,10.379863 56.955678,9.5217157 56.66069,8.851288 55.950037,8.4892575 55.507554,8.1674513 55.18575,7.9395057 55.373469,7.6579278 55.695274,7.6445187 Z"
       style="fill:#ffffff;stroke-width:1.03586" /><path
       id="XMLID_995_"
       d="m 55.507557,8.1540432 c 0.442483,0.3083972 1.153136,0.6838346 1.448124,1.3542633 0.37544,0.8581485 0.710653,1.0592755 0.925189,1.1799525 0.268171,0.147495 0.362032,-0.02682 0.335215,-0.442482 -0.02682,-0.3352137 0.120676,-0.670428 0.375438,-0.9788241 0.268171,-0.3083972 0.630203,-0.5095245 1.01905,-0.6570196 0.254762,-0.093853 0.37544,-0.308395 0.05364,-0.5229325 C 59.328993,7.8724632 58.940146,7.5640682 58.671975,7.2154458 58.35017,6.7729627 58.202676,6.518201 58.055182,6.1829866 57.961328,5.9684502 57.719968,5.7270965 57.572475,5.9952673 c -0.227947,0.4022558 -0.536342,0.9788238 -0.844739,1.2067694 -0.37544,0.2815789 -0.603386,0.4022568 -1.032459,0.4290739 -0.321805,0.026818 -0.509524,0.3083951 -0.18772,0.5229326 z"
       style="fill:#fbc21a;stroke-width:1.03586" /><path
       id="XMLID_998_"
       d="m 65.751688,14.777866 c 0,0.0134 0,0.04022 0,0.05364 -0.134085,-0.0134 -0.268171,-0.04022 -0.402256,-0.04022 -1.555392,0 -2.815794,1.260403 -2.815794,2.815795 0,1.555392 1.260402,2.815794 2.815794,2.815794 0.134085,0 0.268171,-0.02682 0.402256,-0.04022 0.06704,1.206769 1.059274,2.172185 2.292861,2.172185 1.072684,0 1.971057,-0.737472 2.225819,-1.743113 0.335214,0.549751 0.92519,0.911782 1.609026,0.911782 0.321805,0 0.616793,-0.09386 0.884964,-0.227946 0,-0.08046 -0.02682,-0.174311 -0.02682,-0.254763 0,-1.823561 1.072685,-3.378953 2.614667,-4.116424 0.442483,-0.362029 0.73747,-0.911779 0.73747,-1.528572 0,-1.099502 -0.884963,-1.984465 -1.984465,-1.984465 -0.348622,0 -0.670427,0.09385 -0.965414,0.254761 -0.388848,-1.649251 -1.85038,-2.85602 -3.620308,-2.85602 -2.078326,0 -3.767802,1.676069 -3.767802,3.767802 z m 8.058536,3.083965 c -0.402257,0.08046 -0.603384,0.227945 -0.911781,0.522935 -0.254762,0.254761 -0.469298,0.831328 -0.630201,1.220177 -0.107273,0.26817 -0.362031,0.08046 -0.4693,-0.120678 -0.17431,-0.294987 -0.348622,-0.509524 -0.697244,-0.884964 -0.294989,-0.294988 -0.697244,-0.536342 -1.032459,-0.683836 -0.335212,-0.160902 -0.241352,-0.375439 -0.0134,-0.482707 0.335213,-0.174312 0.657019,-0.415665 0.858146,-0.737471 0.201129,-0.308396 0.294989,-0.643609 0.227946,-0.952007 -0.08045,-0.375439 0,-0.549749 0.254763,-0.45589 0.214537,0.08046 0.54975,0.227945 1.005641,0.978823 0.362029,0.589977 1.059274,0.831331 1.515165,1.072686 0.321805,0.187719 0.18772,0.469299 -0.107262,0.522932 z"
       style="fill:#ffffff;stroke-width:1.03586" /><path
       id="XMLID_999_"
       d="m 73.917492,17.365715 c -0.455889,-0.241354 -1.153134,-0.482708 -1.515166,-1.072684 -0.455889,-0.750878 -0.791103,-0.898373 -1.005639,-0.978823 -0.268172,-0.09385 -0.335215,0.08045 -0.254763,0.45589 0.06703,0.308397 -0.02682,0.64361 -0.227946,0.952007 -0.214536,0.321805 -0.522932,0.563158 -0.858146,0.73747 -0.227945,0.120677 -0.321805,0.335214 0.0134,0.482708 0.335214,0.160903 0.73747,0.388847 1.032458,0.683835 0.348622,0.362032 0.522935,0.589976 0.697245,0.884964 0.107262,0.187721 0.36203,0.388849 0.469299,0.120677 0.160903,-0.402255 0.37544,-0.978823 0.630201,-1.220177 0.308398,-0.308396 0.509525,-0.455891 0.911782,-0.522934 0.294988,-0.08045 0.429074,-0.36203 0.107262,-0.522933 z"
       style="fill:#fbc21a;stroke-width:1.03586" /><path
       id="XMLID_1002_"
       d="m 41.629712,39.74458 c 0,-0.134086 -0.0134,-0.268171 -0.04022,-0.402256 0.844739,-0.589977 1.394489,-1.555392 1.394489,-2.654892 0,-0.509525 -0.120678,-0.978825 -0.335214,-1.407898 -1.609025,1.729703 -4.277326,1.997873 -6.167933,0.509526 -0.06704,-0.05364 -0.134084,-0.134087 -0.201128,-0.187721 -1.595617,1.019049 -3.714166,1.00564 -5.296375,-0.227945 -0.388847,-0.308397 -0.724061,-0.670427 -0.978824,-1.072685 -0.120677,0.402258 -0.201128,0.817923 -0.201128,1.260404 0,0.06704 0.0134,0.147494 0.02682,0.214536 -1.609026,0.120677 -2.882837,1.448123 -2.882837,3.083967 0,1.260403 0.750877,2.333087 1.823561,2.829203 0.09385,0 0.187719,-0.0134 0.281579,-0.0134 0.549751,0 1.072684,0.08045 1.582209,0.227946 0.05364,-0.0134 0.09385,-0.0134 0.147494,-0.02682 0,0.02682 0.0134,0.05364 0.0134,0.08046 1.434714,0.469299 2.601257,1.515166 3.258276,2.869429 0.45589,-0.02682 0.884963,-0.147494 1.260403,-0.348623 0.952008,-1.676067 2.748752,-2.788977 4.813668,-2.788977 0.05364,0 0.120677,0.0134 0.174312,0.0134 0.777695,-0.321805 1.327445,-1.072683 1.327445,-1.957647 z m -6.731091,-1.287221 c 0.321805,0.522932 0.952008,0.750878 1.354262,0.965416 0.294991,0.147495 0.174314,0.402256 -0.09385,0.45589 -0.34862,0.06704 -0.53634,0.201129 -0.81792,0.469299 -0.227946,0.227946 -0.429073,0.737471 -0.56316,1.0995 -0.09385,0.241355 -0.321805,0.06704 -0.429073,-0.107273 -0.160902,-0.26817 -0.308396,-0.469299 -0.630202,-0.791105 -0.254762,-0.26817 -0.630202,-0.482706 -0.92519,-0.616792 -0.294987,-0.134086 -0.214535,-0.335214 -0.0134,-0.442482 0.308398,-0.160903 0.589976,-0.37544 0.777697,-0.657019 0.187719,-0.281579 0.268171,-0.576567 0.201128,-0.858147 -0.06703,-0.335214 0,-0.496117 0.227946,-0.402258 0.201127,0.08046 0.509523,0.20113 0.91178,0.884967 z"
       style="fill:#ffffff;stroke-width:1.03586" /><path
       id="XMLID_1003_"
       d="m 34.000249,37.572395 c -0.241355,-0.09385 -0.308397,0.06703 -0.227946,0.402258 0.05364,0.268169 -0.02682,0.576566 -0.201127,0.858146 -0.18772,0.281578 -0.469299,0.496116 -0.777697,0.657019 -0.201128,0.107273 -0.28158,0.294987 0.0134,0.442481 0.294987,0.147495 0.670427,0.348622 0.92519,0.616793 0.321805,0.321804 0.469298,0.522934 0.630201,0.791105 0.09385,0.174311 0.335214,0.348622 0.429074,0.107274 0.147493,-0.362031 0.335213,-0.871556 0.563159,-1.099501 0.281579,-0.268171 0.469299,-0.415665 0.81792,-0.4693 0.268171,-0.05364 0.388848,-0.294988 0.09385,-0.455889 C 35.864019,39.208242 35.233818,38.980298 34.912011,38.457365 34.496346,37.77353 34.18795,37.652852 34.00023,37.5724 Z"
       style="fill:#b79178;stroke-width:1.03586" /><path
       id="XMLID_1006_"
       d="m 84.979544,25.826508 c -0.09385,0 -0.174311,-0.02682 -0.268171,-0.02682 0.281579,0.563159 0.45589,1.193361 0.45589,1.863789 0,1.702885 -1.032457,3.164416 -2.493989,3.808027 0.147494,0.04022 0.294988,0.06703 0.429073,0.08045 -0.120676,0.36203 -0.147494,0.724062 -0.134085,1.086092 0.241354,0.120677 0.482708,0.254763 0.697244,0.442482 0.120678,-0.201127 0.254763,-0.402257 0.429073,-0.589977 1.179953,-1.246993 3.151009,-1.28722 4.398004,-0.09385 1.179952,1.139725 1.260403,2.976697 0.241354,4.223693 0.02682,0.02682 0.05364,0.04022 0.08046,0.06703 0.992233,0.214535 2.02469,-0.308397 2.400129,-1.30063 0.09385,-0.254763 0.134085,-0.522933 0.134085,-0.777694 1.072686,0.388846 2.266045,-0.160904 2.668302,-1.220179 0.05364,-0.134087 0.08045,-0.268172 0.107274,-0.388849 0.710651,-0.174311 1.327444,-0.603384 1.783335,-1.19336 0.18772,-0.241353 0.348622,-0.509524 0.455891,-0.804512 0.630201,-1.676069 -0.227945,-3.539857 -1.904014,-4.170058 -0.388847,-0.147495 -0.791104,-0.201129 -1.179952,-0.201129 -0.107263,-1.743111 -1.206769,-3.338728 -2.94988,-3.995746 -0.308397,-0.107274 -0.603385,-0.18772 -0.911781,-0.241355 -0.536343,1.971057 -2.30627,3.432588 -4.438229,3.432588 z m 4.666175,6.597004 c -0.05364,-0.308396 -0.120678,-0.53634 -0.308398,-0.965414 -0.147493,-0.348623 -0.415665,-0.670428 -0.657017,-0.898374 -0.227946,-0.241353 -0.08046,-0.388847 0.134085,-0.415664 0.335213,-0.04022 0.683835,-0.134085 0.952006,-0.348623 0.268171,-0.201127 0.442482,-0.45589 0.496117,-0.72406 0.05364,-0.335214 0.174311,-0.469299 0.36203,-0.294989 0.160903,0.134086 0.388849,0.362031 0.536343,1.139727 0.120675,0.603384 0.630201,1.032457 0.938597,1.381081 0.214537,0.241353 0.02682,0.442481 -0.254762,0.388846 -0.362031,-0.06704 -0.576568,0 -0.938598,0.160903 -0.294988,0.134086 -0.657019,0.549751 -0.911781,0.83133 -0.160902,0.18772 -0.321806,-0.05364 -0.348622,-0.254763 z"
       style="fill:#fbc21a;stroke-width:1.03586" /><path
       id="XMLID_781_"
       d="m 52.222463,33.308477 c 0.28158,-0.254762 0.28158,-0.321805 0.576568,-0.45589 0.362032,-0.160903 0.576567,-0.214537 0.938599,-0.160903 0.268171,0.05364 0.469299,-0.147495 0.254762,-0.388847 -0.308396,-0.348623 -0.764288,-0.791105 -0.938599,-1.381081 -0.227944,-0.764286 -0.884963,-0.482708 -1.394487,-0.120677 -0.28158,0.201129 -0.616794,0.308396 -0.952008,0.348623 -0.227944,0.02682 -0.36203,0.17431 -0.134085,0.415664 0.227946,0.241354 0.496116,0.563158 0.657019,0.898374 0.187719,0.415663 0.107273,0.375437 0.227944,0.670426 0.08046,0.281579 0.48271,0.429074 0.764287,0.174311 z"
       style="fill:#b79178;stroke-width:1.03586" /><path
       id="XMLID_780_"
       d="m 53.536502,15.47511 c -0.241354,0.294988 -0.227946,0.36203 -0.496117,0.536342 -0.335213,0.214536 -0.536342,0.308395 -0.898373,0.294988 -0.281579,-0.0134 -0.442481,0.214536 -0.187719,0.415665 0.348622,0.294988 0.871556,0.670428 1.126318,1.233586 0.335214,0.724062 0.938599,0.348622 1.394489,-0.09385 0.254763,-0.241352 0.563158,-0.388847 0.898372,-0.482707 0.214538,-0.05364 0.335213,-0.227945 0.08046,-0.429073 -0.268171,-0.201128 -0.576568,-0.482708 -0.777695,-0.804513 -0.241354,-0.388848 -0.160904,-0.362031 -0.321807,-0.630203 -0.160901,-0.241353 -0.576567,-0.335213 -0.81792,-0.04022 z"
       style="fill:#b79178;stroke-width:1.03586" /><path
       id="XMLID_1010_"
       d="m 88.599852,38.926658 c -0.04022,-0.04022 -0.09385,-0.06704 -0.134086,-0.107273 0.02682,-0.06703 0.04022,-0.147493 0.05364,-0.214536 0.469298,-1.045866 0.26817,-2.333086 -0.616795,-3.164417 -1.112907,-1.072685 -2.896245,-1.032459 -3.968929,0.09385 -0.0134,0.0134 -0.0134,0.02682 -0.02682,0.02682 -0.09385,-0.134085 -0.201129,-0.268171 -0.321805,-0.388847 -0.911781,-0.871556 -2.359904,-0.844738 -3.244869,0.08046 -0.764287,0.791104 -0.831328,1.984464 -0.241353,2.856019 -0.268171,0.09386 -0.522934,0.241355 -0.737471,0.4693 -0.710652,0.750879 -0.683835,1.944239 0.06704,2.654892 0.09385,0.08045 0.187719,0.160903 0.281578,0.227946 -0.563157,0.6302 -0.536341,1.595616 0.06704,2.172184 0.160903,0.147494 0.348623,0.268171 0.549752,0.335214 -0.134087,0.603384 0.0134,1.233587 0.442481,1.729701 1.112909,-1.488347 2.896246,-2.467172 4.920937,-2.467172 1.139726,0 2.21241,0.321805 3.1376,0.858147 1.314037,-1.501757 1.220177,-3.767802 -0.227946,-5.16229 z m -4.263918,3.687351 c -0.214538,0.107262 -0.54975,0.241353 -1.39449,0.05364 -0.670427,-0.147493 -1.327445,0.18772 -1.810152,0.348624 -0.348623,0.120676 -0.455893,-0.174312 -0.28158,-0.429073 0.214536,-0.335215 0.254761,-0.589976 0.241353,-1.019052 0,-0.348621 -0.268171,-0.911779 -0.442481,-1.300628 -0.120678,-0.268171 0.201128,-0.308397 0.415664,-0.268171 0.335213,0.08045 0.603385,0.107274 1.11291,0.107274 0.415665,0 0.858146,-0.134085 1.206769,-0.26817 0.348623,-0.134086 0.429074,0.08046 0.36203,0.321804 -0.107273,0.362031 -0.147492,0.750879 -0.06704,1.126318 0.08045,0.362031 0.26817,0.657019 0.522933,0.817923 0.321805,0.214536 0.388848,0.375439 0.134085,0.509524 z"
       style="fill:#ffffff;stroke-width:1.03586" /><path
       id="XMLID_1011_"
       d="m 84.201849,42.117892 c -0.254763,-0.160903 -0.442482,-0.469298 -0.522934,-0.81792 -0.08046,-0.37544 -0.04022,-0.764289 0.06703,-1.126318 0.06704,-0.241355 -0.02682,-0.455891 -0.362031,-0.321806 -0.348622,0.134085 -0.791104,0.268171 -1.206769,0.268171 -0.509524,0 -0.777696,-0.02682 -1.112909,-0.107273 -0.214537,-0.05364 -0.536342,0 -0.415665,0.26817 0.17431,0.388848 0.442482,0.938598 0.442482,1.30063 0.0134,0.429072 -0.02682,0.683835 -0.241354,1.019048 -0.174312,0.254763 -0.05364,0.536343 0.28158,0.429074 0.482708,-0.160903 1.139726,-0.496117 1.810154,-0.348622 0.858146,0.187719 1.179952,0.04022 1.394488,-0.05364 0.254763,-0.147493 0.187721,-0.308396 -0.134085,-0.509525 z"
       style="fill:#b79178;stroke-width:1.03586" /><path
       id="XMLID_1012_"
       d="m 75.164488,20.865346 c 0,0.362031 0.06703,0.710652 0.174311,1.032457 0.737471,-0.72406 1.75652,-1.179951 2.882838,-1.179951 0.563157,0 1.086092,0.120677 1.568799,0.321805 0.160904,-0.147494 0.321806,-0.294988 0.442483,-0.482707 0.120675,-0.18772 0.214536,-0.683837 0.576566,-0.871557 0.348624,-0.18772 0.978825,-0.09385 1.246996,0.348623 0.201128,0.335214 0.496116,0.576567 0.804513,0.764287 0.17431,0.107273 0.603385,0.388847 0.536342,0.898372 -0.04022,0.388848 -0.563159,0.697245 -0.750879,0.884965 -0.147494,0.147494 -0.28158,0.375439 -0.402256,0.630202 -0.02682,0.04022 -0.08045,0.120676 -0.134087,0.201127 0.02682,0.09385 0.08046,0.174311 0.107274,0.254763 0.496116,0.147494 0.938599,0.388848 1.340855,0.697245 0.02682,-0.05364 0.04022,-0.09385 0.06703,-0.147495 1.528573,-0.321804 2.681707,-1.676068 2.681707,-3.311912 0,-1.863787 -1.515165,-3.378952 -3.378952,-3.378952 -0.817923,0 -1.541984,0.294988 -2.13196,0.777695 -0.589976,-0.522934 -1.36767,-0.858148 -2.225818,-0.858148 -1.890605,0.04022 -3.405772,1.555393 -3.405772,3.419181 z"
       style="fill:#ffffff;stroke-width:1.03586" /><path
       id="XMLID_1013_"
       d="m 82.230791,23.22525 c 0.120678,-0.254762 0.254763,-0.496116 0.402258,-0.630201 0.201128,-0.201129 0.710653,-0.496117 0.750878,-0.884964 0.05364,-0.509525 -0.375439,-0.791105 -0.536343,-0.898374 -0.308395,-0.187719 -0.603383,-0.429074 -0.804512,-0.764287 -0.268171,-0.442481 -0.898373,-0.536342 -1.246995,-0.348621 -0.362031,0.187719 -0.455891,0.683834 -0.576568,0.871555 -0.120677,0.187719 -0.268169,0.335212 -0.442482,0.482707 1.059277,0.442483 1.890606,1.30063 2.292862,2.386723 0.08046,-0.08046 0.134086,-0.160904 0.160902,-0.214538 z"
       style="fill:#b79178;stroke-width:1.03586" /><path
       id="XMLID_1014_"
       d="m 34.241603,30.452458 c 0.134086,0.254762 0.26817,0.589975 0.308396,0.911779 0.04022,0.388849 0.04022,0.603386 0,0.871557 -0.02682,0.17431 0.04022,0.415664 0.241354,0.294988 0.294988,-0.160903 0.710653,-0.415666 0.992232,-0.442482 0.335214,-0.04022 0.536342,-0.02682 0.817922,0.107273 0.214536,0.107274 0.429074,0 0.308396,-0.254762 -0.160902,-0.362031 -0.482706,-0.844738 -0.415665,-1.367671 0.08046,-0.670428 0,-0.791106 -0.107273,-0.884965 -0.174312,-0.147494 -0.335214,-0.107273 -0.536343,0.120678 -0.107273,0.120675 -0.308396,0.227944 -0.576567,0.321805 -0.281579,0.09385 -0.509524,0.08046 -0.804512,0.02682 -0.201129,-0.05364 -0.362032,0.04022 -0.227947,0.294988 z"
       style="fill:#b79178;stroke-width:1.03586" /><path
       id="XMLID_1017_"
       d="m 71.691675,28.052327 c 0,1.38108 0.844737,2.547623 2.038098,3.057148 0.415664,1.354265 1.662659,2.333087 3.1376,2.333087 1.394489,0 2.574441,-0.858147 3.057148,-2.078325 1.501758,-0.308395 2.628076,-1.635842 2.628076,-3.231459 0,-1.823563 -1.47494,-3.298503 -3.298503,-3.298503 -0.791104,0 -1.515166,0.294988 -2.078325,0.750879 -0.576568,-0.509524 -1.340854,-0.831329 -2.172185,-0.831329 -1.823561,-0.0134 -3.311909,1.47494 -3.311909,3.298502 z m 6.771315,0.925191 c -0.281579,0.05364 -0.429074,0.160901 -0.64361,0.375437 -0.174311,0.174312 -0.335213,0.589977 -0.455891,0.871556 -0.08046,0.187721 -0.254762,0.05364 -0.335214,-0.08046 -0.120675,-0.214536 -0.241353,-0.36203 -0.496115,-0.630201 -0.201128,-0.214536 -0.496116,-0.375438 -0.737471,-0.482708 -0.241354,-0.107274 -0.17431,-0.26817 -0.0134,-0.348623 0.241354,-0.120675 0.469298,-0.294987 0.616794,-0.522932 0.147492,-0.214537 0.214537,-0.45589 0.160903,-0.683835 -0.05364,-0.268173 0,-0.388849 0.187719,-0.321805 0.160903,0.05364 0.388848,0.160902 0.710653,0.697243 0.254763,0.415665 0.750878,0.589976 1.072683,0.764288 0.241354,0.134086 0.147494,0.321804 -0.06703,0.36203 z"
       style="fill:#ffffff;stroke-width:1.03586" /><path
       id="XMLID_1018_"
       d="M 78.543441,28.628894 C 78.221637,28.467991 77.72552,28.280272 77.470757,27.864607 77.148952,27.328265 76.9076,27.234406 76.760104,27.167362 c -0.187719,-0.06704 -0.241353,0.05364 -0.187719,0.321805 0.04022,0.214538 -0.02682,0.455892 -0.160903,0.683837 -0.147493,0.227946 -0.375438,0.402256 -0.616793,0.522934 -0.160902,0.08045 -0.227945,0.241353 0.0134,0.348621 0.241354,0.107274 0.522934,0.268171 0.737469,0.482708 0.254764,0.254763 0.37544,0.415665 0.496118,0.630203 0.08046,0.134085 0.254762,0.26817 0.335212,0.08046 0.107274,-0.28158 0.268173,-0.697246 0.455892,-0.871556 0.214536,-0.214537 0.362031,-0.321805 0.64361,-0.37544 0.201128,-0.05364 0.294988,-0.241353 0.06704,-0.362029 z"
       style="fill:#b79178;stroke-width:1.03586" /><path
       id="XMLID_1021_"
       d="m 76.62602,37.98806 c 0,-2.078326 -1.474941,-3.808028 -3.432589,-4.210283 0.0134,-0.107273 0.02682,-0.214537 0.02682,-0.321806 0,-2.467173 -1.997875,-4.478453 -4.478456,-4.478453 -2.480581,0 -4.478454,1.997871 -4.478454,4.478453 0,0.201129 0.02682,0.388848 0.05364,0.576568 -0.362031,-0.09385 -0.73747,-0.160903 -1.126318,-0.160903 -2.467172,0 -4.478455,1.997873 -4.478455,4.478456 0,1.474939 0.603384,2.815795 1.702886,3.633715 0.549752,-0.18772 1.260405,-0.321805 1.863789,-0.321805 2.721935,0 4.97457,1.944239 5.443869,4.51868 0.06704,0 0.134086,-0.0134 0.214537,-0.02682 0.482708,-2.561033 2.735344,-4.491863 5.430461,-4.491863 0.429074,0 0.831331,0.05364 1.233587,0.147495 0.0134,-0.06704 0.0134,-0.134088 0.02682,-0.201129 1.206768,-0.764287 1.997872,-2.091734 1.997872,-3.620308 z m -7.173573,4.223692 c -0.134086,0.335214 -0.442482,0.09386 -0.576567,-0.134085 -0.214538,-0.362031 -0.415666,-0.630203 -0.84474,-1.059275 -0.335213,-0.362031 -0.831329,-0.64361 -1.233585,-0.83133 -0.402258,-0.187719 -0.294988,-0.455891 -0.02682,-0.589976 0.415666,-0.214537 0.791105,-0.496117 1.045867,-0.898373 0.241354,-0.375439 0.362031,-0.791104 0.281579,-1.153135 -0.09385,-0.455892 0,-0.670428 0.321806,-0.549751 0.268171,0.09385 0.670426,0.268173 1.220179,1.179952 0.429072,0.710653 1.27381,1.005642 1.823561,1.287221 0.388848,0.201129 0.227945,0.536343 -0.134086,0.616794 -0.482708,0.09385 -0.724061,0.26817 -1.0995,0.64361 -0.308398,0.308396 -0.576568,1.00564 -0.777694,1.488348 z"
       style="fill:#ffffff;stroke-width:1.03586" /><path
       id="XMLID_1022_"
       d="m 70.230143,40.723404 c 0.375439,-0.37544 0.630202,-0.54975 1.0995,-0.64361 0.362032,-0.06703 0.522934,-0.402257 0.134086,-0.616794 -0.549751,-0.281579 -1.39449,-0.589975 -1.823561,-1.287221 -0.549752,-0.898372 -0.952008,-1.086093 -1.220179,-1.179952 -0.321806,-0.120677 -0.402257,0.09385 -0.321806,0.549751 0.06703,0.375439 -0.04022,0.777696 -0.281579,1.153135 -0.254763,0.388848 -0.630202,0.683836 -1.045867,0.898373 -0.26817,0.134085 -0.388848,0.402257 0.02682,0.589976 0.402256,0.18772 0.898373,0.469299 1.246994,0.83133 0.429073,0.442483 0.630202,0.710652 0.844738,1.059275 0.134086,0.227945 0.442482,0.469299 0.576568,0.134085 0.18772,-0.482708 0.45589,-1.179952 0.764286,-1.488348 z"
       style="fill:#fbc21a;stroke-width:1.03586" /><path
       id="XMLID_1025_"
       d="m 35.756769,26.778514 c 0.54975,1.997874 2.413538,3.285095 4.411411,3.164418 0.02682,0.107274 0.02682,0.214538 0.05364,0.321806 0.64361,2.38672 3.110783,3.794617 5.497505,3.151007 2.386721,-0.643609 3.794619,-3.110782 3.151009,-5.497504 -0.05364,-0.187719 -0.134086,-0.36203 -0.201129,-0.536341 0.37544,0 0.750879,-0.04022 1.126319,-0.134086 2.38672,-0.64361 3.794618,-3.110784 3.151008,-5.497504 -0.630205,-2.319679 -2.963293,-3.687351 -5.269563,-3.191234 -0.978824,-1.769928 -3.04374,-2.721936 -5.081839,-2.172185 -1.448123,0.388848 -2.520807,1.448124 -3.016923,2.748752 -0.227945,0.0134 -0.442483,0.04022 -0.670427,0.09385 -1.555391,0.415664 -2.480581,1.971056 -2.172185,3.526446 -0.952007,1.059277 -1.381081,2.561033 -0.978823,4.022566 z m 6.409284,-5.966803 c 0.294988,0.294988 0.56316,0.496117 1.086093,0.804513 0.429073,0.254764 0.978824,0.402257 1.421305,0.469299 0.442483,0.08046 0.402257,0.362032 0.174313,0.563159 -0.348623,0.308397 -0.630203,0.697246 -0.777697,1.139727 -0.134086,0.429073 -0.134086,0.858146 0.02682,1.193361 0.201129,0.415664 0.174312,0.643611 -0.160902,0.616792 -0.281578,-0.02682 -0.710652,-0.09385 -1.488349,-0.81792 -0.603384,-0.576567 -1.501757,-0.643612 -2.105141,-0.777697 -0.429073,-0.09385 -0.362032,-0.45589 -0.02682,-0.630201 0.442483,-0.214536 0.630202,-0.455891 0.898373,-0.911781 0.214537,-0.37544 0.294989,-1.126318 0.348622,-1.635842 0.05364,-0.348624 0.415665,-0.201129 0.603384,-0.0134 z"
       style="fill:#ffffff;stroke-width:1.03586" /><path
       id="XMLID_1026_"
       d="m 41.576078,20.825121 c -0.06704,0.522932 -0.134085,1.260402 -0.348622,1.635842 -0.268172,0.45589 -0.45589,0.697245 -0.898373,0.911781 -0.335215,0.160903 -0.402256,0.536342 0.02682,0.630201 0.603384,0.134085 1.501757,0.20113 2.105141,0.777697 0.764288,0.724061 1.20677,0.791103 1.48835,0.81792 0.348622,0.02682 0.37544,-0.201128 0.160902,-0.616792 -0.160902,-0.335215 -0.174312,-0.764288 -0.02682,-1.193361 0.147494,-0.442481 0.429073,-0.817921 0.777695,-1.139727 0.227946,-0.201127 0.268173,-0.482706 -0.17431,-0.563159 -0.442483,-0.08045 -0.992232,-0.214535 -1.421307,-0.469299 -0.522933,-0.308396 -0.791104,-0.509525 -1.086091,-0.804513 -0.201129,-0.187719 -0.56316,-0.335214 -0.603385,0.0134 z"
       style="fill:#fbc21a;stroke-width:1.03586" /><path
       id="XMLID_978_"
       d="M 63.740405,28.883657 C 63.15043,28.374131 62.77499,27.623252 62.77499,26.778514 c 0,-1.327446 0.92519,-2.413537 2.172185,-2.708526 -0.603384,-0.871555 -1.595618,-1.448123 -2.735343,-1.448123 -0.911782,0 -1.729704,0.36203 -2.333087,0.965415 -0.670427,-0.64361 -1.568801,-1.032458 -2.574443,-1.032458 -2.051507,0 -3.714166,1.66266 -3.714166,3.714168 0,1.541983 0.952008,2.869429 2.292861,3.432588 0.469299,1.515166 1.863789,2.628075 3.539857,2.628075 0.683836,0 1.327445,-0.201129 1.877196,-0.522933 0.321805,-2.574441 2.239227,-2.815795 2.440355,-2.923063 z"
       style="fill:#ffffff;stroke-width:1.03586" /><path
       id="XMLID_979_"
       d="m 57.170218,26.63102 c 0.02682,0.536342 -0.147494,1.072685 -0.388848,1.541984 -0.160902,0.308396 -0.09385,0.6302 0.415666,0.536341 0.509524,-0.09385 1.166542,-0.160902 1.74311,-0.05364 0.697245,0.134085 1.072684,0.241353 1.515166,0.44248 0.281579,0.134087 0.73747,0.147495 0.6302,-0.254762 -0.147492,-0.589976 -0.362029,-1.434713 -0.281577,-1.93083 0.107274,-0.603385 0.214536,-0.952007 0.603384,-1.354263 0.294988,-0.308396 0.227945,-0.73747 -0.281579,-0.670428 -0.710654,0.09386 -1.702886,0.388848 -2.601259,0.0134 -1.126319,-0.482709 -1.622433,-0.37544 -1.944238,-0.294988 -0.388849,0.107273 -0.321808,0.362029 0.06703,0.737469 0.335213,0.294988 0.509526,0.764288 0.522933,1.287221 z"
       style="fill:#fbc21a;stroke-width:1.03586" /><circle
       id="XMLID_777_"
       cx="47.85128"
       cy="43.633057"
       r="4.2907352"
       style="fill:#ffffff;stroke-width:1.03586" /><circle
       id="XMLID_778_"
       cx="53.791267"
       cy="42.587185"
       r="3.3923624"
       style="fill:#ffffff;stroke-width:1.03586" /><circle
       id="XMLID_783_"
       cx="50.318451"
       cy="38.940063"
       r="4.2639179"
       style="fill:#ffffff;stroke-width:1.03586" /><circle
       id="XMLID_5_"
       cx="89.86026"
       cy="29.527267"
       r="3.2180514"
       style="fill:#ffffff;stroke-width:1.03586" /><circle
       id="XMLID_6_"
       cx="87.540581"
       cy="31.632408"
       r="1.7967454"
       style="fill:#ffffff;stroke-width:1.03586" /><circle
       id="XMLID_7_"
       cx="91.026802"
       cy="31.270376"
       r="2.5610325"
       style="fill:#ffffff;stroke-width:1.03586" /><path
       id="XMLID_1007_"
       d="m 90.007749,32.678275 c 0.254763,-0.281579 0.630202,-0.697244 0.911782,-0.83133 0.362029,-0.160903 0.576568,-0.214535 0.938597,-0.160903 0.268171,0.05364 0.4693,-0.147493 0.254763,-0.388846 -0.308397,-0.348624 -0.817921,-0.777697 -0.938598,-1.381081 -0.147494,-0.777696 -0.388848,-1.005641 -0.536342,-1.139727 -0.187719,-0.160903 -0.308397,-0.04022 -0.362031,0.294989 -0.04022,0.281578 -0.227946,0.53634 -0.496116,0.72406 -0.28158,0.20113 -0.616793,0.308397 -0.952007,0.348623 -0.227945,0.02682 -0.362031,0.174311 -0.134085,0.415664 0.227944,0.241355 0.496116,0.56316 0.657019,0.898374 0.187718,0.415665 0.254763,0.657018 0.308395,0.965414 0.0134,0.20113 0.174313,0.442483 0.348623,0.254763 z"
       style="fill:#b79178;stroke-width:1.03586" /></g><g
     id="g581"><path
       id="XMLID_1027_"
       d="m 100.89276,43.03431 c -0.77844,-2.107152 -2.805064,-3.623765 -5.194063,-3.623765 -3.060071,0 -5.543019,2.764798 -5.543019,5.824867 v 0.40264 h -0.02685 L 77.326937,126.10082 h 2.783955 c 1.88211,0 3.489746,-1.34624 3.816501,-3.2022 L 100.91817,45.457042 c 0.23916,-1.090015 0.18933,-1.832193 -0.0254,-2.422732 z"
       style="fill:#ed6c30;stroke-width:0.999995"
       sodipodi:nodetypes="csscccscsc" /><path
       id="XMLID_1028_"
       d="m 34.671813,45.62463 v -0.335533 l -0.01342,-0.214742 v -0.20132 c 0,-0.120792 -0.01342,-0.268427 -0.01342,-0.375797 -0.05368,-0.68449 -0.241584,-1.342136 -0.523432,-1.919254 -0.644226,-1.342135 -1.825304,-2.402422 -3.261388,-2.872169 -0.05368,-0.01342 -0.107372,-0.04026 -0.147635,-0.05368 -0.49659,-0.147634 -1.033445,-0.228162 -1.58372,-0.228162 -0.09395,0 -0.187899,0.01342 -0.281848,0.01342 -1.691091,0.08053 -3.180861,0.926073 -4.147198,2.201101 -0.69791,0.926074 -1.113972,2.026624 -1.113972,3.274809 0,0.08053 0.01342,0.174479 0.01342,0.174479 v 0 0.06711 c 0.02685,0.550274 0.134213,1.113971 0.30869,1.610561 l 15.227903,76.080897 c 0.326755,1.85597 1.934391,3.26754 3.816501,3.26754 h 2.993078 z"
       style="fill:#ed6c30;stroke-width:0.999995"
       sodipodi:nodetypes="cccsccccsccscccccscc" /><path
       id="XMLID_1029_"
       d="m 56.870726,45.62463 h -0.01343 v -0.40264 c 0,-1.503191 -0.59054,-2.992962 -1.556877,-3.986141 -0.416062,-0.429483 -0.899231,-0.858967 -1.436084,-1.140815 -0.469747,-0.241584 -0.993181,-0.456325 -1.530034,-0.563696 -0.335534,-0.06711 -0.671068,-0.120793 -1.020023,-0.120793 -1.382399,0 -2.644005,0.496591 -3.610344,1.342136 -0.442904,0.375796 -0.818702,0.832123 -1.127393,1.328713 -0.01342,0.01342 -0.01342,0.02684 -0.02684,0.04027 -0.38922,0.657647 -0.644226,1.3824 -0.738175,2.17426 -0.02684,0.20132 -0.04026,0.429483 -0.04026,0.644225 l 6.330165,81.160681 h 6.234491 z"
       style="fill:#ed6c30;stroke-width:0.999995"
       sodipodi:nodetypes="ccsccsscccccccc" /><path
       id="XMLID_1030_"
       d="m 79.056221,45.62463 v 0 c 0,0 0,-0.362376 0,-0.40264 0,-2.644006 -1.838726,-4.979321 -4.308254,-5.543018 -0.402641,-0.09395 -0.805281,-0.214741 -1.234764,-0.214741 -2.697693,0 -4.952479,1.905831 -5.435647,4.46931 -0.06711,0.335534 -0.107372,0.952916 -0.107372,1.301871 v 0.375798 h -0.01342 l -3.164152,80.48961 h 6.19528 z"
       style="fill:#ed6c30;stroke-width:0.999995"
       sodipodi:nodetypes="csscscsccccc" /><path
       id="XMLID_1031_"
       d="m 45.811533,44.32276 v 0 0 c 0,0 -0.09395,0.04026 -0.147634,-0.255006 -0.416063,-2.5769 -2.496372,-4.616944 -5.180642,-4.710894 -0.05368,0 -0.255005,0.04027 -0.322112,0.04027 -2.066889,0 -3.851928,1.127394 -4.804844,2.791641 -0.389218,0.671068 -0.617383,1.422663 -0.69791,2.241366 -0.01342,0.120792 -0.01342,0.241584 -0.01342,0.362376 v 0.134214 l 0.01342,0.08053 0.01342,0.08053 11.273555,81.013043 h 6.156069 z"
       style="fill:#eeebe8;stroke-width:0.999995;fill-opacity:1"
       sodipodi:nodetypes="ccsccsccscccccc" /><path
       id="XMLID_1032_"
       d="m 67.943342,45.087776 v -0.147634 c 0,-0.348956 -0.04027,-0.684489 -0.09395,-1.006601 -0.469747,-2.576899 -2.724535,-4.536417 -5.449068,-4.536417 -0.617383,0 -1.1945,0.107371 -1.744776,0.281848 -2.201102,0.724753 -3.798243,2.791641 -3.798243,5.247749 v 0.161055 l 1.478621,81.013044 h 6.456683 z"
       style="fill:#eeebe8;stroke-width:0.999995;fill-opacity:1"
       sodipodi:nodetypes="cscscscccc" /><path
       id="XMLID_1033_"
       d="m 90.142255,45.087776 0.01345,-0.147634 c 0,-2.026624 -1.087131,-3.798242 -2.711117,-4.751158 -0.832121,-0.496591 -1.798456,-0.778439 -2.831902,-0.778439 -1.825303,0 -3.435866,0.872388 -4.442467,2.227945 -0.684489,0.926073 -1.100551,2.066887 -1.100551,3.301652 l -0.01342,0.161056 -8.068359,80.999622 h 6.339052 z"
       style="fill:#eeebe8;stroke-width:0.999995;fill-opacity:1"
       sodipodi:nodetypes="cccscccccc" /></g></svg>
