<?xml version="1.0" encoding="UTF-8" standalone="no"?>
<svg
   width="100%"
   height="100%"
   viewBox="0 0 128 128"
   version="1.1"
   xml:space="preserve"
   style="fill-rule:evenodd;clip-rule:evenodd;stroke-linejoin:round;stroke-miterlimit:2;"
   id="svg56590"
   sodipodi:docname="emoji_u1f973.svg"
   inkscape:version="1.2.2 (732a01da63, 2022-12-09)"
   xmlns:inkscape="http://www.inkscape.org/namespaces/inkscape"
   xmlns:sodipodi="http://sodipodi.sourceforge.net/DTD/sodipodi-0.dtd"
   xmlns:xlink="http://www.w3.org/1999/xlink"
   xmlns="http://www.w3.org/2000/svg"
   xmlns:svg="http://www.w3.org/2000/svg"><defs
   id="defs56594"><pattern
   inkscape:collect="always"
   xlink:href="#Strips2_1"
   id="pattern64180"
   patternTransform="matrix(7.3650043,0.99308862,1.2397203,-9.1940977,-60.880387,-62.455354)" /><pattern
   inkscape:collect="always"
   patternUnits="userSpaceOnUse"
   width="1.5"
   height="1"
   patternTransform="translate(0,0) scale(10,10)"
   id="Strips2_1"
   inkscape:stockid="Stripes 2:1"><rect
     style="fill:black;stroke:none"
     x="0"
     y="-0.5"
     width="1"
     height="2"
     id="rect58129" /></pattern>
        
    <pattern
   patternUnits="userSpaceOnUse"
   width="64.542633"
   height="30.118849"
   patternTransform="translate(60.880387,62.455354)"
   id="pattern64182"><path
     id="path56718"
     d="m 64.542633,15.487101 c 0,9.841476 -6.51107,14.631748 -14.96934,14.631748 -4.79832,0 -7.22689,-0.401729 -12.00767,-0.937659 L 2.449613,25.244646 C 0.192503,24.991621 0,23.358724 0,20.484154 0,17.301807 0.824177,15.800272 3.082613,16.039868 l 34.33463,3.642544 c 3.62212,0.384269 7.34658,1.308931 10.41229,1.313142 3.78536,0.0052 6.84848,-1.845033 6.84848,-5.508453 0,-3.436981 -2.21343,-6.118592 -6.65354,-6.118592 -5.00835,0 -8.03697,3.827132 -9.245289,3.038491 C 38.152882,11.998231 37.856553,11.149411 36.816557,9.273583 35.776555,7.397747 35.153143,6.486375 35.4326,5.624934 35.972813,3.959705 40.993583,0 48.671073,0 c 10.04944,0 15.87156,6.87143 15.87156,15.487101 z"
     style="fill:url(#pattern64180);fill-opacity:1;fill-rule:nonzero"
     sodipodi:nodetypes="ssssssssssszsss" /></pattern></defs><sodipodi:namedview
   id="namedview56592"
   pagecolor="#ffffff"
   bordercolor="#000000"
   borderopacity="0.25"
   inkscape:showpageshadow="2"
   inkscape:pageopacity="0.0"
   inkscape:pagecheckerboard="0"
   inkscape:deskcolor="#d1d1d1"
   showgrid="false"
   inkscape:zoom="2.8284271"
   inkscape:cx="84.676038"
   inkscape:cy="88.741902"
   inkscape:window-width="1366"
   inkscape:window-height="697"
   inkscape:window-x="-8"
   inkscape:window-y="-8"
   inkscape:window-maximized="1"
   inkscape:current-layer="svg56590" />
    <path
   id="path35586"
   d="M33.983,64.788C32.983,64.798 32.189,64.998 31.458,65.469L31.456,65.469C31.154,65.664 30.909,65.971 30.785,66.85C30.66,67.73 30.782,69.066 31.237,70.583C31.759,72.323 32.713,74.287 33.975,76.194C40.853,77.316 61.811,79.85 94.143,76.014C95.346,74.164 96.258,72.269 96.763,70.583C97.217,69.066 97.339,67.728 97.215,66.848C97.091,65.968 96.845,65.663 96.546,65.469C95.572,64.841 94.485,64.695 92.944,64.837C91.403,64.978 89.565,65.467 87.625,65.848L87.627,65.846C77.305,67.882 68.27,67.96 64.002,67.96C59.734,67.96 50.702,67.882 40.379,65.846L40.379,65.848C38.439,65.466 36.601,64.978 35.059,64.837C34.701,64.802 34.342,64.785 33.983,64.787L33.983,64.788Z"
   style="fill:white;fill-rule:nonzero;" />
    <path
   id="path35588"
   d="m 63.931671,9.5566578 c -62.3099999,0 -63.78999988,69.8600002 -63.78999988,83.6900002 0,13.830002 28.55999988,25.030002 63.78999988,25.030002 35.24,0 63.789999,-11.21 63.789999,-25.030002 0,-13.83 -1.47,-83.6900002 -63.789999,-83.6900002 z"
   style="fill:#fcc21b;fill-rule:nonzero" /><g
   id="g92483"
   transform="rotate(-30,-91.456169,-32.901018)"><path
     id="path83741"
     style="fill:#ed6c30;fill-rule:nonzero;stroke-width:6;stroke-linecap:round"
     inkscape:transform-center-y="-5.1737466"
     d="m -3.4237123,76.768235 c -1.4142203,3.223882 -4.9885616,4.189074 -14.9989237,6.871343 -10.01036,2.682268 -13.58843,3.633555 -16.42512,1.548705 -2.836691,-2.084854 0.763524,-22.080197 1.918148,-27.250682 1.154621,-5.170487 2.354241,-9.013744 5.013964,-9.726415 2.65972,-0.71267 5.620253,2.015878 9.205426,5.916341 3.585176,3.900459 16.7007263,19.416826 15.2865057,22.640708 z"
     sodipodi:nodetypes="zzzzzzz"
     inkscape:transform-center-x="-1.8236414" /><path
     id="rect83796"
     style="fill:#42ade7;fill-opacity:1;fill-rule:nonzero;stroke:none;stroke-width:6;stroke-linecap:round"
     d="m -32.371693,55.614342 c -0.189744,0.74188 -0.375066,1.509018 -0.557036,2.323886 -0.305435,1.367766 -0.78332,3.784807 -1.266602,6.621416 L -13.45847,60.25668 c -2.180745,-2.668132 -4.15966,-4.940113 -5.251786,-6.128281 -0.361123,-0.392882 -0.710746,-0.764719 -1.059527,-1.131502 z m -2.828705,15.637546 c -0.09935,0.772062 -0.191794,1.541528 -0.274374,2.300728 -0.0019,0.01806 -0.0034,0.03595 -0.0054,0.05401 -0.08066,0.745105 -0.152022,1.479136 -0.212107,2.195709 -0.0022,0.02592 -0.0036,0.05138 -0.0058,0.07725 -0.05876,0.709211 -0.107005,1.399924 -0.141218,2.06525 -0.0016,0.03265 -0.003,0.06545 -0.0046,0.09798 -0.03317,0.668069 -0.05324,1.311402 -0.05703,1.918606 l 31.6918485,-6.573756 c -0.1286929,-0.262511 -0.2689356,-0.534369 -0.4211474,-0.814632 -0.076143,-0.1402 -0.1643822,-0.288294 -0.2459947,-0.432526 -0.1897097,-0.335244 -0.3909804,-0.679175 -0.607775,-1.033826 -0.06289,-0.102878 -0.1205743,-0.201387 -0.1855533,-0.305708 -0.020813,-0.03342 -0.043925,-0.06892 -0.064945,-0.102477 -0.2401745,-0.383401 -0.4979975,-0.777588 -0.7630836,-1.177283 -0.1301391,-0.196198 -0.258772,-0.391129 -0.3941717,-0.590515 -0.011034,-0.01626 -0.022169,-0.0337 -0.033238,-0.04998 -0.2337524,-0.343574 -0.4754685,-0.692058 -0.7226901,-1.042992 -0.4638322,-0.658416 -0.9479509,-1.327711 -1.4464551,-1.999469 z" /></g>
    <path
   id="path35590"
   d="M31.96,51.85C31.188,53.124 29.509,53.542 28.23,52.78C26.954,52.022 26.522,50.352 27.27,49.07C27.45,48.76 31.87,41.45 41.64,41.45C51.42,41.45 55.84,48.76 56.03,49.07C56.273,49.488 56.401,49.962 56.401,50.445C56.401,51.944 55.169,53.178 53.67,53.18C52.75,53.18 51.84,52.71 51.33,51.86C51.2,51.64 48.21,46.9 41.64,46.9C35.07,46.89 32.1,51.64 31.96,51.85ZM100,52.79C99.57,53.05 99.09,53.17 98.63,53.17C97.69,53.17 96.78,52.68 96.27,51.83C96.16,51.63 93.19,46.89 86.61,46.89C79.92,46.89 76.95,51.78 76.92,51.83C76.424,52.632 75.546,53.122 74.603,53.122C73.108,53.122 71.879,51.893 71.879,50.398C71.879,49.929 72,49.468 72.23,49.06C72.41,48.75 76.83,41.44 86.61,41.44C96.38,41.44 100.79,48.75 100.97,49.06C101.73,50.36 101.29,52.03 100,52.79Z"
   style="fill:rgb(47,47,47);fill-rule:nonzero;" />
    
    
    <path
   id="path39789"
   d="M39.576,30.532C40.815,30.338 42.211,30.73 42.777,28.93C43.309,27.237 42.856,25.163 42.873,23.394C42.887,22.251 42.513,21.181 41.778,20.49C40.941,19.702 40.011,19.716 38.998,19.772C38.237,19.81 37.443,19.653 36.686,19.59C35.903,19.521 35.116,19.67 34.336,19.616C33.791,19.567 33.859,19.516 33.492,19.928C33.278,20.197 33.098,20.491 32.955,20.804C32.254,22.403 32.864,24.993 33.164,26.657C33.394,27.987 33.01,30.122 34.255,30.652C35.176,31.051 36.315,30.828 37.267,30.782C38.04,30.733 38.81,30.649 39.576,30.532Z"
   style="fill:#40c0e7;fill-rule:nonzero;fill-opacity:1" />
    <path
   id="path35596"
   d="m 85.776436,107.619 c -0.778205,-0.616 -1.99788,-1.243 -2.895462,-1.553 -1.003445,-0.357 -2.101491,-0.673 -3.152236,-0.789 -1.479828,-0.154 -1.346936,0.733 -1.788407,2.153 -0.313084,0.979 -0.765816,1.8 -1.01358,2.801 -0.262405,1.054 -0.469626,2.126 -0.739914,3.175 -0.644187,2.459 -0.703876,3.833 1.672408,4.554 1.715204,0.517 3.525008,0.808 5.270619,1.214 0.518052,-0.225 0.694866,-1.116 0.815369,-1.655 0.215105,-0.95 0.561975,-1.818 0.818748,-2.746 0.480888,-1.666 1.05525,-3.373 1.421266,-5.067 0.202716,-0.853 0.263531,-1.564 -0.408811,-2.087 z"
   style="fill:#40c0e7;fill-rule:nonzero;stroke-width:1;fill-opacity:1" />
    <path
   id="path35600"
   d="m 95.522,25.147504 c -1.118,0.06268 -2.132,0.105771 -3.254,0.317133 -1.086,0.21427 -1.464,0.645734 -1.215,2.018849 0.144,0.857633 0.172,1.737895 0.357,2.589839 0.167,0.803491 0.478,1.592615 0.66,2.406317 0.134,0.582825 0.112,1.533048 0.427,2.034494 0.446,0.697029 1.204,0.427263 1.784,0.347117 0.723,-0.09659 1.446,-0.05319 2.189,-0.194167 0.938,-0.189226 1.862,-0.459582 2.789,-0.760697 0.758,-0.246766 1.839,-0.42844 2.518,-0.835589 0.183,-0.118217 0.334,-0.278018 0.442,-0.468294 0.443,-0.747213 0.462,-1.990678 0.415,-2.849475 -0.06,-1.170847 -0.343,-2.462709 -0.584,-3.621177 -0.383,-1.81694 -2.037,-1.479555 -3.175,-1.371485 -1.107,0.128573 -2.215,0.326066 -3.353,0.387135 z"
   style="fill:#40c0e7;fill-rule:nonzero;fill-opacity:1" />
    <path
   id="path35602"
   d="m 114.81854,51.093 c -0.75633,0.284 -1.6759,0.647 -2.24745,1.326 -0.5117,0.597 -0.12429,1.731 0.0414,2.544 0.18405,0.911 0.57674,1.79 0.98116,2.623 0.3769,0.763 0.74866,1.716 1.23948,2.405 0.55784,0.792 0.96174,0.38 1.51599,0.044 0.67408,-0.396 1.36616,-0.792 2.10975,-1.03 1.01243,-0.32 2.12134,-0.585 3.08033,-0.989 0.32889,-0.133 0.48545,-0.43 0.52416,-0.814 0.13801,-1.197 -0.86744,-3.286 -1.13794,-4.193 -0.20904,-0.72 -0.58015,-1.984 -1.11687,-2.474 -0.59962,-0.57 -1.34627,-0.494 -1.99337,-0.436 -1.04479,0.097 -2.00699,0.617 -2.99665,0.994 z"
   style="fill:#d7598b;fill-rule:nonzero;fill-opacity:1" />
    <g
   id="g35606"
   transform="matrix(-1.4641307,0,0,0.98260706,153.71469,2.4898609)"
   style="stroke-width:0.948351">
        <path
   id="ellipse35604"
   style="fill:#ed6c30;stroke-width:1.0177"
   d="m 64.506444,82.058998 c 0,3.75885 -1.196411,6.806 -3.427089,6.806 -2.230678,0 -3.427089,-3.04715 -3.427089,-6.806 0,-3.75885 1.196411,-6.806 3.427089,-6.806 2.230678,0 3.427089,3.04715 3.427089,6.806 z"
   sodipodi:nodetypes="sssss" />
    </g>
    
    
    <path
   id="path39793"
   d="m 32.631,92.773712 c -0.798,0.05607 -0.985,1.047094 -1.48,1.865989 -1.113,1.81291 -1.853,3.840904 -2.638,5.869159 -0.292,0.75464 -1.25,2.56098 -0.94,3.35083 0.255,0.63451 1.233,0.66439 1.745,0.84213 l 2,0.68764 c 0.316,0.10602 2.259,1.12559 2.553,0.87267 0.513,-0.4264 0.787,-1.57354 1.03,-2.22336 0.429,-1.20071 0.768,-2.42189 1.234,-3.62775 0.603,-1.557928 1.24,-3.250587 1.539,-4.898202 -0.87,-1.048912 -2.047,-1.443095 -3.227,-2.01286 -0.549,-0.265589 -1.195,-0.763678 -1.816,-0.727246 z"
   style="fill:#d7598b;fill-rule:nonzero;fill-opacity:1" />
    <path
   id="path35618"
   d="m 20.60112,60.29467 c 0.251678,-0.07526 0.446559,-0.186114 0.580251,-0.324582 0.730031,-0.709742 0.01135,-2.193483 -0.248958,-3.464128 -0.287991,-1.507193 -0.303438,-3.022193 -0.715716,-4.522595 -0.461896,-1.629338 -1.763512,-1.765772 -2.841067,-1.398689 -1.168924,0.402695 -2.418564,0.586616 -3.606821,0.959214 -1.064221,0.327792 -1.96751,0.554583 -1.970144,1.916777 -0.0013,1.238483 0.636424,2.465434 1.050007,3.665724 0.778398,2.234966 0.797888,4.942788 3.528106,4.607639 1.531285,-0.184018 2.792155,-1.023149 4.224342,-1.43936 z"
   style="fill:#d7598b;fill-opacity:1;fill-rule:nonzero;stroke-width:1" />
    <path
   id="path40523"
   d="m 76.015,60.110622 c -0.929,0.730103 -1.655,1.52274 -2.445,2.347428 -0.283,0.289227 -0.57,0.422896 -0.56,0.873152 10e-4,0.573764 0.57,1.486782 0.896,1.963616 0.82,1.153781 1.709,2.141842 2.688,3.136157 0.521,0.535461 1.21,1.706438 1.973,1.869031 0.647,0.132888 1.418,-0.492468 1.901,-0.820779 0.638,-0.444784 1.374,-0.805145 1.97,-1.278852 0.763,-0.610503 1.708,-1.496944 2.276,-2.275512 0.318,-0.427586 0.293,-0.848919 0.117,-1.252274 -0.156,-0.367396 -0.434,-0.720722 -0.681,-1.059195 -1.285,-1.725199 -3.343,-4.082007 -5.377,-5.026294 -0.962,-0.449474 -2.07,0.984935 -2.758,1.523522 z"
   style="fill:#40c0e7;fill-rule:nonzero;stroke-width:1;fill-opacity:1" />
    <path
   id="path35598"
   d="m 70.908552,10.458265 c 0.504175,0.314643 3.65362,3.279135 4.361115,3.141391 0.707495,-0.137744 1.774054,-1.243887 2.581354,-2.115485 0.923292,-1.010235 1.795546,-2.0879787 2.922982,-2.9017117 1.360965,-0.9800961 1.44448,-1.9481369 0.977421,-2.8631344 C 81.086406,4.4294074 79.297046,3.2528099 78.31808,2.3137018 77.55099,1.5783283 76.598315,0.89117602 75.619347,1.2009973 74.51047,1.5626564 73.469641,2.5439581 72.670074,3.319114 c -1.005258,0.9704519 -2.381689,1.9288485 -3.127128,3.0680746 -1.042375,1.5430788 0.01085,3.2030941 1.365606,4.0710764 z"
   style="fill:#d7598b;fill-opacity:1;fill-rule:nonzero;stroke-width:0.999999"
   sodipodi:nodetypes="cccccccccc" />
<path
   id="path65671"
   d="m 123.7404,77.924231 c 0,9.42211 -6.23362,14.008259 -14.33147,14.008259 -4.59385,0 -6.91894,-0.38461 -11.495999,-0.897703 l -33.619645,-3.7688 c -2.16093,-0.242243 -2.34523,-1.805559 -2.34523,-4.557638 0,-3.04674 0.789057,-4.484292 2.951256,-4.254906 l 32.871561,3.487328 c 3.467777,0.367895 7.033527,1.253155 9.968607,1.257186 3.62405,0.005 6.55665,-1.766412 6.55665,-5.273726 0,-3.290524 -2.11911,-5.857866 -6.37002,-5.857866 -4.79494,0 -7.6945,3.66405 -8.851331,2.909014 -0.599612,-0.39135 -0.883315,-1.204 -1.878995,-2.999895 -0.995686,-1.795903 -1.592533,-2.66844 -1.324984,-3.493173 0.517194,-1.59427 5.32402,-5.385244 12.67436,-5.385244 9.62121,0 15.19524,6.578624 15.19524,14.827164 z"
   style="fill:#1d8cc8;fill-opacity:1;fill-rule:nonzero;stroke-width:1"
   sodipodi:nodetypes="ssssssssssszsss" /><path
   id="rect65725"
   style="fill:#9531a6;fill-opacity:1;fill-rule:nonzero;stroke:none;stroke-width:6.00001;stroke-linecap:round"
   d="M 107.09375 63.150391 C 103.50127 63.3992 100.616 64.536169 98.662109 65.759766 L 101.54102 74.144531 C 103.07269 73.259149 105.17766 72.066406 107.92578 72.066406 C 108.66871 72.066406 109.34231 72.147931 109.95508 72.294922 L 107.09375 63.150391 z M 122.02148 70.580078 L 110.625 72.490234 C 110.62957 72.491835 110.63411 72.494484 110.63867 72.496094 C 110.73943 72.531665 110.83506 72.571657 110.93164 72.611328 C 111.00047 72.63958 111.07001 72.666986 111.13672 72.697266 C 111.2312 72.740195 111.32383 72.785123 111.41406 72.832031 C 111.49099 72.871977 111.56483 72.914279 111.63867 72.957031 C 111.71404 73.000701 111.79113 73.043319 111.86328 73.089844 C 111.86644 73.091878 111.8699 73.093663 111.87305 73.095703 C 111.98279 73.166803 112.08718 73.242814 112.18945 73.320312 C 112.20277 73.330395 112.21728 73.339421 112.23047 73.349609 C 112.30028 73.403571 112.36538 73.460704 112.43164 73.517578 C 112.49621 73.572938 112.55988 73.629464 112.62109 73.6875 C 112.67574 73.739388 112.72929 73.791738 112.78125 73.845703 C 112.85319 73.920265 112.92147 73.997774 112.98828 74.076172 C 113.03021 74.125473 113.07338 74.173843 113.11328 74.224609 C 113.20695 74.343542 113.29636 74.465162 113.37891 74.591797 C 113.37969 74.593001 113.38008 74.594498 113.38086 74.595703 C 113.41521 74.648602 113.4461 74.703634 113.47852 74.757812 C 113.53106 74.845466 113.58144 74.934506 113.62891 75.025391 C 113.66077 75.08654 113.69113 75.148385 113.7207 75.210938 C 113.76824 75.311205 113.81189 75.413854 113.85352 75.517578 C 113.87458 75.57023 113.89647 75.622278 113.91602 75.675781 C 113.97193 75.828372 114.02287 75.98343 114.06641 76.142578 C 114.06674 76.143785 114.06608 76.145277 114.06641 76.146484 C 114.13306 76.391416 114.18133 76.645641 114.21875 76.904297 C 114.22946 76.978154 114.23973 77.052083 114.24805 77.126953 C 114.27699 77.387948 114.29688 77.651916 114.29688 77.923828 C 114.29688 78.127041 114.28356 78.32258 114.26367 78.513672 C 114.25733 78.576836 114.24666 78.637324 114.23828 78.699219 C 114.22226 78.813792 114.20453 78.926931 114.18164 79.037109 C 114.16185 79.134929 114.13829 79.229829 114.11328 79.324219 C 114.09785 79.381443 114.08172 79.43815 114.06445 79.494141 C 114.02823 79.613041 113.99173 79.730549 113.94727 79.84375 C 113.94622 79.846403 113.94441 79.848912 113.94336 79.851562 L 123.73828 77.882812 C 123.73778 77.662495 123.72041 77.447774 123.71094 77.230469 C 123.70251 77.012642 123.6999 76.793272 123.68359 76.578125 C 123.6835 76.576827 123.68369 76.575516 123.68359 76.574219 C 123.67465 76.457158 123.66362 76.340826 123.65234 76.224609 C 123.61444 75.831883 123.56414 75.442968 123.5 75.060547 C 123.479 74.938002 123.45534 74.816711 123.43164 74.695312 C 123.39489 74.503294 123.34777 74.316044 123.30469 74.126953 C 123.27265 73.98728 123.24658 73.845012 123.21094 73.707031 C 123.20976 73.702428 123.20821 73.697962 123.20703 73.693359 C 123.16481 73.528476 123.12319 73.363666 123.07617 73.201172 C 123.07424 73.194634 123.07225 73.188175 123.07031 73.181641 C 123.05811 73.140461 123.0457 73.099611 123.0332 73.058594 C 123.03302 73.058 123.03338 73.057234 123.0332 73.056641 C 122.9583 72.811413 122.8776 72.569175 122.79102 72.330078 C 122.78703 72.319082 122.7833 72.307857 122.7793 72.296875 C 122.7743 72.282035 122.76907 72.266763 122.76367 72.251953 C 122.76167 72.246753 122.75981 72.241558 122.75781 72.236328 C 122.75659 72.233031 122.75513 72.229859 122.75391 72.226562 C 122.65011 71.947023 122.5378 71.67093 122.41797 71.400391 C 122.29828 71.130164 122.17027 70.86594 122.03516 70.605469 C 122.03116 70.596969 122.02618 70.588598 122.02148 70.580078 z M 68.753906 78.861328 L 67.027344 87.554688 L 75.675781 88.525391 L 77.412109 79.78125 L 76.388672 79.671875 L 75.539062 79.582031 L 68.753906 78.861328 z M 113.77344 80.244141 C 113.77263 80.24574 113.77035 80.246449 113.76953 80.248047 C 113.6756 80.432446 113.56763 80.606249 113.45117 80.773438 L 113.45117 80.775391 C 113.42957 80.806331 113.40521 80.834894 113.38281 80.865234 C 113.38196 80.866434 113.38191 80.868041 113.38086 80.869141 C 113.37838 80.872505 113.37553 80.875549 113.37305 80.878906 C 113.37053 80.881553 113.36744 80.883769 113.36523 80.886719 C 113.27077 81.013578 113.17149 81.135517 113.06445 81.251953 C 113.03105 81.288203 112.99745 81.324133 112.96289 81.359375 C 112.96258 81.359697 112.96125 81.359053 112.96094 81.359375 C 112.96005 81.359683 112.95958 81.360713 112.95898 81.361328 C 112.95698 81.362328 112.95608 81.363934 112.95508 81.365234 C 112.84125 81.481049 112.72171 81.592423 112.5957 81.697266 C 112.5644 81.723266 112.53395 81.750071 112.50195 81.775391 L 112.5 81.777344 C 112.499 81.778444 112.49809 81.78015 112.49609 81.78125 C 112.49314 81.783579 112.48928 81.784786 112.48633 81.787109 C 112.34919 81.894909 112.2063 81.996348 112.05664 82.091797 C 112.05464 82.093072 112.05278 82.09443 112.05078 82.095703 C 112.04879 82.096971 112.04692 82.098344 112.04492 82.099609 L 112.03906 82.103516 C 112.02106 82.114846 112.00443 82.127512 111.98633 82.138672 C 111.98509 82.139437 111.98366 82.13986 111.98242 82.140625 C 111.60576 82.372507 111.19096 82.565185 110.74805 82.720703 C 110.52611 82.798629 110.29642 82.865124 110.06055 82.923828 C 110.05755 82.924684 110.05283 82.926934 110.04883 82.927734 C 110.04383 82.929034 110.04036 82.930341 110.03516 82.931641 C 110.02873 82.933217 110.02206 82.933985 110.01562 82.935547 C 109.79235 82.989772 109.5641 83.035174 109.33008 83.072266 C 109.32508 83.073119 109.31985 83.075372 109.31445 83.076172 C 109.01362 83.154002 108.69774 83.197724 108.36523 83.197266 C 108.29226 83.197164 108.21338 83.18806 108.13867 83.185547 C 108.00598 83.190268 107.87495 83.197451 107.74023 83.197266 C 107.38669 83.19678 107.02292 83.18377 106.65234 83.160156 C 106.29072 83.137113 105.92036 83.101015 105.54492 83.060547 L 106.22266 91.814453 C 107.24827 91.876553 108.3477 91.915089 109.60742 91.923828 C 110.57957 91.914628 111.52553 91.840428 112.43555 91.699219 C 112.89056 91.628609 113.33515 91.541912 113.77148 91.4375 C 114.20782 91.333088 114.63522 91.211018 115.05078 91.072266 L 113.77344 80.244141 z M 88.138672 80.994141 L 86.402344 89.744141 L 95.050781 90.714844 L 96.798828 81.914062 L 88.138672 80.994141 z " /></svg>
