<?xml version="1.0" encoding="UTF-8" standalone="no"?>
<svg
   width="128"
   height="128"
   version="1.1"
   id="svg8"
   sodipodi:docname="emoji_u1f994.svg"
   inkscape:version="1.3 (0e150ed6c4, 2023-07-21)"
   xmlns:inkscape="http://www.inkscape.org/namespaces/inkscape"
   xmlns:sodipodi="http://sodipodi.sourceforge.net/DTD/sodipodi-0.dtd"
   xmlns:xlink="http://www.w3.org/1999/xlink"
   xmlns="http://www.w3.org/2000/svg"
   xmlns:svg="http://www.w3.org/2000/svg">
  <sodipodi:namedview
     id="namedview8"
     pagecolor="#ffffff"
     bordercolor="#000000"
     borderopacity="0.25"
     inkscape:showpageshadow="2"
     inkscape:pageopacity="0.0"
     inkscape:pagecheckerboard="0"
     inkscape:deskcolor="#d1d1d1"
     inkscape:zoom="2.867097"
     inkscape:cx="38.017548"
     inkscape:cy="74.465565"
     inkscape:window-width="1366"
     inkscape:window-height="697"
     inkscape:window-x="-8"
     inkscape:window-y="-8"
     inkscape:window-maximized="1"
     inkscape:current-layer="svg8" />
  <defs
     id="defs1">
    <inkscape:path-effect
       effect="fillet_chamfer"
       id="path-effect11"
       is_visible="true"
       lpeversion="1"
       nodesatellites_param="F,0,1,1,0,5.2111057,0,1 @ F,0,1,1,0,5.2111057,0,1 @ F,0,1,1,0,5.2111057,0,1 @ F,0,1,1,0,5.2111057,0,1 @ F,0,1,1,0,5.2111057,0,1 @ F,0,1,1,0,5.2111057,0,1 @ F,0,1,1,0,5.2111057,0,1 @ F,0,1,1,0,5.2111057,0,1 @ F,0,1,1,0,5.2111057,0,1 @ F,0,1,1,0,5.2111057,0,1 @ F,0,1,1,0,5.2111057,0,1 @ F,0,1,1,0,5.2111057,0,1 @ F,0,0,1,0,5.2111057,0,1 @ F,0,1,1,0,5.2111057,0,1 @ F,0,1,1,0,5.2111057,0,1 @ F,0,1,1,0,5.2111057,0,1 @ F,0,1,1,0,5.2111057,0,1 @ F,0,1,1,0,5.2111057,0,1 @ F,0,1,1,0,5.2111057,0,1 @ F,0,1,1,0,5.2111057,0,1 @ F,0,1,1,0,5.2111057,0,1 @ F,0,1,1,0,5.2111057,0,1 @ F,0,1,1,0,5.2111057,0,1 @ F,0,1,1,0,5.2111057,0,1 @ F,0,1,1,0,5.2111057,0,1 @ F,0,1,1,0,5.2111057,0,1 @ F,0,1,1,0,5.2111057,0,1 @ F,0,1,1,0,5.2111057,0,1 @ F,0,1,1,0,5.2111057,0,1 @ F,0,1,1,0,5.2111057,0,1"
       radius="0"
       unit="px"
       method="auto"
       mode="F"
       chamfer_steps="1"
       flexible="false"
       use_knot_distance="true"
       apply_no_radius="true"
       apply_with_radius="true"
       only_selected="false"
       hide_knots="false" />
    <path
       id="a"
       d="M93.3 60.56C87.87 39.4 69.6 37.03 63.96 42.42c-5.64-5.38-23.84-3.01-29.27 18.14C23.55 103.92 29 119.7 64 120.83v.02s-.07-.01 0-.01 0 .01 0 .01v-.02c35-1.13 40.43-16.91 29.3-60.27z" />
    <clipPath
       id="b">
      <use
         xlink:href="#a"
         width="100%"
         height="100%"
         overflow="visible"
         id="use1" />
    </clipPath>
  </defs>
  <path
     fill="#6b4230"
     d="M 9.9308964,79.669873 14.1619,76.412313 c 2.157091,-1.6608 1.984985,-4.966672 -0.3329,-6.394505 L 10.04748,67.688366 C 7.9215196,66.37876 8.019222,63.2561 10.222893,62.081962 l 5.215298,-2.778764 c 2.642763,-1.408092 3.455999,-4.812209 1.735061,-7.262778 l -3.266715,-4.651715 c -1.346831,-1.917852 0.05301,-4.55345 2.396162,-4.511448 l 5.623625,0.1008 c 2.741061,0.04913 4.699162,-2.638143 3.812562,-5.232325 l -2.930496,-8.57459 c -0.74552,-2.181386 1.334132,-4.270628 3.518924,-3.535155 l 10.072138,3.39062 c 2.435619,0.819911 4.874099,-1.23225 4.482217,-3.772117 l -1.158086,-7.505797 c -0.347344,-2.251209 2.058733,-3.908131 4.038024,-2.780745 l 6.307437,3.592661 c 2.66918,1.520341 6.067296,0.507507 7.468568,-2.22606 l 3.891301,-7.5910614 c 1.073921,-2.0949812 4.068257,-2.0949812 5.142178,0 l 3.891301,7.5910614 c 1.401271,2.733567 4.799388,3.746401 7.468568,2.22606 l 6.307434,-3.592661 c 1.979293,-1.127387 4.385373,0.529531 4.038028,2.780745 l -1.158088,7.505797 c -0.391883,2.539869 2.0466,4.59203 4.482222,3.772117 l 10.072134,-3.39062 c 2.18478,-0.735473 4.26444,1.353767 3.51892,3.535155 l -2.93049,8.57459 c -0.88661,2.594195 1.07149,5.281492 3.81256,5.23239 0,0 3.75629,-0.06728 5.63444,-0.100936 2.34234,-0.04197 3.74112,2.593334 2.39376,4.509823 -1.0909,1.551701 -2.18182,3.103395 -3.27273,4.655097 -1.7219,2.449236 -0.90963,5.853246 1.73267,7.261086 1.73842,0.926255 3.47687,1.85251 5.21529,2.778765 2.20367,1.174139 2.30137,4.2968 0.17542,5.606403 -1.26051,0.776479 -2.52101,1.552964 -3.78152,2.329443 -2.31747,1.427569 -2.4889,4.733091 -0.33154,6.392731 1.41303,1.087038 2.82607,2.174071 4.23909,3.261107 1.92912,1.484063 1.45186,4.514638 -0.84,5.333974 -1.36499,0.487974 -2.72995,0.975949 -4.09493,1.463925 -2.50378,0.895096 -3.26649,4.065105 -1.44388,6.001137 0.88907,0.944391 1.77812,1.888781 2.66719,2.833171 1.90719,2.025868 1.28306,5.322962 -1.23264,6.511592 -1.97448,0.93291 -3.94898,1.86583 -5.92346,2.79874 -2.70709,1.27906 -3.68247,4.64004 -2.08065,7.16957 0.58553,0.92467 1.17107,1.84933 1.75661,2.77399 1.27208,2.00879 -0.24001,4.6187 -2.61541,4.51429 -11.55047,-0.50766 -34.651422,-1.52295 -34.651422,-1.52295 -3.751739,-0.1649 -7.509192,-0.15155 -11.259668,0.0399 l -35.260901,1.8001 c -2.321999,0.11855 -3.784571,-2.46263 -2.489551,-4.39361 0.733632,-1.0939 1.467268,-2.1878 2.200901,-3.2817 1.652004,-2.46326 0.723835,-5.81929 -1.959106,-7.08364 -1.994509,-0.93993 -3.989015,-1.87986 -5.983525,-2.81978 -2.515223,-1.18532 -3.139907,-4.480926 -1.232929,-6.504476 0.891251,-0.945731 1.26322,-1.340453 2.673754,-2.837192 1.82317,-1.93459 1.061409,-5.104295 -1.441753,-5.999154 -1.364978,-0.48797 -2.729951,-0.975951 -4.094928,-1.463925 C 8.4798349,84.186038 8.0018901,81.155017 9.9308964,79.669826 Z"
     id="path2-6"
     style="fill:#855c52;stroke:none;stroke-width:1;stroke-opacity:1"
     sodipodi:nodetypes="sssssssssssssssssssssssssssssssssssssssssssssssssssssssssssss" />
  <path
     id="path4"
     style="fill:#fcc21b;stroke-width:1"
     d="m 52.11308,35.129963 c -5.636431,0 -14.588182,5.992855 -18.612067,22.27349 C 21.911514,104.29457 27.548421,122.59053 64,122.58533 c 36.45193,-0.005 42.08849,-18.29076 30.498987,-65.181877 -4.023885,-16.280635 -12.975636,-22.27349 -18.612067,-22.27349 -5.636432,0 -8.779766,2.653058 -11.88692,2.653058 -3.107154,0 -6.250488,-2.653058 -11.88692,-2.653058 z" />
  <ellipse
     clip-path="url(#b)"
     fill="#fee7b4"
     id="ellipse4"
     style="fill:#ffee58;stroke-width:1.10422"
     transform="matrix(0.90561126,0,0,0.90561126,6.0408796,7.8869622)"
     ry="22.379999"
     rx="27.09153"
     cy="113.71"
     cx="64" />
  <path
     d="m 50.707793,87.902277 c 1.915243,0.645354 3.955394,1.030485 5.683277,2.071378 1.727883,1.051302 3.12268,3.028999 2.695914,5.006697 -0.562083,2.602233 -3.715989,3.622308 -6.370267,3.861709 -2.862457,0.24982 -5.745731,0.15614 -8.576961,-0.301854 -2.716732,-0.437175 -5.55837,-1.290708 -7.338298,-3.393312 -2.102604,-2.466918 -2.258738,-5.985137 -2.310783,-9.222315 -0.06245,-4.142755 1.665429,-9.805215 6.089226,-5.485508 3.195542,3.143498 5.693686,5.964319 10.127892,7.463205 z m 26.584414,0 c -1.915243,0.645354 -3.955394,1.030485 -5.683277,2.071378 -1.727883,1.051302 -3.12268,3.028999 -2.695914,5.006697 0.562083,2.602233 3.715989,3.622308 6.370267,3.861709 2.862457,0.24982 5.745731,0.15614 8.576961,-0.301854 2.716732,-0.437175 5.55837,-1.290708 7.338298,-3.393312 2.102604,-2.466918 2.258738,-5.985137 2.310783,-9.222315 0.06245,-4.142755 -1.665429,-9.805215 -6.089226,-5.485508 -3.195542,3.143498 -5.693686,5.964319 -10.127892,7.463205 z"
     fill="#c49d6b"
     id="path5"
     style="fill:#f79329;stroke-width:1" />
  <path
     d="m 47.137529,103.41159 c 2.82082,0.85353 5.516734,2.63346 6.859486,5.31896 0.905578,1.81116 1.082529,4.1948 -0.176951,5.74573 -1.134574,1.40521 -3.081045,1.76952 -4.860972,1.80075 -2.872866,0.0416 -6.068408,-0.27063 -8.566552,-1.73829 -2.83123,-1.66543 -7.879562,-7.84834 -4.538295,-11.31451 2.123422,-2.19629 8.837184,-0.55168 11.283284,0.18736 z m 33.724942,0 c -2.82082,0.85353 -5.516734,2.63346 -6.859486,5.31896 -0.905578,1.81116 -1.082529,4.1948 0.176951,5.74573 1.134574,1.40521 3.081045,1.76952 4.860972,1.80075 2.872866,0.0416 6.068408,-0.27063 8.566552,-1.73829 2.83123,-1.66543 7.879562,-7.84834 4.538295,-11.31451 -2.123423,-2.19629 -8.837184,-0.55168 -11.283284,0.18736 z"
     fill="#f3b55e"
     id="path6"
     style="fill:#f79329;stroke-width:1" />
  <ellipse
     cy="55.266968"
     cx="50.016838"
     rx="5.4848886"
     ry="6.3825736"
     fill="#2f2f2f"
     id="ellipse6"
     style="stroke-width:0.999998" />
  <ellipse
     ry="6.3825736"
     rx="5.4848886"
     cx="77.983162"
     cy="55.266968"
     fill="#2f2f2f"
     id="ellipse8"
     style="stroke-width:0.999998" />
  <path
     id="path9"
     style="fill:#2f2f2f;stroke-width:6;stroke-linecap:round"
     d="m 69.966188,66.918515 c 0,3.295036 -2.671154,4.464765 -5.966189,4.464765 -3.295035,0 -5.966189,-1.169729 -5.966189,-4.464765 0,-3.295036 2.671154,-7.151524 5.966189,-7.151524 3.295035,0 5.966189,3.856488 5.966189,7.151524 z"
     sodipodi:nodetypes="sssss" />
  <path
     style="fill:none;fill-opacity:1;stroke:#2f2f2f;stroke-width:4;stroke-linecap:round;stroke-dasharray:none;stroke-opacity:1"
     d="m 55.207561,76.453373 c 0,0 3.793208,2.567135 8.792439,2.567135 4.999231,0 8.792439,-2.567135 8.792439,-2.567135"
     id="path10"
     sodipodi:nodetypes="czc" />
</svg>
