<?xml version="1.0" encoding="UTF-8" standalone="no"?>
<svg
   width="128"
   height="128"
   version="1.1"
   id="svg3"
   sodipodi:docname="emoji_u1f336.svg"
   inkscape:version="1.3 (0e150ed6c4, 2023-07-21)"
   xmlns:inkscape="http://www.inkscape.org/namespaces/inkscape"
   xmlns:sodipodi="http://sodipodi.sourceforge.net/DTD/sodipodi-0.dtd"
   xmlns="http://www.w3.org/2000/svg"
   xmlns:svg="http://www.w3.org/2000/svg">
  <defs
     id="defs3" />
  <sodipodi:namedview
     id="namedview3"
     pagecolor="#ffffff"
     bordercolor="#000000"
     borderopacity="0.25"
     inkscape:showpageshadow="2"
     inkscape:pageopacity="0.0"
     inkscape:pagecheckerboard="0"
     inkscape:deskcolor="#d1d1d1"
     inkscape:zoom="2.867097"
     inkscape:cx="66.443513"
     inkscape:cy="82.836401"
     inkscape:window-width="1366"
     inkscape:window-height="697"
     inkscape:window-x="-8"
     inkscape:window-y="-8"
     inkscape:window-maximized="1"
     inkscape:current-layer="svg3" />
  <g
     id="g3"
     transform="matrix(1.0270539,0,0,1.0270539,-7.0919322,2.3903728)"
     style="stroke-width:0.973659">
    <path
       d="m 86.396484,33.337891 c -6.1545,1.668572 -10.731022,7.146139 -12.32779,13.185666 -2.554563,8.661256 -4.487134,17.542476 -7.969668,25.90192 -1.837411,4.26939 -3.97196,8.593659 -7.547593,11.688264 -3.385903,3.098852 -7.934897,5.014277 -12.562336,4.796701 -6.341569,-0.158593 -12.348125,-3.134817 -16.939534,-7.405641 -2.756885,-2.391088 -5.228233,-5.083296 -7.793704,-7.67277 -1.298199,-0.827922 -3.07703,0.525888 -2.949218,1.96875 -2.06842,9.008156 0.951965,18.79074 7.186729,25.508939 6.283655,7.16979 15.27885,11.44225 24.480883,13.43706 8.002283,1.77396 16.477554,1.1509 24.187392,-1.5994 9.642523,-2.95018 18.507537,-8.52029 25.126646,-16.153953 8.090219,-8.944842 14.278629,-19.566092 18.348599,-30.905392 1.49282,-4.423274 2.74681,-9.038203 2.64807,-13.741965 -0.57497,-5.640798 -4.85164,-10.516024 -10.15241,-12.321897 -7.40451,-3.168942 -15.044269,-6.287895 -23.171612,-6.823001 -0.188152,0.04557 -0.376303,0.09115 -0.564454,0.136719 z"
       fill="#de5323"
       id="path1"
       style="stroke-width:0.973659" />
    <path
       d="m 82.84,33.8 c 1.980063,-1.029878 4.722429,-2.117276 8.228464,-1.941464 6.07386,0.304578 8.327428,-1.164797 10.748376,-5.432339 2.42095,-4.267541 3.21519,-6.954869 3.42039,-8.973321 0.42909,-4.220699 -0.47207,-9.0015752 -8.095901,-7.9344451 -0.944934,0.1322653 -3.142963,1.3587891 -3.7827,-0.3229135 -1.286216,-3.3811322 5.605765,-5.8720454 10.229441,-3.7019721 5.15599,2.4199112 7.21376,8.8674127 7.41548,10.2870997 1.13118,7.961086 -0.17262,13.971031 -0.72991,16.050884 -0.74804,2.791723 -1.03816,4.445456 1.41626,6.07269 4.55162,3.017632 5.7601,4.745781 6.8201,6.645781 1.59,2.85 2.9394,7.169069 1.95,7.81 -0.6006,0.38907 -2,-0.62 -2.44,-0.94 -1.43,-1.04 -1.45066,-1.879309 -2.44,-2.83 -1.57066,-1.50931 -4.11017,-1.850908 -5.93,-1.5 -2.64018,0.509092 -2.97935,2.476316 -4.49,2.21 -1.77935,-0.313686 -1.44287,-3.106301 -4.56,-5.53 -1.602879,-1.246306 -3.149491,-1.642215 -3.58,-1.74 -1.305736,-0.296582 -2.660832,-0.30105 -3.97,-0.02 -2.18997,0.470139 -2.399991,1.370255 -4.1,1.43 -1.429991,0.05025 -3.1819,-0.519564 -3.39,-1.43 -0.191901,-0.839568 1.069772,-1.250025 1.24,-2.8 0.01977,-0.180025 0.141995,-1.471951 -0.65,-2.28 -0.68801,-0.701956 -1.730002,-0.709568 -3.54,-0.72 -1.660003,-0.0096 -2.353156,0.231381 -2.47,-0.04 -0.193168,-0.448649 1.450063,-1.719878 2.7,-2.37 z"
       fill="#a0b632"
       id="path2"
       sodipodi:nodetypes="ssssssssssssssssssssssssss"
       style="stroke-width:0.973659" />
    <path
       d="m 85.067709,47.445438 c -1.862291,0.12857 -3.436884,1.336001 -4.313298,2.952634 -1.859276,3.429619 -2.210465,7.379752 -3.08874,11.116543 -0.745261,3.170856 -1.615479,6.306799 -2.686911,9.377887 -0.69406,1.989411 1.355557,4.388764 3.477571,3.646953 2.064615,-0.721746 2.860297,-2.919904 3.655023,-4.717676 1.815197,-4.106209 1.956749,-8.672317 2.500279,-13.068283 0.28785,-2.328077 1.070121,-4.538255 2.415246,-6.435383 0.944504,-1.332103 -0.531088,-2.971268 -1.95917,-2.872675 z M 72.148962,78.480425 c -2.326925,0.633145 -3.125853,3.081593 -4.105162,4.983948 -0.719062,1.396812 -2.215894,2.219162 -2.602918,3.729496 -0.436222,1.702325 1.589125,3.292866 3.283616,2.587472 3.183402,-1.325208 5.933863,-3.858287 7.217383,-6.984774 0.784237,-1.910298 -0.945667,-4.414406 -3.120807,-4.325035 -0.224092,0.0092 -0.44933,-0.02058 -0.672112,0.0089 -2e-6,0 2e-6,-8e-6 0,-7e-6 z"
       fill="#ffffff"
       id="path3"
       sodipodi:nodetypes="sssssssssssssssss"
       style="stroke-width:0.973659" />
  </g>
</svg>
