<?xml version="1.0" encoding="UTF-8" standalone="no"?>
<svg
   width="128"
   height="128"
   version="1.1"
   id="svg5"
   sodipodi:docname="emoji_u26cf.svg"
   inkscape:version="1.3 (0e150ed6c4, 2023-07-21)"
   xmlns:inkscape="http://www.inkscape.org/namespaces/inkscape"
   xmlns:sodipodi="http://sodipodi.sourceforge.net/DTD/sodipodi-0.dtd"
   xmlns="http://www.w3.org/2000/svg"
   xmlns:svg="http://www.w3.org/2000/svg">
  <defs
     id="defs5" />
  <sodipodi:namedview
     id="namedview5"
     pagecolor="#ffffff"
     bordercolor="#000000"
     borderopacity="0.25"
     inkscape:showpageshadow="2"
     inkscape:pageopacity="0.0"
     inkscape:pagecheckerboard="0"
     inkscape:deskcolor="#d1d1d1"
     inkscape:zoom="2.0273438"
     inkscape:cx="67.32948"
     inkscape:cy="98.89788"
     inkscape:window-width="1366"
     inkscape:window-height="697"
     inkscape:window-x="-8"
     inkscape:window-y="-8"
     inkscape:window-maximized="1"
     inkscape:current-layer="svg5" />
  <g
     id="g5"
     transform="rotate(-45,60.95966,64.346599)">
    <g
       fill="#855c52"
       id="g2"
       transform="rotate(45,63.37819,63.345962)">
      <path
         id="path1"
         d="m 30.050694,23.350673 c -1.633748,0.0012 -3.264767,0.624142 -4.509765,1.869141 -2.492566,2.492362 -2.498759,6.53142 -0.01172,9.029297 l 4.169922,4.191406 3.691406,3.669922 27.029297,27.199219 c 1.209999,1.219998 2.311016,2.541173 3.291015,3.951171 2.349998,3.379997 7.099613,10.049145 10.34961,13.619141 4.639995,5.089995 22.390083,23.5193 27.33008,28.2793 0.38,0.37 1.60937,1.52117 2.85937,2.70117 1.78,1.68 4.51946,1.67953 6.18946,0.0195 l 7.73046,-7.73047 c 1.67,-1.67 1.66047,-4.39945 -0.0195,-6.18945 -1.17,-1.26 -2.31945,-2.47914 -2.68945,-2.86914 C 110.70086,96.150912 92.269595,78.400825 87.1796,73.760829 83.609604,70.500833 76.940456,65.759265 73.56046,63.409267 72.150461,62.429268 70.829287,61.330203 69.609288,60.120204 L 42.410069,33.090908 38.759679,29.37997 34.570225,25.210048 c -1.249998,-1.239999 -2.885782,-1.860625 -4.519531,-1.859375 z"
         sodipodi:nodetypes="sccccccccccsccccccccs" />
    </g>
    <path
       id="path3"
       style="fill:#78a3ad;fill-opacity:1;stroke-width:1"
       d="m 49.081119,13.454453 c -7.301081,1.234133 -18.522378,6.448135 -24.967203,12.067092 -6.444824,5.618957 -11.612639,11.204806 -14.2160811,15.544538 -0.00269,0.0045 -0.00539,0.0091 -0.00808,0.01367 -1.0619801,1.820283 -2.6815084,3.972419 -2.7606582,6.882542 -0.07915,2.910124 2.2117321,5.087199 4.8194203,5.109645 3.493027,0.143969 6.366488,-1.410181 13.599199,-2.94076 7.232713,-1.530578 19.678202,-4.211064 27.065442,-4.718945 7.38724,-0.50788 10.701616,-0.562943 14.017726,-0.44967 11.912166,0.481637 17.778656,2.015915 25.909999,3.562151 8.131337,1.546236 11.638007,2.96787 13.593077,3.252303 2.45995,0.357885 5.13435,1.413021 8.26541,1.615234 0.0655,0.0043 0.13135,0.0056 0.19708,0.0039 1.74862,-0.04924 3.09788,-0.984166 3.86231,-2.054687 0.7633,-1.068879 1.08702,-2.353401 0.82679,-3.646485 C 118.6813,44.455808 115.16341,39.6457 109.59159,32.831809 104.01977,26.017919 96.043938,20.688369 87.677734,17.039755 81.992419,14.650467 76.04658,12.968484 71.773392,12.493916 67.500205,12.019348 64.987279,11.88414 62.21571,11.922395 c -2.77157,0.03825 -5.833509,0.297925 -13.134591,1.532058 z"
       transform="translate(0,4.0110258)"
       sodipodi:nodetypes="ccscccccccsccccccccc" />
    <path
       d="m 47.640282,27.736813 c -2.623679,0.330463 -5.257477,0.806006 -7.713576,1.81807 -1.701373,0.672029 -3.337982,1.493052 -4.973081,2.309499 -2.119852,1.116505 -4.226034,2.312609 -6.021648,3.916255 -1.825973,1.572142 -3.438403,3.405367 -4.70933,5.454155 -0.600425,1.015451 -1.163163,2.241904 -0.827193,3.437607 0.381315,1.075244 1.773173,1.209207 2.677034,0.753043 1.152992,-0.614138 2.329729,-1.178915 3.490447,-1.779697 2.824408,-1.463327 5.687227,-2.867511 8.675176,-3.968914 3.022843,-1.163413 6.092294,-2.201024 9.140316,-3.295933 1.144238,-0.438904 2.337547,-0.759269 3.448311,-1.279037 1.064299,-0.55724 2.038134,-1.383211 2.540673,-2.495983 0.356435,-1.086266 0.147639,-2.324032 -0.518413,-3.249023 -0.854215,-1.080861 -2.249688,-1.567514 -3.586439,-1.65803 -0.54166,-0.06061 -1.082136,-0.01064 -1.622277,0.03798 z"
       fill="#ffffff"
       id="path5"
       style="stroke-width:1" />
  </g>
</svg>
