<?xml version="1.0" encoding="UTF-8" standalone="no"?>
<!-- Generator: Adobe Illustrator 25.2.3, SVG Export Plug-In . SVG Version: 6.00 Build 0)  -->

<svg
   version="1.1"
   id="Layer_6"
   x="0px"
   y="0px"
   viewBox="0 0 128 128"
   style="enable-background:new 0 0 128 128;"
   xml:space="preserve"
   sodipodi:docname="emoji_u1fa71.svg"
   inkscape:version="1.2.2 (732a01da63, 2022-12-09)"
   xmlns:inkscape="http://www.inkscape.org/namespaces/inkscape"
   xmlns:sodipodi="http://sodipodi.sourceforge.net/DTD/sodipodi-0.dtd"
   xmlns="http://www.w3.org/2000/svg"
   xmlns:svg="http://www.w3.org/2000/svg"><defs
   id="defs3702">
	
	
	
	
</defs><sodipodi:namedview
   id="namedview3700"
   pagecolor="#ffffff"
   bordercolor="#000000"
   borderopacity="0.25"
   inkscape:showpageshadow="2"
   inkscape:pageopacity="0.0"
   inkscape:pagecheckerboard="0"
   inkscape:deskcolor="#d1d1d1"
   showgrid="false"
   inkscape:zoom="2.9996795"
   inkscape:cx="59.673041"
   inkscape:cy="49.338604"
   inkscape:window-width="1366"
   inkscape:window-height="697"
   inkscape:window-x="-8"
   inkscape:window-y="-8"
   inkscape:window-maximized="1"
   inkscape:current-layer="Layer_6" />
<path
   id="path3689"
   style="fill:#9531a6;fill-opacity:1"
   d="M 46.183594 4.0019531 C 45.995313 3.9792969 45.794609 4.0048438 45.599609 4.0898438 C 44.65961 4.4898434 43.479686 5.0293756 42.429688 5.609375 C 41.549688 6.0893745 40.53992 9.1495401 38.169922 18.019531 C 37.936659 18.883408 37.763942 19.751781 37.617188 20.619141 L 37.570312 20.619141 C 35.620314 28.349133 33.820469 36.76094 33.730469 39.710938 C 33.465918 47.811655 37.192353 56.172297 37.478516 65.457031 C 37.477216 65.455487 37.471974 65.450741 37.470703 65.449219 C 37.500703 66.339218 37.500937 67.240392 37.460938 68.150391 C 37.040938 76.870382 32.530545 88.329458 30.560547 92.939453 C 30.060547 94.109452 30.440235 95.459688 31.490234 96.179688 C 31.490234 96.179688 38.330241 102.03016 44.490234 108.91016 C 49.500229 114.50015 53.46922 120.08914 55.199219 122.61914 C 55.799218 123.49914 56.789376 124.01953 57.859375 124.01953 L 69.179688 124.01953 C 70.229686 124.01953 71.220313 123.51039 71.820312 122.65039 C 73.560311 120.15039 77.569536 114.58992 82.519531 108.91992 C 84.369529 106.79992 85.99922 104.99922 87.449219 103.44922 C 87.442475 103.42878 87.430689 103.39014 87.423828 103.36914 C 89.101403 101.47753 90.275475 100.25522 91.384766 99.294922 C 91.386379 99.303658 91.389017 99.311571 91.390625 99.320312 C 94.110622 97.130315 97.060547 95.490234 97.060547 95.490234 C 97.550546 95.230235 97.800547 94.669921 97.560547 94.169922 C 96.524456 91.989626 94.882499 88.293016 92.875 82.667969 C 91.355625 77.995265 89.901235 72.68288 89.679688 68.150391 C 89.179688 57.770401 93.709922 48.58921 93.419922 39.699219 C 93.289922 35.809223 90.290623 23.040148 87.890625 14.660156 C 86.150627 8.3601625 85.299062 6.0193746 84.539062 5.609375 C 83.489064 5.0293756 82.30914 4.4898434 81.369141 4.0898438 C 80.589141 3.7498441 79.740547 4.3609384 79.810547 5.2109375 C 80.020547 7.660935 80.319687 12.489772 80.179688 19.259766 C 80.009688 27.069758 77.130462 35.429535 70.730469 39.019531 L 70.730469 39.029297 C 69.244498 39.864606 67.579811 40.452939 65.724609 40.705078 C 65.723612 40.700195 65.721698 40.694331 65.720703 40.689453 C 65.000704 40.789453 64.259999 40.849609 63.5 40.849609 C 51.960012 40.849609 47.009062 29.579755 46.789062 19.259766 C 46.639063 12.489772 46.940156 7.660935 47.160156 5.2109375 C 47.212656 4.5734381 46.748437 4.0699218 46.183594 4.0019531 z " />
<path
   id="rect4598"
   style="fill:#762998;fill-opacity:1;stroke-width:6;stroke-linecap:round"
   d="M 37.148438 61.501953 C 37.310455 62.804196 37.437257 64.118359 37.478516 65.457031 C 37.477216 65.455487 37.471974 65.450741 37.470703 65.449219 C 37.500703 66.339217 37.500936 67.240393 37.460938 68.150391 C 37.415195 69.100089 37.3139 70.085599 37.179688 71.087891 L 89.980469 71.087891 C 89.837051 70.085097 89.726005 69.09798 89.679688 68.150391 C 89.57028 65.879098 89.709431 63.667958 89.978516 61.501953 L 37.148438 61.501953 z " /></svg>
