<?xml version="1.0" encoding="UTF-8" standalone="no"?>
<svg
   width="100%"
   height="100%"
   viewBox="0 0 128 128"
   version="1.1"
   xml:space="preserve"
   style="fill-rule:evenodd;clip-rule:evenodd;stroke-linejoin:round;stroke-miterlimit:2;"
   id="svg5788"
   sodipodi:docname="emoji_u1f9c0.svg"
   inkscape:version="1.2.2 (732a01da63, 2022-12-09)"
   xmlns:inkscape="http://www.inkscape.org/namespaces/inkscape"
   xmlns:sodipodi="http://sodipodi.sourceforge.net/DTD/sodipodi-0.dtd"
   xmlns="http://www.w3.org/2000/svg"
   xmlns:svg="http://www.w3.org/2000/svg"><defs
   id="defs5792" /><sodipodi:namedview
   id="namedview5790"
   pagecolor="#ffffff"
   bordercolor="#000000"
   borderopacity="0.25"
   inkscape:showpageshadow="2"
   inkscape:pageopacity="0.0"
   inkscape:pagecheckerboard="0"
   inkscape:deskcolor="#d1d1d1"
   showgrid="false"
   inkscape:zoom="2.8284271"
   inkscape:cx="5.8336309"
   inkscape:cy="50.911688"
   inkscape:window-width="1366"
   inkscape:window-height="697"
   inkscape:window-x="-8"
   inkscape:window-y="-8"
   inkscape:window-maximized="1"
   inkscape:current-layer="svg5788" />
    <path
   d="M31.13,58.04L31.14,58.04C31.11,58.24 31.1,58.45 31.1,58.66C31.1,61.15 33.22,63.17 35.85,63.17C38.47,63.17 40.6,61.15 40.6,58.66C40.6,57.98 40.44,57.33 40.16,56.75L77.12,51.45C77.79,56.16 81.84,59.79 86.74,59.79C92.11,59.79 96.46,55.44 96.46,50.07C96.46,49.6 96.42,49.15 96.36,48.7L108.44,46.97C112.48,46.4 116.5,49.23 117.12,53.15L117.12,53.16C117.17,53.48 117.2,53.8 117.21,54.13L117,90.79C117.047,94.497 114.269,97.683 110.59,98.14L19.47,108.54C15.12,109.08 11.28,105.71 11.26,101.33L10.8,67.35C10.8,67.21 10.8,67.07 10.81,66.93C10.99,63.446 13.636,60.551 17.09,60.06L31.13,58.04ZM107.77,76.72C107.77,72.63 104.46,69.32 100.37,69.32C96.28,69.32 92.98,72.63 92.98,76.72C92.98,80.81 96.29,84.11 100.37,84.11C104.46,84.11 107.77,80.81 107.77,76.72ZM79.7,87.06C79.7,84.54 77.66,82.5 75.14,82.5C72.62,82.5 70.58,84.54 70.58,87.06C70.58,89.58 72.62,91.62 75.14,91.62C77.67,91.62 79.7,89.57 79.7,87.06ZM67.04,73.47C67.04,67.26 62.01,62.22 55.79,62.22C49.57,62.22 44.54,67.26 44.54,73.47C44.54,79.68 49.57,84.72 55.79,84.72C62.01,84.72 67.04,79.69 67.04,73.47ZM43.63,95.31C43.63,91.78 40.77,88.93 37.25,88.93C33.73,88.93 30.87,91.79 30.87,95.31C30.87,98.83 33.73,101.69 37.25,101.69C40.77,101.69 43.63,98.84 43.63,95.31ZM27.82,77.99C27.82,76.1 26.29,74.57 24.4,74.57C22.51,74.57 20.98,76.1 20.98,77.99C20.98,79.88 22.51,81.41 24.4,81.41C26.29,81.41 27.82,79.88 27.82,77.99Z"
   style="fill:#fcc21b;fill-rule:nonzero"
   id="path5766" />
    <path
   d="M96.35,48.7C95.38,45.31 91.44,42.8 86.91,42.8C81.64,42.8 77.08,46.31 77.08,50.52C77.08,50.85 77.06,51.14 77.1,51.46L40.14,56.76L40.1,56.77C39.35,55.66 37.72,54.89 35.84,54.89C33.29,54.89 31.21,56.29 31.12,58.05L17.08,60.06C13.626,60.551 10.98,63.446 10.8,66.93C10.95,60.5 14.51,58.69 14.51,58.69L64.12,23.18C68.97,19.65 75.17,18.52 80.94,20.15C86.47,21.71 93.37,24.07 98.64,27.22C104.77,30.89 110.43,36.67 114.05,40.81C114.28,41.08 115.59,42.69 116.27,44.82C116.99,47.05 117.08,49.85 117.1,53.16C116.48,49.24 112.46,46.41 108.42,46.98L96.35,48.7ZM84.26,30.61C84.26,28.65 82.11,27.07 79.45,27.07C76.79,27.07 74.63,28.66 74.63,30.61C74.63,32.56 76.78,34.16 79.45,34.16C82.11,34.16 84.26,32.57 84.26,30.61ZM63.5,40.8C63.5,38.14 60.28,35.99 56.3,35.99C52.33,35.99 49.11,38.14 49.11,40.8C49.11,43.46 52.33,45.62 56.3,45.62C60.27,45.61 63.5,43.46 63.5,40.8Z"
   style="fill:#ffee58;fill-rule:nonzero"
   id="path5768" />
    <circle
   cx="100.38"
   cy="76.72"
   r="7.4"
   style="fill:#f79329"
   id="circle5770" />
    
    <ellipse
   cx="79.45"
   cy="30.61"
   rx="4.81"
   ry="3.55"
   style="fill:#fcc21b"
   id="ellipse5774" />
    <circle
   cx="75.14"
   cy="87.06"
   r="4.56"
   style="fill:#f79329"
   id="circle5776" />
    <circle
   cx="55.79"
   cy="73.47"
   r="11.25"
   style="fill:#f79329"
   id="circle5778" />
    <ellipse
   cx="56.3"
   cy="40.8"
   rx="7.2"
   ry="4.81"
   style="fill:#fcc21b"
   id="ellipse5780" />
    <circle
   cx="37.25"
   cy="95.31"
   r="6.38"
   style="fill:#f79329"
   id="circle5782" />
    <path
   id="path5784"
   style="fill:#fcc21b;fill-rule:nonzero;fill-opacity:1"
   d="M 86.919922 42.789062 C 81.639927 42.789063 77.089844 46.29977 77.089844 50.509766 C 77.089844 50.838765 77.061469 51.111922 77.105469 51.419922 L 77.109375 51.449219 C 77.109844 51.452524 77.110856 51.45568 77.111328 51.458984 L 96.349609 48.703125 C 96.34944 48.70185 96.349779 48.700494 96.349609 48.699219 C 95.37961 45.309222 91.439917 42.799062 86.919922 42.789062 z M 35.849609 54.880859 C 33.299612 54.880859 31.220859 56.279064 31.130859 58.039062 C 31.13039 58.042193 31.131319 58.045692 31.130859 58.048828 L 40.152344 56.755859 C 40.151428 56.754021 40.151309 56.751837 40.150391 56.75 L 40.109375 56.759766 C 39.359376 55.649767 37.739607 54.880859 35.849609 54.880859 z " />
    <circle
   cx="24.41"
   cy="77.99"
   r="3.42"
   style="fill:#f79329"
   id="circle5786" />
<path
   id="path62678"
   style="fill:#f79329;fill-rule:nonzero"
   d="M 96.349609 48.703125 L 77.111328 51.458984 C 77.785602 56.174133 81.843898 59.789062 86.730469 59.789062 C 92.100463 59.789062 96.449219 55.440307 96.449219 50.070312 C 96.449219 49.611616 96.409326 49.151906 96.349609 48.703125 z M 40.152344 56.755859 L 31.130859 58.048828 C 31.101943 58.246003 31.089844 58.453444 31.089844 58.660156 C 31.089844 61.150154 33.209846 63.169922 35.839844 63.169922 C 38.459841 63.169922 40.589844 61.150154 40.589844 58.660156 C 40.589844 57.982308 40.440543 57.334465 40.152344 56.755859 z " /></svg>
