<?xml version="1.0" encoding="UTF-8" standalone="no"?>
<svg
   width="128"
   height="128"
   style="enable-background:new 0 0 128 128;"
   version="1.1"
   id="svg47797"
   sodipodi:docname="emoji_u1f987.svg"
   xml:space="preserve"
   inkscape:version="1.2.2 (732a01da63, 2022-12-09)"
   xmlns:inkscape="http://www.inkscape.org/namespaces/inkscape"
   xmlns:sodipodi="http://sodipodi.sourceforge.net/DTD/sodipodi-0.dtd"
   xmlns:xlink="http://www.w3.org/1999/xlink"
   xmlns="http://www.w3.org/2000/svg"
   xmlns:svg="http://www.w3.org/2000/svg"><defs
     id="defs47801"><linearGradient
       id="SVGID_3_"
       gradientUnits="userSpaceOnUse"
       x1="64"
       x2="64"
       y1="67.8624"
       y2="114.9792"><stop
         offset="0"
         style="stop-color:#2E1729"
         id="stop47474" /><stop
         offset="0.4569"
         style="stop-color:#6E5068"
         id="stop47476" /><stop
         offset="0.8469"
         style="stop-color:#A883A0"
         id="stop47478" /></linearGradient><linearGradient
       id="SVGID_6_"
       gradientUnits="userSpaceOnUse"
       x1="64"
       x2="64"
       y1="41.347198"
       y2="78.825897"><stop
         offset="0.1531"
         style="stop-color:#A883A0"
         id="stop47513" /><stop
         offset="0.2797"
         style="stop-color:#9C7A95"
         id="stop47515" /><stop
         offset="1"
         style="stop-color:#5C4A58"
         id="stop47517" /></linearGradient><linearGradient
       id="SVGID_7_"
       gradientUnits="userSpaceOnUse"
       x1="64"
       x2="64"
       y1="59.155899"
       y2="65.062698"><stop
         offset="0.1531"
         style="stop-color:#B06F61"
         id="stop47522" /><stop
         offset="0.2821"
         style="stop-color:#A6695B"
         id="stop47524" /><stop
         offset="0.5024"
         style="stop-color:#8A574C"
         id="stop47526" /><stop
         offset="0.722"
         style="stop-color:#69423A"
         id="stop47528" /></linearGradient><linearGradient
       id="SVGID_1_"
       gradientUnits="userSpaceOnUse"
       x1="29.945101"
       x2="29.945101"
       y1="27.993401"
       y2="106.8726"><stop
         offset="0.1531"
         style="stop-color:#544150"
         id="stop47440" /><stop
         offset="1"
         style="stop-color:#8A6F83"
         id="stop47442" /></linearGradient><linearGradient
       id="SVGID_2_"
       gradientTransform="matrix(-1,0,0,1,194,0)"
       gradientUnits="userSpaceOnUse"
       x1="95.945099"
       x2="95.945099"
       y1="27.993401"
       y2="106.8726"><stop
         offset="0.1531"
         style="stop-color:#544150"
         id="stop47457" /><stop
         offset="1"
         style="stop-color:#8A6F83"
         id="stop47459" /></linearGradient></defs><sodipodi:namedview
     id="namedview47799"
     pagecolor="#ffffff"
     bordercolor="#000000"
     borderopacity="0.25"
     inkscape:showpageshadow="2"
     inkscape:pageopacity="0.0"
     inkscape:pagecheckerboard="0"
     inkscape:deskcolor="#d1d1d1"
     showgrid="false"
     inkscape:zoom="4.2421875"
     inkscape:cx="61.524862"
     inkscape:cy="72.132597"
     inkscape:window-width="1366"
     inkscape:window-height="697"
     inkscape:window-x="-8"
     inkscape:window-y="-8"
     inkscape:window-maximized="1"
     inkscape:current-layer="svg47797" /><path
     d="m 3.83,25.66 c 0,0 6.24,7.3 6.9,19.53 0.52,9.55 -6.99,17.15 -6.99,17.15 0,0 7.78,1.95 11.63,10.66 3.85,8.71 0.36,22.84 0.36,22.84 0,0 13.24,-1.59 23.17,1.83 C 48.57,101 56.15,108 56.15,108 L 52.4,82 42.52,74.62 36,62.58 33.94,40.82 c 0,0 -2.52,-6.18 -9.95,-9.13 C 16.56,28.74 3.83,25.66 3.83,25.66 Z"
     style="fill:#a1867f;stroke:none;stroke-width:2;stroke-linecap:round;stroke-linejoin:round;stroke-miterlimit:10"
     id="path47445" /><path
     d="m 3.16,24.26 c 0,0 20.83,-2.11 33.71,16.58 0,0 -2.07,13.76 2.71,25 C 44.56,77.54 50.54,81 50.54,81 l 0.27,4.21 c 0,0 -10.73,-8.04 -14.28,-17.95 C 30.92,51.6 35.05,48.46 30.64,41.81 23.47,31 -0.15,27.49 3.16,24.26 Z"
     style="fill:#2f2f2f;fill-opacity:1"
     id="path47447" /><path
     d="m 35.1,43.15 c 0,0 -0.56,0.16 -1.55,0.4 -0.25,0.06 -0.52,0.13 -0.82,0.2 -0.28,0.09 -0.58,0.19 -0.9,0.29 -0.64,0.22 -1.37,0.4 -2.16,0.72 -0.4,0.14 -0.81,0.29 -1.23,0.45 -0.42,0.16 -0.85,0.36 -1.29,0.55 -0.89,0.36 -1.8,0.82 -2.75,1.29 -0.92,0.51 -1.91,0.99 -2.85,1.58 -0.48,0.29 -0.96,0.58 -1.44,0.88 l -1.42,0.94 c -0.94,0.64 -1.86,1.31 -2.76,1.99 -0.9,0.67 -1.77,1.37 -2.6,2.05 -1.68,1.35 -3.21,2.69 -4.49,3.86 -2.59,2.34 -4.32,3.9 -4.32,3.9 C 4.42,62.34 4.27,62.33 4.18,62.23 4.1,62.14 4.1,62.01 4.17,61.92 c 0,0 1.4,-1.87 3.69,-4.54 1.16,-1.32 2.56,-2.83 4.12,-4.4 0.79,-0.77 1.63,-1.55 2.51,-2.32 0.87,-0.78 1.81,-1.51 2.75,-2.24 0.95,-0.72 1.92,-1.42 2.92,-2.04 0.49,-0.33 0.99,-0.62 1.5,-0.91 0.5,-0.28 0.99,-0.59 1.5,-0.83 1.02,-0.49 1.98,-1 2.96,-1.35 0.96,-0.4 1.88,-0.72 2.75,-0.97 0.85,-0.28 1.69,-0.46 2.42,-0.61 0.36,-0.08 0.7,-0.15 1.02,-0.21 0.3,-0.04 0.58,-0.08 0.84,-0.11 1.01,-0.14 1.59,-0.19 1.59,-0.19 0.55,-0.05 1.04,0.36 1.09,0.91 0.04,0.47 -0.28,0.91 -0.73,1.04 z"
     style="fill:#2f2f2f;fill-opacity:1"
     id="path47451" /><path
     d="m 34.22,42.52 c 0,0 -0.28,0.83 -0.81,2.28 -0.52,1.43 -1.27,3.48 -2.17,5.94 -0.44,1.23 -0.92,2.56 -1.43,3.97 -0.5,1.41 -1.02,2.9 -1.56,4.43 -0.52,1.54 -1.06,3.14 -1.61,4.76 -0.57,1.61 -1.09,3.27 -1.63,4.92 -0.53,1.66 -1.06,3.31 -1.58,4.94 -0.51,1.63 -1.02,3.24 -1.5,4.8 -0.96,3.12 -1.85,6.04 -2.62,8.54 -0.78,2.5 -1.44,4.59 -1.9,6.05 -0.47,1.46 -0.76,2.29 -0.76,2.29 v 0.01 c -0.09,0.26 -0.38,0.4 -0.64,0.31 -0.22,-0.08 -0.35,-0.3 -0.33,-0.52 0,0 0.08,-0.88 0.26,-2.41 0.09,-0.77 0.21,-1.7 0.37,-2.76 0.15,-1.06 0.34,-2.26 0.59,-3.56 0.22,-1.3 0.5,-2.71 0.82,-4.19 0.3,-1.48 0.67,-3.04 1.07,-4.64 0.41,-1.6 0.82,-3.26 1.33,-4.92 0.48,-1.67 0.99,-3.36 1.54,-5.03 0.58,-1.67 1.14,-3.34 1.74,-4.97 0.59,-1.63 1.25,-3.21 1.86,-4.75 0.63,-1.53 1.28,-2.99 1.91,-4.37 0.62,-1.38 1.25,-2.67 1.85,-3.85 0.58,-1.19 1.16,-2.26 1.68,-3.2 0.51,-0.95 0.98,-1.76 1.37,-2.42 0.79,-1.32 1.26,-2.07 1.26,-2.07 0.15,-0.24 0.46,-0.31 0.69,-0.16 0.19,0.11 0.27,0.36 0.2,0.58 z"
     style="fill:#2f2f2f;fill-opacity:1"
     id="path47453" /><path
     d="m 124.17,25.66 c 0,0 -6.24,7.3 -6.9,19.53 -0.52,9.55 6.99,17.15 6.99,17.15 0,0 -7.79,1.96 -11.64,10.66 -3.85,8.71 -0.36,22.84 -0.36,22.84 0,0 -13.24,-1.59 -23.17,1.83 C 79.43,101 71.85,108 71.85,108 L 75.6,82 85.48,74.62 92,62.58 94.06,40.82 c 0,0 2.52,-6.18 9.95,-9.13 7.43,-2.95 20.16,-6.03 20.16,-6.03 z"
     style="fill:#a1867f;stroke:none;stroke-width:2;stroke-linecap:round;stroke-linejoin:round;stroke-miterlimit:10"
     id="path47462" /><path
     d="m 124.84,24.26 c 0,0 -20.83,-2.11 -33.71,16.58 0,0 2.07,13.76 -2.71,25 C 83.44,77.54 77.46,81 77.46,81 l -0.27,4.21 c 0,0 10.73,-8.04 14.28,-17.95 5.61,-15.66 1.48,-18.8 5.89,-25.45 7.17,-10.81 30.79,-14.32 27.48,-17.55 z"
     style="fill:#2f2f2f;fill-opacity:1"
     id="path47464" /><g
     id="g57126"
     transform="matrix(-1,0,0,1,128,0)"><path
       d="m 45.34,28.59 c -0.607405,0.607405 1.575268,4.708871 1,7.13 -0.574734,2.41888 -1.633186,4.739641 -1.91,7.21 -0.383186,3.419645 0.85,6.98 3.26,9.43 2.41,2.45 5.939976,3.749735 9.37,3.44 0.440024,-0.03974 0.781184,-7.029634 0.96,-7.61 0.391185,-1.269635 0.879265,-2.500374 1.48,-3.68 0.499265,-0.980375 1.248262,-1.779798 1.12,-2.89 -0.481738,-4.1698 -4.745385,-8.457488 -8.1,-10.52 -2.175406,-1.337501 -6.572595,-3.117405 -7.18,-2.51 z"
       style="fill:#855c52;fill-opacity:1"
       id="path57112"
       sodipodi:nodetypes="zssssssssz" /><linearGradient
       id="linearGradient57122"
       gradientUnits="userSpaceOnUse"
       x1="51.080101"
       x2="51.080101"
       y1="30.625"
       y2="54.793499"><stop
         offset="0.1531"
         style="stop-color:#B06F61"
         id="stop57114" /><stop
         offset="0.2821"
         style="stop-color:#A6695B"
         id="stop57116" /><stop
         offset="0.5024"
         style="stop-color:#8A574C"
         id="stop57118" /><stop
         offset="0.722"
         style="stop-color:#69423A"
         id="stop57120" /></linearGradient><path
       d="m 48.251396,31.953476 c -0.673383,0.673383 0.37729,4.723118 -0.785858,7.995648 -0.574368,1.61599 -0.586766,2.65895 -0.740168,4.377047 -0.212114,2.375676 1.130828,5.046121 2.668262,6.780309 1.532898,1.729072 2.841492,3.093099 4.989284,2.914985 0.27456,-0.02277 0.423513,-4.878779 0.529998,-5.281696 0.231621,-0.876404 0.53107,-1.735716 0.895512,-2.54947 0.302624,-0.675723 0.7668,-1.224384 0.676204,-2.001197 -0.338885,-2.905756 -0.235733,-5.228454 -3.207398,-8.699265 -1.706933,-1.993645 -4.352453,-4.209744 -5.025836,-3.536361 z"
       style="fill:#fcd4b5;fill-opacity:1;stroke-width:1"
       id="path57124"
       sodipodi:nodetypes="zssssssssz" /></g><path
     d="m 93.27,41.18 c 0,0 0.58,0.05 1.59,0.19 0.25,0.03 0.53,0.07 0.84,0.11 0.31,0.07 0.66,0.14 1.02,0.21 0.73,0.15 1.57,0.33 2.42,0.61 0.87,0.25 1.8,0.57 2.75,0.97 0.98,0.35 1.94,0.87 2.96,1.35 0.51,0.24 0.99,0.55 1.5,0.83 0.5,0.29 1.01,0.58 1.5,0.91 1,0.62 1.97,1.32 2.92,2.04 0.94,0.73 1.88,1.46 2.75,2.24 0.88,0.77 1.72,1.54 2.51,2.32 1.57,1.56 2.96,3.08 4.12,4.4 2.29,2.67 3.69,4.54 3.69,4.54 0.08,0.11 0.06,0.26 -0.05,0.34 -0.09,0.07 -0.23,0.06 -0.31,-0.01 0,0 -1.73,-1.56 -4.32,-3.9 -1.28,-1.18 -2.81,-2.51 -4.49,-3.86 -0.83,-0.69 -1.7,-1.38 -2.6,-2.05 -0.9,-0.68 -1.82,-1.35 -2.76,-1.99 l -1.42,-0.94 c -0.48,-0.29 -0.96,-0.59 -1.44,-0.88 -0.94,-0.6 -1.93,-1.07 -2.85,-1.58 -0.95,-0.46 -1.86,-0.93 -2.75,-1.29 -0.44,-0.19 -0.87,-0.39 -1.29,-0.55 -0.43,-0.16 -0.84,-0.31 -1.23,-0.45 -0.79,-0.32 -1.52,-0.5 -2.16,-0.72 -0.32,-0.1 -0.62,-0.2 -0.9,-0.29 -0.3,-0.07 -0.57,-0.14 -0.82,-0.2 -0.99,-0.24 -1.55,-0.4 -1.55,-0.4 -0.53,-0.15 -0.84,-0.71 -0.69,-1.24 0.14,-0.46 0.59,-0.75 1.06,-0.71 z"
     style="fill:#2f2f2f;fill-opacity:1"
     id="path47468" /><path
     d="m 94.68,42.09 c 0,0 0.47,0.75 1.26,2.07 0.39,0.66 0.86,1.47 1.37,2.42 0.52,0.95 1.1,2.01 1.68,3.2 0.6,1.18 1.23,2.47 1.85,3.85 0.63,1.38 1.28,2.84 1.91,4.37 0.61,1.54 1.26,3.12 1.86,4.75 0.6,1.63 1.16,3.3 1.74,4.97 0.55,1.68 1.06,3.37 1.54,5.03 0.51,1.66 0.92,3.32 1.33,4.92 0.4,1.6 0.77,3.16 1.07,4.64 0.32,1.48 0.6,2.88 0.82,4.19 0.25,1.3 0.44,2.49 0.59,3.56 0.17,1.06 0.29,1.99 0.37,2.76 0.18,1.53 0.26,2.41 0.26,2.41 0.02,0.28 -0.18,0.52 -0.46,0.55 -0.23,0.02 -0.44,-0.12 -0.52,-0.33 v -0.01 c 0,0 -0.29,-0.83 -0.76,-2.29 -0.46,-1.46 -1.11,-3.55 -1.9,-6.05 -0.77,-2.5 -1.66,-5.41 -2.62,-8.54 -0.49,-1.56 -0.99,-3.16 -1.5,-4.8 -0.52,-1.63 -1.05,-3.28 -1.58,-4.94 -0.54,-1.65 -1.06,-3.31 -1.63,-4.92 -0.55,-1.62 -1.09,-3.21 -1.61,-4.76 -0.54,-1.54 -1.06,-3.02 -1.56,-4.43 -0.51,-1.41 -0.98,-2.74 -1.43,-3.97 -0.9,-2.46 -1.64,-4.51 -2.17,-5.94 -0.53,-1.44 -0.81,-2.28 -0.81,-2.28 -0.09,-0.26 0.05,-0.55 0.31,-0.64 0.23,-0.08 0.47,0.01 0.59,0.21 z"
     style="fill:#2f2f2f;fill-opacity:1"
     id="path47470" /><path
     d="m 79.75,87.48 c 0,11.47 -10.76,28.27 -15.75,28.27 -4.16,0 -15.75,-16.8 -15.75,-28.27 0,-11.47 7.05,-20.76 15.75,-20.76 8.7,0 15.75,9.29 15.75,20.76 z"
     style="fill:#855c52;stroke:none;stroke-width:2;stroke-linecap:round;stroke-linejoin:round;stroke-miterlimit:10"
     id="path47481" /><path
     id="path55869"
     style="fill:#2f2f2f;fill-opacity:1;stroke:none;stroke-width:2;stroke-linecap:round;stroke-linejoin:round;stroke-miterlimit:10"
     d="M 64 66.720703 C 58.532323 66.720703 53.718363 70.391147 50.894531 75.964844 C 55.290818 79.48728 60.732166 81.699219 64 81.699219 C 67.798711 81.699219 73.043194 79.586909 77.222656 76.205078 C 74.416372 70.497804 69.545282 66.720703 64 66.720703 z " /><g
     id="g47496"><path
       d="m 45.34,28.59 c -0.607405,0.607405 1.575268,4.708871 1,7.13 -0.574734,2.41888 -1.633186,4.739641 -1.91,7.21 -0.383186,3.419645 0.85,6.98 3.26,9.43 2.41,2.45 5.939976,3.749735 9.37,3.44 0.440024,-0.03974 0.781184,-7.029634 0.96,-7.61 0.391185,-1.269635 0.879265,-2.500374 1.48,-3.68 0.499265,-0.980375 1.248262,-1.779798 1.12,-2.89 -0.481738,-4.1698 -4.745385,-8.457488 -8.1,-10.52 -2.175406,-1.337501 -6.572595,-3.117405 -7.18,-2.51 z"
       style="fill:#855c52;fill-opacity:1"
       id="path47483"
       sodipodi:nodetypes="zssssssssz" /><linearGradient
       id="SVGID_4_"
       gradientUnits="userSpaceOnUse"
       x1="51.080101"
       x2="51.080101"
       y1="30.625"
       y2="54.793499"><stop
         offset="0.1531"
         style="stop-color:#B06F61"
         id="stop47485" /><stop
         offset="0.2821"
         style="stop-color:#A6695B"
         id="stop47487" /><stop
         offset="0.5024"
         style="stop-color:#8A574C"
         id="stop47489" /><stop
         offset="0.722"
         style="stop-color:#69423A"
         id="stop47491" /></linearGradient><path
       d="m 48.251396,31.953476 c -0.673383,0.673383 0.37729,4.723118 -0.785858,7.995648 -0.574368,1.61599 -0.586766,2.65895 -0.740168,4.377047 -0.212114,2.375676 1.130828,5.046121 2.668262,6.780309 1.532898,1.729072 2.841492,3.093099 4.989284,2.914985 0.27456,-0.02277 0.423513,-4.878779 0.529998,-5.281696 0.231621,-0.876404 0.53107,-1.735716 0.895512,-2.54947 0.302624,-0.675723 0.7668,-1.224384 0.676204,-2.001197 -0.338885,-2.905756 -0.235733,-5.228454 -3.207398,-8.699265 -1.706933,-1.993645 -4.352453,-4.209744 -5.025836,-3.536361 z"
       style="fill:#fcd4b5;fill-opacity:1;stroke-width:1"
       id="path47494"
       sodipodi:nodetypes="zssssssssz" /></g><path
     d="m 84.09,60.32 c 0,10.39 -12.75,18.8 -20.09,18.8 -6.17,0 -20.09,-8.42 -20.09,-18.8 0,-10.38 9,-20.15 20.09,-20.15 11.09,0 20.09,9.77 20.09,20.15 z"
     style="fill:#855c52;stroke:none;stroke-width:2;stroke-linecap:round;stroke-linejoin:round;stroke-miterlimit:10;fill-opacity:1"
     id="path47520" /><path
     d="m 59.72,61.48 c 0,1.44 1.92,3.84 4.28,3.84 2.36,0 4.28,-2.4 4.28,-3.84 0,-1.44 -1.92,-2.6 -4.28,-2.6 -2.36,0 -4.28,1.17 -4.28,2.6 z"
     style="fill:#5d4037;fill-opacity:1"
     id="path47531" /><path
     d="m 53.98,66.34 -1.29,4.1 c -0.01,0.27 0.3,0.44 0.52,0.28 l 2.93,-2.55 c 0.17,-0.12 0.18,-0.36 0.03,-0.5 l -1.64,-1.56 c -0.2,-0.19 -0.54,-0.05 -0.55,0.23 z"
     style="fill:#ffffff"
     id="path47533" /><path
     d="m 74.04,66.57 1.51,4.07 c 0.03,0.27 -0.26,0.46 -0.5,0.31 l -3.04,-2.4 C 71.84,68.44 71.8,68.2 71.94,68.05 l 1.52,-1.67 c 0.2,-0.2 0.55,-0.09 0.58,0.19 z"
     style="fill:#ffffff"
     id="path47535" /><g
     id="g47541"
     style="fill:#2f2f2f;fill-opacity:1"><ellipse
       cx="54.419998"
       cy="56.889999"
       rx="3.1600001"
       ry="3.5799999"
       style="fill:#2f2f2f;fill-opacity:1"
       id="ellipse47537" /><ellipse
       cx="72.57"
       cy="56.889999"
       rx="3.1600001"
       ry="3.5799999"
       style="fill:#2f2f2f;fill-opacity:1"
       id="ellipse47539" /></g><path
     d="m 54.96,64.56 c 0,0 0.06,0.07 0.17,0.19 0.11,0.12 0.29,0.33 0.46,0.5 0.36,0.38 0.98,0.93 1.77,1.46 0.79,0.54 1.8,1.04 2.94,1.4 1.13,0.38 2.41,0.57 3.69,0.56 0.26,-0.01 0.74,0 0.98,-0.03 0.29,-0.02 0.6,-0.06 0.92,-0.1 0.62,-0.1 1.23,-0.23 1.79,-0.43 1.14,-0.36 2.15,-0.87 2.94,-1.4 0.79,-0.54 1.4,-1.07 1.78,-1.47 0.39,-0.4 0.6,-0.65 0.6,-0.65 l 0.03,-0.03 c 0.41,-0.5 1.15,-0.57 1.64,-0.16 0.46,0.38 0.55,1.06 0.23,1.55 0,0 -0.06,0.08 -0.16,0.24 -0.11,0.15 -0.25,0.39 -0.47,0.66 -0.43,0.55 -1.09,1.32 -2.05,2.05 -0.96,0.72 -2.17,1.49 -3.6,1.97 -0.71,0.26 -1.47,0.44 -2.25,0.59 -0.39,0.06 -0.78,0.12 -1.21,0.16 -0.47,0.05 -0.71,0.04 -1.17,0.06 -1.6,-0.02 -3.21,-0.3 -4.63,-0.81 -1.43,-0.48 -2.64,-1.25 -3.6,-1.97 -0.97,-0.74 -1.61,-1.49 -2.07,-2.07 -0.25,-0.3 -0.36,-0.5 -0.46,-0.64 -0.09,-0.14 -0.14,-0.22 -0.14,-0.22 -0.36,-0.54 -0.21,-1.26 0.33,-1.62 0.51,-0.32 1.16,-0.22 1.54,0.21 z"
     style="fill:#2f2f2f;fill-opacity:1"
     id="path47543" /><g
     id="Layer_1"
     style="display:none;"><g
       style="display:inline;"
       id="g47794"><g
         style="opacity:0.6;"
         id="g47576"><circle
           cx="64"
           cy="64"
           r="28"
           style="opacity:0.61;fill:none;stroke:#000000;stroke-width:0.2625;stroke-miterlimit:10;"
           id="circle47548" /><line
           style="opacity:0.61;fill:none;stroke:#000000;stroke-width:0.25;stroke-miterlimit:10;"
           x1="84"
           x2="84"
           y1="0"
           y2="128"
           id="line47550" /><line
           style="opacity:0.61;fill:none;stroke:#000000;stroke-width:0.25;stroke-miterlimit:10;"
           x1="44"
           x2="44"
           y1="0"
           y2="128"
           id="line47552" /><line
           style="opacity:0.61;fill:none;stroke:#000000;stroke-width:0.25;stroke-miterlimit:10;"
           x1="64"
           x2="64"
           y1="0"
           y2="128"
           id="line47554" /><line
           style="opacity:0.61;fill:none;stroke:#000000;stroke-width:0.25;stroke-miterlimit:10;"
           x1="128"
           x2="0"
           y1="64"
           y2="64"
           id="line47556" /><line
           style="opacity:0.61;fill:none;stroke:#000000;stroke-width:0.25;stroke-miterlimit:10;"
           x1="128"
           x2="0"
           y1="44"
           y2="44"
           id="line47558" /><line
           style="opacity:0.61;fill:none;stroke:#000000;stroke-width:0.25;stroke-miterlimit:10;"
           x1="128"
           x2="0"
           y1="83.75"
           y2="83.75"
           id="line47560" /><line
           style="opacity:0.61;fill:none;stroke:#000000;stroke-width:0.25;stroke-miterlimit:10;"
           x1="128"
           x2="0"
           y1="128"
           y2="0"
           id="line47562" /><line
           style="opacity:0.61;fill:none;stroke:#000000;stroke-width:0.25;stroke-miterlimit:10;"
           x1="0"
           x2="128"
           y1="128"
           y2="0"
           id="line47564" /><g
           style="opacity:0.61;"
           id="g47568"><path
             d="M64,4.26c32.94,0,59.74,26.8,59.74,59.74S96.94,123.74,64,123.74S4.26,96.94,4.26,64S31.06,4.26,64,4.26 M64,4 C30.86,4,4,30.86,4,64s26.86,60,60,60s60-26.86,60-60S97.14,4,64,4L64,4z"
             id="path47566" /></g><path
           d="M107.97,115.97H20.03 c-4.42,0-8.03-3.61-8.03-8.03V20.03c0-4.42,3.61-8.03,8.03-8.03h87.94c4.42,0,8.03,3.61,8.03,8.03v87.91 C116,112.36,112.39,115.97,107.97,115.97z"
           style="opacity:0.61;fill:none;stroke:#000000;stroke-width:0.2578;stroke-miterlimit:10;"
           id="path47570" /><path
           d="M100,124H28c-4.4,0-8-3.6-8-8 V12c0-4.4,3.6-8,8-8h72c4.4,0,8,3.6,8,8v104C108,120.4,104.4,124,100,124z"
           style="opacity:0.61;fill:none;stroke:#000000;stroke-width:0.2628;stroke-miterlimit:10;"
           id="path47572" /><path
           d="M113.77,108H14.23 C8.6,108,4,103.4,4,97.77V30.28c0-5.63,4.6-10.23,10.23-10.23h99.54c5.63,0,10.23,4.6,10.23,10.23v67.48 C124,103.4,119.4,108,113.77,108z"
           style="opacity:0.61;fill:none;stroke:#000000;stroke-width:0.2627;stroke-miterlimit:10;"
           id="path47574" /></g><g
         id="g47792"><g
           style="opacity:0.2;"
           id="g47780"><defs
             id="defs47579"><rect
               id="SVGID_24_"
               height="128"
               style="opacity:0.2;"
               width="128"
               x="0"
               y="0" /></defs><clipPath
             id="SVGID_8_"><use
               style="overflow:visible;"
               xlink:href="#SVGID_24_"
               id="use47581" /></clipPath><g
             style="clip-path:url(#SVGID_8_);"
             clip-path="url(#SVGID_8_)"
             id="g47778"><g
               id="g47678"><line
                 style="fill:none;stroke:#000000;stroke-width:0.25;stroke-miterlimit:10;"
                 x1="-28"
                 x2="-28"
                 y1="160"
                 y2="-32"
                 id="line47584" /><line
                 style="fill:none;stroke:#000000;stroke-width:0.25;stroke-miterlimit:10;"
                 x1="-24"
                 x2="-24"
                 y1="160"
                 y2="-32"
                 id="line47586" /><line
                 style="fill:none;stroke:#000000;stroke-width:0.25;stroke-miterlimit:10;"
                 x1="-20"
                 x2="-20"
                 y1="160"
                 y2="-32"
                 id="line47588" /><line
                 style="fill:none;stroke:#000000;stroke-width:0.25;stroke-miterlimit:10;"
                 x1="-16"
                 x2="-16"
                 y1="160"
                 y2="-32"
                 id="line47590" /><line
                 style="fill:none;stroke:#000000;stroke-width:0.25;stroke-miterlimit:10;"
                 x1="-12"
                 x2="-12"
                 y1="160"
                 y2="-32"
                 id="line47592" /><line
                 style="fill:none;stroke:#000000;stroke-width:0.25;stroke-miterlimit:10;"
                 x1="-8"
                 x2="-8"
                 y1="160"
                 y2="-32"
                 id="line47594" /><line
                 style="fill:none;stroke:#000000;stroke-width:0.25;stroke-miterlimit:10;"
                 x1="-4"
                 x2="-4"
                 y1="160"
                 y2="-32"
                 id="line47596" /><line
                 style="fill:none;stroke:#000000;stroke-width:0.25;stroke-miterlimit:10;"
                 x1="0"
                 x2="0"
                 y1="160"
                 y2="-32"
                 id="line47598" /><line
                 style="fill:none;stroke:#000000;stroke-width:0.25;stroke-miterlimit:10;"
                 x1="4"
                 x2="4"
                 y1="160"
                 y2="-32"
                 id="line47600" /><line
                 style="fill:none;stroke:#000000;stroke-width:0.25;stroke-miterlimit:10;"
                 x1="8"
                 x2="8"
                 y1="160"
                 y2="-32"
                 id="line47602" /><line
                 style="fill:none;stroke:#000000;stroke-width:0.25;stroke-miterlimit:10;"
                 x1="12"
                 x2="12"
                 y1="160"
                 y2="-32"
                 id="line47604" /><line
                 style="fill:none;stroke:#000000;stroke-width:0.25;stroke-miterlimit:10;"
                 x1="16"
                 x2="16"
                 y1="160"
                 y2="-32"
                 id="line47606" /><line
                 style="fill:none;stroke:#000000;stroke-width:0.25;stroke-miterlimit:10;"
                 x1="20"
                 x2="20"
                 y1="160"
                 y2="-32"
                 id="line47608" /><line
                 style="fill:none;stroke:#000000;stroke-width:0.25;stroke-miterlimit:10;"
                 x1="24"
                 x2="24"
                 y1="160"
                 y2="-32"
                 id="line47610" /><line
                 style="fill:none;stroke:#000000;stroke-width:0.25;stroke-miterlimit:10;"
                 x1="28"
                 x2="28"
                 y1="160"
                 y2="-32"
                 id="line47612" /><line
                 style="fill:none;stroke:#000000;stroke-width:0.25;stroke-miterlimit:10;"
                 x1="32"
                 x2="32"
                 y1="160"
                 y2="-32"
                 id="line47614" /><line
                 style="fill:none;stroke:#000000;stroke-width:0.25;stroke-miterlimit:10;"
                 x1="36"
                 x2="36"
                 y1="160"
                 y2="-32"
                 id="line47616" /><line
                 style="fill:none;stroke:#000000;stroke-width:0.25;stroke-miterlimit:10;"
                 x1="40"
                 x2="40"
                 y1="160"
                 y2="-32"
                 id="line47618" /><line
                 style="fill:none;stroke:#000000;stroke-width:0.25;stroke-miterlimit:10;"
                 x1="44"
                 x2="44"
                 y1="160"
                 y2="-32"
                 id="line47620" /><line
                 style="fill:none;stroke:#000000;stroke-width:0.25;stroke-miterlimit:10;"
                 x1="48"
                 x2="48"
                 y1="160"
                 y2="-32"
                 id="line47622" /><line
                 style="fill:none;stroke:#000000;stroke-width:0.25;stroke-miterlimit:10;"
                 x1="52"
                 x2="52"
                 y1="160"
                 y2="-32"
                 id="line47624" /><line
                 style="fill:none;stroke:#000000;stroke-width:0.25;stroke-miterlimit:10;"
                 x1="56"
                 x2="56"
                 y1="160"
                 y2="-32"
                 id="line47626" /><line
                 style="fill:none;stroke:#000000;stroke-width:0.25;stroke-miterlimit:10;"
                 x1="60"
                 x2="60"
                 y1="160"
                 y2="-32"
                 id="line47628" /><line
                 style="fill:none;stroke:#000000;stroke-width:0.25;stroke-miterlimit:10;"
                 x1="64"
                 x2="64"
                 y1="160"
                 y2="-32"
                 id="line47630" /><line
                 style="fill:none;stroke:#000000;stroke-width:0.25;stroke-miterlimit:10;"
                 x1="68"
                 x2="68"
                 y1="160"
                 y2="-32"
                 id="line47632" /><line
                 style="fill:none;stroke:#000000;stroke-width:0.25;stroke-miterlimit:10;"
                 x1="72"
                 x2="72"
                 y1="160"
                 y2="-32"
                 id="line47634" /><line
                 style="fill:none;stroke:#000000;stroke-width:0.25;stroke-miterlimit:10;"
                 x1="76"
                 x2="76"
                 y1="160"
                 y2="-32"
                 id="line47636" /><line
                 style="fill:none;stroke:#000000;stroke-width:0.25;stroke-miterlimit:10;"
                 x1="80"
                 x2="80"
                 y1="160"
                 y2="-32"
                 id="line47638" /><line
                 style="fill:none;stroke:#000000;stroke-width:0.25;stroke-miterlimit:10;"
                 x1="84"
                 x2="84"
                 y1="160"
                 y2="-32"
                 id="line47640" /><line
                 style="fill:none;stroke:#000000;stroke-width:0.25;stroke-miterlimit:10;"
                 x1="88"
                 x2="88"
                 y1="160"
                 y2="-32"
                 id="line47642" /><line
                 style="fill:none;stroke:#000000;stroke-width:0.25;stroke-miterlimit:10;"
                 x1="92"
                 x2="92"
                 y1="160"
                 y2="-32"
                 id="line47644" /><line
                 style="fill:none;stroke:#000000;stroke-width:0.25;stroke-miterlimit:10;"
                 x1="96"
                 x2="96"
                 y1="160"
                 y2="-32"
                 id="line47646" /><line
                 style="fill:none;stroke:#000000;stroke-width:0.25;stroke-miterlimit:10;"
                 x1="100"
                 x2="100"
                 y1="160"
                 y2="-32"
                 id="line47648" /><line
                 style="fill:none;stroke:#000000;stroke-width:0.25;stroke-miterlimit:10;"
                 x1="104"
                 x2="104"
                 y1="160"
                 y2="-32"
                 id="line47650" /><line
                 style="fill:none;stroke:#000000;stroke-width:0.25;stroke-miterlimit:10;"
                 x1="108"
                 x2="108"
                 y1="160"
                 y2="-32"
                 id="line47652" /><line
                 style="fill:none;stroke:#000000;stroke-width:0.25;stroke-miterlimit:10;"
                 x1="112"
                 x2="112"
                 y1="160"
                 y2="-32"
                 id="line47654" /><line
                 style="fill:none;stroke:#000000;stroke-width:0.25;stroke-miterlimit:10;"
                 x1="116"
                 x2="116"
                 y1="160"
                 y2="-32"
                 id="line47656" /><line
                 style="fill:none;stroke:#000000;stroke-width:0.25;stroke-miterlimit:10;"
                 x1="120"
                 x2="120"
                 y1="160"
                 y2="-32"
                 id="line47658" /><line
                 style="fill:none;stroke:#000000;stroke-width:0.25;stroke-miterlimit:10;"
                 x1="124"
                 x2="124"
                 y1="160"
                 y2="-32"
                 id="line47660" /><line
                 style="fill:none;stroke:#000000;stroke-width:0.25;stroke-miterlimit:10;"
                 x1="128"
                 x2="128"
                 y1="160"
                 y2="-32"
                 id="line47662" /><line
                 style="fill:none;stroke:#000000;stroke-width:0.25;stroke-miterlimit:10;"
                 x1="132"
                 x2="132"
                 y1="160"
                 y2="-32"
                 id="line47664" /><line
                 style="fill:none;stroke:#000000;stroke-width:0.25;stroke-miterlimit:10;"
                 x1="136"
                 x2="136"
                 y1="160"
                 y2="-32"
                 id="line47666" /><line
                 style="fill:none;stroke:#000000;stroke-width:0.25;stroke-miterlimit:10;"
                 x1="137"
                 x2="137"
                 y1="166.05"
                 y2="-25.95"
                 id="line47668" /><line
                 style="fill:none;stroke:#000000;stroke-width:0.25;stroke-miterlimit:10;"
                 x1="144"
                 x2="144"
                 y1="160"
                 y2="-32"
                 id="line47670" /><line
                 style="fill:none;stroke:#000000;stroke-width:0.25;stroke-miterlimit:10;"
                 x1="148"
                 x2="148"
                 y1="160"
                 y2="-32"
                 id="line47672" /><line
                 style="fill:none;stroke:#000000;stroke-width:0.25;stroke-miterlimit:10;"
                 x1="152"
                 x2="152"
                 y1="160"
                 y2="-32"
                 id="line47674" /><line
                 style="fill:none;stroke:#000000;stroke-width:0.25;stroke-miterlimit:10;"
                 x1="156"
                 x2="156"
                 y1="160"
                 y2="-32"
                 id="line47676" /></g><g
               id="g47774"><line
                 style="fill:none;stroke:#000000;stroke-width:0.25;stroke-miterlimit:10;"
                 x1="-32"
                 x2="160"
                 y1="-28"
                 y2="-28"
                 id="line47680" /><line
                 style="fill:none;stroke:#000000;stroke-width:0.25;stroke-miterlimit:10;"
                 x1="-32"
                 x2="160"
                 y1="-24"
                 y2="-24"
                 id="line47682" /><line
                 style="fill:none;stroke:#000000;stroke-width:0.25;stroke-miterlimit:10;"
                 x1="-32"
                 x2="160"
                 y1="-20"
                 y2="-20"
                 id="line47684" /><line
                 style="fill:none;stroke:#000000;stroke-width:0.25;stroke-miterlimit:10;"
                 x1="-32"
                 x2="160"
                 y1="-16"
                 y2="-16"
                 id="line47686" /><line
                 style="fill:none;stroke:#000000;stroke-width:0.25;stroke-miterlimit:10;"
                 x1="-32"
                 x2="160"
                 y1="-12"
                 y2="-12"
                 id="line47688" /><line
                 style="fill:none;stroke:#000000;stroke-width:0.25;stroke-miterlimit:10;"
                 x1="-32"
                 x2="160"
                 y1="-8"
                 y2="-8"
                 id="line47690" /><line
                 style="fill:none;stroke:#000000;stroke-width:0.25;stroke-miterlimit:10;"
                 x1="-32"
                 x2="160"
                 y1="-4"
                 y2="-4"
                 id="line47692" /><line
                 style="fill:none;stroke:#000000;stroke-width:0.25;stroke-miterlimit:10;"
                 x1="-32"
                 x2="160"
                 y1="0"
                 y2="0"
                 id="line47694" /><line
                 style="fill:none;stroke:#000000;stroke-width:0.25;stroke-miterlimit:10;"
                 x1="-32"
                 x2="160"
                 y1="4"
                 y2="4"
                 id="line47696" /><line
                 style="fill:none;stroke:#000000;stroke-width:0.25;stroke-miterlimit:10;"
                 x1="-32"
                 x2="160"
                 y1="8"
                 y2="8"
                 id="line47698" /><line
                 style="fill:none;stroke:#000000;stroke-width:0.25;stroke-miterlimit:10;"
                 x1="-32"
                 x2="160"
                 y1="12"
                 y2="12"
                 id="line47700" /><line
                 style="fill:none;stroke:#000000;stroke-width:0.25;stroke-miterlimit:10;"
                 x1="-32"
                 x2="160"
                 y1="16"
                 y2="16"
                 id="line47702" /><line
                 style="fill:none;stroke:#000000;stroke-width:0.25;stroke-miterlimit:10;"
                 x1="-32"
                 x2="160"
                 y1="20"
                 y2="20"
                 id="line47704" /><line
                 style="fill:none;stroke:#000000;stroke-width:0.25;stroke-miterlimit:10;"
                 x1="-32"
                 x2="160"
                 y1="24"
                 y2="24"
                 id="line47706" /><line
                 style="fill:none;stroke:#000000;stroke-width:0.25;stroke-miterlimit:10;"
                 x1="-32"
                 x2="160"
                 y1="28"
                 y2="28"
                 id="line47708" /><line
                 style="fill:none;stroke:#000000;stroke-width:0.25;stroke-miterlimit:10;"
                 x1="-32"
                 x2="160"
                 y1="32"
                 y2="32"
                 id="line47710" /><line
                 style="fill:none;stroke:#000000;stroke-width:0.25;stroke-miterlimit:10;"
                 x1="-32"
                 x2="160"
                 y1="36"
                 y2="36"
                 id="line47712" /><line
                 style="fill:none;stroke:#000000;stroke-width:0.25;stroke-miterlimit:10;"
                 x1="-32"
                 x2="160"
                 y1="40"
                 y2="40"
                 id="line47714" /><line
                 style="fill:none;stroke:#000000;stroke-width:0.25;stroke-miterlimit:10;"
                 x1="-32"
                 x2="160"
                 y1="44"
                 y2="44"
                 id="line47716" /><line
                 style="fill:none;stroke:#000000;stroke-width:0.25;stroke-miterlimit:10;"
                 x1="-32"
                 x2="160"
                 y1="48"
                 y2="48"
                 id="line47718" /><line
                 style="fill:none;stroke:#000000;stroke-width:0.25;stroke-miterlimit:10;"
                 x1="-32"
                 x2="160"
                 y1="52"
                 y2="52"
                 id="line47720" /><line
                 style="fill:none;stroke:#000000;stroke-width:0.25;stroke-miterlimit:10;"
                 x1="-32"
                 x2="160"
                 y1="56"
                 y2="56"
                 id="line47722" /><line
                 style="fill:none;stroke:#000000;stroke-width:0.25;stroke-miterlimit:10;"
                 x1="-32"
                 x2="160"
                 y1="60"
                 y2="60"
                 id="line47724" /><line
                 style="fill:none;stroke:#000000;stroke-width:0.25;stroke-miterlimit:10;"
                 x1="-32"
                 x2="160"
                 y1="64"
                 y2="64"
                 id="line47726" /><line
                 style="fill:none;stroke:#000000;stroke-width:0.25;stroke-miterlimit:10;"
                 x1="-32"
                 x2="160"
                 y1="68"
                 y2="68"
                 id="line47728" /><line
                 style="fill:none;stroke:#000000;stroke-width:0.25;stroke-miterlimit:10;"
                 x1="-32"
                 x2="160"
                 y1="72"
                 y2="72"
                 id="line47730" /><line
                 style="fill:none;stroke:#000000;stroke-width:0.25;stroke-miterlimit:10;"
                 x1="-32"
                 x2="160"
                 y1="76"
                 y2="76"
                 id="line47732" /><line
                 style="fill:none;stroke:#000000;stroke-width:0.25;stroke-miterlimit:10;"
                 x1="-32"
                 x2="160"
                 y1="80"
                 y2="80"
                 id="line47734" /><line
                 style="fill:none;stroke:#000000;stroke-width:0.25;stroke-miterlimit:10;"
                 x1="-32"
                 x2="160"
                 y1="84"
                 y2="84"
                 id="line47736" /><line
                 style="fill:none;stroke:#000000;stroke-width:0.25;stroke-miterlimit:10;"
                 x1="-32"
                 x2="160"
                 y1="88"
                 y2="88"
                 id="line47738" /><line
                 style="fill:none;stroke:#000000;stroke-width:0.25;stroke-miterlimit:10;"
                 x1="-32"
                 x2="160"
                 y1="92"
                 y2="92"
                 id="line47740" /><line
                 style="fill:none;stroke:#000000;stroke-width:0.25;stroke-miterlimit:10;"
                 x1="-32"
                 x2="160"
                 y1="96"
                 y2="96"
                 id="line47742" /><line
                 style="fill:none;stroke:#000000;stroke-width:0.25;stroke-miterlimit:10;"
                 x1="-32"
                 x2="160"
                 y1="100"
                 y2="100"
                 id="line47744" /><line
                 style="fill:none;stroke:#000000;stroke-width:0.25;stroke-miterlimit:10;"
                 x1="-32"
                 x2="160"
                 y1="104"
                 y2="104"
                 id="line47746" /><line
                 style="fill:none;stroke:#000000;stroke-width:0.25;stroke-miterlimit:10;"
                 x1="-32"
                 x2="160"
                 y1="108"
                 y2="108"
                 id="line47748" /><line
                 style="fill:none;stroke:#000000;stroke-width:0.25;stroke-miterlimit:10;"
                 x1="-32"
                 x2="160"
                 y1="112"
                 y2="112"
                 id="line47750" /><line
                 style="fill:none;stroke:#000000;stroke-width:0.25;stroke-miterlimit:10;"
                 x1="-32"
                 x2="160"
                 y1="116"
                 y2="116"
                 id="line47752" /><line
                 style="fill:none;stroke:#000000;stroke-width:0.25;stroke-miterlimit:10;"
                 x1="-32"
                 x2="160"
                 y1="120"
                 y2="120"
                 id="line47754" /><line
                 style="fill:none;stroke:#000000;stroke-width:0.25;stroke-miterlimit:10;"
                 x1="-32"
                 x2="160"
                 y1="124"
                 y2="124"
                 id="line47756" /><line
                 style="fill:none;stroke:#000000;stroke-width:0.25;stroke-miterlimit:10;"
                 x1="-32"
                 x2="160"
                 y1="128"
                 y2="128"
                 id="line47758" /><line
                 style="fill:none;stroke:#000000;stroke-width:0.25;stroke-miterlimit:10;"
                 x1="-32"
                 x2="160"
                 y1="132"
                 y2="132"
                 id="line47760" /><line
                 style="fill:none;stroke:#000000;stroke-width:0.25;stroke-miterlimit:10;"
                 x1="-32"
                 x2="160"
                 y1="136"
                 y2="136"
                 id="line47762" /><line
                 style="fill:none;stroke:#000000;stroke-width:0.25;stroke-miterlimit:10;"
                 x1="-32"
                 x2="160"
                 y1="140"
                 y2="140"
                 id="line47764" /><line
                 style="fill:none;stroke:#000000;stroke-width:0.25;stroke-miterlimit:10;"
                 x1="-32"
                 x2="160"
                 y1="144"
                 y2="144"
                 id="line47766" /><line
                 style="fill:none;stroke:#000000;stroke-width:0.25;stroke-miterlimit:10;"
                 x1="-32"
                 x2="160"
                 y1="148"
                 y2="148"
                 id="line47768" /><line
                 style="fill:none;stroke:#000000;stroke-width:0.25;stroke-miterlimit:10;"
                 x1="-32"
                 x2="160"
                 y1="152"
                 y2="152"
                 id="line47770" /><line
                 style="fill:none;stroke:#000000;stroke-width:0.25;stroke-miterlimit:10;"
                 x1="-32"
                 x2="160"
                 y1="156"
                 y2="156"
                 id="line47772" /></g><path
               d="M159.75-31.75v191.5h-191.5v-191.5H159.75 M160-32H-32v192h192V-32L160-32z"
               id="path47776" /></g></g><g
           id="g47790"><rect
             height="128"
             style="opacity:0.3;fill:#F44336;"
             width="4"
             x="0"
             y="0"
             id="rect47782" /><rect
             height="128"
             style="opacity:0.3;fill:#F44336;"
             width="4"
             x="124"
             y="0"
             id="rect47784" /><rect
             height="120"
             style="opacity:0.3;fill:#F44336;"
             transform="matrix(-1.836970e-16 1 -1 -1.836970e-16 66 -62)"
             width="4"
             x="62"
             y="-58"
             id="rect47786" /><rect
             height="120"
             style="opacity:0.3;fill:#F44336;"
             transform="matrix(-1.836970e-16 1 -1 -1.836970e-16 190 62)"
             width="4"
             x="62"
             y="66"
             id="rect47788" /></g></g></g></g></svg>
