<?xml version="1.0" encoding="UTF-8" standalone="no"?>
<!-- Generator: Adobe Illustrator 24.1.2, SVG Export Plug-In . SVG Version: 6.00 Build 0)  -->

<svg
   version="1.1"
   id="Layer_3"
   x="0px"
   y="0px"
   viewBox="0 0 128 128"
   style="enable-background:new 0 0 128 128;"
   xml:space="preserve"
   sodipodi:docname="emoji_u1f98a.svg"
   inkscape:version="1.2.2 (732a01da63, 2022-12-09)"
   xmlns:inkscape="http://www.inkscape.org/namespaces/inkscape"
   xmlns:sodipodi="http://sodipodi.sourceforge.net/DTD/sodipodi-0.dtd"
   xmlns="http://www.w3.org/2000/svg"
   xmlns:svg="http://www.w3.org/2000/svg"><defs
   id="defs48658" /><sodipodi:namedview
   id="namedview48656"
   pagecolor="#ffffff"
   bordercolor="#000000"
   borderopacity="0.25"
   inkscape:showpageshadow="2"
   inkscape:pageopacity="0.0"
   inkscape:pagecheckerboard="0"
   inkscape:deskcolor="#d1d1d1"
   showgrid="false"
   inkscape:zoom="4.2421875"
   inkscape:cx="56.928177"
   inkscape:cy="64.117864"
   inkscape:window-width="1366"
   inkscape:window-height="697"
   inkscape:window-x="-8"
   inkscape:window-y="-8"
   inkscape:window-maximized="1"
   inkscape:current-layer="Layer_3" />
<path
   style="fill:#ed6c30;fill-opacity:1"
   d="M45.83,104.96l32.52,4.5l39.84-24.35c0,0-4.93-11.83-7.46-17.88s-6.62-14.36-6.62-14.36  s2.23-6.07,3.24-13.37c1.17-8.49,0.14-10.65,0.14-10.65l-21.21-9.67c0,0-3.14,2.3-5.96,7.51s-3.8,7.32-3.8,7.32  s-7.18-0.56-10.42-0.56c-3.24,0-8.59,0.7-8.59,0.7s-5.07-9.29-7.74-12.53c-2.67-3.24-6.85-6.38-6.85-6.38s-18.86,9.39-19.71,16.14  s-0.05,11.5,0.52,14.45c0.56,2.96,2.25,7.18,2.25,7.18s-1.69,2.53-3.94,8.31s-4.79,12.81-6.62,15.77c-1.83,2.96-6.76,9.71-6.76,9.71  L45.83,104.96z"
   id="path48621" />
<path
   style="fill:#575A5B;"
   d="M31.66,7.73c-2.02,0.56-4.41,5.16-6.57,12.76c-1.14,4.01-1.97,11.36-1.97,11.36s6.66-5.16,12.58-7.32  s13.42-3.66,13.42-3.66s-3.45-3.94-7.51-7.51C38.1,10.27,33.4,7.25,31.66,7.73z"
   id="path48623" />
<path
   style="fill:#575A5B;"
   d="M100.36,8.48c-1.46-0.39-6.49,2.18-10.04,5.54s-6.95,7.98-6.95,7.98s7.13,0.28,13.61,3.57  c6.48,3.28,10.89,6.19,10.89,6.19s-0.14-6.74-1.6-12.58C104.77,13.17,102.8,9.14,100.36,8.48z"
   id="path48625" />
<path
   style="fill:#f79329;fill-opacity:1"
   d="M33.73,16.55c-0.66,0.38-4.1,7.11-3.85,17.18c0.19,7.51,1.69,13.51,2.06,13.51  c0.19,0,3.84-4.33,7.7-7.04c3.86-2.71,8.82-4.19,8.96-4.52c0.28-0.66-2.86-7.21-7.08-12.74S34.38,16.18,33.73,16.55z"
   id="path48627" />
<path
   style="fill:#f79329;fill-opacity:1"
   d="M86.1,36.45c-0.21-0.96,2.44-9.1,5.16-13.42c2.72-4.32,6.57-8.63,7.6-8.45  c1.03,0.19,5.07,9.67,3.75,18.3c-1.31,8.63-3,13.61-3.47,13.7c-0.26,0.05-3.04-3.25-6.48-5.91C89.8,38.45,86.18,36.83,86.1,36.45z"
   id="path48629" />
<path
   style="fill:#dbdbda;fill-opacity:1"
   d="M4.73,87.41c-0.15-0.74,3.85-1.41,6.57-2.72c2.72-1.31,8.35-3.85,16.99-2.82  c8.63,1.03,12.97,3.63,19.15,7.79c6.19,4.18,8.92,13.98,8.92,13.98l14.17,3c0,0,4.93-11.03,8.54-14.45  c3.03-2.88,11.2-9.36,21.68-10.32c10.23-0.94,14.36,1.31,17.83,2.63c2.4,0.91,4.5,1.41,4.79,2.16c0.28,0.75-4.13,3.75-4.13,3.75  s4.13,0.66,4.22,1.22c0.14,0.84-3.1,2.72-5.35,4.13s-18,9.47-23.84,12.48c-3.1,1.6-15.49,6.19-17.36,6.1  c-1.88-0.09-23.84-1.13-25.34-1.22c-1.5-0.09-16.24-5.26-23.84-8.17c-8.43-3.22-23.54-10.88-23.18-12.29  c0.19-0.75,5.35-1.31,5.35-1.31S4.91,88.35,4.73,87.41z"
   id="path48631" />
<path
   d="m 64.652241,120.93293 c -10.251501,0 -18.545965,-3.47213 -18.545965,-14.14625 0,-10.68128 8.294464,-19.336551 18.545965,-19.336551 10.243855,0 18.561256,8.655271 18.561256,19.336551 0,10.67412 -8.317401,14.14625 -18.561256,14.14625 z"
   style="fill:#ffffff;stroke-width:1"
   id="path72107" />


<path
   style="fill:#FFFFFF;"
   d="M45.9,96.94c-0.33,0.99-2.11,1.27-3.87,0.35c-1.76-0.92-5-2.82-7.74-4.08  c-2.3-1.06-4.86-1.69-4.65-3.17c0.21-1.48,3.17-0.42,5.63,0.35c2.46,0.77,7.53,2.89,8.59,3.52C44.92,94.54,46.4,95.46,45.9,96.94z"
   id="path48639" />
<path
   style="fill:#FFFFFF;"
   d="M36.19,98.06c-2.76-0.87-7.62-2.61-7.88-0.84c-0.21,1.41,4.01,2.4,6.76,3.94  c2.39,1.34,6.65,3.64,7.46,1.06C43.23,99.96,38.86,98.91,36.19,98.06z"
   id="path48641" />
<path
   style="fill:#FFFFFF;"
   d="M83.98,97.15c0.78,1.76,3.4-0.01,6.05-1.34c3.1-1.55,7.18-3.31,8.38-3.66  c1.2-0.35,2.11-0.84,1.9-1.62c-0.21-0.77-2.1-0.86-3.52-0.56c-2.04,0.42-5.35,1.13-8.24,2.6C86.74,93.5,82.93,94.75,83.98,97.15z"
   id="path48643" />
<path
   style="fill:#FFFFFF;"
   d="M87.15,102.64c0.62,2.07,5.56-0.49,7.95-1.48s7.11-2.53,6.69-3.8c-0.48-1.43-6.48-0.02-8.17,0.42  C91.23,98.41,86.31,99.82,87.15,102.64z"
   id="path48645" />




<g
   id="g35380"
   transform="translate(0.97077344,-11.078278)"
   style="fill:#1f1f1f;fill-opacity:1"><path
     d="m 52.92,81.07 c 0,4.59 -3.31,8.3 -7.38,8.3 -4.07,0 -7.38,-3.72 -7.38,-8.3 0,-4.6 3.31,-8.31 7.38,-8.31 4.07,-0.01 7.38,3.71 7.38,8.31 z"
     style="fill:#1f1f1f;fill-opacity:1"
     id="path35376"
     sodipodi:nodetypes="ssscs" /><path
     d="m 75.26,81.07 c 0,4.59 3.3,8.3 7.38,8.3 4.07,0 7.38,-3.72 7.38,-8.3 0,-4.6 -3.31,-8.31 -7.38,-8.31 -4.07,-0.01 -7.38,3.71 -7.38,8.31 z"
     style="fill:#1f1f1f;fill-opacity:1"
     id="path35378"
     sodipodi:nodetypes="ssscs" /></g><path
   d="m 74.911812,107.98232 c -0.13,0.18 -3.15,4.34 -10.26,4.34 -7.06,0 -10.09,-4.13 -10.23,-4.34 -0.7,-1 -2.07,-1.27 -3.09,-0.58 -1.02,0.69 -1.28,2.08 -0.59,3.09 0.17,0.26 4.36,6.27 13.91,6.27 9.56,0 13.75,-6.02 13.93,-6.27 0.68,-1.01 0.43,-2.37 -0.58,-3.07 -1,-0.69 -2.39,-0.43 -3.09,0.56 z"
   style="fill:#2f2f2f"
   id="path72113" /><path
   d="m 64.652586,107.57456 c 4.644606,0 8.412872,-3.03068 8.412872,-6.76973 0,-3.746354 -3.768266,-6.76973 -8.412872,-6.76973 -4.644606,0 -8.398266,3.030679 -8.398266,6.76973 0,3.73905 3.75366,6.76973 8.398266,6.76973 z"
   style="fill:#2f2f2f;stroke-width:1"
   id="path72111" /></svg>
