<?xml version="1.0" encoding="UTF-8" standalone="no"?>
<svg
   width="128"
   height="128"
   style="enable-background:new 0 0 128 128;"
   version="1.1"
   id="svg33307"
   sodipodi:docname="emoji_1f47b.svg"
   inkscape:version="1.2.2 (732a01da63, 2022-12-09)"
   xmlns:inkscape="http://www.inkscape.org/namespaces/inkscape"
   xmlns:sodipodi="http://sodipodi.sourceforge.net/DTD/sodipodi-0.dtd"
   xmlns="http://www.w3.org/2000/svg"
   xmlns:svg="http://www.w3.org/2000/svg">
  <defs
     id="defs33311" />
  <sodipodi:namedview
     id="namedview33309"
     pagecolor="#ffffff"
     bordercolor="#000000"
     borderopacity="0.25"
     inkscape:showpageshadow="2"
     inkscape:pageopacity="0.0"
     inkscape:pagecheckerboard="0"
     inkscape:deskcolor="#d1d1d1"
     showgrid="false"
     inkscape:zoom="1.6324223"
     inkscape:cx="3.0629329"
     inkscape:cy="128.0306"
     inkscape:window-width="1366"
     inkscape:window-height="697"
     inkscape:window-x="-8"
     inkscape:window-y="-8"
     inkscape:window-maximized="1"
     inkscape:current-layer="svg33307" />
  <path
     d="M27.63,43.86c-5.81-0.68-11.83-3.43-14.03-8.93c-1.71-4.27-3.17-10.64-8.16-9.88 c-6.17,0.94-4.72,13.44-3.27,18.26c5.89,19.6,25.08,22.7,25.39,22.22C27.95,64.96,29.07,43.84,27.63,43.86z"
     style="fill:#E0E0E0;"
     id="path33281" />
  <path
     id="path33285"
     style="fill:#78a3ad;fill-opacity:1;stroke-width:1"
     d="m 19.701172,41.441406 c -1.963412,4.439841 -2.95888,15.688394 -2.199219,20.804688 5.340944,2.903249 9.908685,3.515319 10.058594,3.283203 0.14625,-0.21375 0.394199,-3.316391 0.572265,-7.111328 0.05727,-1.220488 0.105736,-2.514317 0.142579,-3.804688 9.24e-4,-0.03266 0.003,-0.065 0.0039,-0.09766 0.01957,-0.703225 0.03567,-1.405607 0.04687,-2.095703 0.01079,-0.664785 0.01609,-1.316122 0.01758,-1.949219 0.0035,-3.697389 -0.1772,-6.618768 -0.712891,-6.611328 -2.738563,-0.32052 -5.519843,-1.106436 -7.929687,-2.417969 z"
     sodipodi:nodetypes="cccssssccc" />
  <path
     d="M100.37,43.86c5.81-0.68,11.83-3.43,14.03-8.93c1.71-4.27,3.17-10.64,8.16-9.88 c6.17,0.94,4.72,13.44,3.27,18.26c-5.89,19.6-25.08,22.7-25.39,22.22C100.05,64.96,98.93,43.84,100.37,43.86z"
     style="fill:#E0E0E0;"
     id="path33287" />
  <path
     id="path36203"
     style="fill:#78a3ad;fill-opacity:1;stroke-width:1"
     d="m 109.43359,40.767578 c -2.64498,1.723803 -5.88456,2.719624 -9.06445,3.091797 -1.439998,-0.02 -0.31969,21.099922 0.0703,21.669922 0.13868,0.214722 4.05885,-0.293332 8.87305,-2.667969 1.11517,-4.087604 1.87567,-17.1325 0.12109,-22.09375 z"
     sodipodi:nodetypes="ccccc" />
  <path
     d="M106.82,49.7c-0.01-2.6-0.17-5.16-0.47-7.62c-2-16.35-11.24-30.55-24.12-37.07 C76.18,1.95,69.84,0.71,63.3,1.35C50.81,2.6,37.97,9.79,30.57,22.17c-17.74,29.67-6.38,65.56-3.38,71.66 c15.34,31.17,40.12,33.83,52.62,32.82c13.58-1.1,29.43-6.61,31.69-12.81c0.53-1.47,0.46-3.06-0.2-4.48 c-1.3-2.75-3.95-2.49-4.82-2.41l-0.99,0.11l-0.26,0.01c-3.78-0.05-5.44-1.02-6.59-3.81c-1.75-4.27-0.31-10.54,1.15-15.52 C102.78,77.51,106.89,63.5,106.82,49.7z"
     style="fill:#E0E0E0;"
     id="path33291" />
  <g
     id="g33301">
    <g
       id="g33297">
      <path
         d="M76.47,45.67c1.74-0.29,3.59-0.51,5.37-0.34c1.81,0.19,3.58,1,5.45,0.76 c1.22-0.15,2.53-0.95,3.24-1.86c1.51-1.92,1.66-4.42,0.82-6.6c-0.62-1.57-1.74-2.96-3.25-3.87c-3.71-2.25-9.03-0.83-12.15,1.91 c-3.2,2.8-5.53,7.56-4.02,9.65C72.83,46.58,75.37,45.84,76.47,45.67z"
         style="fill:#2F2F2F;"
         id="path33293" />
      <path
         d="M50.82,45.67c-1.74-0.29-3.59-0.51-5.37-0.34c-1.81,0.19-3.58,1-5.45,0.76 c-1.22-0.15-2.53-0.95-3.24-1.86c-1.51-1.92-1.66-4.42-0.82-6.6c0.62-1.57,1.74-2.96,3.25-3.87c3.71-2.25,9.03-0.83,12.15,1.91 c3.2,2.8,5.53,7.56,4.02,9.65C54.45,46.58,51.91,45.84,50.82,45.67z"
         style="fill:#2F2F2F;"
         id="path33295" />
    </g>
    <path
       d="m 63.64,73.270129 c -13.355025,0 -17.935967,-10.146553 -17.935967,-14.676167 0,-4.529612 2.512614,-5.692576 5.533745,-5.692576 4.493219,0 6.541612,3.565601 12.402222,3.565601 5.86061,0 7.463798,-3.565601 12.402222,-3.565601 3.018309,0 5.533745,1.162964 5.533745,5.692576 0,4.529614 -4.580942,14.676167 -17.935967,14.676167 z"
       style="fill:#2f2f2f"
       id="path33299"
       sodipodi:nodetypes="szszszs" />
  </g>
</svg>
