<?xml version="1.0" encoding="UTF-8" standalone="no"?>
<svg
   height="128"
   width="128"
   version="1.1"
   id="svg14420"
   sodipodi:docname="emoji_u1f97f.svg"
   inkscape:version="1.2.2 (732a01da63, 2022-12-09)"
   xmlns:inkscape="http://www.inkscape.org/namespaces/inkscape"
   xmlns:sodipodi="http://sodipodi.sourceforge.net/DTD/sodipodi-0.dtd"
   xmlns="http://www.w3.org/2000/svg"
   xmlns:svg="http://www.w3.org/2000/svg">
  <sodipodi:namedview
     id="namedview14422"
     pagecolor="#ffffff"
     bordercolor="#000000"
     borderopacity="0.25"
     inkscape:showpageshadow="2"
     inkscape:pageopacity="0.0"
     inkscape:pagecheckerboard="0"
     inkscape:deskcolor="#d1d1d1"
     showgrid="false"
     inkscape:zoom="2.9996795"
     inkscape:cx="44.0047"
     inkscape:cy="90.342983"
     inkscape:window-width="1366"
     inkscape:window-height="697"
     inkscape:window-x="-8"
     inkscape:window-y="-8"
     inkscape:window-maximized="1"
     inkscape:current-layer="svg14420" />
  <defs
     id="defs14406">
    <linearGradient
       id="a">
      <stop
         offset="0"
         id="stop14401" />
      <stop
         offset="1"
         stop-opacity="0"
         id="stop14403" />
    </linearGradient>
  </defs>
  <g
     transform="matrix(1.16395 .1048 -.1048 1.16395 9.5 -33.706)"
     id="g14418">
    <path
       id="path14408"
       style="fill:#288926;fill-opacity:1"
       d="m 17.706057,61.608987 c -6.861812,0.516486 -9.1825382,1.540156 -9.979139,6.971232 -1.0141744,6.914452 -0.864818,19.310367 -0.3647687,24.90464 0.212735,2.379962 1.403037,2.587897 3.4321607,2.788324 5.471239,0.540423 10.961055,0.543533 16.469754,4.57e-4 2.519408,-0.248376 4.844305,-4.044533 7.630482,-4.295396 3.062518,-0.275743 5.012762,0.08326 7.720733,0.520351 7.651979,1.235084 28.349806,4.153171 45.337079,2.623667 5.654472,-0.509119 9.184484,-3.422247 8.741058,-8.347107 C 95.511591,73.649341 71.214737,65.33034 41.514329,62.927396 22.460958,61.385862 19.289553,61.489794 17.706057,61.608987 Z"
       sodipodi:nodetypes="sssssssssss" />
    <path
       d="m 71.255057,75.457179 c -2.022899,3.043218 -12.031752,3.05623 -29.139451,2.280319 -13.79871,-0.626148 -25.139528,-3.681364 -25.088664,-8.481286 0.02727,-2.568693 7.432081,-3.301014 21.14923,-2.01141 13.717122,1.290367 35.16483,5.074482 33.078885,8.212377 z"
       fill="#d4a463"
       stroke-width="1.543"
       paint-order="stroke fill markers"
       id="path14414"
       sodipodi:nodetypes="ccccc" />
  </g>
</svg>
