<?xml version="1.0" encoding="UTF-8" standalone="no"?>
<svg
   width="128"
   height="128"
   version="1.1"
   id="svg4"
   sodipodi:docname="emoji_u1f617.svg"
   xml:space="preserve"
   inkscape:version="1.3 (0e150ed6c4, 2023-07-21)"
   xmlns:inkscape="http://www.inkscape.org/namespaces/inkscape"
   xmlns:sodipodi="http://sodipodi.sourceforge.net/DTD/sodipodi-0.dtd"
   xmlns="http://www.w3.org/2000/svg"
   xmlns:svg="http://www.w3.org/2000/svg"><defs
     id="defs4" /><sodipodi:namedview
     id="namedview4"
     pagecolor="#ffffff"
     bordercolor="#000000"
     borderopacity="0.25"
     inkscape:showpageshadow="2"
     inkscape:pageopacity="0.0"
     inkscape:pagecheckerboard="0"
     inkscape:deskcolor="#d1d1d1"
     inkscape:zoom="8.515625"
     inkscape:cx="64"
     inkscape:cy="64"
     inkscape:current-layer="svg4" /><g
     id="g6">&#10;	<g
   id="g3">&#10;		<g
   id="g2">&#10;			<g
   id="g1">&#10;				<path
   fill="#fcc21b"
   d="m 64,9.56 c -62.41,0 -63.88,69.96 -63.88,83.8 0,13.86 28.59,25.08 63.88,25.08 35.28,0 63.88,-11.22 63.88,-25.08 0,-13.84 -1.48,-83.8 -63.88,-83.8 z"
   id="path1" />&#10;			</g>&#10;		</g>&#10;	</g>&#10;	<g
   id="g4">&#10;		<path
   fill="#2f2f2f"
   d="m 52.39,52.14 c -0.69,0.44 -1.56,0.57 -2.37,0.55 -2.05,-0.01 -5.03,-0.89 -6.69,0.62 -1.34,1.24 -1.67,3.52 -1.2,5.19 0.69,2.58 3.18,2.51 5.13,3.73 0.5,0.3 0.69,0.98 0.52,1.5 -0.06,0.21 -0.2,0.39 -0.39,0.53 -0.82,0.52 -1.98,0.28 -2.91,0.28 -1.04,0 -1.98,-0.11 -2.82,0.54 -1.4,1.07 -1.98,3.94 -1.24,5.53 0.88,1.88 3.28,2.67 4.61,4.21 0.7,0.82 3.25,3.97 1.37,4.73 -1.87,0.77 -5.74,0.55 -6.25,-1.87 -0.6,-2.79 -3.1,-4.88 -3.99,-7.59 -0.94,-2.84 -0.19,-5.57 1.91,-7.69 1.02,-1.04 -0.14,-3.15 -0.25,-4.38 -0.13,-1.55 0.23,-3.25 0.94,-4.65 2.11,-4.41 6.94,-3.51 10.99,-4.29 0.95,-0.18 1.7,-0.1 2.48,0.61 0.72,0.65 1.1,1.87 0.16,2.45 z"
   id="path3" />&#10;	</g>&#10;	<g
   id="g5">&#10;		<path
   fill="#2f2f2f"
   d="m 31.19,36.07 c 2.31,-4.6 7.31,-6.8 11.15,-4.92 3.83,1.89 5.09,7.14 2.78,11.74 -2.3,4.6 -7.29,6.79 -11.14,4.9 -3.82,-1.88 -5.09,-7.14 -2.79,-11.72 z"
   id="path4" />&#10;		<path
   fill="#2f2f2f"
   d="m 85.03,48.18 c -1.1,5.14 -5.49,8.6 -9.8,7.7 -4.33,-0.9 -6.94,-5.8 -5.85,-10.96 1.1,-5.16 5.49,-8.61 9.81,-7.7 4.31,0.89 6.93,5.79 5.84,10.96 z"
   id="path5" />&#10;	</g>&#10;</g></svg>
