<?xml version="1.0" encoding="UTF-8" standalone="no"?>
<svg
   width="128"
   height="128"
   version="1.1"
   id="svg1453"
   sodipodi:docname="emoji_u1f62a.svg"
   inkscape:version="1.3 (0e150ed6c4, 2023-07-21)"
   xmlns:inkscape="http://www.inkscape.org/namespaces/inkscape"
   xmlns:sodipodi="http://sodipodi.sourceforge.net/DTD/sodipodi-0.dtd"
   xmlns="http://www.w3.org/2000/svg"
   xmlns:svg="http://www.w3.org/2000/svg">
  <defs
     id="defs1457" />
  <sodipodi:namedview
     id="namedview1455"
     pagecolor="#ffffff"
     bordercolor="#000000"
     borderopacity="0.25"
     inkscape:showpageshadow="2"
     inkscape:pageopacity="0.0"
     inkscape:pagecheckerboard="0"
     inkscape:deskcolor="#d1d1d1"
     showgrid="false"
     inkscape:zoom="4.2421875"
     inkscape:cx="57.281768"
     inkscape:cy="67.771639"
     inkscape:window-width="1366"
     inkscape:window-height="697"
     inkscape:window-x="-8"
     inkscape:window-y="-8"
     inkscape:window-maximized="1"
     inkscape:current-layer="svg1453" />
  <path
     d="M64 9.56C1.59 9.56.12 79.52.12 93.36c0 13.86 28.59 25.08 63.88 25.08 35.28 0 63.88-11.22 63.88-25.08 0-13.84-1.48-83.8-63.88-83.8z"
     fill="#fcc21b"
     id="path1443" />
  <g
     fill="#2f2f2f"
     id="g1447"
     transform="translate(0,5.0001068)">
    <path
       d="m 96.16,45.13 c 0.78,-1.28 2.44,-1.7 3.73,-0.93 a 2.72,2.72 0 0 1 0.96,3.71 c -0.18,0.31 -4.6,7.62 -14.37,7.62 -9.78,0 -14.2,-7.31 -14.39,-7.62 a 2.735,2.735 0 0 1 2.36,-4.11 c 0.92,0 1.83,0.47 2.34,1.32 0.13,0.22 3.12,4.96 9.69,4.96 6.57,0 9.55,-4.74 9.68,-4.95 z M 28.12,44.18 c 0.43,-0.26 0.91,-0.38 1.37,-0.38 0.94,0 1.85,0.49 2.36,1.34 0.11,0.2 3.08,4.94 9.66,4.94 6.69,0 9.66,-4.89 9.69,-4.94 a 2.724,2.724 0 0 1 4.69,2.77 c -0.18,0.31 -4.6,7.62 -14.38,7.62 -9.77,0 -14.18,-7.31 -14.36,-7.62 -0.76,-1.29 -0.32,-2.97 0.97,-3.73 z"
       id="path1445" />
  </g>
  <path
     d="m 104.1246,62.804718 c 9.55569,-0.767792 15.79941,4.831098 17.90499,9.837812 3.57703,8.517651 -3.56316,18.519667 -12.8894,18.462314 -3.92293,-0.01297 -8.17375,-1.704028 -11.173729,-4.251141 -3.689803,-3.124925 -6.185851,-8.220505 -9.222863,-11.755712 -1.321016,-1.542338 -3.315695,-3.355906 -5.211533,-4.284269 -0.353722,-0.168289 -0.484243,-0.311926 -0.08394,-0.553943 6.809387,-4.008022 16.277776,-7.0982 20.676435,-7.454181 z"
     fill="#ffffff"
     id="path1451"
     style="fill:#ffffff;fill-opacity:1;stroke-width:1" />
  <path
     id="path4"
     style="fill:#ed6c30;fill-opacity:1;stroke-width:0.999996"
     d="m 46.653904,80.917969 c -4.011247,2.985438 -7.445629,7.306444 -6.05808,11.214843 0.604559,1.702899 2.239561,3.703125 5.487643,3.703126 4.01265,0 8.663514,-1.945313 17.914574,-1.945313 9.25106,0 13.903969,1.945313 17.916619,1.945313 3.248082,-10e-7 4.881039,-2.000227 5.485598,-3.703126 1.387547,-3.908399 -2.044788,-8.229405 -6.056035,-11.214843 -3.159217,-2.351302 -9.603703,-5.523145 -17.346183,-5.523168 -7.742479,-2.3e-5 -14.18492,3.171866 -17.344136,5.523168 z"
     sodipodi:nodetypes="ssszsssss" />
</svg>
