<?xml version="1.0" encoding="UTF-8" standalone="no"?>
<svg
   width="128"
   height="128"
   version="1.1"
   id="svg22"
   sodipodi:docname="emoji_u1f97a.svg"
   inkscape:version="1.3 (0e150ed6c4, 2023-07-21)"
   xmlns:inkscape="http://www.inkscape.org/namespaces/inkscape"
   xmlns:sodipodi="http://sodipodi.sourceforge.net/DTD/sodipodi-0.dtd"
   xmlns="http://www.w3.org/2000/svg"
   xmlns:svg="http://www.w3.org/2000/svg"
   xmlns:rdf="http://www.w3.org/1999/02/22-rdf-syntax-ns#"
   xmlns:cc="http://creativecommons.org/ns#"
   xmlns:dc="http://purl.org/dc/elements/1.1/">
  <metadata
     id="metadata28">
    <rdf:RDF>
      <cc:Work
         rdf:about="">
        <dc:format>image/svg+xml</dc:format>
        <dc:type
           rdf:resource="http://purl.org/dc/dcmitype/StillImage" />
      </cc:Work>
    </rdf:RDF>
  </metadata>
  <defs
     id="defs26" />
  <sodipodi:namedview
     pagecolor="#ffffff"
     bordercolor="#666666"
     borderopacity="1"
     objecttolerance="10"
     gridtolerance="10"
     guidetolerance="10"
     inkscape:pageopacity="0"
     inkscape:pageshadow="2"
     inkscape:window-width="1366"
     inkscape:window-height="697"
     id="namedview24"
     showgrid="false"
     inkscape:zoom="3.6875"
     inkscape:cx="53.966102"
     inkscape:cy="61.966102"
     inkscape:window-x="-8"
     inkscape:window-y="-8"
     inkscape:window-maximized="1"
     inkscape:current-layer="svg22"
     inkscape:showpageshadow="2"
     inkscape:pagecheckerboard="0"
     inkscape:deskcolor="#d1d1d1" />
  <path
     fill="none"
     d="M.06 0h127.99v128H.06z"
     id="path2" />
  <path
     d="M63.89 9.64C1.58 9.64.1 79.5.1 93.33c0 13.83 28.56 25.03 63.79 25.03 35.24 0 63.79-11.21 63.79-25.03 0-13.83-1.47-83.69-63.79-83.69z"
     id="path4"
     fill="#fcc21b" />
  <path
     id="path8-3-3"
     d="m 41.913864,83.804152 c -11.127,0.08872 -20.246,-9.387927 -20.37,-21.151893 -0.124,-11.806553 8.797,-21.436698 19.924,-21.524535 11.102,-0.08873 20.246002,9.387927 20.370002,21.195368 0.124,11.78526 -8.796998,21.393223 -19.924002,21.48106 z"
     inkscape:connector-curvature="0"
     style="fill:#ffffff;stroke-width:0.941936" />
  <g
     id="g3"
     transform="translate(0,-0.9905616)">
    <path
       id="path10-6-5"
       d="M 41.877549,79.311519 C 32.566889,79.384749 24.936392,71.455192 24.832241,61.612116 24.729075,51.732425 32.193519,43.67472 41.50418,43.601492 c 9.290025,-0.07411 16.941158,7.854584 17.045309,17.735146 0.103166,9.861382 -7.361279,17.900781 -16.67194,17.974881 z"
       inkscape:connector-curvature="0"
       style="fill:#2f2f2f;stroke-width:0.925501" />
    <path
       id="path12-7-6"
       d="m 50.33356,60.783472 c -3.402704,2.191743 -8.5521,1.049144 -11.497752,-2.546873 -2.955727,-3.609831 -2.590269,-8.309439 0.812435,-10.501993 3.395378,-2.186865 8.552101,-1.049143 11.507829,2.559876 2.951151,3.603331 2.580197,8.29725 -0.822512,10.48899 z M 38.203813,73.963179 c -1.978425,0.941871 -4.607162,0.0082 -5.872987,-2.082033 -1.270404,-2.097473 -0.695196,-4.559018 1.282312,-5.501702 1.972927,-0.938622 4.607161,-0.0082 5.877565,2.090159 1.267657,2.094223 0.690616,4.552515 -1.28689,5.493576 z"
       inkscape:connector-curvature="0"
       style="fill:#ffffff;stroke-width:0.862754" />
  </g>
  <path
     id="path8-3-3-5"
     d="m 87.138253,83.804152 c -11.127,0.08872 -20.246,-9.387927 -20.37,-21.151893 -0.124,-11.806553 8.797,-21.436698 19.924,-21.524535 11.102,-0.08873 20.245997,9.387927 20.369997,21.195368 0.124,11.78526 -8.796993,21.393223 -19.923997,21.48106 z"
     inkscape:connector-curvature="0"
     style="fill:#ffffff;stroke-width:0.941936" />
  <g
     id="g4"
     transform="translate(0,-0.7505056)">
    <path
       id="path10-6-5-6"
       d="M 87.101938,79.071463 C 77.791278,79.144693 70.160781,71.215136 70.05663,61.37206 69.953464,51.492369 77.417908,43.434664 86.728569,43.361436 c 9.290025,-0.07411 16.941161,7.854584 17.045311,17.735146 0.10316,9.861382 -7.361281,17.900781 -16.671942,17.974881 z"
       inkscape:connector-curvature="0"
       style="fill:#2f2f2f;stroke-width:0.925501" />
    <path
       id="path12-7-6-2"
       d="m 95.557949,60.543416 c -3.402704,2.191743 -8.5521,1.049144 -11.497752,-2.546873 -2.955727,-3.609831 -2.590269,-8.309439 0.812435,-10.501993 3.395378,-2.186865 8.552101,-1.049143 11.507829,2.559876 2.951151,3.603331 2.580197,8.29725 -0.822512,10.48899 z M 83.428202,73.723123 c -1.978425,0.941871 -4.607162,0.0082 -5.872987,-2.082033 -1.270404,-2.097473 -0.695196,-4.559018 1.282312,-5.501702 1.972927,-0.938622 4.607161,-0.0082 5.877565,2.090159 1.267657,2.094223 0.690616,4.552515 -1.28689,5.493576 z"
       inkscape:connector-curvature="0"
       style="fill:#ffffff;stroke-width:0.862754" />
  </g>
  <ellipse
     style="fill:#fcc21b;fill-opacity:1;stroke-width:6;stroke-linecap:round"
     id="path1"
     cx="16.345419"
     cy="55.117195"
     rx="18.121109"
     ry="6.3650661"
     transform="rotate(-20.979642)" />
  <ellipse
     style="fill:#fcc21b;fill-opacity:1;stroke-width:6;stroke-linecap:round"
     id="ellipse3"
     cx="-102.96375"
     cy="9.3673277"
     rx="18.121109"
     ry="6.3650661"
     transform="matrix(-0.9337077,-0.35803621,-0.35803621,0.9337077,0,0)" />
  <path
     style="fill:none;fill-opacity:1;stroke:#2f2f2f;stroke-width:6;stroke-linecap:round;stroke-opacity:1"
     d="m 54.316232,92.104856 c 0,0 3.738731,-3.379029 9.683768,-3.379029 5.945037,0 9.683767,3.379029 9.683767,3.379029"
     id="path3"
     sodipodi:nodetypes="czc" />
</svg>
