<?xml version="1.0" encoding="UTF-8" standalone="no"?>
<svg
   width="100%"
   height="100%"
   viewBox="0 0 128 128"
   version="1.1"
   xml:space="preserve"
   style="fill-rule:evenodd;clip-rule:evenodd;stroke-linejoin:round;stroke-miterlimit:2;"
   id="svg1"
   sodipodi:docname="emoji_u1f96f.svg"
   inkscape:version="1.3 (0e150ed6c4, 2023-07-21)"
   xmlns:inkscape="http://www.inkscape.org/namespaces/inkscape"
   xmlns:sodipodi="http://sodipodi.sourceforge.net/DTD/sodipodi-0.dtd"
   xmlns="http://www.w3.org/2000/svg"
   xmlns:svg="http://www.w3.org/2000/svg"><defs
   id="defs1" /><sodipodi:namedview
   id="namedview1"
   pagecolor="#ffffff"
   bordercolor="#000000"
   borderopacity="0.25"
   inkscape:showpageshadow="2"
   inkscape:pageopacity="0.0"
   inkscape:pagecheckerboard="0"
   inkscape:deskcolor="#d1d1d1"
   inkscape:zoom="2.867097"
   inkscape:cx="39.761473"
   inkscape:cy="80.394907"
   inkscape:window-width="1366"
   inkscape:window-height="697"
   inkscape:window-x="-8"
   inkscape:window-y="-8"
   inkscape:window-maximized="1"
   inkscape:current-layer="svg1" />&#10;    &#10;    &#10;    &#10;    &#10;    &#10;    &#10;    &#10;    &#10;    &#10;    &#10;    &#10;    &#10;    &#10;    &#10;    &#10;    &#10;    &#10;    &#10;    &#10;    &#10;    &#10;    &#10;    &#10;    &#10;    &#10;    &#10;    &#10;    &#10;    &#10;    &#10;    &#10;    &#10;<g
   id="g6"
   transform="matrix(0.73411294,0,0,0.73411294,131.75414,38.522207)"
   style="stroke-width:1.36219"><g
     id="g5"
     style="stroke-width:1.36219"><g
       id="g4"
       transform="matrix(1,0,0,-0.79215858,-50.176516,79.641491)"
       style="clip-rule:evenodd;fill:#f79329;fill-opacity:1;fill-rule:evenodd;stroke-width:1.53049;stroke-linejoin:round;stroke-miterlimit:2"><path
         d="m 24.691989,-14.284736 c -3.39803,-4.253873 -7.93196,-8.009246 -12.30086,-10.823006 -16.6988709,-10.745462 -40.679231,-13.780778 -58.611104,-5.671831 -7.281486,3.301182 -21.57288,12.03575 -26.60196,19.081227 -11.543582,16.1625035 -18.870936,30.949019 -13.580936,48.498236 4.31,14.266502 12.61,25.773747 28.26,31.815717 16.69,6.44123 38.78,7.89627 56.6900001,3.957 7.84,-1.72121 15.7999999,-4.21429 22.3399999,-8.53507 5.54,-3.6642 10.21,-9.227076 13.4,-15.277918 2.26,-4.276402 3.79,-8.792352 4.38,-13.042138 2.03,-14.727855 -2.71311,-35.88910748 -13.97514,-50.002217 z M -2.2628709,30.89325 c -2.28,2.405925 -7.68,4.982115 -11.5300001,5.677983 -10.08,1.828502 -30.52,-1.954352 -26.82,-12.310933 2.48,-6.943869 17.35,-8.187546 25.12,-7.528693 8.1000001,0.681062 19.5500001,7.506485 13.2300001,14.161643 z"
         id="path3"
         style="fill:#f79329;fill-opacity:1;stroke-width:1.53049"
         sodipodi:nodetypes="cccccccccccccccc" /></g><path
       d="m -14.167346,43.749307 c -0.87781,-1.886351 -1.12588,-3.624601 -2.45213,-5.401825 -0.93506,-1.270559 -1.54571,-2.478759 -2.22314,-3.874036 -0.62973,-1.325123 -1.60295,-1.753839 -2.70021,-2.774964 -1.08772,-1.013329 -1.55525,-2.244914 -2.43305,-3.336192 -0.69652,-0.865228 -1.73653,-1.636916 -2.52846,-2.455375 -1.30717,-1.356303 -2.91966,-2.299479 -4.10279,-3.749319 -1.19267,-1.473225 -3.80701,-2.517733 -5.63895,-3.406346 -2.38535,-1.145841 -5.05693,-1.816198 -7.36594,-3.055578 -2.34718,-1.262764 -5.36225,-2.089017 -8.09108,-2.611272 -3.5971,-0.701536 -7.28007,-1.668095 -11.0012,-1.816197 -3.4349,-0.132513 -6.77437,0.280614 -10.18064,0.420921 -6.9175,0.288409 -14.03536,1.247174 -20.72386,2.798348 -3.47306,0.802868 -6.745754,1.839583 -10.142484,2.806143 -1.35487,0.389742 -2.64296,0.873022 -3.90242,1.449841 -1.42166,0.646971 -2.99599,1.099072 -4.36994,1.800608 -2.85287,1.457635 -5.72483,2.541119 -7.69989,4.770443 -1.85102,2.081222 -3.89288,4.131266 -5.84886,6.157925 -2.08956,2.174761 -4.34132,4.435265 -5.59124,7.030947 -0.56294,1.145842 -0.91597,2.244914 -1.75561,3.289423 -0.96368,1.208201 -2.25177,2.408606 -2.74792,3.827267 -0.46753,1.325123 -0.31486,2.642451 -0.9923,3.94419 -0.68698,1.332918 -1.67928,2.377427 -1.99415,3.827272 -0.35303,1.63691 -0.35303,3.08675 0.20991,4.6769 0.56294,1.55897 0.77285,3.11014 1.8224,4.56778 1.91782,2.65804 4.43674,5.02767 7.93842,6.31382 3.99784,1.46543 8.81623,0.56902 12.62324,2.23712 3.95967,1.73045 3.60663,6.45413 4.16958,9.60324 1.11634,6.27485 6.15418,10.5776 14.245264,9.84489 6.44043,-0.57682 10.15202,-5.54213 16.18216,-6.78931 4.13142,-0.85743 7.6331,-1.29394 11.19203,0.93538 3.63526,2.2683 5.96336,4.87957 10.67679,5.81495 5.16189,1.02892 11.93626,0.42093 16.01996,-2.58788 4.22683,-3.11015 4.28408,-9.16674 10.49551,-10.56981 4.96151,-1.12246 8.97843,1.57456 13.58691,-1.26276 2.02277,-1.24718 3.50169,-2.81394 4.5894,-4.55999 4.72298,-7.64673 4.40811,-19.92361 0.73469,-27.866554 z m -36.23813,10.756884 c -2.17543,3.4687 -5.70574,6.52428 -9.41733,7.92735 -1.68882,0.63918 -3.34902,1.16923 -5.20004,1.5122 -8.98798,1.62912 -20.42808,3.15691 -26.30556,-4.36511 -2.6525,-3.39076 -6.28776,-6.16572 -6.27822,-10.460678 0.01,-3.858446 2.50938,-8.215763 7.04153,-9.782526 6.08739,-2.104607 9.66541,2.611272 15.4761,2.611272 2.07048,0 4.32224,-0.210461 6.2496,-0.849638 3.82609,-1.262764 6.05877,-3.65578 10.56229,-3.305013 5.30501,0.420922 8.97843,4.162446 9.8944,8.176789 0.61065,2.681425 -0.26715,5.744799 -2.02277,8.535354 z"
       style="clip-rule:evenodd;fill:#ffffff;fill-opacity:1;fill-rule:evenodd;stroke-width:1.36218;stroke-linejoin:round;stroke-miterlimit:2"
       id="path1" /></g><g
     id="g2"
     style="stroke-width:1.36219"><g
       id="g3"
       transform="matrix(0.96592583,-0.25881905,0.20502573,0.76516643,-92.72025,4.4491692)"
       style="clip-rule:evenodd;fill:#fcc21b;fill-opacity:1;fill-rule:evenodd;stroke-width:1.53049;stroke-linejoin:round;stroke-miterlimit:2"><path
         d="m 24.691989,-14.284736 c -3.39803,-4.253873 -7.93196,-8.009246 -12.30086,-10.823006 -16.6988709,-10.745462 -40.679231,-13.780778 -58.611104,-5.671831 -7.281486,3.301182 -21.57288,12.03575 -26.60196,19.081227 -11.543582,16.1625035 -18.870936,30.949019 -13.580936,48.498236 4.31,14.266502 12.61,25.773747 28.26,31.815717 16.69,6.44123 38.78,7.89627 56.6900001,3.957 7.84,-1.72121 15.7999999,-4.21429 22.3399999,-8.53507 5.54,-3.6642 10.21,-9.227076 13.4,-15.277918 2.26,-4.276402 3.79,-8.792352 4.38,-13.042138 2.03,-14.727855 -2.71311,-35.88910748 -13.97514,-50.002217 z M -2.2628709,19.685125 c -2.28,2.405925 -7.68,4.982115 -11.5300001,5.677983 -10.08,1.828502 -30.52,-1.954352 -26.82,-12.310933 2.48,-6.9438695 17.35,-8.1875465 25.12,-7.5286935 8.1000001,0.681062 19.5500001,7.5064855 13.2300001,14.1616435 z"
         id="use2"
         style="fill:#fcc21b;fill-opacity:1;stroke-width:1.53049"
         sodipodi:nodetypes="cccccccccccccccc" /></g><g
       id="g1"
       style="fill:#ffffff;fill-opacity:1;stroke-width:1.36219"
       transform="rotate(-8.2291609,360.56465,-665.1957)"><path
         id="path8638-3"
         d="m -231.18835,-71.228237 c -1.19,0.27 -1.23,2.09 -1.59,3.81 -0.73,3.46 0.91,6.26 4.02,5.37 3.56,-1.02 2.75,-4.51 0.66,-6.83 -1.22,-1.34 -1.87,-2.63 -3.09,-2.35 z"
         style="clip-rule:evenodd;fill:#ffffff;fill-opacity:1;fill-rule:nonzero;stroke-width:1.36219;stroke-linejoin:round;stroke-miterlimit:2" /><path
         id="path8640-7"
         d="m -214.48835,-73.678237 c -0.32,0.86 -3.13,1.45 -5.99,1.13 -2.12,-0.24 -3.9,-2.36 -2.77,-4.72 1.15,-2.39 4.01,-2.67 5.95,-0.77 1.99,1.95 3.16,3.41 2.81,4.36 z"
         style="clip-rule:evenodd;fill:#ffffff;fill-opacity:1;fill-rule:nonzero;stroke-width:1.36219;stroke-linejoin:round;stroke-miterlimit:2" /><path
         id="path8642-3"
         d="m -208.35835,-75.228237 c -0.68,-0.14 -2.91,1.77 -3.4,3.9 -0.56,2.38 1.04,3.36 2.36,3.5 1.63,0.17 2.81,-1.09 2.91,-2.72 0.08,-1.62 -1.14,-4.53 -1.87,-4.68 z"
         style="clip-rule:evenodd;fill:#ffffff;fill-opacity:1;fill-rule:nonzero;stroke-width:1.36219;stroke-linejoin:round;stroke-miterlimit:2" /><path
         id="path8644-4"
         d="m -242.90835,-50.168237 c 0.47,1.13 2.27,0.84 4.03,0.89 3.53,0.1 6,-2 4.58,-4.91 -1.63,-3.33 -4.93,-1.9 -6.83,0.56 -1.11,1.44 -2.26,2.31 -1.78,3.46 z"
         style="clip-rule:evenodd;fill:#ffffff;fill-opacity:1;fill-rule:nonzero;stroke-width:1.36219;stroke-linejoin:round;stroke-miterlimit:2" /><path
         id="path8646-9"
         d="m -255.14835,-50.338237 c -1.22,-0.06 -1.73,1.69 -2.53,3.26 -1.61,3.14 -0.77,6.28 2.46,6.24 3.7,-0.04 3.83,-3.63 2.43,-6.41 -0.82,-1.62 -1.11,-3.04 -2.36,-3.09 z"
         style="clip-rule:evenodd;fill:#ffffff;fill-opacity:1;fill-rule:nonzero;stroke-width:1.36219;stroke-linejoin:round;stroke-miterlimit:2" /><path
         id="path8648-4"
         d="m -164.46835,-52.788237 c 1.21,-0.15 1.42,-1.96 1.96,-3.64 1.06,-3.37 -0.29,-6.32 -3.47,-5.74 -3.65,0.66 -3.18,4.22 -1.33,6.73 1.08,1.46 1.6,2.8 2.84,2.65 z"
         style="clip-rule:evenodd;fill:#ffffff;fill-opacity:1;fill-rule:nonzero;stroke-width:1.36219;stroke-linejoin:round;stroke-miterlimit:2" /><path
         id="path8650-0"
         d="m -230.21835,-34.538237 c -0.58,-0.42 -2.42,0.13 -4.06,0.78 -3.28,1.3 -4.72,4.21 -2.27,6.31 2.81,2.41 5.28,-0.2 6.06,-3.21 0.46,-1.75 0.97,-3.37 0.27,-3.88 z"
         style="clip-rule:evenodd;fill:#ffffff;fill-opacity:1;fill-rule:nonzero;stroke-width:1.36219;stroke-linejoin:round;stroke-miterlimit:2" /><path
         id="path8652-2"
         d="m -235.98835,-37.888237 c 0.28,-0.56 -0.47,-2.08 -1.22,-3.29 -0.87,-1.41 -1.86,-2.85 -3.24,-3.24 -4.44,-1.25 -6.04,4.41 -3.06,6.22 1.09,0.66 2.24,0.7 3.51,0.77 1.9,0.08 3.74,0.08 4.01,-0.46 z"
         style="clip-rule:evenodd;fill:#ffffff;fill-opacity:1;fill-rule:nonzero;stroke-width:1.36219;stroke-linejoin:round;stroke-miterlimit:2" /><path
         id="path8654-5"
         d="m -246.07835,-54.198237 c -0.18,1.13 -5.13,2.07 -7.66,0.54 -3.03,-1.84 -1.4,-6.08 2.21,-5.77 3.09,0.28 5.65,3.95 5.45,5.23 z"
         style="clip-rule:evenodd;fill:#ffffff;fill-opacity:1;fill-rule:nonzero;stroke-width:1.36219;stroke-linejoin:round;stroke-miterlimit:2" /><path
         id="path8656-3"
         d="m -243.51835,-60.368237 c 1.17,0.32 4.55,-2.21 5.54,-4.05 0.72,-1.34 1.3,-4.67 -1.04,-5.72 -2.61,-1.17 -4.84,0.55 -5.5,2.7 -0.84,2.84 -0.04,6.79 1,7.07 z"
         style="clip-rule:evenodd;fill:#ffffff;fill-opacity:1;fill-rule:nonzero;stroke-width:1.36219;stroke-linejoin:round;stroke-miterlimit:2" /><path
         id="path8658-3"
         d="m -223.51835,-46.578237 c 0.19,0.87 -1.49,5.63 -5.41,5.81 -2.7,0.12 -5.04,-3.51 -1.67,-5.86 2.56,-1.77 6.95,-0.58 7.08,0.05 z"
         style="clip-rule:evenodd;fill:#ffffff;fill-opacity:1;fill-rule:nonzero;stroke-width:1.36219;stroke-linejoin:round;stroke-miterlimit:2" /><path
         id="path8660-1"
         d="m -220.13835,-38.988237 c -0.77,-0.65 -4.82,2.25 -6.04,4.37 -0.72,1.26 -1.22,3.56 1.76,4.91 2.88,1.31 4.46,-0.9 4.82,-2.7 0.36,-1.8 0.05,-6.08 -0.54,-6.58 z"
         style="clip-rule:evenodd;fill:#ffffff;fill-opacity:1;fill-rule:nonzero;stroke-width:1.36219;stroke-linejoin:round;stroke-miterlimit:2" /><path
         id="path8662-1"
         d="m -216.07835,-24.688237 c 0.99,1.85 6.12,1.05 7.34,0.68 1.76,-0.54 4.25,-2.18 2.66,-5.59 -1.31,-2.79 -4.73,-2.21 -6.8,-0.45 -1.79,1.51 -3.88,4.1 -3.2,5.36 z"
         style="clip-rule:evenodd;fill:#ffffff;fill-opacity:1;fill-rule:nonzero;stroke-width:1.36219;stroke-linejoin:round;stroke-miterlimit:2" /><path
         id="path8664-3"
         d="m -199.54835,-31.218237 c -1.06,0.78 -0.22,5.55 0.41,6.98 0.81,1.85 3.42,2.57 5.18,1.22 2.03,-1.56 1.71,-4.14 0.41,-5.54 -0.99,-1.05 -4.97,-3.43 -6,-2.66 z"
         style="clip-rule:evenodd;fill:#ffffff;fill-opacity:1;fill-rule:nonzero;stroke-width:1.36219;stroke-linejoin:round;stroke-miterlimit:2" /><path
         id="path8666-2"
         d="m -191.93835,-34.148237 c -0.39,0.35 -3.87,0.59 -6.35,-1.53 -1.43,-1.22 -1.39,-4.11 0.05,-5.18 1.58,-1.17 3.74,-0.81 5.13,1.22 0.87,1.25 1.62,5.08 1.17,5.49 z"
         style="clip-rule:evenodd;fill:#ffffff;fill-opacity:1;fill-rule:nonzero;stroke-width:1.36219;stroke-linejoin:round;stroke-miterlimit:2" /><path
         id="path8668-9"
         d="m -186.66835,-35.858237 c 0.7,0.61 5.13,-0.14 6.8,-2.07 0.91,-1.06 2.21,-3.33 0.45,-4.95 -1.76,-1.62 -3.83,-1.31 -5.63,0.9 -1.34,1.63 -2.34,5.49 -1.62,6.12 z"
         style="clip-rule:evenodd;fill:#ffffff;fill-opacity:1;fill-rule:nonzero;stroke-width:1.36219;stroke-linejoin:round;stroke-miterlimit:2" /><path
         id="path8670-1"
         d="m -169.50835,-49.148237 c -0.34,1.36 -5.31,1.92 -7.3,0.99 -2.03,-0.95 -1.67,-3.24 -1.26,-4.23 0.41,-0.99 1.4,-2.16 4.01,-1.44 2.76,0.76 4.78,3.78 4.55,4.68 z"
         style="clip-rule:evenodd;fill:#ffffff;fill-opacity:1;fill-rule:nonzero;stroke-width:1.36219;stroke-linejoin:round;stroke-miterlimit:2" /><path
         id="path8672-2"
         d="m -176.44835,-33.748237 c -1.11,-0.31 -1.76,1.21 -2.48,1.89 -0.9,0.86 -4.68,5.23 0.14,6.35 4.83,1.13 3.51,-4.19 3.33,-5.27 -0.12,-0.75 -0.18,-2.74 -0.99,-2.97 z"
         style="clip-rule:evenodd;fill:#ffffff;fill-opacity:1;fill-rule:nonzero;stroke-width:1.36219;stroke-linejoin:round;stroke-miterlimit:2" /><path
         id="path8674-6"
         d="m -171.26835,-36.578237 c -0.4,1.15 1.85,3.42 2.93,4.73 1.08,1.31 3.47,2.52 4.86,-0.09 1.4,-2.61 -0.77,-4.23 -2.7,-4.68 -1.93,-0.46 -4.73,-1 -5.09,0.04 z"
         style="clip-rule:evenodd;fill:#ffffff;fill-opacity:1;fill-rule:nonzero;stroke-width:1.36219;stroke-linejoin:round;stroke-miterlimit:2" /><path
         id="path8676-3"
         d="m -154.00835,-45.858237 c 0,0.77 -2.7,2.93 -5.72,3.02 -2.25,0.07 -3.92,-0.75 -3.92,-2.97 0,-2.25 2.03,-3.51 4.55,-2.97 1.45,0.3 5.09,1.7 5.09,2.92 z"
         style="clip-rule:evenodd;fill:#ffffff;fill-opacity:1;fill-rule:nonzero;stroke-width:1.36219;stroke-linejoin:round;stroke-miterlimit:2" /><path
         id="path8678-3"
         d="m -159.23835,-52.388237 c 0.23,0.9 2.93,1.17 4.86,1.22 1.94,0.05 4.32,-0.63 3.42,-3.29 -0.9,-2.66 -3.56,-1.98 -4.55,-1.49 -0.98,0.49 -4.03,2.34 -3.73,3.56 z"
         style="clip-rule:evenodd;fill:#ffffff;fill-opacity:1;fill-rule:nonzero;stroke-width:1.36219;stroke-linejoin:round;stroke-miterlimit:2" /><path
         id="path8680-6"
         d="m -167.65835,-70.188237 c -0.81,1.17 0.72,3.6 2.12,4.68 1.4,1.08 3.33,1.76 4.46,-0.14 1.13,-1.89 -0.86,-3.6 -2.07,-4.37 -1.22,-0.75 -3.72,-1.31 -4.51,-0.17 z"
         style="clip-rule:evenodd;fill:#ffffff;fill-opacity:1;fill-rule:nonzero;stroke-width:1.36219;stroke-linejoin:round;stroke-miterlimit:2" /><path
         id="path8682-4"
         d="m -172.20835,-67.978237 c -0.53,-0.33 -3.33,0.38 -4.95,1.85 -1.68,1.52 -2.3,3.74 -0.27,5.32 1.96,1.52 4.09,0.04 4.95,-1.98 0.81,-1.9 0.87,-4.82 0.27,-5.19 z"
         style="clip-rule:evenodd;fill:#ffffff;fill-opacity:1;fill-rule:nonzero;stroke-width:1.36219;stroke-linejoin:round;stroke-miterlimit:2" /><path
         id="path8684-6"
         d="m -194.09835,-69.238237 c 0.54,-0.75 -0.45,-4.77 -1.71,-6.31 -1.26,-1.53 -2.84,-2.12 -4.59,-0.81 -1.38,1.03 -1.89,3.83 0.09,5.27 2.15,1.58 5.62,2.66 6.21,1.85 z"
         style="clip-rule:evenodd;fill:#ffffff;fill-opacity:1;fill-rule:nonzero;stroke-width:1.36219;stroke-linejoin:round;stroke-miterlimit:2" /><path
         id="path8686-3"
         d="m -192.52835,-75.458237 c 0.67,0.49 3.11,0.14 4.77,-0.95 1.66,-1.09 1.91,-2.82 0.95,-4.01 -1.17,-1.44 -3.06,-0.9 -4.41,0.86 -1.18,1.53 -2.16,3.47 -1.31,4.1 z"
         style="clip-rule:evenodd;fill:#ffffff;fill-opacity:1;fill-rule:nonzero;stroke-width:1.36219;stroke-linejoin:round;stroke-miterlimit:2" /><path
         id="path8688-5"
         d="m -188.51835,-69.648237 c 0.54,1.44 5.95,1.13 7.52,0.45 1.58,-0.68 2.68,-2.11 1.8,-4.19 -0.99,-2.34 -2.55,-2.35 -3.69,-2.03 -2.25,0.64 -6.16,4.36 -5.63,5.77 z"
         style="clip-rule:evenodd;fill:#ffffff;fill-opacity:1;fill-rule:nonzero;stroke-width:1.36219;stroke-linejoin:round;stroke-miterlimit:2" /></g></g></g></svg>
