<?xml version="1.0" encoding="UTF-8" standalone="no"?>
<svg
   width="128"
   height="128"
   version="1.1"
   id="svg6"
   sodipodi:docname="emoji_u1f33c.svg"
   inkscape:version="1.3 (0e150ed6c4, 2023-07-21)"
   xmlns:inkscape="http://www.inkscape.org/namespaces/inkscape"
   xmlns:sodipodi="http://sodipodi.sourceforge.net/DTD/sodipodi-0.dtd"
   xmlns:xlink="http://www.w3.org/1999/xlink"
   xmlns="http://www.w3.org/2000/svg"
   xmlns:svg="http://www.w3.org/2000/svg">
  <sodipodi:namedview
     id="namedview6"
     pagecolor="#ffffff"
     bordercolor="#000000"
     borderopacity="0.25"
     inkscape:showpageshadow="2"
     inkscape:pageopacity="0.0"
     inkscape:pagecheckerboard="0"
     inkscape:deskcolor="#d1d1d1"
     inkscape:zoom="2.867097"
     inkscape:cx="49.527448"
     inkscape:cy="66.792298"
     inkscape:window-width="1366"
     inkscape:window-height="697"
     inkscape:window-x="-8"
     inkscape:window-y="-8"
     inkscape:window-maximized="1"
     inkscape:current-layer="svg6" />
  <g
     fill="#bdcf46"
     id="g1">
    <path
       d="M82.09 96.56c4.06.57 10.51 3.54 12.74 6.9.27.42.83 1.04.84 1.5.02.76-.67 1.28-1.18 1.74-7.35 6.64-20.37 8.48-27.26 1.91-.96-.92-.14-2.17.27-3.25 1.67-4.31 5.83-7.81 10.37-8.7 1.42-.28 2.84-.29 4.22-.1zM47.53 99.93c-4.08-.39-11.05 1-14 3.75-.36.34-1.05.82-1.17 1.27-.2.73.35 1.4.75 1.97 5.61 8.16 17.84 12.99 26.07 8.19 1.15-.67.65-2.08.49-3.23-.62-4.58-3.86-8.96-8.06-10.87-1.32-.6-2.69-.95-4.08-1.08z"
       id="path1" />
  </g>
  <defs
     id="defs1">
    <path
       id="a"
       d="M0 0v135.01h128V0H0zm76.86 67.88c-9.12 4.6-22.2 4.79-30.38-2.26-8.84-7.6-11.98-19.9-5.45-30.32.81-1.3 1.63-2.63 2.53-3.86 2.47-3.36 6.12-5.95 10-7.12.26-.08.52-.15.78-.21 1.18-.3 2.38-.54 3.58-.84 3.25-.83 6.65-.48 9.93-.1 3.8.44 8.53 2.75 11.61 5.11 12.41 9.49 11.39 32.55-2.6 39.6z" />
  </defs>
  <clipPath
     id="b">
    <use
       xlink:href="#a"
       overflow="visible"
       id="use1" />
  </clipPath>
  <g
     clip-path="url(#b)"
     id="g2">
    <path
       d="M65.93 121.18c-.14.49-.31.98-.5 1.45-.35.87-.69 1.75-1.06 2.62-.31.72-.63 1.6-1.44 1.91-1.02.39-2.31.21-3.32-.08-4.24-1.24-3.12-5.32-2.06-8.29 2.14-6.06 2.95-19.19 3.39-25.53.46-6.55-.26-13.43-.26-19.99 0-.13.01-2.79-.09-2.79h8.36v3.07c0 4.75.01 9.5-.09 14.24-.21 8.77-.4 24.87-2.93 33.39z"
       fill="#757f3f"
       id="path2" />
  </g>
  <path
     d="M 75.277104,49.301494 C 74.13271,59.393791 63.139617,64.303707 54.727761,61.679981 c -4.237778,-1.31236 -7.808806,-4.525687 -9.162856,-9.932636 -1.61703,-6.453132 1.095787,-12.909474 6.739691,-15.971328 4.450328,-2.41366 10.250647,-2.79979 14.991606,-0.677515 5.319281,2.366935 8.622454,8.486766 7.980902,14.202992 z"
     fill="#ffffff"
     id="path1-7"
     style="stroke-width:1" />
  <path
     d="M 99.970983,32.346226 C 95.2671,29.973171 90.966694,29.039488 86.371627,29.652121 c -0.179561,-0.01501 -0.351586,-0.009 -0.506561,0.02265 -0.878684,0.155621 -1.41643,-0.396493 -0.827244,-1.18502 0.05067,-0.0577 0.09427,-0.112863 0.137902,-0.168041 0.04817,-0.06471 0.103296,-0.131918 0.15143,-0.196628 C 90.180603,21.85397 92.838532,14.047474 85.415102,7.5867565 79.830096,2.7256769 70.211162,4.0804114 64.42454,8.5155211 61.255163,10.946528 58.438058,14.518496 56.930384,20.536291 c -0.318356,0.770929 -0.873955,1.476193 -1.709138,0.800746 -0.118385,-0.131888 -0.229248,-0.242712 -0.347633,-0.374599 -0.08478,-0.104309 -0.174571,-0.222658 -0.277908,-0.312418 -0.005,-0.01404 -0.02157,-0.01605 -0.03361,-0.02759 -5.394112,-6.077362 -11.329457,-9.459326 -18.12367,-8.021294 -6.662812,1.406918 -12.399833,8.595507 -10.831411,15.311457 0.916966,3.939997 3.090172,7.074808 5.850601,9.65933 l 0.01204,0.01153 c 0.146972,0.145425 0.31702,0.266771 0.456974,0.414703 0.788564,0.810873 0.926604,1.529567 -0.211829,1.9997 -0.282852,0.116902 -0.597309,0.189682 -0.873142,0.304076 0,0 -0.0091,0.01905 -0.02307,0.02407 -3.547838,0.618481 -7.184822,2.028918 -9.939981,4.090219 -6.199358,4.65385 -9.464652,15.591095 -1.764921,21.739303 5.010094,4.005536 11.140628,1.751596 16.512796,-0.674754 l 0.632436,-0.09139 c 0.423784,-0.143508 0.928808,-0.347719 1.272449,0.170821 0.409362,0.613825 -0.53134,1.836748 -0.757952,2.37695 -0.07872,0.178562 -0.140875,0.35913 -0.193508,0.544208 -3.545456,6.009601 -4.813073,13.98439 -1.285689,20.222049 6.827507,12.105202 22.613922,7.469859 26.717743,-3.846184 1.075333,-2.97334 1.468055,-5.995722 1.631565,-9.03913 l 0.07419,-0.279874 c 0.06969,-0.159504 0.221106,-0.466976 0.421219,-0.483058 0.223689,-0.01659 0.359654,0.275291 0.469015,0.426239 0.06573,0.09528 0.124918,0.216648 0.186636,0.345031 0.04968,0.116851 0.108873,0.238219 0.161056,0.36209 0.02459,0.04664 0.03964,0.08876 0.0572,0.137915 0.05971,0.144936 0.128944,0.294387 0.190661,0.422771 2.266323,5.168064 6.717713,9.294063 11.85787,11.226182 4.764479,1.789245 11.457305,-0.08763 14.821111,-3.569907 4.323605,-4.474495 5.05326,-11.251498 2.266245,-16.9461 -1.339574,-2.751767 -3.619652,-6.141347 -6.047501,-8.393397 l -0.312021,-0.36357 c -0.390789,-0.517532 -0.171142,-0.722701 0.389074,-0.772444 6.671838,1.654018 14.161109,2.825917 19.097399,-2.880974 7.05393,-8.13422 0.57273,-18.716291 -7.304685,-22.702806 z m -36.184061,40.039793 -0.02106,0.0075 c 0.0036,-0.05667 0.0025,-0.103819 0.0085,-0.153475 -0.0085,0.04263 0.0091,0.09178 0.01256,0.145949 z M 75.277104,49.301494 C 74.13271,59.393791 63.139617,64.303707 54.727761,61.679981 c -4.237778,-1.31236 -7.808806,-4.525687 -9.162856,-9.932636 -1.61703,-6.453132 1.095787,-12.909474 6.739691,-15.971328 4.450328,-2.41366 10.250647,-2.79979 14.991606,-0.677515 5.319281,2.366935 8.622454,8.486766 7.980902,14.202992 z"
     fill="#d7598b"
     id="path2-2"
     style="stroke-width:1" />
</svg>
