<?xml version="1.0" encoding="UTF-8" standalone="no"?>
<!-- Generator: Adobe Illustrator 25.2.3, SVG Export Plug-In . SVG Version: 6.00 Build 0)  -->

<svg
   version="1.1"
   id="Layer_2"
   x="0px"
   y="0px"
   viewBox="0 0 128 128"
   style="enable-background:new 0 0 128 128;"
   xml:space="preserve"
   sodipodi:docname="emoji_u1f97b.svg"
   inkscape:version="1.2.2 (732a01da63, 2022-12-09)"
   xmlns:inkscape="http://www.inkscape.org/namespaces/inkscape"
   xmlns:sodipodi="http://sodipodi.sourceforge.net/DTD/sodipodi-0.dtd"
   xmlns="http://www.w3.org/2000/svg"
   xmlns:svg="http://www.w3.org/2000/svg"><defs
   id="defs68263" /><sodipodi:namedview
   id="namedview68261"
   pagecolor="#ffffff"
   bordercolor="#000000"
   borderopacity="0.25"
   inkscape:showpageshadow="2"
   inkscape:pageopacity="0.0"
   inkscape:pagecheckerboard="0"
   inkscape:deskcolor="#d1d1d1"
   showgrid="false"
   inkscape:zoom="2.9996795"
   inkscape:cx="50.672079"
   inkscape:cy="71.007585"
   inkscape:window-width="1366"
   inkscape:window-height="697"
   inkscape:window-x="-8"
   inkscape:window-y="-8"
   inkscape:window-maximized="1"
   inkscape:current-layer="Layer_2" />
<g
   id="g68258">
	<path
   style="fill:#0c5e9f;fill-opacity:1"
   d="M89.49,22.4l-10.7,10.22l10.01,55.45c8.47-2.99,14.26-8.59,18.91-11.48   c2.7-1.68,5.63-2.59,5.63-2.59L89.49,22.4z"
   id="path68162" />
	<path
   style="fill:#2b3b40;fill-opacity:1"
   d="M93.09,30.13l6.98,15.16c0,0-7.43-6.74-8.31,1.45c-0.87,8.19-2.69,16.24-2.69,16.24l-9.13-34.54   L93.09,30.13z"
   id="path68164" />
	<path
   style="fill:#E2A610;"
   d="M112.43,72.2c-3.91,0.9-7.01,3.21-10.42,5.61c-3.8,2.71-7.91,5.62-13.6,7.35l0.75,3.88   c7.31-1.98,12.36-5.55,16.46-8.42c3.11-2.2,5.81-4.11,8.52-4.71L112.43,72.2z"
   id="path68166" />
	<path
   style="fill:#651fff;fill-opacity:1"
   d="M104.52,24.1c-2.5-3.21-7.54-10.05-12.76-13.29C85.45,7,78.67,4.66,78.67,4.66   s-5.04,8.53-12.52,9.92s-13.33-3.11-14.73-5.01c-1.5-2.2-2.3-4.61-3.81-4.11c-2.5,0.9-6.41,1.96-10.62,5.01   C33.46,13.03,26.76,20.9,24.26,24.1c-0.6,0.7-0.5,1.8,0.2,2.4l8.52,8.52c0.7,0.7,1.9,0.7,2.61,0l6.11-5.81l1,4.31   c1.2,5.01,1.6,7.21,1.5,9.42c0,0.09,40.38,0.09,40.38,0c-0.1-2.2,0.3-4.41,1.5-9.42l1-4.31l6.11,5.81c0.7,0.7,1.9,0.7,2.61,0   l8.52-8.52C105.02,25.91,105.12,24.8,104.52,24.1z"
   id="path68168" />
	<path
   style="fill:#00897b;fill-opacity:1"
   d="M34.28,91.74l-3.11,25.35c6.41,4.11,14.03,1.2,18.34,2.2c4.31,1,8.52,4.11,16.03,4.11   s9.62-3.11,13.93-4.11c4.31-1,10.22,2,19.34-3.41L84.78,39.63c0.05-0.1-8.92,17.93-21.89,31.33C50.6,83.65,34.28,91.74,34.28,91.74   z"
   id="path68170" />
	<path
   style="fill:#2b3b40;fill-opacity:1"
   d="M44.35,92.88c0.82-0.49,4.53-2.46,4.19,2.87c-0.54,8.3-2.29,23.88-2.29,23.88s1.96-0.02,3.25,0.43   c1.45,0.51,5.3,1.86,5.3,1.86s2.11-18.97,3.41-28.42c1.85-13.41,7.02-17.22,8.57-18.16c1.54-0.93,4.08-1.12,5.52,2.14   c3.08,6.99,5.61,25.83,6.08,29.86c0.47,4.03,1.48,3.48,1.52-0.27c0.12-12.15,0.38-40.84,1.37-48.51   c1.85-14.34,4.15-15.42,4.15-15.42l-0.65-3.51c0.02-0.04,0.86-0.05-1.3-0.05c-3.48,7.33-10.97,21.25-22.31,32.61   C43.96,89.43,34.28,91.74,34.28,91.74l-0.8,6.61C33.48,98.35,36.27,97.75,44.35,92.88z"
   id="path68172" />
	<path
   style="fill:#fcc21b;fill-opacity:1"
   d="M65.54,124c-7.65-0.03-11.13-2.59-16.73-4.21c-5.49-0.55-12.26,1.61-17.84-2.2l0.75-5.03   c5.5,3.88,12.47,1.72,18.28,2.72c5.41,1.43,8.85,4.11,15.43,4.11c6.51,0.05,7.67-3.27,13.33-4.01c6.94-0.9,11.18,1.62,19.2-4.05   l1.06,5.25c-8.82,5.25-12.55,2.67-19.06,3.4C74.89,121.51,73.3,123.97,65.54,124z"
   id="path68174" />
	
	<path
   style="fill:#00897b;fill-opacity:1"
   d="M78,4.38C65.22,17.59,40.93,36.59,40.93,36.59l1.93,8.65l-2.55,5.35l0.06,11.5l-2.75,5.98   l-3.34,23.67c0,0,24.95-11.36,38.55-33.1C87.64,35.43,89.18,24.03,91.5,10.35C91.5,10.35,83.59,5.64,78,4.38z"
   id="path68178" />
	<path
   style="fill:#2b3b40;fill-opacity:1"
   d="M40.93,36.59c0,0,1.45,8.03,1.54,8.76s-2.62,4.31-2.62,5.7c0,1.39-0.03,9.61-0.03,10.59   c0,0.98-2.54,5.22-2.66,6.18c-0.12,0.95-2.89,23.93-2.89,23.93s3.23-0.48,7.05-2.7c0.92-16.5-0.83-21.92,2.49-24.72   c3.32-2.79,9.84-7.26,18.09-21.38c0.35-0.59,0.76-1.81-0.06-2c-0.68-0.16-1.47,1.31-1.62,1.52c-2.4,3.45-6.21,8.27-13.65,12.06   c-3.2,1.63-3.05-6.15-1.57-6.96c2.69-1.59,10.06-7.6,15.27-14.29c0.18-0.24,1.12-1.32,0.7-1.72c-0.38-0.35-1.42,0.67-1.42,0.68   c0,0-7.07,6.54-10.15,7.8c-3.64,1.57-3.25-1.97-3.5-7.4C42.09,35.72,40.93,36.59,40.93,36.59z"
   id="path68180" />
	<g
   id="g68184">
		<polygon
   style="fill:#fcc21b;fill-opacity:1"
   points="46.5,80.29 43.59,76.69 46.5,73.09 49.42,76.69   "
   id="polygon68182" />
	</g>
	<polygon
   style="fill:#fcc21b;fill-opacity:1"
   points="38.35,84.97 35.99,82.04 38.35,79.12 40.72,82.04  "
   id="polygon68186" />
	<g
   id="g68190">
		<polygon
   style="fill:#fcc21b;fill-opacity:1"
   points="62.04,65.98 58.53,61.77 62.04,57.56 65.44,61.87   "
   id="polygon68188" />
	</g>
	<g
   id="g68194">
		<polygon
   style="fill:#fcc21b;fill-opacity:1"
   points="76.3,45.8 72.79,41.59 76.3,37.39 79.7,41.69   "
   id="polygon68192" />
	</g>
	<g
   id="g68198">
		<polygon
   style="fill:#fcc21b;fill-opacity:1"
   points="81.25,35.97 78.21,32.32 81.25,28.68 84.2,32.41   "
   id="polygon68196" />
	</g>
	<g
   id="g68202">
		<polygon
   style="fill:#fcc21b;fill-opacity:1"
   points="54.57,73.91 51.26,69.94 54.47,65.98 57.78,69.94   "
   id="polygon68200" />
	</g>
	<polygon
   style="fill:#fcc21b;fill-opacity:1"
   points="41.86,108.37 38.35,104.16 41.86,99.95 45.27,104.16  "
   id="polygon68204" />
	<polygon
   style="fill:#fcc21b;fill-opacity:1"
   points="87.12,108.37 83.61,104.16 87.12,99.95 90.63,104.16  "
   id="polygon68206" />
	<polygon
   style="fill:#fcc21b;fill-opacity:1"
   points="98.76,72 95.35,67.79 98.76,63.58 102.26,67.79  "
   id="polygon68208" />
	<polygon
   style="fill:#fcc21b;fill-opacity:1"
   points="65.49,114.48 61.99,110.27 65.49,106.06 69,110.27  "
   id="polygon68210" />
	
	
	
	
	<g
   id="g68222">
		<polygon
   style="fill:#fcc21b;fill-opacity:1"
   points="84.62,27.32 81.99,24.1 84.55,21.02 87.18,24.17   "
   id="polygon68220" />
	</g>
	<g
   id="g68226">
		<polygon
   style="fill:#fcc21b;fill-opacity:1"
   points="87.33,18.49 85.07,15.71 87.26,13.06 89.53,15.77   "
   id="polygon68224" />
	</g>
	<g
   id="g68230">
		<polygon
   style="fill:#fcc21b;fill-opacity:1"
   points="69.79,55.98 66.14,51.6 69.69,47.22 73.34,51.6   "
   id="polygon68228" />
	</g>
	
	
	<path
   style="fill:#fcc21b;fill-opacity:1"
   d="M 79.35,4.71 77.17,4 C 63.04,18.01 42.13,33.74 42.13,33.74 40.9,34.77 40.77,35.95 41.06,37.75 57.32,27.86 79.35,4.71 79.35,4.71 Z"
   id="path68236"
   sodipodi:nodetypes="ccccc" />
	<path
   style="fill:#fcc21b;fill-opacity:1"
   d="m 91.11,10.29 c 0,0 -0.17,19 -19.49,47.48 -13.81,20.35 -31.8,29.53 -37.18,32 -0.14,1.29 -0.3,2.68 -0.41,3.72 0,0 23.74,-8.93 40.14,-34.14 C 92.31,31.47 93.13,11.49 93.13,11.49 92.05,10.73 91.66,10.5 91.11,10.29 Z"
   id="path68238"
   sodipodi:nodetypes="ccccccc" />
	<path
   style="fill:#fcc21b;fill-opacity:1"
   d="M 86.54,7.65 85.1,7.01 C 73.38,43.55 48.09,65.31 36.42,73.97 36.39,74.1 36.37,74.22 36.34,74.35 36.17,75.32 35.98,76.59 35.79,78 46.3,70.96 73.53,49.34 86.54,7.65 Z"
   id="path68240"
   sodipodi:nodetypes="cccccc" />
	
	
	
	<path
   style="fill:#FFCA28;"
   d="M71.17,9.7c0.74,0.18,2.97,0.29,2.97,0.29c1.67-1.69,5.21-5.28,5.21-5.28L77.17,4   C76.25,4.92,72.15,8.78,71.17,9.7z"
   id="path68248" />
	<path
   style="fill:#FFCA28;"
   d="M81.99,15.5l1.67,0.48c0.6-1.42,2.52-7.18,2.88-8.32L85.1,7.01C84.75,8.1,81.99,15.5,81.99,15.5z"
   id="path68250" />
	<path
   style="fill:#FFCA28;"
   d="M89.53,19.89l2.03,1.05c1.32-4.61,1.58-9.45,1.58-9.45s-1.32-1.05-2.03-1.37   C91.11,10.12,90.89,14.56,89.53,19.89z"
   id="path68252" />
	
	
</g>
</svg>
