<?xml version="1.0" encoding="UTF-8" standalone="no"?>
<svg
   width="100%"
   height="100%"
   viewBox="0 0 128 128"
   version="1.1"
   xml:space="preserve"
   style="fill-rule:evenodd;clip-rule:evenodd;stroke-linejoin:round;stroke-miterlimit:2;"
   id="svg25838"
   sodipodi:docname="emoji_u1f9f5.svg"
   inkscape:version="1.2.2 (732a01da63, 2022-12-09)"
   xmlns:inkscape="http://www.inkscape.org/namespaces/inkscape"
   xmlns:sodipodi="http://sodipodi.sourceforge.net/DTD/sodipodi-0.dtd"
   xmlns="http://www.w3.org/2000/svg"
   xmlns:svg="http://www.w3.org/2000/svg"><defs
   id="defs25842">
        
    </defs><sodipodi:namedview
   id="namedview25840"
   pagecolor="#ffffff"
   bordercolor="#000000"
   borderopacity="0.25"
   inkscape:showpageshadow="2"
   inkscape:pageopacity="0.0"
   inkscape:pagecheckerboard="0"
   inkscape:deskcolor="#d1d1d1"
   showgrid="false"
   inkscape:zoom="4.2421875"
   inkscape:cx="59.167587"
   inkscape:cy="87.219153"
   inkscape:window-width="1366"
   inkscape:window-height="697"
   inkscape:window-x="-8"
   inkscape:window-y="-8"
   inkscape:window-maximized="1"
   inkscape:current-layer="svg25838" />
    <path
   id="path18459"
   d="M28.93,111.74C28.93,111.74 26.02,107.02 28.93,103.13L97.65,101.38C97.65,101.38 103.08,104.49 99.27,111.74C96.99,116.06 83.53,119.12 64.1,119.12C44.67,119.12 30.76,115.03 28.93,111.74Z"
   style="fill:#ff9365;fill-rule:nonzero" />
    <path
   id="path18461"
   d="M28.83,103.12C28.83,101.51 38.94,93.15 38.94,93.15C45.3,90.02 83.19,90.8 89.06,93.15C89.06,93.15 99.17,101.21 99.17,103.12C99.17,106.33 83.31,110.38 63.89,110.38C44.47,110.38 28.83,106.34 28.83,103.12Z"
   style="fill:rgb(255,204,128);fill-rule:nonzero;" />
    <path
   id="path18468"
   d="M38.94,29.23L38.94,91.46C38.94,92.61 39.61,93.66 40.67,94.13C43.42,95.36 49.99,97.3 64,97.3C78.01,97.3 84.58,95.36 87.33,94.13C88.38,93.66 89.06,92.61 89.06,91.46L89.06,29.23L38.94,29.23Z"
   style="fill:#db4437;fill-rule:nonzero" />
    
    <path
   id="path26481"
   style="color:#000000;clip-rule:nonzero;fill:#db4437;fill-rule:nonzero;stroke-width:2;stroke-linejoin:miter;-inkscape-stroke:none"
   d="m 44.373137,44.678409 c -1.114482,-0.231332 -2.295707,0.345419 -2.766732,1.431077 l -0.0022,0.0017 -2.41e-4,0.002 c -0.525861,1.204139 -1.83204,3.583822 -3.492851,6.572453 -3.248595,5.851623 -7.913546,14.257908 -11.434054,22.85756 -3.520508,8.599653 -5.963685,17.380928 -4.504879,24.237364 1.793506,8.437047 8.489797,15.663447 18.629451,20.417927 5.958423,2.79818 12.927645,4.6712 20.658378,5.60918 6.676324,0.81005 13.918725,0.92441 21.594742,0.32411 0.573457,-0.0449 1.160014,-0.23112 1.621673,-0.66891 0.461661,-0.4378 0.711088,-1.13354 0.65769,-1.82076 -0.05094,-0.6556 -0.414499,-1.26049 -0.914988,-1.60431 -0.500488,-0.34383 -1.097188,-0.46117 -1.686881,-0.4152 -17.353165,1.35285 -30.674832,-1.27173 -39.945103,-5.789 C 33.516891,111.31632 28.326043,104.92754 27.012427,98.756487 25.842436,93.264319 28.030348,85.106234 31.40679,76.986669 34.78323,68.867101 39.273943,60.76304 42.426857,55.076375 a 1.0001,1.0001 0 0 0 2.41e-4,-0.002 c 1.69029,-3.057854 3.029118,-5.455632 3.702543,-7.003461 0.53859,-1.235787 -0.03984,-2.705436 -1.284779,-3.242812 -0.1542,-0.06689 -0.312518,-0.116661 -0.47173,-0.149708 z" />
    <path
   id="path18483"
   style="fill:#ff9365;fill-rule:nonzero"
   d="M 67.916016 8.0078125 C 50.830974 7.9633179 32.603512 9.0484393 29.369141 10.820312 C 27.559142 11.810312 26.039378 19.50008 28.859375 21.830078 C 33.119371 26.230074 38.939453 29.230469 38.939453 29.230469 C 38.939453 29.230469 42.620568 33.109375 63.560547 33.109375 C 84.500526 33.109375 89.050781 30.859375 89.050781 30.859375 C 89.050781 30.859375 95.571188 26.730817 98.257812 22.765625 C 98.653618 22.465403 98.970881 22.153333 99.199219 21.830078 C 101.16922 19.030081 101.55914 11.659139 98.119141 10.369141 C 93.80102 8.7591422 81.204381 8.0424194 67.916016 8.0078125 z " />
    
    <ellipse
   id="ellipse18487"
   cx="64"
   cy="12.02"
   rx="35.17"
   ry="7.02"
   style="fill:rgb(255,204,128);" />
    <ellipse
   id="ellipse18489"
   cx="64"
   cy="10.78"
   rx="8.14"
   ry="2.47"
   style="fill:#855c52" />
    <g
   id="g18558">
    </g>
    <g
   id="g18611">
    </g>
    <path
   id="path20767"
   d="m 89.061,35.741425 c -0.047,0.011 -0.094,0.023 -0.139,0.038 0,0 -1.588,0.949 -5.787,1.994 -4.2,1.044 -10.887,2.109 -20.703,2.109 -9.832,0 -16.066,-0.919 -19.791,-1.812 -1.759,-0.422 -2.943,-0.834 -3.702,-1.143 v 3.195 c 0.799,0.274 1.773,0.569 3.002,0.864 4.009,0.961 10.472,1.896 20.491,1.896 10.033,0 16.967,-1.088 21.427,-2.197 2.453,-0.61 4.13,-1.228 5.202,-1.68 z m 0,11.141 c -0.047,0.01 -0.094,0.023 -0.139,0.037 0,0 -1.588,0.95 -5.787,1.994 -4.2,1.045 -10.887,2.11 -20.703,2.11 -9.832,0 -16.066,-0.919 -19.791,-1.813 -1.759,-0.422 -2.943,-0.834 -3.702,-1.142 v 3.195 c 0.799,0.274 1.773,0.57 3.002,0.865 4.009,0.961 10.472,1.895 20.491,1.895 10.033,0 16.967,-1.088 21.427,-2.198 2.453,-0.61 4.13,-1.228 5.202,-1.679 z m 0,11.143 c -0.047,0.01 -0.094,0.022 -0.139,0.037 0,0 -1.588,0.949 -5.787,1.994 -4.2,1.044 -10.887,2.109 -20.703,2.109 -9.832,0 -16.066,-0.921 -19.791,-1.814 -1.759,-0.422 -2.943,-0.834 -3.702,-1.143 v 3.196 c 0.799,0.274 1.773,0.57 3.002,0.865 4.009,0.961 10.472,1.896 20.491,1.896 10.033,0 16.967,-1.09 21.427,-2.199 2.453,-0.61 4.13,-1.229 5.202,-1.68 z m 0,11.14 c -0.047,0.01 -0.094,0.023 -0.139,0.037 0,0 -1.588,0.95 -5.787,1.995 -4.2,1.044 -10.887,2.109 -20.703,2.109 -9.832,0 -16.066,-0.919 -19.791,-1.813 -1.759,-0.421 -2.943,-0.833 -3.702,-1.142 v 3.195 c 0.799,0.274 1.773,0.569 3.002,0.863 4.009,0.962 10.472,1.897 20.491,1.897 10.033,0 16.967,-1.088 21.427,-2.197 2.453,-0.61 4.13,-1.228 5.202,-1.68 z m 0,11.141 c -0.047,0.01 -0.094,0.022 -0.139,0.037 0,0 -1.588,0.95 -5.787,1.994 -4.2,1.045 -10.887,2.11 -20.703,2.11 -9.832,0 -16.066,-0.92 -19.791,-1.813 -1.759,-0.422 -2.943,-0.834 -3.702,-1.143 v 3.196 c 0.799,0.274 1.773,0.568 3.002,0.863 4.009,0.961 10.472,1.897 20.491,1.897 10.033,0 16.967,-1.088 21.427,-2.198 2.453,-0.61 4.13,-1.228 5.202,-1.679 z"
   style="fill:#9b1818;fill-rule:nonzero" />
</svg>
