<?xml version="1.0" encoding="UTF-8" standalone="no"?>
<svg
   width="128"
   height="128"
   version="1.1"
   id="svg10"
   sodipodi:docname="emoji_u1f355.svg"
   xml:space="preserve"
   inkscape:version="1.3 (0e150ed6c4, 2023-07-21)"
   xmlns:inkscape="http://www.inkscape.org/namespaces/inkscape"
   xmlns:sodipodi="http://sodipodi.sourceforge.net/DTD/sodipodi-0.dtd"
   xmlns="http://www.w3.org/2000/svg"
   xmlns:svg="http://www.w3.org/2000/svg"><defs
     id="defs10" /><sodipodi:namedview
     id="namedview10"
     pagecolor="#ffffff"
     bordercolor="#000000"
     borderopacity="0.25"
     inkscape:showpageshadow="2"
     inkscape:pageopacity="0.0"
     inkscape:pagecheckerboard="0"
     inkscape:deskcolor="#d1d1d1"
     inkscape:zoom="2.0273438"
     inkscape:cx="46.859345"
     inkscape:cy="110.24277"
     inkscape:window-width="1366"
     inkscape:window-height="697"
     inkscape:window-x="-8"
     inkscape:window-y="-8"
     inkscape:window-maximized="1"
     inkscape:current-layer="svg10" /><path
     id="path1"
     d="M 64.494141 10.191406 C 54.364248 10.29832 48.273046 17.486808 47.310547 28.310547 C 47.070547 30.990544 44.93078 33.35094 43.300781 35.460938 C 37.830787 42.57093 32.220463 50.009226 26.480469 56.949219 C 21.500474 62.959213 17.229605 69.479928 12.849609 75.919922 C 5.9725259 86.080794 2.2432356 94.512097 3.0097656 104.91211 C 3.004749 104.90433 2.9948197 104.89855 2.9902344 104.89062 C 3.2402341 108.27062 3.94922 111.85907 5.1992188 115.78906 C 6.241628 119.09472 8.5457781 124.36488 12.607422 124.8125 C 12.87227 124.84281 13.143853 124.85248 13.423828 124.83984 C 13.429181 124.8396 13.434095 124.8401 13.439453 124.83984 C 13.531451 124.83562 13.612262 124.81534 13.701172 124.80664 C 18.127864 124.50974 21.754803 121.93743 61.105469 105.91992 C 100.81924 89.754621 109.00373 86.167693 116.08398 83.527344 C 116.18262 83.490796 116.28224 83.456523 116.38086 83.419922 C 119.01815 82.443864 121.84411 81.582535 123.81055 79.820312 C 124.05303 79.602249 124.28242 79.369122 124.49609 79.121094 C 125.23033 78.272198 125.79966 77.252325 126.08984 75.949219 C 126.44984 74.33922 126.72063 72.710311 126.89062 71.070312 C 126.92768 70.716776 126.92967 70.369511 126.95703 70.017578 C 126.99049 69.588097 127.01764 69.161099 127.03711 68.734375 C 127.06531 68.10726 127.07985 67.482877 127.07812 66.861328 C 127.07996 66.243718 127.0632 65.607083 127.03711 64.929688 C 127.02412 64.679494 127.01378 64.428879 126.99609 64.179688 C 126.95499 63.566875 126.90999 62.957726 126.80664 62.361328 C 125.1335 48.117134 115.92351 35.631158 104.55078 26.759766 C 97.650788 21.379771 89.870382 17.059528 81.650391 14.019531 C 78.500394 12.869532 73.920073 11.449843 69.080078 10.589844 C 67.47133 10.306094 65.941268 10.176133 64.494141 10.191406 z "
     style="fill:#fddd4e;fill-opacity:1" /><path
     id="path11"
     style="fill:#fcc21b;stroke:none;stroke-width:6;stroke-linecap:round"
     d="M 55.455078 34.949219 C 53.17835 35.49072 51.821151 37.590731 50.166981 39.0641 C 38.37471 51.2939 28.110778 64.954386 19.254193 79.439939 C 17.092209 83.168446 14.60113 86.827981 13.510454 91.048847 C 13.125351 92.228542 13.116815 93.608038 14.005087 94.574178 C 15.1155 96.057764 17.116836 95.995841 18.777838 95.914026 C 22.184568 95.581382 25.385572 94.24372 28.590744 93.125617 C 36.625924 90.11231 44.44145 86.554797 52.366047 83.268846 C 61.44547 79.352743 70.7286 75.943188 80.035912 72.615995 C 85.613232 70.581884 91.236559 68.615276 96.48396 65.825161 C 97.869051 64.994662 99.520576 63.709476 99.283203 61.890625 C 98.919318 59.582702 97.032345 57.948557 95.428851 56.421539 C 91.834439 53.245129 87.928329 50.446512 84.107311 47.553761 C 78.578678 43.503181 72.655126 40.016463 66.283211 37.463838 C 62.818972 36.016747 59.228102 34.817685 55.455078 34.949219 z " /><path
     id="path9"
     style="fill:#fab23d;fill-opacity:1;stroke:none;stroke-width:1;stroke-opacity:1"
     d="m 60.30812,21.920473 c -1.82579,-0.0627 -3.858547,0.954822 -4.309266,2.841854 -0.403265,1.646597 0.786231,3.313535 2.36244,3.760582 2.342913,0.614811 4.728112,1.088294 7.050744,1.793184 4.00591,1.185278 7.98832,2.457968 11.937603,3.818586 0.923332,0.352542 1.852096,0.746798 2.650153,1.126506 1.455419,0.67506 2.835935,1.432662 4.152062,2.227826 3.2006,2.000403 6.280799,4.198593 9.245803,6.533142 2.917442,2.317215 5.28699,5.215003 7.735851,7.999373 1.16094,1.28876 2.06456,2.77896 3.15811,4.116086 0.98316,1.218533 2.91644,1.647809 4.17856,0.603335 1.30058,-0.9007 1.39475,-2.736798 0.76102,-4.071436 -1.40869,-3.502554 -3.53713,-6.687195 -6.16977,-9.387616 -2.81894,-2.908104 -5.860542,-5.598732 -8.995568,-8.160193 C 89.329627,31.310475 83.99049,28.186013 78.16988,26.365313 73.695209,24.940769 69.126785,23.852199 64.590043,22.671495 63.173723,22.383498 61.763056,21.930128 60.30812,21.920473 Z" /><path
     d="m 125.83,59.5 c -1.74,-2.88 -4.73,-4.36 -8.01,-3.61 -3.08,0.71 -6.79,4.14 -8.24,6.96 -1.45,2.81 -2.26,7.71 -4.97,9.34 -3.13,1.9 -7.947424,3.53007 -46.071041,17.720173 C 20.415342,104.10028 4.2,106.98 2.99,104.89 c 0.25,3.38 0.96,6.97 2.21,10.9 1.11,3.52 3.65,9.27 8.22,9.05 4.57,-0.21 7.509653,-2.56721 47.684884,-18.92035 C 101.28012,89.566513 109.22,86.07 116.36,83.42 c 4.08,-1.51 8.65,-2.71 9.71,-7.47 0.36,-1.61 0.63,-3.24 0.8,-4.88 0.12,-1.15 0.19,-2.3 0.21,-3.43 0.01,-2.45 0.08,-5.95 -1.25,-8.14 z"
     fill="#dda450"
     id="path10"
     sodipodi:nodetypes="cccczccczccccc"
     style="fill:#fab23d" /><path
     d="m 28.861406,73.961938 c 0.230777,-2.215465 1.633905,-4.486317 4.744788,-6.489467 2.243159,-1.440053 4.560166,-1.956994 7.209493,-1.58775 6.037144,0.830799 11.640425,4.070917 9.904977,11.197331 -0.720026,2.963184 -4.51401,5.289423 -7.181801,6.240227 -3.249349,1.163119 -6.867942,1.024653 -9.978825,-0.480018 -1.403128,-0.67387 -3.249349,-1.947763 -4.070917,-3.295504 -0.858493,-1.412359 -0.803106,-3.978607 -0.627715,-5.584819 z"
     fill="#ed6c30"
     id="path3"
     style="stroke-width:0.999996" /><g
     id="g6"
     transform="matrix(0.92311054,0,0,0.92311054,138.41644,11.929989)"
     style="stroke-width:1.08329"><path
       d="m -108.40665,41.3 c -0.15,-2.42 0.95,-5.09 3.92,-7.79 2.14,-1.94 4.530003,-2.9 7.420003,-2.98 6.59,-0.18 13.16,2.28 12.58,10.21 -0.23,3.3 -3.88,6.46 -6.56,7.95 -3.26,1.81 -7.15,2.32 -10.750003,1.27 -1.62,-0.48 -3.82,-1.5 -4.93,-2.8 -1.17,-1.36 -1.56,-4.12 -1.68,-5.86 z"
       fill="#ed6c30"
       id="path5"
       style="stroke-width:1.08329" /></g><g
     id="g8"
     transform="matrix(0.92311054,0,0,0.92311054,131.63509,10.416804)"
     style="stroke-width:1.08329"><path
       d="m -73.596647,58.63 c 0.25,-2.4 1.77,-4.86 5.14,-7.03 2.43,-1.56 4.94,-2.12 7.8,-1.72 6.54,0.9 12.61,4.41 10.74,12.13 -0.78,3.21 -4.89,5.73 -7.78,6.75 -3.52,1.26 -7.44,1.11 -10.81,-0.52 -1.52,-0.73 -3.52,-2.11 -4.41,-3.57 -0.93,-1.52 -0.87,-4.3 -0.68,-6.04 z"
       fill="#ed6c30"
       id="path7"
       style="stroke-width:1.08329" /></g></svg>
