<?xml version="1.0" encoding="UTF-8" standalone="no"?>
<svg
   width="128"
   height="128"
   version="1.1"
   id="svg586"
   sodipodi:docname="emoji_u1f975.svg"
   inkscape:version="1.2.2 (732a01da63, 2022-12-09)"
   xmlns:inkscape="http://www.inkscape.org/namespaces/inkscape"
   xmlns:sodipodi="http://sodipodi.sourceforge.net/DTD/sodipodi-0.dtd"
   xmlns:xlink="http://www.w3.org/1999/xlink"
   xmlns="http://www.w3.org/2000/svg"
   xmlns:svg="http://www.w3.org/2000/svg">
  <sodipodi:namedview
     id="namedview588"
     pagecolor="#ffffff"
     bordercolor="#000000"
     borderopacity="0.25"
     inkscape:showpageshadow="2"
     inkscape:pageopacity="0.0"
     inkscape:pagecheckerboard="0"
     inkscape:deskcolor="#d1d1d1"
     showgrid="false"
     inkscape:zoom="4.2421874"
     inkscape:cx="54.099448"
     inkscape:cy="33.001842"
     inkscape:window-width="1366"
     inkscape:window-height="697"
     inkscape:window-x="-8"
     inkscape:window-y="-8"
     inkscape:window-maximized="1"
     inkscape:current-layer="svg586" />
  <defs
     id="defs576">
    <linearGradient
       id="a">
      <stop
         offset="0"
         stop-color="#fc451b"
         id="stop570"
         style="stop-color:#db4437;stop-opacity:1;" />
      <stop
         offset="1"
         stop-color="#fcc21b"
         id="stop572" />
    </linearGradient>
    <linearGradient
       xlink:href="#a"
       id="b"
       x1="64.22"
       y1="9.62"
       x2="64.22"
       y2="118.5"
       gradientUnits="userSpaceOnUse" />
  </defs>
  <path
     d="M64.22 9.62C1.81 9.62.34 79.58.34 93.42c0 13.86 28.59 25.08 63.88 25.08 35.28 0 63.88-11.22 63.88-25.08 0-13.84-1.48-83.8-63.88-83.8z"
     fill="url(#b)"
     id="path578" />
  <path
     d="m -296.69818,24.484943 c -7.15609,1.862345 -14.12136,4.398067 -20.93945,7.246094 -4.62914,2.004905 -9.22344,4.220504 -13.26393,7.272914 -2.36386,1.798003 -4.39627,4.047383 -5.81206,6.666654 -1.97728,3.372597 -3.61478,6.929239 -5.49249,10.356535 -5.18484,9.899023 -10.2767,19.932972 -17.03418,28.879702 -2.38584,3.10926 -5.44441,5.64155 -8.74805,7.72339 -3.92701,2.68461 -8.08691,5.23113 -11.10242,8.987518 -2.46924,3.23602 -3.71137,7.38912 -3.42341,11.44767 0.41082,4.14012 2.89357,8.17875 6.74372,9.93319 4.61088,1.73652 9.45166,2.72293 14.21654,3.92955 8.26198,2.0062 16.54255,3.93643 24.83562,5.80944 7.80081,1.74469 15.63756,3.35155 23.53586,4.58908 9.61751,1.12547 19.30771,0.29893 28.93006,-0.30852 14.34852,-1.20043 28.69176,-2.63404 42.90182,-4.99399 7.16729,-1.40368 14.29715,-3.15045 21.12924,-5.76212 1.52077,-0.60876 3.1237,-1.11586 4.39227,-2.19703 3.74722,-2.99923 5.51163,-8.37347 3.98242,-12.9668 -2.11894,-4.71111 -5.66949,-8.53814 -8.75673,-12.613968 -5.4513,-6.9634 -11.08885,-13.90043 -15.03033,-21.86973 -4.60031,-8.982817 -8.46661,-18.344218 -13.57346,-27.063921 -2.21443,-3.70199 -5.13894,-6.97032 -8.57719,-9.576092 -5.07209,-4.084136 -10.71873,-7.445129 -16.68729,-10.0423 -6.80816,-2.890278 -14.06238,-4.696498 -21.41601,-5.453125 -0.27019,0.002 -0.54037,0.0039 -0.81055,0.0059 z"
     fill="url(#b)"
     id="path578-2"
     style="fill:#fcc21b" />
  <path
     d="m -316.09469,104.52471 c -13.38494,-4.52772 -18.40215,-14.817991 -18.61528,-15.249011 a 3.254,3.254 0 0 1 5.87532,-2.794714 c 0.15671,0.316926 4.14703,8.275184 14.82277,11.886463 10.67575,3.611282 18.67468,-0.280823 19.01696,-0.45007 a 3.26,3.26 0 0 1 4.3608,1.432897 3.238,3.238 0 0 1 -1.41076,4.357725 c -0.43101,0.21313 -10.66487,5.34442 -24.04981,0.81671 z"
     fill="#2f2f2f"
     id="path7116" />
  <g
     fill="#2f2f2f"
     id="g7122"
     transform="rotate(7.2418333,-229.43715,-2754.7572)">
    <path
       d="m 52.808965,61.636409 c -4.49,0.04 -8.17,-4.27 -8.22,-9.62 -0.05,-5.37 3.55,-9.75 8.04,-9.79 4.48,-0.04 8.17,4.27 8.22,9.64 0.05,5.36 -3.55,9.73 -8.04,9.77 z m 33.92118,9.373887 c 4.48,-0.01 8.11,-4.36 8.1,-9.71 -0.01,-5.37 -3.66,-9.7 -8.14,-9.69 -4.49,0.01 -8.13,4.36 -8.12,9.73 0.02,5.35 3.67,9.68 8.16,9.67 z"
       id="path7120"
       sodipodi:nodetypes="scccsssscs" />
  </g>
  <path
     d="M -138.02734 20.083984 C -143.97968 20.85271 -150.06696 21.589975 -155.58008 24.115234 C -160.82657 26.381632 -165.91213 29.237691 -170.02014 33.263642 C -173.76128 36.764461 -177.5125 40.279289 -180.84276 44.180417 C -183.1281 47.218882 -184.00666 50.983421 -185.2179 54.517092 C -186.4606 58.27125 -187.85562 61.976534 -189.03966 65.748766 C -190.07753 70.303005 -189.90401 75.009657 -190.51343 79.621563 C -191.23024 86.849891 -192.05777 94.075576 -192.30664 101.33984 C -192.12577 104.75038 -190.28361 107.77934 -188.26758 110.42773 C -185.13664 114.27185 -180.6194 116.77047 -175.89648 118.10352 C -162.20677 122.63008 -147.88269 125.39702 -133.44708 125.68306 C -119.87208 125.99314 -106.22746 124.48025 -93.120757 120.89494 C -88.39666 119.57889 -83.716102 118.03202 -79.278133 115.93172 C -75.414139 114.05835 -71.776248 111.37147 -69.598453 107.59536 C -67.622735 104.26478 -66.83678 100.28345 -67.264073 96.443891 C -67.542521 92.121152 -68.360926 87.858894 -69.06232 83.591091 C -70.4239 75.943302 -72.143741 68.331084 -74.771108 61.009992 C -76.468736 56.644879 -78.706887 52.517762 -81.100472 48.500495 C -82.05921 46.932801 -82.843933 45.271506 -83.612535 43.605929 C -84.954137 40.895952 -86.984223 38.609922 -89.129247 36.509289 C -91.407377 34.254522 -93.309433 31.618507 -95.851296 29.637191 C -97.724439 28.10914 -99.872446 26.954607 -102.12616 26.094677 C -104.96308 24.944515 -107.81228 23.820141 -110.68713 22.768449 C -113.62621 21.735182 -116.70331 21.09978 -119.81679 20.945637 C -125.49961 20.483221 -131.19566 20.108782 -136.8988 20.073658 C -137.27498 20.0771 -137.65116 20.080542 -138.02734 20.083984 z "
     fill="url(#b)"
     id="path578-4"
     style="fill:#db4437;fill-opacity:1" />
  <path
     d="m 37.940722,96.407394 c 2.479111,1.638281 5.606031,0.562386 8.359214,0 7.698948,-1.564924 14.4511,-1.626053 17.69014,-1.626053 3.23904,0 10.00365,0.06113 17.69014,1.626053 2.753184,0.562386 5.880103,1.638281 8.359214,0 3.139377,-2.09064 0.822218,-9.572922 -4.123547,-14.634466 -2.989882,-3.056489 -10.128228,-8.986075 -21.938265,-8.986075 -11.810037,0 -18.935924,5.929586 -21.938265,8.986075 -4.920849,5.073769 -7.238008,12.556052 -4.098631,14.634466 z"
     fill="#ed6c30"
     id="path582"
     style="stroke-width:1" />
  <path
     d="m 119.19,79.432387 c -1.68,4.5 -5.13,6.96 -7.79,7.39 -2.99,0.48 -5.52,-0.31 -7.14,-2.22 -2.05,-2.42 -2.34,-6.23 -0.84,-10.73 2.73,-8.09 3.69,-22.88 3.71,-23.02 0.04,-0.57 0.39,-1.05 0.94,-1.21 0.53,-0.19 1.11,0 1.48,0.43 12.37,14.92 11.36,24.8 9.64,29.36 z"
     fill="#fff"
     id="path584"
     style="fill:#ffffff;fill-opacity:1" />
  <path
     id="path4296"
     style="clip-rule:evenodd;fill:#2f2f2f;fill-rule:nonzero;stroke-linejoin:round;stroke-miterlimit:2"
     d="m 43.748047,42.290482 a 3.5601326,7.079488 65.166609 0 1 -4.035156,3.476562 3.5601326,7.079488 65.166609 0 1 -4.824219,1.382813 c -0.622951,1.369823 -0.979311,2.938963 -0.982422,4.609375 -0.01,5.349994 3.619614,9.700937 8.099609,9.710937 4.489996,0.01 8.140157,-4.319927 8.160157,-9.669922 0.0087,-4.671028 -2.746134,-8.567249 -6.417969,-9.509765 z m 40.640625,0.03125 c -3.573535,0.993748 -6.269828,4.795938 -6.3125,9.378906 -0.05,5.359995 3.549067,9.729531 8.039062,9.769531 4.489996,0.04 8.170704,-4.271099 8.220704,-9.621094 0.01584,-1.700976 -0.337913,-3.299465 -0.966797,-4.695312 a 7.079488,3.5601326 24.833391 0 1 -4.960938,-1.386719 7.079488,3.5601326 24.833391 0 1 -4.019531,-3.445312 z" />
  <g
     aria-label="8"
     id="text26844"
     style="font-weight:900;font-size:551.52px;font-family:'Encode Sans';-inkscape-font-specification:'Encode Sans Heavy';font-variant-numeric:ordinal;fill:#fcc21b;stroke-width:35.9055;stroke-linecap:round">
    <path
       d="M -195.02734 257.91406 C -207.19735 258.9173 -219.33862 260.31834 -231.39895 262.23777 C -248.71976 265.097 -265.87264 269.50215 -281.99132 276.54289 C -295.76706 282.51474 -308.87724 290.35989 -319.78565 300.75284 C -329.39885 309.9176 -337.19884 321.01427 -342.3265 333.27949 C -350.77589 353.20823 -352.59863 375.75048 -348.09742 396.8795 C -344.03441 416.17448 -334.72074 434.3855 -321.18366 448.75205 C -315.15122 455.2112 -308.47755 461.02065 -302.09575 467.12388 C -300.1464 468.98553 -298.12685 470.78526 -296.2206 472.68495 C -294.88959 474.45627 -295.74156 477.26225 -297.6875 478.20508 C -310.11641 486.6138 -322.84997 494.76485 -333.80271 505.10291 C -346.63225 517.39207 -355.2214 533.84695 -358.66044 551.22796 C -361.49471 565.43608 -360.85012 580.35152 -356.56917 594.20611 C -352.91112 606.19639 -346.61983 617.38514 -338.2047 626.68394 C -330.92208 635.04921 -322.13504 641.89731 -313.40723 648.66924 C -310.16016 651.22936 -306.91309 653.78949 -303.66602 656.34961 C -301.06459 660.22572 -300.53559 664.99993 -300.17188 669.53711 C -298.68788 695.9082 -298.61506 722.32854 -297.95703 748.72656 C -297.4479 754.64451 -293.87358 759.98554 -289.11386 763.39919 C -286.25218 765.6066 -282.38067 765.81586 -278.93778 765.25765 C -273.41299 764.34184 -268.2924 760.83284 -265.73438 755.80859 C -262.54607 747.26219 -261.8231 738.09908 -260.50426 729.14509 C -258.33378 713.44207 -256.23181 697.71311 -253.11623 682.16395 C -252.7702 680.94133 -252.42416 679.71871 -252.07812 678.49609 C -248.72241 674.39318 -243.25644 672.2498 -238.00586 672.68945 C -217.64583 672.94141 -197.28581 673.19336 -176.92578 673.44531 C -170.64919 675.26562 -165.36883 679.84171 -162.22602 685.51943 C -158.44821 691.45176 -154.67039 697.38408 -150.89258 703.31641 C -145.17702 709.17215 -135.3778 710.42248 -128.37891 706.17969 C -123.17558 701.82875 -119.89112 695.49818 -118.57031 688.9043 C -116.79883 682.07552 -115.02734 675.24674 -113.25586 668.41797 C -110.10625 664.48532 -105.46851 662.23248 -101.0293 660.08594 C -88.315916 653.96225 -75.330445 648.15043 -63.785395 639.93551 C -50.830255 630.48482 -39.55467 618.56792 -31.533959 604.63829 C -20.101093 584.60805 -15.9523 560.65665 -19.396264 537.89535 C -21.586709 523.40796 -26.180496 509.18896 -33.651811 496.54371 C -39.313369 486.88953 -46.877506 478.4589 -55.347387 471.18675 C -60.716006 466.58308 -66.430514 462.4067 -72.019953 458.07951 C -75.010831 455.77025 -78.044019 453.50506 -81.009766 451.16992 C -82.116931 449.85627 -81.531353 447.6937 -80.072011 446.90042 C -69.084157 437.11436 -57.683531 427.6816 -48.012009 416.54033 C -36.973847 402.32785 -30.639862 384.72802 -29.154459 366.85362 C -27.987629 353.45605 -29.439466 339.7405 -34.083353 327.08322 C -40.594722 309.72176 -53.280385 294.88598 -69.070862 285.25089 C -83.457897 276.12907 -99.589997 270.06118 -116.0752 265.97903 C -137.34342 260.65285 -159.28793 258.50889 -181.16987 258.02969 C -185.78802 257.91905 -190.40804 257.89902 -195.02734 257.91406 z M -162.31641 340.47266 C -153.99272 342.23299 -145.99464 345.67042 -139.14062 350.73242 C -130.75747 359.55597 -128.16534 373.26077 -132.45657 384.60929 C -134.63584 390.56635 -137.88613 396.07463 -141.49609 401.26758 C -145.89512 407.36518 -151.22375 412.74931 -157.03125 417.50781 C -158.90616 419.37997 -161.78464 419.50317 -164.25537 419.12776 C -168.46724 418.62197 -172.54422 417.40556 -176.68555 416.5332 C -178.04513 415.83879 -179.87027 416.38286 -180.59075 417.74 C -182.46777 420.13157 -182.93119 423.22878 -183.7122 426.08301 C -185.50928 433.77077 -185.97167 441.69236 -187.52306 449.42198 C -187.83557 450.42288 -188.21644 451.40034 -188.57617 452.38477 C -191.83931 455.07821 -196.9739 455.09478 -200.25391 452.42188 C -202.57498 448.78355 -204.9986 445.00012 -205.64844 440.64844 C -204.98563 431.79383 -204.01506 422.96371 -203.47656 414.09961 C -203.79753 412.42079 -204.20243 410.75862 -204.68555 409.11914 C -211.43458 403.41299 -219.92319 400.11197 -226.28711 393.9082 C -231.91259 388.61684 -236.30299 381.73549 -237.65549 374.05156 C -238.88081 366.00407 -236.09509 357.30485 -229.98105 351.83194 C -228.60116 350.56429 -226.50762 349.77834 -224.71289 350.63477 C -222.76148 351.45658 -221.58455 353.49899 -221.36704 355.54384 C -219.12364 363.92217 -216.96711 372.3291 -214.33203 380.5957 C -213.28586 382.43991 -211.84097 384.34458 -209.66992 384.86328 C -206.07765 384.90042 -202.74488 382.54901 -201.15234 379.39844 C -194.7168 369.45378 -188.28125 359.50911 -181.8457 349.56445 C -176.985 344.29296 -170.07544 341.05387 -162.95312 340.43359 C -162.74089 340.44661 -162.52865 340.45964 -162.31641 340.47266 z M -217.19141 505.88281 C -211.6242 507.49913 -207.46653 512.55899 -206.29733 518.15024 C -205.24585 522.93818 -204.7855 527.8282 -204.02512 532.66588 C -203.49331 536.35147 -202.9615 540.03706 -202.42969 543.72266 C -201.15423 546.07321 -198.24294 547.11769 -195.68555 546.73242 C -194.00325 546.1038 -193.55061 544.18873 -192.80993 542.74728 C -189.87243 536.31968 -188.14025 529.4434 -185.88281 522.76758 C -185.6319 520.8599 -184.13556 519.4951 -182.78891 518.27584 C -182.22999 517.5363 -181.32401 516.57379 -180.30469 517.05273 C -174.81438 518.1036 -169.8189 520.72481 -164.81836 523.10742 C -160.05558 527.07851 -157.26713 533.04124 -156.47892 539.12515 C -155.45079 544.76247 -154.42266 550.39979 -153.39453 556.03711 C -152.44611 557.68744 -149.60762 557.47266 -148.91016 555.70508 C -146.1875 550.89193 -143.46484 546.07878 -140.74219 541.26562 C -137.35419 539.65831 -132.84808 541.64086 -131.71289 545.20703 C -129.13341 551.55716 -128.0929 558.53998 -128.82031 565.36133 C -132.16969 576.61059 -141.92673 585.54599 -153.29102 588.28125 C -160.83175 590.38815 -168.65051 591.13125 -176.36719 592.30859 C -178.86877 593.76253 -179.90877 596.6154 -181.05273 599.10938 C -183.71731 605.41683 -186.38723 611.93095 -186.70089 618.85907 C -187.17742 624.02257 -186.94807 629.32317 -188.49023 634.33008 C -188.91644 635.81674 -189.6524 637.34872 -191.08502 638.09688 C -192.5864 638.92321 -194.3684 638.79882 -195.98438 639.25586 C -198.02535 639.53798 -199.80121 638.2072 -201.16568 636.8498 C -203.42967 634.5979 -204.66821 631.55517 -205.42022 628.50232 C -207.54452 620.94724 -207.95517 613.06862 -209.21245 605.35269 C -209.88334 601.12967 -210.69137 596.82801 -212.67243 592.99876 C -214.36085 590.40037 -217.35384 589.11397 -220.20654 588.23717 C -226.37698 585.95721 -232.72605 583.58015 -237.72852 579.16211 C -244.34906 573.38845 -248.80976 565.00528 -249.28182 556.17858 C -249.67094 546.75419 -246.65194 537.42784 -241.77118 529.44063 C -236.00686 519.84435 -227.72188 511.88241 -218.23242 506.00195 C -217.90265 505.8705 -217.54192 505.84021 -217.19141 505.88281 z "
       id="path26846" />
  </g>
  <g
     aria-label="R"
     id="text27646"
     style="font-weight:900;font-size:551.52px;font-family:'Encode Sans';-inkscape-font-specification:'Encode Sans Heavy';font-variant-numeric:ordinal;fill:#fcc21b;stroke-width:35.9055;stroke-linecap:round">
    <path
       d="M -1803.0996 1049.7734 C -1823.127 1052.3919 -1843.1543 1055.0104 -1863.1816 1057.6289 C -1868.4364 1062.4369 -1870.4129 1070.4751 -1867.9883 1077.1719 C -1869.9337 1107.9345 -1872.0405 1138.7267 -1871.7506 1169.5693 C -1871.5055 1222.1673 -1871.2606 1274.7653 -1871.0156 1327.3633 C -1868.1944 1331.8209 -1864 1335.1382 -1859.9043 1338.3594 C -1856.1689 1342.9097 -1852.3748 1347.4112 -1848.5918 1351.9219 C -1846.0627 1356.9472 -1845.8093 1362.6672 -1845.0806 1368.1418 C -1844.4591 1372.5884 -1843.4306 1377.2278 -1840.4824 1380.7598 C -1836.7617 1385.3807 -1831.0067 1388.5218 -1825.002 1388.4434 C -1817.6227 1388.0301 -1810.697 1384.093 -1806.0593 1378.4194 C -1804.0489 1376.091 -1802.0007 1373.43 -1801.8379 1370.2305 C -1801.6878 1365.4054 -1803.151 1360.7427 -1803.7472 1355.9928 C -1804.8436 1349.4407 -1805.9841 1342.8447 -1805.8906 1336.1777 C -1805.4232 1332.8428 -1802.9999 1330.3113 -1801.0219 1327.7586 C -1798.3864 1324.4559 -1795.7998 1320.8015 -1795.2528 1316.4988 C -1793.7295 1306.6396 -1794.012 1296.631 -1794.0089 1286.6887 C -1794.1763 1267.7598 -1795.0787 1248.8476 -1795.4062 1229.9219 C -1795.3322 1226.8367 -1792.1659 1224.4785 -1789.1953 1224.793 C -1786.5981 1224.9865 -1783.992 1225.1106 -1781.4023 1225.377 C -1780.1473 1225.8527 -1779.3943 1227.0759 -1778.5976 1228.0887 C -1776.853 1230.5841 -1774.9816 1232.9861 -1773.2491 1235.491 C -1767.7853 1243.1854 -1762.5071 1251.0092 -1757.1895 1258.8047 C -1750.6104 1276.3159 -1744.9453 1294.1488 -1738.9163 1311.8523 C -1737.6929 1315.52 -1736.4695 1319.1877 -1735.2461 1322.8555 C -1711.784 1322.9557 -1688.3417 1321.8393 -1664.8896 1321.3427 C -1648.9426 1320.9472 -1632.9957 1320.5517 -1617.0488 1320.1562 C -1647.0299 1281.4596 -1677.0111 1242.763 -1706.9922 1204.0664 C -1704.2051 1204.2806 -1701.418 1204.4948 -1698.6309 1204.709 C -1689.5805 1196.5156 -1680.894 1187.9337 -1672.2207 1179.3457 C -1663.7025 1157.5833 -1661.5296 1133.2703 -1666.6992 1110.4355 C -1668.7305 1101.0354 -1672.6144 1091.8712 -1678.9564 1084.5542 C -1687.0886 1074.7581 -1697.7187 1067.2709 -1709.1484 1061.7951 C -1723.0262 1055.1649 -1738.3067 1051.6945 -1753.6406 1050.9844 C -1769.4189 1050.1319 -1785.2184 1049.7378 -1801.0176 1049.5605 C -1801.7116 1049.6315 -1802.4056 1049.7025 -1803.0996 1049.7734 z M -1784.6777 1104.2188 C -1781.5373 1109.0378 -1779.3511 1114.3905 -1777.2 1119.6978 C -1776.2092 1121.6098 -1773.0531 1121.9244 -1771.8807 1120.0227 C -1768.8866 1116.3262 -1766.3709 1112.2804 -1763.7246 1108.3359 C -1761.4783 1106.5829 -1758.3974 1106.753 -1755.7765 1107.391 C -1744.0569 1110.3527 -1734.7437 1121.1286 -1733.647 1133.1866 C -1732.8881 1141.9617 -1736.7451 1150.8223 -1743.2017 1156.7108 C -1748.1616 1161.3365 -1754.7224 1164.0806 -1761.4387 1164.7822 C -1769.1513 1165.9664 -1776.9416 1166.5058 -1784.7188 1167.0645 C -1790.6026 1166.5683 -1795.4081 1160.9184 -1795.1914 1155.0605 C -1795.4121 1140.2904 -1795.6328 1125.5202 -1795.8535 1110.75 C -1794.5041 1107.927 -1791.5679 1106.3737 -1788.7656 1105.3203 C -1787.4708 1104.865 -1786.1474 1104.4998 -1784.8301 1104.1172 L -1784.678 1104.2186 L -1784.6777 1104.2188 z M -1874.5859 1110.0645 L -1874.582 1109.8828 L -1874.5859 1110.0645 z M -1872.4219 1161.0625 L -1872.4336 1160.9082 L -1872.4219 1161.0625 z "
       id="path27648"
       style="stroke-width:35.9055" />
  </g>
</svg>
