<?xml version="1.0" encoding="UTF-8" standalone="no"?>
<svg
   width="128"
   height="128"
   version="1.1"
   id="svg3"
   sodipodi:docname="emoji_u1f620.svg"
   inkscape:version="1.3 (0e150ed6c4, 2023-07-21)"
   xmlns:inkscape="http://www.inkscape.org/namespaces/inkscape"
   xmlns:sodipodi="http://sodipodi.sourceforge.net/DTD/sodipodi-0.dtd"
   xmlns:xlink="http://www.w3.org/1999/xlink"
   xmlns="http://www.w3.org/2000/svg"
   xmlns:svg="http://www.w3.org/2000/svg">
  <defs
     id="defs3">
    <clipPath
       id="SVGID_2_">&#10;					<use
   xlink:href="#SVGID_1_"
   overflow="visible"
   id="use2" />
&#10;				</clipPath>
    <clipPath
       id="clipPath1">&#10;					<use
   xlink:href="#SVGID_1_"
   overflow="visible"
   id="use1" />
&#10;				</clipPath>
    <clipPath
       id="clipPath3">&#10;					<use
   xlink:href="#SVGID_1_"
   overflow="visible"
   id="use3" />
&#10;				</clipPath>
    <clipPath
       id="clipPath4">&#10;					<use
   xlink:href="#SVGID_1_"
   overflow="visible"
   id="use4" />
&#10;				</clipPath>
    <clipPath
       id="clipPath5">&#10;					<use
   xlink:href="#SVGID_1_"
   overflow="visible"
   id="use5" />
&#10;				</clipPath>
    <clipPath
       id="clipPath6">&#10;					<use
   xlink:href="#SVGID_1_"
   overflow="visible"
   id="use6" />
&#10;				</clipPath>
    <clipPath
       id="clipPath7">&#10;					<use
   xlink:href="#SVGID_1_"
   overflow="visible"
   id="use7" />
&#10;				</clipPath>
    <path
       id="SVGID_1_"
       d="m 19.83,82.48 c 0,0 7.98,-29.88 44.93,-29.88 36.96,0 44.97,29.88 44.97,29.88 0,0 -16.06,-4.48 -44.94,-4.48 -28.89,0 -44.96,4.48 -44.96,4.48" />
  </defs>
  <sodipodi:namedview
     id="namedview3"
     pagecolor="#ffffff"
     bordercolor="#000000"
     borderopacity="0.25"
     inkscape:showpageshadow="2"
     inkscape:pageopacity="0.0"
     inkscape:pagecheckerboard="0"
     inkscape:deskcolor="#d1d1d1"
     inkscape:zoom="2.1306649"
     inkscape:cx="-103.72349"
     inkscape:cy="21.120168"
     inkscape:current-layer="svg3" />
  <g
     id="g10"
     transform="translate(93.449891,-76.833236)">&#10;		&#10;		&#10;		&#10;		&#10;	<path
   fill="#fcc21b"
   d="m 29.51026,122.27323 c -9.16,-20.31 -33.5600007,-34.899999 -59.03,-34.899999 -25.47,0 -49.87,14.589999 -59.02,34.899999 -13.92,30.84 6.71,56.21001 6.71,56.21001 h 0.01 c 6.78,9.14 27.63,15.81 52.31,15.81 25.7899993,0 47.37,-7.27 53.13,-17.05 h 0.01 c -0.01,-0.01 19.79,-24.13001 5.88,-54.97001 z"
   id="path1" />
</g>
  <path
     d="m 30.544531,89.157305 c 17.557155,-12.891041 49.353786,-12.891041 66.910937,0"
     fill="none"
     stroke="#2f2f2f"
     stroke-width="6.68041"
     stroke-linecap="round"
     stroke-miterlimit="10"
     id="path2" />
  <g
     fill="#2f2f2f"
     id="g3"
     transform="translate(0,-7.6715584)">
    <path
       d="m 97.53,48.87 a 2.5,2.5 0 0 0 -1.4,-1.5 c -0.66,-0.28 -1.4,-0.27 -2.05,0.03 l -16.51,7.55 c 0,0 -1.08,0.51 -2.19,0.49 -2.27,-0.03 -2.51,-1.34 -3.1,-2.34 -0.27,-0.48 -0.94,-0.95 -1.57,-0.69 -1.07,0.45 -1,2.79 -0.92,3.38 0.25,1.74 0.75,3.09 1.23,4.06 0.59,1.18 1.91,2.82 2.36,3.25 2.45,2.44 6.67,3.97 10.96,3.72 C 86.1,66.73 87.8,66.34 89.4,65.69 98.38,62 99.18,53.6 97.53,48.87 Z m -67.27,0 a 2.5,2.5 0 0 1 1.4,-1.5 c 0.66,-0.28 1.4,-0.27 2.06,0.03 l 16.51,7.55 c 0,0 1.07,0.51 2.18,0.49 2.27,-0.03 2.52,-1.34 3.09,-2.34 0.28,-0.48 0.94,-0.95 1.57,-0.69 1.07,0.45 1,2.79 0.92,3.38 -0.24,1.74 -0.74,3.09 -1.23,4.06 -0.59,1.18 -1.91,2.82 -2.36,3.25 -2.46,2.44 -6.67,3.97 -10.97,3.72 C 41.66,66.73 39.96,66.34 38.37,65.69 29.41,62 28.61,53.6 30.26,48.87 Z"
       id="path3" />
  </g>
</svg>
