<?xml version="1.0" encoding="UTF-8" standalone="no"?>
<svg
   width="128"
   height="128"
   version="1.1"
   id="svg1197"
   sodipodi:docname="emoji_u1f953.svg"
   inkscape:version="1.2.2 (732a01da63, 2022-12-09)"
   xmlns:inkscape="http://www.inkscape.org/namespaces/inkscape"
   xmlns:sodipodi="http://sodipodi.sourceforge.net/DTD/sodipodi-0.dtd"
   xmlns="http://www.w3.org/2000/svg"
   xmlns:svg="http://www.w3.org/2000/svg">
  <defs
     id="defs1201" />
  <sodipodi:namedview
     id="namedview1199"
     pagecolor="#ffffff"
     bordercolor="#000000"
     borderopacity="0.25"
     inkscape:showpageshadow="2"
     inkscape:pageopacity="0.0"
     inkscape:pagecheckerboard="0"
     inkscape:deskcolor="#d1d1d1"
     showgrid="false"
     inkscape:zoom="2.8284271"
     inkscape:cx="71.064231"
     inkscape:cy="61.871843"
     inkscape:window-width="1366"
     inkscape:window-height="697"
     inkscape:window-x="-8"
     inkscape:window-y="-8"
     inkscape:window-maximized="1"
     inkscape:current-layer="svg1197" />
  <style
     id="style1133">.st0{fill:#ff7043}.st1{fill:#e64a19}.st2{fill:#ffccbc}.st3{fill:#ffab91}</style>
  <g
     id="g3335"
     transform="translate(-175.82604,-1.7537933)">
    <path
       class="st0"
       d="m 244.12604,61.153871 c -4.6,1.5 -8.2,6 -9.9,12.4 -1.5,5.7 -2.8,8.8 -6.3,9.6 l 9.9,3.5 c 0,0 5.8,-16.9 10.7,-19.2 4.9,-2.3 12,-3 12,-3 0,0 -10,-5.4 -16.4,-3.3 z m -47.5,43.599999 c 0,0 -6,-3.4 -6.4,-7.399999 0,0 8.6,-13.3 13.9,-16.4 5.4,-3.2 8.7,-2.2 8.7,-2.2 0,0 5,0.5 8.7,3.8 0,0 -8.1,-1.3 -15.7,8 -7.6,9.3 -9.2,14.199999 -9.2,14.199999 z"
       id="path1165-9"
       style="fill:#ff7043" />
    <path
       d="m 229.22604,82.653871 c 0,0 -1.6,0.5 -5.5,-1.4 -3.9,-1.9 -7.1,-2.4 -11.6,-2.6 0,0 4.9,0.4 9.4,4 0,0 9.1,4 12.6,5 3.6,1 3.5,-1.9 3.5,-1.9 0,0 0.4,-0.9 -1.2,-1.1 -1.6,-0.2 -2.6,-0.2 -4.1,-0.8 -1.5,-0.6 -1.3,-1.1 -3.1,-1.2 z"
       id="path1167-0"
       style="fill:#ff7043;fill-opacity:1" />
    <path
       class="st2"
       d="m 254.52604,63.953871 c -4.4,0.3 -10.2,3 -13.1,12 -2.9,9 -3,9.3 -5,11.2 0,0 3.6,7.2 13.8,5.4 0,0 2.1,-17.1 5.5,-20.7 4.8,-5.1 9.9,-4.3 12.3,-2.8 0,0 -5.8,-5.7 -13.5,-5.1 z"
       id="path1169-5"
       style="fill:#ffccbc" />
    <path
       class="st0"
       d="m 289.42604,40.853871 c 0,0 -10.6,-4.2 -16.3,-0.4 -5.4,3.6 -7.1,8 -9,12 -1.9,4.1 -3.6,6.2 -6.2,8.8 l 10.2,2.8 c 0,0 2,0.2 4.3,-4.9 2.3,-5.1 3.3,-13.4 7.2,-15.4 3.9,-2.1 9.8,-2.9 9.8,-2.9 z"
       id="path1171-0"
       style="fill:#ff7043" />
    <path
       class="st3"
       d="m 218.22604,82.153871 c 0,0 3.9,-0.1 8,1.9 4.1,2 8.9,4.2 11.4,1.7 0,0 0.7,0.4 2.2,2.3 1.2,1.5 3.4,2.4 6,2.6 3.1,0.3 4.3,1.8 4.3,1.8 0,0 0.6,5.1 -6.8,2.8 -7.4,-2.3 -7.8,-5.5 -13.7,-8.4 -5.9,-2.9 -11.4,-4.7 -11.4,-4.7 z"
       id="path1173-5"
       style="fill:#ffccbc;fill-opacity:1" />
    <path
       d="m 257.92604,61.253871 c -0.5,0.5 -1.7,0.7 -5.7,-0.4 -2.5,-0.6 -4.6,-0.6 -6.7,-0.1 0,0 5.2,0.1 9.8,2.9 0,0 4.3,0.9 7.4,2.4 2,1 5.2,-1.1 5.4,-2.5 0.2,-1.4 -4.5,-1.2 -6.3,-1.9 -2.3,-0.8 -1.9,-2.7 -3.9,-0.4 z"
       id="path1175-4"
       style="fill:#ff7043;fill-opacity:1" />
    <path
       class="st2"
       d="m 229.62604,86.853871 c 0,0 -7.3,-6.4 -13.6,-4.4 -6,1.9 -13.5,7.8 -19.5,22.299999 0,0 4.3,4.6 10.2,6.1 0,0 9.5,-23.899999 22.9,-23.999999 z"
       id="path1177-9"
       style="fill:#ffccbc" />
    <path
       class="st0"
       d="m 239.82604,94.153871 c 0,0 -7,-9.4 -15,-7.4 -8,2 -14.9,13.299999 -18,24.099999 0,0 4.6,3.9 9.8,6.3 0,0 6.2,-17.399999 10.2,-20.599999 3.7,-3 5.8,-5.6 11.9,-2.3 z"
       id="path1179-0"
       style="fill:#ff7043" />
    <path
       class="st2"
       d="m 296.72604,44.753871 c 0,0 -6.9,-5.2 -12.5,-4.9 -5.6,0.3 -7.8,4.5 -9.9,9.2 -2.1,4.7 -4,12.4 -8.7,16.1 0,0 5,3.4 9,4.3 3.9,0.9 5.2,-3.2 5.7,-8.7 0.5,-5.5 0.7,-11.9 3.6,-14.7 3.5,-3.5 5.7,-2.8 12.8,-1.3 z"
       id="path1181-1"
       style="fill:#ffccbc" />
    <path
       class="st3"
       d="m 255.32604,63.753871 c 0,0 4,0 6.8,1 2.9,1 3.6,0.6 4.8,-0.6 1.5,-1.4 2.5,2 3.9,2.8 2.2,1.1 5.8,0.1 6.7,0.5 0.7,0.3 1.4,0.8 0.6,1.8 -0.8,1 0,2.9 -2.3,2 -5.8,-2.5 -12.7,-3.5 -12.7,-3.5 0,0 -2.2,-2.6 -7.8,-4 z"
       id="path1185-6"
       style="fill:#ffccbc;fill-opacity:1" />
    <path
       class="st0"
       d="m 302.52604,56.653871 c 0.7,-0.8 0.8,-1.9 0.4,-2.8 -1.5,-3.7 -6.1,-12.8 -14.6,-11.8 -8.2,0.9 -8.4,12.7 -8.6,16.7 -0.2,4 -0.5,7.5 -2.6,10.8 -2,3.1 7.4,8.1 8.9,2.5 1.4,-5.6 0.8,-14.7 3,-19.2 2.2,-4.5 3.7,-4.9 5.8,-4.8 2.1,0.3 1.5,-1.7 7.7,8.6 z"
       id="path1187-1"
       style="fill:#ff7043" />
    <path
       class="st1"
       d="m 278.02604,67.953871 c 0,0 -0.9,3.6 -3.9,2.4 -3.2,-1.3 -6.5,-3 -11,-2.6 0,0 4.7,-0.1 9.5,4.9 0,0 6.9,4.7 10.1,3.6 3.2,-1.1 3.4,-4.7 3.4,-4.7 0,0 -0.2,-1 -2.8,-0.8 -2.5,0.1 -4,-3.7 -5.3,-2.8 z"
       id="path1189-3"
       style="fill:#ff7043;fill-opacity:1" />
    <path
       class="st0"
       d="m 272.62604,72.653871 c 0,0 -3.6,-4.7 -9.5,-4.9 -5.9,-0.2 -9.3,4.7 -11.2,9.4 -2,5 -0.4,18 -5.4,17.9 0,0 3.1,3.9 6.6,4.2 0,0 6.5,-0.2 7.5,-12.5 1,-12.3 3.6,-15.3 12,-14.1 z"
       id="path1191-1"
       style="fill:#ff7043" />
    <path
       d="m 302.52604,56.653871 -12.3,-5.9 c 0,0 2.2,-4.6 7.3,-2.4 3.4,1.5 5,8.3 5,8.3 z"
       id="path2225-3"
       style="fill:#db4437;fill-opacity:1" />
    <path
       d="m 248.22604,94.353871 c 0,0 -1.7,1.4 -5.8,0 -4.8,-1.7 -6.9,-6.1 -12.3,-7.4 0,0 4.6,3.6 8.9,7.6 4.4,4 9,5.599999 12.8,5.499999 3.9,0 4.7,-1.999999 5.3,-3.299999 0.6,-1.3 -2.2,-0.9 -3.8,-0.9 -1.6,0 -2.9,-3.7 -5.1,-1.5 z"
       id="path1193-5"
       style="fill:#ff7043;fill-opacity:1" />
    <path
       class="st1"
       d="m 302.52604,56.653871 c 0,0 -3.1,-11 -9.1,-8.1 -6.9,3.4 -3,25.7 -9.5,28.3 -6.5,2.7 -13.9,-7.1 -19.1,-1.9 -5.2,5.2 -0.4,23.2 -11.5,25.899999 -10.1,2.5 -15.2,-9.199999 -21.4,-7.099999 -6.4,2.1 -9.1,8.699999 -13.3,22.699999 l -2.3,0.6 c 0,0 4,-22.799999 13.9,-25.299999 8.2,-2.1 14.8,9.799999 22.6,7.4 10.5,-3.2 5.1,-24.5 11.9,-27.2 6.8,-2.7 14.5,5.9 18.7,3.4 4.2,-2.6 1.9,-26 8.5,-28.7 6.1,-2.5 9.5,3.9 10.8,7.1 0.6,1 0.5,2.1 -0.2,2.9 z"
       id="path1183-8"
       style="fill:#ff7043;fill-opacity:1" />
  </g>
  <g
     id="g4081"
     transform="translate(0,-2)">
    <path
       id="path1135"
       class="st0"
       d="m 84.185547,14.580078 c -1.580275,0.0043 -3.094142,0.263673 -4.384766,0.919922 -5.499994,2.799997 -6.700002,6.999222 -9,10.699219 -2.035028,3.422548 -2.787874,4.330193 -4.714864,4.876849 -2.062025,0.584965 -3.48553,0.42354 -7.185526,-0.976459 -2.187564,-0.856003 -4.193713,-1.076276 -6.105469,-0.83789 -0.543515,0.0079 -1.080978,0.04216 -1.595703,0.138672 -4.599996,0.899999 -8.498831,4.898834 -10.798828,10.798828 -1.823279,4.514786 -3.197037,7.294625 -5.751953,8.210937 -0.01712,-0.003 -0.03132,-0.0068 -0.04883,-0.0098 0,0 -2.69883,0.299217 -4.798828,-0.800782 -3.799996,-2.099998 -6.401567,-3.899218 -11.601562,-3.699218 0,0 0.069,0.01077 0.179687,0.0332 -1.353457,0.118218 -4.131929,0.652121 -7.779297,2.966797 C 4.7996152,50.600387 0.59960938,59.300781 0.59960938,59.300781 0.39960957,64.400776 6,67.099609 6,67.099609 c 0,0 2.0996164,-6.099225 9.099609,-13.199218 C 23.299601,45.700399 27.199219,48.5 27.199219,48.5 c -0.03924,-0.04557 -0.08132,-0.08612 -0.121094,-0.130859 2.192074,1.054125 8.857007,4.241195 11.621094,5.330078 2.209922,0.937543 3.027733,-0.0071 3.328125,-0.734375 L 42.5,53.199219 c 0,0 7.400396,-15.499221 12.400391,-17.199219 3.439411,-1.1694 7.681772,-1.482024 10.02539,-1.566406 1.138666,0.503327 2.394602,1.109906 3.47461,1.765625 1.717354,0.994258 4.496298,-0.215862 5.236328,-1.417969 l 0.263672,0.119141 c 0,0 1.899221,0.398823 4.699218,-4.201172 2.799998,-4.599996 4.199614,-9.599221 8.09961,-11.199219 3.899996,-1.599998 9.601562,-1.699219 9.601562,-1.699219 0,0 -6.471395,-3.235962 -12.115234,-3.220703 z"
       sodipodi:nodetypes="sccsccccccccccccccccccsccccsscs" />
    <path
       class="st2"
       d="M 60.8,33.2 C 56.6,33 50.7,35 47,43.3 c -3.7,8.3 -3.9,8.6 -6,10.2 0,0 2.7,7.3 12.6,6.7 0,0 3.8,-16.1 7.5,-19.2 5.2,-4.3 9.9,-3.1 12.1,-1.3 0,-0.1 -4.9,-6.1 -12.4,-6.5 z"
       id="path1139" />
    <path
       style="fill:#db4437;fill-opacity:1"
       d="M 106.33483,32.61499 95.2,28.8 c 0,0 3,-5 6.5,-3.6 5.1,2 4.63483,7.41499 4.63483,7.41499 z"
       id="path3339"
       sodipodi:nodetypes="cccc" />
    <path
       class="st3"
       d="m 24.2,47.6 c 0,0 4.5,0.1 8.2,2.5 3.7,2.3 7.3,4.3 10,2.2 0,0 0.6,0.5 1.9,2.5 1,1.5 3,2.6 5.4,3.1 2.9,0.6 4,2.2 4,2.2 0,0 0.1,4.9 -6.8,1.9 C 41.2,59.5 38.8,56.7 35.7,54 35,53.4 34.4,52.9 33.4,52.3 27.9,48.9 24.2,47.6 24.2,47.6 Z"
       id="path1143"
       style="fill:#ffccbc;fill-opacity:1" />
    <path
       class="st2"
       d="m 34.6,52.9 c 0,0 -6.3,-6.4 -12.6,-5.2 -6,1.2 -12.7,4.8 -18,18 0,0 2.7,5 6.5,6.8 0,0.1 11.2,-20.9 24.1,-19.6 z"
       id="path1147" />
    <path
       class="st2"
       d="m 102.3,22.9 c 0,0 -4.5,-6 -10.9,-6.5 -6.2,-0.5 -9,2.3 -11.4,7.6 -2,4.5 -3.8,8.7 -8.7,11.7 0,0 4.5,3.8 8.1,5 3.6,1.3 5.3,-2.5 6.4,-7.7 1,-5.2 1.5,-8.4 4.6,-10.8 3.8,-2.9 5.3,-1.6 11.9,0.7 z"
       id="path1151" />
    <path
       style="fill:#ff7043;fill-opacity:1"
       d="m 106.4,33.2 c 0,0 -1,-9.7 -7,-7.5 -7,2.5 -5.2,21.4 -11.7,23.2 -6.5,1.8 -12.5,-8.2 -18,-3.9 -5.5,4.4 -2.9,22.2 -13.8,23.6 -10,1.3 -14,-7.8 -20.1,-6.5 -6.4,1.3 -9.3,4.7 -14.8,17.6 L 18.7,80 c 0,0 6.7,-19 16.4,-20.3 7.6,-1 11.9,8.8 20.5,7.2 C 66.1,65 63.2,44 69.9,42.2 c 6.7,-1.8 13.2,7.3 17.5,5.2 4.3,-2.1 4.3,-21.8 10.8,-23.7 7.9,-2.3 8.2,8.5 8.2,8.5 z"
       id="path1153" />
    <path
       class="st3"
       d="m 61.7875,33.334375 c 0,0 3.7125,0.265625 6.2125,1.465625 2.7,1.3 3.4,0.9 4.7,-0.1 1.6,-1.2 2.1,2.2 3.4,3.1 1.9,1.3 5.5,0.7 6.3,1.2 0.6,0.4 1.3,0.9 0.4,1.8 -0.9,0.9 -0.3,2.8 -2.4,1.6 -5.3,-2.9 -11.8,-4.6 -11.8,-4.6 0,0 -1.5125,-2.465625 -6.8125,-4.465625 z"
       id="path1155"
       style="fill:#ffccbc;fill-opacity:1"
       sodipodi:nodetypes="cccccsccc" />
    <path
       id="path1149"
       class="st0"
       d="M 94.546875,18.779297 C 88.915454,18.850345 86.081249,27.318754 85.5,31 c -0.501585,3.176707 -1.076053,6.00296 -2.59375,8.597656 -0.002,8.82e-4 -0.0039,0.0011 -0.0059,0.002 0,0 -0.01022,0.02354 -0.01172,0.02734 -0.293425,0.498953 -0.618293,0.990063 -0.988281,1.472656 -0.01439,0.01832 -0.02362,0.03808 -0.03711,0.05664 -0.662437,0.638341 -1.643889,1.076529 -2.96289,0.34375 -2.858923,-1.524759 -5.879338,-3.294857 -9.964844,-3.544922 -0.111249,-0.0191 -0.222469,-0.03876 -0.335938,-0.05469 -5.599994,-0.8 -9.399221,3.498832 -11.699218,7.798828 -2.046576,3.683836 -2.285466,12.859187 -4.9375,15.683593 -0.147907,0.08126 -0.301961,0.183465 -0.462891,0.316407 0,0 -1.800004,1.100779 -5.5,-0.699219 -4.499995,-2.099998 -5.900397,-5.699221 -11.900391,-8.199219 0,0 0.07984,0.05803 0.126953,0.0918 C 32.789207,52.305193 31.299073,52.0165 29.800781,52.199219 21.900789,53.199218 14.600386,62.50001 10.400391,72.5 c 0,0 3.498833,4.700003 8.298828,7.5 0,0 7.800394,-14.999221 11.90039,-17.699219 3.799997,-2.499997 7.000005,-3.199997 12,0 l 0.08984,0.05078 c 2.821998,4.842878 8.049605,4.752618 11.710938,5.148438 3.160693,0.341697 4.350173,-0.921234 5.066406,-2.044922 1.754734,-1.449482 3.669616,-4.24785 4.732422,-9.654297 2.068634,-10.523054 4.545188,-13.683802 10.769531,-12.685547 0.331002,0.383997 0.665553,0.784702 1.005859,1.22461 0,0 7.425004,4.359765 10.625,3.759765 3.199997,-0.699999 3.800782,-4.199218 3.800782,-4.199218 0,0 -0.0082,-0.06799 -0.06055,-0.167969 1.760046,-5.031674 1.865999,-10.607426 4.259765,-14.533203 2.599998,-3.999996 4.099612,-4.3 6.099611,-4 1.78259,0.356517 3.55889,-1.198142 5.05664,4.048828 l -0.29883,-1.236328 c 0,0 -2.35743,-8.510938 -10.357421,-9.210938 -0.187499,-0.01563 -0.371075,-0.02378 -0.552734,-0.02148 z m 11.208985,10.46875 0.53516,2.220703 c -0.17393,-0.858775 -0.35249,-1.580762 -0.53516,-2.220703 z" />
  </g>
</svg>
