<?xml version="1.0" encoding="UTF-8" standalone="no"?>
<svg
   width="100%"
   height="100%"
   viewBox="0 0 128 128"
   version="1.1"
   xml:space="preserve"
   style="fill-rule:evenodd;clip-rule:evenodd;stroke-linejoin:round;stroke-miterlimit:1.41421;"
   id="svg38827"
   sodipodi:docname="emoji_u1f9bb_1f3fc.svg"
   inkscape:version="1.2.2 (732a01da63, 2022-12-09)"
   xmlns:inkscape="http://www.inkscape.org/namespaces/inkscape"
   xmlns:sodipodi="http://sodipodi.sourceforge.net/DTD/sodipodi-0.dtd"
   xmlns="http://www.w3.org/2000/svg"
   xmlns:svg="http://www.w3.org/2000/svg"><defs
   id="defs38831"><inkscape:path-effect
     effect="skeletal"
     id="path-effect39116"
     is_visible="true"
     lpeversion="1"
     pattern="m -11.999388,23.835268 c -21.547255,-7.9e-5 -22.941981,1.268766 -22.941978,2.833932 1e-6,1.565166 1.39473,2.834011 22.941978,2.833931 21.5456952,-8e-5 22.938,-1.268878 22.938001,-2.833931 10e-7,-1.565054 -1.3923008,-2.833852 -22.938001,-2.833932 z"
     copytype="single_stretched"
     prop_scale="1"
     scale_y_rel="false"
     spacing="0"
     normal_offset="0"
     tang_offset="0"
     prop_units="false"
     vertical_pattern="false"
     hide_knot="false"
     fuse_tolerance="0" /></defs><sodipodi:namedview
   id="namedview38829"
   pagecolor="#ffffff"
   bordercolor="#000000"
   borderopacity="0.25"
   inkscape:showpageshadow="2"
   inkscape:pageopacity="0.0"
   inkscape:pagecheckerboard="0"
   inkscape:deskcolor="#d1d1d1"
   showgrid="false"
   showguides="true"
   inkscape:zoom="2.9996795"
   inkscape:cx="-13.834811"
   inkscape:cy="84.675713"
   inkscape:window-width="1366"
   inkscape:window-height="697"
   inkscape:window-x="-8"
   inkscape:window-y="-8"
   inkscape:window-maximized="1"
   inkscape:current-layer="svg38827" />
    <g
   transform="matrix(1.8144543,0.32228393,-0.32228393,1.8144543,-73.428105,-91.149743)"
   id="g38801"
   style="fill:#616161;fill-opacity:1;stroke-width:0.542636">
        <path
   d="m 113.857,61.912 c 0,-0.828 -0.672,-1.499 -1.5,-1.499 -1.221,0 -2.744,0 -2.744,0 v 6.258 c 0,0 1.523,0 2.744,0 0.828,0 1.5,-0.671 1.5,-1.499 0,-0.987 0,-2.273 0,-3.26 z"
   style="fill:#616161;fill-opacity:1;stroke-width:0.542636"
   id="path38799" />
    </g>
    
    <path
   style="fill:#9e9e9e;stroke-linecap:round"
   d="m 51.72542,12.022099 c 0,0 3.771639,-8.4861874 20.390424,-8.4861874 16.618784,0 35.830576,9.6648254 35.830576,43.6095764 0,17.915285 -10.26932,39.697122 -24.4375,39.697122 -2.166898,0 -2.553297,-4.16121 -2.553297,-4.16121 l 6.053671,-38.009962 z"
   id="path39535" /><g
   transform="matrix(0.944438,0,0,0.944438,-3.19592,7.0875)"
   id="g38809">
        <path
   d="M105.02,48.58C106.9,22.52 87.03,5.87 62.81,4.12C38.59,2.37 22.46,20.4 22.86,46.51C23.15,65.55 37.3,66.04 40.63,82.69C41.77,88.41 28.83,123.74 45.96,123.99C92.33,124.67 82.71,98.4 90.36,84.92C96.78,73.64 103.91,63.88 105.02,48.58Z"
   style="fill:#e0bb95;fill-rule:nonzero;fill-opacity:1"
   id="path38807" />
    </g>
    <g
   transform="matrix(0.944438,0,0,0.944438,-3.19592,7.0875)"
   id="g38813">
        <path
   d="M65.24,13.98C53.82,13.15 43.3,20.5 37.13,30.93C36.51,31.97 37.95,33 38.75,32.08C45.56,24.22 55.31,19.39 64.62,20.07C81.25,21.27 92.56,30.16 91.27,48.05C90.51,58.55 85,65.62 80.61,73.36C77.78,78.35 79.49,90.83 75.73,101.1C75.31,102.24 76.92,102.97 77.54,101.92C83.04,92.58 82.64,80.36 85.91,74.59C90.72,66.13 96.07,58.81 96.9,47.33C98.31,27.79 83.41,15.29 65.24,13.98Z"
   style="fill:#c48e6a;fill-rule:nonzero;fill-opacity:1"
   id="path38811" />
    </g>
    <g
   transform="matrix(0.944438,0,0,0.944438,-3.19592,7.0875)"
   id="g38817">
        <path
   d="M39.71,58.64C35.92,68.53 48.3,69.07 49.57,72.88C50.43,75.47 49.86,82.13 49.41,86.14C49.3,87.14 50.55,87.67 51.19,86.9C54.69,82.67 60.97,73.65 58.88,65.44C56.03,54.24 43.5,48.74 39.71,58.64ZM53.29,40.82C61.49,44.34 71.14,51.12 71.13,63.47C71.13,64.7 72.88,64.85 73.1,63.64C74.8,54.28 72.41,43.13 53.92,38.94C52.75,38.67 52.18,40.34 53.29,40.82Z"
   style="fill:#c48e6a;fill-rule:nonzero;fill-opacity:1"
   id="path38815" />
    </g>
    <g
   transform="matrix(0.874533,0,0,0.874533,22.1905,8.94654)"
   id="g38821">
        <circle
   cx="25.677"
   cy="66.006"
   r="5.683"
   style="fill:rgb(153,153,153);"
   id="circle38819" />
    </g>
    <g
   transform="matrix(1.49647,0,0,1.49647,-38.5247,-28.2439)"
   id="g38825">
        
    </g>
<path
   style="fill:#616161;stroke-linecap:round"
   d="m 26.405158,29.989433 c -0.473722,1.867634 -0.756129,3.700393 -0.885836,5.452864 -0.692262,8.371816 1.482516,14.990108 4.243906,19.481756 2.257496,3.552742 4.901691,6.209581 6.581226,7.752996 1.786886,1.642065 3.310202,2.779096 4.266015,3.404785 2.039599,1.33515 2.666738,1.170076 3.060863,0.758639 0.402702,-0.420389 0.519764,-1.039445 -0.887809,-3.020389 C 41.379679,61.844387 37.783012,58.860832 34.221939,52.28636 32.127224,48.568471 30.580847,43.142412 31.1534,35.898657 c 0.129889,-1.452478 0.374754,-2.972252 0.763607,-4.515225 1.39886,-5.550691 4.15767,-9.569905 7.149941,-12.116816 0,0 3e-6,-10e-7 3e-6,-10e-7 3.727093,-3.333794 8.236796,-5.056743 11.084539,-5.998244 2.57991,-0.852953 6.031578,-1.714395 7.076879,-2.002879 3.227531,-0.890742 3.653766,-1.4426623 3.611508,-2.0978485 -0.04226,-0.6551866 -0.497569,-1.3289336 -4.039558,-1.3885199 -1.632253,-0.027459 -4.464262,0.1156239 -7.923103,0.9265171 -3.307672,0.775453 -8.479532,2.4633903 -13.342695,6.3732433 1e-6,2e-6 -3e-6,3e-6 -3e-6,3e-6 -3.862326,3.235078 -7.428601,8.205361 -9.12936,14.910546 z"
   id="path39101"
   sodipodi:nodetypes="czc" /></svg>
