<?xml version="1.0" encoding="UTF-8" standalone="no"?>
<svg
   width="100%"
   height="100%"
   viewBox="0 0 128 128"
   version="1.1"
   xml:space="preserve"
   style="fill-rule:evenodd;clip-rule:evenodd;stroke-linejoin:round;stroke-miterlimit:2;"
   id="svg7"
   sodipodi:docname="emoji_u1f92c.svg"
   inkscape:version="1.3 (0e150ed6c4, 2023-07-21)"
   xmlns:inkscape="http://www.inkscape.org/namespaces/inkscape"
   xmlns:sodipodi="http://sodipodi.sourceforge.net/DTD/sodipodi-0.dtd"
   xmlns:xlink="http://www.w3.org/1999/xlink"
   xmlns="http://www.w3.org/2000/svg"
   xmlns:svg="http://www.w3.org/2000/svg"><sodipodi:namedview
   id="namedview7"
   pagecolor="#ffffff"
   bordercolor="#000000"
   borderopacity="0.25"
   inkscape:showpageshadow="2"
   inkscape:pageopacity="0.0"
   inkscape:pagecheckerboard="0"
   inkscape:deskcolor="#d1d1d1"
   inkscape:zoom="1.3915399"
   inkscape:cx="-0.71862833"
   inkscape:cy="59.646151"
   inkscape:current-layer="svg7" />&#10;    &#10;    &#10;    &#10;    &#10;    &#10;    &#10;    <defs
   id="defs7">&#10;        <radialGradient
   id="_Radial2"
   cx="0"
   cy="0"
   r="1"
   gradientUnits="userSpaceOnUse"
   gradientTransform="matrix(64,0,0,47.6377,64,47.6377)"><stop
     offset="0"
     style="stop-color:rgb(219,68,55);stop-opacity:1"
     id="stop6" /><stop
     offset="1"
     style="stop-color:#fcc21b;stop-opacity:1;"
     id="stop7" /></radialGradient>&#10;    &#10;	&#10;	&#10;&#10;		&#10;		&#10;		&#10;		&#10;	&#10;		&#10;		&#10;	&#10;			&#10;		&#10;			&#10;		<linearGradient
   inkscape:collect="always"
   xlink:href="#_Radial2"
   id="linearGradient10"
   x1="64.014992"
   y1="14.53"
   x2="64.00499"
   y2="113.47"
   gradientUnits="userSpaceOnUse" /></defs>&#10;<path
   fill="#fcc21b"
   d="m 112.76499,37.62 h -0.01 c -10.07,-13.75 -29.04,-23.09 -48.74,-23.09 -19.7,0 -38.66,9.34 -48.74,23.09 h -0.01 c 0,0 -14.99,12.21 -14.99,31.27 0,19.52 12.7,28.79 12.7,28.79 0,0 0.04,0.01 0.05,0.01 5.53,9.05 26.23,15.78 50.98,15.78 24.76,0 45.45,-6.73 50.98,-15.78 0.01,0 0.05,-0.01 0.05,-0.01 0,0 12.69,-9.27 12.69,-28.79 0.02,-19.06 -14.96,-31.27 -14.96,-31.27 z"
   id="path1-0"
   style="fill:url(#linearGradient10)" /><path
   fill="#2f2f2f"
   d="m 85.26499,56.89 c -5.95,7.13 -2.84,14.07 -2.7,14.36 0.4,0.88 0.03,1.92 -0.85,2.33 -0.24,0.11 -0.49,0.17 -0.74,0.17 -0.66,0 -1.28,-0.37 -1.58,-1 -0.1,-0.22 -1.54,-3.37 -1.2,-7.73 -0.15,-0.06 -0.3,-0.04 -0.43,-0.13 -0.02,-0.01 -4.02,-2.59 -12.87,-2.35 -8.92,0.24 -12.29,2.27 -12.33,2.29 -0.34,0.21 -0.71,0.27 -1.08,0.27 0.3,4.31 -1.1,7.43 -1.21,7.64 -0.3,0.63 -0.93,1 -1.58,1 -0.25,0 -0.51,-0.06 -0.75,-0.17 -0.86,-0.42 -1.24,-1.46 -0.83,-2.33 0.14,-0.29 3.25,-7.23 -2.71,-14.36 -0.62,-0.74 -0.53,-1.85 0.22,-2.47 0.74,-0.62 1.84,-0.52 2.46,0.22 1.87,2.24 3.01,4.47 3.67,6.57 1.24,-0.67 5.33,-2.48 14.03,-2.71 7.7,-0.19 12.28,1.52 14.21,2.46 0.67,-2.02 1.78,-4.18 3.58,-6.33 0.61,-0.74 1.72,-0.84 2.47,-0.22 0.74,0.64 0.84,1.75 0.22,2.49 z"
   id="path46" /><path
   fill="#2f2f2f"
   d="m 96.00499,32.92 c -0.23,-0.67 -0.74,-1.2 -1.38,-1.48 -0.65,-0.28 -1.38,-0.27 -2.02,0.03 l -16.29,7.44 c 0,0 -1.06,0.5 -2.15,0.48 -2.24,-0.03 -2.48,-1.33 -3.06,-2.31 -0.27,-0.47 -0.92,-0.94 -1.54,-0.68 -1.06,0.44 -0.99,2.75 -0.91,3.33 0.24,1.71 0.74,3.04 1.22,4 0.58,1.17 1.89,2.78 2.33,3.22 2.42,2.41 6.58,3.91 10.81,3.67 1.74,-0.1 3.42,-0.48 4.99,-1.12 8.83,-3.63 9.63,-11.91 8,-16.58 z"
   id="path47" /><path
   fill="#2f2f2f"
   d="m 33.44499,32.92 c 0.23,-0.67 0.74,-1.2 1.38,-1.48 0.65,-0.28 1.38,-0.27 2.03,0.03 l 16.29,7.44 c 0,0 1.06,0.5 2.15,0.48 2.24,-0.03 2.48,-1.33 3.05,-2.31 0.27,-0.47 0.92,-0.94 1.55,-0.68 1.06,0.44 0.99,2.75 0.91,3.33 -0.24,1.71 -0.74,3.04 -1.21,4 -0.58,1.17 -1.89,2.78 -2.33,3.22 -2.43,2.41 -6.58,3.91 -10.82,3.67 -1.75,-0.1 -3.42,-0.48 -4.99,-1.12 -8.84,-3.63 -9.63,-11.91 -8.01,-16.58 z"
   id="path48" /><g
   id="g9"
   transform="translate(177.015,117.54001)"><path
     d="m -71.889154,-61.7572 c 0,-0.386 -0.314,-0.7 -0.7,-0.7 h -79.184996 c -0.386,0 -0.7,0.314 -0.7,0.7 v 15.881 c 0,0.386 0.314,0.7 0.7,0.7 h 79.184996 c 0.386,0 0.7,-0.314 0.7,-0.7 z"
     style="fill:#441400"
     id="path6" /><g
     transform="translate(-149.81015,-45.6112)"
     id="g6">&#10;        <text
   x="0"
   y="0"
   style="font-weight:700;font-size:24.83px;font-family:ComicNeue-Bold, 'Comic Neue';fill:#ffffff;fill-opacity:0.91"
   id="text6">%#!$&amp;</text>&#10;    </g></g></svg>
