<?xml version="1.0" encoding="UTF-8" standalone="no"?>
<svg
   width="128"
   height="128"
   version="1.1"
   id="svg4"
   sodipodi:docname="emoji_u1f6b1.svg"
   inkscape:version="1.3 (0e150ed6c4, 2023-07-21)"
   xmlns:inkscape="http://www.inkscape.org/namespaces/inkscape"
   xmlns:sodipodi="http://sodipodi.sourceforge.net/DTD/sodipodi-0.dtd"
   xmlns="http://www.w3.org/2000/svg"
   xmlns:svg="http://www.w3.org/2000/svg">
  <defs
     id="defs4" />
  <sodipodi:namedview
     id="namedview4"
     pagecolor="#ffffff"
     bordercolor="#000000"
     borderopacity="0.25"
     inkscape:showpageshadow="2"
     inkscape:pageopacity="0.0"
     inkscape:pagecheckerboard="0"
     inkscape:deskcolor="#d1d1d1"
     inkscape:zoom="4.0546875"
     inkscape:cx="53.271676"
     inkscape:cy="63.506744"
     inkscape:window-width="1366"
     inkscape:window-height="697"
     inkscape:window-x="-8"
     inkscape:window-y="-8"
     inkscape:window-maximized="1"
     inkscape:current-layer="svg4" />
  <ellipse
     cx="64"
     cy="64.7"
     rx="61.69"
     ry="61.69"
     fill="#006ca2"
     id="ellipse1" />
  <path
     d="M64 128C28.71 128 0 99.29 0 64S28.71 0 64 0s64 28.71 64 64-28.71 64-64 64zm0-117.11c-29.29 0-53.11 23.83-53.11 53.11 0 29.29 23.83 53.11 53.11 53.11S117.11 93.29 117.11 64 93.29 10.89 64 10.89z"
     fill="#db4437"
     id="path4" />
  <g
     id="g8"
     transform="matrix(0.82676776,0,0,0.82676776,7.9120708,7.5202686)"
     style="stroke-width:1.20953">&#10;	<g
   id="g5"
   style="stroke-width:1.20953">&#10;		<g
   id="g2"
   style="stroke-width:1.20953">&#10;			<path
   id="path1-6"
   style="fill:#ffffff;fill-opacity:1;stroke-width:1.20952"
   d="m 34.384766,89.076172 c -0.978875,0.642449 -2.337562,1.494297 -2.076172,2.859375 1.026988,2.054154 3.393718,2.878928 5.459142,3.489132 4.63998,1.177105 9.763756,0.984626 14.113123,-1.121945 1.014491,-0.612132 2.224296,-1.331679 2.546875,-2.548828 0.108769,-1.058483 -0.853372,-1.782336 -1.595703,-2.326172 -2.849355,2.252093 -6.621488,2.784343 -10.153469,2.709582 -2.960606,-0.07015 -5.956245,-1.135443 -8.153171,-3.143175 l -0.08638,0.05039 z" />
&#10;			<path
   id="path2-1"
   style="fill:#ffffff;fill-opacity:1;stroke-width:1.20953"
   d="m 34.669505,114.29527 c 0.541618,1.62456 2.222262,2.31345 3.624732,2.81546 3.100396,0.91746 6.431541,0.94171 9.559265,0.16157 1.548349,-0.47452 3.341394,-1.11195 4.130026,-2.75437 0.987935,-5.02803 2.16561,-12.34254 2.16561,-12.34254 -7.507367,2.539 -13.448428,3.06786 -21.17184,0.26158 z"
   sodipodi:nodetypes="ccccccc" />
&#10;		</g>
&#10;		<g
   id="g4"
   style="stroke-width:1.20953">&#10;			<path
   fill="#78a3ad"
   d="m 43.35,101.65 c -10.22,0 -18.22,-4.64 -18.22,-10.56 0,-5.92 8,-10.55 18.22,-10.55 10.22,0 18.22,4.64 18.22,10.55 0,5.92 -8,10.56 -18.22,10.56 z m 0,-17.91 c -8.85,0 -15.02,3.88 -15.02,7.35 0,3.48 6.17,7.35 15.02,7.35 8.85,0 15.02,-3.88 15.02,-7.35 0,-3.48 -6.16,-7.35 -15.02,-7.35 z"
   id="path3-4"
   style="fill:#ffffff;fill-opacity:1;stroke-width:1.20953" />
&#10;			<path
   fill="#78a3ad"
   d="m 43.35,123.22 c -7.65,0 -13.28,-3.2 -14.33,-8.14 L 25.15,91.36 c -0.14,-0.87 0.45,-1.7 1.32,-1.84 0.92,-0.13 1.7,0.45 1.84,1.32 l 3.85,23.65 c 0.7,3.28 5.2,5.53 11.18,5.53 5.88,0 10.49,-2.31 11.2,-5.61 l 3.84,-23.57 c 0.14,-0.87 0.91,-1.48 1.84,-1.32 0.87,0.14 1.46,0.96 1.32,1.84 L 57.7,115 c -1.06,4.94 -6.82,8.22 -14.35,8.22 z"
   id="path4-4"
   style="fill:#ffffff;fill-opacity:1;stroke-width:1.20953" />
&#10;		</g>
&#10;	</g>
&#10;	<g
   id="g7"
   style="stroke-width:1.20953">&#10;		<path
   id="path5-7"
   style="fill:#ffffff;fill-opacity:1;stroke-width:1.20953"
   d="m 71.294088,13.408432 c -0.84867,-0.0098 -1.700705,0.095 -2.533203,0.3125 -2.969994,0.769998 -5.68008,2.819694 -6.330078,5.929688 -0.26,1.249998 -0.201639,2.708439 0.318359,3.898437 0.42,0.949998 2.950621,2.681252 0.890625,3.53125 -2.379994,0.989998 -4.729849,-0.400939 -7.089843,-0.710937 -2.549996,-0.34 -5.329458,-0.08906 -7.689454,0.960937 -2.149994,0.949998 -3.08047,3.039067 -3.230468,5.289063 -0.51,7.859984 6.179857,9.821482 12.839843,8.521484 1.289998,-0.25 2.520081,-0.770234 3.830079,-0.990234 1.019996,-0.17 2.280783,-0.590469 3.300781,-0.230469 0.729998,0.25 1.048359,0.680627 1.068359,1.390625 0.03,1.329998 -0.469217,2.64016 0.05078,3.910156 0.58,1.449998 1.240862,2.709533 2.63086,3.519531 2.219996,1.289998 5.158676,1.279297 7.638672,1.279297 3.399992,0 8.40125,-1.419773 8.53125,-5.509765 0.04,-1.229998 0.119607,-2.640471 -0.400391,-3.730469 -1.179998,-2.509994 -2.009681,-3.588908 1.320313,-4.628906 1.429996,-0.44 2.969222,-0.421172 4.449218,-0.451172 3.329994,-0.09 6.981098,0.300306 8.621094,-3.429688 2.069996,-4.76999 -0.949932,-9.969687 -6.169922,-10.179687 -1.849996,-0.07 -3.741644,0.420705 -5.18164,1.470703 -1.469998,1.069998 -3.648989,1.960078 -5.458985,2.080078 -3.239994,0.2 -3.000312,-1.670084 -3.070312,-4.330078 -0.1,-3.399994 -1.120475,-5.36016 -4.230469,-6.910156 -1.287498,-0.64375 -2.691018,-0.975879 -4.105468,-0.992188 z m 3.421875,14.789063 c 0.967919,-0.003 1.90586,0.144141 2.72461,0.46289 2.599997,1.009999 3.890388,3.969846 1.90039,6.089844 -2.169998,2.319998 -6.430471,2.38914 -9.230469,1.369141 -2.679997,-0.969999 -3.649528,-3.998987 -1.269531,-5.958985 1.471249,-1.223748 3.745578,-1.95623 5.875,-1.96289 z m 28.044927,11.753906 c -1.00243,-0.04008 -2.04352,0.07781 -3.041021,0.257812 -0.999998,0.18 -1.600078,0.701565 -2.080078,1.351563 -0.479998,0.669998 -0.820314,1.500002 -1.320312,2.25 -1.409998,2.149996 -3.57977,2.309998 -5.759766,1.25 -0.969998,-0.47 -1.529533,-0.850387 -2.019531,0.349609 -0.31,0.74 -0.290625,1.60008 -0.640625,2.330078 -0.61,1.249998 -1.55969,2.289612 -2.679688,3.09961 -2.379994,1.699996 -5.420552,2.380859 -8.310546,2.380859 -2.779996,0 -6.239225,-9.41e-4 -9.199219,-1.710937 -2.219996,-1.289998 -3.230235,-3.199848 -3.990235,-5.089844 -0.379998,-0.939998 0.07039,-2.611094 -1.099609,-2.871094 -3.039994,-0.679998 -5.149455,2.221567 -6.189453,4.601563 -1.889996,4.36999 -6.380477,6.379693 -10.230469,8.679687 -4.87999,2.919994 -7.879769,6.84962 -9.509765,12.34961 -1.349998,4.56999 -1.691407,9.400633 -1.691407,14.140625 0,2.079996 -0.259683,3.638908 1.570313,4.878906 1.969996,1.329998 4.05141,2.009765 6.441406,2.009766 2.129996,0 4.408676,-0.159534 6.388672,-1.019532 1.159998,-0.499998 2.77125,-1.239299 3.03125,-2.529297 0.619998,-3.229992 -0.221092,-6.541256 0.378906,-9.78125 0.56,-2.979994 2.950317,-4.899298 5.820313,-5.529296 2.619994,-0.58 4.409224,0.479298 6.699218,1.529296 2.569996,1.179998 5.381178,1.791563 8.201172,1.851563 5.26999,0.12 10.470008,-1.021338 13.75,-5.611328 1.239998,-1.719998 1.838754,-5.64844 3.71875,-6.648438 0.899998,-0.479998 2.260471,-0.781562 3.230469,-0.351562 1.649996,0.739998 2.000393,3.170236 3.400391,4.240234 2.119996,1.609998 8.019684,0.88109 9.679684,-1.128906 4.68,-5.649988 4.01975,-17.721026 -0.24023,-23.291016 -1.075,-1.412496 -2.6379,-1.921484 -4.30859,-1.988281 z" />
&#10;		&#10;		&#10;	</g>
&#10;</g>
  <path
     fill="#db4437"
     d="M111.37 102.73l-8.43 8.41-86.31-85.73L25.06 17z"
     id="path3" />
</svg>
