<?xml version="1.0" encoding="UTF-8" standalone="no"?>
<!-- Generator: Adobe Illustrator 25.2.3, SVG Export Plug-In . SVG Version: 6.00 Build 0)  -->

<svg
   version="1.1"
   id="Layer_3"
   x="0px"
   y="0px"
   viewBox="0 0 128 128"
   style="enable-background:new 0 0 128 128;"
   xml:space="preserve"
   sodipodi:docname="emoji_u1f954.svg"
   inkscape:version="1.2.2 (732a01da63, 2022-12-09)"
   xmlns:inkscape="http://www.inkscape.org/namespaces/inkscape"
   xmlns:sodipodi="http://sodipodi.sourceforge.net/DTD/sodipodi-0.dtd"
   xmlns="http://www.w3.org/2000/svg"
   xmlns:svg="http://www.w3.org/2000/svg"><defs
   id="defs11748" /><sodipodi:namedview
   id="namedview11746"
   pagecolor="#ffffff"
   bordercolor="#000000"
   borderopacity="0.25"
   inkscape:showpageshadow="2"
   inkscape:pageopacity="0.0"
   inkscape:pagecheckerboard="0"
   inkscape:deskcolor="#d1d1d1"
   showgrid="false"
   inkscape:zoom="2.1210938"
   inkscape:cx="41.959484"
   inkscape:cy="90.047882"
   inkscape:window-width="1366"
   inkscape:window-height="697"
   inkscape:window-x="-8"
   inkscape:window-y="-8"
   inkscape:window-maximized="1"
   inkscape:current-layer="Layer_3" />
<path
   id="path11719"
   style="fill:#B8885A;"
   d="M 87.28125 7.9511719 C 78.190536 7.6643558 68.113664 10.301959 59.919922 15.939453 C 48.399933 23.869445 42.370773 34.619458 33.800781 39.439453 C 31.940783 40.489452 28.089835 41.270474 19.839844 46.730469 C 11.769852 52.070463 2.2498453 65.319548 3.8398438 82.019531 C 3.978888 83.481814 4.2197197 84.887792 4.5351562 86.248047 C 4.5343782 86.245685 4.5195312 86.210938 4.5195312 86.210938 C 4.5195312 86.210938 7.4297015 103.30946 21.429688 113.43945 C 37.269672 124.89944 54.070708 120.38906 58.970703 119.28906 C 66.240696 117.65906 72.65985 114.32007 79.089844 110.83008 C 85.519837 107.34008 108.37938 96.329983 117.35938 79 C 127.26937 59.880019 124.91093 44.559911 119.96094 33.419922 C 114.72094 21.629934 109.60938 17.300781 109.60938 17.300781 C 109.60938 17.300781 109.61696 17.342546 109.61719 17.34375 C 107.2032 14.932718 104.5764 13.043579 101.96094 11.609375 C 97.835942 9.3481273 92.735678 8.1232615 87.28125 7.9511719 z " />

<path
   style="fill:none;stroke:#B8885A;stroke-miterlimit:10;"
   d="M47.5,118.52"
   id="path11723" />
<path
   style="fill:#875b52;fill-opacity:1"
   d="m 60.165543,83.733536 c 0.06,1.26 4.55,1.16 7.81,0.63 3.45,-0.56 6.3,-0.61 6.78,-1.94 0.48,-1.33 -4.78,-5.96 -7.88,-5.8 -1.94,0.11 -6.8,5.27 -6.71,7.11 z"
   id="path11725" />
<path
   style="fill:#875b52;fill-opacity:1"
   d="m 95.076188,80.27035 c 0.67,0.97 3.45,-0.51 4.47,-1.84 1.020002,-1.33 2.170002,-3.9 1.250002,-4.47 -0.920002,-0.57 -3.550002,-0.56 -4.850002,1.04 -1.29,1.61 -1.54,4.3 -0.87,5.27 z"
   id="path11727" />
<path
   style="fill:#875b52;fill-opacity:1"
   d="m 109.94245,42.994549 c -1.09,-1.92 -3.04,2.62 -3.13,4.19 -0.09,1.57 1.09,2.49 2.4,2.77 1.29,0.27 4.23,-0.79 0.73,-6.96 z"
   id="path11729" />
<path
   style="fill:#875b52;fill-opacity:1"
   d="m 36.623278,99.065267 c -0.88,1.490003 0.57,2.570003 2.04,3.570003 1.16,0.79 4,1.21 4.56,0.33 0.57,-0.88 -0.55,-2.07 -2.67,-3.850003 -1.45,-1.21 -3.05,-1.54 -3.93,-0.05 z"
   id="path11731" />
<path
   style="fill:none;stroke:#513531;stroke-miterlimit:10;"
   d="M43.81,93.79"
   id="path11733" />
<path
   style="fill:#875b52"
   d="m 19.993002,81.646998 c -1.25,0.87 -0.24,4.73 -0.07,5.47 0.17,0.74 5.15,1 5.89,-0.14 0.74,-1.14 -0.82,-2.79 -1.92,-3.94 -1.1,-1.14 -2.65,-2.26 -3.9,-1.39 z"
   id="path11735" />
<path
   style="fill:#875b52"
   d="m 29.600184,66.99954 c 1.54,2.09 4.33,-0.42 4.78,-2.29 0.48,-2.01 -1.21,-3.32 -3.12,-2.13 -1.53,0.94 -2.56,3.21 -1.66,4.42 z"
   id="path11737" />
<path
   style="fill:#875b52"
   d="m 58.713555,44.417643 c -2,-0.84 -2.76,0.92 -3.51,2.7 -0.75,1.78 -3.17,5.02 -1.65,5.47 1.52,0.45 5.1,0.24 5.99,-1.21 0.89,-1.46 1.17,-6.11 -0.83,-6.96 z"
   id="path11739" />

<path
   style="fill:#875b52"
   d="m 80.648453,32.169908 c 0.43,3.2 4.83,4.94 7.42,4.97 2.43,0.03 4.18,-1.55 4.15,-3.16 -0.03,-1.93 -3.17,-2.82 -4.4,-3.3 -2.41,-0.93 -2.97,-2.95 -5.22,-2.23 -2.04,0.66 -2.01,3.23 -1.95,3.72 z"
   id="path11743" />
</svg>
