<?xml version="1.0" encoding="UTF-8" standalone="no"?>
<svg
   width="128"
   height="128"
   version="1.1"
   id="svg6"
   sodipodi:docname="emoji_u1f5b2.svg"
   inkscape:version="1.3 (0e150ed6c4, 2023-07-21)"
   xmlns:inkscape="http://www.inkscape.org/namespaces/inkscape"
   xmlns:sodipodi="http://sodipodi.sourceforge.net/DTD/sodipodi-0.dtd"
   xmlns="http://www.w3.org/2000/svg"
   xmlns:svg="http://www.w3.org/2000/svg">
  <defs
     id="defs6" />
  <sodipodi:namedview
     id="namedview6"
     pagecolor="#ffffff"
     bordercolor="#000000"
     borderopacity="0.25"
     inkscape:showpageshadow="2"
     inkscape:pageopacity="0.0"
     inkscape:pagecheckerboard="0"
     inkscape:deskcolor="#d1d1d1"
     inkscape:zoom="2.867097"
     inkscape:cx="10.81233"
     inkscape:cy="59.816601"
     inkscape:window-width="1366"
     inkscape:window-height="697"
     inkscape:window-x="-8"
     inkscape:window-y="-8"
     inkscape:window-maximized="1"
     inkscape:current-layer="svg6" />
  <path
     d="M17.67 3v2.46c0 8.82 7.15 15.97 15.97 15.97h14.74c8.82 0 15.97 7.15 15.97 15.97v12.42"
     fill="none"
     stroke="#2f2f2f"
     stroke-width="5"
     stroke-linecap="round"
     stroke-linejoin="round"
     stroke-miterlimit="10"
     id="path1" />
  <path
     d="M42.72 128h42.03c7.73 0 14-6.27 14-14V69.98H28.72V114c0 7.73 6.27 14 14 14z"
     fill="#fcc21b"
     id="path2" />
  <circle
     cx="63.74"
     cy="69.98"
     r="35.02"
     fill="#fcc21b"
     id="circle2" />
  <g
     fill="none"
     stroke="#fff"
     stroke-miterlimit="10"
     id="g3">
    <path
       d="M63.74 46.69c12.86 0 23.29 10.43 23.29 23.29s-10.42 23.3-23.29 23.3-23.29-10.43-23.29-23.3 10.43-23.29 23.29-23.29z"
       stroke-width="3"
       id="path3" />
    <circle
       cx="63.74"
       cy="69.98"
       r="23.29"
       stroke-width="4"
       id="circle3" />
  </g>
  <circle
     cx="63.74"
     cy="69.98"
     r="21.34"
     fill="#2f2f2f"
     id="circle4" />
  <circle
     cx="63.74"
     cy="69.98"
     r="16.55"
     fill="#40c0e7"
     id="circle5" />
  <path
     d="M57.41 41.35l-1.18-5.45c-8.71 1.9-16.2 7.05-21.16 14.11l4.54 3.24a29.421 29.421 0 0 1 17.8-11.9zM71.25 35.9l-1.18 5.45c7.33 1.61 13.64 5.95 17.8 11.9l4.54-3.24C87.46 42.95 79.96 37.8 71.25 35.9z"
     fill="#ed6c30"
     id="path6" />
</svg>
