<?xml version="1.0" encoding="UTF-8" standalone="no"?>
<svg
   width="128"
   height="128"
   version="1.1"
   id="svg4"
   sodipodi:docname="emoji_u1f3f3.svg"
   inkscape:version="1.3 (0e150ed6c4, 2023-07-21)"
   xmlns:inkscape="http://www.inkscape.org/namespaces/inkscape"
   xmlns:sodipodi="http://sodipodi.sourceforge.net/DTD/sodipodi-0.dtd"
   xmlns="http://www.w3.org/2000/svg"
   xmlns:svg="http://www.w3.org/2000/svg">
  <defs
     id="defs4" />
  <sodipodi:namedview
     id="namedview4"
     pagecolor="#ffffff"
     bordercolor="#000000"
     borderopacity="0.25"
     inkscape:showpageshadow="2"
     inkscape:pageopacity="0.0"
     inkscape:pagecheckerboard="0"
     inkscape:deskcolor="#d1d1d1"
     inkscape:zoom="4.0546875"
     inkscape:cx="63.876686"
     inkscape:cy="64"
     inkscape:window-width="1366"
     inkscape:window-height="697"
     inkscape:window-x="-8"
     inkscape:window-y="-8"
     inkscape:window-maximized="1"
     inkscape:current-layer="svg4" />
  <path
     d="M122.39 70.58l-17.96-56.65c-.54-1.68-1.95-2.98-3.72-3.41-.42-.1-.84-.14-1.26-.14-1.36 0-2.69.52-3.68 1.47-8.37 8.09-15.71 9.62-26.34 9.62-3.22 0-6.76-.15-10.51-.31-2.94-.13-5.99-.26-9.3-.34-.58-.01-1.15-.02-1.7-.02-26.87 0-35.46 15.71-35.82 16.38a4.84 4.84 0 0 0-.54 2.79l5.89 56.65c.2 1.88 1.47 3.5 3.29 4.18.61.23 1.26.34 1.89.34 1.25 0 2.49-.44 3.46-1.27.09-.07 10.89-8.99 28.14-8.99 2.21 0 4.45.14 6.68.43 8.12 1.04 14.05 1.51 19.23 1.51 16.58 0 28.84-5.16 41-17.25 1.33-1.33 1.81-3.24 1.25-4.99z"
     fill="#e0e0e0"
     id="path1"
     style="fill:#e0e0e0" />
  <path
     fill="#5da5b0"
     d="M20.03 128L8.99 18.81l8.95-.91L29.08 128z"
     id="path2" />
  <circle
     cx="13.46"
     cy="17.33"
     r="8.08"
     fill="#5da5b0"
     id="circle2" />
</svg>
