<?xml version="1.0" encoding="UTF-8" standalone="no"?>
<!-- Generator: Adobe Illustrator 24.1.2, SVG Export Plug-In . SVG Version: 6.00 Build 0)  -->

<svg
   version="1.1"
   id="Layer_3"
   x="0px"
   y="0px"
   viewBox="0 0 128 128"
   style="enable-background:new 0 0 128 128;"
   xml:space="preserve"
   sodipodi:docname="emoji_u1f98d.svg"
   inkscape:version="1.2.2 (732a01da63, 2022-12-09)"
   xmlns:inkscape="http://www.inkscape.org/namespaces/inkscape"
   xmlns:sodipodi="http://sodipodi.sourceforge.net/DTD/sodipodi-0.dtd"
   xmlns:xlink="http://www.w3.org/1999/xlink"
   xmlns="http://www.w3.org/2000/svg"
   xmlns:svg="http://www.w3.org/2000/svg"><defs
   id="defs9816"><linearGradient
     inkscape:collect="always"
     id="linearGradient17763"><stop
       style="stop-color:#999999;stop-opacity:1;"
       offset="0"
       id="stop17759" /><stop
       style="stop-color:#616161;stop-opacity:1;"
       offset="1"
       id="stop17761" /></linearGradient><linearGradient
     inkscape:collect="always"
     id="linearGradient11096"><stop
       style="stop-color:#757575;stop-opacity:1;"
       offset="0"
       id="stop11092" /><stop
       style="stop-color:#616161;stop-opacity:1"
       offset="1"
       id="stop11094" /></linearGradient><linearGradient
     inkscape:collect="always"
     xlink:href="#linearGradient11096"
     id="linearGradient11098"
     x1="70.022644"
     y1="66.339966"
     x2="58.031097"
     y2="61.253284"
     gradientUnits="userSpaceOnUse" /><linearGradient
     inkscape:collect="always"
     xlink:href="#linearGradient17763"
     id="linearGradient17765"
     x1="15.891455"
     y1="30.762431"
     x2="22.588881"
     y2="29.199131"
     gradientUnits="userSpaceOnUse"
     gradientTransform="translate(1.2025963)" /></defs><sodipodi:namedview
   id="namedview9814"
   pagecolor="#ffffff"
   bordercolor="#000000"
   borderopacity="0.25"
   inkscape:showpageshadow="2"
   inkscape:pageopacity="0.0"
   inkscape:pagecheckerboard="0"
   inkscape:deskcolor="#d1d1d1"
   showgrid="false"
   inkscape:zoom="2.9996795"
   inkscape:cx="57.506143"
   inkscape:cy="61.673254"
   inkscape:window-width="1366"
   inkscape:window-height="697"
   inkscape:window-x="-8"
   inkscape:window-y="-8"
   inkscape:window-maximized="1"
   inkscape:current-layer="Layer_3" />





<g
   id="g17751"
   transform="translate(3.0644567,-0.41252302)"><path
     d="m 26.303755,30.366215 c 0,2.777248 -1.439086,5.827362 -4.257451,5.827362 -2.818365,0 -5.632991,-2.33244 -6.074062,-5.076047 -0.616751,-3.808904 2.410936,-5.786245 5.2293,-5.786245 2.814627,0.0037 5.102213,2.253944 5.102213,5.03493 z"
     style="fill:#999999;stroke-width:1"
     id="path9205" /><path
     d="m 20.341829,27.861833 c -1.988555,0.201846 -2.560451,2.545499 -1.87268,3.93973 0.665343,1.345638 2.489431,2.010982 3.704243,1.932486 -0.38874,-0.519566 -0.822334,-1.28957 -1.383017,-2.96788 -0.358837,-1.065297 -0.448546,-2.904336 -0.448546,-2.904336 z"
     style="fill:#2f2f2f;stroke-width:1"
     id="path9209" /></g><g
   id="g9807"
   style="enable-background:new 0 0 128 128">
		<linearGradient
   id="SVGID_26_"
   gradientUnits="userSpaceOnUse"
   x1="75.295"
   y1="116.2814"
   x2="75.295"
   y2="89.4236">
			<stop
   offset="0"
   style="stop-color:#484D51"
   id="stop9729" />
			<stop
   offset="0.3552"
   style="stop-color:#424548"
   id="stop9731" />
			<stop
   offset="0.8542"
   style="stop-color:#343434"
   id="stop9733" />
		</linearGradient>
		<path
   style="fill:#424242"
   d="M85.15,82.83l-20.16,5.9c0,0,2,11.13,2.76,15.12c0.76,3.99,1.14,7.51,0.76,8.75    c-0.38,1.24-3.99,3.71-3.33,6.09c0.67,2.38,6.28,2.95,12.17,2.19c5.9-0.76,6.94-2.85,7.04-5.99c0.1-3.14-2.09-8.84-1.81-10.36    c0.29-1.52,2.66-4.94,2.95-8.65S85.15,82.83,85.15,82.83z"
   id="path9736" />
		<linearGradient
   id="SVGID_27_"
   gradientUnits="userSpaceOnUse"
   x1="27.4961"
   y1="118.1927"
   x2="27.4961"
   y2="54.9534">
			<stop
   offset="0"
   style="stop-color:#484D51"
   id="stop9738" />
			<stop
   offset="0.3552"
   style="stop-color:#424548"
   id="stop9740" />
			<stop
   offset="0.8542"
   style="stop-color:#343434"
   id="stop9742" />
		</linearGradient>
		<path
   style="fill:#424242"
   d="M41.31,61.38L22.63,36.57c0,0-7.56,3-7.99,13.83s2.42,16.97,2.14,21.39    c-0.29,4.42-4.14,8.7-3.85,15.69c0.29,6.99,4.14,17.26,4.14,18.97c0,1.71-0.57,11.32,1.64,13.36c2.01,1.86,6.63,2.33,10.63,2.04    s8.42-1.14,8.42-4.28s-5.27-2.74-5.71-4.42c-0.21-0.83,0.61-1.22,1.09-3.19c0.28-1.11-0.05-2.76-0.05-2.76s7.16-9.89,8.65-16.81    c1.5-6.92-2.5-13.62-2.78-15.83C38.68,72.37,41.31,61.38,41.31,61.38z"
   id="path9745" />
		<linearGradient
   id="SVGID_28_"
   gradientUnits="userSpaceOnUse"
   x1="71.0063"
   y1="-1.4761"
   x2="70.627"
   y2="16.7303">
			<stop
   offset="0.1594"
   style="stop-color:#A9A9A9"
   id="stop9747" />
			<stop
   offset="0.2752"
   style="stop-color:#929394"
   id="stop9749" />
			<stop
   offset="0.427"
   style="stop-color:#7B7E7F"
   id="stop9751" />
			<stop
   offset="0.5899"
   style="stop-color:#6A6E71"
   id="stop9753" />
			<stop
   offset="0.7698"
   style="stop-color:#606568"
   id="stop9755" />
			<stop
   offset="1"
   style="stop-color:#5D6265"
   id="stop9757" />
		</linearGradient>
		<path
   style="fill:url(#linearGradient11098);fill-opacity:1"
   d="M29.62,53.71c-1.01-1.59-4.99-1.43-7.84-5.92s-2.42-9.34-0.93-12.05    c1.24-2.23,2.78-3,2.78-3l0.07-2.14c0,0-2.35-1.43-2.57-4.64s0.86-4.71,3.85-7.13s5.71-4.14,5.71-4.14s-0.29-2.92,0.5-4.78    C31.97,8.06,35.54,4,41.81,4s11.16,3.85,14.94,7.84s4.14,7.56,4.06,8.49c-0.07,0.93-3.17,5.56-3.17,5.56l7.35,9.35l16.3,9.44    l12.23,16.08l14.83,12.34l4.17,19.25c0,0,4.24,4.49,5.6,10.7c1.35,6.2,1.43,15.26-0.71,16.76c-2.14,1.5-6.85,4.21-15.4,3.85    c-6.72-0.28-6.56-1.78-6.42-3c0.18-1.5,4.49-5.63,4.99-6.28s0.36-7.27-1.21-8.2c-1.57-0.93-4.49-1.35-8.06-5.71    c-3.57-4.35-4.49-10.48-4.49-10.48s-3.49,1.27-7.7,1.35c-5.85,0.12-14.12-2.64-14.12-2.64s-17.4-7.61-21.47-12.91    c-2.95-3.84-4.28-6.13-4.28-6.13s-3.85-1.78-6.63-7.35C29.83,56.77,30.62,55.28,29.62,53.71z"
   id="path9760" />
		<path
   style="fill:#424242"
   d="M44.24,26.82c0.21-1.57,1-2.71-0.93-3.85c-1.93-1.14-8.91-0.78-11.84-0.64    c-2.92,0.14-8.49,0-7.99,2.35c0.12,0.59,0.23,1.68,1.07,2.46c2.52,2.34,7.42,2.67,7.42,2.67L44.24,26.82z"
   id="path9762" />
		<path
   style="fill:#9e9e9e"
   d="m 32.248409,27.75 c 0.93,0.18 1.93,-4.28 7.99,-4.06 5.353883,0.185531 6.671591,3.85 6.671591,3.85 0,0 -4.89,6.99 -6.81,11.55 -1.93,4.56 -3.78,10.27 -4.85,10.63 -1.07,0.36 -6.61,-0.12 -10.2,-3 -2.89,-2.32 -3.99,-5.24 -3.42,-8.63 0.29,-1.74 1.32,-2.89 1.75,-3.35 0.34,-0.37 2.14,1.93 3.21,1.5 1.07,-0.43 0.93,-1.11 0.53,-1.57 -0.39,-0.46 -2.21,-1.68 -2.21,-1.68 0,0 0.86,-1.32 2.1,-0.75 1.06,0.48 2.14,2.1 2.14,2.1 0,0 1.96,-2.06 2.82,-2.21 1.39,-0.25 2.35,1.11 2.35,1.11 0,0 -2.96,0.96 -3.32,1.82 -0.36,0.86 0.29,1.96 2.35,1.21 2.07,-0.75 2.96,-1.18 2.96,-1.18 0,0 0.11,-3.24 -3.03,-4.1 -2.21,-0.61 -4.06,1.6 -4.06,1.6 0,0 -1.35,-1.35 -2.1,-1.57 -0.75,-0.21 -2.104549,0.22466 -2.104549,0.22466 0,0 -0.373853,-1.901044 -0.675451,-3.12962 C 24.007443,26.760353 23.56,25.17 23.56,25.17 c 0,0 2.694209,-0.999181 4.988409,-0.361698 2.2942,0.637483 2.78,2.761698 3.7,2.941698 z"
   id="path9764"
   sodipodi:nodetypes="ccccscccsccccccsccccccsczc" />
		
		
		
		<linearGradient
   id="SVGID_29_"
   gradientUnits="userSpaceOnUse"
   x1="96.7393"
   y1="51.1663"
   x2="101.1985"
   y2="103.9635">
			<stop
   offset="0.1594"
   style="stop-color:#A9A9A9"
   id="stop9772" />
			<stop
   offset="0.3269"
   style="stop-color:#A2A3A3"
   id="stop9774" />
			<stop
   offset="0.5685"
   style="stop-color:#8F9192"
   id="stop9776" />
			<stop
   offset="0.8537"
   style="stop-color:#707476"
   id="stop9778" />
			<stop
   offset="1"
   style="stop-color:#5D6265"
   id="stop9780" />
		</linearGradient>
		<path
   style="fill:#9e9e9e"
   d="M85.39,70.25c1.27,2.62,4.42,5.56,6.63,4.99c2.21-0.57,2.57-1.57,4.28-2.42    c1.71-0.86,3.28-0.71,3.28-0.71s-2.71,3.28-3.35,6.63c-0.64,3.35-2.07,12.48,4.14,16.54c6.2,4.06,12.19-2.85,12.19-2.85    s1.71-11.13,0.5-18.83c-1.21-7.7-5.28-14.77-8.91-16.9c-2.42-1.43-3.71-1-6.92-2.07c-2.65-0.88-6.7-2.78-9.56-4.85    c-2.85-2.07-5.92-4.42-5.92-4.42c0.11-0.58,2.99,7.8,2.85,13.05C84.51,61.84,84.17,67.76,85.39,70.25z"
   id="path9783" />
		<path
   style="fill:#2f2f2f;fill-opacity:1"
   d="M82.28,45.88c0,0,1.42,9.03,0.9,15.38c-0.54,6.69-4.7,10.85-4.88,12.48    c-0.3,2.7-1.81,16.64-4.7,17.37c-4.01,1-12.3-24.24-12.3-24.24L82.28,45.88z"
   id="path9785" />
		<path
   style="fill:#616161"
   d="M55.77,28.91c0,0,1.32-0.5,2.73-1.2c1.14-0.57,2-1.75,2-1.75s6.39-1.14,12.77,4.66    c6.37,5.8,10.17,12.93,8.65,24.15s-6.18,17.88-6.18,17.88s0.57,9.32-1.33,15.78c-1.9,6.47-9.7,19.87-9.98,23.39    s4.02,4.24,5.21,7.24c1.05,2.65-0.86,4.79-7.13,4.89s-12.84,0.33-13.12-2.5c-0.48-4.78,2.97-5.63,2.78-11.43    s-4.28-11.89-4.85-21.01c-0.57-9.13,1.24-11.89,1.24-11.89s-0.57-12.84,1.14-21.39s7.89-15.31,7.61-19.59    C57,31.86,55.77,28.91,55.77,28.91z"
   id="path9787" />
		<linearGradient
   id="SVGID_30_"
   gradientUnits="userSpaceOnUse"
   x1="42.429"
   y1="67.6292"
   x2="49.0256"
   y2="51.7435">
			<stop
   offset="0"
   style="stop-color:#484D51"
   id="stop9789" />
			<stop
   offset="0.4158"
   style="stop-color:#424548"
   id="stop9791" />
			<stop
   offset="1"
   style="stop-color:#343434"
   id="stop9793" />
		</linearGradient>
		<path
   style="fill:#2f2f2f;fill-opacity:1"
   d="M54.11,46.5c0.02-0.06,0.04-0.12,0.06-0.17c0.27-0.77,0.56-1.58,0.42-2.38    c-0.03-0.2-0.11-0.41-0.29-0.51c-0.19-0.1-0.43-0.02-0.62,0.09c-1.17,0.68-1.54,2.23-2.3,3.27c-1.09,1.48-2.33,2.94-3.91,3.91    c-2.68,1.66-6.22,2.46-9.3,2.93c-0.29,0.04-0.61,0.1-0.79,0.33c-1.07,1.3,5.11,2.5,10.39,1.56c-0.92,2.82,1.1,6.52,2.07,9.31    c0.65,1.86,0.47,3.89,0.18,5.8c-0.06,0.4-0.81,3.11,0.09,3.08c0.35-0.01,0.81-1.52,0.96-1.79c0.54-0.98,1.14-1.87,1.54-2.92    c0.76-1.97,1.09-4.11,0.91-6.22c-0.18-2.11-0.84-4.15-1.05-6.26C52.13,53.14,52.99,49.73,54.11,46.5z"
   id="path9796" />
		<linearGradient
   id="SVGID_31_"
   gradientUnits="userSpaceOnUse"
   x1="57.4613"
   y1="20.6407"
   x2="51.9307"
   y2="33.788">
			<stop
   offset="0"
   style="stop-color:#484D51"
   id="stop9798" />
			<stop
   offset="0.4158"
   style="stop-color:#424548"
   id="stop9800" />
			<stop
   offset="1"
   style="stop-color:#343434"
   id="stop9802" />
		</linearGradient>
		<path
   style="fill:#2f2f2f;fill-opacity:1"
   d="M57.38,30.56c0.36-0.93,0.69-1.58,1.09-2.05c0.78-1.32,3.05-2.41,3.05-6    c0-2.97-1.74-6.31-1.74-6.31s-0.78,5.72-2.35,7.06c-1.59,1.35-3.47,1.81-5.51,1.88c-4.13,0.13-1.57,3.05,0.1,5.08    c1.81,2.19,2.89,4.74,3.56,7.48C56.65,35.56,56.41,32.82,57.38,30.56z"
   id="path9805" /><path
   style="enable-background:new 0 0 128 128;fill:#5D6265"
   d="M21.32,115.19c-0.43-3.54,1.83-6.21,0.39-9.74c-0.8-1.95-2.1-3.65-3.05-5.53   c-2.56-5.11-1.76-10.58-0.09-15.82c1.08-3.38,2.6-6.96,1.53-10.33c0.75,1.57,1.51,3.13,2.26,4.7c1.06-5.52,0.6-11.32-1.31-16.61   c-1.32-3.66-3.32-7.07-4.28-10.84c-0.63-2.5-0.53-6.95,0.77-10.01c-1.47,2.13-2.73,5.15-2.9,9.39   c-0.43,10.84,2.42,16.97,2.14,21.39c-0.29,4.42-4.14,8.7-3.85,15.69c0.29,6.99,4.14,17.26,4.14,18.97s-0.57,11.32,1.64,13.36   c1.51,1.4,4.49,2.01,7.57,2.1C24.2,120.79,21.6,117.55,21.32,115.19z"
   id="path9809" />
	</g>
<ellipse
   style="fill:#2f2f2f;fill-opacity:1;stroke-width:35.9055;stroke-linecap:round"
   id="path13906"
   cx="26.622534"
   cy="28.044662"
   rx="1.5626669"
   ry="1.8335292" /><ellipse
   style="fill:#2f2f2f;fill-opacity:1;stroke-width:35.9055;stroke-linecap:round"
   id="path13906-0"
   cx="37.652313"
   cy="28.503656"
   rx="1.8543645"
   ry="2.1757879" /><path
   id="path15480"
   style="color:#000000;fill:#2f2f2f;stroke-linecap:round;-inkscape-stroke:none"
   d="m 29.390625,39.972656 c -0.668898,0.02655 -1.24215,0.238658 -1.78125,0.408203 -0.616114,0.193766 -1.190507,0.352509 -1.863281,0.322266 -0.695235,-0.03125 -1.730575,-0.389691 -1.923848,0.156895 -0.182168,0.51518 0.792239,1.393143 1.851582,1.440761 0.966971,0.04347 1.76816,-0.191397 2.414063,-0.394531 0.645902,-0.203134 1.13446,-0.353509 1.52539,-0.335938 0.390929,0.01757 0.817972,0.206532 1.435547,0.46875 0.617576,0.26222 1.412411,0.566852 2.445313,0.613282 2.089801,0.09394 3.348454,-1.088019 3.117187,-1.648438 -0.231267,-0.560418 -1.539894,0.118435 -3.044922,0.05078 -0.76451,-0.03437 -1.315271,-0.24316 -1.892578,-0.488282 -0.577306,-0.245121 -1.193215,-0.557929 -1.990234,-0.59375 -0.09963,-0.0045 -0.197412,-0.0038 -0.292969,0 z"
   sodipodi:nodetypes="ssssssssssssss" /><g
   id="g17757"
   transform="matrix(-1.1760926,0,0,1.1760926,77.727871,-5.8295601)"
   style="stroke-width:0.850273"><path
     d="m 25.902889,31.06773 c 0,2.777248 0.164376,5.125847 -2.653989,5.125847 -2.818365,0 -5.632991,-2.33244 -6.074062,-5.076047 -0.616751,-3.808904 2.410936,-5.786245 5.2293,-5.786245 2.814627,0.0037 3.498751,2.955459 3.498751,5.736445 z"
     style="fill:url(#linearGradient17765);fill-opacity:1;stroke-width:0.850273"
     id="path17753"
     sodipodi:nodetypes="ssccs" /><path
     d="m 21.544425,27.861833 c -1.988555,0.201846 -2.560451,2.545499 -1.87268,3.93973 0.665343,1.345638 2.489431,2.010982 3.704243,1.932486 -0.38874,-0.519566 -0.822334,-1.28957 -1.383017,-2.96788 -0.358837,-1.065297 -0.448546,-2.904336 -0.448546,-2.904336 z"
     style="fill:#2f2f2f;stroke-width:0.850273"
     id="path17755"
     sodipodi:nodetypes="ccccc" /></g></svg>
