<?xml version="1.0" encoding="UTF-8" standalone="no"?>
<svg
   width="128"
   height="128"
   version="1.1"
   id="svg5"
   sodipodi:docname="emoji_u1f924.svg"
   inkscape:version="1.3 (0e150ed6c4, 2023-07-21)"
   xmlns:inkscape="http://www.inkscape.org/namespaces/inkscape"
   xmlns:sodipodi="http://sodipodi.sourceforge.net/DTD/sodipodi-0.dtd"
   xmlns="http://www.w3.org/2000/svg"
   xmlns:svg="http://www.w3.org/2000/svg">
  <defs
     id="defs5" />
  <sodipodi:namedview
     id="namedview5"
     pagecolor="#ffffff"
     bordercolor="#000000"
     borderopacity="0.25"
     inkscape:showpageshadow="2"
     inkscape:pageopacity="0.0"
     inkscape:pagecheckerboard="0"
     inkscape:deskcolor="#d1d1d1"
     inkscape:zoom="5.6208854"
     inkscape:cx="11.030291"
     inkscape:cy="85.929523"
     inkscape:current-layer="svg5" />
  <style
     id="style1">.st1{fill:#2f2f2f}.st3{fill:#fff}</style>
  <path
     fill="#fcc21b"
     d="m 37.286686,12.92969 c -29.2300016,5.390003 -44.3099996,31.44 -33.7200006,59.960002 4.309999,11.62001 -0.939999,12.969982 -0.939999,19.370007 0,13.529991 27.9299976,24.489971 62.3799996,24.489971 34.45,0 62.380004,-10.95998 62.380004,-24.489971 4.57,-40.510009 -27.22,-90.8800081 -90.100004,-79.330009 z"
     id="path1-6"
     style="stroke-width:0.999999" />
  <path
     d="m 103.68031,73.699998 c 4.5,0 8.1,-4.4 8.1,-9.7 0,-5.4 -3.7,-9.7 -8.1,-9.7 -4.500002,0 -8.100002,4.4 -8.100002,9.7 0,5.4 3.6,9.7 8.100002,9.7 z"
     id="path6" />
  <path
     d="m 58.983274,73.7 c -4.5,0 -8.2,-4.3 -8.2,-9.6 0,-5.4 3.6,-9.7 8,-9.8 4.5,0 8.2,4.3 8.2,9.6 0.1,5.4 -3.5,9.8 -8,9.8 z"
     id="path2" />
  <g
     id="g5"
     transform="translate(17.067304,0.58062224)">
    <path
       d="M 86.45814,88.3 C 85.788372,84.3 79.153488,78 68.3,77.8 H 67.9 C 57.053488,78 47.565116,84.4 44.95814,88.3 42.327907,92.3 43.2,95 47.7,95 h 33 c 4.4,0 6.527907,-2.7 5.75814,-6.7 z"
       fill="#ed6c30"
       id="path3" />
    <path
       class="st3"
       d="m 84.8,93.9 c 0,0 0,-0.7 -1.1,-1 C 82.2,92.5 80,94.1 76.7,94 73.4,93.9 68.9,93.1 66,93.1 62.7,93 62.6,95 62.6,95 h 18.1 c 2.3,0 3.3,-0.4 4.1,-1.1 z"
       id="path4" />
    <path
       class="st3"
       d="m 69.1,95 c 4.2,0.8 6,2 6,7.1 0,2.2 -0.3,4.9 0,7.1 0.4,2.4 2.1,2.9 3.3,2.7 2.9,-0.5 1.9,-5.4 2.3,-10.8 C 81,97 84.2,96.8 84.8,94 Z"
       id="path5" />
  </g>
</svg>
