<?xml version="1.0" encoding="UTF-8" standalone="no"?>
<!-- Generator: Adobe Illustrator 16.0.0, SVG Export Plug-In . SVG Version: 6.00 Build 0)  -->

<svg
   version="1.1"
   id="レイヤー_1"
   x="0px"
   y="0px"
   width="128px"
   height="128px"
   viewBox="0 0 128 128"
   enable-background="new 0 0 128 128"
   xml:space="preserve"
   sodipodi:docname="emoji_u1fa91.svg"
   inkscape:version="1.2.2 (732a01da63, 2022-12-09)"
   xmlns:inkscape="http://www.inkscape.org/namespaces/inkscape"
   xmlns:sodipodi="http://sodipodi.sourceforge.net/DTD/sodipodi-0.dtd"
   xmlns:xlink="http://www.w3.org/1999/xlink"
   xmlns="http://www.w3.org/2000/svg"
   xmlns:svg="http://www.w3.org/2000/svg"><defs
   id="defs10764">
	
	
	

		<defs
   id="defs10738">
			<path
   id="SVGID_3_"
   d="m 60.53,78.48 c 0,0 -2,27.28 -2.4,28.47 -0.4,1.19 -4,2.54 -4.8,1.19 -0.8,-1.36 -0.8,-29.48 -0.8,-29.48 z m 32,-1.74 c 0,0 5.33,0.48 7.33,11.27 1.64,8.85 4.13,24.93 4.53,27 0.4,2.06 4,0.63 4.67,-0.8 0.67,-1.43 -2.53,-26.2 -3.2,-31.6 -0.66,-5.4 -2,-11.12 -5.86,-12.7 z M 72.4,81.5 c 0,0 2.93,0.4 3.6,10 0.67,9.6 2.94,35.2 2.94,35.2 0,0 1.2,1.33 3.07,0.53 1.87,-0.8 3.47,-1.6 3.33,-3.2 -0.13,-1.6 -0.4,-31.74 -0.53,-35.6 -0.14,-3.87 0.53,-7.47 -2.8,-9.73 z M 27.44,72.21 c 0,0 -3.27,4.61 -4.27,10.8 -0.53,3.23 -2.18,12.03 -3.65,19.73 -0.86,4.52 -2.21,12.48 -2.14,13.25 0.22,2.32 6.28,-0.57 6.84,-1.69 0.94,-1.86 1.15,-4.33 1.77,-6.53 1,-3.51 6.24,-30.02 12.8,-33.74 z" />
		</defs>
		
		<clipPath
   id="SVGID_4_">
			<use
   xlink:href="#SVGID_3_"
   overflow="visible"
   id="use10742" />
		</clipPath>
		
	</defs><sodipodi:namedview
   id="namedview10762"
   pagecolor="#ffffff"
   bordercolor="#000000"
   borderopacity="0.25"
   inkscape:showpageshadow="2"
   inkscape:pageopacity="0.0"
   inkscape:pagecheckerboard="0"
   inkscape:deskcolor="#d1d1d1"
   showgrid="false"
   inkscape:zoom="2.1210938"
   inkscape:cx="-14.615101"
   inkscape:cy="47.145488"
   inkscape:window-width="1366"
   inkscape:window-height="697"
   inkscape:window-x="-8"
   inkscape:window-y="-8"
   inkscape:window-maximized="1"
   inkscape:current-layer="レイヤー_1" />
<g
   id="g10735">
		<defs
   id="defs10726">
			<path
   id="SVGID_1_"
   d="m 73.79,42.33 c 0,0 5.7,18.94 0.27,20.85 l 19.1,1.14 c 0,0 5.36,-1.95 -1.66,-20.97 z" />
		</defs>
		<use
   xlink:href="#SVGID_1_"
   overflow="visible"
   fill="#ed6c30"
   id="use10728"
   style="fill:#855c52;fill-opacity:1" />
		<clipPath
   id="SVGID_2_">
			<use
   xlink:href="#SVGID_1_"
   overflow="visible"
   id="use10730" />
		</clipPath>
		<path
   clip-path="url(#SVGID_2_)"
   fill="#855c52"
   d="m 64.4,4.41 c -2.25,0.15 -4.96,0.96 -7.39,3.38 -5.38,5.38 -12.36,20.53 -10.96,29.49 1.4,8.96 13.35,11.56 30.7,13.63 11.52,1.38 29.29,1.91 32.07,-12.23 C 112.12,21.93 113.6,7 98.05,6.58 95.65,6.52 87.76,6.89 81.32,6.41 73.68,5.83 65.88,4.31 64.4,4.41 Z"
   id="path10733"
   style="fill:#2f2f2f;fill-opacity:1" />
	</g><use
   xlink:href="#SVGID_3_"
   overflow="visible"
   fill="#ed6c30"
   id="use10740"
   style="fill:#855c52;fill-opacity:1" /><path
   clip-path="url(#SVGID_4_)"
   fill="#855c52"
   d="m 23.31,65.83 c 3.85,-1.71 16.19,-4.29 24.99,-4.23 8.22,0.06 14.26,2.56 16.53,3.29 4.88,1.55 8.43,2.38 16.35,2.27 11.61,-0.16 24.35,-4.08 26.93,0.46 1.3,2.27 1.17,4.32 0.23,6.03 C 107.39,75.37 94.73,90.94 59.27,86.46 45.03,84.66 29.55,80.6 23.47,75.77 19.2,72.4 20.73,66.97 23.31,65.83 Z"
   id="path10745"
   style="fill:#2f2f2f;fill-opacity:1" /><g
   id="g10757">
		<path
   fill="#ed6c30"
   d="M 64.05,0.51 C 61.8,0.66 59.09,1.47 56.66,3.89 51.28,9.27 44.31,24.42 45.7,33.38 c 1.39,8.96 13.35,11.56 30.7,13.63 11.52,1.38 29.29,1.92 32.07,-12.23 C 111.77,18.02 113.25,3.1 97.7,2.67 95.3,2.61 87.41,2.98 80.97,2.5 73.34,1.93 65.53,0.41 64.05,0.51 Z"
   id="path10749"
   style="fill:#855c52;fill-opacity:1" />
		<path
   fill="#ed6c30"
   d="m 22.64,61.1 c 3.85,-1.71 16.19,-4.29 24.99,-4.23 8.22,0.06 14.26,2.56 16.53,3.29 4.88,1.55 8.43,2.38 16.36,2.27 11.61,-0.16 24.34,-4.08 26.92,0.46 1.3,2.27 1.17,4.32 0.23,6.03 C 106.72,70.64 94.06,86.21 58.59,81.73 44.35,79.93 28.87,75.87 22.78,71.04 18.54,67.66 20.06,62.24 22.64,61.1 Z"
   id="path10751"
   style="fill:#855c52;fill-opacity:1" />
		<path
   fill="#f79329"
   d="m 101.59,16.56 c 0,4.01 -0.63,10.77 -2.48,17.48 -1.58,5.76 -3.95,7.82 -9.16,7.65 -5.21,-0.17 -12.45,-2.02 -7.4,-9.25 3.78,-5.43 8.25,-9.16 11.31,-13.22 2.07,-2.75 4.02,-5.53 5.38,-6.63 0.88,-0.71 1.43,-0.62 1.77,-0.11 0.58,0.84 0.58,2.82 0.58,4.08 z"
   id="path10753"
   style="fill:#b89278;fill-opacity:1" />
		<path
   fill="#f79329"
   d="m 54.03,73.43 c 0,0 13.3,3.48 23.7,1.84 10.4,-1.64 17.66,-6.12 18.5,-7.61 0.85,-1.49 -1.57,-1.42 -5.56,-0.24 -3.99,1.18 -14.88,3.5 -18.38,3.74 -2.4,0.16 -14.95,0.02 -18.63,-0.27 -3.49,-0.28 -2.13,1.97 0.37,2.54 z"
   id="path10755"
   style="fill:#b89278;fill-opacity:1" />
	</g>
</svg>
