<?xml version="1.0" encoding="UTF-8" standalone="no"?>
<svg
   width="128"
   height="128"
   version="1.1"
   id="svg5"
   sodipodi:docname="emoji_u1f62d.svg"
   xml:space="preserve"
   inkscape:version="1.3 (0e150ed6c4, 2023-07-21)"
   xmlns:inkscape="http://www.inkscape.org/namespaces/inkscape"
   xmlns:sodipodi="http://sodipodi.sourceforge.net/DTD/sodipodi-0.dtd"
   xmlns="http://www.w3.org/2000/svg"
   xmlns:svg="http://www.w3.org/2000/svg"><defs
     id="defs5" /><sodipodi:namedview
     id="namedview5"
     pagecolor="#ffffff"
     bordercolor="#000000"
     borderopacity="0.25"
     inkscape:showpageshadow="2"
     inkscape:pageopacity="0.0"
     inkscape:pagecheckerboard="0"
     inkscape:deskcolor="#d1d1d1"
     inkscape:zoom="1.7236766"
     inkscape:cx="-33.068849"
     inkscape:cy="-108.48903"
     inkscape:current-layer="g6" /><g
     id="g8"
     transform="translate(9.7468413e-4,0.00442302)">&#10;	<g
   id="g6">&#10;		<path
   fill="#fcc21b"
   d="m 127.63,58.95 c 1.55,-20.8 -8.71,-34.41 -15,-40.72 -0.22,-0.23 -0.45,-0.44 -0.67,-0.66 -1.18,-1.14 -2.18,-2.01 -2.88,-2.57 -0.01,-0.01 -0.03,-0.02 -0.04,-0.03 -0.67,-0.54 -1.08,-0.82 -1.08,-0.82 v 0.05 c -2.04,-1.52 -4.21,-2.93 -6.58,-4.12 C 89.36,4.04 77.6,1.88 66.58,2.84 l 0.03,-0.05 c 0,0 -9.4,0.27 -19.91,4.21 C 42.08,8.73 27.74,16.05 18.24,27.49 14.1,32.49 9.63,38.91 5.82,48.12 -1.37,65.51 -0.8,86.25 2.8,102.54 l 0.05,-0.09 c 1.91,12.78 28.84,22.92 61.89,22.92 0.05,0 0.08,-0.01 0.13,-0.01 0.05,0 0.08,0.01 0.13,0.01 9.35,0 18.08,-0.84 25.92,-2.29 18.79,-3.45 32.44,-10.46 35.28,-18.82 0.43,-1.06 0.77,-2.14 0.88,-3.24 0.34,-3.51 -2.13,-5.81 -4.08,-8.95 -4.79,-7.84 3.37,-16.06 4.63,-33.12 z"
   id="path1" />&#10;		<path
   fill="#ffffff"
   d="m 15,58.48 c -0.29,2.12 -0.82,4.12 -2.63,5.46 -1.51,1.09 -3.5,1.46 -5.18,0.54 -1.7,-0.91 -2.37,-3.3 -2.66,-4.99 -0.88,-5.2 3.68,-9.91 7.79,-12.45 0.6,-0.36 1.61,-1.02 2.32,-1.14 0.87,-0.18 1.1,0.79 1.12,1.5 0.02,2.52 -0.65,5.03 -0.57,7.61 0.05,1 -0.01,2.23 -0.19,3.47 z"
   id="path2" /><path
   fill="#ffffff"
   d="m 10.579131,83.705148 c -0.29,2.12 -0.8200001,4.12 -2.6300001,5.46 -1.51,1.09 -3.5,1.46 -5.1799997,0.54 -1.7,-0.91 -2.36999992,-3.3 -2.65999992,-4.99 -0.88,-5.2 3.67999992,-9.91 7.78999962,-12.45 0.6,-0.36 1.61,-1.02 2.3200001,-1.14 0.87,-0.18 1.1,0.79 1.12,1.5 0.02,2.52 -0.65,5.03 -0.57,7.61 0.05,1 -0.01,2.23 -0.19,3.47 z"
   id="path2-3" /><path
   fill="#ffffff"
   d="m 10.579131,106.43168 c -0.29,2.12 -0.82,4.12 -2.6300001,5.46 -1.51,1.09 -3.5,1.46 -5.1799997,0.54 -1.7,-0.91 -2.36999991,-3.3 -2.65999991,-4.99 -0.88000002,-5.2 3.67999991,-9.909995 7.78999961,-12.449995 0.6,-0.36 1.6100001,-1.02 2.3200001,-1.14 0.87,-0.18 1.1,0.79 1.12,1.5 0.02,2.52 -0.65,5.029995 -0.57,7.609995 0.05,1 -0.01,2.23 -0.19,3.47 z"
   id="path2-3-3" />&#10;		<path
   fill="#ffffff"
   d="m 21.73,41.57 c -1.86,-0.02 -3.67,-0.93 -4.44,-2.67 -0.8,-1.73 0.1,-4.03 0.91,-5.55 2.45,-4.66 8.96,-5.7 13.8,-5.25 0.72,0.05 1.91,0.14 2.56,0.45 0.79,0.4 0.4,1.3 -0.04,1.88 -1.53,2.03 -3.58,3.61 -5.09,5.71 -0.59,0.82 -1.37,1.75 -2.26,2.63 -1.53,1.54 -3.16,2.81 -5.44,2.8 z"
   id="path3" />&#10;		<path
   fill="#ed6c30"
   d="M 80.71,99.91 C 74.78,100.08 69.19,97.55 64.5,94.1 59.77,90.61 56.42,85.68 51.74,82.19 45.84,77.78 38.99,80.93 32.43,81.19 24.58,81.5 15.8,78.58 15.86,68.46 c 0.02,-3.1 0.53,-6.84 1.59,-9.75 1.95,-5.37 5.44,-10.13 9.96,-13.63 2.52,-1.94 5.5,-3.64 8.51,-4.69 3.27,-1.14 6.72,-1.35 9.83,0.34 3.05,1.67 5.55,4.14 8.7,5.67 6.77,3.3 13.5,-0.42 20.36,1.47 7.92,2.19 14.5,9.12 18.61,15.98 4.94,8.24 6.7,19.29 1.51,27.92 -1.21,2.01 -3.04,3.98 -5,5.29 -2.49,1.67 -6.25,2.77 -9.22,2.85 z"
   id="path4" />&#10;		<path
   fill="#ffffff"
   d="m 102.44,67.73 c -2.16,-1.12 -3.06,-3.13 -3.75,-5.34 -0.41,-1.27 -0.67,-2.57 -0.81,-3.64 -0.36,-2.76 -1.53,-5.28 -1.94,-7.95 -0.12,-0.78 -0.02,-1.83 0.93,-1.81 0.78,0.02 1.95,0.55 2.66,0.84 4.81,1.99 10.46,6.21 10.41,11.87 0,1.83 -0.31,4.46 -1.94,5.71 -1.62,1.27 -3.78,1.23 -5.56,0.32 z"
   id="path5" />&#10;		<path
   fill="#ffffff"
   d="m 116.24,91.37 c -0.58,1.75 -1.69,4.16 -3.63,4.87 -1.93,0.69 -3.97,0 -5.37,-1.4 -1.72,-1.72 -1.96,-3.9 -1.92,-6.21 0.02,-1.36 0.17,-2.64 0.36,-3.72 0.51,-2.73 0.2,-5.48 0.64,-8.15 0.12,-0.77 0.53,-1.75 1.42,-1.44 0.74,0.25 1.69,1.11 2.26,1.61 3.97,3.35 8.05,9.07 6.24,14.44 z"
   id="path6" />&#10;	<path
   fill="#ffffff"
   d="m 123.97829,116.02688 c -0.58,1.75 -1.69,4.16 -3.63,4.87 -1.93,0.69 -3.97,0 -5.37,-1.4 -1.72,-1.72 -1.96,-3.9 -1.92,-6.21 0.02,-1.36 0.17,-2.64 0.36,-3.72 0.51,-2.73 0.2,-5.48 0.64,-8.15 0.12,-0.77 0.53,-1.750003 1.42,-1.440003 0.74,0.250003 1.69,1.110003 2.26,1.610003 3.97,3.35 8.05,9.07 6.24,14.44 z"
   id="path9" /></g>&#10;	<path
   fill="#2f2f2f"
   d="m 91.89,47.76 c -0.49,0 -0.98,-0.15 -1.41,-0.46 -6.71,-4.87 -16.8,-6.8 -16.9,-6.82 -1.06,-0.2 -1.87,-1.09 -1.96,-2.17 -0.09,-1.08 0.56,-2.09 1.58,-2.46 9.58,-3.5 21.96,-2.87 22.48,-2.84 1.33,0.08 2.34,1.21 2.27,2.54 -0.07,1.32 -1.13,2.46 -2.54,2.27 -0.08,0 -5.61,-0.28 -11.86,0.54 3.19,1.19 6.73,2.84 9.75,5.03 1.08,0.78 1.32,2.29 0.54,3.36 -0.47,0.67 -1.2,1.01 -1.95,1.01 z"
   id="path7" />&#10;	<path
   fill="#2f2f2f"
   d="m 54.57,34.67 c -0.41,0 -0.82,-0.1 -1.2,-0.32 -0.06,-0.04 -6.41,-3.64 -13.13,-3.88 -1.33,-0.05 -2.37,-1.17 -2.32,-2.5 0.05,-1.33 1.18,-2.46 2.49,-2.32 2.94,0.11 5.77,0.73 8.18,1.49 -2.96,-3.75 -6.29,-6.67 -6.35,-6.72 -1,-0.88 -1.11,-2.39 -0.23,-3.4 0.88,-1 2.4,-1.11 3.4,-0.23 0.34,0.3 8.43,7.39 11.38,14.56 0.39,0.95 0.13,2.05 -0.64,2.73 -0.45,0.38 -1.01,0.59 -1.58,0.59 z"
   id="path8" />&#10;</g></svg>
