<?xml version="1.0" encoding="UTF-8" standalone="no"?>
<svg
   width="128"
   height="128"
   version="1.1"
   id="svg14360"
   sodipodi:docname="emoji_u1f91f_1f3fd.svg"
   inkscape:version="1.2.2 (732a01da63, 2022-12-09)"
   xmlns:inkscape="http://www.inkscape.org/namespaces/inkscape"
   xmlns:sodipodi="http://sodipodi.sourceforge.net/DTD/sodipodi-0.dtd"
   xmlns="http://www.w3.org/2000/svg"
   xmlns:svg="http://www.w3.org/2000/svg">
  <defs
     id="defs14364" />
  <sodipodi:namedview
     id="namedview14362"
     pagecolor="#ffffff"
     bordercolor="#000000"
     borderopacity="0.25"
     inkscape:showpageshadow="2"
     inkscape:pageopacity="0.0"
     inkscape:pagecheckerboard="0"
     inkscape:deskcolor="#d1d1d1"
     showgrid="false"
     inkscape:zoom="4"
     inkscape:cx="10.375"
     inkscape:cy="93"
     inkscape:window-width="1366"
     inkscape:window-height="697"
     inkscape:window-x="-8"
     inkscape:window-y="-8"
     inkscape:window-maximized="1"
     inkscape:current-layer="svg14360" />
  <path
     class="st0"
     d="M 87.238963,66.605486 C 86.40678,48.482388 86.961568,17.044361 86.684174,12.883445 86.40678,8.72253 84.187625,5.2088682 78.917132,5.2088682 c -5.270493,0 -6.749929,4.3458449 -7.027324,8.7841538 -0.277394,4.900634 -3.421197,40.314647 -3.421197,40.314647 0,0 -0.924648,2.12669 -2.496549,-0.924647 -1.017113,-1.941761 -3.606127,-4.253381 -7.489648,-3.698592 -5.085563,0.739718 -5.455422,2.958873 -6.287605,7.027324 -0.832183,3.975986 -0.924648,0.369859 -3.421197,-2.404085 -1.017113,-1.109577 -3.883521,-2.496549 -6.565,-2.12669 -3.421197,0.554789 -6.565,3.421197 -7.212253,7.027324 -0.647254,3.606127 -2.49655,0.554789 -3.606127,-0.924648 -1.017113,-1.479436 -4.160915,-2.681479 -7.119789,-1.664366 -2.958873,1.017113 -6.287605,3.143803 -6.472535,8.044436 -0.184929,4.900634 -2.496549,25.150422 1.849296,37.725635 3.513662,10.44852 16.828591,21.08197 34.119506,21.08197 20.619648,0 36.800985,-14.23958 36.800985,-31.068169 0.09247,-10.910845 -3.051338,-18.585422 -3.328732,-25.797675 z"
     id="path15212"
     style="display:inline;fill:#bf8f68;stroke-width:0.999997;fill-opacity:1" />
  <path
     d="m 111.89746,66.409615 c 6.93486,1.276014 12.25159,5.658845 11.51187,10.688929 -0.56404,3.818796 -3.4212,6.648218 -8.83964,5.926993 -9.33894,-1.248275 -16.615917,3.069831 -19.713487,9.570105 C 90.981928,100.73255 85.720681,107.96329 83.418308,108.82322 73.48759,112.5403 64.620217,105.36503 65.95171,93.86241 67.366421,81.610826 81.790927,73.020847 85.554244,71.217784 90.972682,68.610277 101.03285,64.421622 111.89746,66.409615 Z"
     style="fill:#bf8f68;stroke-width:0.999997;fill-opacity:1"
     id="path16564" />
  <path
     class="st0"
     d="m 17.150655,78.625908 c 0,0 0,-9.616338 -2.034225,-21.266901 -1.109578,-6.010211 -4.43831,-27.924365 -4.43831,-33.009928 0,-8.229366 10.448521,-11.18824 12.297816,-2.034226 1.294507,6.565 5.178029,21.266901 6.74993,29.218873 0.832183,4.25338 2.589014,8.229366 3.791056,9.431408 1.664366,1.664366 3.236268,-1.386972 3.236268,-1.386972 l -0.09246,13.314929 z"
     id="path15214"
     style="display:inline;fill:#bf8f68;stroke-width:0.999997;fill-opacity:1" />
  <path
     id="path16130"
     style="fill:#99674f;stroke-width:35.9055;stroke-linecap:round;fill-opacity:1"
     d="m 50.397163,56.701279 c -0.18801,0.451424 -0.285556,1.122442 -0.247415,1.946818 0.140953,2.829705 0.35826,5.646013 0.529144,8.442829 0.187722,3.141285 0.366885,6.233703 0.05959,9.195912 -0.296479,2.146527 -0.463872,6.164988 -5.385352,6.591728 -4.921479,0.426738 -6.537977,-4.557226 -7.503734,-7.061276 -1.03566,-2.831326 -1.570795,-5.903543 -1.932369,-9.035182 -0.195073,-1.710637 -0.318041,-3.440684 -0.409951,-5.18489 -0.04816,-0.94423 -0.248833,-1.727886 -0.559846,-2.212292 -0.351984,1.682931 -0.994094,1.734941 -1.688566,1.168451 -0.04057,0.285996 -0.06952,0.594238 -0.07405,0.935483 -0.01812,1.834178 -0.0028,3.676714 0.0921,5.529828 0.163487,3.25853 0.54412,6.573634 1.497136,9.827995 0.81196,2.918282 3.698217,11.442894 11.007282,10.725555 7.309075,-0.717339 8.419395,-8.68962 8.417547,-11.083134 0.110184,-3.334755 -0.27544,-6.560016 -0.675423,-9.68713 -0.346752,-2.75386 -0.736666,-5.479569 -1.051065,-8.195414 -0.0669,-0.586983 -0.197354,-1.099308 -0.372026,-1.511583 -0.515468,2.231946 -0.804025,1.28973 -1.703014,-0.393698 z" />
  <path
     id="path16191"
     style="fill:#99674f;stroke-width:35.9055;stroke-linecap:round;fill-opacity:1"
     d="m 66.300384,53.923724 c -0.149972,0.457164 -0.212671,1.115096 -0.149894,1.910698 0.232199,2.82249 0.537183,5.629033 0.796425,8.417547 0.28721,3.132111 0.564714,6.215279 0.37925,9.186881 -0.203936,2.156092 -0.221659,6.178782 -4.843565,6.788577 -4.621906,0.609796 -6.319851,-4.311412 -7.317721,-6.777741 -1.075224,-2.790779 -1.68758,-5.839734 -2.138249,-8.95572 -0.243873,-1.702192 -0.419204,-3.427257 -0.567069,-5.166831 -0.06386,-0.765937 -0.220358,-1.41901 -0.442458,-1.892638 -0.414945,1.601815 -0.736136,0.972287 -1.401419,-0.321461 -0.233085,0.456859 -0.370547,1.219827 -0.34855,2.192427 0.04733,1.833584 0.125444,3.674309 0.279924,5.522604 0.268492,3.25018 0.74497,6.549996 1.757191,9.766593 0.867513,2.886017 3.886002,11.29753 10.747226,10.308379 6.861234,-0.989141 7.627469,-8.99836 7.541659,-11.390145 -0.01333,-3.336542 -0.490321,-6.544573 -0.97702,-9.654624 -0.423427,-2.739026 -0.887,-5.449824 -1.278615,-8.152071 -0.04857,-0.339178 -0.115943,-0.65302 -0.198655,-0.937289 -0.35253,0.345066 -0.984553,0.502448 -1.83846,-0.845186 z" />
  <path
     id="path19280"
     d="m 87.266417,66.976554 c -14.056209,7.408225 -15.543101,22.831892 -15.552865,22.825438 -0.652211,3.785354 0.785589,3.850292 0.785589,3.850292 1.425181,0.416827 1.706625,-2.131025 1.706625,-2.131025 1.477863,-12.219232 8.306205,-18.344869 13.398365,-21.265095 -0.158072,-1.108513 -0.279245,-2.20142 -0.337714,-3.27961 z"
     style="fill:#99674f;fill-opacity:1;stroke-width:0.999997" />
</svg>
