<?xml version="1.0" encoding="UTF-8" standalone="no"?>
<svg
   width="128"
   height="128"
   version="1.1"
   id="svg4"
   sodipodi:docname="emoji_u1f627.svg"
   xml:space="preserve"
   inkscape:version="1.3 (0e150ed6c4, 2023-07-21)"
   xmlns:inkscape="http://www.inkscape.org/namespaces/inkscape"
   xmlns:sodipodi="http://sodipodi.sourceforge.net/DTD/sodipodi-0.dtd"
   xmlns="http://www.w3.org/2000/svg"
   xmlns:svg="http://www.w3.org/2000/svg"><defs
     id="defs4"><path
       id="SVGID_1_"
       d="M125.89,75.13c7.81-30.07-8.77-60.05-38.32-65.54C24-2.25-3.96,53.51,0.68,94.97         c0,13.83,28.25,25.05,63.08,25.05c32.66,0,59.51-9.87,62.75-22.49c0.22-0.85,0.33-1.7,0.33-2.56         C126.84,88.4,122.71,87.41,125.89,75.13z" /></defs><sodipodi:namedview
     id="namedview4"
     pagecolor="#ffffff"
     bordercolor="#000000"
     borderopacity="0.25"
     inkscape:showpageshadow="2"
     inkscape:pageopacity="0.0"
     inkscape:pagecheckerboard="0"
     inkscape:deskcolor="#d1d1d1"
     inkscape:zoom="8.515625"
     inkscape:cx="64"
     inkscape:cy="64"
     inkscape:current-layer="svg4" /><g
     id="g10"
     transform="translate(-0.00814492,0.00255313)">&#10;	<g
   id="g2">&#10;		<g
   id="g1">&#10;			<path
   fill="#fcc21b"
   d="M 15.88,32.75 C 35.16,3.87 67.36,-9.3 101.5,8.06 c 22.84,11.63 30.78,39.22 20.85,71.64 -4.08,13.38 6.15,15.65 5.49,22.74 -1.29,13.9 -28.49,25.28 -63.64,25.28 C 29.05,127.72 1.47,116.36 0.54,102.44 -1.36,74.4 3.58,51.2 15.88,32.75"
   id="path1" />&#10;		</g>&#10;	</g>&#10;	<g
   id="g9">&#10;		<path
   fill="#ed6c30"
   d="m 62.61,98.08 c 6.34,5.58 16.18,7.81 23.71,2.22 C 94.83,94.24 93.2,80.56 88.21,72.19 82.06,62.25 69.88,54.15 59.52,53.13 49.25,52.19 38.55,55.8 32.56,64.05 30.06,67 28.49,70.68 27.9,74.17 c -1.11,4.53 -0.16,8.61 2.75,11.04 3.52,2.97 6.23,2.08 12.48,1.68 6.73,-0.38 13.27,5.51 19.48,11.19 z"
   id="path2" />&#10;		<g
   id="g8">&#10;			<g
   id="g7">&#10;				<g
   id="g6">&#10;					<g
   id="g4">&#10;						<path
   fill="#2f2f2f"
   d="m 34.13,27.47 c 0.25,-0.93 0.63,-1.76 1.05,-2.55 1.81,0.23 3.78,0.38 6,0.3 3.28,-0.08 5.9,-0.97 8.06,-2.11 1.51,2.31 2.04,5.46 1.17,8.66 -1.47,5.38 -6.29,8.79 -10.79,7.6 -4.5,-1.19 -6.95,-6.53 -5.49,-11.9 z"
   id="path3" />&#10;						<path
   fill="#2f2f2f"
   d="m 90.5,42.62 c -1.48,5.37 -6.32,8.78 -10.8,7.58 -4.5,-1.17 -6.96,-6.51 -5.49,-11.9 0.9,-3.36 3.12,-5.95 5.75,-7.12 1.31,2.16 3.18,4.37 6.12,6.17 1.7,1.01 3.27,1.78 4.8,2.45 -0.04,0.91 -0.13,1.86 -0.38,2.82 z"
   id="path4" />&#10;					</g>&#10;					<path
   fill="#2f2f2f"
   d="m 57.31,30.23 c -0.23,-0.01 -0.46,-0.08 -0.66,-0.22 -0.6,-0.39 -0.76,-1.19 -0.37,-1.79 2.05,-3.13 -0.58,-7.01 -0.61,-7.05 -0.4,-0.57 -0.27,-1.38 0.32,-1.79 0.58,-0.42 1.39,-0.27 1.79,0.31 0.15,0.22 3.68,5.35 0.64,9.95 -0.24,0.4 -0.67,0.6 -1.11,0.59 z"
   id="path5" />&#10;					<path
   fill="#2f2f2f"
   d="m 69.91,33.48 c -0.67,-0.03 -1.21,-0.57 -1.23,-1.25 0,-0.27 -0.08,-6.49 4.99,-8.64 0.65,-0.27 1.4,0.04 1.69,0.69 0.28,0.65 -0.03,1.41 -0.69,1.68 -3.45,1.45 -3.41,6.16 -3.42,6.2 0.01,0.72 -0.54,1.3 -1.26,1.31 -0.02,0.01 -0.05,0.01 -0.08,0.01 z"
   id="path6" />&#10;				</g>&#10;			</g>&#10;		</g>&#10;	</g>&#10;</g></svg>
