<?xml version="1.0" encoding="UTF-8" standalone="no"?>
<svg
   width="128"
   height="128"
   style="enable-background:new 0 0 128 128;"
   version="1.1"
   id="svg24"
   sodipodi:docname="emoji_u1f990.svg"
   inkscape:version="1.3 (0e150ed6c4, 2023-07-21)"
   xmlns:inkscape="http://www.inkscape.org/namespaces/inkscape"
   xmlns:sodipodi="http://sodipodi.sourceforge.net/DTD/sodipodi-0.dtd"
   xmlns:xlink="http://www.w3.org/1999/xlink"
   xmlns="http://www.w3.org/2000/svg"
   xmlns:svg="http://www.w3.org/2000/svg">
  <defs
     id="defs24">
    <clipPath
       clipPathUnits="userSpaceOnUse"
       id="clipPath24">
      <path
         id="path24"
         d="m 15.87,76.29 c -3.13,0.519998 -3.33,3.52 -2.08,5.88 2.73,5.14 3.456725,6.673036 7.016725,11.653036 1.06,1.48 2.85,3.54 4.75,3.1 1.87,-0.44 3.6,-2.91 3.62,-4.7 C 29.256725,82.233036 28.35,79.23 26.82,78.05 23.63,75.62 18.31,75.66 15.87,76.29 Z"
         clip-path="none"
         style="stroke-width:0.999998"
         sodipodi:nodetypes="ccccccc" />
    </clipPath>
  </defs>
  <sodipodi:namedview
     id="namedview24"
     pagecolor="#ffffff"
     bordercolor="#000000"
     borderopacity="0.25"
     inkscape:showpageshadow="2"
     inkscape:pageopacity="0.0"
     inkscape:pagecheckerboard="0"
     inkscape:deskcolor="#d1d1d1"
     inkscape:zoom="2.0273438"
     inkscape:cx="88.539499"
     inkscape:cy="70.289017"
     inkscape:window-width="1366"
     inkscape:window-height="697"
     inkscape:window-x="-8"
     inkscape:window-y="-8"
     inkscape:window-maximized="1"
     inkscape:current-layer="svg24" />
  <path
     style="fill:#dd5728;fill-opacity:1;stroke-width:6;stroke-linecap:round"
     d="m 51.955339,57.235662 c -1.805439,-1.278242 -5.682393,0.118812 -5.775552,3.401629 -0.09316,3.282816 4.083619,12.171648 8.255777,14.24212 3.498186,1.736007 6.202817,2.409556 6.376678,1.16407 0.27384,-1.961691 -3.63996,-1.601659 -6.025751,-6.110525 -2.385793,-4.508867 -0.745551,-11.2207 -2.831152,-12.697294 z"
     id="path27"
     sodipodi:nodetypes="ssssss" />
  <path
     style="fill:#dd5728;fill-opacity:1;stroke-width:6;stroke-linecap:round"
     d="m 40.568801,64.025298 c -2.205122,0.175936 -4.422853,0.598982 -4.161658,3.872717 0.261195,3.273734 4.755437,11.639727 9.126442,13.248477 3.66491,1.348872 6.42638,1.727001 6.464994,0.470032 0.06082,-1.979778 -3.791379,-1.200027 -6.649224,-5.425497 -2.857847,-4.22547 -1.918129,-12.394107 -4.780554,-12.165729 z"
     id="path26"
     sodipodi:nodetypes="ssssss" />
  <path
     style="fill:#dd5728;fill-opacity:1;stroke-width:6;stroke-linecap:round"
     d="m 32.615519,75.734094 c -2.107853,0.671173 -4.171975,1.585883 -3.175549,4.715212 0.996427,3.129327 7.338653,9.854076 11.891833,10.835054 4.644589,1.000673 6.108757,0.925229 6.297838,-0.318011 0.189084,-1.243265 -3.859269,-0.99899 -7.600487,-4.466724 -3.741218,-3.467732 -4.677472,-11.636766 -7.413635,-10.765531 z"
     id="path25"
     sodipodi:nodetypes="ssssss" />
  <path
     id="path9"
     style="fill:#dd5728;stroke-width:0.999999"
     d="M 87.589592,7.0699821 C 81.054261,6.5743674 74.553118,7.686694 68.084355,8.4540914 61.694451,9.2511854 55.331246,10.255554 48.938829,11.02871 43.064103,11.654856 36.968162,11.666441 31.316655,9.7373201 29.358371,9.087083 27.469731,8.21741 25.736618,7.0946293 c -0.683467,-0.3287756 -1.338845,0.5873153 -1.04488,1.1996044 0.316899,0.9486738 1.123583,1.5915038 1.808695,2.2673623 2.391575,2.067353 5.387273,3.333849 8.417853,4.040743 4.546024,1.066472 9.285255,1.251243 13.93014,0.6708 5.002206,-0.575002 9.899816,-1.787807 14.859601,-2.625632 5.598676,-1.003127 11.235097,-1.897605 16.920646,-2.197413 4.320088,-0.175057 8.690504,0.319639 12.791752,1.724195 3.533135,1.15992 6.978455,2.75687 9.892315,5.094389 3.6693,3.098081 6.29561,7.585176 6.68191,12.41677 0.17882,4.35093 -2.72417,8.512848 -6.69623,10.171318 -3.518688,1.669068 -7.522341,1.91919 -11.350256,1.587193 -1.286516,-0.11238 -2.909933,0.271164 -3.411485,1.610297 -0.513388,1.496732 0.771167,3.260703 2.352602,3.234537 5.330103,0.839687 10.991619,-0.07057 15.649989,-2.841361 3.38216,-2.058729 6.24336,-5.301706 7.08304,-9.250145 1.15671,-5.193414 -0.27086,-10.791755 -3.38628,-15.051334 -3.17628,-4.335854 -7.76039,-7.467054 -12.653048,-9.5798264 -3.182447,-1.3120886 -6.55736,-2.2138549 -9.99339,-2.4961445 z" />
  <path
     id="path10"
     style="fill:#dd5728;stroke-width:0.999996"
     d="m 82.622851,17.262557 c -7.796976,-0.907415 -15.693416,0.01164 -23.308269,1.766933 -5.363474,1.010961 -10.702698,2.300608 -16.162044,2.651473 -5.622618,0.406088 -11.4033,-0.753138 -16.284749,-3.618609 -0.604656,-0.387511 -1.648558,-0.533856 -2.059038,0.192115 -0.385127,0.951834 0.472696,1.85913 1.258249,2.280384 2.086387,1.33527 4.311368,2.419527 6.652544,3.165364 4.111668,1.356543 8.449279,1.739689 12.759451,1.505389 8.903629,-0.31707 17.494951,-3.064782 26.363403,-3.71163 6.270197,-0.444813 12.704955,0.0057 18.658215,2.136201 3.043172,1.133037 6.044203,2.942492 7.697657,5.831652 1.472933,2.636037 1.213811,6.166584 -0.778575,8.469983 -2.020821,2.440998 -5.244023,3.541588 -8.324873,3.740007 -0.97063,0.143001 -2.062688,-0.202048 -2.937151,0.353124 -1.042233,0.637469 -1.311651,2.245556 -0.404212,3.115174 1.133095,1.118899 2.865309,0.987345 4.325528,0.858727 3.306574,-0.291059 6.675762,-1.185968 9.314019,-3.284904 2.776214,-2.09821 4.293804,-5.587992 4.270554,-9.031861 0.0431,-3.378608 -1.3207,-6.720043 -3.65824,-9.152088 -3.113994,-3.332074 -7.451515,-5.220903 -11.824567,-6.25656 -1.831914,-0.442389 -3.688886,-0.770823 -5.557899,-1.010874 z" />
  <path
     d="m 26.22335,87.690194 c 1.188177,-0.162279 5.770597,4.139747 10.425653,7.238933 3.132018,2.07725 10.885286,5.225273 14.238946,6.911533 2.413515,1.21878 4.751579,3.06336 4.701562,5.70616 -0.0709,3.90414 -4.225881,3.88593 -6.200003,3.43234 C 43.52494,109.63735 36.103494,104.38531 32.364662,99.726693 29.377829,95.972119 23.466131,88.057679 26.22335,87.690194 Z"
     style="fill:#dd5728"
     id="path11" />
  <path
     d="m 25.444093,88.552318 c 1.375664,0.331734 4.690773,6.372185 8.594055,11.278508 2.62072,3.304064 9.894046,9.524844 12.923529,12.537344 2.176428,2.17392 4.012019,4.92294 2.908134,7.44507 -1.633444,3.73604 -6.194478,2.0068 -8.179215,0.76253 C 35.772903,116.86876 29.700594,108.74767 27.43772,102.70625 25.611581,97.844384 22.255491,87.77141 25.444093,88.552318 Z"
     style="fill:#f37021"
     id="path12" />
  <g
     id="g13"
     transform="matrix(1.133528,0.38786917,-0.38786917,1.133528,35.229784,-23.524826)"
     style="stroke-width:0.834688">
    <defs
       id="defs12">
      <path
         id="SVGID_1_"
         d="m 15.87,76.29 c -3.13,0.52 -3.33,3.52 -2.08,5.88 2.73,5.14 4.05,9.39 7.61,14.37 1.06,1.48 2.85,3.54 4.75,3.1 1.87,-0.44 3.6,-2.91 3.62,-4.7 0.08,-9.99 -1.42,-15.71 -2.95,-16.89 -3.19,-2.43 -8.51,-2.39 -10.95,-1.76 z" />
    </defs>
    <path
       id="use12"
       d="m 15.87,76.29 c -3.13,0.52 -3.33,3.52 -2.08,5.88 2.73,5.14 3.456725,6.673036 7.016725,11.653036 1.06,1.48 2.85,3.54 4.75,3.1 1.87,-0.44 3.6,-2.91 3.62,-4.7 C 29.256725,82.233036 28.35,79.23 26.82,78.05 23.63,75.62 18.31,75.66 15.87,76.29 Z"
       style="fill:#f37021;stroke-width:0.834688"
       sodipodi:nodetypes="ccccccc" />
    <path
       d="m 12.33,80.67 c 1.17,-1.57 4.82,0.45 7.24,0.83 2.99,0.47 6.81,-0.88 10.2,10.33 0.51,1.7 2.24,-10.87 -2.2,-15.08 -2.05,-1.94 -5.9,-1.66 -8.61,-1.43 -3,0.25 -5.59,0.84 -7.99,2.61"
       style="fill:#dd5728;stroke-width:0.834688"
       clip-path="url(#clipPath24)"
       id="path13"
       sodipodi:nodetypes="cccccc" />
  </g>
  <g
     id="g19"
     transform="matrix(1.1003803,-0.37800514,0.37800514,1.1003803,-19.436047,15.324411)"
     style="stroke-width:0.859478">
    <defs
       id="defs17">
      <path
         id="SVGID_7_"
         d="m 31.9,42.26 c -3.69,-2.14 -8.38,1.29 -11.11,3.47 -3.07,2.46 -4.29,5.62 -2.95,9.7 1.5,4.54 6.02,9.14 10.81,8.54 3.67,-0.46 7.78,-4.16 8.53,-7.65 1.16,-5.38 -0.82,-11.05 -5.28,-14.06 z" />
    </defs>
    <path
       id="use18"
       d="m 31.9,42.26 c -3.69,-2.14 -8.38,1.29 -11.11,3.47 -3.07,2.46 -4.29,5.62 -2.95,9.7 1.5,4.54 6.02,9.14 10.81,8.54 3.67,-0.46 7.78,-4.16 8.53,-7.65 1.16,-5.38 -0.82,-11.05 -5.28,-14.06 z"
       style="fill:#f37021;stroke-width:0.859478" />
    <clipPath
       id="SVGID_8_">
      <use
         style="overflow:visible"
         xlink:href="#SVGID_7_"
         id="use19" />
    </clipPath>
    <path
       d="m 24.47,42.58 c 1.76,0.54 0.59,6.66 1.77,11.39 1.51,6.05 6.06,7.02 4.44,9.43 -0.56,0.83 5.77,-1.28 6.62,-1.96 1.08,-0.87 0.33,-2.88 0.02,-3.93 C 36.4,54.44 35.11,51.45 33.79,48.53 32.55,45.8 31.2,42.15 28.8,40.19 27.34,39 26.21,39.93 25.15,41.11"
       style="fill:#dd5728;stroke-width:0.859478"
       clip-path="url(#SVGID_8_)"
       id="path19" />
  </g>
  <g
     id="g21"
     transform="matrix(1.1628795,0.0378951,-0.0378951,1.1628795,-0.18576603,-3.8648756)"
     style="stroke-width:0.859478">
    <defs
       id="defs19">
      <path
         id="SVGID_9_"
         d="m 43.92,38.73 c -1.98,-3.86 -10.32,-2.24 -13.66,0.54 -3.88,3.22 -2.9,7.68 -1.97,12.06 0.93,4.36 3.76,8.39 8.13,8.49 4.48,0.1 10.06,-1.69 10.89,-5.16 1.32,-5.45 -0.9,-11.37 -3.39,-15.93 z" />
    </defs>
    <path
       id="use20"
       d="m 43.92,38.73 c -1.98,-3.86 -10.32,-2.24 -13.66,0.54 -3.88,3.22 -2.9,7.68 -1.97,12.06 0.93,4.36 3.76,8.39 8.13,8.49 4.48,0.1 10.06,-1.69 10.89,-5.16 1.32,-5.45 -0.9,-11.37 -3.39,-15.93 z"
       style="fill:#f37021;stroke-width:0.859478" />
    <clipPath
       id="SVGID_10_">
      <use
         style="overflow:visible"
         xlink:href="#SVGID_9_"
         id="use21" />
    </clipPath>
    <path
       d="m 38.44,33.47 c -0.49,0.65 -5.08,3.23 -3.98,2.97 3.12,-0.72 1.97,6.53 3.12,11.69 1.4,6.24 3.32,8.43 0,11.66 -2.66,2.58 8.99,-0.61 10.13,-1.63 3.55,-3.17 4.53,-6.46 4.49,-11.2 -0.04,-5.54 -3.47,-10.6 -8.64,-12.64 -2.7,-1.06 -3.19,-3.22 -5.12,-0.85 z"
       style="fill:#dd5728;stroke-width:0.859478"
       clip-path="url(#SVGID_10_)"
       id="path21" />
  </g>
  <g
     id="g23"
     transform="rotate(8.6932069,8.6982873,85.421684)">
    <path
       d="m 42.25,33.47 c 14.1,-6.72 26.897334,-9.182929 36.335081,-7.73305 7.626698,1.171655 10.519099,4.189926 11.227456,7.449201 0.765879,3.52394 -13.309978,5.052019 -12.371442,7.793386 0.655706,1.915251 5.577208,-0.204286 7.573984,-1.111298 3.004557,-1.364784 4.287663,0.179536 1.554921,3.498983 -1.237472,1.503151 -4.097023,3.840774 -5.987023,4.810774 C 75.452977,50.797996 70.7,53.47 65.19,54.95 c -5.91,1.59 -14.71,4 -19.13,2.96 -3.93,-0.93 -5.21,-6.28 -6.32,-11.37 -1.28,-5.95 -3,-10.44 2.51,-13.07 z"
       style="fill:#f37021"
       id="path23"
       sodipodi:nodetypes="csssssccccc" />
    <ellipse
       cx="75.493362"
       cy="32.656151"
       style="fill:#4a3530"
       id="circle23"
       rx="3.1175671"
       ry="3.1741333" />
  </g>
</svg>
