<?xml version="1.0" encoding="UTF-8" standalone="no"?>
<!-- Generator: Adobe Illustrator 16.0.0, SVG Export Plug-In . SVG Version: 6.00 Build 0)  -->

<svg
   version="1.1"
   id="レイヤー_1"
   x="0px"
   y="0px"
   width="128px"
   height="128px"
   viewBox="0 0 128 128"
   enable-background="new 0 0 128 128"
   xml:space="preserve"
   sodipodi:docname="emoji_u1f963.svg"
   inkscape:version="1.2.2 (732a01da63, 2022-12-09)"
   xmlns:inkscape="http://www.inkscape.org/namespaces/inkscape"
   xmlns:sodipodi="http://sodipodi.sourceforge.net/DTD/sodipodi-0.dtd"
   xmlns:xlink="http://www.w3.org/1999/xlink"
   xmlns="http://www.w3.org/2000/svg"
   xmlns:svg="http://www.w3.org/2000/svg"><defs
   id="defs32260"><clipPath
     id="SVGID_2_"><use
       style="overflow:visible"
       xlink:href="#SVGID_1_"
       id="use32384" /></clipPath><path
     id="SVGID_1_"
     d="m 226.16,99.7 z m 0,0 -17.94,0.61 c -0.63,0.49 -0.17,1.51 -0.17,2.19 0,0.79 0,1.58 0,2.37 0,1.29 -0.53,2.41 -1.36,3.43 -2.26,2.76 -6.27,3.88 -9.66,5.22 -2.29,0.9 -7.9,3 -7.58,5.78 0.4,3.38 7.14,4.8 10.06,5.38 8.08,1.4 24.28,2.06 36.57,-0.69 2.05,-0.46 7,-1.56 7.68,-3.69 1.24,-3.91 -7.7,-6.15 -10.46,-7.19 -3.79,-1.42 -8.02,-3.37 -8.03,-7.48 0,-1.14 0,-2.25 0.18,-3.34 0.15,-0.71 -0.16,-2.21 0.71,-2.59 z" /></defs><sodipodi:namedview
   id="namedview32258"
   pagecolor="#ffffff"
   bordercolor="#000000"
   borderopacity="0.25"
   inkscape:showpageshadow="2"
   inkscape:pageopacity="0.0"
   inkscape:pagecheckerboard="0"
   inkscape:deskcolor="#d1d1d1"
   showgrid="false"
   showguides="true"
   inkscape:zoom="4.2421875"
   inkscape:cx="59.639042"
   inkscape:cy="58.460405"
   inkscape:window-width="1366"
   inkscape:window-height="697"
   inkscape:window-x="-8"
   inkscape:window-y="-8"
   inkscape:window-maximized="1"
   inkscape:current-layer="レイヤー_1" />

<ellipse
   cx="63.465088"
   cy="61.871525"
   rx="46.028671"
   ry="19.675159"
   style="fill:#066da3;fill-opacity:1;stroke-width:0.999992"
   id="ellipse32845" /><g
   id="g32413"
   transform="translate(-163.61598,-6.4169632)" /><path
   id="path44634"
   style="fill:#86d4ee;fill-opacity:1;stroke-width:1"
   d="M 9.6582031,61.872288 C 9.6582434,47.631555 31.414727,38.087345 63.464844,38.087346 c 32.050117,1e-6 53.806596,9.54421 53.806636,23.784942 h -7.77734 C 109.49214,51.006424 90.551625,42.19846 63.464844,42.19846 c -27.086781,0 -46.027577,8.807964 -46.029297,19.673828 z"
   sodipodi:nodetypes="czcczcc" /><path
   id="path32401"
   style="fill:#78a3ad"
   d="m 114.66211,27.802734 c -0.91174,-0.03397 -1.82678,0.07953 -2.69531,0.355469 -5.79663,1.841633 -9.52537,7.811336 -13.308597,12.197266 -8.158263,9.457936 -15.872347,18.451716 -23.25,30.591797 -7.377654,12.140079 -5.988162,15.948184 -2.763672,19.3125 1.829508,1.908848 3.150689,-2.20967 3.757813,-3.394532 1.158588,-2.261098 3.508333,-6.874204 8.361328,-13.238281 4.852994,-6.364079 8.815496,-12.683427 17.511648,-21.053993 8.27412,-7.964332 11.67855,-10.160081 14.20906,-11.838585 1.96403,-1.302752 4.80307,-2.846799 5.8125,-5.080078 1.04261,-2.306713 -1.52939,-5.381498 -3.32422,-6.517578 -1.27931,-0.80977 -2.79099,-1.277376 -4.31055,-1.333985 z"
   sodipodi:nodetypes="ssssssssssss" /><path
   id="path32395"
   style="fill:#42c0e7;fill-opacity:1;stroke-width:1"
   d="m 9.6582031,61.872288 c 0,0.0033 -2.5e-6,0.0065 0,0.0098 l 99.8359369,-0.0098 H 17.435547 Z m 0,0.0098 h -0.011719 c 0,26.913616 24.0910776,48.734376 53.8066406,48.734376 29.554287,0 53.535385,-21.586757 53.794925,-48.298829 C 116.74976,76.351904 92.869467,87.657437 63.464844,87.657444 33.755215,87.657438 9.6692959,76.118239 9.6582031,61.882054 Z" /><path
   id="ellipse32399"
   style="fill:#86d4ee;fill-opacity:1;stroke-width:1"
   d="m 9.6582031,61.872288 c 4.03e-5,14.240733 24.0901049,25.785147 53.8066409,25.785156 29.716533,-1e-5 53.806596,-11.544424 53.806636,-25.785156 h -7.77734 c -0.002,10.865864 -20.609361,19.673828 -46.029296,19.673828 -25.419937,0 -46.027577,-8.807964 -46.029297,-19.673828 z"
   sodipodi:nodetypes="csccscc" /></svg>
