<?xml version="1.0" encoding="UTF-8" standalone="no"?>
<svg
   width="128"
   height="128"
   version="1.1"
   id="svg5"
   sodipodi:docname="emoji_u1f975.svg"
   xml:space="preserve"
   inkscape:version="1.3 (0e150ed6c4, 2023-07-21)"
   xmlns:inkscape="http://www.inkscape.org/namespaces/inkscape"
   xmlns:sodipodi="http://sodipodi.sourceforge.net/DTD/sodipodi-0.dtd"
   xmlns:xlink="http://www.w3.org/1999/xlink"
   xmlns="http://www.w3.org/2000/svg"
   xmlns:svg="http://www.w3.org/2000/svg"><sodipodi:namedview
     id="namedview5"
     pagecolor="#ffffff"
     bordercolor="#000000"
     borderopacity="0.25"
     inkscape:showpageshadow="2"
     inkscape:pageopacity="0.0"
     inkscape:pagecheckerboard="0"
     inkscape:deskcolor="#d1d1d1"
     inkscape:zoom="2.7958997"
     inkscape:cx="31.83233"
     inkscape:cy="51.861661"
     inkscape:current-layer="svg5" /><defs
     id="defs2"><linearGradient
   id="a"><stop
     offset="0"
     stop-color="#fc451b"
     id="stop1" /><stop
     offset="1"
     stop-color="#fcc21b"
     id="stop2" /></linearGradient><linearGradient
   xlink:href="#a"
   id="b"
   x1="64.22"
   y1="9.62"
   x2="64.22"
   y2="118.5"
   gradientUnits="userSpaceOnUse"
   gradientTransform="translate(-137.01751,-112.98649)" /><path
   id="SVGID_1_"
   d="M125.83,75.35c7.81-30.05-8.92-59.14-38.28-65.49C24.23-3.83-3.89,53.75,0.75,95.17         c0,13.81,28.22,25.02,63.02,25.02c32.63,0,59.45-9.86,62.69-22.47c0.21-0.84,0.32-1.7,0.32-2.56         C126.78,88.6,122.65,87.61,125.83,75.35z" />&#10;					&#10;				&#10;						<defs
   id="defs1">&#10;							<path
   id="path6"
   d="M 125.83,75.35 C 133.64,45.3 116.91,16.21 87.55,9.86 24.23,-3.83 -3.89,53.75 0.75,95.17 c 0,13.81 28.22,25.02 63.02,25.02 32.63,0 59.45,-9.86 62.69,-22.47 0.21,-0.84 0.32,-1.7 0.32,-2.56 0,-6.56 -4.13,-7.55 -0.95,-19.81 z" />&#10;						</defs>&#10;						<linearGradient
   id="SVGID_2_"
   gradientUnits="userSpaceOnUse"
   x1="68.605499"
   y1="65.350601"
   x2="82.306503"
   y2="10.2418"
   xlink:href="#a">&#10;							<stop
   offset="0"
   style="stop-color:#FCC21B"
   id="stop1-9" />&#10;							<stop
   offset="1"
   style="stop-color:#42ADE7"
   id="stop2-7" />&#10;						</linearGradient>&#10;						&#10;						<clipPath
   id="SVGID_3_">&#10;							<use
   xlink:href="#SVGID_1_"
   overflow="visible"
   id="use3" />&#10;						</clipPath>&#10;					<linearGradient
   inkscape:collect="always"
   xlink:href="#a"
   id="linearGradient13"
   x1="68.138725"
   y1="7.8098121"
   x2="48.320248"
   y2="119.43198"
   gradientUnits="userSpaceOnUse" /></defs><g
     id="g11"
     transform="translate(-0.00157966,0.00374314)">&#10;	<g
   id="g10">&#10;		<g
   id="g6">&#10;			<g
   id="g5">&#10;				<use
   xlink:href="#SVGID_1_"
   overflow="visible"
   fill="url(#SVGID_2_)"
   id="use2"
   style="fill:url(#linearGradient13);fill-opacity:1" />&#10;			</g>&#10;		</g>&#10;		<path
   fill="#ed6c30"
   d="m 48.18053,94.72727 c 2.807924,0.805586 5.159861,2.543958 7.4318,4.183398 2.663929,2.013962 5.687847,3.031552 9.231752,2.741822 3.015919,-0.24733 5.935841,-1.44158 7.83979,-3.653407 5.263858,-6.133767 1.48796,-14.465231 0.024,-16.768927 -3.183915,-4.69219 -8.015786,-8.225466 -13.487639,-10.204101 -2.919921,-1.081182 -6.519825,-1.886769 -9.911734,-2.021034 -8.095782,-0.40986 -17.519529,2.169432 -23.247375,9.525712 -4.335884,5.398846 -5.327857,14.274434 2.111943,17.221187 2.431935,0.961051 5.183861,1.257846 7.703793,0.381593 3.279912,-1.151848 6.943814,-2.204764 10.527717,-1.759571 0.607984,0.0636 1.199968,0.190797 1.775953,0.353328 z"
   id="path7"
   style="stroke-width:0.75187" />&#10;		&#10;		&#10;		&#10;		&#10;	</g>&#10;	&#10;</g><path
     d="m 88.637314,49.455145 c 0.150958,-0.866955 0.165266,-1.706952 0.115319,-2.527687 -1.732099,-0.778674 -3.500568,-1.756539 -5.224827,-3.163177 a 40.316,40.316 0 0 1 -4.426594,-4.191488 c -2.5665,1.156881 -4.639426,3.851223 -5.241546,7.309193 -0.876589,5.034251 1.713561,9.687554 5.802042,10.399462 4.086767,0.721759 8.0973,-2.782199 8.975606,-7.826303 z M 28.699176,39.018409 c 0.150959,-0.866956 0.421414,-1.662352 0.745832,-2.417899 1.893351,-0.147392 3.888257,-0.469959 5.986484,-1.211003 2.131211,-0.755605 3.948882,-1.575955 5.5828,-2.448601 2.02442,1.956275 3.064652,5.192696 2.462533,8.650665 -0.87659,5.034253 -4.887123,8.538211 -8.975606,7.826303 -4.090198,-0.702056 -6.680347,-5.355358 -5.802042,-10.399462 z"
     fill="#2f2f2f"
     id="path3" /><path
     d="m 114.35804,94.177734 c -1.68,4.499996 -5.13,6.959996 -7.79,7.389996 -2.99001,0.48 -5.52001,-0.31 -7.140006,-2.22 -2.05,-2.419996 -2.34,-6.229996 -0.84,-10.729996 2.729996,-8.09 3.689996,-22.88 3.709996,-23.02 0.04,-0.57 0.39,-1.05 0.94,-1.21 0.53,-0.19 1.11,0 1.48,0.43 12.37001,14.92 11.36001,24.8 9.64001,29.36 z"
     fill="#ffffff"
     id="path5" /></svg>
