<?xml version="1.0" encoding="UTF-8" standalone="no"?>
<svg
   width="128"
   height="128"
   version="1.1"
   id="svg25480"
   sodipodi:docname="emoji_u1f616.svg"
   inkscape:version="1.2.2 (732a01da63, 2022-12-09)"
   xmlns:inkscape="http://www.inkscape.org/namespaces/inkscape"
   xmlns:sodipodi="http://sodipodi.sourceforge.net/DTD/sodipodi-0.dtd"
   xmlns="http://www.w3.org/2000/svg"
   xmlns:svg="http://www.w3.org/2000/svg">
  <defs
     id="defs25484" />
  <sodipodi:namedview
     id="namedview25482"
     pagecolor="#ffffff"
     bordercolor="#000000"
     borderopacity="0.25"
     inkscape:showpageshadow="2"
     inkscape:pageopacity="0.0"
     inkscape:pagecheckerboard="0"
     inkscape:deskcolor="#d1d1d1"
     showgrid="false"
     inkscape:zoom="2.1210938"
     inkscape:cx="85.097606"
     inkscape:cy="67.418048"
     inkscape:window-width="1366"
     inkscape:window-height="697"
     inkscape:window-x="-8"
     inkscape:window-y="-8"
     inkscape:window-maximized="1"
     inkscape:current-layer="svg25480" />
  <path
     d="M64 9.64C1.69 9.64.21 79.5.21 93.33c0 13.83 28.56 25.03 63.79 25.03 35.24 0 63.79-11.21 63.79-25.03 0-13.83-1.47-83.69-63.79-83.69z"
     fill="#fcc21b"
     id="path25470" />
  <g
     fill="#2f2f2f"
     id="g21297"
     transform="translate(-0.11,9.888609)">
    <path
       d="m 98.46,52 c -0.5,1.13 -1.7,1.72 -2.86,1.52 -0.21,-0.04 -0.42,-0.1 -0.61,-0.19 -7.83,-3.49 -18.47,-3.39 -18.57,-3.39 -1.21,0.02 -2.24,-0.78 -2.57,-1.92 -0.33,-1.15 0.16,-2.37 1.18,-2.98 9.01,-5.41 21.72,-7.26 22.25,-7.33 1.45,-0.2 2.78,0.8 2.98,2.24 0.2,1.44 -0.81,2.77 -2.24,2.98 -0.07,0.01 -5.28,0.76 -11.12,2.65 3.25,0.47 6.94,1.48 10.24,2.94 1.32,0.59 1.92,2.16 1.32,3.48 z m -68.7,0 c 0.5,1.13 1.7,1.72 2.86,1.52 0.21,-0.04 0.42,-0.1 0.61,-0.19 7.83,-3.49 18.47,-3.39 18.57,-3.39 1.21,0.02 2.24,-0.78 2.57,-1.92 0.33,-1.15 -0.16,-2.37 -1.18,-2.98 -9.01,-5.41 -21.72,-7.26 -22.25,-7.33 -1.45,-0.2 -2.78,0.8 -2.98,2.24 -0.2,1.44 0.81,2.77 2.24,2.98 0.07,0.01 5.28,0.76 11.12,2.65 -3.25,0.47 -6.94,1.48 -10.24,2.94 A 2.65,2.65 0 0 0 29.76,52 Z"
       id="path21295" />
  </g>
  <path
     id="path4099"
     style="fill:#2f2f2f;fill-opacity:1;stroke-width:0.999997"
     d="m 96.569911,76.523016 c -0.806973,-0.004 -1.560842,0.381612 -2.136795,0.927735 -1.917226,1.596727 -3.834452,3.193455 -5.751677,4.790182 -2.40409,-1.234605 -4.797153,-2.49239 -7.208117,-3.712551 -0.99497,-0.434868 -2.201909,-0.227723 -3.028947,0.464566 -2.066412,1.480234 -4.132824,2.96047 -6.199235,4.440705 -2.281484,-1.389684 -4.550625,-2.801974 -6.839828,-4.177526 -0.860343,-0.485802 -1.968183,-0.478045 -2.825378,0.01149 -2.278639,1.376476 -4.542814,2.779393 -6.81589,4.166037 -2.198818,-1.568781 -4.386273,-3.154602 -6.592159,-4.712784 -0.9216,-0.575457 -2.146346,-0.544301 -3.066098,0.01923 -2.259347,1.166946 -4.518695,2.33389 -6.778042,3.500836 -2.073912,-1.720405 -4.134907,-3.457274 -6.216838,-5.167457 -1.086185,-0.809208 -2.729196,-0.705561 -3.70006,0.241031 -1.003184,0.911669 -1.210248,2.544684 -0.468306,3.67911 0.421902,0.669455 1.128131,1.076324 1.700525,1.601419 2.204321,1.829461 4.395241,3.675728 6.607918,5.494705 0.928875,0.676722 2.245961,0.711871 3.224606,0.118237 2.312905,-1.195735 4.62581,-2.39147 6.938713,-3.587204 2.237143,1.597332 4.460496,3.214857 6.706251,4.79958 0.974433,0.601968 2.285947,0.544473 3.216952,-0.117225 2.220962,-1.3606 4.441924,-2.721198 6.662886,-4.081795 2.346112,1.431573 4.682163,2.880314 7.03453,4.301211 1.003485,0.536184 2.299236,0.388688 3.176395,-0.328432 2.125055,-1.524446 4.250109,-3.048893 6.375164,-4.573339 2.443311,1.257297 4.87725,2.533662 7.32641,3.779046 1.053156,0.460024 2.346395,0.209731 3.174297,-0.580713 2.505679,-2.093628 5.023335,-4.173622 7.521574,-6.275717 0.997157,-0.919939 1.185202,-2.556165 0.434187,-3.683792 -0.526164,-0.836866 -1.484827,-1.354338 -2.473038,-1.336582 z" />
</svg>
