<?xml version="1.0" encoding="UTF-8" standalone="no"?>
<!-- Generator: Adobe Illustrator 25.2.3, SVG Export Plug-In . SVG Version: 6.00 Build 0)  -->

<svg
   version="1.1"
   id="Layer_2"
   x="0px"
   y="0px"
   viewBox="0 0 128 128"
   style="enable-background:new 0 0 128 128;"
   xml:space="preserve"
   sodipodi:docname="emoji_u1fa94.svg"
   inkscape:version="1.3 (0e150ed6c4, 2023-07-21)"
   xmlns:inkscape="http://www.inkscape.org/namespaces/inkscape"
   xmlns:sodipodi="http://sodipodi.sourceforge.net/DTD/sodipodi-0.dtd"
   xmlns="http://www.w3.org/2000/svg"
   xmlns:svg="http://www.w3.org/2000/svg"><defs
   id="defs37098">&#10;	&#10;&#10;	&#10;</defs><sodipodi:namedview
   id="namedview37096"
   pagecolor="#ffffff"
   bordercolor="#000000"
   borderopacity="0.25"
   inkscape:showpageshadow="2"
   inkscape:pageopacity="0.0"
   inkscape:pagecheckerboard="0"
   inkscape:deskcolor="#d1d1d1"
   showgrid="false"
   inkscape:zoom="4"
   inkscape:cx="79.625"
   inkscape:cy="57.875"
   inkscape:window-width="1366"
   inkscape:window-height="697"
   inkscape:window-x="-8"
   inkscape:window-y="-8"
   inkscape:window-maximized="1"
   inkscape:current-layer="Layer_2" />&#10;<path
   style="fill:#855c52;fill-opacity:1"
   d="m 58.6,67.377612 c -0.6,0.24 -52.2,0.39 -52.2,0.39 0,0 -1.02,6.57 2.98,15.1 2.7,5.75 7.07,13.649998 12.75,18.349998 3.46,2.86 10.84,9.29 29.55,9.41 20.38,0.13 28.12,-9.18 32.53,-13.35 4.41,-4.169998 10.61,-12.989998 15.13,-17.399998 4.52,-4.41 9.41,-7.39 9.77,-11.56 0.36,-4.17 -2.74,-4.29 -2.74,-4.29 z"
   id="path37011" />&#10;<path
   style="fill:#e65619;fill-opacity:1"
   d="m 51.45,92.877612 c 20.49,-0.82 27.29,-8.1 40.99,-16.33 11.74,-7.04 16.21,-9.65 16.21,-11.44 0,-1.79 -10.79,-5.11 -17.04,-7.98 -8.82,-4.05 -21.81,-11.8 -44.69,-11.92 -19.67,-0.1 -40.56,7.87 -40.56,23.12 0.01,15.49 25.32,25.34 45.09,24.55 z"
   id="path37013" />&#10;<path
   id="path37015"
   style="fill:#fcc21b;fill-opacity:1"
   d="m 45.689453,54.926753 c -16.749949,0 -27.390315,6.030411 -27.820312,12.40039 -0.09265,1.368821 0.241907,2.671937 0.912109,3.898438 0.08098,0.148193 0.165188,0.295476 0.255859,0.441406 h 0.0059 c 3.451882,5.554528 13.926878,9.430733 23.896484,10.291016 15.029955,1.299994 23.031509,-0.951265 31.771485,-5.28125 2.725317,-1.35006 5.24196,-2.74703 7.5,-4.085938 -0.0028,-0.002 -0.0089,-0.0058 -0.01172,-0.0078 h 0.02734 c 4.007051,-2.376752 7.170457,-4.564632 9.0625,-5.945313 -6.839979,-2.969991 -27.608175,-11.389219 -43.828124,-11.699219 -0.59,-0.01 -1.191485,-0.01172 -1.771485,-0.01172 z" />&#10;&#10;&#10;&#10;&#10;&#10;&#10;&#10;&#10;&#10;&#10;&#10;&#10;&#10;&#10;&#10;&#10;&#10;&#10;&#10;&#10;&#10;&#10;&#10;&#10;&#10;&#10;<radialGradient
   id="SVGID_1_"
   cx="93.645"
   cy="9.376"
   r="57.5758"
   gradientUnits="userSpaceOnUse">&#10;	<stop
   offset="0.4179"
   style="stop-color:#FFCF18"
   id="stop37071" />&#10;	<stop
   offset="0.6005"
   style="stop-color:#FFCC16"
   id="stop37073" />&#10;	<stop
   offset="0.7438"
   style="stop-color:#FEC212"
   id="stop37075" />&#10;	<stop
   offset="0.8733"
   style="stop-color:#FDB10A"
   id="stop37077" />&#10;	<stop
   offset="0.9821"
   style="stop-color:#FC9D00"
   id="stop37079" />&#10;</radialGradient>&#10;&#10;&#10;&#10;<radialGradient
   id="SVGID_2_"
   cx="91.3772"
   cy="51.1426"
   r="49.412"
   gradientTransform="matrix(0.0162 -0.9999 0.741 0.012 52.002 141.8952)"
   gradientUnits="userSpaceOnUse">&#10;	<stop
   offset="0.184"
   style="stop-color:#FFD874"
   id="stop37088" />&#10;	<stop
   offset="1"
   style="stop-color:#FFD874;stop-opacity:0"
   id="stop37090" />&#10;</radialGradient>&#10;&#10;<g
   id="g1"
   transform="matrix(1.0378113,0,0,1.0378113,-3.4962742,-2.7121235)"
   style="stroke-width:0.963566"><g
     id="g11658"
     transform="matrix(0.35391914,0,0,0.35391914,83.205069,26.508393)"
     style="stroke-width:2.72256"><path
       d="m 32.5,66.83 c -4.030967,12.099593 -9.200629,24.86023 -4.4,38 5.659371,15.49023 23.379216,25.15525 39.46,22.5 4.389219,-0.72475 9.451109,-2.13794 13.39,-4.26 4.19111,-2.25794 8.777737,-5.35213 12.05,-8.83 4.207739,-4.47213 6.882542,-10.20098 7.68,-16.27 C 101.60254,90.949016 99.369363,84.330196 97.33,77.7 94.869363,69.700196 74.872114,14.630322 63.04,14.630322 51.207886,14.630322 38.448152,48.975669 32.5,66.83 Z"
       style="fill:#ed6c30;stroke-width:2.72256"
       id="path11654"
       sodipodi:nodetypes="ssssssszs" /></g><path
     style="fill:#fcc21b;stroke-width:5.7814;stroke-linecap:round"
     d="m 105.85846,47.564178 c -1.02056,0 -6.191617,7.870703 -6.191617,12.154134 0,4.28343 2.465277,6.869275 6.118107,6.869275 3.65283,0 5.74174,-2.498498 5.74174,-6.653165 0,-4.154666 -4.64768,-12.370244 -5.66823,-12.370244 z"
     id="path1"
     sodipodi:nodetypes="zzzzz" /></g></svg>
