<?xml version="1.0" encoding="UTF-8" standalone="no"?>
<svg
   width="100%"
   height="100%"
   viewBox="0 0 128 128"
   version="1.1"
   xml:space="preserve"
   style="fill-rule:evenodd;clip-rule:evenodd;stroke-linejoin:round;stroke-miterlimit:2;"
   id="svg23"
   sodipodi:docname="emoji_u1f976.svg"
   inkscape:version="1.3 (0e150ed6c4, 2023-07-21)"
   xmlns:inkscape="http://www.inkscape.org/namespaces/inkscape"
   xmlns:sodipodi="http://sodipodi.sourceforge.net/DTD/sodipodi-0.dtd"
   xmlns="http://www.w3.org/2000/svg"
   xmlns:svg="http://www.w3.org/2000/svg"><defs
   id="defs23" /><sodipodi:namedview
   id="namedview23"
   pagecolor="#ffffff"
   bordercolor="#000000"
   borderopacity="0.25"
   inkscape:showpageshadow="2"
   inkscape:pageopacity="0.0"
   inkscape:pagecheckerboard="0"
   inkscape:deskcolor="#d1d1d1"
   inkscape:zoom="2.2108991"
   inkscape:cx="-42.968945"
   inkscape:cy="-46.135078"
   inkscape:current-layer="svg23" />&#10;    <path
   fill="#fcc21b"
   d="m 122.66312,42.914888 c -9.11,-18.650004 -32.76,-32.040001 -58.659999,-32.040001 -25.889999,0 -49.55,13.389997 -58.6600002,32.029985 -13.829998,28.310022 4.150001,54.860032 4.150001,54.860032 l 0.05,0.0302 c 3.4100002,10.890017 26.4600002,19.330007 54.4599992,19.330007 27.990003,0 51.039999,-8.43001 54.459999,-19.319996 0.01,0 0.04,-0.0401 0.04,-0.0401 0,0 17.98,-26.550011 4.16,-54.850017 z"
   id="path1-1"
   style="stroke-width:0.999999;fill:#1e9ddb;fill-opacity:1" />&#10;    <path
   d="M42,68C37.51,68.04 33.83,63.73 33.78,58.38C33.73,53.01 37.33,48.63 41.82,48.59C46.3,48.55 49.99,52.86 50.04,58.23C50.09,63.59 46.49,67.96 42,68ZM86.11,68C90.59,67.99 94.22,63.64 94.21,58.29C94.2,52.92 90.55,48.59 86.07,48.6C81.58,48.61 77.94,52.96 77.95,58.33C77.97,63.68 81.62,68.01 86.11,68Z"
   style="fill:rgb(47,47,47);fill-rule:nonzero;"
   id="path2" />&#10;    <g
   transform="matrix(0.671334,0,0,0.671334,21.0346,28.7912)"
   id="g3">&#10;        <path
   d="M95,101.6L33,101.6C25.3,101.6 19,95.3 19,87.6C19,79.9 25.3,73.6 33,73.6L95,73.6C102.7,73.6 109,79.9 109,87.6C109,95.3 102.7,101.6 95,101.6Z"
   style="fill:white;fill-rule:nonzero;"
   id="path3" />&#10;    </g>&#10;    <g
   transform="matrix(0.671334,0,0,0.671334,21.0346,28.7912)"
   id="g4">&#10;        <path
   d="M47.44,75.17L50.56,75.17L50.56,100.17L47.44,100.17L47.44,75.17ZM32.44,75.17L35.56,75.17L35.56,100.17L32.44,100.17L32.44,75.17ZM92.45,75.17L95.57,75.17L95.57,100.17L92.45,100.17L92.45,75.17ZM77.44,75.17L80.56,75.17L80.56,100.17L77.44,100.17L77.44,75.17ZM62.44,75.17L65.56,75.17L65.56,100.17L62.44,100.17L62.44,75.17Z"
   style="fill:rgb(131,131,131);fill-rule:nonzero;"
   id="path4" />&#10;    </g>&#10;    <g
   transform="matrix(0.671334,0,0,0.671334,21.0346,28.7912)"
   id="g5">&#10;        <rect
   x="20.49"
   y="86.04"
   width="87.01"
   height="3.12"
   style="fill:rgb(131,131,131);fill-rule:nonzero;"
   id="rect4" />&#10;    </g>&#10;    <g
   transform="matrix(0.671334,0,0,0.671334,21.0346,28.7912)"
   id="g6">&#10;        <path
   d="M95,77.6C100.51,77.6 105,82.09 105,87.6C105,93.11 100.51,97.6 95,97.6L33,97.6C27.49,97.6 23,93.11 23,87.6C23,82.09 27.49,77.6 33,77.6L95,77.6M95,73.6L33,73.6C25.3,73.6 19,79.9 19,87.6C19,95.3 25.3,101.6 33,101.6L95,101.6C102.7,101.6 109,95.3 109,87.6C109,79.9 102.7,73.6 95,73.6Z"
   style="fill:rgb(47,47,47);fill-rule:nonzero;"
   id="path5" />&#10;    </g>&#10;    <g
   transform="matrix(0.732775,0,0,0.732775,-15.2859,-41.2537)"
   id="g8">&#10;        <path
   d="M70.52,103.89C71.38,105.34 71.15,107.07 70.01,107.74C68.87,108.41 67.25,107.78 66.39,106.33L57.48,91.2C56.62,89.75 56.85,88.02 57.99,87.35C59.13,86.68 60.75,87.31 61.61,88.77L70.52,103.89Z"
   style="fill:rgb(225,245,254);fill-rule:nonzero;"
   id="path6" />&#10;        <path
   d="M72.76,95.07C74.44,95.05 75.82,96.11 75.84,97.44C75.85,98.76 74.5,99.85 72.81,99.86L55.25,100.02C53.56,100.04 52.18,98.98 52.17,97.66C52.16,96.34 53.51,95.25 55.21,95.24L72.76,95.07Z"
   style="fill:rgb(225,245,254);fill-rule:nonzero;"
   id="path7" />&#10;        <path
   d="M66.24,88.72C67.07,87.25 68.68,86.59 69.83,87.24C70.98,87.89 71.24,89.61 70.41,91.08L61.77,106.37C60.94,107.84 59.33,108.51 58.18,107.85C57.03,107.2 56.77,105.48 57.6,104.01L66.24,88.72Z"
   style="fill:rgb(225,245,254);fill-rule:nonzero;"
   id="path8" />&#10;    </g>&#10;    <g
   transform="matrix(0.728174,0,0,0.728174,-34.3122,-55.5973)"
   id="g11">&#10;        <path
   d="M70.52,103.89C71.38,105.34 71.15,107.07 70.01,107.74C68.87,108.41 67.25,107.78 66.39,106.33L57.48,91.2C56.62,89.75 56.85,88.02 57.99,87.35C59.13,86.68 60.75,87.31 61.61,88.77L70.52,103.89Z"
   style="fill:rgb(225,245,254);fill-rule:nonzero;"
   id="path9" />&#10;        <path
   d="M72.76,95.07C74.44,95.05 75.82,96.11 75.84,97.44C75.85,98.76 74.5,99.85 72.81,99.86L55.25,100.02C53.56,100.04 52.18,98.98 52.17,97.66C52.16,96.34 53.51,95.25 55.21,95.24L72.76,95.07Z"
   style="fill:rgb(225,245,254);fill-rule:nonzero;"
   id="path10" />&#10;        <path
   d="M66.24,88.72C67.07,87.25 68.68,86.59 69.83,87.24C70.98,87.89 71.24,89.61 70.41,91.08L61.77,106.37C60.94,107.84 59.33,108.51 58.18,107.85C57.03,107.2 56.77,105.48 57.6,104.01L66.24,88.72Z"
   style="fill:rgb(225,245,254);fill-rule:nonzero;"
   id="path11" />&#10;    </g>&#10;    <g
   transform="matrix(1,0,0,1,26.8843,-69.434)"
   id="g14">&#10;        <path
   d="M70.52,103.89C71.38,105.34 71.15,107.07 70.01,107.74C68.87,108.41 67.25,107.78 66.39,106.33L57.48,91.2C56.62,89.75 56.85,88.02 57.99,87.35C59.13,86.68 60.75,87.31 61.61,88.77L70.52,103.89Z"
   style="fill:rgb(225,245,254);fill-rule:nonzero;"
   id="path12" />&#10;        <path
   d="M72.76,95.07C74.44,95.05 75.82,96.11 75.84,97.44C75.85,98.76 74.5,99.85 72.81,99.86L55.25,100.02C53.56,100.04 52.18,98.98 52.17,97.66C52.16,96.34 53.51,95.25 55.21,95.24L72.76,95.07Z"
   style="fill:rgb(225,245,254);fill-rule:nonzero;"
   id="path13" />&#10;        <path
   d="M66.24,88.72C67.07,87.25 68.68,86.59 69.83,87.24C70.98,87.89 71.24,89.61 70.41,91.08L61.77,106.37C60.94,107.84 59.33,108.51 58.18,107.85C57.03,107.2 56.77,105.48 57.6,104.01L66.24,88.72Z"
   style="fill:rgb(225,245,254);fill-rule:nonzero;"
   id="path14" />&#10;    </g>&#10;    <g
   transform="matrix(0.674422,0,0,0.674422,70.6663,-54.2785)"
   id="g17">&#10;        <path
   d="M70.52,103.89C71.38,105.34 71.15,107.07 70.01,107.74C68.87,108.41 67.25,107.78 66.39,106.33L57.48,91.2C56.62,89.75 56.85,88.02 57.99,87.35C59.13,86.68 60.75,87.31 61.61,88.77L70.52,103.89Z"
   style="fill:rgb(225,245,254);fill-rule:nonzero;"
   id="path15" />&#10;        <path
   d="M72.76,95.07C74.44,95.05 75.82,96.11 75.84,97.44C75.85,98.76 74.5,99.85 72.81,99.86L55.25,100.02C53.56,100.04 52.18,98.98 52.17,97.66C52.16,96.34 53.51,95.25 55.21,95.24L72.76,95.07Z"
   style="fill:rgb(225,245,254);fill-rule:nonzero;"
   id="path16" />&#10;        <path
   d="M66.24,88.72C67.07,87.25 68.68,86.59 69.83,87.24C70.98,87.89 71.24,89.61 70.41,91.08L61.77,106.37C60.94,107.84 59.33,108.51 58.18,107.85C57.03,107.2 56.77,105.48 57.6,104.01L66.24,88.72Z"
   style="fill:rgb(225,245,254);fill-rule:nonzero;"
   id="path17" />&#10;    </g>&#10;    <g
   transform="matrix(0.845281,0,0,0.845281,59.0225,-1.51139)"
   id="g20">&#10;        <path
   d="M70.52,103.89C71.38,105.34 71.15,107.07 70.01,107.74C68.87,108.41 67.25,107.78 66.39,106.33L57.48,91.2C56.62,89.75 56.85,88.02 57.99,87.35C59.13,86.68 60.75,87.31 61.61,88.77L70.52,103.89Z"
   style="fill:rgb(225,245,254);fill-rule:nonzero;"
   id="path18" />&#10;        <path
   d="M72.76,95.07C74.44,95.05 75.82,96.11 75.84,97.44C75.85,98.76 74.5,99.85 72.81,99.86L55.25,100.02C53.56,100.04 52.18,98.98 52.17,97.66C52.16,96.34 53.51,95.25 55.21,95.24L72.76,95.07Z"
   style="fill:rgb(225,245,254);fill-rule:nonzero;"
   id="path19" />&#10;        <path
   d="M66.24,88.72C67.07,87.25 68.68,86.59 69.83,87.24C70.98,87.89 71.24,89.61 70.41,91.08L61.77,106.37C60.94,107.84 59.33,108.51 58.18,107.85C57.03,107.2 56.77,105.48 57.6,104.01L66.24,88.72Z"
   style="fill:rgb(225,245,254);fill-rule:nonzero;"
   id="path20" />&#10;    </g>&#10;    <g
   transform="matrix(0.672888,0,0,0.672888,-25.3397,11.9378)"
   id="g23">&#10;        <path
   d="M70.52,103.89C71.38,105.34 71.15,107.07 70.01,107.74C68.87,108.41 67.25,107.78 66.39,106.33L57.48,91.2C56.62,89.75 56.85,88.02 57.99,87.35C59.13,86.68 60.75,87.31 61.61,88.77L70.52,103.89Z"
   style="fill:rgb(225,245,254);fill-rule:nonzero;"
   id="path21" />&#10;        <path
   d="M72.76,95.07C74.44,95.05 75.82,96.11 75.84,97.44C75.85,98.76 74.5,99.85 72.81,99.86L55.25,100.02C53.56,100.04 52.18,98.98 52.17,97.66C52.16,96.34 53.51,95.25 55.21,95.24L72.76,95.07Z"
   style="fill:rgb(225,245,254);fill-rule:nonzero;"
   id="path22" />&#10;        <path
   d="M66.24,88.72C67.07,87.25 68.68,86.59 69.83,87.24C70.98,87.89 71.24,89.61 70.41,91.08L61.77,106.37C60.94,107.84 59.33,108.51 58.18,107.85C57.03,107.2 56.77,105.48 57.6,104.01L66.24,88.72Z"
   style="fill:rgb(225,245,254);fill-rule:nonzero;"
   id="path23" />&#10;    </g>&#10;</svg>
