<?xml version="1.0" encoding="UTF-8" standalone="no"?>
<svg
   height="128"
   width="128"
   version="1.1"
   id="svg7"
   sodipodi:docname="emoji_u1f9fa.svg"
   inkscape:version="1.3 (0e150ed6c4, 2023-07-21)"
   xmlns:inkscape="http://www.inkscape.org/namespaces/inkscape"
   xmlns:sodipodi="http://sodipodi.sourceforge.net/DTD/sodipodi-0.dtd"
   xmlns="http://www.w3.org/2000/svg"
   xmlns:svg="http://www.w3.org/2000/svg">
  <sodipodi:namedview
     id="namedview7"
     pagecolor="#ffffff"
     bordercolor="#000000"
     borderopacity="0.25"
     inkscape:showpageshadow="2"
     inkscape:pageopacity="0.0"
     inkscape:pagecheckerboard="0"
     inkscape:deskcolor="#d1d1d1"
     showguides="false"
     inkscape:zoom="4.0546875"
     inkscape:cx="53.148362"
     inkscape:cy="63.013487"
     inkscape:window-width="1366"
     inkscape:window-height="697"
     inkscape:window-x="-8"
     inkscape:window-y="-8"
     inkscape:window-maximized="1"
     inkscape:current-layer="svg7" />
  <defs
     id="defs2">
    <inkscape:path-effect
       effect="powerstroke"
       id="path-effect18"
       is_visible="true"
       lpeversion="1.3"
       scale_width="1"
       interpolator_type="CentripetalCatmullRom"
       interpolator_beta="0.2"
       start_linecap_type="zerowidth"
       end_linecap_type="zerowidth"
       offset_points="0.16020614,1.9927772 | 0.9976116,5.1766335 | 1.8380005,2.4649441"
       linejoin_type="round"
       miter_limit="4"
       not_jump="false"
       sort_points="true"
       message="&lt;b&gt;Ctrl + click&lt;/b&gt; on existing node and move it" />
    <inkscape:path-effect
       effect="powerstroke"
       id="path-effect17"
       is_visible="true"
       lpeversion="1.3"
       scale_width="1"
       interpolator_type="CentripetalCatmullRom"
       interpolator_beta="0.2"
       start_linecap_type="zerowidth"
       end_linecap_type="zerowidth"
       offset_points="0.23797282,2.1060233 | 0.99862325,2.8767491 | 1.7516711,1.9117836"
       linejoin_type="round"
       miter_limit="4"
       not_jump="false"
       sort_points="true"
       message="&lt;b&gt;Ctrl + click&lt;/b&gt; on existing node and move it" />
    <inkscape:path-effect
       effect="powerstroke"
       id="path-effect15"
       is_visible="true"
       lpeversion="1.3"
       scale_width="1"
       interpolator_type="CentripetalCatmullRom"
       interpolator_beta="0.2"
       start_linecap_type="zerowidth"
       end_linecap_type="zerowidth"
       offset_points="0.23797282,2.1060233 | 0.99862325,2.8767491 | 1.7516711,1.9117836"
       linejoin_type="round"
       miter_limit="4"
       not_jump="false"
       sort_points="true"
       message="&lt;b&gt;Ctrl + click&lt;/b&gt; on existing node and move it" />
    <inkscape:path-effect
       effect="powerstroke"
       id="path-effect14"
       is_visible="true"
       lpeversion="1.3"
       scale_width="1"
       interpolator_type="CentripetalCatmullRom"
       interpolator_beta="0.2"
       start_linecap_type="round"
       end_linecap_type="round"
       offset_points="0.014509258,2.4411674 | 0.0035158928,2.4400608 | 0.94739026,3.0738317"
       linejoin_type="round"
       miter_limit="4"
       not_jump="false"
       sort_points="true"
       message="&lt;b&gt;Ctrl + click&lt;/b&gt; on existing node and move it" />
    <inkscape:path-effect
       effect="powerstroke"
       id="path-effect2"
       is_visible="true"
       lpeversion="1.3"
       scale_width="1"
       interpolator_type="CentripetalCatmullRom"
       interpolator_beta="0.2"
       start_linecap_type="round"
       end_linecap_type="round"
       offset_points="0.010991771,2.4411674 | 0,2.4400608 | 0.94296116,3.0738317"
       linejoin_type="round"
       miter_limit="4"
       not_jump="false"
       sort_points="true"
       message="&lt;b&gt;Ctrl + click&lt;/b&gt; on existing node and move it" />
    <inkscape:path-effect
       effect="powerstroke"
       id="path-effect12"
       is_visible="true"
       lpeversion="1.3"
       scale_width="1"
       interpolator_type="CentripetalCatmullRom"
       interpolator_beta="0.2"
       start_linecap_type="round"
       end_linecap_type="round"
       offset_points="0.010991771,2.4411674 | 0,2.4400608 | 0.94296116,3.0738317"
       linejoin_type="round"
       miter_limit="4"
       not_jump="false"
       sort_points="true"
       message="&lt;b&gt;Ctrl + click&lt;/b&gt; on existing node and move it" />
    <inkscape:path-effect
       effect="powerstroke"
       id="path-effect11"
       is_visible="true"
       lpeversion="1.3"
       scale_width="1"
       interpolator_type="CentripetalCatmullRom"
       interpolator_beta="0.2"
       start_linecap_type="zerowidth"
       end_linecap_type="zerowidth"
       offset_points="0.24973723,2.0611945 | 2.0128117,3.1406818 | 3.8370852,2.2040249"
       linejoin_type="round"
       miter_limit="4"
       not_jump="false"
       sort_points="true"
       message="&lt;b&gt;Ctrl + click&lt;/b&gt; on existing node and move it" />
    <inkscape:path-effect
       effect="powerstroke"
       id="path-effect9"
       is_visible="true"
       lpeversion="1.3"
       scale_width="1"
       interpolator_type="CentripetalCatmullRom"
       interpolator_beta="0.2"
       start_linecap_type="zerowidth"
       end_linecap_type="zerowidth"
       offset_points="0.24973723,2.0611945 | 2.0128117,3.1406818 | 3.8370852,2.2040249"
       linejoin_type="round"
       miter_limit="4"
       not_jump="false"
       sort_points="true"
       message="&lt;b&gt;Ctrl + click&lt;/b&gt; on existing node and move it" />
    <linearGradient
       id="a">
      <stop
         offset="0"
         id="stop1" />
      <stop
         offset="1"
         stop-opacity="0"
         id="stop2" />
    </linearGradient>
    <clipPath
       id="b">
      <path
         d="M109.38 48.823a45.525 10.583 0 0 1-45.525 10.583A45.525 10.583 0 0 1 18.33 48.823a45.525 10.583 0 0 1 45.525-10.584 45.525 10.583 0 0 1 45.526 10.584z"
         fill="#ab6208"
         paint-order="stroke fill markers"
         id="path2" />
    </clipPath>
  </defs>
  <g
     id="g18"
     transform="matrix(1.0991665,0,0,1.0991665,-6.393999,-3.6207252)"
     style="stroke-width:0.90978">
    <g
       id="g17"
       transform="matrix(0.99951174,0,0,0.99951174,151.93202,18.885588)"
       style="stroke-width:0.910226">
      <path
         d="m -40.67624,37.238453 c 1.561208,-9.177951 -3.866427,-16.921517 -46.82107,-16.921517 -42.95464,0 -48.3812,7.743189 -46.82106,16.920064 l 7.29623,42.917019 c 1.31701,7.746731 7.2659,14.280751 39.523859,14.280751 32.257957,0 38.204193,-6.53418 39.521918,-14.280751 z"
         fill="#ef9d44"
         paint-order="stroke fill markers"
         id="path4-7"
         style="fill:#f79329;stroke:none;stroke-width:0.910226"
         sodipodi:nodetypes="szsszss" />
      <path
         id="path12"
         style="fill:#ed6c30;fill-rule:nonzero;stroke:none;stroke-width:2.73068;stroke-linecap:round;stroke-dasharray:none;stroke-opacity:1"
         d="m -87.565183,39.824329 a 2.7027363,2.7027363 0 0 0 -0.534356,0.06707 2.7027363,2.7027363 0 0 0 -2.100642,2.634998 c 0,0.038 8.3e-5,0.130059 0,0.227156 -1.48e-4,0.17169 0.0029,0.285182 0,0.713915 -0.0223,3.352534 -0.427642,35.481161 -0.592767,50.923831 1.089495,0.01654 2.13875,0.04327 3.29483,0.04327 1.156839,0 2.206832,-0.02671 3.296992,-0.04327 -0.165124,-15.44267 -0.570468,-47.571297 -0.592766,-50.923831 -0.0029,-0.428733 1.47e-4,-0.542225 0,-0.713915 -8.3e-5,-0.0971 0,-0.189154 0,-0.227156 a 2.7027363,2.7027363 0 0 0 -2.771291,-2.702063 z m 26.98818,0.0043 a 2.7027363,2.7027363 0 0 0 -0.538681,0.02163 2.7027363,2.7027363 0 0 0 -2.314817,2.446784 c -0.0103,0.118788 -0.02361,0.285505 -0.06274,0.713916 -0.303285,3.320078 -3.350062,34.619884 -4.8503,50.335392 2.533188,-0.349726 4.748402,-0.777889 6.6935,-1.274232 1.207864,-16.415523 3.295442,-45.394659 3.545782,-48.604686 0.03345,-0.428894 0.04856,-0.595095 0.05842,-0.713916 a 2.7027363,2.7027363 0 0 0 -2.531157,-2.924891 z m -53.301387,0.02163 a 2.7027363,2.7027363 0 0 0 -3.072,2.903258 c 0.01,0.118821 0.0271,0.285022 0.0606,0.713916 0.25035,3.210027 2.33792,32.189163 3.54579,48.604686 1.94536,0.496196 4.16016,0.92463 6.6935,1.274232 -1.50024,-15.715508 -4.54703,-47.015314 -4.8503,-50.335392 -0.0391,-0.428411 -0.0525,-0.595128 -0.0627,-0.713916 a 2.7027363,2.7027363 0 0 0 -2.31483,-2.446784 z" />
      <path
         id="path11"
         style="fill:#fcc21b;stroke-width:5.46134;stroke-linecap:round"
         d="m -40.221075,34.121277 c 0,8.957502 -11.463284,16.218993 -47.276271,16.218993 -35.812984,0 -47.276274,-7.261492 -47.276274,-16.218993 0,-8.957501 11.46329,-16.218993 47.276274,-16.218993 35.812987,0 47.276271,7.26149 47.276271,16.218993 z"
         sodipodi:nodetypes="sssss" />
      <path
         id="path8"
         style="fill:#855c52;stroke-width:5.46134;stroke-linecap:round"
         d="m -55.820652,32.194468 c 0,3.801747 -7.680786,6.883671 -31.676697,6.883671 -23.995911,0 -31.676691,-3.081925 -31.676691,-6.883671 0,-3.801745 7.68078,-6.88367 31.676691,-6.88367 23.995911,0 31.676697,3.081924 31.676697,6.88367 z"
         sodipodi:nodetypes="sssss" />
      <path
         id="path14"
         style="fill:#ed6c30;fill-opacity:1;fill-rule:nonzero;stroke:none;stroke-width:5.46135;stroke-linecap:round;stroke-opacity:1"
         d="m -131.5597,53.460122 0.98866,5.819495 c 2.49169,1.016782 6.13436,2.160599 11.25824,3.247235 8.3283,1.766213 19.10735,3.002759 32.162986,2.991956 h 0.136293 c 12.919272,-0.0195 23.62301,-1.126 31.883913,-2.673938 4.605946,-0.863069 8.031186,-1.769408 10.542157,-2.604712 l 0.919437,-5.412779 c -2.546798,0.442248 -6.480324,1.26131 -12.45026,2.148237 -8.037648,1.194118 -18.261867,2.189477 -30.895247,2.169871 h -0.131967 c -12.698095,-0.02812 -22.941232,-1.285626 -30.936352,-2.782108 -7.13435,-1.33537 -11.19602,-2.515529 -13.47786,-2.903257 z m 2.96166,17.430363 1.06872,6.286785 c 2.17981,0.707457 4.86859,1.440394 8.21652,2.150401 8.3283,1.766212 19.10735,3.002759 32.162986,2.991956 l 0.136293,-0.0022 c 12.919272,-0.01951 23.62301,-1.123838 31.883913,-2.671775 2.969745,-0.556475 5.460096,-1.131412 7.528566,-1.693928 l 0.984339,-5.789209 c -2.38719,0.44639 -5.467346,1.014537 -9.501571,1.613882 -8.037648,1.194119 -18.261867,2.189478 -30.895247,2.169872 h -0.131967 c -12.698095,-0.02812 -22.941232,-1.285626 -30.936352,-2.782108 -4.77161,-0.893125 -8.08352,-1.699592 -10.5162,-2.273713 z" />
    </g>
    <path
       style="fill:#f79329;fill-opacity:1;fill-rule:nonzero;stroke:none;stroke-width:5.45868;stroke-linecap:round;stroke-opacity:1"
       d="m 25.810079,55.456791 c 0.383014,0.02152 1.32309,-0.16022 2.266406,-2.311195 0.334848,-0.763529 0.669017,-1.654955 1.197853,-3.046534 0.96697,-2.544486 2.72827,-7.210492 5.571378,-11.713797 1.278212,-2.024608 2.790868,-4.051777 4.593195,-5.936917 1.76496,-1.846056 3.777516,-3.52462 6.089259,-4.942284 2.348828,-1.440406 4.987789,-2.60027 7.975833,-3.407741 3.11613,-0.842084 6.561427,-1.28724 10.375591,-1.295079 0.07728,-1.59e-4 0.154848,-1.36e-4 0.232719,7.1e-5 3.879732,0.01037 7.361025,0.511935 10.488567,1.450141 2.941611,0.882432 5.532855,2.139804 7.834443,3.695028 2.268089,1.532588 4.238726,3.343827 5.963117,5.333796 1.762021,2.033397 3.233765,4.2154 4.473067,6.390188 2.751996,4.829336 4.447902,9.847526 5.393483,12.537346 0.502043,1.428122 0.854013,2.406743 1.198323,3.187894 1.027227,2.33052 2.267167,2.522499 2.730647,2.500577 v 0 c 0.38871,-0.01839 1.80758,-0.374716 2.15549,-3.155946 0.10966,-0.876705 0.15352,-2.115561 0.0477,-3.740663 -0.21118,-3.242774 -1.10666,-8.939777 -3.82978,-15.149827 -1.204104,-2.745941 -2.782063,-5.623257 -4.846628,-8.397285 -2.026287,-2.722595 -4.501777,-5.317684 -7.50675,-7.56591 C 85.151457,17.59737 81.641631,15.743616 77.66978,14.4595 73.459121,13.098177 68.919873,12.438357 64.112324,12.448743 c -0.09514,2.07e-4 -0.18999,6.62e-4 -0.284555,0.0014 -4.671702,0.03465 -9.081329,0.678888 -13.172143,1.954711 -3.93424,1.226993 -7.414109,2.988607 -10.452785,5.163291 -2.980439,2.133004 -5.438288,4.592764 -7.451265,7.175382 -2.049585,2.629585 -3.615663,5.357364 -4.807493,7.954068 -2.693243,5.867911 -3.573107,11.243145 -3.803537,14.294848 -0.117812,1.560253 -0.08955,2.745969 -0.007,3.572009 0.254535,2.547466 1.367571,2.875016 1.676547,2.892375 z"
       id="path17"
       sodipodi:nodetypes="czc"
       transform="translate(0,-2.9595376)" />
  </g>
</svg>
