<?xml version="1.0" encoding="UTF-8" standalone="no"?>
<svg
   width="128"
   height="128"
   version="1.1"
   id="svg2"
   sodipodi:docname="emoji_u1f61e.svg"
   xml:space="preserve"
   inkscape:version="1.3 (0e150ed6c4, 2023-07-21)"
   xmlns:inkscape="http://www.inkscape.org/namespaces/inkscape"
   xmlns:sodipodi="http://sodipodi.sourceforge.net/DTD/sodipodi-0.dtd"
   xmlns="http://www.w3.org/2000/svg"
   xmlns:svg="http://www.w3.org/2000/svg"><defs
     id="defs2" /><sodipodi:namedview
     id="namedview2"
     pagecolor="#ffffff"
     bordercolor="#000000"
     borderopacity="0.25"
     inkscape:showpageshadow="2"
     inkscape:pageopacity="0.0"
     inkscape:pagecheckerboard="0"
     inkscape:deskcolor="#d1d1d1"
     inkscape:zoom="8.515625"
     inkscape:cx="64"
     inkscape:cy="64"
     inkscape:current-layer="svg2" /><g
     id="g4"
     transform="translate(0.00255094,6.491993e-4)">&#10;	<path
   fill="#fcc21b"
   d="M 125.74,74.99 C 133.54,45.32 117,15.79 87.51,10.36 24.09,-1.31 -3.79,53.68 0.82,94.54 c 0,13.63 28.19,24.69 62.94,24.69 34.74,0 62.93,-11.06 62.93,-24.69 0,-6.47 -4.13,-7.45 -0.95,-19.55 z"
   id="path1" />&#10;	<path
   fill="#2f2f2f"
   d="m 55.23,60.38 c 0.15,-0.97 0.44,-1.87 0.81,-2.73 2.01,0.01 4.18,-0.1 6.6,-0.45 3.56,-0.51 6.32,-1.74 8.52,-3.16 1.96,2.16 2.99,5.31 2.49,8.67 C 72.81,68.39 68,72.46 62.9,71.8 57.82,71.18 54.39,66.06 55.23,60.38 Z"
   id="path2" />&#10;	<path
   fill="#2f2f2f"
   d="m 108.4,96.08 c -1.19,1.67 -3.39,1.88 -4.94,0.43 -24.42,-23.09 -49.02,2.49 -50.14,3.68 -0.82,0.87 -1.82,1.28 -2.81,1.29 -0.89,0.01 -1.75,-0.35 -2.36,-1.1 -1.27,-1.58 -1.01,-4.16 0.54,-5.79 0.34,-0.32 30.23,-30.64 59.09,-4.06 1.51,1.4 1.8,3.88 0.62,5.55 z"
   id="path3" />&#10;	<path
   fill="#2f2f2f"
   d="m 113.19,66.81 c -0.73,5.24 -4.88,9 -9.25,8.4 -4.38,-0.59 -7.34,-5.32 -6.62,-10.57 0.47,-3.27 2.26,-5.95 4.58,-7.37 1.48,1.89 3.52,3.75 6.51,5.09 1.7,0.78 3.28,1.31 4.79,1.74 0.1,0.89 0.12,1.78 -0.01,2.71 z"
   id="path4" />&#10;</g></svg>
