<?xml version="1.0" encoding="UTF-8" standalone="no"?>
<svg
   enable-background="new 0 0 128 128"
   viewBox="0 0 128 128"
   version="1.1"
   id="svg35"
   sodipodi:docname="emoji_u1f99b.svg"
   inkscape:version="1.3 (0e150ed6c4, 2023-07-21)"
   xmlns:inkscape="http://www.inkscape.org/namespaces/inkscape"
   xmlns:sodipodi="http://sodipodi.sourceforge.net/DTD/sodipodi-0.dtd"
   xmlns="http://www.w3.org/2000/svg"
   xmlns:svg="http://www.w3.org/2000/svg">
  <defs
     id="defs35" />
  <sodipodi:namedview
     id="namedview35"
     pagecolor="#ffffff"
     bordercolor="#000000"
     borderopacity="0.25"
     inkscape:showpageshadow="2"
     inkscape:pageopacity="0.0"
     inkscape:pagecheckerboard="0"
     inkscape:deskcolor="#d1d1d1"
     inkscape:zoom="2.867097"
     inkscape:cx="84.231541"
     inkscape:cy="77.604629"
     inkscape:window-width="1366"
     inkscape:window-height="697"
     inkscape:window-x="-8"
     inkscape:window-y="-8"
     inkscape:window-maximized="1"
     inkscape:current-layer="svg35" />
  <g
     fill="#C9BDA2"
     id="g4" />
  <linearGradient
     id="h"
     x1="14.568"
     x2="34.854"
     y1="21.21"
     y2="21.21"
     gradientUnits="userSpaceOnUse">
    <stop
       stop-color="#E4C7FF"
       offset="0"
       id="stop6" />
    <stop
       stop-color="#997FB3"
       offset="1"
       id="stop7" />
  </linearGradient>
  <linearGradient
     id="g"
     x1="93.146"
     x2="113.43"
     y1="21.21"
     y2="21.21"
     gradientUnits="userSpaceOnUse">
    <stop
       stop-color="#997FB3"
       offset="0"
       id="stop8" />
    <stop
       stop-color="#E4C7FF"
       offset="1"
       id="stop9" />
  </linearGradient>
  <linearGradient
     id="f"
     x1="64"
     x2="64"
     y1="10.827"
     y2="78.082"
     gradientUnits="userSpaceOnUse">
    <stop
       stop-color="#E4C7FF"
       offset="0"
       id="stop10" />
    <stop
       stop-color="#997FB3"
       offset="1"
       id="stop11" />
  </linearGradient>
  <linearGradient
     id="e"
     x1="64"
     x2="64"
     y1="72.133"
     y2="143.24"
     gradientUnits="userSpaceOnUse">
    <stop
       stop-color="#DECEF2"
       offset=".00082131"
       id="stop12" />
    <stop
       stop-color="#CBBBDF"
       offset=".5148"
       id="stop13" />
    <stop
       stop-color="#BDADD1"
       offset=".9972"
       id="stop14" />
  </linearGradient>
  <linearGradient
     id="d"
     x1="16.835"
     x2="30.062"
     y1="61.578"
     y2="72.496"
     gradientUnits="userSpaceOnUse">
    <stop
       stop-color="#F5EDFF"
       offset="0"
       id="stop16" />
    <stop
       stop-color="#DBCBEF"
       offset="1"
       id="stop17" />
  </linearGradient>
  <linearGradient
     id="c"
     x1="26.368"
     x2="35.359"
     y1="67.302"
     y2="74.724"
     gradientUnits="userSpaceOnUse">
    <stop
       stop-color="#3B393D"
       offset=".213"
       id="stop18" />
    <stop
       stop-color="#343235"
       offset=".3967"
       id="stop19" />
    <stop
       stop-color="#1F1E20"
       offset=".6764"
       id="stop20" />
    <stop
       offset=".9979"
       id="stop21" />
  </linearGradient>
  <linearGradient
     id="b"
     x1="1160.1"
     x2="1173.3"
     y1="61.578"
     y2="72.496"
     gradientTransform="matrix(-1 0 0 1 1271.2 0)"
     gradientUnits="userSpaceOnUse">
    <stop
       stop-color="#F5EDFF"
       offset="0"
       id="stop22" />
    <stop
       stop-color="#DBCBEF"
       offset="1"
       id="stop23" />
  </linearGradient>
  <linearGradient
     id="a"
     x1="1169.6"
     x2="1178.6"
     y1="67.302"
     y2="74.724"
     gradientTransform="matrix(-1 0 0 1 1271.2 0)"
     gradientUnits="userSpaceOnUse">
    <stop
       stop-color="#3B393D"
       offset=".213"
       id="stop24" />
    <stop
       stop-color="#343235"
       offset=".3967"
       id="stop25" />
    <stop
       stop-color="#1F1E20"
       offset=".6764"
       id="stop26" />
    <stop
       offset=".9979"
       id="stop27" />
  </linearGradient>
  <g
     fill="#9785AB"
     id="g35" />
  <g
     id="g42"
     transform="matrix(1.0410246,0,0,1.0410246,-2.6255788,1.0420551)"
     style="stroke-width:0.960592">
    <path
       style="fill:#9e9e9e;fill-opacity:1;stroke-width:3.84236;stroke-linecap:round"
       d="M 95.86212,38.16419 C 110.96951,22.615374 109.28979,10.179968 101.91919,6.6913956 93.71358,2.8076051 81.951062,10.259755 76.703644,33.292817"
       id="path38"
       sodipodi:nodetypes="csc" />
    <path
       style="fill:#f9c3d5;fill-opacity:1;stroke-width:3.84236;stroke-linecap:round"
       d="M 90.38303,34.312566 C 99.85796,23.829989 101.89677,15.630228 98.07528,13.64282 94.73305,11.904659 88.618916,16.928596 82.858807,31.161106"
       id="path39"
       sodipodi:nodetypes="csc" />
    <path
       style="fill:#9e9e9e;fill-opacity:1;stroke-width:3.84236;stroke-linecap:round"
       d="M 32.137873,38.16419 C 17.030491,22.615374 18.710202,10.179968 26.080803,6.6913956 34.286415,2.8076051 46.048931,10.259755 51.296348,33.292817"
       id="path36"
       sodipodi:nodetypes="csc" />
    <path
       style="fill:#f9c3d5;fill-opacity:1;stroke-width:3.84236;stroke-linecap:round"
       d="M 37.616959,34.312566 C 28.142035,23.829989 26.103225,15.630228 29.924713,13.64282 c 3.342228,-1.738161 9.456363,3.285776 15.216473,17.518286"
       id="path37"
       sodipodi:nodetypes="csc" />
    <path
       d="m 21.736912,53.470347 c 0,-24.54 17.358208,-42.390347 42.267411,-42.390347 24.909202,0 42.258767,17.860347 42.258767,42.390347 0,16.003739 -13.413624,40.915587 -42.263089,40.915587 -28.849465,0 -42.263089,-24.911848 -42.263089,-40.915587 z"
       fill="url(#f)"
       id="path11"
       style="fill:#9e9e9e;stroke-width:0.960589"
       sodipodi:nodetypes="szszs" />
    <path
       d="M 64,115.24 C 28.857488,115.24 12.98896,102.80603 12.98896,88.269986 12.98896,73.733941 26.840752,55.86395 64,55.86395 c 37.15925,0 51.01104,17.859279 51.01104,32.406036 C 115.01104,102.81674 99.142511,115.24 64,115.24 Z"
       fill="url(#e)"
       id="path14"
       style="fill:#bdbdbd;stroke-width:0.960592"
       sodipodi:nodetypes="sssss" />
    <g
       id="g36"
       transform="translate(-1.7330017,-4)"
       style="stroke-width:0.960592">
      <ellipse
         cx="46.877151"
         cy="49.248253"
         id="circle15"
         style="fill:#424242;stroke-width:0.960585"
         rx="5.9771519"
         ry="6.6490383" />
      <ellipse
         cx="84.588852"
         cy="49.248253"
         id="circle16"
         style="fill:#424242;stroke-width:0.960585"
         rx="5.9771519"
         ry="6.6490383" />
    </g>
    <path
       d="M 64,72.89"
       fill="none"
       stroke="#af8dcd"
       stroke-miterlimit="10"
       stroke-width="2.42012"
       id="path16" />
    <path
       d="M 27.98963,80.874407 C 20.999015,78.303713 16.797978,70.362828 18.609536,63.135276 c 1.811558,-7.227552 8.946654,-11.009567 15.937269,-8.438873 6.990614,2.570693 11.191651,10.511578 9.380092,17.73913 -1.811558,7.227553 -8.946652,11.009567 -15.937267,8.438874 z"
       fill="url(#d)"
       id="path17"
       style="fill:#bdbdbd;fill-opacity:1;stroke-width:0.960592" />
    <path
       d="m 30.990371,72.621343 c -2.900716,-2.543776 -4.278834,-6.245036 -3.067424,-8.250446 1.200296,-2.01887 4.534453,-1.588177 7.435169,0.969057 2.900717,2.543775 4.278834,6.245035 3.067423,8.250445 -1.200296,2.005411 -4.534452,1.574718 -7.435168,-0.969056 z"
       fill="url(#c)"
       id="path21"
       style="fill:#424242;fill-opacity:1;stroke-width:0.960592" />
    <path
       d="m 100.01037,80.874407 c 6.99062,-2.570694 11.19166,-10.511579 9.38009,-17.739131 -1.81154,-7.227552 -8.94665,-11.009567 -15.93726,-8.438873 -6.990615,2.570693 -11.191652,10.511578 -9.380094,17.73913 1.811559,7.227553 8.946652,11.009567 15.937264,8.438874 z"
       fill="url(#b)"
       id="path23"
       style="fill:#bdbdbd;fill-opacity:1;stroke-width:0.960592" />
    <path
       d="m 97.00963,72.621343 c 2.90072,-2.543776 4.27884,-6.245036 3.06743,-8.250446 -1.2003,-2.01887 -4.53446,-1.588177 -7.435172,0.969057 -2.900715,2.543775 -4.278834,6.245035 -3.067424,8.250445 1.200296,2.005411 4.534456,1.574718 7.435166,-0.969056 z"
       fill="url(#a)"
       id="path27"
       style="fill:#424242;fill-opacity:1;stroke-width:0.960592" />
    <g
       id="g43"
       transform="translate(-0.05581146)">
      <path
         style="fill:#ffffff;fill-opacity:1;stroke-width:3.84237;stroke-linecap:round"
         d="m 38.598784,90.962039 c 0,0 -3.022586,12.934951 2.972749,14.416701 5.995334,1.48176 8.291825,-11.632642 8.291825,-11.632642 z"
         id="path40"
         sodipodi:nodetypes="cscc" />
      <path
         style="fill:#ffffff;fill-opacity:1;stroke-width:3.84237;stroke-linecap:round"
         d="m 89.512847,90.962039 c 0,0 3.022587,12.934951 -2.972749,14.416701 -5.995333,1.48176 -8.291824,-11.632642 -8.291824,-11.632642 z"
         id="path41"
         sodipodi:nodetypes="cscc" />
    </g>
    <path
       style="fill:none;fill-opacity:1;stroke:#424242;stroke-width:4.80296;stroke-linecap:round;stroke-dasharray:none;stroke-opacity:1"
       d="m 34.029187,86.45016 c 0,0 9.43546,8.740532 29.970811,8.740532 20.535351,0 29.970816,-8.740532 29.970816,-8.740532"
       id="path42"
       sodipodi:nodetypes="czc" />
  </g>
</svg>
