<?xml version="1.0" encoding="UTF-8" standalone="no"?>
<svg
   width="128"
   height="128"
   version="1.1"
   id="svg3"
   sodipodi:docname="emoji_u1f497.svg"
   inkscape:version="1.3 (0e150ed6c4, 2023-07-21)"
   xmlns:inkscape="http://www.inkscape.org/namespaces/inkscape"
   xmlns:sodipodi="http://sodipodi.sourceforge.net/DTD/sodipodi-0.dtd"
   xmlns="http://www.w3.org/2000/svg"
   xmlns:svg="http://www.w3.org/2000/svg">
  <defs
     id="defs3" />
  <sodipodi:namedview
     id="namedview3"
     pagecolor="#ffffff"
     bordercolor="#000000"
     borderopacity="0.25"
     inkscape:showpageshadow="2"
     inkscape:pageopacity="0.0"
     inkscape:pagecheckerboard="0"
     inkscape:deskcolor="#d1d1d1"
     inkscape:zoom="2.0273438"
     inkscape:cx="30.088632"
     inkscape:cy="109.25626"
     inkscape:window-width="1366"
     inkscape:window-height="697"
     inkscape:window-x="-8"
     inkscape:window-y="-8"
     inkscape:window-maximized="1"
     inkscape:current-layer="svg3" />
  <path
     d="m 99.773977,47.031791 c -0.129612,-0.266849 -0.274473,-0.518451 -0.41171,-0.777678 -0.09912,-0.190607 -0.198233,-0.388838 -0.304972,-0.571821 -0.190607,-0.327844 -0.381214,-0.64044 -0.571821,-0.945411 -0.061,-0.106745 -0.121989,-0.221104 -0.190608,-0.32022 -0.182982,-0.282098 -0.37359,-0.548949 -0.564197,-0.815799 -0.08387,-0.121989 -0.167734,-0.251602 -0.259226,-0.365966 -0.190608,-0.259226 -0.396463,-0.503203 -0.594694,-0.74718 -0.09912,-0.114365 -0.182983,-0.243978 -0.282099,-0.350717 -0.205856,-0.236353 -0.419335,-0.457458 -0.632816,-0.686186 -0.09912,-0.106744 -0.198231,-0.221104 -0.297348,-0.327845 -0.213479,-0.213479 -0.434583,-0.411711 -0.648064,-0.609942 -0.114364,-0.106745 -0.221103,-0.213481 -0.335468,-0.312596 -0.213481,-0.190607 -0.449833,-0.365966 -0.670937,-0.541324 -0.129613,-0.09912 -0.251602,-0.205856 -0.365966,-0.297348 -0.221104,-0.160109 -0.449833,-0.304972 -0.678562,-0.457457 -0.137237,-0.09149 -0.274474,-0.190607 -0.411711,-0.282099 -0.221105,-0.144861 -0.457458,-0.26685 -0.69381,-0.396463 -0.144862,-0.08387 -0.297347,-0.175358 -0.449834,-0.251601 -0.228728,-0.121989 -0.465081,-0.221105 -0.701434,-0.327844 -0.160109,-0.07624 -0.327844,-0.152486 -0.495579,-0.228729 -0.228728,-0.09149 -0.472705,-0.175359 -0.709058,-0.259226 -0.182983,-0.06099 -0.358342,-0.137237 -0.541325,-0.198231 -0.236353,-0.07624 -0.472705,-0.137237 -0.709058,-0.198231 -0.198231,-0.05337 -0.388839,-0.114365 -0.587071,-0.160111 -0.236352,-0.05337 -0.480329,-0.09149 -0.716682,-0.137237 -0.21348,-0.03812 -0.419337,-0.09149 -0.632816,-0.121988 -0.243977,-0.03812 -0.495579,-0.061 -0.739556,-0.08387 -0.21348,-0.02287 -0.434585,-0.05337 -0.663314,-0.06861 -0.251601,-0.02287 -0.503202,-0.02287 -0.762428,-0.03049 -0.21348,-0.0076 -0.419335,-0.02287 -0.64044,-0.02287 h -0.106745 c -0.297346,0 -0.587069,0 -0.884417,0.0076 -3.09546,0.05337 -6.099429,0.739555 -8.943289,1.928944 -3.042091,1.28088 -5.123521,3.194577 -7.830142,4.917665 -0.228729,0.144862 -0.487955,0.251601 -0.754805,0.327844 -0.07624,0.02288 -0.16011,0.03812 -0.243977,0.061 -0.198231,0.04575 -0.404088,0.06862 -0.594695,0.08387 -0.08387,0 -0.167733,0.0076 -0.251601,0.0076 -0.274474,-0.0076 -0.556573,-0.03812 -0.823423,-0.106744 -0.297348,-0.08387 -0.579446,-0.205856 -0.831047,-0.365966 -2.706623,-1.723088 -4.788053,-3.636785 -7.830144,-4.917665 -2.843858,-1.189388 -5.847828,-1.875574 -8.943289,-1.928944 -0.297346,-0.0076 -0.587069,-0.0076 -0.884417,-0.0076 h -0.114364 c -0.21348,0 -0.426959,0.01525 -0.64044,0.02287 -0.251602,0.0076 -0.510827,0.0076 -0.762429,0.03049 -0.221104,0.01525 -0.442208,0.04575 -0.663313,0.06861 -0.243977,0.02287 -0.487955,0.04575 -0.731931,0.08387 -0.221105,0.03049 -0.434584,0.08387 -0.655689,0.121988 -0.228729,0.04575 -0.472705,0.08387 -0.69381,0.129613 -0.21348,0.05337 -0.419336,0.114365 -0.632816,0.175359 -0.221105,0.06099 -0.449833,0.114364 -0.670937,0.182983 -0.205856,0.06099 -0.396463,0.144861 -0.594694,0.213479 -0.221105,0.07624 -0.442209,0.152487 -0.65569,0.243978 -0.190607,0.07624 -0.37359,0.167734 -0.556573,0.259225 -0.213479,0.09912 -0.42696,0.190607 -0.640439,0.297348 -0.182983,0.09149 -0.358342,0.205855 -0.541325,0.304971 -0.198231,0.114365 -0.404087,0.221104 -0.602318,0.343093 -0.175359,0.114364 -0.343094,0.236353 -0.518452,0.350717 -0.190608,0.129613 -0.388839,0.251602 -0.571822,0.388839 -0.167733,0.129613 -0.327844,0.259225 -0.487954,0.396462 -0.182983,0.144863 -0.365965,0.289724 -0.548948,0.44221 -0.152487,0.137237 -0.304972,0.282098 -0.457458,0.426959 -0.175358,0.167735 -0.350717,0.327845 -0.518451,0.495579 -0.137237,0.144862 -0.274474,0.297347 -0.404087,0.442209 -0.175359,0.190607 -0.358342,0.37359 -0.526077,0.571822 -0.129612,0.152485 -0.251601,0.32022 -0.381214,0.480329 -0.16011,0.205857 -0.335468,0.404088 -0.487954,0.625192 -0.121989,0.16011 -0.228728,0.335469 -0.343093,0.495579 -0.16011,0.228729 -0.327845,0.449832 -0.48033,0.686186 -0.09912,0.16011 -0.198232,0.327844 -0.297348,0.487954 -0.160109,0.259226 -0.32022,0.510827 -0.472705,0.785302 -0.09912,0.182982 -0.198231,0.37359 -0.297347,0.556572 -0.137237,0.266851 -0.2821,0.518452 -0.419337,0.792926 -0.228727,0.465083 -0.449832,0.945412 -0.655688,1.433366 -1.433366,3.331814 -1.456239,8.35622 -0.869169,11.855767 0.579446,3.491924 2.035684,6.640754 4.010375,9.583729 6.610258,9.797209 18.366908,14.348909 26.845116,22.255294 0.90729,0.846297 1.791707,1.753586 2.72187,2.607507 0.975909,0.899665 2.165298,2.973472 3.735901,3.072588 1.570603,-0.09149 2.759992,-2.172923 3.743525,-3.072588 0.922539,-0.853921 1.814581,-1.753586 2.72187,-2.607507 8.478208,-7.914009 20.227235,-12.458085 26.822244,-22.278166 1.974689,-2.942975 3.423299,-6.091806 4.010379,-9.58373 0.58707,-3.499548 0.55657,-8.523953 -0.8768,-11.855766 -0.21347,-0.487979 -0.434578,-0.960686 -0.655683,-1.425767 z"
     id="path1"
     style="fill:#d7598b;stroke-width:0.999998" />
  <path
     d="M 109.47969,44.599644 C 104.50866,32.957357 95.04692,26.286106 83.412257,26.286106 c -0.411711,0 -0.815799,0 -1.059776,0.0076 -4.239103,0.07624 -8.470583,0.983533 -12.595322,2.706621 -2.294911,0.968285 -4.170485,2.142426 -5.748713,3.225074 -1.578227,-1.082648 -3.461426,-2.264413 -5.786834,-3.240322 -4.094242,-1.715464 -8.325721,-2.615131 -12.389467,-2.683749 -0.411712,-0.01525 -0.815798,-0.01525 -1.334249,-0.01525 -11.520299,0 -20.982039,6.671251 -25.960699,18.298289 -2.965847,6.907604 -1.92132,15.035094 -1.532481,17.368127 0.777677,4.627942 2.584633,9.027155 5.542856,13.433994 5.093024,7.586165 12.267479,12.442836 18.588013,16.727685 3.57579,2.4169 6.953349,4.704186 9.682845,7.258322 0.365965,0.343093 0.724306,0.693813 1.082648,1.052153 0.495579,0.48033 0.991157,0.96066 1.486736,1.41812 l 0.21348,0.24398 c 1.326627,1.57823 4.452584,5.27601 9.804833,5.60385 l 0.594695,0.0228 0.58707,-0.0305 c 5.344626,-0.32022 8.470584,-4.018 9.804833,-5.59623 l 0.205856,-0.24398 c 0.487954,-0.45746 0.968285,-0.92254 1.448615,-1.38 0.37359,-0.36596 0.747181,-0.72431 1.128395,-1.08265 2.737118,-2.554137 6.114677,-4.841423 9.690469,-7.265947 6.328158,-4.277225 13.49499,-9.133896 18.58801,-16.727685 2.9506,-4.399215 4.76518,-8.790804 5.55048,-13.433995 0.80817,-4.795677 0.82343,-11.878639 -1.52486,-17.352878 z m -3.61391,16.483709 c -0.64806,3.89601 -2.20342,7.624287 -4.72705,11.398309 -4.536456,6.747494 -10.971354,11.108587 -17.192773,15.324817 -3.751149,2.538888 -7.281194,4.932914 -10.323284,7.761525 -0.381214,0.365965 -0.762429,0.731931 -1.197013,1.158891 -0.449834,0.442209 -0.907291,0.884417 -1.364748,1.311378 l -0.404088,0.419336 -0.236352,0.274474 c -1.052151,1.242759 -3.011594,3.568167 -6.137552,3.751147 l -0.282098,0.0152 -0.282099,-0.0152 C 60.600389,102.29262 58.633324,99.974842 57.5583,98.693962 L 57.344819,98.449985 56.940732,98.023024 C 56.47565,97.596064 56.010569,97.138607 55.492118,96.643028 55.118528,96.277063 54.752562,95.918721 54.371348,95.568004 51.329257,92.739393 47.799212,90.345367 44.048063,87.798855 37.826644,83.590249 31.391745,79.229156 26.870544,72.49691 24.331655,68.715264 22.783925,64.986987 22.135861,61.090977 21.899508,59.688108 20.847356,52.39929 23.317626,46.635329 27.495735,36.868616 35.013282,31.493494 44.490271,31.493494 c 0.449833,0 0.80055,0 1.235134,0.01525 3.423305,0.061 7.044842,0.85392 10.468147,2.279662 2.012812,0.853921 3.659657,1.906071 4.856671,2.729495 a 5.2203494,5.2203494 0 0 0 5.901198,0 c 1.197013,-0.823424 2.82861,-1.875574 4.810925,-2.714247 3.507172,-1.463862 7.098212,-2.24154 10.681627,-2.302534 h 0.114364 c 0.190608,-0.0077 0.518452,-0.0077 0.85392,-0.0077 9.545608,0 17.108903,5.382747 21.287013,15.157084 1.90607,4.452583 1.82221,10.559638 1.16651,14.432776 z"
     id="path2"
     style="fill:#d7598b;stroke-width:0.999998;fill-opacity:1" />
  <path
     id="path4"
     style="color:#000000;fill:#d7598b;fill-opacity:1;stroke-width:1;-inkscape-stroke:none"
     d="m 42.753898,16.243371 c -15.02154,0 -27.937263,9.265348 -34.1675993,23.815518 -4.1613612,9.696503 -2.6121601,19.407183 -2.0979304,22.492562 v 0.0045 0.0045 c 1.0058865,5.986015 3.387403,11.70714 7.0366637,17.143413 6.394442,9.524652 15.090744,15.287817 21.974384,19.954409 l 0.0045,0.0024 0.0024,0.0024 c 3.892929,2.631257 7.317937,4.994027 9.760535,7.279697 0.330462,0.30993 0.670454,0.64065 1.027184,0.99738 l 0.03669,0.0366 0.03439,0.0344 c 0.449954,0.4361 0.941202,0.90418 1.444477,1.37569 l 0.04586,0.0527 -0.04128,-0.0505 c 0.0057,0.005 0.01034,0.0108 0.01604,0.0161 1.509321,1.79528 6.591058,7.79057 15.13261,8.31377 l 0.07336,0.004 1.008841,0.039 0.953813,-0.0505 h 0.02521 c 8.609581,-0.51585 13.731834,-6.63573 15.185345,-8.35504 l 0.0024,-0.002 c 0.464388,-0.43961 0.918887,-0.87415 1.327542,-1.26334 l 0.0321,-0.0321 0.0321,-0.0298 c 0.369493,-0.36195 0.738528,-0.71743 1.116603,-1.07304 l 0.0069,-0.004 c 2.453667,-2.28849 5.877803,-4.64995 9.769705,-7.288861 l 0.0069,-0.0045 c 6.898486,-4.662648 15.585989,-10.428074 21.976679,-19.956703 3.63599,-5.421106 6.02602,-11.131596 7.04125,-17.134241 v -0.0024 -0.0024 c 1.04947,-6.227553 1.26027,-14.672557 -2.08647,-22.481097 -6.22072,-14.56911 -19.16267,-23.838446 -34.284532,-23.838446 -0.42504,0 -0.828973,-0.0012 -1.283979,0.01151 -5.449807,0.09984 -10.870375,1.271747 -16.058908,3.439229 l -0.01151,0.0045 -0.0092,0.0045 c -1.562648,0.659325 -2.529452,1.388185 -3.780859,2.113979 -1.264472,-0.733655 -2.234055,-1.467182 -3.824422,-2.134616 h -0.0024 l -0.0024,-0.0024 C 55.004693,17.513125 49.616499,16.351843 44.32223,16.261536 h -0.0069 c -0.546721,-0.01744 -1.039471,-0.01835 -1.56141,-0.01835 z m 0,5.576138 c 0.514203,0 0.930144,0.0022 1.368813,0.01604 0.111992,0.008 -0.443214,-0.01435 0.04128,0.0024 h 0.03439 0.0321 c 4.540073,0.07805 9.241086,1.07873 13.79131,2.985251 1.462318,0.613693 2.427944,1.298337 3.966578,2.237792 l 2.017681,1.233537 2.017682,-1.233537 c 1.472197,-0.898422 2.436484,-1.549457 3.79003,-2.139202 l 0.236162,-0.0619 0.14674,-0.09629 c 4.500937,-1.84764 9.13303,-2.849509 13.770675,-2.934809 h 0.02063 0.02063 c 0.336309,-0.0096 0.707834,-0.0092 1.141824,-0.0092 12.909458,0 23.664487,7.597052 29.153197,20.445074 l 0.002,0.0024 v 0.0024 c 2.7052,6.306248 2.63587,13.916873 1.71732,19.367448 -0.87398,5.167521 -2.91196,10.093964 -6.17456,14.958354 -5.66067,8.4396 -13.550157,13.767536 -20.461177,18.438672 l -0.0024,0.0024 c -0.0013,8.93e-4 -0.0033,0.0014 -0.0045,0.0024 l -0.01151,0.0092 c -3.904675,2.647556 -7.522916,5.098111 -10.452966,7.832271 l -0.0045,0.004 -0.0045,0.004 c -0.375876,0.35345 -0.743225,0.70595 -1.109726,1.06386 l -0.08025,0.0756 -0.08942,0.0872 c -0.431498,0.41146 -0.872218,0.83725 -1.316079,1.25646 l -0.139861,0.13298 -0.09629,0.11006 -0.02063,0.0183 -0.103178,0.12381 c -1.473791,1.74329 -5.110189,6.00818 -11.239402,6.38551 l -0.703898,0.039 -0.715359,-0.0298 c -6.141947,-0.38071 -9.781931,-4.64807 -11.246281,-6.39008 v -0.002 h -0.0024 l -0.0024,-0.002 -0.222404,-0.2522 -0.139862,-0.13071 c -0.473655,-0.44247 -0.941099,-0.88884 -1.389266,-1.32292 l -0.01376,-0.0161 c -0.0038,-0.003 -0.0076,-0.008 -0.01151,-0.0115 l -0.02752,-0.0275 -0.0024,-0.002 c -0.384816,-0.38478 -0.766176,-0.75584 -1.153188,-1.11879 l -0.0024,-0.002 -0.0024,-0.002 C 46.237832,100.21412 42.728601,97.820819 38.94983,95.265803 l -0.01604,-0.01604 -0.304944,-0.208646 C 31.723759,90.359455 23.820929,85.032213 18.156528,76.59497 14.889577,71.728224 12.861099,66.801359 11.993429,61.659543 l -0.0045,-0.02521 C 11.518783,58.813919 10.319,50.163772 13.713051,42.255415 v -0.0024 C 19.210341,29.414838 29.959902,21.819458 42.753905,21.819458 Z" />
  <path
     style="fill:#f4a4bf;fill-opacity:1;stroke:none;stroke-width:6.6;stroke-linecap:round;stroke-dasharray:none;stroke-opacity:1"
     d="m -90.969878,21.986695 -24.650552,-1.248129 -19.65803,20.594129 -2.80829,19.658033 20.90616,29.331035 25.586648,19.658037 11.23316,6.55267 13.105357,-7.8008 23.714453,-19.033971 14.04146,-17.473808 2.80828,-13.105355 1.56017,-15.913646 -13.10537,-18.097874 -20.906154,-6.240644 -19.658033,7.488774 z"
     id="path8" />
  <path
     style="fill:#eb7aa4;fill-opacity:1;stroke:none;stroke-width:6.6;stroke-linecap:round;stroke-dasharray:none;stroke-opacity:1"
     d="m -88.63713,29.736404 -19.80655,-1.002863 -15.79511,16.547248 -2.25644,15.795101 16.79797,23.567295 20.558699,15.795105 9.025771,5.26503 10.530068,-6.267897 19.054408,-15.29367 11.282222,-14.04009 2.25644,-10.530067 1.25358,-12.786511 -10.530072,-14.541523 -16.797965,-5.014317 -15.795101,6.017181 z"
     id="path9" />
  <path
     d="m -44.971735,47.031791 c -0.129612,-0.266849 -0.274473,-0.518451 -0.41171,-0.777678 -0.09912,-0.190607 -0.198233,-0.388838 -0.304972,-0.571821 -0.190607,-0.327844 -0.381214,-0.64044 -0.571821,-0.945411 -0.061,-0.106745 -0.121989,-0.221104 -0.190608,-0.32022 -0.182982,-0.282098 -0.37359,-0.548949 -0.564197,-0.815799 -0.08387,-0.121989 -0.167734,-0.251602 -0.259226,-0.365966 -0.190608,-0.259226 -0.396463,-0.503203 -0.594694,-0.74718 -0.09912,-0.114365 -0.182983,-0.243978 -0.282099,-0.350717 -0.205856,-0.236353 -0.419335,-0.457458 -0.632816,-0.686186 -0.09912,-0.106744 -0.198231,-0.221104 -0.297348,-0.327845 -0.213479,-0.213479 -0.434583,-0.411711 -0.648064,-0.609942 -0.114364,-0.106745 -0.221103,-0.213481 -0.335468,-0.312596 -0.213481,-0.190607 -0.449833,-0.365966 -0.670937,-0.541324 -0.129613,-0.09912 -0.251602,-0.205856 -0.365966,-0.297348 -0.221104,-0.160109 -0.449833,-0.304972 -0.678562,-0.457457 -0.137237,-0.09149 -0.274474,-0.190607 -0.411711,-0.282099 -0.221105,-0.144861 -0.457458,-0.26685 -0.69381,-0.396463 -0.144862,-0.08387 -0.297347,-0.175358 -0.449834,-0.251601 -0.228728,-0.121989 -0.465081,-0.221105 -0.701434,-0.327844 -0.160109,-0.07624 -0.327844,-0.152486 -0.495579,-0.228729 -0.228728,-0.09149 -0.472705,-0.175359 -0.709058,-0.259226 -0.182983,-0.06099 -0.358342,-0.137237 -0.541325,-0.198231 -0.236353,-0.07624 -0.472705,-0.137237 -0.709058,-0.198231 -0.198231,-0.05337 -0.388839,-0.114365 -0.587071,-0.160111 -0.236352,-0.05337 -0.480329,-0.09149 -0.716682,-0.137237 -0.21348,-0.03812 -0.419337,-0.09149 -0.632816,-0.121988 -0.243977,-0.03812 -0.495579,-0.061 -0.739556,-0.08387 -0.21348,-0.02287 -0.434585,-0.05337 -0.663314,-0.06861 -0.251601,-0.02287 -0.503202,-0.02287 -0.762428,-0.03049 -0.21348,-0.0076 -0.419335,-0.02287 -0.64044,-0.02287 h -0.106745 c -0.297346,0 -0.587069,0 -0.884417,0.0076 -3.09546,0.05337 -6.099429,0.739555 -8.943289,1.928944 -3.042091,1.28088 -5.123521,3.194577 -7.830142,4.917665 -0.228729,0.144862 -0.487955,0.251601 -0.754805,0.327844 -0.07624,0.02288 -0.16011,0.03812 -0.243977,0.061 -0.198231,0.04575 -0.404088,0.06862 -0.594695,0.08387 -0.08387,0 -0.167733,0.0076 -0.251601,0.0076 -0.274474,-0.0076 -0.556573,-0.03812 -0.823423,-0.106744 -0.297348,-0.08387 -0.579446,-0.205856 -0.831047,-0.365966 -2.706623,-1.723088 -4.788053,-3.636785 -7.830144,-4.917665 -2.843858,-1.189388 -5.847828,-1.875574 -8.943289,-1.928944 -0.297346,-0.0076 -0.587069,-0.0076 -0.884417,-0.0076 h -0.11436 c -0.21348,0 -0.42696,0.01525 -0.64044,0.02287 -0.25161,0.0076 -0.51083,0.0076 -0.76243,0.03049 -0.22111,0.01525 -0.44221,0.04575 -0.66332,0.06861 -0.24397,0.02287 -0.48795,0.04575 -0.73193,0.08387 -0.2211,0.03049 -0.43458,0.08387 -0.65569,0.121988 -0.22872,0.04575 -0.4727,0.08387 -0.69381,0.129613 -0.21348,0.05337 -0.41933,0.114365 -0.63281,0.175359 -0.22111,0.06099 -0.44983,0.114364 -0.67094,0.182983 -0.20585,0.06099 -0.39646,0.144861 -0.59469,0.213479 -0.22111,0.07624 -0.44221,0.152487 -0.65569,0.243978 -0.19061,0.07624 -0.37359,0.167734 -0.55658,0.259225 -0.21347,0.09912 -0.42696,0.190607 -0.64043,0.297348 -0.18299,0.09149 -0.35835,0.205855 -0.54133,0.304971 -0.19823,0.114365 -0.40409,0.221104 -0.60232,0.343093 -0.17536,0.114364 -0.34309,0.236353 -0.51845,0.350717 -0.19061,0.129613 -0.38884,0.251602 -0.57182,0.388839 -0.16773,0.129613 -0.32785,0.259225 -0.48796,0.396462 -0.18298,0.144863 -0.36596,0.289724 -0.54894,0.44221 -0.15249,0.137237 -0.30498,0.282098 -0.45746,0.426959 -0.17536,0.167735 -0.35072,0.327845 -0.51845,0.495579 -0.13724,0.144862 -0.27448,0.297347 -0.40409,0.442209 -0.17536,0.190607 -0.35834,0.37359 -0.52608,0.571822 -0.12961,0.152485 -0.2516,0.32022 -0.38121,0.480329 -0.16011,0.205857 -0.33547,0.404088 -0.48795,0.625192 -0.12199,0.16011 -0.22873,0.335469 -0.3431,0.495579 -0.16011,0.228729 -0.32784,0.449832 -0.48033,0.686186 -0.0991,0.16011 -0.19823,0.327844 -0.29735,0.487954 -0.1601,0.259226 -0.32022,0.510827 -0.4727,0.785302 -0.0991,0.182982 -0.19823,0.37359 -0.29735,0.556572 -0.13723,0.266851 -0.2821,0.518452 -0.41933,0.792926 -0.22873,0.465083 -0.44984,0.945412 -0.65569,1.433366 -1.43337,3.331814 -1.45624,8.35622 -0.86917,11.855767 0.57944,3.491924 2.03568,6.640754 4.01037,9.583729 6.61026,9.797209 18.366911,14.348909 26.845119,22.255294 0.90729,0.846297 1.791707,1.753586 2.72187,2.607507 0.975909,0.899665 2.165298,2.973472 3.735901,3.072588 1.570603,-0.09149 2.759992,-2.172923 3.743525,-3.072588 0.922539,-0.853921 1.814581,-1.753586 2.72187,-2.607507 8.478208,-7.914009 20.227235,-12.458085 26.822244,-22.278166 1.974689,-2.942975 3.423299,-6.091806 4.010379,-9.58373 0.58707,-3.499548 0.55657,-8.523953 -0.8768,-11.855766 -0.21347,-0.487979 -0.434578,-0.960686 -0.655683,-1.425767 z"
     id="path10"
     style="fill:#d7598b;stroke-width:0.999998" />
  <path
     d="m -35.266022,44.599644 c -4.97103,-11.642287 -14.43277,-18.313538 -26.067433,-18.313538 -0.411711,0 -0.815799,0 -1.059776,0.0076 -4.239103,0.07624 -8.470583,0.983533 -12.595322,2.706621 -2.294911,0.968285 -4.170485,2.142426 -5.748713,3.225074 -1.578227,-1.082648 -3.461426,-2.264413 -5.786834,-3.240322 -4.094242,-1.715464 -8.325721,-2.615131 -12.389467,-2.683749 -0.411712,-0.01525 -0.815798,-0.01525 -1.334253,-0.01525 -11.52029,0 -20.98203,6.671251 -25.96069,18.298289 -2.96585,6.907604 -1.92132,15.035094 -1.53249,17.368127 0.77768,4.627942 2.58464,9.027155 5.54286,13.433994 5.09302,7.586165 12.26748,12.442836 18.58801,16.727685 3.57579,2.4169 6.953352,4.704186 9.682848,7.258322 0.365965,0.343093 0.724306,0.693813 1.082648,1.052153 0.495579,0.48033 0.991157,0.96066 1.486736,1.41812 l 0.21348,0.24398 c 1.326627,1.57823 4.452584,5.27601 9.804833,5.60385 l 0.594695,0.0228 0.58707,-0.0305 c 5.344626,-0.32022 8.470584,-4.018 9.804833,-5.59623 l 0.205856,-0.24398 c 0.487954,-0.45746 0.968285,-0.92254 1.448615,-1.38 0.37359,-0.36596 0.747181,-0.72431 1.128395,-1.08265 2.737118,-2.554137 6.114677,-4.841423 9.690469,-7.265947 6.328158,-4.277225 13.49499,-9.133896 18.58801,-16.727685 2.9506,-4.399215 4.76518,-8.790804 5.55048,-13.433995 0.80817,-4.795677 0.82343,-11.878639 -1.52486,-17.352878 z m -3.61391,16.483709 c -0.64806,3.89601 -2.20342,7.624287 -4.72705,11.398309 -4.536456,6.747494 -10.971354,11.108587 -17.192773,15.324817 -3.751149,2.538888 -7.281194,4.932914 -10.323284,7.761525 -0.381214,0.365965 -0.762429,0.731931 -1.197013,1.158891 -0.449834,0.442209 -0.907291,0.884417 -1.364748,1.311378 l -0.404088,0.419336 -0.236352,0.274474 c -1.052151,1.242759 -3.011594,3.568167 -6.137552,3.751147 l -0.282098,0.0152 -0.282099,-0.0152 c -3.118334,-0.19061 -5.085399,-2.508388 -6.160423,-3.789268 l -0.213481,-0.243977 -0.404087,-0.426961 c -0.465082,-0.42696 -0.930163,-0.884417 -1.448614,-1.379996 -0.37359,-0.365965 -0.739556,-0.724307 -1.12077,-1.075024 -3.042091,-2.828611 -6.572136,-5.222637 -10.323286,-7.769149 -6.22142,-4.208606 -12.65632,-8.569699 -17.17752,-15.301945 -2.53889,-3.781646 -4.08662,-7.509923 -4.73468,-11.405933 -0.23635,-1.402869 -1.28851,-8.691687 1.18176,-14.455648 4.17811,-9.766713 11.69566,-15.141835 21.17265,-15.141835 0.449832,0 0.800549,0 1.235133,0.01525 3.423305,0.061 7.044842,0.85392 10.468147,2.279662 2.012812,0.853921 3.659657,1.906071 4.856671,2.729495 a 5.2203494,5.2203494 0 0 0 5.901198,0 c 1.197013,-0.823424 2.82861,-1.875574 4.810925,-2.714247 3.507172,-1.463862 7.098212,-2.24154 10.681627,-2.302534 h 0.114364 c 0.190608,-0.0077 0.518452,-0.0077 0.85392,-0.0077 9.545608,0 17.108903,5.382747 21.287013,15.157084 1.90607,4.452583 1.82221,10.559638 1.16651,14.432776 z"
     id="path11"
     style="fill:#f193b3;stroke-width:0.999998" />
  <path
     id="path12"
     style="color:#000000;fill:#f9c3d5;fill-opacity:1;stroke-width:1;-inkscape-stroke:none"
     d="m -101.99181,16.243371 c -15.02154,0 -27.93727,9.265348 -34.1676,23.815518 -4.16136,9.696503 -2.61216,19.407183 -2.09793,22.492562 v 0.0045 0.0045 c 1.00588,5.986015 3.3874,11.70714 7.03666,17.143413 6.39444,9.524652 15.09074,15.287817 21.97438,19.954409 l 0.005,0.0024 0.002,0.0024 c 3.89293,2.631257 7.31794,4.994027 9.760539,7.279697 0.330462,0.30993 0.670454,0.64065 1.027184,0.99738 l 0.03669,0.0366 0.03439,0.0344 c 0.449954,0.4361 0.941202,0.90418 1.444477,1.37569 l 0.04586,0.0527 -0.04128,-0.0505 c 0.0057,0.005 0.01034,0.0108 0.01604,0.0161 1.509321,1.79528 6.591058,7.79057 15.13261,8.31377 l 0.07336,0.004 1.008841,0.039 0.953813,-0.0505 h 0.02521 c 8.609581,-0.51585 13.731834,-6.63573 15.185345,-8.35504 l 0.0024,-0.002 c 0.464388,-0.43961 0.918887,-0.87415 1.327542,-1.26334 l 0.0321,-0.0321 0.0321,-0.0298 c 0.369493,-0.36195 0.738528,-0.71743 1.116603,-1.07304 l 0.0069,-0.004 c 2.453667,-2.28849 5.877803,-4.64995 9.769705,-7.288861 l 0.0069,-0.0045 c 6.898486,-4.662648 15.585989,-10.428074 21.976679,-19.956703 3.63599,-5.421106 6.02602,-11.131596 7.04125,-17.134241 v -0.0024 -0.0024 c 1.04947,-6.227553 1.26027,-14.672557 -2.08647,-22.481097 -6.22072,-14.56911 -19.16267,-23.838446 -34.284532,-23.838446 -0.42504,0 -0.828973,-0.0012 -1.283979,0.01151 -5.449807,0.09984 -10.870375,1.271747 -16.058908,3.439229 l -0.01151,0.0045 -0.0092,0.0045 c -1.562648,0.659325 -2.529452,1.388185 -3.780859,2.113979 -1.264472,-0.733655 -2.234055,-1.467182 -3.824422,-2.134616 h -0.0024 l -0.0024,-0.0024 c -5.172197,-2.167019 -10.560391,-3.328301 -15.854658,-3.418608 h -0.007 c -0.54672,-0.01744 -1.03947,-0.01835 -1.56141,-0.01835 z m 0,5.576138 c 0.5142,0 0.93014,0.0022 1.36881,0.01604 0.11199,0.008 -0.44321,-0.01435 0.0413,0.0024 h 0.0344 0.0321 c 4.540072,0.07805 9.241085,1.07873 13.791309,2.985251 1.462318,0.613693 2.427944,1.298337 3.966578,2.237792 l 2.017681,1.233537 2.017682,-1.233537 c 1.472197,-0.898422 2.436484,-1.549457 3.79003,-2.139202 l 0.236162,-0.0619 0.14674,-0.09629 c 4.500937,-1.84764 9.13303,-2.849509 13.770675,-2.934809 h 0.02063 0.02063 c 0.336309,-0.0096 0.707834,-0.0092 1.141824,-0.0092 12.909458,0 23.664487,7.597052 29.153197,20.445074 l 0.002,0.0024 v 0.0024 c 2.7052,6.306248 2.63587,13.916873 1.71732,19.367448 -0.87398,5.167521 -2.91196,10.093964 -6.17456,14.958354 -5.66067,8.4396 -13.550157,13.767536 -20.461177,18.438672 l -0.0024,0.0024 c -0.0013,8.93e-4 -0.0033,0.0014 -0.0045,0.0024 l -0.01151,0.0092 c -3.904675,2.647556 -7.522916,5.098111 -10.452966,7.832271 l -0.0045,0.004 -0.0045,0.004 c -0.375876,0.35345 -0.743225,0.70595 -1.109726,1.06386 l -0.08025,0.0756 -0.08942,0.0872 c -0.431498,0.41146 -0.872218,0.83725 -1.316079,1.25646 l -0.139861,0.13298 -0.09629,0.11006 -0.02063,0.0183 -0.103178,0.12381 c -1.473791,1.74329 -5.110189,6.00818 -11.239402,6.38551 l -0.703898,0.039 -0.715359,-0.0298 c -6.141947,-0.38071 -9.781931,-4.64807 -11.246281,-6.39008 v -0.002 h -0.0024 l -0.0024,-0.002 -0.222404,-0.2522 -0.139862,-0.13071 c -0.473655,-0.44247 -0.941099,-0.88884 -1.389266,-1.32292 l -0.01376,-0.0161 c -0.0038,-0.003 -0.0076,-0.008 -0.01151,-0.0115 l -0.02752,-0.0275 -0.0024,-0.002 c -0.384816,-0.38478 -0.766176,-0.75584 -1.153188,-1.11879 l -0.0024,-0.002 -0.0024,-0.002 c -2.839111,-2.65727 -6.348341,-5.050571 -10.127111,-7.605587 l -0.016,-0.01604 -0.30495,-0.208646 c -6.90508,-4.681662 -14.80791,-10.008904 -20.47231,-18.446147 -3.26695,-4.866746 -5.29543,-9.793611 -6.1631,-14.935427 l -0.004,-0.02521 c -0.47015,-2.820414 -1.66993,-11.470561 1.72412,-19.378918 v -0.0024 c 5.49729,-12.838177 16.24685,-20.433557 29.04085,-20.433557 z" />
</svg>
