<?xml version="1.0" encoding="UTF-8" standalone="no"?>
<svg
   width="128"
   height="128"
   version="1.1"
   id="svg9"
   sodipodi:docname="emoji_u1f6e0.svg"
   inkscape:version="1.3 (0e150ed6c4, 2023-07-21)"
   xmlns:inkscape="http://www.inkscape.org/namespaces/inkscape"
   xmlns:sodipodi="http://sodipodi.sourceforge.net/DTD/sodipodi-0.dtd"
   xmlns="http://www.w3.org/2000/svg"
   xmlns:svg="http://www.w3.org/2000/svg">
  <defs
     id="defs9" />
  <sodipodi:namedview
     id="namedview9"
     pagecolor="#ffffff"
     bordercolor="#000000"
     borderopacity="0.25"
     inkscape:showpageshadow="2"
     inkscape:pageopacity="0.0"
     inkscape:pagecheckerboard="0"
     inkscape:deskcolor="#d1d1d1"
     inkscape:zoom="2.867097"
     inkscape:cx="64.00202"
     inkscape:cy="87.370604"
     inkscape:window-width="1366"
     inkscape:window-height="697"
     inkscape:window-x="-8"
     inkscape:window-y="-8"
     inkscape:window-maximized="1"
     inkscape:current-layer="svg9" />
  <g
     id="g14"
     transform="matrix(1.0354944,0,0,1.0354944,2.8549654,-2.2716426)"
     style="stroke-width:0.965722">
    <g
       id="g13"
       transform="matrix(0,0.77321714,-0.77321714,0,130.05475,108.76701)"
       style="stroke-width:1.24896">
      <path
         d="m -52.860989,88.967745 c -2.72,-2.55 -5.39,-5.14 -7.91,-7.87 -1.92,-2.07 -7.53,-5.9 -5.84,-9.35 0.93,-1.88 3.38,-5.08 5.64,-5.24 0.3,-0.02 0.6,0.03 0.95,0.13 1.52,0.49 2.67,2.08 3.71,3.21 a 96.73,96.73 0 0 1 3.74,4.33 c 2.48,3 4.87,6.06 7.43,9.01 2.92,3.38 5.85,6.75 8.77,10.13 1.91,2.21 4.1,4.36 5.81,6.729995 0.5,0.71 0.92,1.95 0.45,2.72 -0.54,0.91 -1.28,1.94 -2.03,2.67 -0.8,0.79 -1.83,1.06 -2.9,0.71 -0.74,-0.24 -1.42,-1.13 -2.01,-1.66 -5.41,-5.009995 -10.54,-10.529995 -15.81,-15.519995 z"
         fill="#ffffff"
         id="path10"
         style="stroke-width:1.24896" />
      <path
         d="m -56.970989,84.517745 c -2.71,-2.55 -5.39,-5.13 -7.91,-7.87 -1.92,-2.07 -7.53,-5.9 -5.84,-9.35 0.93,-1.88 3.38,-5.08 5.64,-5.24 0.3,-0.02 0.6,0.02 0.95,0.13 1.52,0.49 2.67,2.08 3.71,3.21 1.29,1.4 2.53,2.85 3.75,4.33 2.48,3 4.87,6.07 7.43,9.01 2.92,3.38 5.85,6.76 8.77,10.13 1.92,2.21 4.1,4.36 5.81,6.73 0.5,0.71 0.92,1.95 0.45,2.72 -0.54,0.91 -1.28,1.939995 -2.04,2.669995 -0.8,0.79 -1.83,1.06 -2.9,0.71 -0.73,-0.24 -1.42,-1.13 -2.01,-1.66 -5.41,-5.009995 -10.54,-10.529995 -15.81,-15.519995 z"
         fill="#2f2f2f"
         id="path11"
         style="stroke-width:1.24896" />
      <path
         d="m 0.80968651,113.65398 c -0.13951387,-1.11114 -0.22955535,-2.36943 -0.64489011,-3.39797 -0.4799704,-1.18881 -1.08620079,-2.32266 -1.8082671,-3.38204 -1.3540721,-2.02034 -3.0795145,-3.874 -5.1075282,-5.2259 -1.3648906,-0.90878 -3.0155823,-1.735593 -4.6524681,-2.15069 -1.79465,-0.455227 -3.635798,-0.652892 -5.476947,-0.850558 -1.523072,-0.157325 -3.384817,-0.346284 -4.887082,-0.672627 -0.958477,-0.211475 -3.493493,-2.64645 -3.503493,-2.65645 L -46.091118,73.176902 c 0,0 -6.941431,-7.759176 -7.63436,-9.599544 -0.793129,-2.105902 -1.606872,-5.280048 -1.482665,-9.220803 0.562452,-6.650211 0.612174,-18.274562 -5.206968,-26.546354 -5.265183,-7.476256 -12.846793,-10.63753 -18.710221,-11.763267 -1.717508,-0.334603 -3.494945,-0.490146 -5.250964,-0.464067 -2.896285,0.03538 -6.116323,0.295782 -8.878404,1.24013 -0.914384,0.305935 -2.207319,0.853265 -2.403912,1.92371 -0.207054,1.115353 0.924718,2.236714 1.644218,2.946993 2.44004,2.383996 4.898156,4.768561 7.356842,7.135049 2.142134,2.076041 4.739167,4.645933 5.524759,6.416843 0.903869,2.037012 0.509235,8.52966 0.397563,12.072725 -0.06039,1.916146 -2.097614,2.539539 -2.097614,2.539539 -3.133512,0.959783 -9.759016,3.058046 -11.680212,2.870829 -1.100126,-0.116105 -2.329767,-0.715797 -3.472079,-1.502735 -0.682,-0.464819 -5.082415,-4.376282 -6.632735,-5.709878 -1.94735,-1.653721 -3.88652,-3.280042 -5.93749,-5.090835 -0.67745,-0.609434 -1.829,-1.677133 -2.78195,-1.870022 -0.77331,-0.151038 -1.42737,0.506903 -1.55904,0.665606 -0.60999,0.695519 -0.94864,1.680061 -0.94864,1.680061 0,0 -1.18969,4.160499 -0.88043,9.562501 0.40657,6.906939 2.98276,15.59222 10.51527,21.746638 8.044483,6.559593 20.948666,6.477753 27.779672,5.896884 l -0.009,-2.83e-4 c 0,0 0.02712,8.54e-4 0.03644,-0.0079 0.381038,-0.03322 0.780153,-0.06589 1.115999,-0.100537 1.584574,-0.04053 4.566893,0.352032 7.514068,3.294856 3.921099,3.905403 25.142023,26.964699 29.022023,30.964699 0.51,0.6 1.029753,1.37475 1.593936,2.58314 1.129638,2.39681 1.819556,7.13037 2.011094,8.5254 0.588417,4.12585 2.502419,6.79317 5.604643,9.5263 2.286642,2.00972 5.115579,3.37266 8.128389,3.89561 1.536025,0.26838 3.10857,0.27856 4.66264,0.10719 2.209119,-0.22977 5.931963,-0.78378 6.984904,-3.15153 0.44483,-1.0037 -0.278597,-1.60099 -0.948304,-2.25497 -1.189293,-1.14808 -2.421689,-2.24881 -3.632852,-3.36822 -1.06911,-0.9901 -2.615336,-2.04072 -3.314139,-3.33786 -0.483492,-0.90262 -0.535736,-1.96811 -0.482025,-2.96672 0.03418,-0.84955 -0.05204,-1.69676 0.0015,-2.53505 0.08131,-1.11709 -0.102156,-2.48155 0.707464,-3.39183 0.91706,-1.02367 2.645885,-0.79309 3.881667,-0.84449 2.251375,-0.10683 4.711686,-0.1903 6.5492383,1.3198 1.7908375,1.45702 3.4697768,3.09729 5.2374703,4.60293 0.9028508,0.76906 2.89774951,3.11087 3.75385959,1.00112 1.05442571,-2.54802 1.16141271,-5.63748 0.82122849,-8.31458 z M -51.978057,88.450388 c -2.1703,-2.052742 -4.422077,-4.104189 -6.417376,-6.26798 -1.50756,-1.631712 -5.950428,-4.655699 -4.61136,-7.387044 0.736044,-1.489823 2.669268,-4.008335 4.460603,-4.132487 0.230568,-0.01774 0.470005,0.01774 0.744912,0.106416 1.19718,0.381324 2.110584,1.64058 2.92644,2.536248 1.01982,1.1085 1.9953,2.252471 2.953044,3.414179 1.959827,2.367756 4.112522,4.704322 6.165264,7.073566 2.351158,2.712875 5.465541,5.754459 8.065541,8.764459 1.7,1.97 3.65,3.88 5.17,5.99 0.45,0.63 0.82,1.729995 0.4,2.419995 -0.49,0.81 -1.14,1.73 -1.81,2.38 -0.71,0.7 -1.64,0.95 -2.59,0.63 -0.65,-0.22 -1.26,-1 -1.78,-1.48 -4.81,-4.459995 -9.426897,-10.032297 -13.677068,-14.047352 z"
         fill="#78a3ad"
         id="path12"
         style="stroke-width:1.24896"
         sodipodi:nodetypes="cccccccccccccccccccsccccccccccccccccccccccccccccccscccccccccccccccccc" />
      <path
         d="m -106.17602,51.320633 c -1.14195,-1.085491 -3.15335,-3.003606 -3.56705,-3.369494 -0.58058,-0.524954 -1.25733,-0.582474 -1.36353,0.490821 -0.24922,2.45304 0.0365,7.166696 2.30135,10.80276 0.56833,0.913606 1.00384,0.01354 1.23309,-0.657785 0.14954,-0.43861 1.03828,-3.08863 1.63727,-4.870186 0.31914,-0.939919 0.22423,-1.947173 -0.24113,-2.396116 z m 19.145742,-31.333901 c 1.576468,-0.357445 4.504504,-0.826097 6.833984,-0.101262 0.367157,0.120141 1.181677,0.399141 0.237615,0.785566 -1.686716,0.697772 -3.548295,1.489554 -4.171454,1.741335 -0.329942,0.134359 -1.238706,0.549039 -1.861917,-0.05869 -0.50913,-0.495559 -1.238239,-1.188048 -1.572013,-1.50618 -0.54443,-0.523814 -0.158834,-0.701657 0.533785,-0.860774 z"
         fill="#ffffff"
         id="path13"
         style="stroke-width:1.24896"
         sodipodi:nodetypes="cccccccccccccc" />
    </g>
    <g
       id="g3"
       transform="matrix(0.7468704,-0.20012332,0.20012332,0.7468704,-14.037064,33.742848)"
       style="stroke-width:1.24896">
      <path
         d="M 112.9,116.37 71.730207,31.044576 55.950167,38.586391 96.48,124.23 c 1.59,3.33 6.54,4.29 11.06,2.12 4.52,-2.16 6.95,-6.65 5.36,-9.98 z"
         fill="#f79329"
         id="path1-44"
         style="fill:#855c52;stroke-width:1.24896"
         sodipodi:nodetypes="cccccc" />
      <path
         d="m 61.893401,6.4960883 c 0.593533,0.830945 0.957566,1.9546991 1.321599,2.9043505 0.332378,0.8626002 0.134534,1.8913892 -0.371947,2.6669372 -0.522308,0.79929 -1.40865,1.503615 -2.176285,2.049665 -1.574838,1.107926 -3.15759,2.097146 -4.930273,2.888523 -0.878427,0.395688 -1.780596,0.609359 -2.71442,0.838858 -0.878428,0.229499 -1.796424,0.522309 -2.722334,0.514395 -0.823031,-0.0079 -1.717286,0.09497 -2.540317,0 -1.028789,-0.12662 -1.590666,-0.09496 -2.200026,-0.957565 -0.561877,-0.823032 -1.092099,-1.59858 -1.487787,-2.52449 -0.553964,-1.28203 -0.641015,-2.176285 0.284895,-3.315866 1.748941,-2.1525434 4.534585,-3.4029178 6.96411,-4.5029306 2.279163,-1.028789 4.898619,-1.8597339 7.367712,-1.8597339 1.464046,0 2.358301,0.1028789 3.205073,1.2978568 z"
         fill="#f79329"
         id="path2-9"
         style="fill:#855c52;stroke-width:1.24896"
         sodipodi:nodetypes="ccccccccccscsc" />
      <path
         id="use1"
         d="M 108.18744,13.309038 C 96.45678,3.5750893 81.000125,2.8174101 69.884526,5.2419834 67.005346,5.8659545 64.313356,7.1049828 62.34339,7.9607145 58.893722,9.4671589 51.878504,13.255555 51.878504,13.255555 l -8.77125,4.430194 c -0.222847,0.106967 -0.418952,0.249589 -0.632885,0.383297 -1.871913,0.900301 -4.029071,1.77386 -6.097089,2.201726 -2.567195,0.525919 -4.225175,-0.517004 -7.202409,-0.160449 -1.426219,0.169363 -2.914836,0.641798 -4.171692,1.140975 -0.43678,0.115881 -0.87356,0.27633 -1.301426,0.490263 l -0.891387,0.454608 c -0.490263,0.23176 -0.802248,0.410038 -0.802248,0.410038 l -7.799639,3.931018 c -3.093113,1.559927 -4.5371607,4.991768 -3.20008,7.62136 l 13.379723,26.500943 c 1.328167,2.629593 4.938285,3.503152 8.040313,1.943224 l 7.790724,-3.939931 c 0,0 0.329813,-0.151536 0.811162,-0.410038 l 0.891388,-0.454608 c 0.418952,-0.213933 0.820076,-0.472435 1.167717,-0.748765 1.149889,-0.722024 3.36053,-6.239711 4.34997,-7.282634 2.059104,-2.192813 3.75274,0.882473 7.122184,0.757679 1.907568,-0.07131 3.939931,-1.096406 4.456936,-1.363822 l 0.704196,-0.356555 c 0.588315,-0.285244 1.10532,-0.55266 1.38165,-0.695282 l 15.438827,-7.799639 c 2.157157,-1.087492 3.47641,-3.066372 3.654688,-5.071993 0.04457,-0.534832 0.05348,-2.246296 0.01783,-2.656334 -0.320899,-4.296486 -0.534832,-10.143987 3.966674,-12.417024 4.938285,-2.486971 11.801967,-0.517005 11.801967,-0.517005 0,0 6.132742,2.014535 10.322262,-0.980526 4.19843,-3.003975 1.88083,-5.357237 1.88083,-5.357237 z"
         style="fill:#78a3ad;stroke-width:1.24896" />
      <path
         d="m 29.255096,33.365251 c 1.70255,-1.158804 2.308693,-1.845172 2.48697,-2.798956 0.231761,-1.283598 -0.730937,-2.834612 -1.533186,-3.895362 -0.739851,-0.980526 -2.451315,-0.837904 -4.358883,0.03565 -1.907569,0.87356 -5.945553,2.700904 -6.453644,3.012889 -0.704196,0.427866 -1.354909,0.935957 -1.738205,1.524272 -1.078579,1.649067 -0.356555,4.020157 1.123148,5.223529 0.891387,0.722024 2.014535,0.695282 3.155511,0.374383 1.2212,-0.347641 6.195141,-2.718731 7.318289,-3.47641 z m 16.062798,-3.422927 c 3.110942,-0.418952 6.854768,-1.764947 7.897691,-2.085846 3.877534,-1.203373 8.708853,-3.351616 13.183617,-6.05252 4.644128,-2.798956 6.293194,-5.918811 8.851476,-7.576791 2.005621,-1.301426 4.751094,-1.827344 6.881509,-2.790042 0.231761,-0.106967 1.461875,-0.641799 1.649066,-1.283598 0.3209,-1.0785784 -1.087492,-1.4618749 -3.324874,-1.5242721 -1.060751,-0.026742 -5.8475,-0.00891 -10.384661,1.3370809 -0.258503,0.071311 -1.354909,0.4456932 -1.640153,1.2657702 -1.274684,3.690343 -2.228468,5.535514 -5.918811,7.639188 -3.369444,1.916483 -7.068701,3.645774 -11.712828,4.911544 -4.644128,1.26577 -5.259185,-1.10532 -7.576792,-0.142622 -0.543746,0.222847 -1.239028,0.534832 -1.827344,0.846818 -1.292511,0.686368 -1.10532,1.586669 -0.837904,2.121502 0.418952,0.837904 1.042923,1.889741 1.328167,2.451314 0.561574,1.114235 2.486971,1.007268 3.431841,0.882474 z"
         fill="#ffffff"
         id="path3-4"
         style="stroke-width:1.24896" />
    </g>
  </g>
</svg>
