<?xml version="1.0" encoding="UTF-8" standalone="no"?>
<svg
   width="128"
   height="128"
   version="1.1"
   id="svg3"
   sodipodi:docname="emoji_u1f618.svg"
   xml:space="preserve"
   inkscape:version="1.3 (0e150ed6c4, 2023-07-21)"
   xmlns:inkscape="http://www.inkscape.org/namespaces/inkscape"
   xmlns:sodipodi="http://sodipodi.sourceforge.net/DTD/sodipodi-0.dtd"
   xmlns:xlink="http://www.w3.org/1999/xlink"
   xmlns="http://www.w3.org/2000/svg"
   xmlns:svg="http://www.w3.org/2000/svg"><sodipodi:namedview
     id="namedview3"
     pagecolor="#ffffff"
     bordercolor="#000000"
     borderopacity="0.25"
     inkscape:showpageshadow="2"
     inkscape:pageopacity="0.0"
     inkscape:pagecheckerboard="0"
     inkscape:deskcolor="#d1d1d1"
     inkscape:zoom="8.515625"
     inkscape:cx="64"
     inkscape:cy="64"
     inkscape:current-layer="svg3" /><defs
     id="defs3"><path
       id="a"
       d="M121.19 91.2c2.13-3.54 2.32-8.23-.03-11.75-2.47-3.72-6.68-5.62-11.06-4.7-1.15.24-2.49.64-2.94-.85-1.17-3.96-2.77-8.05-6.71-10-3.51-1.73-8.47-1.14-11.72.76-5.66 3.33-7.06 9.66-5.86 15.73.34 1.74.88 3.44 1.46 5.12.56 1.61 3.42 6.46 1.79 8.05-.39.37-1.3.43-1.29 1.06.03.76.86 1.41 1.43 1.77 5.91 3.68 13.33 3.87 20.03 3.01 5.17-.64 12.01-3.37 14.9-8.2z" /><path
       id="SVGID_1_"
       d="M125.84,43.64c2.58-4.3,2.81-9.98-0.02-14.26c-2.99-4.5-8.08-6.81-13.39-5.68        c-1.39,0.29-3.02,0.78-3.56-1.03c-1.41-4.81-3.35-9.77-8.12-12.12C96.5,8.46,90.5,9.18,86.56,11.49        c-6.86,4.05-8.56,11.73-7.11,19.1c0.41,2.1,1.06,4.17,1.76,6.2c0.67,1.95,4.14,7.83,2.15,9.76c-0.47,0.45-1.58,0.53-1.56,1.28        c0.04,0.92,1.04,1.72,1.73,2.15c7.15,4.45,16.14,4.67,24.26,3.63C114.04,52.82,122.32,49.5,125.84,43.64z" /></defs><g
     id="g9"
     transform="translate(-0.00164234,0.0038638)">&#10;	<g
   id="g6">&#10;		<g
   id="g1">&#10;			<path
   fill="#fcc21b"
   d="M 94.58,38.59 C 78.33,14.24 51.17,3.14 22.38,17.78 3.11,27.59 -3.58,50.85 4.79,78.2 8.24,89.48 -0.39,91.39 0.17,97.37 c 0.09,0.89 0.31,1.76 0.64,2.62 2.3,7.45 14.27,13.71 30.77,16.73 6.73,1.25 14.24,1.96 22.26,1.96 0.04,0 0.08,0 0.08,0 0.07,0 0.11,0 0.15,0 29.65,0 53.68,-9.54 53.68,-21.31 0,-0.49 -0.06,-0.98 -0.14,-1.46 1.32,-23 -2.87,-42.09 -13.03,-57.32 z"
   id="path1" />&#10;		</g>&#10;		<g
   id="g5">&#10;			<path
   fill="#2f2f2f"
   d="m 69.86,55.8 c -0.81,-0.67 0.19,-1.91 0.62,-2.48 0.65,-0.89 1.46,-1.77 0.94,-2.95 -0.78,-1.79 -2.87,-1.33 -4.44,-1.48 -0.67,-0.04 -1.36,-0.13 -2.02,-0.23 -0.44,-0.07 -0.87,-0.15 -1.28,-0.26 -0.96,-0.3 -2.06,-0.4 -2.71,-1.27 -0.64,-0.88 0.12,-1.46 0.94,-1.69 1.64,-0.49 3.09,0.09 4.7,0.41 1.95,0.42 4.05,0.24 6.03,0.5 2.08,0.27 3.66,2.16 3.55,4.24 -0.04,0.8 -0.71,1.15 0.18,1.61 0.56,0.28 1.09,0.63 1.5,1.11 1.77,2 1.1,4.86 0.54,7.19 -0.29,1.14 -0.54,2.24 -0.68,3.4 -0.12,0.93 -0.5,1.95 -1.61,2.12 -2.15,0.31 -2.29,-2.26 -2.09,-3.72 0.16,-1.13 0.46,-2.24 0.78,-3.34 0.1,-0.42 0.29,-0.9 0.32,-1.34 0.05,-0.63 -0.13,-1.3 -0.62,-1.7 -1.48,-1.22 -3.32,0.87 -4.65,-0.12"
   id="path2" />&#10;			<g
   id="g4">&#10;				<g
   id="g3">&#10;					<defs
   id="defs2">&#10;						<path
   id="path3"
   d="m 125.84,43.64 c 2.58,-4.3 2.81,-9.98 -0.02,-14.26 -2.99,-4.5 -8.08,-6.81 -13.39,-5.68 -1.39,0.29 -3.02,0.78 -3.56,-1.03 -1.41,-4.81 -3.35,-9.77 -8.12,-12.12 C 96.5,8.46 90.5,9.18 86.56,11.49 79.7,15.54 78,23.22 79.45,30.59 c 0.41,2.1 1.06,4.17 1.76,6.2 0.67,1.95 4.14,7.83 2.15,9.76 -0.47,0.45 -1.58,0.53 -1.56,1.28 0.04,0.92 1.04,1.72 1.73,2.15 7.15,4.45 16.14,4.67 24.26,3.63 6.25,-0.79 14.53,-4.11 18.05,-9.97 z" />&#10;					</defs>&#10;					<use
   xlink:href="#SVGID_1_"
   overflow="visible"
   fill="#d7598b"
   id="use2" />&#10;					<clipPath
   id="SVGID_2_">&#10;						<use
   xlink:href="#SVGID_1_"
   overflow="visible"
   id="use3" />&#10;					</clipPath>&#10;				</g>&#10;			</g>&#10;		</g>&#10;	</g>&#10;	<g
   id="g8">&#10;		<g
   id="g7">&#10;			<path
   fill="#2f2f2f"
   d="m 62.9,38.23 c 3,3.42 7.72,4.17 10.55,1.71 2.82,-2.48 2.69,-7.25 -0.3,-10.67 -2.99,-3.43 -7.71,-4.18 -10.53,-1.69 -2.83,2.46 -2.7,7.26 0.28,10.65"
   id="path6" />&#10;			<path
   fill="#2f2f2f"
   d="m 31.42,51.98 c 0.36,-0.05 0.71,-0.18 1.04,-0.39 6.03,-4.05 12.95,-6.32 13.02,-6.35 1.03,-0.32 1.71,-1.3 1.69,-2.38 -0.03,-1.09 -0.76,-2.02 -1.8,-2.29 -7.59,-2.06 -16.29,-2.1 -16.66,-2.1 -1.38,0 -2.44,1.09 -2.44,2.43 -0.01,1.35 1.09,2.44 2.44,2.45 0.04,-0.01 3.32,0.01 7.48,0.48 -2.05,1 -4.29,2.24 -6.44,3.69 -1.12,0.76 -1.43,2.28 -0.67,3.39 0.52,0.8 1.44,1.18 2.34,1.07 z"
   id="path7" />&#10;		</g>&#10;	</g>&#10;</g></svg>
