<?xml version="1.0" encoding="UTF-8" standalone="no"?>
<svg
   width="128"
   height="128"
   style="enable-background:new 0 0 128 128;"
   version="1.1"
   id="svg61772"
   sodipodi:docname="emoji_u1f431.svg"
   inkscape:version="1.3 (0e150ed6c4, 2023-07-21)"
   xmlns:inkscape="http://www.inkscape.org/namespaces/inkscape"
   xmlns:sodipodi="http://sodipodi.sourceforge.net/DTD/sodipodi-0.dtd"
   xmlns="http://www.w3.org/2000/svg"
   xmlns:svg="http://www.w3.org/2000/svg">
  <defs
     id="defs61776">
    <path
       id="SVGID_1_"
       d="M 95.31,51.88 C 95.64,43.17 91.58,33.73 84.43,27.39 78.65,22.25 70.07,19.04 61.44,18.15 52.81,17.23 43.76,18.59 37.04,22.4 28.72,27.12 22.8,35.5 21.3,44.1 c -1.42,8.16 -0.62,16.61 6.43,23.13 3.91,3.61 8.96,6.32 14.28,8.05 2.02,0.66 7.26,2.25 12.85,2.84 5.61,0.59 11.57,0.18 13.69,-0.05 5.56,-0.59 11.07,-2.18 15.64,-4.89 C 92.46,68.26 95,60.16 95.31,51.88 Z" />
  </defs>
  <sodipodi:namedview
     id="namedview61774"
     pagecolor="#ffffff"
     bordercolor="#000000"
     borderopacity="0.25"
     inkscape:showpageshadow="2"
     inkscape:pageopacity="0.0"
     inkscape:pagecheckerboard="0"
     inkscape:deskcolor="#d1d1d1"
     showgrid="false"
     inkscape:zoom="4.2421875"
     inkscape:cx="67.064457"
     inkscape:cy="73.664825"
     inkscape:window-width="1366"
     inkscape:window-height="697"
     inkscape:window-x="-8"
     inkscape:window-y="-8"
     inkscape:window-maximized="1"
     inkscape:current-layer="svg61772" />
  <g
     id="g61770"
     transform="translate(-0.38385881)">
    <path
       d="m 125.47,86.16 -8.27,-1.49 c 0.1,-1.84 0.09,-3.7 0,-5.56 l 8.4,-1.25 c 1.17,-0.17 1.97,-1.26 1.8,-2.42 -0.17,-1.16 -1.26,-1.96 -2.42,-1.8 l -8.18,1.22 c -0.9,-5.98 -3.2,-11.94 -6.68,-17.31 1.05,-10.02 3.06,-37.18 -5.09,-42.65 -6.5,-4.36 -21.96,11.82 -26.94,17.63 -1.15,1.34 -2.2,2.55 -3.16,3.65 -3.48,-0.53 -7.02,-0.82 -10.55,-0.82 -3.53,-0.01 -7.06,0.29 -10.54,0.82 -0.96,-1.1 -2.01,-2.31 -3.16,-3.65 C 45.7,26.72 30.24,10.54 23.75,14.9 15.6,20.37 17.62,47.53 18.66,57.55 15.19,62.91 12.87,68.88 11.98,74.86 L 3.8,73.64 C 2.64,73.48 1.55,74.27 1.37,75.44 1.19,76.6 2,77.69 3.16,77.86 l 8.4,1.25 c -0.09,1.86 -0.1,3.72 0,5.56 L 3.3,86.16 c -1.16,0.21 -1.93,1.32 -1.72,2.48 0.19,1.03 1.08,1.75 2.1,1.75 0.12,0 0.25,-0.01 0.38,-0.03 L 12,88.93 c 0.33,2.1 0.81,4.17 1.5,6.18 l -6.48,2.05 c -1.12,0.36 -1.74,1.56 -1.39,2.68 0.29,0.91 1.13,1.49 2.03,1.49 0.22,0 0.43,-0.03 0.65,-0.1 l 6.85,-2.17 c 1.98,3.89 4.88,7.47 8.98,10.53 6.05,4.51 13.57,7.57 21.33,9.23 2.94,0.63 10.56,2.1 18.55,2.1 7.99,0 16.35,-1.47 19.3,-2.1 7.75,-1.66 15.28,-4.72 21.33,-9.23 4.1,-3.06 7,-6.64 8.98,-10.53 l 6.84,2.17 c 0.22,0.07 0.43,0.1 0.65,0.1 0.9,0 1.74,-0.58 2.03,-1.49 0.36,-1.12 -0.26,-2.32 -1.38,-2.68 l -6.48,-2.06 c 0.69,-2 1.18,-4.07 1.5,-6.18 l 7.95,1.43 c 0.12,0.02 0.25,0.03 0.38,0.03 1.01,0 1.91,-0.73 2.1,-1.75 0.18,-1.15 -0.6,-2.26 -1.75,-2.47 z"
       style="fill:#f79329;fill-opacity:1"
       id="path61738" />
    <g
       id="g61768">
      <g
         id="g61764">
        <path
           d="m 70.95,103.19 c 0.21,0.46 -0.17,1.2 -0.28,1.62 -0.14,0.53 -0.27,1.05 -0.43,1.56 -0.76,2.52 -2.06,4.88 -4.85,5.43 -2.58,0.51 -5.06,-1.25 -6.03,-3.58 -0.36,-0.85 -0.64,-1.73 -0.94,-2.6 -0.16,-0.48 -0.32,-0.96 -0.47,-1.43 -0.11,-0.34 -0.4,-0.88 -0.36,-1.23 1.42,-0.09 3.07,-0.73 4.29,-1.45 0.4,-0.24 0.85,-0.37 1.22,-0.66 0.33,-0.26 0.54,-0.63 0.96,-0.76 0.42,0.45 1.13,0.7 1.65,1.05 0.63,0.42 1.27,0.79 1.95,1.11 0.63,0.3 1.38,0.3 2.03,0.47 0.34,0.09 0.91,0.04 1.16,0.33 0.05,0.04 0.08,0.08 0.1,0.14 z"
           style="fill:#ed6c30"
           id="path61740" />
        <g
           id="g61762">
          <g
             id="g61746">
            <path
               d="m 46.92,81.07 c 0,4.59 -3.31,8.3 -7.38,8.3 -4.07,0 -7.38,-3.72 -7.38,-8.3 0,-4.6 3.31,-8.31 7.38,-8.31 4.07,-0.01 7.38,3.71 7.38,8.31 z"
               style="fill:#2f2f2f"
               id="path61742" />
            <path
               d="m 81.26,81.07 c 0,4.59 3.3,8.3 7.38,8.3 4.07,0 7.38,-3.72 7.38,-8.3 0,-4.6 -3.31,-8.31 -7.38,-8.31 -4.07,-0.01 -7.38,3.71 -7.38,8.31 z"
               style="fill:#2f2f2f"
               id="path61744" />
          </g>
          <path
             d="m 64.48,101.33 c -0.77,0 -1.39,-0.62 -1.39,-1.39 v -8.15 c 0,-0.77 0.62,-1.39 1.39,-1.39 0.77,0 1.39,0.62 1.39,1.39 v 8.15 c 0,0.77 -0.62,1.39 -1.39,1.39 z"
             style="fill:#2f2f2f"
             id="path61748" />
          <g
             id="g61754">
            <path
               d="m 57.49,104.6 c -0.43,0 -0.89,-0.02 -1.36,-0.06 -5.66,-0.5 -8.15,-4.89 -8.68,-7.15 -0.21,-0.92 0.36,-1.84 1.28,-2.05 0.92,-0.22 1.83,0.35 2.05,1.27 0.05,0.21 1.11,4.12 5.65,4.53 4.75,0.43 6.59,-2.06 6.67,-2.17 0.55,-0.76 1.6,-0.95 2.37,-0.42 0.77,0.53 0.97,1.57 0.45,2.35 -0.11,0.16 -2.57,3.7 -8.43,3.7 z"
               style="fill:#2f2f2f"
               id="path61750" />
            <path
               d="m 71.52,104.6 c -5.86,0 -8.32,-3.54 -8.43,-3.7 -0.53,-0.78 -0.32,-1.85 0.46,-2.38 0.79,-0.53 1.85,-0.32 2.38,0.46 0.06,0.08 1.93,2.57 6.65,2.15 4.63,-0.41 5.64,-4.48 5.65,-4.52 0.22,-0.92 1.14,-1.49 2.05,-1.28 0.92,0.22 1.49,1.13 1.28,2.05 -0.53,2.25 -3.03,6.65 -8.68,7.15 -0.48,0.05 -0.93,0.07 -1.36,0.07 z"
               style="fill:#2f2f2f"
               id="path61752" />
          </g>
          <g
             id="g61760">
            <path
               d="m 59.22,91.73 c 0.08,1.05 0.79,2.15 1.89,2.82 0.88,0.55 2.13,0.82 3.36,0.82 1.22,0 2.47,-0.27 3.35,-0.82 1.1,-0.68 1.81,-1.77 1.89,-2.82 0.08,-1 -0.15,-2.02 -1.24,-2.72 -0.6,-0.39 -1.35,-0.65 -2.12,-0.79 -0.29,-0.05 -1.05,-0.18 -1.85,-0.18 -0.79,0 -1.62,0.12 -1.92,0.18 -0.77,0.14 -1.52,0.4 -2.12,0.79 -1.08,0.71 -1.32,1.72 -1.24,2.72 z"
               style="fill:#2f2f2f"
               id="path61756" />
            <path
               d="m 64.43,96.86 c -1.54,0 -3.04,-0.38 -4.11,-1.04 -1.47,-0.91 -2.47,-2.43 -2.59,-3.97 -0.17,-2.24 0.96,-3.45 1.92,-4.08 0.74,-0.47 1.66,-0.82 2.66,-1 0.4,-0.08 1.31,-0.2 2.18,-0.2 0.94,0 1.8,0.14 2.12,0.2 1,0.18 1.92,0.53 2.65,1 0.97,0.63 2.1,1.85 1.92,4.09 -0.12,1.53 -1.11,3.05 -2.59,3.97 -1.07,0.66 -2.57,1.04 -4.11,1.04 h -0.05 z m 0.07,-7.33 c -0.68,0 -1.41,0.11 -1.64,0.15 -0.62,0.12 -1.19,0.32 -1.59,0.58 -0.39,0.25 -0.62,0.57 -0.56,1.35 0.05,0.6 0.51,1.25 1.19,1.67 0.61,0.38 1.56,0.6 2.55,0.6 v 1.49 l 0.02,-1.49 v 0 c 1.03,0 1.98,-0.23 2.58,-0.6 0.67,-0.41 1.15,-1.08 1.19,-1.67 0.07,-0.78 -0.17,-1.1 -0.56,-1.35 C 67.28,90 66.71,89.8 66.1,89.68 65.93,89.66 65.22,89.53 64.5,89.53 Z"
               style="fill:#2f2f2f"
               id="path61758" />
          </g>
        </g>
      </g>
      <path
         d="m 64.48,113.66 c -2.83,0 -5.55,-1.85 -6.76,-4.76 -0.56,-1.35 -1.69,-4.89 -1.74,-5.04 -0.3,-0.93 0.22,-1.93 1.15,-2.23 0.93,-0.3 1.93,0.22 2.23,1.15 0.39,1.22 1.23,3.79 1.63,4.75 0.62,1.49 2.26,2.88 4.05,2.53 1.64,-0.32 2.72,-1.62 3.5,-4.2 0.1,-0.35 0.31,-1.14 0.51,-1.88 0.15,-0.58 0.3,-1.14 0.38,-1.43 0.27,-0.94 1.23,-1.49 2.19,-1.22 0.94,0.27 1.49,1.25 1.22,2.19 -0.08,0.28 -0.22,0.81 -0.37,1.37 -0.2,0.77 -0.42,1.6 -0.54,1.99 -0.44,1.44 -1.76,5.78 -6.21,6.66 -0.4,0.08 -0.82,0.12 -1.24,0.12 z"
         style="fill:#2f2f2f"
         id="path61766" />
    </g>
  </g>
  <g
     id="g61961"
     transform="matrix(1.4182555,-0.14566264,0.14566264,1.4182555,-26.033387,18.150219)"
     style="stroke-width:0.701402">
    <path
       d="m 36,12.52 c -0.73,1.9 -2.2,7.37 -1.28,11.26 0.27,1.16 1.75,1.68 2.8,1.18 2.19,-1.05 5.61,-2.9 6.89,-3.54 2.18,-1.07 2.93,-2.4 1.75,-4.03 C 44.66,15.31 40.92,11 38.71,10.58 37.45,10.34 36.48,11.29 36,12.52 Z"
       style="fill:#fcd4b5;stroke-width:0.701402"
       id="path61957" />
    <path
       d="m 87.6,17.78 c 0.41,2 0.93,7.63 -0.63,11.33 -0.46,1.09 -2.01,1.36 -2.96,0.69 -1.98,-1.4 -5.03,-3.8 -6.2,-4.64 -1.96,-1.42 -2.49,-2.86 -1.05,-4.27 1.82,-1.8 6.23,-5.43 8.48,-5.47 1.29,-0.03 2.1,1.07 2.36,2.36 z"
       style="fill:#fcd4b5;stroke-width:0.701402"
       id="path61959" />
  </g>
</svg>
