<?xml version="1.0" encoding="UTF-8" standalone="no"?>
<svg
   width="100%"
   height="100%"
   viewBox="0 0 128 128"
   version="1.1"
   xml:space="preserve"
   style="fill-rule:evenodd;clip-rule:evenodd;stroke-linejoin:round;stroke-miterlimit:2;"
   id="svg26728"
   sodipodi:docname="emoji_u1f9c1.svg"
   inkscape:version="1.2.2 (732a01da63, 2022-12-09)"
   xmlns:inkscape="http://www.inkscape.org/namespaces/inkscape"
   xmlns:sodipodi="http://sodipodi.sourceforge.net/DTD/sodipodi-0.dtd"
   xmlns="http://www.w3.org/2000/svg"
   xmlns:svg="http://www.w3.org/2000/svg"><defs
   id="defs26732" /><sodipodi:namedview
   id="namedview26730"
   pagecolor="#ffffff"
   bordercolor="#000000"
   borderopacity="0.25"
   inkscape:showpageshadow="2"
   inkscape:pageopacity="0.0"
   inkscape:pagecheckerboard="0"
   inkscape:deskcolor="#d1d1d1"
   showgrid="false"
   inkscape:zoom="2.9996795"
   inkscape:cx="62.506677"
   inkscape:cy="69.674109"
   inkscape:window-width="1366"
   inkscape:window-height="697"
   inkscape:window-x="-8"
   inkscape:window-y="-8"
   inkscape:window-maximized="1"
   inkscape:current-layer="svg26728" />
    <path
   id="path17329"
   d="m 24.25,84.440214 c 0,0 -7.09,-10.51 -7.23,-16.52 -0.08,-3.32 1.6,-7.13 4.88,-9.1 3.28,-1.97 7.79,-3.28 7.79,-3.28 l 72.08,0.19 c 0,0 5.59,-0.3 8.07,6.38 2.16,5.82 -2.63,16.71 -2.63,16.71 0,0 -36.88,13.5 -46.83,12.75 -9.95,-0.75 -36.13,-7.13 -36.13,-7.13 z"
   style="fill:#855c52;fill-opacity:1;fill-rule:nonzero" /><g
   id="g26855"
   transform="matrix(0.96740237,0,0,0.91844754,5.2743654,-36.863707)"
   style="stroke-width:1.06089"><path
     fill="#2f2f2f"
     d="m 95.65,87.06 c -3,-1.87 -5.63,-2.18 -5.63,-2.18 0,0 -2.91,0.31 -7.15,0.77 l 5.71,-10.26 c -3.3,-3.56 -6.76,-4.08 -6.76,-4.08 L 69.47,72.6 69.6,71.76 44.76,64.32 c -3.37,0.28 -6,1.58 -6,1.58 l -0.67,16.59 0.74,0.92 c -6.97,-0.05 -11.36,2.77 -11.36,2.77 0,0 -1.23,14.84 -1.31,15.05 -0.05,0.14 17.38,5.92 28.4,9.57 0.49,1.7 0.83,2.82 0.83,2.82 l 7.02,-0.23 c 0.17,0.06 0.39,0.13 0.52,0.17 l 0.08,0.09 0.01,-0.07 c 0.26,0.09 0.41,0.14 0.41,0.14 v -0.36 l 14.8,-0.48 z"
     id="path26561"
     style="stroke-width:1.25139;fill:#762998;fill-opacity:1" /><path
     fill="#855c52"
     d="m 61.88,78.03 c 5,0.83 10.49,0.82 15.04,-1.68 4.31,-2.37 7.01,-7.43 5.88,-12.34 -0.73,-3.11 -2.4,-5.06 -4.6,-6.37 -2.25,-1.34 -5.04,-1.99 -7.9,-2.5 -1.37,-0.25 -7.16,-1.06 -9.55,-4.38 -1.93,-2.69 -1.99,-7.54 -2.52,-8.98 -0.56,-1.5 -2.46,-0.84 -4.55,0.55 -2.43,1.62 -7.46,6.82 -9.4,12.02 -2.62,7.07 -0.71,12.46 1.14,14.86 3.78,4.91 10.89,7.88 16.46,8.82 z"
     id="path26563"
     style="fill:#d7588b;fill-opacity:1;stroke-width:1.25139" /><path
     fill="#855c52"
     d="m 55.08,99.49 c 4.21,0.54 6.91,0.75 11.15,0.44 10.39,-0.75 18.8,-4.11 23.15,-10.74 3.94,-6.04 2.11,-10.63 -0.81,-13.81 -0.37,-0.42 -0.96,-0.85 -1.59,-1.13 -1.06,-0.46 -2.27,-0.49 -3.02,0.6 -4.49,6.45 -15.73,8.2 -25.17,6.22 -3.81,-0.8 -12.26,-3.39 -15.83,-9.08 -0.86,-1.38 -1.21,-2.87 -1.45,-4.04 -0.25,-1.19 -0.99,-2.82 -3.05,-1.96 -2.19,0.91 -6.88,5.12 -7.3,11.56 -0.28,4.29 0.97,8.69 3.76,11.9 4.97,5.73 12.8,9.1 20.16,10.04 z"
     id="path26565"
     style="fill:#d7588b;fill-opacity:1;stroke-width:1.25139" /><path
     fill="#855c52"
     d="m 95.65,87.06 c -1.46,-0.75 -2.33,0.92 -2.95,2.04 -4.68,8.62 -13.75,12.88 -23.43,13.97 -8.85,0.98 -16.48,1.31 -26.58,-3.32 C 37.46,97.34 32.25,94.31 29.61,87.63 29.25,86.71 29.16,85.84 28.08,86 c -1.31,0.2 -4.28,2.19 -5.1,3.18 -1.44,1.73 -2.44,3.8 -3.03,5.97 -1.29,4.71 -0.82,10.08 1.47,14.42 1.27,2.41 3,4.98 4.91,6.94 6.24,6.41 17,8.83 25.5,10.23 10.35,1.71 21.19,1.11 30.88,-2.89 14.53,-6 18.39,-15.64 18.97,-18.36 1.27,-6.05 -0.28,-11.72 -0.94,-13.08 -0.97,-1.98 -2.53,-4.03 -5.09,-5.35 z"
     id="path26567"
     style="fill:#d7588b;fill-opacity:1;stroke-width:1.25139" /></g>
    
    
    <path
   id="path17335"
   d="m 32.69,80.590214 -9.2,-1.03 -5.4,-3.43 c 0,0 4.42,8.24 5.17,12.18 0.75,3.94 5.38,25.969996 5.38,25.969996 0,0 6.33,11.61 34.16,11.54 29.89,-0.07 39.51,-13.05 39.51,-13.05 l 2.87,-24.329996 2.01,-7.07 2.16,-8.39 -10.32,5.54 -7.32,4.97 h -8.54 l -8.73,3.66 -9.76,-0.84 -7.04,3.19 -9.57,-4.13 -7.79,0.94 z"
   style="fill:#62cdea;fill-rule:nonzero" />
    <path
   id="path17337"
   d="m 40.67,90.160214 c -3.57,-0.52 -3.57,4.32 -3.1,8.26 0.47,3.939996 2.21,23.849996 2.21,23.849996 0,0 1.38,0.68 3.45,1.23 1.67,0.45 3.92,0.92 3.92,0.92 0,0 -1.97,-23.28 -2.06,-25.429996 -0.09,-2.15 -0.57,-8.27 -4.42,-8.83 z"
   style="fill:#1da3c8;fill-rule:nonzero" />
    <path
   id="path17339"
   d="m 58.03,93.820214 c -2.81,-0.13 -4.32,2.35 -3.94,7.789996 0.38,5.44 1.31,23.93 1.31,23.93 0,0 1.68,0.26 3.55,0.35 1.88,0.09 3.86,-0.07 3.86,-0.07 0,0 -0.66,-20.65 -0.75,-23.46 -0.09,-2.809996 0.01,-8.349996 -4.03,-8.539996 z"
   style="fill:#1da3c8;fill-rule:nonzero" />
    <path
   id="path17341"
   d="m 24.25,84.440214 c -2.07,0.07 -1.78,2.18 -0.94,5.84 0.84,3.66 3,15.559996 3.38,17.429996 0.38,1.88 1.31,6.19 1.31,6.19 0,0 1.4,1.75 2.1,2.38 0.83,0.75 2.22,1.83 2.22,1.83 0,0 -3.85,-25.789996 -4.32,-28.139996 -0.47,-2.34 -1.13,-5.63 -3.75,-5.53 z"
   style="fill:#1da3c8;fill-rule:nonzero" />
    <path
   id="path17343"
   d="m 75.58,92.880214 c -4.61,0.1 -4.04,6.57 -4.04,7.979996 0,1.41 0.28,24.5 0.28,24.5 0,0 2.44,-0.19 3.75,-0.38 1.31,-0.19 3.65,-0.63 3.65,-0.63 0,0 0.11,-21.99 0.11,-24.05 0.01,-2.069996 0.67,-7.509996 -3.75,-7.419996 z"
   style="fill:#1da3c8;fill-rule:nonzero" />
    <path
   id="path17345"
   d="m 91.45,87.630214 c -3.73,0.29 -3.94,4.5 -4.04,9.01 -0.09,4.499996 -0.26,25.529996 -0.26,25.529996 0,0 2.18,-0.79 3.45,-1.31 1.58,-0.66 2.82,-1.36 2.82,-1.36 0,0 0.94,-22.379996 0.94,-24.539996 0,-2.16 0.83,-7.63 -2.91,-7.33 z"
   style="fill:#1da3c8;fill-rule:nonzero" />
    <path
   id="path17347"
   d="m 99.54,115.51021 c 0.81,-0.6 2.79,-2.73 2.79,-2.73 0,0 2.82,-17.639996 3.19,-20.369996 0.38,-2.72 1.76,-11.11 1.76,-11.11 0,0 -0.94,-0.47 -2.25,0 -1.31,0.47 -3.03,2.59 -3.31,7 -0.28,4.42 -2.18,26.829996 -2.18,27.209996 z"
   style="fill:#1da3c8;fill-rule:nonzero" />
    <path
   id="path17349"
   d="m 99.7,79.180214 c -3.85,1.69 -8.26,7.13 -8.26,7.13 0,0 -3.75,-2.83 -8.07,-1.69 -4.97,1.31 -7.79,6.66 -7.79,6.66 0,0 -5.44,-3.85 -9.1,-3.66 -3.66,0.19 -8.26,4.5 -8.26,4.5 0,0 -5.91,-4.41 -9.48,-4.97 -3.57,-0.56 -8.26,1.41 -8.26,1.41 0,0 -4.6,-5.54 -8.63,-6.57 -4.03,-1.03 -7.41,1.13 -7.41,1.13 0,0 -1.97,-3.66 -3.85,-4.69 -1.88,-1.03 -3.64,-0.88 -3.19,-3.28 0.28,-1.5 2.56,-1.26 3.75,-0.75 3.28,1.41 4.13,4.22 4.13,4.22 0,0 2.25,-1.5 7.51,-0.38 5.78,1.24 8.54,6.01 8.54,6.01 0,0 3.28,-1.95 7.23,-1.69 5.63,0.38 9.01,5.16 9.01,5.16 0,0 3.94,-4.04 8.63,-4.22 4.69,-0.18 8.54,2.53 8.54,2.53 0,0 1.13,-3.57 8.07,-5.16 5.37,-1.23 8.45,1.03 8.45,1.03 0,0 1.88,-4.41 7.04,-6.1 4.12,-1.35 6.38,-0.38 6.38,-0.38 0,0 0.19,-3.38 3.1,-4.32 1.33,-0.43 2.52,0.06 2.3,1.5 -0.19,1.22 -1.44,0.41 -2.39,2.44 -0.7,1.5 -1.5,4.04 -1.5,4.04 0,0 -3.33,-1.29 -6.49,0.1 z"
   style="fill:#e1fafe;fill-rule:nonzero" />
    
    
    
    
    
    
    
    
    
    
    
    
    
    
    
<path
   id="path17359"
   d="m 47.397296,43.685139 c 1.45,2.03 2.67,4.29 4.43,3.24 1.759999,-1.06 0.35,-3.17 -0.99,-5.21 -1.34,-2.04 -2.75,-4.29 -4.43,-3.1 -1.68,1.2 -0.06,3.59 0.99,5.07 z"
   style="clip-rule:evenodd;fill:#529cd2;fill-opacity:1;fill-rule:nonzero;stroke-linejoin:round;stroke-miterlimit:2" /><path
   id="path17361"
   d="m 69.18773,43.650903 c -0.749147,-1.260189 -2.6654,-0.988201 -5.66816,0.813918 -2.938113,1.758292 -4.901442,3.010425 -3.992868,4.58792 0.986278,1.7058 3.215463,0.711197 6.000428,-0.921613 2.784965,-1.632811 4.658805,-2.793339 3.6606,-4.480225 z"
   style="clip-rule:evenodd;fill:#db4436;fill-opacity:1;fill-rule:nonzero;stroke-linejoin:round;stroke-miterlimit:2" /><path
   id="path17363"
   d="m 78.6266,65.974082 c -1.09,2.590001 -2.72,5.740001 -0.53,6.41 2.32,0.7 2.99,-2.53 4.19,-5.07 1.2,-2.53 1.72,-4.34 0.21,-5.07 -1.9,-0.92 -2.74,1.05 -3.87,3.73 z"
   style="clip-rule:evenodd;fill:#7cb342;fill-rule:nonzero;stroke-linejoin:round;stroke-miterlimit:2;fill-opacity:1" /><path
   id="path17367"
   d="m 44.469134,63.853017 c -1.55,1.550001 0.07,3.17 1.76,4.580001 1.689999,1.41 4.219999,3.099999 5.559999,1.62 1.5,-1.66 -1.48,-3.21 -3.06,-4.5 -1.979999,-1.63 -2.919999,-3.05 -4.259999,-1.700001 z"
   style="clip-rule:evenodd;fill:#7cb342;fill-rule:nonzero;stroke-linejoin:round;stroke-miterlimit:2" /><path
   id="path17369"
   d="m 74.283273,20.738451 c -1.722313,-1.236866 -3.316691,1.664678 -4.206069,3.345127 -0.889378,1.680448 -2.005,3.472761 -0.394552,4.483383 1.67107,1.045622 2.849827,-1.276044 3.814205,-3.086396 0.959378,-1.801692 2.453109,-3.548909 0.786416,-4.742114 z"
   style="clip-rule:evenodd;fill:#529cd2;fill-opacity:1;fill-rule:nonzero;stroke-linejoin:round;stroke-miterlimit:2" /><path
   id="path17371"
   d="m 82.18489,38.952037 c 1.17,0.68 1.13,2.39 -0.77,5.56 -1.68,2.810001 -3.24,5 -5.07,3.87 -2.21,-1.36 0.14,-3.589999 1.48,-5.77 1.34,-2.18 2.04,-5 4.36,-3.66 z"
   style="clip-rule:evenodd;fill:#db4436;fill-opacity:1;fill-rule:nonzero;stroke-linejoin:round;stroke-miterlimit:2" /><path
   id="path17373"
   d="m 59.414974,15.909588 c -0.608,0.014 -1.245,0.138 -1.789,0.4 -1.356,0.657 -2.216,1.861 -2.285,2.877 -0.23,1.225 -0.15,4.035 2.676,5.014 3.38,1.17 6.18,-1.75 5.67,-4.76 -0.288,-1.681 -1.418,-2.626 -2.305,-3.094 -0.186,-0.126 -0.431,-0.228 -0.713,-0.303 -0.171,-0.052 -0.296,-0.077 -0.361,-0.076 -0.28,-0.046 -0.583,-0.066 -0.893,-0.058 z"
   style="clip-rule:evenodd;fill:#fcc21b;fill-opacity:1;fill-rule:nonzero;stroke-linejoin:round;stroke-miterlimit:2" /><path
   id="path17375"
   d="m 64.091135,63.36137 c -0.503,0.006 -1.073,0.106 -1.705,0.345 -1.157,0.431 -1.973,1.368 -2.215,2.332 0,0.001 0,0.002 0,0.002 -0.41,1.027 -0.822,3.703001 1.615,5.366 2.67,1.830001 6.55,-0.351 6.51,-3.561 -0.02,-1.796999 -1.041,-2.964 -1.791,-3.545 -0.42,-0.45 -1.234,-0.955 -2.414,-0.939 z"
   style="clip-rule:evenodd;fill:#fcc21b;fill-opacity:1;fill-rule:nonzero;stroke-linejoin:round;stroke-miterlimit:2" /><path
   id="path17377"
   d="m 93.4126,56.495082 c -0.765,-0.008 -1.588,0.245 -2.195,0.689 -0.782,0.572001 -1.381,1.554 -1.5,2.461 -0.203,1.1 -0.124,3.947 3.019,4.649 2.63,0.590001 5.220997,-1.918999 4.401,-4.799 -0.65,-2.287999 -2.778,-2.945 -3.184,-2.947 -0.174,-0.034 -0.356,-0.051 -0.541,-0.053 z"
   style="clip-rule:evenodd;fill:#f69228;fill-opacity:1;fill-rule:nonzero;stroke-linejoin:round;stroke-miterlimit:2" /><path
   id="path17379"
   d="m 34.872421,54.566535 c -0.624,0.004 -1.341,0.175 -2.121,0.625 -0.805,0.467 -1.341,1.299 -1.55,2.108 -0.29,0.439 -0.906,4.026 2.22,5.212 3,1.14 5.941,-1.628 5.461,-4.468 -0.258,-1.519 -1.247,-2.403 -2.062,-2.86 -0.446,-0.328 -1.115,-0.622 -1.948,-0.617 z"
   style="clip-rule:evenodd;fill:#f69228;fill-opacity:1;fill-rule:nonzero;stroke-linejoin:round;stroke-miterlimit:2" /></svg>
