<?xml version="1.0" encoding="UTF-8" standalone="no"?>
<!-- Generator: Adobe Illustrator 16.0.0, SVG Export Plug-In . SVG Version: 6.00 Build 0)  -->

<svg
   version="1.1"
   id="レイヤー_1"
   x="0px"
   y="0px"
   width="128px"
   height="128px"
   viewBox="0 0 128 128"
   enable-background="new 0 0 128 128"
   xml:space="preserve"
   sodipodi:docname="emoji_u1f6c2.svg"
   inkscape:version="1.3 (0e150ed6c4, 2023-07-21)"
   xmlns:inkscape="http://www.inkscape.org/namespaces/inkscape"
   xmlns:sodipodi="http://sodipodi.sourceforge.net/DTD/sodipodi-0.dtd"
   xmlns:xlink="http://www.w3.org/1999/xlink"
   xmlns="http://www.w3.org/2000/svg"
   xmlns:svg="http://www.w3.org/2000/svg"><defs
   id="defs8"><clipPath
     id="SVGID_2_-9">&#10;				<use
   xlink:href="#SVGID_1_-0"
   overflow="visible"
   id="use2-7" />&#10;			</clipPath><clipPath
     id="clipPath1">&#10;				<use
   xlink:href="#SVGID_1_-0"
   overflow="visible"
   id="use1" />&#10;			</clipPath><path
     id="SVGID_1_-0"
     d="M 59.97,54.56 C 59.82,54.1 59.69,53.63 59.58,53.14 56.66,39.84 64,28.71 74.44,26.54 c 14.94,-3.11 25.28,6.58 26.44,16.01 0.37,3.07 0.29,6.16 -0.49,9.17 -0.6,2.28 -1.87,4.53 -1.93,6.92 -0.06,2.51 1.94,4.83 3.85,6.23 0.32,0.24 0.57,0.53 0.91,0.75 0.7,0.47 1.49,0.81 2.19,1.28 2.58,1.72 5.56,2.89 7.8,5.1 0.53,0.52 1.12,1.03 1.69,1.52 2.97,2.65 2.41,6.42 0.07,9.27 -0.64,0.78 -1.45,1.56 -2.4,1.94 -0.78,0.32 -1.64,0.44 -2.38,0.88 -0.47,0.28 -0.92,0.53 -1.3,0.93 -0.43,0.45 -0.73,1.15 -0.5,1.74 0.28,0.74 0.22,1.45 0.22,2.25 0,4.06 0.5,7.85 0.49,11.84 -0.01,3.24 0.24,7.02 0.96,10.18 0.47,2.07 1.84,4.08 1.67,6.27 -0.31,3.76 -9.3,4.42 -11.88,4.7 -6.63,0.7 -15.48,1.32 -22.02,-0.29 -1.84,-0.45 -3.64,-0.49 -5.44,-1.17 -1.72,-0.66 -1.2,-2.71 -0.87,-4.05 0.49,-2.01 0.09,-4.21 0.46,-6.28 0.34,-1.88 0.15,-3.71 0.38,-5.61 0.35,-2.89 0.59,-5.81 0.59,-8.72 0,-2.69 -0.33,-5.05 -0.73,-7.68 -0.2,-1.38 -0.89,-1.54 -2.08,-0.81 -1.74,1.06 -3.26,2.34 -4.95,3.46 -2.07,1.37 -4.24,2.97 -6.53,4.01 -6.22,2.81 -14.66,6.67 -21.54,3.89 -2.32,-0.93 -4.85,-2.22 -5.98,-4.6 -1.19,-2.5 -0.82,-6.33 0.6,-8.66 1.43,-2.33 4.51,-3.09 7.07,-2.99 1.29,0.05 2.15,0.63 3.34,0.91 1.37,0.33 3.28,-0.28 4.61,-0.65 1.44,-0.4 2.89,-1.04 4.17,-1.73 4.31,-2.3 8.24,-5.32 11.77,-8.68 3.13,-2.97 7.64,-6.18 3.5,-10.27 -2.72,-2.66 -5.06,-5.35 -6.23,-9.04 z" /></defs><sodipodi:namedview
   id="namedview8"
   pagecolor="#ffffff"
   bordercolor="#000000"
   borderopacity="0.25"
   inkscape:showpageshadow="2"
   inkscape:pageopacity="0.0"
   inkscape:pagecheckerboard="0"
   inkscape:deskcolor="#d1d1d1"
   inkscape:zoom="2.867097"
   inkscape:cx="67.315476"
   inkscape:cy="75.51192"
   inkscape:window-width="1366"
   inkscape:window-height="697"
   inkscape:window-x="-8"
   inkscape:window-y="-8"
   inkscape:window-maximized="1"
   inkscape:current-layer="レイヤー_1" />&#10;<path
   d="M 121.005,0.115 H 6.995 c -3.78,0 -6.88,3.09 -6.88,6.88 v 114.01 c 0,3.79 3.1,6.88 6.88,6.88 h 114.01 c 3.78,0 6.88,-3.09 6.88,-6.88 V 6.995 c 0,-3.79 -3.1,-6.88 -6.88,-6.88 z"
   fill="#40c0e7"
   id="path1-8"
   style="fill:#006ca2;fill-opacity:1" /><g
   id="g8"
   transform="matrix(-0.91238749,0,0,0.91238749,123.54118,1.0974007)"
   style="stroke-width:1.09603">&#10;	<g
   id="g2"
   style="stroke-width:1.09603">&#10;		<path
   fill="#ffffff"
   d="m 108.65291,45.121871 c 0,0 2.07752,-12.452885 2.6565,-13.690556 0.83834,-1.806277 2.42518,-3.607361 5.12939,-1.601357 1.0839,0.800996 2.83246,3.647725 3.87001,5.083685 3.31951,4.657566 6.23306,9.604396 6.23306,9.604396 z"
   id="path1"
   style="fill:#006ca2;fill-opacity:1;stroke-width:1.09603"
   sodipodi:nodetypes="cccccc" />&#10;		<path
   fill="#78a3ad"
   d="m 114.57736,33.078765 c 0.55947,0.684332 1.40816,1.94543 1.86616,2.616677 0.33445,0.501424 0.64079,0.958636 0.90897,1.331443 0.9843,1.37667 1.92438,2.781463 2.77609,4.071698 l -7.13147,0.23551 c 0.67502,-3.844865 1.3359,-7.370236 1.58025,-8.255328 m -1.61271,-3.75596 c -0.72953,0.464012 -1.26321,1.284738 -1.64418,2.10148 -0.57899,1.23767 -2.65651,13.690555 -2.65651,13.690555 l 17.88896,-0.603832 c 0,0 -2.91355,-4.94683 -6.23306,-9.604396 -1.03754,-1.43596 -2.7861,-4.282689 -3.87,-5.083684 -1.47768,-1.078384 -2.62305,-1.048499 -3.48521,-0.500123 z"
   id="path2"
   style="fill:#ffffff;fill-opacity:1;stroke-width:1.09603"
   sodipodi:nodetypes="ccccccscccccs" />&#10;	</g>&#10;	<g
   id="g7"
   style="stroke-width:1.09603">&#10;		<g
   id="g4"
   style="stroke-width:1.09603">&#10;			<defs
   id="defs2">&#10;				<path
   id="SVGID_1_"
   d="m 69.16,49.95 c 0.15,-0.5 0.29,-1.01 0.41,-1.54 C 72.74,34.05 64.8,22.03 53.53,19.68 37.4,16.32 26.22,26.79 24.98,36.98 c -0.34,2.72 -0.27,5.49 0,8.2 0.27,2.65 1.77,5.03 2.96,7.35 0.66,1.31 1.89,2.2 2.55,3.52 1.51,3.08 -0.53,3.96 -3.14,4.75 -1.74,0.52 -4.01,1.75 -5.36,3.12 -1.83,1.87 0.47,2.8 1.54,4.39 0.67,0.98 0.76,1.97 0.93,3.08 0.2,1.34 0.99,2.81 0.45,4.15 -0.41,1.06 -1.25,1.72 -1.56,2.88 -0.92,3.57 -1.11,7.5 -1.11,11.17 0,4.38 -0.55,8.48 -0.53,12.79 0,3.5 -0.26,7.58 -1.04,11 -0.51,2.23 -1.99,4.41 -1.8,6.77 0.34,4.06 10.06,4.78 12.84,5.07 7.17,0.75 16.72,1.42 23.78,-0.32 2,-0.49 3.94,-0.52 5.88,-1.27 1.86,-0.71 1.3,-2.93 0.95,-4.38 -0.53,-2.18 -0.1,-4.55 -0.5,-6.78 -0.36,-2.02 -0.15,-4.01 -0.4,-6.06 -0.39,-3.12 -0.63,-6.27 -0.63,-9.42 -0.01,-2.9 0.35,-5.46 0.78,-8.3 0.22,-1.5 0.97,-1.66 2.25,-0.87 1.88,1.14 3.52,2.53 5.35,3.74 2.24,1.48 4.57,3.21 7.07,4.33 6.71,3.04 15.83,7.2 23.26,4.2 2.5,-1.01 5.24,-2.4 6.46,-4.97 1.28,-2.7 0.87,-6.84 -0.66,-9.35 -1.54,-2.52 -4.86,-3.33 -7.63,-3.23 -1.39,0.05 -2.33,0.68 -3.61,0.99 -1.48,0.36 -3.54,-0.3 -4.97,-0.7 C 87.53,82.4 85.98,81.71 84.58,80.96 79.92,78.48 75.67,75.21 71.85,71.59 68.47,68.38 58,64.12 62.47,59.71 c 2.89,-2.86 5.42,-5.77 6.69,-9.76 z" />&#10;			</defs>&#10;			<path
   id="use2"
   style="fill:#ffffff;fill-opacity:1;stroke-width:1.09603"
   d="M 47.722246 19.041583 C 49.57406 19.056954 51.513649 19.259505 53.529897 19.679504 C 64.799885 22.029502 72.739971 34.049517 69.569974 48.409502 C 69.449974 48.939502 69.308964 49.450789 69.158964 49.950788 C 67.888965 53.940784 65.359352 56.850128 62.469355 59.710125 C 57.99936 64.120121 68.469796 68.380874 71.849793 71.590871 C 75.669789 75.210867 79.920391 78.480607 84.580386 80.960605 C 85.980385 81.710604 87.53079 82.399414 89.090788 82.829414 C 90.520787 83.229414 92.579296 83.889414 94.059295 83.529415 C 95.339293 83.219415 96.280615 82.590423 97.670613 82.540423 C 100.44061 82.440423 103.75998 83.250704 105.29998 85.770701 C 106.82998 88.280699 107.23931 92.419031 105.95931 95.119029 C 104.73931 97.689026 102.00089 99.079677 99.50089 100.08968 C 92.070898 103.08967 82.95031 98.929669 76.240317 95.889672 C 73.740319 94.769673 71.409665 93.039085 69.169668 91.559086 C 67.339669 90.349087 65.700119 88.959326 63.820121 87.819327 C 62.540122 87.029328 61.790271 87.190583 61.570272 88.690582 C 61.140272 91.530579 60.781066 94.089981 60.791066 96.989979 C 60.791066 100.13998 61.030425 103.28895 61.420424 106.40895 C 61.670424 108.45895 61.460731 110.4492 61.820731 112.4692 C 62.22073 114.6992 61.789508 117.07086 62.319508 119.25086 C 62.669508 120.70086 63.229046 122.92068 61.369048 123.63068 C 59.42905 124.38068 57.490753 124.4101 55.490755 124.9001 C 48.430762 126.6401 38.87999 125.96906 31.709997 125.21906 C 28.93 124.92906 19.210229 124.20994 18.870229 120.14994 C 18.68023 117.78994 20.160538 115.60898 20.670537 113.37899 C 21.450536 109.95899 21.710905 105.88019 21.710905 102.3802 C 21.690905 98.070202 22.239652 93.969661 22.239652 89.589665 C 22.239652 85.919669 22.430663 81.98962 23.350662 78.419624 C 23.660662 77.259625 24.499074 76.600415 24.909073 75.540416 C 25.449073 74.200417 24.659531 72.729646 24.459532 71.389647 C 24.289532 70.279648 24.200478 69.289215 23.530479 68.309216 C 22.46048 66.719218 20.159195 65.790831 21.989193 63.920833 C 23.339191 62.550834 25.609444 61.319728 27.349443 60.799729 C 29.95944 60.009729 31.999811 59.129568 30.489813 56.049571 C 29.829813 54.729572 28.600268 53.8403 27.940269 52.530301 C 26.75027 50.210304 25.249715 47.829221 24.979716 45.179224 C 24.709716 42.469227 24.639716 39.700436 24.979716 36.980439 C 26.064714 28.064198 34.759544 18.933986 47.722246 19.041583 z " />&#10;			<clipPath
   id="SVGID_2_">&#10;				<use
   xlink:href="#SVGID_1_"
   overflow="visible"
   id="use3" />&#10;			</clipPath>&#10;			<path
   clip-path="url(#SVGID_2_)"
   fill="#ffffff"
   d="m 59.52,107.62 c -5.6,0.23 -11.17,0.93 -16.77,0.95 -2.65,0.01 -5.33,-0.24 -7.98,-0.4 -2.97,-0.18 -5.92,-0.37 -8.89,-0.61 -1.14,-0.09 -2.28,-0.19 -3.42,-0.32 -0.4,-0.04 -0.78,-0.1 -1.16,-0.15 -1.33,-0.16 -2.17,2.68 -2.41,3.57 -0.59,2.17 -0.85,3.62 1.56,4.23 3.73,0.92 7.86,1.33 11.7,1.72 2.87,0.29 5.77,0.37 8.65,0.25 4.32,-0.17 8.62,-0.51 12.95,-0.6 1.67,-0.03 3.27,-0.33 4.93,-0.49 1.21,-0.12 4.73,0.05 5.16,-1.45 0.16,-0.54 -0.01,-1.4 -0.01,-1.97 0.01,-0.88 -0.06,-1.81 -0.21,-2.67 -0.12,-0.65 -0.44,-1.77 -1.03,-1.95 -0.5,-0.15 -1.03,0.07 -1.55,0.03 -0.51,-0.05 -0.98,-0.17 -1.52,-0.14 z"
   id="path3"
   style="fill:#006ca2;fill-opacity:1;stroke-width:1.09603" />&#10;			<path
   clip-path="url(#SVGID_2_)"
   fill="#ffffff"
   d="m 67.35,74.06 c -1.52,3.9 -4.41,7.51 -6.85,10.4 -7.67,9.09 -16.97,17.26 -27.03,23.61 -0.95,0.6 -2.38,1.59 -3.47,1.8 -1.4,0.28 -2.85,-0.24 -4.25,-0.25 -1.37,0 -2.83,0.21 -4.16,-0.21 -0.46,-0.15 -0.7,-0.33 -1.19,-0.4 -0.62,-0.08 -1.25,-0.04 -1.88,-0.2 -1.1,-0.28 -1.35,-1.09 -0.17,-1.52 1.07,-0.39 1.9,-1.12 2.83,-1.74 0.85,-0.57 1.67,-1.11 2.48,-1.75 1.96,-1.56 3.93,-3.07 5.94,-4.58 4.79,-3.64 9.64,-7.22 14.15,-11.21 4.32,-3.82 8.5,-7.89 11.91,-12.56 1.11,-1.51 2.15,-3.08 3.02,-4.75 1.31,-2.48 2.66,-4.97 2.88,-7.78 0.05,-0.62 0.31,-0.85 0.79,-0.37 0.87,0.86 1.38,1.83 2.48,2.47 1.41,0.83 3.23,1.11 3.58,2.97 0.38,2 -0.35,4.23 -1.06,6.07 z"
   id="path4"
   style="fill:#006ca2;fill-opacity:1;stroke-width:1.09603" />&#10;		</g>&#10;		<g
   id="g6"
   style="stroke-width:1.09603">&#10;			<path
   fill="#006ca2"
   d="m 34.29,73.99 c 0.21,-0.32 0.4,-0.65 0.57,-0.99 1.84,-3.36 2.56,-10.31 -1.92,-11.95 -3.42,-1.25 -8.32,0.84 -11.28,2.67 -2.88,1.78 -5.63,4.42 -7.87,6.93 -4.08,4.58 -7.08,9.95 -9.4,15.6 -2.35,5.76 -3.31,12.12 -2.49,18.3 0.31,2.38 0.92,4.76 1.86,6.98 0.93,2.19 2.19,4.43 4.37,5.56 1.15,0.59 2.39,0.67 3.61,0.97 6.53,1.6 14.33,-7.61 9.05,-13.24 -0.96,-1.02 -2.1,-1.97 -2.65,-3.3 -0.26,-0.67 -0.2,-1.42 -0.18,-2.14 0.05,-1.71 0.72,-3.35 1.1,-5.03 0.54,-2.3 1.99,-4.12 3.08,-6.14 1.06,-1.99 2.38,-3.72 3.94,-5.35 2.78,-2.9 6.04,-5.46 8.21,-8.87 z"
   id="path5"
   style="fill:#ffffff;fill-opacity:1;stroke-width:1.09603" />&#10;			<path
   fill="#006ca2"
   d="m 78.45,23.12 c 0.1,0.42 0.15,0.87 0.15,1.3 -0.01,3.31 -2.95,4.68 -4.23,7.31 -0.24,0.54 -0.52,1.79 -0.44,2.38 0.1,0.89 1.44,1.99 2.07,2.57 0.82,0.77 1.85,1.86 1.49,3.13 -0.13,0.52 -0.51,0.77 -1,1.08 -1.13,0.74 -2.42,0.83 -3.7,0.99 -7.64,0.93 -15.61,-0.2 -23.32,-2.04 -5.19,-1.23 -10.34,-2.48 -15.5,-4.33 -4.1,-1.48 -9.4,-2.78 -8.4,-8.02 0.51,-2.47 0.29,-5.53 1.64,-7.69 1.62,-2.56 4.8,-3.58 7.62,-4.35 8.38,-2.28 16.75,-4.3 25.37,-3.3 3.75,0.44 7.76,1.26 10.98,3.3 1.14,0.73 2.27,1.25 3.3,2.1 1.68,1.38 3.48,3.34 3.97,5.57 z"
   id="path6"
   style="fill:#ffffff;fill-opacity:1;stroke-width:1.09603" />&#10;		</g>&#10;	</g>&#10;	<path
   fill="#78a3ad"
   d="m 112.55631,80.427169 c 1.71695,0.429395 3.00402,0.231758 4.50224,-0.659081 0.3939,-0.235015 1.49232,-1.461516 1.73764,-2.223029 1.85698,-5.745506 8.71933,-28.957736 8.57703,-30.621563 -0.12327,-1.536226 -0.78702,-2.945981 -2.51988,-4.157041 -2.42398,-1.687449 -19.52597,-6.754011 -20.07049,-6.951056 -1.9359,-0.724829 -3.94321,-1.171371 -5.706828,0.400601 -0.830055,0.745307 -1.485319,1.643369 -1.900504,2.699224 -0.785136,2.036365 -1.152349,4.241616 -1.746607,6.358402 -1.424812,5.082497 -2.575353,10.254473 -3.450628,15.46871 -0.574438,3.392768 -2.900862,10.182061 0.838164,12.399284 2.89517,1.744824 16.923823,6.592674 19.739863,7.285549 z"
   id="path7"
   style="fill:#ffffff;fill-opacity:1;stroke-width:1.09603"
   sodipodi:nodetypes="cccccccccccc" />&#10;</g>&#10;</svg>
