<?xml version="1.0" encoding="UTF-8" standalone="no"?>
<svg
   width="128"
   height="128"
   version="1.1"
   id="svg2"
   sodipodi:docname="emoji_u1f51e.svg"
   inkscape:version="1.3 (0e150ed6c4, 2023-07-21)"
   xmlns:inkscape="http://www.inkscape.org/namespaces/inkscape"
   xmlns:sodipodi="http://sodipodi.sourceforge.net/DTD/sodipodi-0.dtd"
   xmlns="http://www.w3.org/2000/svg"
   xmlns:svg="http://www.w3.org/2000/svg">
  <defs
     id="defs2" />
  <sodipodi:namedview
     id="namedview2"
     pagecolor="#ffffff"
     bordercolor="#000000"
     borderopacity="0.25"
     inkscape:showpageshadow="2"
     inkscape:pageopacity="0.0"
     inkscape:pagecheckerboard="0"
     inkscape:deskcolor="#d1d1d1"
     inkscape:zoom="2.867097"
     inkscape:cx="99.752466"
     inkscape:cy="74.465565"
     inkscape:window-width="1366"
     inkscape:window-height="697"
     inkscape:window-x="-8"
     inkscape:window-y="-8"
     inkscape:window-maximized="1"
     inkscape:current-layer="svg2" />
  <ellipse
     cx="63.59"
     cy="64.41"
     rx="61.69"
     ry="61.69"
     fill="#006ca2"
     id="ellipse1" />
  <text
     style="line-height:1.25;letter-spacing:0px"
     x="20.272017"
     y="95.391998"
     font-weight="400"
     font-size="40px"
     font-family="sans-serif"
     letter-spacing="0"
     word-spacing="0"
     fill="#ffffff"
     id="text1"><tspan
       x="20.272017"
       y="95.391998"
       style="-inkscape-font-specification:'Comic Neue Bold';letter-spacing:0px"
       font-weight="700"
       font-size="96px"
       font-family="'Comic Neue'"
       id="tspan1"
       dx="0">18</tspan></text>
  <path
     fill="#db4437"
     d="M111.37 102.59l-8.43 8.41-86.31-85.73 8.43-8.41z"
     id="path1" />
  <path
     d="M64 128C28.71 128 0 99.29 0 64S28.71 0 64 0s64 28.71 64 64-28.71 64-64 64zm0-117.11c-29.29 0-53.11 23.83-53.11 53.11 0 29.29 23.83 53.11 53.11 53.11S117.11 93.29 117.11 64 93.29 10.89 64 10.89z"
     fill="#db4437"
     id="path2" />
</svg>
