<?xml version="1.0" encoding="UTF-8" standalone="no"?>
<svg
   width="128"
   height="128"
   version="1.1"
   id="svg78452"
   sodipodi:docname="emoji_u1f962.svg"
   xml:space="preserve"
   inkscape:version="1.2.2 (732a01da63, 2022-12-09)"
   xmlns:inkscape="http://www.inkscape.org/namespaces/inkscape"
   xmlns:sodipodi="http://sodipodi.sourceforge.net/DTD/sodipodi-0.dtd"
   xmlns="http://www.w3.org/2000/svg"
   xmlns:svg="http://www.w3.org/2000/svg"><defs
     id="defs78456" /><sodipodi:namedview
     id="namedview78454"
     pagecolor="#ffffff"
     bordercolor="#000000"
     borderopacity="0.25"
     inkscape:showpageshadow="2"
     inkscape:pageopacity="0.0"
     inkscape:pagecheckerboard="0"
     inkscape:deskcolor="#d1d1d1"
     showgrid="false"
     inkscape:zoom="2.9996795"
     inkscape:cx="54.672507"
     inkscape:cy="83.342236"
     inkscape:window-width="1366"
     inkscape:window-height="697"
     inkscape:window-x="-8"
     inkscape:window-y="-8"
     inkscape:window-maximized="1"
     inkscape:current-layer="svg78452" /><linearGradient
     id="a"
     gradientTransform="matrix(.7407 .6719 -.564 .6218 47.287 -8.139)"
     gradientUnits="userSpaceOnUse"
     x1="53.173"
     x2="53.173"
     y1="142.93"
     y2="-11.069"><stop
       offset=".101"
       stop-color="#cc403d"
       id="stop78424" /></linearGradient><path
     d="M89.77 17.86L5.3 112.2c-.98 1.1-.69 2.95.64 4.16s3.21 1.31 4.21.24l85.9-93.05-6.28-5.69z"
     fill="url(#a)"
     id="path78427"
     style="fill:#d2302b;fill-opacity:1" /><linearGradient
     id="b"
     gradientTransform="matrix(.7407 .6719 -.564 .6218 47.287 -8.139)"
     gradientUnits="userSpaceOnUse"
     x1="53.194"
     x2="53.194"
     y1="-13.87"
     y2="-49.005"><stop
       offset=".289"
       stop-color="#212121"
       id="stop78431" /></linearGradient><path
     d="M108.11 10.53c1.38-1.5 1.05-4.04-.74-5.68-1.81-1.66-4.41-1.76-5.79-.23L84.73 23.64l5.88 5.82 17.5-18.93z"
     fill="url(#b)"
     id="path78434"
     style="fill:#212121;fill-opacity:1" /><linearGradient
     id="c"
     gradientTransform="matrix(.7015 .7127 -.5983 .5889 51.709 -9.074)"
     gradientUnits="userSpaceOnUse"
     x1="68.475"
     x2="68.475"
     y1="142.654"
     y2="-11.346"><stop
       offset=".101"
       stop-color="#cc403d"
       id="stop78438" /></linearGradient><path
     d="M103.55 30.03l-89.67 89.42c-1.04 1.04-.85 2.91.41 4.19s3.13 1.49 4.19.47l91.03-88.04-5.96-6.04z"
     fill="url(#c)"
     id="path78441"
     style="fill:#d2302b;fill-opacity:1" /><linearGradient
     id="d"
     gradientTransform="matrix(.7015 .7127 -.5983 .5889 51.709 -9.074)"
     gradientUnits="userSpaceOnUse"
     x1="68.495"
     x2="68.495"
     y1="-14.146"
     y2="-49.281"><stop
       offset=".289"
       stop-color="#212121"
       id="stop78445" /></linearGradient><path
     d="M122.28 23.75c1.47-1.42 1.28-3.98-.41-5.72-1.71-1.76-4.31-2.01-5.77-.55L98.19 35.51l5.55 6.15 18.54-17.91z"
     fill="url(#d)"
     id="path78448"
     style="fill:#212121;fill-opacity:1" /></svg>
