<?xml version="1.0" encoding="UTF-8" standalone="no"?>
<svg
   width="128"
   height="128"
   style="enable-background:new 0 0 128 128;"
   version="1.1"
   id="svg3"
   sodipodi:docname="emoji_u1f438.svg"
   inkscape:version="1.3 (0e150ed6c4, 2023-07-21)"
   xmlns:inkscape="http://www.inkscape.org/namespaces/inkscape"
   xmlns:sodipodi="http://sodipodi.sourceforge.net/DTD/sodipodi-0.dtd"
   xmlns="http://www.w3.org/2000/svg"
   xmlns:svg="http://www.w3.org/2000/svg">
  <defs
     id="defs3" />
  <sodipodi:namedview
     id="namedview3"
     pagecolor="#ffffff"
     bordercolor="#000000"
     borderopacity="0.25"
     inkscape:showpageshadow="2"
     inkscape:pageopacity="0.0"
     inkscape:pagecheckerboard="0"
     inkscape:deskcolor="#d1d1d1"
     inkscape:zoom="2.867097"
     inkscape:cx="43.074929"
     inkscape:cy="69.233792"
     inkscape:window-width="1366"
     inkscape:window-height="697"
     inkscape:window-x="-8"
     inkscape:window-y="-8"
     inkscape:window-maximized="1"
     inkscape:current-layer="svg3" />
  <path
     d="m 125.52,61.13 c -1.46,-4.33 -2.75,-8.61 -4.52,-12.88 -0.76,-1.85 -1.4,-3.19 -1.59,-5.16 -0.4,-4.17 1.57,-8.05 1.83,-12.24 0.32,-4.91 -0.22,-9.91 -2.05,-14.51 -0.97,-2.41 -2.58,-4.83 -4.6,-6.42 -8.41,-6.68 -22.38,-6.17 -30.7,0.39 -2.94,2.33 -7.649101,9.644229 -9.529538,12.406108 -1.000216,1.469061 -3.643388,2.464117 -10.355462,2.464117 -6.712074,0 -9.355246,-0.995056 -10.355462,-2.464117 C 51.769101,19.954229 47.06,12.64 44.12,10.31 35.8,3.75 21.82,3.24 13.41,9.92 11.4,11.51 9.79,13.93 8.83,16.34 6.99,20.94 6.45,25.94 6.76,30.85 7.04,35.04 9,38.92 8.6,43.09 8.41,45.06 7.77,46.4 7.01,48.25 5.23,52.52 3.95,56.81 2.49,61.13 -2.06,74.57 0.46,91.9 9.57,102.78 c 6.87,8.21 17.27,13.88 27.41,16.87 8.62,2.55 17.83,3.21 26.79,3.21 h 0.46 c 8.96,0 18.17,-0.66 26.79,-3.21 10.13,-3 20.54,-8.66 27.41,-16.87 9.11,-10.88 11.63,-28.21 7.09,-41.65 z"
     style="fill:#bdcf46"
     id="path1"
     sodipodi:nodetypes="cccccccszscccccccccssccc" />
  <path
     style="fill:#2f2f2f"
     d="m 97.689175,39.785745 c -4.157986,0 -7.549175,-4.066393 -7.549175,-9.068785 0,-5.012791 3.391189,-9.068785 7.549175,-9.068785 4.157985,0 7.549165,4.055994 7.549165,9.068785 0,5.002392 -3.39118,9.068785 -7.549165,9.068785 z"
     id="path6" />
  <path
     style="fill:#2f2f2f"
     d="m 22.201,30.71696 c 0,-5.012791 3.401989,-9.068785 7.538376,-9.068785 4.168786,0 7.549176,4.055994 7.549176,9.068785 0,5.002392 -3.39119,9.068785 -7.549176,9.068785 -4.136387,0 -7.538376,-4.066393 -7.538376,-9.068785 z"
     id="path5" />
  <path
     style="fill:#2f2f2f"
     d="m 48.537426,53.538314 c 2.493737,0.0448 4.763488,1.80684 4.061657,5.495182 -0.821291,4.405107 -8.287572,5.017342 -9.108864,0.477843 -0.716763,-3.927264 2.299615,-6.017824 5.047207,-5.973025 z"
     id="path4" />
  <path
     style="fill:#2f2f2f"
     d="m 78.992574,53.538314 c 2.747592,-0.05973 5.76397,2.045761 5.047207,5.973025 -0.821292,4.539499 -8.287573,3.927264 -9.108864,-0.477843 -0.686898,-3.688342 1.597784,-5.450384 4.061657,-5.495182 z"
     id="path2" />
  <path
     d="m 63.919221,100.61921 c -33.130223,0 -47.286427,-16.784667 -44.521899,-23.972561 2.766764,-7.193706 16.657161,5.294821 44.513457,5.294821 27.856296,0 41.701691,-12.49971 44.461901,-5.294821 2.76004,7.204465 -11.323236,23.972561 -44.453459,23.972561 z"
     style="fill:#ed6c30;stroke-width:1"
     id="path3"
     sodipodi:nodetypes="zszsz" />
</svg>
