<?xml version="1.0" encoding="UTF-8" standalone="no"?>
<svg
   version="1.1"
   viewBox="-30 -210 799.3822 799.3822"
   id="svg1"
   sodipodi:docname="emoji_u1f50c.svg"
   width="799.3822"
   height="799.3822"
   inkscape:version="1.3 (0e150ed6c4, 2023-07-21)"
   xmlns:inkscape="http://www.inkscape.org/namespaces/inkscape"
   xmlns:sodipodi="http://sodipodi.sourceforge.net/DTD/sodipodi-0.dtd"
   xmlns="http://www.w3.org/2000/svg"
   xmlns:svg="http://www.w3.org/2000/svg">
  <defs
     id="defs1">
    <linearGradient
       id="_Linear1"
       x1="0"
       y1="0"
       x2="1"
       y2="0"
       gradientUnits="userSpaceOnUse"
       gradientTransform="matrix(0,452.943,-452.943,0,-1902.4317,136.84196)">
      <stop
         offset="0"
         style="stop-color:rgb(111,161,58);stop-opacity:1"
         id="stop3" />
      <stop
         offset="1"
         style="stop-color:rgb(255,202,40);stop-opacity:1"
         id="stop5" />
    </linearGradient>
  </defs>
  <sodipodi:namedview
     id="namedview1"
     pagecolor="#ffffff"
     bordercolor="#000000"
     borderopacity="0.25"
     inkscape:showpageshadow="2"
     inkscape:pageopacity="0.0"
     inkscape:pagecheckerboard="0"
     inkscape:deskcolor="#d1d1d1"
     inkscape:zoom="0.46174377"
     inkscape:cx="441.80347"
     inkscape:cy="406.06936"
     inkscape:window-width="1366"
     inkscape:window-height="697"
     inkscape:window-x="-8"
     inkscape:window-y="-8"
     inkscape:window-maximized="1"
     inkscape:current-layer="svg1" />
  <path
     fill="currentColor"
     d="m 581.03559,405.83398 c 0,14.47994 2.50205,27.52254 7.50614,39.12779 5.0041,11.60524 10.59379,21.56019 16.76905,29.86487 6.17527,8.30467 11.97789,14.79935 17.40786,19.48403 5.42998,4.68469 8.57085,7.13351 9.42261,7.34644 8.9435,6.17527 13.41525,14.79936 13.41525,25.87225 0,4.2588 -0.905,8.30467 -2.71499,12.1376 -1.81,3.83293 -4.15234,7.18673 -7.02704,10.06143 -2.87469,2.87469 -6.2285,5.11056 -10.06142,6.70762 -3.83293,1.59705 -7.66586,2.39557 -11.49878,2.39557 -3.61999,0 -6.81408,-0.42588 -9.58231,-1.27764 -2.76822,-0.85176 -5.42997,-2.1294 -7.98526,-3.83292 -0.85176,-0.63882 -3.40705,-2.60852 -7.66585,-5.9091 -4.25882,-3.30058 -9.26291,-7.87879 -15.01229,-13.73464 -5.7494,-5.85586 -11.87143,-12.93612 -18.3661,-21.2408 -6.49469,-8.30467 -12.51025,-17.83375 -18.04669,-28.58724 -5.53645,-10.75348 -10.11467,-22.67814 -13.73465,-35.77396 -3.61998,-13.09582 -5.42998,-27.30959 -5.42998,-42.6413 0,-21.71991 2.34234,-42.26864 7.02703,-61.64621 2.34235,-9.79526 5.05733,-19.37757 8.14496,-28.74694 3.08764,-9.36936 6.65439,-18.84521 10.70026,-28.42752 4.04586,-9.58232 9.52907,-20.60198 16.44963,-33.05899 6.92056,-12.457 15.172,-26.45783 24.75431,-42.00247 9.58232,-15.3317 17.4611,-28.69371 23.63637,-40.08601 6.17527,-11.39231 10.96643,-20.81491 14.37347,-28.26782 13.62818,-30.23753 20.44227,-58.558586 20.44227,-84.963179 0,-21.93285 -4.95086,-38.914838 -14.85258,-50.945964 -9.90173,-12.0311269 -23.37021,-18.04669 -40.40543,-18.04669 -14.05406,0 -27.94841,4.3120407 -41.68306,12.9361228 -13.73465,8.6240822 -25.39312,20.3890332 -34.97544,35.2948532 -4.68468,7.239969 -8.83703,15.11876 -12.45701,23.636372 -3.61998,8.517611 -6.92056,17.674044 -9.90172,27.469297 -2.98117,10.008199 -5.37674,23.050788 -7.18673,39.127778 -1.81,16.07699 -3.24734,35.40132 -4.31204,57.97299 -4.04587,85.17612 -14.79935,151.18761 -32.26046,198.03447 -17.24816,46.63393 -41.04424,82.08849 -71.38824,106.36368 -30.34398,24.27519 -65.63883,36.41279 -105.88455,36.41279 -43.8657,0 -79.00084,-11.60525 -105.40544,-34.81574 -13.41525,-11.92466 -23.37021,-25.71254 -29.86488,-41.36365 -6.49469,-15.65111 -9.74203,-33.16545 -9.74203,-52.54302 0,-9.36937 0.79854,-19.00492 2.39559,-28.90664 1.59705,-9.90172 3.77969,-20.28256 6.54791,-31.14251 l 4.79116,-18.2064 c 2.55528,-9.36937 4.79116,-18.79198 6.70762,-28.26783 1.91645,-9.47585 3.40704,-19.32433 4.47174,-29.54546 l 62.28504,10.22113 c -2.55529,21.50696 -7.02704,44.07864 -13.41524,67.71501 -7.66584,19.16464 -11.49877,38.5422 -11.49877,58.1327 0,20.86816 6.97379,37.15809 20.92138,48.8698 13.94759,11.71172 34.65604,17.56758 62.12533,17.56758 35.34809,0 64.68061,-14.95906 87.99757,-44.87717 23.31697,-29.91811 39.55367,-74.90174 48.71009,-134.95091 2.34235,-14.05405 4.20558,-29.91811 5.58969,-47.59216 1.38411,-17.67404 2.71498,-37.47749 3.99263,-59.41034 1.06471,-19.37757 2.23587,-35.45455 3.51351,-48.23097 1.27764,-12.77642 2.44881,-22.4652 3.51351,-29.06635 2.55529,-13.415239 6.0688,-26.724009 10.54055,-39.926306 4.47175,-13.202298 10.64702,-27.362827 18.52581,-42.481588 14.05406,-27.4692976 33.64456,-49.508617 58.77152,-66.11796 25.76578,-16.822285 52.27685,-25.233427 79.5332,-25.233427 34.07045,0 62.07209,12.244068 84.00494,36.732203 21.71991,24.275193 32.57987,56.216236 32.57987,95.82313 0,25.552833 -4.20557,51.584788 -12.61672,78.095858 -8.41114,26.51105 -21.34726,53.71417 -38.80837,81.60935 -28.32105,45.35629 -47.69862,81.0238 -58.13269,107.00251 -10.43407,25.97871 -15.65111,52.59625 -15.65111,79.8526 z"
     id="path1"
     style="fill:#f79329;stroke-width:1"
     sodipodi:nodetypes="sssscsssssscsssssscssscscsssscscsccsscsssccscccsssscscscsccscsscss" />
  <path
     id="path2"
     style="fill:#6593a2;stroke-width:1"
     d="m 138.3125,-169.77148 c -5.07511,0.14942 -10.43209,1.10907 -14.48727,4.37255 -2.16419,1.83313 -3.96251,4.23806 -4.7264,6.99134 -2.77076,15.74422 -5.11246,31.61976 -7.60669,47.43453 -1.94157,12.474573 -3.75007,24.949595 -5.3266,37.468618 -0.91208,7.079561 -1.77717,14.260079 -2.50343,21.357958 -0.14652,1.648946 -0.32007,3.518839 -0.47698,5.252748 -0.21956,2.43895 -0.41856,4.879733 -0.62849,7.319517 20.1875,0.482422 40.375,0.964844 60.5625,1.447266 1.72205,-20.113814 3.33432,-40.254106 4.72046,-60.409957 0.73987,-10.58518 1.43639,-21.22711 1.83423,-31.85176 0.1345,-5.83894 0.52372,-11.90235 -0.29164,-17.7826 -0.77403,-5.57636 -2.87649,-11.25235 -7.16186,-15.08528 -4.5282,-3.99194 -10.59885,-5.6362 -16.48724,-6.22231 -2.46367,-0.26514 -4.94455,-0.31535 -7.42059,-0.29262 z m 147.26953,10.85937 c -5.31493,0.1514 -10.9173,1.09511 -15.23007,4.42358 -2.18547,1.76694 -4.0411,4.08748 -4.90978,6.77994 -1.94497,12.76246 -4.12111,25.55402 -5.9207,38.26914 -2.9076,20.826455 -5.30108,41.702824 -7.47987,62.634309 -0.53416,5.485417 -0.98313,11.016406 -1.33263,16.400844 -0.18691,0.751912 -0.0122,1.213929 0.83152,1.139688 19.80616,3.245755 39.61232,6.49151 59.41848,9.737265 1.55324,-22.801867 3.16105,-45.600676 4.47461,-68.417968 0.32108,-6.173174 0.64531,-12.465198 0.89733,-18.687478 0.17325,-4.21412 0.28777,-8.31621 0.38506,-12.54651 0.0976,-4.09856 0.1594,-8.20369 -0.0617,-12.29922 -0.0373,-0.55966 -0.10255,-1.45981 -0.17157,-2.14823 -0.0674,-0.72409 -0.14953,-1.47022 -0.23428,-2.06643 -0.73958,-5.55934 -2.36021,-11.20598 -5.86497,-15.68099 -2.30218,-2.84473 -5.62556,-4.65015 -9.08743,-5.68883 -5.06494,-1.60022 -10.43709,-1.886 -15.71402,-1.84911 z" />
  <path
     fill="currentColor"
     d="m 139.61036,258.74548 c -2.98116,-1.38411 -5.64291,-3.14088 -7.98526,-5.27028 -2.34234,-2.1294 -4.20557,-4.68468 -5.58968,-7.66584 -1.38411,-2.98116 -1.9697,-6.70762 -1.75676,-11.17936 l 1.27764,-21.71991 c 0.42588,-3.83293 0.10647,-6.97381 -0.95823,-9.42261 -1.06471,-2.44882 -2.44882,-4.20557 -4.15233,-5.27028 C 71.895349,175.21965 47.620155,118.3646 47.620155,27.652029 V 11.042686 c 0,-7.6658504 0.372646,-14.2137642 1.117937,-19.6437415 0.745291,-5.4299775 1.969698,-9.7420185 3.67322,-12.9361235 3.407045,-6.388209 9.262903,-11.605245 17.567574,-15.651111 8.304671,-4.045865 17.358973,-6.324901 27.149889,-7.027029 15.348965,-1.100708 28.805825,-1.994192 109.482625,5.270272 80.6768,7.264464 105.28086,12.174506 115.38232,15.491406 14.267,4.684686 23.21049,10.434074 26.83048,17.248164 2.1294,3.6199845 3.61998,8.5708467 4.47174,14.852585 0.85176,6.281738 1.27765,13.894353 1.27765,22.837846 0,40.032774 -8.51762,76.871446 -25.55284,110.516006 -17.24816,33.21869 -38.86161,55.04507 -64.84032,65.47915 l -4.47174,3.1941 c -6.17528,2.76822 -9.90173,10.22113 -11.17937,22.35873 -1.49058,14.267 -3.40704,22.99755 -5.74938,26.19166 -1.91646,2.76822 -5.48321,5.37674 -10.70026,7.82555 -5.21704,2.44881 -17.20728,9.16525 -50.83088,4.63066 -32.42533,-4.373 -38.65728,-11.55122 -41.63844,-12.93533 z"
     id="path3"
     style="fill:#fcc21b;stroke-width:1"
     sodipodi:nodetypes="sssccscsssssszscsscccccsss" />
</svg>
