<?xml version="1.0" encoding="UTF-8" standalone="no"?>
<svg
   width="100%"
   height="100%"
   viewBox="0 0 128 128"
   version="1.1"
   xml:space="preserve"
   style="fill-rule:evenodd;clip-rule:evenodd;stroke-linecap:round;stroke-linejoin:round;stroke-miterlimit:1.5;"
   id="svg6"
   sodipodi:docname="emoji_u1f9c9.svg"
   inkscape:version="1.3 (0e150ed6c4, 2023-07-21)"
   xmlns:inkscape="http://www.inkscape.org/namespaces/inkscape"
   xmlns:sodipodi="http://sodipodi.sourceforge.net/DTD/sodipodi-0.dtd"
   xmlns="http://www.w3.org/2000/svg"
   xmlns:svg="http://www.w3.org/2000/svg"><defs
   id="defs6">&#10;        &#10;    &#10;        &#10;    </defs><sodipodi:namedview
   id="namedview6"
   pagecolor="#ffffff"
   bordercolor="#000000"
   borderopacity="0.25"
   inkscape:showpageshadow="2"
   inkscape:pageopacity="0.0"
   inkscape:pagecheckerboard="0"
   inkscape:deskcolor="#d1d1d1"
   inkscape:zoom="2.867097"
   inkscape:cx="36.099232"
   inkscape:cy="69.233792"
   inkscape:window-width="1366"
   inkscape:window-height="697"
   inkscape:window-x="-8"
   inkscape:window-y="-8"
   inkscape:window-maximized="1"
   inkscape:current-layer="svg6" />&#10;    <g
   transform="matrix(-1.2186296,0,0,-1.2781958,139.82091,193.26646)"
   id="g1"
   style="fill:#855c52;stroke-width:0.980852">&#10;        <path
   d="m 99.379049,86.597398 c 0,-21.840248 -16.651536,-32.151316 -37.161027,-32.151316 -20.508531,0 -37.160067,10.311068 -37.160067,32.151316 0,6.946334 1.717208,34.168412 37.160547,34.168412 35.44334,0 37.160547,-27.222078 37.160547,-34.168412 z"
   style="fill:#855c52;stroke-width:0.980852"
   id="path1"
   sodipodi:nodetypes="ssszs" />&#10;    </g><path
   d="m 32.154606,66.704067 c -1.313574,0.498279 -5.376941,5.741869 -5.603466,13.701108 -0.23682,7.959238 1.812194,13.807683 3.274306,13.982724 1.935752,0.236821 2.063192,-4.939523 6.547743,-13.927005 2.491767,-4.993831 8.306501,-9.342571 7.597105,-10.692689 -0.709395,-1.350116 -4.061147,-1.183542 -6.55849,-1.810159 -2.492928,-0.617316 -4.412644,-1.56377 -5.257198,-1.253979 z"
   style="clip-rule:evenodd;fill:#bca9a4;fill-rule:nonzero;stroke-width:1;stroke-linejoin:round;stroke-miterlimit:2"
   id="path10"
   sodipodi:nodetypes="ccccscc" />&#10;    <g
   transform="matrix(1.0897685,0,0,1.4825959,-4.2276503,-1.6969288)"
   id="g2"
   style="stroke-width:0.949957">&#10;        <path
   id="ellipse1"
   style="fill:#afc7cf;stroke-width:0.949957"
   d="m 28.166025,31.488743 0.0018,2.558868 h 68.879307 v -2.558868 c 2.14e-4,-4.704365 -9.017887,-8.518016 -34.440007,-8.51818 -25.42212,-1.63e-4 -34.441314,3.813642 -34.4411,8.51818 z"
   sodipodi:nodetypes="cccczc" />&#10;    </g>&#10;    <g
   transform="matrix(1.0897685,0,0,2.2978101,-4.2288925,-49.43534)"
   id="g3"
   style="stroke-width:0.76306">&#10;        &#10;    </g>&#10;    <g
   transform="matrix(1.1200723,0,0,2.5906067,-7.6844153,-89.826608)"
   id="g4"
   style="stroke-width:0.949957">&#10;        &#10;    </g>&#10;    <g
   transform="matrix(0.7863448,0,0,1.2714535,14.768799,-6.8349288)"
   id="g5"
   style="stroke-width:1.05505">&#10;        <path
   id="ellipse4"
   style="fill:#757f3f;stroke-width:1.14892"
   d="m 97.048,40.20146 c -3e-6,2.542972 -10.096689,4.60446 -34.439998,4.60446 -24.343309,0 -34.439996,-2.061487 -34.439999,-4.60446 -10e-7,-2.542974 8.987808,-4.604461 34.439999,-4.604461 25.452191,0 34.439999,2.061487 34.439998,4.604461 z"
   sodipodi:nodetypes="szszs" />&#10;    </g>&#10;    &#10;<g
   transform="matrix(1.459104,0,0,1.459104,-36.831956,-25.195731)"
   id="g6"
   style="stroke-width:0.838981">&#10;        <path
   style="color:#000000;clip-rule:nonzero;fill:#9e9e9e;fill-rule:nonzero;stroke-width:0.838981;stroke-linecap:butt;stroke-linejoin:miter;-inkscape-stroke:none"
   d="M 95.738281,20.839849 84.051139,31.54117 c -0.149398,0.15627 -0.277462,0.33162 -0.38086,0.521485 L 71.113281,57.240239 c -0.647226,1.188705 0.144317,2.072619 1.333037,2.719817 1.188705,0.647226 2.324453,0.812653 2.971651,-0.376067 L 88.574219,35.421875 99.279297,24.226562 c 0.935723,-0.977835 0.260559,-1.74555 -0.717524,-2.681036 -0.978083,-0.935486 -1.888271,-1.68403 -2.823492,-0.705677 z"
   id="path5"
   sodipodi:nodetypes="ccccccccsc" />&#10;    </g><path
   id="path7"
   style="fill:#afc7cf;stroke-width:1.20749"
   d="m 26.466797,44.988152 0.002,7.437108 c -2.31e-4,7.871153 16.803153,12.508172 37.53125,12.508249 20.728098,-7.7e-5 37.531483,-4.637096 37.531253,-12.508249 V 44.988152 H 90.943359 C 89.836166,47.887241 81.722185,50.134637 64,50.134637 c -17.722186,0 -25.836166,-2.247395 -26.943359,-5.146485 z"
   sodipodi:nodetypes="ccccccscc" /><path
   style="fill:#fcc21b;stroke:none;stroke-width:6;stroke-linecap:round;stroke-linejoin:miter;stroke-dasharray:none"
   d="m 92.655573,18.59895 c -6.562097,-4.763793 -7.989847,-1.84004 -9.695642,0.851574 -1.705795,2.691616 1.380079,4.26745 4.667693,6.654111 3.287616,2.386663 6.469582,4.707179 9.021787,0.679994 2.552202,-4.027184 -0.523311,-5.666231 -3.993838,-8.185679 z"
   id="path8" /></svg>
