<?xml version="1.0" encoding="UTF-8" standalone="no"?>
<svg
   width="128"
   height="128"
   version="1.1"
   id="svg5"
   sodipodi:docname="emoji_u1f60b.svg"
   xml:space="preserve"
   inkscape:version="1.3 (0e150ed6c4, 2023-07-21)"
   xmlns:inkscape="http://www.inkscape.org/namespaces/inkscape"
   xmlns:sodipodi="http://sodipodi.sourceforge.net/DTD/sodipodi-0.dtd"
   xmlns="http://www.w3.org/2000/svg"
   xmlns:svg="http://www.w3.org/2000/svg"><defs
     id="defs5" /><sodipodi:namedview
     id="namedview5"
     pagecolor="#ffffff"
     bordercolor="#000000"
     borderopacity="0.25"
     inkscape:showpageshadow="2"
     inkscape:pageopacity="0.0"
     inkscape:pagecheckerboard="0"
     inkscape:deskcolor="#d1d1d1"
     inkscape:zoom="1.4200319"
     inkscape:cx="-0.70420951"
     inkscape:cy="43.66099"
     inkscape:current-layer="g6" /><g
     id="g6"
     transform="translate(-0.00498676,-0.00342312)">&#10;	<g
   id="g4">&#10;		<g
   id="g3">&#10;			<g
   id="g2">&#10;				<g
   id="g1">&#10;					<path
   fill="#fcc21b"
   d="M 16.32,33.04 C 35.43,4.43 67.33,-8.62 101.15,8.58 c 22.64,11.52 30.5,38.85 20.67,70.98 -4.05,13.25 6.08,15.5 5.43,22.53 -1.29,13.77 -28.23,25.05 -63.06,25.05 C 29.36,127.14 2.05,115.89 1.12,102.09 -0.76,74.3 4.13,51.32 16.32,33.04"
   id="path1" />&#10;				</g>&#10;			</g>&#10;		</g>&#10;		<path
   fill="#2f2f2f"
   d="m 53.58,31.2 c -3.16,4.31 -8.61,5.67 -12.17,3.08 -3.55,-2.62 -3.89,-8.22 -0.73,-12.51 3.16,-4.32 8.6,-5.67 12.15,-3.05 3.55,2.58 3.89,8.2 0.75,12.48"
   id="path3" />&#10;		<path
   fill="#2f2f2f"
   d="M 91.83,44.07 C 91.4,44.05 90.98,43.94 90.58,43.72 83.1,39.6 74.77,37.65 74.68,37.63 c -1.23,-0.27 -2.13,-1.35 -2.21,-2.62 -0.08,-1.27 0.68,-2.44 1.87,-2.87 8.67,-3.18 18.85,-4.12 19.28,-4.16 1.62,-0.14 2.97,1.02 3.11,2.59 0.15,1.58 -1.02,2.97 -2.6,3.13 -0.06,0 -3.89,0.35 -8.7,1.32 2.5,0.96 5.24,2.19 7.91,3.66 1.39,0.77 1.9,2.52 1.13,3.9 -0.54,0.99 -1.58,1.54 -2.64,1.49 z"
   id="path4" />&#10;	</g>&#10;	<path
   fill="#d7598b"
   d="m 78.501881,62.273772 c -0.81,0.12 -1.6,0.27 -2.34,0.41 -1.99,0.39 -2.633148,0.08478 -2.533148,-1.985217 0.06,-1.32 -0.172756,-2.943156 -0.02276,-4.253156 0.58312,-2.864868 -0.08029,-3.869033 2.631082,-9.978172 2.281182,-3.80403 6.830277,-4.722686 10.200277,-1.692686 1.66,1.49 4.621036,7.139669 5.422664,8.915459 0.17,1.31 0.361881,3.563772 -0.798119,4.093772 -0.89,0.4 -1.78,0.4 -2.76,0.97 -0.79,0.47 -1.6,0.93 -2.38,1.44 -2.21,1.44 -4.85,1.65 -7.42,2.08"
   id="path5"
   sodipodi:nodetypes="ccccccccccc" />&#10;	<path
   fill="#2f2f2f"
   d="M 57.03,67.79 C 44.41,66.28 35.45,61.44 34.79,61.08 c -1.6,-0.89 -2.18,-2.9 -1.3,-4.5 0.89,-1.61 2.93,-2.18 4.51,-1.31 0.17,0.09 10.2,5.49 23.7,6.17 7.42,0.38 15.89,-0.68 24.33,-4.82 0.83,-0.41 5.83,-2.93 5.83,-2.93 0,0 0.84,0.96 0.8,2.68 -0.01,0.69 -0.15,1.95 -0.93,3.18 -1.62,2.55 -5.12,4.09 -5.26,4.14 -10.82,4.78 -20.47,5.17 -29.44,4.1 z"
   id="path6" />&#10;</g></svg>
