<?xml version="1.0" encoding="UTF-8" standalone="no"?>
<!-- Generator: Adobe Illustrator 25.2.3, SVG Export Plug-In . SVG Version: 6.00 Build 0)  -->

<svg
   version="1.1"
   id="Layer_4"
   x="0px"
   y="0px"
   viewBox="0 0 128 128"
   style="enable-background:new 0 0 128 128;"
   xml:space="preserve"
   sodipodi:docname="emoji_u1f6f9.svg"
   inkscape:version="1.3 (0e150ed6c4, 2023-07-21)"
   xmlns:inkscape="http://www.inkscape.org/namespaces/inkscape"
   xmlns:sodipodi="http://sodipodi.sourceforge.net/DTD/sodipodi-0.dtd"
   xmlns="http://www.w3.org/2000/svg"
   xmlns:svg="http://www.w3.org/2000/svg"><defs
   id="defs31045">&#10;	&#10;	&#10;	&#10;	&#10;	&#10;		&#10;	&#10;	&#10;	&#10;		&#10;	&#10;	&#10;	&#10;		&#10;	&#10;	&#10;	&#10;	&#10;		&#10;	&#10;		&#10;	&#10;		&#10;	&#10;		&#10;	&#10;		&#10;	&#10;		&#10;	&#10;		&#10;	&#10;		&#10;</defs><sodipodi:namedview
   id="namedview31043"
   pagecolor="#ffffff"
   bordercolor="#000000"
   borderopacity="0.25"
   inkscape:showpageshadow="2"
   inkscape:pageopacity="0.0"
   inkscape:pagecheckerboard="0"
   inkscape:deskcolor="#d1d1d1"
   showgrid="false"
   inkscape:zoom="4.2421875"
   inkscape:cx="63.05709"
   inkscape:cy="102.89503"
   inkscape:window-width="1366"
   inkscape:window-height="697"
   inkscape:window-x="-8"
   inkscape:window-y="-8"
   inkscape:window-maximized="1"
   inkscape:current-layer="Layer_4" />&#10;&#10;<g
   id="g1"><path
     style="fill:#2f2f2f;fill-opacity:1;stroke-width:1"
     d="m 21.837733,53.522774 c 5.530668,-3.611319 11.455223,-2.721616 14.782752,0.774976 5.095708,5.343486 5.126383,7.963239 5.126383,7.963239 -2.757276,1.80246 -19.973916,12.473398 -19.973916,12.473398 0,0 -3.579326,-3.872749 -5.181343,-7.372127 -1.997296,-4.378641 -0.284556,-10.228169 5.246124,-13.839486 z"
     id="path13" /><ellipse
     transform="rotate(-33.141368)"
     style="fill:#616161;fill-opacity:1;stroke-width:0.999964"
     cx="-10.805236"
     cy="73.205368"
     rx="11.962585"
     ry="8.735755"
     id="ellipse13" /><path
     style="fill:#2f2f2f;fill-opacity:1;stroke-width:1"
     d="m 82.176394,50.239534 c 5.132176,-4.158208 11.116653,-3.879307 14.784457,-0.741498 5.615669,4.794108 5.914199,7.396974 5.914199,7.396974 -2.5584,2.075099 -18.592966,14.451461 -18.592966,14.451461 0,0 -3.956758,-3.486231 -5.908391,-6.803346 -2.434781,-4.151323 -1.329485,-10.145385 3.802701,-14.303591 z"
     id="path14" /><ellipse
     transform="rotate(-39.013517)"
     style="fill:#616161;fill-opacity:1;stroke-width:0.999964"
     cx="32.395603"
     cy="107.21696"
     rx="11.962585"
     ry="8.735755"
     id="ellipse14" /><path
     fill="#ed6c30"
     d="m 27.576753,94.361392 c 2.674951,0.759485 5.18452,1.210874 7.258531,1.290514 9.184515,0.38802 17.562932,-1.476668 26.451243,-3.444668 l 1.343314,-0.297564 c 5.810529,-1.275017 11.632245,-2.455459 17.453962,-3.6359 6.953713,-1.407436 14.153325,-2.875621 21.219927,-4.486031 0.68319,-0.145509 1.41094,-0.304477 2.17828,-0.465264 6.68817,-1.391428 16.78075,-3.513673 20.121,-11.75743 3.62347,-9.025103 -3.87009,-16.675825 -10.34065,-19.231113 -7.39261,-2.908482 -16.973729,0.01183 -25.31531,2.605113 -4.003257,1.252809 -7.778676,2.42668 -10.939581,2.861035 -4.347106,0.606788 -8.921369,1.109909 -13.970253,1.543558 l -2.228364,0.189903 c -5.692149,0.486037 -11.587189,0.99281 -17.188481,0.995419 -1.394943,-0.0044 -3.898318,-0.349521 -6.550034,-0.710699 -2.514901,-0.348441 -5.36107,-0.73872 -8.255594,-0.986044 l -0.512659,-0.0411 C 22.448838,58.265206 11.569756,57.304652 6.6044944,65.779046 4.3059895,69.722513 3.7941121,73.872934 5.1612563,77.773435 8.0994921,86.154624 19.079162,91.948713 27.576753,94.361388 Z"
     id="path15"
     style="fill:#ffcc80;stroke-width:1" /><path
     fill="#ed6c30"
     d="m 27.930076,90.98496 c 2.674951,0.759485 5.18452,1.210874 7.258531,1.290514 9.184515,0.38802 17.562932,-1.476668 26.451243,-3.444668 l 1.343314,-0.297564 c 5.810529,-1.275017 11.632245,-2.455459 17.453962,-3.6359 6.953714,-1.407436 14.153325,-2.875622 21.219924,-4.486031 0.68319,-0.145509 1.41094,-0.304477 2.17828,-0.465264 6.68817,-1.391428 16.78075,-3.513673 20.121,-11.75743 3.62347,-9.025103 -3.87009,-16.675825 -10.34064,-19.231113 -7.39262,-2.908482 -16.973736,0.01183 -25.315317,2.605113 -4.003257,1.252809 -7.778676,2.42668 -10.939581,2.861035 -4.347106,0.606788 -8.921369,1.109908 -13.970252,1.543558 l -2.228365,0.189903 c -5.692148,0.486037 -11.587189,0.99281 -17.188481,0.995419 -1.394943,-0.0044 -3.898318,-0.349521 -6.550034,-0.710699 -2.514901,-0.348441 -5.36107,-0.73872 -8.255594,-0.986044 l -0.512659,-0.0411 C 22.802161,54.888774 11.923079,53.92822 6.9578174,62.402614 4.6593126,66.346081 4.1474351,70.496502 5.5145794,74.397003 8.4528152,82.778192 19.432485,88.572281 27.930076,90.984956 Z"
     id="path3-4"
     style="fill:#196ca2;stroke-width:1" /><path
     id="rect15"
     style="fill:#ffffff;fill-opacity:1;stroke:none;stroke-width:16;stroke-linecap:round"
     d="m 96.475044,49.219306 c -2.77587,0.690617 -5.538602,1.524737 -8.17506,2.344375 -3.34336,1.046295 -6.503436,2.009812 -9.30372,2.561191 l 6.908697,29.651671 c 5.2301,-1.070635 10.513214,-2.17217 15.751479,-3.365919 0.62205,-0.132489 1.29156,-0.27528 1.98375,-0.421297 z m -46.757253,7.764357 c -1.933658,0.09516 -3.859195,0.168968 -5.745211,0.169845 -1.394942,-0.0044 -3.897568,-0.350675 -6.549285,-0.711842 -2.039842,-0.282616 -4.317536,-0.574073 -6.642288,-0.813137 l 8.541386,36.660745 c 6.146178,-0.169405 12.025161,-1.246373 18.025628,-2.53279 z" /><path
     style="fill:#2f2f2f;fill-opacity:1;stroke-width:1"
     d="m 31.689739,80.188806 c 5.374612,-3.839719 11.331215,-3.198856 14.802227,0.155348 5.314979,5.125445 5.455307,7.741615 5.455307,7.741615 -2.679386,1.916328 -19.434145,13.298761 -19.434145,13.298761 0,0 -3.738335,-3.719487 -5.485469,-7.148721 -2.178867,-4.291175 -0.712544,-10.207284 4.66208,-14.047003 z"
     id="path31000" /><ellipse
     transform="rotate(-35.541022)"
     style="fill:#616161;fill-opacity:1;stroke-width:0.999964"
     cx="-20.65593"
     cy="100.12101"
     rx="11.962585"
     ry="8.735755"
     id="ellipse31004" /><path
     style="fill:#2f2f2f;fill-opacity:1;stroke-width:1"
     d="m 91.804872,72.715052 c 5.169498,-4.111715 11.151208,-3.778811 14.790548,-0.608024 5.57217,4.844601 5.84719,7.450057 5.84719,7.450057 -2.57702,2.051921 -18.722647,14.283049 -18.722647,14.283049 0,0 -3.92513,-3.521802 -5.846742,-6.856398 -2.397213,-4.173131 -1.237859,-10.156971 3.931651,-14.268684 z"
     id="path11" /><ellipse
     transform="rotate(-38.496355)"
     style="fill:#616161;fill-opacity:1;stroke-width:0.999964"
     cx="26.759066"
     cy="130.5062"
     rx="11.962585"
     ry="8.735755"
     id="ellipse11" /></g></svg>
