<?xml version="1.0" encoding="UTF-8" standalone="no"?>
<!-- Generator: Adobe Illustrator 25.2.3, SVG Export Plug-In . SVG Version: 6.00 Build 0)  -->

<svg
   version="1.1"
   id="Layer_2"
   x="0px"
   y="0px"
   viewBox="0 0 128 128"
   style="enable-background:new 0 0 128 128;"
   xml:space="preserve"
   sodipodi:docname="emoji_u1f965.svg"
   inkscape:version="1.2.2 (732a01da63, 2022-12-09)"
   xmlns:inkscape="http://www.inkscape.org/namespaces/inkscape"
   xmlns:sodipodi="http://sodipodi.sourceforge.net/DTD/sodipodi-0.dtd"
   xmlns="http://www.w3.org/2000/svg"
   xmlns:svg="http://www.w3.org/2000/svg"><defs
   id="defs94342" /><sodipodi:namedview
   id="namedview94340"
   pagecolor="#ffffff"
   bordercolor="#000000"
   borderopacity="0.25"
   inkscape:showpageshadow="2"
   inkscape:pageopacity="0.0"
   inkscape:pagecheckerboard="0"
   inkscape:deskcolor="#d1d1d1"
   showgrid="false"
   inkscape:zoom="2.9996795"
   inkscape:cx="60.00641"
   inkscape:cy="63.00673"
   inkscape:window-width="1366"
   inkscape:window-height="697"
   inkscape:window-x="-8"
   inkscape:window-y="-8"
   inkscape:window-maximized="1"
   inkscape:current-layer="Layer_2" />
<path
   style="fill:#855c52;fill-opacity:1"
   d="m 104.43968,34.93968 8.01,-0.82 c 0,0 21.89077,49.998045 -15.32207,74.81503 C 59.91477,133.75169 24.34968,97.86968 24.34968,97.86968 l 7.37,-21.17 z"
   id="path94305"
   sodipodi:nodetypes="cczccc" />





<path
   style="fill:#5d4037;fill-opacity:1"
   d="m 11.29968,65.79968 c 0,1.97 -3.2800005,6.94 -3.1900005,8.25 0.09,1.31 3.1900005,6.56 4.1200005,8.06 0.94,1.5 1.69,5.06 1.69,5.06 0,0 3.09,4.41 5.44,6.56 2.34,2.16 4.97,4.12 4.97,4.12 0,0 3.47,-0.37 8.06,0.37 4.59,0.75 3.02,1.69 9.68,2.07 6.66,0.38 8.12,-0.66 16.08,-1.79 7.96,-1.13 16.91,-2.61 16.91,-2.61 0,0 12.25,-6.88 22.68,-17.32 6.18,-6.18 11.47,-17.95 13.06,-20.48 1.59,-2.53 2.52,-6.49 2.61,-7.42 0.09,-0.94 -1.65,-7.86 -1.65,-10.86 0,-3 0.82,-4.55 0.68,-5.7 -0.14,-1.22 -6.27,-10.12 -8.91,-13.03 -2.62,-2.89 -9.56,-9.09 -11.16,-8.44 -1.59,0.66 -1.59,0.66 -1.59,0.66 0,0 -7.03,-2.91 -12.75,-2.91 -5.72,0 -7.97,1.02 -11.34,1.12 -3,0.09 -2.25,-0.94 -4.5,-0.84 -1.87,0.08 -8.15,3.44 -12.15,5.49 -3.54,1.82 -10.91,4.54 -13.63,6.88 -2.72,2.34 -8.62,7.78 -9.19,8.72 -0.56,0.94 -1.03,2.91 -1.03,2.91 0,0 -5.53,-0.84 -6.66,0.19 -1.12,1.03 -3.66,11.16 -5.16,14.34 -1.5,3.18 -5.8100005,12.65 -5.1600005,13.4 0.68,0.76 2.0900005,3.2 2.0900005,3.2 z"
   id="path94317" />
<path
   style="fill:#e0e0e0;fill-opacity:1"
   d="m 25.12968,86.11968 c 0,0 -2.99,-3.54 -4.73,-7.53 -2.07,-4.72 -2.8,-12.1 -1.92,-16.97 0.92,-5.05 1.28,-7.62 3.84,-13.72 1.98,-4.72 4.72,-8.26 8.26,-11.51 1.29,-1.18 3.12,-1 6.9,-4.62 3.78,-3.62 11.3,-10.8 23.49,-12.94 12.19,-2.14 16.15,-1.02 21.6,-0.18 3.86,0.59 5.61,3.07 8.25,4.05 2.63,0.99 5.03,1.4 7.92,3.8 2.04,1.69 3.73,3.86 4.23,6.33 0.49,2.47 -0.59,3.81 -0.68,4.65 -0.14,1.41 3.09,2.44 2.54,9.92 -0.49,6.75 -4.61,21.9 -24.37,35.24 -19.76,13.34 -43.63,9.39 -43.63,9.39 0,0 -0.78,-3.53 -4.1,-5.55 -4.32,-2.6 -7.6,-0.36 -7.6,-0.36 z"
   id="path94319" />



<path
   style="fill:#8b8b8b;fill-opacity:1;stroke-width:0.999998"
   d="M 46.912244,34.658929 C 30.291748,45.234219 25.311563,62.876505 31.206273,72.675535 37.100982,82.474565 63.403514,79.510661 75.640255,70.54838 88.930688,60.819919 95.580865,49.135685 92.797538,38.893077 91.276643,33.297952 86.008184,30.596163 80.42163,28.771446 71.365845,25.827705 58.045591,27.581852 46.912244,34.658929 Z"
   id="path94327" />





</svg>
