<?xml version="1.0" encoding="UTF-8" standalone="no"?>
<svg
   width="128"
   height="128"
   version="1.1"
   id="svg41212"
   sodipodi:docname="emoji_u1f960.svg"
   inkscape:version="1.2.2 (732a01da63, 2022-12-09)"
   xmlns:inkscape="http://www.inkscape.org/namespaces/inkscape"
   xmlns:sodipodi="http://sodipodi.sourceforge.net/DTD/sodipodi-0.dtd"
   xmlns="http://www.w3.org/2000/svg"
   xmlns:svg="http://www.w3.org/2000/svg">
  <defs
     id="defs41216" />
  <sodipodi:namedview
     id="namedview41214"
     pagecolor="#ffffff"
     bordercolor="#000000"
     borderopacity="0.25"
     inkscape:showpageshadow="2"
     inkscape:pageopacity="0.0"
     inkscape:pagecheckerboard="0"
     inkscape:deskcolor="#d1d1d1"
     showgrid="false"
     inkscape:zoom="2.8284271"
     inkscape:cx="76.367532"
     inkscape:cy="76.367532"
     inkscape:window-width="1366"
     inkscape:window-height="697"
     inkscape:window-x="-8"
     inkscape:window-y="-8"
     inkscape:window-maximized="1"
     inkscape:current-layer="svg41212" />
  <path
     d="m 124.47291,18.487439 c -1.42505,1.222837 -4.34581,2.966295 -5.97907,4.30934 -1.63067,1.333386 -3.15181,2.644357 -4.58014,3.918078 -1.42833,1.273722 -2.7787,2.526923 -4.05109,3.759605 -1.2724,1.232682 -2.48615,2.439668 -3.63418,3.633205 -1.14803,1.193537 -2.25224,2.378109 -3.31523,3.563374 -1.06299,1.185265 -2.08217,2.361564 -3.062711,3.548216 -0.99019,1.184064 -1.94175,2.37848 -2.87659,3.587732 -0.93483,1.209253 -1.85552,2.443 -2.74982,3.694171 -0.894295,1.25117 -1.779628,2.546155 -2.65082,3.865634 -0.87378,1.329138 -1.726346,2.695019 -2.572535,4.114373 -0.846189,1.419353 -1.673753,2.885108 -2.500115,4.423655 -0.823775,1.528887 -1.624442,3.126082 -2.414248,4.798657 -2.227957,-1.228498 -4.201677,-2.285346 -6.055698,-3.248003 -1.85402,-0.962658 -3.576092,-1.838196 -5.320071,-2.709252 a 293.82,293.82 0 0 0 -11.8555,-5.557806 c 0.804642,-1.689305 1.620144,-3.303231 2.451683,-4.861096 0.831539,-1.557865 1.666868,-3.052598 2.511162,-4.503517 0.844294,-1.450919 1.704625,-2.845778 2.566851,-4.209071 0.862226,-1.363292 1.743076,-2.680183 2.625822,-3.965508 0.882745,-1.285326 1.789292,-2.543567 2.70291,-3.789562 0.913618,-1.245995 1.848449,-2.455247 2.805187,-3.668982 0.954149,-1.204076 1.937277,-2.400387 2.942311,-3.601181 1.005034,-1.200794 2.048705,-2.391235 3.133601,-3.580983 1.077826,-1.201995 2.196876,-2.403297 3.371988,-3.620636 a 159.9,159.9 0 0 1 7.765312,-7.537005 c 1.4361,-1.3026995 2.95275,-2.6355775 4.56928,-3.9934582 1.61653,-1.3578806 3.325861,-2.7530113 5.159561,-4.1872866 2.14255,1.5472533 3.98256,2.9099156 5.67838,4.1925297 a 287.146,287.146 0 0 1 9.37199,7.4080741 c 1.60302,1.319865 3.6328,2.360675 5.96178,4.216703 z"
     fill="#e1e1e1"
     id="path41200" />
  <text
     style="line-height:25px;-inkscape-font-specification:'Comic Neue';fill:#2e2e2e;fill-opacity:1"
     x="-6.4543395"
     y="90.410904"
     transform="rotate(-46.307)"
     font-size="40px"
     font-family="'Comic Neue'"
     letter-spacing="0"
     word-spacing="0"
     fill="none"
     stroke="#000000"
     id="text41204"><tspan
       x="-6.4543395"
       y="90.410904"
       style="font-style:normal;font-variant:normal;font-weight:bold;font-stretch:normal;line-height:24px;font-family:'Comic Neue';-inkscape-font-specification:'Comic Neue Bold';fill:#2e2e2e;fill-opacity:1"
       font-weight="400"
       font-size="6.667px"
       fill="#51004e"
       stroke="none"
       id="tspan41202">The Blob is here to stay!</tspan></text>
  <path
     id="path39696"
     style="fill:#000000;fill-opacity:0.3;stroke-width:6;stroke-linecap:round"
     d="m 88.326674,21.489555 c -1.653603,-0.469853 -3.132935,-0.752659 -4.41036,-0.926977 -0.445846,0.48225 -0.88983,0.96411 -1.321498,1.445507 -1.084895,1.189747 -2.12807,2.379839 -3.133102,3.580631 -1.005034,1.200794 -1.988375,2.397293 -2.942524,3.601368 -0.481448,0.610775 -0.957581,1.221764 -1.428023,1.835522 l 16.965079,20.622891 c 0.715574,-1.069712 1.437516,-2.125942 2.167863,-3.147736 0.8943,-1.251169 1.81405,-2.484442 2.74888,-3.693693 0.93483,-1.20925 1.88814,-2.404171 2.87834,-3.588234 0.980541,-1.186651 1.998501,-2.361985 3.061491,-3.547249 1.06298,-1.185267 2.16672,-2.370777 3.31475,-3.564312 0.003,-0.0033 0.008,-0.0059 0.0108,-0.0093 -1.32595,-2.392915 -4.04859,-5.861694 -9.568121,-9.0484 -3.02033,-1.743787 -5.863435,-2.855374 -8.343361,-3.560022 z" />
  <path
     id="path39006"
     style="clip-rule:evenodd;fill:#875800;fill-opacity:1;fill-rule:nonzero;stroke-width:1;stroke-linecap:round;stroke-linejoin:round;stroke-miterlimit:1.5"
     d="m 56.994141,18.257812 c -10.018525,0.256257 -20.21829,1.868335 -29.251953,6.392579 -5.621542,2.815384 -10.705722,7.275301 -13.111329,13.208984 -1.971842,4.863756 -2.208974,10.707538 0.458985,15.353516 2.218181,3.862736 6.178891,6.225471 10.019531,8.240234 4.500998,2.36118 12.167969,4.808323 12.167969,8.013672 0,3.229525 -9.193332,5.168282 -15.6875,7.925781 -3.942863,1.674185 -7.695743,4.364991 -9.597656,8.320313 -2.4007843,4.992801 -1.811049,10.988615 0.511718,15.894529 2.743628,5.79482 7.894052,10.08036 13.472656,13.0293 7.146614,3.77782 15.143709,5.67792 23.134766,6.55469 6.887429,0.75568 13.895954,0.73764 20.744141,-0.375 9.545541,-1.55088 18.814302,-5.70316 25.751953,-12.54493 6.869398,-6.77446 11.298938,-15.785272 13.105468,-25.220699 2.15648,-11.263216 1.19441,-23.136948 -2.91797,-33.839843 C 102.13526,39.686293 95.569793,31.17049 86.853516,25.744141 78.827276,20.747377 69.357577,18.377404 59.953125,18.263672 c -0.985973,-0.01192 -1.973291,-0.03107 -2.958984,-0.0059 z"
     sodipodi:nodetypes="ssssssssssssssssss" />
  <path
     id="path36723"
     style="clip-rule:evenodd;fill:#e39300;fill-opacity:1;fill-rule:nonzero;stroke-width:1;stroke-linecap:round;stroke-linejoin:round;stroke-miterlimit:1.5"
     d="m 58.750379,27.072786 c -17.865693,0 -36.805161,5.937146 -36.805161,18.524938 0,5.678287 4.9958,6.3868 17.383012,13.53856 12.828376,7.406468 18.835437,9.26734 18.835437,12.696267 0,3.428928 -9.50522,5.503048 -22.898669,9.967529 -11.91537,3.971789 -15.97711,5.425456 -15.97711,10.885747 0,11.639993 17.23699,20.189693 39.462491,20.189693 30.462015,0 42.252421,-20.562686 42.252421,-41.518697 0,-20.956007 -11.897387,-44.284037 -42.252421,-44.284037 z"
     sodipodi:nodetypes="ssszsssss" />
</svg>
