<?xml version="1.0" encoding="UTF-8" standalone="no"?>
<!-- Generator: Adobe Illustrator 24.1.2, SVG Export Plug-In . SVG Version: 6.00 Build 0)  -->

<svg
   version="1.1"
   id="Layer_4"
   x="0px"
   y="0px"
   viewBox="0 0 128 128"
   style="enable-background:new 0 0 128 128;"
   xml:space="preserve"
   sodipodi:docname="emoji_u1f9be.svg"
   inkscape:version="1.2.2 (732a01da63, 2022-12-09)"
   xmlns:inkscape="http://www.inkscape.org/namespaces/inkscape"
   xmlns:sodipodi="http://sodipodi.sourceforge.net/DTD/sodipodi-0.dtd"
   xmlns="http://www.w3.org/2000/svg"
   xmlns:svg="http://www.w3.org/2000/svg"><defs
   id="defs27280" /><sodipodi:namedview
   id="namedview27278"
   pagecolor="#ffffff"
   bordercolor="#000000"
   borderopacity="0.25"
   inkscape:showpageshadow="2"
   inkscape:pageopacity="0.0"
   inkscape:pagecheckerboard="0"
   inkscape:deskcolor="#d1d1d1"
   showgrid="false"
   inkscape:zoom="11.998718"
   inkscape:cx="54.464151"
   inkscape:cy="31.67005"
   inkscape:window-width="1366"
   inkscape:window-height="697"
   inkscape:window-x="-8"
   inkscape:window-y="-8"
   inkscape:window-maximized="1"
   inkscape:current-layer="Layer_4" />
<g
   id="g27275">
	<path
   style="fill:#6593a2;fill-opacity:1"
   d="M69.19,71.88c-19.34-0.75-25.48,11.45-32.74,16.57c-5.57,3.93-14.76,3.28-14.76,3.28   c-6.98,1.2-11.57,5.04-11.57,11.94c0,6.55,3.53,12.91,12.93,12.91l63.22-2.2C86.27,114.38,88.85,72.64,69.19,71.88z"
   id="path27133" />
	<g
   id="g27139">
		<path
   id="path27135"
   style="fill:#6593a2"
   d="M 55.994141 6.2089844 C 55.203571 6.2067972 54.506068 6.2840989 53.865234 6.4257812 C 53.791592 6.4419432 53.718467 6.4584253 53.646484 6.4765625 C 53.41996 6.5340251 53.201651 6.6023218 52.990234 6.6796875 C 52.920225 6.7051761 52.849758 6.730108 52.78125 6.7578125 C 52.66061 6.8068375 52.54206 6.8600327 52.425781 6.9160156 C 52.341941 6.956207 52.259508 6.9991229 52.177734 7.0429688 C 52.018958 7.1284564 51.86268 7.2208134 51.710938 7.3203125 C 51.617291 7.3814702 51.524948 7.4451595 51.433594 7.5117188 C 51.348805 7.5737692 51.262677 7.634396 51.179688 7.7011719 C 51.027698 7.8228974 50.879534 7.9540657 50.732422 8.0917969 C 50.669575 8.1509594 50.607012 8.213245 50.544922 8.2753906 C 50.391602 8.4278995 50.239838 8.5870157 50.089844 8.7578125 C 50.080179 8.7689041 50.0702 8.7778933 50.060547 8.7890625 C 50.057137 8.7929769 50.05419 8.7968573 50.050781 8.8007812 L 39.130859 19.857422 C 34.020072 19.614649 28.917788 21.60983 27.730469 27.460938 C 26.960471 31.22093 29.150391 36.099609 29.150391 36.099609 L 9.9609375 84.320312 C 8.5415653 87.496556 7.4222273 90.353392 6.5644531 92.941406 L 6.5644531 92.943359 C 6.2787737 93.805374 6.0222967 94.637334 5.7929688 95.441406 L 5.7929688 95.443359 C 5.5636999 96.247332 5.3594978 97.023736 5.1835938 97.773438 L 5.1835938 97.775391 C 5.0077479 98.524988 4.8578896 99.248269 4.7324219 99.947266 L 4.7324219 99.949219 C 4.6070103 100.64811 4.5057539 101.32265 4.4277344 101.97461 C 4.4275872 101.97584 4.4278814 101.97729 4.4277344 101.97852 C 4.3498952 102.62965 4.2952436 103.25922 4.2617188 103.86719 L 4.2617188 103.86914 C 4.2282097 104.47764 4.2147428 105.06587 4.2226562 105.63477 L 4.2226562 105.63672 C 4.230654 106.20482 4.2602951 106.75486 4.3066406 107.28711 C 4.3067498 107.28837 4.3065312 107.28976 4.3066406 107.29102 C 4.3530721 107.82311 4.4181992 108.33798 4.5 108.83789 C 4.7458543 110.34207 5.1438966 111.71048 5.65625 112.98828 C 5.8268107 113.41378 6.0109655 113.82847 6.2050781 114.23633 L 6.2050781 114.23828 C 6.3992237 114.64613 6.6055896 115.04559 6.8203125 115.43945 C 9.1503079 119.71945 15.979936 123.29922 23.419922 122.44922 C 23.932815 122.39068 24.42726 122.31796 24.910156 122.23633 C 24.933467 122.23375 24.957177 122.23313 24.980469 122.23047 C 35.610447 121.02047 41.180002 117.31943 42.5 103.18945 C 43.679998 90.579482 38.020783 76.300924 38.550781 70.210938 C 39.028706 64.719315 42.654886 45.121798 43.394531 41.152344 C 44.478961 41.096113 45.30671 40.79809 45.699219 40.220703 C 46.318359 39.301979 46.636024 35.05597 46.867188 30.769531 L 52.359375 31.720703 C 52.359375 31.720703 53.246864 30.557389 53.384766 30.376953 L 53.410156 30.400391 L 62.210938 19.269531 L 62.15625 18.896484 C 62.593691 18.323433 63.213401 17.51351 63.490234 17.150391 C 63.491253 17.145454 63.495055 17.126134 63.496094 17.121094 C 63.670433 16.892773 64.033951 16.417592 64.039062 16.410156 C 64.075951 16.351135 64.149599 14.998981 64.224609 13.443359 C 64.227434 13.428972 64.22764 13.424567 64.230469 13.410156 C 64.248683 13.012477 64.250955 12.908309 64.269531 12.490234 C 64.363972 10.429818 64.427504 8.8473072 64.455078 8.15625 C 64.460447 8.0217037 64.490097 7.3530962 64.490234 7.3496094 C 64.490238 7.3495251 64.490234 7.3300781 64.490234 7.3300781 C 64.490234 7.3300781 61.699525 6.7698428 58.019531 6.3398438 C 57.90398 6.3265789 57.813604 6.3296531 57.701172 6.3183594 C 57.192947 6.2667675 56.715543 6.2366273 56.265625 6.2265625 C 56.18071 6.2247939 56.077178 6.2092141 55.994141 6.2089844 z " />
		
	</g>
	<g
   id="g27152">
		<linearGradient
   id="SVGID_1_"
   gradientUnits="userSpaceOnUse"
   x1="42.2342"
   y1="41.4291"
   x2="-3.6563"
   y2="163.1163">
			<stop
   offset="0.3085"
   style="stop-color:#D3CAC3"
   id="stop27141" />
			<stop
   offset="0.7444"
   style="stop-color:#6D94A5"
   id="stop27143" />
		</linearGradient>
		
		
		
	</g>
	<linearGradient
   id="SVGID_2_"
   gradientUnits="userSpaceOnUse"
   x1="53.6493"
   y1="100.495"
   x2="53.6493"
   y2="122.0381">
		<stop
   offset="0.2923"
   style="stop-color:#D3CAC3"
   id="stop27154" />
		<stop
   offset="0.9998"
   style="stop-color:#6D94A5"
   id="stop27156" />
	</linearGradient>
	
	<path
   style="fill:#93b1bb;fill-opacity:1"
   d="M76.08,80.35C58.7,77.27,51.93,86.21,42.5,93.56c-4.28,3.34-15.86,4.56-15.86,4.56   c-6.98,1.2-11.57,5.04-11.57,11.94c0,7.18,3.53,12.56,12.93,12.56l63.22-2.2C91.22,120.43,95.45,83.78,76.08,80.35z"
   id="path27161" />
	
	<g
   id="g27178">
		
		<circle
   style="fill:#A38E7A;"
   cx="28.45"
   cy="109.74"
   r="6.55"
   id="circle27167" />
		<radialGradient
   id="SVGID_3_"
   cx="26.6683"
   cy="105.7215"
   r="10.0236"
   gradientUnits="userSpaceOnUse">
			<stop
   offset="0"
   style="stop-color:#e0e0e0;stop-opacity:1;"
   id="stop27169" />
			<stop
   offset="0.921"
   style="stop-color:#CDD7DB;stop-opacity:0"
   id="stop27171" />
		</radialGradient>
		<circle
   style="fill:#e0e0e0;fill-opacity:1"
   cx="28.45"
   cy="109.74"
   r="6.55"
   id="circle27174" />
		<circle
   style="fill:#9e9e9e"
   cx="29.39"
   cy="110.16"
   r="5.39"
   id="circle27176" />
	</g>
	<path
   style="fill:#90A4AE;"
   d="M121.79,88.89l0.02,0c0.01-17.13-14.62-28.3-31.06-27.66C75.56,61.83,67.48,71.9,67.48,71.9   s4.67,4.46,2.5,16.15c0.01,0.01,0.01,0.01,0.02,0.02c-0.08,0.32-0.15,0.65-0.22,0.98c-2.83,14.38,6.53,28.33,20.9,31.16   c14.37,2.83,28.31-6.54,31.13-20.92C122.51,95.74,122.47,92.22,121.79,88.89z"
   id="path27180" />
	<linearGradient
   id="SVGID_4_"
   gradientUnits="userSpaceOnUse"
   x1="67.4783"
   y1="90.9669"
   x2="123.5049"
   y2="90.9669">
		<stop
   offset="0.2923"
   style="stop-color:#D3CAC3"
   id="stop27182" />
		<stop
   offset="0.9998"
   style="stop-color:#6D94A5"
   id="stop27184" />
	</linearGradient>
	<path
   style="fill:#6593a2;fill-opacity:1"
   d="M121.79,88.89l1.71,0.17c-0.45-16.8-16.31-28.47-32.75-27.83   C75.56,61.83,67.48,71.9,67.48,71.9s0.83,0.66,1.19,7.76c0.12,2.37,0.19,5.45,0.16,9.47c-0.12,16.06,7.49,28.25,21.86,31.08   c14.37,2.83,29.3-6.08,32.12-20.46C123.5,96.2,122.47,92.22,121.79,88.89z"
   id="path27187" />
	<circle
   style="fill:#93b1bb;fill-opacity:1"
   cx="98.03"
   cy="92.75"
   r="25.74"
   id="circle27189" />
	<g
   id="g27204">
		
		<circle
   style="fill:#A38E7A;"
   cx="101.06"
   cy="92.86"
   r="14.25"
   id="circle27193" />
		<radialGradient
   id="SVGID_5_"
   cx="95.8207"
   cy="81.8918"
   r="20.2565"
   gradientUnits="userSpaceOnUse">
			<stop
   offset="0"
   style="stop-color:#FFFFFF"
   id="stop27195" />
			<stop
   offset="0.921"
   style="stop-color:#CDD7DB;stop-opacity:0"
   id="stop27197" />
		</radialGradient>
		<circle
   style="fill:#e0e0e0"
   cx="101.06"
   cy="92.86"
   r="14.25"
   id="circle27200" />
		<circle
   style="fill:#9e9e9e"
   cx="102.82"
   cy="93.28"
   r="12.5"
   id="circle27202" />
	</g>
	<g
   id="g27273">
		<path
   style="fill:#212121"
   d="M 68.35,20.1 59.68,15.57 51.416631,24.540053 51.5,30.83 64.26,35.48 c 0,0 6.56,-3.38 6.83,-3.51 0.27,-0.13 -0.11,-5.54 -0.11,-5.54 z"
   id="path27206"
   sodipodi:nodetypes="cccccscc" />
		<path
   style="fill:#4b6b75;fill-opacity:1"
   d="M57.25,22.24c1.38-3.39,2.68-3.27,4.19-2.84c1.54,0.44,2.57,2.24,1.38,4.89l-2.05,6.11l6.88-2.1    l2.88,2.99l1.65,3.62c0,0-6.4,2.36-10.42,2.52s-6.23-3.14-6.23-3.14l-2.82-1.3C52.72,32.99,56.83,23.29,57.25,22.24z"
   id="path27208" />
		
		
		
		<path
   style="fill:#6593a2;fill-opacity:1"
   d="M68.4,11.42c-0.81-2.65-1.68-3.47-3.91-4.08c-4.32-1.19-7.45,3.49-4.81,8.23    c2.87,5.16,7,13.66,7,13.66l6.36,5.09c0.92-0.34,1.97-1.95,1.19-4.57L68.4,11.42z"
   id="path27216" />
		
		<g
   id="g27233">
			<circle
   style="fill:#466B7D;"
   cx="64.55"
   cy="12.72"
   r="4.6"
   id="circle27220" />
			<circle
   style="fill:#A38E7A;"
   cx="64.94"
   cy="12.22"
   r="4.29"
   id="circle27222" />
			
				<radialGradient
   id="SVGID_6_"
   cx="61.144"
   cy="5.6809"
   r="6.5677"
   gradientTransform="matrix(0.9775 0.2108 -0.2108 0.9775 5.7795 -9.0382)"
   gradientUnits="userSpaceOnUse">
				<stop
   offset="0"
   style="stop-color:#FFFFFF"
   id="stop27224" />
				<stop
   offset="0.921"
   style="stop-color:#CDD7DB;stop-opacity:0"
   id="stop27226" />
			</radialGradient>
			<circle
   style="fill:#e0e0e0"
   cx="64.94"
   cy="12.22"
   r="4.29"
   id="circle27229" />
			<circle
   style="fill:#9e9e9e"
   cx="65.7"
   cy="12.25"
   r="3.46"
   id="circle27231" />
		</g>
		<g
   id="g27248">
			<circle
   style="fill:#466B7D;"
   cx="70.66"
   cy="31.29"
   r="3.96"
   id="circle27235" />
			<circle
   style="fill:#A38E7A;"
   cx="70.86"
   cy="31.11"
   r="3.52"
   id="circle27237" />
			
				<radialGradient
   id="SVGID_7_"
   cx="71.1254"
   cy="23.3634"
   r="5.3865"
   gradientTransform="matrix(0.9775 0.2108 -0.2108 0.9775 5.7795 -9.0382)"
   gradientUnits="userSpaceOnUse">
				<stop
   offset="0"
   style="stop-color:#FFFFFF"
   id="stop27239" />
				<stop
   offset="0.921"
   style="stop-color:#CDD7DB;stop-opacity:0"
   id="stop27241" />
			</radialGradient>
			<circle
   style="fill:#e0e0e0"
   cx="70.86"
   cy="31.11"
   r="3.52"
   id="circle27244" />
			<circle
   style="fill:#9e9e9e"
   cx="71.58"
   cy="31.3"
   r="2.84"
   id="circle27246" />
		</g>
		
		
			<ellipse
   transform="matrix(0.2576 -0.9662 0.9662 0.2576 2.6603 64.8204)"
   style="fill:#93b1bb"
   cx="43.51"
   cy="30.68"
   rx="10.44"
   ry="9.86"
   id="ellipse27252" />
		
		<path
   style="fill:#6593a2"
   d="M67.91,36.95c0.39-1.8-0.69-3.56-2.42-4.08l0-0.03c0,0-14.51-5.46-17.76-6.17    c-3.25-0.7-6.45,1.36-7.15,4.61c-0.7,3.25,1.36,6.45,4.61,7.15c1.59,0.34,16.94,1.16,19.15,1.28c0.04,0,0.09,0.01,0.13,0.01    c0.09,0,0.14,0.01,0.14,0.01l0-0.02C66.19,39.63,67.56,38.54,67.91,36.95z"
   id="path27256" />
		<g
   id="g27271">
			
			<circle
   style="fill:#A38E7A;"
   cx="47.68"
   cy="32.6"
   r="4.29"
   id="circle27260" />
			
				<radialGradient
   id="SVGID_8_"
   cx="48.5663"
   cy="29.2326"
   r="6.5677"
   gradientTransform="matrix(0.9775 0.2108 -0.2108 0.9775 5.7795 -9.0382)"
   gradientUnits="userSpaceOnUse">
				<stop
   offset="0"
   style="stop-color:#FFFFFF"
   id="stop27262" />
				<stop
   offset="0.921"
   style="stop-color:#CDD7DB;stop-opacity:0"
   id="stop27264" />
			</radialGradient>
			<circle
   style="fill:#e0e0e0"
   cx="47.68"
   cy="32.6"
   r="4.29"
   id="circle27267" />
			<circle
   style="fill:#9e9e9e"
   cx="48.42"
   cy="32.86"
   r="3.46"
   id="circle27269" />
		</g>
	</g>
</g>
</svg>
