<?xml version="1.0" encoding="UTF-8" standalone="no"?>
<!-- Generator: Adobe Illustrator 25.2.3, SVG Export Plug-In . SVG Version: 6.00 Build 0)  -->

<svg
   version="1.1"
   id="Layer_2"
   x="0px"
   y="0px"
   viewBox="0 0 128 128"
   style="enable-background:new 0 0 128 128;"
   xml:space="preserve"
   sodipodi:docname="emoji_u1f9e9.svg"
   inkscape:version="1.2.2 (732a01da63, 2022-12-09)"
   xmlns:inkscape="http://www.inkscape.org/namespaces/inkscape"
   xmlns:sodipodi="http://sodipodi.sourceforge.net/DTD/sodipodi-0.dtd"
   xmlns="http://www.w3.org/2000/svg"
   xmlns:svg="http://www.w3.org/2000/svg"><defs
   id="defs24231" /><sodipodi:namedview
   id="namedview24229"
   pagecolor="#ffffff"
   bordercolor="#000000"
   borderopacity="0.25"
   inkscape:showpageshadow="2"
   inkscape:pageopacity="0.0"
   inkscape:pagecheckerboard="0"
   inkscape:deskcolor="#d1d1d1"
   showgrid="false"
   showguides="false"
   inkscape:zoom="1.4998398"
   inkscape:cx="6.3340099"
   inkscape:cy="78.67507"
   inkscape:window-width="1366"
   inkscape:window-height="697"
   inkscape:window-x="-8"
   inkscape:window-y="-8"
   inkscape:window-maximized="1"
   inkscape:current-layer="Layer_2" />


<radialGradient
   id="SVGID_1_"
   cx="62.1723"
   cy="-28.3001"
   r="119.2249"
   gradientUnits="userSpaceOnUse"
   gradientTransform="translate(0.30475076,1.6714987)">
	<stop
   offset="0.5082"
   style="stop-color:#B7D118"
   id="stop24209" />
	<stop
   offset="0.5721"
   style="stop-color:#B2D019"
   id="stop24211" />
	<stop
   offset="0.6427"
   style="stop-color:#A5CD1D"
   id="stop24213" />
	<stop
   offset="0.7167"
   style="stop-color:#8FC922"
   id="stop24215" />
	<stop
   offset="0.7928"
   style="stop-color:#70C22A"
   id="stop24217" />
	<stop
   offset="0.8707"
   style="stop-color:#48BA34"
   id="stop24219" />
	<stop
   offset="0.9489"
   style="stop-color:#18B040"
   id="stop24221" />
	<stop
   offset="0.9813"
   style="stop-color:#02AB46"
   id="stop24223" />
</radialGradient>
<path
   style="fill:#ed6c30"
   d="m 88.424751,26.661499 c 0.76,-2.78 -0.11,-9.61 5.2,-14.13 5.31,-4.5200003 13.569999,-3.9600003 18.539999,0.79 4.97,4.75 5.77,13.68 -0.11,19.56 -5.88,5.88 -8.59,2.6 -11.87,5.77 -3.279999,3.17 -2.709999,5.77 -0.679999,7.69 2.039999,1.92 22.279999,23.07 21.709999,24.42 -0.57,1.35 -14.36,16.96 -16.62,18.09 -2.26,1.13 -6.219999,1.02 -7.009999,-2.71 -0.79,-3.73 0.57,-11.19 -5.09,-13.12 -5.65,-1.92 -8.14,-0.34 -13.68,5.54 -5.54,5.88 -8.03,12.32 -3.51,15.6 4.52,3.28 10.18,1.92 12.44,5.77 2.26,3.850001 -1.13,7.350001 -7.12,12.890001 -5.99,5.54 -10.63,10.06 -11.42,9.5 -0.79,-0.57 -17.98,-18.77 -19.67,-20.69 -1.7,-1.920001 -4.98,-3.620001 -8.14,-0.68 -3.17,2.94 -3.73,12.55 -17.07,12.55 -13.34,0 -14.9400002,-14.470001 -10.19,-20.460001 4.75,-5.99 15.26,-6.56 15.49,-10.63 0.1,-1.87 -5.67,-6.91 -10.85,-12.32 -6.09,-6.37 -11.7500002,-13.12 -11.9900002,-13.91 -0.45,-1.47 12.6600002,-14.36 15.1500002,-16.17 2.49,-1.81 5.31,-0.68 6.67,0.79 1.36,1.47 1.7,5.99 2.83,8.59 1.13,2.6 6.44,13.91 19.22,1.02 12.66,-12.78 0.68,-18.32 -3.39,-19.45 -4.07,-1.13 -7,-1.5 -8.14,-5.65 -0.9,-3.28 4.07,-7.12 9.27,-12.1 5.2,-4.9800003 8.25,-7.5800003 9.61,-7.5800003 1.36,0 19.56,19.5600003 21.94,21.8200003 2.38,2.26 3.84,2.83 5.54,2.37 1.69,-0.44 2.6,-1.91 2.94,-3.16 z"
   id="path24226" />
</svg>
