<?xml version="1.0" encoding="UTF-8" standalone="no"?>
<svg
   width="128"
   height="128"
   version="1.1"
   id="svg70193"
   sodipodi:docname="emoji_u1f5bc.svg"
   inkscape:version="1.2.2 (732a01da63, 2022-12-09)"
   xmlns:inkscape="http://www.inkscape.org/namespaces/inkscape"
   xmlns:sodipodi="http://sodipodi.sourceforge.net/DTD/sodipodi-0.dtd"
   xmlns:xlink="http://www.w3.org/1999/xlink"
   xmlns="http://www.w3.org/2000/svg"
   xmlns:svg="http://www.w3.org/2000/svg">
  <sodipodi:namedview
     id="namedview70195"
     pagecolor="#ffffff"
     bordercolor="#000000"
     borderopacity="0.25"
     inkscape:showpageshadow="2"
     inkscape:pageopacity="0.0"
     inkscape:pagecheckerboard="0"
     inkscape:deskcolor="#d1d1d1"
     showgrid="false"
     inkscape:zoom="2.9996795"
     inkscape:cx="56.005982"
     inkscape:cy="75.67475"
     inkscape:window-width="1366"
     inkscape:window-height="697"
     inkscape:window-x="-8"
     inkscape:window-y="-8"
     inkscape:window-maximized="1"
     inkscape:current-layer="svg70193" />
  <path
     fill="#fff"
     d="M11.6 27.86h105.67v75.62H11.6z"
     id="path70175"
     style="fill:#baebf5;fill-opacity:1" />
  <defs
     id="defs70180">
    <path
       id="a"
       d="M21.29 37.56h85.31v56.23H21.29z" />
  </defs>
  <clipPath
     id="b">
    <use
       xlink:href="#a"
       overflow="visible"
       id="use70182" />
  </clipPath>
  <path
     d="M 5,114.62 C 5,80.16 28.03,50 41,50 54.24,50 77,80.16 77,114.62 77,149.07 60.88,177 41,177 21.12,177 5,149.07 5,114.62 Z"
     clip-path="url(#b)"
     fill="#78a3ad"
     id="path70185"
     transform="matrix(1.132633,0,0,1.132633,-8.4812141,-6.0321743)"
     style="stroke-width:0.882899" />
  <ellipse
     cx="20.84"
     cy="103.96"
     rx="52.799999"
     ry="35.380001"
     clip-path="url(#b)"
     fill="#757f3f"
     id="ellipse70187"
     transform="matrix(1.132633,0,0,1.132633,-8.4812141,-6.0321743)"
     style="stroke-width:0.882899" />
  <ellipse
     cx="111.36"
     cy="100.09"
     rx="65.830002"
     ry="44.110001"
     clip-path="url(#b)"
     fill="#bdcf46"
     id="ellipse70189"
     transform="matrix(1.132633,0,0,1.132633,-8.4812141,-6.0321743)"
     style="stroke-width:0.882899" />
  <circle
     cx="79.875488"
     cy="50.237034"
     r="7.1355882"
     fill="#fcc21b"
     id="circle70191"
     style="stroke-width:1" />
  <path
     d="M4.95 110.45c-3.02-3.2-3.52-8.09-1.15-11.8 2.41-3.78 4.21-7.77 2.89-12.62-1.61-5.94-3.65-11.77-5.42-17.66-.59-1.96-.55-4.06.11-6 1.43-4.14 2.09-8.63 3.9-12.61 2.92-6.43 1.78-12-1.46-17.26-2.27-3.69-1.93-8.46 1-11.66 3.05-3.34 6.11-3.51 12.32-1.7 1.24.36 2.52.61 3.69 1.11 7.83 3.3 15.3 3.47 23.15-.72 2.74-1.46 7.79-1.45 10.34.17 6.75 4.27 12.87 4.27 19.46.37 4.58-2.71 9.07-2.9 13.51.46 3.9 2.96 8.33 3.21 12.88 1.95 3.56-.99 7.08-2.13 10.6-3.25 6.24-1.98 9.38-1.73 12.57 1.93 2.79 3.19 3.03 7.91.72 11.46-2.34 3.59-4.26 7.34-2.98 12.04 1.67 6.12 3.74 12.13 5.55 18.21.6 2 .54 4.13-.16 6.1-1.39 3.93-2.08 8.19-3.83 11.95-3.05 6.58-1.98 12.33 1.39 17.74 2.29 3.68 1.96 8.47-.98 11.66-3 3.25-5.99 3.47-11.91 1.81-1.55-.44-3.15-.78-4.63-1.4-7.57-3.17-14.76-3.1-22.31.77-2.84 1.45-7.89 1.71-10.38.11-7.11-4.56-13.55-4.23-20.42-.22-4.34 2.53-8.59 2.38-12.67-.67-4.1-3.06-8.68-3.21-13.39-1.96-3.42.91-6.79 2.04-10.17 3.11-6.07 1.95-9.15 1.83-12.22-1.42zM63.9 98.86c13.55 0 27.11.03 40.66-.01 5.99-.02 7-1.05 7.01-7.12.02-17.43.02-34.85 0-52.28-.01-6.01-1.3-7.34-7.43-7.35-26.79-.04-53.57-.03-80.36 0-6.21.01-7.46 1.26-7.47 7.28-.02 17.43-.02 34.85 0 52.28.01 6.33.89 7.18 7.4 7.19 13.41.03 26.8.01 40.19.01z"
     fill="#855c52"
     id="path70177" />
</svg>
