<?xml version="1.0" encoding="UTF-8" standalone="no"?>
<svg
   width="100%"
   height="100%"
   viewBox="0 0 534 534"
   version="1.1"
   xml:space="preserve"
   style="fill-rule:evenodd;clip-rule:evenodd;stroke-linejoin:round;stroke-miterlimit:2;"
   id="svg28889"
   sodipodi:docname="emoji_u1f958.svg"
   inkscape:version="1.2.2 (732a01da63, 2022-12-09)"
   xmlns:inkscape="http://www.inkscape.org/namespaces/inkscape"
   xmlns:sodipodi="http://sodipodi.sourceforge.net/DTD/sodipodi-0.dtd"
   xmlns="http://www.w3.org/2000/svg"
   xmlns:svg="http://www.w3.org/2000/svg"><defs
     id="defs28893" /><sodipodi:namedview
     id="namedview28891"
     pagecolor="#ffffff"
     bordercolor="#000000"
     borderopacity="0.25"
     inkscape:showpageshadow="2"
     inkscape:pageopacity="0.0"
     inkscape:pagecheckerboard="0"
     inkscape:deskcolor="#d1d1d1"
     showgrid="false"
     inkscape:zoom="0.50842697"
     inkscape:cx="530.0663"
     inkscape:cy="369.76796"
     inkscape:window-width="1366"
     inkscape:window-height="697"
     inkscape:window-x="-8"
     inkscape:window-y="-8"
     inkscape:window-maximized="1"
     inkscape:current-layer="svg28889" /><g
     id="g28817"><path
       d="M391.667,512.125c-1.5,-1.625 -2.834,-3.417 -4.042,-5.292l-22.458,-35.541c-1.24,-2.005 -1.897,-4.316 -1.897,-6.673c0,-6.96 5.728,-12.688 12.688,-12.688c4.309,0 8.334,2.196 10.667,5.819l22.458,35.542c1.959,3.083 5.125,5.166 8.792,5.625l2.75,0.375c17.667,2.375 35.292,-3.167 48.375,-15.25c13.083,-12.084 20.042,-29.209 19.042,-47c-0.215,-4.13 -2.507,-7.882 -6.084,-9.959l-36.166,-21.25c-3.876,-2.269 -6.265,-6.436 -6.265,-10.927c0,-2.268 0.61,-4.495 1.765,-6.448c2.269,-3.875 6.436,-6.264 10.927,-6.264c2.268,-0 4.495,0.609 6.448,1.764l36.166,21.25c10.904,6.378 17.884,17.844 18.542,30.459c1.375,25.375 -8.542,49.791 -27.167,67.041c-18.56,17.198 -43.885,25.201 -68.958,21.792l-2.75,-0.375c-8.768,-1.237 -16.841,-5.48 -22.833,-12Zm-354.709,-388.875c-5.956,-6.533 -9.424,-14.959 -9.791,-23.792l-0.084,-2.791c-1.083,-25.375 9.125,-49.667 28,-66.667c18.875,-17 44.125,-24.625 69.25,-20.917c12.542,1.834 23.25,9.792 28.625,21.25l17.834,37.959c0.797,1.69 1.21,3.535 1.21,5.404c0,4.906 -2.85,9.39 -7.294,11.471c-1.69,0.797 -3.535,1.21 -5.404,1.21c-4.906,0 -9.39,-2.85 -11.471,-7.294l-17.833,-37.958c-1.75,-3.75 -5.25,-6.333 -9.375,-6.958c-17.625,-2.584 -35.292,2.75 -48.542,14.666c-13.203,11.852 -20.412,29.026 -19.625,46.75l0.125,2.792c0.167,3.667 1.917,7 4.792,9.25l33.333,25.625c5.502,4.251 6.553,12.265 2.334,17.792c-4.252,5.502 -12.266,6.553 -17.792,2.333l-33.333,-25.625c-1.792,-1.375 -3.459,-2.875 -4.959,-4.5Z"
       style="fill:#77a3ae;fill-rule:nonzero;"
       id="path28815" /></g><path
     d="M99.998,87.819c100.24,-91.438 255.857,-84.292 347.295,15.947c91.438,100.239 84.293,255.857 -15.946,347.295c-100.24,91.438 -255.857,84.292 -347.295,-15.947c-91.438,-100.239 -84.293,-255.857 15.946,-347.295Z"
     style="fill:#77a3ae;"
     id="path28819" /><path
     d="M119.346,109.029c88.533,-80.76 225.978,-74.449 306.738,14.084c80.76,88.534 74.449,225.978 -14.085,306.738c-88.533,80.76 -225.978,74.449 -306.738,-14.084c-80.76,-88.534 -74.449,-225.978 14.085,-306.738Z"
     style="fill:#f09300;"
     id="path28821" /><path
     d="M401.792,418.708c-27.959,25.5 -69.417,35.334 -103.959,42.334c-67.375,13.708 -124.5,2.25 -174.208,-52.25c-29.208,-32.042 -53.125,-83.584 -58.125,-123.584c-7.875,-62.916 13.167,-109.541 63.542,-155.5c30.041,-27.416 68.666,-45.208 106.041,-51.291c65.125,-10.625 131.084,9.708 178.875,62.083c30.542,33.5 34.375,74.208 38.459,116.125c6,61.25 -1.667,117.458 -50.625,162.083Z"
     style="fill:#ffb74d;fill-rule:nonzero;"
     id="path28823" /><path
     d="M83.75,226c2.292,2.75 3.75,5.75 1.417,7.125c-2.167,1.25 -5.042,-0.792 -7.25,-3.583c-1.917,-2.375 -3.125,-5 -1.334,-6.459c2.125,-1.833 4.709,0.5 7.167,2.917Zm197.417,-63.625c2.291,2.75 3.75,5.75 1.416,7.125c-2.166,1.25 -5.041,-0.792 -7.25,-3.583c-1.916,-2.375 -3.125,-5 -1.333,-6.459c2.167,-1.833 4.75,0.5 7.167,2.917Zm-66.75,-53.208c-2.625,2.416 -5.542,4.041 -7.042,1.75c-1.375,-2.125 0.542,-5.084 3.208,-7.417c2.292,-2 4.834,-3.375 6.417,-1.667c1.917,2.084 -0.292,4.792 -2.583,7.334Zm188.625,275.583c2.291,2.75 3.75,5.75 1.416,7.125c-2.166,1.25 -5.041,-0.792 -7.25,-3.583c-1.916,-2.375 -3.125,-5 -1.333,-6.459c2.125,-1.833 4.708,0.5 7.167,2.917Zm2.416,-181.083c1.709,-3.125 3.917,-5.625 6.084,-3.959c1.958,1.542 1.125,5 -0.584,8.084c-1.5,2.666 -3.458,4.75 -5.5,3.666c-2.541,-1.375 -1.333,-4.625 0,-7.791Z"
     style="fill:#fada80;fill-rule:nonzero;"
     id="path28825" /><path
     d="M329.75,326.583c2.292,2.75 3.75,5.75 1.417,7.125c-2.167,1.25 -5.042,-0.791 -7.25,-3.583c-1.917,-2.375 -3.125,-5 -1.334,-6.458c2.167,-1.834 4.75,0.5 7.167,2.916Z"
     style="fill:#f6ecbf;fill-rule:nonzero;"
     id="path28827" /><path
     d="M135.625,189c2.292,2.75 3.75,5.75 1.417,7.125c-2.167,1.25 -5.042,-0.792 -7.25,-3.583c-1.917,-2.375 -3.125,-5 -1.334,-6.459c2.167,-1.833 4.75,0.5 7.167,2.917Zm92.417,245.708c2.291,2.75 3.75,5.75 1.416,7.125c-2.166,1.25 -5.041,-0.791 -7.25,-3.583c-1.916,-2.375 -3.125,-5 -1.333,-6.458c2.167,-1.834 4.75,0.5 7.167,2.916Z"
     style="fill:#fada80;fill-rule:nonzero;"
     id="path28829" /><path
     d="M249.167,93.083c3.375,5.584 -0.292,10 -3,13.959c-3.459,5.125 -7.834,2.416 -10.875,-0.75c-3.042,-3.209 -5.542,-7.75 -0.625,-11.167c4.208,-2.833 9.291,-4.375 14.5,-2.042Zm155.791,259.917c3.375,5.583 -0.291,10 -3,13.958c-3.458,5.125 -7.833,2.417 -10.875,-0.75c-3.041,-3.208 -5.541,-7.75 -0.625,-11.166c4.167,-2.834 9.25,-4.375 14.5,-2.042Zm-92.583,-1.292c-2.625,6 -8.333,5.5 -13.125,5.584c-6.167,0.125 -6.5,-5 -5.625,-9.334c0.875,-4.333 3.125,-9 8.75,-6.916c4.708,1.791 8.917,5.041 10,10.666Zm-162.5,-195.375c-2.625,6 -8.333,5.5 -13.125,5.584c-6.167,0.125 -6.5,-5 -5.625,-9.334c0.875,-4.333 3.125,-9 8.75,-6.916c4.708,1.791 8.875,5.041 10,10.666Zm172.875,20.75c3.375,5.584 -0.292,10 -3,13.959c-3.458,5.125 -7.833,2.416 -10.875,-0.75c-3.042,-3.209 -5.542,-7.75 -0.625,-11.167c4.167,-2.833 9.25,-4.375 14.5,-2.042Z"
     style="fill:#689f38;fill-rule:nonzero;"
     id="path28831" /><path
     d="M417.583,166.417c3.375,5.583 -0.291,10 -3,13.958c-3.458,5.125 -7.833,2.417 -10.875,-0.75c-3.041,-3.208 -5.541,-7.75 -0.625,-11.167c4.167,-2.833 9.25,-4.375 14.5,-2.041Zm19.625,144.208c3.375,5.583 -0.291,10 -3,13.958c-3.458,5.125 -7.833,2.417 -10.875,-0.75c-3.041,-3.208 -5.541,-7.75 -0.625,-11.166c4.167,-2.834 9.25,-4.375 14.5,-2.042Zm-238.666,114.833c3.375,5.584 -0.292,10 -3,13.959c-3.459,5.125 -7.834,2.416 -10.875,-0.75c-3.042,-3.209 -5.542,-7.75 -0.625,-11.167c4.208,-2.875 9.291,-4.417 14.5,-2.042Zm-80.375,-94.25c3.375,5.584 -0.292,10 -3,13.959c-3.459,5.125 -7.834,2.416 -10.875,-0.75c-3.042,-3.209 -5.542,-7.75 -0.625,-11.167c4.166,-2.833 9.25,-4.375 14.5,-2.042Zm-4.042,-142.625c3.375,5.584 -0.292,10 -3,13.959c-3.458,5.125 -7.833,2.416 -10.875,-0.75c-3.042,-3.209 -5.542,-7.75 -0.625,-11.167c4.208,-2.833 9.292,-4.375 14.5,-2.042Zm177.042,-94.958c3.375,5.583 -0.292,10 -3,13.958c-3.459,5.125 -7.834,2.417 -10.875,-0.75c-3.042,-3.208 -5.542,-7.75 -0.625,-11.166c4.208,-2.875 9.291,-4.417 14.5,-2.042Z"
     style="fill:#e64a19;fill-rule:nonzero;"
     id="path28833" /><path
     d="M263.625,426.208c6.833,2.125 7,8.375 7.667,13.584c0.875,6.666 -4.625,7.625 -9.459,7.25c-4.833,-0.417 -10.166,-2.334 -8.583,-8.667c1.375,-5.375 4.417,-10.292 10.375,-12.167Zm170.042,-208.125c6.833,2.125 7,8.375 7.666,13.584c0.875,6.666 -4.625,7.625 -9.458,7.25c-4.833,-0.417 -10.167,-2.334 -8.583,-8.667c1.375,-5.375 4.416,-10.292 10.375,-12.167Zm-293.875,160.459c4.666,0.208 6.25,2.5 5.041,7.041c-1.083,4.084 -1.166,9.584 -7.416,7.667c-4.584,-1.375 -10.584,-3.917 -8.959,-10c1.209,-4.458 7.084,-4.083 11.334,-4.708Zm63.791,-130.5c1.667,4.375 0.209,6.708 -4.458,7.416c-4.167,0.625 -9.25,2.709 -10,-3.791c-0.542,-4.75 -0.583,-11.25 5.625,-12.167c4.625,-0.667 6.583,4.875 8.833,8.542Z"
     style="fill:#689f38;fill-rule:nonzero;"
     id="path28835" /><path
     d="M228.875,333.333c-11.583,-4.041 -12.333,-12.75 -7.083,-21.375c5.166,-8.458 13.333,-9.625 21.666,-3.083c-0.125,2.708 4.292,5.708 -0.541,8.125c-8.709,-1.417 -16.292,-1.625 -12.042,11.042c0.042,2.041 -0.625,3.791 -2,5.291Z"
     style="fill:#f6ecbf;fill-rule:nonzero;"
     id="path28837" /><path
     d="M243.625,316.125c-0.042,-2.417 -0.125,-4.833 -0.167,-7.25c5.792,5.375 6.334,11.958 2.792,18.333c-3.708,6.709 -10.042,8.459 -17.375,6.125c0.042,-1.333 0.083,-2.708 0.167,-4.041c5.166,-4.042 10.166,-8.292 14.583,-13.167Z"
     style="fill:#f6ecbf;fill-rule:nonzero;"
     id="path28839" /><path
     d="M243.625,316.125c1.667,11.625 -4.125,14.958 -14.583,13.125c-5.417,-5.333 -8.667,-11 -1.375,-17.125c6.875,-5.708 11.541,-1.042 15.958,4Z"
     style="fill:#ffa726;fill-rule:nonzero;"
     id="path28841" /><path
     d="M227.917,248.625c-11.584,-4.042 -12.334,-12.75 -7.084,-21.375c5.167,-8.458 13.334,-9.625 21.667,-3.083c-0.125,2.708 4.292,5.708 -0.542,8.125c-8.708,-1.417 -16.291,-1.625 -12.041,11.041c0.041,2.042 -0.625,3.792 -2,5.292Z"
     style="fill:#f6ecbf;fill-rule:nonzero;"
     id="path28843" /><path
     d="M242.667,231.417c-0.042,-2.417 -0.125,-4.834 -0.167,-7.25c5.792,5.375 6.333,11.958 2.792,18.333c-3.709,6.708 -10.042,8.458 -17.375,6.125c0.041,-1.333 0.083,-2.708 0.166,-4.042c5.167,-4.041 10.167,-8.291 14.584,-13.166Z"
     style="fill:#f6ecbf;fill-rule:nonzero;"
     id="path28845" /><path
     d="M242.667,231.417c1.666,11.625 -4.125,14.958 -14.584,13.125c-5.416,-5.334 -8.666,-11 -1.375,-17.125c6.875,-5.709 11.542,-1 15.959,4Z"
     style="fill:#ffa726;fill-rule:nonzero;"
     id="path28847" /><path
     d="M312.375,291.583c-11.583,-4.041 -12.333,-12.75 -7.083,-21.375c5.166,-8.458 13.333,-9.625 21.666,-3.083c-0.125,2.708 4.292,5.708 -0.541,8.125c-8.709,-1.417 -16.292,-1.625 -12.042,11.042c0.042,2.041 -0.625,3.791 -2,5.291Z"
     style="fill:#f6ecbf;fill-rule:nonzero;"
     id="path28849" /><path
     d="M327.125,274.375c-0.042,-2.417 -0.125,-4.833 -0.167,-7.25c5.792,5.375 6.334,11.958 2.792,18.333c-3.708,6.709 -10.042,8.459 -17.375,6.125c0.042,-1.333 0.083,-2.708 0.167,-4.041c5.166,-4.084 10.166,-8.292 14.583,-13.167Z"
     style="fill:#f6ecbf;fill-rule:nonzero;"
     id="path28851" /><path
     d="M327.125,274.375c1.667,11.625 -4.125,14.958 -14.583,13.125c-5.417,-5.333 -8.667,-11 -1.375,-17.125c6.875,-5.708 11.541,-1.042 15.958,4Z"
     style="fill:#ffa726;fill-rule:nonzero;"
     id="path28853" /><g
     id="g28861"><path
       d="M88.417,264.208c1.416,22.417 18.291,40.209 39.541,43.667c3.292,0.542 6.25,-2.167 6.042,-5.5l-5.208,-81.792c-0.209,-3.333 -3.459,-5.625 -6.667,-4.708c-20.667,6.125 -35.125,25.875 -33.708,48.333Z"
       style="fill:#f7cb4d;fill-rule:nonzero;"
       id="path28855" /><g
       id="g28859"><path
         d="M119.75,226.75c-4.206,1.94 -8.02,4.638 -11.25,7.958c-1.292,1.334 -1.25,3.375 0.167,4.584l13.291,11.708c1.417,1.25 3.584,0.167 3.459,-1.708l-1.25,-19.834c-0.167,-2.208 -2.417,-3.625 -4.417,-2.708Zm8.542,67.375l-1.25,-19.667c-0.075,-1.095 -0.997,-1.957 -2.095,-1.957c-0.601,0 -1.174,0.258 -1.572,0.707l-11.625,13.209c-1.208,1.375 -1,3.416 0.458,4.541c3.542,2.792 7.625,5 12.042,6.375c2.083,0.667 4.167,-1.041 4.042,-3.208Zm-27,-49c-1.75,3.708 -2.875,7.708 -3.334,11.917c-0.208,1.916 1.375,3.583 3.334,3.458l16.958,-1.083c1.875,-0.125 2.625,-2.417 1.25,-3.667l-13.25,-11.667c-0.578,-0.502 -1.319,-0.778 -2.084,-0.778c-1.228,-0 -2.35,0.71 -2.874,1.82Zm-2.625,24.417c0.974,4.287 2.68,8.375 5.041,12.083c1.125,1.75 3.625,1.917 4.959,0.333l12.25,-13.916c1.25,-1.417 0.166,-3.584 -1.709,-3.459l-17.708,1.125c-1.917,0.125 -3.25,1.959 -2.833,3.834Z"
         style="fill:#fef6e0;fill-rule:nonzero;"
         id="path28857" /></g></g><g
     id="g28869"><path
       d="M351.042,124.292c-20.667,-8.834 -44.125,-1.792 -56.792,15.625c-1.958,2.708 -0.875,6.541 2.208,7.875l75.334,32.208c3.083,1.333 6.583,-0.542 7.208,-3.833c3.833,-21.209 -7.292,-43.042 -27.958,-51.875Z"
       style="fill:#f7cb4d;fill-rule:nonzero;"
       id="path28863" /><g
       id="g28867"><path
         d="M370.333,169.167c0.165,-4.629 -0.527,-9.248 -2.041,-13.625c-0.408,-1.285 -1.608,-2.164 -2.955,-2.164c-0.417,0 -0.829,0.084 -1.212,0.247l-16.417,6.583c-1.708,0.709 -1.75,3.125 -0.041,3.875l18.291,7.834c2,0.833 4.292,-0.584 4.375,-2.75Zm-64,-22.792l18.167,7.792c0.26,0.112 0.541,0.17 0.824,0.17c1.143,-0 2.084,-0.941 2.084,-2.084c-0,-0.272 -0.054,-0.543 -0.158,-0.795l-6.542,-16.333c-0.454,-1.194 -1.604,-1.987 -2.881,-1.987c-0.475,0 -0.943,0.11 -1.369,0.32c-4.125,1.917 -7.916,4.584 -11.125,7.875c-0.57,0.582 -0.89,1.365 -0.89,2.18c0,1.244 0.746,2.373 1.89,2.862Zm55.917,-1.958c-2.576,-3.261 -5.656,-6.088 -9.125,-8.375c-0.505,-0.323 -1.093,-0.495 -1.693,-0.495c-1.257,-0 -2.398,0.754 -2.89,1.911l-6.667,15.625c-0.112,0.261 -0.17,0.541 -0.17,0.825c-0,1.143 0.94,2.083 2.083,2.083c0.273,-0 0.543,-0.054 0.795,-0.158l16.375,-6.583c1.183,-0.474 1.962,-1.626 1.962,-2.9c-0,-0.701 -0.236,-1.382 -0.67,-1.933Zm-20.625,-13.375c-4.333,-1.084 -8.75,-1.375 -13.042,-0.917c-1.573,0.177 -2.775,1.523 -2.775,3.105c-0,0.407 0.079,0.81 0.234,1.187l6.916,17.208c0.709,1.708 3.125,1.75 3.875,0.042l6.959,-16.334c0.16,-0.385 0.243,-0.799 0.243,-1.216c-0,-1.453 -1,-2.728 -2.41,-3.075Z"
         style="fill:#fef6e0;fill-rule:nonzero;"
         id="path28865" /></g></g><g
     id="g28877"><path
       d="M340,427.333c23.167,-10.791 35.042,-36 29.875,-59.958c-0.792,-3.708 -4.875,-5.708 -8.333,-4.125l-84.459,39.375c-2.099,0.975 -3.448,3.089 -3.448,5.404c0,1.316 0.436,2.595 1.24,3.638c15.042,19.333 41.958,26.458 65.125,15.666Z"
       style="fill:#f7cb4d;fill-rule:nonzero;"
       id="path28871" /><g
       id="g28875"><path
         d="M287.375,409.625c3.833,3.708 8.25,6.583 13.042,8.625c1.916,0.833 4.083,-0.083 4.791,-2.042l6.917,-18.916c0.708,-2 -1.333,-3.875 -3.25,-2.959l-20.5,9.542c-2.208,1.042 -2.792,4.042 -1,5.75Zm67.875,-36.875l-20.333,9.458c-1.917,0.875 -1.792,3.667 0.208,4.375l18.792,6.834c1.958,0.708 4.041,-0.334 4.666,-2.334c1.5,-4.916 2.125,-10.166 1.75,-15.416c-0.157,-1.835 -1.712,-3.262 -3.553,-3.262c-0.529,0 -1.052,0.118 -1.53,0.345Zm-40.792,48.833c4.625,0.292 9.375,-0.125 14,-1.375c2.125,-0.583 3.25,-2.958 2.292,-4.958l-8.167,-17.5c-0.875,-1.917 -3.666,-1.792 -4.375,0.208l-6.875,18.875c-0.131,0.379 -0.198,0.776 -0.198,1.176c-0,1.868 1.46,3.439 3.323,3.574Zm26.959,-7.291c4.208,-2.834 7.791,-6.375 10.708,-10.334c0.435,-0.603 0.669,-1.328 0.669,-2.071c0,-1.504 -0.957,-2.851 -2.377,-3.345l-19.834,-7.209c-2,-0.708 -3.875,1.334 -2.958,3.25l8.542,18.292c0.958,1.958 3.458,2.625 5.25,1.417Z"
         style="fill:#fef6e0;fill-rule:nonzero;"
         id="path28873" /></g></g><path
     d="m 222.23298,139.2144 c -7.02081,-0.0141 -15.57147,-1.65751 -20.93271,3.73347 -3.89888,3.92202 -4.97097,9.76023 -4.98706,14.8322 -0.0315,9.80322 2.35206,20.77385 13.37515,23.18429 4.1476,0.90595 8.329,0.68482 12.59416,0.15261 5.66765,-0.70707 10.81208,-1.85809 14.76701,-6.42189 1.76491,-2.03682 3.02842,-4.52336 3.83054,-7.02085 0.70351,-2.19071 1.24101,-4.42371 1.35317,-6.68021 1.12034,-22.52026 -14.47463,-21.76858 -20.00026,-21.77962 z"
     style="fill:#8d6b63"
     id="path28879" /><path
     d="m 159.64799,239.33069 c -4.5392,0.21795 -10.15127,-0.50524 -13.33802,2.9461 -2.31888,2.51099 -2.70973,6.09541 -2.45717,9.17949 0.48597,5.96281 2.59365,12.55626 9.84345,13.66587 2.72792,0.41782 5.41917,0.14749 8.14977,-0.31338 3.62704,-0.61312 6.89324,-1.47938 9.21294,-4.38244 1.03522,-1.2949 1.72382,-2.84821 2.11387,-4.39245 0.34081,-1.35528 0.57295,-2.73027 0.52913,-4.10521 -0.43934,-13.73059 -10.48128,-12.77021 -14.05394,-12.59798 z"
     style="fill:#6d4a41;stroke-width:0.999997"
     id="path28881" /><path
     d="m 203.43103,344.30069 c -6.49374,-2.38114 -13.9256,-6.86538 -20.46399,-3.42164 -4.75634,2.50382 -7.45621,7.82896 -8.95465,12.76283 -2.8984,9.5377 -3.9026,21.02683 5.59326,27.09032 3.57295,2.28174 7.50758,3.47689 11.61099,4.39668 5.45127,1.22263 10.54846,1.83652 15.54441,-1.27545 2.22906,-1.38782 4.12623,-3.38435 5.59887,-5.54663 1.29172,-1.89573 2.44324,-3.88941 3.20743,-6.04904 7.62614,-21.5559 -7.02597,-26.08364 -12.13632,-27.95707 z"
     style="fill:#8d6b63"
     id="path28883" /><path
     d="m 358.34383,245.1687 c -0.50134,5.51458 -2.43609,12.19065 1.57754,16.53834 2.92038,3.16268 7.59657,4.15224 11.7235,4.29343 7.97823,0.27182 17.07371,-1.32286 19.80456,-9.92119 1.0272,-3.23534 1.13899,-6.52676 1.00431,-9.89078 -0.17999,-4.47027 -0.75755,-8.54039 -4.19646,-11.76267 -1.53453,-1.43768 -3.4698,-2.4938 -5.4477,-3.18694 -1.73359,-0.60791 -3.51304,-1.08677 -5.34119,-1.23204 -18.25258,-1.45031 -18.72988,10.82035 -19.12456,15.16185 z"
     style="fill:#855c52"
     id="path28885" /><path
     d="m 276.63081,316.56904 c 0.12731,5.53705 -1.0371,12.3891 3.44485,16.25328 3.25989,2.81061 8.01887,3.26254 12.13508,2.93416 7.95746,-0.6351 16.81242,-3.25327 18.54955,-12.10569 0.654,-3.33158 0.39037,-6.61337 -0.12505,-9.94042 -0.68597,-4.42075 -1.72245,-8.39945 -5.50516,-11.21081 -1.68771,-1.25434 -3.73003,-2.08315 -5.77308,-2.54728 -1.7918,-0.4072 -3.61443,-0.68122 -5.44831,-0.61767 -18.29824,0.63125 -17.37871,12.87673 -17.27788,17.23443 z"
     style="fill:#855c52"
     id="path28887" /></svg>
