<?xml version="1.0" encoding="UTF-8" standalone="no"?>
<svg
   width="128"
   height="128"
   version="1.1"
   id="svg33"
   sodipodi:docname="emoji_u2615.svg"
   inkscape:version="1.3 (0e150ed6c4, 2023-07-21)"
   xmlns:inkscape="http://www.inkscape.org/namespaces/inkscape"
   xmlns:sodipodi="http://sodipodi.sourceforge.net/DTD/sodipodi-0.dtd"
   xmlns:xlink="http://www.w3.org/1999/xlink"
   xmlns="http://www.w3.org/2000/svg"
   xmlns:svg="http://www.w3.org/2000/svg">
  <sodipodi:namedview
     id="namedview33"
     pagecolor="#ffffff"
     bordercolor="#000000"
     borderopacity="0.25"
     inkscape:showpageshadow="2"
     inkscape:pageopacity="0.0"
     inkscape:pagecheckerboard="0"
     inkscape:deskcolor="#d1d1d1"
     inkscape:zoom="2.867097"
     inkscape:cx="67.489868"
     inkscape:cy="69.582577"
     inkscape:window-width="1366"
     inkscape:window-height="697"
     inkscape:window-x="-8"
     inkscape:window-y="-8"
     inkscape:window-maximized="1"
     inkscape:current-layer="svg33" />
  <defs
     id="defs7">
    <ellipse
       id="a"
       cx="94.9"
       cy="-76.9"
       rx="23.87"
       ry="10.34" />
  </defs>
  <clipPath
     id="b">
    <use
       xlink:href="#a"
       overflow="visible"
       id="use8" />
  </clipPath>
  <defs
     id="defs10">
    <path
       id="c"
       d="M273.32-33.19zm0 0l-17.94.61c-.63.49-.17 1.51-.17 2.19v2.37c0 1.29-.53 2.41-1.36 3.43-2.26 2.76-6.27 3.88-9.66 5.22-2.29.9-7.9 3-7.58 5.78.4 3.38 7.14 4.8 10.06 5.38 8.08 1.4 24.28 2.06 36.57-.69 2.05-.46 7-1.56 7.68-3.69 1.24-3.91-7.7-6.15-10.46-7.19-3.79-1.42-8.02-3.37-8.03-7.48 0-1.14 0-2.25.18-3.34.14-.71-.16-2.21.71-2.59z" />
  </defs>
  <clipPath
     id="d">
    <use
       xlink:href="#c"
       overflow="visible"
       id="use11" />
  </clipPath>
  <g
     id="g27">
    <path
       d="M52.54 42.53c-23.82 0-47.64 9.02-47.64 27.04 0 20.08 9.42 55.63 47.64 55.63s47.64-35.55 47.64-55.63c0-18.02-23.82-27.04-47.64-27.04z"
       fill="#e0e0e0"
       id="path24" />
    <g
       fill="#e0e0e0"
       id="g25" />
    <defs
       id="defs25">
      <ellipse
         id="g"
         cx="52.54"
         cy="69.81"
         rx="40.17"
         ry="21.1" />
    </defs>
    <use
       xlink:href="#g"
       overflow="visible"
       fill="#90a4ae"
       id="use25" />
    <clipPath
       id="h">
      <use
         xlink:href="#g"
         overflow="visible"
         id="use26" />
    </clipPath>
    <ellipse
       cx="52.54"
       cy="80.23"
       rx="40.17"
       ry="21.1"
       clip-path="url(#h)"
       fill="#855c52"
       id="ellipse26" />
    <path
       d="M81.36 109.7c-.66 0-1.04-.01-1.07-.02a5.49 5.49 0 0 1-5.13-5.84A5.485 5.485 0 0 1 81 98.7c.26 0 26.31.25 30.43-13.86.98-3.35.88-5.86-.29-7.46-1.03-1.41-4.1-3.79-13.05-3.99a5.498 5.498 0 0 1-5.38-5.62c.07-3.04 2.61-5.43 5.62-5.38 10.43.22 17.72 3.08 21.69 8.48 3.3 4.5 3.96 10.23 1.97 17.04-6.05 20.67-34.7 21.79-40.63 21.79z"
       fill="#e0e0e0"
       id="path26" />
    <path
       d="M45.31 70.47c1.24-.15 2.46-1.33 2.03-2.34-.35-.84-1.57-1.04-2.6-1.08-4.1-.17-11.1 1.9-17.02 4.73-.81.38-2.22 1.4-2.43 2.21-.23.87.55 1.57 1.43 1.65.88.08 1.81-.28 2.69-.64 7.33-2.94 9.68-3.71 15.9-4.53z"
       fill="#bcaaa4"
       id="path27" />
  </g>
  <g
     id="g54916"
     transform="matrix(-1.2207043,0,0,1.2207043,125.25718,-1.6079824)"
     style="stroke-width:0.819199;fill:#afc7cf;fill-opacity:1">
    <path
       d="m 41.446647,30.91 c 0.64,3.08 -0.67,5.76 -2.29,7.86 -0.67,0.86 -1.06,2.31 -0.19,3.14 1.03,0.99 2.95,-0.02 3.97,-0.75 2.13,-1.52 3.72,-4.3 4.32,-7.34 0.64,-3.21 -0.13,-6.27 -1.24,-9.12 -1.04,-2.64 -2.79,-5.32 -2.75,-8.43 0.03,-3.18 1.26,-6 2.54,-8.61 0.16,-0.35 0.27,-0.76 0.22,-1.18 -0.12,-1.02 -0.83,-1.16 -1.46,-0.95 -0.27,0.1 -0.56,0.23 -0.84,0.39 -1.6,0.92 -2.98,2.5 -4.08,4.26 -1.56,2.48 -2.49,5.87 -2.39,9.07 0.07,2.27 0.76,4.32 1.68,6.21 0.85,1.77 2.08,3.4 2.51,5.45 z"
       style="fill:#afc7cf;fill-opacity:1;stroke-width:0.819199"
       id="path54910" />
    <path
       d="m 58.187211,28.687587 c 0.66,3.08 -0.68,5.76 -2.34,7.86 -0.68,0.86 -1.08,2.31 -0.19,3.14 1.05,0.99 3.01,-0.02 4.05,-0.75 2.18,-1.52 3.79,-4.3 4.4,-7.34 0.65,-3.21 -0.13,-6.27 -1.27,-9.12 -1.06,-2.64 -2.83,-5.32 -2.8,-8.43 0.04,-3.18 1.29,-6.0000003 2.59,-8.6100003 0.17,-0.35 0.28,-0.76 0.23,-1.18 -0.11,-1.02 -0.84,-1.16 -1.49,-0.95 -0.27,0.1 -0.57,0.23 -0.86,0.39 -1.63,0.92 -3.03,2.5 -4.16,4.26 -1.58,2.4800003 -2.52,5.8700003 -2.43,9.0700003 0.07,2.27 0.78,4.32 1.71,6.21 0.87,1.77 2.13,3.4 2.56,5.45 z"
       style="fill:#afc7cf;fill-opacity:1;stroke-width:0.819199"
       id="path54912" />
    <path
       d="m 76.18,30.91 c 0.64,3.08 -0.66,5.76 -2.27,7.86 -0.66,0.86 -1.06,2.31 -0.19,3.14 1.03,0.99 2.93,-0.02 3.94,-0.75 2.12,-1.52 3.69,-4.3 4.29,-7.34 0.63,-3.21 -0.12,-6.27 -1.24,-9.12 -1.03,-2.64 -2.76,-5.32 -2.73,-8.43 0.04,-3.18 1.25,-6 2.52,-8.61 C 80.67,7.31 80.77,6.9 80.72,6.48 80.61,5.46 79.9,5.32 79.27,5.53 c -0.28,0.1 -0.56,0.23 -0.84,0.39 -1.59,0.92 -2.95,2.5 -4.05,4.26 -1.54,2.48 -2.46,5.87 -2.37,9.07 0.07,2.27 0.75,4.32 1.66,6.21 0.86,1.77 2.09,3.4 2.51,5.45 z"
       style="fill:#afc7cf;fill-opacity:1;stroke-width:0.819199"
       id="path54914" />
  </g>
</svg>
