<?xml version="1.0" encoding="UTF-8" standalone="no"?>
<svg
   width="128"
   height="128"
   version="1.1"
   id="svg5"
   sodipodi:docname="emoji_u1f62c.svg"
   xml:space="preserve"
   inkscape:version="1.3 (0e150ed6c4, 2023-07-21)"
   xmlns:inkscape="http://www.inkscape.org/namespaces/inkscape"
   xmlns:sodipodi="http://sodipodi.sourceforge.net/DTD/sodipodi-0.dtd"
   xmlns="http://www.w3.org/2000/svg"
   xmlns:svg="http://www.w3.org/2000/svg"><defs
     id="defs5"><path
       id="SVGID_1_"
       d="M19.83,82.48c0,0,7.98-29.88,44.93-29.88c36.96,0,44.97,29.88,44.97,29.88S93.67,78,64.79,78       C35.9,78,19.83,82.48,19.83,82.48" /></defs><sodipodi:namedview
     id="namedview5"
     pagecolor="#ffffff"
     bordercolor="#000000"
     borderopacity="0.25"
     inkscape:showpageshadow="2"
     inkscape:pageopacity="0.0"
     inkscape:pagecheckerboard="0"
     inkscape:deskcolor="#d1d1d1"
     inkscape:zoom="2.7327225"
     inkscape:cx="191.75017"
     inkscape:cy="79.773924"
     inkscape:current-layer="svg5" /><g
     id="g11"
     transform="translate(1.5057999e-4)">&#10;	<g
   id="g10">&#10;		<path
   fill="#fcc21b"
   d="M 122.96,45.44 C 113.8,25.13 89.4,10.54 63.93,10.54 c -25.47,0 -49.87,14.59 -59.02,34.9 -13.92,30.84 6.71,56.21 6.71,56.21 h 0.01 c 6.78,9.14 27.63,15.81 52.31,15.81 25.79,0 47.37,-7.27 53.13,-17.05 h 0.01 c -0.01,-0.01 19.79,-24.13 5.88,-54.97 z"
   id="path1-3" />&#10;		<g
   id="g9">&#10;			&#10;		</g>&#10;		&#10;		&#10;	</g>&#10;	&#10;</g><g
     id="g12"
     transform="translate(-240.66267,100.25743)"><path
       d="m 335.66267,-4.8305475 h -62 c -7.7,0 -14,-6.2999995 -14,-13.9999995 0,-7.7 6.3,-14 14,-14 h 62 c 7.7,0 14,6.3 14,14 0,7.7 -6.3,13.9999995 -14,13.9999995 z"
       fill="#ffffff"
       id="path2" /><g
       fill="#838383"
       id="g4"
       transform="translate(240.66267,-106.43055)"><path
         d="m 47.44,75.17 h 3.12 v 25 h -3.12 z m -15,0 h 3.12 v 25 h -3.12 z m 60.01,0 h 3.12 v 25 h -3.12 z m -15.01,0 h 3.12 v 25 h -3.12 z m -15,0 h 3.12 v 25 h -3.12 z"
         id="path3" /><path
         d="m 20.49,86.04 h 87.01 v 3.12 H 20.49 Z"
         id="path4" /></g><path
       d="m 335.66267,-28.830547 c 5.51,0 10,4.49 10,10 0,5.51 -4.49,9.9999995 -10,9.9999995 h -62 c -5.51,0 -10,-4.4899995 -10,-9.9999995 0,-5.51 4.49,-10 10,-10 h 62 m 0,-4 h -62 c -7.7,0 -14,6.3 -14,14 0,7.7 6.3,13.9999995 14,13.9999995 h 62 c 7.7,0 14,-6.2999995 14,-13.9999995 0,-7.7 -6.3,-14 -14,-14 z"
       fill="#2f2f2f"
       id="path5" /></g><g
     id="g13"
     transform="translate(-0.16650581,2.8657083)"><ellipse
       cx="44.126514"
       cy="42.38377"
       rx="7.9200001"
       ry="9.6300001"
       fill="#2f2f2f"
       id="ellipse1" /><ellipse
       cx="84.206497"
       cy="42.38377"
       rx="7.9200001"
       ry="9.6300001"
       fill="#2f2f2f"
       id="ellipse2" /></g></svg>
