<?xml version="1.0" encoding="UTF-8" standalone="no"?>
<svg
   width="128"
   height="128"
   version="1.1"
   id="svg51"
   sodipodi:docname="emoji_u1f917.svg"
   inkscape:version="1.3 (0e150ed6c4, 2023-07-21)"
   xmlns:inkscape="http://www.inkscape.org/namespaces/inkscape"
   xmlns:sodipodi="http://sodipodi.sourceforge.net/DTD/sodipodi-0.dtd"
   xmlns="http://www.w3.org/2000/svg"
   xmlns:svg="http://www.w3.org/2000/svg">
  <defs
     id="defs51" />
  <sodipodi:namedview
     id="namedview51"
     pagecolor="#ffffff"
     bordercolor="#000000"
     borderopacity="0.25"
     inkscape:showpageshadow="2"
     inkscape:pageopacity="0.0"
     inkscape:pagecheckerboard="0"
     inkscape:deskcolor="#d1d1d1"
     inkscape:zoom="3.9451557"
     inkscape:cx="-6.3368855"
     inkscape:cy="114.82436"
     inkscape:current-layer="svg51" />
  <style
     id="style1">.st0{fill:#fcc21b}.st1{fill:#fcc01c}.st2{fill:#fcbe1c}.st3{fill:#fbbb1d}.st4{fill:#fbb91e}.st5{fill:#fbb71e}.st6{fill:#fbb51f}.st7{fill:#fab220}.st8{fill:#fab020}.st9{fill:#faae21}.st10{fill:#faac22}.st11{fill:#f9a922}.st12{fill:#f9a723}.st13{fill:#f9a524}.st14{fill:#f9a324}.st15{fill:#f8a025}.st16{fill:#f89e26}.st17{fill:#f89c26}.st18{fill:#f89a27}.st19{fill:#f79728}.st20{fill:#f79528}.st21{fill:#f79329}.st22{fill:#2f2f2f}.st23{fill:#fac036}</style>
  <g
     id="g12"
     transform="translate(365.01334,45.441222)"
     style="fill:#fcc21b;fill-opacity:1">&#10;		<path
   id="path1-9"
   d="m -301.01252,-36.151183 c -24.89998,0 -48.74923,13.790254 -57.69922,32.9902343 -13.57608,29.0987247 0.7406,56.3767767 0.79101,56.4726567 3.37337,10.852871 25.99815,19.319991 53.89844,19.896481 0.99658,0.03929 1.99947,0.06055 3.00977,0.06055 1.01061,0 2.01485,-0.02126 3.01171,-0.06055 27.87717,-0.57639 50.47963,-9.03057 53.87891,-19.87109 l 0.01,-0.0078 c 0,0 14.39881,-27.340264 0.79882,-56.4902347 -8.94999,-19.1999803 -32.79924,-32.9902343 -57.69921,-32.9902343 z"
   style="fill:#fcc21b;fill-opacity:1" />
&#10;		&#10;		&#10;		&#10;		&#10;	</g>
  <path
     class="st0"
     d="M101.9 82.1c-8.3 3-17.4-1.2-20.5-9.4-3-8.2 1.3-17.2 9.5-20.2 8.3-3 17.4 1.2 20.5 9.4 3.1 8.2-1.2 17.2-9.5 20.2z"
     id="path2" />
  <path
     class="st1"
     d="M101.7 81.5c-8 2.9-16.7-1.2-19.6-9-2.9-7.8 1.2-16.5 9.2-19.4 7.9-2.9 16.7 1.2 19.6 9 2.8 7.9-1.3 16.5-9.2 19.4z"
     id="path3" />
  <path
     class="st2"
     d="M101.5 80.9c-7.6 2.7-16-1.1-18.8-8.6-2.8-7.5 1.1-15.8 8.8-18.6 7.6-2.7 16 1.1 18.8 8.6 2.7 7.5-1.2 15.9-8.8 18.6z"
     id="path4" />
  <path
     class="st3"
     d="M101.3 80.3C94 82.9 86 79.2 83.3 72c-2.6-7.2 1.1-15.1 8.4-17.7 7.3-2.6 15.3 1.1 18 8.3 2.6 7.1-1.2 15.1-8.4 17.7z"
     id="path5" />
  <path
     class="st4"
     d="M101 79.7c-6.9 2.5-14.6-1-17.1-7.9-2.5-6.8 1-14.4 8-16.9 6.9-2.5 14.6 1 17.1 7.9 2.5 6.8-1 14.4-8 16.9z"
     id="path6" />
  <path
     class="st5"
     d="M100.8 79.1c-6.6 2.4-13.9-1-16.3-7.5-2.4-6.5 1-13.7 7.6-16.1 6.6-2.4 13.9 1 16.3 7.5 2.4 6.5-1 13.7-7.6 16.1z"
     id="path7" />
  <path
     class="st6"
     d="M100.6 78.5c-6.3 2.2-13.2-.9-15.5-7.1-2.3-6.2.9-13 7.2-15.3 6.2-2.2 13.2.9 15.5 7.1 2.3 6.2-.9 13-7.2 15.3z"
     id="path8" />
  <path
     class="st7"
     d="M100.4 77.9c-5.9 2.1-12.5-.9-14.6-6.8-2.1-5.8.9-12.3 6.8-14.5 5.9-2.1 12.5.9 14.6 6.7 2.1 6-.9 12.4-6.8 14.6z"
     id="path9" />
  <path
     class="st8"
     d="M100.2 77.3c-5.6 2-11.8-.8-13.8-6.3s.8-11.6 6.4-13.6c5.6-2 11.8.8 13.8 6.3s-.9 11.6-6.4 13.6z"
     id="path10" />
  <path
     class="st9"
     d="M99.9 76.7c-5.3 1.9-11-.8-13-6-1.9-5.2.8-10.9 6-12.8 5.2-1.9 11 .8 13 6 2 5.1-.7 10.9-6 12.8z"
     id="path11" />
  <path
     class="st10"
     d="M99.7 76.1a9.41 9.41 0 0 1-12.1-5.6c-1.8-4.8.7-10.2 5.7-12 4.9-1.8 10.3.7 12.1 5.6 1.8 4.8-.8 10.2-5.7 12z"
     id="path12" />
  <path
     class="st11"
     d="M99.5 75.5c-4.6 1.6-9.6-.7-11.3-5.2-1.7-4.5.7-9.5 5.3-11.2 4.6-1.6 9.6.7 11.3 5.2 1.6 4.5-.7 9.5-5.3 11.2z"
     id="path13" />
  <path
     class="st12"
     d="M99.3 74.9c-4.2 1.5-8.9-.6-10.5-4.8-1.5-4.2.6-8.8 4.9-10.3 4.2-1.5 8.9.6 10.5 4.8 1.5 4.1-.7 8.7-4.9 10.3z"
     id="path14" />
  <path
     class="st13"
     d="M99 74.2c-3.9 1.4-8.2-.6-9.6-4.4-1.4-3.8.6-8.1 4.5-9.5 3.9-1.4 8.2.6 9.6 4.4 1.5 3.9-.6 8.1-4.5 9.5z"
     id="path15" />
  <path
     class="st14"
     d="M98.8 73.6c-3.6 1.3-7.5-.5-8.8-4-1.3-3.5.5-7.4 4.1-8.7 3.6-1.3 7.5.5 8.8 4.1 1.3 3.5-.5 7.4-4.1 8.6z"
     id="path16" />
  <path
     class="st15"
     d="M98.6 73c-3.2 1.2-6.8-.5-8-3.7-1.2-3.2.5-6.7 3.7-7.9 3.2-1.2 6.8.5 8 3.7 1.2 3.3-.5 6.8-3.7 7.9z"
     id="path17" />
  <path
     class="st16"
     d="M98.4 72.4c-2.9 1-6.1-.4-7.1-3.3s.4-6 3.3-7 6.1.4 7.1 3.3c1.1 2.9-.4 6-3.3 7z"
     id="path18" />
  <path
     class="st17"
     d="M98.2 71.8c-2.6.9-5.4-.4-6.3-2.9-.9-2.5.4-5.3 2.9-6.2 2.5-.9 5.4.4 6.3 2.9.9 2.5-.4 5.3-2.9 6.2z"
     id="path19" />
  <path
     class="st18"
     d="M97.9 71.2c-2.2.8-4.7-.3-5.5-2.5-.8-2.2.3-4.6 2.5-5.4 2.2-.8 4.7.3 5.5 2.5.9 2.2-.3 4.6-2.5 5.4z"
     id="path20" />
  <path
     class="st19"
     d="M97.7 70.6c-1.9.7-3.9-.3-4.6-2.1-.7-1.9.3-3.9 2.2-4.6 1.9-.7 3.9.3 4.6 2.1.7 1.9-.3 4-2.2 4.6z"
     id="path21" />
  <path
     class="st20"
     d="M97.5 70c-1.5.6-3.2-.2-3.8-1.7-.6-1.5.2-3.2 1.8-3.8 1.5-.6 3.2.2 3.8 1.8.5 1.5-.3 3.2-1.8 3.7z"
     id="path22" />
  <path
     class="st21"
     d="M97.3 69.4c-1.2.4-2.5-.2-3-1.4-.4-1.2.2-2.5 1.4-2.9 1.2-.4 2.5.2 3 1.4.4 1.2-.2 2.5-1.4 2.9z"
     id="path23" />
  <g
     id="g45">
    <path
       class="st0"
       d="M35.4 81.5c-8.3 3-17.4-1.2-20.5-9.4-3-8.2 1.3-17.2 9.5-20.2 8.3-3 17.4 1.2 20.5 9.4 3.1 8.2-1.2 17.2-9.5 20.2z"
       id="path24" />
    <path
       class="st1"
       d="M35.2 80.9c-8 2.9-16.7-1.2-19.6-9-2.9-7.8 1.2-16.5 9.1-19.4 7.9-2.8 16.7 1.2 19.6 9 2.9 7.8-1.2 16.5-9.1 19.4z"
       id="path25" />
    <path
       class="st2"
       d="M35 80.3c-7.6 2.7-16-1.1-18.8-8.6-2.8-7.5 1.1-15.8 8.8-18.6 7.6-2.7 16 1.1 18.8 8.7 2.7 7.4-1.2 15.7-8.8 18.5z"
       id="path26" />
    <path
       class="st3"
       d="M34.8 79.7c-7.3 2.6-15.3-1.1-18-8.3-2.6-7.2 1.1-15.1 8.4-17.7 7.3-2.6 15.3 1.1 18 8.3 2.6 7.1-1.2 15.1-8.4 17.7z"
       id="path27" />
    <path
       class="st4"
       d="M34.5 79.1c-6.9 2.5-14.6-1-17.1-7.9-2.5-6.8 1-14.4 8-16.9 6.9-2.5 14.6 1 17.1 7.9 2.5 6.8-1 14.4-8 16.9z"
       id="path28" />
    <path
       class="st5"
       d="M34.3 78.5c-6.6 2.4-13.9-1-16.3-7.5-2.4-6.5 1-13.7 7.6-16.1 6.6-2.4 13.9 1 16.3 7.5 2.4 6.5-1 13.7-7.6 16.1z"
       id="path29" />
    <path
       class="st6"
       d="M34.1 77.9c-6.3 2.2-13.2-.9-15.5-7.1-2.3-6.2.9-13 7.2-15.3 6.2-2.2 13.2.9 15.5 7.1 2.3 6.2-1 13-7.2 15.3z"
       id="path30" />
    <path
       class="st7"
       d="M33.9 77.3c-5.9 2.1-12.5-.9-14.6-6.7-2.1-5.8.9-12.3 6.8-14.5 5.9-2.1 12.4.9 14.6 6.7 2.1 5.9-.9 12.3-6.8 14.5z"
       id="path31" />
    <path
       class="st8"
       d="M33.7 76.7c-5.6 2-11.8-.8-13.8-6.3s.8-11.6 6.4-13.6c5.6-2 11.8.8 13.8 6.4 2 5.4-.9 11.5-6.4 13.5z"
       id="path32" />
    <path
       class="st9"
       d="M33.4 76.1c-5.3 1.9-11-.8-13-6-1.9-5.2.8-10.9 6-12.8 5.2-1.9 11 .8 13 6 2 5.1-.7 10.9-6 12.8z"
       id="path33" />
    <path
       class="st10"
       d="M33.2 75.5a9.41 9.41 0 0 1-12.1-5.6c-1.8-4.8.7-10.2 5.7-12 4.9-1.8 10.3.7 12.1 5.6 1.7 4.8-.8 10.2-5.7 12z"
       id="path34" />
    <path
       class="st11"
       d="M33 74.9c-4.6 1.6-9.6-.7-11.3-5.2-1.7-4.5.7-9.5 5.3-11.2 4.6-1.6 9.6.7 11.3 5.2 1.6 4.5-.7 9.5-5.3 11.2z"
       id="path35" />
    <path
       class="st12"
       d="M32.8 74.2c-4.2 1.5-8.9-.6-10.5-4.8-1.5-4.2.6-8.8 4.9-10.3 4.2-1.5 8.9.6 10.5 4.8 1.5 4.2-.7 8.8-4.9 10.3z"
       id="path36" />
    <path
       class="st13"
       d="M32.5 73.6c-3.9 1.4-8.2-.6-9.6-4.4-1.4-3.8.6-8.1 4.5-9.5 3.9-1.4 8.2.6 9.6 4.4 1.4 3.9-.6 8.1-4.5 9.5z"
       id="path37" />
    <path
       class="st14"
       d="M32.3 73c-3.6 1.3-7.5-.5-8.8-4-1.3-3.5.5-7.4 4.1-8.7 3.6-1.3 7.5.5 8.8 4 1.3 3.6-.5 7.5-4.1 8.7z"
       id="path38" />
    <path
       class="st15"
       d="M32.1 72.4c-3.2 1.2-6.8-.5-8-3.7-1.2-3.2.5-6.7 3.7-7.9 3.2-1.2 6.8.5 8 3.7 1.2 3.3-.5 6.8-3.7 7.9z"
       id="path39" />
    <path
       class="st16"
       d="M31.9 71.8c-2.9 1-6.1-.4-7.1-3.3-1-2.8.4-6 3.3-7s6.1.4 7.1 3.3c1 2.8-.4 6-3.3 7z"
       id="path40" />
    <path
       class="st17"
       d="M31.7 71.2c-2.6.9-5.4-.4-6.3-2.9-.9-2.5.4-5.3 2.9-6.2 2.5-.9 5.4.4 6.3 2.9.9 2.5-.4 5.3-2.9 6.2z"
       id="path41" />
    <path
       class="st18"
       d="M31.4 70.6c-2.2.8-4.7-.3-5.5-2.5-.8-2.2.3-4.6 2.5-5.4 2.2-.8 4.7.3 5.5 2.5.9 2.2-.3 4.6-2.5 5.4z"
       id="path42" />
    <path
       class="st19"
       d="M31.2 70c-1.9.7-3.9-.3-4.6-2.1-.7-1.8.3-3.9 2.2-4.6 1.9-.7 3.9.3 4.6 2.1.6 1.9-.3 4-2.2 4.6z"
       id="path43" />
    <path
       class="st20"
       d="M31 69.4c-1.5.6-3.2-.2-3.8-1.7-.6-1.5.2-3.2 1.8-3.8 1.5-.6 3.2.2 3.8 1.7.5 1.6-.3 3.3-1.8 3.8z"
       id="path44" />
    <path
       class="st21"
       d="M30.8 68.8c-1.2.4-2.5-.2-3-1.4-.4-1.2.2-2.5 1.4-2.9 1.2-.4 2.5.2 3 1.4.4 1.2-.2 2.5-1.4 2.9z"
       id="path45" />
  </g>
  <path
     class="st22"
     d="M33.1 57.9c-.7 1.2-2.2 1.5-3.4.8-1.2-.7-1.6-2.2-.9-3.4.2-.3 4.2-8 13-8 8.9 0 12.7 7.5 13 8 .7 1.2.3 2.7-.9 3.4-.4.2-.8.3-1.3.3-.8 0-1.7-.4-2.1-1.2-.1-.2-2.8-5.6-8.8-5.6-5.8.1-8.4 5.5-8.6 5.7zM98.4 58.7c-.4.2-.8.3-1.2.3-.9 0-1.7-.4-2.1-1.2-.1-.2-2.8-5.6-8.8-5.6-6.1 0-8.8 5.5-8.8 5.6-.7 1.2-2.2 1.6-3.4.9-1.2-.7-1.6-2.2-.9-3.4.4-.7 4.2-8 13-8 8.9 0 12.6 7.3 13 8 .8 1.2.4 2.7-.8 3.4zM64.1 84.3C48 84.3 40.9 74 40.6 73.6c-1-1.3-.7-3.1.6-4.1 1.3-1 3.1-.7 4.1.6.3.4 5.7 8.4 19 8.4 12.2 0 18-7.7 18.2-8.1.9-1.3 2.7-1.7 4.1-.8 1.3.9 1.7 2.7.8 4-.3.5-7.4 10.7-23.3 10.7z"
     id="path46" />
  <g
     id="g51">
    <path
       class="st23"
       d="M30.7 119.7c-3.5 0-6.7-1-9.5-3-3.2-2.2-5.6-3.2-5.7-3.2-4.1-1.7-9.2-4.6-9.2-4.6-2.1-1.2-3.8-3.7-2.7-6.4.5-1.2 1.3-2.1 2.4-2.5-.9-.5-1.3-.8-1.4-.9-1.7-1.3-3.5-4.3-1.9-6.8.9-1.3 2.1-2.2 3.6-2.5-1.4-1.7-2.1-4.2-.8-6.3.9-1.4 2.6-2.3 4.2-2.3 1.2 0 2.4.5 3.4 1.3l.1.1c-.5-1.6-.2-3.3 1.2-4.7 1.1-1 2.3-1.5 3.6-1.5.9 0 2.4.3 3.8 1.8s7.9 8.5 8.8 9.6c.6.6 2.1 2.3 2.3 2.5l.1.1c-.3-.5-.5-1-.6-1.7-.5-1.8-.1-3.7 1-5.1.9-1.2 2.2-1.8 3.7-1.8 3.4 0 4.7 3.2 5.3 4.8.5 1.4 1.3 2.3 2.1 3.4.9 1.2 1.9 2.6 2.9 4.7 1.3 3 1.6 7.3.8 11-1.8 7.9-6.7 10.8-10.8 12.5-1.6.9-3.9 1.5-6.7 1.5z"
       id="path47" />
    <path
       class="st22"
       d="M18 78.6c.7 0 1.5.3 2.3 1.2 1.4 1.5 7.8 8.5 8.8 9.6.6.7 2.3 2.5 2.3 2.6.9.9 1.8 1.9 3 3.1 0 0 .9.9 1.8.9.6 0 1.2-.4 1.7-1.6-1.5-2.8-3-3.6-3.6-5.8-.6-2.3.8-4.4 2.7-4.4 1.8 0 2.6 1.4 3.4 3.5 1.3 3.2 3.3 4.4 5 8.2 1.2 2.6 1.4 6.6.7 9.8-1.5 6.6-5.2 9.3-9.6 11.1-1.5.6-3.5 1.1-5.8 1.1-2.6 0-5.6-.7-8.4-2.6-3.4-2.4-6-3.4-6-3.4-3.6-1.5-8.1-4-9-4.5-1.1-.6-2.6-2.2-1.9-3.9.4-1 1.3-1.7 2.4-1.7.5 0 1.1.1 1.7.5 1.1.6 3.6 2.1 8 4.3 0 0 .7-.2.8-.6.1-.3.1-.7-.4-1.3C15.3 103 6.3 98 5.7 97.5c-1-.7-2.3-2.7-1.4-4.1.6-.9 1.6-1.6 2.7-1.6.6 0 1.1.2 1.7.6 1.3.9 7.1 4.7 11.1 7.3 0 0 1.8-.3 1.1-1.8-3.4-2.2-12.2-8.2-12.9-9-.9-.9-1.9-2.7-.9-4.2.6-.8 1.5-1.4 2.6-1.4.7 0 1.4.2 2.1.8 1.4 1.2 9.9 8.1 12.4 10.2h.4c.5 0 1.1-.2 1-1.3 0 0-8.8-8.3-9.4-9.1-.8-1-1.8-3-.3-4.4.5-.5 1.3-.9 2.1-.9m0-4c-1.8 0-3.5.7-4.9 2.1-.9.8-1.5 1.8-1.8 2.9-.5-.1-1-.2-1.6-.2-2.3 0-4.6 1.2-5.9 3.1-1.4 2-1.3 4.4-.5 6.4-.9.6-1.7 1.4-2.4 2.4-1.9 3-.7 6.7 1.7 8.9-.4.5-.7 1-.9 1.7-1.5 3.7.8 7.2 3.6 8.8.1 0 5.3 3.1 9.5 4.8 0 0 2.3 1 5.3 3 3.2 2.2 6.9 3.3 10.7 3.3 3.2 0 5.7-.8 7.3-1.4 4.5-1.8 10-5.1 12-13.9.9-4.1.6-8.9-.9-12.3-1-2.3-2.2-3.8-3.1-5.1-.8-1.1-1.4-1.9-1.8-3-.7-1.6-2.4-6-7.1-6h-.1c-2 0-4 .9-5.2 2.6-.5.7-.9 1.5-1.2 2.3-2.3-2.5-6.2-6.8-7.3-8-2.1-2-4.1-2.4-5.4-2.4z"
       id="path48" />
    <g
       id="g50">
      <path
         class="st23"
         d="M97.3 119.7c-2.9 0-5.1-.7-6.6-1.3-4.1-1.7-9-4.6-10.8-12.5-.9-3.7-.5-8 .8-11 .9-2.1 2-3.5 2.9-4.7.8-1.1 1.5-2.1 2.1-3.4.6-1.5 1.9-4.7 5.3-4.8 1.5 0 2.8.7 3.7 1.8 1.1 1.4 1.4 3.3 1 5.1-.2.6-.4 1.2-.6 1.7l.2-.2c.1-.2 1.7-1.8 2.2-2.5.9-1.1 7.4-8.1 8.8-9.6 1.4-1.5 2.8-1.8 3.8-1.8 1.3 0 2.5.5 3.6 1.5 1.4 1.3 1.7 3 1.2 4.7.1 0 .1-.1.1-.1 1-.9 2.1-1.3 3.4-1.3 1.7 0 3.3.9 4.2 2.2 1.4 2 .7 4.6-.8 6.3 1.4.2 2.7 1.1 3.6 2.5 1.6 2.5-.1 5.5-1.9 6.8-.2.1-.6.4-1.4.9 1.1.5 1.9 1.4 2.4 2.5 1.1 2.6-.7 5.1-2.7 6.4-.1 0-5.1 3-9.2 4.6 0 0-2.5 1-5.7 3.2-2.9 2-6.1 3-9.6 3z"
         id="path49" />
      <path
         class="st22"
         d="M110 78.6c.8 0 1.6.4 2.2 1 1.5 1.4.5 3.4-.3 4.4-.6.8-9.4 9.1-9.4 9.1-.1 1.1.5 1.3 1 1.3h.4c2.5-2.2 11-9 12.4-10.2.6-.6 1.4-.8 2.1-.8 1 0 2 .5 2.6 1.4 1 1.5-.1 3.4-.9 4.2-.8.8-9.6 6.8-12.9 9-.7 1.5 1.1 1.8 1.1 1.8 4-2.6 9.8-6.5 11.1-7.3.6-.4 1.2-.6 1.7-.6 1.1 0 2.1.7 2.7 1.6.9 1.5-.4 3.4-1.4 4.1-.6.5-9.6 5.5-12.2 6.9-.5.6-.6 1-.4 1.3.2.5.8.6.8.6 4.4-2.2 6.9-3.7 8-4.3.6-.3 1.2-.5 1.7-.5 1.1 0 2 .6 2.4 1.7.7 1.7-.8 3.3-1.9 3.9-.8.5-5.4 3-9 4.5 0 0-2.6 1.1-6 3.4-2.8 2-5.8 2.6-8.4 2.6-2.3 0-4.3-.5-5.8-1.1-4.4-1.8-8.1-4.5-9.6-11.1-.7-3.2-.5-7.1.7-9.8 1.6-3.7 3.7-5 5-8.2.8-2.1 1.7-3.5 3.4-3.5 1.9 0 3.3 2.1 2.7 4.4-.5 2.2-2 3-3.6 5.8.4 1.2 1.1 1.6 1.7 1.6.9 0 1.8-.9 1.8-.9 1.1-1.1 2.1-2.2 3-3.1.1-.1 1.7-1.9 2.3-2.6 1-1.1 7.3-8.1 8.8-9.6.7-.7 1.5-1 2.2-1m0-4c-1.3 0-3.3.4-5.2 2.4-1.1 1.2-5.1 5.5-7.3 8-.3-.8-.7-1.6-1.2-2.3-1.3-1.7-3.2-2.6-5.3-2.6h-.1c-4.7.1-6.4 4.4-7.1 6-.4 1.1-1 1.9-1.8 3-.9 1.2-2.1 2.8-3.1 5.1-1.5 3.4-1.8 8.2-.9 12.3 2 8.8 7.5 12.1 12 13.9 1.6.6 4.1 1.4 7.3 1.4 3.8 0 7.5-1.2 10.7-3.3 3-2.1 5.3-3 5.3-3 4.2-1.7 9.4-4.7 9.5-4.8 2.8-1.6 5.1-5.1 3.6-8.8-.2-.6-.6-1.2-.9-1.7 2.4-2.2 3.6-5.9 1.7-8.9-.6-1-1.4-1.8-2.4-2.4.8-2 .9-4.4-.5-6.4-1.3-1.9-3.6-3.1-5.9-3.1-.5 0-1.1.1-1.6.2-.3-1.1-.9-2.1-1.8-2.9-1.5-1.4-3.2-2.1-5-2.1z"
         id="path50" />
    </g>
  </g>
</svg>
