<?xml version="1.0" encoding="UTF-8" standalone="no"?>
<svg
   width="128"
   height="128"
   version="1.1"
   id="svg4"
   sodipodi:docname="emoji_u1f587.svg"
   inkscape:version="1.3 (0e150ed6c4, 2023-07-21)"
   xmlns:inkscape="http://www.inkscape.org/namespaces/inkscape"
   xmlns:sodipodi="http://sodipodi.sourceforge.net/DTD/sodipodi-0.dtd"
   xmlns="http://www.w3.org/2000/svg"
   xmlns:svg="http://www.w3.org/2000/svg">
  <defs
     id="defs4" />
  <sodipodi:namedview
     id="namedview4"
     pagecolor="#ffffff"
     bordercolor="#000000"
     borderopacity="0.25"
     inkscape:showpageshadow="2"
     inkscape:pageopacity="0.0"
     inkscape:pagecheckerboard="0"
     inkscape:deskcolor="#d1d1d1"
     inkscape:zoom="2.867097"
     inkscape:cx="18.834382"
     inkscape:cy="83.533971"
     inkscape:window-width="1366"
     inkscape:window-height="697"
     inkscape:window-x="-8"
     inkscape:window-y="-8"
     inkscape:window-maximized="1"
     inkscape:current-layer="svg4" />
  <g
     id="g6"
     transform="matrix(0.9654878,0,0,0.9654878,180.89853,6.2663564)"
     style="stroke-width:1.03575">
    <path
       style="clip-rule:evenodd;fill:#3bb2de;fill-opacity:1;fill-rule:nonzero;stroke-width:1.03574;stroke-linejoin:round;stroke-miterlimit:2"
       d="m -118.55469,1.8144531 c -1.67488,-0.024892 -3.39352,0.1787189 -5.10742,0.6367188 -3.47979,0.9373893 -6.50765,2.6929098 -8.7793,5.0273437 0.49771,0.095186 0.99626,0.2032428 1.49414,0.3359375 2.09209,0.562083 3.98794,1.4674772 5.66016,2.6093749 1.01151,-0.5966907 2.14515,-1.0786654 3.38281,-1.4101561 5.52512,-1.4749572 11.04138,1.1425451 12.30469,5.8359371 l 16.136719,60.240235 c 0.56599,2.070448 -2.254121,2.941264 -2.818359,3.091797 -1.955446,0.524496 -5.82371,0.968512 -6.09961,-0.0625 l -13.20312,-49.25586 -3.48047,0.931641 -1.65039,6.162109 11.76757,43.931641 c 1.29402,4.80941 8.92321,6.333369 14.419926,4.861328 5.785878,-1.567449 8.989174,-6.368562 7.628906,-11.423828 L -103.03906,13.091797 c -1.81002,-6.7552053 -8.25782,-11.1694775 -15.51563,-11.2773439 z"
       id="path5" />
    <path
       d="m -136.17783,116.77343 -0.006,0.004 c -5.4667,3.15629 -11.82595,3.98779 -17.90864,2.35802 -6.09257,-1.63247 -11.19471,-5.53494 -14.3474,-10.99536 -3.15179,-5.45951 -3.98418,-11.819672 -2.35172,-17.912239 l 19.23492,-71.763897 c 1.16104,-4.417897 4.00753,-7.894746 8.01597,-9.7786379 3.69325,-1.7447103 8.16233,-2.051808 12.5928,-0.8710082 9.1375,2.4549851 14.76853,11.2126591 12.54072,19.5267461 l -16.13969,60.233365 c -1.34961,5.058133 -6.52448,7.614587 -12.31893,6.079098 -5.49633,-1.473539 -11.34196,-6.6071 -10.0579,-11.419191 l 13.2061,-49.26584 6.5604,1.758179 -13.19353,49.257763 c -0.27657,1.030834 3.29367,2.58069 5.24939,3.104193 0.56391,0.151753 3.44183,0.808161 3.98689,-1.267901 l 16.14687,-60.237845 c 1.25264,-4.696261 -2.21613,-9.722068 -7.7385,-11.207272 -2.87074,-0.76954 -5.68221,-0.610604 -7.91989,0.447178 -2.1883,1.020965 -3.70762,2.903959 -4.3712,5.381394 l -19.23402,71.763896 c -1.17002,4.303858 -0.56571,8.901349 1.67557,12.757129 2.24486,3.8899 5.87167,6.66814 10.22043,7.83279 4.33708,1.16284 8.86004,0.57468 12.74994,-1.67199 3.89619,-2.24935 6.68431,-5.87256 7.83638,-10.21323 l 7.07402,-26.405924 6.5604,1.758179 -7.08121,26.408615 c -1.62169,6.09616 -5.52147,11.18842 -10.98188,14.34021 z"
       style="clip-rule:evenodd;fill:#67939c;fill-opacity:1;fill-rule:nonzero;stroke-width:1.03574;stroke-linejoin:round;stroke-miterlimit:2"
       id="path1-2" />
    <path
       style="clip-rule:evenodd;fill:#3bb2de;fill-opacity:1;fill-rule:nonzero;stroke-width:1.03574;stroke-linejoin:round;stroke-miterlimit:2"
       d="m -135.88281,13.900391 c -0.11189,-0.0031 -0.22101,0.004 -0.33203,0.0039 -0.7193,2.568575 -0.72101,5.326978 0.0293,8.074219 l 6.08985,22.734375 13.13476,49.03125 c 1.63253,6.092531 5.53293,11.185705 10.99219,14.337885 5.4605,3.15252 11.83128,3.98019 17.923828,2.34766 6.082638,-1.62992 11.173934,-5.52935 14.330078,-10.996092 l 0.0039,-0.0059 c 3.152954,-5.459722 3.983502,-11.819894 2.339844,-17.910156 l -7.072265,-26.410156 -6.560547,1.757812 7.078125,26.404297 c 1.172618,4.335158 0.569838,8.86759 -1.679688,12.763672 -2.245406,3.890612 -5.869599,6.660773 -10.207031,7.822263 -4.348462,1.16577 -8.878524,0.57445 -12.767584,-1.67188 -3.86888,-2.218544 -6.69142,-5.89868 -7.83008,-10.21093 l -16.17187,-60.367187 -3.05274,-11.398438 c -0.42148,-1.572422 -0.42164,-3.110059 -0.0137,-4.529297 -0.92343,-0.554316 -1.94698,-1.003773 -3.05859,-1.302734 -1.07653,-0.288577 -2.14306,-0.445603 -3.17578,-0.474609 z"
       id="path6" />
  </g>
</svg>
