<?xml version="1.0" encoding="UTF-8" standalone="no"?>
<svg
   width="128"
   height="128"
   style="enable-background:new 0 0 128 128;"
   version="1.1"
   id="svg5"
   sodipodi:docname="emoji_u1a73.svg"
   inkscape:version="1.3 (0e150ed6c4, 2023-07-21)"
   xmlns:inkscape="http://www.inkscape.org/namespaces/inkscape"
   xmlns:sodipodi="http://sodipodi.sourceforge.net/DTD/sodipodi-0.dtd"
   xmlns="http://www.w3.org/2000/svg"
   xmlns:svg="http://www.w3.org/2000/svg">
  <defs
     id="defs5">
    <inkscape:path-effect
       effect="fillet_chamfer"
       id="path-effect5"
       is_visible="true"
       lpeversion="1"
       nodesatellites_param="F,0,1,1,0,1.3343675,0,1 @ F,0,0,1,0,0,0,1 @ F,0,1,1,0,1.3343675,0,1 @ F,0,1,1,0,1.3343675,0,1 @ F,0,0,1,0,0,0,1 @ F,0,1,1,0,1.3343675,0,1"
       radius="0"
       unit="px"
       method="auto"
       mode="F"
       chamfer_steps="1"
       flexible="false"
       use_knot_distance="true"
       apply_no_radius="true"
       apply_with_radius="true"
       only_selected="false"
       hide_knots="false" />
  </defs>
  <sodipodi:namedview
     id="namedview5"
     pagecolor="#ffffff"
     bordercolor="#000000"
     borderopacity="0.25"
     inkscape:showpageshadow="2"
     inkscape:pageopacity="0.0"
     inkscape:pagecheckerboard="0"
     inkscape:deskcolor="#d1d1d1"
     showguides="false"
     inkscape:zoom="2.8284271"
     inkscape:cx="55.154329"
     inkscape:cy="74.422988"
     inkscape:window-width="1366"
     inkscape:window-height="697"
     inkscape:window-x="-8"
     inkscape:window-y="-8"
     inkscape:window-maximized="1"
     inkscape:current-layer="svg5" />
  <path
     d="m 111.29508,95.745185 c -1.29453,-8.70298 -1.82867,-17.514549 -3.0246,-26.224897 -0.91426,-6.658825 -2.12191,-13.258989 -3.34112,-19.870899 -0.30481,-1.652977 -0.36411,-1.949807 -0.91441,-4.958931 -0.55099,-3.012875 -1.60303,-5.932416 -2.05157,-8.944835 -0.50105,-3.365028 -0.11834,-6.799352 -0.51582,-10.175776 -0.66933,-5.685644 -5.265873,-7.180521 -10.14061,-8.968282 -5.769975,-2.116082 -11.81655,-3.334537 -17.936563,-3.903841 -2.449686,-0.227877 -4.912029,-0.342451 -7.362197,-0.351697 -0.656498,-0.0025 -1.348173,-0.05862 -2.016399,-0.05862 -0.679947,0 -1.371624,0.05615 -2.028121,0.05862 -2.461891,0.0093 -4.924193,0.124284 -7.362197,0.351697 -6.108247,0.569768 -12.165945,1.789494 -17.92484,3.903841 -4.874098,1.789498 -9.465806,3.281908 -10.128883,8.991727 -0.392016,3.375701 -0.0086,6.799944 -0.504099,10.175776 -0.442325,3.01334 -1.496152,5.932774 -2.051568,8.944836 l -0.914413,4.958932 c -1.217127,6.600572 -2.421885,13.212761 -3.341124,19.870899 -1.202668,8.711038 -2.54588,17.439199 -3.024598,26.224897 -0.772785,14.182608 33.223214,15.021918 35.837958,2.063291 0.683498,-3.387404 1.16821,-6.800265 1.817103,-10.199223 1.074425,-5.627944 2.523711,-8.362299 3.798331,-13.95502 0.448697,-1.968774 1.034123,-3.889704 1.767228,-5.687716 0.330666,-0.810989 0.585099,-1.649563 0.976923,-2.394386 0.172621,-0.328136 0.460074,-1.191812 0.716411,-1.411783 0.796638,-0.683629 3.954082,-0.703919 4.754359,0 0.25266,0.22224 0.532934,1.083647 0.705555,1.411783 0.391824,0.744823 0.641736,1.580613 0.976922,2.394386 0.739431,1.795205 1.324341,3.717626 1.76723,5.687716 1.256981,5.591405 2.717499,8.316574 3.786607,13.95502 0.642485,3.388453 1.546815,6.755991 1.817103,10.199223 1.23536,15.737467 38.138892,13.224617 35.861402,-2.086738 z"
     style="fill:#bdcf46;stroke-width:1.17232"
     id="path1"
     sodipodi:nodetypes="ssssssssssssssssssssssssssssssss" />
  <path
     id="rect5"
     style="fill:#2f2f2f;stroke-width:2.34465;stroke-linecap:round"
     d="m 53.180382,36.051979 c 2.088568,0.351659 5.960462,0.863217 10.811411,0.863217 4.851717,0 8.724068,-0.511719 10.812404,-0.863385 0.941592,-0.158559 1.697547,0.415447 1.697547,1.328 v 5.75428 c 0,0.912554 -0.713534,1.949416 -1.631396,2.204664 -1.871983,0.520579 -5.407898,1.221338 -10.878555,1.221338 -5.471162,0 -9.007223,-0.700888 -10.879072,-1.221482 -0.91757,-0.255192 -1.630879,-1.291966 -1.630879,-2.20452 v -5.75428 c 0,-0.912553 0.756396,-1.486466 1.69854,-1.327832 z"
     sodipodi:nodetypes="cscczcssssc" />
  <path
     d="m 43.711131,68.057402 c -4.958933,9.331703 -11.945986,9.61306 -16.799409,9.61306 h 1.348173 c -1.852273,0 -4.572065,-0.211018 -4.618958,-0.222742 -0.5041,-0.08206 -0.679948,-0.562715 -0.597886,-1.066814 l 0.02345,-1.383343 c 0.08206,-0.480654 0.492376,-0.820627 1.019922,-0.785458 12.227343,1.113709 16.600113,-7.033946 16.764239,-7.362197 0.187572,-0.351697 0.562715,-0.539269 0.949583,-0.492376 l 1.195771,0.32825 c 0.304804,0.03517 0.574439,0.222742 0.715118,0.492377 0.140679,0.281358 0.140679,0.609609 0,0.879243 z"
     style="fill:#ffffff;stroke-width:1.17232"
     id="path2" />
  <path
     d="m 103.67552,77.178086 c -0.0469,0.01173 -1.24266,0.211019 -3.09494,0.211019 -4.853415,0 -12.13355,-0.234466 -17.092482,-9.566167 -0.140679,-0.269636 -0.140679,-0.597886 0,-0.879244 0.140679,-0.269635 0.410313,-0.457206 0.715118,-0.5041 l 1.313003,-0.09378 c 0.363421,-0.04689 0.773734,0.152402 0.949583,0.492375 0.164125,0.328251 4.536895,8.475906 16.775958,7.362198 0.52755,-0.03517 0.93787,0.304804 1.0082,0.785457 l 0.18757,1.101986 c 0.0821,0.527545 -0.2579,1.008199 -0.76201,1.090261 z"
     style="fill:#ffffff;stroke-width:1.17232"
     id="path4" />
  <path
     id="path6"
     style="fill:#757f3f;fill-opacity:1;stroke-width:3.51698;stroke-linecap:round;stroke-dasharray:none"
     d="m 63.989502,12.286403 c -0.679208,1.27e-4 -1.370625,0.05707 -2.026381,0.05953 -2.46189,0.0093 -4.923372,0.125201 -7.361373,0.352614 -1.47503,0.137588 -2.946607,0.316662 -4.412245,0.533499 -0.810501,0.119904 -1.618801,0.248054 -2.424788,0.393828 -1.508994,0.272921 -3.009802,0.592215 -4.496962,0.961672 -0.917004,0.227812 -1.827604,0.481866 -2.733898,0.74873 -1.298395,0.382322 -2.586307,0.799257 -3.858138,1.266202 -4.874093,1.789497 -9.464251,3.281823 -10.127325,8.991637 -0.193103,1.66282 -0.19613,3.337356 -0.210653,5.012145 6.893262,1.452254 19.770606,3.523842 37.530409,3.523842 17.826047,0 30.846223,-1.90928 37.802882,-3.237631 -0.0191,-1.778205 -0.0167,-3.558809 -0.22439,-5.323542 -0.66933,-5.685638 -5.264044,-7.178691 -10.138774,-8.966451 -0.721245,-0.264509 -1.445693,-0.514073 -2.175212,-0.75102 -1.264977,-0.410864 -2.544101,-0.773947 -3.830661,-1.105923 -2.423833,-0.62555 -4.879976,-1.123788 -7.359082,-1.495172 -1.517648,-0.227352 -3.042522,-0.409491 -4.572524,-0.551816 -2.449683,-0.227878 -4.911207,-0.343368 -7.361373,-0.352614 -0.649796,-0.0025 -1.334743,-0.05841 -1.996616,-0.05953 -0.0076,-1.2e-5 -0.01531,0 -0.02289,0 z" />
  <path
     d="m 74.273077,27.340057 c -9.542721,0.410313 -19.120612,0.05861 -28.628162,-0.867521 -0.492377,-0.04689 -1.559192,-0.117233 -2.766686,-0.269635 -3.07149,-0.386867 -7.080839,-1.348173 -5.193397,-3.97418 1.101985,-1.547467 3.610759,-1.899165 5.31063,-2.321202 2.356372,-0.597885 4.73619,-1.066815 7.139455,-1.430235 2.790132,-0.422037 5.603711,-0.691672 8.417289,-0.820627 9.144131,-0.422037 18.792361,-0.140679 27.526177,2.895641 1.313004,0.457207 3.048044,1.008199 3.868671,2.239139 2.555667,3.821778 -8.827603,4.067966 -10.457134,4.196922 -1.73504,0.140679 -3.481803,0.281358 -5.216843,0.351698 z"
     style="fill:#2f2f2f;stroke-width:1.17232"
     id="path5" />
  <path
     style="fill:none;fill-opacity:1;stroke:#ffffff;stroke-width:3.51698;stroke-linecap:round;stroke-dasharray:none;stroke-opacity:1"
     d="m 56.73039,45.444247 c 0,0 -0.310859,5.021577 -2.383256,10.162714 -2.072397,5.141136 -2.901355,6.934557 -2.901355,6.934557"
     id="path8" />
  <path
     style="fill:none;fill-opacity:1;stroke:#ffffff;stroke-width:3.51698;stroke-linecap:round;stroke-dasharray:none;stroke-opacity:1"
     d="m 70.804906,44.370337 c 0,0 0.31086,5.021575 2.383256,10.162713 2.072396,5.141137 2.901356,6.934556 2.901356,6.934556"
     id="path9" />
</svg>
