<?xml version="1.0" encoding="UTF-8" standalone="no"?>
<svg
   xmlns:dc="http://purl.org/dc/elements/1.1/"
   xmlns:cc="http://creativecommons.org/ns#"
   xmlns:rdf="http://www.w3.org/1999/02/22-rdf-syntax-ns#"
   xmlns:svg="http://www.w3.org/2000/svg"
   xmlns="http://www.w3.org/2000/svg"
   xmlns:xlink="http://www.w3.org/1999/xlink"
   xmlns:sodipodi="http://sodipodi.sourceforge.net/DTD/sodipodi-0.dtd"
   xmlns:inkscape="http://www.inkscape.org/namespaces/inkscape"
   width="128"
   height="128"
   version="1.1"
   id="svg28"
   sodipodi:docname="emoji_u1f92a.svg"
   inkscape:version="0.92.4 (5da689c313, 2019-01-14)">
  <metadata
     id="metadata32">
    <rdf:RDF>
      <cc:Work
         rdf:about="">
        <dc:format>image/svg+xml</dc:format>
        <dc:type
           rdf:resource="http://purl.org/dc/dcmitype/StillImage" />
      </cc:Work>
    </rdf:RDF>
  </metadata>
  <sodipodi:namedview
     pagecolor="#ffffff"
     bordercolor="#666666"
     borderopacity="1"
     objecttolerance="10"
     gridtolerance="10"
     guidetolerance="10"
     inkscape:pageopacity="0"
     inkscape:pageshadow="2"
     inkscape:window-width="1866"
     inkscape:window-height="1016"
     id="namedview30"
     showgrid="false"
     inkscape:zoom="2.6074563"
     inkscape:cx="-73.409905"
     inkscape:cy="36.85225"
     inkscape:window-x="1134"
     inkscape:window-y="644"
     inkscape:window-maximized="1"
     inkscape:current-layer="svg28" />
  <defs
     id="defs8">
    <linearGradient
       id="a">
      <stop
         offset="0"
         stop-color="#fff"
         id="stop2" />
      <stop
         offset="1"
         stop-color="#fff"
         stop-opacity=".901"
         id="stop4" />
    </linearGradient>
    <linearGradient
       gradientTransform="translate(-94.485 -9.55)"
       xlink:href="#a"
       id="b"
       x1="95.743"
       y1="70.878"
       x2="95.743"
       y2="82.469"
       gradientUnits="userSpaceOnUse" />
  </defs>
  <path
     d="M63.89 9.64C1.58 9.64.1 79.5.1 93.33c0 13.83 28.56 25.03 63.79 25.03 35.24 0 63.79-11.21 63.79-25.03 0-13.83-1.47-83.69-63.79-83.69z"
     fill="#fcc21b"
     id="path10" />
  <path
     d="M95.593 62.568c-3.385-1.568-7.004.416-10.286 1.668-9.14 3.487-17.438 4.913-21.426 5.56-3.988.646-12.312 1.915-22.086 1.493-3.509-.15-7.57-.89-10.285 1.667-3.446 3.243.927 12.159 8.045 17.509 4.303 3.233 14.273 9.245 28.794 6.891 14.52-2.354 22.08-11.208 25.142-15.635 5.063-7.324 6.386-17.163 2.102-19.153z"
     fill="#ec6c31"
     stroke-width="5"
     id="path20" />
  <path
     inkscape:connector-curvature="0"
     style="fill:#d7598b"
     d="m 38.145159,88.323576 c 2.397407,5.386546 -3.637968,17.277524 4.382725,24.213044 1.494022,1.30112 3.666245,2.33196 6.013142,2.92237 l 0.01984,-0.0776 -0.01984,0.0776 c 2.354336,0.56134 4.757404,0.65001 6.680881,0.19269 10.326433,-2.43539 10.319814,-15.959443 15.093131,-19.444645 0,0 -1.283483,-2.819603 -16.518266,-6.698829 -13.060764,-3.325656 -15.651613,-1.18463 -15.651613,-1.18463 z"
     id="path4"
     sodipodi:nodetypes="cccccccsc" />
  <path
     style="fill:#2f2f2f"
     id="path8"
     d="m 84.74928,53.907074 c 3.9683,-2.079207 5.177168,-7.614371 2.695908,-12.354197 -2.490501,-4.757563 -7.728387,-6.91069 -11.696686,-4.831483 -3.977167,2.083828 -5.194904,7.623613 -2.704402,12.381176 2.490128,4.735204 7.728013,6.888332 11.70518,4.804504 z"
     inkscape:connector-curvature="0"
     sodipodi:nodetypes="ccccc" />
  <path
     style="fill:#2f2f2f;stroke-width:0.6639303"
     id="path8-3"
     d="m 45.571339,58.878503 c 2.835143,0.899509 6.01027,-1.117464 7.085634,-4.502849 1.079454,-3.397973 -0.353359,-6.87424 -3.188512,-7.773711 -2.841467,-0.90153 -6.022909,1.113469 -7.102326,4.511455 -1.069049,3.38736 0.363726,6.863613 3.205204,7.765105 z"
     inkscape:connector-curvature="0"
     sodipodi:nodetypes="ccccc" />
  <ellipse
     style="fill:#ffffff"
     cx="-31.851133"
     cy="87.140663"
     rx="16.611"
     ry="15.501"
     transform="rotate(-83.65)"
     id="ellipse15" />
  <path
     inkscape:connector-curvature="0"
     style="fill:#2f2f2f"
     d="m 86.832579,38.602937 c -0.19,2.711 -2.58,4.782 -5.333,4.618 -2.76,-0.157 -4.848,-2.498 -4.659,-5.21 0.181,-2.72 2.564,-4.782 5.325,-4.618 2.76,0.157 4.856,2.498 4.667,5.21"
     id="path17" />
  <ellipse
     style="fill:#ffffff"
     cx="40.179565"
     cy="51.524506"
     rx="15.5"
     ry="16.611"
     transform="rotate(-4.313)"
     id="ellipse19" />
  <path
     inkscape:connector-curvature="0"
     style="fill:#2f2f2f"
     d="m 49.814846,50.074769 c 0.313,2.707 -1.654,5.184 -4.394,5.53 -2.749,0.354 -5.234,-1.564 -5.547,-4.263 -0.33,-2.708 1.638,-5.185 4.386,-5.539 2.74,-0.345 5.234,1.572 5.555,4.272"
     id="path21" />
</svg>
