<?xml version="1.0" encoding="UTF-8" standalone="no"?>
<svg
   width="128"
   height="128"
   version="1.1"
   id="svg4"
   sodipodi:docname="emoji_u1f6af.svg"
   inkscape:version="1.3 (0e150ed6c4, 2023-07-21)"
   xmlns:inkscape="http://www.inkscape.org/namespaces/inkscape"
   xmlns:sodipodi="http://sodipodi.sourceforge.net/DTD/sodipodi-0.dtd"
   xmlns="http://www.w3.org/2000/svg"
   xmlns:svg="http://www.w3.org/2000/svg">
  <defs
     id="defs4" />
  <sodipodi:namedview
     id="namedview4"
     pagecolor="#ffffff"
     bordercolor="#000000"
     borderopacity="0.25"
     inkscape:showpageshadow="2"
     inkscape:pageopacity="0.0"
     inkscape:pagecheckerboard="0"
     inkscape:deskcolor="#d1d1d1"
     inkscape:zoom="4.0546875"
     inkscape:cx="53.518304"
     inkscape:cy="64.986513"
     inkscape:window-width="1366"
     inkscape:window-height="697"
     inkscape:window-x="-8"
     inkscape:window-y="-8"
     inkscape:window-maximized="1"
     inkscape:current-layer="svg4" />
  <ellipse
     cx="64"
     cy="64.7"
     rx="61.69"
     ry="61.69"
     fill="#006ca2"
     id="ellipse1" />
  <path
     d="M64 128C28.71 128 0 99.29 0 64S28.71 0 64 0s64 28.71 64 64-28.71 64-64 64zm0-117.11c-29.29 0-53.11 23.83-53.11 53.11 0 29.29 23.83 53.11 53.11 53.11S117.11 93.29 117.11 64 93.29 10.89 64 10.89z"
     fill="#db4437"
     id="path4" />
  <g
     id="g5"
     transform="matrix(0.86479442,0,0,0.86479442,7.8372894,8.4471653)"
     style="stroke-width:1.15635">
    <g
       id="g4"
       transform="translate(0.69181118,1.5941811)"
       style="fill:#ffffff;fill-opacity:1;stroke-width:1.15635">&#10;			<g
   id="g3"
   style="fill:#ffffff;fill-opacity:1;stroke-width:1.15635">&#10;				<path
   fill="#006ca2"
   d="m 80.76,41.23 c 0,-2.01 7.33,-4.2 7.56,-14.64 C 88.55,16.24 80.29,9.98 71.45,9.98 c -8.82,0 -17.09,6.26 -16.86,16.61 0.07,3.36 0.96,6.67 2.98,9.38 1.19,1.61 2.82,2.72 4.08,4.24 1.14,1.39 -0.01,3.14 -0.68,4.51 -0.64,1.3 -1.71,2.49 -2.16,3.86 -0.36,1.11 -0.76,2.29 -0.85,3.45 -0.08,0.98 0.01,2.02 0.01,3.01 0,1.58 0.3,3.05 0.53,4.53 0.78,5.05 -1.08,9.92 -1.47,14.94 -0.32,4.35 0.98,7.66 1.96,9.26 1.33,2.17 2.16,17.93 -0.52,19.95 -1.58,1.19 -3.16,2.78 -3.16,4.89 0,3.61 3.32,4.88 8.25,4.27 4.28,-0.53 7.23,-2.5 6.89,-8.67 -0.35,-6.16 -1.89,-16.92 1.01,-16.92 2.9,0 1.36,10.76 1.01,16.92 -0.34,6.17 2.61,8.14 6.89,8.67 4.93,0.61 8.25,-0.66 8.25,-4.27 0,-2.11 -1.59,-3.7 -3.17,-4.89 -2.67,-2.02 -1.84,-17.78 -0.51,-19.95 0.98,-1.61 2.28,-4.92 1.95,-9.26 -0.44,-5.81 -2.74,-12.69 -1.08,-13.04 1.19,-0.25 2.32,-1.22 4.07,3.94 1.76,5.16 -0.31,8.77 -0.31,13.64 0,4.87 8.68,7.58 11.18,0 2.49,-7.57 -3.62,-21.75 -9.13,-28.58 -5.53,-6.83 -9.85,-7.24 -9.85,-9.24 z"
   id="path3-6"
   style="fill:#ffffff;fill-opacity:1;stroke-width:1.15635" />
&#10;			</g>
&#10;			<path
   fill="#006ca2"
   d="m 61.9,42.15 c -2.61,5.91 -12.25,7.42 -17.88,6.56 -2.53,-0.39 -4.87,-1.45 -7.34,-2.02 -2.7,-0.62 -5.9,-0.22 -7.7,2.07 -1.91,2.42 -1.87,6.58 0.32,8.88 6.59,6.94 18.27,3.87 25.98,0.79 1.21,-0.48 2.73,-0.86 3.22,0.74 0.25,0.83 0.17,1.73 0.54,2.59 0.36,0.84 0.92,1.27 1.85,1.39 0.76,0.1 1.6,0.28 2.37,0.29 1.78,0.01 3.23,-1.98 3.52,-3.58 0.09,-0.52 -0.04,-1.01 -0.07,-1.53 -0.04,-0.84 0.15,-1.69 0.27,-2.52 0.53,-3.78 0.99,-7.59 0.87,-11.42 -0.05,-1.56 0.07,-3.17 -0.98,-4.46 -0.22,-0.26 -0.52,-0.42 -0.81,-0.59 -0.66,-0.38 -1.66,-0.47 -2.39,-0.47 -0.58,0 -1.64,-0.07 -2.07,0.41 -0.37,0.41 0.22,0.98 0.36,1.38 0.17,0.56 0.14,1.05 -0.06,1.49 z"
   id="path4-3"
   style="fill:#ffffff;fill-opacity:1;stroke-width:1.15635" />
&#10;		</g>
    <g
       id="g8"
       transform="translate(0.69181118,1.5941811)"
       style="fill:#ffffff;fill-opacity:1;stroke-width:1.15635">&#10;			<polygon
   fill="#006ca2"
   points="39.38,74.2 40.77,71.3 39.55,67.91 34.73,66.96 31.99,70.09 32.94,73.93 36.33,75.58 "
   id="polygon7"
   style="fill:#ffffff;fill-opacity:1;stroke-width:1.15635" />
&#10;		</g>
    <g
       id="g9"
       transform="translate(0.69181118,1.5941811)"
       style="fill:#ffffff;fill-opacity:1;stroke-width:1.15635">&#10;			<polygon
   fill="#006ca2"
   points="28.8,87.85 31.86,88.88 35.08,87.24 35.43,82.33 31.97,80.01 28.27,81.42 27.05,84.99 "
   id="polygon8"
   style="fill:#ffffff;fill-opacity:1;stroke-width:1.15635" />
&#10;		</g>
    <g
       id="g10"
       transform="translate(0.69181118,1.5941811)"
       style="fill:#ffffff;fill-opacity:1;stroke-width:1.15635">&#10;			<polygon
   fill="#006ca2"
   points="36.16,98.71 39.28,99.76 42.56,98.09 42.91,93.08 39.39,90.7 35.62,92.15 34.37,95.79 "
   id="polygon9"
   style="fill:#ffffff;fill-opacity:1;stroke-width:1.15635" />
&#10;		</g>
  </g>
  <path
     fill="#db4437"
     d="M111.37 102.73l-8.43 8.41-86.31-85.73L25.06 17z"
     id="path3" />
</svg>
