<?xml version="1.0" encoding="UTF-8" standalone="no"?>
<svg
   width="100%"
   height="100%"
   viewBox="0 0 128 128"
   version="1.1"
   xml:space="preserve"
   style="fill-rule:evenodd;clip-rule:evenodd;stroke-linejoin:round;stroke-miterlimit:2;"
   id="svg2"
   sodipodi:docname="emoji_u1f92a.svg"
   inkscape:version="1.3 (0e150ed6c4, 2023-07-21)"
   xmlns:inkscape="http://www.inkscape.org/namespaces/inkscape"
   xmlns:sodipodi="http://sodipodi.sourceforge.net/DTD/sodipodi-0.dtd"
   xmlns="http://www.w3.org/2000/svg"
   xmlns:svg="http://www.w3.org/2000/svg"><defs
   id="defs2" /><sodipodi:namedview
   id="namedview2"
   pagecolor="#ffffff"
   bordercolor="#000000"
   borderopacity="0.25"
   inkscape:showpageshadow="2"
   inkscape:pageopacity="0.0"
   inkscape:pagecheckerboard="0"
   inkscape:deskcolor="#d1d1d1"
   inkscape:zoom="2.2211609"
   inkscape:cx="-29.263977"
   inkscape:cy="17.108171"
   inkscape:current-layer="svg2" />&#10;    &#10;    <path
   fill="#fcc21b"
   d="m 122.35894,78.531942 c 9.83002,-30.019997 1.98002,-55.55 -20.69998,-66.309997 C 72.728967,-1.5180559 44.508966,5.5819411 25.898965,24.151944 c -7.74,7.719999 -14.229997,16.210001 -20.5299973,33.060001 -7.870001,21.039999 -4.70000101,39.359997 -3.9,44.099995 2.019999,12.17 29.7000003,21.64 62.9699993,21.64 0,0 0.07,-0.01 0.109984,-0.01 0.02986,0 0.07,0.01 0.07,0.01 8.489996,0 16.469996,-0.63 23.769986,-1.75 0.20002,-0.04 0.43,-0.06 0.64,-0.1 0.08,-0.01 0.15999,-0.02 0.24,-0.04 20.060003,-3.19 34.700003,-10.12 37.660023,-18.43 0.42999,-1.01 0.76996,-2.03 0.87998,-3.079999 0.63999,-6.559999 -9.48,-8.669999 -5.45,-21.020001"
   id="path1-26"
   style="stroke-width:0.999999" /><path
   id="path20"
   d="M 91.750082,95.608254 C 90.333001,92.157351 86.329979,91.152746 83.071684,89.840288 73.997484,86.185476 66.941747,81.591256 63.576831,79.355167 60.212594,77.118346 53.2445,72.391295 46.362226,65.438349 c -2.471852,-2.495101 -4.947565,-5.798155 -8.676984,-5.76802 -4.731875,0.03645 -7.584564,9.548561 -6.000009,18.310844 0.958718,5.296127 4.185217,16.482491 16.436211,24.625827 12.250261,8.14265 23.813516,6.78691 29.0685,5.62101 8.691791,-1.93073 16.349789,-8.248269 14.560138,-12.619756 z"
   style="fill:#ec6c31;fill-rule:nonzero" />&#10;    <path
   id="path4"
   d="m 36.280715,91.301262 c 0.602591,5.864834 -8.834507,15.286638 -3.370605,24.374558 1.014882,1.70137 2.758123,3.35716 4.804927,4.64833 l 0.04328,-0.0679 -0.04328,0.0679 c 2.062482,1.26578 4.318433,2.09825 6.289108,2.26277 10.571307,0.89879 14.774738,-11.95538 20.39533,-13.78177 0,0 -0.341597,-3.07926 -13.612646,-11.507255 C 39.409381,90.073006 36.280715,91.301262 36.280715,91.301262 Z"
   style="fill:#eb7aa4;fill-rule:nonzero" />&#10;    &#10;    <g
   id="g2"><g
     id="ellipse15"
     transform="rotate(-83.649982,1.3295946,-4.0091984)">&#10;        <ellipse
   cx="-31.851"
   cy="87.140999"
   rx="16.611"
   ry="15.501"
   style="fill:#ffffff"
   id="ellipse1" />&#10;    </g><path
     id="path17"
     d="m 92.000141,36.358664 c -0.19,2.711 -2.58,4.782 -5.333,4.618 -2.76,-0.157 -4.848,-2.498 -4.659,-5.21 0.181,-2.72 2.564,-4.782 5.325,-4.618 2.76,0.157 4.856,2.498 4.667,5.21"
     style="fill:#2f2f2f;fill-rule:nonzero" /></g>&#10;    &#10;    <g
   id="g3"
   transform="translate(2.5313604,-12.2947)"><g
     id="ellipse19"
     transform="rotate(-4.3130016)">&#10;        <ellipse
   cx="40.18"
   cy="51.525002"
   rx="15.5"
   ry="16.611"
   style="fill:#ffffff"
   id="ellipse2" />&#10;    </g><path
     id="path21"
     d="m 49.815,50.075 c 0.313,2.707 -1.654,5.184 -4.394,5.53 -2.749,0.354 -5.234,-1.564 -5.547,-4.263 -0.33,-2.708 1.638,-5.185 4.386,-5.539 2.74,-0.345 5.234,1.572 5.555,4.272"
     style="fill:#2f2f2f;fill-rule:nonzero" /></g>&#10;</svg>
