<?xml version="1.0" encoding="UTF-8" standalone="no"?>
<svg
   width="100%"
   height="100%"
   viewBox="0 0 128 128"
   version="1.1"
   xml:space="preserve"
   style="fill-rule:evenodd;clip-rule:evenodd;stroke-linejoin:round;stroke-miterlimit:2;"
   id="svg25838"
   sodipodi:docname="emoji_u1f9f5.svg"
   inkscape:version="1.3 (0e150ed6c4, 2023-07-21)"
   xmlns:inkscape="http://www.inkscape.org/namespaces/inkscape"
   xmlns:sodipodi="http://sodipodi.sourceforge.net/DTD/sodipodi-0.dtd"
   xmlns="http://www.w3.org/2000/svg"
   xmlns:svg="http://www.w3.org/2000/svg"><defs
   id="defs25842">&#10;        &#10;    </defs><sodipodi:namedview
   id="namedview25840"
   pagecolor="#ffffff"
   bordercolor="#000000"
   borderopacity="0.25"
   inkscape:showpageshadow="2"
   inkscape:pageopacity="0.0"
   inkscape:pagecheckerboard="0"
   inkscape:deskcolor="#d1d1d1"
   showgrid="false"
   inkscape:zoom="4.2421875"
   inkscape:cx="64.471455"
   inkscape:cy="69.657459"
   inkscape:window-width="1366"
   inkscape:window-height="697"
   inkscape:window-x="-8"
   inkscape:window-y="-8"
   inkscape:window-maximized="1"
   inkscape:current-layer="svg25838" />&#10;    <path
   id="path18459"
   d="M28.93,111.74C28.93,111.74 26.02,107.02 28.93,103.13L97.65,101.38C97.65,101.38 103.08,104.49 99.27,111.74C96.99,116.06 83.53,119.12 64.1,119.12C44.67,119.12 30.76,115.03 28.93,111.74Z"
   style="fill:#ff9365;fill-rule:nonzero" />&#10;    <path
   id="path18461"
   d="M28.83,103.12C28.83,101.51 38.94,93.15 38.94,93.15C45.3,90.02 83.19,90.8 89.06,93.15C89.06,93.15 99.17,101.21 99.17,103.12C99.17,106.33 83.31,110.38 63.89,110.38C44.47,110.38 28.83,106.34 28.83,103.12Z"
   style="fill:rgb(255,204,128);fill-rule:nonzero;" />&#10;    <path
   id="path18468"
   d="M38.94,29.23L38.94,91.46C38.94,92.61 39.61,93.66 40.67,94.13C43.42,95.36 49.99,97.3 64,97.3C78.01,97.3 84.58,95.36 87.33,94.13C88.38,93.66 89.06,92.61 89.06,91.46L89.06,29.23L38.94,29.23Z"
   style="fill:#db4437;fill-rule:nonzero" />&#10;    &#10;    <path
   id="path26481"
   style="color:#000000;clip-rule:nonzero;fill:#db4437;fill-rule:nonzero;stroke-width:2;stroke-linejoin:miter;-inkscape-stroke:none"
   d="m 42.859163,45.052329 c -2.792384,1.530525 -3.28504,4.990855 -5.088088,7.358602 -5.157285,8.323693 -11.090383,16.317869 -14.53876,25.54217 -2.486519,6.831045 -3.951058,14.343089 -2.250301,21.530136 1.709904,7.666273 7.195279,14.075133 13.854095,18.003803 7.547612,4.47766 16.427792,5.84389 25.043576,6.39352 7.422593,0.57595 14.89396,0.57667 22.299452,-0.30947 2.033254,-0.85888 1.004507,-4.44601 -1.185729,-4.11346 -9.924708,-0.0242 -19.972017,0.6488 -29.768133,-1.3297 -7.677708,-1.55945 -15.360277,-4.89467 -20.483895,-11.01968 -3.690991,-4.34251 -5.77392,-10.162904 -5.024702,-15.875545 1.11221,-8.741223 5.065748,-16.757484 9.200541,-24.418726 3.197414,-5.828066 6.075587,-11.824194 8.979997,-17.800539 0.460083,-1.044625 1.249106,-2.456169 0.245787,-3.449847 -0.32848,-0.33956 -0.801269,-0.584299 -1.28384,-0.511264 z" />&#10;    <path
   id="path18483"
   style="fill:#ff9365;fill-rule:nonzero"
   d="M 67.916016 8.0078125 C 50.830974 7.9633179 32.603512 9.0484393 29.369141 10.820312 C 27.559142 11.810312 26.039378 19.50008 28.859375 21.830078 C 33.119371 26.230074 38.939453 29.230469 38.939453 29.230469 C 38.939453 29.230469 42.620568 33.109375 63.560547 33.109375 C 84.500526 33.109375 89.050781 30.859375 89.050781 30.859375 C 89.050781 30.859375 95.571188 26.730817 98.257812 22.765625 C 98.653618 22.465403 98.970881 22.153333 99.199219 21.830078 C 101.16922 19.030081 101.55914 11.659139 98.119141 10.369141 C 93.80102 8.7591422 81.204381 8.0424194 67.916016 8.0078125 z " />&#10;    &#10;    <ellipse
   id="ellipse18487"
   cx="64"
   cy="12.02"
   rx="35.17"
   ry="7.02"
   style="fill:rgb(255,204,128);" />&#10;    <path
   id="ellipse18489"
   style="fill:#855c52;stroke-width:1"
   d="m 72.14,11.059068 c 0,1.826397 -3.644402,2.839183 -8.14,2.839183 -4.495598,0 -8.14,-1.012786 -8.14,-2.839183 C 55.859999,9.2326699 59.504402,8.3100002 64,8.31 c 4.495598,2e-7 8.140001,0.9226699 8.14,2.749068 z"
   sodipodi:nodetypes="sssss" />&#10;    <g
   id="g18558">&#10;    </g>&#10;    <g
   id="g18611">&#10;    </g>&#10;    <path
   id="path20767"
   style="fill:#9b1818;fill-rule:nonzero"
   d="M 88.845703 34.824219 C 88.796413 34.835759 88.721102 34.852076 88.623047 34.884766 A 0.94300419 0.94300419 0 0 0 88.4375 34.970703 C 88.4375 34.970703 87.029467 35.833234 82.90625 36.859375 L 82.908203 36.857422 C 78.789858 37.881124 72.179395 38.939453 62.431641 38.939453 C 52.658447 38.939453 46.49709 38.025905 42.861328 37.154297 C 41.144302 36.742367 40.007789 36.344906 39.294922 36.054688 A 0.94300419 0.94300419 0 0 0 38.939453 36.033203 L 38.939453 41.111328 C 39.709623 41.366527 40.602561 41.633953 41.720703 41.902344 C 45.81817 42.88455 52.353967 43.826173 62.431641 43.826172 C 72.532805 43.826172 79.54401 42.730934 84.085938 41.601562 A 0.94300419 0.94300419 0 0 0 84.087891 41.601562 C 86.347117 41.039766 87.946644 40.472979 89.060547 40.021484 L 89.060547 34.839844 A 0.94300419 0.94300419 0 0 0 88.845703 34.824219 z M 88.865234 45.960938 C 88.778444 45.979407 88.704728 46.000201 88.642578 46.019531 A 0.94300419 0.94300419 0 0 0 88.4375 46.111328 C 88.4375 46.111328 87.031219 46.97294 82.908203 47.998047 A 0.94300419 0.94300419 0 0 0 82.90625 48 C 78.788246 49.0246 72.179459 50.080078 62.431641 50.080078 C 52.658384 50.080078 46.496692 49.167408 42.861328 48.294922 C 41.14463 47.88307 40.009411 47.485251 39.294922 47.195312 A 0.94300419 0.94300419 0 0 0 38.939453 47.173828 L 38.939453 52.253906 C 39.708626 52.5091 40.602122 52.776426 41.720703 53.044922 C 45.818451 54.027196 52.35409 54.966797 62.431641 54.966797 C 72.532742 54.966797 79.545646 53.870703 84.087891 52.740234 L 84.087891 52.742188 C 86.348365 52.180064 87.94761 51.610847 89.060547 51.160156 L 89.060547 45.978516 A 0.94300419 0.94300419 0 0 0 88.865234 45.960938 z M 88.865234 57.103516 C 88.790964 57.119316 88.709175 57.139259 88.623047 57.167969 A 0.94300419 0.94300419 0 0 0 88.4375 57.253906 C 88.4375 57.253906 87.029467 58.116438 82.90625 59.142578 L 82.908203 59.140625 C 78.789858 60.164328 72.179395 61.222656 62.431641 61.222656 C 52.658572 61.222656 46.497393 60.307227 42.861328 59.435547 C 41.144302 59.023617 40.007789 58.626156 39.294922 58.335938 A 0.94300419 0.94300419 0 0 0 38.939453 58.314453 L 38.939453 63.394531 C 39.708626 63.649725 40.602122 63.917051 41.720703 64.185547 C 45.81817 65.167753 52.353967 66.109375 62.431641 66.109375 C 72.532927 66.109375 79.544262 65.012122 84.085938 63.882812 A 0.94300419 0.94300419 0 0 0 84.087891 63.882812 C 86.348365 63.320689 87.94761 62.751472 89.060547 62.300781 L 89.060547 57.121094 A 0.94300419 0.94300419 0 0 0 88.865234 57.103516 z M 88.865234 68.244141 C 88.778454 68.262601 88.70474 68.283394 88.642578 68.302734 A 0.94300419 0.94300419 0 0 0 88.4375 68.394531 C 88.4375 68.394531 87.029467 69.257063 82.90625 70.283203 L 82.908203 70.28125 C 78.789858 71.304953 72.179395 72.363281 62.431641 72.363281 C 52.658383 72.363281 46.496692 71.450612 42.861328 70.578125 A 0.94300419 0.94300419 0 0 0 42.859375 70.576172 C 41.142914 70.165353 40.008447 69.769001 39.294922 69.478516 A 0.94300419 0.94300419 0 0 0 38.939453 69.457031 L 38.939453 74.537109 C 39.709389 74.792625 40.603949 75.060509 41.722656 75.328125 L 41.720703 75.326172 C 45.818579 76.309628 52.35403 77.25 62.431641 77.25 C 72.532805 77.25 79.54401 76.154761 84.085938 75.025391 A 0.94300419 0.94300419 0 0 0 84.087891 75.025391 C 86.347201 74.463556 87.946644 73.896806 89.060547 73.445312 L 89.060547 68.261719 A 0.94300419 0.94300419 0 0 0 88.865234 68.244141 z M 88.865234 79.384766 C 88.790964 79.400566 88.709175 79.420509 88.623047 79.449219 A 0.94300419 0.94300419 0 0 0 88.4375 79.535156 C 88.4375 79.535156 87.031219 80.396767 82.908203 81.421875 A 0.94300419 0.94300419 0 0 0 82.90625 81.423828 C 78.788246 82.448427 72.179459 83.503906 62.431641 83.503906 C 52.658447 83.503906 46.497091 82.590357 42.861328 81.71875 C 41.144301 81.306819 40.00779 80.909358 39.294922 80.619141 A 0.94300419 0.94300419 0 0 0 38.939453 80.597656 L 38.939453 85.675781 C 39.709623 85.93098 40.602561 86.198406 41.720703 86.466797 C 45.81817 87.449003 52.353967 88.390625 62.431641 88.390625 C 72.532742 88.390625 79.545646 87.294531 84.087891 86.164062 L 84.087891 86.166016 C 86.348365 85.603892 87.947609 85.034676 89.060547 84.583984 L 89.060547 79.402344 A 0.94300419 0.94300419 0 0 0 88.865234 79.384766 z " />&#10;</svg>
