<?xml version="1.0" encoding="UTF-8" standalone="no"?>
<svg
   width="128"
   height="128"
   style="enable-background:new 0 0 128 128;"
   version="1.1"
   id="svg5"
   sodipodi:docname="emoji_u1fa73.svg"
   inkscape:version="1.3 (0e150ed6c4, 2023-07-21)"
   xmlns:inkscape="http://www.inkscape.org/namespaces/inkscape"
   xmlns:sodipodi="http://sodipodi.sourceforge.net/DTD/sodipodi-0.dtd"
   xmlns="http://www.w3.org/2000/svg"
   xmlns:svg="http://www.w3.org/2000/svg">
  <defs
     id="defs5">
    <inkscape:path-effect
       effect="fillet_chamfer"
       id="path-effect5"
       is_visible="true"
       lpeversion="1"
       nodesatellites_param="F,0,1,1,0,1.3343675,0,1 @ F,0,0,1,0,0,0,1 @ F,0,1,1,0,1.3343675,0,1 @ F,0,1,1,0,1.3343675,0,1 @ F,0,0,1,0,0,0,1 @ F,0,1,1,0,1.3343675,0,1"
       radius="0"
       unit="px"
       method="auto"
       mode="F"
       chamfer_steps="1"
       flexible="false"
       use_knot_distance="true"
       apply_no_radius="true"
       apply_with_radius="true"
       only_selected="false"
       hide_knots="false" />
  </defs>
  <sodipodi:namedview
     id="namedview5"
     pagecolor="#ffffff"
     bordercolor="#000000"
     borderopacity="0.25"
     inkscape:showpageshadow="2"
     inkscape:pageopacity="0.0"
     inkscape:pagecheckerboard="0"
     inkscape:deskcolor="#d1d1d1"
     showguides="false"
     inkscape:zoom="2.8284271"
     inkscape:cx="43.487067"
     inkscape:cy="47.906484"
     inkscape:window-width="1366"
     inkscape:window-height="697"
     inkscape:window-x="-8"
     inkscape:window-y="-8"
     inkscape:window-maximized="1"
     inkscape:current-layer="svg5" />
  <path
     d="m 113.72586,100.03896 c -1.36114,-9.150733 -1.92276,-18.415638 -3.18021,-27.574115 -0.9613,-7.001406 -2.23108,-13.941134 -3.51302,-20.893213 -0.32049,-1.738019 -0.38284,-2.05012 -0.96145,-5.214057 -0.57934,-3.16788 -1.6855,-6.237625 -2.15712,-9.405027 -0.52683,-3.538151 -0.12443,-7.149163 -0.54236,-10.699297 -0.70376,-5.978158 -5.536788,-7.549943 -10.66232,-9.42968 -6.066827,-2.22495 -12.424485,-3.506092 -18.859359,-4.104685 -2.575717,-0.239601 -5.164742,-0.36007 -7.740966,-0.369792 -0.690274,-0.0026 -1.417534,-0.06163 -2.120138,-0.06163 -0.714929,0 -1.442191,0.05904 -2.132464,0.06163 -2.58855,0.0098 -5.177532,0.130679 -7.740966,0.369792 -6.422503,0.599081 -12.791856,1.881559 -18.847033,4.104685 -5.12486,1.881563 -9.952801,3.450755 -10.649992,9.454331 -0.412184,3.549374 -0.009,7.149786 -0.530034,10.699297 -0.465081,3.16837 -1.573125,6.238003 -2.157116,9.405029 l -0.961458,5.214058 c -1.279745,6.940157 -2.546486,13.892528 -3.513017,20.893213 -1.264543,9.159201 -2.67686,18.336407 -3.180207,27.574111 -0.812543,14.91227 34.932475,15.79476 37.681742,2.16944 0.718662,-3.561677 1.228312,-7.150122 1.910589,-10.723949 1.129702,-5.917489 2.65355,-8.792521 3.993746,-14.672975 0.471782,-2.070063 1.087327,-4.089821 1.858148,-5.980336 0.347679,-0.852713 0.615202,-1.73443 1.027184,-2.517572 0.181502,-0.345018 0.483744,-1.253128 0.753269,-1.484416 0.837623,-0.718801 4.157511,-0.740134 4.99896,0 0.265659,0.233673 0.560352,1.139398 0.741854,1.484416 0.411983,0.783142 0.674752,1.661932 1.027183,2.517572 0.777473,1.887564 1.392475,3.908889 1.85815,5.980336 1.32165,5.879071 2.857308,8.744444 3.98142,14.672975 0.675539,3.562782 1.626395,7.103572 1.910588,10.723949 1.298917,16.54713 40.101057,13.905 37.706397,-2.19409 z"
     style="fill:#bdcf46;stroke-width:1.17232"
     id="path1"
     sodipodi:nodetypes="ssssssssssssssssssssssssssssssss" />
  <path
     id="rect5"
     style="fill:#2f2f2f;stroke-width:2.34465;stroke-linecap:round"
     d="m 52.621284,37.274666 c 2.196021,0.369751 6.267115,0.907627 11.367635,0.907627 5.101327,0 9.172902,-0.538046 11.368678,-0.907804 0.990035,-0.166717 1.784882,0.436821 1.784882,1.396323 v 6.050325 c 0,0.959503 -0.750244,2.049709 -1.715328,2.318089 -1.968292,0.547361 -5.686122,1.284173 -11.438232,1.284173 -5.752642,0 -9.470625,-0.736947 -11.438777,-1.284325 -0.964777,-0.268321 -1.714784,-1.358434 -1.714784,-2.317937 v -6.050325 c 0,-0.959502 0.795311,-1.562942 1.785926,-1.396146 z"
     sodipodi:nodetypes="cscczcssssc" />
  <path
     d="M 42.664861,70.926697 C 37.450802,80.738496 30.104281,81.034328 25.00116,81.034328 h 1.417533 c -1.947568,0 -4.807288,-0.221874 -4.856593,-0.234202 -0.530035,-0.08628 -0.71493,-0.591665 -0.628646,-1.121699 l 0.02466,-1.454513 c 0.08628,-0.505382 0.517708,-0.862846 1.072395,-0.825868 12.856413,1.171007 17.454152,-7.395827 17.626722,-7.740966 0.197223,-0.369791 0.591666,-0.567013 0.998437,-0.517707 l 1.257291,0.345137 c 0.320486,0.03698 0.603993,0.234202 0.751909,0.517709 0.147917,0.295833 0.147917,0.640972 0,0.924478 z"
     style="fill:#ffffff;stroke-width:1.17232"
     id="path2" />
  <path
     d="m 105.71429,80.51662 c -0.0493,0.01233 -1.3066,0.221876 -3.25417,0.221876 -5.103114,0 -12.757796,-0.246529 -17.971854,-10.058325 -0.147917,-0.283509 -0.147917,-0.628646 0,-0.92448 0.147916,-0.283507 0.431422,-0.480728 0.751909,-0.530034 l 1.380554,-0.0986 c 0.382118,-0.0493 0.813541,0.160242 0.998437,0.517706 0.172569,0.345139 4.770308,8.911973 17.639044,7.740967 0.55469,-0.03698 0.98612,0.320486 1.06007,0.825867 l 0.19722,1.158681 c 0.0863,0.554686 -0.27117,1.060069 -0.80121,1.146353 z"
     style="fill:#ffffff;stroke-width:1.17232"
     id="path4" />
  <path
     id="path6"
     style="fill:#757f3f;fill-opacity:1;stroke-width:3.51698;stroke-linecap:round;stroke-dasharray:none"
     d="m 63.98651,12.286403 c -0.714152,1.33e-4 -1.441141,0.06001 -2.130634,0.06259 -2.588549,0.0098 -5.176669,0.131642 -7.740099,0.370755 -1.550918,0.144666 -3.098204,0.332953 -4.639246,0.560946 -0.852199,0.126073 -1.702085,0.260816 -2.549538,0.41409 -1.586628,0.286962 -3.164649,0.622683 -4.728321,1.011148 -0.964181,0.239532 -1.92163,0.506657 -2.874551,0.78725 -1.365194,0.401992 -2.719366,0.840377 -4.05663,1.331346 -5.124855,1.881562 -9.951166,3.450665 -10.648354,9.454236 -0.203038,1.748369 -0.20622,3.509056 -0.221491,5.270009 7.247906,1.52697 20.787761,3.705136 39.461266,3.705136 18.743158,0 32.433194,-2.007508 39.747758,-3.4042 -0.0201,-1.86969 -0.0176,-3.741902 -0.23593,-5.597426 -0.70377,-5.978152 -5.534872,-7.548019 -10.660396,-9.427755 -0.758352,-0.278118 -1.520071,-0.540521 -2.287122,-0.789659 -1.330058,-0.432002 -2.67499,-0.813765 -4.02774,-1.16282 -2.548534,-0.657733 -5.13104,-1.181605 -7.737691,-1.572095 -1.595728,-0.239049 -3.199053,-0.430559 -4.80777,-0.580206 -2.575714,-0.239602 -5.163878,-0.361034 -7.7401,-0.370755 -0.683226,-0.0026 -1.403412,-0.06142 -2.099337,-0.06259 -0.008,-1.3e-5 -0.0161,0 -0.02407,0 z" />
  <path
     d="m 74.799152,28.114534 c -10.033673,0.431423 -20.104325,0.06163 -30.101018,-0.912153 -0.517709,-0.0493 -1.639409,-0.123264 -2.909026,-0.283507 -3.229511,-0.40677 -7.445132,-1.417533 -5.460586,-4.178643 1.15868,-1.62708 3.796525,-1.996873 5.583851,-2.440622 2.477602,-0.628645 4.979856,-1.121701 7.506764,-1.503818 2.933678,-0.44375 5.892009,-0.727257 8.85034,-0.862846 9.614576,-0.44375 19.759187,-0.147917 28.942338,3.044615 1.380555,0.480729 3.204859,1.060069 4.067706,2.354338 2.68715,4.0184 -9.281764,4.277254 -10.995131,4.412844 -1.824304,0.147917 -3.660934,0.295834 -5.485238,0.369792 z"
     style="fill:#2f2f2f;stroke-width:1.17232"
     id="path5" />
  <path
     style="fill:none;fill-opacity:1;stroke:#ffffff;stroke-width:3.51698;stroke-linecap:round;stroke-dasharray:none;stroke-opacity:1"
     d="m 56.353932,43.99033 c 0,0 -0.326852,5.279926 -2.505869,10.685563 -2.179017,5.405636 -3.050623,7.291325 -3.050623,7.291325"
     id="path8" />
  <path
     style="fill:none;fill-opacity:1;stroke:#ffffff;stroke-width:3.51698;stroke-linecap:round;stroke-dasharray:none;stroke-opacity:1"
     d="m 71.152551,42.86117 c 0,0 0.326853,5.279924 2.50587,10.685562 2.179016,5.405637 3.050624,7.291324 3.050624,7.291324"
     id="path9" />
</svg>
