<?xml version="1.0" encoding="UTF-8" standalone="no"?>
<!-- Generator: Adobe Illustrator 16.0.0, SVG Export Plug-In . SVG Version: 6.00 Build 0)  -->

<svg
   version="1.1"
   id="レイヤー_1"
   x="0px"
   y="0px"
   width="128px"
   height="128px"
   viewBox="0 0 128 128"
   enable-background="new 0 0 128 128"
   xml:space="preserve"
   sodipodi:docname="emoji_u1f49f.svg"
   inkscape:version="1.3 (0e150ed6c4, 2023-07-21)"
   xmlns:inkscape="http://www.inkscape.org/namespaces/inkscape"
   xmlns:sodipodi="http://sodipodi.sourceforge.net/DTD/sodipodi-0.dtd"
   xmlns="http://www.w3.org/2000/svg"
   xmlns:svg="http://www.w3.org/2000/svg"><defs
   id="defs2" /><sodipodi:namedview
   id="namedview2"
   pagecolor="#ffffff"
   bordercolor="#000000"
   borderopacity="0.25"
   inkscape:showpageshadow="2"
   inkscape:pageopacity="0.0"
   inkscape:pagecheckerboard="0"
   inkscape:deskcolor="#d1d1d1"
   inkscape:zoom="1.0136719"
   inkscape:cx="-61.163777"
   inkscape:cy="59.684008"
   inkscape:window-width="1366"
   inkscape:window-height="697"
   inkscape:window-x="-8"
   inkscape:window-y="-8"
   inkscape:window-maximized="1"
   inkscape:current-layer="レイヤー_1" />&#10;<path
   d="M 121.005,0.115 H 6.995 c -3.78,0 -6.88,3.09 -6.88,6.88 v 114.01 c 0,3.79 3.1,6.88 6.88,6.88 h 114.01 c 3.78,0 6.88,-3.09 6.88,-6.88 V 6.995 c 0,-3.79 -3.1,-6.88 -6.88,-6.88 z"
   fill="#40c0e7"
   id="path1-8"
   style="fill:#9531a6" />&#10;<path
   d="m 105.22481,44.446943 c -0.14937,-0.307505 -0.31629,-0.597441 -0.47444,-0.896161 -0.11422,-0.219647 -0.22844,-0.44808 -0.35144,-0.658941 -0.21965,-0.377793 -0.43929,-0.738014 -0.65894,-1.089449 -0.0703,-0.123008 -0.14058,-0.25479 -0.21965,-0.369007 -0.21085,-0.325077 -0.4305,-0.632584 -0.65015,-0.94009 -0.0966,-0.140575 -0.19328,-0.289934 -0.29872,-0.421723 -0.21965,-0.29872 -0.45686,-0.579868 -0.68529,-0.861016 -0.11422,-0.131788 -0.21086,-0.281149 -0.32508,-0.40415 -0.23722,-0.272362 -0.48323,-0.527154 -0.72923,-0.79073 -0.11422,-0.123007 -0.22844,-0.25479 -0.34265,-0.377794 -0.24601,-0.246003 -0.500796,-0.474437 -0.746804,-0.70287 -0.131789,-0.123007 -0.254788,-0.246005 -0.386576,-0.360221 -0.246009,-0.219647 -0.518364,-0.421723 -0.773162,-0.623797 -0.149357,-0.114221 -0.289935,-0.237219 -0.421723,-0.342651 -0.254787,-0.184501 -0.518364,-0.351435 -0.781941,-0.527152 -0.158146,-0.105431 -0.316292,-0.219647 -0.474438,-0.325078 -0.254788,-0.166931 -0.527154,-0.307506 -0.79951,-0.456867 -0.166935,-0.09665 -0.342649,-0.202074 -0.518374,-0.289933 -0.263577,-0.140575 -0.535933,-0.254792 -0.808299,-0.377793 -0.184504,-0.08785 -0.377797,-0.175717 -0.57108,-0.263577 -0.263576,-0.10543 -0.544732,-0.202075 -0.817088,-0.298719 -0.210861,-0.07028 -0.412933,-0.158146 -0.623795,-0.228433 -0.272368,-0.08785 -0.544729,-0.158146 -0.817092,-0.228433 -0.228432,-0.06151 -0.448079,-0.131788 -0.676513,-0.184504 -0.272362,-0.06151 -0.55351,-0.10543 -0.825873,-0.158146 -0.246004,-0.04393 -0.483224,-0.105431 -0.729228,-0.140573 -0.281148,-0.04393 -0.571083,-0.0703 -0.85223,-0.09665 -0.246006,-0.02636 -0.500797,-0.06151 -0.764374,-0.07906 -0.289934,-0.02636 -0.579867,-0.02636 -0.878588,-0.03514 -0.246004,-0.0088 -0.483222,-0.02636 -0.738014,-0.02636 h -0.123007 c -0.342649,0 -0.676513,0 -1.019162,0.0088 -3.567068,0.06151 -7.028707,0.85223 -10.305842,2.222827 -3.505568,1.476028 -5.904114,3.681286 -9.023101,5.666895 -0.263577,0.166933 -0.562297,0.289934 -0.869803,0.377793 -0.08785,0.02637 -0.184504,0.04393 -0.281148,0.07029 -0.228433,0.05272 -0.465653,0.07907 -0.6853,0.09665 -0.09665,0 -0.193288,0.0088 -0.289933,0.0088 -0.316292,-0.0088 -0.64137,-0.04393 -0.948876,-0.123007 -0.342651,-0.09665 -0.667727,-0.237219 -0.957661,-0.421723 -3.11899,-1.985608 -5.517535,-4.190866 -9.023103,-5.666894 -3.277133,-1.370597 -6.738772,-2.161327 -10.305841,-2.222828 -0.342649,-0.0088 -0.676513,-0.0088 -1.019163,-0.0088 H 41.50079 c -0.246004,0 -0.492007,0.01757 -0.738014,0.02636 -0.289934,0.0088 -0.588654,0.0088 -0.878589,0.03514 -0.254789,0.01758 -0.50958,0.05271 -0.764371,0.07906 -0.281148,0.02636 -0.562298,0.05273 -0.843444,0.09665 -0.254792,0.03514 -0.500795,0.09665 -0.755586,0.140574 -0.263577,0.05271 -0.544724,0.09665 -0.799516,0.14936 -0.246004,0.0615 -0.483223,0.131788 -0.729229,0.202075 -0.25479,0.07028 -0.518366,0.131788 -0.773157,0.210861 -0.237219,0.07028 -0.456865,0.166931 -0.685298,0.246004 -0.254792,0.08785 -0.509581,0.175719 -0.755588,0.281149 -0.219647,0.08785 -0.430508,0.19329 -0.641369,0.298719 -0.246004,0.114222 -0.49201,0.219647 -0.738013,0.34265 -0.210862,0.105431 -0.412937,0.237218 -0.623798,0.351435 -0.228433,0.13179 -0.465652,0.254791 -0.694084,0.395366 -0.202077,0.131787 -0.395367,0.272362 -0.597442,0.40415 -0.219647,0.14936 -0.448079,0.289934 -0.658941,0.44808 -0.193288,0.14936 -0.377792,0.298719 -0.562296,0.456865 -0.210862,0.166934 -0.421722,0.333865 -0.632583,0.509582 -0.175719,0.158146 -0.351436,0.325078 -0.527154,0.492009 -0.202074,0.19329 -0.40415,0.377794 -0.597439,0.571083 -0.158147,0.166932 -0.316292,0.34265 -0.465651,0.509582 -0.202077,0.219647 -0.412938,0.430508 -0.606228,0.658941 -0.149359,0.175717 -0.289934,0.369007 -0.439294,0.55351 -0.184503,0.23722 -0.386578,0.465652 -0.562296,0.720443 -0.140575,0.184503 -0.263576,0.386579 -0.395365,0.571082 -0.184504,0.263577 -0.377794,0.518367 -0.55351,0.79073 -0.114222,0.184504 -0.228434,0.377792 -0.342651,0.562296 -0.184502,0.298721 -0.369007,0.588654 -0.544723,0.904947 -0.114222,0.21086 -0.228433,0.430508 -0.34265,0.641368 -0.158146,0.307507 -0.325079,0.59744 -0.483224,0.913733 -0.263575,0.535939 -0.518367,1.089449 -0.755586,1.651745 -1.651747,3.839432 -1.678104,9.62933 -1.001591,13.662049 0.667727,4.023936 2.34583,7.652504 4.621374,11.043856 7.617363,11.289859 21.165194,16.535033 30.935097,25.645993 1.04552,0.975234 2.064681,2.020753 3.13656,3.004773 1.124593,1.036742 2.495191,3.426492 4.305083,3.540712 1.809892,-0.10539 3.18049,-2.50397 4.313868,-3.540712 1.063093,-0.98402 2.091042,-2.020753 3.13656,-3.004773 9.769904,-9.119746 23.308952,-14.356134 30.908738,-25.67235 2.27554,-3.391351 3.94485,-7.019921 4.62138,-11.043857 0.67652,-4.03272 0.64137,-9.822617 -1.01039,-13.662047 -0.24598,-0.562326 -0.50078,-1.107052 -0.75557,-1.642989 z"
   id="path1"
   style="fill:#ffffff;fill-opacity:1;stroke-width:0.999998" /></svg>
