<?xml version="1.0" encoding="UTF-8" standalone="no"?>
<svg
   width="128"
   height="128"
   version="1.1"
   id="svg9207"
   sodipodi:docname="emoji_u1f9be.svg"
   inkscape:version="1.3 (0e150ed6c4, 2023-07-21)"
   xmlns:inkscape="http://www.inkscape.org/namespaces/inkscape"
   xmlns:sodipodi="http://sodipodi.sourceforge.net/DTD/sodipodi-0.dtd"
   xmlns="http://www.w3.org/2000/svg"
   xmlns:svg="http://www.w3.org/2000/svg">
  <defs
     id="defs9211" />
  <sodipodi:namedview
     id="namedview9209"
     pagecolor="#ffffff"
     bordercolor="#000000"
     borderopacity="0.25"
     inkscape:showpageshadow="2"
     inkscape:pageopacity="0.0"
     inkscape:pagecheckerboard="0"
     inkscape:deskcolor="#d1d1d1"
     showgrid="false"
     inkscape:zoom="2.9996796"
     inkscape:cx="48.838549"
     inkscape:cy="81.508705"
     inkscape:window-width="1366"
     inkscape:window-height="697"
     inkscape:window-x="-8"
     inkscape:window-y="-8"
     inkscape:window-maximized="1"
     inkscape:current-layer="svg9207" />
  <path
     style="fill:#6593a2;stroke-width:9.07087;stroke-linecap:round"
     d="M 52.817679,20.272559 C 41.396448,13.678508 23.711932,36.648838 15.101288,54.924492 3.550645,79.440145 7.55801,98.769793 24.294658,98.769793 c 15.086556,0 20.272559,-26.165743 23.101289,-39.36648 C 50.224676,46.202577 63.4998,26.439884 52.817679,20.272559 Z"
     id="path3"
     sodipodi:nodetypes="sssss" />
  <path
     id="path7"
     style="fill:#4b6b75;fill-opacity:1;stroke-width:9.07087;stroke-linecap:round"
     d="m 43.892578,74.125 -1.173828,0.302734 c -5.988333,1.577171 -12.197129,2.037692 -18.232422,3.394532 -5.540139,1.187292 -11.140581,2.979354 -15.695312,6.4375 1.215202,8.941931 6.525482,14.509765 15.503906,14.509765 10.44655,0 16.140809,-12.544632 19.597656,-24.644531 z" />
  <path
     d="m 46.68501,48.154826 c 0,0 1.01499,-1.514826 3.61499,-1.584826 4.79,-0.13 9.67,-0.59 14.06,-2.01 4.38,-1.41 9.12,-3.35 13.79,-3.35 2.55,0 4.51,1.4 6.96,1.61 2.34,0.2 4.63,0.08 6.82,-0.67 2.21,-0.76 6.52,-2.34 7.57,-4.69 0.8,-1.8 -0.3,-4.28 -0.49,-5.86 C 98.74,29.27 96.85,28.89 95.92,26.72 95.08,24.78 95.75,22.57 94.61,20.89 93.5,19.24 93.25,16.84 92.49,14.99 91.75,13.14 91.08,11.14 90.08,9.5 88.75,7.32 88.09,6.13 85.62,5.33 84.04,4.82 82.52,3.9 80.84,3.71 76.45,3.22 71.88,4.27 67.97,5.74 62.3,7.88 56.25,9.88 51.22,13.36 c -3.59,2.48 -5.86321,4.616631 -9.40321,7.296631 -1.99,1.51 -4.20452,5.731889 -4.20452,12.207374 0,10.414617 9.07274,15.290821 9.07274,15.290821 z"
     fill="#fcc21b"
     id="path1"
     style="fill:#6593a2;fill-opacity:1"
     sodipodi:nodetypes="cccscccccccccccccsc" />
  <g
     fill="#e48c15"
     id="g2"
     style="fill:#4b6b75;fill-opacity:1"
     transform="translate(-8)">
    <path
       d="m 105.05,26.57 c -1.49,-6.08 -0.82,-4.93 -4.5,-14.26 -2.76,-7.01 -7.59,-8.63 -12.88,-8.7 1.63,0.2 3.21,0.43 4.62,1.48 1.42,1.04 2.47,5.38 3.36,6.98 0.47,0.85 0.96,2.1 1.4,3.28 0.61,1.7 1.08,3.26 1.08,3.26 1.08,2.9 2.11,6.73 2.26,7.23 0.07,0.21 0.08,0.4 0.07,0.58 -0.01,0.23 -0.07,0.43 -0.16,0.61 -0.23,0.43 -0.63,0.74 -1.08,0.93 -0.79,0.33 -2.15,0.43 -2.82,-0.54 -0.66,-0.96 -1.93,-4.03 -2.19,-4.96 l -2.43,-6.21 c 0,0 -0.52,-0.98 -1.36,-1.19 -0.67,-0.17 -1.76,0.14 -2.14,0.74 -0.49,0.77 -0.1,1.93 -0.1,1.93 0,0 4.23,10.74 4.43,11.32 0.38,1.11 -0.33,1.77 -1.1,2.13 -0.79,0.34 -2.13,0.46 -2.8,-0.48 C 88.05,29.8 84,20.13 83.7,19.42 l -0.03,-0.08 c 0,0 -0.52,-0.98 -1.36,-1.18 -0.67,-0.17 -1.77,0.13 -2.14,0.74 -0.59,0.97 -0.15,1.96 -0.15,1.96 0.88,1.95 4.89,10.82 5.08,11.34 0.41,1.07 -0.26,1.75 -1.01,2.12 -0.75,0.36 -2.07,0.53 -2.77,-0.37 -0.7,-0.9 -5.89,-11.22 -5.89,-11.22 0,0 -0.61,-0.92 -1.47,-1.04 -0.68,-0.1 -1.79,0.29 -2.05,0.95 -0.31,0.8 0.09,1.94 0.09,1.94 l 5.48,11 c 0.52,1.07 -0.1,1.82 -0.84,2.27 -0.74,0.44 -2.07,0.73 -2.88,-0.13 -0.64,-0.69 -4.82,-7.92 -6.53,-10.88 -3.26,2.51 -1.34,5.81 -0.73,7.76 0.37,1.16 0.45,5.11 -1.47,6.85 -1.3,1.18 -2.82,1.45 -4.01,1.44 -0.57,-0.05 -1.15,-0.13 -1.72,-0.22 -0.14,-0.03 -0.24,-0.07 -0.24,-0.07 0,0 0.04,0.03 0.06,0.04 -1.14,-0.16 -2.28,-0.36 -3.46,-0.64 -0.95,-0.23 -1.93,-0.02 -2.71,0.54 -0.787518,0.560896 -1.587957,1.455785 -1.38,2.4 0.565879,2.569337 2.526661,3.695563 6.29,4.27 12.12,1.85 22.13,-1.62 26.41,-3.48 2.83,1.91 8.64,3.62 19.47,-0.9 0.14,-0.06 0.26,-0.13 0.39,-0.19 3.54,-1.62 4.97,-4.14 5.52,-6.01 1.43,-4.93 -3.5,-10.28 -4.6,-12.06 z m -1.16,8.21 c -0.08,0.52 -0.28,0.97 -0.56,1.38 -0.62,0.9 -1.59,1.54 -2.42,1.89 -2.82,1.18 -5.25,2.18 -5.85,2.33 -2.25,0.58 -3.41,0.01 -3.97,-1 -0.56,-1.01 -0.84,-2.78 0.46,-3.76 1.05,-0.79 7.63,-3.84 10.15,-5 0.6,-0.28 0.98,-0.45 0.98,-0.45 0,0 1.57,2.01 1.21,4.61 z"
       id="path2"
       sodipodi:nodetypes="cccccccccccccccccccccccccccsccccccccccccccccsscccccccccscccc"
       style="fill:#4b6b75;fill-opacity:1" />
  </g>
  <path
     style="fill:#6593a2;fill-opacity:1;stroke-width:9.07087;stroke-linecap:round"
     d="m 89.119703,58.224676 c -26.6372,0 -29.230201,13.436465 -39.837936,20.036833 -10.607735,6.600368 -43.138121,1.053414 -43.138121,24.279921 0,15.28293 12.331683,21.23158 69.303866,22.78468 28.301318,0.77151 44.142948,-8.9678 44.142948,-32.573339 0,-23.605537 -16.09138,-34.528095 -30.470757,-34.528095 z"
     id="path5"
     sodipodi:nodetypes="sssszs" />
  <circle
     style="fill:#4b6b75;stroke-width:9.07083;stroke-linecap:round"
     id="path4"
     cx="29.346046"
     cy="101.26169"
     r="13.066121" />
  <circle
     style="fill:#4b6b75;stroke-width:9.07083;stroke-linecap:round"
     id="circle8"
     cx="86.274223"
     cy="92.775497"
     r="21.788034" />
  <path
     id="path8"
     style="fill:#4b6b75;fill-opacity:1;stroke-width:9.07087;stroke-linecap:round"
     d="m 57.703125,70.863281 c -2.661095,2.716686 -5.178624,5.380415 -8.421875,7.398438 -0.710848,0.442305 -1.526613,0.826354 -2.417969,1.171875 -1.211724,4.150317 -2.357422,9.937546 -2.357422,17.076172 0,10.790184 5.469779,22.139794 8.634766,27.810544 2.937621,0.19531 6.045377,0.37138 9.339844,0.52344 -3.084782,-4.24443 -9.139957,-17.63088 -9.139957,-29.667673 0,-13.650316 3.328823,-21.344448 4.362613,-24.312796 z"
     sodipodi:nodetypes="cscsccsc" />
</svg>
