<?xml version="1.0" encoding="UTF-8" standalone="no"?>
<svg
   width="100%"
   height="100%"
   viewBox="0 0 128 128"
   version="1.1"
   xml:space="preserve"
   style="fill-rule:evenodd;clip-rule:evenodd;stroke-linejoin:round;stroke-miterlimit:2;"
   id="svg2"
   sodipodi:docname="emoji_u1f92a_200d_2063.svg"
   inkscape:version="1.3 (0e150ed6c4, 2023-07-21)"
   xmlns:inkscape="http://www.inkscape.org/namespaces/inkscape"
   xmlns:sodipodi="http://sodipodi.sourceforge.net/DTD/sodipodi-0.dtd"
   xmlns="http://www.w3.org/2000/svg"
   xmlns:svg="http://www.w3.org/2000/svg"><defs
   id="defs2"><clipPath
     clipPathUnits="userSpaceOnUse"
     id="clipPath2"><path
       id="path2"
       style="stroke-width:1.00019"
       d="M 88.277343,35.015625 A 19.895958,18.566364 83.65 0 0 85.628906,35.105469 19.895958,18.566364 83.65 0 0 69.376954,56.933594 19.895958,18.566364 83.65 0 0 90.03125,74.654297 19.895958,18.566364 83.65 0 0 106.2832,52.826172 19.895958,18.566364 83.65 0 0 88.277343,35.015625 Z m -47.042968,0.04883 A 18.566366,19.895958 4.3130002 0 0 21.22461,53.507812 18.566366,19.895958 4.3130002 0 0 38.242188,74.744141 18.566366,19.895958 4.3130002 0 0 58.251953,56.300781 18.566366,19.895958 4.3130002 0 0 41.234375,35.064453 Z" /></clipPath><clipPath
     id="_clip1"><path
       d="m 400.957,271.713 c -12.783,-8.646 -28.875,-2.937 -43.106,0 -39.631,8.191 -74.462,8.521 -91.175,8.521 -16.713,0 -51.545,-0.33 -91.175,-8.521 -14.231,-2.937 -30.323,-8.646 -43.106,0 -16.216,10.962 -4.261,50.262 21.263,76.82 15.431,16.051 52.165,47.201 113.018,47.201 60.852,0 97.587,-31.15 113.017,-47.201 25.525,-26.558 37.439,-65.858 21.264,-76.82 z"
       clip-rule="nonzero"
       id="path3" /></clipPath></defs><sodipodi:namedview
   id="namedview2"
   pagecolor="#ffffff"
   bordercolor="#000000"
   borderopacity="0.25"
   inkscape:showpageshadow="2"
   inkscape:pageopacity="0.0"
   inkscape:pagecheckerboard="0"
   inkscape:deskcolor="#d1d1d1"
   inkscape:zoom="2.867097"
   inkscape:cx="75.860704"
   inkscape:cy="63.30445"
   inkscape:window-width="1366"
   inkscape:window-height="697"
   inkscape:window-x="-8"
   inkscape:window-y="-8"
   inkscape:window-maximized="1"
   inkscape:current-layer="svg2" />&#10;    <path
   id="path10"
   d="M63.89,9.64C1.58,9.64 0.1,79.5 0.1,93.33C0.1,107.16 28.66,118.36 63.89,118.36C99.13,118.36 127.68,107.15 127.68,93.33C127.68,79.5 126.21,9.64 63.89,9.64Z"
   style="fill:rgb(252,194,27);fill-rule:nonzero;" />&#10;    &#10;    &#10;    &#10;    &#10;    &#10;    &#10;<ellipse
   cx="-51.14941"
   cy="-79.548241"
   rx="16.610579"
   ry="15.500539"
   style="fill:#ffffff;stroke-width:1.00003"
   transform="matrix(-0.07155252,-0.99743683,-0.99743683,0.07155252,0,0)"
   id="ellipse47" /><ellipse
   cx="-34.943188"
   cy="54.338661"
   rx="15.500487"
   ry="16.610523"
   style="fill:#ffffff;stroke-width:1.00003"
   transform="matrix(-0.99275455,0.12015988,0.12015988,0.99275455,0,0)"
   id="ellipse48" /><g
   id="g5"
   style="clip-rule:evenodd;fill-rule:evenodd;stroke-width:3.8917;stroke-linecap:square;stroke-linejoin:round;stroke-miterlimit:2"
   transform="matrix(0.25376802,-0.04035675,0.04035675,0.25376802,-14.825477,14.164962)"><clipPath
     id="clipPath1"><path
       d="m 400.957,271.713 c -12.783,-8.646 -28.875,-2.937 -43.106,0 -39.631,8.191 -74.462,8.521 -91.175,8.521 -16.713,0 -51.545,-0.33 -91.175,-8.521 -14.231,-2.937 -30.323,-8.646 -43.106,0 -16.216,10.962 -4.261,50.262 21.263,76.82 15.431,16.051 52.165,47.201 113.018,47.201 60.852,0 97.587,-31.15 113.017,-47.201 25.525,-26.558 37.439,-65.858 21.264,-76.82 z"
       clip-rule="nonzero"
       id="path1" /></clipPath><g
     clip-path="url(#_clip1)"
     id="g4"
     style="stroke-width:3.8917"><path
       d="m 409.356,311.973 c -62.018,18.704 -116.526,19.459 -142.68,19.459 -26.154,0 -80.662,-0.755 -142.68,-19.459"
       style="fill:none;fill-rule:nonzero;stroke:#9e9e9e;stroke-width:64.8747px"
       id="path4-2" /></g><path
     d="m 129.208,307.001 c -1.37,-0.4 -2.44,-1.474 -2.835,-2.846 -4.19,-14.655 -3.127,-27.344 5.053,-32.873 12.875,-8.709 29.083,-2.959 43.417,0 39.916,8.25 75,8.583 91.833,8.583 16.833,0 51.917,-0.333 91.833,-8.583 14.334,-2.959 30.542,-8.709 43.417,0 8.16,5.53 9.222,18.22 5.02,32.872 -0.392,1.368 -1.458,2.439 -2.824,2.839 -59.805,17.49 -112.106,18.189 -137.446,18.189 -25.342,0 -77.651,-0.699 -137.468,-18.181 z m 268.154,14.867 c 0.481,-0.13 0.993,0.039 1.303,0.43 0.31,0.391 0.358,0.928 0.122,1.368 -4.761,8.733 -10.964,17.381 -18.278,24.991 -15.541,16.166 -52.541,47.541 -113.833,47.541 -61.292,0 -98.292,-31.375 -113.833,-47.541 -7.314,-7.611 -13.522,-16.259 -18.285,-24.994 -0.234,-0.439 -0.186,-0.975 0.123,-1.365 0.309,-0.39 0.82,-0.559 1.301,-0.431 57.014,15.142 106.166,15.815 130.694,15.815 24.526,0 73.675,-0.673 130.686,-15.814 z"
     style="fill:#fafafa;fill-rule:nonzero;stroke-width:3.8917"
     id="path5" /></g><path
   d="m 86.069432,53.015148 c -0.300565,2.751807 -2.816473,4.763495 -5.611075,4.486373 -2.803289,-0.269086 -4.833669,-2.73548 -4.533103,-5.487289 0.292533,-2.760498 2.799752,-4.764151 5.602714,-4.486704 2.803291,0.269088 4.84203,2.735812 4.541464,5.48762"
   style="clip-rule:evenodd;fill:#2f2f2f;fill-rule:evenodd;stroke-width:1;stroke-linejoin:round;stroke-miterlimit:2"
   id="path48-2" /><path
   d="m 46.516241,42.736422 c 0.847321,2.638704 -0.616428,5.496729 -3.289664,6.385019 -2.67161,0.896499 -5.529705,-0.52458 -6.375398,-3.155077 -0.863737,-2.635449 0.608219,-5.495101 3.279829,-6.3916 2.665029,-0.886663 5.531332,0.532789 6.385233,3.161658"
   style="clip-rule:evenodd;fill:#2f2f2f;fill-rule:evenodd;stroke-width:1;stroke-linejoin:round;stroke-miterlimit:2"
   id="path49-4" /></svg>
