<?xml version="1.0" encoding="UTF-8" standalone="no"?>
<svg
   width="128"
   height="128"
   version="1.1"
   id="svg4"
   sodipodi:docname="emoji_u2695.svg"
   xml:space="preserve"
   inkscape:version="1.3 (0e150ed6c4, 2023-07-21)"
   xmlns:inkscape="http://www.inkscape.org/namespaces/inkscape"
   xmlns:sodipodi="http://sodipodi.sourceforge.net/DTD/sodipodi-0.dtd"
   xmlns:xlink="http://www.w3.org/1999/xlink"
   xmlns="http://www.w3.org/2000/svg"
   xmlns:svg="http://www.w3.org/2000/svg"><defs
     id="defs4"><path
       id="SVGID_1_"
       d="M 60.54,5.94 C 45.22,1.55 24.62,8.69 19.87,25.04 c -0.73,2.5 -1.43,6.53 -0.38,9.01 1.6,3.82 5,6.91 8.74,8.38 3.56,1.4 8.95,1.87 12.26,4.11 4.94,3.35 -1.53,11.05 -3.86,13.96 -4.93,6.18 -9.52,12.47 -14.28,18.8 -4.09,5.44 -8.33,11.66 -9.57,18.48 -3.72,20.52 18.86,29.03 35.38,26.89 14.62,-1.89 26.61,-11.22 35.79,-22.31 1.38,-1.67 3.1,-5.84 5.21,-6.53 3.66,-1.19 2.69,3.24 2.91,6.07 0.13,1.8 0.46,3.49 0.89,5.23 1.79,7.35 9.34,12.13 16.57,11.59 10.16,-0.75 15.19,-10.57 17.41,-19.36 1.15,-4.55 1.34,-9.82 -0.29,-14.27 -0.48,-1.3 -0.64,-2.43 -2.23,-2.23 -2.1,0.28 -2.59,2.48 -3.39,4.05 -1.3,2.59 -2.96,5.34 -4.9,7.5 -3.33,3.74 -3.58,0.75 -3.71,-2.66 C 112.07,81.66 109.8,69.94 100.42,64.3 84.96,55 69.57,77.65 60.77,87.19 59.14,89 49.19,99.47 47.62,92.54 46.91,89.45 51.38,85.42 53.32,83.55 67.09,70.22 83.04,49.92 80.68,29.52 79.44,18.66 71.01,8.94 60.54,5.94 Z" /><defs
       id="defs7"><path
         id="path7"
         d="M 60.54,5.94 C 45.22,1.55 24.62,8.69 19.87,25.04 c -0.73,2.5 -1.43,6.53 -0.38,9.01 1.6,3.82 5,6.91 8.74,8.38 3.56,1.4 8.95,1.87 12.26,4.11 4.94,3.35 -1.53,11.05 -3.86,13.96 -4.93,6.18 -9.52,12.47 -14.28,18.8 -4.09,5.44 -8.33,11.66 -9.57,18.48 -3.72,20.52 18.86,29.03 35.38,26.89 14.62,-1.89 26.61,-11.22 35.79,-22.31 1.38,-1.67 3.1,-5.84 5.21,-6.53 3.66,-1.19 2.69,3.24 2.91,6.07 0.13,1.8 0.46,3.49 0.89,5.23 1.79,7.35 9.34,12.13 16.57,11.59 10.16,-0.75 15.19,-10.57 17.41,-19.36 1.15,-4.55 1.34,-9.82 -0.29,-14.27 -0.48,-1.3 -0.64,-2.43 -2.23,-2.23 -2.1,0.28 -2.59,2.48 -3.39,4.05 -1.3,2.59 -2.96,5.34 -4.9,7.5 -3.33,3.74 -3.58,0.75 -3.71,-2.66 C 112.07,81.66 109.8,69.94 100.42,64.3 84.96,55 69.57,77.65 60.77,87.19 59.14,89 49.19,99.47 47.62,92.54 46.91,89.45 51.38,85.42 53.32,83.55 67.09,70.22 83.04,49.92 80.68,29.52 79.44,18.66 71.01,8.94 60.54,5.94 Z" /></defs><clipPath
       id="clipPath8"><use
         style="overflow:visible"
         xlink:href="#SVGID_1_"
         id="use8" /></clipPath><defs
       id="defs34"><path
         id="path34"
         d="M 60.54,5.94 C 45.22,1.55 24.62,8.69 19.87,25.04 c -0.73,2.5 -1.43,6.53 -0.38,9.01 1.6,3.82 5,6.91 8.74,8.38 3.56,1.4 8.95,1.87 12.26,4.11 4.94,3.35 -1.53,11.05 -3.86,13.96 -4.93,6.18 -9.52,12.47 -14.28,18.8 -4.09,5.44 -8.33,11.66 -9.57,18.48 -3.72,20.52 18.86,29.03 35.38,26.89 14.62,-1.89 26.61,-11.22 35.79,-22.31 1.38,-1.67 3.1,-5.84 5.21,-6.53 3.66,-1.19 2.69,3.24 2.91,6.07 0.13,1.8 0.46,3.49 0.89,5.23 1.79,7.35 9.34,12.13 16.57,11.59 10.16,-0.75 15.19,-10.57 17.41,-19.36 1.15,-4.55 1.34,-9.82 -0.29,-14.27 -0.48,-1.3 -0.64,-2.43 -2.23,-2.23 -2.1,0.28 -2.59,2.48 -3.39,4.05 -1.3,2.59 -2.96,5.34 -4.9,7.5 -3.33,3.74 -3.58,0.75 -3.71,-2.66 C 112.07,81.66 109.8,69.94 100.42,64.3 84.96,55 69.57,77.65 60.77,87.19 59.14,89 49.19,99.47 47.62,92.54 46.91,89.45 51.38,85.42 53.32,83.55 67.09,70.22 83.04,49.92 80.68,29.52 79.44,18.66 71.01,8.94 60.54,5.94 Z" /></defs><clipPath
       id="clipPath35"><use
         style="overflow:visible"
         xlink:href="#SVGID_1_"
         id="use35" /></clipPath><defs
       id="defs36"><path
         id="path36"
         d="M 60.54,5.94 C 45.22,1.55 24.62,8.69 19.87,25.04 c -0.73,2.5 -1.43,6.53 -0.38,9.01 1.6,3.82 5,6.91 8.74,8.38 3.56,1.4 8.95,1.87 12.26,4.11 4.94,3.35 -1.53,11.05 -3.86,13.96 -4.93,6.18 -9.52,12.47 -14.28,18.8 -4.09,5.44 -8.33,11.66 -9.57,18.48 -3.72,20.52 18.86,29.03 35.38,26.89 14.62,-1.89 26.61,-11.22 35.79,-22.31 1.38,-1.67 3.1,-5.84 5.21,-6.53 3.66,-1.19 2.69,3.24 2.91,6.07 0.13,1.8 0.46,3.49 0.89,5.23 1.79,7.35 9.34,12.13 16.57,11.59 10.16,-0.75 15.19,-10.57 17.41,-19.36 1.15,-4.55 1.34,-9.82 -0.29,-14.27 -0.48,-1.3 -0.64,-2.43 -2.23,-2.23 -2.1,0.28 -2.59,2.48 -3.39,4.05 -1.3,2.59 -2.96,5.34 -4.9,7.5 -3.33,3.74 -3.58,0.75 -3.71,-2.66 C 112.07,81.66 109.8,69.94 100.42,64.3 84.96,55 69.57,77.65 60.77,87.19 59.14,89 49.19,99.47 47.62,92.54 46.91,89.45 51.38,85.42 53.32,83.55 67.09,70.22 83.04,49.92 80.68,29.52 79.44,18.66 71.01,8.94 60.54,5.94 Z" /></defs><clipPath
       id="clipPath37"><use
         style="overflow:visible"
         xlink:href="#SVGID_1_"
         id="use37" /></clipPath><clipPath
       clipPathUnits="userSpaceOnUse"
       id="clipPath44"><rect
         style="fill:#212121;fill-opacity:1;stroke:none;stroke-width:6;stroke-linecap:round"
         id="rect45"
         width="1179.869"
         height="293.98071"
         x="-2740.5317"
         y="580.0694" /></clipPath><clipPath
       clipPathUnits="userSpaceOnUse"
       id="clipPath46"><rect
         style="fill:#212121;fill-opacity:1;stroke:none;stroke-width:6;stroke-linecap:round"
         id="rect47"
         width="201.24855"
         height="176.58574"
         x="19.730251"
         y="3662.9209"
         clip-path="none"
         transform="scale(-1,1)" /></clipPath><defs
       id="defs2"><path
         id="path5"
         d="M 60.54,5.94 C 45.22,1.55 24.62,8.69 19.87,25.04 c -0.73,2.5 -1.43,6.53 -0.38,9.01 1.6,3.82 5,6.91 8.74,8.38 3.56,1.4 8.95,1.87 12.26,4.11 4.94,3.35 -1.53,11.05 -3.86,13.96 -4.93,6.18 -9.52,12.47 -14.28,18.8 -4.09,5.44 -8.33,11.66 -9.57,18.48 -3.72,20.52 18.86,29.03 35.38,26.89 14.62,-1.89 26.61,-11.22 35.79,-22.31 1.38,-1.67 3.1,-5.84 5.21,-6.53 3.66,-1.19 2.69,3.24 2.91,6.07 0.13,1.8 0.46,3.49 0.89,5.23 1.79,7.35 9.34,12.13 16.57,11.59 10.16,-0.75 15.19,-10.57 17.41,-19.36 1.15,-4.55 1.34,-9.82 -0.29,-14.27 -0.48,-1.3 -0.64,-2.43 -2.23,-2.23 -2.1,0.28 -2.59,2.48 -3.39,4.05 -1.3,2.59 -2.96,5.34 -4.9,7.5 -3.33,3.74 -3.58,0.75 -3.71,-2.66 C 112.07,81.66 109.8,69.94 100.42,64.3 84.96,55 69.57,77.65 60.77,87.19 59.14,89 49.19,99.47 47.62,92.54 46.91,89.45 51.38,85.42 53.32,83.55 67.09,70.22 83.04,49.92 80.68,29.52 79.44,18.66 71.01,8.94 60.54,5.94 Z" /></defs><clipPath
       id="SVGID_2_"><use
         style="overflow:visible"
         xlink:href="#SVGID_1_"
         id="use2" /></clipPath></defs><sodipodi:namedview
     id="namedview4"
     pagecolor="#ffffff"
     bordercolor="#000000"
     borderopacity="0.25"
     inkscape:showpageshadow="2"
     inkscape:pageopacity="0.0"
     inkscape:pagecheckerboard="0"
     inkscape:deskcolor="#d1d1d1"
     inkscape:zoom="1.4335485"
     inkscape:cx="-3.1390636"
     inkscape:cy="87.544997"
     inkscape:window-width="1366"
     inkscape:window-height="697"
     inkscape:window-x="-8"
     inkscape:window-y="-8"
     inkscape:window-maximized="1"
     inkscape:current-layer="svg4" /><g
     fill="#677a82"
     id="g4"
     transform="translate(-229.64709,-0.395)"><path
       d="M 83.94,19.18 C 72.43,14.94 70.32,23.09 70.11,24.85 h -0.02 v 0.23 c -0.01,0.14 -0.02,0.23 -0.02,0.23 h 0.02 c 1.13,4.71 1.96,6.87 12.83,6.24 10.64,-0.62 10.97,-3.93 10.97,-3.93 0,0 1.04,-4.39 -9.95,-8.44 z m -7.39,2.72 c 0,0 1.48,-2.11 3.79,0.76 -0.01,0 -2.1,2.06 -3.79,-0.76 z m -19.59,87.5 c -1.09,0.51 -3.73,1.66 -7.74,2.99 -7.04,2.33 1.58,2.32 1.58,2.32 0,0 2.54,-0.2 6.23,-1.34 z m 11.39,-65.79 -0.16,9.23 c 4.69,0.39 8.61,1.74 9.71,5 2.96,8.77 -12.53,9.67 -25.09,13.84 -13.08,4.34 -11.65,20.69 3.9,23.65 L 56.58,87.9 C 56.42,87.85 56.26,87.79 56.11,87.74 54.51,87.11 53.03,85.98 52.6,84.87 52.18,82.52 54.18,79.13 60.76,77.63 72.71,74.89 82.8,73.12 85.8,67.35 93.41,52.7 79.94,43.81 68.35,43.61 Z"
       id="path1" /><path
       d="M 72.14,20.36 C 60.12,21.1 38.03,23.94 34.11,35.54 29.1,50.39 43.53,54.85 50.6,53.96 c 1.55,-0.19 3.3,-0.31 5.35,-0.69 L 55.8,44.78 C 44.57,45.22 40.83,41.81 45.05,37.13 50.4,31.2 63.49,29.77 71.79,29.48 m -3.26,60.19 c -0.35,-0.03 -0.67,-0.06 -1,-0.09 l -0.12,6.61 c 3.61,0.81 2.31,2.8 0,5.74 -0.03,0.04 -0.07,0.08 -0.1,0.12 l -0.12,6.51 c 0.86,-0.57 1.72,-1.18 2.58,-1.86 2.97,-2.36 3.65,-3.35 5.46,-5.56 2.79,-4.23 2.67,-10.7 -6.7,-11.47 z"
       id="path2" /><g
       id="g3"><path
         d="m 57.37,33.13 0.78,34.67 c 2.62,-0.68 5.87,-1.56 7.88,-2.11 L 66.8,31.65 c -2.3,0.22 -5.97,0.66 -9.43,1.48 z m 5.7,46.09 c 0,0 -3.08,0.62 -4.63,1.25 l 0.9,39.87 c 0,2.13 1.23,3.84 2.73,3.84 1.5,0 2.73,-1.4 2.73,-3.84 l 0.94,-41.75 z"
         id="path3" /></g><path
       d="m 61.92,4.61 c -2.93,0 -4.87,2.4 -4.87,5.34 v 5.71 l 0.11,4.81 c 1.69,-0.37 4.88,-0.95 10.01,-1.49 l 0.07,-3.31 V 9.96 C 67.25,7.01 64.85,4.61 61.92,4.61 Z"
       id="path4" /></g><path
     id="path6"
     d="m -115.33661,5.1211919 c -2.69526,0 -4.53259,2.2080905 -4.48086,4.9120661 L -117.71,120.20827 c 0.0284,1.48126 1.1319,2.67054 2.51173,2.67054 1.37983,0 2.47534,-0.97372 2.50994,-2.67054 l 2.24581,-110.166029 c 0.0553,-2.713119 -2.19881,-4.9210491 -4.89409,-4.9210491 z"
     sodipodi:nodetypes="sssssss"
     style="fill:#f79329;stroke-width:0.999995" /><g
     id="g50"
     transform="matrix(0.91261755,0,0,0.91261755,-13.705373,6.2964607)"
     style="stroke-width:1.09574"><path
       id="path26"
       style="fill:#f79329;stroke-width:1.09574"
       d="m -55.759939,-1.2871094 c -2.95333,0 -4.96729,2.4179921 -4.91016,5.3808594 l 0.41016,21.308594 h 9.42578 l 0.4375,-21.2988284 c 0.0611,-2.9728861 -2.40994,-5.390625 -5.36328,-5.390625 z" /><path
       id="path29"
       style="fill:#f79329;stroke-width:1.09574"
       d="m -51.513849,58.451172 h -8.10938 l 0.45313,23.429687 h 7.17578 z" /><g
       id="g49"
       style="stroke-width:1.09574"><g
         id="g48"
         style="stroke-width:1.09574"><g
           id="g47"
           style="stroke-width:1.09574"><path
             id="use1"
             d="m -41.928343,8.8875191 c 11.616464,0 19.25502,7.6202529 19.25502,17.0977789 0,9.477527 -9.157802,10.981662 -16.468655,10.981662 -6.664642,0 -12.886611,-2.601511 -17.453971,-2.601511 -5.73236,0 -7.52106,1.894292 -7.52106,4.737245 0,4.258667 5.77906,4.756798 17.750604,8.675943 11.654744,3.815433 16.404837,11.762514 16.404837,18.330358 0,6.216109 -3.821311,13.866492 -12.273677,17.636199 -7.287224,3.25006 -10.679304,3.767014 -10.679304,6.300398 0,2.075082 1.85415,2.660103 5.351427,3.819759 4.758591,1.577894 7.602642,5.004105 7.602642,10.263129 0,6.51478 -6.858826,10.21303 -16.479389,10.18458 -3.00111,-0.009 -6.29717,-0.72445 -8.7948,-2.4409 -0.73034,-0.50191 -1.40808,-0.78315 -1.02819,-1.73492 0.50221,-1.25826 1.94593,-1.21577 3.04629,-1.45846 1.80968,-0.39914 3.77501,-0.99215 5.42297,-1.84727 2.84239,-1.47491 1.03352,-2.10445 -1.06008,-2.71997 -6.19407,-1.82108 -16.09121,-5.845599 -16.09121,-14.655752 0,-9.146148 4.65469,-12.92913 16.70727,-17.517235 3.13006,-1.191532 6.37787,-2.495804 6.30917,-5.240951 -0.0736,-2.940905 -4.36992,-3.011393 -7.9858,-3.686612 -20.87954,-3.898983 -28.64852,-12.871925 -28.64852,-26.004292 0,-10.1133 6.74924,-21.769402 25.00125,-24.055524 6.52828,-0.817687 13.6175,-4.0636549 21.633176,-4.0636549 z"
             style="fill:#bdcf46;stroke-width:1.09574"
             sodipodi:nodetypes="szssssssssssssssssssssss" /><path
             id="path37"
             style="fill:#e5dda0;fill-opacity:1;stroke-width:1.09574"
             d="m -55.935729,29.466797 c -9.65815,0 -15.27929,2.791632 -15.27929,9.376953 0,5.919057 5.36475,9.495723 17.32617,14.181641 11.961418,4.685915 13.072264,9.124011 13.072266,13.193359 0,4.069348 -3.700712,8.632804 -12.949216,11.345703 -8.12671,2.383831 -11.83594,5.302628 -11.83594,9.865235 0,4.640327 3.57528,7.294505 9.39844,9.68164 5.60663,2.298378 8.865231,3.563592 8.865231,8.371092 0,5.31975 -10.124991,7.13393 -15.576171,7.61524 0.50233,0.20471 1.01908,0.38051 1.54492,0.53125 0.0151,0.004 0.02982,0.009 0.04492,0.0137 0.52993,0.15024 1.0696,0.27475 1.61133,0.37304 0.49636,0.0901 0.99535,0.15267 1.49219,0.20118 0.0058,5.7e-4 0.01174,0.001 0.01758,0.002 0.0885,0.008 0.17723,0.0163 0.26562,0.0234 0.50377,0.0416 1.00495,0.0689 1.49805,0.0703 0.52231,0.002 1.03173,-0.0129 1.53711,-0.0332 0.19809,-0.008 0.39253,-0.018 0.58789,-0.0293 0.34715,-0.02 0.69115,-0.0457 1.0293,-0.0762 0.16496,-0.0148 0.33139,-0.0296 0.49414,-0.0469 0.49092,-0.0522 0.97555,-0.11113 1.44531,-0.18554 0.47401,-0.0751 0.93179,-0.16437 1.38281,-0.26172 0.44853,-0.0989 0.88458,-0.20905 1.310548,-0.32813 0.571906,-0.15987 1.129361,-0.33261 1.654297,-0.53125 0.871444,-0.32985 1.675124,-0.71262 2.404297,-1.14648 h 0.002 c 0.728599,-0.43365 1.382504,-0.91918 1.953125,-1.45313 0.570943,-0.53424 1.060038,-1.11694 1.457031,-1.74804 0.396668,-0.63121 0.701867,-1.31061 0.908203,-2.03516 0.206009,-0.72455 0.3125,-1.49425 0.3125,-2.30859 0,-0.43923 -0.02746,-0.86156 -0.06641,-1.27539 -0.0048,-0.0505 -0.01049,-0.10025 -0.01563,-0.1504 -0.0054,-0.0501 -0.0097,-0.10066 -0.01563,-0.15039 -2.32e-4,-0.002 2.33e-4,-0.004 0,-0.006 -0.04826,-0.40593 -0.109301,-0.8033 -0.195312,-1.1836 -0.190152,-0.84076 -0.472889,-1.617517 -0.837891,-2.333983 -0.04063,-0.07979 -0.0857,-0.156456 -0.128906,-0.234375 -0.0032,-0.0059 -0.0065,-0.01169 -0.0098,-0.01758 -0.07381,-0.134444 -0.148587,-0.268564 -0.228515,-0.398438 -0.06062,-0.09854 -0.125363,-0.193148 -0.189454,-0.289062 -0.08132,-0.121633 -0.163149,-0.241976 -0.25,-0.359375 -0.06092,-0.0824 -0.123889,-0.163823 -0.1875,-0.244141 -0.01892,-0.02387 -0.03948,-0.04655 -0.05859,-0.07031 -0.07695,-0.09514 -0.153637,-0.191041 -0.234375,-0.283204 -0.0054,-0.0062 -0.01212,-0.01137 -0.01758,-0.01758 -0.06295,-0.07162 -0.12617,-0.143076 -0.191407,-0.21289 -0.0041,-0.0044 -0.0076,-0.0093 -0.01172,-0.01367 -0.107254,-0.114157 -0.218749,-0.224669 -0.332031,-0.333984 -0.0063,-0.0061 -0.01326,-0.01148 -0.01953,-0.01758 -0.05579,-0.05417 -0.110465,-0.109323 -0.167969,-0.162109 -0.0013,-0.0012 -0.0026,-0.0027 -0.0039,-0.0039 -0.130686,-0.119451 -0.268177,-0.234287 -0.40625,-0.347656 -0.0011,-9.02e-4 -0.0028,-0.0011 -0.0039,-0.002 -0.07037,-0.05788 -0.138583,-0.117591 -0.210938,-0.173828 -0.201423,-0.156512 -0.407163,-0.308879 -0.623047,-0.453125 -0.467902,-0.312635 -0.968774,-0.596596 -1.501953,-0.851562 -0.533178,-0.254966 -1.098536,-0.480498 -1.693359,-0.677735 -1.311482,-0.43487 -2.392252,-0.78974 -3.230472,-1.171875 -0.55881,-0.254756 -1.00937,-0.522013 -1.34961,-0.833984 -0.09236,-0.08469 -0.15647,-0.181506 -0.23242,-0.273437 -0.01027,-0.01244 -0.02041,-0.02495 -0.03125,-0.03711 -0.05246,-0.06619 -0.11998,-0.124804 -0.16406,-0.195312 -0.002,-0.0026 -0.0019,-0.0051 -0.0039,-0.0078 -7.7e-4,-0.0012 -9.5e-4,-0.0027 -0.002,-0.0039 -0.11081,-0.179295 -0.19558,-0.371522 -0.25195,-0.583985 -0.05753,-0.216853 -0.08594,-0.453505 -0.08594,-0.71289 0,-0.159027 0.01221,-0.308814 0.03906,-0.453125 0.0265,-0.143109 0.0679,-0.279237 0.1211,-0.410156 2.1e-4,-5.29e-4 -2.2e-4,-0.0014 0,-0.002 0.0533,-0.130914 0.12099,-0.255927 0.20117,-0.376954 2.7e-4,-4.09e-4 -2.7e-4,-0.0015 0,-0.002 0.0806,-0.121482 0.17523,-0.237722 0.2832,-0.351562 0.21596,-0.227673 0.48563,-0.443269 0.8125,-0.654297 0.98078,-0.633509 2.46559,-1.232858 4.480469,-2.050781 1.342468,-0.544965 2.921021,-1.185817 4.742188,-1.998047 0.487926,-0.217612 0.954892,-0.452859 1.412109,-0.695313 0.103617,-0.05495 0.20459,-0.111804 0.306641,-0.167969 0.351243,-0.193295 0.69262,-0.394542 1.025391,-0.601562 0.112048,-0.06971 0.22597,-0.13779 0.335937,-0.208984 0.819169,-0.530328 1.58027,-1.101165 2.285156,-1.705078 0.100696,-0.08627 0.198484,-0.17413 0.296875,-0.261719 0.26079,-0.232184 0.515083,-0.468078 0.759766,-0.708985 0.0883,-0.08693 0.177457,-0.173729 0.263672,-0.261718 0.316253,-0.322804 0.623744,-0.650458 0.912109,-0.986328 v -0.002 c 0.317974,-0.370409 0.619863,-0.747028 0.904297,-1.130859 v -0.002 c 0.284376,-0.383813 0.553451,-0.773325 0.804688,-1.167969 v -0.002 c 0.221533,-0.348048 0.425045,-0.700111 0.621093,-1.054688 0.07003,-0.126644 0.136459,-0.253542 0.203125,-0.380859 0.002,-0.0039 0.0038,-0.0078 0.0059,-0.01172 0.129442,-0.247149 0.253739,-0.494888 0.371093,-0.74414 0.0034,-0.0071 0.0064,-0.01436 0.0098,-0.02148 0.04899,-0.103599 0.09962,-0.206639 0.146484,-0.310547 0.0026,-0.0059 0.0052,-0.01167 0.0078,-0.01758 0.164353,-0.367803 0.318506,-0.737247 0.457031,-1.107422 0.308424,-0.824185 0.553646,-1.651768 0.736328,-2.472656 0.0912,-0.409812 0.16611,-0.819498 0.226563,-1.224609 v -0.002 c 0.0604,-0.405079 0.106667,-0.807287 0.136718,-1.205078 v -0.002 c 0.03005,-0.398414 0.04492,-0.791181 0.04492,-1.179687 0,-0.37252 -0.01983,-0.750471 -0.05078,-1.130859 -3.19e-4,-0.0039 -0.0016,-0.0078 -0.002,-0.01172 -0.0078,-0.09207 -0.01762,-0.184852 -0.02734,-0.277344 -7.2e-4,-0.0071 -0.0012,-0.01441 -0.002,-0.02148 -0.02861,-0.27694 -0.06795,-0.556063 -0.113281,-0.835938 -0.02145,-0.132185 -0.04118,-0.263778 -0.06641,-0.396484 -0.0683,-0.35991 -0.14761,-0.721284 -0.244141,-1.083985 -0.004,-0.01494 -0.0057,-0.02998 -0.0098,-0.04492 v -0.002 c -0.115905,-0.430116 -0.251618,-0.861498 -0.408203,-1.292969 v -0.002 c -0.156654,-0.431507 -0.334813,-0.862791 -0.533203,-1.292969 v -0.002 c -0.181761,-0.394011 -0.385898,-0.785043 -0.603515,-1.175782 -0.0014,-0.0025 -0.0025,-0.0053 -0.0039,-0.0078 -0.04926,-0.08807 -0.101017,-0.175877 -0.152343,-0.263672 -0.0042,-0.0072 -0.0095,-0.01424 -0.01367,-0.02148 -0.170623,-0.293181 -0.353481,-0.584988 -0.544922,-0.875 -0.0018,-0.0027 -0.0041,-0.0051 -0.0059,-0.0078 -0.07227,-0.109457 -0.143368,-0.219222 -0.21875,-0.328125 -0.261255,-0.377694 -0.534198,-0.753096 -0.832031,-1.123047 -0.292245,-0.363009 -0.609304,-0.720543 -0.9375,-1.074218 -9.35e-4,-10e-4 -10e-4,-0.0029 -0.002,-0.0039 -0.112072,-0.120525 -0.231419,-0.238098 -0.347656,-0.357422 -0.239918,-0.246465 -0.489874,-0.489732 -0.748047,-0.730468 -0.12346,-0.115047 -0.245375,-0.230115 -0.373047,-0.34375 -0.18841,-0.167787 -0.391464,-0.331034 -0.587891,-0.496094 -0.170291,-0.141718 -0.330588,-0.286658 -0.507812,-0.425781 -0.03428,-0.0269 -0.06507,-0.05523 -0.09961,-0.08203 -4.08e-4,-3.17e-4 -0.0015,3.16e-4 -0.002,0 -0.471895,-0.366214 -0.967356,-0.724108 -1.488281,-1.070313 -1.042572,-0.692394 -2.183796,-1.340062 -3.429687,-1.935547 -0.622659,-0.297635 -1.270301,-0.582169 -1.945313,-0.851562 -0.675004,-0.269398 -1.377048,-0.523255 -2.105469,-0.761719 -1.497181,-0.490135 -2.896884,-0.927049 -4.201174,-1.324219 -1.30297,-0.396769 -2.50869,-0.753826 -3.62109,-1.085937 -6.5e-4,-1.95e-4 -0.0013,1.94e-4 -0.002,0 -1.11223,-0.332062 -2.12981,-0.640011 -3.05274,-0.935547 -0.9239,-0.295649 -1.75254,-0.57831 -2.48828,-0.865235 -0.36763,-0.143338 -0.71028,-0.287176 -1.03125,-0.433593 -0.32158,-0.146697 -0.61958,-0.295909 -0.89453,-0.449219 -0.27429,-0.152804 -0.52404,-0.309884 -0.75195,-0.472656 -4.3e-4,-3.07e-4 -0.0015,3.06e-4 -0.002,0 -0.22871,-0.163429 -0.43276,-0.332679 -0.61523,-0.509766 -0.36384,-0.353103 -0.63715,-0.735659 -0.81836,-1.164063 v -0.002 c -0.1814,-0.428842 -0.27149,-0.901261 -0.27149,-1.433593 0,-0.349915 0.02773,-0.686451 0.08594,-1.00586 3.5e-4,-0.0019 0.0015,-0.0038 0.002,-0.0059 2.2e-4,-0.0012 -2.3e-4,-0.0027 0,-0.0039 2.1e-4,-0.0012 -2.3e-4,-0.0027 0,-0.0039 v -0.002 c 5e-4,-0.0027 0.0014,-0.0051 0.002,-0.0078 0.0602,-0.320255 0.15198,-0.624372 0.27929,-0.910157 0.06409,-0.143818 0.13806,-0.283569 0.22071,-0.417968 v -0.002 c 0.08275,-0.13441 0.17692,-0.264147 0.27929,-0.388672 v -0.002 c 0.41115,-0.499619 0.9845,-0.916347 1.75391,-1.238282 0.38474,-0.161026 0.81777,-0.299102 1.30469,-0.410156 0.9738,-0.222011 2.16066,-0.339844 3.59375,-0.339844 0.30849,0 0.58739,0.02011 0.84765,0.05273 3.62218,0.220858 8.150799,1.725036 13.072271,2.308593 -1.165577,-2.359429 -4.619657,-7.259765 -13.259771,-7.259765 z" /></g><path
           d="m -32.5863,23.075149 c -0.04476,1.707408 -1.368484,3.031128 -2.941601,2.97997 -1.585907,-0.07034 -2.839284,-1.509169 -2.788126,-3.216577 0.05116,-1.701013 1.374879,-3.043918 2.95439,-2.973575 1.579512,0.05755 2.826495,1.502774 2.775337,3.210182 z"
           style="fill:#2f2f2f;stroke-width:1.09574"
           id="path2-1"
           sodipodi:nodetypes="ccccc" /></g><path
         d="m -24.74558,30.02867 c 0.04476,0.03837 0.08953,0.08313 0.134291,0.121501 1.285352,1.304536 2.187016,2.928812 3.677001,4.03511 2.295728,1.701013 5.128618,2.091095 7.871982,1.4708 0.767374,-0.172659 3.018338,-1.521958 3.184603,-0.102316 0.204633,1.79054 -3.613054,2.641046 -4.892012,2.768942 -0.697031,0.06395 -1.560327,-0.04476 -2.187016,0.338924 -1.176641,0.716215 0.594715,2.423623 1.285352,2.884048 0.786558,0.511583 1.585907,0.863296 2.506756,1.023165 0.818533,0.14708 2.071911,-0.115106 2.653836,0.626689 0.991192,1.259773 -2.366071,1.521959 -3.043918,1.48359 -3.235762,-0.166264 -5.966335,-2.52594 -7.840007,-5.000722 -1.381274,-1.822513 -3.203788,-3.26134 -4.617035,-5.05188 -0.543557,-0.703426 -1.259773,-1.669039 -2.059121,-2.09749 -0.537162,-0.287765 -1.445221,-0.556346 -1.4708,-1.278957 -0.02558,-0.57553 0.422055,-0.88248 0.856901,-1.163851 1.042349,-0.665057 2.928811,-0.88248 3.939187,-0.05755 z"
         style="fill:#ed6c30;stroke-width:1.09574"
         id="path3-9"
         sodipodi:nodetypes="ccccccccccccccccc" /></g><path
       id="path27"
       style="fill:#f79329;stroke-width:1.09574"
       d="m -56.595879,34.365234 c -1.38482,0 -2.52948,0.114494 -3.48438,0.322266 l 0.45703,30.564977 7.69478,1.445125 0.89312,-31.535493 c -2.01082,-0.430024 -3.92037,-0.796875 -5.56055,-0.796875 z"
       sodipodi:nodetypes="sccccs" /><path
       id="path3-0"
       style="fill:#f79329;stroke-width:1.09574"
       d="m -51.978689,88.175781 c -4.49278,2.561967 -6.87757,4.62939 -6.79493,9.976563 l 0.41211,26.666726 c 0.0413,1.62291 1.24196,2.92526 2.75391,2.92526 1.51195,0 2.69947,-1.0662 2.75,-2.92526 z"
       sodipodi:nodetypes="cscscc" /></g><text
     xml:space="preserve"
     style="font-style:normal;font-variant:normal;font-weight:500;font-stretch:normal;font-size:44.2223px;font-family:'Gill Sans Nova';-inkscape-font-specification:'Gill Sans Nova Medium';fill:#212121;fill-opacity:1;stroke:none;stroke-width:6.00001;stroke-linecap:round"
     x="-1974.6388"
     y="-1931.5037"
     id="text42"
     transform="scale(-1)"><tspan
       sodipodi:role="line"
       id="tspan42"
       x="-1974.6388"
       y="-1931.5037"
       style="font-style:italic;font-variant:normal;font-weight:500;font-stretch:normal;font-family:'Gill Sans Nova';-inkscape-font-specification:'Gill Sans Nova Medium Italic';stroke-width:6.00001" /></text><g
     id="g57"
     transform="matrix(0.91261755,0,0,0.91261755,114.75782,6.2964607)"
     style="stroke-width:1.09574"><path
       id="path50"
       style="fill:#196ca2;fill-opacity:1;stroke-width:1.09574"
       d="m -55.759939,-1.2871094 c -2.95333,0 -4.96729,2.4179921 -4.91016,5.3808594 l 0.41016,21.308594 h 9.42578 l 0.4375,-21.2988284 c 0.0611,-2.9728861 -2.40994,-5.390625 -5.36328,-5.390625 z" /><path
       id="path51"
       style="fill:#196ca2;fill-opacity:1;stroke-width:1.09574"
       d="m -51.513849,58.451172 h -8.10938 l 0.45313,23.429687 h 7.17578 z" /><g
       id="g55"
       style="stroke-width:1.09574"><g
         id="g54"
         style="stroke-width:1.09574"><g
           id="g53"
           style="stroke-width:1.09574"><path
             style="fill:#2e82bd;stroke-width:1.09574"
             d="m -41.928955,8.8879349 c -8.015668,0 -15.103756,3.2456161 -21.63203,4.0633021 -18.251992,2.28612 -25.001089,13.941294 -25.001089,24.054584 0,13.132353 7.76791,22.106989 28.647429,26.005969 3.615876,0.675218 7.913322,0.745049 7.986922,3.685951 0.0687,2.745144 -3.180675,4.049691 -6.310732,5.241222 -12.052568,4.5881 -16.705614,8.370468 -16.705614,17.516607 0,8.810144 9.89653,12.83516 16.090594,14.65624 2.093598,0.61552 3.901473,1.24578 1.059086,2.72068 -1.647959,0.85512 -3.612923,1.44801 -5.422602,1.84715 -1.100358,0.24269 -2.543703,0.19903 -3.045913,1.45728 -0.379889,0.95177 0.297474,1.23266 1.027814,1.73457 2.497627,1.71645 5.794723,2.43232 8.79583,2.44132 9.620553,0.0285 16.478369,-3.66955 16.478369,-10.18432 0,-5.259019 -2.842645,-8.685646 -7.601232,-10.263539 -3.497273,-1.159655 -5.351717,-1.744299 -5.351717,-3.819379 0,-2.533382 3.3912,-3.050251 10.678417,-6.300308 8.452358,-3.769703 12.2733,-11.419338 12.2733,-17.635441 0,-6.567837 -4.748584,-14.51634 -16.403316,-18.331769 -11.971532,-3.919141 -17.752191,-4.416248 -17.752191,-8.674911 0,-2.84295 1.789654,-4.736697 7.522009,-4.736697 4.567355,0 10.789427,2.599763 17.454062,2.599763 7.310846,0 16.467945,-1.503197 16.467945,-10.980715 0,-9.477517 -7.638889,-17.0975591 -19.255341,-17.0975591 z"
             id="path52" /><path
             style="fill:#2e2e2e;fill-opacity:1;stroke-width:1.09574"
             d="m -35.402898,19.900425 c 1.620617,0.02161 2.863953,1.46726 2.815994,3.174669 -0.04796,1.707409 -1.362135,3.039949 -2.941673,2.979199 -1.579538,-0.06075 -2.837756,-1.537152 -2.787396,-3.214783 0.05036,-1.677631 1.292459,-2.96069 2.913075,-2.939085 z"
             id="path58" /><path
             id="path53"
             style="fill:#40c0e7;fill-opacity:1;stroke-width:1.09574"
             d="m -72.238848,38.753414 c 0,6.840457 5.872012,11.840844 18.163848,15.575033 12.054494,3.662085 13.258415,7.820955 13.258417,11.890303 0,4.069348 -3.295348,8.767925 -12.746534,12.08887 -7.990213,2.80759 -11.990849,5.620643 -11.990849,10.995384 0,4.640327 2.189874,5.898915 8.013034,8.28605 5.60663,2.298378 10.202864,3.085866 10.202864,7.893366 0,5.31975 -10.124991,7.13393 -15.576171,7.61524 0.50233,0.20471 1.01908,0.38051 1.54492,0.53125 0.0151,0.004 0.02982,0.009 0.04492,0.0137 0.52993,0.15024 1.0696,0.27475 1.61133,0.37304 0.49636,0.0901 0.99535,0.15267 1.49219,0.20118 0.0058,5.7e-4 0.01174,0.001 0.01758,0.002 0.0885,0.008 0.17723,0.0163 0.26562,0.0234 0.50377,0.0416 1.00495,0.0689 1.49805,0.0703 0.52231,0.002 1.03173,-0.0129 1.53711,-0.0332 0.19809,-0.008 0.39253,-0.018 0.58789,-0.0293 0.34715,-0.02 0.69115,-0.0457 1.0293,-0.0762 0.16496,-0.0148 0.33139,-0.0296 0.49414,-0.0469 0.49092,-0.0522 0.97555,-0.11113 1.44531,-0.18554 0.47401,-0.0751 0.93179,-0.16437 1.38281,-0.26172 0.44853,-0.0989 0.88458,-0.20905 1.310548,-0.32813 0.571906,-0.15987 1.129361,-0.33261 1.654297,-0.53125 0.871444,-0.32985 1.675124,-0.71262 2.404297,-1.14648 h 0.002 c 0.728599,-0.43365 1.382504,-0.91918 1.953125,-1.45313 0.570943,-0.53424 1.060038,-1.11694 1.457031,-1.74804 0.396668,-0.63121 0.701867,-1.31061 0.908203,-2.03516 0.206009,-0.72455 0.3125,-1.49425 0.3125,-2.30859 0,-0.43923 -0.02746,-0.86156 -0.06641,-1.27539 -0.0048,-0.0505 -0.01049,-0.10025 -0.01563,-0.1504 -0.0054,-0.0501 -0.0097,-0.10066 -0.01563,-0.15039 -2.32e-4,-0.002 2.33e-4,-0.004 0,-0.006 -0.04826,-0.40593 -0.109301,-0.8033 -0.195312,-1.1836 -0.190152,-0.84076 -0.472889,-1.617517 -0.837891,-2.333983 -0.04063,-0.07979 -0.0857,-0.156456 -0.128906,-0.234375 -0.0032,-0.0059 -0.0065,-0.01169 -0.0098,-0.01758 -0.07381,-0.134444 -0.148587,-0.268564 -0.228515,-0.398438 -0.06062,-0.09854 -0.125363,-0.193148 -0.189454,-0.289062 -0.08132,-0.121633 -0.163149,-0.241976 -0.25,-0.359375 -0.06092,-0.0824 -0.123889,-0.163823 -0.1875,-0.244141 -0.01892,-0.02387 -0.03948,-0.04655 -0.05859,-0.07031 -0.07695,-0.09514 -0.153637,-0.191041 -0.234375,-0.283204 -0.0054,-0.0062 -0.01212,-0.01137 -0.01758,-0.01758 -0.06295,-0.07162 -0.12617,-0.143076 -0.191407,-0.21289 -0.0041,-0.0044 -0.0076,-0.0093 -0.01172,-0.01367 -0.107254,-0.114157 -0.218749,-0.224669 -0.332031,-0.333984 -0.0063,-0.0061 -0.01326,-0.01148 -0.01953,-0.01758 -0.05579,-0.05417 -0.110465,-0.109323 -0.167969,-0.162109 -0.0013,-0.0012 -0.0026,-0.0027 -0.0039,-0.0039 -0.130686,-0.119451 -0.268177,-0.234287 -0.40625,-0.347656 -0.0011,-9.02e-4 -0.0028,-0.0011 -0.0039,-0.002 -0.07037,-0.05788 -0.138583,-0.117591 -0.210938,-0.173828 -0.201423,-0.156512 -0.407163,-0.308879 -0.623047,-0.453125 -0.467902,-0.312635 -0.968774,-0.596596 -1.501953,-0.851562 -0.533178,-0.254966 -1.098536,-0.480498 -1.693359,-0.677735 -1.311482,-0.43487 -2.392252,-0.78974 -3.230472,-1.171875 -0.55881,-0.254756 -1.00937,-0.522013 -1.34961,-0.833984 -0.09236,-0.08469 -0.15647,-0.181506 -0.23242,-0.273437 -0.01027,-0.01244 -0.02041,-0.02495 -0.03125,-0.03711 -0.05246,-0.06619 -0.11998,-0.124804 -0.16406,-0.195312 -0.002,-0.0026 -0.0019,-0.0051 -0.0039,-0.0078 -7.7e-4,-0.0012 -9.5e-4,-0.0027 -0.002,-0.0039 -0.11081,-0.179295 -0.19558,-0.371522 -0.25195,-0.583985 -0.05753,-0.216853 -0.08594,-0.453505 -0.08594,-0.71289 0,-0.159027 0.01221,-0.308814 0.03906,-0.453125 0.0265,-0.143109 0.0679,-0.279237 0.1211,-0.410156 2.1e-4,-5.29e-4 -2.2e-4,-0.0014 0,-0.002 0.0533,-0.130914 0.12099,-0.255927 0.20117,-0.376954 2.7e-4,-4.09e-4 -2.7e-4,-0.0015 0,-0.002 0.0806,-0.121482 0.17523,-0.237722 0.2832,-0.351562 0.21596,-0.227673 0.48563,-0.443269 0.8125,-0.654297 0.98078,-0.633509 2.46559,-1.232858 4.480469,-2.050781 1.342468,-0.544965 2.921021,-1.185817 4.742188,-1.998047 0.487926,-0.217612 0.954892,-0.452859 1.412109,-0.695313 0.103617,-0.05495 0.20459,-0.111804 0.306641,-0.167969 0.351243,-0.193295 0.69262,-0.394542 1.025391,-0.601562 0.112048,-0.06971 0.22597,-0.13779 0.335937,-0.208984 0.819169,-0.530328 1.58027,-1.101165 2.285156,-1.705078 0.100696,-0.08627 0.198484,-0.17413 0.296875,-0.261719 0.26079,-0.232184 0.515083,-0.468078 0.759766,-0.708985 0.0883,-0.08693 0.177457,-0.173729 0.263672,-0.261718 0.316253,-0.322804 0.623744,-0.650458 0.912109,-0.986328 v -0.002 c 0.317974,-0.370409 0.619863,-0.747028 0.904297,-1.130859 v -0.002 c 0.284376,-0.383813 0.553451,-0.773325 0.804688,-1.167969 v -0.002 c 0.221533,-0.348048 0.425045,-0.700111 0.621093,-1.054688 0.07003,-0.126644 0.136459,-0.253542 0.203125,-0.380859 0.002,-0.0039 0.0038,-0.0078 0.0059,-0.01172 0.129442,-0.247149 0.253739,-0.494888 0.371093,-0.74414 0.0034,-0.0071 0.0064,-0.01436 0.0098,-0.02148 0.04899,-0.103599 0.09962,-0.206639 0.146484,-0.310547 0.0026,-0.0059 0.0052,-0.01167 0.0078,-0.01758 0.164353,-0.367803 0.318506,-0.737247 0.457031,-1.107422 0.308424,-0.824185 0.553646,-1.651768 0.736328,-2.472656 0.0912,-0.409812 0.16611,-0.819498 0.226563,-1.224609 v -0.002 c 0.0604,-0.405079 0.106667,-0.807287 0.136718,-1.205078 v -0.002 c 0.03005,-0.398414 0.04492,-0.791181 0.04492,-1.179687 0,-0.37252 -0.01983,-0.750471 -0.05078,-1.130859 -3.19e-4,-0.0039 -0.0016,-0.0078 -0.002,-0.01172 -0.0078,-0.09207 -0.01762,-0.184852 -0.02734,-0.277344 -7.2e-4,-0.0071 -0.0012,-0.01441 -0.002,-0.02148 -0.02861,-0.27694 -0.06795,-0.556063 -0.113281,-0.835938 -0.02145,-0.132185 -0.04118,-0.263778 -0.06641,-0.396484 -0.0683,-0.35991 -0.14761,-0.721284 -0.244141,-1.083985 -0.004,-0.01494 -0.0057,-0.02998 -0.0098,-0.04492 v -0.002 c -0.115905,-0.430116 -0.251618,-0.861498 -0.408203,-1.292969 v -0.002 c -0.156654,-0.431507 -0.334813,-0.862791 -0.533203,-1.292969 v -0.002 c -0.181761,-0.394011 -0.385898,-0.785043 -0.603515,-1.175782 -0.0014,-0.0025 -0.0025,-0.0053 -0.0039,-0.0078 -0.04926,-0.08807 -0.101017,-0.175877 -0.152343,-0.263672 -0.0042,-0.0072 -0.0095,-0.01424 -0.01367,-0.02148 -0.170623,-0.293181 -0.353481,-0.584988 -0.544922,-0.875 -0.0018,-0.0027 -0.0041,-0.0051 -0.0059,-0.0078 -0.07227,-0.109457 -0.143368,-0.219222 -0.21875,-0.328125 -0.261255,-0.377694 -0.534198,-0.753096 -0.832031,-1.123047 -0.292245,-0.363009 -0.609304,-0.720543 -0.9375,-1.074218 -9.35e-4,-10e-4 -10e-4,-0.0029 -0.002,-0.0039 -0.112072,-0.120525 -0.231419,-0.238098 -0.347656,-0.357422 -0.239918,-0.246465 -0.489874,-0.489732 -0.748047,-0.730468 -0.12346,-0.115047 -0.245375,-0.230115 -0.373047,-0.34375 -0.18841,-0.167787 -0.391464,-0.331034 -0.587891,-0.496094 -0.170291,-0.141718 -0.330588,-0.286658 -0.507812,-0.425781 -0.03428,-0.0269 -0.06507,-0.05523 -0.09961,-0.08203 -4.08e-4,-3.17e-4 -0.0015,3.16e-4 -0.002,0 -0.471895,-0.366214 -0.967356,-0.724108 -1.488281,-1.070313 -1.042572,-0.692394 -2.183796,-1.340062 -3.429687,-1.935547 -0.622659,-0.297635 -1.270301,-0.582169 -1.945313,-0.851562 -0.675004,-0.269398 -1.377048,-0.523255 -2.105469,-0.761719 -1.497181,-0.490135 -2.896884,-0.927049 -4.201174,-1.324219 -1.30297,-0.396769 -2.50869,-0.753826 -3.62109,-1.085937 -6.5e-4,-1.95e-4 -0.0013,1.94e-4 -0.002,0 -1.11223,-0.332062 -2.12981,-0.640011 -3.05274,-0.935547 -0.9239,-0.295649 -1.75254,-0.57831 -2.48828,-0.865235 -0.36763,-0.143338 -0.71028,-0.287176 -1.03125,-0.433593 -0.32158,-0.146697 -0.61958,-0.295909 -0.89453,-0.449219 -0.27429,-0.152804 -0.52404,-0.309884 -0.75195,-0.472656 -4.3e-4,-3.07e-4 -0.0015,3.06e-4 -0.002,0 -0.22871,-0.163429 -0.43276,-0.332679 -0.61523,-0.509766 -0.36384,-0.353103 -0.63715,-0.735659 -0.81836,-1.164063 v -0.002 c -0.1814,-0.428842 -0.27149,-0.901261 -0.27149,-1.433593 0,-0.349915 0.02773,-0.686451 0.08594,-1.00586 3.5e-4,-0.0019 0.0015,-0.0038 0.002,-0.0059 2.2e-4,-0.0012 -2.3e-4,-0.0027 0,-0.0039 2.1e-4,-0.0012 -2.3e-4,-0.0027 0,-0.0039 v -0.002 c 5e-4,-0.0027 0.0014,-0.0051 0.002,-0.0078 0.0602,-0.320255 0.15198,-0.624372 0.27929,-0.910157 0.06409,-0.143818 0.13806,-0.283569 0.22071,-0.417968 v -0.002 c 0.08275,-0.13441 0.17692,-0.264147 0.27929,-0.388672 v -0.002 c 0.41115,-0.499619 0.9845,-0.916347 1.75391,-1.238282 0.38474,-0.161026 0.81777,-0.299102 1.30469,-0.410156 0.9738,-0.222011 2.16066,-0.339844 3.59375,-0.339844 0.30849,0 0.58739,0.02011 0.84765,0.05273 3.62218,0.220858 8.150799,1.725036 13.072271,2.308593 0,0 -2.835231,-8.794236 -14.120333,-8.793726 -9.149021,4.14e-4 -15.442336,3.652308 -15.442336,10.821404 z"
             sodipodi:nodetypes="ssssssscccsscccsccsscscccsccsccscssccsssscssscscscscsssssssccccsscscscscssssssssssccccccsscccccssccccsscscscsccccccscscsccsscccccssccsssssccsscscsccsscscccsccccccsccss" /></g></g></g><path
       id="path56"
       style="fill:#196ca2;fill-opacity:1;stroke-width:1.09574"
       d="m -56.595879,34.365234 c -1.38482,0 -2.52948,0.114494 -3.48438,0.322266 l 0.587492,30.509368 7.564318,1.500734 0.89312,-31.535493 c -2.01082,-0.430024 -3.92037,-0.796875 -5.56055,-0.796875 z"
       sodipodi:nodetypes="sccccs" /><path
       id="path57"
       style="fill:#196ca2;fill-opacity:1;stroke-width:1.09574"
       d="m -51.978689,88.175781 c -4.49278,2.561967 -6.87757,4.62939 -6.79493,9.976563 l 0.41211,26.666726 c 0.0413,1.62291 1.24196,2.92526 2.75391,2.92526 1.51195,0 2.69947,-1.0662 2.75,-2.92526 z"
       sodipodi:nodetypes="cscscc" /></g></svg>
