<?xml version="1.0" encoding="UTF-8" standalone="no"?>
<svg
   width="128"
   height="128"
   version="1.1"
   id="svg129986"
   sodipodi:docname="emoji_u1f644.svg"
   inkscape:version="1.3 (0e150ed6c4, 2023-07-21)"
   xmlns:inkscape="http://www.inkscape.org/namespaces/inkscape"
   xmlns:sodipodi="http://sodipodi.sourceforge.net/DTD/sodipodi-0.dtd"
   xmlns="http://www.w3.org/2000/svg"
   xmlns:svg="http://www.w3.org/2000/svg">
  <defs
     id="defs129990">
    <clipPath
       clipPathUnits="userSpaceOnUse"
       id="clipPath2">
      <path
         id="path2"
         style="stroke-width:1.00019"
         d="M 88.277343,35.015625 A 19.895958,18.566364 83.65 0 0 85.628906,35.105469 19.895958,18.566364 83.65 0 0 69.376954,56.933594 19.895958,18.566364 83.65 0 0 90.03125,74.654297 19.895958,18.566364 83.65 0 0 106.2832,52.826172 19.895958,18.566364 83.65 0 0 88.277343,35.015625 Z m -47.042968,0.04883 A 18.566366,19.895958 4.3130002 0 0 21.22461,53.507812 18.566366,19.895958 4.3130002 0 0 38.242188,74.744141 18.566366,19.895958 4.3130002 0 0 58.251953,56.300781 18.566366,19.895958 4.3130002 0 0 41.234375,35.064453 Z" />
    </clipPath>
  </defs>
  <sodipodi:namedview
     id="namedview129988"
     pagecolor="#ffffff"
     bordercolor="#000000"
     borderopacity="0.25"
     inkscape:showpageshadow="2"
     inkscape:pageopacity="0.0"
     inkscape:pagecheckerboard="0"
     inkscape:deskcolor="#d1d1d1"
     showgrid="false"
     inkscape:zoom="4.2421876"
     inkscape:cx="57.04604"
     inkscape:cy="63.292817"
     inkscape:window-width="1366"
     inkscape:window-height="697"
     inkscape:window-x="-8"
     inkscape:window-y="-8"
     inkscape:window-maximized="1"
     inkscape:current-layer="svg129986" />
  <path
     d="M 64,8.64 C 1.69,8.64 0.21,78.5 0.21,92.33 c 0,13.83 28.56,25.03 63.79,25.03 35.24,0 63.79,-11.21 63.79,-25.03 C 127.79,78.5 126.32,8.64 64,8.64 Z"
     fill="#fcc21b"
     id="path129880" />
  <ellipse
     transform="matrix(0.11060166,0.99386482,0.99386482,-0.11060166,0,0)"
     ry="18.566364"
     rx="19.895958"
     cy="80.950821"
     cx="68.5877"
     fill="#ffffff"
     id="ellipse129972"
     style="stroke-width:1.00019" />
  <ellipse
     transform="matrix(0.9971681,0.07520498,0.07520498,-0.9971681,0,0)"
     ry="19.895958"
     rx="18.566366"
     cy="-56.066479"
     cx="44.290962"
     fill="#ffffff"
     id="ellipse129978"
     style="stroke-width:1.00019" />
  <path
     d="M 52.855788,89.463077 H 75.564219"
     fill="none"
     fill-rule="evenodd"
     stroke="#2f2f2f"
     stroke-width="7.38"
     stroke-linecap="round"
     stroke-linejoin="round"
     id="path129984"
     style="stroke-width:6;stroke-dasharray:none" />
  <path
     id="path129974"
     style="fill:#2f2f2f;fill-opacity:1;stroke-width:1.00019"
     d="m 32.089844,34.472656 c -0.245807,0.0062 -0.49289,0.0252 -0.742188,0.05664 -4.000748,0.515066 -6.863897,4.11969 -6.384765,8.060547 0.455174,3.928878 4.07347,6.720144 8.074218,6.205078 4.000748,-0.503088 6.851659,-4.107971 6.396485,-8.048828 -0.437957,-3.683324 -3.656654,-6.366959 -7.34375,-6.273437 z m 48.300781,0.189453 c -3.863056,-0.0377 -7.131431,2.903228 -7.386719,6.744141 -0.275499,3.952835 2.766311,7.366163 6.791016,7.59375 4.012726,0.239566 7.49989,-2.777634 7.77539,-6.730469 0.275501,-3.952835 -2.779982,-7.368115 -6.804687,-7.595703 -0.125772,-0.0075 -0.250385,-0.0105 -0.375,-0.01172 z"
     clip-path="url(#clipPath2)"
     transform="translate(0.21,4.3337962)" />
</svg>
