<?xml version="1.0" encoding="UTF-8" standalone="no"?>
<svg
   width="128"
   height="128"
   version="1.1"
   id="svg36"
   sodipodi:docname="emoji_u1f96a.svg"
   inkscape:version="1.3 (0e150ed6c4, 2023-07-21)"
   xmlns:inkscape="http://www.inkscape.org/namespaces/inkscape"
   xmlns:sodipodi="http://sodipodi.sourceforge.net/DTD/sodipodi-0.dtd"
   xmlns="http://www.w3.org/2000/svg"
   xmlns:svg="http://www.w3.org/2000/svg">
  <sodipodi:namedview
     id="namedview36"
     pagecolor="#ffffff"
     bordercolor="#000000"
     borderopacity="0.25"
     inkscape:showpageshadow="2"
     inkscape:pageopacity="0.0"
     inkscape:pagecheckerboard="0"
     inkscape:deskcolor="#d1d1d1"
     inkscape:zoom="4.0546875"
     inkscape:cx="58.327553"
     inkscape:cy="84.470135"
     inkscape:window-width="1366"
     inkscape:window-height="697"
     inkscape:window-x="-8"
     inkscape:window-y="-8"
     inkscape:window-maximized="1"
     inkscape:current-layer="svg36" />
  <defs
     id="defs8">
    <linearGradient
       y2="39.244"
       y1="39.244"
       x2="124.084"
       x1="21.123"
       gradientUnits="userSpaceOnUse"
       gradientTransform="rotate(2.56 -380.023 -142.253)"
       id="f">
      <stop
         offset=".005"
         stop-color="#fbc02d"
         id="stop1" />
    </linearGradient>
    <linearGradient
       id="g"
       gradientUnits="userSpaceOnUse"
       x1="9.732"
       x2="74.285"
       y1="67.527"
       y2="67.527">
      <stop
         offset="0"
         stop-color="#ffc044"
         id="stop2" />
    </linearGradient>
    <linearGradient
       id="h"
       gradientUnits="userSpaceOnUse"
       x1="72.836"
       x2="118.397"
       y1="59.201"
       y2="59.201">
      <stop
         offset="0"
         stop-color="#ffb219"
         id="stop3" />
    </linearGradient>
    <linearGradient
       id="e"
       gradientUnits="userSpaceOnUse"
       x1="93.584"
       x2="121.796"
       y1="54.139"
       y2="56.158">
      <stop
         offset="0"
         stop-color="#ff3d2a"
         id="stop4" />
    </linearGradient>
    <linearGradient
       id="d"
       gradientUnits="userSpaceOnUse"
       x1="76.479"
       x2="104.69"
       y1="68.922"
       y2="70.941">
      <stop
         offset="0"
         stop-color="#ff3d2a"
         id="stop5" />
    </linearGradient>
    <linearGradient
       id="c"
       gradientUnits="userSpaceOnUse"
       x1="64.886"
       x2="93.097"
       y1="78.777"
       y2="80.796">
      <stop
         offset="0"
         stop-color="#ff3d2a"
         id="stop6" />
    </linearGradient>
    <linearGradient
       id="b"
       gradientTransform="rotate(-9.633 -419.545 -82.064)"
       gradientUnits="userSpaceOnUse"
       x1="5.446"
       x2="33.749"
       y1="156.275"
       y2="158.301">
      <stop
         offset="0"
         stop-color="#ff3d2a"
         id="stop7" />
    </linearGradient>
    <linearGradient
       id="a"
       gradientUnits="userSpaceOnUse"
       x1="17.181"
       x2="45.393"
       y1="71.738"
       y2="73.757">
      <stop
         offset="0"
         stop-color="#ff3d2a"
         id="stop8" />
    </linearGradient>
  </defs>
  <path
     d="m 74.26,109.41372 c -2.85,-2.82 -6.56,-3.52 -10.55,-4.93 -11.4,-3.17 -21.95,-5.630001 -33.07,-10.210001 -3.14,-1.06 -6.27,-1.41 -9.41,-2.11 -3.74,-1.09 -7.13,-3.22 -9.8,-6.56 -0.2,0.71 -0.31,1.49 -0.28,2.34 0.19,5.4 0,9.39 1.33,11.26 1.33,1.880001 40.67,13.370001 50.94,16.780001 7.15,2.37 8.83,4.1 11.9,3.81 -0.39,-3.95 1.69,-7.71 -1.06,-10.38 z"
     fill="#df8826"
     id="path8"
     style="fill:#f79329" />
  <path
     d="m 119.11,71.643719 c 0.48,-4.46 -0.57,-4.69 -6.08,-5.87 -5.51,-1.17 -40.48,-11.85 -45.8,-13.26 -5.32,-1.41 -8.36,-2.58 -11.78,-1.41 -3.42,1.17 -7.22,3.52 -7.22,3.52 -8.55,6.34 -31.93,25.34 -31.93,25.34 0,0 -3.78,1.83 -4.85,5.64 2.67,3.34 6.06,5.47 9.8,6.56 3.14,0.7 6.27,1.06 9.41,2.11 11.12,4.58 21.67,7.040001 33.07,10.210001 3.83,1.35 7.84,2.49 10.64,5.04 1.14,-1.21 3.04,-0.93 4.25,-2.05 37.19,-29.560001 40.47,-35.600001 40.49,-35.830001 z"
     fill="#f6d9a4"
     id="path9"
     style="fill:#ffcc80;fill-opacity:1" />
  <path
     d="m 78.25,106.36372 c -1.21,1.12 -4.01,2.87 -3.99,3.05 0.36,3.7 0.45,10.66 0.78,10.56 3.23,-0.94 11.02,-7.33 17.11,-11.79 6.08,-4.46 26.8,-24.310001 27.37,-25.960001 0.55,-1.59 0.2,-4.05 0.14,-5.71 -0.09,-2.56 -0.2,-5.15 -0.44,-7.7 0.24,2.63 -1.48,4.38 -2.95,5.76 -11.95,11.17 -24.09,20.55 -38.02,31.790001 z"
     fill="#d76208"
     id="path10"
     style="fill:#ed6c30" />
  <path
     style="fill:#bdcf46;fill-opacity:1;stroke-width:6;stroke-linecap:round"
     d="m 14.17338,61.547559 c -9.8632385,6.102938 -16.1838917,18.656136 -3.988474,24.753845 3.164605,1.582302 7.044438,0.209684 9.937605,1.656267 2.760553,1.380277 5.419052,5.592105 8.517946,6.62507 3.197636,1.065878 10.530808,-2.857635 12.54031,-1.183048 4.228708,3.523922 7.16059,8.814337 12.77692,9.937607 5.185609,1.03712 10.867105,-5.332191 14.906408,-3.31254 4.900478,2.45024 7.557242,7.60011 14.166521,6.27825 10.183917,-2.03678 3.716516,-11.833161 12.283664,-15.602373 4.625956,-2.035241 6.68051,0.883266 9.75109,-0.14026 4.82405,-1.608016 4.5895,-7.302388 7.09828,-10.647433 3.52924,-4.705639 9.10834,-1.793965 10.64744,-9.227776 C 125.71214,56.673161 108.64059,50.383283 76.855514,51.016514 40.705282,51.736708 27.920825,53.041247 14.17338,61.547559 Z"
     id="path37"
     sodipodi:nodetypes="ssssssssssssss" />
  <path
     d="m 8.9773748,64.293984 c -0.6817793,0.581255 -1.4084699,1.2247 -1.6998276,2.182517 -0.4963585,1.599507 0.4588782,3.38112 1.6743783,4.182459 1.2150995,0.811969 2.6355995,0.971619 3.9468905,1.48912 6.295472,2.449991 9.081416,12.19902 15.302754,14.923014 4.388475,1.920827 9.225083,-0.165513 13.879588,-0.800257 6.055852,-0.816466 12.301989,0.96102 17.389259,4.973216 4.146569,3.263729 8.315684,8.199623 13.192867,7.01966 3.244236,-0.783366 5.625283,-4.100717 8.24303,-6.632092 4.263788,-4.13041 9.661937,-6.42992 15.04692,-6.387942 1.660341,0.0089 3.355245,0.232103 4.971306,-0.282228 2.65053,-0.84818 4.69037,-3.582168 6.02553,-6.544807 1.33516,-2.962639 2.13931,-6.243234 3.3501,-9.295692 1.62305,-4.112204 6.9143,-7.303512 6.74297,-11.967276 -0.17132,-4.663762 -7.50451,-6.073201 -11.59836,-7.333627 C 94.604093,46.5079 84.568633,40.170684 73.941302,35.993605 63.313972,31.816524 51.398217,29.92253 41.056285,35.46471 c -2.737793,1.472989 -4.259173,3.438634 -6.127333,6.13647 -2.081682,2.998555 -5.137033,4.99192 -7.753866,7.214613 -6.080874,5.180128 -12.139292,10.32916 -18.1977112,15.478191 z"
     fill="url(#f)"
     id="path33"
     style="fill:#fcc21b;stroke-width:1"
     sodipodi:nodetypes="cccccccccccscscscccc" />
  <path
     style="fill:#db4437;fill-opacity:1;stroke-width:6;stroke-linecap:round"
     d="m 39.157552,62.440523 c -4.815046,-1.54945 -12.404728,-1.64562 -16.230037,1.58837 -9.513376,8.042796 3.862182,23.013554 16.506623,17.78975 11.485277,-4.744917 8.644372,-16.507414 -0.276586,-19.37812 z"
     id="path38"
     sodipodi:nodetypes="ssss" />
  <path
     style="fill:#db4437;fill-opacity:1;stroke-width:6;stroke-linecap:round"
     d="m 63.113758,69.476439 c 5.057248,-0.09847 12.353639,1.993243 15.08664,6.191138 C 84.997264,86.107569 67.879763,96.596609 57.273116,87.95548 47.638824,80.106515 53.744063,69.658876 63.113758,69.476439 Z"
     id="path40"
     sodipodi:nodetypes="ssss" />
  <path
     d="m 72.84,76.439653 c -2.85,-2.82 -6.56,-3.52 -10.55,-4.93 -11.4,-3.17 -21.95,-5.63 -33.07,-10.21 -3.14,-1.06 -6.27,-1.41 -9.41,-2.11 -3.74,-1.09 -7.13,-3.22 -9.8,-6.56 -0.2,0.71 -0.31,1.49 -0.28,2.34 0.19,5.4 0,9.39 1.33,11.26 1.34,1.88 40.68,13.38 50.94,16.78 7.15,2.37 8.83,4.1 11.9,3.81 -0.4,-3.95 1.69,-7.71 -1.06,-10.38 z"
     fill="url(#g)"
     id="path34"
     style="fill:#f79329" />
  <path
     style="fill:#db4437;fill-opacity:1;stroke-width:6;stroke-linecap:round"
     d="m 87.441784,59.877438 c 4.403154,-2.489517 11.817188,-4.115762 16.216556,-1.720522 10.94105,5.956861 0.86285,23.319426 -12.575782,20.755563 C 78.875904,76.583657 79.28395,64.489832 87.441784,59.877438 Z"
     id="path39"
     sodipodi:nodetypes="ssss" />
  <path
     d="m 117.69,38.669653 c 0.48,-4.46 -0.57,-4.69 -6.08,-5.87 -5.51,-1.17 -40.48,-11.85 -45.8,-13.26 -5.32,-1.41 -8.36,-2.58 -11.78,-1.41 -3.42,1.17 -7.22,3.52 -7.22,3.52 -8.55,6.34 -31.93,25.34 -31.93,25.34 0,0 -3.78,1.83 -4.85,5.64 2.67,3.34 6.06,5.47 9.8,6.56 3.14,0.7 6.27,1.06 9.41,2.11 11.12,4.58 21.67,7.04 33.07,10.21 3.83,1.35 7.84,2.49 10.64,5.04 1.14,-1.21 3.04,-0.93 4.25,-2.05 37.19,-29.56 40.46,-35.6 40.49,-35.83 z"
     fill="#ffd688"
     id="path35"
     style="fill:#ffcc80" />
  <path
     d="m 76.83,73.389653 c -1.21,1.12 -4.01,2.87 -3.99,3.05 0.36,3.7 0.45,10.66 0.78,10.56 3.23,-0.94 11.02,-7.33 17.11,-11.79 6.08,-4.46 26.8,-24.31 27.37,-25.96 0.55,-1.59 0.2,-4.05 0.14,-5.71 -0.09,-2.56 -0.2,-5.15 -0.44,-7.7 0.24,2.63 -1.48,4.38 -2.95,5.76 -11.95,11.17 -24.09,20.55 -38.02,31.79 z"
     fill="url(#h)"
     id="path36"
     style="fill:#ed6c30" />
</svg>
