<?xml version="1.0" encoding="UTF-8" standalone="no"?>
<svg
   enable-background="new 0 0 128 128"
   viewBox="0 0 128 128"
   version="1.1"
   id="svg59643"
   sodipodi:docname="emoji_u1f9e2.svg"
   inkscape:version="1.2.2 (732a01da63, 2022-12-09)"
   xmlns:inkscape="http://www.inkscape.org/namespaces/inkscape"
   xmlns:sodipodi="http://sodipodi.sourceforge.net/DTD/sodipodi-0.dtd"
   xmlns="http://www.w3.org/2000/svg"
   xmlns:svg="http://www.w3.org/2000/svg">
  <defs
     id="defs59647" />
  <sodipodi:namedview
     id="namedview59645"
     pagecolor="#ffffff"
     bordercolor="#000000"
     borderopacity="0.25"
     inkscape:showpageshadow="2"
     inkscape:pageopacity="0.0"
     inkscape:pagecheckerboard="0"
     inkscape:deskcolor="#d1d1d1"
     showgrid="false"
     inkscape:zoom="4"
     inkscape:cx="47.75"
     inkscape:cy="66.25"
     inkscape:window-width="1366"
     inkscape:window-height="697"
     inkscape:window-x="-8"
     inkscape:window-y="-8"
     inkscape:window-maximized="1"
     inkscape:current-layer="svg59643" />
  <linearGradient
     id="a"
     gradientUnits="userSpaceOnUse"
     x1="47.561"
     x2="124"
     y1="58.362"
     y2="58.362">
    <stop
       offset="0"
       stop-color="#42a5f5"
       id="stop59617" />
    <stop
       offset="1"
       stop-color="#1e88e5"
       id="stop59619" />
  </linearGradient>
  <clipPath
     id="b">
    <path
       d="m 123.93,82.64 c -0.11,2.46 -2.65,4.04 -4.92,3.09 -2.63,-1.09 -6.48,-2.45 -11.71,-3.71 -7.17,-1.73 -17.2,-4.89 -30.86,-11.46 -7.56,-3.64 -26.9,-6.31 -28.54,-5.89 -1.82,0.47 -3.79,1.85 -3.31,0.82 2.8,-5.95 7.73,-13.11 11.79,-18.59 5.44,-7.33 13.06,-12.86 21.87,-15.29 2.45,-0.68 4.84,-1.06 6.87,-0.87 37.28,3.51 39.4,38.41 38.81,51.9 z"
       id="path59622"
       sodipodi:nodetypes="cccccccccc" />
  </clipPath>
  <path
     d="m 104.65477,77.370967 c -0.0741,1.050844 -0.12392,2.127356 -0.12406,3.23806 0.002,5.18472 0.8513,9.961706 2.22063,12.493578 0.46276,1.778311 2.26988,3.01431 4.20832,2.566668 11.49899,-2.667305 38.20314,-11.721956 40.30523,-38.57531 -1.12064,2.57624 -2.98421,4.871631 -5.38093,6.879786 -4.30261,3.605048 -10.15317,6.375934 -16.04434,8.479162 -11.6675,4.165458 -24.92584,4.903931 -25.18485,4.918056 z"
     transform="matrix(0.2683,-0.9633,0.9633,0.2683,2.001,163.86)"
     id="path60779"
     style="fill:#b5b5b5;fill-opacity:1" />
  <path
     d="m 150.91383,46.843198 c -4.05,-11.161665 -13.48747,-16.351559 -22.57897,-18.666173 -8.40085,-2.138786 -16.16054,-1.863862 -19.05898,-1.660298 0.7308,6.778896 1.4128,15.500659 0.57881,20.160776 -1.44614,8.100426 -2.19602,14.862615 -2.55223,20.566509 -1.3237,1.694949 -2.28009,5.393039 -2.62429,9.796032 0.66426,-0.05124 13.55463,-1.081667 24.95917,-5.153247 5.85233,-2.08936 11.64844,-4.841466 15.86145,-8.371452 2.79223,-2.339564 4.87813,-5.009367 5.86178,-8.057895 0.10742,-2.694455 -0.0318,-5.564782 -0.44674,-8.614252 z"
     transform="matrix(0.2683,-0.9633,0.9633,0.2683,2.001,163.86)"
     id="path60772"
     style="fill:#37b4e2;fill-opacity:1" />
  <path
     d="M 150.21912,43.111382 C 149.06735,39.111627 144.60065,28.091799 131.32626,21.751913 122.85976,17.704965 116.91635,16.914 105.31844,17.237897 l 3.89273,8.68251 c 2.91387,-0.207573 10.7564,-0.493852 19.27165,1.674057 8.43746,2.148103 17.30724,6.770158 21.92282,16.273954 -0.0537,-0.233017 -0.0867,-0.410557 -0.18652,-0.757036 z"
     transform="matrix(0.2683,-0.9633,0.9633,0.2683,2.001,163.86)"
     id="ellipse59629"
     style="fill:#b5b5b5;fill-opacity:1"
     sodipodi:nodetypes="ccccscc" />
  <path
     d="m 61.564641,89.195087 c 0,0 -16.904666,6.562644 -30.92841,10.566637 C 20.069594,102.78913 7.989252,99.957041 4.971608,92.788916 -1.6300986,77.124511 16.299981,76.226054 16.299981,76.226054 Z"
     fill="#125bb5"
     id="path59631"
     style="fill:#2f2f2f;fill-opacity:1;stroke-width:1" />
  <path
     id="path59639"
     clip-path="url(#b)"
     style="fill:none;stroke:#37b4e2;stroke-linecap:round;stroke-linejoin:round;stroke-miterlimit:10;stroke-width:2;clip-path:url(#b);stroke-opacity:1"
     d="m 91.48,30.74 c 20.92,4.21 13.71,54.66 13.71,54.66 M 93.55,30.75 C 62.59,27.43 56.3,67.03 56.3,67.03" />
  <path
     d="M 56.253996,62.585127 46.40806,66.80202 c -6.933745,2.851625 -14.111636,5.068471 -21.445781,6.64077 l -12.64676,2.714903 c -3.847741,0.537122 -6.4649856,2.636777 -7.9103296,5.195426 -3.3301509,5.918098 0.839862,12.158469 0.839862,12.158469 0,0 -2.2754403,-6.582175 0.1660193,-10.996334 1.6015975,-2.890688 5.0587043,-4.150481 9.9220923,-3.134834 3.486404,0.732438 6.933745,2.656308 9.843965,4.668071 5.664186,3.896569 11.162353,7.412271 17.324597,10.13694 1.435578,0.791033 2.959049,1.484407 4.629007,2.001997 5.18566,1.611363 10.6057,2.636776 16.035506,2.636776 32.881682,0 43.449802,-16.971477 43.449802,-16.971477 z"
     fill="#3ca3f4"
     id="path59633"
     style="fill:#005792;fill-opacity:1;stroke-width:1"
     sodipodi:nodetypes="cccccccccccscc" />
  <ellipse
     cx="92.15"
     cy="31.9"
     fill="#0d47a1"
     rx="3.8"
     ry="5.61"
     transform="matrix(.1261 -.992 .992 .1261 48.877 119.29)"
     id="ellipse59625"
     style="fill:#0f60b2;fill-opacity:1" />
</svg>
