<?xml version="1.0" encoding="UTF-8" standalone="no"?>
<svg
   width="100%"
   height="100%"
   viewBox="0 0 128 128"
   version="1.1"
   xml:space="preserve"
   style="fill-rule:evenodd;clip-rule:evenodd;stroke-linejoin:round;stroke-miterlimit:2;"
   id="svg26244"
   sodipodi:docname="emoji_u1f9b7.svg"
   inkscape:version="1.2.2 (732a01da63, 2022-12-09)"
   xmlns:inkscape="http://www.inkscape.org/namespaces/inkscape"
   xmlns:sodipodi="http://sodipodi.sourceforge.net/DTD/sodipodi-0.dtd"
   xmlns="http://www.w3.org/2000/svg"
   xmlns:svg="http://www.w3.org/2000/svg"><defs
   id="defs26248" /><sodipodi:namedview
   id="namedview26246"
   pagecolor="#ffffff"
   bordercolor="#000000"
   borderopacity="0.25"
   inkscape:showpageshadow="2"
   inkscape:pageopacity="0.0"
   inkscape:pagecheckerboard="0"
   inkscape:deskcolor="#d1d1d1"
   showgrid="false"
   inkscape:zoom="5.9993591"
   inkscape:cx="40.921038"
   inkscape:cy="51.338817"
   inkscape:window-width="1366"
   inkscape:window-height="697"
   inkscape:window-x="-8"
   inkscape:window-y="-8"
   inkscape:window-maximized="1"
   inkscape:current-layer="svg26244" />
    <g
   id="g26242">
        <path
   d="M 53,7.2530167 C 42.906546,5.048162 34.91,3.2943054 28.22,8.8728335 21.53,14.451361 19.982282,18.752473 19.982282,27.1435 c 0,10.776889 10.68868,31.465901 9.907718,45.3165 -0.34,6.03 0.759966,21.550005 1.34,25.11 1.309966,8.04001 6.133286,23.93481 16.189823,24.44 8.708373,0.43747 7.869947,-19.00855 7.869947,-27.368768 0,-6.36 -0.157479,-21.34614 10.723048,-21.511232 11.456137,-0.173826 10.714987,14.719749 11.05,21.42 0.334987,6.69975 1.07833,28.68102 9.07,27.74 C 94.859542,121.26242 99.53,106.6 99.87,93.88 c 0.34,-12.72 -1.28332,-18.035493 0,-28.12 1.59564,-12.538729 9.20016,-30.34314 9.20016,-37.950224 0,-5.904006 -1.05061,-14.236016 -8.87016,-18.9369425 C 93.09955,4.6042128 88.09991,5.6848789 84.46,5.83 75.379909,6.1920178 70.36,11.045204 53,7.2530167 Z"
   style="fill:#e0e0e0;fill-rule:nonzero"
   id="path26234"
   sodipodi:nodetypes="ssssssssssssssss" />
        <path
   d="m 65.453554,23.941575 c 4.695803,0 13.1781,-3.174095 17.350111,-6.113184 4.17201,-2.93909 1.021495,-5.016323 -1.043693,-4.022578 -2.065188,0.993745 -11.477643,4.053655 -16.166115,4.053655 -4.688472,0 -11.566002,-3.110633 -14.509866,-3.739357 -2.943864,-0.628724 -3.5698,1.663035 -1.238468,3.531128 2.331332,1.868093 10.912228,6.290336 15.608031,6.290336 z"
   style="fill:#93b1bb;fill-opacity:0.66;fill-rule:nonzero"
   id="path26236"
   sodipodi:nodetypes="zzzzzzz" />
        
        
    </g>
<path
   d="m 32.528161,20.766647 c -1.921955,1.753898 -3.460013,4.220879 -3.840042,6.587032 -0.618383,3.862555 0.567082,7.399229 2.353259,10.254073 1.504382,2.454584 2.940198,4.594002 5.321654,5.82755 1.044581,0.52699 2.042673,0.977238 3.248982,0.213144 1.430993,-0.919755 -0.348084,-4.275017 -0.791416,-5.143927 -2.028818,-4.07771 -3.177881,-7.676916 -1.847251,-12.80899 0.369642,-1.445576 1.855365,-4.568799 1.27012,-5.967718 -1.021897,-2.408273 -4.301619,-0.219655 -5.715306,1.038836 z"
   style="clip-rule:evenodd;fill:#ffffff;fill-rule:nonzero;stroke-width:1;stroke-linejoin:round;stroke-miterlimit:2"
   id="path22371" /></svg>
