<?xml version="1.0" encoding="UTF-8" standalone="no"?>
<svg
   width="128"
   height="128"
   version="1.1"
   id="svg129986"
   sodipodi:docname="emoji_u1f633.svg"
   inkscape:version="1.3 (0e150ed6c4, 2023-07-21)"
   xmlns:inkscape="http://www.inkscape.org/namespaces/inkscape"
   xmlns:sodipodi="http://sodipodi.sourceforge.net/DTD/sodipodi-0.dtd"
   xmlns:xlink="http://www.w3.org/1999/xlink"
   xmlns="http://www.w3.org/2000/svg"
   xmlns:svg="http://www.w3.org/2000/svg">
  <defs
     id="defs129990">
    <linearGradient
       id="linearGradient1"
       inkscape:collect="always">
      <stop
         style="stop-color:#f79329;stop-opacity:1;"
         offset="0"
         id="stop1" />
      <stop
         style="stop-color:#fcc21b;stop-opacity:1"
         offset="1"
         id="stop2" />
    </linearGradient>
    <radialGradient
       inkscape:collect="always"
       xlink:href="#linearGradient1"
       id="radialGradient2"
       cx="25.288288"
       cy="73.926163"
       fx="25.288288"
       fy="73.926163"
       r="18.291407"
       gradientTransform="matrix(1,0,0,0.9878873,0,0.89544535)"
       gradientUnits="userSpaceOnUse" />
    <radialGradient
       inkscape:collect="always"
       xlink:href="#linearGradient1"
       id="radialGradient4"
       cx="103.28829"
       cy="73.926163"
       fx="103.28829"
       fy="73.926163"
       r="18.291407"
       gradientTransform="matrix(1,0,0,0.9878873,0,0.89544535)"
       gradientUnits="userSpaceOnUse" />
  </defs>
  <sodipodi:namedview
     id="namedview129988"
     pagecolor="#ffffff"
     bordercolor="#000000"
     borderopacity="0.25"
     inkscape:showpageshadow="2"
     inkscape:pageopacity="0.0"
     inkscape:pagecheckerboard="0"
     inkscape:deskcolor="#d1d1d1"
     showgrid="false"
     inkscape:zoom="4"
     inkscape:cx="56.75"
     inkscape:cy="63.375"
     inkscape:window-width="1366"
     inkscape:window-height="697"
     inkscape:window-x="-8"
     inkscape:window-y="-8"
     inkscape:window-maximized="1"
     inkscape:current-layer="svg129986" />
  <path
     d="M63.79 8.64C1.48 8.64 0 78.5 0 92.33c0 13.83 28.56 25.03 63.79 25.03 35.24 0 63.79-11.21 63.79-25.03 0-13.83-1.47-83.69-63.79-83.69z"
     fill="#fcc21b"
     id="path129880" />
  <g
     id="g130131">
    <path
       d="M109.54 90.9c-9.5 3.41-19.98-1.4-23.44-10.78-3.44-9.37 1.43-19.74 10.93-23.17 9.47-3.41 19.98 1.42 23.45 10.79 3.44 9.39-1.46 19.76-10.94 23.16z"
       fill="#fcc21b"
       id="path129882"
       style="fill:url(#radialGradient4)" />
  </g>
  <g
     id="g129970">
    <path
       d="M31.54 90.9c-9.5 3.41-19.98-1.4-23.44-10.78-3.44-9.37 1.43-19.74 10.93-23.17 9.47-3.41 19.98 1.42 23.45 10.79 3.44 9.39-1.46 19.76-10.94 23.16z"
       fill="#fcc21b"
       id="path129926"
       style="fill:url(#radialGradient2);stroke:none" />
  </g>
  <g
     id="g56773"
     transform="translate(0,3)">
    <ellipse
       transform="matrix(0.11060166,0.99386482,0.99386482,-0.11060166,0,0)"
       ry="18.566364"
       rx="19.895958"
       cy="81.221436"
       cx="64.257271"
       fill="#ffffff"
       id="ellipse129972"
       style="stroke-width:1.00019" />
    <path
       d="m 95.112926,54.880079 c -0.275501,3.952839 -3.761186,6.97137 -7.773916,6.731804 -4.024709,-0.227587 -7.067197,-3.641403 -6.791697,-7.594242 0.263523,-3.964817 3.73723,-6.971371 7.761939,-6.731805 4.024709,0.227588 7.079175,3.641404 6.803674,7.594243"
       fill="#2f2f2f"
       id="path129974"
       style="stroke-width:1.00019" />
    <ellipse
       transform="matrix(0.9971681,0.07520498,0.07520498,-0.9971681,0,0)"
       ry="19.895958"
       rx="18.566366"
       cy="-51.76075"
       cx="43.755634"
       fill="#ffffff"
       id="ellipse129978"
       style="stroke-width:1.00019" />
    <path
       d="m 46.976265,53.356758 c 0.455175,3.940861 -2.39566,7.546329 -6.396412,8.049417 -4.000752,0.515067 -7.618199,-2.275877 -8.073374,-6.204759 -0.479132,-3.940861 2.383681,-7.546329 6.384433,-8.061396 3.988774,-0.503088 7.618199,2.287855 8.085353,6.216738"
       fill="#2f2f2f"
       id="path129980"
       style="stroke-width:1.00019" />
  </g>
  <path
     d="M 49.559756,88.129286 H 78.44026"
     fill="none"
     fill-rule="evenodd"
     stroke="#2f2f2f"
     stroke-width="7.38"
     stroke-linecap="round"
     stroke-linejoin="round"
     id="path129984"
     style="stroke-width:6;stroke-dasharray:none" />
</svg>
