<?xml version="1.0" encoding="UTF-8" standalone="no"?>
<svg
   version="1.1"
   viewBox="-30 -210 799.38202 799.38202"
   id="svg1"
   sodipodi:docname="emoji_u1f3ae.svg"
   width="799.38202"
   height="799.38202"
   inkscape:version="1.3 (0e150ed6c4, 2023-07-21)"
   xmlns:inkscape="http://www.inkscape.org/namespaces/inkscape"
   xmlns:sodipodi="http://sodipodi.sourceforge.net/DTD/sodipodi-0.dtd"
   xmlns="http://www.w3.org/2000/svg"
   xmlns:svg="http://www.w3.org/2000/svg">
  <defs
     id="defs1" />
  <sodipodi:namedview
     id="namedview1"
     pagecolor="#ffffff"
     bordercolor="#000000"
     borderopacity="0.25"
     inkscape:showpageshadow="2"
     inkscape:pageopacity="0.0"
     inkscape:pagecheckerboard="0"
     inkscape:deskcolor="#d1d1d1"
     inkscape:zoom="0.6530043"
     inkscape:cx="339.20144"
     inkscape:cy="466.30627"
     inkscape:window-width="1366"
     inkscape:window-height="697"
     inkscape:window-x="-8"
     inkscape:window-y="-8"
     inkscape:window-maximized="1"
     inkscape:current-layer="svg1" />
  <path
     style="fill:#212121;fill-opacity:1;stroke-width:117.465;stroke-linecap:round"
     d="m 932.49499,1552.5759 c -97.0677,0 -387.85413,-55.0624 -387.85413,-159.5681 0,-53.1385 3.76398,-62.4377 3.76398,-75.9438 0,-26.7906 -92.48084,-102.6593 -127.55047,-190.3333 -35.0696,-87.6741 -343.181209,-681.35252 -343.181209,-919.32491 0,-112.723767 75.149169,-247.992264 227.952479,-247.992264 358.21106,0 227.9525,403.300554 924.33476,403.300554 696.3824,0 676.3426,-390.775688 961.9095,-390.775688 145.2884,0 230.4574,100.198898 230.4574,255.507158 0,155.3083 -115.2287,375.74589 -212.9226,646.28288 -97.694,270.53707 -249.5579,409.24987 -249.5579,441.50137 0,32.2515 8.9056,49.4375 8.9056,79.5492 0,88.5642 -277.877,159.0494 -383.0859,159.0494 -48.2207,0 -51.3519,-88.9265 -93.3102,-88.9265 -41.9583,0 -82.0378,12.5249 -249.871,12.5249 -167.8331,0 -199.1453,-11.2724 -239.2248,-11.2724 -40.07961,0 -20.78362,86.4215 -70.76551,86.4215 z"
     id="path10"
     transform="matrix(0.30566873,0,0,-0.30566873,-12.394903,421.54074)"
     sodipodi:nodetypes="sssssssssssssssss" />
  <path
     style="fill:#fafafa;stroke-width:1"
     d="m 227.65076,145.33349 c 1.84542,-2.54308 2.85821,-2.95255 4.48932,-3.17397 1.82853,-0.24822 5.6456,-0.1065 5.6456,-0.1065 4.8194,-0.007 7.85775,0.53303 12.23602,0.565 3.24202,0.0237 5.33384,-0.41747 8.68107,-0.56337 3.06437,-0.13357 5.12646,-1.09774 7.41897,-3.13553 4.58504,-4.07558 2.65047,-12.52142 2.39292,-19.99042 l -0.30567,-8.8644 c -0.16167,-4.68856 -1.27548,-8.09954 -3.36235,-10.087064 -2.1937,-2.089246 -10.59638,-4.586987 -23.55805,-5.126462 -12.07453,-0.50255 -13.87967,-1.654218 -14.06087,-5.113716 l -0.29731,-5.676268 c -0.26647,-5.08752 0.16614,-9.454059 -0.13953,-13.122083 -0.30567,-3.668025 -0.729,-6.817177 -1.06984,-9.475731 -0.67822,-5.290117 -8.04928,-7.947387 -22.31382,-7.947387 -5.29826,0 -9.42478,0.254714 -12.37958,0.764172 -2.9548,0.509458 -4.93253,0.819865 -5.65487,1.375509 -1.94497,1.496096 -3.70793,8.74503 -5.19637,21.396811 -1.36466,11.599578 -3.56614,17.423118 -7.03038,17.423118 -13.44943,0 -22.03088,0.898269 -25.98185,1.834012 -3.81425,0.903374 -6.48091,2.464332 -7.94738,5.502039 -1.3867,2.87243 -2.65308,10.2001 -2.13968,22.00815 0.10092,2.32124 0.917,4.43219 0.917,6.57187 0,2.13969 0.35662,4.07559 1.06984,5.80771 0.71323,1.73212 2.29252,3.10763 4.73787,4.12653 2.44535,1.01889 6.62282,1.52834 12.53242,1.52834 h 15.89477 c 4.48314,0 6.72471,2.34346 6.72471,7.03038 v 10.08707 c 0,11.81919 1.56081,18.6998 4.58503,20.78547 2.88615,1.99045 11.20786,3.05669 25.06484,3.05669 6.72471,0 11.40713,-1.66739 14.6721,-4.27936 1.8557,-1.48456 3.05669,-6.11337 3.05669,-14.6721 v -10.39274 c 0,-6.11337 0.82491,-7.45574 1.31838,-8.13577 z"
     id="path9" />
  <path
     style="fill:#616161;stroke-width:1"
     d="m 364.18897,270.54039 c 8.35494,0 15.28344,-2.4963 20.78548,-7.48889 5.50203,-4.99258 8.25305,-11.76824 8.25305,-20.32697 0,-4.48314 -0.917,-8.45683 -2.75102,-11.92108 -1.83401,-3.46424 -4.12652,-6.3681 -6.87754,-8.71156 -2.75102,-2.34346 -5.90959,-4.12652 -9.47573,-5.3492 -3.56615,-1.22267 -6.97943,-1.83401 -10.23991,-1.83401 -7.74359,0 -14.57022,2.59818 -20.4798,7.79455 -5.90959,5.19637 -8.86439,12.78714 -8.86439,22.77232 0,4.07558 0.86605,7.64172 2.59818,10.69841 1.73213,3.05668 3.97369,5.65487 6.72471,7.79455 2.75102,2.13968 5.90959,3.76991 9.47573,4.8907 3.56615,1.12079 7.18322,1.68118 10.85124,1.68118 z"
     id="path8" />
  <path
     style="fill:#616161;stroke-width:1"
     d="m 269.73733,275.12542 c 8.15117,0 14.97777,-2.59819 20.47981,-7.79455 5.50204,-5.19637 8.25306,-12.07392 8.25306,-20.63264 0,-4.48315 -0.86606,-8.40589 -2.59819,-11.76825 -1.73213,-3.36236 -3.97369,-6.21526 -6.72471,-8.55872 -2.75102,-2.34347 -5.85865,-4.07559 -9.3229,-5.19637 -3.46424,-1.12079 -6.92849,-1.68118 -10.39273,-1.68118 -3.87181,0 -7.53983,0.66228 -11.00408,1.98685 -3.46424,1.32456 -6.57188,3.26046 -9.32289,5.8077 -2.75102,2.54724 -4.94165,5.70582 -6.57188,9.47573 -1.63023,3.76992 -2.44535,8.10022 -2.44535,12.99092 0,4.27937 0.86606,7.99834 2.59818,11.15691 1.73213,3.15858 3.9737,5.80771 6.72471,7.94739 2.75102,2.13968 5.9096,3.71897 9.47573,4.73786 3.56614,1.0189 7.18322,1.52835 10.85124,1.52835 z"
     id="path7" />
  <path
     style="fill:#616161;stroke-width:1"
     d="m 462.91997,279.71045 c 8.15118,0 14.97777,-2.59818 20.47981,-7.79455 5.50203,-5.19637 8.25305,-12.07392 8.25305,-20.63264 0,-4.48315 -0.86605,-8.40589 -2.59818,-11.76825 -1.73213,-3.36235 -3.97369,-6.21526 -6.72471,-8.55872 -2.75102,-2.34346 -5.85866,-4.07559 -9.3229,-5.19637 -3.46424,-1.12079 -6.9285,-1.68118 -10.39274,-1.68118 -3.87181,0 -7.59076,0.66228 -11.15691,1.98685 -3.56614,1.32456 -6.67375,3.26046 -9.32289,5.8077 -2.64914,2.54724 -4.78882,5.70582 -6.41904,9.47573 -1.63023,3.76992 -2.44535,8.10023 -2.44535,12.99092 0,6.9285 2.80197,12.88904 8.40589,17.88163 5.60391,4.99258 12.68525,7.48888 21.24397,7.48888 z"
     id="path6" />
  <path
     style="fill:#fcc21b;stroke-width:1"
     d="m 539.33715,68.187688 c 0,-3.260477 -0.66229,-6.520923 -1.98684,-9.781399 -1.32456,-3.260477 -3.15857,-6.113375 -5.50204,-8.558725 -2.34347,-2.44535 -5.04353,-4.432196 -8.10022,-5.96054 -3.05669,-1.528344 -6.41904,-2.292515 -10.08707,-2.292515 -3.87181,0 -7.53984,0.764171 -11.00407,2.292515 -3.46424,1.528344 -6.47,3.566145 -9.01723,6.113375 -2.54723,2.547229 -4.58503,5.502037 -6.11338,8.864393 -1.52834,3.362356 -2.29251,6.877546 -2.29251,10.545571 0,4.483152 0.81513,8.354935 2.44535,11.615412 1.63022,3.260476 3.66802,5.96054 6.11337,8.100221 2.44535,2.139681 5.19637,3.71898 8.25306,4.737865 3.05669,1.018886 6.01149,1.528344 8.86439,1.528344 3.46424,0 6.9285,-0.764172 10.39274,-2.292515 3.46423,-1.528344 6.52092,-3.61707 9.17006,-6.266209 2.64914,-2.64914 4.78882,-5.552992 6.41904,-8.711559 1.63023,-3.158567 2.44535,-6.469998 2.44535,-9.934234 z"
     id="path5" />
  <path
     style="fill:#bdcf46;stroke-width:1"
     d="m 517.32901,201.15359 c 3.26047,0 6.62283,-0.76418 10.08706,-2.29252 3.46424,-1.52834 6.52093,-3.51519 9.17007,-5.96054 2.64914,-2.44535 4.83974,-5.3492 6.57187,-8.71156 1.73214,-3.36235 2.59819,-6.87755 2.59819,-10.54557 0,-3.26047 -0.66229,-6.46999 -1.98685,-9.62857 -1.32455,-3.15857 -3.15857,-5.96054 -5.50204,-8.40589 -2.34347,-2.44534 -5.09448,-4.43219 -8.25305,-5.96054 -3.15857,-1.52834 -6.47,-2.29251 -9.93424,-2.29251 -3.66802,0 -7.23417,0.76417 -10.6984,2.29251 -3.46424,1.52835 -6.52092,3.5152 -9.17006,5.96054 -2.64914,2.44535 -4.73787,5.34921 -6.26621,8.71156 -1.52835,3.36236 -2.29252,6.87755 -2.29252,10.54557 0,7.74361 2.59819,14.06077 7.79456,18.95147 5.19636,4.8907 11.1569,7.33605 17.88162,7.33605 z"
     id="path4" />
  <path
     style="fill:#40c0e7;stroke-width:1"
     d="m 483.39978,120.45704 c 0,-3.26047 -0.6623,-6.47 -1.98685,-9.62856 -1.32455,-3.15857 -3.15857,-5.96054 -5.50204,-8.40589 -2.34347,-2.445354 -5.09449,-4.432201 -8.25305,-5.960544 -3.15857,-1.528344 -6.57188,-2.292516 -10.2399,-2.292516 -3.66803,0 -7.23418,0.764172 -10.69841,2.292516 -3.46424,1.528343 -6.52092,3.566144 -9.17006,6.113374 -2.64914,2.54723 -4.73787,5.50204 -6.26621,8.86439 -1.52835,3.36236 -2.29252,6.97944 -2.29252,10.85124 0,7.53983 2.54723,13.65321 7.64172,18.34013 5.09449,4.68692 10.9022,7.03038 17.42312,7.03038 3.26048,0 6.67376,-0.76417 10.2399,-2.29252 3.56615,-1.52834 6.72471,-3.56613 9.47573,-6.11337 2.75102,-2.54724 5.04354,-5.45109 6.87755,-8.71156 1.83401,-3.26047 2.75102,-6.62282 2.75102,-10.08707 z"
     id="path3" />
  <path
     style="fill:#ed6c30;stroke-width:1"
     d="m 573.26638,148.57856 c 3.66803,0 7.23417,-0.71322 10.69841,-2.13968 3.46423,-1.42645 6.47,-3.4133 9.01723,-5.96054 2.54723,-2.54724 4.63598,-5.45109 6.26621,-8.71156 1.63022,-3.26046 2.44535,-6.72471 2.44535,-10.39273 0,-3.66803 -0.71322,-7.08134 -2.13969,-10.23991 -1.42646,-3.15856 -3.3114,-5.96054 -5.65487,-8.40589 -2.34347,-2.44535 -5.04353,-4.330313 -8.10022,-5.654867 -3.05669,-1.324554 -6.21525,-1.986847 -9.47573,-1.986847 -3.66802,0 -7.23417,0.764172 -10.6984,2.292516 -3.46424,1.528343 -6.57188,3.566148 -9.3229,6.113378 -2.75102,2.54723 -4.94166,5.50203 -6.57188,8.86439 -1.63022,3.36236 -2.44535,6.87755 -2.44535,10.54557 0,7.74361 2.59819,13.95887 7.79455,18.64579 5.19637,4.68692 11.25879,7.03038 18.18729,7.03038 z"
     id="path2" />
</svg>
