<?xml version="1.0" encoding="UTF-8" standalone="no"?>
<svg
   width="128"
   height="128"
   version="1.1"
   id="svg14"
   sodipodi:docname="emoji_u1f932_1f3ff.svg"
   inkscape:version="1.3 (0e150ed6c4, 2023-07-21)"
   xmlns:inkscape="http://www.inkscape.org/namespaces/inkscape"
   xmlns:sodipodi="http://sodipodi.sourceforge.net/DTD/sodipodi-0.dtd"
   xmlns="http://www.w3.org/2000/svg"
   xmlns:svg="http://www.w3.org/2000/svg">
  <defs
     id="defs14" />
  <sodipodi:namedview
     id="namedview14"
     pagecolor="#ffffff"
     bordercolor="#000000"
     borderopacity="0.25"
     inkscape:showpageshadow="2"
     inkscape:pageopacity="0.0"
     inkscape:pagecheckerboard="0"
     inkscape:deskcolor="#d1d1d1"
     showguides="true"
     inkscape:zoom="4.0546875"
     inkscape:cx="62.150289"
     inkscape:cy="66.219653"
     inkscape:window-width="1366"
     inkscape:window-height="697"
     inkscape:window-x="-8"
     inkscape:window-y="-8"
     inkscape:window-maximized="1"
     inkscape:current-layer="svg14">
    <sodipodi:guide
       position="-121.34104,-83.606936"
       orientation="-0.70710678,-0.70710678"
       id="guide14"
       inkscape:locked="false" />
  </sodipodi:namedview>
  <g
     id="g21"
     style="stroke-width:1.23129"
     transform="matrix(0.81215345,0,0,0.81215345,-115.14268,-93.216007)">
    <path
       id="path1-7-3-0-7"
       style="fill:#70534a;fill-opacity:1;stroke-width:1.23129"
       d="m 186.48219,132.89377 c -3.46298,0.0335 -6.04903,4.01817 -6.52545,7.97465 -0.43578,3.61888 -0.74126,7.53474 -0.89949,11.51516 -0.0862,2.16815 -2.83352,1.98796 -2.68544,-0.13679 0.0551,-0.78991 0.15568,-1.57401 0.25363,-2.33157 0.6313,-4.88226 -2.20453,-6.88883 -5.77793,-6.39451 -3.4993,0.48405 -5.80165,3.07619 -6.60609,7.348 -1.7,9.02735 -0.80157,27.80325 -0.016,39.22764 -1.60644,-2.44791 -4.27408,-3.77707 -8.32155,-3.13957 -2.53014,0.39852 -6.57273,3.67832 -6.20033,11.17097 0.21146,4.25374 0.75181,23.84629 4.85185,34.34864 0,0 0.71651,2.44753 1.37515,3.52224 3.42563,5.58939 9.87466,20.56476 38.3996,17.96613 28.52494,-2.59863 26.67617,-36.12256 24.54878,-50.732 -0.30944,-2.12496 -3.96878,-30.04172 -2.52615,-41.11404 0.74354,-5.70684 -1.63996,-7.84099 -3.2411,-7.90814 -3.85344,-0.16149 -4.62842,2.55397 -4.95277,4.60619 -0.32437,2.05224 -3.41543,1.86966 -3.26542,-0.30775 0.25348,-3.67981 0.48944,-7.43894 0.88083,-11.73147 0.41743,-4.57804 -1.87552,-7.01968 -5.06264,-6.94113 -3.49024,0.0859 -5.40193,3.23886 -5.85426,7.02691 -0.45237,3.78805 -3.26882,2.92303 -3.09,0.53277 0.18663,-2.49498 0.49064,-5.01711 0.79421,-7.60159 0.47717,-4.06233 -2.69478,-6.93349 -6.07945,-6.90075 z"
       sodipodi:nodetypes="ssscssscsscczsscssscsssss" />
    <path
       id="path2-8-0-6"
       style="fill:#563e37;fill-opacity:1;stroke-width:1.23129"
       d="m 162.24955,188.07458 c -0.60596,1.54135 1.34581,22.29614 1.48205,26.55065 0.12235,3.82076 2.4138,5.68723 6.36863,5.49626 3.65345,-0.17643 20.16389,-0.23104 25.69906,12.98728 0,0 1.21059,2.49603 2.512,1.55516 0,0 1.44145,-0.58642 -0.59397,-4.20776 -0.008,0.0112 -4.66018,-14.43679 -27.9571,-13.69077 -1.42049,0.0455 -2.42738,-0.62135 -2.4896,-2.56421 -0.0621,-1.93857 -3.23754,-23.73375 -3.15133,-24.24604 -0.51426,-0.74871 -1.13833,-1.3783 -1.86974,-1.88057 z m 35.60327,-47.26139 c -1.20608,0.87386 -2.05037,2.27035 -2.54705,3.94096 0.53392,-1.69234 1.37828,-3.078 2.55881,-3.93938 z m -2.73701,4.59973 c -0.009,0.0403 -0.0203,0.0796 -0.0294,0.12015 0.009,-0.0398 0.0192,-0.0806 0.0294,-0.12015 z m -18.79007,0.87919 c 0.0852,0.22592 0.15451,0.4687 0.21267,0.72208 -0.0576,-0.25363 -0.1275,-0.49628 -0.21267,-0.72208 z m 3.10583,-0.0995 c -0.0699,0.87156 -0.11156,1.7671 -0.16709,2.65514 0.0561,-0.89048 0.11175,-1.78157 0.18071,-2.65558 z m 12.40851,0.42143 c -0.0251,0.26129 -0.0484,0.52179 -0.0727,0.78203 0.0194,-0.25894 0.0509,-0.52246 0.0727,-0.78203 z m -0.0727,0.78203 c -1.38512,14.84876 -1.48196,27.97324 0.0358,38.46582 0.16285,1.12657 0.32493,1.99953 1.24992,1.86915 0.71004,-0.10007 0.96111,-0.81838 0.80372,-1.93491 -0.46444,-3.29473 -0.53026,-27.35772 0.90142,-38.48802 -0.62821,3.21165 -3.16147,2.36828 -2.99089,0.088 z m -15.20587,-0.26932 c 0.045,0.21441 0.0791,0.43895 0.10361,0.67281 -0.0241,-0.23411 -0.059,-0.4582 -0.10361,-0.67281 z m 0.12385,0.87734 c 0.0177,0.2303 0.0218,0.47184 0.0192,0.72046 0.003,-0.24896 -0.002,-0.48971 -0.0192,-0.72046 z m 0.0195,0.91391 c -0.0103,0.31829 -0.0345,0.64945 -0.0794,0.9972 0.045,-0.34833 0.0687,-0.67802 0.0794,-0.9972 z m -0.0794,0.9972 c -2.00109,15.47567 0.30108,38.00166 0.42156,38.9166 0.26503,2.01271 2.7309,2.04846 2.56841,-0.0393 -0.0602,-0.77219 -1.40114,-20.42682 -0.45699,-38.13187 -0.0296,0.57838 -0.078,1.141 -0.10115,1.72288 -0.0862,2.16815 -2.83352,1.98795 -2.68544,-0.1368 0.0551,-0.7899 0.15568,-1.57401 0.25363,-2.33156 z m 28.59227,3.8896 c -0.0482,0.65121 -0.0907,1.29783 -0.13342,1.93689 0.0438,-0.64365 0.0871,-1.27966 0.13342,-1.93689 z m 6.83662,0.46111 c -0.16589,0.0196 -0.32469,0.0436 -0.47634,0.0758 0.15162,-0.0317 0.31065,-0.0564 0.47634,-0.0758 z m -1.05539,0.23898 c -0.14295,0.0512 -0.28236,0.10451 -0.41087,0.16754 0.12953,-0.0615 0.26683,-0.11726 0.41087,-0.16754 z m -0.96711,0.4941 c -0.0462,0.0339 -0.0956,0.0646 -0.13944,0.10021 0.0445,-0.0347 0.0925,-0.0671 0.13944,-0.10021 z m -5.1336,3.71894 c -0.42671,7.95174 -0.38513,15.62994 0.31384,27.31449 0.04,0.66807 0.13425,1.67737 1.16788,1.565 0.99384,-0.10807 0.86158,-1.34607 0.83491,-2.05904 -0.35067,-9.37119 -0.47485,-18.99905 0.81659,-26.36972 -0.5978,1.58138 -3.07645,1.38641 -3.13321,-0.45073 z" />
  </g>
  <g
     id="g23"
     transform="matrix(-0.81215345,0,0,0.81215345,243.14268,-93.216007)"
     style="stroke-width:1.23129">
    <path
       id="path21"
       style="fill:#70534a;fill-opacity:1;stroke-width:1.23129"
       d="m 186.48219,132.89377 c -3.46298,0.0335 -6.04903,4.01817 -6.52545,7.97465 -0.43578,3.61888 -0.74126,7.53474 -0.89949,11.51516 -0.0862,2.16815 -2.83352,1.98796 -2.68544,-0.13679 0.0551,-0.78991 0.15568,-1.57401 0.25363,-2.33157 0.6313,-4.88226 -2.20453,-6.88883 -5.77793,-6.39451 -3.4993,0.48405 -5.80165,3.07619 -6.60609,7.348 -1.7,9.02735 -0.80157,27.80325 -0.016,39.22764 -1.60644,-2.44791 -4.27408,-3.77707 -8.32155,-3.13957 -2.53014,0.39852 -6.57273,3.67832 -6.20033,11.17097 0.21146,4.25374 0.75181,23.84629 4.85185,34.34864 0,0 0.71651,2.44753 1.37515,3.52224 3.42563,5.58939 9.87466,20.56476 38.3996,17.96613 28.52494,-2.59863 26.67617,-36.12256 24.54878,-50.732 -0.30944,-2.12496 -3.96878,-30.04172 -2.52615,-41.11404 0.74354,-5.70684 -1.63996,-7.84099 -3.2411,-7.90814 -3.85344,-0.16149 -4.62842,2.55397 -4.95277,4.60619 -0.32437,2.05224 -3.41543,1.86966 -3.26542,-0.30775 0.25348,-3.67981 0.48944,-7.43894 0.88083,-11.73147 0.41743,-4.57804 -1.87552,-7.01968 -5.06264,-6.94113 -3.49024,0.0859 -5.40193,3.23886 -5.85426,7.02691 -0.45237,3.78805 -3.26882,2.92303 -3.09,0.53277 0.18663,-2.49498 0.49064,-5.01711 0.79421,-7.60159 0.47717,-4.06233 -2.69478,-6.93349 -6.07945,-6.90075 z"
       sodipodi:nodetypes="ssscssscsscczsscssscsssss" />
    <path
       id="path23"
       style="fill:#563e37;fill-opacity:1;stroke-width:1.23129"
       d="m 162.24955,188.07458 c -0.60596,1.54135 1.34581,22.29614 1.48205,26.55065 0.12235,3.82076 2.4138,5.68723 6.36863,5.49626 3.65345,-0.17643 20.16389,-0.23104 25.69906,12.98728 0,0 1.21059,2.49603 2.512,1.55516 0,0 1.44145,-0.58642 -0.59397,-4.20776 -0.008,0.0112 -4.66018,-14.43679 -27.9571,-13.69077 -1.42049,0.0455 -2.42738,-0.62135 -2.4896,-2.56421 -0.0621,-1.93857 -3.23754,-23.73375 -3.15133,-24.24604 -0.51426,-0.74871 -1.13833,-1.3783 -1.86974,-1.88057 z m 35.60327,-47.26139 c -1.20608,0.87386 -2.05037,2.27035 -2.54705,3.94096 0.53392,-1.69234 1.37828,-3.078 2.55881,-3.93938 z m -2.73701,4.59973 c -0.009,0.0403 -0.0203,0.0796 -0.0294,0.12015 0.009,-0.0398 0.0192,-0.0806 0.0294,-0.12015 z m -18.79007,0.87919 c 0.0852,0.22592 0.15451,0.4687 0.21267,0.72208 -0.0576,-0.25363 -0.1275,-0.49628 -0.21267,-0.72208 z m 3.10583,-0.0995 c -0.0699,0.87156 -0.11156,1.7671 -0.16709,2.65514 0.0561,-0.89048 0.11175,-1.78157 0.18071,-2.65558 z m 12.40851,0.42143 c -0.0251,0.26129 -0.0484,0.52179 -0.0727,0.78203 0.0194,-0.25894 0.0509,-0.52246 0.0727,-0.78203 z m -0.0727,0.78203 c -1.38512,14.84876 -1.48196,27.97324 0.0358,38.46582 0.16285,1.12657 0.32493,1.99953 1.24992,1.86915 0.71004,-0.10007 0.96111,-0.81838 0.80372,-1.93491 -0.46444,-3.29473 -0.53026,-27.35772 0.90142,-38.48802 -0.62821,3.21165 -3.16147,2.36828 -2.99089,0.088 z m -15.20587,-0.26932 c 0.045,0.21441 0.0791,0.43895 0.10361,0.67281 -0.0241,-0.23411 -0.059,-0.4582 -0.10361,-0.67281 z m 0.12385,0.87734 c 0.0177,0.2303 0.0218,0.47184 0.0192,0.72046 0.003,-0.24896 -0.002,-0.48971 -0.0192,-0.72046 z m 0.0195,0.91391 c -0.0103,0.31829 -0.0345,0.64945 -0.0794,0.9972 0.045,-0.34833 0.0687,-0.67802 0.0794,-0.9972 z m -0.0794,0.9972 c -2.00109,15.47567 0.30108,38.00166 0.42156,38.9166 0.26503,2.01271 2.7309,2.04846 2.56841,-0.0393 -0.0602,-0.77219 -1.40114,-20.42682 -0.45699,-38.13187 -0.0296,0.57838 -0.078,1.141 -0.10115,1.72288 -0.0862,2.16815 -2.83352,1.98795 -2.68544,-0.1368 0.0551,-0.7899 0.15568,-1.57401 0.25363,-2.33156 z m 28.59227,3.8896 c -0.0482,0.65121 -0.0907,1.29783 -0.13342,1.93689 0.0438,-0.64365 0.0871,-1.27966 0.13342,-1.93689 z m 6.83662,0.46111 c -0.16589,0.0196 -0.32469,0.0436 -0.47634,0.0758 0.15162,-0.0317 0.31065,-0.0564 0.47634,-0.0758 z m -1.05539,0.23898 c -0.14295,0.0512 -0.28236,0.10451 -0.41087,0.16754 0.12953,-0.0615 0.26683,-0.11726 0.41087,-0.16754 z m -0.96711,0.4941 c -0.0462,0.0339 -0.0956,0.0646 -0.13944,0.10021 0.0445,-0.0347 0.0925,-0.0671 0.13944,-0.10021 z m -5.1336,3.71894 c -0.42671,7.95174 -0.38513,15.62994 0.31384,27.31449 0.04,0.66807 0.13425,1.67737 1.16788,1.565 0.99384,-0.10807 0.86158,-1.34607 0.83491,-2.05904 -0.35067,-9.37119 -0.47485,-18.99905 0.81659,-26.36972 -0.5978,1.58138 -3.07645,1.38641 -3.13321,-0.45073 z" />
  </g>
</svg>
