<?xml version="1.0" encoding="UTF-8" standalone="no"?>
<svg
   width="128"
   height="128"
   version="1.1"
   id="svg10890"
   sodipodi:docname="emoji_u1f956.svg"
   inkscape:version="1.2.2 (732a01da63, 2022-12-09)"
   xmlns:inkscape="http://www.inkscape.org/namespaces/inkscape"
   xmlns:sodipodi="http://sodipodi.sourceforge.net/DTD/sodipodi-0.dtd"
   xmlns:xlink="http://www.w3.org/1999/xlink"
   xmlns="http://www.w3.org/2000/svg"
   xmlns:svg="http://www.w3.org/2000/svg">
  <sodipodi:namedview
     id="namedview10892"
     pagecolor="#ffffff"
     bordercolor="#000000"
     borderopacity="0.25"
     inkscape:showpageshadow="2"
     inkscape:pageopacity="0.0"
     inkscape:pagecheckerboard="0"
     inkscape:deskcolor="#d1d1d1"
     showgrid="false"
     inkscape:zoom="2.9996795"
     inkscape:cx="75.841434"
     inkscape:cy="85.342449"
     inkscape:window-width="1366"
     inkscape:window-height="697"
     inkscape:window-x="-8"
     inkscape:window-y="-8"
     inkscape:window-maximized="1"
     inkscape:current-layer="svg10890" />
  <path
     d="M-620.55-526.55c-16-10.5-33.21-17.09-53.22-16.72 14.17-5.73 49.62 5.24 53.22 16.72zM-712.33-619.4c10.54 5.95 21.9 35.18 17.49 51.9-1.59-7.86-2.63-17.3-5.54-26.11-2.87-8.66-7.64-16.69-11.95-25.79zM-670.25-570.69c12.39-12.2 24.78-24.41 37.18-36.61.49.49.98.99 1.47 1.48-12.35 12.27-24.7 24.53-37.06 36.8-.53-.55-1.06-1.11-1.59-1.67z"
     fill="#fff"
     id="path10866" />
  <defs
     id="defs10869">
    <path
       id="a"
       d="M-.37 0H128v128H-.37z" />
  </defs>
  <clipPath
     id="b">
    <use
       xlink:href="#a"
       overflow="visible"
       id="use10871" />
  </clipPath>
  <g
     clip-path="none"
     id="g10888"
     transform="matrix(0.71621223,0.11259093,-0.11259093,0.71621223,34.106621,-19.103625)"
     style="stroke-width:1.37929">
    <path
       id="path10884"
       style="fill:#f79329;stroke-width:1.37929"
       d="m 109.89062,22.117188 c -6.50068,0.284138 -12.580946,3.403101 -17.357428,7.695329 -3.994873,3.53173 -7.250514,7.786775 -10.648499,11.871026 -10.975007,13.609728 -21.44897,27.614463 -31.883458,41.639581 -13.393953,18.079456 -26.63779,36.271386 -39.583589,54.674706 -3.7577243,5.40951 -7.5641701,10.78956 -11.10889256,16.34214 -3.81686554,6.04397 -7.05074824,12.73183 -7.59281464,19.96098 -0.4336434,4.56076 0.6270376,9.49121 3.8545757,12.88985 3.1313086,3.41304 7.9982312,4.76967 12.5179805,4.30542 3.773596,-0.34693 7.451133,-1.62663 10.623795,-3.70034 6.741212,-4.25159 12.16533,-10.23115 17.147466,-16.37535 4.56983,-5.67903 8.748448,-11.65728 13.099095,-17.50298 19.569511,-26.73423 39.087233,-53.50359 58.213329,-80.557516 4.97531,-7.077578 9.96833,-14.147083 14.72235,-21.375659 2.53568,-4.349897 3.50187,-9.468257 3.51953,-14.458984 -0.0127,-3.295441 -0.59713,-6.747047 -2.64453,-9.427735 -2.92529,-4.009806 -7.97283,-6.164747 -12.87891,-5.980468 z" />
    <path
       d="m 20.38,159.16 c 3.35,7.38 0.92,17.91 -1.01,19.19 -1.93,1.28 -2.62,-7.2 -5.97,-14.58 -3.35,-7.38 -0.92,-17.91 1.01,-19.19 1.93,-1.28 2.62,7.2 5.97,14.58 z m 16.09,-21.57 c 3.35,7.38 0.92,17.91 -1.01,19.19 -1.93,1.28 -2.62,-7.2 -5.97,-14.58 -3.35,-7.38 -0.92,-17.91 1.01,-19.19 1.92,-1.27 2.61,7.2 5.97,14.58 z m 16.08,-21.56 c 3.35,7.38 0.92,17.91 -1.01,19.19 -1.93,1.27 -2.62,-7.2 -5.97,-14.58 -3.35,-7.38 -0.92,-17.91 1.01,-19.19 1.93,-1.27 2.62,7.2 5.97,14.58 z M 68.64,94.46 c 3.35,7.38 0.92,17.91 -1.01,19.19 -1.93,1.27 -2.62,-7.2 -5.97,-14.58 -3.35,-7.38 -0.92,-17.91 1.01,-19.19 1.92,-1.27 2.62,7.2 5.97,14.58 z M 84.72,72.9 c 3.35,7.38 0.92,17.91 -1.01,19.19 -1.93,1.27 -2.62,-7.2 -5.97,-14.58 -3.35,-7.38 -0.92,-17.91 1.01,-19.19 1.93,-1.27 2.62,7.2 5.97,14.58 z m 16.09,-21.57 c 3.35,7.38 0.92,17.91 -1.01,19.19 -1.93,1.27 -2.62,-7.2 -5.97,-14.58 -3.35,-7.38 -0.92,-17.91 1.01,-19.19 1.92,-1.27 2.62,7.2 5.97,14.58 z"
       fill="#fbc21a"
       id="path10886"
       style="fill:#fcc21b;stroke-width:1.37929" />
  </g>
</svg>
