<?xml version="1.0" encoding="UTF-8" standalone="no"?>
<!-- Generator: Adobe Illustrator 25.2.3, SVG Export Plug-In . SVG Version: 6.00 Build 0)  -->

<svg
   version="1.1"
   id="Layer_1"
   x="0px"
   y="0px"
   viewBox="0 0 128 128"
   style="enable-background:new 0 0 128 128;"
   xml:space="preserve"
   sodipodi:docname="emoji_u1fa82.svg"
   inkscape:version="1.2.2 (732a01da63, 2022-12-09)"
   xmlns:inkscape="http://www.inkscape.org/namespaces/inkscape"
   xmlns:sodipodi="http://sodipodi.sourceforge.net/DTD/sodipodi-0.dtd"
   xmlns="http://www.w3.org/2000/svg"
   xmlns:svg="http://www.w3.org/2000/svg"><defs
   id="defs2617" /><sodipodi:namedview
   id="namedview2615"
   pagecolor="#ffffff"
   bordercolor="#000000"
   borderopacity="0.25"
   inkscape:showpageshadow="2"
   inkscape:pageopacity="0.0"
   inkscape:pagecheckerboard="0"
   inkscape:deskcolor="#d1d1d1"
   showgrid="false"
   inkscape:zoom="2.9996795"
   inkscape:cx="48.171812"
   inkscape:cy="78.67507"
   inkscape:window-width="1366"
   inkscape:window-height="697"
   inkscape:window-x="-8"
   inkscape:window-y="-8"
   inkscape:window-maximized="1"
   inkscape:current-layer="Layer_1" />
<path
   style="fill:none;fill-opacity:1;stroke:#6593a2;stroke-width:6;stroke-linecap:round;stroke-dasharray:none;stroke-opacity:1"
   d="m 51.170279,47.33839 c 0,0 10.524762,71.34095 12.829721,71.34095 2.304959,0 12.82972,-71.34095 12.82972,-71.34095"
   id="path13154"
   sodipodi:nodetypes="czc" /><path
   style="fill:none;fill-opacity:1;stroke:#6593a2;stroke-width:6;stroke-linecap:round;stroke-dasharray:none;stroke-opacity:1"
   d="m 26.560782,47.33839 c 0,0 30.712971,71.34095 37.439215,71.34095 6.726247,0 37.439223,-71.34095 37.439223,-71.34095"
   id="path13152"
   sodipodi:nodetypes="czc" /><path
   style="fill:none;fill-opacity:1;stroke:#6593a2;stroke-width:6;stroke-linecap:round;stroke-dasharray:none;stroke-opacity:1"
   d="m 8.6017016,54.95932 c 0,0 45.4455664,63.72002 55.3982994,63.72002 9.952736,0 55.398299,-63.72002 55.398299,-63.72002"
   id="path13150"
   sodipodi:nodetypes="czc" /><path
   d="m 64,6.2263108 c -49.703489,0 -59.4510989,44.3680072 -59.4510989,51.3942172 0,7.036361 23.4709039,-2.754634 59.4510989,-2.754634 35.980194,0 59.4511,9.790995 59.4511,2.754634 0,-7.02621 -9.7476,-51.3942172 -59.4511,-51.3942172 z"
   style="fill:#feb300;fill-opacity:1;stroke-width:0.999993"
   id="path28498"
   sodipodi:nodetypes="zszsz" />
<path
   id="rect14667"
   style="fill:#feca27;fill-opacity:1;stroke:none;stroke-width:6;stroke-linecap:round;stroke-dasharray:none;stroke-opacity:1"
   d="M 64 6.2265625 C 61.513409 6.2265625 59.153648 6.3662629 56.863281 6.578125 C 56.077778 12.39257 55.041016 22.164878 55.041016 33.355469 C 55.041016 41.760276 55.628279 49.296448 56.251953 55.029297 C 58.770987 54.93301 61.339771 54.865234 64 54.865234 C 66.830001 54.865234 69.552767 54.944542 72.222656 55.052734 C 72.592261 48.87511 72.958984 40.875107 72.958984 33.355469 C 72.958984 23.347467 72.32923 12.908464 71.886719 6.6425781 C 69.37088 6.383598 66.756464 6.2265625 64 6.2265625 z M 36.066406 12.107422 C 30.281945 14.879193 25.500418 18.429196 21.570312 22.341797 C 21.076222 25.714988 20.744141 29.433602 20.744141 33.355469 C 20.744141 44.372029 23.33069 53.712472 24.847656 58.271484 C 28.319885 57.745105 32.03487 57.202315 36.271484 56.679688 C 35.713082 51.329225 34.888672 42.132834 34.888672 33.355469 C 34.888672 25.619305 35.52808 17.641722 36.066406 12.107422 z M 91.935547 12.107422 C 92.473871 17.641722 93.111328 25.61934 93.111328 33.355469 C 93.111328 42.132834 92.286918 51.329225 91.728516 56.679688 C 95.965131 57.202315 99.680115 57.745105 103.15234 58.271484 C 104.66931 53.712472 107.25586 44.372029 107.25586 33.355469 C 107.25586 29.433602 106.92378 25.714988 106.42969 22.341797 C 102.49994 18.429554 97.719295 14.879083 91.935547 12.107422 z " /></svg>
