<?xml version="1.0" encoding="UTF-8" standalone="no"?>
<svg
   width="100%"
   height="100%"
   viewBox="0 0 128 128"
   version="1.1"
   xml:space="preserve"
   style="fill-rule:evenodd;clip-rule:evenodd;stroke-linejoin:round;stroke-miterlimit:2;"
   id="svg1"
   sodipodi:docname="emoji_u1f99c.svg"
   inkscape:version="1.3 (0e150ed6c4, 2023-07-21)"
   xmlns:inkscape="http://www.inkscape.org/namespaces/inkscape"
   xmlns:sodipodi="http://sodipodi.sourceforge.net/DTD/sodipodi-0.dtd"
   xmlns:xlink="http://www.w3.org/1999/xlink"
   xmlns="http://www.w3.org/2000/svg"
   xmlns:svg="http://www.w3.org/2000/svg"><defs
   id="defs1"><linearGradient
     id="linearGradient3"
     inkscape:collect="always"><stop
       style="stop-color:#bdcf46;stop-opacity:1;"
       offset="0"
       id="stop3" /><stop
       style="stop-color:#f79329;stop-opacity:1"
       offset="1"
       id="stop4" /></linearGradient><linearGradient
     inkscape:collect="always"
     xlink:href="#linearGradient3"
     id="linearGradient4"
     x1="42.307159"
     y1="67.903412"
     x2="41.084976"
     y2="39.12529"
     gradientUnits="userSpaceOnUse"
     gradientTransform="translate(3.699422)" /></defs><sodipodi:namedview
   id="namedview1"
   pagecolor="#ffffff"
   bordercolor="#000000"
   borderopacity="0.25"
   inkscape:showpageshadow="2"
   inkscape:pageopacity="0.0"
   inkscape:pagecheckerboard="0"
   inkscape:deskcolor="#d1d1d1"
   inkscape:zoom="2.0273438"
   inkscape:cx="35.761079"
   inkscape:cy="60.917148"
   inkscape:window-width="1366"
   inkscape:window-height="697"
   inkscape:window-x="-8"
   inkscape:window-y="-8"
   inkscape:window-maximized="1"
   inkscape:current-layer="svg1" />&#10;    <path
   style="fill:#bdcf46;fill-opacity:1;stroke-width:5;stroke-linecap:round"
   d="m 70.250825,59.791648 -22.437701,17.988689 7.360982,8.738567 19.287628,5.678761 16.089315,-3.348728 7.703059,-11.596032 -5.216964,-8.16408 z"
   id="path2" /><path
   id="path20840"
   d="m 43.709422,95.48 c 0,0 0.878008,10.00417 0.451107,11.40069 -0.4269,1.39652 -4.760034,3.80792 -8.502607,5.93715 -2.454885,1.39884 -6.402697,4.49129 -3.958945,6.90248 1.325278,1.30895 4.962743,-2.10857 15.971847,-2.96298 8.332244,-0.64641 11.15476,0.40725 11.439319,-2.17788 0.205454,-2.37052 -2.445055,-3.03445 -4.950933,-4.11471 -0.832158,-0.3568 -1.975623,-1.08719 -2.023442,-2.37691 -0.0098,-0.73492 0.0037,-11.19784 0.0037,-11.19784 z"
   style="fill:#f79329;fill-rule:nonzero"
   sodipodi:nodetypes="cscccccccc" />&#10;    <path
   id="path20842"
   d="m 65.859422,102.52 c 0,0 0.28,10.15 0.28,10.8 0,0.95 -2.32,2.09 -5.77,2.86 -3.45,0.77 -10.28,2.05 -10.37,6.42 -0.06,2.69 13.12,-0.95 20.65,-0.84 7.53,0.11 12.36,1.1 12.01,-2.06 -0.28,-2.53 -4.2,-3.68 -6.31,-4.14 -2.11,-0.46 -3.07,-1.49 -3.13,-2.75 -0.04,-0.82 0.14,-10.07 0.14,-10.07 z"
   style="fill:#f79329;fill-rule:nonzero" />&#10;    <path
   id="path1-1"
   style="clip-rule:evenodd;fill:#bdcf46;fill-opacity:1;fill-rule:evenodd;stroke-width:1;stroke-linejoin:round;stroke-miterlimit:2"
   d="m 70.273135,85.156872 c -0.325395,3.878446 -0.548657,7.77168 -0.940232,11.640758 -0.325165,0.51926 0.206931,0.834072 0.501627,1.212992 3.468561,3.869648 7.818543,7.054138 12.791745,8.672728 5.678167,1.97817 11.883032,2.35211 17.765815,1.11853 3.00113,-0.64595 6.09425,-1.32541 8.69869,-3.03067 4.20187,-2.70358 7.67496,-6.738061 9.25475,-11.519159 0.52127,-1.731499 0.86279,-3.614074 0.46063,-5.401458 -0.52694,-1.467543 -2.18596,-1.892852 -3.57694,-2.014783 -2.98338,-0.314912 -5.98857,-0.04238 -8.98158,-0.117832 -4.70642,0.01923 -9.466893,-0.655191 -13.816202,-2.519976 -5.457666,-2.150315 -10.527439,-5.432929 -16.386096,-6.446001 -1.000705,-0.230185 -1.842609,-0.40131 -2.889457,-0.607638 -0.709005,-0.133422 -1.417215,-0.27112 -2.127706,-0.396484 -0.251682,3.136332 -0.503363,6.272662 -0.755044,9.408993 z" /><path
   id="path20853"
   style="fill:url(#linearGradient4);fill-rule:nonzero"
   d="m 18.384231,40.940021 c 0,50.790792 23.227101,63.796839 42.484063,63.796839 15.428856,0 25.295006,-1.80014 27.645581,-8.411665 C 90.86445,89.713674 72.694465,75.473828 71.7266,44.172787 71.109727,24.222922 64.527436,7.1099393 44.49848,7.1099393 c -17.547274,0 -26.114249,13.5053167 -26.114249,33.8300817 z"
   sodipodi:nodetypes="sszsss" />&#10;    &#10;    &#10;    &#10;    &#10;    &#10;    &#10;    &#10;    <ellipse
   id="path21567"
   cx="39.034088"
   cy="28.897678"
   rx="4.3453732"
   ry="4.8914547"
   style="fill:#212121;stroke-width:1" />&#10;<path
   d="M 96.959259,84.15131 C 90.716723,93.307617 77.647942,95.561983 67.497585,93.183844 63.40705,92.222374 59.502864,90.565438 56.156564,88.333293 54.43417,87.188497 44.529953,78.830298 47.63808,76.619406 c 1.333263,-0.957554 3.533938,2.613711 4.354925,3.413448 1.53711,1.488555 3.276742,2.762203 5.121611,3.836289 3.69422,2.170078 7.87492,3.683698 12.090703,4.409556 7.77335,1.35817 17.231128,0.06185 21.944528,-7.019522 1.508109,-2.266916 4.593278,-6.28534 2.621601,-9.049846 -1.497729,-2.099168 -4.783957,-2.855477 -7.071629,-3.706571 -4.628122,-1.737034 -9.344056,-3.300895 -13.711836,-5.661805 -0.939858,-0.510654 -5.977223,-3.154507 -3.397865,-4.357925 1.420518,-0.665003 4.097791,0.818475 5.489926,1.263966 2.670946,0.850263 5.331539,1.739164 7.97212,2.664114 2.423594,0.846102 4.929317,1.424334 7.345147,2.299414 2.885852,1.052787 6.269688,2.06301 8.423554,4.379401 1.541415,1.665703 2.071135,3.629728 1.964365,5.650965 -0.18951,3.334574 -2.055304,6.820451 -3.825971,9.41042 z"
   style="fill:#2f2f2f;fill-opacity:1"
   id="path1" /><path
   style="fill:#fcc21b;fill-opacity:1;stroke-width:5.00001;stroke-linecap:round"
   d="M 26.766492,33.265366 C 14.323757,34.38892 5.8378713,42.203258 5.8378713,50.413217 c 0,6.214391 3.6300453,8.691286 5.6292187,8.691286 3.322304,0 3.552977,-4.401121 17.995263,-7.12899 8.768145,-1.656133 6.374341,-19.529167 -2.695861,-18.710147 z"
   id="path3"
   sodipodi:nodetypes="sssss" /></svg>
