<?xml version="1.0" encoding="UTF-8" standalone="no"?>
<svg
   width="128"
   height="128"
   version="1.1"
   id="svg44742"
   sodipodi:docname="emoji_u2763.svg"
   inkscape:version="1.2.2 (732a01da63, 2022-12-09)"
   xmlns:inkscape="http://www.inkscape.org/namespaces/inkscape"
   xmlns:sodipodi="http://sodipodi.sourceforge.net/DTD/sodipodi-0.dtd"
   xmlns="http://www.w3.org/2000/svg"
   xmlns:svg="http://www.w3.org/2000/svg">
  <defs
     id="defs44746" />
  <sodipodi:namedview
     id="namedview44744"
     pagecolor="#ffffff"
     bordercolor="#000000"
     borderopacity="0.25"
     inkscape:showpageshadow="2"
     inkscape:pageopacity="0.0"
     inkscape:pagecheckerboard="0"
     inkscape:deskcolor="#d1d1d1"
     showgrid="false"
     inkscape:zoom="4.6171875"
     inkscape:cx="50.35533"
     inkscape:cy="64.108291"
     inkscape:window-width="1366"
     inkscape:window-height="697"
     inkscape:window-x="-8"
     inkscape:window-y="-8"
     inkscape:window-maximized="1"
     inkscape:current-layer="svg44742" />
  <circle
     cx="63.37"
     cy="105.34"
     r="17.99"
     fill-rule="evenodd"
     clip-rule="evenodd"
     fill="#d7598b"
     id="circle44736" />
  <path
     d="M99.56 10.44c-.46-.37-6.92-5.01-15.36-4.74-6.82.22-13.45 3.13-18.3 7.66-.21.19-1.02 1.17-2.33 1.45-.41.09-.83.08-.83.08s-.34-.01-.68-.08c-1.24-.26-2.33-1.45-2.33-1.45-4.85-4.53-11.48-7.44-18.3-7.66-8.44-.27-14.89 4.38-15.36 4.75-8.62 6.84-8.65 17.97-8.65 19.88-.03 13.01 9.45 22.22 11.93 24.63 6.37 6.19 18.66 13.73 22.69 17.36 2.86 2.57 4.07 3.69 4.07 3.69.11.11.84.86 1.87 1.82 1.44 1.35 2.02 1.78 2.69 2.15.82.44 1.37.7 2.1.72v.01h.08v-.01c.73-.02 1.28-.27 2.1-.72.67-.37 1.26-.8 2.69-2.15 1.02-.96 1.76-1.71 1.87-1.82 0 0 1.21-1.11 4.07-3.69 4.03-3.63 16.32-11.17 22.69-17.36 2.48-2.41 11.95-11.62 11.93-24.63.01-1.92-.01-13.05-8.64-19.89z"
     fill="#d7598b"
     id="path44738" />
</svg>
