<?xml version="1.0" encoding="UTF-8" standalone="no"?>
<svg
   width="128"
   height="128"
   version="1.1"
   id="svg16"
   sodipodi:docname="emoji_u1f94a.svg"
   inkscape:version="1.2.2 (732a01da63, 2022-12-09)"
   xmlns:inkscape="http://www.inkscape.org/namespaces/inkscape"
   xmlns:sodipodi="http://sodipodi.sourceforge.net/DTD/sodipodi-0.dtd"
   xmlns="http://www.w3.org/2000/svg"
   xmlns:svg="http://www.w3.org/2000/svg">
  <defs
     id="defs20" />
  <sodipodi:namedview
     id="namedview18"
     pagecolor="#ffffff"
     bordercolor="#000000"
     borderopacity="0.25"
     inkscape:showpageshadow="2"
     inkscape:pageopacity="0.0"
     inkscape:pagecheckerboard="0"
     inkscape:deskcolor="#d1d1d1"
     showgrid="false"
     inkscape:zoom="2.1210938"
     inkscape:cx="49.974217"
     inkscape:cy="61.760589"
     inkscape:window-width="1366"
     inkscape:window-height="697"
     inkscape:window-x="-8"
     inkscape:window-y="-8"
     inkscape:window-maximized="1"
     inkscape:current-layer="svg16" />
  <style
     id="style2">.st0{fill:#db4437}</style>
  <path
     class="st0"
     d="M35 85.5s-5 .9-5.4 5c-1.3 13.4 1.1 29.2 2.8 31.6 2.2 3 24.1 9 38 2.6 7.6-3.5 6.9-5.9 6.8-9.6-.2-12.4 5.1-23.4 0-26.7-5-3.3-33.9-5-42.2-2.9z"
     id="path4" />
  <path
     d="M33.8 113c.2 1.3.9 2.4 2 3.2 5.2 3.8 19.5 5.5 28.2 2.4 4.1-1.4 4.9-3.3 4.9-11.8 0-3.5-1.7-5.8-5-5.7-13.1 1.9-22.2 0-27-1.6-1.9-.6-3.9.8-3.9 2.9 0 3 .1 7 .8 10.6z"
     fill="#f7cb4d"
     id="path6" />
  <path
     class="st0"
     d="M93.3 23.2c.3-.4.1-8.6-8-15.4-6.5-5.5-27.7-6.2-39-5.4-12.6.9-20.1 5.7-24.2 18.2-3.7 11.5-1.1 32.9 2.5 46.9C28 81 31.7 86.4 32.4 87.7l43.1.8c8.7-11.4 29.7-33.6 28.2-54.7-1-15.1-10-10.9-10.4-10.6z"
     id="path8" />
  <path
     class="st0"
     d="M75.4 88.4l-42.6-.7c22.4 9.3 42.6.7 42.6.7z"
     id="path12" />
  <path
     d="M93.3 23.2S89.5 27 88 30.8s-1.9 8.2-3.6 12-3.4 4.8-5.8 4c-2.4-.8-6.4-14.1-.1-20.6 4.4-4.5 8.4-6.1 11.4-5.3 2.2.5 3.4 2.3 3.4 2.3z"
     fill="#a52714"
     id="path14" />
  <path
     id="path10"
     style="fill:#2f2f2f;fill-opacity:1;stroke-width:1"
     d="M 28.552734 79.921875 C 29.791726 82.990701 30.798388 84.882817 31.496094 86.101562 C 50.736172 92.784943 67.592136 89.85302 76.525391 87.208984 C 76.525622 87.208689 76.527112 87.20928 76.527344 87.208984 C 78.024475 85.297423 79.804263 83.085755 81.716797 80.705078 C 80.610091 81.111907 56.008303 89.929631 28.552734 79.921875 z " />
</svg>
