<?xml version="1.0" encoding="UTF-8" standalone="no"?>
<svg
   width="128px"
   height="128px"
   version="1.1"
   xml:space="preserve"
   style="fill-rule:evenodd;clip-rule:evenodd;stroke-linejoin:round;stroke-miterlimit:2;"
   id="svg22"
   sodipodi:docname="emoji_u1f9ca.svg"
   inkscape:version="1.3 (0e150ed6c4, 2023-07-21)"
   xmlns:inkscape="http://www.inkscape.org/namespaces/inkscape"
   xmlns:sodipodi="http://sodipodi.sourceforge.net/DTD/sodipodi-0.dtd"
   xmlns="http://www.w3.org/2000/svg"
   xmlns:svg="http://www.w3.org/2000/svg"><sodipodi:namedview
     id="namedview22"
     pagecolor="#ffffff"
     bordercolor="#000000"
     borderopacity="0.25"
     inkscape:showpageshadow="2"
     inkscape:pageopacity="0.0"
     inkscape:pagecheckerboard="0"
     inkscape:deskcolor="#d1d1d1"
     inkscape:zoom="11.313709"
     inkscape:cx="34.471456"
     inkscape:cy="99.304308"
     inkscape:window-width="1366"
     inkscape:window-height="697"
     inkscape:window-x="-8"
     inkscape:window-y="-8"
     inkscape:window-maximized="1"
     inkscape:current-layer="svg22" /><path
     d="m 63.044907,8.0339525 -44.43351,14.8656225 -6.322935,3.641933 -0.797573,23.869559 5.717547,41.675634 29.702418,16.047569 18.930366,6.82262 13.962347,-5.71755 32.835053,-15.057806 c 0,0 3.20952,-0.259452 1.71046,-5.169816 -1.49905,-4.910364 0.40359,-51.25613 0.40359,-51.25613 l 0.17297,-11.127596 c 0,0 -0.0192,-2.623345 -8.71565,-4.525991 C 97.513549,20.199355 63.044907,8.0339525 63.044907,8.0339525 Z"
     style="fill:#ffffff;fill-opacity:0.5;fill-rule:nonzero;stroke-width:1"
     id="path1" /><path
     d="M 17.198827,31.394217 63.28514,52.457853 65.668252,112.52375 60.517655,112.44886 25.405189,96.824098 17.208436,92.086701 11.692684,37.400044 12.951506,29.414696 Z"
     style="fill:#196ca2;fill-opacity:1;fill-rule:nonzero;stroke-width:1"
     id="path7"
     sodipodi:nodetypes="ccccccccc" /><path
     d="m 64.476696,52.726914 0.932105,61.057636 41.714069,-16.825922 6.22684,-4.372242 -0.35554,-5.304346 1.94108,-60.654048 -6.35176,1.595148 z"
     style="fill:#42ade7;fill-rule:nonzero;stroke-width:1"
     id="path8" /><g
     transform="matrix(0.96093231,0,0,0.96093231,2.6118741,2.1626562)"
     id="g9"
     style="fill:#40c0e7;stroke-width:1.04066"><path
       d="M 15.87,31.2 41.78,43.05 63.49,51.8 114.56,26.1 115.74,24.99 62.67,6.11 13.8,21.96 8.84,25.55 8.98,28.72 Z"
       style="fill:#40c0e7;fill-rule:nonzero;stroke-width:1.04066"
       id="path9" /></g><path
     d="m 30.582225,27.140387 c -1.543899,-2.271483 -7.737244,0.195206 -10.115203,1.499535 -2.377961,1.304329 -3.77102,2.954705 -3.531449,4.791412 0.23957,1.836708 3.336243,2.759498 6.725723,4.259033 3.38948,1.499535 29.165503,13.220748 31.108687,14.267761 2.768371,1.499534 5.740821,3.424972 6.62812,9.236777 0.576744,3.824257 2.165008,40.540675 2.227119,41.800635 0.141968,2.98132 -0.115349,7.30246 1.685867,7.23148 1.579391,-0.0621 1.259964,-3.99284 1.215599,-7.28471 -0.04437,-3.291889 0.275063,-39.085509 0.283935,-41.507834 0.01775,-3.025689 0.993775,-6.432914 3.025689,-8.225258 2.031913,-1.792342 5.891662,-4.063827 10.470122,-6.397422 5.483504,-2.786117 17.719352,-8.802002 22.359926,-10.87828 4.64057,-2.076278 7.30247,-2.70626 7.30247,-4.986617 0,-2.280358 -10.549983,-5.421395 -11.801076,-5.518998 -1.259964,-0.0976 -2.608659,0.337174 -2.324722,1.889947 0.292808,1.543899 1.472915,4.179176 -0.896173,6.255454 -2.369086,2.076278 -7.497672,4.897888 -10.425757,6.370803 -5.048728,2.528801 -17.222465,8.952842 -21.383894,8.660034 -4.16143,-0.292808 -6.770089,-1.020393 -13.016669,-3.629051 -6.23771,-2.608658 -13.744255,-6.38855 -17.417671,-8.367226 -2.608657,-1.410804 -4.401001,-3.487083 -4.259033,-5.660963 0.159714,-2.165009 3.47821,-1.845581 2.13839,-3.806512 z"
     style="fill:#ffffff;fill-rule:nonzero;stroke-width:1"
     id="path16" /><path
     d="m 44.518132,20.953371 c 0.643825,1.662413 6.447856,-0.04805 9.22495,-0.893667 2.777095,-0.836011 7.543319,-2.354284 10.378069,-2.517643 2.825141,-0.153749 12.309543,2.729048 14.721483,3.199905 2.41194,0.470857 4.506773,0.576559 5.025676,-0.259452 0.518904,-0.836011 -2.882797,-2.671392 -7.649021,-4.295367 -4.766224,-1.623976 -10.320413,-4.189665 -12.684306,-3.882166 -2.440768,0.326717 -7.67785,2.719438 -11.838686,4.189664 -2.517643,0.893667 -7.966129,2.41194 -7.178165,4.458726 z"
     style="fill:#ffffff;fill-rule:nonzero;stroke-width:1"
     id="path17" /><defs
     id="defs22"><radialGradient
       id="_Radial1"
       cx="0"
       cy="0"
       r="1"
       gradientUnits="userSpaceOnUse"
       gradientTransform="matrix(-35.6798,29.3038,-39.0732,-47.5731,61.8423,58.672)"><stop
         offset="0"
         style="stop-color:#fff;stop-opacity:0.9"
         id="stop17" /><stop
         offset="1"
         style="stop-color:#fcfcfc;stop-opacity:0"
         id="stop18" /></radialGradient><radialGradient
       id="_Radial2"
       cx="0"
       cy="0"
       r="1"
       gradientUnits="userSpaceOnUse"
       gradientTransform="matrix(45.0952,30.8411,-36.5176,53.3997,69.4634,53.8459)"><stop
         offset="0"
         style="stop-color:#42ade7;stop-opacity:0.9"
         id="stop19" /><stop
         offset="1"
         style="stop-color:#32afe0;stop-opacity:0"
         id="stop20" /></radialGradient><radialGradient
       id="_Radial3"
       cx="0"
       cy="0"
       r="1"
       gradientUnits="userSpaceOnUse"
       gradientTransform="matrix(-0.0941643,-47.1483,96.6116,-0.192949,63.6479,49.4808)"><stop
         offset="0"
         style="stop-color:#42ade7;stop-opacity:0.9"
         id="stop21" /><stop
         offset="1"
         style="stop-color:#62c0ea;stop-opacity:0.34"
         id="stop22" /></radialGradient></defs><path
     id="path6"
     style="fill:#1995b7;fill-opacity:1;fill-rule:nonzero;stroke-width:1"
     d="M 62.764585,6.5839958 C 58.56437,6.6144355 50.665784,10.5796 40.107603,14.183243 28.0863,18.28627 17.947221,21.023876 14.412048,22.794097 c -2.912678,1.45851 -4.376317,3.844068 -4.5062472,7.024941 -0.1295219,3.170889 -0.397351,12.173914 1.9894302,35.216668 0.726636,7.01518 3.390754,24.849652 3.73675,26.108456 0.639076,2.325089 1.366793,2.523388 2.152714,3.153059 1.113056,0.891767 2.896073,1.692735 5.198794,3.286313 1.874049,1.296918 7.850746,4.641716 14.808117,8.090976 10.079926,4.99732 22.256052,10.01138 27.272084,10.09917 7.062862,0.12362 17.478974,-5.60219 28.510787,-10.76169 10.829353,-5.064805 19.775223,-9.21205 21.745533,-11.34139 1.11579,-1.205849 0.81573,-4.152905 0.81573,-5.600671 0,-2.51764 -0.13393,-26.618437 0.13513,-37.611491 0.26906,-10.993055 1.98951,-21.716698 -1.05665,-25.560424 C 112.16807,21.054289 102.76346,19.065574 87.135104,13.637089 77.394864,10.253831 67.388817,7.15962 63.554727,6.6309163 63.30786,6.5968746 63.0446,6.5819664 62.764585,6.5839958 Z m 0.780757,4.1402672 c 3.180683,0 24.76323,7.812156 28.347504,9.13824 3.574665,1.326086 18.939074,5.699157 19.736644,7.813205 0.79757,2.11405 1.08183,60.912181 0.21065,62.717307 -0.87119,1.805126 -11.06051,7.045335 -19.149511,10.735835 -7.206977,3.28637 -24.005298,10.66748 -27.897066,11.0038 -3.891768,0.33633 -17.79693,-6.26679 -24.004539,-9.22645 C 34.001922,99.675568 22.272136,92.899694 20.088738,90.758191 18.341066,89.044053 17.718313,76.289861 16.392229,62.644637 15.066143,48.999411 13.740507,31.788722 14.932062,28.86749 16.123616,25.946259 23.763035,23.696471 29.105814,22.110935 45.662526,17.210185 60.36466,10.724263 63.545342,10.724263 Z"
     sodipodi:nodetypes="ssssssssssssssssssscszcscssscs" /><path
     style="clip-rule:evenodd;fill:#42ade7;fill-opacity:1;fill-rule:nonzero;stroke-linejoin:round;stroke-miterlimit:2"
     d="m 32.828921,113.94486 c -0.764045,2.58326 1.141665,5.48642 5.752151,6.62442 7.219484,1.78197 12.403669,-0.97585 13.298343,-3.47964 0.894674,-2.5038 -1.250851,-5.95749 -8.228033,-7.04675 -6.977182,-1.08926 -10.058416,1.31871 -10.822461,3.90197 z"
     id="path25" /><path
     style="clip-rule:evenodd;fill:#42ade7;fill-opacity:1;fill-rule:nonzero;stroke-linejoin:round;stroke-miterlimit:2"
     d="m 14.587891,94.060594 c -3.058918,1.776088 -5.892178,5.455504 -4.041016,8.546876 1.355914,2.26432 3.935392,5.19626 9.53125,6.08203 4.86009,0.76931 7.960734,-0.11033 10.300781,-1.49023 2.119933,-1.2501 2.743549,-4.08889 2.650391,-5.38867 -0.116842,-1.63022 -1.830805,-4.04076 -3.423509,-5.233725 -1.592704,-1.192964 -3.32409,-2.315043 -4.7679,-2.957688 -1.47437,-0.65625 -2.985224,-1.024435 -4.92702,-1.017265 -1.941797,0.0072 -3.662481,0.494544 -5.322977,1.458672 z"
     id="path10" /><path
     d="m 15.296228,98.666779 c -1.22,0.08 -3.09,2.860001 -0.14,4.910001 3.66,2.55 8.76,1.01 8.42,-0.53 -0.34,-1.54 -3.9,-1.44 -5.34,-2.26001 -1.45,-0.819996 -1.55,-2.219991 -2.94,-2.119991 z"
     style="clip-rule:evenodd;fill:#fdfefe;fill-rule:nonzero;stroke-linejoin:round;stroke-miterlimit:2"
     id="path12" /><path
     d="m 40.991501,117.62512 c -1.22,0.79 -3.03,0.29 -4.14,-0.48 -0.89,-0.62 -1.34,-2.07 -0.72,-2.84 1.01,-1.25 3.03,-0.87 4.24,-0.1 1.19,0.77 1.96,2.55 0.62,3.42 z"
     style="clip-rule:evenodd;fill:#ffffff;fill-rule:nonzero;stroke-linejoin:round;stroke-miterlimit:2"
     id="path15" /></svg>
