<?xml version="1.0" encoding="UTF-8" standalone="no"?>
<svg
   width="100%"
   height="100%"
   viewBox="0 0 534 534"
   version="1.1"
   xml:space="preserve"
   style="fill-rule:evenodd;clip-rule:evenodd;stroke-linecap:round;stroke-linejoin:round;stroke-miterlimit:1.5;"
   id="svg12"
   sodipodi:docname="emoji_u1f971.svg"
   inkscape:version="1.2.2 (732a01da63, 2022-12-09)"
   xmlns:inkscape="http://www.inkscape.org/namespaces/inkscape"
   xmlns:sodipodi="http://sodipodi.sourceforge.net/DTD/sodipodi-0.dtd"
   xmlns="http://www.w3.org/2000/svg"
   xmlns:svg="http://www.w3.org/2000/svg"><defs
     id="defs16"><linearGradient
       id="_Linear1"
       x1="0"
       y1="0"
       x2="1"
       y2="0"
       gradientUnits="userSpaceOnUse"
       gradientTransform="matrix(0,452.943,-385.985,0,270.919,36.0382)"><stop
         offset="0"
         style="stop-color:#6fa13a;stop-opacity:1"
         id="stop22" /><stop
         offset="0.52"
         style="stop-color:#d9bf2d;stop-opacity:1"
         id="stop24" /><stop
         offset="1"
         style="stop-color:#ffca28;stop-opacity:1"
         id="stop26" /></linearGradient></defs><sodipodi:namedview
     id="namedview14"
     pagecolor="#ffffff"
     bordercolor="#000000"
     borderopacity="0.25"
     inkscape:showpageshadow="2"
     inkscape:pageopacity="0.0"
     inkscape:pagecheckerboard="0"
     inkscape:deskcolor="#d1d1d1"
     showgrid="false"
     inkscape:zoom="0.35951216"
     inkscape:cx="461.73682"
     inkscape:cy="294.84399"
     inkscape:window-width="1366"
     inkscape:window-height="697"
     inkscape:window-x="-8"
     inkscape:window-y="-8"
     inkscape:window-maximized="1"
     inkscape:current-layer="svg12" /><path
     id="path20"
     d="M 265.792,36 C 6.1669996,36 0,327.083 0,384.708 0,442.333 119,489 265.792,489 412.625,489 531.583,442.292 531.583,384.708 531.583,327.083 525.458,36 265.792,36 Z"
     style="clip-rule:evenodd;fill:#fcc21b;fill-rule:nonzero;stroke-linejoin:round;stroke-miterlimit:2;fill-opacity:1" /><path
     d="m 217.944,182.0105 c 0,0 -50.654,1.27425 -87.636,34.54725"
     style="fill:none;stroke:#333333;stroke-width:20.83px"
     id="path4"
     sodipodi:nodetypes="cc" /><path
     d="m 383.23549,258.58027 c -28.52129,-6.89419 -93.68355,18.62694 -131.29682,18.62694 -37.61328,0 -36.83362,-1.91606 -79.08086,-1.91606 -42.24876,0 -76.474913,29.05989 -76.474913,64.92638 0,35.86648 34.226153,64.92537 76.474913,64.92537 42.24724,0 62.53811,-15.22772 93.80945,-15.22772 31.27133,0 51.56221,15.22772 93.80945,15.22772 42.24724,0 76.47339,-29.10269 76.47339,-64.96917 0,-35.82269 -7.63429,-70.45356 -53.71461,-81.59346 z"
     style="fill:#ed6c30;fill-rule:nonzero;stroke-width:1"
     id="path6" /><path
     d="m 315.389,182.0105 c 0,0 50.654,1.27425 87.636,34.54725"
     style="fill:none;stroke:#333333;stroke-width:20.83px"
     id="path10"
     sodipodi:nodetypes="cc" /><path
     d="m 109.59203,326.07672 c 27.87492,-2.43432 12.30683,33.46801 13.5126,45.79557 0.25945,2.73753 1.73772,5.85928 3.45107,3.67501 0.70518,-0.90002 53.89805,-56.09221 53.89805,-56.09221 5.77383,-6.08058 14.13596,-7.54518 20.20404,-1.7983 6.06723,5.74689 5.08519,14.19556 -0.68864,20.27702 L 160.34286,380.93 214.94349,324.68356 c 5.77383,-6.08057 14.13595,-7.54517 20.20317,-1.79829 6.06809,5.74688 5.08519,14.19643 -0.68864,20.27701 l -53.5028,57.94714 44.55824,-45.90883 c 5.77383,-6.08058 14.13595,-7.54518 20.20405,-1.7983 6.06808,5.74689 5.08518,14.19644 -0.68865,20.27702 l -43.54312,47.42919 27.29944,-27.68279 c 5.77383,-6.08144 14.13595,-7.54517 20.20404,-1.79916 6.06809,5.74688 3.85328,13.00454 -1.91184,19.11649 0,0 -58.45303,62.1841 -65.00692,68.00069 -16.38645,14.54146 -58.50353,23.36653 -84.753023,-0.95055 -32.322815,-29.96116 -13.381144,-68.66199 -9.118681,-83.16599 3.348332,-11.35 8.312501,-23.23497 10.510771,-35.22274 1.921423,-10.49441 2.658813,-32.61067 10.882503,-33.32773 z"
     style="fill:none;stroke:#212121;stroke-width:44.031;stroke-linecap:butt;stroke-miterlimit:2;stroke-dasharray:none;stroke-opacity:1"
     id="path2882" /><path
     id="path1303"
     style="fill:#fac036;stroke:none;stroke-width:12.5;stroke-linecap:butt;stroke-miterlimit:2;stroke-dasharray:none;stroke-opacity:1"
     d="m 191.33841,317.54026 c -3.65066,0.24098 -6.82337,2.4897 -9.17551,5.16203 -17.30443,17.98457 -34.64687,35.93308 -51.88938,53.97692 -1.14761,1.15788 -2.18417,2.68063 -3.90541,2.97801 -1.94128,0.4414 -4.02269,-0.55144 -5.01678,-2.25479 -1.93168,-2.89586 -1.94966,-6.55643 -1.6459,-9.89884 0.53522,-5.80263 1.84703,-11.48367 2.57063,-17.26182 0.28382,-2.23388 0.55114,-4.66334 0.5843,-6.99119 0.0623,-3.5835 -0.14527,-7.43493 -2.20501,-10.50284 -1.60272,-2.21312 -4.39873,-3.10733 -7.02334,-3.25165 -1.35627,-0.0424 -2.74981,-0.14134 -4.0808,0.16023 -1.37404,0.81787 -1.96138,2.42835 -2.56503,3.82677 -1.23778,3.2237 -1.91634,6.62606 -2.47664,10.02333 -0.17865,1.13893 -0.38846,2.48621 -0.56792,3.70629 -0.91259,6.4866 -1.53037,13.11057 -3.28906,19.4742 -2.652696,10.36632 -6.622892,20.32897 -9.632493,30.58823 -1.63893,4.91756 -3.380841,9.80222 -4.859456,14.77213 -0.286202,0.99324 -0.631653,2.19012 -0.911552,3.27137 -2.522997,9.54787 -3.823985,19.59074 -2.302332,29.41729 1.230698,8.33767 4.69786,16.29782 9.83723,22.96376 5.199787,6.73773 11.823433,12.47612 19.550503,16.11522 9.12141,4.3926 19.38607,6.04724 29.4528,5.62204 0.33471,-0.0223 1.11898,-0.0611 1.47777,-0.0809 10.72154,-0.73677 21.41548,-3.57394 30.72095,-9.04013 3.26241,-1.92921 6.21164,-4.3589 8.79653,-7.12838 10.27665,-10.3857 20.27619,-21.00939 30.35665,-31.59558 10.74102,-11.31926 21.46173,-22.64069 32.11769,-34.03068 2.06964,-2.41076 3.98601,-5.35703 3.84439,-8.6631 -0.24704,-2.8208 -2.40916,-5.09202 -4.7921,-6.39916 -2.6011,-1.38115 -5.80248,-1.26424 -8.42735,-0.01 -2.49733,1.1111 -4.41772,3.11087 -6.27,5.05902 l -26.13767,26.50621 c -1.15384,1.17011 -3.73684,1.27509 -4.92604,0.14124 -1.1892,-1.13385 -1.20933,-3.71909 -0.0986,-4.92981 l 44.77829,-48.8098 c 2.33021,-2.75015 3.80528,-6.59143 2.7953,-10.18115 -1.19787,-4.11262 -5.37296,-7.34772 -9.71942,-6.97487 -3.20621,0.23144 -6.08011,2.02229 -8.26573,4.29732 L 182.964,404.04232 c -1.14533,1.18016 -3.73663,1.28077 -4.92945,0.14975 -1.19281,-1.13102 -1.22829,-3.72229 -0.11392,-4.92982 l 54.69304,-59.26575 c 2.34842,-2.75687 3.84727,-6.60975 2.84775,-10.22072 -1.16695,-3.9925 -5.11691,-7.17462 -9.33994,-7.01495 -3.37102,0.11536 -6.42999,1.97439 -8.70106,4.37413 l -55.0703,56.73037 c -1.1447,1.1792 -3.7334,1.28228 -4.92603,0.15145 -1.19263,-1.13084 -1.2325,-3.72237 -0.11903,-4.93152 l 40.87795,-44.39046 c 2.32942,-2.75932 3.80097,-6.62033 2.76719,-10.212 -1.21073,-4.06151 -5.31101,-7.24247 -9.61178,-6.94272 z"
     sodipodi:nodetypes="sccccccccccccccccccccccccccccccszsccccszsccccszsccss" /></svg>
