<?xml version="1.0" encoding="UTF-8" standalone="no"?>
<svg
   width="128"
   height="128"
   version="1.1"
   id="svg4"
   sodipodi:docname="emoji_u1f614.svg"
   xml:space="preserve"
   inkscape:version="1.3 (0e150ed6c4, 2023-07-21)"
   xmlns:inkscape="http://www.inkscape.org/namespaces/inkscape"
   xmlns:sodipodi="http://sodipodi.sourceforge.net/DTD/sodipodi-0.dtd"
   xmlns="http://www.w3.org/2000/svg"
   xmlns:svg="http://www.w3.org/2000/svg"><defs
     id="defs4" /><sodipodi:namedview
     id="namedview4"
     pagecolor="#ffffff"
     bordercolor="#000000"
     borderopacity="0.25"
     inkscape:showpageshadow="2"
     inkscape:pageopacity="0.0"
     inkscape:pagecheckerboard="0"
     inkscape:deskcolor="#d1d1d1"
     inkscape:zoom="8.515625"
     inkscape:cx="64"
     inkscape:cy="64"
     inkscape:current-layer="svg4" /><g
     id="g4"
     transform="translate(9.6148456e-4,-0.00502666)">&#10;	<path
   fill="#fcc21b"
   d="M 123.93,76.16 C 134.45,47.86 121.28,17.03 90.44,10.56 21.13,-4.02 -3.53,55.18 1.02,95.4 c 0,13.42 27.72,24.31 61.92,24.31 34.2,0 61.92,-10.88 61.92,-24.31 0,-6.36 -5.21,-7.69 -0.93,-19.24 z"
   id="path1" />&#10;	<path
   fill="#2f2f2f"
   d="m 62.28,69.69 c -8.64,-0.77 -12.02,-7.18 -12.16,-7.45 -0.68,-1.32 -0.16,-2.93 1.16,-3.6 1.31,-0.69 2.91,-0.17 3.6,1.13 0.12,0.21 2.31,4.09 7.86,4.58 5.67,0.46 8.56,-3.08 8.59,-3.11 0.9,-1.17 2.58,-1.39 3.75,-0.48 1.17,0.9 1.4,2.59 0.49,3.76 -0.17,0.23 -4.13,5.25 -11.73,5.25 -0.5,-0.01 -1.02,-0.03 -1.56,-0.08 z"
   id="path2" />&#10;	<path
   fill="#2f2f2f"
   d="m 100.63,90.19 c -0.98,1.32 -2.84,1.61 -4.17,0.63 -18.09,-13.37 -34.79,1.02 -35.49,1.65 -0.57,0.5 -1.28,0.74 -1.98,0.74 -0.83,0 -1.66,-0.34 -2.23,-1 -1.1,-1.25 -0.99,-3.14 0.25,-4.23 0.21,-0.18 21.07,-18.18 43,-1.97 1.33,0.98 1.61,2.85 0.62,4.18 z"
   id="path3" />&#10;	<path
   fill="#2f2f2f"
   d="m 115.3,68.23 c -0.16,0.23 -3.84,5.13 -10.92,5.13 -0.47,0 -0.96,-0.02 -1.46,-0.07 -8.03,-0.73 -11.18,-6.99 -11.32,-7.25 -0.64,-1.32 -0.16,-2.94 1.11,-3.62 1.24,-0.69 2.77,-0.17 3.43,1.12 0.1,0.2 2.12,3.93 7.23,4.4 5.16,0.47 7.83,-2.94 7.88,-2.98 0.85,-1.17 2.47,-1.39 3.58,-0.5 1.13,0.92 1.33,2.6 0.47,3.77 z"
   id="path4" />&#10;</g></svg>
