<?xml version="1.0" encoding="UTF-8" standalone="no"?>
<!-- Generator: Adobe Illustrator 24.1.2, SVG Export Plug-In . SVG Version: 6.00 Build 0)  -->

<svg
   version="1.1"
   id="Layer_3"
   x="0px"
   y="0px"
   viewBox="0 0 128 128"
   style="enable-background:new 0 0 128 128;"
   xml:space="preserve"
   sodipodi:docname="emoji_u1f98a.svg"
   inkscape:version="1.2.2 (732a01da63, 2022-12-09)"
   xmlns:inkscape="http://www.inkscape.org/namespaces/inkscape"
   xmlns:sodipodi="http://sodipodi.sourceforge.net/DTD/sodipodi-0.dtd"
   xmlns="http://www.w3.org/2000/svg"
   xmlns:svg="http://www.w3.org/2000/svg"><defs
   id="defs48658" /><sodipodi:namedview
   id="namedview48656"
   pagecolor="#ffffff"
   bordercolor="#000000"
   borderopacity="0.25"
   inkscape:showpageshadow="2"
   inkscape:pageopacity="0.0"
   inkscape:pagecheckerboard="0"
   inkscape:deskcolor="#d1d1d1"
   showgrid="false"
   inkscape:zoom="2.9996795"
   inkscape:cx="34.837055"
   inkscape:cy="76.674858"
   inkscape:window-width="1366"
   inkscape:window-height="697"
   inkscape:window-x="-8"
   inkscape:window-y="-8"
   inkscape:window-maximized="1"
   inkscape:current-layer="Layer_3"
   showguides="false" />

















<path
   id="path44048"
   style="fill:#ed6c30;fill-opacity:1;stroke-width:0.999998"
   d="m 42.915966,12.760853 c 0,0 -18.858985,9.390632 -19.708984,16.140625 -0.85,6.749994 -0.05047,11.499222 0.519531,14.449219 0.559999,2.959997 2.25,7.179688 2.25,7.179688 0,0 -1.691409,2.530552 -3.941407,8.310546 -2.249997,5.779995 -4.789142,12.809535 -6.61914,15.769532 -1.415073,2.28886 -3.629506,5.647095 -6.9056475,8.161592 -2.7602702,2.118556 -6.9805604,2.905897 -6.8228684,3.799345 0.1892296,1.134919 5.4335938,4.757813 5.4335938,4.757813 0,0 -5.4233046,0.676509 -5.6230469,1.582031 -0.3784597,1.702378 15.955775,10.783816 22.700343,13.504416 6.744568,2.72061 14.746846,5.69676 20.789892,9.42527 6.043046,3.72851 10.934615,6.95899 19.568359,6.95899 8.167521,0 13.757222,-2.9083 18.984375,-6.17188 5.227153,-3.26358 14.13219,-7.14125 15.931119,-8.20643 6.138935,-3.63499 19.043345,-10.065801 21.408725,-11.768179 2.36535,-1.702379 5.77022,-3.972143 5.62304,-4.986328 -0.0946,-0.67612 -4.43554,-1.472656 -4.43554,-1.472656 0,0 4.63615,-3.621825 4.34179,-4.527344 -0.30487,-0.905522 -3.57288,-2.217858 -6.96599,-5.093255 -3.02454,-2.563063 -6.35511,-10.173322 -8.7176,-15.82276 -2.53,-6.049994 -6.62109,-14.361328 -6.62109,-14.361328 0,0 2.23023,-6.069148 3.24023,-13.369141 1.17,-8.489992 0.14062,-10.650391 0.14062,-10.650391 L 86.275341,16.700307 c 0,0 -3.138987,2.29977 -5.958985,7.509765 -2.819997,5.209995 -3.800781,7.320313 -3.800781,7.320313 0,0 -7.179925,-0.560547 -10.419922,-0.560547 -3.239996,0 -8.589843,0.701172 -8.589843,0.701172 0,0 -5.070237,-9.291254 -7.740235,-12.53125 -2.669997,-3.239997 -6.849609,-6.378907 -6.849609,-6.378907 z"
   sodipodi:nodetypes="csccsssccczzszsscccssccccscscsc" /><path
   style="fill:#616161"
   d="m 31.656044,5.2506186 c -2.02,0.56 -4.41,5.1600004 -6.57,12.7600004 -1.14,4.01 -1.97,11.36 -1.97,11.36 0,0 6.66,-5.16 12.58,-7.32 5.92,-2.16 13.42,-3.66 13.42,-3.66 0,0 -3.45,-3.94 -7.51,-7.51 -3.51,-3.0900004 -8.21,-6.1100004 -9.95,-5.6300004 z"
   id="path48623" /><path
   style="fill:#616161"
   d="m 100.35604,6.0006186 c -1.459996,-0.39 -6.489996,2.18 -10.039996,5.5400004 -3.55,3.36 -6.95,7.98 -6.95,7.98 0,0 7.13,0.28 13.61,3.57 6.479996,3.28 10.889996,6.19 10.889996,6.19 0,0 -0.14,-6.74 -1.6,-12.58 -1.5,-6.01 -3.47,-10.0400004 -5.91,-10.7000004 z"
   id="path48625" /><path
   style="fill:#f79329;fill-opacity:1"
   d="m 33.726044,14.070619 c -0.66,0.38 -4.1,7.11 -3.85,17.18 0.19,7.51 1.69,13.51 2.06,13.51 0.19,0 3.84,-4.33 7.7,-7.04 3.86,-2.71 8.82,-4.19 8.96,-4.52 0.28,-0.66 -2.86,-7.21 -7.08,-12.74 -4.22,-5.53 -7.14,-6.76 -7.79,-6.39 z"
   id="path48627" /><path
   style="fill:#f79329;fill-opacity:1"
   d="m 86.096044,33.970619 c -0.21,-0.96 2.44,-9.1 5.16,-13.42 2.72,-4.32 6.57,-8.63 7.6,-8.45 1.03,0.19 5.069996,9.67 3.749996,18.3 -1.31,8.63 -2.999996,13.61 -3.469996,13.7 -0.26,0.05 -3.04,-3.25 -6.48,-5.91 -2.86,-2.22 -6.48,-3.84 -6.56,-4.22 z"
   id="path48629" /><path
   style="fill:#ffffff;fill-opacity:1;stroke-width:0.999996"
   d="m 12.967966,88.515799 c -0.129143,-0.637104 3.314666,-1.213942 5.656456,-2.34179 2.34179,-1.127847 7.188951,-3.314666 14.627578,-2.427885 7.430018,0.886781 11.166551,3.125257 16.487235,6.706818 5.329295,3.59878 7.679694,12.036118 7.679694,12.036118 l 12.199693,2.58285 c 0,0 4.244495,-9.496302 7.352532,-12.440759 2.608686,-2.479542 9.642665,-8.058513 18.665445,-8.885027 8.807541,-0.809295 12.363271,1.127847 15.350771,2.264304 2.06629,0.783467 3.87429,1.213943 4.12396,1.859657 0.24107,0.645714 -3.55573,3.228571 -3.55573,3.228571 0,0 3.55573,0.568229 3.63322,1.050362 0.12053,0.7232 -2.66895,2.34179 -4.60609,3.555733 -1.93715,1.213942 -15.497141,8.153219 -20.525102,10.744689 -2.668952,1.37752 -13.33615,5.32929 -14.94613,5.2518 -1.618591,-0.0775 -20.525102,-0.97287 -21.81653,-1.05036 -1.291428,-0.0775 -13.981864,-4.52861 -20.525101,-7.03398 -7.257827,-2.77226 -20.266816,-9.367159 -19.956873,-10.581101 0.163581,-0.645715 4.606095,-1.127848 4.606095,-1.127848 0,0 -4.296152,-2.582856 -4.451123,-3.392152 z"
   id="path48631" /><path
   d="m 64.558153,117.37744 c -8.826053,0 -15.96719,-2.98934 -15.96719,-12.17924 0,-9.196077 7.141137,-16.647851 15.96719,-16.647851 8.819469,0 15.980354,7.451774 15.980354,16.647851 0,9.1899 -7.160885,12.17924 -15.980354,12.17924 z"
   style="fill:#e0e0e0;stroke-width:0.999996"
   id="path72107" /><path
   d="m 73.391153,106.22759 c -0.111924,0.15497 -2.711999,3.73653 -8.83337,3.73653 -6.078323,0 -8.687008,-3.55573 -8.807541,-3.73653 -0.602667,-0.86096 -1.782171,-1.09341 -2.660342,-0.49936 -0.878172,0.59406 -1.102019,1.79078 -0.507962,2.66035 0.146362,0.22384 3.753751,5.39817 11.975845,5.39817 8.230704,0 11.838093,-5.18294 11.993065,-5.39817 0.585447,-0.86957 0.370209,-2.04046 -0.499353,-2.64313 -0.860952,-0.59406 -2.057675,-0.37021 -2.660342,0.48214 z"
   style="fill:#2f2f2f;stroke-width:0.999996"
   id="path72113" /><path
   d="m 64.55845,105.87652 c 3.998783,0 7.243081,-2.60927 7.243081,-5.82841 0,-3.225434 -3.244298,-5.828416 -7.243081,-5.828416 -3.998784,0 -7.230506,2.60927 -7.230506,5.828416 0,3.21914 3.231722,5.82841 7.230506,5.82841 z"
   style="fill:#2f2f2f;stroke-width:0.999996"
   id="path72111" /><path
   d="m 51.975561,68.95112 c 0,4.59 -3.31,8.3 -7.38,8.3 -4.07,0 -7.38,-3.72 -7.38,-8.3 0,-4.6 3.31,-8.31 7.38,-8.31 4.07,-0.01 7.38,3.71 7.38,8.31 z"
   style="fill:#2f2f2f"
   id="path35183" /><path
   d="m 77.357915,68.95112 c 0,4.59 3.3,8.3 7.38,8.3 4.07,0 7.38,-3.72 7.38,-8.3 0,-4.6 -3.31,-8.31 -7.38,-8.31 -4.07,-0.01 -7.38,3.71 -7.38,8.31 z"
   style="fill:#2f2f2f"
   id="path35185" /></svg>
