<?xml version="1.0" encoding="UTF-8" standalone="no"?>
<svg
   width="128"
   height="128"
   version="1.1"
   id="svg10652"
   sodipodi:docname="emoji_u1f3a4.svg"
   inkscape:version="1.2.2 (732a01da63, 2022-12-09)"
   xmlns:inkscape="http://www.inkscape.org/namespaces/inkscape"
   xmlns:sodipodi="http://sodipodi.sourceforge.net/DTD/sodipodi-0.dtd"
   xmlns="http://www.w3.org/2000/svg"
   xmlns:svg="http://www.w3.org/2000/svg">
  <defs
     id="defs10656" />
  <sodipodi:namedview
     id="namedview10654"
     pagecolor="#ffffff"
     bordercolor="#000000"
     borderopacity="0.25"
     inkscape:showpageshadow="2"
     inkscape:pageopacity="0.0"
     inkscape:pagecheckerboard="0"
     inkscape:deskcolor="#d1d1d1"
     showgrid="false"
     inkscape:zoom="2.9996795"
     inkscape:cx="44.838123"
     inkscape:cy="72.007692"
     inkscape:window-width="1366"
     inkscape:window-height="697"
     inkscape:window-x="-8"
     inkscape:window-y="-8"
     inkscape:window-maximized="1"
     inkscape:current-layer="svg10652" />
  <path
     d="m 77.869187,65.773309 c -3.04,-1.69 -6.18,-4.04 -9.19,-6.93 -2.3,-2.21 -4.29,-4.53 -5.9,-6.82 -1.62,-2.29 -2.87,-4.56 -3.69,-6.82 -0.15,-0.41 -0.24,-0.84 -0.35,-1.26 L 6.1991869,107.81331 c -1.31,1.37 1.18,5.93 5.6000001,10.17 4.4,4.24 9.05,6.57 10.37,5.2 v -0.01 l 61.78,-54.970001 c -0.53,-0.12 -1.04,-0.24 -1.56,-0.41 -1.49,-0.49 -2.99,-1.17 -4.52,-2.02 z m -8.99,-49.56 a 31.32,31.32 0 0 0 -2.64,3.63 c -2.23,3.56 -3.67,8.27 -3.5,13.48 0.06,1.61 0.27,3.28 0.66,4.96 v 0.02 c 1.21,5.28 4.14,10.82 9.58,16.06 h 0.01 c 5.44,5.24 11.09,7.96 16.41,8.95 0.01,0 0.02,0 0.03,0.01 0.18,0.03 0.34,0.08 0.52,0.1 1.52,0.26 3.02,0.37 4.49,0.36 5.2,-0.04 9.840003,-1.67 13.310003,-4.02 1.22,-0.83 2.4,-1.76 3.52,-2.78 -2.96,-1.71 -11.840003,-7.25 -23.260003,-18.23 -11.45,-11 -17.32,-19.66 -19.13,-22.54 z m 43.820003,-3.13 C 99.999187,0.86330877 85.179187,3.0533088 74.919187,10.563309 c 0.15,0.18 0.3,0.37 0.42,0.58 l 0.04,0.06 0.16,0.28 c 0.16,0.25 0.4,0.64 0.74,1.16 a 86.48,86.48 0 0 0 3.21,4.5 c 2.95,3.88 7.56,9.38 14.19,15.75 12.820003,12.34 22.120003,17.31 22.430003,17.47 0.21,0.11 0.4,0.24 0.58,0.38 7.1,-10.55 8.72,-25.45 -3.99,-37.66 z"
     fill="#78a3ad"
     id="path10650" />
</svg>
