<?xml version="1.0" encoding="UTF-8" standalone="no"?>
<svg
   width="128"
   height="128"
   version="1.1"
   id="svg8"
   sodipodi:docname="emoji_u1f925.svg"
   inkscape:version="1.3 (0e150ed6c4, 2023-07-21)"
   xmlns:inkscape="http://www.inkscape.org/namespaces/inkscape"
   xmlns:sodipodi="http://sodipodi.sourceforge.net/DTD/sodipodi-0.dtd"
   xmlns:xlink="http://www.w3.org/1999/xlink"
   xmlns="http://www.w3.org/2000/svg"
   xmlns:svg="http://www.w3.org/2000/svg">
  <sodipodi:namedview
     id="namedview8"
     pagecolor="#ffffff"
     bordercolor="#000000"
     borderopacity="0.25"
     inkscape:showpageshadow="2"
     inkscape:pageopacity="0.0"
     inkscape:pagecheckerboard="0"
     inkscape:deskcolor="#d1d1d1"
     inkscape:zoom="4.7833594"
     inkscape:cx="135.88776"
     inkscape:cy="35.330818"
     inkscape:current-layer="svg8" />
  <path
     fill="#fcc21b"
     d="m 125.74255,74.990637 c 7.8,-29.669972 -8.74,-59.199988 -38.23,-64.629998 C 24.092551,-1.3093325 -3.7874488,53.68064 0.82255109,94.540663 c 0,13.629987 28.18999991,24.689987 62.93999891,24.689987 34.74,0 62.93,-11.06 62.93,-24.689987 0,-6.470026 -4.13,-7.45002 -0.95,-19.550026 z"
     id="path1-25"
     style="stroke-width:0.999999" />
  <g
     fill="#2f2f2f"
     id="g6"
     transform="translate(-8.9756021,-10.914435)">
    <path
       d="m 89.646517,67.070852 c 4.48,-0.01 8.11,-4.36 8.1,-9.71 -0.01,-5.37 -3.66,-9.7 -8.14,-9.69 -4.49,0.01 -8.13,4.36 -8.12,9.73 0.01,5.35 3.67,9.68 8.16,9.67 z"
       id="path9" />
    <path
       d="m 48.512778,57.375835 c -4.49,0.04 -8.17,-4.27 -8.22,-9.62 -0.05,-5.37 3.55,-9.75 8.04,-9.79 4.48,-0.04 8.17,4.27 8.22,9.64 0.05,5.36 -3.56,9.73 -8.04,9.77 z"
       id="path6" />
  </g>
  <path
     d="m 26.378343,88.95478 c 7.911223,-1.103698 16.441686,1.888425 21.930084,7.692136"
     fill="none"
     stroke="#2f2f2f"
     stroke-width="6"
     stroke-linecap="round"
     stroke-linejoin="round"
     stroke-miterlimit="10"
     id="path7" />
  <defs
     id="defs7">
    <path
       id="a"
       d="M111.04 85.04c-15.57-.4-26.98-.73-42.55-1.18-5.07-.15-8.58-3.88-8.36-9.05.21-5 3.59-8.12 7.86-8.46 15.54-1.13 26.88-2.38 42.45-3.04 4.85-.2 11.26 1.97 12 10.39.68 7.99-6.24 11.5-11.4 11.34z" />
  </defs>
  <clipPath
     id="b">
    <use
       xlink:href="#a"
       overflow="visible"
       id="use8" />
  </clipPath>
  <g
     id="g9"
     transform="translate(-10.326799,-11.150688)">
    <use
       xlink:href="#a"
       overflow="visible"
       fill="#f57c00"
       id="use7"
       transform="matrix(-1,0,0,1,133.33574,2.0095033)" />
    <path
       d="m 112.26,78.71 c -16.29,0.3 -35.85,0.47 -52.14,0.71 -5.31,0.08 -9.15,-3.66 -9.15,-9.07 0,-5.23 3.38,-8.65 7.83,-9.2 16.18,-1.89 35.61,-3.72 51.85,-5.11 5.06,-0.44 11.86,1.54 13.01,10.31 1.08,8.32 -6,12.29 -11.4,12.36 z"
       clip-path="url(#b)"
       fill="#ffab00"
       id="path8"
       transform="matrix(-1,0,0,1,133.33574,2.0095033)" />
  </g>
</svg>
