<?xml version="1.0" encoding="UTF-8" standalone="no"?>
<svg
   width="128"
   height="128"
   version="1.1"
   id="svg6"
   sodipodi:docname="emoji_u1f911.svg"
   xml:space="preserve"
   inkscape:version="1.3 (0e150ed6c4, 2023-07-21)"
   xmlns:inkscape="http://www.inkscape.org/namespaces/inkscape"
   xmlns:sodipodi="http://sodipodi.sourceforge.net/DTD/sodipodi-0.dtd"
   xmlns="http://www.w3.org/2000/svg"
   xmlns:svg="http://www.w3.org/2000/svg"><defs
     id="defs6">&#10;	&#10;	&#10;	&#10;</defs><sodipodi:namedview
     id="namedview6"
     pagecolor="#ffffff"
     bordercolor="#000000"
     borderopacity="0.25"
     inkscape:showpageshadow="2"
     inkscape:pageopacity="0.0"
     inkscape:pagecheckerboard="0"
     inkscape:deskcolor="#d1d1d1"
     inkscape:zoom="5.115743"
     inkscape:cx="77.212636"
     inkscape:cy="57.665133"
     inkscape:current-layer="g3" /><style
     id="style1">.st1{fill:#2f2f2f}.st3{fill:#7cb342}</style><g
     id="g3"
     transform="translate(0.00352315,0.0027288)">&#10;		<g
   id="g2">&#10;			<g
   id="g1">&#10;				<path
   fill="#fcc21b"
   d="M 15.95,32.79 C 35.2,3.96 67.36,-9.2 101.44,8.14 c 22.82,11.61 30.74,39.16 20.83,71.54 -4.09,13.36 6.13,15.62 5.47,22.71 -1.3,13.88 -28.45,25.24 -63.56,25.24 -35.1,0 -62.63,-11.34 -63.57,-25.24 -1.88,-28.01 3.05,-51.17 15.34,-69.6"
   id="path1" />&#10;			</g>&#10;		</g>&#10;		<path
   fill="#d7598b"
   d="M 72.62,63.69 C 72.73,61.79 66.99,61.72 65.78,61.34 64.05,60.83 62.46,60.13 60.65,59.8 55.22,58.79 50.32,55.34 44.7,55.19 38.6,55.03 34.02,58.82 31,63.85 c -1.6,2.65 -2.53,6.46 -1.42,9.54 0.69,1.91 1.7,3.45 3.61,4.74 2.91,1.97 8.45,2.49 12.38,0.91 6.24,-2.52 9.05,-6.91 13.47,-10.55 5.72,-4.7 11.03,-4.67 13.58,-4.8 z"
   id="path2"
   style="fill:#7cb342;fill-opacity:1" />&#10;		<path
   fill="#2f2f2f"
   d="m 87.54,65.92 c -40.13,0 -55.3,-15.64 -55.93,-16.31 -1.11,-1.18 -1.05,-3.03 0.13,-4.14 1.17,-1.11 3.02,-1.05 4.13,0.12 0.23,0.23 14.46,14.47 51.68,14.47 0.23,0 0.42,-0.03 0.68,0 1.61,0 2.92,1.3 2.93,2.92 0.01,1.62 -1.3,2.94 -2.92,2.95 -0.23,-0.01 -0.47,-0.01 -0.7,-0.01 z"
   id="path3" />&#10;	<path
   class="st1"
   d="M 45.693613,73.040109 C 45.395561,71.644064 44.801806,70.202661 43.80043,68.838423 l 3.525467,-3.859429 c 0.316906,0.51424 0.460632,1.095042 0.431177,1.742406 0.0212,0.468882 -0.07482,0.943065 -0.232091,1.361288 -0.151977,0.535445 -0.06421,1.177507 0.364615,1.569225 l 0.122521,0.111921 c 0.857651,0.783436 2.248395,0.368163 2.608307,-0.763986 0.207937,-0.596704 0.293352,-1.305328 0.200285,-2.064612 -0.124873,-1.462606 -0.657367,-2.848049 -1.648141,-3.977847 l 0.391719,-0.428825 c 0.503638,-0.551346 0.466531,-1.371891 -0.08482,-1.875529 -0.551347,-0.503638 -1.371891,-0.466531 -1.87553,0.08482 l -0.391718,0.428825 c -1.275874,-0.940715 -2.591805,-1.468507 -4.003753,-1.522115 -1.529168,-0.04831 -2.746732,0.300403 -3.642088,1.280575 -0.839397,0.918911 -1.138049,2.10702 -0.951916,3.625586 0.180832,1.401346 0.713326,2.786788 1.658742,4.212288 l -3.805266,4.165732 c -0.500688,-0.682119 -0.772236,-1.492061 -0.753382,-2.373866 -0.02651,-0.586103 0.125471,-1.121547 0.338708,-1.601031 0.325157,-0.602006 0.232091,-1.361288 -0.319256,-1.864927 -0.79639,-0.727477 -2.019255,-0.495986 -2.445729,0.462982 -0.370515,0.897708 -0.562548,1.846075 -0.514839,2.901059 0.07421,1.641088 0.673269,3.19971 1.786565,4.441428 l -0.335759,0.367565 c -0.503638,0.551346 -0.466531,1.37189 0.08481,1.875528 0.551348,0.503639 1.371891,0.466532 1.87553,-0.08482 l 0.335758,-0.367565 c 1.337136,0.996675 2.770286,1.519166 4.355414,1.506214 1.646389,0.043 3.031832,-0.489487 4.039108,-1.592181 0.844698,-0.801691 1.082089,-2.045759 0.778735,-3.559024 z m -3.101343,1.549772 c -0.447678,0.490087 -1.08444,0.695073 -1.904984,0.73218 -0.764584,-0.02415 -1.478509,-0.22679 -2.203036,-0.663866 l 3.469507,-3.798167 c 0.444728,0.74338 0.772236,1.492061 0.860001,2.134124 0.210287,0.753982 0.05831,1.289426 -0.221488,1.595729 z M 42.006213,62.929087 c 0.391719,-0.428825 0.855301,-0.56725 1.563924,-0.481836 0.647364,0.02946 1.244069,0.237392 1.907335,0.618508 l -3.245667,3.553124 c -0.383469,-0.68742 -0.588455,-1.324181 -0.67622,-1.966244 -0.0318,-0.703323 0.05891,-1.294727 0.450628,-1.723552 z"
   id="path6-5"
   style="fill:#2f2f2f;stroke-width:0.829722" /></g><path
     style="fill:#2f2f2f"
     d="m 93.618931,41.671098 c -0.734856,-1.77482 -2.100658,-3.440528 -3.873979,-4.988215 l 3.425709,-6.218884 c 0.555971,0.648765 0.888513,1.288621 1.124556,2.103658 0.109113,0.630947 0.218225,1.261894 0.191498,1.932182 -0.07497,0.757878 0.296906,1.533574 0.997626,1.919569 l 0.175179,0.0965 c 1.401439,0.771991 3.097578,-0.234544 3.15994,-1.798548 0.03564,-0.893717 -0.01632,-1.835683 -0.427541,-2.747218 -0.550767,-1.901752 -1.74139,-3.47096 -3.43603,-4.746967 l 0.385996,-0.70072 c 0.482494,-0.875899 0.16777,-1.962614 -0.708129,-2.445108 -0.8759,-0.482495 -1.962614,-0.16777 -2.445108,0.708129 l -0.385995,0.700719 c -1.935888,-0.838058 -3.850252,-1.093418 -5.743094,-0.76608 -2.028681,0.366678 -3.501391,1.382121 -4.321631,2.87115 -0.771991,1.401438 -0.795013,3.101282 -0.06907,5.099532 0.599017,1.814161 1.82898,3.519209 3.514711,5.018646 l -3.715204,6.744423 c -0.866991,-0.705923 -1.453394,-1.713957 -1.719869,-2.888261 -0.148453,-0.766787 -0.161066,-1.572914 0.0015,-2.282542 0.171454,-0.933062 -0.191498,-1.932183 -0.979807,-2.366427 -1.226259,-0.675492 -2.777651,0.06827 -3.054533,1.399939 -0.228637,1.244076 -0.194497,2.632902 0.286497,4.039545 0.629448,2.173428 1.947002,3.926726 3.816822,5.299233 l -0.337745,0.613128 c -0.482495,0.875899 -0.167771,1.962614 0.708128,2.445109 0.875899,0.482493 1.962614,0.167769 2.445108,-0.708129 l 0.337746,-0.61313 c 2.071726,0.798717 4.20952,1.062986 6.238202,0.696308 2.212769,-0.493608 3.781978,-1.684232 4.746966,-3.436029 0.636152,-1.362098 0.52333,-3.022604 -0.338452,-4.981511 z m -3.524413,3.081965 c -0.434245,0.78831 -1.1706,1.296031 -2.344904,1.562506 -1.038466,0.227134 -2.019772,0.143249 -3.07976,-0.212316 l 3.377459,-6.131293 c 0.818741,0.793513 1.501643,1.626367 1.825276,2.489652 0.411223,0.911535 0.511426,1.765911 0.221929,2.291451 z M 85.552543,29.578398 c 0.337747,-0.613129 1.025852,-1.033261 1.928478,-1.221055 0.854377,-0.100203 1.748093,-0.06457 2.720491,0.242747 L 87.0653,34.293434 c -0.73115,-0.745264 -1.190623,-1.569209 -1.514256,-2.432494 -0.323633,-0.863285 -0.336246,-1.669413 0.0015,-2.282542 z"
     id="path6" /><path
     style="fill:#2f2f2f"
     d="m 58.179992,28.297554 c -1.157589,-1.532967 -2.898406,-2.80165 -5.003961,-3.853617 l 1.751606,-6.880543 c 0.701262,0.488092 1.184033,1.023751 1.617465,1.753228 0.264283,0.583227 0.528567,1.166455 0.671271,1.821921 0.118056,0.752371 0.673044,1.409614 1.448317,1.606979 l 0.193817,0.04934 c 1.550545,0.394729 2.939035,-1.00602 2.606059,-2.535441 -0.190269,-0.873955 -0.477453,-1.772579 -1.104703,-2.551398 -1.011339,-1.702114 -2.558338,-2.921456 -4.519417,-3.730264 l 0.197365,-0.775273 c 0.246704,-0.96909 -0.331247,-1.94172 -1.300294,-2.188432 -0.96909,-0.246705 -1.94172,0.331247 -2.188432,1.300294 l -0.197365,0.775272 c -2.084431,-0.324262 -4.001488,-0.08997 -5.75117,0.702883 -1.871262,0.865089 -3.041262,2.218269 -3.460661,3.865723 -0.394729,1.550546 0.01049,3.201546 1.215644,4.953001 1.03601,1.605205 2.655247,2.946126 4.663894,3.973423 l -1.899631,7.461997 C 46.103138,33.581453 45.282071,32.753293 44.728833,31.683747 44.39231,30.97894 44.177368,30.201895 44.156244,29.47419 c -0.0687,-0.946192 -0.671272,-1.82192 -1.543453,-2.043955 -1.356727,-0.345388 -2.671205,0.764633 -2.604285,2.123134 0.09159,1.261591 0.473908,2.597193 1.293201,3.837659 1.155817,1.945274 2.871963,3.310865 5.026859,4.169015 l -0.172692,0.678363 c -0.246706,0.969091 0.331246,1.94172 1.300293,2.188433 0.96909,0.246704 1.941719,-0.331247 2.188432,-1.300294 l 0.172694,-0.678363 c 2.206011,0.252024 4.341556,-0.02984 6.212818,-0.894928 2.017512,-1.034237 3.236853,-2.581235 3.730264,-4.519416 0.176239,-1.502977 -0.253646,-3.057069 -1.580383,-4.736285 z m -2.732956,3.8446 C 55.225,33.014336 54.64,33.690925 53.570455,34.244163 c -0.947967,0.480999 -1.91883,0.646601 -3.034171,0.569042 l 1.726936,-6.783633 c 0.991989,0.562102 1.862397,1.196444 2.392738,1.950591 0.724158,0.80349 0.9391,1.580535 0.791077,2.16199 z M 47.331649,18.622149 c 0.172694,-0.678363 0.733023,-1.258044 1.55941,-1.666805 0.801716,-0.311851 1.67567,-0.502124 2.694107,-0.449204 l -1.603583,6.299089 c -0.895085,-0.537465 -1.547005,-1.219375 -2.077345,-1.973522 -0.627249,-0.778819 -0.745283,-1.531193 -0.572589,-2.209558 z"
     id="path2-6" /></svg>
