<?xml version="1.0" encoding="UTF-8" standalone="no"?>
<svg
   width="128"
   height="128"
   version="1.1"
   id="svg48"
   sodipodi:docname="emoji_u1f61a.svg"
   xml:space="preserve"
   inkscape:version="1.3 (0e150ed6c4, 2023-07-21)"
   xmlns:inkscape="http://www.inkscape.org/namespaces/inkscape"
   xmlns:sodipodi="http://sodipodi.sourceforge.net/DTD/sodipodi-0.dtd"
   xmlns:xlink="http://www.w3.org/1999/xlink"
   xmlns="http://www.w3.org/2000/svg"
   xmlns:svg="http://www.w3.org/2000/svg"><defs
     id="defs48"><path
       id="SVGID_1_"
       d="M64,9.81C1.87,9.81,0.41,79.45,0.41,93.23c0,13.79,28.47,24.96,63.59,24.96     c35.12,0,63.59-11.17,63.59-24.96C127.59,79.45,126.12,9.81,64,9.81z" /></defs><sodipodi:namedview
     id="namedview48"
     pagecolor="#ffffff"
     bordercolor="#000000"
     borderopacity="0.25"
     inkscape:showpageshadow="2"
     inkscape:pageopacity="0.0"
     inkscape:pagecheckerboard="0"
     inkscape:deskcolor="#d1d1d1"
     inkscape:zoom="3.287235"
     inkscape:cx="17.035594"
     inkscape:cy="34.679602"
     inkscape:current-layer="svg48" /><g
     id="g48">&#10;	<g
   id="g24">&#10;		<defs
   id="defs1">&#10;			<path
   id="path48"
   d="M 64,9.81 C 1.87,9.81 0.41,79.45 0.41,93.23 c 0,13.79 28.47,24.96 63.59,24.96 35.12,0 63.59,-11.17 63.59,-24.96 C 127.59,79.45 126.12,9.81 64,9.81 Z" />&#10;		</defs>&#10;		<use
   xlink:href="#SVGID_1_"
   overflow="visible"
   fill="#fcc21b"
   id="use1" />&#10;		<clipPath
   id="SVGID_2_">&#10;			<use
   xlink:href="#SVGID_1_"
   overflow="visible"
   id="use2" />&#10;		</clipPath>&#10;		<g
   clip-path="url(#SVGID_2_)"
   id="g23">&#10;			<path
   fill="#fcc21b"
   d="M 38.63,71.53 C 33.29,82.86 19.75,88.35 8.86,83.19 -1.86,78.08 -4.98,64.98 1.44,54.47 7.46,44.62 19.86,40.48 29.56,44.8 c 9.84,4.37 14.06,16.1 9.07,26.73 z"
   id="path2" />&#10;			<path
   fill="#fcc01c"
   d="M 37.98,71.28 C 32.82,82.23 19.74,87.53 9.22,82.54 -1.14,77.61 -4.16,64.95 2.04,54.8 c 5.81,-9.52 17.8,-13.52 27.17,-9.34 9.52,4.22 13.6,15.55 8.77,25.82 z"
   id="path3" />&#10;			<path
   fill="#fcbe1c"
   d="M 37.34,71.03 C 32.36,81.59 19.73,86.72 9.57,81.9 -0.42,77.14 -3.34,64.92 2.65,55.12 8.26,45.93 19.83,42.07 28.87,46.1 c 9.19,4.08 13.12,15.02 8.47,24.93 z"
   id="path4" />&#10;			<path
   fill="#fbbb1d"
   d="M 36.69,70.78 C 31.89,80.96 19.72,85.9 9.93,81.26 0.29,76.67 -2.51,64.89 3.26,55.45 8.67,46.6 19.82,42.87 28.53,46.76 c 8.85,3.93 12.65,14.47 8.16,24.02 z"
   id="path5" />&#10;			<path
   fill="#fbb91e"
   d="M 36.04,70.53 C 31.42,80.33 19.71,85.08 10.28,80.61 1.01,76.19 -1.69,64.86 3.86,55.77 c 5.2,-8.52 15.93,-12.11 24.32,-8.36 8.53,3.78 12.18,13.93 7.86,23.12 z"
   id="path6" />&#10;			<path
   fill="#fbb71e"
   d="M 35.39,70.28 C 30.95,79.7 19.69,84.26 10.64,79.97 1.73,75.72 -0.86,64.83 4.47,56.1 c 5,-8.19 15.31,-11.63 23.37,-8.04 8.19,3.63 11.7,13.39 7.55,22.22 z"
   id="path7" />&#10;			<path
   fill="#fbb51f"
   d="M 34.75,70.03 C 30.49,79.07 19.69,83.45 11,79.33 2.45,75.26 -0.04,64.81 5.08,56.43 c 4.8,-7.86 14.69,-11.16 22.43,-7.71 7.85,3.48 11.22,12.83 7.24,21.31 z"
   id="path8" />&#10;			<path
   fill="#fab220"
   d="M 34.1,69.78 C 30.02,78.43 19.68,82.63 11.36,78.68 3.17,74.78 0.79,64.77 5.69,56.75 10.28,49.23 19.76,46.06 27.17,49.37 34.69,52.7 37.91,61.66 34.1,69.78 Z"
   id="path9" />&#10;			<path
   fill="#fab020"
   d="M 33.45,69.53 C 29.55,77.8 19.66,81.81 11.71,78.04 3.89,74.31 1.61,64.75 6.29,57.08 c 4.39,-7.19 13.45,-10.22 20.53,-7.06 7.19,3.19 10.27,11.75 6.63,19.51 z"
   id="path10" />&#10;			<path
   fill="#faae21"
   d="M 32.8,69.28 C 29.08,77.17 19.65,81 12.07,77.4 4.61,73.84 2.43,64.72 6.9,57.4 c 4.19,-6.86 12.83,-9.75 19.58,-6.73 6.86,3.04 9.8,11.21 6.32,18.61 z"
   id="path11" />&#10;			<path
   fill="#faac22"
   d="M 32.15,69.03 C 28.61,76.53 19.64,80.17 12.42,76.75 5.32,73.36 3.25,64.68 7.5,57.72 c 3.99,-6.53 12.21,-9.27 18.63,-6.41 6.54,2.91 9.33,10.68 6.02,17.72 z"
   id="path12" />&#10;			<path
   fill="#f9a922"
   d="M 31.51,68.78 C 28.15,75.9 19.64,79.36 12.78,76.11 6.04,72.9 4.08,64.66 8.11,58.05 c 3.78,-6.19 11.58,-8.8 17.68,-6.08 6.2,2.75 8.86,10.13 5.72,16.81 z"
   id="path13" />&#10;			<path
   fill="#f9a723"
   d="M 30.86,68.54 C 27.68,75.28 19.62,78.55 13.14,75.48 6.76,72.43 4.9,64.63 8.72,58.38 c 3.58,-5.86 10.96,-8.33 16.74,-5.75 5.86,2.6 8.37,9.58 5.4,15.91 z"
   id="path14" />&#10;			<path
   fill="#f9a524"
   d="m 30.21,68.29 c -3,6.36 -10.6,9.44 -16.72,6.54 C 7.47,71.96 5.72,64.61 9.32,58.71 c 3.38,-5.53 10.34,-7.86 15.79,-5.43 5.53,2.45 7.9,9.04 5.1,15.01 z"
   id="path15" />&#10;			<path
   fill="#f9a324"
   d="m 29.56,68.04 c -2.82,5.98 -9.96,8.88 -15.71,6.15 -5.66,-2.7 -7.3,-9.61 -3.92,-15.15 3.17,-5.2 9.72,-7.39 14.84,-5.1 5.2,2.29 7.43,8.49 4.79,14.1 z"
   id="path16" />&#10;			<path
   fill="#f8a025"
   d="m 28.92,67.79 c -2.64,5.59 -9.33,8.31 -14.71,5.76 -5.29,-2.52 -6.84,-8.99 -3.67,-14.18 2.97,-4.87 9.1,-6.91 13.89,-4.78 4.87,2.15 6.95,7.94 4.49,13.2 z"
   id="path17" />&#10;			<path
   fill="#f89e26"
   d="m 28.27,67.54 c -2.46,5.21 -8.69,7.74 -13.7,5.36 -4.93,-2.35 -6.37,-8.38 -3.42,-13.21 2.77,-4.53 8.48,-6.44 12.94,-4.45 4.53,2 6.48,7.4 4.18,12.3 z"
   id="path18" />&#10;			<path
   fill="#f89c26"
   d="m 27.62,67.29 c -2.28,4.83 -8.05,7.17 -12.7,4.97 -4.57,-2.18 -5.9,-7.77 -3.17,-12.25 2.57,-4.2 7.86,-5.97 11.99,-4.12 4.21,1.86 6.01,6.86 3.88,11.4 z"
   id="path19" />&#10;			<path
   fill="#f89a27"
   d="m 26.97,67.04 c -2.1,4.45 -7.42,6.61 -11.7,4.58 -4.21,-2.01 -5.44,-7.15 -2.92,-11.28 2.36,-3.87 7.24,-5.5 11.05,-3.8 3.87,1.71 5.53,6.32 3.57,10.5 z"
   id="path20" />&#10;			<path
   fill="#f79728"
   d="m 26.33,66.79 c -1.92,4.06 -6.78,6.04 -10.69,4.18 -3.85,-1.83 -4.97,-6.54 -2.67,-10.31 2.16,-3.54 6.61,-5.03 10.1,-3.47 3.53,1.57 5.05,5.78 3.26,9.6 z"
   id="path21" />&#10;			<path
   fill="#f79528"
   d="m 25.68,66.54 c -1.74,3.68 -6.14,5.47 -9.69,3.79 -3.48,-1.66 -4.5,-5.92 -2.41,-9.34 1.96,-3.2 5.99,-4.55 9.15,-3.15 3.2,1.42 4.57,5.24 2.95,8.7 z"
   id="path22" />&#10;			<path
   fill="#f79329"
   d="m 25.03,66.29 c -1.56,3.3 -5.5,4.9 -8.68,3.4 -3.12,-1.49 -4.03,-5.31 -2.16,-8.37 1.75,-2.87 5.37,-4.08 8.2,-2.82 2.86,1.27 4.09,4.69 2.64,7.79 z"
   id="path23" />&#10;		</g>&#10;	</g>&#10;	<g
   id="g45">&#10;		<path
   fill="#fcc21b"
   d="M 86.52,95.98 C 74.83,100.18 61.94,94.26 57.7,82.73 53.46,71.21 59.46,58.45 71.14,54.24 82.79,50.05 95.71,55.99 99.97,67.51 104.19,79.04 98.18,91.8 86.52,95.98 Z"
   id="path24" />&#10;		<path
   fill="#fcc01c"
   d="M 86.28,95.34 C 74.95,99.41 62.46,93.67 58.34,82.49 54.23,71.33 60.05,58.96 71.37,54.87 c 11.3,-4.06 23.81,1.7 27.95,12.86 4.1,11.19 -1.74,23.55 -13.04,27.61 z"
   id="path25" />&#10;		<path
   fill="#fcbe1c"
   d="M 86.04,94.7 C 75.07,98.64 62.97,93.08 58.99,82.26 55.01,71.45 60.65,59.47 71.61,55.52 82.55,51.59 94.67,57.16 98.67,67.98 102.64,78.8 96.99,90.77 86.04,94.7 Z"
   id="path26" />&#10;		<path
   fill="#fbbb1d"
   d="M 85.81,94.06 C 75.2,97.87 63.5,92.5 59.64,82.03 c -3.85,-10.46 1.6,-22.04 12.2,-25.87 10.58,-3.8 22.31,1.59 26.18,12.05 3.84,10.47 -1.63,22.05 -12.21,25.85 z"
   id="path27" />&#10;		<path
   fill="#fbb91e"
   d="M 85.57,93.42 C 75.32,97.1 64.01,91.91 60.28,81.79 56.56,71.69 61.83,60.49 72.07,56.8 82.29,53.13 93.62,58.34 97.36,68.44 101.08,78.56 95.8,89.75 85.57,93.42 Z"
   id="path28" />&#10;		<path
   fill="#fbb71e"
   d="M 85.34,92.77 C 75.45,96.32 64.53,91.31 60.94,81.55 57.35,71.81 62.43,61 72.31,57.44 c 9.87,-3.54 20.8,1.48 24.41,11.23 3.58,9.77 -1.51,20.56 -11.38,24.1 z"
   id="path29" />&#10;		<path
   fill="#fbb51f"
   d="m 85.1,92.13 c -9.53,3.42 -20.05,-1.4 -23.52,-10.81 -3.46,-9.4 1.44,-19.81 10.97,-23.24 9.51,-3.42 20.04,1.43 23.52,10.83 3.45,9.4 -1.46,19.81 -10.97,23.22 z"
   id="path30" />&#10;		<path
   fill="#fab220"
   d="m 84.87,91.49 c -9.18,3.3 -19.3,-1.35 -22.63,-10.41 -3.33,-9.04 1.39,-19.06 10.55,-22.37 9.15,-3.29 19.29,1.37 22.64,10.42 3.31,9.06 -1.41,19.08 -10.56,22.36 z"
   id="path31" />&#10;		<path
   fill="#fab020"
   d="m 84.63,90.85 c -8.82,3.17 -18.54,-1.3 -21.75,-10 -3.2,-8.69 1.33,-18.32 10.14,-21.49 8.79,-3.16 18.54,1.32 21.76,10.01 3.18,8.7 -1.36,18.33 -10.15,21.48 z"
   id="path32" />&#10;		<path
   fill="#faae21"
   d="M 84.39,90.21 C 75.93,93.25 66.6,88.96 63.53,80.62 60.47,72.28 64.81,63.05 73.26,60 c 8.44,-3.03 17.78,1.27 20.87,9.61 3.06,8.34 -1.3,17.58 -9.74,20.6 z"
   id="path33" />&#10;		<path
   fill="#faac22"
   d="M 84.16,89.57 C 76.06,92.48 67.13,88.38 64.18,80.38 61.25,72.4 65.4,63.55 73.5,60.63 c 8.08,-2.9 17.03,1.21 19.98,9.2 2.93,8 -1.24,16.84 -9.32,19.74 z"
   id="path34" />&#10;		<path
   fill="#f9a922"
   d="M 83.92,88.93 C 76.18,91.71 67.64,87.79 64.83,80.15 62.02,72.52 66,64.07 73.73,61.28 c 7.72,-2.77 16.27,1.16 19.1,8.79 2.8,7.64 -1.19,16.09 -8.91,18.86 z"
   id="path35" />&#10;		<path
   fill="#f9a723"
   d="m 83.69,88.29 c -7.38,2.65 -15.53,-1.09 -18.21,-8.37 -2.67,-7.28 1.11,-15.34 8.49,-18 7.36,-2.64 15.52,1.11 18.22,8.38 2.66,7.29 -1.14,15.35 -8.5,17.99 z"
   id="path36" />&#10;		<path
   fill="#f9a524"
   d="m 83.45,87.65 c -7.02,2.52 -14.77,-1.04 -17.32,-7.96 -2.54,-6.92 1.06,-14.59 8.08,-17.12 7.01,-2.52 14.77,1.05 17.33,7.98 2.53,6.92 -1.09,14.59 -8.09,17.1 z"
   id="path37" />&#10;		<path
   fill="#f9a324"
   d="M 83.21,87.01 C 76.54,89.4 69.19,86.03 66.77,79.45 64.36,72.88 67.78,65.6 74.43,63.2 c 6.65,-2.39 14.01,1 16.45,7.57 2.41,6.58 -1.02,13.86 -7.67,16.24 z"
   id="path38" />&#10;		<path
   fill="#f8a025"
   d="m 82.98,86.37 c -6.31,2.27 -13.26,-0.93 -15.55,-7.15 -2.28,-6.21 0.95,-13.1 7.25,-15.37 6.29,-2.26 13.26,0.94 15.56,7.16 2.27,6.22 -0.97,13.1 -7.26,15.36 z"
   id="path39" />&#10;		<path
   fill="#f89e26"
   d="m 82.74,85.73 c -5.95,2.14 -12.51,-0.88 -14.67,-6.74 -2.15,-5.86 0.9,-12.35 6.84,-14.5 5.93,-2.13 12.52,0.89 14.68,6.75 2.16,5.86 -0.92,12.36 -6.85,14.49 z"
   id="path40" />&#10;		<path
   fill="#f89c26"
   d="M 82.51,85.09 C 76.92,87.1 70.76,84.27 68.72,78.75 66.7,73.24 69.56,67.14 75.15,65.13 c 5.58,-2 11.76,0.83 13.79,6.35 2.03,5.5 -0.86,11.61 -6.43,13.61 z"
   id="path41" />&#10;		<path
   fill="#f89a27"
   d="m 82.27,84.45 c -5.23,1.88 -11,-0.77 -12.9,-5.93 -1.89,-5.15 0.79,-10.86 6.01,-12.75 5.22,-1.87 11,0.78 12.91,5.94 1.89,5.16 -0.81,10.87 -6.02,12.74 z"
   id="path42" />&#10;		<path
   fill="#f79728"
   d="m 82.03,83.81 c -4.87,1.75 -10.25,-0.72 -12.02,-5.52 -1.76,-4.8 0.74,-10.12 5.6,-11.87 4.86,-1.74 10.25,0.73 12.02,5.53 1.78,4.79 -0.74,10.11 -5.6,11.86 z"
   id="path43" />&#10;		<path
   fill="#f79528"
   d="m 81.8,83.17 c -4.51,1.62 -9.49,-0.67 -11.13,-5.12 -1.63,-4.45 0.68,-9.37 5.19,-11 4.5,-1.62 9.5,0.67 11.14,5.12 1.63,4.45 -0.7,9.38 -5.2,11 z"
   id="path44" />&#10;		<path
   fill="#f79329"
   d="m 81.56,82.53 c -4.15,1.49 -8.74,-0.61 -10.25,-4.71 -1.5,-4.09 0.63,-8.63 4.78,-10.12 4.15,-1.49 8.73,0.62 10.25,4.72 1.5,4.09 -0.64,8.62 -4.78,10.11 z"
   id="path45" />&#10;	</g>&#10;	<path
   fill="#2f2f2f"
   d="m 27.2,36.79 c -0.56,-1.31 0.05,-2.83 1.36,-3.39 1.31,-0.56 2.81,0.06 3.37,1.35 0.08,0.17 1.69,3.6 6.09,4.26 4.43,0.65 6.81,-2.21 6.84,-2.24 0.88,-1.11 2.5,-1.3 3.62,-0.42 1.11,0.88 1.31,2.5 0.43,3.62 -0.16,0.2 -3.49,4.3 -9.55,4.3 -0.67,0 -1.36,-0.04 -2.09,-0.15 C 29.93,43.01 27.3,37.04 27.2,36.79 Z"
   id="path46" />&#10;	<path
   fill="#2f2f2f"
   d="m 52.44,52.19 c -0.69,0.44 -1.56,0.56 -2.35,0.54 -2.04,-0.01 -5.01,-0.89 -6.66,0.62 -1.33,1.24 -1.67,3.5 -1.2,5.17 0.69,2.57 3.17,2.5 5.11,3.71 0.5,0.3 0.69,0.97 0.53,1.49 -0.07,0.21 -0.2,0.39 -0.39,0.53 -0.82,0.52 -1.98,0.28 -2.9,0.28 -1.03,0 -1.96,-0.11 -2.81,0.54 -1.39,1.06 -1.96,3.92 -1.24,5.5 0.87,1.87 3.26,2.66 4.58,4.19 0.7,0.82 3.24,3.96 1.37,4.71 -1.86,0.77 -5.71,0.55 -6.23,-1.86 -0.6,-2.77 -3.09,-4.85 -3.98,-7.56 -0.93,-2.83 -0.17,-5.55 1.91,-7.66 1.01,-1.03 -0.14,-3.13 -0.25,-4.36 -0.13,-1.55 0.24,-3.24 0.93,-4.63 2.11,-4.39 6.91,-3.5 10.94,-4.27 0.94,-0.18 1.7,-0.11 2.47,0.61 0.73,0.67 1.11,1.88 0.17,2.45 z"
   id="path47" />&#10;	<path
   fill="#2f2f2f"
   d="m 74.19,50.89 c -7.99,-1.2 -10.85,-7.7 -10.97,-7.98 -0.58,-1.38 0.04,-2.96 1.42,-3.55 1.37,-0.6 2.95,0.04 3.54,1.41 0.09,0.21 1.91,4.03 6.81,4.76 4.91,0.75 7.57,-2.41 7.68,-2.55 0.94,-1.15 2.64,-1.32 3.79,-0.38 1.14,0.92 1.34,2.61 0.42,3.76 -0.16,0.21 -3.81,4.69 -10.44,4.69 -0.71,0 -1.46,-0.05 -2.25,-0.16 z"
   id="path49" />&#10;</g></svg>
