<?xml version="1.0" encoding="UTF-8" standalone="no"?>
<svg
   width="128"
   height="128"
   version="1.1"
   id="svg9"
   sodipodi:docname="emoji_u1f635.svg"
   xml:space="preserve"
   inkscape:version="1.3 (0e150ed6c4, 2023-07-21)"
   xmlns:inkscape="http://www.inkscape.org/namespaces/inkscape"
   xmlns:sodipodi="http://sodipodi.sourceforge.net/DTD/sodipodi-0.dtd"
   xmlns="http://www.w3.org/2000/svg"
   xmlns:svg="http://www.w3.org/2000/svg"><defs
     id="defs9" /><sodipodi:namedview
     id="namedview9"
     pagecolor="#ffffff"
     bordercolor="#000000"
     borderopacity="0.25"
     inkscape:showpageshadow="2"
     inkscape:pageopacity="0.0"
     inkscape:pagecheckerboard="0"
     inkscape:deskcolor="#d1d1d1"
     inkscape:zoom="4.2474285"
     inkscape:cx="-43.791202"
     inkscape:cy="50.618863"
     inkscape:current-layer="svg9" /><g
     id="g3"
     transform="translate(-0.00104892,0.00194199)">&#10;	<path
   fill="#fcc21b"
   d="M 122.36,78.53 C 132.19,48.51 124.34,22.98 101.66,12.22 72.73,-1.52 44.51,5.58 25.9,24.15 18.16,31.87 11.67,40.36 5.37,57.21 c -7.87,21.04 -4.7,39.36 -3.9,44.1 2.02,12.17 29.7,21.64 62.97,21.64 0,0 0.07,-0.01 0.11,-0.01 0.03,0 0.07,0.01 0.07,0.01 8.49,0 16.47,-0.63 23.77,-1.75 0.2,-0.04 0.43,-0.06 0.64,-0.1 0.08,-0.01 0.16,-0.02 0.24,-0.04 20.06,-3.19 34.7,-10.12 37.66,-18.43 0.43,-1.01 0.77,-2.03 0.88,-3.08 0.64,-6.56 -9.48,-8.67 -5.45,-21.02"
   id="path1" />&#10;	<path
   fill="#ed6c30"
   d="M 27.74507,85.668281 C 25.064503,72.045688 37.027171,57.186777 51.356116,59.408893 65.996582,60.308365 80.243247,76.895334 72.796086,91.23592 65.464359,103.04874 48.700888,103.17779 37.043215,98.587245 31.981536,96.336111 27.599942,91.47996 27.74507,85.668281 Z"
   id="path2" />&#10;	&#10;</g><path
     style="fill:#2f2f2f;fill-opacity:1;stroke:#2f2f2f;stroke-width:6;stroke-linecap:round;stroke-miterlimit:8;stroke-dasharray:none;stroke-dashoffset:0;stroke-opacity:1;paint-order:markers stroke fill"
     d="m 35.503169,39.885336 c 9.764059,-5.890929 19.30318,-12.244954 31.196264,-13.75273"
     id="path4"
     sodipodi:nodetypes="cc" /><path
     style="fill:#2f2f2f;fill-opacity:1;stroke:#2f2f2f;stroke-width:6;stroke-linecap:round;stroke-miterlimit:8;stroke-dasharray:none;stroke-dashoffset:0;stroke-opacity:1;paint-order:markers stroke fill"
     d="m 44.843881,20.000532 c 6.25742,9.344814 8.443554,13.134316 18.155899,23.082071"
     id="path4-5"
     sodipodi:nodetypes="cc" /><path
     style="fill:#2f2f2f;fill-opacity:1;stroke:#2f2f2f;stroke-width:6;stroke-linecap:round;stroke-miterlimit:8;stroke-dasharray:none;stroke-dashoffset:0;stroke-opacity:1;paint-order:markers stroke fill"
     d="M 100.67858,56.18285 C 94.89804,46.353032 89.535831,36.223118 79.795876,29.233685"
     id="path4-2"
     sodipodi:nodetypes="cc" /><path
     style="fill:#2f2f2f;fill-opacity:1;stroke:#2f2f2f;stroke-width:6;stroke-linecap:round;stroke-miterlimit:8;stroke-dasharray:none;stroke-dashoffset:0;stroke-opacity:1;paint-order:markers stroke fill"
     d="m 101.93431,34.249372 c -9.952431,5.237353 -13.679365,7.528526 -26.956948,11.6508"
     id="path4-5-5"
     sodipodi:nodetypes="cc" /></svg>
