<?xml version="1.0" encoding="UTF-8" standalone="no"?>
<svg
   width="128"
   height="128"
   version="1.1"
   id="svg11043"
   sodipodi:docname="emoji_u1f951.svg"
   inkscape:version="1.2.2 (732a01da63, 2022-12-09)"
   xmlns:inkscape="http://www.inkscape.org/namespaces/inkscape"
   xmlns:sodipodi="http://sodipodi.sourceforge.net/DTD/sodipodi-0.dtd"
   xmlns="http://www.w3.org/2000/svg"
   xmlns:svg="http://www.w3.org/2000/svg">
  <defs
     id="defs11047" />
  <sodipodi:namedview
     id="namedview11045"
     pagecolor="#ffffff"
     bordercolor="#000000"
     borderopacity="0.25"
     inkscape:showpageshadow="2"
     inkscape:pageopacity="0.0"
     inkscape:pagecheckerboard="0"
     inkscape:deskcolor="#d1d1d1"
     showgrid="false"
     inkscape:zoom="2.1210938"
     inkscape:cx="26.637201"
     inkscape:cy="71.661142"
     inkscape:window-width="1366"
     inkscape:window-height="697"
     inkscape:window-x="-8"
     inkscape:window-y="-8"
     inkscape:window-maximized="1"
     inkscape:current-layer="svg11043" />
  <path
     d="M42.6 30.62l-.54.57a82.132 82.132 0 0 0-5.05 5.3c-.13.14-.3.34-.46.52-4.1 4.38-8.12 8.82-12.07 13.32C18.99 56.4 9.67 62.79 7.17 65.96c-2.56 3.25-4.3 6.6-5.34 9.92-.19.6-.36 1.2-.5 1.79-.06.22-.12.45-.17.67-.85 3.78-.64 7.45.5 10.81.11.33.2.66.33.98.12.32.28.63.42.94 1.44 3.24 3.78 6.07 6.97 8.27.19.13.39.25.59.38.51.34 1.04.66 1.58.98 3.02 1.73 6.57 3.01 10.66 3.65 3.98.63 16.11 1.39 24.26 2.11 5.96.63 40.93-1.72 47.41-4.26 12.56-4.93 22.95-11.68 27.86-23.84.94-2.32 1.67-4.6 2.26-6.86.19-.74.35-1.48.51-2.21 1.83-8.68 1.05-16.94-2.38-24.81-2.83-8.1-7.85-14.69-15.09-19.83-.61-.43-1.23-.87-1.88-1.28a54.21 54.21 0 0 0-6.31-3.5c-11.86-5.59-26.15-5.68-38.72-.78-6.5 2.54-12.54 6.38-17.53 11.53z"
     fill="#46681e"
     id="path11033"
     style="fill:#6d722a;fill-opacity:1" />
  <path
     d="M112.98 44.77c-.18-.18-.37-.35-.55-.52a72.964 72.964 0 0 0-5.15-4.91c-.14-.12-.34-.29-.51-.44-4.25-3.98-8.57-7.89-12.96-11.73-5.9-5.34-14.07-15.85-17.16-18.28-3.17-2.49-6.47-4.18-9.75-5.2-.6-.19-1.19-.35-1.79-.49-.22-.06-.45-.12-.67-.17-3.76-.83-7.43-.64-10.82.45-.33.11-.66.19-.99.32-.32.12-.64.27-.95.4-3.28 1.39-6.18 3.65-8.47 6.74-.14.18-.26.38-.4.57-.36.49-.69 1-1.02 1.53-1.81 2.92-3.2 6.36-3.97 10.32-.75 3.86.19 17.06-.77 24.96-.81 5.77-1.51 11.56-2.12 17.35-.03.23-.06.48-.09.67a72.36 72.36 0 0 0-.68 7.08c-.02.25-.05.5-.08.76-.61 6.94.46 13.77 2.81 20.06 4.55 12.19 14.01 22.32 26.02 27.11 2.29.91 4.55 1.63 6.79 2.21.74.19 1.47.35 2.2.5 8.63 1.8 16.9 1.05 24.87-2.25 8.18-2.72 14.92-7.57 20.27-14.58.45-.59.9-1.19 1.33-1.82a54.38 54.38 0 0 0 3.69-6.11c5.94-11.48 6.46-25.33 1.92-37.52-2.34-6.3-6-12.16-11-17.01zm3.04 51.4a50.39 50.39 0 0 1-3.24 5.37c-.37.54-.76 1.05-1.15 1.57-4.25 5.58-9.4 9.43-15.72 11.79l-1.51.53s-1.06.43-1.48.59c-6.33 2.36-12.74 2.81-19.62 1.38-.63-.13-1.26-.27-1.89-.43-2.09-.54-4.04-1.17-5.96-1.94-9.94-3.96-18.22-12.62-22.17-23.17-2.1-5.62-2.91-11.36-2.41-17.08l.08-.79c.12-2.42.33-4.58.64-6.67l.12-.93a501.2 501.2 0 0 1 2.09-17.12c.81-6.61-.05-20.7.71-24.61.58-2.98 1.61-5.68 3.07-8.03.24-.39.49-.77.76-1.14l.25-.36c1.62-2.18 3.53-3.71 5.76-4.66l.43-.19.49-.18.45-.14c2.3-.74 4.74-.84 7.25-.28l.46.12c.57.13 1 .26 1.43.39 2.64.82 5.19 2.19 7.58 4.06 3.52 2.76 14.01 15.44 16.8 17.97 4.34 3.79 8.64 7.68 12.88 11.65l.72.64c1.59 1.38 3.16 2.88 4.67 4.45l.53.51c4.33 4.19 7.48 9.07 9.57 14.69 3.92 10.54 3.32 22.51-1.59 32.01z"
     fill="#afb42b"
     id="path11035"
     style="fill:#bdcf46" />
  <path
     d="M107.51 48.95c-1.5-1.57-3.08-3.07-4.67-4.45l-.72-.64a501.29 501.29 0 0 0-12.88-11.65c-2.79-2.52-13.27-15.2-16.8-17.97-2.39-1.87-4.94-3.24-7.58-4.06-.43-.13-.86-.26-1.43-.39l-.46-.12c-2.51-.55-4.95-.46-7.25.28l-.45.14-.49.18-.43.19c-2.23.95-4.14 2.47-5.76 4.66l-.25.36c-.26.37-.51.75-.76 1.14-1.46 2.35-2.49 5.05-3.07 8.03-.76 3.91.1 18-.71 24.61-.78 5.55-1.48 11.31-2.09 17.12l-.12.93c-.3 2.08-.51 4.25-.64 6.67l-.08.79c-.5 5.72.31 11.46 2.41 17.08 3.94 10.55 12.23 19.21 22.17 23.17 1.92.77 3.87 1.4 5.96 1.94.64.16 1.27.3 1.89.43 6.87 1.43 13.29.98 19.62-1.38.42-.16 1.48-.59 1.48-.59l1.51-.53c6.33-2.36 11.47-6.22 15.72-11.79.39-.51.78-1.03 1.15-1.57 1.24-1.78 2.3-3.54 3.24-5.37 4.92-9.5 5.51-21.47 1.59-32.03-2.09-5.62-5.24-10.49-9.57-14.69l-.53-.49z"
     fill="#fff69f"
     id="path11037" />
  <path
     d="M100.14 72.73c3.84 10.3-1.4 21.77-11.7 25.6s-21.77-1.4-25.6-11.7 2.5-29.97 9.44-32.08c7.14-2.16 24.02 7.88 27.86 18.18z"
     fill="#855c52"
     id="path11039" />
  <path
     d="M83.94 64.76C83.3 67 87.5 71.25 88.17 77.8c.51 4.95 3.05 7.19 6.08 6.57 3.08-.62 4.26-6.73.83-12.46-3.33-5.58-10.08-10.86-11.14-7.15z"
     fill="#d7ccc8"
     id="path11041"
     style="fill:#bca9a4" />
</svg>
