<?xml version="1.0" encoding="UTF-8" standalone="no"?>
<!-- Generator: Adobe Illustrator 24.1.2, SVG Export Plug-In . SVG Version: 6.00 Build 0)  -->

<svg
   version="1.1"
   id="Layer_2"
   x="0px"
   y="0px"
   viewBox="0 0 128 128"
   style="enable-background:new 0 0 128 128;"
   xml:space="preserve"
   sodipodi:docname="emoji_u1f9a6.svg"
   inkscape:version="1.3 (0e150ed6c4, 2023-07-21)"
   xmlns:inkscape="http://www.inkscape.org/namespaces/inkscape"
   xmlns:sodipodi="http://sodipodi.sourceforge.net/DTD/sodipodi-0.dtd"
   xmlns="http://www.w3.org/2000/svg"
   xmlns:svg="http://www.w3.org/2000/svg"><defs
   id="defs28546" /><sodipodi:namedview
   id="namedview28544"
   pagecolor="#ffffff"
   bordercolor="#000000"
   borderopacity="0.25"
   inkscape:showpageshadow="2"
   inkscape:pageopacity="0.0"
   inkscape:pagecheckerboard="0"
   inkscape:deskcolor="#d1d1d1"
   showgrid="false"
   inkscape:zoom="2.1210938"
   inkscape:cx="79.675873"
   inkscape:cy="89.812153"
   inkscape:window-width="1366"
   inkscape:window-height="697"
   inkscape:window-x="-8"
   inkscape:window-y="-8"
   inkscape:window-maximized="1"
   inkscape:current-layer="Layer_2" />&#10;&#10;&#10;<radialGradient
   id="SVGID_1_"
   cx="68.4156"
   cy="81.5288"
   r="37.4487"
   gradientTransform="matrix(-0.3544 0.9351 -1.016 -0.3851 175.4993 48.9517)"
   gradientUnits="userSpaceOnUse">&#10;	<stop
   offset="0.2597"
   style="stop-color:#B68D76"
   id="stop28452" />&#10;	<stop
   offset="0.4098"
   style="stop-color:#A87F6A"
   id="stop28454" />&#10;	<stop
   offset="0.6793"
   style="stop-color:#875B4E"
   id="stop28456" />&#10;</radialGradient>&#10;&#10;&#10;&#10;&#10;&#10;<radialGradient
   id="SVGID_2_"
   cx="29.6746"
   cy="46.8145"
   r="24.012"
   gradientTransform="matrix(-0.8885 0.4589 -0.3302 -0.6394 71.4988 63.129)"
   gradientUnits="userSpaceOnUse">&#10;	<stop
   offset="0.2712"
   style="stop-color:#FBE5CB"
   id="stop28477" />&#10;	<stop
   offset="0.363"
   style="stop-color:#EFD7BE"
   id="stop28479" />&#10;	<stop
   offset="0.5382"
   style="stop-color:#CFB09B"
   id="stop28481" />&#10;	<stop
   offset="0.7764"
   style="stop-color:#9C7464"
   id="stop28483" />&#10;	<stop
   offset="0.8653"
   style="stop-color:#875B4E"
   id="stop28485" />&#10;</radialGradient>&#10;&#10;&#10;&#10;&#10;&#10;&#10;&#10;&#10;&#10;&#10;&#10;&#10;&#10;&#10;&#10;&#10;<linearGradient
   id="SVGID_3_"
   gradientUnits="userSpaceOnUse"
   x1="88.8577"
   y1="107.7013"
   x2="111.3488"
   y2="87.2183">&#10;	<stop
   offset="0.208"
   style="stop-color:#875B4E"
   id="stop28532" />&#10;	<stop
   offset="0.5788"
   style="stop-color:#765247"
   id="stop28534" />&#10;	<stop
   offset="0.8883"
   style="stop-color:#6E4D44"
   id="stop28536" />&#10;</linearGradient>&#10;&#10;&#10;<g
   id="g1"
   transform="matrix(1.0404013,0,0,1.0404013,-2.5856807,-2.5856839)"
   style="stroke-width:0.961168"><path
     style="fill:#855c52;fill-opacity:1;stroke-width:0.961167"
     d="m 17.570874,105.11145 c -0.862288,-3.63306 -0.897814,-7.328339 -0.754868,-9.212671 0.384142,-5.009555 0.97599,-8.117881 3.282728,-10.152332 6.106544,-5.408645 10.813334,-5.793303 12.969652,-8.050584 2.454446,-2.577845 6.393441,-12.5561 10.831348,-11.715256 3.108339,0.59186 3.933594,5.597809 3.933594,5.597809 0,0 4.488545,-0.77424 5.72936,1.768092 1.240828,2.54232 0.07211,5.641136 0.07211,5.641136 0,0 3.74389,1.033475 4.449464,3.282741 0.72105,2.330193 0.180696,5.081272 -5.00169,7.929044 -5.182399,2.847785 -12.328673,4.321807 -12.328673,4.321807 0,0 0.224714,9.949034 -10.376668,14.970974 -6.877555,3.25573 -11.505152,1.10929 -12.80633,-4.38075 z"
     id="path6" /><path
     style="fill:#2f2f2f;fill-opacity:1;stroke-width:0.961167"
     d="m 17.155289,101.05752 c -0.443475,0.31241 -4.711062,-9.977914 1.257963,-16.043153 4.846859,-4.916229 10.653051,-5.12769 13.331194,-8.227524 2.666573,-3.097648 8.145379,-15.299203 14.395057,-11.749589 3.40158,1.937495 2.468566,5.266855 2.468566,5.266855 0,0 3.291409,-1.396023 5.929076,1.622119 2.665229,3.036784 0.377183,6.67309 0.377183,6.67309 0,0 3.640038,0.490194 4.192302,3.128213 0.566019,2.647365 -0.0012,5.571302 -2.724712,7.493722 -3.155422,2.232634 -8.063472,4.572701 -10.968352,5.295787 -2.893335,0.720887 -6.422536,0.497015 -3.998855,-0.361719 2.423681,-0.858708 11.088197,-5.546304 12.97288,-6.529617 3.224616,-1.682783 2.67847,-4.226107 1.568202,-5.020245 -1.612559,-1.165366 -2.808351,-0.58931 -6.603056,1.370195 -3.182795,1.650811 -7.023729,4.433811 -7.424203,3.216449 -0.400461,-1.217361 3.351759,-3.336457 5.776281,-5.381435 2.426747,-2.033421 6.611372,-4.522727 4.89275,-7.057572 -1.718635,-2.534845 -4.215403,-1.494423 -6.810937,0.846824 -2.581752,2.350606 -6.835898,7.045676 -7.359255,5.624177 -0.227767,-0.627386 3.891924,-5.524395 5.116434,-6.764884 1.224497,-1.240476 3.744392,-3.914724 1.298426,-5.867219 -2.445942,-1.952507 -4.653928,1.225201 -6.311535,3.459015 -1.657595,2.233815 -3.422447,6.225383 -5.910547,7.875151 -3.753061,2.490664 -9.463063,4.145382 -11.804637,6.749583 -4.993374,5.591188 -2.782661,13.770777 -3.660238,14.381817 z"
     id="path7" /><path
     style="fill:#855c52;fill-opacity:1;stroke-width:0.961164"
     d="m 75.521164,46.725701 35.638286,0.930564 c 0,0 4.02624,11.217614 4.48896,20.135787 0.66306,12.77927 -2.77832,28.590928 -15.5411,41.748438 C 90.105108,119.85205 67.388762,124.44422 48.573159,121.77945 29.757556,119.11469 12.868745,107.48938 7.8396817,93.098217 2.8768093,78.896492 6.7078818,62.617216 15.852202,55.330608 c 7.964582,-6.346546 12.568613,-4.022496 11.125494,2.638585 -1.38439,6.390074 -3.11565,12.206052 -2.61258,17.937347 0.962284,10.962989 7.621782,16.977075 21.217991,16.683983 15.34802,-0.33084 22.460715,-11.915775 25.118897,-23.417636 2.658194,-11.501848 0.202504,-22.546265 0.202504,-22.546265 z"
     id="path28459-4"
     sodipodi:nodetypes="ccsssssssszcc" /><path
     id="path28488-5"
     style="fill:#855c52;fill-opacity:1;stroke-width:0.961167"
     d="M 95.447361,5.5862481 C 93.578645,5.437988 91.546794,5.4327872 89.343142,5.6179051 75.624891,6.7700182 69.203021,15.144232 69.203021,15.144232 c 0,0 -4.180154,-2.618774 -6.871688,1.919456 -2.372791,4.000814 1.763382,7.057961 1.763382,7.057961 0,0 -1.402568,2.508791 -1.283038,6.889577 0.12796,4.689642 2.517597,22.959213 26.589628,23.734281 26.223145,0.844324 29.948525,-14.293943 30.947605,-19.95087 0.81892,-4.636831 -0.88659,-8.461358 -0.88659,-8.461358 0,0 5.31089,-4.028376 1.51919,-9.455074 -3.17671,-4.546495 -7.37161,-2.136255 -7.37161,-2.136255 0,0 -5.0815,-8.1178177 -18.162539,-9.1556516 z" /><path
     id="path1-2"
     style="fill:#2f2f2f;fill-opacity:1;stroke-width:0.961163"
     d="m 118.84383,35.864166 c 0.53612,0.279134 0.82813,0.931054 0.64389,1.538642 -0.20305,0.69835 -0.94008,1.098032 -1.63448,0.887451 l -6.81142,-2.027316 c -0.083,-0.0245 -0.16323,-0.05553 -0.23839,-0.09497 -0.54119,-0.283531 -0.82458,-0.93025 -0.64982,-1.538039 0.19911,-0.690813 0.93475,-1.091438 1.62916,-0.880868 l 6.81751,2.019275 c 0.0857,0.02399 0.16693,0.05603 0.24368,0.09547 z m -8.73019,1.959441 c 0.0381,0.02098 0.0746,0.04497 0.11067,0.07098 l 5.81732,4.092318 c 0.59164,0.424982 0.73932,1.240263 0.31435,1.831884 -0.38237,0.546912 -1.10374,0.714619 -1.68251,0.41134 -0.0602,-0.03128 -0.10464,-0.05439 -0.14937,-0.09698 l -5.81733,-4.092318 c -0.58806,-0.413513 -0.7318,-1.236318 -0.31434,-1.831897 0.3984,-0.55465 1.15343,-0.711528 1.7213,-0.385386 z m -3.99487,3.460246 c 0.11595,0.05703 0.22559,0.131125 0.32414,0.224137 l 5.14515,4.900199 c 0.52934,0.507303 0.55552,1.335485 0.0521,1.857297 -0.42208,0.439869 -1.06115,0.525481 -1.56476,0.26161 -0.10515,-0.05515 -0.2029,-0.124115 -0.29989,-0.213283 l -5.14514,-4.900211 c -0.53328,-0.499779 -0.548,-1.331553 -0.0521,-1.857298 0.41217,-0.430082 1.03815,-0.519677 1.54049,-0.272451 z" /><path
     style="fill:#855c52;fill-opacity:1;stroke-width:0.961167"
     d="m 50.62178,110.21922 c 1.069767,-3.57748 2.886639,-6.79544 3.952613,-8.35586 2.837432,-4.146327 4.904156,-6.542295 7.919069,-7.150813 7.992759,-1.630736 12.261289,0.389532 15.257333,-0.487178 3.414545,-1.00526 11.814951,-7.677184 15.237862,-4.730032 2.395968,2.066736 0.607688,6.814631 0.607688,6.814631 0,0 4.274308,1.573767 4.077733,4.395902 -0.196575,2.82213 -2.758127,4.92143 -2.758127,4.92143 0,0 2.725566,2.76694 2.211981,5.06766 -0.540656,2.37852 -2.384147,4.49085 -8.296126,4.3659 -5.911954,-0.12499 -12.837848,-2.42154 -12.837848,-2.42154 0,0 -4.77989,8.72847 -16.471931,7.77692 -7.583995,-0.61923 -10.518396,-4.79191 -8.900222,-10.19702 z"
     id="path28539-1" /><path
     style="fill:#2f2f2f;fill-opacity:1;stroke-width:0.961167"
     d="m 52.288834,106.5006 c -0.540267,0.0489 0.909045,-10.996654 9.111005,-13.264788 6.655616,-1.834159 11.789662,0.885817 15.658912,-0.459656 3.858131,-1.349341 14.703713,-9.176793 18.341288,-2.977904 1.977054,3.378743 -0.495582,5.795502 -0.495582,5.795502 0,0 3.548446,0.436728 4.323677,4.369329 0.789766,3.962547 -3.0099,5.967667 -3.0099,5.967667 0,0 2.907267,2.24453 2.066522,4.80525 -0.833483,2.57571 -2.786668,4.8243 -6.106518,5.12742 -3.848999,0.3558 -9.269516,-0.0717 -12.146784,-0.8979 -2.866112,-0.82237 -5.810563,-2.78084 -3.282238,-2.31269 2.528325,0.46819 12.375807,0.74085 14.499663,0.83163 3.633971,0.15498 4.432669,-2.32068 3.868207,-3.56356 -0.813823,-1.81553 -2.137437,-1.91453 -6.403504,-2.1149 -3.581786,-0.16175 -8.299644,0.32793 -8.03777,-0.92658 0.261874,-1.2545 4.570929,-1.21358 7.693136,-1.77232 3.118313,-0.54762 7.986969,-0.6111 7.766011,-3.66566 -0.220946,-3.05456 -2.903423,-3.401908 -6.321849,-2.672089 -3.411166,0.744806 -9.442901,2.683779 -9.185399,1.191032 0.116453,-0.657209 6.132711,-2.838287 7.81342,-3.300329 1.680672,-0.462028 5.200087,-1.518052 4.058074,-4.431953 -1.142001,-2.913887 -4.643012,-1.265902 -7.195456,-0.160169 -2.552432,1.105747 -6.076608,3.680112 -9.056271,3.864803 -4.495568,0.280441 -10.267929,-1.141523 -13.597905,-0.05703 -7.119981,2.345431 -9.29523,10.534515 -10.360777,10.624895 z"
     id="path28541-9" /><path
     id="circle65356"
     style="fill:#2f2f2f;stroke-width:0.961167"
     d="m 84.026678,26.434079 c 0.02701,2.184444 -1.548428,3.975036 -3.518786,3.999382 -1.970358,0.02425 -3.589525,-1.726801 -3.616509,-3.911245 -0.02701,-2.18447 1.548429,-3.975062 3.518787,-3.999395 1.970358,-0.02437 3.589525,1.726775 3.616508,3.911258 z"
     sodipodi:nodetypes="sssss" /><path
     id="circle65358"
     style="fill:#2f2f2f;stroke-width:0.961167"
     d="m 107.68444,26.440611 c 0.14931,2.225636 -1.32349,4.136814 -3.28957,4.268693 -1.96609,0.131929 -3.68096,-1.5654 -3.83026,-3.79105 -0.1493,-2.225674 1.32349,-4.136813 3.28958,-4.268717 1.96608,-0.13193 3.68095,1.565425 3.83025,3.791074 z"
     sodipodi:nodetypes="sssss" /><path
     style="fill:#2f2f2f;fill-opacity:1;stroke-width:0.961167"
     d="m 96.979936,32.840823 c 0.189892,1.602283 -2.764747,3.878269 -4.621052,3.943845 -1.856305,0.06557 -5.053108,-1.973537 -5.242999,-3.57582 -0.189892,-1.602295 2.210901,-5.553501 4.923866,-5.652643 2.724799,-0.102634 4.745972,3.669183 4.940185,5.284618 z"
     id="path65362"
     sodipodi:nodetypes="csscc" /><path
     d="m 100.96487,39.345906 c -0.2098,0.52136 -0.73223,0.824652 -1.115342,1.049956 l -0.174138,0.104016 c -1.863378,1.117969 -4.672005,0.955576 -6.592039,0.04711 l -0.199816,-0.09598 c -0.269323,-0.130987 -0.38227,-0.183422 -0.556195,-0.183799 -0.2697,0.02512 -0.522064,0.129366 -0.748386,0.233257 -0.182794,0.07789 -0.365563,0.147041 -0.522202,0.198923 -1.870978,0.587476 -3.915454,0.974571 -5.801104,0.257515 -0.521373,-0.201097 -1.22495,-0.602601 -1.615147,-1.151284 -0.277489,-0.383225 -0.380763,-0.905239 -0.266823,-1.331126 0.09648,-0.365048 0.340538,-0.660224 0.68006,-0.833458 0.679004,-0.320363 1.426297,-0.03191 1.904079,0.221385 1.198769,0.646042 3.268433,0.693816 4.27074,-0.36506 0.339923,-0.364532 0.506261,-0.894686 0.472883,-1.573088 l 3.51e-4,-0.173912 c -1.008689,-0.04548 4.75753,-0.259688 2.965757,-0.115573 -0.01005,0.634835 -0.0201,1.313149 0.231146,1.748495 l 0.399368,0.3226 c 1.146297,0.785068 2.946147,0.94535 4.191209,0.243532 l 0.217666,-0.121226 c 0.19155,-0.112558 0.374395,-0.216637 0.591973,-0.294435 0.583104,-0.216209 1.22628,-0.04108 1.55571,0.455459 0.25139,0.391855 0.29381,0.905038 0.11018,1.356866 z"
     style="fill:#2f2f2f;fill-rule:nonzero;stroke-width:0.727859"
     id="path27816"
     sodipodi:nodetypes="ccccccccccccccccccccccccc" /><path
     id="path4"
     style="fill:#2f2f2f;fill-opacity:1;stroke:none;stroke-width:34.5111;stroke-linecap:round"
     d="m 86.583758,41.942683 c -0.180595,0.0038 -0.361392,0.01407 -0.539776,0.03442 -2.360857,0.298531 -4.278001,1.690106 -5.400317,3.449719 -1.20039,1.927006 -1.755945,4.036253 -2.159144,5.765905 -0.530619,2.164546 -0.735359,3.603557 -1.371551,5.194207 -0.268846,0.649835 -0.527177,1.178255 -0.893104,1.558026 -0.326193,0.359457 -0.764943,0.591759 -1.189976,0.66001 -1.240552,0.290566 -2.293272,-0.04987 -3.101316,-0.507893 -0.0025,0.407345 -0.01533,0.823772 -0.02701,1.243956 0.762116,0.450923 1.815063,0.785306 3.260807,0.797417 0.778171,-0.03555 1.594256,-0.326984 2.269554,-0.920088 0.635954,-0.57328 1.107781,-1.277937 1.467239,-2.031562 0.857225,-1.749349 1.244772,-3.371028 1.847536,-5.378232 0.51935,-1.66522 1.089452,-3.541612 2.085529,-4.93413 0.787933,-1.126775 2.098343,-2.035895 3.488989,-2.112538 0.744555,-0.05439 1.549785,0.146489 2.043822,0.618304 0.634346,0.50582 1.045497,1.401399 1.405897,2.419221 0.531021,1.593351 0.719593,3.328606 0.699268,5.172135 -0.01457,1.324669 -0.135234,2.673834 -0.294423,3.989508 -0.480395,3.632526 -1.379842,6.918056 -2.831428,9.777498 -0.659169,1.283313 -1.360798,2.403054 -2.242558,3.270606 -0.760697,0.722256 -1.55736,1.26859 -2.362791,1.374 -4.153459,0.688917 -7.829224,-0.502441 -10.282929,-1.661061 -0.630288,-0.298744 -1.188393,-0.599762 -1.688058,-0.883293 -0.02487,0.111804 -0.04045,0.221787 -0.0662,0.333692 -0.07135,0.308744 -0.160156,0.616344 -0.238005,0.924987 0.383904,0.298669 0.796487,0.602676 1.273402,0.910276 2.46231,1.591166 6.418152,3.26636 11.318338,2.757813 1.46999,-0.195519 2.789144,-0.903882 3.822669,-1.889243 1.189335,-1.10366 2.122763,-2.433103 2.890307,-3.864375 1.712718,-3.161276 2.792008,-6.76472 3.319687,-10.660777 0.203572,-1.393423 0.345325,-2.861151 0.350852,-4.357546 0.0075,-2.079562 -0.246208,-4.132706 -0.888192,-6.106946 -0.410159,-1.325724 -1.143633,-2.653106 -2.325984,-3.692623 -1.079114,-0.872829 -2.376949,-1.273679 -3.641105,-1.25133 z" /><path
     id="path5"
     style="fill:#2f2f2f;fill-opacity:1;stroke:none;stroke-width:34.5111;stroke-linecap:round"
     d="m 98.628348,41.118822 c -1.26839,-0.02588 -2.579203,0.365475 -3.677901,1.234145 -1.192639,1.031892 -1.931829,2.352604 -2.340707,3.668102 -0.647636,1.98135 -0.894109,4.037434 -0.875931,6.111845 0.01281,1.457779 0.154818,2.885672 0.358226,4.242224 0.536687,3.870279 1.627898,7.47062 3.322137,10.646054 0.766149,1.448923 1.691538,2.801203 2.863311,3.950251 1.006353,1.015184 2.292467,1.80122 3.771147,2.107627 5.22398,0.860554 9.73099,-2.169873 12.16566,-3.904876 0.53864,-0.482179 0.98933,-0.816273 1.43941,-1.230992 -0.003,-0.05012 -0.003,-0.102132 -0.005,-0.15213 -0.0245,-0.472342 -0.0898,-0.961643 -0.13249,-1.442704 -0.6636,0.44512 -1.42446,0.890416 -2.25645,1.476359 -2.44665,1.301592 -6.71308,3.76659 -10.69352,2.736972 -0.81307,-0.164792 -1.59324,-0.757481 -2.35297,-1.516307 -0.877183,-0.909145 -1.584252,-2.05342 -2.242566,-3.351582 -1.439363,-2.86767 -2.351888,-6.145047 -2.83879,-9.735778 -0.158021,-1.277774 -0.280365,-2.583473 -0.301784,-3.864375 -0.03053,-1.825264 0.146376,-3.541185 0.677183,-5.110794 0.354282,-0.984067 0.75757,-1.848277 1.369102,-2.321072 0.475521,-0.451099 1.263918,-0.635313 1.999653,-0.583958 1.361122,0.07374 2.654342,0.969118 3.432562,2.085542 0.98265,1.375596 1.54159,3.229389 2.06344,4.914507 0.58218,1.95899 0.97736,3.622991 1.83528,5.397855 0.35295,0.752343 0.82761,1.476208 1.48196,2.07573 0.68139,0.606181 1.51927,0.925301 2.34316,0.971606 1.41232,0.0559 2.61538,-0.860467 3.49228,-1.490843 0.17662,-0.130949 0.51441,-0.484829 0.51441,-0.484829 -0.10917,-0.462845 -0.21933,-0.913065 -0.33124,-1.356816 0,0 -0.61331,0.458197 -0.95114,0.634484 -0.70182,0.373213 -1.60882,1.038826 -2.56974,0.889725 -0.40226,-0.05942 -0.81523,-0.28029 -1.11883,-0.610942 -0.35676,-0.362197 -0.61152,-0.884235 -0.87837,-1.516307 -0.63801,-1.569219 -0.86019,-3.059195 -1.38382,-5.169673 -0.41168,-1.750053 -0.9758,-3.854388 -2.18122,-5.785527 -1.14101,-1.783506 -3.08049,-3.179202 -5.456746,-3.479165 -0.178812,-0.0206 -0.358591,-0.03065 -0.539789,-0.0343 z"
     sodipodi:nodetypes="sccsccccccsccccccsccccccccccccccccccss" /><path
     id="path8"
     style="fill:#2f2f2f;fill-opacity:1;stroke-width:0.961163"
     d="m 64.497512,35.973709 c -0.536121,0.279134 -0.828144,0.931054 -0.643893,1.538642 0.203057,0.698351 0.940074,1.098032 1.63448,0.887451 l 6.811427,-2.027316 c 0.08304,-0.0245 0.163222,-0.05553 0.238382,-0.09497 0.541196,-0.283531 0.824589,-0.93025 0.649822,-1.538039 -0.199112,-0.690813 -0.93476,-1.091437 -1.629154,-0.880868 l -6.817519,2.019276 c -0.08567,0.02399 -0.166928,0.05603 -0.243671,0.09547 z m 8.730179,1.959441 c -0.03806,0.02098 -0.07462,0.04497 -0.110674,0.07098 l -5.817322,4.092318 c -0.591634,0.424983 -0.739316,1.240263 -0.314346,1.831884 0.382371,0.546912 1.103735,0.714619 1.682505,0.41134 0.06017,-0.03128 0.104644,-0.05439 0.149379,-0.09698 l 5.817322,-4.092318 c 0.588053,-0.413513 0.731804,-1.236318 0.314346,-1.831897 -0.398413,-0.55465 -1.153445,-0.711528 -1.721298,-0.385386 z m 3.994885,3.460246 c -0.11595,0.05703 -0.225594,0.131126 -0.324158,0.224137 l -5.145139,4.900199 c -0.529337,0.507303 -0.555529,1.335485 -0.05213,1.857297 0.42208,0.439869 1.061149,0.525481 1.564747,0.26161 0.105272,-0.05515 0.202906,-0.124115 0.299899,-0.213282 l 5.145139,-4.900212 c 0.533282,-0.499778 0.548005,-1.331553 0.05213,-1.857298 -0.412182,-0.430082 -1.038148,-0.519677 -1.540488,-0.272451 z" /></g></svg>
