<?xml version="1.0" encoding="UTF-8" standalone="no"?>
<svg
   width="128"
   height="128"
   version="1.1"
   id="svg30661"
   sodipodi:docname="emoji_u1f98b.svg"
   inkscape:version="1.2.2 (732a01da63, 2022-12-09)"
   xmlns:inkscape="http://www.inkscape.org/namespaces/inkscape"
   xmlns:sodipodi="http://sodipodi.sourceforge.net/DTD/sodipodi-0.dtd"
   xmlns="http://www.w3.org/2000/svg"
   xmlns:svg="http://www.w3.org/2000/svg">
  <defs
     id="defs30665" />
  <sodipodi:namedview
     id="namedview30663"
     pagecolor="#ffffff"
     bordercolor="#000000"
     borderopacity="0.25"
     inkscape:showpageshadow="2"
     inkscape:pageopacity="0.0"
     inkscape:pagecheckerboard="0"
     inkscape:deskcolor="#d1d1d1"
     showgrid="false"
     inkscape:zoom="2.9996795"
     inkscape:cx="55.339245"
     inkscape:cy="55.339245"
     inkscape:window-width="1366"
     inkscape:window-height="697"
     inkscape:window-x="-8"
     inkscape:window-y="-8"
     inkscape:window-maximized="1"
     inkscape:current-layer="svg30661" />
  <path
     d="M59.42 54.76c-.38-1-9.26-17.5-29-28.2-4.33-2.35-16.77-9.83-24.28-4.43-5.67 3.47-.97 11.38 2.63 15.86 3.48 4.33 5.54 7.58 6.71 13.05 1.18 5.51 3.28 12.96 9.54 14.56 2.9.74 5.9-.12 8.75-.67 2.31-.45 6.28-1.69 6.91-.72 1.42 2.3-18.41 8.42-20.02 15.65-1.92 8.62 3.15 11.81 6.83 16.23 3.44 4.66 1.59 8.96 6.08 10.96 5.86 2.6 12.9-2.11 15.83-6.76 4.39-6.98 5.06-11.52 8.34-19.06 1.1-2.53 3.27-7.89 4.09-10.53.41-1.34.97-3.5.96-5.25-.21-4.35-2.75-9.05-3.37-10.69z"
     fill="#8b5940"
     id="path30637"
     style="fill:#2f2f2f;fill-opacity:1" />
  <path
     d="M48.92 44.89c-3.33-3.86-6.83-6.96-11.67-9.46-2.03-1.05-8.14-.22-6.57 4.16.83 2.32 9.01 7.16 12.01 9.16 4.65 3.1 14.05 11.35 14.73 10.95 1.86.3-5.15-10.93-8.5-14.81zM42.55 53.24c-2.94-2.18-6.48-4.69-10.33-4.48-2.67.14-5.34 2.25-3.82 5.08 1.96 3.65 7.52 4.91 11.18 5.78 4.87 1.15 14.76 4.02 14.76 2.86.24-1.15-8.44-6.76-11.79-9.24zM28.36 29.15c-2.86.32-6.36 1.14-7.38 4.31-.68 2.12.29 5.21 2.8 5.53 1.84.23 2.56-1.27 3.25-2.65.87-1.75 2.39-2.8 3.67-4.21 1.98-2.17-.25-2.98-2.34-2.98zM9.79 25.22c1.96-.92 3.48-.84 5.94-.38 1.11.21 4.25.89 4.55 2.28.23 1.06-2.27 2.38-2.87 3.07-.99 1.13-1.5 2.39-2.12 3.75-1.01 2.21-4.73-2.04-5.12-2.62-.51-.75-1.67-2.79-1.58-3.82.06-.77.5-1.86 1.2-2.28zM21.54 42.17c1.9.45 4.48.28 6.15 1.4 2.45 1.64-2.79 4.35-4.14 4.86-5.34 2.01-9.54-7.01-7.87-9.78 1.34-2.28 3.82 3.04 5.86 3.52zM20.38 51.97c.93-1.36 5.45-1.15 4.98 1.94-.45 3-4.23 4.85-5.33 1.22-.33-1.08-.28-2.2.35-3.16zM23.68 60.34c.45-1.82 6.7-3.42 7.37.31.55 3.04-3.23 2.63-5.48 2.2-1.47-.28-2.24-1.28-1.89-2.51z"
     fill="#f3693b"
     id="path30639" />
  <path
     d="M54.18 69.81c1.3-2.73-10.58 3.96-14.2 7.48-2.66 2.59-5.26 5.5-4.35 9.28.27 1.13.89 2.37 2.09 2.68 1.28.33 2.57-.51 3.51-1.3 3.16-2.64 5.23-6.63 7.31-10.13 1.69-2.84 3.42-5.56 5.64-8.01zM47.64 68.87c2.83-1.52-13.74.87-15.51 6.75-.33 1.08-.19 2.46 1.26 1.95 1.96-.68 3.69-2.55 5.34-3.74 2.78-2 5.8-3.53 8.91-4.96zM54.64 75.87c-1.89 3.38-3 4.9-5.41 8.26-1.78 2.47-3.37 5.44-3.73 8.51-.29 2.44 2.06 1.9 3.11.42 1.9-2.67 3.38-5.73 4.47-8.8.96-2.75 3.25-10.76 1.56-8.39zM24.2 80.37c1.2-2.08 6.46-3.24 6.78.66.23 2.85-1.48 4.71-4.07 4.52-.97-.13-4.13-2.8-2.71-5.18zM27.1 89.17c.14-1.32 2.2-1.52 3.59-1.29 1.24.21 1.8 1.28 1.44 2.45-.32 1.06-.99 2.4-2.14 2.42-1.34.03-2.89-2.07-2.89-3.58zM34.29 94.03c1.04-1.22 4.92-2.73 6.09-.52.87 1.65-.9 4.5-1.37 6.2-.44 1.57-1.28 2.11-2.9 1.79-1.58-.32-2.56-1.15-3.35-2.65-.99-1.87.43-3.45 1.53-4.82zM42.57 98.2c-.85.47-.99 2.06-.44 3.12.51.99 1.8.75 2.55.21.79-.57 1.54-1.82 1.02-2.8-.52-.98-2.15-.91-3.13-.53z"
     fill="#ffc148"
     id="path30641" />
  <path
     d="m 68.58,54.76 c 0.38,-1 9.26,-17.5 29,-28.2 4.33,-2.35 16.77,-9.83 24.28,-4.43 5.67,3.47 0.98,11.39 -2.63,15.86 -3.48,4.33 -5.54,7.58 -6.71,13.05 -1.18,5.51 -3.28,12.96 -9.54,14.56 -2.9,0.74 -5.9,-0.12 -8.75,-0.67 -2.31,-0.45 -6.28,-1.69 -6.91,-0.72 -1.42,2.3 18.41,8.42 20.02,15.65 1.92,8.62 -3.15,11.81 -6.83,16.23 -3.44,4.66 -1.59,8.96 -6.08,10.96 -5.86,2.6 -12.9,-2.11 -15.83,-6.76 C 74.21,93.31 73.54,88.77 70.26,81.23 69.16,78.7 66.99,73.34 66.17,70.7 65.76,69.36 65.2,67.2 65.21,65.45 65.42,61.1 67.96,56.4 68.58,54.76 Z"
     fill="#8b5940"
     id="path30643"
     style="fill:#2f2f2f;fill-opacity:1" />
  <path
     d="m 79.08,44.89 c 3.33,-3.86 6.83,-6.96 11.67,-9.46 2.03,-1.05 8.14,-0.22 6.57,4.16 -0.83,2.32 -9.01,7.16 -12.01,9.16 -4.65,3.1 -14.05,11.35 -14.73,10.95 -1.86,0.3 5.15,-10.93 8.5,-14.81 z m 6.37,8.35 c 2.94,-2.18 6.48,-4.69 10.33,-4.48 2.67,0.14 5.34,2.25 3.82,5.08 -1.96,3.65 -7.52,4.91 -11.18,5.78 -4.87,1.15 -14.76,4.02 -14.76,2.86 -0.24,-1.15 8.44,-6.76 11.79,-9.24 z M 99.64,29.15 c 2.86,0.32 6.36,1.14 7.38,4.31 0.68,2.12 -0.29,5.21 -2.8,5.53 -1.84,0.23 -2.56,-1.27 -3.25,-2.65 -0.87,-1.75 -2.39,-2.8 -3.67,-4.21 -1.98,-2.17 0.25,-2.98 2.34,-2.98 z m 18.57,-3.93 c -1.96,-0.92 -3.48,-0.84 -5.94,-0.38 -1.11,0.21 -4.25,0.89 -4.55,2.28 -0.23,1.06 2.27,2.38 2.87,3.07 0.99,1.13 1.5,2.39 2.12,3.75 1.01,2.21 4.73,-2.04 5.12,-2.62 0.51,-0.75 1.67,-2.79 1.58,-3.82 -0.06,-0.77 -0.5,-1.86 -1.2,-2.28 z m -11.75,16.95 c -1.9,0.45 -4.48,0.28 -6.15,1.4 -2.45,1.64 2.79,4.35 4.14,4.86 5.34,2.01 9.54,-7.01 7.87,-9.78 -1.34,-2.28 -3.82,3.04 -5.86,3.52 z m 1.16,9.8 c -0.93,-1.36 -5.45,-1.15 -4.98,1.94 0.45,3 4.23,4.85 5.33,1.22 0.33,-1.08 0.28,-2.2 -0.35,-3.16 z m -3.3,8.37 c -0.45,-1.82 -6.7,-3.42 -7.37,0.31 -0.55,3.04 3.23,2.63 5.48,2.2 1.47,-0.28 2.24,-1.28 1.89,-2.51 z"
     fill="#f3693b"
     id="path30645" />
  <path
     d="m 73.82,69.81 c -1.3,-2.73 10.58,3.96 14.2,7.48 2.66,2.59 5.26,5.5 4.35,9.28 -0.27,1.13 -0.89,2.37 -2.09,2.68 -1.28,0.33 -2.57,-0.51 -3.51,-1.3 -3.16,-2.64 -5.23,-6.63 -7.31,-10.13 -1.69,-2.84 -3.42,-5.56 -5.64,-8.01 z m 6.54,-0.94 c -2.83,-1.52 13.74,0.87 15.51,6.75 0.33,1.08 0.19,2.46 -1.26,1.95 -1.96,-0.68 -3.69,-2.55 -5.34,-3.74 -2.78,-2 -5.8,-3.53 -8.91,-4.96 z m -7,7 c 1.89,3.38 3,4.9 5.41,8.26 1.78,2.47 3.37,5.44 3.73,8.51 0.29,2.44 -2.06,1.9 -3.11,0.42 -1.9,-2.67 -3.38,-5.73 -4.47,-8.8 -0.96,-2.75 -3.25,-10.76 -1.56,-8.39 z m 30.44,4.5 c -1.2,-2.08 -6.46,-3.24 -6.78,0.66 -0.23,2.85 1.48,4.71 4.07,4.52 0.97,-0.13 4.13,-2.8 2.71,-5.18 z m -2.9,8.8 c -0.14,-1.32 -2.2,-1.52 -3.59,-1.29 -1.24,0.21 -1.8,1.28 -1.44,2.45 0.32,1.06 0.99,2.4 2.14,2.42 1.34,0.03 2.89,-2.07 2.89,-3.58 z m -7.19,4.86 c -1.04,-1.22 -4.92,-2.73 -6.09,-0.52 -0.87,1.65 0.9,4.5 1.37,6.2 0.44,1.57 1.28,2.11 2.9,1.79 1.58,-0.32 2.56,-1.15 3.35,-2.65 0.99,-1.87 -0.43,-3.45 -1.53,-4.82 z m -8.28,4.17 c 0.85,0.47 0.99,2.06 0.44,3.12 -0.51,0.99 -1.8,0.75 -2.55,0.21 -0.79,-0.57 -1.54,-1.82 -1.02,-2.8 0.52,-0.98 2.15,-0.91 3.13,-0.53 z"
     fill="#ffc148"
     id="path30647" />
  <g
     fill="#8b5940"
     id="g30655"
     style="fill:#2f2f2f;fill-opacity:1">
    <ellipse
       cx="64"
       cy="52.36"
       rx="2.93"
       ry="2.98"
       id="ellipse30651"
       style="fill:#2f2f2f;fill-opacity:1" />
    <path
       d="M66.93 62.74c0 10.55 0 29.63-2.93 29.63s-2.93-19.08-2.93-29.63 1.31-8.59 2.93-8.59 2.93-1.96 2.93 8.59z"
       id="path30653"
       style="fill:#2f2f2f;fill-opacity:1" />
  </g>
  <g
     fill="#8b5940"
     id="g30659"
     style="fill:#2f2f2f;fill-opacity:1">
    <path
       d="M 63.67062,50.704307 C 63.448367,49.940443 60.35,34.72 49.58,27.76 c -0.04,-0.03 -1.05,-0.72 -2.23,-0.72 -1.16,0 -2.39,1.16 -2.39,2.32 0,1.16 0.94,2.11 2.11,2.11 0.75,0 1.81,-1 2.49,-0.4 9.29,5.99 12.254275,20.30203 12.30657,20.478307 0.14381,0.528829 1.987082,-0.209405 1.80405,-0.844 z m 0.658481,0 C 64.551354,49.940443 67.65,34.72 78.42,27.76 c 0.04,-0.03 1.05,-0.72 2.23,-0.72 1.16,0 2.39,1.16 2.39,2.32 0,1.16 -0.94,2.11 -2.11,2.11 -0.75,0 -1.81,-1 -2.49,-0.4 -9.29,5.99 -12.25443,20.30203 -12.306725,20.478307 -0.14381,0.528829 -1.987206,-0.209405 -1.804174,-0.844 z"
       id="path30657"
       style="fill:#2f2f2f;fill-opacity:1"
       sodipodi:nodetypes="ccssscccccsssccc" />
  </g>
</svg>
