<?xml version="1.0" encoding="UTF-8" standalone="no"?>
<svg
   width="128"
   height="128"
   style="enable-background:new 0 0 128 128;"
   version="1.1"
   id="svg86493"
   sodipodi:docname="emoji_u1f354.svg"
   inkscape:version="1.2.2 (732a01da63, 2022-12-09)"
   xmlns:inkscape="http://www.inkscape.org/namespaces/inkscape"
   xmlns:sodipodi="http://sodipodi.sourceforge.net/DTD/sodipodi-0.dtd"
   xmlns="http://www.w3.org/2000/svg"
   xmlns:svg="http://www.w3.org/2000/svg">
  <defs
     id="defs86497" />
  <sodipodi:namedview
     id="namedview86495"
     pagecolor="#ffffff"
     bordercolor="#000000"
     borderopacity="0.25"
     inkscape:showpageshadow="2"
     inkscape:pageopacity="0.0"
     inkscape:pagecheckerboard="0"
     inkscape:deskcolor="#d1d1d1"
     showgrid="false"
     inkscape:zoom="2.9996795"
     inkscape:cx="22.169035"
     inkscape:cy="48.338497"
     inkscape:window-width="1366"
     inkscape:window-height="697"
     inkscape:window-x="-8"
     inkscape:window-y="-8"
     inkscape:window-maximized="1"
     inkscape:current-layer="svg86493" />
  <path
     d="m 15.91829,114.87141 c -1.478097,-1.33986 -2.881758,-2.92429 -4.264151,-4.92345 C 7.1028768,103.41882 3.5192892,89.275875 8.1768897,82.108699 12.090125,76.068706 19.778356,72.846667 26.626517,70.677374 c 14.408787,-4.561896 29.498136,-4.987248 44.544951,-3.998305 15.823081,1.042111 37.101292,3.275207 44.832062,18.641035 2.3288,4.593798 1.52063,10.559355 0.43599,15.355196 -3.07317,13.63252 -16.09956,22.4373 -30.125534,24.74483 -14.983012,2.47767 -32.252288,3.60486 -47.139596,0.27648 -7.858371,-1.74394 -17.333079,-5.46577 -23.2561,-10.8252 z"
     style="fill:#f79329;stroke-width:1"
     id="path86441" />
  <path
     d="m 16.16,70.151179 c -2.76,1.39 -7,3.91 -8.63,6.68 -1.08,1.85 -1.19,2.9 -1.19,5.12 0,3.98 1.48,6.12 5.11,7.61 6.48,2.67 9.35,-0.46 10.55,7.74 0.86,5.840001 7.46,7.940001 12.51,6.240001 2.71,-0.9 4.57,-3.01 7.58,-2.84 3.94,0.22 6.17,3.01 9.3,4.95 2.38,1.47 5.01,1.9 7.78,1.68 2.41,-0.2 4.5,-1.66 6.43,-3.04 5.03,-3.63 9.59,-0.4 14.76,0.81 7.03,1.63 11.06,-2.73 15.28,-7.890001 2.48,-3.03 4.9,-3.09 8.76,-2.96 3.13,0.1 4.85,-0.66 6.42,-3.48 1.51,-2.69 0.69,-7.15 3.54,-9 2.3,-1.5 4.41,-1.58 6.17,-4.18 4.26,-6.28 -0.98,-11.97 -5.92,-15.36 -3.7,-2.52 -8.2,-4.97 -12.79,-5.14 -9.05,-0.34 -17.76,2.56 -26.56,4.24 -10.04,1.89 -20.07,3.99 -30.25,4.94 -9.63,0.91 -19.9,-0.61 -28.85,3.88 z"
     style="fill:#bdcf46"
     id="path86443" />
  <path
     d="m 7.93,64.306998 c 0.13,3.05 0.77,6.17 1.78,9.19 4.7,14.05 19.43,20.26 33.38,21.56 23.05,2.15 65.29,3.57 72.59,-26.03 3.3,-13.36 -8.42,-28.12 -20.97,-32.29 -23.34,-7.75 -55.84,-10.55 -76.06,6.67 -5.04,4.3 -11.01,13.97 -10.72,20.9 z"
     style="fill:#ed6c30"
     id="path86449" />
  <path
     d="m 9.41,54.955912 c 0.12,3.05 0.74,6.17 1.73,9.19 4.58,14.05 18.89,20.26 32.47,21.56 22.41,2.16 63.51,3.56 70.61,-26.03 3.21,-13.36 -8.19,-28.12 -20.4,-32.29 -22.71,-7.75 -54.32,-10.55 -73.99,6.67 -4.9,4.3 -10.7,13.98 -10.42,20.9 z"
     style="fill:#855c52"
     id="path86455" />
  <path
     style="fill:#fcc21b;fill-opacity:1;stroke-width:0.999994;stroke-linecap:round"
     d="m 10.670876,38.630162 c 0,0 -8.8064402,13.650003 -8.8064402,17.112696 0,4.064929 22.5187092,12.457537 33.1024242,19.002538 10.583715,6.545003 22.388486,13.700092 27.985043,13.700092 5.718885,0 16.424161,-6.901564 26.383135,-13.301496 9.958973,-6.399933 31.500512,-14.592253 31.500512,-19.213366 0,-4.575061 -9.16494,-17.701086 -9.16494,-17.701086 z"
     id="path86724"
     sodipodi:nodetypes="cssssscc" />
  <path
     d="m 14.5,16.73 c -1.52,1.44 -2.98,3.17 -4.4,5.31 -4.7,7.06 -8.38,22.35 -3.6,30.11 4.04,6.52 11.96,10 19.01,12.34 14.86,4.93 30.4,5.39 45.91,4.32 16.3,-1.12 38.24,-3.53 46.2,-20.14 3.26,-6.79 0.46,-20.54 -3.17,-26.73 C 109.92,14.2 101.63,9.5 93.42,6.38 76.85,0.08 56.99,-1.91 39.78,2.9 30.83,5.39 21.26,10.3 14.5,16.73 Z"
     style="fill:#f79329"
     id="path86465" />
  <g
     id="g86487"
     style="fill:#ffe082;fill-opacity:1;stroke-width:0.837081"
     transform="matrix(1.1946276,0,0,1.1946276,-13.305019,-3.3894812)">
    <path
       d="m 54.2,13.93 c 0,-0.04 0,-0.09 0,-0.14 0,-2.43 2.9,-3.31 4.9,-3.22 2.87,0.14 5.2,3.35 1.75,5.17 -1.73,0.89 -6.65,1.17 -6.65,-1.81 z"
       style="fill:#ffe082;fill-opacity:1;stroke-width:0.837081"
       id="path86467" />
    <path
       d="m 60.33,25.41 c 0,-0.05 0,-0.1 0.01,-0.14 0.22,-2.42 3.2,-3.04 5.18,-2.76 2.85,0.41 4.87,3.81 1.27,5.3 -1.8,0.74 -6.72,0.56 -6.46,-2.4 z"
       style="fill:#ffe082;fill-opacity:1;stroke-width:0.837081"
       id="path86469" />
    <path
       d="m 70.02,15.78 c 0.01,-0.05 0.01,-0.09 0.01,-0.14 0.33,-2.41 3.32,-2.9 5.28,-2.54 2.84,0.52 4.72,4.01 1.05,5.35 -1.82,0.67 -6.73,0.28 -6.34,-2.67 z"
       style="fill:#ffe082;fill-opacity:1;stroke-width:0.837081"
       id="path86471" />
    <path
       d="m 45.71,24.73 c -0.07,-0.25 -0.11,-0.5 -0.1,-0.79 0.06,-1.85 1.77,-2.83 3.81,-3.06 2.66,-0.3 5.75,1.65 3.94,4.01 -1.69,2.21 -6.86,2.37 -7.65,-0.16 z"
       style="fill:#ffe082;fill-opacity:1;stroke-width:0.837081"
       id="path86473" />
    <path
       d="m 76.43,26.15 c -0.65,-1.64 0.22,-3.5 4.09,-3.5 2.5,0.01 4.54,2.68 2.54,4.69 -2.65,2.63 -5.82,0.89 -6.63,-1.19 z"
       style="fill:#ffe082;fill-opacity:1;stroke-width:0.837081"
       id="path86475" />
    <path
       d="m 88.4,19.53 c -0.05,-2.54 3.52,-2.33 5.07,-1.68 1.05,0.44 1.95,1.29 1.96,2.49 0.01,0.9 -0.7,2.39 -1.65,2.62 -1.77,0.44 -5.19,-1.32 -5.37,-3.23 0,-0.06 0,-0.13 -0.01,-0.2 z"
       style="fill:#ffe082;fill-opacity:1;stroke-width:0.837081"
       id="path86477" />
    <path
       d="m 77.030096,36.066227 c -0.06,-2.54 3.52,-2.33 5.06,-1.69 1.05,0.44 1.95,1.29 1.97,2.49 0.01,0.9 -0.71,2.39 -1.66,2.62 -1.76,0.44 -5.18,-1.32 -5.36,-3.23 -0.01,-0.06 -0.01,-0.13 -0.01,-0.19 z"
       style="fill:#ffe082;fill-opacity:1;stroke-width:0.837081"
       id="path86479" />
    <path
       d="m 48.882733,38.249057 c -0.15,-0.59 -0.01,-1.33 0.58,-2.23 0.67,-1.05 2.21,-1.46 3.38,-1.61 1.13,-0.15 2.34,0.13 2.95,1.16 2.75,4.61 -6.13,5.74 -6.91,2.68 z"
       style="fill:#ffe082;fill-opacity:1;stroke-width:0.837081"
       id="path86481" />
    <path
       d="m 31.07,29.53 c -0.15,-0.58 0,-1.33 0.58,-2.23 0.68,-1.04 2.21,-1.46 3.38,-1.61 1.14,-0.15 2.34,0.13 2.96,1.17 2.74,4.6 -6.14,5.73 -6.92,2.67 z"
       style="fill:#ffe082;fill-opacity:1;stroke-width:0.837081"
       id="path86483"
       sodipodi:nodetypes="ccccc" />
    <path
       d="m 35.639307,40.548154 c -0.158031,-0.61105 0,-1.401202 0.61105,-2.349384 0.716403,-1.095676 2.328313,-1.538162 3.560949,-1.696192 1.20103,-0.158029 2.465272,0.13696 3.118465,1.232636 2.886685,4.846263 -6.468707,6.036757 -7.290464,2.81294 z"
       style="fill:#ffe082;fill-opacity:1;stroke-width:0.999999"
       id="path91983" />
    <path
       d="m 95.655233,30.484591 c 0.142154,0.549659 0,1.260427 -0.549659,2.113347 -0.644428,0.985598 -2.094395,1.383628 -3.203191,1.525781 -1.080366,0.142153 -2.217593,-0.1232 -2.805161,-1.108797 -2.596665,-4.359372 5.818814,-5.430261 6.558011,-2.530331 z"
       style="fill:#ffe082;fill-opacity:1;stroke-width:1.19463"
       id="path91983-1" />
    <path
       d="m 70.856201,40.51106 c 0.158655,-0.598736 0,-1.372965 -0.613462,-2.302038 -0.719232,-1.073598 -2.337507,-1.507165 -3.57501,-1.662011 -1.205772,-0.154845 -2.475005,0.1342 -3.130777,1.207796 -2.898079,4.7486 6.494248,5.915103 7.319249,2.756253 z"
       style="fill:#ffe082;fill-opacity:1;stroke-width:1.42714"
       id="path91983-1-3" />
    <path
       d="m 38.56,16.78 c -0.16,-0.59 0,-1.33 0.58,-2.23 0.67,-1.05 2.21,-1.46 3.38,-1.61 1.14,-0.15 2.34,0.13 2.96,1.17 2.74,4.6 -6.13,5.72 -6.92,2.67 z"
       style="fill:#ffe082;fill-opacity:1;stroke-width:0.837081"
       id="path86485" />
  </g>
</svg>
