<?xml version="1.0" encoding="UTF-8" standalone="no"?>
<svg
   width="100%"
   height="100%"
   viewBox="0 0 128 128"
   version="1.1"
   xml:space="preserve"
   style="fill-rule:evenodd;clip-rule:evenodd;stroke-linecap:round;stroke-miterlimit:10;"
   id="svg5156"
   sodipodi:docname="emoji_u1f9f8.svg"
   inkscape:version="1.2.2 (732a01da63, 2022-12-09)"
   xmlns:inkscape="http://www.inkscape.org/namespaces/inkscape"
   xmlns:sodipodi="http://sodipodi.sourceforge.net/DTD/sodipodi-0.dtd"
   xmlns="http://www.w3.org/2000/svg"
   xmlns:svg="http://www.w3.org/2000/svg"><defs
   id="defs5160">
        
        
        
        
        
        
        
        
        
        
    <path
   id="path7535"
   d="m 16.05,30.12 c 8.79,-6.21 20.5,-3.79 28.5,2.48 1.1,0.86 2.2,1.83 2.89,3.07 1.3,2.32 0.79,3.1 -0.03,5.4 -0.25,0.7 -0.24,2.34 -1,2.59 -1.24,0.4 -2.95,-0.98 -4.06,-1.35 -1.89,-0.63 -3.83,-1.09 -5.77,-1.52 -1.8,-0.39 -2.42,2.07 -0.75,2.72 2.28,0.89 4.43,2.11 6.4,3.55 0.94,0.69 1.77,1.51 2.71,2.19 0.82,0.59 1.2,1.38 0.98,2.37 -0.21,0.99 -0.25,1.97 -0.19,2.97 0.07,1.05 0.43,5.16 0.43,5.16 0,0 -8.43,-4.21 -15.39,-6.59 -5.64,-1.93 -13.01,-2.87 -17.04,-2.56 -6.22,0.47 -6.6,4.94 -6.6,4.94 0,0 -1.63,-4.23 0.75,-13.21 1.19,-4.49 4.44,-9.56 8.17,-12.21 z" /><path
   id="path7549"
   d="m 73.15,62.13 c -4.11,4 -14.25,6.33 -18.97,2.28 -3.57,-3.07 -4.08,-9.96 -3.2,-14.24 0.8,-3.89 0.8,-8.05 4.22,-10.82 2.39,-0.75 5.43,-0.51 7.63,-0.51 5.7,-0.02 9.02,0.08 11.65,5.47 2.56,5.27 2.24,12.99 -1.33,17.82 z" /><path
   id="path8026"
   d="m 16.05,30.12 c 8.79,-6.21 20.5,-3.79 28.5,2.48 1.1,0.86 2.2,1.83 2.89,3.07 1.3,2.32 0.79,3.1 -0.03,5.4 -0.25,0.7 -0.24,2.34 -1,2.59 -1.24,0.4 -2.95,-0.98 -4.06,-1.35 -1.89,-0.63 -3.83,-1.09 -5.77,-1.52 -1.8,-0.39 -2.42,2.07 -0.75,2.72 2.28,0.89 4.43,2.11 6.4,3.55 0.94,0.69 1.77,1.51 2.71,2.19 0.82,0.59 1.2,1.38 0.98,2.37 -0.21,0.99 -0.25,1.97 -0.19,2.97 0.07,1.05 0.43,5.16 0.43,5.16 0,0 -8.43,-4.21 -15.39,-6.59 -5.64,-1.93 -13.01,-2.87 -17.04,-2.56 -6.22,0.47 -6.6,4.94 -6.6,4.94 0,0 -1.63,-4.23 0.75,-13.21 1.19,-4.49 4.44,-9.56 8.17,-12.21 z" /></defs><sodipodi:namedview
   id="namedview5158"
   pagecolor="#ffffff"
   bordercolor="#000000"
   borderopacity="0.25"
   inkscape:showpageshadow="2"
   inkscape:pageopacity="0.0"
   inkscape:pagecheckerboard="0"
   inkscape:deskcolor="#d1d1d1"
   showgrid="false"
   inkscape:zoom="2.1210938"
   inkscape:cx="49.974217"
   inkscape:cy="62.703499"
   inkscape:window-width="1366"
   inkscape:window-height="697"
   inkscape:window-x="-8"
   inkscape:window-y="-8"
   inkscape:window-maximized="1"
   inkscape:current-layer="svg5156" />
    <path
   d="m 113.95,98.69 c -2.66,-4.98 -7.67,-6.19 -13.15,-5.06 -0.1,0.02 -0.22,0.05 -0.34,0.09 1.57,-2.83 2.78,-5.6 2.97,-10.71 C 103.88,70.43 98.69,64.25 93.31,59.68 82.16,50.21 49.93,53.33 49.43,53.35 c -4.14,0.17 -9.91,2.7 -13.04,5.46 -6.9,6.01 -12.22,14.48 -12.61,23.82 -0.21,3.38 0.38,7.39 1.99,10.63 -4.33,-0.54 -8.91,0.95 -11.77,6.05 -2.32,4.13 -1.66,9.19 0.86,13.85 3.41,6.32 11.16,12.29 18.83,10.52 7.78,-1.79 14.53,-9.5 21.4,-13.57 0.49,-0.29 1.07,-0.39 1.64,-0.33 4.28,0.49 10.3,0.49 14.08,0.08 0.79,-0.08 1.57,0.18 2.13,0.73 0.71,0.7 1.42,1.36 1.68,1.6 4.31,3.97 9.24,8.26 14.72,10.45 9.28,3.7 18.49,-0.44 23.48,-9.3 2.62,-4.66 3.77,-9.72 1.13,-14.65 z"
   style="fill:#855c52;fill-rule:nonzero"
   id="path5102" /><path
   d="m 113.95,98.69 c -2.66,-4.98 -7.67,-6.19 -13.15,-5.06 -0.1,0.02 -0.22,0.05 -0.34,0.09 1.57,-2.83 2.78,-5.6 2.97,-10.71 C 103.88,70.43 98.69,64.25 93.31,59.68 82.16,50.21 49.93,53.33 49.43,53.35 c -4.14,0.17 -9.91,2.7 -13.04,5.46 -6.9,6.01 -12.22,14.48 -12.61,23.82 -0.21,3.38 0.38,7.39 1.99,10.63 -4.33,-0.54 -8.91,0.95 -11.77,6.05 -2.32,4.13 -1.66,9.19 0.86,13.85 3.41,6.32 11.16,12.29 18.83,10.52 7.78,-1.79 14.53,-9.5 21.4,-13.57 0.49,-0.29 1.07,-0.39 1.64,-0.33 4.28,0.49 10.3,0.49 14.08,0.08 0.79,-0.08 1.57,0.18 2.13,0.73 0.71,0.7 1.42,1.36 1.68,1.6 4.31,3.97 9.24,8.26 14.72,10.45 9.28,3.7 18.49,-0.44 23.48,-9.3 2.62,-4.66 3.77,-9.72 1.13,-14.65 z"
   style="fill:#855c52;fill-opacity:1;fill-rule:nonzero"
   id="path5104" /><path
   id="path9775"
   style="fill:#b89278;stroke-width:0.999998"
   d="M 79.03265,87.307797 C 78.214597,96.040351 73.791086,101.43709 63.758362,100.63491 53.725638,99.832725 50.042728,93.787829 50.860781,85.055278 c 0.818054,-8.73255 8.227848,-19.246359 15.66638,-18.651602 7.43853,0.594757 13.323543,12.171568 12.505489,20.904121 z"
   sodipodi:nodetypes="zzzzz" /><g
   id="g5108">
            <path
   d="m 84.86,105.17 c -0.44,0 -0.89,-0.04 -1.34,-0.12 -4.05,-0.75 -6.46,-4.78 -6.75,-8.38 -0.29,-3.64 1.11,-7.09 2.51,-9.98 0.25,-0.52 2.85,-5.29 3.55,-8.53 1.05,-4.89 0.17,-9.35 -0.14,-11.34 -0.31,-2 1.21,-1.66 1.87,-0.23 1.62,3.51 1.91,8.42 1.18,12.17 -0.67,3.43 -3.54,8.71 -3.79,9.23 -1.23,2.54 -2.46,5.52 -2.23,8.45 0.19,2.41 1.77,5.22 4.33,5.69 2.77,0.51 4.99,-0.49 7.33,-2.63 l 2.52,0.96 c -1.85,1.7 -5.16,4.71 -9.04,4.71 z"
   style="fill:#2f2f2f;fill-opacity:1;fill-rule:nonzero"
   id="path5106" />
        </g><path
   d="m 45.95,81.45 c -1.222956,-6.551557 3.182321,-14.82605 4.202321,-16.28105 1.02,-1.455 -0.07146,-3.606363 -1.961455,-1.691363 -1.89,1.915 -6.85658,9.324367 -5.160866,18.502413 0.400002,2.165009 1.56,8.03 0.75,10.99 -0.93,3.4 -3.95,6.13 -7.39,6.83 -1.86,-2.97 -4.65,-5.1 -7.73,-6.34 -3,-1.21 -7.31,-0.88 -9.76,0.91 2.64,-0.73 5.72,-0.56 8.3,0.67 3.59,1.7 5.81,4.03 7.84,8.98 0.67,1.63 1.2,4.23 2.75,3.78 0.89,-0.25 1.59,-1.15 1.25,-2.58 -0.36,-1.51 -0.9,-2.54 -0.9,-2.54 0,0 5.48,-0.94 8.51,-8.93 1.55,-4.1 -0.349996,-10.424976 -0.7,-12.3 z"
   style="fill:#2f2f2f;fill-opacity:1;fill-rule:nonzero"
   id="path5110"
   sodipodi:nodetypes="szzsccccccccccs" /><g
   id="g5114">
            <path
   d="m 91.44,107.55 c -0.29,0.54 -0.7,0.96 -1.29,0.95 -0.91,-0.01 -1.49,-1.08 -1.5,-2 -0.04,-7.24 7.89,-13.85 15.19,-13.26 -5.71,1.22 -9.93,5.88 -11.97,13.25 -0.1,0.35 -0.25,0.72 -0.43,1.06 z"
   style="fill:#2f2f2f;fill-opacity:1;fill-rule:nonzero"
   id="path5112" />
        </g><path
   d="m 16.2,106.55 c 0.03,-1.83 1.41,-4.49 3.13,-5.13 4.1,-1.55 8.56,0.32 11.03,5.93 2.04,4.64 2.24,9.51 1.37,10.82 -1.29,1.93 -3.17,1.62 -4.47,1.39 -2.37,-0.42 -4.43,-1.85 -6.29,-3.39 -1.89,-1.57 -4.85,-4.75 -4.77,-9.62 z"
   style="fill:#b89278;fill-opacity:1;fill-rule:nonzero"
   id="path5150" /><path
   d="m 111.76,106.47 c -0.06,-1.83 -1.48,-4.46 -3.2,-5.09 -4.12,-1.49 -8.56,0.44 -10.94,6.09 -1.97,4.67 -1.75,8.96 -1.48,9.87 0.84,2.81 3.47,2.54 4.76,2.29 2.36,-0.46 4.4,-1.92 6.24,-3.48 1.87,-1.58 4.77,-4.8 4.62,-9.68 z"
   style="fill:#b89278;fill-opacity:1;fill-rule:nonzero"
   id="path5152" />
<g
   id="g5297"
   transform="matrix(0.5075906,0.06535274,-0.06535274,0.5075906,40.986594,-2.6914257)"
   style="stroke-width:1.95396"><g
     id="g5291"
     style="stroke-width:1.95396"><path
       d="m 127.55,66.02 c -0.51,-8.7 -2.97,-17.53 -7.01,-25.55 0.14,-0.18 0.27,-0.37 0.4,-0.56 l 0.39,-0.56 c 0.9,-1.42 1.61,-2.95 2.24,-4.5 2.88,-7.21 2.94,-15.27 -0.69,-21.16 C 120.32,9.52 110.15,-1.29 94.11,7.84 90.33,10 86.82,10.14 84.82,9.98 78.14,7.95 71.03,6.91 63.98,6.92 56.3,6.9 48.55,8.13 41.35,10.54 39.33,10.68 35.88,10.49 32.2,8.39 16.16,-0.75 6,10.07 3.42,14.24 c -1.11,1.8 -1.94,4 -2.37,6.07 -0.79,3.95 -0.45,8.34 0.7,12.19 0.62,2.05 1.53,3.98 2.49,5.9 0.62,1.27 1.27,2.53 2.06,3.69 0.08,0.13 0.14,0.25 0.21,0.37 -3.46,7.48 -5.61,15.57 -6.07,23.56 -0.95,16.27 1.9,32.65 15.06,43.97 7.29,6.26 16.35,10.52 25.7,12.81 3.55,0.88 12.72,2.92 22.35,2.92 9.61,0 19.69,-2.04 23.24,-2.92 9.34,-2.29 18.41,-6.54 25.7,-12.81 13.16,-11.31 16.03,-27.7 15.06,-43.97 z"
       style="fill:#855c52;stroke-width:1.95396"
       id="path5279" /><ellipse
       cx="28.25"
       cy="70.800003"
       rx="6.7600002"
       ry="8.1000004"
       style="fill:#2f2f2f;stroke-width:1.95396"
       id="ellipse5281" /><path
       d="m 63.68,109.12 c -13.41,0 -24.26,-4.85 -24.26,-19.76 0,-14.92 10.85,-27.01 24.26,-27.01 13.4,0 24.28,12.09 24.28,27.01 0,14.91 -10.88,19.76 -24.28,19.76 z"
       style="fill:#b89278;stroke-width:1.95396;fill-opacity:1"
       id="path5283" /><path
       d="m 99.03,78.9 c -3.72,0 -6.76,-3.62 -6.76,-8.09 0,-4.48 3.04,-8.1 6.76,-8.1 3.74,0 6.77,3.63 6.77,8.1 0,4.47 -3.03,8.09 -6.77,8.09 z"
       style="fill:#2f2f2f;stroke-width:1.95396"
       id="path5285" /><path
       d="m 63.68,89.04 c 6.36,0 11.52,-4.15 11.52,-9.27 0,-5.13 -5.16,-9.27 -11.52,-9.27 -6.36,0 -11.5,4.15 -11.5,9.27 0,5.12 5.14,9.27 11.5,9.27 z"
       style="fill:#2f2f2f;stroke-width:1.95396"
       id="path5287" /><path
       d="m 73.94,94.87 c -0.13,0.18 -3.15,4.34 -10.26,4.34 -7.06,0 -10.09,-4.13 -10.23,-4.34 -0.7,-1 -2.07,-1.27 -3.09,-0.58 -1.02,0.69 -1.28,2.08 -0.59,3.09 0.17,0.26 4.36,6.27 13.91,6.27 9.56,0 13.75,-6.02 13.93,-6.27 0.68,-1.01 0.43,-2.37 -0.58,-3.07 -1,-0.69 -2.39,-0.43 -3.09,0.56 z"
       style="fill:#2f2f2f;stroke-width:1.95396"
       id="path5289" /></g><path
     d="m 29.62,21.2 c -1.27,1.34 -3.22,2.54 -4.15,3.38 -2.08,1.88 -3.65,4.35 -5.12,6.71 -2.13,3.41 -4.84,1.32 -6.3,-1.34 -0.17,-0.3 -0.32,-0.61 -0.46,-0.92 -0.54,-1.29 -0.83,-2.7 -0.83,-4.1 0,-5.69 4.55,-10.29 10.15,-10.29 1.92,0 4.21,0.75 5.91,1.77 0.17,0.1 0.38,0.19 0.53,0.3 2.21,1.48 1.63,3.06 0.27,4.49 z"
     style="fill:#b89278;stroke-width:1.95396"
     id="path5293" /><path
     d="m 113.71,29.03 c -0.05,0.12 -0.11,0.25 -0.18,0.38 -1.38,2.9 -4.31,5.52 -6.58,1.89 -1.48,-2.36 -3.04,-4.83 -5.12,-6.71 -0.93,-0.84 -2.89,-2.04 -4.16,-3.38 -1.35,-1.43 -1.93,-3.01 0.28,-4.49 0.27,-0.18 0.58,-0.34 0.9,-0.51 1.67,-0.91 3.76,-1.56 5.54,-1.56 5.61,0 10.15,4.6 10.15,10.29 -0.01,1.4 -0.28,2.8 -0.83,4.09 z"
     style="fill:#b89278;stroke-width:1.95396"
     id="path5295" /></g></svg>
