<?xml version="1.0" encoding="UTF-8" standalone="no"?>
<svg
   width="128"
   height="128"
   version="1.1"
   id="svg3"
   sodipodi:docname="emoji_u1f629.svg"
   xml:space="preserve"
   inkscape:version="1.3 (0e150ed6c4, 2023-07-21)"
   xmlns:inkscape="http://www.inkscape.org/namespaces/inkscape"
   xmlns:sodipodi="http://sodipodi.sourceforge.net/DTD/sodipodi-0.dtd"
   xmlns="http://www.w3.org/2000/svg"
   xmlns:svg="http://www.w3.org/2000/svg"><defs
     id="defs3" /><sodipodi:namedview
     id="namedview3"
     pagecolor="#ffffff"
     bordercolor="#000000"
     borderopacity="0.25"
     inkscape:showpageshadow="2"
     inkscape:pageopacity="0.0"
     inkscape:pagecheckerboard="0"
     inkscape:deskcolor="#d1d1d1"
     inkscape:zoom="8.515625"
     inkscape:cx="64"
     inkscape:cy="64"
     inkscape:current-layer="svg3" /><g
     id="g4"
     transform="translate(0.09668609,-3.1754688e-4)">&#10;	<g
   id="g2">&#10;		<path
   fill="#fcc21b"
   d="M 37.19,12.93 C 7.96,18.32 -7.12,44.37 3.47,72.89 7.78,84.51 2.53,85.86 2.53,92.26 c 0,13.53 27.93,24.49 62.38,24.49 34.45,0 62.38,-10.96 62.38,-24.49 4.57,-40.51 -27.22,-90.88 -90.1,-79.33 z"
   id="path1" />&#10;		<path
   fill="#ed6c30"
   d="m 82.12,89.01 c -0.73,7.74 -5.22,13.2 -15.16,13.26 -9.33,0.11 -12.26,-6.57 -19.98,-6.52 -8.21,0.02 -8.12,2.33 -14.57,3.22 -5.03,0.55 -9.96,-5.57 -10.83,-8.4 -1.59,-5.45 -2.74,-10.59 4.05,-14.4 6.46,-3.91 15.54,3.86 19.43,3.76 7.4,-0.03 12.31,-10.72 22.44,-9.36 9.48,1.27 14.85,11.22 14.62,18.44 z"
   id="path2" />&#10;	</g>&#10;	<path
   fill="#2f2f2f"
   d="m 75.67,63.66 c 1.68,-0.44 2.67,-2.14 2.24,-3.82 -0.44,-1.66 -2.13,-2.66 -3.8,-2.24 -0.52,0.14 -12.74,3.07 -20.89,-6.63 -1.11,-1.32 -3.08,-1.49 -4.41,-0.39 -1.31,1.11 -1.49,3.08 -0.37,4.41 5.55,6.6 12.44,8.73 17.92,9.24 5.13,0.46 8.99,-0.5 9.31,-0.57 z"
   id="path3" />&#10;	<path
   fill="#2f2f2f"
   d="m 16.38,70.27 c 0.4,1.21 1.53,1.99 2.75,1.99 0.29,0 0.61,-0.05 0.91,-0.16 C 33.93,67.51 33.8,56.45 33.78,55.98 33.75,54.38 32.5,53 30.83,53.17 c -1.59,0.05 -2.84,1.36 -2.81,2.93 0,0.36 -0.14,7.34 -9.8,10.52 -1.51,0.51 -2.34,2.14 -1.84,3.65 z"
   id="path4" />&#10;</g></svg>
