<?xml version="1.0" encoding="UTF-8" standalone="no"?>
<svg
   width="100%"
   height="100%"
   viewBox="0 0 128 128"
   version="1.1"
   xml:space="preserve"
   style="fill-rule:evenodd;clip-rule:evenodd;stroke-linejoin:round;stroke-miterlimit:1.41421;"
   id="svg15776"
   sodipodi:docname="emoji_u1fa90.svg"
   inkscape:version="1.2.2 (732a01da63, 2022-12-09)"
   xmlns:inkscape="http://www.inkscape.org/namespaces/inkscape"
   xmlns:sodipodi="http://sodipodi.sourceforge.net/DTD/sodipodi-0.dtd"
   xmlns="http://www.w3.org/2000/svg"
   xmlns:svg="http://www.w3.org/2000/svg"><defs
   id="defs15780">
        
        
    
        
        
    
        
        
    </defs><sodipodi:namedview
   id="namedview15778"
   pagecolor="#ffffff"
   bordercolor="#000000"
   borderopacity="0.25"
   inkscape:showpageshadow="2"
   inkscape:pageopacity="0.0"
   inkscape:pagecheckerboard="0"
   inkscape:deskcolor="#d1d1d1"
   showgrid="false"
   inkscape:zoom="4.2421875"
   inkscape:cx="69.893186"
   inkscape:cy="62.939227"
   inkscape:window-width="1366"
   inkscape:window-height="697"
   inkscape:window-x="-8"
   inkscape:window-y="-8"
   inkscape:window-maximized="1"
   inkscape:current-layer="svg15776" />
    <path
   id="circle19283"
   style="fill:#fcc21b;fill-opacity:1;stroke-width:1.26193"
   d="M 60.034189,49.199446 C 26.965753,58.060115 1.0281113,68.490686 4.123776,80.043775 L 14.167693,77.352516 C 12.440515,70.906672 34.265924,63.117135 61.787464,55.742757 89.308999,48.368378 112.10509,44.201628 113.83227,50.647472 l 10.04392,-2.69126 C 120.78053,36.403123 93.10262,40.338778 60.034189,49.199446 Z" /><circle
   cx="45.254822"
   cy="78.383713"
   r="37.303097"
   style="fill:#f79329;fill-opacity:1;stroke-width:1.26193"
   id="circle15748"
   transform="rotate(-15)" />
    
    
    
    
    
<path
   id="path24486"
   style="fill:#ec6c31;fill-opacity:1;stroke:none;stroke-width:5.66929;stroke-linecap:round"
   d="m 54.345324,27.968306 c -6.455984,1.755878 -12.320906,5.215769 -16.980261,10.017149 2.928034,1.541448 11.444035,4.889757 20.443694,2.478304 C 68.085955,37.709993 74.251635,29.929773 75.399782,28.491042 68.577524,26.2981 61.268001,26.11662 54.345324,27.968306 Z M 27.38172,70.614795 c 0.153372,1.020972 0.349064,2.035136 0.586571,3.039873 0.429965,1.568129 0.962005,3.106467 1.592708,4.605172 9.24e-4,0.0022 0.0027,0.0042 0.0037,0.0065 0.117066,0.280014 0.236557,0.5589 0.360364,0.835835 l 0.01368,0.02998 c 0.558966,1.247805 1.186114,2.463936 1.878605,3.642884 6.75e-4,0.0012 0.002,0.0018 0.0027,0.003 0.265493,0.451657 0.540958,0.896826 0.825427,1.337178 7.27e-4,0.0011 0.0019,0.0018 0.0027,0.003 0.634425,0.985428 1.314937,1.94041 2.039273,2.861766 0.0031,0.0041 0.0058,0.0085 0.009,0.01254 0.375115,0.475117 0.756532,0.946452 1.155339,1.403864 5.798089,0.392543 19.676702,0.740554 34.539838,-3.242011 14.32473,-3.8383 25.022715,-9.483971 29.729125,-12.227999 0.3631,-1.440454 0.63276,-2.897573 0.82105,-4.362517 l 3.8e-4,-0.0057 c 0.10971,-0.843891 0.19051,-1.691291 0.24227,-2.540709 6.7e-4,-0.01532 0.004,-0.03065 0.005,-0.04606 0.0406,-0.697947 0.0537,-1.397462 0.0549,-2.096251 -1e-4,-0.01106 -9.3e-4,-0.02222 -9.3e-4,-0.0333 -0.002,-1.146425 -0.0561,-2.292165 -0.16327,-3.433574 -2.1e-4,-0.0024 5.4e-4,-0.0051 -8e-5,-0.0075 -0.0395,-0.430198 -0.0747,-0.861284 -0.12896,-1.290229 l 3.8e-4,-0.0057 c -0.20265,-1.604793 -0.50943,-3.194709 -0.91846,-4.759676 -0.201225,-0.740238 -0.425316,-1.474075 -0.671807,-2.200491 -5.644779,3.412429 -17.625813,9.876227 -33.992335,14.261625 -16.479194,4.415586 -30.981415,4.508453 -37.98617,4.208427 z"
   sodipodi:nodetypes="ccsccccscccscscsccsccccccsscccccsc" /><path
   id="path20147"
   style="fill:#fcc21b;fill-opacity:1;stroke-width:1.26193"
   d="M 67.965779,78.800542 C 34.897339,87.661196 7.2193962,91.596876 4.123776,80.043775 l 10.043917,-2.691259 c 1.727142,6.445854 24.523269,2.279085 52.044811,-5.095285 27.521538,-7.374369 49.346906,-15.163905 47.619766,-21.609759 l 10.04392,-2.69126 c 3.09563,11.553099 -22.84198,21.983678 -55.910411,30.84433 z" /></svg>
