<?xml version="1.0" encoding="UTF-8" standalone="no"?>
<svg
   width="128"
   height="128"
   style="enable-background:new 0 0 128 128;"
   version="1.1"
   id="svg54920"
   sodipodi:docname="emoji_u1f375.svg"
   xml:space="preserve"
   inkscape:version="1.3 (0e150ed6c4, 2023-07-21)"
   xmlns:inkscape="http://www.inkscape.org/namespaces/inkscape"
   xmlns:sodipodi="http://sodipodi.sourceforge.net/DTD/sodipodi-0.dtd"
   xmlns:xlink="http://www.w3.org/1999/xlink"
   xmlns="http://www.w3.org/2000/svg"
   xmlns:svg="http://www.w3.org/2000/svg"><defs
     id="defs54924"><defs
       id="defs54899"><ellipse
         id="SVGID_1_"
         cx="64.510002"
         cy="42.599998"
         rx="36.990002"
         ry="16.92" /></defs><clipPath
       id="SVGID_2_"><use
         style="overflow:visible"
         xlink:href="#SVGID_1_"
         id="use54901" /></clipPath><clipPath
       id="SVGID_2_-3"><use
         style="overflow:visible"
         xlink:href="#SVGID_1_"
         id="use54901-9" /></clipPath><clipPath
       clipPathUnits="userSpaceOnUse"
       id="clipPath2"><path
         d="m 92.83,44.898771 c 0,6.88 -13.17,11.13 -29.42,11.13 -16.25,0 -29.42,-4.25 -29.42,-11.13 0,-6.88 13.18,-11.13 29.42,-11.13 16.25,0 29.42,4.25 29.42,11.13 z"
         style="fill:#757f3f;fill-opacity:1"
         clip-path="url(#SVGID_2_)"
         id="path3"
         sodipodi:nodetypes="sssss"
         transform="translate(0,-8.5)" /></clipPath></defs><sodipodi:namedview
     id="namedview54922"
     pagecolor="#ffffff"
     bordercolor="#000000"
     borderopacity="0.25"
     inkscape:showpageshadow="2"
     inkscape:pageopacity="0.0"
     inkscape:pagecheckerboard="0"
     inkscape:deskcolor="#d1d1d1"
     showgrid="false"
     inkscape:zoom="2.8284271"
     inkscape:cx="56.391766"
     inkscape:cy="62.402173"
     inkscape:window-width="1366"
     inkscape:window-height="697"
     inkscape:window-x="-8"
     inkscape:window-y="-8"
     inkscape:window-maximized="1"
     inkscape:current-layer="svg54920" /><g
     id="g54894"
     transform="translate(0,-3.0003205)"><g
       id="g54880"><path
         d="m 48.72,30.91 c 0.64,3.08 -0.67,5.76 -2.29,7.86 -0.67,0.86 -1.06,2.31 -0.19,3.14 1.03,0.99 2.95,-0.02 3.97,-0.75 2.13,-1.52 3.72,-4.3 4.32,-7.34 0.64,-3.21 -0.13,-6.27 -1.24,-9.12 -1.04,-2.64 -2.79,-5.32 -2.75,-8.43 0.03,-3.18 1.26,-6 2.54,-8.61 C 53.24,7.31 53.35,6.9 53.3,6.48 53.18,5.46 52.47,5.32 51.84,5.53 51.57,5.63 51.28,5.76 51,5.92 c -1.6,0.92 -2.98,2.5 -4.08,4.26 -1.56,2.48 -2.49,5.87 -2.39,9.07 0.07,2.27 0.76,4.32 1.68,6.21 0.85,1.77 2.08,3.4 2.51,5.45 z"
         style="fill:#ffffff"
         id="path54876" /></g><g
       id="g54886"><path
         d="m 62.43,30.91 c 0.66,3.08 -0.68,5.76 -2.34,7.86 -0.68,0.86 -1.08,2.31 -0.19,3.14 1.05,0.99 3.01,-0.02 4.05,-0.75 2.18,-1.52 3.79,-4.3 4.4,-7.34 0.65,-3.21 -0.13,-6.27 -1.27,-9.12 -1.06,-2.64 -2.83,-5.32 -2.8,-8.43 0.04,-3.18 1.29,-6 2.59,-8.61 C 67.04,7.31 67.15,6.9 67.1,6.48 66.99,5.46 66.26,5.32 65.61,5.53 c -0.27,0.1 -0.57,0.23 -0.86,0.39 -1.63,0.92 -3.03,2.5 -4.16,4.26 -1.58,2.48 -2.52,5.87 -2.43,9.07 0.07,2.27 0.78,4.32 1.71,6.21 0.87,1.77 2.13,3.4 2.56,5.45 z"
         style="fill:#ffffff"
         id="path54882" /></g><g
       id="g54892"><path
         d="m 76.18,30.91 c 0.64,3.08 -0.66,5.76 -2.27,7.86 -0.66,0.86 -1.06,2.31 -0.19,3.14 1.03,0.99 2.93,-0.02 3.94,-0.75 2.12,-1.52 3.69,-4.3 4.29,-7.34 0.63,-3.21 -0.12,-6.27 -1.24,-9.12 -1.03,-2.64 -2.76,-5.32 -2.73,-8.43 0.04,-3.18 1.25,-6 2.52,-8.61 C 80.67,7.31 80.77,6.9 80.72,6.48 80.61,5.46 79.9,5.32 79.27,5.53 c -0.28,0.1 -0.56,0.23 -0.84,0.39 -1.59,0.92 -2.95,2.5 -4.05,4.26 -1.54,2.48 -2.46,5.87 -2.37,9.07 0.07,2.27 0.75,4.32 1.66,6.21 0.86,1.77 2.09,3.4 2.51,5.45 z"
         style="fill:#ffffff"
         id="path54888" /></g></g><path
     d="m 103.45,43.619679 c 0,-0.1 0.02,-0.2 0.02,-0.3 0.06,-5.24 -3.45,-10.63 -7.74,-13.43 -1.75,-1.16 -4.27,-2.37 -6.55,-2.87 -6.55,-2.69 -15.19,-4.35 -24.67,-4.35 -9.56,0 -18.23,1.68 -24.79,4.390001 -0.01,0 -0.02,0 -0.02,0 -10.01,2.31 -15.59,9.28 -15.14,16.429999 0,0.05 -0.95,41.630001 2.32,52.61 1.75,5.880001 4.23,14.160001 14.5,19.080001 -0.1,0.49 -0.16,0.96 -0.16,1.32 0,4.46 10.2,8.07 22.78,8.07 12.59,0 22.78,-3.61 22.78,-8.07 0,-0.35 -0.04,-0.84 -0.14,-1.33 10.27,-4.92 12.73,-13.2 14.49,-19.070001 3.17,-10.64 2.36,-50.01 2.32,-52.48 z"
     style="fill:#b89278"
     id="path54896" /><path
     d="m 92.83,44.898771 c 0,6.88 -13.17,11.13 -29.42,11.13 -16.25,0 -29.42,-4.25 -29.42,-11.13 0,-6.88 13.18,-11.13 29.42,-11.13 16.25,0 29.42,4.25 29.42,11.13 z"
     style="fill:#d7cbc8;fill-opacity:1"
     clip-path="url(#SVGID_2_)"
     id="path54904"
     sodipodi:nodetypes="sssss"
     transform="translate(0,-3.0003205)" /><g
     id="g54916"
     transform="translate(0,-3.0003205)"><path
       d="m 48.72,30.91 c 0.64,3.08 -0.67,5.76 -2.29,7.86 -0.67,0.86 -1.06,2.31 -0.19,3.14 1.03,0.99 2.95,-0.02 3.97,-0.75 2.13,-1.52 3.72,-4.3 4.32,-7.34 0.64,-3.21 -0.13,-6.27 -1.24,-9.12 -1.04,-2.64 -2.79,-5.32 -2.75,-8.43 0.03,-3.18 1.26,-6 2.54,-8.61 C 53.24,7.31 53.35,6.9 53.3,6.48 53.18,5.46 52.47,5.32 51.84,5.53 51.57,5.63 51.28,5.76 51,5.92 c -1.6,0.92 -2.98,2.5 -4.08,4.26 -1.56,2.48 -2.49,5.87 -2.39,9.07 0.07,2.27 0.76,4.32 1.68,6.21 0.85,1.77 2.08,3.4 2.51,5.45 z"
       style="fill:#e3eaea;fill-opacity:1"
       id="path54910" /><path
       d="m 62.43,30.91 c 0.66,3.08 -0.68,5.76 -2.34,7.86 -0.68,0.86 -1.08,2.31 -0.19,3.14 1.05,0.99 3.01,-0.02 4.05,-0.75 2.18,-1.52 3.79,-4.3 4.4,-7.34 0.65,-3.21 -0.13,-6.27 -1.27,-9.12 -1.06,-2.64 -2.83,-5.32 -2.8,-8.43 0.04,-3.18 1.29,-6 2.59,-8.61 C 67.04,7.31 67.15,6.9 67.1,6.48 66.99,5.46 66.26,5.32 65.61,5.53 c -0.27,0.1 -0.57,0.23 -0.86,0.39 -1.63,0.92 -3.03,2.5 -4.16,4.26 -1.58,2.48 -2.52,5.87 -2.43,9.07 0.07,2.27 0.78,4.32 1.71,6.21 0.87,1.77 2.13,3.4 2.56,5.45 z"
       style="fill:#e3eaea;fill-opacity:1"
       id="path54912" /><path
       d="m 76.18,30.91 c 0.64,3.08 -0.66,5.76 -2.27,7.86 -0.66,0.86 -1.06,2.31 -0.19,3.14 1.03,0.99 2.93,-0.02 3.94,-0.75 2.12,-1.52 3.69,-4.3 4.29,-7.34 0.63,-3.21 -0.12,-6.27 -1.24,-9.12 -1.03,-2.64 -2.76,-5.32 -2.73,-8.43 0.04,-3.18 1.25,-6 2.52,-8.61 C 80.67,7.31 80.77,6.9 80.72,6.48 80.61,5.46 79.9,5.32 79.27,5.53 c -0.28,0.1 -0.56,0.23 -0.84,0.39 -1.59,0.92 -2.95,2.5 -4.05,4.26 -1.54,2.48 -2.46,5.87 -2.37,9.07 0.07,2.27 0.75,4.32 1.66,6.21 0.86,1.77 2.09,3.4 2.51,5.45 z"
       style="fill:#e3eaea;fill-opacity:1"
       id="path54914" /></g><path
     d="m 86.386941,44.961271 c 0,5.373262 -10.285735,8.6925 -22.976941,8.6925 -12.691206,0 -22.976941,-3.319238 -22.976941,-8.6925 0,-5.373262 10.293544,-8.6925 22.976941,-8.6925 12.691206,0 22.976941,3.319238 22.976941,8.6925 z"
     style="fill:#757f3f;fill-opacity:1"
     clip-path="url(#clipPath2)"
     id="path1"
     sodipodi:nodetypes="sssss"
     transform="translate(0,5.4996795)" /></svg>
