<?xml version="1.0" encoding="UTF-8" standalone="no"?>
<svg
   width="128"
   height="128"
   version="1.1"
   id="svg40370"
   sodipodi:docname="emoji_u1f604.svg"
   inkscape:version="1.2.2 (732a01da63, 2022-12-09)"
   xmlns:inkscape="http://www.inkscape.org/namespaces/inkscape"
   xmlns:sodipodi="http://sodipodi.sourceforge.net/DTD/sodipodi-0.dtd"
   xmlns="http://www.w3.org/2000/svg"
   xmlns:svg="http://www.w3.org/2000/svg">
  <defs
     id="defs40374" />
  <sodipodi:namedview
     id="namedview40372"
     pagecolor="#ffffff"
     bordercolor="#000000"
     borderopacity="0.25"
     inkscape:showpageshadow="2"
     inkscape:pageopacity="0.0"
     inkscape:pagecheckerboard="0"
     inkscape:deskcolor="#d1d1d1"
     showgrid="false"
     inkscape:zoom="2.9996795"
     inkscape:cx="11.501229"
     inkscape:cy="74.674643"
     inkscape:window-width="1366"
     inkscape:window-height="697"
     inkscape:window-x="-8"
     inkscape:window-y="-8"
     inkscape:window-maximized="1"
     inkscape:current-layer="svg40370" />
  <path
     d="M63.79 8.64C1.48 8.64 0 78.5 0 92.33c0 13.83 28.56 25.03 63.79 25.03 35.24 0 63.79-11.21 63.79-25.03 0-13.83-1.47-83.69-63.79-83.69z"
     fill="#fcc21b"
     id="path40268" />
  <g
     fill="#2f2f2f"
     id="g40362">
    <path
       d="M30.96 54.45a2.728 2.728 0 0 1-3.73.93 2.72 2.72 0 0 1-.96-3.71c.18-.31 4.6-7.62 14.37-7.62 9.78 0 14.2 7.31 14.39 7.62a2.735 2.735 0 0 1-2.36 4.11c-.92 0-1.83-.47-2.34-1.32-.13-.22-3.12-4.96-9.69-4.96-6.57-.01-9.54 4.74-9.68 4.95zM101 55.39c-.43.26-.91.38-1.37.38-.94 0-1.85-.49-2.36-1.34-.11-.2-3.08-4.94-9.66-4.94-6.69 0-9.66 4.89-9.69 4.94a2.724 2.724 0 0 1-4.69-2.77c.18-.31 4.6-7.62 14.38-7.62 9.77 0 14.18 7.31 14.36 7.62.76 1.3.32 2.97-.97 3.73z"
       id="path40360" />
  </g>
  <g
     fill="#ed6c30"
     id="g40366">
    <path
       d="M84.57 168.14c-4.2-.92-9.28 2.92-17.17 4.51-1.24.25-2.35.34-3.38.33v20.31c12.59 0 20.53-6.19 23.38-10.51 5.33-8.08 2.96-13.38-2.83-14.64zM43.45 168.14c4.2-.92 9.28 2.92 17.17 4.51 1.24.25 2.35.34 3.38.33v20.31c-11.84 0-20.68-6.46-23.38-10.51-5.37-8.06-2.96-13.38 2.83-14.64z"
       id="path40364" />
  </g>
  <path
     d="M96.46 68.26c-3.09-2.09-6.98-.71-10.42 0-9.58 1.98-18 2.06-22.04 2.06s-12.46-.08-22.04-2.06c-3.44-.71-7.33-2.09-10.42 0-3.92 2.65-1.03 12.15 5.14 18.57C40.41 90.71 49.29 98.24 64 98.24s23.59-7.53 27.32-11.41c6.17-6.42 9.05-15.92 5.14-18.57z"
     fill="#ed6c30"
     id="path40368" />
</svg>
