<?xml version="1.0" encoding="UTF-8" standalone="no"?>
<svg
   width="100%"
   height="100%"
   viewBox="0 0 128 128"
   version="1.1"
   xml:space="preserve"
   style="fill-rule:evenodd;clip-rule:evenodd;stroke-linejoin:round;stroke-miterlimit:1.41421;"
   id="svg15605"
   sodipodi:docname="emoji_u1fa72.svg"
   inkscape:version="1.2.2 (732a01da63, 2022-12-09)"
   xmlns:inkscape="http://www.inkscape.org/namespaces/inkscape"
   xmlns:sodipodi="http://sodipodi.sourceforge.net/DTD/sodipodi-0.dtd"
   xmlns="http://www.w3.org/2000/svg"
   xmlns:svg="http://www.w3.org/2000/svg"><sodipodi:namedview
   id="namedview15607"
   pagecolor="#ffffff"
   bordercolor="#000000"
   borderopacity="0.25"
   inkscape:showpageshadow="2"
   inkscape:pageopacity="0.0"
   inkscape:pagecheckerboard="0"
   inkscape:deskcolor="#d1d1d1"
   showgrid="false"
   inkscape:zoom="4.2421875"
   inkscape:cx="60.346225"
   inkscape:cy="71.896869"
   inkscape:window-width="1366"
   inkscape:window-height="697"
   inkscape:window-x="-8"
   inkscape:window-y="-8"
   inkscape:window-maximized="1"
   inkscape:current-layer="svg15605" />
    <g
   transform="matrix(3.669304,0,0,3.669304,-153.07343,-173.08642)"
   id="g15567"
   style="stroke-width:0.876575">
        <path
   d="m 44.065,61.501 c 0,0 0,-4.598 0,-6.528 0,-0.463 0.375,-0.838 0.838,-0.838 4.334,0 24.179,0 28.513,0 0.463,0 0.838,0.375 0.838,0.838 0,1.93 0,6.528 0,6.528 -5.271,1.705 -9.126,7.144 -9.126,13.591 H 53.191 c 0,-6.447 -3.855,-11.886 -9.126,-13.591 z"
   style="fill:#039db8;fill-opacity:1;stroke-width:0.876575"
   id="path15565" />
    </g>
    <path
   id="path15569"
   style="fill:#40c0e7;fill-opacity:1;stroke-width:3.21642"
   d="m 11.689985,25.551327 c -1.6988798,0 -3.0748214,1.375939 -3.0748214,3.074824 v 7.078775 H 119.38676 v -7.078775 c 0,-1.698885 -1.37594,-3.074824 -3.07482,-3.074824 z" />
    
    
    <defs
   id="defs15603">
        <linearGradient
   id="_Linear1"
   x1="0"
   y1="0"
   x2="1"
   y2="0"
   gradientUnits="userSpaceOnUse"
   gradientTransform="matrix(30.1887,0,0,2.76624,44.0651,55.5184)"><stop
     offset="0"
     style="stop-color:rgb(155,210,254);stop-opacity:1"
     id="stop15583" /><stop
     offset="1"
     style="stop-color:rgb(156,210,255);stop-opacity:0.356863"
     id="stop15585" /></linearGradient>
        <linearGradient
   id="_Linear2"
   x1="0"
   y1="0"
   x2="1"
   y2="0"
   gradientUnits="userSpaceOnUse"
   gradientTransform="matrix(127.6,0,0,108.72,0,63)"><stop
     offset="0"
     style="stop-color:white;stop-opacity:0.913725"
     id="stop15588" /><stop
     offset="1"
     style="stop-color:rgb(225,225,225);stop-opacity:0.913725"
     id="stop15590" /></linearGradient>
        <linearGradient
   id="_Linear3"
   x1="0"
   y1="0"
   x2="1"
   y2="0"
   gradientUnits="userSpaceOnUse"
   gradientTransform="matrix(127.6,0,0,108.72,0,63)"><stop
     offset="0"
     style="stop-color:white;stop-opacity:0.913725"
     id="stop15593" /><stop
     offset="1"
     style="stop-color:rgb(225,225,225);stop-opacity:0.913725"
     id="stop15595" /></linearGradient>
        <linearGradient
   id="_Linear4"
   x1="0"
   y1="0"
   x2="1"
   y2="0"
   gradientUnits="userSpaceOnUse"
   gradientTransform="matrix(127.6,0,0,108.72,0,63)"><stop
     offset="0"
     style="stop-color:white;stop-opacity:0.913725"
     id="stop15598" /><stop
     offset="1"
     style="stop-color:rgb(225,225,225);stop-opacity:0.913725"
     id="stop15600" /></linearGradient>
    
        
    
        
    </defs>
<path
   d="M 119.01693,53.288299 C 103.82598,82.266995 86.999129,101.22487 85.954153,102.39191 l -0.05134,0.057 c 0,-23.655702 14.143687,-43.614063 33.484877,-49.870231 z M 8.6156473,52.578719 C 27.957974,58.834887 42.100517,78.793248 42.100517,102.44895 42.062871,102.40674 24.379273,82.873902 8.6156473,52.578719 Z"
   style="clip-rule:evenodd;fill:#006ca2;fill-opacity:1;fill-rule:evenodd;stroke-width:1;stroke-linejoin:round;stroke-miterlimit:1.41421"
   id="path15573" /></svg>
