<?xml version="1.0" encoding="UTF-8" standalone="no"?>
<!-- Generator: Adobe Illustrator 24.1.2, SVG Export Plug-In . SVG Version: 6.00 Build 0)  -->

<svg
   version="1.1"
   id="Layer_2"
   x="0px"
   y="0px"
   viewBox="0 0 128 128"
   style="enable-background:new 0 0 128 128;"
   xml:space="preserve"
   sodipodi:docname="emoji_u1f9a9.svg"
   inkscape:version="1.3 (0e150ed6c4, 2023-07-21)"
   xmlns:inkscape="http://www.inkscape.org/namespaces/inkscape"
   xmlns:sodipodi="http://sodipodi.sourceforge.net/DTD/sodipodi-0.dtd"
   xmlns="http://www.w3.org/2000/svg"
   xmlns:svg="http://www.w3.org/2000/svg"><defs
   id="defs30248"><linearGradient
     id="linearGradient30796"
     gradientUnits="userSpaceOnUse"
     x1="69.226799"
     y1="39.489498"
     x2="81.181297"
     y2="67.652397">&#10;	<stop
   offset="0.1617"
   style="stop-color:#F77EAE"
   id="stop30236-8" />&#10;	<stop
   offset="0.3702"
   style="stop-color:#F982A4"
   id="stop30238-7" />&#10;	<stop
   offset="0.6638"
   style="stop-color:#FC8A8F"
   id="stop30240-3" />&#10;</linearGradient></defs><sodipodi:namedview
   id="namedview30246"
   pagecolor="#ffffff"
   bordercolor="#000000"
   borderopacity="0.25"
   inkscape:showpageshadow="2"
   inkscape:pageopacity="0.0"
   inkscape:pagecheckerboard="0"
   inkscape:deskcolor="#d1d1d1"
   showgrid="false"
   inkscape:zoom="2.9996795"
   inkscape:cx="49.838657"
   inkscape:cy="50.172026"
   inkscape:window-width="1366"
   inkscape:window-height="697"
   inkscape:window-x="-8"
   inkscape:window-y="-8"
   inkscape:window-maximized="1"
   inkscape:current-layer="Layer_2" />&#10;&#10;&#10;&#10;&#10;&#10;&#10;&#10;&#10;<radialGradient
   id="SVGID_1_"
   cx="56.9594"
   cy="45.1994"
   r="52.1422"
   gradientUnits="userSpaceOnUse">&#10;	<stop
   offset="0.1946"
   style="stop-color:#F77EAE"
   id="stop30223" />&#10;	<stop
   offset="0.354"
   style="stop-color:#F678AA"
   id="stop30225" />&#10;	<stop
   offset="0.564"
   style="stop-color:#F568A1"
   id="stop30227" />&#10;	<stop
   offset="0.8014"
   style="stop-color:#F24C90"
   id="stop30229" />&#10;	<stop
   offset="0.8422"
   style="stop-color:#F2478D"
   id="stop30231" />&#10;</radialGradient>&#10;&#10;<linearGradient
   id="SVGID_2_"
   gradientUnits="userSpaceOnUse"
   x1="69.2268"
   y1="39.4895"
   x2="81.1813"
   y2="67.6524">&#10;	<stop
   offset="0.1617"
   style="stop-color:#F77EAE"
   id="stop30236" />&#10;	<stop
   offset="0.3702"
   style="stop-color:#F982A4"
   id="stop30238" />&#10;	<stop
   offset="0.6638"
   style="stop-color:#FC8A8F"
   id="stop30240" />&#10;</linearGradient>&#10;&#10;<g
   id="g1"
   transform="translate(93.753793,2.2031848)"><path
     d="m -21.897413,50.134753 c -2.53787,1.021822 -2.3451,2.511778 -2.72249,3.809817 -0.91088,6.305449 -0.29339,41.418205 -0.72985,58.78392 -0.10574,1.65748 -1.22337,3.25067 -2.91211,3.57618 -2.96659,0.84091 -6.38017,-0.77803 -9.06641,1.16992 -2.33432,1.90704 -0.57457,6.12779 2.27928,6.31528 2.11415,0.1874 4.24852,0.11017 6.37111,0.1398 2.3284,-0.1151 4.78126,-0.1854 6.93946,-1.10938 1.60702,-1.11596 2.36687,-3.29732 1.8125,-5.17187 -0.45033,-16.56732 0.22615,-55.024991 -0.30603,-61.044437 -0.18261,-2.141872 0.41556,-4.331032 -1.09252,-6.424522 -0.15135,-0.05243 -0.37928,-0.067 -0.57294,-0.04471 z"
     style="fill:#d7598b;fill-opacity:1"
     id="path1-1"
     sodipodi:nodetypes="cccccccccccc" /><path
     d="m -19.772363,65.799185 c 2.56373,-0.955095 3.42528,0.275712 4.57879,0.980501 1.86584,1.53352 8.8213604,8.137239 12.5462704,12.688579 2.26283999,2.76489 3.03687999,3.89853 2.65934999,5.30749 -0.57107,2.13126 -2.04804999,3.36483 -7.55087999,5.13315 -7.5225504,2.41735 -18.8177004,5.67816 -24.1615004,6.63201 -1.63501,0.29184 -2.50202,2.38428 -2.82753,4.073005 -0.84096,2.96657 0.77803,6.38017 -1.16992,9.06641 -1.90705,2.33432 -6.12779,0.57457 -6.31528,-2.27928 -0.1874,-2.11415 -0.11018,-4.24852 -0.1398,-6.37111 0.1151,-2.328395 0.1854,-4.781255 1.10938,-6.939455 1.11595,-1.60702 2.63313,-2.27686 4.56149,-2.59726 7.38226,-1.2266 28.9811204,-5.88963 28.9035504,-8.20862 -0.0935,-2.79508 -7.6690304,-8.77572 -9.6756904,-11.408774 -1.30833,-1.705643 -2.61507,-3.094505 -2.91143,-5.657541 0.0765,-0.140723 0.23505,-0.305107 0.39321,-0.419098 z"
     style="fill:#b32362;fill-opacity:1"
     id="path39"
     sodipodi:nodetypes="ccsssscccccsscccc" /><path
     style="fill:#d7598b;stroke-width:6;stroke-linecap:round"
     d="m -41.938473,2.3304846 c -9.77909,0 -10.59054,6.247938 -15.90981,6.576009 0,0 1.56775,7.8030394 5.60146,7.8030394 4.48915,0 6.76624,2.797579 6.76624,6.571058 0,8.327676 -13.27223,21.990272 -13.27223,34.351667 0,9.889117 8.71803,18.607157 19.77824,18.607157 24.48327,0 47.4753204,-5.001879 47.4753204,-16.650306 0,-5.446155 -4.91075,-19.827935 -22.7086604,-19.827935 -19.60548,0 -19.88034,18.651804 -28.01967,18.651804 -2.57466,0 -4.65274,-1.836112 -4.65274,-4.438511 0,-10.772679 16.19531,-23.241637 16.19531,-38.725912 0,-6.1799044 -3.19571,-12.9180704 -11.25346,-12.9180704 z"
     id="path38"
     sodipodi:nodetypes="scssssssssss" /><path
     style="fill:#2f2f2f;stroke-width:6;stroke-linecap:round"
     d="m -58.521193,7.4019616 c 4.44163,0 6.48847,1.016752 6.48847,2.333787 0,1.3170374 -0.26483,6.5493974 -0.6084,6.8929714 -0.34357,0.343575 -1.14525,-0.171787 -2.63407,-0.171787 -6.52792,0 -9.63763,4.654526 -11.24097,4.654526 -1.37431,0 -1.49217,-1.403448 -1.49217,-2.172771 0,-5.266985 3.76262,-11.5367264 9.48714,-11.5367264 z"
     id="path40"
     sodipodi:nodetypes="sssssss" /><path
     style="fill:#d7598b;fill-opacity:1;stroke:none;stroke-width:6;stroke-linecap:round"
     d="m -24.290043,63.899222 c 0,0 0.54715,-5.478929 1.24686,-8.090272 0.69971,-2.611345 2.06808,-2.836713 2.06808,-2.836713 0,0 2.14698,-0.975899 5.26985,-0.975899 h 5.9204604 c 0,0 2.1929,-1.937329 4.35903,-3.18794 1.99155,-1.14983 3.96866,-1.301198 3.96866,-1.301198 l 6.70117,6.505997 1.23613,8.457797 -1.88673,6.31082 -3.64335001,-1.366261 -3.12288999,-2.472279 -1.88674,9.173451 -3.64336,-1.626493 -4.7493704,-5.269858 -1.9518,7.612011 -3.31806,0.52049 -3.90361,-7.22166 z"
     id="path32"
     sodipodi:nodetypes="cscscsccccccccccccc" /><path
     id="path1"
     style="clip-rule:evenodd;fill:#2f2f2f;fill-opacity:1;fill-rule:evenodd;stroke-width:0.999997;stroke-linejoin:round;stroke-miterlimit:2"
     d="m -2.4191026,46.312283 c -0.28089,0.01138 -0.49875,0.126343 -0.62358,0.376836 -0.34698,0.688357 1.469,1.449505 1.89989,1.772032 0.80268999,0.604493 1.52050999,1.317535 2.15336,2.095034 1.27621,1.555478 2.28519,3.384149 2.92945,5.286933 1.1971,3.50704 1.69792,5.799912 0.67293,9.660933 -0.32807,1.23582 -0.91809,2.592279 -2.36196,1.915585 -1.09644,-0.514079 -1.40504001,-2.005368 -1.99186001,-2.990018 -0.93445,-1.557736 -1.82849999,-3.146917 -2.87113999,-4.636442 -0.0807,-0.208972 -0.15968,-0.418342 -0.24674,-0.632547 -0.74441,-1.827495 -1.79792,-3.516066 -3.07749,-4.90561 -0.65674,-0.715522 -5.2574004,-4.700847 -6.0563204,-3.097689 -0.34697,0.688356 1.47125,1.449505 1.90213,1.77203 0.8026904,0.604494 1.5205104,1.317537 2.1533504,2.095035 1.27621,1.555477 2.28296,3.384148 2.92722,5.286932 1.19709,3.507042 1.69793,5.799913 0.67293,9.660944 -0.32807,1.235798 -0.91808,2.590031 -2.36196,1.913337 -1.09644,-0.51409 -1.40504,-2.003123 -1.99186,-2.987775 -1.04491,-1.741879 -2.0341604,-3.524827 -3.2434904,-5.161327 -0.27689,-0.936156 -0.62477,-1.920781 -1.052,-2.972076 -0.74442,-1.827496 -1.79791,-3.51831 -3.0775,-4.907854 -0.65674,-0.715521 -5.25739,-4.700848 -6.05631,-3.097689 -0.34697,0.688356 1.47124,1.449504 1.90213,1.77203 0.80268,0.604495 1.52051,1.317538 2.15335,2.095035 1.27621,1.555478 2.28296,3.386391 2.92721,5.289176 1.1971,3.507041 1.69793,5.797672 0.67293,9.658692 -0.32807,1.235819 -0.91807,2.592285 -2.36196,1.915595 -1.09644,-0.51409 -1.40504,-2.003145 -1.99185,-2.987786 -1.1942,-1.990714 -2.31702,-4.036793 -3.77735,-5.854433 -0.31544,-0.390906 -1.96164,-2.495608 -2.29914,-1.202289 -0.18692,0.712456 0.72388,1.823935 1.04752,2.429257 0.61888,1.161752 1.25578,2.31516 1.9066,3.456572 0.59603,1.047858 1.07582,2.156822 1.68455,3.198633 0.73063,1.243876 1.16349,2.756496 2.4158,3.555276 0.89991,0.57098 1.91531,1.00085 2.79711,0.64601 1.45277,-0.59125 3.01594,-2.93245 3.50369,-4.858512 0.2384,-0.941368 0.36884,-1.892528 0.39254,-2.877866 0.32771,0.650325 0.64817,1.303816 1.01612,1.933544 0.7306204,1.243881 1.1657204,2.756494 2.4180304,3.555264 0.89992,0.57098 1.91532,1.00086 2.79712,0.64601 1.45276,-0.59124 3.01594,-2.932438 3.50369,-4.858511 0.2895,-1.143205 0.42102999,-2.300539 0.39254,-3.517143 0.63847999,1.181076 1.10049999,2.524081 2.25653,3.261449 0.89992,0.570964 1.91532,1.000839 2.79712,0.645999 1.45277,-0.591245 3.01594,-2.932451 3.50369,-4.858504 0.8196,-3.236531 0.39635,-6.572388 -1.44679,-11.107723 -0.74441,-1.827495 -1.79791,-3.518308 -3.0775,-4.907852 -0.55412,-0.603721 -3.91596001,-3.536227 -5.43273,-3.474527 z" /><ellipse
     style="fill:#2f2f2f;fill-opacity:1;stroke:none;stroke-width:6;stroke-linecap:round"
     id="path33"
     cx="-42.942772"
     cy="11.268076"
     rx="2.4842348"
     ry="2.7602608" /></g></svg>
