<?xml version="1.0" encoding="UTF-8" standalone="no"?>
<svg
   width="100%"
   height="100%"
   viewBox="0 0 128 128"
   version="1.1"
   xml:space="preserve"
   style="fill-rule:evenodd;clip-rule:evenodd;stroke-linecap:round;stroke-linejoin:round;stroke-miterlimit:10;"
   id="svg6"
   sodipodi:docname="emoji_u1f964.svg"
   inkscape:version="1.3 (0e150ed6c4, 2023-07-21)"
   xmlns:inkscape="http://www.inkscape.org/namespaces/inkscape"
   xmlns:sodipodi="http://sodipodi.sourceforge.net/DTD/sodipodi-0.dtd"
   xmlns="http://www.w3.org/2000/svg"
   xmlns:svg="http://www.w3.org/2000/svg"><defs
   id="defs6" /><sodipodi:namedview
   id="namedview6"
   pagecolor="#ffffff"
   bordercolor="#000000"
   borderopacity="0.25"
   inkscape:showpageshadow="2"
   inkscape:pageopacity="0.0"
   inkscape:pagecheckerboard="0"
   inkscape:deskcolor="#d1d1d1"
   inkscape:zoom="4"
   inkscape:cx="67.125"
   inkscape:cy="73.625"
   inkscape:window-width="1366"
   inkscape:window-height="697"
   inkscape:window-x="-8"
   inkscape:window-y="-8"
   inkscape:window-maximized="1"
   inkscape:current-layer="svg6" />&#10;    &#10;    &#10;    &#10;    &#10;    &#10;    &#10;    &#10;<path
   d="M 95.999017,44.368246 H 32.000983 c 0,0 6.6297,68.979594 6.841643,70.717974 0.222237,1.82281 1.366562,3.42668 3.052421,4.27607 5.180748,2.61023 12.264032,4.53394 22.149346,4.53394 9.885314,0 16.969174,-1.92257 22.149346,-4.53394 1.687777,-0.85082 2.824828,-2.45453 3.052421,-4.27607 0.217122,-1.73774 6.752857,-70.717974 6.752857,-70.717974 z"
   style="fill:#42ade7;fill-rule:nonzero;stroke-width:1"
   id="path1"
   sodipodi:nodetypes="ccsssssc" /><ellipse
   cx="64"
   cy="41.301262"
   rx="27.455011"
   ry="9.7408638"
   style="fill:#0c4268;stroke-width:1"
   id="ellipse2" /><path
   id="path7"
   style="fill:#196ca2;stroke-width:1"
   d="M 64,29.121094 C 46.116881,29.120892 31.619419,35.290993 31.619141,42.902344 31.619419,50.513695 46.116881,56.683796 64,56.683594 81.883119,56.683796 96.380581,50.513695 96.380859,42.902344 96.380581,35.290993 81.883119,29.120892 64,29.121094 Z m 0,3.107455 c 14.511505,-5.5e-5 26.275791,4.173482 26.276875,9.322072 -0.0012,0.626261 -0.18016,1.250888 -0.534314,1.864415 C 87.247514,47.755907 76.486731,50.874272 64,50.874967 51.53634,50.863939 40.809234,47.747902 38.318828,43.415036 37.944044,42.802253 37.744466,42.177619 37.723125,41.550621 37.724209,36.402031 49.488495,32.228494 64,32.228549 Z"
   sodipodi:nodetypes="cccccccccccc" /><path
   id="path2"
   style="fill:#d7598b;fill-rule:nonzero;stroke-width:0.999999"
   d="M 23.558594 4.1035156 C 21.912537 4.1166426 21.19244 5.489558 20.742188 7.4003906 C 20.227611 9.5841994 20.254677 11.655591 22.453125 12.103516 L 41.353516 15.955078 C 46.042653 16.910468 50.102711 20.700157 50.541016 25.455078 L 52.798828 49.939453 C 55.361237 50.373487 58.122507 50.659057 61.035156 50.779297 L 58.574219 24.162109 C 57.831804 16.13375 51.124309 9.6446842 43.224609 8.0351562 L 24.322266 4.1835938 C 24.047459 4.1276028 23.793745 4.1016398 23.558594 4.1035156 z " /><path
   d="m 45.420412,18.690375 c 0.714905,0.527782 1.530724,1.255435 2.346971,2.259117 0.878091,1.079726 1.844953,2.676693 2.123715,3.654894 0.411526,1.444081 1.907698,3.386721 5.635241,2.326191 3.727544,-1.06053 4.007642,-3.500358 3.77575,-4.854818 -0.320341,-1.87108 -1.027237,-4.968765 -2.93751,-7.426693 -1.767069,-2.27367 -3.878853,-3.726262 -5.459533,-4.593538 -1.255768,-0.689006 -3.882802,-0.8554403 -5.941108,2.388903 -2.058307,3.244343 -0.698669,5.393154 0.456474,6.245944 z"
   style="fill:#b32362;fill-rule:nonzero;stroke-width:0.999999"
   id="path3"
   sodipodi:nodetypes="sssssssss" /><g
   id="g6"
   transform="translate(0,0.77123085)">&#10;        <path
   d="m 42.46,36.49 c 0,1.32 4.57,3.45 13.38,4.59 L 55.06,32 c -8.32,1.15 -12.6,3.2 -12.6,4.49 z m 26.41,5.36 c 17.34,0 26.41,-3.49 26.41,-5.36 0,-1.87 -9.07,-5.36 -26.41,-5.36 -2.65,0 -5.09,0.09 -7.35,0.23 l 0.88,10.31 c 2.01,0.11 4.16,0.18 6.47,0.18 z"
   style="fill:none;fill-rule:nonzero"
   id="path5" />&#10;        &#10;    </g></svg>
