<?xml version="1.0" encoding="UTF-8" standalone="no"?>
<svg
   width="128"
   height="128"
   version="1.1"
   id="svg8"
   sodipodi:docname="emoji_u1f628.svg"
   inkscape:version="1.3 (0e150ed6c4, 2023-07-21)"
   xmlns:inkscape="http://www.inkscape.org/namespaces/inkscape"
   xmlns:sodipodi="http://sodipodi.sourceforge.net/DTD/sodipodi-0.dtd"
   xmlns:xlink="http://www.w3.org/1999/xlink"
   xmlns="http://www.w3.org/2000/svg"
   xmlns:svg="http://www.w3.org/2000/svg">
  <defs
     id="defs8">
    <linearGradient
       id="linearGradient13"
       gradientUnits="userSpaceOnUse"
       x1="63.79"
       x2="63.79"
       y1="65.667"
       y2="3.276"
       gradientTransform="translate(-222.67115,-68.896121)">
      <stop
         offset="0"
         stop-color="#fcc21b"
         id="stop9" />
      <stop
         offset="0.33229145"
         stop-color="#e5bf34"
         id="stop10" />
      <stop
         offset="0.64302391"
         stop-color="#abb973"
         id="stop11" />
      <stop
         offset=".935"
         stop-color="#4fafd8"
         id="stop12" />
      <stop
         offset="1"
         stop-color="#42ade7"
         id="stop13" />
    </linearGradient>
    <linearGradient
       inkscape:collect="always"
       xlink:href="#linearGradient13"
       id="linearGradient9"
       x1="64.190002"
       y1="127.14"
       x2="79.472038"
       y2="1.4996624"
       gradientUnits="userSpaceOnUse" />
  </defs>
  <sodipodi:namedview
     id="namedview8"
     pagecolor="#ffffff"
     bordercolor="#000000"
     borderopacity="0.25"
     inkscape:showpageshadow="2"
     inkscape:pageopacity="0.0"
     inkscape:pagecheckerboard="0"
     inkscape:deskcolor="#d1d1d1"
     inkscape:zoom="2.1659051"
     inkscape:cx="24.93184"
     inkscape:cy="35.550957"
     inkscape:current-layer="g2" />
  <linearGradient
     id="a"
     gradientUnits="userSpaceOnUse"
     x1="63.79"
     x2="63.79"
     y1="65.667"
     y2="3.276"
     gradientTransform="translate(-222.67115,-68.896121)">
    <stop
       offset="0"
       stop-color="#fcc21b"
       id="stop1" />
    <stop
       offset=".151"
       stop-color="#e5bf34"
       id="stop2" />
    <stop
       offset=".473"
       stop-color="#abb973"
       id="stop3" />
    <stop
       offset=".935"
       stop-color="#4fafd8"
       id="stop4" />
    <stop
       offset="1"
       stop-color="#42ade7"
       id="stop5" />
  </linearGradient>
  <g
     id="g5"
     transform="translate(-0.00498676,-0.00342312)">&#10;		<g
   id="g4">&#10;			<g
   id="g3">&#10;				<g
   id="g2">&#10;					<path
   fill="#fcc21b"
   d="M 16.32,33.04 C 35.43,4.43 67.33,-8.62 101.15,8.58 c 22.64,11.52 30.5,38.85 20.67,70.98 -4.05,13.25 6.08,15.5 5.43,22.53 -1.29,13.77 -28.23,25.05 -63.06,25.05 C 29.36,127.14 2.05,115.89 1.12,102.09 -0.76,74.3 4.13,51.32 16.32,33.04"
   id="path1-2"
   style="fill:url(#linearGradient9)" />
&#10;				<path
   fill="#ed6c30"
   d="m 48.846692,100.46227 c 3.51,1.14 6.45,3.6 9.29,5.92 3.33,2.85 7.11,4.29 11.54,3.88 3.77,-0.35 7.42,-2.04 9.8,-5.17 6.58,-8.679997 1.86,-20.469993 0.03,-23.729993 -3.98,-6.64 -10.02,-11.64 -16.86,-14.44 -3.65,-1.53 -8.15,-2.67 -12.39,-2.86 -10.12,-0.58 -21.9,3.07 -29.06,13.48 -5.42,7.64 -6.66,20.199996 2.64,24.369993 3.04,1.36 6.48,1.78 9.63,0.54 4.1,-1.63 8.68,-3.119997 13.16,-2.489997 0.76,0.09 1.5,0.269997 2.22,0.499997 z"
   id="path6-3" />
<path
   fill="#ffffff"
   d="m 93.166692,48.912277 c -1.62,8.91 -9.61,14.92 -17.83,13.42 -8.24,-1.5 -13.59,-9.94 -11.95,-18.85 1.62,-8.91 9.6,-14.91 17.83,-13.41 8.23,1.5 13.58,9.93 11.95,18.84 z"
   id="path7-5" />
<path
   fill="#ffffff"
   d="m 50.826692,45.322277 c -3.27,8.16 -11.43,12.57 -18.21,9.85 -6.81,-2.72 -9.66,-11.54 -6.38,-19.7 3.27,-8.16 11.41,-12.57 18.21,-9.85 6.79,2.72 9.64,11.55 6.38,19.7 z"
   id="path8-6" />
<path
   fill="#2f2f2f"
   d="m 42.686692,42.222277 c -0.96,2.92 -3.75,4.68 -6.24,3.94 -2.49,-0.74 -3.72,-3.71 -2.76,-6.63 0.95,-2.92 3.74,-4.69 6.23,-3.94 2.48,0.74 3.72,3.71 2.77,6.63"
   id="path9" />
<path
   fill="#2f2f2f"
   d="m 81.676692,47.192277 c -0.39,3.32 -2.97,5.79 -5.78,5.54 -2.8,-0.25 -4.76,-3.15 -4.38,-6.45 0.38,-3.31 2.98,-5.8 5.78,-5.55 2.8,0.26 4.76,3.15 4.38,6.46"
   id="path10" />
<path
   fill="#ffffff"
   d="m 112.18669,83.472277 c -0.16,-5.26 -5.42,-13.74 -6.4,-13.85 -1.02,-0.06 -5.29,6.54 -5.879998,13.27 -0.55,4.83 2.179998,8.269996 6.019998,8.229996 4.23,-0.04 6.33,-2.93 6.26,-7.649996 z"
   id="path11" />
</g>
&#10;			</g>
&#10;		</g>
&#10;		&#10;		&#10;	</g>
</svg>
