<?xml version="1.0" encoding="UTF-8" standalone="no"?>
<!-- Generator: Adobe Illustrator 24.1.2, SVG Export Plug-In . SVG Version: 6.00 Build 0)  -->

<svg
   version="1.1"
   id="Layer_3"
   x="0px"
   y="0px"
   viewBox="0 0 128 128"
   style="enable-background:new 0 0 128 128;"
   xml:space="preserve"
   sodipodi:docname="emoji_u1f986.svg"
   inkscape:version="1.2.2 (732a01da63, 2022-12-09)"
   xmlns:inkscape="http://www.inkscape.org/namespaces/inkscape"
   xmlns:sodipodi="http://sodipodi.sourceforge.net/DTD/sodipodi-0.dtd"
   xmlns="http://www.w3.org/2000/svg"
   xmlns:svg="http://www.w3.org/2000/svg"><defs
   id="defs39921" /><sodipodi:namedview
   id="namedview39919"
   pagecolor="#ffffff"
   bordercolor="#000000"
   borderopacity="0.25"
   inkscape:showpageshadow="2"
   inkscape:pageopacity="0.0"
   inkscape:pagecheckerboard="0"
   inkscape:deskcolor="#d1d1d1"
   showgrid="false"
   inkscape:zoom="2.9996795"
   inkscape:cx="47.505075"
   inkscape:cy="71.007586"
   inkscape:window-width="1366"
   inkscape:window-height="697"
   inkscape:window-x="-8"
   inkscape:window-y="-8"
   inkscape:window-maximized="1"
   inkscape:current-layer="Layer_3" />
<linearGradient
   id="SVGID_1_"
   gradientUnits="userSpaceOnUse"
   x1="47.4891"
   y1="11.504"
   x2="51.0205"
   y2="45.1025">
	<stop
   offset="0.1705"
   style="stop-color:#01AB46"
   id="stop39885" />
	<stop
   offset="0.3448"
   style="stop-color:#089E42"
   id="stop39887" />
	<stop
   offset="0.6711"
   style="stop-color:#1A7A37"
   id="stop39889" />
	<stop
   offset="1"
   style="stop-color:#2F502A"
   id="stop39891" />
</linearGradient>
<g
   fill="#fcc21b"
   id="g22204"
   transform="matrix(1.1632777,-0.37167414,0.37167414,1.1632777,-44.119955,-6.9688817)"
   style="fill:#ed6c30;stroke-width:0.818859"><path
     d="m 52.29,103.85 c -0.75,2.44 -1.25,5.18 -2.68,7.25 -3.2,4.63 -10.878549,-0.49575 -14.454676,1.60823 -1.658623,0.96657 -1.742331,3.51677 -0.930061,5.03579 1.253245,2.34245 4.173653,2.06638 6.432883,2.54333 1.250082,0.27293 2.549573,0.30931 3.845874,0.37716 1.162887,0.067 2.07598,0.20549 3.21598,0.42549 1.5,0.3 3.12,-0.09 4.25,-1.14 1.36,-1.24 1.3,-2.8 1.65,-4.48 0.49,-2.43 1.44,-4.75 2.41,-7.03 0.87,-2.07 2.88,-5.1 2.58,-7.43 -0.08,-0.66 -0.6,-0.99 -1.22,-1.21 -0.71,-0.26 -1.74,-0.56 -2.5,-0.48 -1.4,0.13 -1.87,2.44 -2.26,3.5 -0.12,0.34 -0.23,0.68 -0.34,1.03 z"
     id="path22202"
     style="fill:#ed6c30;stroke-width:0.818859"
     sodipodi:nodetypes="ccccccccccccccc" /></g><g
   fill="#fcc21b"
   id="g22374"
   transform="matrix(1.1632777,-0.37167414,0.37167414,1.1632777,-23.078009,-3.5342246)"
   style="fill:#ed6c30;stroke-width:0.818859"><path
     d="m 52.29,103.85 c -0.75,2.44 -1.560934,5.68781 -2.518348,8.01443 -2.142924,5.2043 -8.013572,1.35516 -10.473164,4.01628 -1.142169,1.22494 -0.821547,3.79996 0.03909,5.20183 1.327685,2.16169 3.554364,1.43743 5.381344,1.57091 1.012276,0.0829 2.027157,-0.0794 3.044319,-0.20957 0.913412,-0.11057 1.823232,-0.13071 2.719375,-0.34341 1.182485,-0.26982 2.594904,-0.82359 3.475943,-2.08976 1.065405,-1.5007 0.675242,-3.01231 0.66021,-4.72832 C 54.581148,112.80377 55.06,110.72 56.03,108.44 c 0.87,-2.07 2.88,-5.1 2.58,-7.43 -0.08,-0.66 -0.6,-0.99 -1.22,-1.21 -0.71,-0.26 -1.74,-0.56 -2.5,-0.48 -1.4,0.13 -1.87,2.44 -2.26,3.5 -0.12,0.34 -0.23,0.68 -0.34,1.03 z"
     id="path22372"
     style="fill:#ed6c30;stroke-width:0.818859"
     sodipodi:nodetypes="ccccccccccccccc" /></g><path
   style="fill:#727f48;fill-opacity:1"
   d="M35.84,48.65c0,0,5.84-8.38,5.42-11.61c-0.42-3.24-1.55-3.94-4.79-5.07  c-3.24-1.13-5.14-2.89-5.14-2.89s-2.35-11.03-2.11-12.39c0.28-1.62,6.12-12.53,19.99-12.53c13.37,0,18.86,11.22,18.16,19.85  c-0.63,7.81-3.52,10-5.56,16.47c-2.04,6.48-3.03,10.35-3.03,10.35l-12.04,2.46l-10.07-2.18L35.84,48.65z"
   id="path39894" />


<path
   style="fill:#6593a2;fill-opacity:1"
   d="M98.66,54.49c0,0,4.8-0.94,4.82-4.2c0.01-3.26-1.74-1.84-1.76-4.21c-0.02-2.37,4.24-2.93,7.04-0.94  c2.21,1.57,7.26,6.68,6.98,17.29c-0.38,14.41-7.92,24.95-19.79,31.47c-9.68,5.31-23.96,4.68-23.96,4.68L98.66,54.49z"
   id="path39900" />
<path
   style="fill:#ffffff"
   d="M85.67,55.69c2.35-0.28,12.66-3.54,16.33-2.6c4.43,1.13,8.85,4.25,7.95,14.15  c-1.16,12.85-10.29,20.68-14.22,22.83C88.7,93.91,81.94,94,81.94,94S83.33,55.97,85.67,55.69z"
   id="path39902" />

<path
   style="fill:#2D2B33;"
   d="M50.2,20.77c-0.42,1.75-1.61,3.12-3.94,2.75c-2.18-0.35-3.24-2.6-2.6-4.79  c0.5-1.73,1.79-2.9,3.97-2.53C50.13,16.62,50.6,19.08,50.2,20.77z"
   id="path39906" />

<path
   style="fill:#FFFFFF;"
   d="M33.16,51.6c0,0,2.16,9.43,12.95,7.84c7.71-1.14,13.42-4.97,13.42-4.97l0.09-6.29  c0,0-5.12,3-11.26,2.91c-6.38-0.09-11.92-3.38-11.92-3.38L33.16,51.6z"
   id="path39910" />
<path
   style="fill:#855c52;fill-opacity:1"
   d="M26.03,69.11C25.28,89.56,40.7,99.28,65.17,99.7c27.12,0.47,37.61-15.44,39.23-25.43  c1.69-10.45-5.07-12.67-5.07-12.67s6.76-2.82,3.73-9.5c-1.41-0.28-8.35,1.57-21.54,0.21c-13.1-1.35-22.08,0.94-22.08,0.94  s-3.28,3.57-12.67,3.1c-11.25-0.56-13.42-4.97-13.42-4.97S26.5,56.39,26.03,69.11z"
   id="path39912" />
<path
   style="fill:#bca9a4"
   d="M52.03,73.14c2.28,7.9,10.42,12.67,22.52,12.11c10.98-0.51,18.96-8.17,20.27-14.92  c1.43-7.34-1.55-10.14-1.55-10.14s6.34-2.3,6.34-6.76c-3.57-2.16-14.92-3.66-27.5-4.13c-8.16-0.3-12.76,2.72-12.76,2.72  S47.8,58.5,52.03,73.14z"
   id="path39914" />
<path
   style="fill:#B0B0B1;"
   d="M76.05,54.84"
   id="path39916" />
<path
   style="fill:#fcc21b;stroke-width:35.9054;stroke-linecap:round"
   d="m 29.759915,16.309899 c -3.013721,0 -4.474403,2.78145 -9.156763,5.539959 -4.282939,2.523199 -7.031255,2.64216 -7.031255,5.764357 0,2.946749 3.633657,3.922063 12.351921,3.922063 8.718263,0 9.233359,-1.919141 8.839593,-6.094063 -0.442803,-4.694836 -2.135556,-9.132316 -5.003496,-9.132316 z"
   id="path22009"
   sodipodi:nodetypes="ssssss" /></svg>
