<?xml version="1.0" encoding="UTF-8" standalone="no"?>
<svg
   width="128"
   height="128"
   style="enable-background:new 0 0 128 128;"
   version="1.1"
   id="svg15"
   sodipodi:docname="emoji_u1f98f.svg"
   inkscape:version="1.3 (0e150ed6c4, 2023-07-21)"
   xmlns:inkscape="http://www.inkscape.org/namespaces/inkscape"
   xmlns:sodipodi="http://sodipodi.sourceforge.net/DTD/sodipodi-0.dtd"
   xmlns="http://www.w3.org/2000/svg"
   xmlns:svg="http://www.w3.org/2000/svg">
  <defs
     id="defs15">
    <clipPath
       id="clipPath1">
      <rect
         id="rect1"
         height="128"
         width="128"
         x="0"
         y="0" />
    </clipPath>
  </defs>
  <sodipodi:namedview
     id="namedview15"
     pagecolor="#ffffff"
     bordercolor="#000000"
     borderopacity="0.25"
     inkscape:showpageshadow="2"
     inkscape:pageopacity="0.0"
     inkscape:pagecheckerboard="0"
     inkscape:deskcolor="#d1d1d1"
     inkscape:zoom="1.4335485"
     inkscape:cx="48.132309"
     inkscape:cy="76.383882"
     inkscape:window-width="1366"
     inkscape:window-height="697"
     inkscape:window-x="-8"
     inkscape:window-y="-8"
     inkscape:window-maximized="1"
     inkscape:current-layer="svg15" />
  <style
     type="text/css"
     id="style1">&#10;.st0{clip-path:url(#SVGID_2_);fill:#79A3AC;}&#10;.st1{clip-path:url(#SVGID_2_);fill:#55787C;}&#10;.st2{clip-path:url(#SVGID_2_);fill:#65878D;}&#10;.st3{clip-path:url(#SVGID_2_);fill:#2F2F2F;}&#10;.st4{clip-path:url(#SVGID_2_);fill:#C2CBCE;}&#10;  </style>
  <g
     id="g26"
     transform="matrix(0.98437112,0,0,0.98437112,3.8043714,1.0002522)"
     style="stroke-width:1.01588">
    <path
       style="fill:#6593a2;fill-opacity:1;stroke-width:36.4756;stroke-linecap:round"
       d="m 79.638809,101.73973 c 0,0 5.255826,0.68166 8.092304,-0.59645 2.836478,-1.278119 2.169072,-5.282876 2.085646,-10.054507 C 89.73333,86.317145 89.316205,79.926571 89.316205,79.926571 L 79.80566,78.904079 Z"
       id="path24" />
    <path
       id="path25"
       style="fill:#2f2f2f;fill-opacity:1;stroke-width:36.4756;stroke-linecap:round"
       d="m 79.804818,78.904533 -0.166311,22.829547 c 0,0 0.489213,0.0637 1.227717,0.11587 0.01226,8.7e-4 0.01749,9.6e-4 0.0299,0.002 0.04999,0.004 0.100904,0.006 0.153231,0.01 1.352715,0.0863 3.441781,0.12371 5.207986,-0.26722 -0.378605,-3.998387 -1.056745,-8.350433 -1.164182,-13.436022 -0.06677,-3.160785 -0.134356,-4.363347 3.09452,-4.363347 0.908587,0 1.206076,0.01813 1.352918,0.03737 -0.11683,-2.247558 -0.224241,-3.905521 -0.224241,-3.905521 z" />
    <g
       id="g24"
       transform="matrix(0.95675974,0,0,0.95675974,0.03871239,2.7673873)"
       style="stroke-width:1.06178">
      <g
         id="g20"
         style="stroke-width:1.01814"
         transform="matrix(1.042865,0,0,1.042865,-3.7666663,-12.382346)">
        <g
           id="g19"
           style="stroke-width:1.01814">
          <path
             style="fill:#6593a2;fill-opacity:1;stroke-width:36.557;stroke-linecap:round"
             d="m 98.578013,74.875006 c 0,0 3.375917,-10.255566 12.898017,-10.255566 10.81714,0 15.86779,5.965291 15.86779,16.041333 0,5.287123 -2.97225,13.400104 -2.97225,13.400104 l -2.93101,-1.452815 c 0,0 2.38662,-6.175122 2.38662,-11.455683 0,-6.798355 -3.75447,-12.196995 -12.1059,-12.196995 -9.59928,0 -13.143267,5.919622 -13.143267,5.919622 z"
             id="path11"
             sodipodi:nodetypes="cssccssc" />
          <path
             d="m 119.69591,99.236684 c -0.17878,1.606116 -0.62277,2.121346 1.47103,2.158806 3.05408,0.043 4.8818,-1.07756 6.15777,-3.861119 1.09887,-2.406557 0.98267,-5.17994 -0.86097,-7.208627 -1.88271,-2.076143 -4.15224,-1.640616 -5.92996,0.295471 -2.51522,2.743544 -0.47964,5.441659 -0.83787,8.615469 z"
             style="fill:#2f2f2f;stroke-width:1.01814"
             id="path1-5"
             sodipodi:nodetypes="cccccc" />
        </g>
        <path
           id="path2-1"
           style="fill:#6593a2;fill-opacity:1;stroke-width:1.01814"
           d="m 69.602629,35.560397 c -22.693313,0 -35.713422,13.942027 -35.713422,51.191281 0,19.027672 -0.124021,17.424052 -0.256655,21.206642 -0.11464,3.26938 -1.609963,10.23731 1.997699,12.31755 4.460892,2.57222 13.594861,3.063 16.759221,-1.69316 1.350738,-2.03022 1.620377,-4.51661 1.620377,-6.87033 0,-2.70173 0.157058,-7.26802 0.157058,-9.97892 0,-1.14478 -0.09684,-2.699499 0.22218,-3.901543 0.307713,-1.159445 1.427464,-1.978545 3.319283,-1.978545 1.034899,0 2.709046,-0.03945 3.744489,0.05555 3.22378,0.295768 3.279555,2.395664 3.240754,7.226568 -0.02422,3.01593 0.50763,9.59363 0.270063,12.60677 -0.311935,3.95639 3.342786,5.40427 6.877985,5.57747 3.754901,0.18397 8.419126,-0.22333 11.741031,-2.11454 3.482794,-1.9828 2.127242,-5.11035 1.997699,-8.34322 -0.09028,-2.25303 -0.454861,-7.65637 -0.626316,-9.90039 -0.139935,-1.831474 -0.297111,-4.600767 -0.199195,-6.44128 0.08528,-1.603069 0.208378,-3.675533 2.240947,-4.345905 1.438466,-0.474428 6.927629,-0.458161 8.442817,-0.342846 3.683412,0.280329 3.283634,9.329552 3.348014,10.501801 0.15542,2.82998 -0.256717,4.87127 2.361612,6.59453 3.11483,2.05001 8.2988,1.51294 11.66825,0.52097 6.11866,-1.80134 4.08032,-7.05194 4.37847,-11.85979 0.28797,-4.643628 0.12258,-6.486348 0.12258,-16.521719 0,-29.382765 -10.95124,-43.506939 -47.714941,-43.506939 z"
           sodipodi:nodetypes="sssssssssssssssssssssssss" />
      </g>
      <path
         id="path17"
         style="fill:#2f2f2f;fill-opacity:1;stroke-width:1.06178"
         d="m 62.601562,25.076172 c -3.590467,0.450141 -6.896135,1.321209 -9.90625,2.652344 -2.546419,1.748542 -4.742288,3.172335 -5.152343,2.957031 -1.601979,1.157699 -3.090046,2.495175 -4.462891,4.021484 -0.01542,0.01714 -0.03149,0.03359 -0.04687,0.05078 -0.793965,0.886867 -1.546593,1.839553 -2.261719,2.855469 -0.04671,0.06641 -0.09426,0.132246 -0.140625,0.199219 -0.668189,0.964269 -1.301358,1.988207 -1.898437,3.070312 -0.106137,0.192575 -0.210589,0.387621 -0.314453,0.583985 -0.237302,0.448107 -0.467953,0.906994 -0.69336,1.375 -0.143028,0.297324 -0.285623,0.59497 -0.423828,0.900391 -0.148325,0.327396 -0.292791,0.661275 -0.435547,0.998046 -0.09752,0.230313 -0.192206,0.464499 -0.287109,0.699219 -0.204415,0.504965 -0.403446,1.021338 -0.595703,1.546875 -0.127871,0.350004 -0.254499,0.701347 -0.376953,1.060547 -0.106084,0.310747 -0.208536,0.62568 -0.310547,0.943359 -0.139405,0.43473 -0.274498,0.876428 -0.40625,1.324219 -0.103157,0.350118 -0.204281,0.704333 -0.302734,1.0625 -0.137481,0.500866 -0.27214,1.008683 -0.400391,1.525391 -0.0706,0.284012 -0.139236,0.568586 -0.207031,0.857422 -0.158606,0.676688 -0.311916,1.361109 -0.455078,2.064453 -0.03963,0.194388 -0.07679,0.395356 -0.115235,0.591797 -0.119248,0.610338 -0.232075,1.231076 -0.339844,1.861328 -0.04385,0.256035 -0.08891,0.510184 -0.130859,0.769531 -0.125697,0.778373 -0.243079,1.570515 -0.351562,2.378906 -0.0276,0.205347 -0.05164,0.415747 -0.07813,0.623047 -0.08997,0.705331 -0.174951,1.42234 -0.251953,2.150391 -0.0228,0.215228 -0.0467,0.427303 -0.06836,0.644531 -0.02678,0.268976 -0.04724,0.550217 -0.07227,0.822266 -0.08841,0.959411 -0.16588,1.937572 -0.232422,2.935546 -0.02937,0.441249 -0.055,0.889048 -0.08008,1.337891 -0.04942,0.883031 -0.09035,1.782616 -0.123046,2.695313 -0.01599,0.447078 -0.03296,0.889508 -0.04492,1.34375 -0.03064,1.161473 -0.04861,2.347849 -0.05273,3.55664 -6.34e-4,0.186696 -0.0059,0.364904 -0.0059,0.552735 0,4.424426 -0.0084,7.466752 -0.01953,10.052734 3.563853,-0.656135 6.675823,-2.381445 8.396484,-6.257813 0.831507,-1.8925 1.161315,-2.566276 2.78125,-3.953124 1.842184,-1.565697 3.737103,-2.914311 5.636719,-4.337891 6.864707,-5.151073 14.495759,-14.935905 14.132812,-23.642578 -0.160971,-3.861524 -1.309835,-8.238614 -2.730468,-12.267578 -0.849513,-2.409245 0.818267,-3.849856 2.228515,-6.820313 0.724675,-1.526409 0.780752,-3.871907 0.599609,-5.785156 z" />
      <g
         id="g22"
         style="stroke-width:1.01814"
         transform="matrix(1.042865,0,0,1.042865,-3.7666663,-12.382346)">
        <path
           d="m 34.156718,34.427826 c -3.734551,0.267162 -6.712618,1.615995 -9.694483,3.358334 -2.625412,1.53526 -4.819224,3.669941 -6.365645,6.282001 -3.070141,5.194274 -3.472119,11.53229 -3.690279,17.423453 -0.08513,2.389916 0.296354,5.485566 -0.44635,7.730723 -1.022209,3.060996 -3.610526,5.681582 -4.346754,8.833145 -0.7310939,3.068568 0.481742,7.204886 2.666344,9.43303 2.645297,2.693986 6.810769,5.054919 10.562518,5.515803 6.356446,0.778009 13.664142,0.823335 16.622828,-6.106524 0.78059,-1.847091 1.091985,-2.504752 2.612722,-3.858324 1.729376,-1.528129 3.508176,-2.84493 5.291466,-4.234351 C 53.813423,73.777639 60.05046,66.753947 59.711095,58.256126 59.558625,54.487315 57.739118,46.217715 51.536094,40.505645 45.333072,34.793574 39.239843,34.064188 34.156718,34.427826 Z"
           style="fill:#6593a2;stroke-width:1.01814"
           id="path1-0-0"
           sodipodi:nodetypes="sccccccccccczs" />
        <path
           d="m 16.748123,81.571277 c 0.43711,0.172799 0.858088,0.438324 1.203886,0.74086 0.681224,0.60443 1.308762,1.403409 0.969689,2.340533 -0.920764,2.598644 -3.548391,0.124439 -4.106351,-1.295068 -0.81908,-2.081299 0.581846,-2.338406 1.932776,-1.786325 z m 14.885896,2.960752 c 1.382975,0.03337 2.807287,0.746191 2.02837,2.228904 -0.755603,1.442495 -3.226758,1.99797 -4.694132,1.813593 -1.302027,-0.163749 -2.55252,-0.824181 -1.910409,-2.284101 0.693239,-1.61297 3.099182,-1.787161 4.576171,-1.758396 z"
           fill="#2f2f2f"
           id="path7-7"
           style="stroke-width:1.01814" />
        <g
           id="g21"
           style="stroke-width:1.01814">
          <path
             style="fill:#6593a2;stroke-width:36.557;stroke-linecap:round"
             d="m 19.730466,24.329765 c -3.341903,0.760766 -4.822155,7.036997 -3.641666,12.22268 1.18051,5.185684 6.101076,9.762377 8.521061,9.211478 2.419975,-0.550899 5.210019,-6.398041 3.97705,-11.814198 -1.232958,-5.41616 -6.551708,-10.144627 -8.856445,-9.61996 z"
             id="path8-8" />
          <path
             style="fill:#6593a2;stroke-width:36.557;stroke-linecap:round"
             d="m 57.650456,25.90866 c 3.495173,1.264889 4.250495,8.217327 2.287752,13.640866 -1.962763,5.423543 -7.869502,9.69239 -10.400485,8.776438 -2.530983,-0.915956 -4.753243,-7.581423 -2.703264,-13.246009 2.05,-5.664589 8.405532,-10.043631 10.815997,-9.171295 z"
             id="path9-4" />
        </g>
        <path
           d="m 35.585655,55.727463 c -1.471708,1.908533 -1.326359,4.781316 0.321653,6.424376 1.670037,1.623593 4.21341,1.416236 5.68384,-0.471546 1.46198,-1.919549 1.317264,-4.802704 -0.341766,-6.43603 -1.659029,-1.633327 -4.212765,-1.426613 -5.663727,0.483206 z"
           style="fill:#2f2f2f;stroke-width:1.01814"
           id="path1-6" />
        <g
           id="g18"
           style="stroke-width:1.01814">
          <path
             id="path11-1"
             clip-path="url(#SVGID_2_)"
             style="fill:#ffffff;fill-opacity:1;stroke-width:1.01814"
             class="st4"
             d="m 10.481649,51.022533 c -0.07757,0.0039 -0.154109,0.03043 -0.228685,0.08551 -0.7954815,0.587471 0.585965,4.80268 2.519514,6.395231 1.576347,1.298345 3.720871,2.176819 4.316697,2.303471 0.1432,0.03044 0.286858,0.01594 0.435095,-0.06191 0.444693,-0.233581 1.507128,-1.060995 2.135136,-3.155749 0.508059,-1.694658 -0.446288,-2.757973 -0.906151,-2.96615 -0.459861,-0.208178 -1.428912,-0.320389 -3.184852,-0.733126 -3.215229,-0.755746 -4.33695,-1.904735 -5.086754,-1.867265 z"
             sodipodi:nodetypes="ssssssssss" />
          <path
             id="path15"
             clip-path="url(#SVGID_2_)"
             style="fill:#ffffff;fill-opacity:1;stroke-width:1.01814"
             class="st4"
             d="m 1.8790792,55.785983 c -0.3203756,0.05282 -0.4414468,0.633141 -0.3398438,1.583984 0.2680713,2.50872 1.3616217,5.869977 2.7949219,8.892578 1.4863082,3.134386 3.1069073,5.448557 5.9257817,7.470704 1.247355,0.894802 3.664867,0.130319 5.683594,-2.109375 2.018726,-2.239695 1.503644,-5.710466 0.417968,-6.439454 C 15.397255,64.536968 13.735907,64.603798 10.000173,62.770358 6.2644396,60.936918 5.2241706,60.436137 3.4083761,57.37192 2.7184924,56.207717 2.1994548,55.733168 1.8790792,55.785983 Z"
             sodipodi:nodetypes="sssssssss" />
        </g>
      </g>
    </g>
  </g>
</svg>
