<?xml version="1.0" encoding="UTF-8" standalone="no"?>
<svg
   width="128"
   height="128"
   style="enable-background:new 0 0 128 128;"
   version="1.1"
   id="svg6593"
   sodipodi:docname="emoji_u1f58d.svg"
   inkscape:version="1.2.2 (732a01da63, 2022-12-09)"
   xmlns:inkscape="http://www.inkscape.org/namespaces/inkscape"
   xmlns:sodipodi="http://sodipodi.sourceforge.net/DTD/sodipodi-0.dtd"
   xmlns="http://www.w3.org/2000/svg"
   xmlns:svg="http://www.w3.org/2000/svg">
  <defs
     id="defs6597">
    <defs
       id="defs6584">
      <rect
         id="SVGID_1_"
         height="30"
         transform="matrix(0.7071 -0.7071 0.7071 0.7071 -22.3364 66.4806)"
         width="129"
         x="4.58"
         y="45.2" />
    </defs>
    <clipPath
       clipPathUnits="userSpaceOnUse"
       id="clipPath6737">
      <rect
         height="128.50876"
         style="fill:#e5502e;stroke-width:0.99999"
         transform="rotate(-90.072926)"
         width="29.729715"
         x="-106.46172"
         y="-57.181614"
         id="rect6739" />
    </clipPath>
  </defs>
  <sodipodi:namedview
     id="namedview6595"
     pagecolor="#ffffff"
     bordercolor="#000000"
     borderopacity="0.25"
     inkscape:showpageshadow="2"
     inkscape:pageopacity="0.0"
     inkscape:pagecheckerboard="0"
     inkscape:deskcolor="#d1d1d1"
     showgrid="false"
     inkscape:zoom="1.4998398"
     inkscape:cx="75.67475"
     inkscape:cy="112.6787"
     inkscape:window-width="1366"
     inkscape:window-height="697"
     inkscape:window-x="-8"
     inkscape:window-y="-8"
     inkscape:window-maximized="1"
     inkscape:current-layer="svg6593" />
  <rect
     height="128.51"
     style="fill:#E5502E;"
     transform="matrix(-0.7071 -0.7071 0.7071 -0.7071 76.8339 151.3653)"
     width="29.73"
     x="54.9"
     y="-4.48"
     id="rect6565" />
  <path
     d="M125.52,25.26c-1.81,1.81-7.01-5.5-11.53-10.02s-11.49-9.17-9.68-10.98 c1.81-1.81,10.56-2.23,16.97,4.19C126.78,13.95,127.33,23.45,125.52,25.26z"
     style="fill:#C63720;"
     id="path6567" />
  <path
     d="M125.52,25.26c-2.34,2.34-9.73-0.11-15.58-5.97S101.96,6.6,104.3,4.26 c2.34-2.34,8.99,0.45,14.85,6.31S127.86,22.92,125.52,25.26z"
     style="fill:#E5502E;"
     id="path6569" />
  <ellipse
     cx="24.24"
     cy="105.11"
     rx="6"
     ry="15"
     style="fill:#C63720;"
     transform="matrix(0.7071 -0.7071 0.7071 0.7071 -67.224 47.9244)"
     id="ellipse6571" />
  <path
     d="M20.18,88.33c2.34-2.34,8.99,0.51,14.85,6.36c5.86,5.86,8.52,12.32,6.18,14.66l6.88-6.88l-0.29-0.29 c0.93-2.93-1.32-8.64-6.43-13.76c-5.11-5.11-11.41-7.93-14.33-7.01L20.18,88.33z"
     style="fill:#2F2F2F;"
     id="path6573" />
  <path
     d="M91.6,16.91c2.3-2.3,8.8,0.32,14.66,6.18c5.86,5.86,8.71,12.51,6.36,14.85l6.88-6.88l-0.29-0.29 c0.93-2.93-1.89-8.64-7.01-13.76c-5.11-5.11-10.83-7.93-13.76-7.01L91.6,16.91z"
     style="fill:#2F2F2F;"
     id="path6575" />
  <path
     d="M30.6,114.99c-1.81,1.81-6.94-0.25-11.47-4.78s-6.61-9.66-4.8-11.47c1.81-1.81,6.83,0.39,11.36,4.92 C30.21,108.19,32.41,113.18,30.6,114.99z"
     style="fill:#E5502E;"
     id="path6577" />
  <polygon
     points="9.53,125.81 30.91,114.67 14.66,98.41 3.53,119.81 "
     style="fill:#E5502E;"
     id="polygon6579" />
  <ellipse
     cx="6.6"
     cy="122.75"
     rx="1.79"
     ry="4.47"
     style="fill:#C63720;"
     transform="matrix(0.7071 -0.7071 0.7071 0.7071 -84.8605 40.6191)"
     id="ellipse6581" />
  <ellipse
     cx="9.167057"
     cy="106.58386"
     rx="30.699732"
     ry="7.1499372"
     style="fill:#2f2f2f;stroke-width:0.999991"
     transform="rotate(-44.927074)"
     clip-path="url(#clipPath6737)"
     id="ellipse6589"
     mask="none" />
</svg>
