<?xml version="1.0" encoding="UTF-8" standalone="no"?>
<svg
   width="128"
   height="128"
   style="enable-background:new 0 0 128 128;"
   version="1.1"
   id="svg7"
   sodipodi:docname="emoji_u1f4f8.svg"
   inkscape:version="1.3 (0e150ed6c4, 2023-07-21)"
   xmlns:inkscape="http://www.inkscape.org/namespaces/inkscape"
   xmlns:sodipodi="http://sodipodi.sourceforge.net/DTD/sodipodi-0.dtd"
   xmlns="http://www.w3.org/2000/svg"
   xmlns:svg="http://www.w3.org/2000/svg">
  <defs
     id="defs7" />
  <sodipodi:namedview
     id="namedview7"
     pagecolor="#ffffff"
     bordercolor="#000000"
     borderopacity="0.25"
     inkscape:showpageshadow="2"
     inkscape:pageopacity="0.0"
     inkscape:pagecheckerboard="0"
     inkscape:deskcolor="#d1d1d1"
     inkscape:zoom="2.867097"
     inkscape:cx="55.108006"
     inkscape:cy="67.489868"
     inkscape:window-width="1366"
     inkscape:window-height="697"
     inkscape:window-x="-8"
     inkscape:window-y="-8"
     inkscape:window-maximized="1"
     inkscape:current-layer="svg7" />
  <g
     id="g7"
     transform="translate(4.055)">
    <path
       d="M 104.64,27.66 H 101 L 99.21,19.99 C 98.76,18.04 97.02,16.67 95.02,16.67 H 68.89 c -2,0 -3.736872,1.378383 -4.19,3.32 l -1.79,7.67 H 15.27 c -7.72,0 -13.98,6.26 -13.98,13.98 v 64.19 c 0,7.72 6.26,13.98 13.98,13.98 h 89.36 c 7.72,0 13.98,-6.26 13.98,-13.98 V 41.64 c 0,-7.72 -6.26,-13.98 -13.97,-13.98 z"
       style="fill:#78a3ad"
       id="path1"
       sodipodi:nodetypes="sccssscssssssss" />
    <polygon
       points="1.9,103.56 118.61,103.74 118.61,55.21 1.28,55.65 "
       style="fill:#2f2f2f"
       id="polygon1" />
    <g
       id="circle1">
      <path
         style="color:#000000;fill:#ffffff;stroke-linecap:round;stroke-linejoin:round;stroke-miterlimit:10;-inkscape-stroke:none"
         d="M 91.66,78.639999 A 31.360001,31.360001 0 0 1 60.299999,110 a 31.360001,31.360001 0 0 1 -31.36,-31.360001 31.360001,31.360001 0 0 1 31.36,-31.36 31.360001,31.360001 0 0 1 31.360001,31.36 z"
         id="path8" />
      <path
         style="color:#000000;fill:#2f2f2f;stroke-linecap:round;stroke-linejoin:round;stroke-miterlimit:10;-inkscape-stroke:none"
         d="m 60.300849,43.732942 c -19.9689,0 -36.215694,15.777372 -36.215694,35.169309 0,19.391937 16.246794,35.167279 36.215694,35.167279 19.968901,0 36.213605,-15.775342 36.213605,-35.167279 0,-19.391937 -16.244704,-35.169309 -36.213605,-35.169309 z m -6.8e-5,6.046355 c 15.968534,0 28.859375,12.892794 28.859375,28.861328 0,15.968534 -12.890841,28.859375 -28.859375,28.859375 -15.968534,0 -28.861328,-12.890841 -28.861328,-28.859375 0,-15.968534 12.892794,-28.861328 28.861328,-28.861328 z"
         id="path9"
         sodipodi:nodetypes="ssssssssss" />
    </g>
    <circle
       cx="60.299999"
       cy="78.639999"
       r="23.780001"
       style="fill:#006ca2"
       id="circle2" />
    <circle
       cx="60.299999"
       cy="78.639999"
       r="18.77"
       style="fill:#40c0e7"
       id="circle3" />
    <circle
       cx="60.299999"
       cy="78.639999"
       r="8.21"
       style="fill:#006ca2"
       id="circle4" />
    <path
       d="m 21.71,38.066145 c -0.25,-0.822697 -0.75,-2.039363 -4.59,-2.583966 -2.08,-0.289683 -4.96,0.104285 -6.48,1.54111 -0.69,0.648888 -0.79,1.726507 -0.79,1.726507 0,0 -0.08,1.738094 0.04,2.421744 0.12,0.637301 0.78,1.251428 1.39,1.587459 0.91,0.498254 2.03,0.811111 3.13,0.880635 0.68,0.04635 1.37,0.03476 2.05,-0.02318 1.66,-0.139047 3.41,-0.590952 4.62,-1.599046 0.57,-0.475079 0.67,-1.610634 0.67,-1.610634 0,0 0.18,-1.599047 -0.04,-2.340634 z"
       style="fill:#2f2f2f;stroke-width:1"
       id="path5" />
    <path
       d="m 51.072374,92.094827 c -0.94,-0.83 -1.95,-1.57 -2.37,-1.97 -0.97,-0.94 -1.74,-2.03 -2.47,-3.19 -0.62,-0.99 -1.19,-2.43 -2.5,-2.63 -2,-0.32 -2.6,1.89 -2.13,3.41 0.32,1.02 0.79,2 1.33,2.92 1.05,1.8 7.72,8.139996 9.28,3.86 0.36,-1.01 -0.47,-1.81 -1.14,-2.4 z"
       style="fill:#ffffff"
       id="path15" />
    <path
       d="m 54.682374,97.704827 c -0.64,-0.5 -0.96,-1.33 -0.36,-2.35 0.53,-0.91 1.46,-1.05 2.42,-0.77 0.95,0.29 1.55,1.54 1.26,2.47 -0.42,1.419996 -2.3,1.449996 -3.32,0.65 z"
       style="fill:#ffffff"
       id="path16" />
  </g>
  <g
     id="g2"
     transform="matrix(0.43961759,0,0,0.43961759,69.723136,2.904576)"
     style="stroke-width:2.2747">
    <path
       d="m 120.82,72.98 c -3.1,-1.08 -6.33,-1.71 -9.48,-2.64 -1.23,-0.37 -2.7,-0.65 -3.63,-1.6 -2.39,-2.46 2.5,-4.22 4.25,-4.81 1.1,-0.37 2.11,-0.81 3.17,-1.28 1.04,-0.47 11.01,-3.07 7.3,-5.34 -0.79,-0.48 -1.76,-0.55 -2.62,-0.82 -2.1,-0.65 -4.25,-1.11 -6.38,-1.67 -2.01,-0.53 -4.57,-0.09 -6.3,-1.46 -3.43,-2.7 1.68,-6.49 3.78,-7.81 1.21,-0.76 3.45,-1.77 3.46,-3.48 0.01,-2.56 -3.52,-1.93 -5.08,-2.04 -2.16,-0.16 -4.33,-0.29 -6.49,-0.47 -1,-0.08 -2.37,-0.28 -3.16,-0.95 -1.01,-0.85 0.1,-2.78 0.47,-3.74 1.11,-2.95 2.44,-5.81 3.84,-8.63 1.68,-3.39 3.48,-6.72 5.17,-10.11 0.85,-1.69 1.67,-3.4 2.44,-5.12 0.56,-1.25 1.89,-3.92 0.08,-4.72 -1.5,-0.65 -3.09,0.6 -4.21,1.44 -0.5,0.37 -0.98,0.74 -1.47,1.12 -3.06,2.37 -6,4.89 -8.91,7.44 -2.9,2.55 -5.77,5.14 -8.69,7.67 -0.74,0.64 -1.52,1.26 -2.39,1.73 -1.18,0.64 -2.65,0.95 -3.51,-0.34 -0.88,-1.32 -0.92,-3.19 -0.96,-4.72 -0.05,-2.04 0.08,-4.08 0.19,-6.11 0.08,-1.5 0.42,-3.19 -0.1,-4.64 -0.84,-2.36 -3.47,-1.43 -4.58,0.05 -1.17,1.55 -1.77,3.47 -2.65,5.18 -1.21,2.38 -2.5,4.75 -4.1,6.9 -1.3,1.75 -2.93,3.63 -5.08,4.32 C 62.95,27.05 60.9,25.91 59.39,24.29 57.77,22.55 56.2,20.77 54.66,18.96 52.08,15.93 49.59,12.82 47.09,9.71 45.85,8.16 44.61,6.61 43.34,5.07 42.52,4.07 41.19,2.28 39.72,2.39 37,2.61 38.9,8.95 39.1,10.4 c 0.46,3.31 0.72,6.64 1.42,9.91 0.47,2.22 1.02,4.41 1.41,6.65 0.24,1.4 0.49,4.03 -0.75,5.09 -1.68,1.42 -3.97,-0.77 -5.32,-1.59 -0.88,-0.53 -1.64,-1.24 -2.52,-1.78 -3.75,-2.31 -3.77,1.58 -3.47,4.31 0.18,1.69 0.43,3.05 -1.72,2.96 C 26.4,35.87 24.65,34.87 23.02,34.3 20.98,33.6 18.95,32.88 16.92,32.15 12.96,30.73 9,29.3 5,27.97 3.94,27.62 2.36,28.23 2.02,29.35 c -0.68,2.23 3.69,6.48 4.93,8.06 3.85,4.89 8.79,8.68 12.71,13.48 1.7,2.1 3.78,5.3 2.5,8.08 -1.3,2.85 -5.33,4.24 -7.95,5.63 -1.58,0.84 -6.1,2.98 -4.33,5.41 0.32,0.44 1.07,0.75 1.56,0.96 0.79,0.35 1.65,0.59 2.49,0.75 2.87,0.55 5.79,0.73 8.69,1.07 2.31,0.27 5.09,1.37 4.62,4.1 -0.56,3.28 -3.57,6.33 -5.71,8.68 -3.25,3.56 -6.67,6.97 -10.02,10.43 -1.18,1.22 -8.71,7.46 -6.23,9.32 1.45,1.09 4.9,-0.38 6.45,-0.75 5.78,-1.39 11.55,-2.85 17.28,-4.44 1.55,-0.43 3.1,-0.88 4.63,-1.35 4.24,-1.31 9.58,-2.53 10.28,3.37 0.39,3.18 0.35,6.39 0.65,9.58 0.39,4 0.16,8.17 1.22,12.05 0.61,2.25 3.01,2.25 4.38,0.88 1.71,-1.71 2.61,-4.35 3.7,-6.48 1.32,-2.6 2.53,-5.24 3.8,-7.86 1.42,-2.95 3.02,-7.16 6.25,-8.55 3.26,-1.4 5.44,1.58 7.35,3.71 1.84,2.06 3.51,4.28 5.48,6.24 1.16,1.16 2.24,2.55 3.73,3.31 0.63,0.32 1.39,0.55 1.95,0.01 1.59,-1.55 1.1,-3.8 1.49,-5.77 0.63,-3.18 1.28,-6.99 3.45,-9.53 2.2,-2.56 5.43,-1.34 8.12,-0.45 3.91,1.29 7.8,2.63 11.68,4.02 2.18,0.78 4.37,1.55 6.53,2.38 1.44,0.55 2.97,0.87 4.43,1.32 0.81,0.25 1.59,0.59 2.41,0.81 2.27,0.62 5.21,-0.13 3.16,-2.82 -1.61,-2.12 -3.99,-3.72 -5.91,-5.55 -2.24,-2.12 -4.45,-4.29 -6.75,-6.33 -2.73,-2.42 -5.82,-4.58 -7.66,-7.81 -0.68,-1.18 -1.73,-2.84 -0.9,-4.2 0.88,-1.46 3.4,-1.55 4.88,-1.9 3.77,-0.89 7.66,-0.7 11.5,-0.85 1.92,-0.07 4.68,0.08 6.37,-0.9 3.04,-1.77 -3.17,-4.04 -4.41,-4.48 z"
       style="fill:#ed6c30;stroke-width:2.2747"
       id="path1-8" />
    <path
       d="m 88.36,67.72 c -3.47,0.5 -7.81,2.4 -6.33,6.59 1.03,2.91 3.64,5.02 5.55,7.33 0.61,0.74 1.62,1.48 1.33,2.54 -0.21,0.78 -0.92,0.76 -1.6,0.59 -2.33,-0.59 -4.56,-1.9 -6.67,-3 -2.98,-1.55 -6.38,-2.66 -9.53,-0.92 -3.07,1.69 -4.5,5.14 -6.43,7.87 -1.15,1.64 -2.95,0.88 -3.46,-0.76 -0.85,-2.66 -0.8,-5.8 -3.6,-7.27 -3.05,-1.61 -6.83,-0.17 -9.85,0.66 -1.57,0.43 -4.22,1.49 -5.78,0.66 -1.88,-0.99 0.72,-3.78 1.34,-4.51 2.16,-2.56 4.4,-5.3 5.55,-8.48 1.5,-4.18 -1.81,-7.12 -4.73,-9.51 -0.89,-0.73 -6.16,-4.8 -3.62,-6.03 1.61,-0.78 4.1,0.15 5.73,0.49 2.12,0.43 4.38,0.83 6.48,0.05 4.26,-1.57 4.01,-6.6 4.88,-10.24 0.22,-0.93 0.33,-2.49 1.24,-3.01 1.12,-0.65 2.08,0.38 2.58,1.34 0.63,1.24 0.97,2.6 1.56,3.85 0.94,2.02 2.13,4.03 4.14,5.14 4.21,2.32 9.2,-0.64 12.77,-2.85 0.9,-0.56 1.9,-1.67 2.95,-1.86 1.07,-0.19 1.15,1.04 0.88,1.8 -0.27,0.73 -0.58,1.48 -0.86,2.21 -1.03,2.7 -2.23,5.92 -0.71,8.67 1.23,2.22 3.62,3.38 5.91,4.2 0.76,0.27 2.89,0.6 4.35,1.25 0.51,0.23 1.48,0.85 1.45,1.52 -0.03,1.48 -4.46,1.53 -5.52,1.68 z"
       style="fill:#fcc21b;stroke-width:2.2747"
       id="path2" />
  </g>
</svg>
