<?xml version="1.0" encoding="UTF-8" standalone="no"?>
<!-- Generator: Adobe Illustrator 25.2.3, SVG Export Plug-In . SVG Version: 6.00 Build 0)  -->

<svg
   version="1.1"
   id="Layer_3"
   x="0px"
   y="0px"
   viewBox="0 0 128 128"
   style="enable-background:new 0 0 128 128;"
   xml:space="preserve"
   sodipodi:docname="emoji_u1f9f1.svg"
   inkscape:version="1.2.2 (732a01da63, 2022-12-09)"
   xmlns:inkscape="http://www.inkscape.org/namespaces/inkscape"
   xmlns:sodipodi="http://sodipodi.sourceforge.net/DTD/sodipodi-0.dtd"
   xmlns="http://www.w3.org/2000/svg"
   xmlns:svg="http://www.w3.org/2000/svg"><defs
   id="defs75739">
	
	
	
</defs><sodipodi:namedview
   id="namedview75737"
   pagecolor="#ffffff"
   bordercolor="#000000"
   borderopacity="0.25"
   inkscape:showpageshadow="2"
   inkscape:pageopacity="0.0"
   inkscape:pagecheckerboard="0"
   inkscape:deskcolor="#d1d1d1"
   showgrid="false"
   inkscape:zoom="2.1210938"
   inkscape:cx="62.467772"
   inkscape:cy="96.64825"
   inkscape:window-width="1366"
   inkscape:window-height="697"
   inkscape:window-x="-8"
   inkscape:window-y="-8"
   inkscape:window-maximized="1"
   inkscape:current-layer="Layer_3" />
<g
   id="g75977"><path
     style="fill:#e0e0e0"
     d="M 119.56,122.62 H 8.45 c -2.45,0 -4.44,-1.99 -4.44,-4.44 V 8.44 C 4.01,5.99 6,4 8.45,4 h 111.11 c 2.45,0 4.44,1.99 4.44,4.44 v 109.74 c 0,2.45 -1.99,4.44 -4.44,4.44 z"
     id="path75576"
     sodipodi:nodetypes="sssssssss" /><g
     id="g75732">
		<g
   id="g75664">
			<g
   id="g75662">
				<path
   style="fill:#e04e2c"
   d="M 39.65,16.53 H 5.91 c -1.05,0 -1.9,-0.85 -1.9,-1.9 V 5.9 C 4.01,4.85 4.86,4 5.91,4 h 33.74 c 1.05,0 1.9,0.85 1.9,1.9 v 8.72 c 0,1.05 -0.85,1.91 -1.9,1.91 z"
   id="path75656" />
				<path
   style="fill:#bf360c"
   d="M 80.87,16.53 H 47.14 c -1.05,0 -1.9,-0.85 -1.9,-1.9 V 5.9 c 0,-1.05 0.85,-1.9 1.9,-1.9 h 33.74 c 1.05,0 1.9,0.85 1.9,1.9 v 8.72 c -0.01,1.05 -0.86,1.91 -1.91,1.91 z"
   id="path75658" />
				<path
   style="fill:#e04e2c"
   d="M 122.1,16.53 H 88.36 c -1.05,0 -1.9,-0.85 -1.9,-1.9 V 5.9 c 0,-1.05 0.85,-1.9 1.9,-1.9 h 33.74 c 1.05,0 1.9,0.85 1.9,1.9 v 8.72 c 0,1.05 -0.85,1.91 -1.9,1.91 z"
   id="path75660" />
			</g>
		</g>
		<g
   id="g75674">
			<g
   id="g75672">
				<path
   style="fill:#e04e2c"
   d="M 39.65,51.89 H 5.91 c -1.05,0 -1.9,-0.85 -1.9,-1.9 v -8.72 c 0,-1.05 0.85,-1.9 1.9,-1.9 h 33.74 c 1.05,0 1.9,0.85 1.9,1.9 v 8.72 c 0,1.05 -0.85,1.9 -1.9,1.9 z"
   id="path75666" />
				<path
   style="fill:#e04e2c"
   d="M 80.87,51.89 H 47.14 c -1.05,0 -1.9,-0.85 -1.9,-1.9 v -8.72 c 0,-1.05 0.85,-1.9 1.9,-1.9 h 33.74 c 1.05,0 1.9,0.85 1.9,1.9 v 8.72 c -0.01,1.05 -0.86,1.9 -1.91,1.9 z"
   id="path75668" />
				<path
   style="fill:#bf360c"
   d="M 122.1,51.89 H 88.36 c -1.05,0 -1.9,-0.85 -1.9,-1.9 v -8.72 c 0,-1.05 0.85,-1.9 1.9,-1.9 h 33.74 c 1.05,0 1.9,0.85 1.9,1.9 v 8.72 c 0,1.05 -0.85,1.9 -1.9,1.9 z"
   id="path75670" />
			</g>
		</g>
		<g
   id="g75684">
			<g
   id="g75682">
				<path
   style="fill:#e04e2c"
   d="M 39.65,87.26 H 5.91 c -1.05,0 -1.9,-0.85 -1.9,-1.9 v -8.72 c 0,-1.05 0.85,-1.9 1.9,-1.9 h 33.74 c 1.05,0 1.9,0.85 1.9,1.9 v 8.72 c 0,1.04 -0.85,1.9 -1.9,1.9 z"
   id="path75676" />
				<path
   style="fill:#bf360c"
   d="M 80.87,87.26 H 47.14 c -1.05,0 -1.9,-0.85 -1.9,-1.9 v -8.72 c 0,-1.05 0.85,-1.9 1.9,-1.9 h 33.74 c 1.05,0 1.9,0.85 1.9,1.9 v 8.72 c -0.01,1.04 -0.86,1.9 -1.91,1.9 z"
   id="path75678" />
				<path
   style="fill:#e04e2c"
   d="M 122.1,87.26 H 88.36 c -1.05,0 -1.9,-0.85 -1.9,-1.9 v -8.72 c 0,-1.05 0.85,-1.9 1.9,-1.9 h 33.74 c 1.05,0 1.9,0.85 1.9,1.9 v 8.72 c 0,1.04 -0.85,1.9 -1.9,1.9 z"
   id="path75680" />
			</g>
		</g>
		<g
   id="g75694">
			<g
   id="g75692">
				<path
   style="fill:#e04e2c"
   d="M 39.65,122.62 H 5.91 c -1.05,0 -1.9,-0.85 -1.9,-1.9 V 112 c 0,-1.05 0.85,-1.9 1.9,-1.9 h 33.74 c 1.05,0 1.9,0.85 1.9,1.9 v 8.72 c 0,1.05 -0.85,1.9 -1.9,1.9 z"
   id="path75686" />
				<path
   style="fill:#e04e2c"
   d="M 80.87,122.62 H 47.14 c -1.05,0 -1.9,-0.85 -1.9,-1.9 V 112 c 0,-1.05 0.85,-1.9 1.9,-1.9 h 33.74 c 1.05,0 1.9,0.85 1.9,1.9 v 8.72 c -0.01,1.05 -0.86,1.9 -1.91,1.9 z"
   id="path75688" />
				<path
   style="fill:#bf360c"
   d="M 122.1,122.62 H 88.36 c -1.05,0 -1.9,-0.85 -1.9,-1.9 V 112 c 0,-1.05 0.85,-1.9 1.9,-1.9 h 33.74 c 1.05,0 1.9,0.85 1.9,1.9 v 8.72 c 0,1.05 -0.85,1.9 -1.9,1.9 z"
   id="path75690" />
			</g>
		</g>
		<g
   id="g75706">
			<g
   id="g75704">
				<path
   style="fill:#bf360c"
   d="M 19.52,21.68 H 4 v 12.53 h 15.52 c 1.05,0 1.9,-0.85 1.9,-1.9 v -8.72 c 0,-1.06 -0.85,-1.91 -1.9,-1.91 z"
   id="path75696" />
				<path
   style="fill:#e04e2c"
   d="M 60.42,34.21 H 26.69 c -1.05,0 -1.9,-0.85 -1.9,-1.9 v -8.72 c 0,-1.05 0.85,-1.9 1.9,-1.9 h 33.74 c 1.05,0 1.9,0.85 1.9,1.9 v 8.72 c -0.01,1.05 -0.86,1.9 -1.91,1.9 z"
   id="path75698" />
				<path
   style="fill:#ff7043"
   d="M 101.32,34.21 H 67.59 c -1.05,0 -1.9,-0.85 -1.9,-1.9 v -8.72 c 0,-1.05 0.85,-1.9 1.9,-1.9 h 33.74 c 1.05,0 1.9,0.85 1.9,1.9 v 8.72 c -0.01,1.05 -0.86,1.9 -1.91,1.9 z"
   id="path75700" />
				<path
   style="fill:#e04e2c"
   d="m 108.49,21.68 c -1.05,0 -1.9,0.85 -1.9,1.9 v 8.72 c 0,1.05 0.85,1.9 1.9,1.9 H 124 V 21.68 Z"
   id="path75702" />
			</g>
		</g>
		<g
   id="g75718">
			<g
   id="g75716">
				<path
   style="fill:#e04e2c"
   d="M 19.52,57.05 H 4 v 12.53 h 15.52 c 1.05,0 1.9,-0.85 1.9,-1.9 v -8.72 c 0,-1.06 -0.85,-1.91 -1.9,-1.91 z"
   id="path75708" />
				<path
   style="fill:#ff7043"
   d="M 60.42,69.57 H 26.69 c -1.05,0 -1.9,-0.85 -1.9,-1.9 v -8.72 c 0,-1.05 0.85,-1.9 1.9,-1.9 h 33.74 c 1.05,0 1.9,0.85 1.9,1.9 v 8.72 c -0.01,1.05 -0.86,1.9 -1.91,1.9 z"
   id="path75710" />
				<path
   style="fill:#e04e2c"
   d="M 101.32,69.57 H 67.59 c -1.05,0 -1.9,-0.85 -1.9,-1.9 v -8.72 c 0,-1.05 0.85,-1.9 1.9,-1.9 h 33.74 c 1.05,0 1.9,0.85 1.9,1.9 v 8.72 c -0.01,1.05 -0.86,1.9 -1.91,1.9 z"
   id="path75712" />
				<path
   style="fill:#e04e2c"
   d="m 108.49,57.05 c -1.05,0 -1.9,0.85 -1.9,1.9 v 8.72 c 0,1.05 0.85,1.9 1.9,1.9 H 124 V 57.05 Z"
   id="path75714" />
			</g>
		</g>
		<g
   id="g75730">
			<g
   id="g75728">
				<path
   style="fill:#bf360c"
   d="M 19.52,92.41 H 4 v 12.53 h 15.52 c 1.05,0 1.9,-0.85 1.9,-1.9 v -8.72 c 0,-1.06 -0.85,-1.91 -1.9,-1.91 z"
   id="path75720" />
				<path
   style="fill:#e04e2c"
   d="M 60.42,104.94 H 26.69 c -1.05,0 -1.9,-0.85 -1.9,-1.9 v -8.72 c 0,-1.05 0.85,-1.9 1.9,-1.9 h 33.74 c 1.05,0 1.9,0.85 1.9,1.9 v 8.72 c -0.01,1.05 -0.86,1.9 -1.91,1.9 z"
   id="path75722" />
				<path
   style="fill:#e04e2c"
   d="M 101.32,104.94 H 67.59 c -1.05,0 -1.9,-0.85 -1.9,-1.9 v -8.72 c 0,-1.05 0.85,-1.9 1.9,-1.9 h 33.74 c 1.05,0 1.9,0.85 1.9,1.9 v 8.72 c -0.01,1.05 -0.86,1.9 -1.91,1.9 z"
   id="path75724" />
				<path
   style="fill:#ff7043"
   d="m 108.49,92.41 c -1.05,0 -1.9,0.85 -1.9,1.9 v 8.72 c 0,1.05 0.85,1.9 1.9,1.9 H 124 V 92.41 Z"
   id="path75726" />
			</g>
		</g>
	</g></g>
</svg>
