<?xml version="1.0" encoding="UTF-8" standalone="no"?>
<svg
   width="100%"
   height="100%"
   viewBox="0 0 534 534"
   version="1.1"
   xml:space="preserve"
   style="fill-rule:evenodd;clip-rule:evenodd;stroke-linejoin:round;stroke-miterlimit:2;"
   id="svg24305"
   sodipodi:docname="emoji_u1f62c.svg"
   inkscape:version="1.2.2 (732a01da63, 2022-12-09)"
   xmlns:inkscape="http://www.inkscape.org/namespaces/inkscape"
   xmlns:sodipodi="http://sodipodi.sourceforge.net/DTD/sodipodi-0.dtd"
   xmlns="http://www.w3.org/2000/svg"
   xmlns:svg="http://www.w3.org/2000/svg"><defs
     id="defs24309" /><sodipodi:namedview
     id="namedview24307"
     pagecolor="#ffffff"
     bordercolor="#000000"
     borderopacity="0.25"
     inkscape:showpageshadow="2"
     inkscape:pageopacity="0.0"
     inkscape:pagecheckerboard="0"
     inkscape:deskcolor="#d1d1d1"
     showgrid="false"
     inkscape:zoom="1.0168539"
     inkscape:cx="304.86188"
     inkscape:cy="308.79558"
     inkscape:window-width="1366"
     inkscape:window-height="697"
     inkscape:window-x="-8"
     inkscape:window-y="-8"
     inkscape:window-maximized="1"
     inkscape:current-layer="svg24305" /><path
     d="M266.667,53.375c-258.834,0 -264.959,290.208 -264.959,347.667c0,57.375 118.625,103.916 264.959,103.916c146.333,0 264.958,-46.541 264.958,-103.916c0,-57.459 -6.083,-347.667 -264.958,-347.667Z"
     style="fill:#fcc21b;fill-rule:nonzero;"
     id="path24286" /><ellipse
     cx="183.125"
     cy="235.25"
     rx="33"
     ry="40.125"
     style="fill:#2f2f2f;"
     id="ellipse24288" /><ellipse
     cx="350.125"
     cy="235.25"
     rx="33"
     ry="40.125"
     style="fill:#2f2f2f;"
     id="ellipse24290" /><path
     d="M381.348,416.792l-229.363,-0c-28.485,-0 -51.792,-23.307 -51.792,-51.792c0,-28.485 23.307,-51.792 51.792,-51.792l229.363,0c28.486,0 51.792,23.307 51.792,51.792c-0,28.485 -23.306,51.792 -51.792,51.792Z"
     style="fill:#fff;fill-rule:nonzero;"
     id="path24292" /><g
     id="g24303"><clipPath
       id="_clip1"><path
         d="M381.348,416.792l-229.363,-0c-28.485,-0 -51.792,-23.307 -51.792,-51.792c0,-28.485 23.307,-51.792 51.792,-51.792l229.363,0c28.486,0 51.792,23.307 51.792,51.792c-0,28.485 -23.306,51.792 -51.792,51.792Z"
         clip-rule="nonzero"
         id="path24294" /></clipPath><g
       clip-path="url(#_clip1)"
       id="g24301"><path
         d="M197.667,313.208l13,0l-0,104.167l-13,0l-0,-104.167Zm-62.5,0l13,0l-0,104.167l-13,0l-0,-104.167Zm250.041,0l13,0l0,104.167l-13,0l0,-104.167Zm-62.541,0l13,0l-0,104.167l-13,0l-0,-104.167Zm-62.5,0l13,0l-0,104.167l-13,0l-0,-104.167Z"
         style="fill:#999999;fill-rule:nonzero;fill-opacity:1"
         id="path24297" /><rect
         x="85.375"
         y="358.5"
         width="362.542"
         height="13"
         style="fill:#999999;fill-rule:nonzero;fill-opacity:1"
         id="rect24299" /></g></g></svg>
