<?xml version="1.0" encoding="UTF-8" standalone="no"?>
<svg
   width="100%"
   height="100%"
   viewBox="0 0 128 128"
   version="1.1"
   xml:space="preserve"
   style="fill-rule:evenodd;clip-rule:evenodd;stroke-linejoin:round;stroke-miterlimit:2;"
   id="svg5949"
   sodipodi:docname="emoji_u1f95b.svg"
   inkscape:version="1.3 (0e150ed6c4, 2023-07-21)"
   xmlns:inkscape="http://www.inkscape.org/namespaces/inkscape"
   xmlns:sodipodi="http://sodipodi.sourceforge.net/DTD/sodipodi-0.dtd"
   xmlns="http://www.w3.org/2000/svg"
   xmlns:svg="http://www.w3.org/2000/svg"><defs
   id="defs5953" /><sodipodi:namedview
   id="namedview5951"
   pagecolor="#ffffff"
   bordercolor="#000000"
   borderopacity="0.25"
   inkscape:showpageshadow="2"
   inkscape:pageopacity="0.0"
   inkscape:pagecheckerboard="0"
   inkscape:deskcolor="#d1d1d1"
   showgrid="false"
   inkscape:zoom="2.9996795"
   inkscape:cx="5.5005876"
   inkscape:cy="66.173736"
   inkscape:window-width="1366"
   inkscape:window-height="697"
   inkscape:window-x="-8"
   inkscape:window-y="-8"
   inkscape:window-maximized="1"
   inkscape:current-layer="svg5949" />&#10;    <path
   id="path15955"
   d="M72.9,72.09C73.27,72.46 94.71,54.23 94.71,54.23L96.93,23.7L78.42,31.67L47.18,30.44L31.5,23.33L33.95,53.29C33.94,53.29 72.54,71.73 72.9,72.09Z"
   style="fill:white;fill-opacity:0.5;fill-rule:nonzero;" />&#10;    <path
   id="path15957"
   d="M62.69,5.93L46.82,7.46L34.85,11.78L28.17,18.74L37.27,113.4C37.27,113.4 43.76,124.4 63.81,124.4C83.86,124.4 91.6,114.38 91.6,114.38L100,19.57L95.27,12.75L77.31,7.04L62.69,5.93Z"
   style="fill:#dcf6f5;fill-opacity:1;fill-rule:nonzero" />&#10;    <g
   id="g16113"
   transform="matrix(1.12999,0,0,1.12999,-8.3502,-0.861455)">&#10;        <clipPath
   id="_clip1">&#10;            <path
   d="M62.868,6.01L48.824,7.364L38.231,11.187L32.319,17.347L40.372,101.117C40.372,101.117 46.116,110.852 63.859,110.852C81.603,110.852 88.452,101.984 88.452,101.984L95.886,18.081L91.7,12.046L75.806,6.992L62.868,6.01Z"
   id="path5939" />&#10;        </clipPath>&#10;        <g
   clip-path="url(#_clip1)"
   id="g5944">&#10;            <path
   id="path15961"
   d="M38.95,62.63L35.91,56.65C35.91,56.65 35.85,54.88 36.09,53.82C36.33,52.76 38.14,47.78 49.96,45.42C59.34,43.54 71.25,43.71 79.9,46.07C85.76,47.67 91.5,50.78 92.29,53.87C93.19,57.38 91.64,58.88 91.64,58.88L85.77,68.26L42.86,67.69L38.95,62.63Z"
   style="fill:#ffe0b2;fill-rule:nonzero" />&#10;            <path
   id="path15963"
   d="m 35.498253,108.19272 c 0.462713,1.57079 7.841761,10.72763 27.908875,10.72763 20.067114,0 29.004773,-7.45211 29.199599,-9.14466 C 92.801554,108.08313 92.46,57.07 92.46,57.07 c 0,0 -4.372844,10.420205 -28.31,9.964577 C 40.212844,66.578948 35.92,56.61 35.92,56.61 c 0,0 -0.920989,49.90235 -0.421747,51.58272 z"
   style="fill:#fff8e1;fill-rule:nonzero"
   sodipodi:nodetypes="cssczcc" />&#10;        </g>&#10;    </g>&#10;    <path
   d="m 50.109292,65.29922 v 0 c 1,0.03 1.58,-0.7 1.58,-1.39 v 0 -31.94 l -13.24,-3.44 2.25,32.58 c 0.04,0.43 0.35,1.53 1.41,2.01 0.9,0.4 4.2,1.77 8,2.18 z"
   style="fill:#fafafa"
   id="path6082" /><g
   id="g15975"
   style="fill:#afc7cf;fill-opacity:1">&#10;        <path
   id="path15973"
   d="M 65.13,34.26 H 64.42 C 41.94,34.12 33.52,28.23 30.5,24.58 28.54,22.2 27.9,19.61 28.37,17.09 v -0.08 c 2.26,-6.75 15,-12.75 35.7,-12.83 23.33,-0.09 35.29,8.14 35.87,13.75 0.18,1.8 -0.15,4.95 -2.83,7.77 -4.88,5.11 -16.43,8.56 -31.98,8.56 z M 32.463262,17.540847 c -0.316602,1.636833 -0.398306,2.976061 1.041724,4.662495 2.206004,2.589172 8.374645,7.91632 30.894269,8.055203 h 0.75576 c 20.180851,0 26.625242,-4.315287 29.321469,-7.202066 1.511522,-1.616993 2.103875,-3.045502 1.930254,-4.751776 C 96.008432,14.644148 86.050775,7.6404864 64.317551,7.7595289 41.174935,7.8785713 33.321153,13.572766 32.575605,17.421805 Z"
   style="fill:#afc7cf;fill-opacity:1;fill-rule:nonzero"
   sodipodi:nodetypes="scccccccscccsccccc" />&#10;    </g>&#10;</svg>
