<?xml version="1.0" encoding="UTF-8" standalone="no"?>
<svg
   width="128"
   height="128"
   style="enable-background:new 0 0 128 128;"
   version="1.1"
   id="svg7943"
   sodipodi:docname="emoji_u1f955.svg"
   inkscape:version="1.2.2 (732a01da63, 2022-12-09)"
   xmlns:inkscape="http://www.inkscape.org/namespaces/inkscape"
   xmlns:sodipodi="http://sodipodi.sourceforge.net/DTD/sodipodi-0.dtd"
   xmlns="http://www.w3.org/2000/svg"
   xmlns:svg="http://www.w3.org/2000/svg">
  <defs
     id="defs7947" />
  <sodipodi:namedview
     id="namedview7945"
     pagecolor="#ffffff"
     bordercolor="#000000"
     borderopacity="0.25"
     inkscape:showpageshadow="2"
     inkscape:pageopacity="0.0"
     inkscape:pagecheckerboard="0"
     inkscape:deskcolor="#d1d1d1"
     showgrid="false"
     inkscape:zoom="1.4998398"
     inkscape:cx="28.33636"
     inkscape:cy="132.0141"
     inkscape:window-width="1366"
     inkscape:window-height="697"
     inkscape:window-x="-8"
     inkscape:window-y="-8"
     inkscape:window-maximized="1"
     inkscape:current-layer="svg7943" />
  <path
     d="M98.99,17.34c0.13-0.87,0.14-1.74,0.41-2.52c0.48-1.36,0.91-2.82,1.74-3.96 c1.09-1.48,2.81-1.44,4.77-0.23c0.37-0.84,0.57-1.82,1.14-2.48c1.05-1.22,2.15-2.55,3.52-3.3c1.95-1.07,3.24-0.22,4.65,2.61 c2.16-0.86,4.5-2.67,6.65-0.39c2,2.12,0.43,4.33-0.61,6.5c0.45,0.21,0.82,0.38,1.19,0.57c1.93,0.98,2.64,2.97,1.18,4.75 c-1.41,1.72-3.41,2.95-5.21,4.44c1.98,3.2,0.51,4.75-6.43,6.43c-0.21,1.29-0.05,2.67-0.64,3.51c-0.96,1.35-2.61,1.09-4.07,0.63 c-2.93-0.92-5.71-0.49-8.33,0.98c-2.21,1.25-4.36,2.62-6.35,4.19c2.97-0.56,5.91-1.38,8.91-1.62c3.4-0.27,6.84-0.1,10.26,0.07 c0.84,0.04,1.62,0.87,2.46,1.27c0.68,0.32,1.39,0.59,2.11,0.78c2.42,0.62,2.94,1.26,2.89,3.74c1.92,0.78,3.01,2,1.88,4.23 c-0.11,0.21,0.15,0.65,0.31,0.94c0.18,0.32,0.46,0.57,0.67,0.87c1.14,1.61,2.12,3.38,1,5.26c-1.18,1.99-3.29,2.12-5.39,1.87 c-0.54-0.06-1.07-0.17-1.58-0.25c-1,2.64-2.44,3.08-4.71,1.4c-0.97-0.72-1.79-1.66-2.68-2.5c-2.92,2.23-3.95,1.8-6.41-2.74 c-2.75,0.93-3.78,0.36-4.59-2.5c-0.7-2.47-1.66-3.53-4.28-3.46c-2.07,0.06-4.12,0.84-6.16,1.39c-0.62,0.17-1.15,0.64-1.4,0.49 c-1.8-1.82-3.59-3.63-5.54-5.6c0.41-0.93,1.19-2.39,1.69-3.93c0.33-1.02,0.41-2.17,0.36-3.25c-0.14-2.8-0.98-3.74-3.69-4.52 c-2.7-0.77-3.38-2.08-2.29-4.31c-1.2-0.93-2.54-1.71-3.53-2.81c-1.28-1.42-0.58-2.71,0.86-3.61c-1.11-1.36-2.35-2.5-3.11-3.89 c-1.09-1.98-0.49-2.97,1.92-3.58c-0.1-0.68-0.24-1.37-0.3-2.08C72.1,8.77,72.3,6.81,74.15,5.7c1.74-1.05,3.48-0.3,4.96,0.79 c1.05,0.77,1.86,1.37,3.37,0.87c1.66-0.55,2.48,0.87,2.99,2.22c2.44-0.09,3.09,0.41,3.7,2.67c0.29,1.06,0.17,2.27,1.5,2.92 c0.42,0.2,0.56,1.18,0.64,1.83c0.73,5.9,0.41,11.74-1.31,17.46c-0.16,0.52-0.28,1.05-0.41,1.57c-0.01,0.03,0.06,0.09,0.27,0.35 c3.09-4.76,6.98-9.08,4.94-15.42c-0.16-0.51-0.24-1.09-0.19-1.63C94.84,16.98,96.25,16.31,98.99,17.34z"
     style="fill:#757f3f;fill-opacity:1"
     id="path7933" />
  <path
     d="M 93.84,54.39 C 92.18,46.06 81.86,38.1 73.56,36.76 62.14,34.21 55.59934,41.138869 49.94,48.69 L 46.41,53.4 C 39.79737,62.223085 33.412783,71.214156 26.94,80.14 l -3.14,4.33 c -4.03333,5.561883 -8.2,11.03 -12.19,16.62 -5.57,7.79 -10.42,18.58 -7.74,22.44 2.44,3.53 14.66,1.58 23.61,-5.5 2.44,-1.93 5.063582,-3.62081 7.6,-5.43 l 4.29,-3.06 c 8.956696,-6.38869 17.962859,-12.71507 27.05,-18.91 l 4.87,-3.32 c 2.248195,-1.532651 4.49,-3.07 6.75,-4.59 10.25,-6.9 17.12,-15.2 15.8,-28.33 z"
     style="fill:#f79329"
     id="path9557"
     sodipodi:nodetypes="ccsssscccsssscc" />
  <path
     id="path7463"
     style="fill:#ed6c30;stroke-width:35.9055;stroke-linecap:round"
     d="M 49.767578 48.917969 L 46.410156 53.400391 C 46.303242 53.543044 46.198594 53.687337 46.091797 53.830078 C 57.654701 65.014495 59.631386 65.327805 60.646484 64.330078 C 61.680937 63.313326 61.386808 61.286814 49.767578 48.917969 z M 50.617188 83.552734 C 50.186331 83.540841 49.908851 83.710407 49.673828 83.941406 C 48.720438 84.878474 48.796093 86.582019 57.900391 96.517578 C 59.54898 95.373957 61.198052 94.231604 62.851562 93.095703 C 54.92958 85.522165 51.977133 83.590274 50.617188 83.552734 z M 18.101562 92.208984 C 16.936632 93.781484 15.79267 95.368684 14.636719 96.947266 C 23.214214 104.94778 24.852287 105.05992 25.759766 104.16797 C 26.694106 103.24962 26.671873 101.6246 18.101562 92.208984 z " />
</svg>
