<?xml version="1.0" encoding="UTF-8" standalone="no"?>
<svg
   width="100%"
   height="100%"
   viewBox="0 0 128 128"
   version="1.1"
   xml:space="preserve"
   style="fill-rule:evenodd;clip-rule:evenodd;stroke-linejoin:round;stroke-miterlimit:2;"
   id="svg10044"
   sodipodi:docname="emoji_u1f96d.svg"
   inkscape:version="1.2.2 (732a01da63, 2022-12-09)"
   xmlns:inkscape="http://www.inkscape.org/namespaces/inkscape"
   xmlns:sodipodi="http://sodipodi.sourceforge.net/DTD/sodipodi-0.dtd"
   xmlns:xlink="http://www.w3.org/1999/xlink"
   xmlns="http://www.w3.org/2000/svg"
   xmlns:svg="http://www.w3.org/2000/svg"><sodipodi:namedview
   id="namedview10046"
   pagecolor="#ffffff"
   bordercolor="#000000"
   borderopacity="0.25"
   inkscape:showpageshadow="2"
   inkscape:pageopacity="0.0"
   inkscape:pagecheckerboard="0"
   inkscape:deskcolor="#d1d1d1"
   showgrid="false"
   inkscape:zoom="4.2421875"
   inkscape:cx="72.014733"
   inkscape:cy="68.596685"
   inkscape:window-width="1366"
   inkscape:window-height="697"
   inkscape:window-x="-8"
   inkscape:window-y="-8"
   inkscape:window-maximized="1"
   inkscape:current-layer="svg10044" />
    
    
    
    <g
   id="g12184"
   transform="translate(0.19509973,-1.7279011)"><path
     id="path16812"
     d="m 4.0299984,89.429993 c -1.2,6.01 5.66,29.119997 41.4499996,33.739997 18.39,2.37 36.45,-4.16 50.749998,-15.11 C 110.53,97.109993 119.3,82.999993 122.31,70.109993 c 4.63,-19.85 -0.69,-49.819992 -40.060002,-51.589992 -40.26,-1.81 -53.79,40.279992 -62.23,52.649992 -10.1599996,14.91 -14.8999996,12.83 -15.9899996,18.26 z"
     style="fill:url(#linearGradient10565);fill-opacity:1;fill-rule:nonzero" /><path
     id="path16816"
     d="m 26.04,76.62 c 2.36,3.93 9.35,-1.14 14.27,-6.07 7.1,-7.12 10.33,-13.64 12.22,-16.95 1.89,-3.31 4.45,-10.44 -0.71,-11.59 -5.37,-1.19 -6.96,5.45 -9.72,10.34 -2.76,4.89 -6.6,10.71 -9.68,14.5 -3.27,4.03 -7.78,7.44 -6.38,9.77 z"
     style="fill:#ffe0b2;fill-rule:nonzero" /><path
     id="path16818"
     d="m 100.82777,22.386998 c -0.68,2.97 2.05,5.05 3.94,6.54 1.89,1.49 6.15,2.05 7.57,1.02 1.42,-1.02 -0.16,-4.02 0.87,-5.83 1.02,-1.81 2.84,-4.02 0.63,-5.52 -1.85,-1.26 -4.34,-1.73 -6.62,-1.26 -2.28,0.47 -2.29,2.21 -3.23,2.68 -0.96,0.48 -2.93,1.35 -3.16,2.37 z"
     style="fill:#6d4a41;fill-rule:nonzero" /><path
     id="path10932"
     style="fill:#bdcf46;stroke-width:0.999999"
     d="m 24.998614,28.206214 c -1.749507,0.670428 -2.564131,1.685686 -2.361503,3.219428 0.253048,1.915388 2.326702,3.13933 3.989051,3.666442 22.781779,7.223834 62.202753,5.759345 76.780438,-10.290412 1.46594,-1.613971 1.65061,-3.63377 0.27224,-5.075278 C 97.806783,13.585381 83.78905,6.1827879 65.478222,8.1138889 47.167395,10.04499 39.968366,22.469664 24.998614,28.206214 Z"
     sodipodi:nodetypes="ssssszs" /></g>
    <defs
   id="defs10042"><linearGradient
   inkscape:collect="always"
   id="linearGradient10563"><stop
     style="stop-color:#ed6c30;stop-opacity:1;"
     offset="0"
     id="stop10559" /><stop
     style="stop-color:#fcc21b;stop-opacity:1;"
     offset="1"
     id="stop10561" /></linearGradient>
        <radialGradient
   id="_Radial1"
   cx="0"
   cy="0"
   r="1"
   gradientUnits="userSpaceOnUse"
   gradientTransform="matrix(183.963,0,0,183.963,75.4235,-61.6127)"><stop
     offset="0"
     style="stop-color:rgb(216,76,22);stop-opacity:1"
     id="stop10033" /><stop
     offset="1"
     style="stop-color:rgb(255,202,39);stop-opacity:1"
     id="stop10039" /></radialGradient>
    <linearGradient
   inkscape:collect="always"
   xlink:href="#linearGradient10563"
   id="linearGradient10565"
   x1="100.07859"
   y1="71.058922"
   x2="24.186512"
   y2="71.058922"
   gradientUnits="userSpaceOnUse"
   gradientTransform="rotate(-90,63.804897,71.058921)" /></defs>
</svg>
