<?xml version="1.0" encoding="UTF-8" standalone="no"?>
<svg
   width="128"
   height="128"
   style="enable-background:new 0 0 128 128;"
   version="1.1"
   id="svg39011"
   sodipodi:docname="emoji_u1f3bd.svg"
   xml:space="preserve"
   inkscape:version="1.2.2 (732a01da63, 2022-12-09)"
   xmlns:inkscape="http://www.inkscape.org/namespaces/inkscape"
   xmlns:sodipodi="http://sodipodi.sourceforge.net/DTD/sodipodi-0.dtd"
   xmlns:xlink="http://www.w3.org/1999/xlink"
   xmlns="http://www.w3.org/2000/svg"
   xmlns:svg="http://www.w3.org/2000/svg"><defs
     id="defs39015"><clipPath
       id="d"><use
         xlink:href="#c"
         overflow="visible"
         id="use39225" /></clipPath><clipPath
       id="clipPath40558"><use
         xlink:href="#c"
         overflow="visible"
         id="use40556" /></clipPath><path
       id="c"
       d="m 39.6,14.55 c 0,0 1.2,0.55 1.83,0.63 4.49,0.56 8.75,0.61 13.14,-0.55 0.76,-0.2 1.65,-0.4 2.26,0.12 0.78,0.66 0.29,1.9 0.09,2.93 -0.38,1.91 -3.53,5.33 -6.32,5.5 -1.38,0.08 -2.76,-0.12 -3.93,-0.77 -0.87,-0.48 -1.9,-0.5 -2.74,0.03 -0.32,0.21 -0.67,0.38 -1.03,0.49 -0.91,0.29 -2.13,0.32 -2.68,-0.49 -1.3,-1.93 -1.67,-5.87 -0.62,-7.89 z" /></defs><sodipodi:namedview
     id="namedview39013"
     pagecolor="#ffffff"
     bordercolor="#000000"
     borderopacity="0.25"
     inkscape:showpageshadow="2"
     inkscape:pageopacity="0.0"
     inkscape:pagecheckerboard="0"
     inkscape:deskcolor="#d1d1d1"
     showgrid="false"
     inkscape:zoom="2.9996795"
     inkscape:cx="9.3343304"
     inkscape:cy="53.6724"
     inkscape:window-width="1366"
     inkscape:window-height="697"
     inkscape:window-x="-8"
     inkscape:window-y="-8"
     inkscape:window-maximized="1"
     inkscape:current-layer="svg39011" /><g
     id="g39009"
     transform="rotate(9.8284004,68.986109,63.927289)"><g
       id="g39005"><defs
         id="defs38994"><path
           id="SVGID_1_"
           d="m 33.1,6.85 c -1.75,0.18 -3.57,0.2 -5.25,0.65 -1.69,0.45 -3.47,1.35 -5.03,2.11 -3.07,1.48 -5.51,3.78 -3.97,7.4 0.81,1.87 1.52,3.68 1.87,5.66 1.79,10.26 3.11,21.14 -0.67,31.12 -0.73,1.91 -1.97,3.37 -2.13,5.48 -0.11,1.59 0.11,3.07 0.47,4.6 2.18,9.36 3.2,18.98 3.7,28.57 0.25,4.75 0.36,9.5 0.38,14.25 0.02,4.56 -0.27,9.95 2.24,13.99 2.05,3.29 7.8,3.59 11.19,4.33 21.28,4.57 45.6,4.34 64.6,-7.55 5.39,-3.37 10.51,-7.66 14.93,-12.22 4.9,-5.07 2.22,-10.72 -0.69,-15.96 -2.19,-3.95 -4.22,-7.99 -5.99,-12.15 -3.82,-8.98 -6.26,-18.29 -7.18,-28 -0.17,-1.69 -0.22,-3.06 -0.1,-4.8 0.1,-1.59 -0.05,-3.24 -1.51,-4.18 C 89.73,33.56 88.94,22.55 86.05,11.85 85.34,9.22 85.82,1.58 81.93,1 78.48,0.49 74.71,-0.07 71.23,0.49 68.28,0.96 64.18,0.67 62.76,4.03 62.27,5.19 62.8,6.32 62.69,7.52 61.96,15.63 46.76,17.08 41.47,13.41 38.31,11.23 37.82,6.38 33.1,6.85 Z" /></defs><use
         style="overflow:visible;fill:#0277bd;fill-opacity:1"
         xlink:href="#SVGID_1_"
         id="use38996" /><clipPath
         id="SVGID_2_"><use
           style="overflow:visible"
           xlink:href="#SVGID_1_"
           id="use38998" /></clipPath><path
         d="m 37.59,29.93 c 1.42,4.08 3.12,8.03 6.1,11.18 4.17,4.42 11.56,6.5 17.28,4.53 C 62.83,45 64.58,44.03 66.05,42.7 70.92,38.27 71.59,32.23 71.38,26.06 71.24,21.83 71.13,17.6 70.76,13.39 70.44,9.97 69.95,3.99 66.18,2.4 64.61,1.74 62.66,2.08 61.96,3.86 61.65,4.67 61.72,5.55 61.39,6.34 61,7.26 60.72,8.25 60.19,9.11 c -0.84,1.36 -2.49,2.21 -3.95,2.68 -1.48,0.46 -3.21,0.64 -4.75,0.54 -1.26,-0.08 -2.46,0.2 -3.75,0.26 C 45.08,12.71 42.33,12.11 40.29,10.3 39.51,9.61 38.79,9.02 38.11,8.24 37.51,7.55 36.75,6.8 35.75,6.92 c -4.79,0.6 -2.51,7.9 -1.97,10.81 0.24,1.34 0.54,2.68 1.01,3.96 1.02,2.67 1.84,5.49 2.8,8.24 z"
         style="fill:#01497a;fill-opacity:1"
         clip-path="url(#SVGID_2_)"
         id="path39001" /><path
         d="m 26.71,96 c 0.69,-0.21 1.34,-0.43 1.87,-0.63 2.88,-1.08 5.57,-2.86 8.06,-4.63 5.02,-3.6 9.44,-7.95 14.15,-11.93 12.34,-10.45 23.85,-21.91 33.86,-34.63 2.41,-3.05 5.54,-7.63 6.27,-11.75 0.32,-1.81 0.38,-3.55 0.71,-5.33 0.06,-0.27 4,3.58 4.33,3.95 1.82,2.1 3.89,3.7 5.95,5.53 4.56,4.1 3.12,12.71 1.29,17.77 -1.91,5.31 -5.01,10.15 -8.44,14.61 -2.81,3.67 -6,7.02 -9.01,10.51 -8.42,9.72 -17.77,18.69 -28.1,26.38 -4.58,3.41 -9.48,6.33 -14.03,9.79 -5.51,4.2 -10.43,6.93 -17.49,6.93 -0.87,0 -1.76,0.04 -2.61,-0.07 -2.19,-0.27 -3.01,-2.19 -3.27,-4.11 -0.24,-1.81 -0.3,-3.56 -0.3,-5.44 0,-2.19 -0.3,-4.27 -0.3,-6.43 0.01,-3.42 -0.38,-7.17 0.36,-10.49 1.67,1.09 4.47,0.63 6.7,-0.03 z"
         style="fill:#fbc11b;fill-opacity:1"
         clip-path="url(#SVGID_2_)"
         id="path39003" /></g><path
       d="m 33.1,6.85 c -1.75,0.18 -3.57,0.2 -5.25,0.65 -1.69,0.45 -3.47,1.35 -5.03,2.11 -3.07,1.48 -5.51,3.78 -3.97,7.4 0.81,1.87 1.52,3.68 1.87,5.66 1.79,10.26 3.11,21.14 -0.67,31.12 -0.73,1.91 -1.97,3.37 -2.13,5.48 -0.11,1.59 0.11,3.07 0.47,4.6 2.18,9.36 3.2,18.98 3.7,28.57 0.25,4.75 0.36,9.5 0.38,14.25 0.02,4.56 -0.27,9.95 2.24,13.99 2.05,3.29 7.8,3.59 11.19,4.33 21.28,4.57 45.6,4.34 64.6,-7.55 5.39,-3.37 10.51,-7.66 14.93,-12.22 4.9,-5.07 2.22,-10.72 -0.69,-15.96 -2.19,-3.95 -4.22,-7.99 -5.99,-12.15 -3.82,-8.98 -6.26,-18.29 -7.18,-28 -0.17,-1.69 -0.22,-3.06 -0.1,-4.8 0.1,-1.59 -0.05,-3.24 -1.51,-4.18 C 89.73,33.56 88.94,22.55 86.05,11.85 85.34,9.22 85.82,1.58 81.93,1 78.48,0.49 74.71,-0.07 71.23,0.49 68.28,0.96 64.18,0.67 62.76,4.03 62.27,5.19 62.8,6.32 62.69,7.52 61.96,15.63 46.76,17.08 41.47,13.41 38.31,11.23 37.82,6.38 33.1,6.85 Z"
       style="fill:none"
       id="path39007" /></g></svg>
