<?xml version="1.0" encoding="UTF-8" standalone="no"?>
<svg
   width="128"
   height="128"
   version="1.1"
   id="svg4"
   sodipodi:docname="emoji_u1f61f.svg"
   xml:space="preserve"
   inkscape:version="1.3 (0e150ed6c4, 2023-07-21)"
   xmlns:inkscape="http://www.inkscape.org/namespaces/inkscape"
   xmlns:sodipodi="http://sodipodi.sourceforge.net/DTD/sodipodi-0.dtd"
   xmlns="http://www.w3.org/2000/svg"
   xmlns:svg="http://www.w3.org/2000/svg"><defs
     id="defs4" /><sodipodi:namedview
     id="namedview4"
     pagecolor="#ffffff"
     bordercolor="#000000"
     borderopacity="0.25"
     inkscape:showpageshadow="2"
     inkscape:pageopacity="0.0"
     inkscape:pagecheckerboard="0"
     inkscape:deskcolor="#d1d1d1"
     inkscape:zoom="8.515625"
     inkscape:cx="64"
     inkscape:cy="64"
     inkscape:current-layer="svg4" /><g
     id="g7"
     transform="translate(0.00325394,0.00476486)">&#10;	<g
   id="g6">&#10;		<g
   id="g2">&#10;			<g
   id="g1">&#10;				<path
   fill="#fcc21b"
   d="M 15.88,32.75 C 35.16,3.87 67.36,-9.31 101.49,8.06 c 22.84,11.63 30.79,39.22 20.86,71.64 -4.08,13.38 6.14,15.65 5.48,22.74 -1.3,13.89 -28.49,25.28 -63.65,25.28 C 29.03,127.72 1.46,116.36 0.52,102.44 -1.36,74.39 3.58,51.2 15.88,32.75"
   id="path1" />&#10;			</g>&#10;		</g>&#10;		<g
   id="g5">&#10;			<g
   id="g3">&#10;				<path
   fill="#2f2f2f"
   d="m 35.06,28.9 c 0.2,-0.88 0.53,-1.67 0.9,-2.42 1.7,0.15 3.55,0.22 5.63,0.06 3.06,-0.2 5.48,-1.12 7.46,-2.27 1.5,2.1 2.11,5.04 1.42,8.07 -1.17,5.08 -5.56,8.46 -9.82,7.52 -4.26,-0.97 -6.76,-5.88 -5.59,-10.96 z"
   id="path2" />&#10;				<path
   fill="#2f2f2f"
   d="m 88.38,40.99 c -1.18,5.08 -5.58,8.45 -9.84,7.5 -4.25,-0.93 -6.75,-5.83 -5.58,-10.94 0.73,-3.18 2.7,-5.68 5.13,-6.87 1.3,1.97 3.14,3.97 5.96,5.54 1.62,0.89 3.13,1.55 4.58,2.11 0.01,0.86 -0.05,1.75 -0.25,2.66 z"
   id="path3" />&#10;			</g>&#10;			<path
   fill="#2f2f2f"
   d="m 56.85,30.62 c -0.21,0 -0.43,-0.06 -0.63,-0.18 -0.57,-0.34 -0.75,-1.09 -0.4,-1.66 1.81,-3 -0.81,-6.54 -0.83,-6.58 -0.41,-0.53 -0.3,-1.29 0.23,-1.69 0.53,-0.41 1.28,-0.3 1.69,0.23 0.15,0.2 3.65,4.87 0.98,9.29 -0.23,0.39 -0.62,0.59 -1.04,0.59 z"
   id="path4" />&#10;			<path
   fill="#2f2f2f"
   d="m 68.77,33.2 c -0.63,0 -1.16,-0.49 -1.2,-1.12 -0.02,-0.25 -0.32,-6.07 4.35,-8.27 0.6,-0.28 1.32,-0.02 1.61,0.58 0.28,0.6 0.03,1.32 -0.58,1.6 -3.18,1.49 -2.97,5.89 -2.97,5.93 0.04,0.67 -0.46,1.24 -1.13,1.27 -0.03,0.01 -0.05,0.01 -0.08,0.01 z"
   id="path5" />&#10;		</g>&#10;	</g>&#10;	<path
   fill="#2f2f2f"
   d="m 84.76,82.89 c 1.52,1.03 3.5,0.8 4.17,-0.45 0.89,-1.67 -0.71,-3.7 -1.21,-4.18 C 86.54,77.14 84.93,75.57 83.06,73.83 80.56,71.5 77.61,68.86 74.65,66.56 69.55,62.6 59.98,54.27 48.48,52.22 41.01,50.89 37.02,51.96 33.09,54.16 c -4.82,2.69 -7.9,7.65 -8.48,10.39 -0.74,3.47 0.32,4.4 1.46,4.71 1.14,0.31 2.5,-0.14 3.18,-1.62 0.21,-0.46 0.45,-0.89 0.7,-1.3 1.89,-3.06 5.31,-6.81 11.22,-7.41 5.96,-0.61 14.16,1.56 28.55,12.1 2.05,1.38 14.69,11.62 15.04,11.86 z"
   id="path6" />&#10;</g></svg>
