<?xml version="1.0" encoding="UTF-8" standalone="no"?>
<svg
   width="100%"
   height="100%"
   viewBox="0 0 128 128"
   version="1.1"
   xml:space="preserve"
   style="fill-rule:evenodd;clip-rule:evenodd;stroke-linejoin:round;stroke-miterlimit:2;"
   id="svg1"
   sodipodi:docname="emoji_u1f9f9.svg"
   inkscape:version="1.3 (0e150ed6c4, 2023-07-21)"
   xmlns:inkscape="http://www.inkscape.org/namespaces/inkscape"
   xmlns:sodipodi="http://sodipodi.sourceforge.net/DTD/sodipodi-0.dtd"
   xmlns="http://www.w3.org/2000/svg"
   xmlns:svg="http://www.w3.org/2000/svg"><defs
   id="defs1"><inkscape:path-effect
     effect="powerstroke"
     id="path-effect9"
     is_visible="true"
     lpeversion="1.3"
     scale_width="1"
     interpolator_type="CentripetalCatmullRom"
     interpolator_beta="0.2"
     start_linecap_type="round"
     end_linecap_type="round"
     offset_points="0.51252407,2.6562087 | 0.0013038099,3.3797078 | 1,2.2169936"
     linejoin_type="round"
     miter_limit="4"
     not_jump="false"
     sort_points="true"
     message="&lt;b&gt;Ctrl + click&lt;/b&gt; on existing node and move it" /><inkscape:path-effect
     effect="powerstroke"
     id="path-effect7"
     is_visible="true"
     lpeversion="1.3"
     scale_width="1"
     interpolator_type="CentripetalCatmullRom"
     interpolator_beta="0.2"
     start_linecap_type="round"
     end_linecap_type="round"
     offset_points="0.51252407,2.6562087 | 0.0013038099,3.3797078 | 1,2.2169936"
     linejoin_type="round"
     miter_limit="4"
     not_jump="false"
     sort_points="true"
     message="&lt;b&gt;Ctrl + click&lt;/b&gt; on existing node and move it" /><inkscape:path-effect
     effect="powerstroke"
     id="path-effect5"
     is_visible="true"
     lpeversion="1.3"
     scale_width="1"
     interpolator_type="CentripetalCatmullRom"
     interpolator_beta="0.2"
     start_linecap_type="round"
     end_linecap_type="round"
     offset_points="0.51252407,2.6562087 | 0.0013038099,3.3797078 | 1,2.2169936"
     linejoin_type="round"
     miter_limit="4"
     not_jump="false"
     sort_points="true"
     message="&lt;b&gt;Ctrl + click&lt;/b&gt; on existing node and move it" /></defs><sodipodi:namedview
   id="namedview1"
   pagecolor="#ffffff"
   bordercolor="#000000"
   borderopacity="0.25"
   inkscape:showpageshadow="2"
   inkscape:pageopacity="0.0"
   inkscape:pagecheckerboard="0"
   inkscape:deskcolor="#d1d1d1"
   inkscape:zoom="2.867097"
   inkscape:cx="30.867459"
   inkscape:cy="49.004271"
   inkscape:window-width="1366"
   inkscape:window-height="697"
   inkscape:window-x="-8"
   inkscape:window-y="-8"
   inkscape:window-maximized="1"
   inkscape:current-layer="svg1" />&#10;    &#10;<g
   id="g16"
   transform="matrix(0.87132857,0.87132857,-0.87132857,0.87132857,60.475174,-45.661351)"
   style="stroke-width:0.811527"><g
     id="g4"
     style="stroke-width:0.811527"><g
       id="g23264"
       transform="rotate(-45,64.525241,63.460268)"
       style="stroke-width:0.811527">&#10;        <g
   id="g23238"
   style="stroke-width:0.811527">&#10;            <g
   id="g23236"
   style="stroke-width:0.811527">&#10;                <path
   id="path23232"
   d="m 48.531623,85.064888 c -1.583606,0 -3.077232,-0.611847 -4.210949,-1.745563 -1.115721,-1.115721 -1.745563,-2.609348 -1.745563,-4.210947 0,-1.583604 0.574696,-3.11564 1.745563,-4.210947 L 101.48657,21.420647 c 0.64754,-0.605759 1.47647,-0.980939 2.36639,-0.980939 0.88992,0 1.72929,0.343835 2.36639,0.980939 1.30455,1.304548 1.26035,3.385482 0,4.732777 L 52.74257,83.319325 c -1.095307,1.170868 -2.627344,1.745563 -4.210947,1.745563 z"
   style="fill:#855c52;fill-rule:nonzero;stroke-width:0.811527"
   sodipodi:nodetypes="ssssssssss" />&#10;                &#10;            </g>&#10;        </g>&#10;        &#10;        &#10;        <g
   id="g23250"
   style="stroke-width:0.811527">&#10;            &#10;        </g>&#10;        &#10;        <g
   id="g23262"
   style="stroke-width:0.811527">&#10;            <g
   id="g23256"
   style="stroke-width:0.811527">&#10;                &#10;            </g>&#10;            <g
   id="g23260"
   style="stroke-width:0.811527">&#10;                &#10;            </g>&#10;        </g>&#10;    </g><path
       style="fill:#fcc21b;stroke-width:4.86916;stroke-linecap:round"
       d="m 65.084711,58.697496 c -18.176306,0 -21.407971,20.656862 -21.407971,35.105983 0,6.135928 4.320874,8.614711 22.389987,8.614711 18.069113,0 20.229551,-2.28084 20.229551,-6.437447 0,-12.865654 -3.035261,-37.283247 -21.211567,-37.283247 z"
       id="path1"
       sodipodi:nodetypes="zsssz" /></g><path
     id="path4"
     style="fill:#f79329;stroke-width:4.86916;stroke-linecap:round"
     d="m 63.291016,78.520194 c -0.0083,1.24267 -0.08142,5.415666 -0.164063,7.941071 -0.0574,1.753952 0.318732,4.529155 -1.273437,5.439453 -1.592173,0.910297 -3.499064,0.612779 -4.587891,0.02539 -1.088826,-0.587387 -1.122751,-2.549861 -1.148437,-3.648437 -0.05928,-2.535193 -0.09551,-6.085786 -0.09375,-7.515625 9.76e-4,-0.791445 -0.103986,-1.954824 -1.44336,-1.984759 -1.339375,-0.02993 -1.475556,1.127845 -1.511719,1.917915 -0.06541,1.429048 -0.297808,4.985757 -0.492187,7.516063 -0.182322,2.373358 -0.472549,4.24707 -3.927734,4.833984 -3.455187,0.586914 -4.955079,-0.65625 -4.955079,-0.65625 -0.01122,0.472943 -0.01758,0.943867 -0.01758,1.414063 0,6.135914 4.321549,8.615228 22.390625,8.615228 18.069077,0 20.230469,-2.2809 20.230469,-6.437494 0,-1.040272 -0.04843,-2.137177 -0.117187,-3.253906 0,0 -0.80536,1.50591 -3.976563,1.166015 -3.171204,-0.339893 -4.399873,-2.112683 -4.720703,-6.478515 -0.185977,-2.530762 -0.424788,-6.197683 -0.490234,-7.626726 -0.03615,-0.789318 -0.241867,-1.948015 -1.509766,-1.920487 -1.267899,0.02754 -1.446287,1.195885 -1.445313,1.987331 0.0018,1.429836 -0.03252,5.095002 -0.0918,7.630194 -0.03024,1.293118 -0.182872,3.475687 -1.498046,4.279297 -1.315174,0.80361 -3.296269,0.703936 -4.355469,-0.109375 -1.059199,-0.813314 -1.249725,-2.677135 -1.423828,-5.244141 -0.171032,-2.521714 -0.371327,-6.691638 -0.423828,-7.933994 -0.03124,-0.739338 -0.400905,-1.563126 -1.50195,-1.563126 -1.101045,0 -1.446248,0.867047 -1.45117,1.606831 z"
     sodipodi:nodetypes="sssssssssscssscsssssssssszs" /></g></svg>
