<?xml version="1.0" encoding="UTF-8" standalone="no"?>
<svg
   width="100%"
   height="100%"
   viewBox="0 0 128 128"
   version="1.1"
   xml:space="preserve"
   style="fill-rule:evenodd;clip-rule:evenodd;stroke-linejoin:round;stroke-miterlimit:2;"
   id="svg9448"
   sodipodi:docname="emoji_u1f92c.svg"
   inkscape:version="1.2.2 (732a01da63, 2022-12-09)"
   xmlns:inkscape="http://www.inkscape.org/namespaces/inkscape"
   xmlns:sodipodi="http://sodipodi.sourceforge.net/DTD/sodipodi-0.dtd"
   xmlns="http://www.w3.org/2000/svg"
   xmlns:svg="http://www.w3.org/2000/svg"><sodipodi:namedview
   id="namedview9450"
   pagecolor="#ffffff"
   bordercolor="#000000"
   borderopacity="0.25"
   inkscape:showpageshadow="2"
   inkscape:pageopacity="0.0"
   inkscape:pagecheckerboard="0"
   inkscape:deskcolor="#d1d1d1"
   showgrid="false"
   showguides="false"
   inkscape:zoom="2.8284271"
   inkscape:cx="41.012193"
   inkscape:cy="95.105862"
   inkscape:window-width="1366"
   inkscape:window-height="697"
   inkscape:window-x="-8"
   inkscape:window-y="-8"
   inkscape:window-maximized="1"
   inkscape:current-layer="svg9448" />
    <path
   d="M63.99,9.64C1.68,9.64 0.2,79.5 0.2,93.33C0.2,107.16 28.76,118.36 63.99,118.36C99.23,118.36 127.78,107.15 127.78,93.33C127.78,79.5 126.31,9.64 63.99,9.64Z"
   style="fill:rgb(252,194,27);fill-rule:nonzero;"
   id="path9416" />
    <g
   id="g9427">
        <clipPath
   id="_clip1">
            <path
   d="M63.99,9.64C1.68,9.64 0.2,79.5 0.2,93.33C0.2,107.16 28.76,118.36 63.99,118.36C99.23,118.36 127.78,107.15 127.78,93.33C127.78,79.5 126.31,9.64 63.99,9.64Z"
   id="path9418" />
        </clipPath>
        <g
   clip-path="url(#_clip1)"
   id="g9425">
            <g
   transform="matrix(2.19156,0,0,1.86971,-76.2596,-57.7292)"
   id="g9423">
                <ellipse
   cx="64"
   cy="47.638"
   rx="64"
   ry="47.638"
   style="fill:url(#_Radial2);"
   id="ellipse9421" />
            </g>
        </g>
    </g>
    
    <path
   d="m 43.483999,95.798332 c 2.050157,1.246016 4.516522,0.250254 6.702742,-0.312012 6.113795,-1.565983 11.525608,-1.867957 14.122795,-1.988856 2.597188,-0.120899 8.023639,-0.323446 14.246485,0.668267 2.228999,0.356738 4.777204,1.119072 6.702742,-0.312013 2.437759,-1.825329 0.295194,-7.85222 -3.86302,-11.803138 -2.513653,-2.385697 -8.462978,-6.964008 -17.932724,-6.523191 -9.469745,0.440816 -14.958035,5.551547 -17.249179,8.160907 -3.752754,4.329185 -5.326164,10.529054 -2.729841,12.110036 z"
   style="fill:#ed6c30;fill-rule:nonzero"
   id="path9433" />
    <path
   d="m 104.03847,74.937798 c -0.0957,-1.766266 -1.61028,-3.125255 -3.37654,-3.029594 l -74.963378,4.060005 c -1.766261,0.09566 -3.125248,1.610284 -3.029587,3.37655 l 1.085299,20.03881 c 0.09566,1.766271 1.610282,3.125261 3.376544,3.029601 l 74.963382,-4.060006 c 1.76626,-0.09566 3.12524,-1.610282 3.02958,-3.376554 z"
   style="fill:#2f2f2f;stroke-width:0.999998;fill-opacity:1"
   id="path9435"
   sodipodi:nodetypes="sssssssss" />
    
    <defs
   id="defs9446">
        <radialGradient
   id="_Radial2"
   cx="0"
   cy="0"
   r="1"
   gradientUnits="userSpaceOnUse"
   gradientTransform="matrix(64,0,0,47.6377,64,47.6377)"><stop
     offset="0"
     style="stop-color:rgb(219,68,55);stop-opacity:1"
     id="stop9441" /><stop
     offset="1"
     style="stop-color:rgb(219,68,55);stop-opacity:0"
     id="stop9443" /></radialGradient>
    </defs>
<g
   fill="#2f2f2f"
   id="g9575"
   transform="translate(-1.9990187e-4,-2.4137931e-4)"><path
     d="m 97.53,48.87 a 2.5,2.5 0 0 0 -1.4,-1.5 c -0.66,-0.28 -1.4,-0.27 -2.05,0.03 l -16.51,7.55 c 0,0 -1.08,0.51 -2.19,0.49 -2.27,-0.03 -2.51,-1.34 -3.1,-2.34 -0.27,-0.48 -0.94,-0.95 -1.57,-0.69 -1.07,0.45 -1,2.79 -0.92,3.38 0.25,1.74 0.75,3.09 1.23,4.06 0.59,1.18 1.91,2.82 2.36,3.25 2.45,2.44 6.67,3.97 10.96,3.72 C 86.1,66.73 87.8,66.34 89.4,65.69 98.38,62 99.18,53.6 97.53,48.87 Z m -67.27,0 a 2.5,2.5 0 0 1 1.4,-1.5 c 0.66,-0.28 1.4,-0.27 2.06,0.03 l 16.51,7.55 c 0,0 1.07,0.51 2.18,0.49 2.27,-0.03 2.52,-1.34 3.09,-2.34 0.28,-0.48 0.94,-0.95 1.57,-0.69 1.07,0.45 1,2.79 0.92,3.38 -0.24,1.74 -0.74,3.09 -1.23,4.06 -0.59,1.18 -1.91,2.82 -2.36,3.25 -2.46,2.44 -6.67,3.97 -10.97,3.72 C 41.66,66.73 39.96,66.34 38.37,65.69 29.41,62 28.61,53.6 30.26,48.87 Z"
     id="path9573" /></g><path
   style="color:#000000;clip-rule:nonzero;fill:#ffffff;stroke-width:1.78066;stroke-linejoin:miter;-inkscape-stroke:none"
   d="m 51.151935,92.103723 c 1.014389,-4.906897 -1.570831,-9.979612 -6.911517,-10.719833 -3.89922,-0.540442 -7.911987,1.873441 -8.813944,5.811621 -0.788218,3.441625 1.460575,6.759646 5.044342,7.528604 3.076033,0.66005 6.189505,-0.84179 6.829439,-4.049286 0.536511,-2.689107 -1.240045,-4.755963 -3.436578,-5.138849 -1.783661,-0.310907 -3.688979,0.814877 -3.958078,2.733225 -0.208786,1.488349 1.061712,2.962886 2.38485,2.940586 0.438771,-0.0079 0.806679,-0.253194 0.812937,-0.691999 0.0051,-0.36136 -0.266041,-0.574251 -0.583787,-0.746432 -0.510799,-0.276757 -0.704909,-0.777723 -0.641763,-1.227856 0.09974,-0.711007 0.899729,-1.182216 1.642426,-1.052761 1.017892,0.17744 1.899575,1.055542 1.56689,2.723025 -0.340616,1.707246 -2.12288,2.81653 -4.259063,2.349406 -2.096209,-0.458382 -3.354797,-2.70611 -2.876796,-4.793194 0.566153,-2.47198 3.270276,-4.046294 5.780505,-3.670492 3.681363,0.551104 5.602029,3.985079 4.790362,7.27514 -0.924529,3.747553 -4.978077,5.973289 -8.715164,5.035068 -4.200133,-1.054456 -6.68259,-5.568926 -5.607704,-9.727567 1.082036,-4.186262 4.092015,-6.53007 9.602615,-6.577843 1.314102,-0.01132 2.503261,-0.07939 2.563761,-1.121146 0.05813,-1.001196 -0.969409,-1.544484 -2.127473,-1.641299 -5.752136,-0.480838 -11.475708,2.885047 -12.95107,8.593075 -1.48254,5.735802 1.381277,12.339188 8.244663,13.147398 6.565609,0.773148 10.694308,-2.500006 11.620147,-6.978591 z"
   id="path11228"
   sodipodi:nodetypes="sssssssssssssssssssssssss" /><path
   style="fill:#ffffff;fill-opacity:1;stroke-width:2.99999;stroke-linecap:round;stroke-dasharray:none"
   d="m 54.066015,81.14906 c 0.17988,3.864235 1.05513,10.89368 2.341218,10.833813 1.286089,-0.05987 1.043827,-8.388552 0.956319,-10.268426 -0.08751,-1.879894 -0.493228,-4.215966 -1.937845,-4.148719 -1.444619,0.06725 -1.427754,2.121205 -1.359692,3.583332 z"
   id="path11237"
   sodipodi:nodetypes="sssss" /><circle
   style="fill:#ffffff;stroke-width:0.999995"
   cx="52.029121"
   cy="97.863007"
   r="2.1701586"
   id="circle3055"
   transform="rotate(-2.6651924)" /><path
   id="path13863"
   style="fill:#ffffff;stroke-width:1"
   d="m 68.520144,75.640259 c -6.718733,0.312757 -8.685569,4.752537 -8.254966,9.350267 0.430604,4.597731 0.998345,5.547909 2.038972,6.418702 0.804487,0.67321 1.733561,0.200487 2.471739,1.157247 0.632384,0.819641 0.855853,4.207724 1.693734,4.513184 0.308806,0.112582 1.030564,0.187942 1.041438,-0.176748 0.06035,-2.024156 0.1145,-2.491609 0.52234,-2.510594 0.41836,-0.01947 0.432508,0.471698 0.601162,2.535248 0.03054,0.373754 0.367846,0.491687 0.921707,0.465905 0.658214,-0.03064 0.841246,-0.220186 0.856482,-0.56791 0.08166,-1.863563 0.227221,-2.554579 0.564455,-2.570277 0.30013,-0.01397 0.48862,0.203579 0.680334,2.399029 0.04566,0.522923 0.87565,0.195785 1.260971,0.08454 1.343973,-0.388034 0.377276,-4.612893 1.317022,-5.232721 0.445056,-0.293563 0.9169,-0.449241 1.361443,-0.69632 1.023854,-0.569034 2.359321,-2.069996 2.19313,-6.734134 -0.157799,-4.428803 -2.524218,-8.749429 -9.269963,-8.435415 z m 3.586901,6.392646 c 1.438447,-0.07397 2.412435,0.512447 2.931144,1.307227 1.102986,1.697147 0.121836,4.351301 -2.891182,3.630556 -2.307253,-0.555435 -3.592042,-4.363061 -0.686538,-4.863868 0.224476,-0.03848 0.441077,-0.06348 0.64658,-0.07385 z m -6.45547,0.302504 c 0.205421,-0.0087 0.421407,-0.0039 0.648212,0.01357 2.941561,0.226413 2.016272,4.136699 -0.229404,4.904062 -2.93303,0.997544 -4.1565,-1.553775 -3.215841,-3.343832 0.440712,-0.839421 1.359071,-1.512692 2.79703,-1.573873 z"
   sodipodi:nodetypes="ssssssssssssssssscccccscccs" /><path
   d="m 90.163715,76.679636 c -4.175856,2.511983 -11.35475,9.957783 -10.043022,10.623948 0.893862,0.455319 6.884967,0.09967 7.67767,0.551629 0.792701,0.451958 -3.214976,7.745082 -3.149431,8.024847 0.08486,0.34754 0.627059,0.972754 3.50557,-1.415619 4.453798,-3.698 7.184111,-7.881373 7.184111,-7.881373 0,0 2.608685,-2.45662 -6.127737,-2.926649 -0.843434,-0.760683 5.750863,-6.978181 4.943556,-8.079603 -0.815878,-1.113106 -2.808103,0.391409 -3.990717,1.10282 z"
   fill="#ffca28"
   id="path15516"
   style="fill:#ffffff;stroke-width:1"
   sodipodi:nodetypes="scsccccss" /></svg>
