<?xml version="1.0" encoding="UTF-8" standalone="no"?>
<svg
   width="128"
   height="128"
   version="1.1"
   id="svg5"
   sodipodi:docname="emoji_u1f9b4.svg"
   inkscape:version="1.3 (0e150ed6c4, 2023-07-21)"
   xmlns:inkscape="http://www.inkscape.org/namespaces/inkscape"
   xmlns:sodipodi="http://sodipodi.sourceforge.net/DTD/sodipodi-0.dtd"
   xmlns="http://www.w3.org/2000/svg"
   xmlns:svg="http://www.w3.org/2000/svg">
  <defs
     id="defs5" />
  <sodipodi:namedview
     id="namedview5"
     pagecolor="#ffffff"
     bordercolor="#000000"
     borderopacity="0.25"
     inkscape:showpageshadow="2"
     inkscape:pageopacity="0.0"
     inkscape:pagecheckerboard="0"
     inkscape:deskcolor="#d1d1d1"
     inkscape:zoom="2.867097"
     inkscape:cx="44.644461"
     inkscape:cy="50.050626"
     inkscape:window-width="1366"
     inkscape:window-height="697"
     inkscape:window-x="-8"
     inkscape:window-y="-8"
     inkscape:window-maximized="1"
     inkscape:current-layer="svg5" />
  <g
     id="g6"
     transform="matrix(1.1929096,0,0,1.1929096,-10.085961,-11.947054)"
     style="stroke-width:0.838287">
    <path
       id="path6"
       style="fill:#6593a2;fill-opacity:1;stroke-width:0.838287"
       d="m 93.01893,20.863457 c -3.932962,-3.818608 -10.053955,-5.329054 -15.254452,-3.476243 -4.902075,1.72754 -8.704853,6.294296 -9.391748,11.463362 -0.574053,3.263956 0.04422,6.581651 -0.243446,9.861912 -0.100835,0.828256 -0.554079,1.576267 -1.208901,2.085049 -2.569894,2.496779 -5.217843,4.911823 -7.811095,7.358725 -1.985308,1.870092 -4.043483,3.726187 -6.103458,5.4715 -6.175376,5.269366 -12.497926,10.350513 -18.680787,15.615202 -0.560433,0.45776 -1.105311,0.952845 -1.694156,1.364524 -1.463097,0.211659 -2.950886,0.196405 -4.418391,0.381541 -3.114153,0.315081 -6.308321,1.1799 -8.737196,3.245129 -3.290658,2.752913 -5.022728,7.319792 -4.157316,11.551118 0.791009,4.057079 3.609542,7.530901 7.142876,9.578548 1.332505,0.765829 2.77613,1.335159 4.026927,2.242034 1.217849,0.852302 2.39209,1.875958 3.085822,3.209852 0.476466,1.28559 0.86867,2.63021 1.694602,3.74788 3.339428,5.14384 10.355418,7.50067 16.121935,5.40749 4.874324,-1.69463 8.494143,-6.4614 8.822186,-11.611748 0.245709,-2.66126 -0.269301,-5.305863 -0.431994,-7.955027 2.287614,-3.419372 5.254976,-6.304294 8.186641,-9.163376 4.742674,-4.513744 9.845998,-8.729884 14.680624,-13.18352 3.153349,-2.87664 6.175273,-5.910713 9.537097,-8.548645 0.51496,-0.400974 1.206561,-0.270242 1.814263,-0.327845 3.100716,0.03101 6.26036,0.112962 9.275504,-0.73312 2.786083,-0.735067 5.343923,-2.361491 7.091593,-4.665229 2.22114,-2.846764 3.24964,-6.653014 2.51038,-10.212913 -0.84529,-4.508254 -3.95199,-8.388295 -7.87485,-10.662838 -1.291924,-0.77985 -2.836741,-1.46569 -3.483995,-2.929376 -0.618324,-1.453784 -0.662354,-3.087145 -1.340529,-4.523219 -0.70694,-1.73422 -1.815267,-3.291291 -3.158122,-4.590781 z" />
    <path
       id="path1-6"
       style="fill:#ffffff;fill-opacity:1;stroke-width:0.838287"
       d="m 88.355107,25.239326 c -2.610468,-2.328322 -6.785363,-3.109818 -9.844792,-1.173855 -3.469664,2.195555 -4.018869,5.197742 -4.018865,8.398413 -2e-6,1.495199 0.11753,3.037275 0.117532,4.555841 -2e-6,2.347933 -0.284971,4.657921 -1.740946,6.69346 -0.950373,1.328676 -2.151435,2.274245 -9.419731,9.133426 -7.268293,6.859182 -13.04258,11.081254 -26.579213,22.611687 -0.901003,0.767472 -1.848883,1.281091 -3.442665,1.496839 -3.976842,0.53835 -9.226509,-0.186793 -11.359794,4.110393 -0.40879,0.823443 -0.583598,1.654762 -0.583592,2.457518 1e-6,2.919108 2.374242,5.589542 5.108538,6.811139 3.663419,1.636695 8.247036,5.182152 9.235509,9.000466 1.140042,4.403837 7.310348,6.545487 11.031667,3.783797 2.457441,-1.82374 3.041109,-4.002402 3.041109,-6.337685 -2e-6,-2.152838 -0.510926,-4.439157 -0.510932,-6.652808 -2e-6,-0.559493 -0.121307,-1.17696 0.133851,-1.666643 3.884316,-7.454539 17.193534,-18.180802 22.38355,-22.89643 5.190016,-4.715627 6.570352,-6.080286 8.017306,-7.413604 0.784173,-0.722584 1.563644,-1.450719 2.418226,-2.137617 2.240949,-1.801222 3.293055,-2.980853 6.283565,-3.166024 4.555585,-0.282081 10.433953,0.971283 13.21209,-3.725771 0.62111,-1.05013 0.88737,-2.126535 0.88737,-3.18953 0,-3.142261 -2.37884,-6.150093 -5.23239,-7.685871 -4.02673,-2.167188 -5.994094,-4.579005 -6.798503,-8.983134 -0.28998,-1.58763 -1.152313,-2.96568 -2.338891,-4.024009 z"
       sodipodi:nodetypes="ssssssssssssssssssssssssss" />
  </g>
</svg>
