<?xml version="1.0" encoding="UTF-8" standalone="no"?>
<svg
   width="128"
   height="128"
   version="1.1"
   id="svg26823"
   sodipodi:docname="emoji_u1f9df_200d_2642.svg"
   inkscape:version="1.2.2 (732a01da63, 2022-12-09)"
   xmlns:inkscape="http://www.inkscape.org/namespaces/inkscape"
   xmlns:sodipodi="http://sodipodi.sourceforge.net/DTD/sodipodi-0.dtd"
   xmlns="http://www.w3.org/2000/svg"
   xmlns:svg="http://www.w3.org/2000/svg">
  <defs
     id="defs26827" />
  <sodipodi:namedview
     id="namedview26825"
     pagecolor="#ffffff"
     bordercolor="#000000"
     borderopacity="0.25"
     inkscape:showpageshadow="2"
     inkscape:pageopacity="0.0"
     inkscape:pagecheckerboard="0"
     inkscape:deskcolor="#d1d1d1"
     showgrid="false"
     inkscape:zoom="4.2421875"
     inkscape:cx="43.72744"
     inkscape:cy="101.59853"
     inkscape:window-width="1366"
     inkscape:window-height="697"
     inkscape:window-x="-8"
     inkscape:window-y="-8"
     inkscape:window-maximized="1"
     inkscape:current-layer="svg26823" />
  <path
     d="M14 118.09v9.89h100v-9.89c0-15.17-24.54-22.87-49.62-22.84-24.92.03-50.38 6.78-50.38 22.84z"
     fill="#606060"
     id="path26799" />
  <path
     d="M63.95 90.25h-9.08v9.59c0 4.34 3.7 7.86 8.26 7.86h1.65c4.56 0 8.26-3.52 8.26-7.86v-9.59z"
     fill="#539d47"
     id="path26801" />
  <path
     d="M63.89 13.57c-7.694 0-13.59 1.889-18.06 5.303a7.996 4.615 67.852 0 1-.344.74 7.996 4.615 67.852 0 1-2.172 1.492C35.628 28.988 33.17 42.5 33.17 58.961c0 26.51 18.89 34.6 30.72 34.6 11.83 0 30.72-8.09 30.72-34.6s-6.37-45.39-30.72-45.39z"
     fill="#76bf6a"
     id="path26803" />
  <path
     d="M96.54 52.84s5.97 1.03 5.97 7.47c0 5.68-4.36 7.92-8.72 7.92V52.84zM31.38 52.84s-5.97 1.03-5.97 7.47c0 5.68 4.36 7.92 8.72 7.92V52.84z"
     fill="#539d47"
     id="path26807" />
  <path
     d="M64.01 7.03c-.21 0-.71.01-.71.01-4.632.09-8.702.66-12.286 1.583a10.024 5.792 67.935 0 1-.131 4.893 10.024 5.792 67.935 0 1-4.654 3.287 7.996 4.615 67.852 0 1-.743 2.81 7.996 4.615 67.852 0 1-4.273 1.07 9 4.83 68.147 0 1-.445 2.837 9 4.83 68.147 0 1-5.606 1.113 10.024 5.792 67.935 0 1-5.828 2.611c-1.022 2.98-1.475 5.951-1.475 8.647 0 11.26.01 19.539.01 19.539s.43-.46 1.23-1.09c.85-.68 1.801-1.06 1.801-1.06l1.38 9.41 9.08-19.34a.31.31 0 0 1 .31-.18l5.38.61c5.41.61 10.84.91 16.27.93v.01c.24 0 .47-.01.71-.01s.47.01.71.01v-.02c5.43-.02 10.86-.31 16.27-.93l5.38-.61c.13-.01.25.06.31.18l9.08 19.34 1.38-9.41s.94.38 1.8 1.06c.8.64 1.23 1.09 1.23 1.09s.01-8.28.01-19.54c-.009-2.897-2.903-13.033-6.632-16.335l3.153-7.41-6.637 2.258c-4.822-2.127-18.553-7.219-25.363-7.354 0 0-.491-.02-.711-.01z"
     fill="#5f4f4f"
     id="path26809" />
  <path
     d="M50.765 64.19c-2.23-.66-3.434-3.334-2.656-5.96.792-2.677 3.207-4.28 5.403-3.684 2.23.66 3.433 3.334 2.656 5.961-.743 2.691-3.173 4.344-5.403 3.684zM78.134 64.243c2.261-1.46 2.642-4.84.922-7.503-1.752-2.714-5.007-3.674-7.218-2.246-2.261 1.46-2.642 4.84-.922 7.503 1.752 2.713 4.957 3.706 7.218 2.246z"
     class="st1"
     fill="#fff"
     id="path26811" />
  <path
     class="st2"
     d="M74.624 74.876c-.827-2.068-5.014-5.325-10.648-5.428h-.207c-5.583.103-9.718 3.412-10.597 5.428-.879 2.067-.103 3.463 2.223 3.463h17.058c2.275 0 3.05-1.396 2.171-3.463z"
     fill="#47423c"
     id="path26813" />
  <path
     class="st3"
     d="M74.366 77.77s0-.361-.569-.516c-.775-.207-1.912.62-3.618.568-1.706-.052-4.032-.465-5.531-.465-1.706-.052-1.758.982-1.758.982h9.356c1.19 0 1.706-.207 2.12-.569z"
     fill="#c08198"
     id="path26815" />
  <path
     class="st3"
     d="M66.25 78.34c2.171.413 3.102 1.033 3.102 3.67 0 1.136-.155 2.532 0 3.67.206 1.24 1.085 1.498 1.705 1.395 1.5-.258.983-2.791 1.19-5.583.154-2.12 1.809-2.222 2.119-3.67z"
     fill="#c08198"
     id="path26817" />
  <g
     fill="#6aac5f"
     id="g26821">
    <path
       d="M45.248 74.681c-1.08 2.194-.97 3.295-3.088 3.295-2.117 0-4.638-1.857-4.638-4.303 0-2.445 4.904-4.785 6.997-4.468 2.883.438 1.72 3.46.73 5.476zM48.339 78.977c0 1.144-.291 2.495-1.287 2.495s-2.32-1.351-2.32-2.495c0-1.144 1.334-1.99 2.33-1.99s1.277.846 1.277 1.99z"
       id="path26819" />
  </g>
  <g
     id="g26380">
    <g
       id="g23592"
       transform="matrix(1.1099389,0,0,1.1099389,0.7378792,-9.8655075)"
       style="stroke-width:0.90095">
	<path
   style="fill:#76bf6a;fill-opacity:1;stroke-width:0.90095"
   d="m 40.62,104.26 c -0.6,-0.7 -1.31,-0.91 -2,-1 -1.05,-0.14 -1.95,0.11 -2.46,0.87 -0.89,1.33 -1.2,3.89 -3.71,4.17 -1.64,0.18 -1.93,-5.48 -1.95,-7.67 -0.07,-7.76 0.4,-11.27 0.59,-11.94 0.2,-0.68 0.35,-1.89 0.78,-2.59 1.58,-0.03 2.72,-1.32 2.85,-2.9 0.13,-1.71 -2.93,-4.5 -6.32,-2.09 -1.7,1.21 -3.7,4.7 -3.9,14.7 0,0 -0.38,1.51 -1.12,-0.35 -0.74,-1.86 -1.99,-5.3 -0.41,-9.3 1.03,0.02 2.13,-0.92 2.18,-2.53 0.07,-2.02 -1.76,-2.91 -3.08,-2.77 -1.32,0.14 -3.94,0.76 -4.88,4.5 -0.54,2.14 -0.47,4.34 -0.47,4.34 0,0 -2.46,0.57 -2.72,0.79 -0.68,0.59 -2.42,1.68 -2.21,5.71 0.09,1.79 0.72,4.02 0.72,4.02 0,0 -1.39,0.72 -1.93,1.38 -0.81,0.98 -1.47,2.08 -1.79,3.3 -0.56,2.19 -0.35,4.42 0.31,6.56 0.41,1.34 0.98,2.64 1.63,3.89 0.43,0.83 1.06,1.6 1.32,2.52 0.12,0.43 0.1,0.81 0.02,1.2 -0.08,0.42 -0.84,3.88 -1.09,5.14 h 14.08 c 0.1,-0.43 0.27,-0.95 0.38,-1.38 0.23,-0.87 2.07,-1.36 2.8,-1.76 4.6,-2.49 9.43,-6.34 12.13,-11.29 0.91,-1.66 1.45,-4.12 0.25,-5.52 z m -22.95,-4.62 -0.78,-4.22 1.06,-0.39 c 0,0 0.53,1.38 0.85,3.29 0.32,1.91 -1.13,1.32 -1.13,1.32 z"
   id="path23574" />

	<path
   style="fill:#539d47;fill-opacity:1;stroke-width:0.90095"
   d="m 22.03,117.39 v 0 c -0.14,0.03 0.88,-2.91 -1.49,-5.67 -2.04,-2.37 -4.99,-1.4 -4.99,-1.4 0,0 2.39,0.42 4.15,2.38 1.76,1.97 2.33,4.69 2.33,4.69 z"
   id="path23576" />

	<path
   style="fill:#539d47;fill-opacity:1;stroke-width:0.90095"
   d="m 15.5,101.12 c 0.73,0.59 1.31,1.49 1.19,2.42 -0.14,1.1 -1.24,1.88 -2.35,2 -1.11,0.12 -2.19,-0.26 -3.22,-0.69 0.76,1.48 2.25,1.49 2.25,1.49 0,0 0.86,3.63 1.31,3.8 l 0.09,-3.58 c 0,0 2.1,0.33 2.96,-2.48 0.54,-1.78 -0.38,-3.15 -1.67,-3.74 -1.29,-0.59 -3.12,-0.05 -3.12,-0.05 0,0 1.82,0.23 2.56,0.83 z"
   id="path23578" />

	<path
   style="fill:#539d47;fill-opacity:1;stroke-width:0.90095"
   d="m 17.27,90.49 c 0.8,0.29 1.53,0.77 1.61,1.71 0.1,1.1 -0.81,2.1 -1.86,2.46 -1.05,0.36 -2.2,0.22 -3.29,0.02 0.93,1.05 2.17,0.94 2.29,1.19 0.16,0.34 0.07,2.19 0.76,3.24 0.35,0.53 1.25,0.62 1.25,0.62 0,0 -1.02,-1.59 -0.83,-3.92 0,0 0.84,-0.23 1.44,-0.61 0.92,-0.58 1.3,-1.67 1.38,-2.7 0.14,-1.86 -1.61,-2.64 -2.88,-2.77 -1.9,-0.2 -3.14,0.77 -3.14,0.77 0,0 2.37,-0.34 3.27,-0.01 z"
   id="path23580" />

	<path
   style="fill:#539d47;fill-opacity:1;stroke-width:0.90095"
   d="m 12.07,119.1 c 1.45,0.95 3.68,1.33 5.22,1.17 -1.93,-0.47 -4.57,-2.28 -5.87,-3.78 0.26,0.44 0.51,0.88 0.64,1.37 0.12,0.43 0.1,0.81 0.02,1.2 0,0.01 -0.01,0.03 -0.01,0.04 z"
   id="path23582" />

	<path
   style="fill:#539d47;fill-opacity:1;stroke-width:0.90095"
   d="m 20.54,121.85 c 0.95,0.84 3.12,1.33 4.84,1.18 0.02,-0.07 0.04,-0.14 0.06,-0.21 0.15,-0.57 0.98,-0.97 1.75,-1.3 -1.69,0.58 -4.88,0.59 -6.65,0.33 z"
   id="path23584" />

	<path
   style="fill:#539d47;fill-opacity:1;stroke-width:0.90095"
   d="m 19.99,85.39 c -0.02,0.03 -0.02,0.07 -0.01,0.1 0.09,0.71 0.49,1.38 1.07,1.8 0.42,0.3 0.92,0.46 1.43,0.48 0.11,-0.53 0.26,-1.06 0.48,-1.62 -0.97,0.03 -1.94,-0.23 -2.75,-0.76 -0.06,-0.03 -0.17,-0.07 -0.22,0 z"
   id="path23586" />

	<path
   style="fill:#539d47;fill-opacity:1;stroke-width:0.90095"
   d="m 28.87,84.7 c -0.01,0.94 0.5,1.82 1.19,2.46 0.35,0.33 0.77,0.61 1.23,0.78 0.14,-0.62 0.3,-1.33 0.59,-1.83 -0.45,-0.01 -0.9,-0.12 -1.31,-0.3 -0.63,-0.27 -1.17,-0.69 -1.7,-1.11 z"
   id="path23588" />

	<path
   style="fill:#539d47;fill-opacity:1;stroke-width:0.90095"
   d="m 35.64,105.11 c -0.6,1.33 -1.21,2.96 -3.19,3.18 -0.22,0.02 -0.41,-0.06 -0.59,-0.22 0.12,1.6 0.33,3.53 0.03,5.01 2.08,-2.12 3.67,-4.61 3.75,-7.97 z"
   id="path23590" />

</g>
    <g
       id="g23626"
       transform="matrix(1.1099389,0,0,1.1099389,-15.176337,-9.8655075)"
       style="stroke-width:0.90095">
	<path
   style="fill:#76bf6a;fill-opacity:1;stroke-width:0.90095"
   d="m 87.96,109.77 c 2.7,4.95 7.53,8.8 12.13,11.29 0.73,0.4 2.58,0.89 2.8,1.76 0.11,0.43 0.28,0.95 0.38,1.38 h 14.08 c -0.26,-1.26 -1.01,-4.72 -1.09,-5.14 -0.07,-0.38 -0.09,-0.77 0.02,-1.2 0.25,-0.92 0.88,-1.68 1.32,-2.52 0.65,-1.25 1.22,-2.54 1.63,-3.89 0.66,-2.14 0.87,-4.38 0.31,-6.56 -0.32,-1.23 -0.98,-2.33 -1.79,-3.3 -0.54,-0.65 -1.93,-1.38 -1.93,-1.38 0,0 0.63,-2.23 0.72,-4.02 0.21,-4.03 -1.53,-5.12 -2.21,-5.71 -0.26,-0.23 -2.72,-0.79 -2.72,-0.79 0,0 0.07,-2.2 -0.47,-4.34 -0.94,-3.74 -3.56,-4.36 -4.88,-4.5 -1.32,-0.14 -3.15,0.75 -3.08,2.77 0.06,1.6 1.15,2.55 2.18,2.53 1.58,4 0.34,7.45 -0.41,9.3 -0.74,1.85 -1.12,0.35 -1.12,0.35 -0.2,-10 -2.2,-13.49 -3.9,-14.7 -3.39,-2.41 -6.45,0.38 -6.32,2.09 0.12,1.58 1.27,2.87 2.85,2.9 0.44,0.7 0.59,1.91 0.78,2.59 0.19,0.66 0.66,4.18 0.59,11.94 -0.02,2.19 -0.31,7.86 -1.95,7.67 -2.51,-0.28 -2.81,-2.84 -3.71,-4.17 -0.51,-0.76 -1.41,-1 -2.46,-0.87 -0.69,0.09 -1.4,0.3 -2,1 -1.19,1.41 -0.66,3.87 0.25,5.52 z m 21.58,-11.45 c 0.32,-1.91 0.85,-3.29 0.85,-3.29 l 1.06,0.39 -0.78,4.22 c 0,0 -1.46,0.58 -1.13,-1.32 z"
   id="path23608" />

	<path
   style="fill:#539d47;fill-opacity:1;stroke-width:0.90095"
   d="m 106.3,117.39 v 0 c 0.14,0.03 -0.88,-2.91 1.49,-5.67 2.04,-2.37 4.99,-1.4 4.99,-1.4 0,0 -2.39,0.42 -4.15,2.38 -1.75,1.97 -2.33,4.69 -2.33,4.69 z"
   id="path23610" />

	<path
   style="fill:#539d47;fill-opacity:1;stroke-width:0.90095"
   d="m 112.83,101.12 c -0.73,0.59 -1.31,1.49 -1.19,2.42 0.14,1.1 1.24,1.88 2.35,2 1.1,0.13 2.19,-0.26 3.22,-0.69 -0.76,1.48 -2.25,1.49 -2.25,1.49 0,0 -0.86,3.63 -1.31,3.8 l -0.09,-3.58 c 0,0 -2.1,0.33 -2.96,-2.48 -0.54,-1.78 0.38,-3.15 1.67,-3.74 1.29,-0.59 3.12,-0.05 3.12,-0.05 0,0 -1.81,0.23 -2.56,0.83 z"
   id="path23612" />

	<path
   style="fill:#539d47;fill-opacity:1;stroke-width:0.90095"
   d="m 111.06,90.49 c -0.8,0.29 -1.53,0.77 -1.61,1.71 -0.1,1.1 0.81,2.1 1.86,2.46 1.05,0.36 2.2,0.22 3.29,0.02 -0.93,1.05 -2.17,0.94 -2.29,1.19 -0.16,0.34 -0.07,2.19 -0.76,3.24 -0.35,0.53 -1.25,0.62 -1.25,0.62 0,0 1.02,-1.59 0.83,-3.92 0,0 -0.84,-0.23 -1.44,-0.61 -0.92,-0.58 -1.3,-1.67 -1.38,-2.7 -0.14,-1.86 1.61,-2.64 2.88,-2.77 1.9,-0.2 3.14,0.77 3.14,0.77 0,0 -2.37,-0.34 -3.27,-0.01 z"
   id="path23614" />

	<path
   style="fill:#539d47;fill-opacity:1;stroke-width:0.90095"
   d="m 116.27,119.1 c -1.45,0.95 -3.68,1.33 -5.22,1.17 1.93,-0.47 4.57,-2.28 5.87,-3.78 -0.26,0.44 -0.51,0.88 -0.64,1.37 -0.12,0.43 -0.1,0.81 -0.02,1.2 0,0.01 0,0.03 0.01,0.04 z"
   id="path23616" />

	<path
   style="fill:#539d47;fill-opacity:1;stroke-width:0.90095"
   d="m 107.79,121.85 c -0.95,0.84 -3.12,1.33 -4.84,1.18 -0.02,-0.07 -0.04,-0.14 -0.06,-0.21 -0.15,-0.57 -0.98,-0.97 -1.75,-1.3 1.69,0.58 4.88,0.59 6.65,0.33 z"
   id="path23618" />

	<path
   style="fill:#539d47;fill-opacity:1;stroke-width:0.90095"
   d="m 108.34,85.39 c 0.02,0.03 0.02,0.07 0.01,0.1 -0.09,0.71 -0.49,1.38 -1.07,1.8 -0.42,0.3 -0.92,0.46 -1.43,0.48 -0.11,-0.53 -0.26,-1.06 -0.48,-1.62 0.97,0.03 1.94,-0.23 2.75,-0.76 0.07,-0.03 0.18,-0.07 0.22,0 z"
   id="path23620" />

	<path
   style="fill:#539d47;fill-opacity:1;stroke-width:0.90095"
   d="m 99.47,84.7 c 0.01,0.94 -0.5,1.82 -1.19,2.46 -0.35,0.33 -0.77,0.61 -1.23,0.78 -0.14,-0.62 -0.3,-1.33 -0.59,-1.83 0.45,-0.01 0.9,-0.12 1.31,-0.3 0.62,-0.27 1.17,-0.69 1.7,-1.11 z"
   id="path23622" />

	<path
   style="fill:#539d47;fill-opacity:1;stroke-width:0.90095"
   d="m 92.69,105.11 c 0.6,1.33 1.21,2.96 3.19,3.18 0.22,0.02 0.41,-0.06 0.59,-0.22 -0.12,1.6 -0.33,3.53 -0.03,5.01 -2.07,-2.12 -3.67,-4.61 -3.75,-7.97 z"
   id="path23624" />

</g>
  </g>
</svg>
