<?xml version="1.0" encoding="UTF-8" standalone="no"?>
<svg
   width="128"
   height="128"
   version="1.1"
   id="svg22038"
   sodipodi:docname="emoji_u1f9df_200d_2640.svg"
   inkscape:version="1.2.2 (732a01da63, 2022-12-09)"
   xmlns:inkscape="http://www.inkscape.org/namespaces/inkscape"
   xmlns:sodipodi="http://sodipodi.sourceforge.net/DTD/sodipodi-0.dtd"
   xmlns="http://www.w3.org/2000/svg"
   xmlns:svg="http://www.w3.org/2000/svg">
  <defs
     id="defs22042" />
  <sodipodi:namedview
     id="namedview22040"
     pagecolor="#ffffff"
     bordercolor="#000000"
     borderopacity="0.25"
     inkscape:showpageshadow="2"
     inkscape:pageopacity="0.0"
     inkscape:pagecheckerboard="0"
     inkscape:deskcolor="#d1d1d1"
     showgrid="false"
     inkscape:zoom="2.1210938"
     inkscape:cx="35.594843"
     inkscape:cy="86.747698"
     inkscape:window-width="1366"
     inkscape:window-height="697"
     inkscape:window-x="-8"
     inkscape:window-y="-8"
     inkscape:window-maximized="1"
     inkscape:current-layer="svg22038" />
  <path
     d="M22 45.39s0 45.8 6.51 68.14l72.6-.29C106 86.55 106 45.06 106 45.06zm22.52 10.66l9.87 2.6z"
     fill="#5f4f4f"
     id="path22012" />
  <path
     d="M64 6.61c-5.8 0-18.995 3.163-26.314 8.769l-7.967-3.664 4.234 6.039C27.947 23.117 22 40.654 22 46.109c0 21.81 18.8 39.5 42 39.5s42-17.68 42-39.5c0-8.074-2.581-15.58-7.004-21.836a5.792 10.024 22.065 0 1-.543.577 5.792 10.024 22.065 0 1-8.203-.887 4.83 9 21.853 0 1-5.605-1.113 4.83 9 21.853 0 1-.444-2.836 4.615 7.996 22.148 0 1-4.275-1.07 4.615 7.996 22.148 0 1-.742-2.811 5.792 10.024 22.065 0 1-4.653-3.287 5.792 10.024 22.065 0 1-.11-5.008A44.597 44.597 0 0 0 64 6.609z"
     fill="#5f4f4f"
     id="path22014" />
  <path
     d="M20.43 118.09v9.89h87.14v-9.89c0-15.17-21.39-22.87-43.24-22.84-21.72.03-43.9 6.78-43.9 22.84z"
     fill="#606060"
     id="path22016" />
  <path
     d="M63.95 90.25h-9.08v9.59c0 4.34 3.7 7.86 8.26 7.86h1.65c4.56 0 8.26-3.52 8.26-7.86v-9.59z"
     fill="#539d47"
     id="path22018" />
  <path
     d="M63.89 13.57c-24.35 0-30.72 18.87-30.72 45.39 0 26.51 18.89 34.6 30.72 34.6 11.83 0 30.72-8.09 30.72-34.6 0-13.971-1.774-25.82-7.012-33.905a4.83 9 21.853 0 1-2.953-2.205 4.83 9 21.853 0 1-.416-1.985c-.209-.207-.427-.402-.643-.601a4.615 7.996 22.148 0 1-3.66-1.32 4.615 7.996 22.148 0 1-.63-1.813c-4.08-2.305-9.144-3.56-15.405-3.56z"
     fill="#76bf6a"
     id="path22020" />
  <path
     d="M64.12 7.16c-22.92 0-32.47 18.95-32.47 18.95v29.67c22.13-3.77 38.19-18.24 41.42-21.35.3-.29.79-.19.97.18C81.58 50.02 96.6 55.78 96.6 55.78V26.59s-.103-.185-.125-.229a5.792 10.024 22.065 0 1-6.225-2.398 4.83 9 21.853 0 1-5.605-1.113 4.83 9 21.853 0 1-.444-2.836 4.615 7.996 22.148 0 1-4.275-1.07 4.615 7.996 22.148 0 1-.742-2.811 5.792 10.024 22.065 0 1-4.653-3.287 5.792 10.024 22.065 0 1-.217-4.285c-3.053-.872-6.442-1.4-10.195-1.4z"
     fill="#5f4f4f"
     id="path22022" />
  <path
     d="M50.765 62.638c-2.23-.66-3.434-3.334-2.656-5.961.792-2.677 3.207-4.28 5.403-3.684 2.23.66 3.433 3.335 2.656 5.962-.743 2.69-3.173 4.343-5.403 3.683zM78.134 62.69c2.261-1.46 2.642-4.84.922-7.503-1.752-2.713-5.007-3.673-7.218-2.246-2.261 1.46-2.642 4.84-.922 7.503 1.752 2.714 4.957 3.706 7.218 2.246z"
     class="st1"
     fill="#fff"
     id="path22026" />
  <path
     class="st2"
     d="M74.624 73.323c-.827-2.067-5.014-5.324-10.648-5.427h-.207c-5.583.103-9.718 3.411-10.597 5.427-.879 2.068-.103 3.464 2.223 3.464h17.058c2.275 0 3.05-1.396 2.171-3.464z"
     fill="#47423c"
     id="path22028" />
  <path
     class="st3"
     d="M74.366 76.218s0-.362-.569-.517c-.775-.207-1.912.62-3.618.569-1.706-.052-4.032-.466-5.531-.466-1.706-.051-1.758.983-1.758.983h9.356c1.19 0 1.706-.207 2.12-.569z"
     fill="#c08198"
     id="path22030" />
  <path
     class="st3"
     d="M66.25 76.787c2.171.413 3.102 1.033 3.102 3.67 0 1.137-.155 2.533 0 3.67.206 1.24 1.085 1.499 1.705 1.396 1.5-.259.983-2.792 1.19-5.583.154-2.12 1.809-2.223 2.119-3.67z"
     fill="#c08198"
     id="path22032" />
  <g
     fill="#6aac5f"
     id="g22036">
    <path
       d="M46.368 74.152c-1.08 2.195-.97 3.295-3.088 3.295-2.117 0-4.638-1.857-4.638-4.303 0-2.445 4.904-4.785 6.997-4.467 2.882.438 1.72 3.46.729 5.475zM49.458 78.449c0 1.143-.29 2.494-1.286 2.494s-2.32-1.35-2.32-2.494c0-1.144 1.334-1.99 2.33-1.99s1.276.846 1.276 1.99z"
       id="path22034" />
  </g>
  <g
     id="g23592"
     transform="matrix(1.1099389,0,0,1.1099389,0.7378792,-9.8655075)"
     style="stroke-width:0.90095">
	<path
   style="fill:#76bf6a;fill-opacity:1;stroke-width:0.90095"
   d="m 40.62,104.26 c -0.6,-0.7 -1.31,-0.91 -2,-1 -1.05,-0.14 -1.95,0.11 -2.46,0.87 -0.89,1.33 -1.2,3.89 -3.71,4.17 -1.64,0.18 -1.93,-5.48 -1.95,-7.67 -0.07,-7.76 0.4,-11.27 0.59,-11.94 0.2,-0.68 0.35,-1.89 0.78,-2.59 1.58,-0.03 2.72,-1.32 2.85,-2.9 0.13,-1.71 -2.93,-4.5 -6.32,-2.09 -1.7,1.21 -3.7,4.7 -3.9,14.7 0,0 -0.38,1.51 -1.12,-0.35 -0.74,-1.86 -1.99,-5.3 -0.41,-9.3 1.03,0.02 2.13,-0.92 2.18,-2.53 0.07,-2.02 -1.76,-2.91 -3.08,-2.77 -1.32,0.14 -3.94,0.76 -4.88,4.5 -0.54,2.14 -0.47,4.34 -0.47,4.34 0,0 -2.46,0.57 -2.72,0.79 -0.68,0.59 -2.42,1.68 -2.21,5.71 0.09,1.79 0.72,4.02 0.72,4.02 0,0 -1.39,0.72 -1.93,1.38 -0.81,0.98 -1.47,2.08 -1.79,3.3 -0.56,2.19 -0.35,4.42 0.31,6.56 0.41,1.34 0.98,2.64 1.63,3.89 0.43,0.83 1.06,1.6 1.32,2.52 0.12,0.43 0.1,0.81 0.02,1.2 -0.08,0.42 -0.84,3.88 -1.09,5.14 h 14.08 c 0.1,-0.43 0.27,-0.95 0.38,-1.38 0.23,-0.87 2.07,-1.36 2.8,-1.76 4.6,-2.49 9.43,-6.34 12.13,-11.29 0.91,-1.66 1.45,-4.12 0.25,-5.52 z m -22.95,-4.62 -0.78,-4.22 1.06,-0.39 c 0,0 0.53,1.38 0.85,3.29 0.32,1.91 -1.13,1.32 -1.13,1.32 z"
   id="path23574" />

	<path
   style="fill:#539d47;fill-opacity:1;stroke-width:0.90095"
   d="m 22.03,117.39 v 0 c -0.14,0.03 0.88,-2.91 -1.49,-5.67 -2.04,-2.37 -4.99,-1.4 -4.99,-1.4 0,0 2.39,0.42 4.15,2.38 1.76,1.97 2.33,4.69 2.33,4.69 z"
   id="path23576" />

	<path
   style="fill:#539d47;fill-opacity:1;stroke-width:0.90095"
   d="m 15.5,101.12 c 0.73,0.59 1.31,1.49 1.19,2.42 -0.14,1.1 -1.24,1.88 -2.35,2 -1.11,0.12 -2.19,-0.26 -3.22,-0.69 0.76,1.48 2.25,1.49 2.25,1.49 0,0 0.86,3.63 1.31,3.8 l 0.09,-3.58 c 0,0 2.1,0.33 2.96,-2.48 0.54,-1.78 -0.38,-3.15 -1.67,-3.74 -1.29,-0.59 -3.12,-0.05 -3.12,-0.05 0,0 1.82,0.23 2.56,0.83 z"
   id="path23578" />

	<path
   style="fill:#539d47;fill-opacity:1;stroke-width:0.90095"
   d="m 17.27,90.49 c 0.8,0.29 1.53,0.77 1.61,1.71 0.1,1.1 -0.81,2.1 -1.86,2.46 -1.05,0.36 -2.2,0.22 -3.29,0.02 0.93,1.05 2.17,0.94 2.29,1.19 0.16,0.34 0.07,2.19 0.76,3.24 0.35,0.53 1.25,0.62 1.25,0.62 0,0 -1.02,-1.59 -0.83,-3.92 0,0 0.84,-0.23 1.44,-0.61 0.92,-0.58 1.3,-1.67 1.38,-2.7 0.14,-1.86 -1.61,-2.64 -2.88,-2.77 -1.9,-0.2 -3.14,0.77 -3.14,0.77 0,0 2.37,-0.34 3.27,-0.01 z"
   id="path23580" />

	<path
   style="fill:#539d47;fill-opacity:1;stroke-width:0.90095"
   d="m 12.07,119.1 c 1.45,0.95 3.68,1.33 5.22,1.17 -1.93,-0.47 -4.57,-2.28 -5.87,-3.78 0.26,0.44 0.51,0.88 0.64,1.37 0.12,0.43 0.1,0.81 0.02,1.2 0,0.01 -0.01,0.03 -0.01,0.04 z"
   id="path23582" />

	<path
   style="fill:#539d47;fill-opacity:1;stroke-width:0.90095"
   d="m 20.54,121.85 c 0.95,0.84 3.12,1.33 4.84,1.18 0.02,-0.07 0.04,-0.14 0.06,-0.21 0.15,-0.57 0.98,-0.97 1.75,-1.3 -1.69,0.58 -4.88,0.59 -6.65,0.33 z"
   id="path23584" />

	<path
   style="fill:#539d47;fill-opacity:1;stroke-width:0.90095"
   d="m 19.99,85.39 c -0.02,0.03 -0.02,0.07 -0.01,0.1 0.09,0.71 0.49,1.38 1.07,1.8 0.42,0.3 0.92,0.46 1.43,0.48 0.11,-0.53 0.26,-1.06 0.48,-1.62 -0.97,0.03 -1.94,-0.23 -2.75,-0.76 -0.06,-0.03 -0.17,-0.07 -0.22,0 z"
   id="path23586" />

	<path
   style="fill:#539d47;fill-opacity:1;stroke-width:0.90095"
   d="m 28.87,84.7 c -0.01,0.94 0.5,1.82 1.19,2.46 0.35,0.33 0.77,0.61 1.23,0.78 0.14,-0.62 0.3,-1.33 0.59,-1.83 -0.45,-0.01 -0.9,-0.12 -1.31,-0.3 -0.63,-0.27 -1.17,-0.69 -1.7,-1.11 z"
   id="path23588" />

	<path
   style="fill:#539d47;fill-opacity:1;stroke-width:0.90095"
   d="m 35.64,105.11 c -0.6,1.33 -1.21,2.96 -3.19,3.18 -0.22,0.02 -0.41,-0.06 -0.59,-0.22 0.12,1.6 0.33,3.53 0.03,5.01 2.08,-2.12 3.67,-4.61 3.75,-7.97 z"
   id="path23590" />

</g>
  <g
     id="g23626"
     transform="matrix(1.1099389,0,0,1.1099389,-15.176337,-9.8655075)"
     style="stroke-width:0.90095">
	<path
   style="fill:#76bf6a;fill-opacity:1;stroke-width:0.90095"
   d="m 87.96,109.77 c 2.7,4.95 7.53,8.8 12.13,11.29 0.73,0.4 2.58,0.89 2.8,1.76 0.11,0.43 0.28,0.95 0.38,1.38 h 14.08 c -0.26,-1.26 -1.01,-4.72 -1.09,-5.14 -0.07,-0.38 -0.09,-0.77 0.02,-1.2 0.25,-0.92 0.88,-1.68 1.32,-2.52 0.65,-1.25 1.22,-2.54 1.63,-3.89 0.66,-2.14 0.87,-4.38 0.31,-6.56 -0.32,-1.23 -0.98,-2.33 -1.79,-3.3 -0.54,-0.65 -1.93,-1.38 -1.93,-1.38 0,0 0.63,-2.23 0.72,-4.02 0.21,-4.03 -1.53,-5.12 -2.21,-5.71 -0.26,-0.23 -2.72,-0.79 -2.72,-0.79 0,0 0.07,-2.2 -0.47,-4.34 -0.94,-3.74 -3.56,-4.36 -4.88,-4.5 -1.32,-0.14 -3.15,0.75 -3.08,2.77 0.06,1.6 1.15,2.55 2.18,2.53 1.58,4 0.34,7.45 -0.41,9.3 -0.74,1.85 -1.12,0.35 -1.12,0.35 -0.2,-10 -2.2,-13.49 -3.9,-14.7 -3.39,-2.41 -6.45,0.38 -6.32,2.09 0.12,1.58 1.27,2.87 2.85,2.9 0.44,0.7 0.59,1.91 0.78,2.59 0.19,0.66 0.66,4.18 0.59,11.94 -0.02,2.19 -0.31,7.86 -1.95,7.67 -2.51,-0.28 -2.81,-2.84 -3.71,-4.17 -0.51,-0.76 -1.41,-1 -2.46,-0.87 -0.69,0.09 -1.4,0.3 -2,1 -1.19,1.41 -0.66,3.87 0.25,5.52 z m 21.58,-11.45 c 0.32,-1.91 0.85,-3.29 0.85,-3.29 l 1.06,0.39 -0.78,4.22 c 0,0 -1.46,0.58 -1.13,-1.32 z"
   id="path23608" />

	<path
   style="fill:#539d47;fill-opacity:1;stroke-width:0.90095"
   d="m 106.3,117.39 v 0 c 0.14,0.03 -0.88,-2.91 1.49,-5.67 2.04,-2.37 4.99,-1.4 4.99,-1.4 0,0 -2.39,0.42 -4.15,2.38 -1.75,1.97 -2.33,4.69 -2.33,4.69 z"
   id="path23610" />

	<path
   style="fill:#539d47;fill-opacity:1;stroke-width:0.90095"
   d="m 112.83,101.12 c -0.73,0.59 -1.31,1.49 -1.19,2.42 0.14,1.1 1.24,1.88 2.35,2 1.1,0.13 2.19,-0.26 3.22,-0.69 -0.76,1.48 -2.25,1.49 -2.25,1.49 0,0 -0.86,3.63 -1.31,3.8 l -0.09,-3.58 c 0,0 -2.1,0.33 -2.96,-2.48 -0.54,-1.78 0.38,-3.15 1.67,-3.74 1.29,-0.59 3.12,-0.05 3.12,-0.05 0,0 -1.81,0.23 -2.56,0.83 z"
   id="path23612" />

	<path
   style="fill:#539d47;fill-opacity:1;stroke-width:0.90095"
   d="m 111.06,90.49 c -0.8,0.29 -1.53,0.77 -1.61,1.71 -0.1,1.1 0.81,2.1 1.86,2.46 1.05,0.36 2.2,0.22 3.29,0.02 -0.93,1.05 -2.17,0.94 -2.29,1.19 -0.16,0.34 -0.07,2.19 -0.76,3.24 -0.35,0.53 -1.25,0.62 -1.25,0.62 0,0 1.02,-1.59 0.83,-3.92 0,0 -0.84,-0.23 -1.44,-0.61 -0.92,-0.58 -1.3,-1.67 -1.38,-2.7 -0.14,-1.86 1.61,-2.64 2.88,-2.77 1.9,-0.2 3.14,0.77 3.14,0.77 0,0 -2.37,-0.34 -3.27,-0.01 z"
   id="path23614" />

	<path
   style="fill:#539d47;fill-opacity:1;stroke-width:0.90095"
   d="m 116.27,119.1 c -1.45,0.95 -3.68,1.33 -5.22,1.17 1.93,-0.47 4.57,-2.28 5.87,-3.78 -0.26,0.44 -0.51,0.88 -0.64,1.37 -0.12,0.43 -0.1,0.81 -0.02,1.2 0,0.01 0,0.03 0.01,0.04 z"
   id="path23616" />

	<path
   style="fill:#539d47;fill-opacity:1;stroke-width:0.90095"
   d="m 107.79,121.85 c -0.95,0.84 -3.12,1.33 -4.84,1.18 -0.02,-0.07 -0.04,-0.14 -0.06,-0.21 -0.15,-0.57 -0.98,-0.97 -1.75,-1.3 1.69,0.58 4.88,0.59 6.65,0.33 z"
   id="path23618" />

	<path
   style="fill:#539d47;fill-opacity:1;stroke-width:0.90095"
   d="m 108.34,85.39 c 0.02,0.03 0.02,0.07 0.01,0.1 -0.09,0.71 -0.49,1.38 -1.07,1.8 -0.42,0.3 -0.92,0.46 -1.43,0.48 -0.11,-0.53 -0.26,-1.06 -0.48,-1.62 0.97,0.03 1.94,-0.23 2.75,-0.76 0.07,-0.03 0.18,-0.07 0.22,0 z"
   id="path23620" />

	<path
   style="fill:#539d47;fill-opacity:1;stroke-width:0.90095"
   d="m 99.47,84.7 c 0.01,0.94 -0.5,1.82 -1.19,2.46 -0.35,0.33 -0.77,0.61 -1.23,0.78 -0.14,-0.62 -0.3,-1.33 -0.59,-1.83 0.45,-0.01 0.9,-0.12 1.31,-0.3 0.62,-0.27 1.17,-0.69 1.7,-1.11 z"
   id="path23622" />

	<path
   style="fill:#539d47;fill-opacity:1;stroke-width:0.90095"
   d="m 92.69,105.11 c 0.6,1.33 1.21,2.96 3.19,3.18 0.22,0.02 0.41,-0.06 0.59,-0.22 -0.12,1.6 -0.33,3.53 -0.03,5.01 -2.07,-2.12 -3.67,-4.61 -3.75,-7.97 z"
   id="path23624" />

</g>
</svg>
