<?xml version="1.0" encoding="UTF-8" standalone="no"?>
<svg
   width="100%"
   height="100%"
   viewBox="0 0 128 128"
   version="1.1"
   xml:space="preserve"
   style="fill-rule:evenodd;clip-rule:evenodd;stroke-linejoin:round;stroke-miterlimit:2;"
   id="svg6"
   sodipodi:docname="emoji_u1f50b.svg"
   inkscape:version="1.3 (0e150ed6c4, 2023-07-21)"
   xmlns:inkscape="http://www.inkscape.org/namespaces/inkscape"
   xmlns:sodipodi="http://sodipodi.sourceforge.net/DTD/sodipodi-0.dtd"
   xmlns="http://www.w3.org/2000/svg"
   xmlns:svg="http://www.w3.org/2000/svg"><defs
   id="defs6" /><sodipodi:namedview
   id="namedview6"
   pagecolor="#ffffff"
   bordercolor="#000000"
   borderopacity="0.25"
   inkscape:showpageshadow="2"
   inkscape:pageopacity="0.0"
   inkscape:pagecheckerboard="0"
   inkscape:deskcolor="#d1d1d1"
   inkscape:zoom="4.0546875"
   inkscape:cx="64"
   inkscape:cy="64"
   inkscape:window-width="1366"
   inkscape:window-height="697"
   inkscape:window-x="-8"
   inkscape:window-y="-8"
   inkscape:window-maximized="1"
   inkscape:current-layer="svg6" />&#10;    <path
   d="M35.52,21.24L40.33,113.71C40.33,121.53 50.93,127.86 64,127.86C77.07,127.86 87.66,121.53 87.66,113.71L92.47,21.24L35.52,21.24Z"
   style="fill:#bdcf46;fill-rule:nonzero"
   id="path1" />&#10;    <ellipse
   cx="64"
   cy="20.43"
   rx="22.38"
   ry="12.12"
   style="fill:white;"
   id="ellipse1" />&#10;    <path
   d="M64,4.22C48.27,4.22 35.52,11.84 35.52,21.25C35.52,30.65 48.27,38.27 64,38.27C79.72,38.27 92.48,30.65 92.48,21.25C92.48,11.84 79.72,4.22 64,4.22ZM64,32.55C51.64,32.55 41.62,27.12 41.62,20.43C41.62,13.74 51.64,8.31 64,8.31C76.36,8.31 86.38,13.74 86.38,20.43C86.38,27.13 76.36,32.55 64,32.55Z"
   style="fill:rgb(120,163,173);fill-rule:nonzero;"
   id="path2" />&#10;    <path
   d="M75.13,10.22C72.16,8.65 68.27,7.7 64,7.7C59.73,7.7 55.84,8.65 52.87,10.22L47.13,10.22L47.13,17.37L47.16,17.37C47.15,17.51 47.13,17.64 47.13,17.78C47.13,23.35 54.68,27.86 64,27.86C73.09,27.86 80.47,23.56 80.83,18.18L80.86,18.18L80.86,10.21L75.13,10.21L75.13,10.22Z"
   style="fill:rgb(153,153,153);fill-rule:nonzero;"
   id="path3" />&#10;    <path
   d="M75.13,10.22C72.16,8.65 68.27,7.7 64,7.7C59.73,7.7 55.84,8.65 52.87,10.22L47.13,10.22L47.13,17.37L47.16,17.37C47.15,17.51 47.13,17.64 47.13,17.78C47.13,23.35 54.68,27.86 64,27.86C73.09,27.86 80.47,23.56 80.83,18.18L80.86,18.18L80.86,10.21L75.13,10.21L75.13,10.22Z"
   style="fill:rgb(120,163,173);fill-rule:nonzero;"
   id="path4" />&#10;    <ellipse
   cx="64"
   cy="9.74"
   rx="10.95"
   ry="5.93"
   style="fill:white;"
   id="ellipse4" />&#10;    <path
   d="M64,0.14C54.68,0.14 47.13,4.65 47.13,10.23C47.13,15.8 54.68,20.31 64,20.31C73.31,20.31 80.87,15.8 80.87,10.23C80.87,4.65 73.31,0.14 64,0.14ZM64,15.67C57.95,15.67 53.05,13.02 53.05,9.74C53.05,6.46 57.95,3.81 64,3.81C70.05,3.81 74.95,6.46 74.95,9.74C74.95,13.01 70.05,15.67 64,15.67Z"
   style="fill:rgb(120,163,173);fill-rule:nonzero;"
   id="path5" />&#10;    <path
   d="m 74.91,54.43 c -0.83,-1.85 -3.03,-2.25 -4.84,-2.39 -0.67,-0.05 -1.72,0.15 -1.86,-0.78 -0.05,-0.35 -0.09,-0.7 -0.12,-1.05 -0.06,-0.53 -0.08,-1.06 -0.17,-1.58 -0.15,-0.9 -0.7,-1.91 -1.43,-2.64 C 66,45.5 65.41,45.13 64.8,45 c -0.97,-0.2 -2.07,-0.1 -2.99,0.31 -1.89,0.85 -2.25,3.09 -2.4,4.93 -0.03,0.37 -0.02,0.73 -0.05,1.09 -0.02,0.25 -0.09,0.49 -0.32,0.62 -0.098,0.057 -0.207,0.095 -0.32,0.11 l -0.81,0.09 c -0.4,0.04 -0.81,0.06 -1.21,0.12 -0.94,0.15 -2.1,0.53 -2.84,1.1 -0.64,0.48 -1.22,1.14 -1.42,1.91 -0.27,1.05 -0.26,2.23 0.25,3.21 0.96,1.84 3.11,2.18 4.98,2.32 0.46,0.03 1.11,-0.09 1.49,0.25 0.25,0.23 0.24,0.65 0.28,0.96 0.05,0.5 0.12,1 0.2,1.5 0.15,0.94 0.53,2.1 1.1,2.84 0.48,0.64 1.14,1.22 1.91,1.41 1.05,0.27 2.23,0.26 3.21,-0.25 1.84,-0.96 2.18,-3.11 2.32,-4.98 0.03,-0.35 -0.01,-0.76 0.08,-1.1 0.15,-0.62 0.89,-0.58 1.37,-0.63 0.65,-0.07 1.31,-0.16 1.96,-0.27 0.9,-0.16 1.91,-0.7 2.64,-1.43 0.49,-0.5 0.86,-1.08 0.99,-1.69 0.21,-0.97 0.1,-2.08 -0.31,-2.99 z m -2.13,58.88 c 0.42,-0.42 0.74,-0.92 0.85,-1.45 0.18,-0.84 0.08,-1.79 -0.27,-2.57 -0.95,-2.12 -3.88,-2.02 -5.83,-2.16 -3.25,-0.23 -6.61,-0.21 -9.83,0.3 -0.81,0.13 -1.8,0.46 -2.44,0.94 -0.55,0.41 -1.05,0.98 -1.22,1.64 -0.23,0.9 -0.22,1.92 0.22,2.76 0.82,1.58 2.67,1.87 4.28,2 3.82,0.29 8.18,0.43 11.97,-0.23 0.78,-0.14 1.65,-0.6 2.27,-1.23 z"
   style="fill:#ffffff;fill-rule:nonzero"
   id="path6"
   sodipodi:nodetypes="cccccscccccccccccccccccccccccccccccccccccc" />&#10;</svg>
