<?xml version="1.0" encoding="UTF-8" standalone="no"?>
<svg
   enable-background="new 0 0 128 128"
   viewBox="0 0 128 128"
   version="1.1"
   id="svg17"
   sodipodi:docname="emoji_u1f6fa.svg"
   inkscape:version="1.3 (0e150ed6c4, 2023-07-21)"
   xmlns:inkscape="http://www.inkscape.org/namespaces/inkscape"
   xmlns:sodipodi="http://sodipodi.sourceforge.net/DTD/sodipodi-0.dtd"
   xmlns="http://www.w3.org/2000/svg"
   xmlns:svg="http://www.w3.org/2000/svg">
  <defs
     id="defs17">
    <inkscape:path-effect
       effect="fillet_chamfer"
       id="path-effect20"
       is_visible="true"
       lpeversion="1"
       nodesatellites_param="F,0,0,1,0,0,0,1 @ F,0,0,1,0,0,0,1 @ F,0,0,1,0,0,0,1 @ F,0,0,1,0,2.52795,0,1 @ F,0,0,1,0,0,0,1 @ F,0,0,1,0,0,0,1 @ F,0,0,1,0,0,0,1 @ F,0,0,1,0,0,0,1 @ F,0,0,1,0,0,0,1"
       radius="0"
       unit="px"
       method="auto"
       mode="F"
       chamfer_steps="1"
       flexible="false"
       use_knot_distance="true"
       apply_no_radius="true"
       apply_with_radius="true"
       only_selected="false"
       hide_knots="false" />
    <inkscape:path-effect
       effect="fillet_chamfer"
       id="path-effect19"
       is_visible="true"
       lpeversion="1"
       nodesatellites_param="F,0,0,1,0,2.217431,0,1 @ F,0,0,1,0,0,0,1 @ F,0,0,1,0,0,0,1 @ F,0,1,1,0,2.217431,0,1"
       radius="0"
       unit="px"
       method="auto"
       mode="F"
       chamfer_steps="1"
       flexible="false"
       use_knot_distance="true"
       apply_no_radius="true"
       apply_with_radius="true"
       only_selected="false"
       hide_knots="false" />
  </defs>
  <sodipodi:namedview
     id="namedview17"
     pagecolor="#ffffff"
     bordercolor="#000000"
     borderopacity="0.25"
     inkscape:showpageshadow="2"
     inkscape:pageopacity="0.0"
     inkscape:pagecheckerboard="0"
     inkscape:deskcolor="#d1d1d1"
     showguides="false"
     inkscape:zoom="2.867097"
     inkscape:cx="68.536223"
     inkscape:cy="57.723892"
     inkscape:window-width="1366"
     inkscape:window-height="697"
     inkscape:window-x="-8"
     inkscape:window-y="-8"
     inkscape:window-maximized="1"
     inkscape:current-layer="svg17" />
  <g
     id="g20">
    <path
       id="rect19"
       style="fill:#285318;fill-opacity:1;stroke-width:5.99999;stroke-linecap:round;stroke-opacity:0.501961"
       d="m 53.668215,63.457097 c -4.123574,0 -8.193665,2.931322 -8.193665,7.766127 v 19.03171 H 64.751235 V 68.090903 66.31762 63.457097 Z"
       sodipodi:nodetypes="sscccccs" />
    <path
       d="m 68.913389,26.516962 c 0.61227,0 1.05257,0.497265 1.05257,1.109535 V 88.11124 c 0,2.418398 -2.059517,4.381173 -4.477928,4.381173 h -8.445059 c -2.418413,0 -4.381184,-1.962775 -4.381184,-4.381173 V 75.244238 c 0,-2.418411 1.962771,-4.381182 4.381184,-4.381182 h 4.187752 c 0.904683,0 1.645133,-0.735928 1.645133,-1.645133 V 27.626497 c 0,-0.61227 0.497265,-1.109535 1.109536,-1.109535 z"
       style="clip-rule:evenodd;fill:#5b8c31;fill-opacity:1;fill-rule:evenodd;stroke-width:1.41513;stroke-linejoin:round;stroke-miterlimit:1.41421"
       id="path1"
       sodipodi:nodetypes="sssssssssssss" />
    <path
       id="path17"
       style="clip-rule:evenodd;fill:#93b1bb;fill-opacity:1;fill-rule:evenodd;stroke-width:1.41513;stroke-linejoin:round;stroke-miterlimit:1.41421"
       d="m 63.986263,26.517362 c -0.61227,0 -1.109535,0.497264 -1.109535,1.109534 V 58.89324 h 7.088454 V 27.626896 c 0,-0.61227 -0.438754,-1.109534 -1.051023,-1.109534 z"
       sodipodi:nodetypes="ssccsss" />
    <path
       id="path4"
       style="fill:#fcc21b;stroke-width:1"
       d="m 97.725222,19.032335 c -0.554353,-0.0088 -0.954546,0.0065 -1.152875,0.0065 H 40.519169 c -0.798865,0 -3.339789,-0.01187 -5.35914,2.251575 -4.515796,5.070566 -12.382591,18.26287 -16.820721,24.875684 -1.697584,2.529735 -2.595878,5.493504 -2.606973,8.544718 -0.0033,0.906096 -0.0032,3.008178 -0.0065,4.193262 H 37.545962 V 38.33434 c 0,-2.929165 2.373631,-5.305677 5.302797,-5.304963 l 44.491911,0.01087 c 2.929168,7.13e-4 5.304963,2.375798 5.304963,5.304963 v 20.5589 H 121.36568 C 120.16748,53.211252 118.29549,44.403481 116.2991,35.194308 113.07591,20.272445 101.6057,19.093468 97.725222,19.032335 Z"
       sodipodi:nodetypes="csscccccsssscccc" />
    <path
       id="path5"
       style="fill:#40c0e7;stroke-width:1"
       d="m 29.644861,28.735561 c -3.966591,5.869524 -8.37681,13.068006 -11.305553,17.431833 -1.291549,1.92466 -2.116813,4.099189 -2.444444,6.373324 h 6.282308 c 4.127461,0 7.467689,-3.340228 7.467689,-7.46769 z" />
    <g
       transform="matrix(1.5789537,0,0,1.5789537,-10.899771,-68.056955)"
       id="g4"
       style="clip-rule:evenodd;fill-rule:evenodd;stroke-width:0.811157;stroke-linejoin:round;stroke-miterlimit:1.41421">&#10;        <circle
   cx="23.868"
   cy="109"
   r="10.132"
   style="fill:#2e2e2e;fill-opacity:1;stroke-width:0.811157"
   id="circle3" />
&#10;    </g>
    <path
       id="path20"
       style="fill:#285318;fill-opacity:1;stroke-width:5.99999;stroke-linecap:round;stroke-opacity:0.501961"
       d="m 82.947962,63.457097 c -4.123574,0 -8.193665,2.931322 -8.193665,7.766127 v 19.03171 H 94.030982 V 68.090903 66.31762 63.457097 Z"
       sodipodi:nodetypes="sscccccs" />
    <path
       d="m 121.53697,59.703111 c -0.12205,-0.588053 -0.0222,-0.122048 -0.16643,-0.798865 H 92.64468 91.507434 c -4.954023,0 -9.350459,2.435353 -9.350459,10.418114 v 8.716467 c 0,4.700228 0.437879,9.258415 -6.751137,9.258415 H 42.848759 c -2.929172,0 -5.303577,-2.374405 -5.303577,-5.303577 V 58.904246 H 15.720633 l -0.02219,25.219726 10.118957,7.10102 c 4.282805,3.716941 9.763907,5.758485 15.433629,5.758485 h 73.817351 c 3.66146,0 6.65721,-1.042962 6.65721,-7.589214 v -27.88261 c -0.0111,-0.543672 -0.0666,-1.275965 -0.18862,-1.808542 z"
       fill="#43A047"
       id="path6"
       style="fill:#7cb342;stroke-width:1"
       sodipodi:nodetypes="cccssssssccccssscc" />
    <g
       transform="matrix(0.62336114,0,0,0.62336114,11.908478,36.102606)"
       id="g6"
       style="clip-rule:evenodd;fill:#6593a2;fill-rule:evenodd;stroke-width:0.811157;stroke-linejoin:round;stroke-miterlimit:1.41421">&#10;        <circle
   cx="23.868"
   cy="109"
   r="10.132"
   style="fill:#6593a2;stroke-width:0.811157"
   id="circle5" />
&#10;    </g>
    <g
       transform="matrix(1.5789537,0,0,1.5789537,64.567106,-68.056955)"
       id="g5"
       style="clip-rule:evenodd;fill-rule:evenodd;stroke-width:0.811157;stroke-linejoin:round;stroke-miterlimit:1.41421">&#10;        <circle
   cx="23.868"
   cy="109"
   r="10.132"
   style="fill:#2e2e2e;fill-opacity:1;stroke-width:0.811157"
   id="circle4" />
&#10;    </g>
    <path
       d="M 39.814918,96.983477 H 11.94292 c -1.623249,0 -4.3889306,-0.627153 -4.3889306,-4.600198 0,-3.973041 4.0241796,-12.230154 14.0834696,-12.230154 10.05929,0 22.566384,8.669561 22.566384,12.230154 0,3.560597 -2.76568,4.600198 -4.388925,4.600198 z"
       fill="#66bb6a"
       id="path15"
       style="fill:#7cb342;stroke-width:1"
       sodipodi:nodetypes="sszzzs" />
    <g
       transform="matrix(0.62336114,0,0,0.62336114,87.375372,36.102606)"
       id="g7"
       style="clip-rule:evenodd;fill:#6593a2;fill-rule:evenodd;stroke-width:0.811157;stroke-linejoin:round;stroke-miterlimit:1.41421">&#10;        <circle
   cx="23.868"
   cy="109"
   r="10.132"
   style="fill:#6593a2;stroke-width:0.811157"
   id="circle6" />
&#10;    </g>
  </g>
</svg>
