<?xml version="1.0" encoding="UTF-8" standalone="no"?>
<svg
   width="100%"
   height="100%"
   viewBox="0 0 128 128"
   version="1.1"
   xml:space="preserve"
   style="fill-rule:evenodd;clip-rule:evenodd;stroke-linejoin:round;stroke-miterlimit:2;"
   id="svg2"
   sodipodi:docname="emoji_u1f92a.svg"
   inkscape:version="1.3 (0e150ed6c4, 2023-07-21)"
   xmlns:inkscape="http://www.inkscape.org/namespaces/inkscape"
   xmlns:sodipodi="http://sodipodi.sourceforge.net/DTD/sodipodi-0.dtd"
   xmlns="http://www.w3.org/2000/svg"
   xmlns:svg="http://www.w3.org/2000/svg"><defs
   id="defs2"><clipPath
     clipPathUnits="userSpaceOnUse"
     id="clipPath2"><path
       id="path2"
       style="stroke-width:1.00019"
       d="M 88.277343,35.015625 A 19.895958,18.566364 83.65 0 0 85.628906,35.105469 19.895958,18.566364 83.65 0 0 69.376954,56.933594 19.895958,18.566364 83.65 0 0 90.03125,74.654297 19.895958,18.566364 83.65 0 0 106.2832,52.826172 19.895958,18.566364 83.65 0 0 88.277343,35.015625 Z m -47.042968,0.04883 A 18.566366,19.895958 4.3130002 0 0 21.22461,53.507812 18.566366,19.895958 4.3130002 0 0 38.242188,74.744141 18.566366,19.895958 4.3130002 0 0 58.251953,56.300781 18.566366,19.895958 4.3130002 0 0 41.234375,35.064453 Z" /></clipPath></defs><sodipodi:namedview
   id="namedview2"
   pagecolor="#ffffff"
   bordercolor="#000000"
   borderopacity="0.25"
   inkscape:showpageshadow="2"
   inkscape:pageopacity="0.0"
   inkscape:pagecheckerboard="0"
   inkscape:deskcolor="#d1d1d1"
   inkscape:zoom="4.0546875"
   inkscape:cx="63.753372"
   inkscape:cy="69.179191"
   inkscape:window-width="1366"
   inkscape:window-height="697"
   inkscape:window-x="-8"
   inkscape:window-y="-8"
   inkscape:window-maximized="1"
   inkscape:current-layer="svg2" />&#10;    <path
   id="path10"
   d="M63.89,9.64C1.58,9.64 0.1,79.5 0.1,93.33C0.1,107.16 28.66,118.36 63.89,118.36C99.13,118.36 127.68,107.15 127.68,93.33C127.68,79.5 126.21,9.64 63.89,9.64Z"
   style="fill:rgb(252,194,27);fill-rule:nonzero;" />&#10;    &#10;    &#10;    &#10;    &#10;    &#10;    <path
   id="path20"
   d="m 96.778986,67.237308 c -3.535395,-1.637668 -7.315189,0.434484 -10.74301,1.742109 -9.546094,3.641931 -18.212778,5.131288 -22.377967,5.807035 -4.165189,0.674702 -12.859027,2.000083 -23.067291,1.559334 -3.664906,-0.156665 -7.906339,-0.929543 -10.741966,1.741065 -3.599108,3.387089 0.968187,12.699229 8.402442,18.286934 4.494184,3.376638 14.907156,9.655755 30.07333,7.197155 15.16513,-2.45859 23.061025,-11.705962 26.259071,-16.329655 5.287952,-7.649409 6.669735,-17.92556 2.195391,-20.003977 z"
   style="fill:#ec6c31;fill-rule:nonzero;stroke-width:0.999999" /><path
   id="path4"
   d="m 37.699182,96.35113 c -0.832811,3.108092 -3.397086,16.13287 4.09275,22.60955 1.395065,1.21485 3.423232,2.17757 5.614809,2.7285 l 0.01868,-0.0728 -0.01868,0.0728 c 2.198115,0.52385 4.441984,0.60696 6.238574,0.18022 C 63.28751,119.59472 66.9294,106.73292 67.738831,103.71208 68.548262,100.69125 66.584262,98.540375 53.373166,95.176909 40.16207,91.813444 38.531993,93.243038 37.699182,96.35113 Z"
   style="fill:#eb7aa4;fill-rule:nonzero;stroke-width:1"
   sodipodi:nodetypes="zccccczzz" />&#10;<ellipse
   cx="-51.14941"
   cy="-79.548241"
   rx="16.610579"
   ry="15.500539"
   style="fill:#ffffff;stroke-width:1.00003"
   transform="matrix(-0.07155252,-0.99743683,-0.99743683,0.07155252,0,0)"
   id="ellipse47" /><path
   d="m 83.979209,52.626473 c -0.275149,2.519107 -2.578305,4.360682 -5.136588,4.106994 -2.566236,-0.246332 -4.424921,-2.504161 -4.149772,-5.02327 0.267796,-2.527063 2.562998,-4.361282 5.128934,-4.107296 2.566237,0.246333 4.432575,2.504464 4.157426,5.023572"
   style="fill:#2f2f2f;stroke-width:0.999999"
   id="path48" /><ellipse
   cx="-34.943188"
   cy="54.338661"
   rx="15.500487"
   ry="16.610523"
   style="fill:#ffffff;stroke-width:1.00003"
   transform="matrix(-0.99275455,0.12015988,0.12015988,0.99275455,0,0)"
   id="ellipse48" /><path
   d="m 47.770739,43.216943 c 0.775669,2.415568 -0.564301,5.031911 -3.011481,5.845085 -2.445692,0.820689 -5.062099,-0.48022 -5.836278,-2.888275 -0.790697,-2.412589 0.556786,-5.030421 3.002478,-5.85111 2.439667,-0.811684 5.063588,0.487735 5.845281,2.8943"
   style="fill:#2f2f2f;stroke-width:0.999999"
   id="path49" /></svg>
