<?xml version="1.0" encoding="UTF-8" standalone="no"?>
<svg
   width="128"
   height="128"
   version="1.1"
   id="svg452"
   sodipodi:docname="emoji_u1f376.svg"
   xml:space="preserve"
   inkscape:version="1.3 (0e150ed6c4, 2023-07-21)"
   xmlns:inkscape="http://www.inkscape.org/namespaces/inkscape"
   xmlns:sodipodi="http://sodipodi.sourceforge.net/DTD/sodipodi-0.dtd"
   xmlns:xlink="http://www.w3.org/1999/xlink"
   xmlns="http://www.w3.org/2000/svg"
   xmlns:svg="http://www.w3.org/2000/svg"><sodipodi:namedview
     id="namedview454"
     pagecolor="#ffffff"
     bordercolor="#000000"
     borderopacity="0.25"
     inkscape:showpageshadow="2"
     inkscape:pageopacity="0.0"
     inkscape:pagecheckerboard="0"
     inkscape:deskcolor="#d1d1d1"
     showgrid="false"
     inkscape:zoom="2"
     inkscape:cx="48.75"
     inkscape:cy="87.25"
     inkscape:window-width="1366"
     inkscape:window-height="697"
     inkscape:window-x="-8"
     inkscape:window-y="-8"
     inkscape:window-maximized="1"
     inkscape:current-layer="svg452" /><defs
     id="defs420"><path
       id="a"
       d="M77.83 108.7c-7.32 10.9-23.88 11.22-25.74 11.22H51.49c-1.87 0-18.43-.32-25.74-11.22-14.48-21.56-3.68-38.16 5-51.5 3.25-4.99 6.06-9.3 7.28-13.53 2.12-7.29 1.72-14.42.68-19.99.02-.02.05-.03.07-.05 3.61 1.25 7.61 1.83 10.79 1.9 4.67.11 10.14-.09 14.94-1.55.12.04.23.09.29.18-.97 5.5-1.29 12.41.77 19.5 1.23 4.22 4.03 8.54 7.28 13.53 8.66 13.35 19.46 29.95 4.98 51.51z" /><defs
       id="defs427"><path
         id="b"
         d="M58.88 18.12c-2.72.5-5.43.63-6.83.67-2.75.07-5.74-.06-8.41-.76-2.08-.54-4.48-1.31-6.03-2.85-3.12-3.1.35-6.33 3.22-7.61 1.37-.61 2.81-1.07 4.28-1.42 3.39-.81 6.56-.64 10.03-.47 3.95.19 10.11 1.26 11.54 5.63 1.36 4.11-3.25 5.97-7.8 6.81z" /></defs><defs
       id="defs434"><path
         id="c"
         d="M109.66 107.6l-.34.61c-2.28 4.15-5.73 10.41-9.24 12.22-2.22 1.14-4.85 1.74-7.63 1.74-4.86 0-9.58-1.83-12.64-4.89-2.07-2.07-4.11-4.73-5.94-7.66l.18.16c-2.46-4.54-.47-4.85.16-4.79.14.01.25.04.36.06.07.02.11.03.16.04.06.02.13.04.13.04l-.01-.01c3.93.96 8.11 1.35 11.66 1.43.65.02 1.36.04 2.05.05.52.02 1.01.03 1.54.04h.31c1.2.03 2.44.05 3.7.05h.56c.68-.01 1.35-.01 2.03-.03.18-.01.35-.01.53-.01.82-.02 1.63-.06 2.44-.11.2-.02.39-.03.59-.04.67-.05 1.34-.11 2-.18l.59-.06c.81-.1 1.61-.21 2.39-.35.16-.03.31-.06.46-.09.65-.12 1.29-.26 1.93-.42.2-.04.39-.1.59-.15.04-.01.07-.03.11-.03v.01l-.01.01s.29-.11.65-.14c.63-.05 1.73.24.69 2.5z" /></defs><defs
       id="defs439"><path
         id="d"
         d="M111.93 97.96c-3.53 2.55-8.73 3.84-13.06 3.95-1.62.04-3.24-.01-4.86-.01-6.37 0-12.72-.37-18.95-1.7-1.83-.39-3.68-1.12-5.2-2.19-.88-.62-1.7-1.33-2.05-2.37-.32-.95-.9-1.78-.96-2.81-.06-1.09.07-2.77 1.89-4.7 4.27-4.51 13.87-6.88 21.15-6.88l.5.01c2.98.04 5.94.32 8.8.82 7.93 1.37 13.2 4.01 14.85 7.43.78 1.61.67 4.1-.06 5.72-.24.54-.29 1.08-.68 1.56-.34.44-.81.77-1.25 1.09-.03.02-.08.06-.12.08z" /></defs><clipPath
       id="e-2"><use
         xlink:href="#d"
         overflow="visible"
         id="use443-8" /></clipPath><clipPath
       id="SVGID_2_"><use
         style="overflow:visible"
         xlink:href="#SVGID_1_"
         id="use10" /></clipPath><ellipse
       id="SVGID_1_"
       cx="94.900002"
       cy="-76.900002"
       rx="23.870001"
       ry="10.34" /></defs><g
     id="g12"
     transform="translate(-1.3289015,168.46667)"><path
       d="m 66.4,-126.68 c -2.82,-9.69 -0.2,-19.12 1.34,-23.54 0.1,-0.3 0.19,-0.56 0.31,-0.81 0.25,-0.54 0.44,-1.16 0.58,-1.82 v 0 0 c 0.43,-2.12 0.25,-4.69 -0.56,-6.42 -2.36,-5.01 -8.92,-7.26 -14.55,-8.25 -2.45,-0.43 -4.95,-0.66 -7.44,-0.7 -9.12,-0.14 -22.99,4.11 -22.46,13.73 0.03,0.56 0.13,1.11 0.27,1.63 v 0 c 0,0 0.05,0.23 0.22,0.64 0.1,0.27 0.2,0.55 0.32,0.81 1.43,3.71 4.73,14.12 1.64,24.73 -3.85,13.25 -33.91,37.1 -11.42,70.6 9.2,13.69 28.62,14.16 31.28,14.16 0.2,0 0.3,0 0.3,0 0,0 0.1,0 0.3,0 2.66,0 22.09,-0.48 31.28,-14.16 22.5,-33.5 -7.56,-57.35 -11.41,-70.6 z"
       style="fill:#c7e3e5"
       id="path7" /><ellipse
       cx="46.23"
       cy="-155.42"
       rx="17.26"
       ry="8.8199997"
       style="fill:#78a3ad"
       id="ellipse7" /><path
       d="m 66.4,-126.68 c -2.82,-9.69 -0.2,-19.12 1.34,-23.54 0.1,-0.3 0.19,-0.56 0.31,-0.81 0.25,-0.54 0.44,-1.16 0.58,-1.82 0.14,-0.69 0.21,-1.43 0.22,-2.17 -0.48,9.76 -11.81,9.67 -15.06,16.8 -1.02,2.23 -1.29,4.73 -1.3,7.19 -0.06,13.69 6.13,25.27 7.83,38.86 2.84,22.71 -1.74,32.95 -9.33,39.71 -5.23,4.66 -14.87,8.48 -21.59,7.48 7.65,2.9 14.97,3.06 16.53,3.06 0.2,0 0.3,0 0.3,0 0,0 0.1,0 0.3,0 2.66,0 22.09,-0.48 31.28,-14.16 22.5,-33.5 -7.56,-57.35 -11.41,-70.6 z"
       style="fill:#aed2d3"
       id="path8" /><path
       d="m 123.24,-81.4 c -3.06,-6.36 -11.58,-9.22 -18.9,-10.48 -3.18,-0.55 -6.42,-0.85 -9.67,-0.89 -0.19,0 -0.39,-0.01 -0.58,-0.01 -0.28,0 -0.59,0.02 -0.87,0.03 -0.37,0.01 -0.74,0.01 -1.12,0.04 -0.4,0.02 -0.81,0.05 -1.21,0.08 -0.39,0.04 -0.78,0.06 -1.17,0.1 -0.42,0.04 -0.83,0.1 -1.25,0.15 -0.4,0.05 -0.79,0.1 -1.2,0.16 -0.43,0.07 -0.85,0.15 -1.28,0.23 -0.4,0.07 -0.8,0.14 -1.2,0.22 -0.43,0.09 -0.86,0.2 -1.28,0.29 -0.4,0.1 -0.8,0.18 -1.19,0.29 -0.43,0.11 -0.86,0.25 -1.28,0.37 -0.39,0.11 -0.77,0.22 -1.15,0.35 -0.42,0.14 -0.84,0.3 -1.26,0.45 -0.37,0.13 -0.74,0.26 -1.11,0.41 -0.41,0.16 -0.8,0.35 -1.2,0.53 -0.35,0.16 -0.71,0.3 -1.05,0.47 -0.39,0.19 -0.76,0.41 -1.14,0.61 -0.32,0.18 -0.66,0.35 -0.97,0.54 -0.37,0.22 -0.71,0.46 -1.05,0.7 -0.29,0.2 -0.59,0.38 -0.87,0.58 -0.33,0.25 -0.64,0.53 -0.95,0.8 -0.25,0.21 -0.52,0.42 -0.75,0.64 -0.3,0.28 -0.55,0.59 -0.83,0.88 -0.21,0.23 -0.44,0.45 -0.63,0.69 -0.25,0.32 -0.46,0.67 -0.68,1 -0.16,0.25 -0.34,0.49 -0.49,0.74 -0.2,0.36 -0.35,0.75 -0.51,1.14 -0.11,0.25 -0.24,0.49 -0.33,0.75 -0.15,0.44 -0.23,0.91 -0.33,1.37 -0.04,0.23 -0.12,0.44 -0.16,0.67 -0.1,0.71 -0.13,1.44 -0.08,2.2 0.03,0.44 0.25,1.34 0.35,1.73 0.26,0.92 0.41,1.48 0.75,2.42 0.92,2.65 2.09,6.2 2.25,6.59 2.51,6.05 6.58,12.68 11.23,17.32 0.48,0.48 0.99,0.93 1.53,1.36 0.16,0.13 0.33,0.26 0.5,0.39 0.38,0.29 0.78,0.57 1.18,0.83 0.2,0.13 0.39,0.26 0.59,0.38 0.42,0.26 0.86,0.5 1.3,0.74 0.17,0.1 0.34,0.19 0.52,0.28 0.62,0.3 1.25,0.59 1.89,0.84 0.11,0.04 0.23,0.07 0.34,0.12 0.54,0.2 1.09,0.39 1.64,0.55 0.23,0.07 0.46,0.12 0.68,0.18 0.46,0.12 0.93,0.23 1.4,0.33 0.24,0.05 0.47,0.09 0.71,0.14 0.52,0.09 1.04,0.15 1.57,0.22 0.17,0.02 0.35,0.04 0.52,0.06 0.69,0.06 1.38,0.1 2.07,0.1 0.04,0 0.08,0.01 0.12,0.01 0.1,0 0.21,-0.02 0.31,-0.02 0.66,-0.01 1.32,-0.05 1.98,-0.11 0.21,-0.02 0.41,-0.03 0.61,-0.06 0.77,-0.09 1.54,-0.22 2.3,-0.38 0.08,-0.02 0.15,-0.04 0.23,-0.06 0.69,-0.16 1.37,-0.37 2.03,-0.6 0.19,-0.06 0.38,-0.13 0.57,-0.2 0.73,-0.28 1.44,-0.57 2.14,-0.93 5.41,-2.79 9.37,-10.53 12.2,-15.64 2.47,-4.46 4.2,-9.56 4.98,-14.61 0,0 0,0 0,-0.01 0,-0.01 0,-0.02 0,-0.02 v 0 c 0.54,-2.72 0.29,-5.9 -0.75,-8.05 z"
       style="fill:#c7e3e5"
       id="path9" /><g
       id="g10"><defs
         id="defs9"><ellipse
           id="ellipse1"
           cx="94.900002"
           cy="-76.900002"
           rx="23.870001"
           ry="10.34" /></defs><use
         style="overflow:visible;fill:#8ab5bc"
         xlink:href="#SVGID_1_"
         id="use9" /><clipPath
         id="clipPath1"><use
           style="overflow:visible"
           xlink:href="#SVGID_1_"
           id="use1" /></clipPath><path
         d="m 75.74,-70.26 c 0.24,-0.91 0.8,-1.84 1.32,-2.42 0.26,-0.28 0.59,-0.56 0.91,-0.83 3.28,-2.72 9.93,-4.68 16.3,-4.68 h 0.4 c 2.43,0.04 4.86,0.25 7.2,0.65 1.6,0.27 3.2,0.62 4.75,1.11 2.22,0.68 4.54,1.55 6.08,3.33 1.69,1.95 2.17,4.16 0.36,6.2 -3.02,3.38 -8.69,2.97 -12.84,3.19 -6.59,0.34 -12.38,0.09 -18.81,-1.36 -2.25,-0.51 -5.24,-1.26 -5.75,-3.84 -0.09,-0.41 -0.05,-0.88 0.08,-1.35 z"
         style="fill:#aaeaf9"
         clip-path="url(#SVGID_2_)"
         id="path10" /></g><path
       d="m 124.27,-77.94 c 0.16,3.94 -1.2,6.65 -3.24,9.1 -1.81,2.17 -4.31,3.65 -6.8,4.99 -1.34,0.72 -6.53,2.74 -8.37,3.99 -2.33,1.58 -5.04,4.95 -6.46,8.06 -1.17,2.57 -5.07,9.66 -13.12,8.91"
       style="fill:none"
       id="path11" /><path
       d="m 121.03,-68.84 c -1.81,2.17 -4.31,3.65 -6.8,4.99 -1.34,0.72 -6.53,2.74 -8.37,3.99 -2.33,1.58 -5.04,4.95 -6.46,8.06 -1.15,2.53 -4.95,9.41 -12.73,8.92 0.31,0.14 0.61,0.29 0.93,0.41 0.11,0.04 0.23,0.07 0.34,0.12 0.54,0.2 1.09,0.39 1.64,0.55 0.23,0.07 0.46,0.12 0.68,0.18 0.46,0.12 0.93,0.23 1.4,0.33 0.24,0.05 0.47,0.09 0.71,0.14 0.52,0.09 1.04,0.15 1.57,0.22 0.17,0.02 0.35,0.04 0.52,0.06 0.69,0.06 1.38,0.1 2.07,0.1 0.04,0 0.08,0.01 0.12,0.01 0.1,0 0.21,-0.02 0.31,-0.02 0.66,-0.01 1.32,-0.05 1.98,-0.11 0.21,-0.02 0.41,-0.03 0.61,-0.06 0.77,-0.09 1.54,-0.22 2.3,-0.38 0.08,-0.02 0.15,-0.04 0.23,-0.06 0.69,-0.16 1.37,-0.37 2.03,-0.6 0.19,-0.06 0.38,-0.13 0.57,-0.2 0.73,-0.28 1.44,-0.57 2.14,-0.93 5.41,-2.79 9.37,-10.53 12.2,-15.64 2.47,-4.46 4.2,-9.56 4.98,-14.61 0,0 0,0 0,-0.01 0,-0.01 0,-0.02 0,-0.02 0.2,-1.03 0.28,-2.14 0.25,-3.23 -0.15,3.24 -1.41,5.62 -3.22,7.79 z"
       style="fill:#aed2d3"
       id="path12" /></g></svg>
