<?xml version="1.0" encoding="UTF-8" standalone="no"?>
<svg
   width="128"
   height="128"
   style="enable-background:new 0 0 128 128;"
   version="1.1"
   id="svg21975"
   sodipodi:docname="emoji_u1f3a6.svg"
   inkscape:version="1.2.2 (732a01da63, 2022-12-09)"
   xmlns:inkscape="http://www.inkscape.org/namespaces/inkscape"
   xmlns:sodipodi="http://sodipodi.sourceforge.net/DTD/sodipodi-0.dtd"
   xmlns="http://www.w3.org/2000/svg"
   xmlns:svg="http://www.w3.org/2000/svg">
  <defs
     id="defs21979" />
  <sodipodi:namedview
     id="namedview21977"
     pagecolor="#ffffff"
     bordercolor="#000000"
     borderopacity="0.25"
     inkscape:showpageshadow="2"
     inkscape:pageopacity="0.0"
     inkscape:pagecheckerboard="0"
     inkscape:deskcolor="#d1d1d1"
     showgrid="false"
     inkscape:zoom="2.9996795"
     inkscape:cx="54.505822"
     inkscape:cy="66.673789"
     inkscape:window-width="1366"
     inkscape:window-height="697"
     inkscape:window-x="-8"
     inkscape:window-y="-8"
     inkscape:window-maximized="1"
     inkscape:current-layer="svg21975" />
  <path
     d="M 121.005,0.115 H 6.995 c -3.78,0 -6.88,3.09 -6.88,6.88 v 114.01 c 0,3.79 3.1,6.88 6.88,6.88 h 114.01 c 3.78,0 6.88,-3.09 6.88,-6.88 V 6.995 c 0,-3.79 -3.1,-6.88 -6.88,-6.88 z"
     style="fill:#f79329"
     id="path21931" />
  <g
     id="g22274"
     transform="translate(-73.681376,-3.3403169)">
    <path
       style="fill:#fafafa"
       d="m 172.11463,62.840312 h -47.2 c -3.13,0.03 -5.67,2.57 -5.7,5.7 v 9.4 l -20.999995,-14.7 c -1.88,-0.94 -4.16,-0.18 -5.1,1.7 -0.26,0.53 -0.4,1.11 -0.4,1.7 v 37.700008 c 0.03,2.12 1.78,3.81 3.9,3.78 0.55,-0.01 1.1,-0.14 1.6,-0.38 L 119.21463,93.040312 v 9.400008 c 0,3.15 2.55,5.7 5.7,5.7 h 47.2 c 3.13,-0.03 5.67,-2.57 5.7,-5.7 V 68.440312 c -0.04,-3.11 -2.59,-5.61 -5.7,-5.6 z"
       id="path22104" />
    <circle
       style="fill:#fafafa"
       cx="131.81464"
       cy="43.040314"
       r="20.5"
       id="circle22106" />
    <circle
       style="fill:#fafafa"
       cx="166.91464"
       cy="49.240314"
       r="14.4"
       id="circle22108" />
  </g>
</svg>
