<?xml version="1.0" encoding="UTF-8" standalone="no"?>
<svg
   width="128"
   height="128"
   version="1.1"
   id="svg11043"
   sodipodi:docname="emoji_u1f951.svg"
   inkscape:version="1.2.2 (732a01da63, 2022-12-09)"
   xmlns:inkscape="http://www.inkscape.org/namespaces/inkscape"
   xmlns:sodipodi="http://sodipodi.sourceforge.net/DTD/sodipodi-0.dtd"
   xmlns="http://www.w3.org/2000/svg"
   xmlns:svg="http://www.w3.org/2000/svg">
  <defs
     id="defs11047" />
  <sodipodi:namedview
     id="namedview11045"
     pagecolor="#ffffff"
     bordercolor="#000000"
     borderopacity="0.25"
     inkscape:showpageshadow="2"
     inkscape:pageopacity="0.0"
     inkscape:pagecheckerboard="0"
     inkscape:deskcolor="#d1d1d1"
     showgrid="false"
     inkscape:zoom="1.4998398"
     inkscape:cx="-10.334437"
     inkscape:cy="92.676566"
     inkscape:window-width="1366"
     inkscape:window-height="697"
     inkscape:window-x="-8"
     inkscape:window-y="-8"
     inkscape:window-maximized="1"
     inkscape:current-layer="svg11043" />
  <path
     d="M42.6 30.62l-.54.57a82.132 82.132 0 0 0-5.05 5.3c-.13.14-.3.34-.46.52-4.1 4.38-8.12 8.82-12.07 13.32C18.99 56.4 9.67 62.79 7.17 65.96c-2.56 3.25-4.3 6.6-5.34 9.92-.19.6-.36 1.2-.5 1.79-.06.22-.12.45-.17.67-.85 3.78-.64 7.45.5 10.81.11.33.2.66.33.98.12.32.28.63.42.94 1.44 3.24 3.78 6.07 6.97 8.27.19.13.39.25.59.38.51.34 1.04.66 1.58.98 3.02 1.73 6.57 3.01 10.66 3.65 3.98.63 16.11 1.39 24.26 2.11 5.96.63 40.93-1.72 47.41-4.26 12.56-4.93 22.95-11.68 27.86-23.84.94-2.32 1.67-4.6 2.26-6.86.19-.74.35-1.48.51-2.21 1.83-8.68 1.05-16.94-2.38-24.81-2.83-8.1-7.85-14.69-15.09-19.83-.61-.43-1.23-.87-1.88-1.28a54.21 54.21 0 0 0-6.31-3.5c-11.86-5.59-26.15-5.68-38.72-.78-6.5 2.54-12.54 6.38-17.53 11.53z"
     fill="#46681e"
     id="path11033"
     style="fill:#6d722a;fill-opacity:1" />
  <path
     d="m 113.44064,43.731951 c -0.18,-0.179999 -0.37,-0.349998 -0.55,-0.520001 -1.63579,-1.719447 -3.3545,-3.358062 -5.15,-4.909999 -0.14,-0.119999 -0.34,-0.289999 -0.51,-0.44 -4.25,-3.979998 -8.570006,-7.889998 -12.959997,-11.73 C 88.370638,20.791952 80.200638,10.281952 77.110639,7.8519518 73.940638,5.361952 70.640638,3.671952 67.360638,2.6519519 c -0.6,-0.19 -1.189999,-0.35 -1.79,-0.49 -0.22,-0.06 -0.449999,-0.1200001 -0.67,-0.17 -3.759999,-0.8300001 -7.43,-0.6399999 -10.82,0.45 -0.33,0.1100006 -0.66,0.1899998 -0.99,0.3199997 -0.319999,0.1199999 -0.64,0.2700003 -0.95,0.3999999 -3.28,1.39 -6.18,3.6500001 -8.47,6.7400001 -0.14,0.1800004 -0.26,0.3800004 -0.4,0.5700004 -0.36,0.49 -0.69,1 -1.02,1.53 -1.81,2.92 -3.2,6.36 -3.97,10.32 -0.75,3.859999 0.19,17.06 -0.77,24.96 -0.81,5.769999 -1.509999,11.56 -2.12,17.349999 -0.03,0.230002 -0.06,0.480001 -0.09,0.67 -0.342588,2.347426 -0.569529,4.71028 -0.680001,7.080001 -0.02,0.249999 -0.05,0.5 -0.08,0.759999 -0.609999,6.940001 0.46,13.77 2.81,20.060001 4.550001,12.189998 14.01,22.319998 26.02,27.109998 2.290001,0.91 4.550001,1.63 6.79,2.21 0.74,0.19 1.470001,0.35 2.199999,0.5 8.630002,1.8 16.900002,1.05 24.870002,-2.25 8.180001,-2.72 14.920001,-7.57 20.270001,-14.58 0.45,-0.58999 0.9,-1.19 1.33,-1.82 1.36248,-1.95366 2.59514,-3.99471 3.68999,-6.110001 5.94,-11.479996 6.46001,-25.329998 1.92001,-37.519997 -2.34001,-6.299999 -6,-12.160001 -11,-17.010001 z"
     fill="#afb42b"
     id="path11035"
     style="fill:#bdcf46"
     sodipodi:nodetypes="ccccccccccccccccccccccccccccccc" />
  <path
     d="m 105.5052,48.518992 c -1.39892,-1.496026 -2.87052,-2.926503 -4.34981,-4.243613 l -0.67006,-0.610695 A 475.6865,459.14037 70.812449 0 0 88.496264,32.549867 C 85.899298,30.145601 76.103966,18.075882 72.82346,15.429462 c -2.221011,-1.786628 -4.582847,-3.10182 -7.020517,-3.897757 -0.397,-0.126277 -0.794001,-0.252552 -1.319724,-0.379926 l -0.424458,-0.117056 c -2.314746,-0.539666 -4.557082,-0.473735 -6.662521,0.20779 l -0.411993,0.128825 -0.448269,0.166324 -0.392976,0.176246 c -2.038437,0.880606 -3.77548,2.302594 -5.237456,4.360264 l -0.225338,0.338373 c -0.234404,0.347753 -0.459489,0.705034 -0.684448,1.07177 -1.312852,2.210187 -2.225936,4.754634 -2.721746,7.567322 -0.649617,3.690478 0.318299,17.017665 -0.343339,23.260285 -0.647382,5.240748 -1.218567,10.680654 -1.706372,16.168538 l -0.09864,0.878261 c -0.249681,1.96404 -0.415477,4.013872 -0.504574,6.300677 l -0.06363,0.746223 c -0.387797,5.403662 0.429142,10.836514 2.430668,16.166049 3.755317,10.004714 11.48649,18.25679 20.675663,22.07854 1.775037,0.74303 3.575894,1.35393 5.504344,1.88084 0.590461,0.15629 1.171477,0.29358 1.743175,0.42135 6.334634,1.40583 12.23187,1.03081 18.022337,-1.15061 0.384156,-0.14797 1.353371,-0.54615 1.353371,-0.54615 l 1.381713,-0.4892 c 5.790467,-2.18141 10.467927,-5.79023 14.305567,-11.022647 0.35217,-0.479083 0.70421,-0.967625 1.03762,-1.475223 1.11775,-1.673053 2.07023,-3.328594 2.91151,-5.051273 4.40424,-8.942506 4.79619,-20.254101 1.05915,-30.268112 -1.99234,-5.329454 -4.94986,-9.958195 -8.98391,-13.962794 z"
     fill="#fff69f"
     id="path11037"
     style="stroke-width:0.999996" />
  <path
     d="m 100.60064,71.691952 c 3.84,10.3 -1.400001,21.77 -11.700001,25.6 -10.3,3.829998 -21.770001,-1.4 -25.600001,-11.7 -3.829999,-10.300001 2.500001,-29.97 9.44,-32.08 7.140001,-2.16 24.02,7.88 27.860002,18.18 z"
     fill="#855c52"
     id="path11039" />
  <path
     d="m 81.567216,64.055107 c -0.64,2.24 3.56,6.49 4.23,13.04 0.51,4.95 3.05,7.19 6.08,6.57 3.080001,-0.62 4.26,-6.73 0.83,-12.46 -3.33,-5.58 -10.08,-10.86 -11.14,-7.15 z"
     fill="#d7ccc8"
     id="path11041"
     style="fill:#bca9a4" />
</svg>
