<?xml version="1.0" encoding="UTF-8" standalone="no"?>
<svg
   width="128"
   height="128"
   version="1.1"
   id="svg35364"
   sodipodi:docname="emoji_u1f964.svg"
   inkscape:version="1.2.2 (732a01da63, 2022-12-09)"
   xmlns:inkscape="http://www.inkscape.org/namespaces/inkscape"
   xmlns:sodipodi="http://sodipodi.sourceforge.net/DTD/sodipodi-0.dtd"
   xmlns="http://www.w3.org/2000/svg"
   xmlns:svg="http://www.w3.org/2000/svg">
  <defs
     id="defs35368" />
  <sodipodi:namedview
     id="namedview35366"
     pagecolor="#ffffff"
     bordercolor="#000000"
     borderopacity="0.25"
     inkscape:showpageshadow="2"
     inkscape:pageopacity="0.0"
     inkscape:pagecheckerboard="0"
     inkscape:deskcolor="#d1d1d1"
     showgrid="false"
     inkscape:zoom="2.9996795"
     inkscape:cx="40.004273"
     inkscape:cy="70.340847"
     inkscape:window-width="1366"
     inkscape:window-height="697"
     inkscape:window-x="-8"
     inkscape:window-y="-8"
     inkscape:window-maximized="1"
     inkscape:current-layer="svg35364" />
  <radialGradient
     id="a"
     cx="60.487"
     cy="72.137"
     gradientTransform="matrix(0 -1 .6873 0 10.909 132.624)"
     gradientUnits="userSpaceOnUse"
     r="51.908">
    <stop
       offset=".367"
       stop-color="#64b5f6"
       id="stop35317" />
  </radialGradient>
  <path
     d="M101.3 36.49H36.43l7.63 79.7a4.302 4.302 0 0 0 2.28 3.31c3.87 2.02 12.5 4.5 22.52 4.5s18.65-2.48 22.52-4.5c1.26-.66 2.11-1.9 2.28-3.31l7.64-79.7z"
     fill="url(#a)"
     id="path35320" />
  <ellipse
     cx="68.87"
     cy="36.49"
     rx="32.38"
     ry="8.14"
     fill="#90caf9"
     id="ellipse35322" />
  <linearGradient
     id="b"
     gradientUnits="userSpaceOnUse"
     x1="54.282"
     x2="85.993"
     y1="28.618"
     y2="45.735">
    <stop
       offset=".235"
       stop-color="#1976d2"
       id="stop35324" />
  </linearGradient>
  <ellipse
     cx="68.87"
     cy="36.49"
     rx="27.49"
     ry="6.44"
     fill="url(#b)"
     id="ellipse35327" />
  <linearGradient
     id="c"
     gradientUnits="userSpaceOnUse"
     x1="36.587"
     x2="68.84"
     y1=".968"
     y2="59.158">
    <stop
       offset=".2"
       stop-color="#f06292"
       id="stop35331" />
  </linearGradient>
  <path
     d="M 61.42,30.29 60.66,21.43 C 60.65,21.33 60.64,21.22 60.62,21.12 59.450001,14.791542 54.652916,9.7512691 48.39,8.27 L 30.69,4.09 C 28.086469,3.4751547 27.2,4.76 26.79,6.5 26.38,8.24 26.651356,9.7981169 29.2,10.4 l 17.7,4.18 c 3.71,0.88 6.57,3.84 7.32,7.57 l 0.75,8.78 0.96,11.24 c 2.05,0.26 4.25,0.45 6.56,0.58 z"
     fill="url(#c)"
     id="path35334"
     sodipodi:nodetypes="ccccssscccccc" />
  <path
     d="M49.58 13.86c-.61.96-.36 2.22.56 2.9.57.42 1.22 1 1.87 1.8.7.86 1.09 1.75 1.31 2.53.33 1.15 1.52 1.83 2.67 1.5l3.73-1.06c1.06-.3 1.73-1.34 1.55-2.42-.26-1.49-.89-3.61-2.41-5.57-1.41-1.81-3.09-2.97-4.35-3.66-1-.55-2.26-.23-2.87.74l-2.06 3.24z"
     fill="#e91e63"
     id="path35338" />
</svg>
