<?xml version="1.0" encoding="UTF-8" standalone="no"?>
<svg
   width="128"
   height="128"
   style="enable-background:new 0 0 128 128;"
   version="1.1"
   id="svg19224"
   sodipodi:docname="emoji_u1f4d9.svg"
   inkscape:version="1.2.2 (732a01da63, 2022-12-09)"
   xmlns:inkscape="http://www.inkscape.org/namespaces/inkscape"
   xmlns:sodipodi="http://sodipodi.sourceforge.net/DTD/sodipodi-0.dtd"
   xmlns:xlink="http://www.w3.org/1999/xlink"
   xmlns="http://www.w3.org/2000/svg"
   xmlns:svg="http://www.w3.org/2000/svg">
  <defs
     id="defs19228" />
  <sodipodi:namedview
     id="namedview19226"
     pagecolor="#ffffff"
     bordercolor="#000000"
     borderopacity="0.25"
     inkscape:showpageshadow="2"
     inkscape:pageopacity="0.0"
     inkscape:pagecheckerboard="0"
     inkscape:deskcolor="#d1d1d1"
     showgrid="false"
     inkscape:zoom="2.1210938"
     inkscape:cx="17.208103"
     inkscape:cy="93.819521"
     inkscape:window-width="1366"
     inkscape:window-height="697"
     inkscape:window-x="-8"
     inkscape:window-y="-8"
     inkscape:window-maximized="1"
     inkscape:current-layer="svg19224" />
  <g
     id="g19222">
    <g
       id="g19218">
      <path
         d="M107.83,22.03c0,0,0.49,14.81,1.28,20.85c0.79,6.04,2.85,9.72,2.85,9.72 c0.41,3.71-1.09,7.34-1.09,7.34s-22.41,54.29-26.51,60.6c-1.09,1.67-2.83,3.27-4.79,3.52c-3.67,0.46-12.17-1.84-16.83-3.13 c-16.78-4.63-38.27-11.5-44.94-13.82c-3.38-1.17-6.84-4.13-8.13-5.94c-5.86-8.17-3.07-18.53-3.07-18.53L107.83,22.03z"
         style="fill:#FFFFFF;"
         id="path19198" />
      <g
         id="g19216">
        <g
           id="g19204">
          <path
             d="M78.53,127.59c-4.1,0-10.41-1.57-16.71-3.31c-16.56-4.57-38.19-11.47-45.15-13.88 c-4.02-1.39-8.06-4.75-9.81-7.19c-6.74-9.39-3.73-20.97-3.59-21.45c0.5-1.85,2.4-2.95,4.25-2.45c1.85,0.5,2.95,2.4,2.45,4.25 c-0.05,0.17-2.23,8.97,2.53,15.61c0.97,1.36,3.9,3.8,6.45,4.68c6.88,2.39,28.31,9.22,44.72,13.75 c3.07,0.84,12.36,3.41,15.48,3.03c0.55-0.07,1.53-0.77,2.32-1.97c2.88-4.43,17.25-38.32,26.2-60.03c0.01-0.02,1-2.51,0.89-5.06 c-0.71-1.49-2.22-5.13-2.88-10.22c-0.81-6.14-1.29-20.58-1.3-21.19c-0.06-1.92,1.44-3.52,3.35-3.58 c1.94-0.13,3.52,1.44,3.58,3.35c0.01,0.15,0.5,14.71,1.25,20.52c0.68,5.21,2.43,8.46,2.44,8.49c0.22,0.4,0.37,0.85,0.42,1.3 c0.5,4.46-1.14,8.59-1.33,9.05c-2.3,5.59-22.65,54.78-26.81,61.17c-1.87,2.88-4.52,4.72-7.26,5.07 C79.56,127.56,79.06,127.59,78.53,127.59z"
             style="fill:#2F2F2F;"
             id="path19200" />
          <path
             d="M79.58,126.38c-0.75,0-1.47-0.36-1.93-1.02c-7.63-11.29-3.91-28.39-3.75-29.11 c0.28-1.25,1.53-2.03,2.77-1.75c1.25,0.28,2.03,1.51,1.75,2.76c-0.04,0.16-3.44,15.88,3.07,25.51c0.71,1.06,0.43,2.5-0.62,3.21 C80.47,126.25,80.02,126.38,79.58,126.38z"
             style="fill:#2F2F2F;"
             id="path19202" />
        </g>
        <g
           id="g19214">
          <defs
             id="defs19207">
            <path
               id="SVGID_1_"
               d="M101.95,58.65l-4.33,9.81c0,0,12.41,3.09,24.21,8.4l3.69-10.42C125.53,66.44,118.93,61.7,101.95,58.65z " />
          </defs>
          <clipPath
             id="SVGID_2_">
            <use
               style="overflow:visible;"
               xlink:href="#SVGID_1_"
               id="use19211" />
          </clipPath>
        </g>
      </g>
    </g>
    <path
       d="M102.81,12.87C97.1,10.77,77.33,4.16,61.89,1.5l-0.82-0.14c-2.39-0.42-5.37-0.95-8.64-0.95 c-2.38,0-4.52,0.27-6.53,0.84c-2.41,0.67-5.67,2.04-7.49,4.76C27.06,22.88,4.35,78.97,3.39,81.35c-0.32,0.78-0.32,1.63-0.07,2.38 c0.04,0.04,0.04,0.08,0.08,0.12c1.7,1.53,4.14,0.47,6.02-0.01c0.58-0.15,1.19-0.25,1.8-0.31c0.36-0.09,0.75-0.15,1.21-0.15 c1.31,0,2.91,0.36,4.59,0.73c0.64,0.14,1.29,0.29,1.94,0.42c1.2,0.24,6.89,2.18,11.9,3.89c3.53,1.2,7.22,2.46,10.26,3.45l1.36,0.44 c9.62,3.13,17.92,5.83,20.23,6.47c5.04,1.4,8.37,2.02,10.79,2.02c0.86,0,1.61-0.08,2.29-0.24c4.16-1,6.43-4.51,7.78-7.06 c0.26-0.49,2.84-6.65,17.58-42.2c4.18-10.06,7.52-18.13,7.79-18.75c0.66-1.52,1.46-3.62,1.97-5.82c0.78-3.34,1.26-5.62,0.25-8.01 C109.92,15.84,106.82,14.36,102.81,12.87z"
       style="fill:#f79329"
       id="path19220" />
  </g>
  <g
     id="g25600"
     transform="rotate(18.117445,34.841669,61.422398)">
    <text
       xml:space="preserve"
       style="font-weight:bold;font-size:11.1435px;font-family:'Comic Neue';-inkscape-font-specification:'Comic Neue Bold';fill:#2f2f2f;stroke-width:35.9055;stroke-linecap:round"
       x="24.83284"
       y="64.704842"
       id="text25582"><tspan
         sodipodi:role="line"
         x="24.83284"
         y="64.704842"
         id="tspan25584"
         style="stroke-width:35.9055">Blob Emoji:</tspan></text>
    <text
       xml:space="preserve"
       style="font-weight:bold;font-size:11.1435px;font-family:'Comic Neue';-inkscape-font-specification:'Comic Neue Bold';fill:#2f2f2f;stroke-width:35.9055;stroke-linecap:round"
       x="29.075933"
       y="75.430443"
       id="text25594"><tspan
         sodipodi:role="line"
         x="29.075933"
         y="75.430443"
         id="tspan25592"
         style="stroke-width:35.9055">The Book</tspan></text>
  </g>
  <path
     d="M 69.652507,14.583927 C 45.84931,6.0665891 35.734562,32.551675 33.844098,37.834907 c -1.890464,5.283234 7.488851,13.465724 20.94715,18.281416 13.46212,4.81706 25.900903,4.437285 27.79,-0.842129 1.890464,-5.283232 10.878276,-32.171561 -12.928741,-40.690267 z"
     style="clip-rule:evenodd;fill:#fcc21b;fill-rule:nonzero;stroke-width:1;stroke-linejoin:round;stroke-miterlimit:2"
     id="path23016" />
  <g
     id="g23020"
     style="clip-rule:evenodd;fill-rule:evenodd;stroke-width:2.46468;stroke-linejoin:round;stroke-miterlimit:2"
     transform="matrix(0.38201246,0.13669295,-0.13669295,0.38201246,46.56345,2.1680154)">
        <path
   d="m 42,58.3 c -4.49,0.04 -8.17,-4.27 -8.22,-9.62 -0.05,-5.37 3.55,-9.75 8.04,-9.79 4.48,-0.04 8.17,4.27 8.22,9.64 0.05,5.35 -3.55,9.72 -8.04,9.77 z m 44.11,0 c 4.48,-0.01 8.11,-4.36 8.1,-9.71 -0.01,-5.37 -3.66,-9.7 -8.14,-9.69 -4.49,0.01 -8.13,4.36 -8.12,9.73 0.02,5.35 3.67,9.68 8.16,9.67 z"
   style="fill:#2f2f2f;fill-rule:nonzero;stroke-width:2.46468"
   id="path23018" />

    </g>
  <path
     d="m 73.914344,41.899736 c -0.894731,-1.220786 -2.569396,-1.225345 -3.98057,-1.42434 -3.930331,-0.553134 -7.157812,-1.673527 -8.701143,-2.225767 -1.54333,-0.55224 -4.748941,-1.733751 -8.137966,-3.799659 -1.217071,-0.741453 -2.514464,-1.800365 -3.98057,-1.42434 -1.859725,0.476497 -2.054293,4.500657 -0.574845,7.796573 0.894538,1.992073 3.257511,6.082461 8.876914,8.093213 5.619404,2.010754 10.040972,0.348034 11.996247,-0.624311 3.234585,-1.609123 5.633366,-4.844566 4.501933,-6.391369 z"
     style="clip-rule:evenodd;fill:#e65619;fill-opacity:1;fill-rule:nonzero;stroke-width:1;stroke-linejoin:round;stroke-miterlimit:2"
     id="path23022" />
  <path
     id="path23026"
     style="clip-rule:evenodd;fill:#fafafa;fill-rule:nonzero;stroke-width:1;stroke-linejoin:round;stroke-miterlimit:2"
     d="m 50.696596,33.115613 c -0.506997,-0.170158 -1.032375,-0.23077 -1.582162,-0.08976 -0.60582,0.155222 -1.032157,0.690654 -1.284264,1.451004 3.365819,2.370267 7.752734,4.584095 12.50214,6.28647 4.747727,1.698372 9.541461,2.772331 13.649135,3.07864 0.290004,-0.750236 0.302854,-1.436668 -0.06679,-1.942018 -0.89473,-1.220787 -2.569367,-1.225335 -3.980541,-1.42433 -3.930327,-0.553134 -7.158275,-1.673458 -8.701604,-2.225698 -1.543329,-0.552238 -4.748509,-1.733841 -8.137535,-3.799738 -0.760667,-0.463408 -1.553375,-1.050976 -2.398376,-1.334569 z" />
</svg>
