<?xml version="1.0" encoding="UTF-8" standalone="no"?>
<svg
   width="128"
   height="128"
   style="enable-background:new 0 0 128 128;"
   version="1.1"
   id="svg24770"
   sodipodi:docname="emoji_u1f4d4.svg"
   inkscape:version="1.2.2 (732a01da63, 2022-12-09)"
   xmlns:inkscape="http://www.inkscape.org/namespaces/inkscape"
   xmlns:sodipodi="http://sodipodi.sourceforge.net/DTD/sodipodi-0.dtd"
   xmlns:xlink="http://www.w3.org/1999/xlink"
   xmlns="http://www.w3.org/2000/svg"
   xmlns:svg="http://www.w3.org/2000/svg">
  <defs
     id="defs24774" />
  <sodipodi:namedview
     id="namedview24772"
     pagecolor="#ffffff"
     bordercolor="#000000"
     borderopacity="0.25"
     inkscape:showpageshadow="2"
     inkscape:pageopacity="0.0"
     inkscape:pagecheckerboard="0"
     inkscape:deskcolor="#d1d1d1"
     showgrid="false"
     inkscape:zoom="2.9996795"
     inkscape:cx="60.839832"
     inkscape:cy="68.007264"
     inkscape:window-width="1366"
     inkscape:window-height="697"
     inkscape:window-x="-8"
     inkscape:window-y="-8"
     inkscape:window-maximized="1"
     inkscape:current-layer="svg24770" />
  <g
     id="g24768">
    <g
       id="g24744">
      <polygon
         points="113.31,39.94 73.16,111.29 23.17,78.39 15.05,77.11 12.49,81.38 16.33,87.79 72.3,122.82 77.42,122.39 118.39,51.77 "
         style="fill:#FFFFFF;"
         id="polygon24742" />
      <path
         d="M118.25,49.33c-2.29-3.48-1.93-7.63-2.08-11.66c0.64-1.9,0.8-3.82-0.22-5.58 c-2.07-3.53-46.36-27.8-52.03-29.03c-2-0.43-6.13-1.91-8.93,1.34C42.09,19.36,10.56,66.96,9.43,74.1c-0.63,4,0.31,9.86,4.86,13.14 c0.21,0.15,19.15,13.22,29.1,20.08c6.05,4.17,12.19,8.27,18.38,12.24c3.02,1.93,11.68,8.73,15.45,4.95 c9.15-9.14,38.26-64.93,40.2-69.78c0.34-0.85,0.63-1.7,0.88-2.54c0.04-0.14,0.06-0.28,0.08-0.41 C118.78,51.08,118.83,50.21,118.25,49.33z"
         style="fill:#FFFFFF;"
         id="path24736" />
      <path
         d="M72.23,106.95c-0.28,0.09-0.57,0.14-0.9,0.16c-1.03,0.05-2.06-1.13-2.89-1.71 c-2.01-1.43-3.94-2.98-5.98-4.38c-11.4-7.88-36.64-23.72-37.56-24.26c-1.97-1.17-3.99-2.35-6.17-2.64 c-0.91-0.12-2.98,0.12-3.13-1.21c-0.13-1.31,1.4-3.03,1.95-4.14c1.05-2.07,2.19-4.08,3.37-6.08c3.7-6.24,7.73-12.29,11.81-18.3 c4.23-6.24,8.56-12.41,12.88-18.58c2.98-4.24,6.03-8.45,8.86-12.79c3.15-5.61,7.47-5.91,9.5-5.36c8.41,2.3,43.04,24.54,44.8,25.35 c1.3,0.6,2.5,1.53,2.04,3.12c-0.79,2.73-27.74,54.11-30.5,59.13c-1.38,2.51-2.82,4.98-4.32,7.41 C74.99,104.28,74.09,106.36,72.23,106.95z"
         style="fill:#ED6C30;"
         id="path24738" />
      <path
         d="M119.68,48.95c-2.34-3.58-1.97-7.84-2.13-11.97c0.66-1.95,0.24-3.45-0.82-5.26 C114.61,28.1,70.11,3.4,64.29,2.14C62.24,1.7,58,0.19,55.13,3.51C41.89,18.86,9.6,67.35,8.44,74.67 c-0.65,4.1-0.14,9.81,4.55,13.18c0.22,0.15,19.66,13.57,29.87,20.61c6.22,4.29,12.52,8.49,18.87,12.57 c3.09,1.98,11.98,8.96,15.86,5.09c9.39-9.38,39.28-66.65,41.26-71.62c0.35-0.87,0.65-1.75,0.91-2.61 c0.04-0.15,0.06-0.28,0.08-0.42C120.23,50.74,120.28,49.85,119.68,48.95z M19.78,86.56c-3.99-2.33-4.76-4.67-4.35-6.03 c0.69-2.38,3.7-2.51,5.73-1.58c3.16,1.45,6.84,4.22,7.72,4.82c5.82,3.97,41.11,28.05,41.11,28.05s0.7,6.86,0.53,8.11 C70.12,119.75,22.35,88.06,19.78,86.56z M76.06,119.89c-0.54-0.74-0.54-2.16-0.58-2.95c-0.02-0.53,0.02-1.06,0.03-1.59 c0.01-0.43,0.45-5.99-0.06-5.43c0.03-0.04,34.57-62.06,37.78-68.71c0.26,1.43-0.36,7,1.16,9.24 C112.56,56.82,82.63,110.12,76.06,119.89z"
         style="fill:#2F2F2F;"
         id="path24740" />
    </g>
    <g
       id="g24766">
      <defs
         id="defs24747">
        <path
           id="SVGID_1_"
           d="M8.03,78.69c0.1,0.35,0.27,0.65,0.54,0.83c0.41,0.26,1.06,0.14,1.42-0.16c0.4-0.33,0.77-0.73,1.27-0.93 c0.56-0.23,1.26-0.26,1.85-0.27c1.33-0.02,2.67,0.38,3.92,0.79c2.64,0.88,5,1.97,7.3,3.54c2.1,1.3,3.96,2.67,4.55,3.07 c1.06,0.72,3.11,2.12,5.75,3.92l31.8,21.6c8.48,5.35,11.42-1.66,11.42-1.66l35.13-63.19l4.58-9.25c0.66-1.95,0.82-3.92-0.23-5.72 c-2.12-3.62-47.59-28.54-53.4-29.8c-2.05-0.44-6.29-1.95-9.16,1.37c-1.46,1.69-2.86,3.43-4.23,5.2c-1.7,2.18-3.37,4.39-5.01,6.62 c-1.87,2.54-3.71,5.09-5.52,7.66c-1.95,2.76-3.88,5.53-5.78,8.31c-1.95,2.85-3.87,5.71-5.78,8.59c-1.87,2.81-3.71,5.64-5.53,8.48 c-1.7,2.65-3.38,5.31-5.02,7.99c-1.45,2.35-2.88,4.72-4.26,7.12c-1.11,1.93-2.2,3.88-3.23,5.85c-0.42,0.82-0.83,1.63-1.21,2.47 c-0.82,1.79-1.32,3.73-1.29,5.72C7.87,77.31,7.85,78.07,8.03,78.69z" />
      </defs>
      <use
         style="overflow:visible;fill:#ED6C30;"
         xlink:href="#SVGID_1_"
         id="use24749" />
      <clipPath
         id="SVGID_2_">
        <use
           style="overflow:visible;"
           xlink:href="#SVGID_1_"
           id="use24751" />
      </clipPath>
      <g
         style="clip-path:url(#SVGID_2_);"
         clip-path="url(#SVGID_2_)"
         id="g24764">
        <g
           id="g24762">
          <defs
             id="defs24755">
            <polygon
               id="SVGID_3_"
               points="70.37,2.12 19.3,81.14 39.49,96.09 90.57,11.77 " />
          </defs>
          <use
             style="overflow:visible;fill:#BDCF46;"
             xlink:href="#SVGID_3_"
             id="use24757" />
          <clipPath
             id="SVGID_4_">
            <use
               style="overflow:visible;"
               xlink:href="#SVGID_3_"
               id="use24759" />
          </clipPath>
        </g>
      </g>
    </g>
  </g>
  <g
     stroke-width="1.415"
     id="g20065"
     transform="rotate(47.324027,87.978521,110.30684)">
    <path
       class="st0"
       d="m 37.233,44.852 c -8.12,2.937 -5.016,12.097 -4.363,13.901 0.652,1.805 4.904,1.918 9.486,0.26 4.582,-1.657 7.777,-4.465 7.124,-6.269 -0.652,-1.804 -4.128,-10.83 -12.247,-7.892 z"
       fill="#fcbf07"
       id="path20055"
       style="fill:#fcc21b" />
    <path
       d="m 37.635,54.066 c 0,0 2.48,-2.144 5.354,-0.69"
       class="st1"
       fill="none"
       stroke="#2f2f2f"
       stroke-linecap="round"
       stroke-linejoin="round"
       stroke-miterlimit="10"
       stroke-width="1.00022"
       id="path20057" />
    <path
       class="st2"
       d="m 36.533,51.064 c -0.541,0.115 -1.082,-0.305 -1.233,-0.946 -0.151,-0.642 0.175,-1.262 0.716,-1.377 0.542,-0.115 1.082,0.305 1.233,0.946 0.137,0.647 -0.175,1.262 -0.716,1.377 z m 5.879,-2.548 a 1.183,1.183 0 0 0 -0.111,-0.219 c -0.03,-0.038 -0.074,-0.07 -0.122,-0.069 -0.319,-0.03 -1.09,-0.059 -1.518,-0.034 -0.063,0.007 -0.115,0.042 -0.128,0.095 -0.109,0.282 -0.114,0.624 0.02,0.949 0.236,0.61 0.861,0.95 1.372,0.75 0.501,-0.181 0.73,-0.847 0.487,-1.472 z"
       fill="#2f2f2f"
       id="path20059" />
    <path
       class="st3"
       d="m 39.213,62.32 c -1.074,0.39 -1.913,0.353 -2.739,-0.093 -1.016,-0.572 -1.294,-1.654 -1.545,-2.615 -0.143,-0.531 -0.11,-0.884 -0.093,-1.197 a 2.465,2.465 0 0 0 -0.13,-1.12 4.192,4.192 0 0 0 -0.233,-0.466 c -0.272,-0.484 -0.6,-1.03 -0.325,-1.437 0.092,-0.146 0.248,-0.252 0.449,-0.324 0.358,-0.13 0.792,-0.092 1.077,0.112 0.451,0.307 0.696,0.671 1.012,1.545 0.13,0.358 0.277,0.45 0.476,0.508 0.053,0.013 0.12,0.021 0.321,-0.051 0.186,-0.068 0.405,-0.18 0.738,-0.332 0.11,-0.056 0.219,-0.112 0.348,-0.158 0.347,-0.158 1.38,-0.662 2.031,-1.01 l 0.499,-0.278 c 0.39,-0.222 0.779,-0.444 1.094,-0.558 0.157,-0.057 0.291,-0.089 0.407,-0.082 0.323,-0.004 0.602,0.187 0.735,0.51 a 0.97,0.97 0 0 1 -0.156,1.045 c -0.244,0.267 -1.44,0.99 -2.167,1.351 0.024,0.024 0.044,0.033 0.054,0.061 0.204,0.25 0.301,0.653 0.237,0.967 -0.008,0.068 -0.035,0.127 -0.054,0.166 0.242,0.22 0.276,0.628 0.254,0.88 -0.008,0.067 -0.02,0.169 -0.08,0.271 a 0.77,0.77 0 0 1 0.185,0.468 c 0.062,0.528 -0.642,1.09 -2.043,1.694 -0.123,0.061 -0.238,0.102 -0.352,0.144 z"
       fill="#fac139"
       id="path20061"
       style="fill:#fcc21b" />
    <path
       class="st2"
       d="m 34.686,55.36 c 0.258,-0.094 0.586,-0.083 0.807,0.08 0.392,0.28 0.597,0.578 0.912,1.403 0.16,0.444 0.382,0.607 0.687,0.69 0.14,0.03 0.294,0.008 0.495,-0.065 0.257,-0.093 0.6,-0.266 1.095,-0.51 0.385,-0.187 1.408,-0.671 2.045,-1.015 0.504,-0.263 1.134,-0.67 1.564,-0.825 a 0.855,0.855 0 0 1 0.302,-0.06 c 0.487,0.002 0.678,0.71 0.359,1.036 -0.226,0.227 -1.52,1.036 -2.244,1.362 -0.515,0.235 -0.614,0.32 -0.603,0.348 0.002,0.096 0.25,-0.026 0.476,-0.027 0.303,-0.012 0.49,0.503 0.416,0.838 -0.047,0.227 -0.197,0.217 -0.155,0.331 0.015,0.043 0.108,0.074 0.152,0.107 0.152,0.107 0.218,0.423 0.185,0.646 -0.017,0.087 -0.02,0.169 -0.095,0.228 -0.076,0.06 -0.07,0.123 -0.01,0.198 0.094,0.08 0.187,0.16 0.208,0.395 0.033,0.36 -0.715,0.89 -1.863,1.386 -0.115,0.042 -0.224,0.097 -0.324,0.134 -0.974,0.352 -1.74,0.338 -2.488,-0.072 -0.87,-0.479 -1.128,-1.373 -1.396,-2.426 -0.262,-1.039 0.137,-1.28 -0.247,-2.34 -0.16,-0.444 -0.846,-1.264 -0.605,-1.627 a 0.826,0.826 0 0 1 0.327,-0.215 m -0.207,-0.573 a 1.242,1.242 0 0 0 -0.6,0.444 c -0.367,0.553 0.007,1.228 0.309,1.75 0.086,0.147 0.182,0.323 0.213,0.409 0.16,0.444 0.147,0.675 0.116,0.994 -0.016,0.314 -0.049,0.714 0.11,1.288 0.272,1.02 0.556,2.163 1.695,2.804 0.894,0.502 1.844,0.531 2.99,0.117 0.114,-0.042 0.243,-0.088 0.366,-0.15 2.092,-0.886 2.268,-1.564 2.223,-2.002 a 1.476,1.476 0 0 0 -0.142,-0.482 c 0.017,-0.088 0.039,-0.16 0.038,-0.209 0.028,-0.236 0.002,-0.664 -0.208,-0.977 0.01,-0.02 0.004,-0.034 0.013,-0.053 a 1.533,1.533 0 0 0 -0.145,-0.984 c 0.717,-0.39 1.685,-0.982 1.943,-1.254 0.328,-0.345 0.42,-0.897 0.215,-1.373 -0.189,-0.434 -0.576,-0.698 -1.014,-0.702 a 1.586,1.586 0 0 0 -0.499,0.1 c -0.344,0.124 -0.747,0.35 -1.151,0.578 -0.176,0.096 -0.352,0.192 -0.499,0.278 -0.65,0.348 -1.674,0.832 -2.017,1.004 -0.123,0.061 -0.233,0.117 -0.347,0.159 -0.305,0.142 -0.538,0.259 -0.71,0.321 -0.1,0.036 -0.134,0.032 -0.148,0.038 -0.093,-0.032 -0.165,-0.054 -0.259,-0.312 -0.314,-0.825 -0.562,-1.286 -1.126,-1.681 a 1.746,1.746 0 0 0 -1.366,-0.105 z"
       fill="#2f2f2f"
       id="path20063" />
  </g>
  <g
     stroke-width="1.415"
     id="g25686"
     transform="rotate(47.324027,61.908863,106.76064)">
    <path
       class="st0"
       d="m 37.233,44.852 c -8.12,2.937 -5.016,12.097 -4.363,13.901 0.652,1.805 4.904,1.918 9.486,0.26 4.582,-1.657 7.777,-4.465 7.124,-6.269 -0.652,-1.804 -4.128,-10.83 -12.247,-7.892 z"
       fill="#fcbf07"
       id="path25676"
       style="fill:#fcc21b" />
    <path
       d="m 37.635,54.066 c 0,0 2.48,-2.144 5.354,-0.69"
       class="st1"
       fill="none"
       stroke="#2f2f2f"
       stroke-linecap="round"
       stroke-linejoin="round"
       stroke-miterlimit="10"
       stroke-width="1.00022"
       id="path25678" />
    <path
       class="st2"
       d="m 36.533,51.064 c -0.541,0.115 -1.082,-0.305 -1.233,-0.946 -0.151,-0.642 0.175,-1.262 0.716,-1.377 0.542,-0.115 1.082,0.305 1.233,0.946 0.137,0.647 -0.175,1.262 -0.716,1.377 z m 5.879,-2.548 a 1.183,1.183 0 0 0 -0.111,-0.219 c -0.03,-0.038 -0.074,-0.07 -0.122,-0.069 -0.319,-0.03 -1.09,-0.059 -1.518,-0.034 -0.063,0.007 -0.115,0.042 -0.128,0.095 -0.109,0.282 -0.114,0.624 0.02,0.949 0.236,0.61 0.861,0.95 1.372,0.75 0.501,-0.181 0.73,-0.847 0.487,-1.472 z"
       fill="#2f2f2f"
       id="path25680" />
    <path
       class="st3"
       d="m 39.213,62.32 c -1.074,0.39 -1.913,0.353 -2.739,-0.093 -1.016,-0.572 -1.294,-1.654 -1.545,-2.615 -0.143,-0.531 -0.11,-0.884 -0.093,-1.197 a 2.465,2.465 0 0 0 -0.13,-1.12 4.192,4.192 0 0 0 -0.233,-0.466 c -0.272,-0.484 -0.6,-1.03 -0.325,-1.437 0.092,-0.146 0.248,-0.252 0.449,-0.324 0.358,-0.13 0.792,-0.092 1.077,0.112 0.451,0.307 0.696,0.671 1.012,1.545 0.13,0.358 0.277,0.45 0.476,0.508 0.053,0.013 0.12,0.021 0.321,-0.051 0.186,-0.068 0.405,-0.18 0.738,-0.332 0.11,-0.056 0.219,-0.112 0.348,-0.158 0.347,-0.158 1.38,-0.662 2.031,-1.01 l 0.499,-0.278 c 0.39,-0.222 0.779,-0.444 1.094,-0.558 0.157,-0.057 0.291,-0.089 0.407,-0.082 0.323,-0.004 0.602,0.187 0.735,0.51 a 0.97,0.97 0 0 1 -0.156,1.045 c -0.244,0.267 -1.44,0.99 -2.167,1.351 0.024,0.024 0.044,0.033 0.054,0.061 0.204,0.25 0.301,0.653 0.237,0.967 -0.008,0.068 -0.035,0.127 -0.054,0.166 0.242,0.22 0.276,0.628 0.254,0.88 -0.008,0.067 -0.02,0.169 -0.08,0.271 a 0.77,0.77 0 0 1 0.185,0.468 c 0.062,0.528 -0.642,1.09 -2.043,1.694 -0.123,0.061 -0.238,0.102 -0.352,0.144 z"
       fill="#fac139"
       id="path25682"
       style="fill:#fcc21b" />
    <path
       class="st2"
       d="m 34.686,55.36 c 0.258,-0.094 0.586,-0.083 0.807,0.08 0.392,0.28 0.597,0.578 0.912,1.403 0.16,0.444 0.382,0.607 0.687,0.69 0.14,0.03 0.294,0.008 0.495,-0.065 0.257,-0.093 0.6,-0.266 1.095,-0.51 0.385,-0.187 1.408,-0.671 2.045,-1.015 0.504,-0.263 1.134,-0.67 1.564,-0.825 a 0.855,0.855 0 0 1 0.302,-0.06 c 0.487,0.002 0.678,0.71 0.359,1.036 -0.226,0.227 -1.52,1.036 -2.244,1.362 -0.515,0.235 -0.614,0.32 -0.603,0.348 0.002,0.096 0.25,-0.026 0.476,-0.027 0.303,-0.012 0.49,0.503 0.416,0.838 -0.047,0.227 -0.197,0.217 -0.155,0.331 0.015,0.043 0.108,0.074 0.152,0.107 0.152,0.107 0.218,0.423 0.185,0.646 -0.017,0.087 -0.02,0.169 -0.095,0.228 -0.076,0.06 -0.07,0.123 -0.01,0.198 0.094,0.08 0.187,0.16 0.208,0.395 0.033,0.36 -0.715,0.89 -1.863,1.386 -0.115,0.042 -0.224,0.097 -0.324,0.134 -0.974,0.352 -1.74,0.338 -2.488,-0.072 -0.87,-0.479 -1.128,-1.373 -1.396,-2.426 -0.262,-1.039 0.137,-1.28 -0.247,-2.34 -0.16,-0.444 -0.846,-1.264 -0.605,-1.627 a 0.826,0.826 0 0 1 0.327,-0.215 m -0.207,-0.573 a 1.242,1.242 0 0 0 -0.6,0.444 c -0.367,0.553 0.007,1.228 0.309,1.75 0.086,0.147 0.182,0.323 0.213,0.409 0.16,0.444 0.147,0.675 0.116,0.994 -0.016,0.314 -0.049,0.714 0.11,1.288 0.272,1.02 0.556,2.163 1.695,2.804 0.894,0.502 1.844,0.531 2.99,0.117 0.114,-0.042 0.243,-0.088 0.366,-0.15 2.092,-0.886 2.268,-1.564 2.223,-2.002 a 1.476,1.476 0 0 0 -0.142,-0.482 c 0.017,-0.088 0.039,-0.16 0.038,-0.209 0.028,-0.236 0.002,-0.664 -0.208,-0.977 0.01,-0.02 0.004,-0.034 0.013,-0.053 a 1.533,1.533 0 0 0 -0.145,-0.984 c 0.717,-0.39 1.685,-0.982 1.943,-1.254 0.328,-0.345 0.42,-0.897 0.215,-1.373 -0.189,-0.434 -0.576,-0.698 -1.014,-0.702 a 1.586,1.586 0 0 0 -0.499,0.1 c -0.344,0.124 -0.747,0.35 -1.151,0.578 -0.176,0.096 -0.352,0.192 -0.499,0.278 -0.65,0.348 -1.674,0.832 -2.017,1.004 -0.123,0.061 -0.233,0.117 -0.347,0.159 -0.305,0.142 -0.538,0.259 -0.71,0.321 -0.1,0.036 -0.134,0.032 -0.148,0.038 -0.093,-0.032 -0.165,-0.054 -0.259,-0.312 -0.314,-0.825 -0.562,-1.286 -1.126,-1.681 a 1.746,1.746 0 0 0 -1.366,-0.105 z"
       fill="#2f2f2f"
       id="path25684" />
  </g>
  <g
     stroke-width="1.415"
     id="g25698"
     transform="rotate(47.324027,35.747012,104.23191)">
    <path
       class="st0"
       d="m 37.233,44.852 c -8.12,2.937 -5.016,12.097 -4.363,13.901 0.652,1.805 4.904,1.918 9.486,0.26 4.582,-1.657 7.777,-4.465 7.124,-6.269 -0.652,-1.804 -4.128,-10.83 -12.247,-7.892 z"
       fill="#fcbf07"
       id="path25688"
       style="fill:#fcc21b" />
    <path
       d="m 37.635,54.066 c 0,0 2.48,-2.144 5.354,-0.69"
       class="st1"
       fill="none"
       stroke="#2f2f2f"
       stroke-linecap="round"
       stroke-linejoin="round"
       stroke-miterlimit="10"
       stroke-width="1.00022"
       id="path25690" />
    <path
       class="st2"
       d="m 36.533,51.064 c -0.541,0.115 -1.082,-0.305 -1.233,-0.946 -0.151,-0.642 0.175,-1.262 0.716,-1.377 0.542,-0.115 1.082,0.305 1.233,0.946 0.137,0.647 -0.175,1.262 -0.716,1.377 z m 5.879,-2.548 a 1.183,1.183 0 0 0 -0.111,-0.219 c -0.03,-0.038 -0.074,-0.07 -0.122,-0.069 -0.319,-0.03 -1.09,-0.059 -1.518,-0.034 -0.063,0.007 -0.115,0.042 -0.128,0.095 -0.109,0.282 -0.114,0.624 0.02,0.949 0.236,0.61 0.861,0.95 1.372,0.75 0.501,-0.181 0.73,-0.847 0.487,-1.472 z"
       fill="#2f2f2f"
       id="path25692" />
    <path
       class="st3"
       d="m 39.213,62.32 c -1.074,0.39 -1.913,0.353 -2.739,-0.093 -1.016,-0.572 -1.294,-1.654 -1.545,-2.615 -0.143,-0.531 -0.11,-0.884 -0.093,-1.197 a 2.465,2.465 0 0 0 -0.13,-1.12 4.192,4.192 0 0 0 -0.233,-0.466 c -0.272,-0.484 -0.6,-1.03 -0.325,-1.437 0.092,-0.146 0.248,-0.252 0.449,-0.324 0.358,-0.13 0.792,-0.092 1.077,0.112 0.451,0.307 0.696,0.671 1.012,1.545 0.13,0.358 0.277,0.45 0.476,0.508 0.053,0.013 0.12,0.021 0.321,-0.051 0.186,-0.068 0.405,-0.18 0.738,-0.332 0.11,-0.056 0.219,-0.112 0.348,-0.158 0.347,-0.158 1.38,-0.662 2.031,-1.01 l 0.499,-0.278 c 0.39,-0.222 0.779,-0.444 1.094,-0.558 0.157,-0.057 0.291,-0.089 0.407,-0.082 0.323,-0.004 0.602,0.187 0.735,0.51 a 0.97,0.97 0 0 1 -0.156,1.045 c -0.244,0.267 -1.44,0.99 -2.167,1.351 0.024,0.024 0.044,0.033 0.054,0.061 0.204,0.25 0.301,0.653 0.237,0.967 -0.008,0.068 -0.035,0.127 -0.054,0.166 0.242,0.22 0.276,0.628 0.254,0.88 -0.008,0.067 -0.02,0.169 -0.08,0.271 a 0.77,0.77 0 0 1 0.185,0.468 c 0.062,0.528 -0.642,1.09 -2.043,1.694 -0.123,0.061 -0.238,0.102 -0.352,0.144 z"
       fill="#fac139"
       id="path25694"
       style="fill:#fcc21b" />
    <path
       class="st2"
       d="m 34.686,55.36 c 0.258,-0.094 0.586,-0.083 0.807,0.08 0.392,0.28 0.597,0.578 0.912,1.403 0.16,0.444 0.382,0.607 0.687,0.69 0.14,0.03 0.294,0.008 0.495,-0.065 0.257,-0.093 0.6,-0.266 1.095,-0.51 0.385,-0.187 1.408,-0.671 2.045,-1.015 0.504,-0.263 1.134,-0.67 1.564,-0.825 a 0.855,0.855 0 0 1 0.302,-0.06 c 0.487,0.002 0.678,0.71 0.359,1.036 -0.226,0.227 -1.52,1.036 -2.244,1.362 -0.515,0.235 -0.614,0.32 -0.603,0.348 0.002,0.096 0.25,-0.026 0.476,-0.027 0.303,-0.012 0.49,0.503 0.416,0.838 -0.047,0.227 -0.197,0.217 -0.155,0.331 0.015,0.043 0.108,0.074 0.152,0.107 0.152,0.107 0.218,0.423 0.185,0.646 -0.017,0.087 -0.02,0.169 -0.095,0.228 -0.076,0.06 -0.07,0.123 -0.01,0.198 0.094,0.08 0.187,0.16 0.208,0.395 0.033,0.36 -0.715,0.89 -1.863,1.386 -0.115,0.042 -0.224,0.097 -0.324,0.134 -0.974,0.352 -1.74,0.338 -2.488,-0.072 -0.87,-0.479 -1.128,-1.373 -1.396,-2.426 -0.262,-1.039 0.137,-1.28 -0.247,-2.34 -0.16,-0.444 -0.846,-1.264 -0.605,-1.627 a 0.826,0.826 0 0 1 0.327,-0.215 m -0.207,-0.573 a 1.242,1.242 0 0 0 -0.6,0.444 c -0.367,0.553 0.007,1.228 0.309,1.75 0.086,0.147 0.182,0.323 0.213,0.409 0.16,0.444 0.147,0.675 0.116,0.994 -0.016,0.314 -0.049,0.714 0.11,1.288 0.272,1.02 0.556,2.163 1.695,2.804 0.894,0.502 1.844,0.531 2.99,0.117 0.114,-0.042 0.243,-0.088 0.366,-0.15 2.092,-0.886 2.268,-1.564 2.223,-2.002 a 1.476,1.476 0 0 0 -0.142,-0.482 c 0.017,-0.088 0.039,-0.16 0.038,-0.209 0.028,-0.236 0.002,-0.664 -0.208,-0.977 0.01,-0.02 0.004,-0.034 0.013,-0.053 a 1.533,1.533 0 0 0 -0.145,-0.984 c 0.717,-0.39 1.685,-0.982 1.943,-1.254 0.328,-0.345 0.42,-0.897 0.215,-1.373 -0.189,-0.434 -0.576,-0.698 -1.014,-0.702 a 1.586,1.586 0 0 0 -0.499,0.1 c -0.344,0.124 -0.747,0.35 -1.151,0.578 -0.176,0.096 -0.352,0.192 -0.499,0.278 -0.65,0.348 -1.674,0.832 -2.017,1.004 -0.123,0.061 -0.233,0.117 -0.347,0.159 -0.305,0.142 -0.538,0.259 -0.71,0.321 -0.1,0.036 -0.134,0.032 -0.148,0.038 -0.093,-0.032 -0.165,-0.054 -0.259,-0.312 -0.314,-0.825 -0.562,-1.286 -1.126,-1.681 a 1.746,1.746 0 0 0 -1.366,-0.105 z"
       fill="#2f2f2f"
       id="path25696" />
  </g>
  <g
     stroke-width="1.415"
     id="g25710"
     transform="rotate(47.324027,9.8010155,100.79357)">
    <path
       class="st0"
       d="m 37.233,44.852 c -8.12,2.937 -5.016,12.097 -4.363,13.901 0.652,1.805 4.904,1.918 9.486,0.26 4.582,-1.657 7.777,-4.465 7.124,-6.269 -0.652,-1.804 -4.128,-10.83 -12.247,-7.892 z"
       fill="#fcbf07"
       id="path25700"
       style="fill:#fcc21b" />
    <path
       d="m 37.635,54.066 c 0,0 2.48,-2.144 5.354,-0.69"
       class="st1"
       fill="none"
       stroke="#2f2f2f"
       stroke-linecap="round"
       stroke-linejoin="round"
       stroke-miterlimit="10"
       stroke-width="1.00022"
       id="path25702" />
    <path
       class="st2"
       d="m 36.533,51.064 c -0.541,0.115 -1.082,-0.305 -1.233,-0.946 -0.151,-0.642 0.175,-1.262 0.716,-1.377 0.542,-0.115 1.082,0.305 1.233,0.946 0.137,0.647 -0.175,1.262 -0.716,1.377 z m 5.879,-2.548 a 1.183,1.183 0 0 0 -0.111,-0.219 c -0.03,-0.038 -0.074,-0.07 -0.122,-0.069 -0.319,-0.03 -1.09,-0.059 -1.518,-0.034 -0.063,0.007 -0.115,0.042 -0.128,0.095 -0.109,0.282 -0.114,0.624 0.02,0.949 0.236,0.61 0.861,0.95 1.372,0.75 0.501,-0.181 0.73,-0.847 0.487,-1.472 z"
       fill="#2f2f2f"
       id="path25704" />
    <path
       class="st3"
       d="m 39.213,62.32 c -1.074,0.39 -1.913,0.353 -2.739,-0.093 -1.016,-0.572 -1.294,-1.654 -1.545,-2.615 -0.143,-0.531 -0.11,-0.884 -0.093,-1.197 a 2.465,2.465 0 0 0 -0.13,-1.12 4.192,4.192 0 0 0 -0.233,-0.466 c -0.272,-0.484 -0.6,-1.03 -0.325,-1.437 0.092,-0.146 0.248,-0.252 0.449,-0.324 0.358,-0.13 0.792,-0.092 1.077,0.112 0.451,0.307 0.696,0.671 1.012,1.545 0.13,0.358 0.277,0.45 0.476,0.508 0.053,0.013 0.12,0.021 0.321,-0.051 0.186,-0.068 0.405,-0.18 0.738,-0.332 0.11,-0.056 0.219,-0.112 0.348,-0.158 0.347,-0.158 1.38,-0.662 2.031,-1.01 l 0.499,-0.278 c 0.39,-0.222 0.779,-0.444 1.094,-0.558 0.157,-0.057 0.291,-0.089 0.407,-0.082 0.323,-0.004 0.602,0.187 0.735,0.51 a 0.97,0.97 0 0 1 -0.156,1.045 c -0.244,0.267 -1.44,0.99 -2.167,1.351 0.024,0.024 0.044,0.033 0.054,0.061 0.204,0.25 0.301,0.653 0.237,0.967 -0.008,0.068 -0.035,0.127 -0.054,0.166 0.242,0.22 0.276,0.628 0.254,0.88 -0.008,0.067 -0.02,0.169 -0.08,0.271 a 0.77,0.77 0 0 1 0.185,0.468 c 0.062,0.528 -0.642,1.09 -2.043,1.694 -0.123,0.061 -0.238,0.102 -0.352,0.144 z"
       fill="#fac139"
       id="path25706"
       style="fill:#fcc21b" />
    <path
       class="st2"
       d="m 34.686,55.36 c 0.258,-0.094 0.586,-0.083 0.807,0.08 0.392,0.28 0.597,0.578 0.912,1.403 0.16,0.444 0.382,0.607 0.687,0.69 0.14,0.03 0.294,0.008 0.495,-0.065 0.257,-0.093 0.6,-0.266 1.095,-0.51 0.385,-0.187 1.408,-0.671 2.045,-1.015 0.504,-0.263 1.134,-0.67 1.564,-0.825 a 0.855,0.855 0 0 1 0.302,-0.06 c 0.487,0.002 0.678,0.71 0.359,1.036 -0.226,0.227 -1.52,1.036 -2.244,1.362 -0.515,0.235 -0.614,0.32 -0.603,0.348 0.002,0.096 0.25,-0.026 0.476,-0.027 0.303,-0.012 0.49,0.503 0.416,0.838 -0.047,0.227 -0.197,0.217 -0.155,0.331 0.015,0.043 0.108,0.074 0.152,0.107 0.152,0.107 0.218,0.423 0.185,0.646 -0.017,0.087 -0.02,0.169 -0.095,0.228 -0.076,0.06 -0.07,0.123 -0.01,0.198 0.094,0.08 0.187,0.16 0.208,0.395 0.033,0.36 -0.715,0.89 -1.863,1.386 -0.115,0.042 -0.224,0.097 -0.324,0.134 -0.974,0.352 -1.74,0.338 -2.488,-0.072 -0.87,-0.479 -1.128,-1.373 -1.396,-2.426 -0.262,-1.039 0.137,-1.28 -0.247,-2.34 -0.16,-0.444 -0.846,-1.264 -0.605,-1.627 a 0.826,0.826 0 0 1 0.327,-0.215 m -0.207,-0.573 a 1.242,1.242 0 0 0 -0.6,0.444 c -0.367,0.553 0.007,1.228 0.309,1.75 0.086,0.147 0.182,0.323 0.213,0.409 0.16,0.444 0.147,0.675 0.116,0.994 -0.016,0.314 -0.049,0.714 0.11,1.288 0.272,1.02 0.556,2.163 1.695,2.804 0.894,0.502 1.844,0.531 2.99,0.117 0.114,-0.042 0.243,-0.088 0.366,-0.15 2.092,-0.886 2.268,-1.564 2.223,-2.002 a 1.476,1.476 0 0 0 -0.142,-0.482 c 0.017,-0.088 0.039,-0.16 0.038,-0.209 0.028,-0.236 0.002,-0.664 -0.208,-0.977 0.01,-0.02 0.004,-0.034 0.013,-0.053 a 1.533,1.533 0 0 0 -0.145,-0.984 c 0.717,-0.39 1.685,-0.982 1.943,-1.254 0.328,-0.345 0.42,-0.897 0.215,-1.373 -0.189,-0.434 -0.576,-0.698 -1.014,-0.702 a 1.586,1.586 0 0 0 -0.499,0.1 c -0.344,0.124 -0.747,0.35 -1.151,0.578 -0.176,0.096 -0.352,0.192 -0.499,0.278 -0.65,0.348 -1.674,0.832 -2.017,1.004 -0.123,0.061 -0.233,0.117 -0.347,0.159 -0.305,0.142 -0.538,0.259 -0.71,0.321 -0.1,0.036 -0.134,0.032 -0.148,0.038 -0.093,-0.032 -0.165,-0.054 -0.259,-0.312 -0.314,-0.825 -0.562,-1.286 -1.126,-1.681 a 1.746,1.746 0 0 0 -1.366,-0.105 z"
       fill="#2f2f2f"
       id="path25708" />
  </g>
</svg>
