<?xml version="1.0" encoding="UTF-8" standalone="no"?>
<svg
   width="128"
   height="128"
   version="1.1"
   id="svg47"
   sodipodi:docname="emoji_u1f60d.svg"
   xml:space="preserve"
   inkscape:version="1.3 (0e150ed6c4, 2023-07-21)"
   xmlns:inkscape="http://www.inkscape.org/namespaces/inkscape"
   xmlns:sodipodi="http://sodipodi.sourceforge.net/DTD/sodipodi-0.dtd"
   xmlns:xlink="http://www.w3.org/1999/xlink"
   xmlns="http://www.w3.org/2000/svg"
   xmlns:svg="http://www.w3.org/2000/svg"><defs
     id="defs47"><path
       id="SVGID_1_"
       d="M122.22,79.49c9.9-31.98,1.98-59.19-20.82-70.65C67.34-8.28,35.2,4.71,15.97,33.18      C3.92,51.03-1.01,73.42,0.58,100.39c-0.07,0.51-0.19,1.01-0.19,1.52c0,13.76,28.44,24.92,63.51,24.92c0.04,0,0.09,0,0.14,0      c0.04,0,0.09,0,0.13,0c9.41,0,18.23-0.83,26.16-2.28c19.59-3.52,33.8-10.83,36.56-19.56c0.39-1.02,0.69-2.04,0.79-3.09      C128.35,94.92,118.13,92.67,122.22,79.49z" /></defs><sodipodi:namedview
     id="namedview47"
     pagecolor="#ffffff"
     bordercolor="#000000"
     borderopacity="0.25"
     inkscape:showpageshadow="2"
     inkscape:pageopacity="0.0"
     inkscape:pagecheckerboard="0"
     inkscape:deskcolor="#d1d1d1"
     inkscape:zoom="4.4861729"
     inkscape:cx="67.540866"
     inkscape:cy="49.26248"
     inkscape:current-layer="svg47" /><g
     id="g50"
     transform="translate(-9.8068666e-4,0.00366124)">&#10;	<g
   id="g48">&#10;		<g
   id="g47">&#10;			<defs
   id="defs1">&#10;				<path
   id="path47"
   d="M 122.22,79.49 C 132.12,47.51 124.2,20.3 101.4,8.84 67.34,-8.28 35.2,4.71 15.97,33.18 3.92,51.03 -1.01,73.42 0.58,100.39 c -0.07,0.51 -0.19,1.01 -0.19,1.52 0,13.76 28.44,24.92 63.51,24.92 0.04,0 0.09,0 0.14,0 0.04,0 0.09,0 0.13,0 9.41,0 18.23,-0.83 26.16,-2.28 19.59,-3.52 33.8,-10.83 36.56,-19.56 0.39,-1.02 0.69,-2.04 0.79,-3.09 0.67,-6.98 -9.55,-9.23 -5.46,-22.41 z" />&#10;			</defs>&#10;			<use
   xlink:href="#SVGID_1_"
   overflow="visible"
   fill="#fcc21b"
   id="use1" />&#10;			<clipPath
   id="SVGID_2_">&#10;				<use
   xlink:href="#SVGID_1_"
   overflow="visible"
   id="use2" />&#10;			</clipPath>&#10;			<g
   clip-path="url(#SVGID_2_)"
   id="g46">&#10;				<g
   id="g23">&#10;					<path
   fill="#fcc21b"
   d="m 103.65,95.31 c -9.5,3.41 -19.98,-1.4 -23.44,-10.78 -3.44,-9.37 1.43,-19.74 10.93,-23.17 9.47,-3.41 19.98,1.42 23.45,10.79 3.44,9.38 -1.46,19.75 -10.94,23.16 z"
   id="path2" />&#10;					<path
   fill="#fcc01c"
   d="M 103.42,94.67 C 94.27,97.96 84.18,93.32 80.86,84.3 77.55,75.28 82.24,65.3 91.38,62 c 9.12,-3.28 19.23,1.37 22.57,10.39 3.31,9.02 -1.41,19.01 -10.53,22.28 z"
   id="path3" />&#10;					<path
   fill="#fcbe1c"
   d="M 103.19,94.04 C 94.4,97.2 84.7,92.75 81.5,84.07 78.32,75.4 82.83,65.81 91.61,62.64 c 8.77,-3.15 18.48,1.31 21.69,9.98 3.19,8.67 -1.34,18.27 -10.11,21.42 z"
   id="path4" />&#10;					<path
   fill="#fbbb1d"
   d="m 102.95,93.4 c -8.44,3.03 -17.74,-1.24 -20.81,-9.57 -3.05,-8.32 1.27,-17.53 9.71,-20.57 8.41,-3.03 17.74,1.26 20.82,9.58 3.04,8.33 -1.3,17.54 -9.72,20.56 z"
   id="path5" />&#10;					<path
   fill="#fbb91e"
   d="m 102.72,92.77 c -8.08,2.9 -17,-1.19 -19.93,-9.17 -2.93,-7.97 1.22,-16.79 9.3,-19.7 8.06,-2.9 16.99,1.21 19.94,9.18 2.91,7.97 -1.25,16.79 -9.31,19.69 z"
   id="path6" />&#10;					<path
   fill="#fbb71e"
   d="m 102.48,92.13 c -7.73,2.77 -16.25,-1.14 -19.06,-8.76 -2.8,-7.62 1.17,-16.05 8.89,-18.84 7.7,-2.77 16.24,1.15 19.06,8.77 2.8,7.63 -1.18,16.07 -8.89,18.83 z"
   id="path7" />&#10;					<path
   fill="#fbb51f"
   d="m 102.25,91.5 c -7.37,2.65 -15.5,-1.09 -18.18,-8.36 -2.67,-7.27 1.11,-15.31 8.48,-17.97 7.35,-2.64 15.5,1.1 18.19,8.37 2.66,7.27 -1.14,15.32 -8.49,17.96 z"
   id="path8" />&#10;					<path
   fill="#fab220"
   d="M 102.02,90.86 C 95,93.38 87.27,89.83 84.72,82.9 c -2.54,-6.92 1.06,-14.57 8.07,-17.1 7,-2.52 14.75,1.05 17.31,7.97 2.53,6.92 -1.09,14.58 -8.08,17.09 z"
   id="path9" />&#10;					<path
   fill="#fab020"
   d="m 101.78,90.23 c -6.66,2.39 -14.01,-0.98 -16.43,-7.55 -2.41,-6.57 1.01,-13.84 7.66,-16.24 6.64,-2.39 14,1 16.43,7.56 2.42,6.57 -1.01,13.84 -7.66,16.23 z"
   id="path10" />&#10;					<path
   fill="#faae21"
   d="M 101.55,89.6 C 95.24,91.86 88.29,88.67 86,82.45 c -2.28,-6.22 0.95,-13.1 7.25,-15.37 6.29,-2.26 13.26,0.94 15.56,7.16 2.28,6.21 -0.97,13.1 -7.26,15.36 z"
   id="path11" />&#10;					<path
   fill="#faac22"
   d="m 101.32,88.96 c -5.95,2.14 -12.51,-0.88 -14.68,-6.75 -2.16,-5.87 0.9,-12.36 6.84,-14.51 5.93,-2.13 12.51,0.89 14.68,6.76 2.16,5.87 -0.91,12.37 -6.84,14.5 z"
   id="path12" />&#10;					<path
   fill="#f9a922"
   d="m 101.08,88.33 c -5.59,2.01 -11.77,-0.82 -13.8,-6.35 -2.03,-5.52 0.84,-11.62 6.44,-13.64 5.58,-2.01 11.76,0.84 13.8,6.35 2.02,5.52 -0.86,11.63 -6.44,13.64 z"
   id="path13" />&#10;					<path
   fill="#f9a723"
   d="m 100.85,87.69 c -5.24,1.88 -11.02,-0.77 -12.92,-5.94 -1.9,-5.17 0.79,-10.88 6.03,-12.77 5.23,-1.88 11.01,0.78 12.93,5.95 1.88,5.16 -0.82,10.89 -6.04,12.76 z"
   id="path14" />&#10;					<path
   fill="#f9a524"
   d="m 100.61,87.06 c -4.88,1.75 -10.27,-0.72 -12.05,-5.54 -1.77,-4.81 0.74,-10.14 5.62,-11.91 4.87,-1.75 10.27,0.73 12.05,5.55 1.77,4.81 -0.74,10.15 -5.62,11.9 z"
   id="path15" />&#10;					<path
   fill="#f9a324"
   d="m 100.38,86.42 c -4.53,1.63 -9.53,-0.67 -11.17,-5.14 -1.64,-4.46 0.69,-9.41 5.21,-11.04 4.52,-1.62 9.52,0.68 11.17,5.14 1.64,4.47 -0.69,9.42 -5.21,11.04 z"
   id="path16" />&#10;					<path
   fill="#f8a025"
   d="m 100.15,85.79 c -4.17,1.5 -8.78,-0.62 -10.29,-4.74 -1.51,-4.11 0.63,-8.67 4.8,-10.17 4.16,-1.5 8.77,0.63 10.3,4.74 1.5,4.12 -0.65,8.67 -4.81,10.17 z"
   id="path17" />&#10;					<path
   fill="#f89e26"
   d="m 99.91,85.15 c -3.82,1.37 -8.03,-0.56 -9.42,-4.33 -1.38,-3.76 0.58,-7.93 4.39,-9.31 3.81,-1.37 8.03,0.57 9.42,4.34 1.39,3.77 -0.58,7.94 -4.39,9.3 z"
   id="path18" />&#10;					<path
   fill="#f89c26"
   d="m 99.68,84.52 c -3.46,1.24 -7.28,-0.51 -8.54,-3.93 -1.25,-3.41 0.52,-7.19 3.98,-8.44 3.46,-1.24 7.28,0.52 8.55,3.93 1.25,3.42 -0.54,7.2 -3.99,8.44 z"
   id="path19" />&#10;					<path
   fill="#f89a27"
   d="m 99.44,83.89 c -3.11,1.12 -6.54,-0.46 -7.67,-3.53 -1.13,-3.06 0.47,-6.45 3.57,-7.58 3.1,-1.11 6.53,0.47 7.67,3.53 1.14,3.07 -0.47,6.46 -3.57,7.58 z"
   id="path20" />&#10;					<path
   fill="#f79728"
   d="m 99.21,83.25 c -2.75,0.99 -5.79,-0.41 -6.79,-3.12 -1,-2.71 0.42,-5.72 3.17,-6.71 2.75,-0.99 5.79,0.41 6.79,3.13 1,2.71 -0.42,5.72 -3.17,6.7 z"
   id="path21" />&#10;					<path
   fill="#f79528"
   d="m 98.98,82.62 c -2.4,0.86 -5.04,-0.35 -5.91,-2.72 -0.87,-2.36 0.36,-4.98 2.76,-5.84 2.39,-0.86 5.04,0.36 5.92,2.72 0.85,2.36 -0.38,4.98 -2.77,5.84 z"
   id="path22" />&#10;					<path
   fill="#f79329"
   d="m 98.74,81.98 c -2.04,0.73 -4.3,-0.3 -5.04,-2.32 -0.74,-2.01 0.31,-4.24 2.35,-4.98 2.04,-0.73 4.29,0.31 5.04,2.32 0.74,2.02 -0.31,4.25 -2.35,4.98 z"
   id="path23" />&#10;				</g>&#10;				<g
   id="g45">&#10;					<path
   fill="#fcc21b"
   d="M 25.25,76.95 C 15.67,80.39 5.11,75.54 1.63,66.09 -1.84,56.65 3.08,46.2 12.65,42.75 c 9.55,-3.43 20.13,1.43 23.62,10.87 3.46,9.46 -1.47,19.9 -11.02,23.33 z"
   id="path24" />&#10;					<path
   fill="#fcc01c"
   d="M 25.01,76.29 C 15.81,79.6 5.65,74.94 2.31,65.85 -1.02,56.78 3.7,46.73 12.9,43.41 c 9.18,-3.3 19.35,1.38 22.71,10.45 3.32,9.09 -1.42,19.13 -10.6,22.43 z"
   id="path25" />&#10;					<path
   fill="#fcbe1c"
   d="M 24.76,75.62 C 15.93,78.79 6.18,74.32 2.98,65.6 -0.22,56.89 4.31,47.25 13.14,44.07 21.95,40.9 31.71,45.39 34.93,54.1 38.12,62.83 33.57,72.46 24.76,75.62 Z"
   id="path26" />&#10;					<path
   fill="#fbbb1d"
   d="M 24.52,74.96 C 16.06,78 6.72,73.71 3.65,65.37 0.58,57.03 4.93,47.79 13.38,44.74 c 8.44,-3.03 17.79,1.27 20.87,9.61 3.06,8.35 -1.29,17.58 -9.73,20.61 z"
   id="path27" />&#10;					<path
   fill="#fbb91e"
   d="M 24.27,74.3 C 16.18,77.21 7.26,73.11 4.32,65.13 1.39,57.16 5.54,48.33 13.63,45.41 c 8.06,-2.9 17,1.21 19.96,9.18 2.92,7.99 -1.25,16.81 -9.32,19.71 z"
   id="path28" />&#10;					<path
   fill="#fbb71e"
   d="M 24.03,73.63 C 16.31,76.41 7.8,72.5 4.99,64.88 2.19,57.27 6.16,48.85 13.87,46.07 c 7.69,-2.77 16.22,1.16 19.04,8.76 2.79,7.62 -1.18,16.04 -8.88,18.8 z"
   id="path29" />&#10;					<path
   fill="#fbb51f"
   d="M 23.78,72.97 C 16.44,75.61 8.33,71.89 5.66,64.64 3,57.4 6.77,49.38 14.11,46.73 c 7.32,-2.63 15.44,1.1 18.12,8.34 2.66,7.26 -1.12,15.27 -8.45,17.9 z"
   id="path30" />&#10;					<path
   fill="#fab220"
   d="m 23.54,72.3 c -6.97,2.51 -14.67,-1.03 -17.2,-7.91 -2.53,-6.87 1.05,-14.49 8.02,-17 6.95,-2.5 14.66,1.04 17.2,7.92 2.53,6.89 -1.07,14.5 -8.02,16.99 z"
   id="path31" />&#10;					<path
   fill="#fab020"
   d="m 23.29,71.64 c -6.6,2.37 -13.88,-0.97 -16.28,-7.49 -2.39,-6.51 1,-13.72 7.59,-16.09 6.58,-2.37 13.88,0.99 16.29,7.5 2.39,6.52 -1.01,13.72 -7.6,16.08 z"
   id="path32" />&#10;					<path
   fill="#faae21"
   d="M 23.05,70.98 C 16.82,73.22 9.95,70.06 7.68,63.92 5.42,57.78 8.62,50.98 14.85,48.73 c 6.21,-2.23 13.1,0.93 15.37,7.07 2.25,6.15 -0.96,12.95 -7.17,15.18 z"
   id="path33" />&#10;					<path
   fill="#faac22"
   d="M 22.8,70.31 C 16.94,72.41 10.48,69.45 8.35,63.67 6.23,57.9 9.24,51.5 15.09,49.39 c 5.84,-2.1 12.32,0.88 14.45,6.65 2.13,5.78 -0.89,12.18 -6.74,14.27 z"
   id="path34" />&#10;					<path
   fill="#f9a922"
   d="M 22.56,69.65 C 17.07,71.62 11.02,68.84 9.03,63.43 7.04,58.02 9.86,52.03 15.34,50.06 c 5.47,-1.97 11.53,0.82 13.54,6.23 1.98,5.41 -0.85,11.4 -6.32,13.36 z"
   id="path35" />&#10;					<path
   fill="#f9a723"
   d="M 22.31,68.98 C 17.2,70.82 11.55,68.23 9.69,63.18 7.84,58.14 10.46,52.55 15.57,50.71 c 5.1,-1.83 10.75,0.77 12.62,5.81 1.86,5.05 -0.77,10.64 -5.88,12.46 z"
   id="path36" />&#10;					<path
   fill="#f9a524"
   d="m 22.07,68.32 c -4.74,1.7 -9.98,-0.7 -11.7,-5.38 -1.72,-4.67 0.72,-9.85 5.46,-11.56 4.73,-1.7 9.97,0.71 11.7,5.38 1.71,4.69 -0.73,9.86 -5.46,11.56 z"
   id="path37" />&#10;					<path
   fill="#f9a324"
   d="m 21.83,67.66 c -4.37,1.57 -9.19,-0.64 -10.78,-4.96 -1.58,-4.31 0.66,-9.08 5.03,-10.66 4.36,-1.57 9.19,0.65 10.78,4.96 1.58,4.32 -0.67,9.09 -5.03,10.66 z"
   id="path38" />&#10;					<path
   fill="#f8a025"
   d="m 21.58,66.99 c -4,1.44 -8.41,-0.59 -9.87,-4.53 -1.45,-3.94 0.61,-8.31 4.6,-9.75 3.99,-1.43 8.41,0.6 9.87,4.54 1.45,3.95 -0.61,8.31 -4.6,9.74 z"
   id="path39" />&#10;					<path
   fill="#f89e26"
   d="m 21.34,66.33 c -3.63,1.3 -7.63,-0.53 -8.95,-4.11 -1.31,-3.57 0.55,-7.54 4.17,-8.84 3.62,-1.3 7.63,0.54 8.95,4.12 1.31,3.57 -0.55,7.53 -4.17,8.83 z"
   id="path40" />&#10;					<path
   fill="#f89c26"
   d="m 21.09,65.67 c -3.25,1.17 -6.85,-0.48 -8.03,-3.69 -1.18,-3.21 0.49,-6.77 3.75,-7.94 3.25,-1.17 6.85,0.49 8.03,3.7 1.18,3.21 -0.5,6.76 -3.75,7.93 z"
   id="path41" />&#10;					<path
   fill="#f89a27"
   d="m 20.85,65 c -2.88,1.04 -6.07,-0.42 -7.12,-3.27 -1.04,-2.84 0.44,-5.99 3.32,-7.03 2.88,-1.04 6.06,0.43 7.12,3.27 1.04,2.85 -0.44,6 -3.32,7.03 z"
   id="path42" />&#10;					<path
   fill="#f79728"
   d="m 20.6,64.34 c -2.51,0.9 -5.28,-0.37 -6.2,-2.85 -0.91,-2.48 0.38,-5.22 2.89,-6.12 2.51,-0.9 5.28,0.38 6.2,2.85 0.91,2.48 -0.38,5.22 -2.89,6.12 z"
   id="path43" />&#10;					<path
   fill="#f79528"
   d="m 20.36,63.67 c -2.14,0.77 -4.5,-0.31 -5.28,-2.42 -0.77,-2.11 0.33,-4.45 2.46,-5.22 2.14,-0.77 4.5,0.32 5.28,2.43 0.78,2.11 -0.33,4.45 -2.46,5.21 z"
   id="path44" />&#10;					<path
   fill="#f79329"
   d="m 20.11,63.01 c -1.77,0.63 -3.72,-0.26 -4.37,-2 -0.64,-1.74 0.27,-3.68 2.04,-4.31 1.77,-0.64 3.72,0.27 4.37,2.01 0.64,1.74 -0.27,3.67 -2.04,4.3 z"
   id="path45" />&#10;				</g>&#10;			</g>&#10;		</g>&#10;		<path
   fill="#ed6c30"
   d="m 66.45,88.41 c -5.33,1.16 -11.95,0.95 -16.33,-0.46 -6.51,-2.1 -15.49,-8.31 -14.4,-16.59 0.37,-2.74 1.58,-5.3 3.87,-6.69 3.48,-2.13 7.73,0.53 11.73,2.5 1.46,0.7 2.91,1.3 4.22,1.53 5.69,1.02 13.63,-1.26 18.62,3.97 6.32,6.62 -0.84,14.18 -7.71,15.74 z"
   id="path48" />&#10;	</g>&#10;	<g
   id="g49">&#10;		<path
   fill="#d7598b"
   d="m 48.74,21.59 c -3.52,0.19 -6.47,2.23 -7.94,5.14 -1.79,-2.69 -5.01,-4.41 -8.4,-4.21 -2.52,0.14 -4.84,1.24 -6.53,3.11 -1.69,1.87 -2.54,4.27 -2.4,6.75 0.59,11.31 17.38,19.57 18.09,19.92 0.17,0.09 0.36,0.13 0.55,0.13 0.23,0 0.47,-0.07 0.67,-0.19 0.67,-0.42 16.47,-10.55 15.88,-21.83 -0.26,-5.14 -4.8,-9.2 -9.92,-8.82 z"
   id="path49" />&#10;		<path
   fill="#d7598b"
   d="m 108.41,40.4 c -3.56,-3.5 -9.02,-4.66 -13.61,-3.05 1.63,-4.56 0.57,-9.81 -3.15,-13.47 -2.48,-2.44 -5.77,-3.78 -9.26,-3.78 -3.49,0 -6.76,1.35 -9.21,3.78 -11.39,11.3 -4.23,36.87 -3.92,37.95 0.12,0.42 0.45,0.75 0.87,0.87 0.35,0.1 8.76,2.41 18.16,2.41 9.11,0 15.9,-2.16 20.17,-6.4 2.45,-2.43 3.8,-5.68 3.8,-9.12 0.01,-3.48 -1.36,-6.74 -3.85,-9.19 z"
   id="path50" />&#10;	</g>&#10;</g></svg>
