<?xml version="1.0" encoding="UTF-8" standalone="no"?>
<svg
   width="100%"
   height="100%"
   viewBox="0 0 128 128"
   version="1.1"
   xml:space="preserve"
   style="fill-rule:evenodd;clip-rule:evenodd;stroke-linejoin:round;stroke-miterlimit:2;"
   id="svg9448"
   sodipodi:docname="emoji_u1f92c.svg"
   inkscape:version="1.3 (0e150ed6c4, 2023-07-21)"
   xmlns:inkscape="http://www.inkscape.org/namespaces/inkscape"
   xmlns:sodipodi="http://sodipodi.sourceforge.net/DTD/sodipodi-0.dtd"
   xmlns="http://www.w3.org/2000/svg"
   xmlns:svg="http://www.w3.org/2000/svg"><sodipodi:namedview
   id="namedview9450"
   pagecolor="#ffffff"
   bordercolor="#000000"
   borderopacity="0.25"
   inkscape:showpageshadow="2"
   inkscape:pageopacity="0.0"
   inkscape:pagecheckerboard="0"
   inkscape:deskcolor="#d1d1d1"
   showgrid="false"
   showguides="false"
   inkscape:zoom="4"
   inkscape:cx="67.625001"
   inkscape:cy="69.125001"
   inkscape:window-width="1366"
   inkscape:window-height="697"
   inkscape:window-x="-8"
   inkscape:window-y="-8"
   inkscape:window-maximized="1"
   inkscape:current-layer="svg9448" />&#10;    <path
   d="M63.99,9.64C1.68,9.64 0.2,79.5 0.2,93.33C0.2,107.16 28.76,118.36 63.99,118.36C99.23,118.36 127.78,107.15 127.78,93.33C127.78,79.5 126.31,9.64 63.99,9.64Z"
   style="fill:rgb(252,194,27);fill-rule:nonzero;"
   id="path9416" />&#10;    <g
   id="g9427">&#10;        <clipPath
   id="_clip1">&#10;            <path
   d="M63.99,9.64C1.68,9.64 0.2,79.5 0.2,93.33C0.2,107.16 28.76,118.36 63.99,118.36C99.23,118.36 127.78,107.15 127.78,93.33C127.78,79.5 126.31,9.64 63.99,9.64Z"
   id="path9418" />&#10;        </clipPath>&#10;        <g
   clip-path="url(#_clip1)"
   id="g9425">&#10;            <g
   transform="matrix(2.19156,0,0,1.86971,-76.2596,-57.7292)"
   id="g9423">&#10;                <ellipse
   cx="64"
   cy="47.638"
   rx="64"
   ry="47.638"
   style="fill:url(#_Radial2);"
   id="ellipse9421" />&#10;            </g>&#10;        </g>&#10;    </g>&#10;    &#10;    <path
   d="m 43.483999,95.798332 c 2.050157,1.246016 4.516522,0.250254 6.702742,-0.312012 6.113795,-1.565983 11.525608,-1.867957 14.122795,-1.988856 2.597188,-0.120899 8.023639,-0.323446 14.246485,0.668267 2.228999,0.356738 4.777204,1.119072 6.702742,-0.312013 2.437759,-1.825329 0.295194,-7.85222 -3.86302,-11.803138 -2.513653,-2.385697 -8.462978,-6.964008 -17.932724,-6.523191 -9.469745,0.440816 -14.958035,5.551547 -17.249179,8.160907 -3.752754,4.329185 -5.326164,10.529054 -2.729841,12.110036 z"
   style="fill:#ed6c30;fill-rule:nonzero"
   id="path9433" />&#10;    &#10;    &#10;    <defs
   id="defs9446">&#10;        <radialGradient
   id="_Radial2"
   cx="0"
   cy="0"
   r="1"
   gradientUnits="userSpaceOnUse"
   gradientTransform="matrix(64,0,0,47.6377,64,47.6377)"><stop
     offset="0"
     style="stop-color:rgb(219,68,55);stop-opacity:1"
     id="stop9441" /><stop
     offset="1"
     style="stop-color:rgb(219,68,55);stop-opacity:0"
     id="stop9443" /></radialGradient>&#10;    </defs>&#10;<g
   id="g9431"
   style="clip-rule:evenodd;fill-rule:evenodd;stroke-linejoin:round;stroke-miterlimit:2"
   transform="translate(2.6801823e-4,-1.9435181)">&#10;        <path
   d="m 51.25,51.1 c 0.94,0.08 1.72,0.82 1.81,1.75 v 0.02 c 0.5,5.74 -2.99,10.73 -7.78,11.15 -4.79,0.42 -9.1,-3.89 -9.61,-9.63 -0.19,-2.15 0.19,-4.2 0.98,-5.94 0.49,-1.07 1.82,-1.44 2.84,-0.85 3.31,1.91 7.35,3.15 11.76,3.5 z m 27.13,0 c -0.94,0.08 -1.72,0.82 -1.81,1.75 v 0.02 c -0.5,5.74 2.99,10.73 7.78,11.15 4.79,0.42 9.1,-3.89 9.61,-9.63 0.19,-2.15 -0.19,-4.2 -0.98,-5.94 -0.49,-1.07 -1.82,-1.44 -2.84,-0.85 -3.31,1.91 -7.35,3.15 -11.76,3.5 z"
   style="fill:#2f2f2f;fill-rule:nonzero"
   id="path9429" />&#10;    </g><g
   id="g13417"><path
     d="m 104.92235,74.937798 c -0.0957,-1.766266 -1.61028,-3.125255 -3.37654,-3.029594 l -74.963375,4.060005 c -1.766261,0.09566 -3.125248,1.610284 -3.029587,3.37655 l 1.085299,20.03881 c 0.09566,1.766271 1.610282,3.125261 3.376544,3.029601 l 74.963379,-4.060006 c 1.76626,-0.09566 3.12524,-1.610282 3.02958,-3.376554 z"
     style="fill:#2f2f2f;fill-opacity:1;stroke-width:0.999998"
     id="path9435"
     sodipodi:nodetypes="sssssssss" /></g><text
   xml:space="preserve"
   style="font-size:20.7399px;font-family:Asap;-inkscape-font-specification:Asap;fill:#ffffff;fill-opacity:1;stroke-width:6.00002;stroke-linecap:round"
   x="29.078629"
   y="98.03801"
   id="text1"
   transform="rotate(-3.908797)"><tspan
     sodipodi:role="line"
     id="tspan1"
     x="29.078629"
     y="98.03801"
     style="font-style:normal;font-variant:normal;font-weight:bold;font-stretch:normal;font-family:'Comic Neue';-inkscape-font-specification:'Comic Neue Bold';fill:#ffffff;fill-opacity:1;stroke-width:6.00002">%#!$&amp;</tspan></text></svg>
