<?xml version="1.0" encoding="UTF-8" standalone="no"?>
<svg
   width="128"
   height="128"
   style="enable-background:new 0 0 128 128;"
   version="1.1"
   id="svg48"
   sodipodi:docname="emoji_u263a.svg"
   inkscape:version="1.3 (0e150ed6c4, 2023-07-21)"
   xmlns:inkscape="http://www.inkscape.org/namespaces/inkscape"
   xmlns:sodipodi="http://sodipodi.sourceforge.net/DTD/sodipodi-0.dtd"
   xmlns:xlink="http://www.w3.org/1999/xlink"
   xmlns="http://www.w3.org/2000/svg"
   xmlns:svg="http://www.w3.org/2000/svg">
  <defs
     id="defs48">
    <linearGradient
       id="linearGradient48"
       inkscape:collect="always">
      <stop
         style="stop-color:#f79329;stop-opacity:1;"
         offset="0"
         id="stop48" />
      <stop
         style="stop-color:#fcc21b;stop-opacity:1;"
         offset="1"
         id="stop49" />
    </linearGradient>
    <radialGradient
       inkscape:collect="always"
       xlink:href="#linearGradient48"
       id="radialGradient49"
       cx="26.473891"
       cy="75.906163"
       fx="26.473891"
       fy="75.906163"
       r="17.608838"
       gradientTransform="matrix(1,0,0,0.98800258,0,0.91067787)"
       gradientUnits="userSpaceOnUse" />
    <radialGradient
       inkscape:collect="always"
       xlink:href="#linearGradient48"
       id="radialGradient50"
       gradientUnits="userSpaceOnUse"
       gradientTransform="matrix(1,0,0,0.98800258,0,0.91067787)"
       cx="26.473891"
       cy="75.906163"
       fx="26.473891"
       fy="75.906163"
       r="17.608838" />
  </defs>
  <sodipodi:namedview
     id="namedview48"
     pagecolor="#ffffff"
     bordercolor="#000000"
     borderopacity="0.25"
     inkscape:showpageshadow="2"
     inkscape:pageopacity="0.0"
     inkscape:pagecheckerboard="0"
     inkscape:deskcolor="#d1d1d1"
     inkscape:zoom="4.0546875"
     inkscape:cx="63.013487"
     inkscape:cy="76.824663"
     inkscape:window-width="1366"
     inkscape:window-height="697"
     inkscape:window-x="-8"
     inkscape:window-y="-8"
     inkscape:window-maximized="1"
     inkscape:current-layer="g48" />
  <g
     id="g48">
    <path
       d="m 63.8,9.47 c -62.52,0 -64,70.08 -64,83.95 0,13.88 28.65,25.11 64,25.11 35.35,0 63.99,-11.23 63.99,-25.11 0,-13.87 -1.48,-83.95 -63.99,-83.95 z"
       style="fill:#fcc21b"
       id="path1" />
    <g
       id="g45">
      <path
         d="M 32.5,92.25 C 23.35,95.53 13.26,90.9 9.93,81.87 6.61,72.85 11.31,62.86 20.45,59.56 c 9.12,-3.28 19.23,1.37 22.57,10.39 3.32,9.03 -1.4,19.02 -10.52,22.3 z"
         style="fill:url(#radialGradient49)"
         id="path24" />
    </g>
    <g
       id="g50"
       transform="translate(74.642218)">
      <path
         d="M 32.5,92.25 C 23.35,95.53 13.26,90.9 9.93,81.87 6.61,72.85 11.31,62.86 20.45,59.56 c 9.12,-3.28 19.23,1.37 22.57,10.39 3.32,9.03 -1.4,19.02 -10.52,22.3 z"
         style="fill:url(#radialGradient50)"
         id="path50" />
    </g>
    <path
       d="M64.45,94.1c-19.78,0-28.38-10.38-28.74-10.82c-1.12-1.39-0.9-3.42,0.48-4.54 c1.38-1.11,3.4-0.9,4.52,0.47c0.32,0.38,7.25,8.43,23.73,8.43c15.84,0,22.01-9.27,22.26-9.67c0.96-1.49,2.95-1.93,4.45-0.98 c1.5,0.95,1.95,2.92,1.01,4.43C91.85,81.94,84.02,94.1,64.45,94.1z"
       style="fill:#2F2F2F;"
       id="path48" />
    <path
       d="m 80.755002,52.766859 c 7.669999,0 14.989996,3.84 19.309998,10.47 0.83,1.27 0.47,2.98 -0.800002,3.8 -1.27,0.83 -2.98,0.47 -3.8,-0.81 -4.08912,-6.272369 -11.707023,-9.260098 -18.969996,-7.44 -1.474843,0.371678 -2.971307,-0.524408 -3.34,-2 -0.371678,-1.474843 0.524408,-2.971307 2,-3.34 1.85,-0.45 3.74,-0.68 5.6,-0.68 z m -33.52,0 c 1.86,0 3.75,0.23 5.61,0.7 1.474166,0.370616 2.36931,1.865506 2,3.34 -0.373003,1.472392 -1.865944,2.366368 -3.34,2 -7.262973,-1.820098 -14.880878,1.16763 -18.97,7.44 -0.82857,1.268789 -2.526056,1.630621 -3.8,0.81 -1.27,-0.83 -1.63,-2.53 -0.8,-3.8 4.3,-6.65 11.63,-10.49 19.3,-10.49 z"
       id="path2-2"
       style="fill:#2f2f2f;fill-opacity:1"
       sodipodi:nodetypes="sccccccssccccccs" />
  </g>
</svg>
