<?xml version="1.0" encoding="UTF-8" standalone="no"?>
<!-- Generator: Adobe Illustrator 25.2.3, SVG Export Plug-In . SVG Version: 6.00 Build 0)  -->

<svg
   version="1.1"
   id="Layer_2"
   x="0px"
   y="0px"
   viewBox="0 0 128 128"
   style="enable-background:new 0 0 128 128;"
   xml:space="preserve"
   sodipodi:docname="emoji_u1f94f.svg"
   inkscape:version="1.2.2 (732a01da63, 2022-12-09)"
   xmlns:inkscape="http://www.inkscape.org/namespaces/inkscape"
   xmlns:sodipodi="http://sodipodi.sourceforge.net/DTD/sodipodi-0.dtd"
   xmlns="http://www.w3.org/2000/svg"
   xmlns:svg="http://www.w3.org/2000/svg"><defs
   id="defs2242" /><sodipodi:namedview
   id="namedview2240"
   pagecolor="#ffffff"
   bordercolor="#000000"
   borderopacity="0.25"
   inkscape:showpageshadow="2"
   inkscape:pageopacity="0.0"
   inkscape:pagecheckerboard="0"
   inkscape:deskcolor="#d1d1d1"
   showgrid="false"
   inkscape:zoom="2.9996795"
   inkscape:cx="64.840259"
   inkscape:cy="83.008867"
   inkscape:window-width="1366"
   inkscape:window-height="697"
   inkscape:window-x="-8"
   inkscape:window-y="-8"
   inkscape:window-maximized="1"
   inkscape:current-layer="Layer_2" />
<path
   style="fill:#94d4f1;stroke:none;stroke-width:35.9055;stroke-linecap:round"
   d="m 91.529257,9.3649613 c 6.600369,0 9.133723,1.4361897 9.133723,4.1748767 0,8.558399 -33.649376,4.684501 -33.649376,28.004702 0,10.839364 11.227089,29.951141 11.227089,29.951141 L 40.76003,78.342399 c 0,0 -10.755634,-14.814164 -10.755634,-29.95114 0,-22.137724 25.222836,-39.0262977 61.524861,-39.0262977 z"
   id="path5385"
   sodipodi:nodetypes="sssccss" /><path
   style="fill:#196ca2;stroke-width:1"
   d="m 22.693675,68.208331 -10.189553,2.749175 c 0,0 -3.9216617,7.303589 -2.304461,16.011348 1.445644,7.778906 13.678589,27.081386 50.036355,30.776976 43.162504,4.39062 54.409954,-19.90956 55.693354,-25.782047 1.70568,-7.819644 0.44563,-13.296751 -6.18302,-20.366135 -6.62864,-7.069382 -87.052675,-3.389317 -87.052675,-3.389317 z"
   id="path2217" />
<path
   style="fill:#42ade7;stroke-width:1"
   d="M 62.162083,50.652189 C 34.244476,48.694759 11.399955,62.912526 11.185244,76.541938 10.942624,91.641498 34.381718,108.26944 65.175648,110.02924 96.71574,111.82887 116.59063,95.147592 115.10558,82.274576 113.62054,69.401563 92.91385,52.808079 62.162083,50.652189 Z"
   id="path2219" />



<g
   id="g2229"
   style="fill:#94d4f1;stroke-width:1.13754"
   transform="matrix(0.77538408,0.41422651,-0.41422651,0.77538408,40.244449,8.415244)">
	<path
   style="fill:#94d4f1;stroke-width:1.13754"
   d="m 44.31,79.85 c -11.37,0 -19.58,-4.07 -22.19,-10.11 -3.99,-9.2 4.17,-23.95 26.33,-33.95 v 0 c 21.75,-9.81 41.69,-7.23 47.08,1.71 2.03,3.36 2.54,8.08 0.99,12.79 -3.18,9.67 -13.36,18.3 -27.48,24.16 -9.11,3.78 -17.55,5.4 -24.73,5.4 z M 50.60873,40.244283 C 37.508822,46.332097 24.559999,57.974484 28.523743,67.119535 31.421009,73.811686 46.209507,78.40643 66.783651,69.865717 83.660669,62.86251 88.539807,53.548599 89.766257,49.807038 90.912721,46.323209 90.814961,43.390394 89.401877,41.035254 85.8114,35.080751 70.116395,31.445837 50.60873,40.244283 Z"
   id="path2227"
   sodipodi:nodetypes="scsscccscccccc" />
</g>




</svg>
