<?xml version="1.0" encoding="UTF-8" standalone="no"?>
<svg
   width="128"
   height="128"
   version="1.1"
   id="svg22235"
   sodipodi:docname="emoji_u1f628.svg"
   inkscape:version="1.2.2 (732a01da63, 2022-12-09)"
   xmlns:inkscape="http://www.inkscape.org/namespaces/inkscape"
   xmlns:sodipodi="http://sodipodi.sourceforge.net/DTD/sodipodi-0.dtd"
   xmlns="http://www.w3.org/2000/svg"
   xmlns:svg="http://www.w3.org/2000/svg">
  <defs
     id="defs22239" />
  <sodipodi:namedview
     id="namedview22237"
     pagecolor="#ffffff"
     bordercolor="#000000"
     borderopacity="0.25"
     inkscape:showpageshadow="2"
     inkscape:pageopacity="0.0"
     inkscape:pagecheckerboard="0"
     inkscape:deskcolor="#d1d1d1"
     showgrid="false"
     inkscape:zoom="2.9996795"
     inkscape:cx="46.838336"
     inkscape:cy="86.342556"
     inkscape:window-width="1366"
     inkscape:window-height="697"
     inkscape:window-x="-8"
     inkscape:window-y="-8"
     inkscape:window-maximized="1"
     inkscape:current-layer="svg22235" />
  <linearGradient
     id="a"
     gradientUnits="userSpaceOnUse"
     x1="63.79"
     x2="63.79"
     y1="65.667"
     y2="3.276">
    <stop
       offset="0"
       stop-color="#fcc21b"
       id="stop22212" />
    <stop
       offset=".151"
       stop-color="#e5bf34"
       id="stop22214" />
    <stop
       offset=".473"
       stop-color="#abb973"
       id="stop22216" />
    <stop
       offset=".935"
       stop-color="#4fafd8"
       id="stop22218" />
    <stop
       offset="1"
       stop-color="#42ade7"
       id="stop22220" />
  </linearGradient>
  <path
     d="M63.79 8.64C1.48 8.64 0 78.5 0 92.33c0 13.83 28.56 25.03 63.79 25.03 35.24 0 63.79-11.21 63.79-25.03 0-13.83-1.47-83.69-63.79-83.69z"
     fill="url(#a)"
     id="path22223" />
  <ellipse
     cx="-37.614"
     cy="90.45"
     rx="16.611"
     ry="15.501"
     transform="rotate(-83.65)"
     fill="#fff"
     id="ellipse22225" />
  <path
     d="M91.336 47.296c-.19 2.711-2.58 4.782-5.333 4.618-2.76-.157-4.848-2.498-4.659-5.21.181-2.72 2.564-4.782 5.325-4.618 2.76.157 4.856 2.498 4.667 5.21"
     fill="#2f2f2f"
     id="path22227" />
  <ellipse
     cx="38.569"
     cy="50.443"
     rx="15.5"
     ry="16.611"
     transform="rotate(-4.313)"
     fill="#fff"
     id="ellipse22229" />
  <path
     d="M47.74 46.266c.313 2.707-1.654 5.184-4.394 5.53-2.749.354-5.234-1.564-5.547-4.263-.33-2.708 1.638-5.185 4.386-5.539 2.74-.345 5.234 1.572 5.555 4.272"
     fill="#2f2f2f"
     id="path22231" />
  <path
     d="M 101.32214,85.867 C 94.169195,72.033 82.646939,66.8 68.410747,65.309 67.061401,65.18 65.572656,65.109 64.000054,65.094 a 42.540864,39.062 0 0 0 -4.410694,0.23 c -14.236193,1.49 -25.758448,6.723 -32.911394,20.557 -4.786419,9.261 -3.938041,18.15 2.741163,22.952 3.438163,2.465 10.228453,2.322 14.514993,0.932 4.619793,-1.506 10.422304,-4.143 17.825735,-4.301 0.751451,-0.014 1.502902,0.014 2.226038,0.072 a 21.113607,19.387 0 0 1 2.227128,-0.072 c 7.40343,0.158 13.205942,2.81 17.825735,4.3 4.28654,1.391 11.090988,1.534 14.513903,-0.931 6.708609,-4.817 7.556979,-13.69 2.769479,-22.966 z"
     fill="#ed6c30"
     id="path22233"
     style="stroke-width:1" />
</svg>
