<?xml version="1.0" encoding="UTF-8" standalone="no"?>
<svg
   enable-background="new 0 0 128 128"
   viewBox="0 0 128 128"
   version="1.1"
   id="svg6321"
   sodipodi:docname="emoji_u265f_fe0f.svg"
   xml:space="preserve"
   inkscape:version="1.2.2 (732a01da63, 2022-12-09)"
   xmlns:inkscape="http://www.inkscape.org/namespaces/inkscape"
   xmlns:sodipodi="http://sodipodi.sourceforge.net/DTD/sodipodi-0.dtd"
   xmlns="http://www.w3.org/2000/svg"
   xmlns:svg="http://www.w3.org/2000/svg"><defs
     id="defs6325" /><sodipodi:namedview
     id="namedview6323"
     pagecolor="#ffffff"
     bordercolor="#000000"
     borderopacity="0.25"
     inkscape:showpageshadow="2"
     inkscape:pageopacity="0.0"
     inkscape:pagecheckerboard="0"
     inkscape:deskcolor="#d1d1d1"
     showgrid="false"
     inkscape:zoom="2.9996795"
     inkscape:cx="39.670904"
     inkscape:cy="83.675605"
     inkscape:window-width="1366"
     inkscape:window-height="697"
     inkscape:window-x="-8"
     inkscape:window-y="-8"
     inkscape:window-maximized="1"
     inkscape:current-layer="svg6321" /><radialGradient
     id="e"
     cx="44.5"
     cy="89"
     r="30.537"
     gradientUnits="userSpaceOnUse"><stop
       stop-color="#757575"
       offset=".00018029"
       id="stop6274" /><stop
       stop-color="#1A1A1A"
       offset=".9995"
       id="stop6276" /></radialGradient><path
     d="m93.12 111.75c1.56-1.56 2.76-3.72 2.76-7.69 0-3.96-5.76-6.84-10.45-9.61-4.68-2.76-4.92-6.12-4.8-8.29 0.12-2.16 2.16-3.36 2.28-5.16s-3.96-1.32-6.84-3.72-3.48-20.9-3.24-23.78 2.04-2.64 5.16-3.72 4.56-1.08 4.56-3.24-3.24-3.06-8.47-4.68-3.78-7.56-3.78-7.56c-0.18-0.18-12.43-0.18-12.61 0 0 0 1.44 5.94-3.78 7.57s-8.47 2.52-8.47 4.68 1.44 2.16 4.56 3.24 4.92 0.84 5.16 3.72-0.36 21.38-3.24 23.78-6.97 1.92-6.84 3.72 2.16 3 2.28 5.16-0.12 5.52-4.8 8.29c-4.68 2.76-10.45 5.64-10.45 9.61 0 3.96 1.2 6.12 2.76 7.69 0 0-2.52 1.44-2.52 3.72v6.12s5.89 2.4 31.65 2.4 31.64-2.4 31.64-2.4 0-3.84 0-6.12c0-2.29-2.52-3.73-2.52-3.73z"
     fill="url(#e)"
     id="path6279"
     style="fill:#78a3ad;fill-opacity:1" /><linearGradient
     id="d"
     x1="64"
     x2="64"
     y1="113.25"
     y2="122.25"
     gradientUnits="userSpaceOnUse"><stop
       stop-color="#757575"
       offset="0"
       id="stop6281" /><stop
       stop-color="#6D6D6D"
       offset=".0525"
       id="stop6283" /><stop
       stop-color="#494949"
       offset=".328"
       id="stop6285" /><stop
       stop-color="#2F2F2F"
       offset=".586"
       id="stop6287" /><stop
       stop-color="#202020"
       offset=".8174"
       id="stop6289" /><stop
       stop-color="#1A1A1A"
       offset=".9995"
       id="stop6291" /></linearGradient><path
     d="m93.5 112s-6.25 1.5-30 1.5-29-1.5-29-1.5c-0.7 0.5-2.14 1.75-2.14 3.47v6.12s5.88 2.41 31.64 2.41 31.64-2.4 31.64-2.4 0-3.84 0-6.12c0-1.73-1.44-2.98-2.14-3.48z"
     fill="url(#d)"
     id="path6294"
     style="fill:#006ca2;fill-opacity:1" /><linearGradient
     id="c"
     x1="64"
     x2="64"
     y1="76.583"
     y2="86.596"
     gradientUnits="userSpaceOnUse"><stop
       stop-color="#696969"
       offset=".0018229"
       id="stop6296" /><stop
       stop-color="#1A1A1A"
       offset=".9995"
       id="stop6298" /></linearGradient><linearGradient
     id="b"
     x1="64"
     x2="64"
     y1="34.75"
     y2="49.852"
     gradientUnits="userSpaceOnUse"><stop
       stop-color="#757575"
       offset=".00018029"
       id="stop6303" /><stop
       stop-color="#1A1A1A"
       offset=".9995"
       id="stop6305" /></linearGradient><path
     d="m50.01 49.79c2.2 0.76 3.74 0.87 4.55 1.88h18.88c0.8-1.01 2.35-1.12 4.55-1.88 3.12-1.08 4.56-1.08 4.56-3.24s-3.24-3.06-8.47-4.68-3.78-7.57-3.78-7.57c-0.18-0.18-12.43-0.18-12.61 0 0 0 1.44 5.94-3.78 7.57s-8.47 2.52-8.47 4.68 1.45 2.16 4.57 3.24z"
     fill="url(#b)"
     id="path6308"
     style="fill:#006ca2;fill-opacity:1" /><radialGradient
     id="a"
     cx="59.75"
     cy="15.25"
     r="21.408"
     gradientUnits="userSpaceOnUse"><stop
       stop-color="#757575"
       offset=".1512"
       id="stop6310" /><stop
       stop-color="#1C1C1C"
       offset=".9979"
       id="stop6312" /></radialGradient><circle
     cx="64"
     cy="21.55"
     r="17.55"
     fill="url(#a)"
     id="circle6315"
     style="fill:#37b4e2;fill-opacity:1" /></svg>
