<?xml version="1.0" encoding="UTF-8" standalone="no"?>
<svg
   width="128"
   height="128"
   version="1.1"
   id="svg129986"
   sodipodi:docname="emoji_u1f633.svg"
   inkscape:version="1.2.2 (732a01da63, 2022-12-09)"
   xmlns:inkscape="http://www.inkscape.org/namespaces/inkscape"
   xmlns:sodipodi="http://sodipodi.sourceforge.net/DTD/sodipodi-0.dtd"
   xmlns="http://www.w3.org/2000/svg"
   xmlns:svg="http://www.w3.org/2000/svg">
  <defs
     id="defs129990" />
  <sodipodi:namedview
     id="namedview129988"
     pagecolor="#ffffff"
     bordercolor="#000000"
     borderopacity="0.25"
     inkscape:showpageshadow="2"
     inkscape:pageopacity="0.0"
     inkscape:pagecheckerboard="0"
     inkscape:deskcolor="#d1d1d1"
     showgrid="false"
     inkscape:zoom="2.1210938"
     inkscape:cx="53.510128"
     inkscape:cy="89.10497"
     inkscape:window-width="1366"
     inkscape:window-height="697"
     inkscape:window-x="-8"
     inkscape:window-y="-8"
     inkscape:window-maximized="1"
     inkscape:current-layer="svg129986" />
  <path
     d="M63.79 8.64C1.48 8.64 0 78.5 0 92.33c0 13.83 28.56 25.03 63.79 25.03 35.24 0 63.79-11.21 63.79-25.03 0-13.83-1.47-83.69-63.79-83.69z"
     fill="#fcc21b"
     id="path129880" />
  <g
     id="g130131">
    <path
       d="M109.54 90.9c-9.5 3.41-19.98-1.4-23.44-10.78-3.44-9.37 1.43-19.74 10.93-23.17 9.47-3.41 19.98 1.42 23.45 10.79 3.44 9.39-1.46 19.76-10.94 23.16z"
       fill="#fcc21b"
       id="path129882" />
    <path
       d="M109.31 90.27c-9.15 3.29-19.24-1.35-22.56-10.37-3.31-9.02 1.38-19 10.52-22.3 9.12-3.28 19.23 1.37 22.57 10.39 3.31 9.02-1.41 19-10.53 22.28z"
       fill="#fcc01c"
       id="path129884" />
    <path
       d="M109.07 89.63c-8.79 3.16-18.49-1.29-21.69-9.97C84.2 71 88.72 61.4 97.5 58.23c8.77-3.15 18.48 1.31 21.69 9.98 3.18 8.68-1.35 18.28-10.12 21.42z"
       fill="#fcbe1c"
       id="path129886" />
    <path
       d="M108.84 89c-8.44 3.03-17.74-1.24-20.81-9.57-3.06-8.32 1.27-17.53 9.7-20.57 8.41-3.03 17.74 1.26 20.82 9.58 3.05 8.33-1.29 17.54-9.71 20.56z"
       fill="#fbbb1d"
       id="path129888" />
    <path
       d="M108.61 88.36c-8.08 2.9-17-1.19-19.93-9.17-2.93-7.97 1.22-16.79 9.3-19.7 8.06-2.9 16.99 1.21 19.94 9.18 2.91 7.98-1.25 16.8-9.31 19.69z"
       fill="#fbb91e"
       id="path129890" />
    <path
       d="M108.37 87.73c-7.73 2.78-16.25-1.14-19.06-8.76-2.8-7.62 1.17-16.05 8.89-18.84 7.7-2.77 16.24 1.15 19.06 8.77 2.8 7.63-1.18 16.06-8.89 18.83z"
       fill="#fbb71e"
       id="path129892" />
    <path
       d="M108.14 87.1c-7.37 2.65-15.5-1.09-18.18-8.36-2.67-7.27 1.11-15.31 8.48-17.97 7.35-2.64 15.5 1.1 18.19 8.37 2.66 7.27-1.14 15.32-8.49 17.96z"
       fill="#fbb51f"
       id="path129894" />
    <path
       d="M107.9 86.46c-7.02 2.52-14.76-1.03-17.3-7.96-2.54-6.92 1.06-14.57 8.07-17.1 7-2.52 14.75 1.05 17.31 7.97 2.54 6.92-1.08 14.58-8.08 17.09z"
       fill="#fab220"
       id="path129896" />
    <path
       d="M107.67 85.83c-6.66 2.39-14.01-.98-16.43-7.55-2.41-6.57 1.01-13.84 7.66-16.24 6.64-2.39 14 1 16.43 7.56 2.42 6.57-1.02 13.84-7.66 16.23z"
       fill="#fab020"
       id="path129898" />
    <path
       d="M107.44 85.19c-6.31 2.26-13.26-.93-15.55-7.15-2.28-6.22.95-13.1 7.25-15.37 6.29-2.26 13.26.94 15.56 7.16 2.28 6.22-.97 13.1-7.26 15.36z"
       fill="#faae21"
       id="path129900" />
    <path
       d="M107.2 84.56c-5.95 2.14-12.51-.88-14.68-6.75-2.15-5.87.9-12.36 6.84-14.5 5.93-2.13 12.51.89 14.68 6.76 2.16 5.86-.9 12.36-6.84 14.49z"
       fill="#faac22"
       id="path129902" />
    <path
       d="M106.97 83.92c-5.59 2.01-11.77-.82-13.8-6.35-2.03-5.51.85-11.62 6.44-13.64 5.58-2.01 11.76.84 13.8 6.35 2.02 5.53-.86 11.64-6.44 13.64z"
       fill="#f9a922"
       id="path129904" />
    <path
       d="M106.74 83.29c-5.24 1.88-11.02-.77-12.92-5.94-1.9-5.16.79-10.88 6.03-12.77 5.23-1.88 11.02.78 12.93 5.95 1.88 5.16-.82 10.88-6.04 12.76z"
       fill="#f9a723"
       id="path129906" />
    <path
       d="M106.5 82.65c-4.88 1.75-10.27-.72-12.05-5.54-1.77-4.81.74-10.14 5.62-11.91 4.87-1.75 10.27.73 12.05 5.55 1.77 4.82-.75 10.16-5.62 11.9z"
       fill="#f9a524"
       id="path129908" />
    <path
       d="M106.27 82.02c-4.53 1.63-9.53-.67-11.17-5.14-1.64-4.46.68-9.41 5.21-11.04 4.52-1.62 9.52.68 11.17 5.14 1.64 4.47-.69 9.42-5.21 11.04z"
       fill="#f9a324"
       id="path129910" />
    <path
       d="M106.03 81.39c-4.17 1.5-8.78-.62-10.29-4.74-1.51-4.11.63-8.67 4.8-10.17 4.16-1.5 8.77.63 10.3 4.74 1.51 4.11-.64 8.67-4.81 10.17z"
       fill="#f8a025"
       id="path129912" />
    <path
       d="M105.8 80.75c-3.82 1.37-8.03-.56-9.42-4.33-1.38-3.76.58-7.93 4.39-9.31 3.81-1.37 8.03.57 9.42 4.34 1.39 3.76-.58 7.93-4.39 9.3z"
       fill="#f89e26"
       id="path129914" />
    <path
       d="M105.57 80.12c-3.46 1.24-7.28-.51-8.54-3.93-1.25-3.41.52-7.19 3.98-8.44 3.46-1.24 7.28.52 8.55 3.93 1.25 3.41-.54 7.2-3.99 8.44z"
       fill="#f89c26"
       id="path129916" />
    <path
       d="M105.33 79.48c-3.11 1.12-6.54-.46-7.67-3.53-1.13-3.06.47-6.45 3.57-7.58 3.1-1.11 6.53.47 7.67 3.53 1.14 3.07-.47 6.47-3.57 7.58z"
       fill="#f89a27"
       id="path129918" />
    <path
       d="M105.1 78.85c-2.75.99-5.79-.41-6.79-3.12s.42-5.72 3.17-6.71c2.75-.99 5.79.41 6.79 3.13.99 2.7-.43 5.71-3.17 6.7z"
       fill="#f79728"
       id="path129920" />
    <path
       d="M104.87 78.21c-2.4.86-5.04-.35-5.91-2.72-.87-2.36.36-4.98 2.76-5.84 2.39-.86 5.04.36 5.92 2.72.85 2.36-.38 4.99-2.77 5.84z"
       fill="#f79528"
       id="path129922" />
    <path
       d="M104.63 77.58c-2.04.73-4.3-.3-5.04-2.32-.74-2.01.31-4.24 2.35-4.98 2.04-.73 4.29.31 5.04 2.32.74 2.01-.31 4.25-2.35 4.98z"
       fill="#f79329"
       id="path129924" />
  </g>
  <g
     id="g129970">
    <path
       d="M31.54 90.9c-9.5 3.41-19.98-1.4-23.44-10.78-3.44-9.37 1.43-19.74 10.93-23.17 9.47-3.41 19.98 1.42 23.45 10.79 3.44 9.39-1.46 19.76-10.94 23.16z"
       fill="#fcc21b"
       id="path129926" />
    <path
       d="M31.31 90.27c-9.15 3.29-19.24-1.35-22.56-10.37-3.31-9.02 1.38-19 10.52-22.3 9.12-3.28 19.23 1.37 22.57 10.39 3.31 9.02-1.41 19-10.53 22.28z"
       fill="#fcc01c"
       id="path129928" />
    <path
       d="M31.07 89.63c-8.79 3.16-18.49-1.29-21.69-9.97C6.2 71 10.72 61.4 19.5 58.23c8.77-3.15 18.48 1.31 21.69 9.98 3.18 8.68-1.35 18.28-10.12 21.42z"
       fill="#fcbe1c"
       id="path129930" />
    <path
       d="M30.84 89c-8.44 3.03-17.74-1.24-20.81-9.57-3.06-8.32 1.27-17.53 9.7-20.57 8.41-3.03 17.74 1.26 20.82 9.58 3.05 8.33-1.29 17.54-9.71 20.56z"
       fill="#fbbb1d"
       id="path129932" />
    <path
       d="M30.61 88.36c-8.08 2.9-17-1.19-19.93-9.17-2.93-7.97 1.22-16.79 9.3-19.7 8.06-2.9 16.99 1.21 19.94 9.18 2.91 7.98-1.25 16.8-9.31 19.69z"
       fill="#fbb91e"
       id="path129934" />
    <path
       d="M30.37 87.73c-7.73 2.78-16.25-1.14-19.06-8.76-2.8-7.62 1.17-16.05 8.89-18.84 7.7-2.77 16.24 1.15 19.06 8.77 2.8 7.63-1.18 16.06-8.89 18.83z"
       fill="#fbb71e"
       id="path129936" />
    <path
       d="M30.14 87.1c-7.37 2.65-15.5-1.09-18.18-8.36-2.67-7.27 1.11-15.31 8.48-17.97 7.35-2.64 15.5 1.1 18.19 8.37 2.66 7.27-1.14 15.32-8.49 17.96z"
       fill="#fbb51f"
       id="path129938" />
    <path
       d="M29.9 86.46c-7.02 2.52-14.76-1.03-17.3-7.96-2.54-6.92 1.06-14.57 8.07-17.1 7-2.52 14.75 1.05 17.31 7.97 2.54 6.92-1.08 14.58-8.08 17.09z"
       fill="#fab220"
       id="path129940" />
    <path
       d="M29.67 85.83c-6.66 2.39-14.01-.98-16.43-7.55-2.41-6.57 1.01-13.84 7.66-16.24 6.64-2.39 14 1 16.43 7.56 2.42 6.57-1.02 13.84-7.66 16.23z"
       fill="#fab020"
       id="path129942" />
    <path
       d="M29.44 85.19c-6.31 2.26-13.26-.93-15.55-7.15-2.28-6.22.95-13.1 7.25-15.37 6.29-2.26 13.26.94 15.56 7.16 2.28 6.22-.97 13.1-7.26 15.36z"
       fill="#faae21"
       id="path129944" />
    <path
       d="M29.2 84.56c-5.95 2.14-12.51-.88-14.68-6.75-2.15-5.87.9-12.36 6.84-14.5 5.93-2.13 12.51.89 14.68 6.76 2.16 5.86-.9 12.36-6.84 14.49z"
       fill="#faac22"
       id="path129946" />
    <path
       d="M28.97 83.92c-5.59 2.01-11.77-.82-13.8-6.35-2.03-5.51.85-11.62 6.44-13.64 5.58-2.01 11.76.84 13.8 6.35 2.02 5.53-.86 11.64-6.44 13.64z"
       fill="#f9a922"
       id="path129948" />
    <path
       d="M28.74 83.29c-5.24 1.88-11.02-.77-12.92-5.94-1.9-5.16.79-10.88 6.03-12.77 5.23-1.88 11.02.78 12.93 5.95 1.88 5.16-.82 10.88-6.04 12.76z"
       fill="#f9a723"
       id="path129950" />
    <path
       d="M28.5 82.65c-4.88 1.75-10.27-.72-12.05-5.54-1.77-4.81.74-10.14 5.62-11.91 4.87-1.75 10.27.73 12.05 5.55 1.77 4.82-.75 10.16-5.62 11.9z"
       fill="#f9a524"
       id="path129952" />
    <path
       d="M28.27 82.02c-4.53 1.63-9.53-.67-11.17-5.14-1.64-4.46.68-9.41 5.21-11.04 4.52-1.62 9.52.68 11.17 5.14 1.64 4.47-.69 9.42-5.21 11.04z"
       fill="#f9a324"
       id="path129954" />
    <path
       d="M28.03 81.39c-4.17 1.5-8.78-.62-10.29-4.74-1.51-4.11.63-8.67 4.8-10.17 4.16-1.5 8.77.63 10.3 4.74 1.51 4.11-.64 8.67-4.81 10.17z"
       fill="#f8a025"
       id="path129956" />
    <path
       d="M27.8 80.75c-3.82 1.37-8.03-.56-9.42-4.33-1.38-3.76.58-7.93 4.39-9.31 3.81-1.37 8.03.57 9.42 4.34 1.39 3.76-.58 7.93-4.39 9.3z"
       fill="#f89e26"
       id="path129958" />
    <path
       d="M27.57 80.12c-3.46 1.24-7.28-.51-8.54-3.93-1.25-3.41.52-7.19 3.98-8.44 3.46-1.24 7.28.52 8.55 3.93 1.25 3.41-.54 7.2-3.99 8.44z"
       fill="#f89c26"
       id="path129960" />
    <path
       d="M27.33 79.48c-3.11 1.12-6.54-.46-7.67-3.53-1.13-3.06.47-6.45 3.57-7.58 3.1-1.11 6.53.47 7.67 3.53 1.14 3.07-.47 6.47-3.57 7.58z"
       fill="#f89a27"
       id="path129962" />
    <path
       d="M27.1 78.85c-2.75.99-5.79-.41-6.79-3.12s.42-5.72 3.17-6.71c2.75-.99 5.79.41 6.79 3.13.99 2.7-.43 5.71-3.17 6.7z"
       fill="#f79728"
       id="path129964" />
    <path
       d="M26.87 78.21c-2.4.86-5.04-.35-5.91-2.72-.87-2.36.36-4.98 2.76-5.84 2.39-.86 5.04.36 5.92 2.72.85 2.36-.38 4.99-2.77 5.84z"
       fill="#f79528"
       id="path129966" />
    <path
       d="M26.63 77.58c-2.04.73-4.3-.3-5.04-2.32-.74-2.01.31-4.24 2.35-4.98 2.04-.73 4.29.31 5.04 2.32.74 2.01-.31 4.25-2.35 4.98z"
       fill="#f79329"
       id="path129968" />
  </g>
  <g
     id="g56773">
    <ellipse
       transform="matrix(0.11060166,0.99386482,0.99386482,-0.11060166,0,0)"
       ry="18.566364"
       rx="19.895958"
       cy="81.221436"
       cx="64.257271"
       fill="#ffffff"
       id="ellipse129972"
       style="stroke-width:1.00019" />
    <path
       d="m 95.112926,54.880079 c -0.275501,3.952839 -3.761186,6.97137 -7.773916,6.731804 -4.024709,-0.227587 -7.067197,-3.641403 -6.791697,-7.594242 0.263523,-3.964817 3.73723,-6.971371 7.761939,-6.731805 4.024709,0.227588 7.079175,3.641404 6.803674,7.594243"
       fill="#2f2f2f"
       id="path129974"
       style="stroke-width:1.00019" />
    <ellipse
       transform="matrix(0.9971681,0.07520498,0.07520498,-0.9971681,0,0)"
       ry="19.895958"
       rx="18.566366"
       cy="-51.76075"
       cx="43.755634"
       fill="#ffffff"
       id="ellipse129978"
       style="stroke-width:1.00019" />
    <path
       d="m 46.976265,53.356758 c 0.455175,3.940861 -2.39566,7.546329 -6.396412,8.049417 -4.000752,0.515067 -7.618199,-2.275877 -8.073374,-6.204759 -0.479132,-3.940861 2.383681,-7.546329 6.384433,-8.061396 3.988774,-0.503088 7.618199,2.287855 8.085353,6.216738"
       fill="#2f2f2f"
       id="path129980"
       style="stroke-width:1.00019" />
  </g>
  <path
     d="M 54.701259,85.129284 H 73.298751"
     fill="none"
     fill-rule="evenodd"
     stroke="#2f2f2f"
     stroke-width="7.38"
     stroke-linecap="round"
     stroke-linejoin="round"
     id="path129984"
     style="stroke-width:5.99998;stroke-dasharray:none" />
</svg>
