<?xml version="1.0" encoding="UTF-8" standalone="no"?>
<svg
   width="128"
   height="128"
   version="1.1"
   id="svg20"
   sodipodi:docname="emoji_u1f411.svg"
   inkscape:version="1.3 (0e150ed6c4, 2023-07-21)"
   xmlns:inkscape="http://www.inkscape.org/namespaces/inkscape"
   xmlns:sodipodi="http://sodipodi.sourceforge.net/DTD/sodipodi-0.dtd"
   xmlns="http://www.w3.org/2000/svg"
   xmlns:svg="http://www.w3.org/2000/svg">
  <defs
     id="defs20" />
  <sodipodi:namedview
     id="namedview20"
     pagecolor="#ffffff"
     bordercolor="#000000"
     borderopacity="0.25"
     inkscape:showpageshadow="2"
     inkscape:pageopacity="0.0"
     inkscape:pagecheckerboard="0"
     inkscape:deskcolor="#d1d1d1"
     showguides="false"
     inkscape:zoom="4.0546875"
     inkscape:cx="61.780347"
     inkscape:cy="63.013487"
     inkscape:window-width="1366"
     inkscape:window-height="697"
     inkscape:window-x="-8"
     inkscape:window-y="-8"
     inkscape:window-maximized="1"
     inkscape:current-layer="svg20" />
  <path
     d="M105.62 100.4c1.18 2.81 2.44 5.67 4.36 8.07 1.03 1.3 2.32 2.48 3.9 3.04 1.7.61 3.51.35 5.12-.39 1.43-.66 2.16-1.73 2.21-3.29.12-4-.88-7.9-1.73-11.78-.81-3.73-1.21-7.52-1.8-11.3-.31-1.96-4.15-.57-5.36-.21-1.98.6-3.93 1.46-5.7 2.53-.76.46-1.47.94-1.97 1.69-.37.57-.52 1.04-.68 1.68-.86 3.4.33 6.84 1.65 9.96zM82.79 105.85c.2.96.44 1.9.75 2.78.45 1.3 1.3 2.27 2.56 2.84 3 1.37 7.24-.02 8.27-3.31 1.14-3.62 2.25-7.68 2.24-11.51 0-.29.22-.83.08-1.08-.16-.3-.72-.14-.99-.14-.71 0-1.38.03-2.08.1-.51.05-1.02.04-1.53.09-.46.04-.91.08-1.38.09-.54.01-1.07.12-1.62.17-.59.05-1.19 0-1.78.05-1.17.09-2.48.14-3.62.42-.65.16-1.06.37-1.35.99-.29.6-.16 1.39-.16 2.03-.01 2.07.17 4.34.61 6.48zM54.75 110.92c.22 1.32.46 2.63.69 3.94.15.87.23 1.83.52 2.67 1.98 5.66 7.2 8.59 11.91 5 2.29-1.75 2.53-5.01 2.54-7.66.01-2.58.03-5.17-.04-7.75-.06-2.27.05-4.82-.5-7.02-.18-.74-.91-1.01-1.59-1.04-1.95-.05-3.92.04-5.86.21-1.51.13-3.02.55-4.5.84-1.2.24-2.41.76-3.38 1.49-1.27.97-.47 4.43-.32 5.75.14 1.21.33 2.39.53 3.57zM23.09 101.97c-.84 2.17-1.72 4.33-2.62 6.48-.82 1.96-2.61 5.59-1.61 7.77 2.31 5 8.66 3.76 12.08.78 1.85-1.61 3.26-3.65 4.59-5.7 2.08-3.2 4.25-6.72 3.77-10.67-.14-1.18-1.19-1.45-2.19-1.91-.47-.21-.86-.56-1.31-.81-.41-.24-.87-.36-1.31-.52-.42-.15-.8-.39-1.21-.58-.39-.19-.8-.27-1.21-.42-1.42-.54-3-1.28-4.53-1.28-.53 0-1.14-.11-1.61.17-.91.54-1.14 2.04-1.46 2.95-.44 1.25-.9 2.5-1.38 3.74z"
     fill="#2f2f2f"
     id="path16" />
  <path
     d="M125.48 69.32c1-3.23.67-6.99-.86-9.83-.85-1.58-1.94-2.9-3.27-3.92-.66-.51-1.34-.81-1.98-1.04.56-1.24 1.21-3.01 1.22-4.99.02-3.03-1.14-6.12-3.25-8.69-1.49-1.82-3.08-2.7-4.86-3.59-.31-.16-.65-.29-.98-.43 0 0-.34-.14-.33-.19.61-2.27.92-4.05.98-5.59.14-3.41-1.36-6.93-4.23-9.91-3.65-3.8-8.98-6.25-13.58-6.25-.81 0-1.52.15-2.15.28l-.5.1c-.19-.29-.44-.72-.6-1.02-.38-.69-.78-1.41-1.31-1.95-1.49-1.56-3.36-2.8-5.74-3.78-3.77-1.53-8.16-2.02-12.22-1.36-2 .33-3.73 1.12-5.27 1.97-2.6-3.33-6.93-5.25-12.09-5.25-2.77 0-5.47.58-7.78 1.67-.33.16-2.16 1.05-3.68 2.23C40.86 6.71 38.94 6 36.59 6c-1.26 0-2.55.22-3.94.65-2.83.88-5.47 2.5-7.35 4.81-.89 1.09-1.59 2.33-2.05 3.66-.44 1.28-.44 3.83-1.6 4.58-1.43.93-3.08 1.39-4.47 2.45-.46.35-.96.48-1.42.8-.42.3-.77.78-1.17 1.13-.58.51-1.18.87-1.69 1.49-1.01 1.22-1.91 2.29-2.57 3.76-1.18 2.62-1.52 5.49-1.93 8.29-.11.7.11 1.46.02 2.16-.09.74-.2 1.39-.2 2.16 0 2.22-.12 4.48.66 6.59.77 2.11-.86 2.96-1.65 4.8-.41.98-.65 2.02-.88 3.04-.31 1.36-.38 2.65-.38 4.08 0 1.57.78 2.88.98 4.39.2 1.55.88 2.81 1.77 4.11.23.33.54.69.87 1.06l.33.36-.04.08c-2.3 4.56-2 10.35.76 14.75 1.38 2.21 3.35 4.06 5.85 5.45.1.06.12 1.53.15 1.73.09.58.22 1.16.38 1.73a13.899 13.899 0 0 0 3.55 5.93c1.65 1.66 4.46 3 6.66 3.69 1.87.59 3.92.57 5.73 1.38 2.19.97 4.09 2.47 6.26 3.49 1.16.55 2.37 1 3.59 1.36 2.48.74 5.07 1.12 7.66 1.12 2.63 0 5.28-.36 7.77-1.22 2.7-.92 5.54-2.58 7.78-4.34.23-.18.5-.44.76-.55.64-.28 1.83.43 2.47.62 1.01.3 2.04.5 3.09.63 5.79.71 12.08-.99 16.91-4.21.75-.5 1.47-1.32 2.35-1.6 1.02-.32 2.09.41 3.07.58 3.09.55 6.29.22 9.25-.76 3.73-1.23 5.83-4.25 7.31-7.69.28-.65 1.32-.87 1.89-1.15 2.14-1.05 4.45-1.85 5.88-3.87 1.23-1.72 1.77-3.79 2.1-5.86.15-.94.27-1.89.24-2.84-.03-.94-.5-1.93-.5-2.83 0 0-.08-.24-.2-.59 2.28-1.2 4-3.35 4.84-6.08z"
     fill="#e0e0e0"
     id="path17" />
  <path
     d="M42.35 71.45c.26-.05.54-.08.79-.14.67-.16 1.31-.3 1.96-.54 1.21-.43 2.96-1.41 2.79-2.93-.1-.93-.7-1.39-1.63-1.12-.28.08-.58.18-.87.29-.79.29-1.45.82-2.25 1.08-1.61.52-3.36.61-4.8-.39-1.06-.75-2-2.8-3.55-2.64-1.35.12-1.05 1.79-.63 2.63.69 1.35 1.95 1.99 3.04 2.93l.57.42.2.55.01.47c-.02 1.82-.83 4.6 1.59 4.99.31.05.64.01.95.01l1.01-.12c-.2-.24-.4-.51-.44-.84-.11-.8-.21-1.65-.25-2.46-.01-.41-.18-1.74.32-1.97.35-.19.8-.14 1.19-.22zM33.53 47.82c-2.19-.87-4.77.61-5.76 3.27-.99 2.68.01 5.54 2.2 6.41 2.18.83 4.76-.61 5.73-3.29 1-2.66.02-5.54-2.17-6.39zM59.54 55.75c-.05-2.85-2.02-5.16-4.36-5.15-2.35 0-4.21 2.32-4.15 5.15.06 2.85 2.03 5.16 4.39 5.16 2.33-.02 4.19-2.32 4.12-5.16z"
     fill="#e0e0e0"
     id="path18" />
  <path
     d="M71.99 44.82c.05-.65 0-1.25-.2-1.73-.51-1.2-2.16-.04-2.77.42-1.87 1.42-12 5.35-11.76-.52.04-.89.74-1.62.26-2.61-.29-.61-.67-.75-1.31-.67-1.36.15-2.45 1.35-3.68 1.84-2.09.84-3.97 1.63-6.3 1.24-1.21-.21-2.82-.82-3.61-1.8-.63-.77-.86-3.75-2.24-3.79-.77-.03-1.35.64-1.78 1.2-.52.66-.83 1-1.62 1.44-2.01 1.12-4.78 1.91-7.09 1.67-1.18-.12-2.28-.41-3.04-1.37-.54-.69-.58-3.4-1.8-3.29-.73.06-1.23.84-1.54 1.8-1.02 3.15-1.06 6.86-1.36 10.14-.69 7.47-1.85 15.58 1.91 22.48 2.97 5.45 9.73 8.14 16.08 8.9 4.5.54 9.11.15 13.36-1.48 3.94-1.52 7.42-4.05 10.24-7.18 3.34-3.7 4.19-9.36 5.57-14 1.2-4.06 2.37-8.44 2.68-12.69zM29.97 57.5c-2.19-.87-3.18-3.73-2.2-6.41.99-2.65 3.57-4.13 5.76-3.27 2.19.85 3.17 3.73 2.17 6.39-.97 2.68-3.55 4.13-5.73 3.29zM45.1 70.77c-.65.24-1.29.38-1.96.54-.25.06-.53.1-.79.14-.38.08-.84.03-1.2.2-.49.23-.33 1.56-.32 1.97.04.81.14 1.66.25 2.46.04.34.25.6.44.84l-1.01.12c-.31 0-.64.04-.95-.01-2.42-.39-1.61-3.17-1.59-4.99l-.01-.47-.2-.55-.57-.42c-1.1-.94-2.36-1.58-3.04-2.93-.42-.84-.72-2.51.63-2.63 1.56-.16 2.49 1.89 3.55 2.64 1.45 1 3.19.91 4.8.39.8-.26 1.46-.78 2.25-1.08.29-.1.6-.21.87-.29.92-.26 1.52.2 1.63 1.12.18 1.54-1.57 2.52-2.78 2.95zm10.31-9.86c-2.36 0-4.33-2.31-4.39-5.16-.06-2.84 1.8-5.16 4.15-5.15 2.35-.01 4.32 2.3 4.36 5.15.08 2.84-1.78 5.14-4.12 5.16z"
     fill="#2f2f2f"
     id="path19" />
  <path
     style="fill:#2f2f2f;fill-opacity:1;stroke-width:6;stroke-linecap:round"
     d="m 23.845858,37.926782 c -1.136941,1.483167 -3.647722,1.786536 -5.780347,1.595376 -3.029622,-0.271564 -4.179998,-1.537124 -6.102763,-2.114398 -3.6139301,-1.085014 -2.5404283,5.595166 2.464467,9.890665 3.091755,2.653528 7.474673,2.705429 7.337717,7.144735"
     id="path20"
     sodipodi:nodetypes="csssc" />
  <path
     style="fill:#2f2f2f;fill-opacity:1;stroke-width:6;stroke-linecap:round"
     d="m 72.035252,43.797852 c -2.017165,10.33254 13.164048,4.484138 14.057708,6.15169 3.159814,5.896144 -11.702436,10.458914 -14.331557,11.226551 -2.885991,0.842637 -4.691847,4.709995 -5.163296,4.32695 -6.562681,-5.332068 2.569568,-23.700979 5.437145,-21.705191 z"
     id="path21"
     sodipodi:nodetypes="csssc" />
</svg>
