<?xml version="1.0" encoding="UTF-8" standalone="no"?>
<svg
   width="128"
   height="128"
   version="1.1"
   id="svg3"
   sodipodi:docname="emoji_u1f928.svg"
   inkscape:version="1.3 (0e150ed6c4, 2023-07-21)"
   xmlns:inkscape="http://www.inkscape.org/namespaces/inkscape"
   xmlns:sodipodi="http://sodipodi.sourceforge.net/DTD/sodipodi-0.dtd"
   xmlns="http://www.w3.org/2000/svg"
   xmlns:svg="http://www.w3.org/2000/svg">
  <defs
     id="defs3" />
  <sodipodi:namedview
     id="namedview3"
     pagecolor="#ffffff"
     bordercolor="#000000"
     borderopacity="0.25"
     inkscape:showpageshadow="2"
     inkscape:pageopacity="0.0"
     inkscape:pagecheckerboard="0"
     inkscape:deskcolor="#d1d1d1"
     inkscape:zoom="8.515625"
     inkscape:cx="64"
     inkscape:cy="64"
     inkscape:current-layer="svg3" />
  <path
     fill="#fcc21b"
     d="m 122.86787,42.739876 c -9.11,-18.650004 -32.760002,-32.04 -58.660004,-32.04 -25.889999,0 -49.55,13.389996 -58.6599998,32.029984 -13.829998,28.310022 4.150001,54.860032 4.150001,54.860032 l 0.05,0.0302 c 3.4099998,10.890018 26.4599998,19.330018 54.4599998,19.330018 27.990001,0 51.040003,-8.43002 54.460003,-19.320008 0.01,0 0.04,-0.0401 0.04,-0.0401 0,0 17.98,-26.55001 4.16,-54.850017 z"
     id="path1-1"
     style="stroke-width:0.999999" />
  <path
     d="M38.496 43.904c-2.697 1.599-4.542 4.927-4.506 8.776.05 5.35 3.73 9.66 8.22 9.62 4.49-.05 8.09-4.42 8.04-9.77-.034-3.704-1.8-6.9-4.361-8.516-3.067.179-5.586.072-7.393-.11zM86.32 62.3c4.48-.01 8.11-4.36 8.1-9.71-.01-5.37-3.66-9.7-8.14-9.69-4.49.01-8.13 4.36-8.12 9.73.02 5.35 3.67 9.68 8.16 9.67zM77.306 84.75H50.375c-.926 0-2.372-1.34-2.372-3s1.446-3 2.372-3H77.31c.926 0 2.696 1.34 2.696 3s-1.775 3-2.701 3z"
     fill="#2f2f2f"
     id="path2" />
  <path
     style="line-height:normal;font-variant-ligatures:normal;font-variant-position:normal;font-variant-caps:normal;font-variant-numeric:normal;font-variant-alternates:normal;font-variant-east-asian:normal;font-feature-settings:normal;text-indent:0;text-align:start;text-decoration-line:none;text-decoration-style:solid;text-decoration-color:#000;text-transform:none;text-orientation:mixed;shape-padding:0;isolation:auto;mix-blend-mode:normal;filter-blend-mode:normal;filter-gaussianBlur-deviation:0"
     d="M49.975 36.709a2.09 2.09 0 0 0-.356.023c-8.054 1.215-12.588.04-12.588.04a2.09 2.09 0 0 0-2.537 1.517 2.09 2.09 0 0 0 1.518 2.535s5.525 1.354 14.23.041a2.09 2.09 0 0 0 1.754-2.379 2.09 2.09 0 0 0-2.021-1.777zM84.602 27.81a10.387 10.387 0 0 0-2.832.641c-3.388 1.297-5.215 3.904-5.215 3.904a2.09 2.09 0 0 0 .49 2.916 2.09 2.09 0 0 0 2.914-.49s1.18-1.612 3.305-2.426c2.123-.813 5.09-1.054 9.68 2.813a2.09 2.09 0 0 0 2.945-.252 2.09 2.09 0 0 0-.252-2.945c-4.072-3.431-7.931-4.425-11.035-4.16z"
     color="#000"
     font-weight="400"
     font-family="sans-serif"
     white-space="normal"
     overflow="visible"
     fill="#2f2f2f"
     fill-rule="evenodd"
     stroke-width="4.18"
     stroke-linecap="round"
     stroke-linejoin="round"
     id="path3" />
</svg>
