<?xml version="1.0" encoding="UTF-8" standalone="no"?>
<svg
   width="128"
   height="128"
   version="1.1"
   id="svg67976"
   sodipodi:docname="emoji_u1f58c.svg"
   inkscape:version="1.2.2 (732a01da63, 2022-12-09)"
   xmlns:inkscape="http://www.inkscape.org/namespaces/inkscape"
   xmlns:sodipodi="http://sodipodi.sourceforge.net/DTD/sodipodi-0.dtd"
   xmlns:xlink="http://www.w3.org/1999/xlink"
   xmlns="http://www.w3.org/2000/svg"
   xmlns:svg="http://www.w3.org/2000/svg">
  <sodipodi:namedview
     id="namedview67978"
     pagecolor="#ffffff"
     bordercolor="#000000"
     borderopacity="0.25"
     inkscape:showpageshadow="2"
     inkscape:pageopacity="0.0"
     inkscape:pagecheckerboard="0"
     inkscape:deskcolor="#d1d1d1"
     showgrid="false"
     inkscape:zoom="2.9996795"
     inkscape:cx="36.337215"
     inkscape:cy="69.007371"
     inkscape:window-width="1366"
     inkscape:window-height="697"
     inkscape:window-x="-8"
     inkscape:window-y="-8"
     inkscape:window-maximized="1"
     inkscape:current-layer="svg67976" />
  <defs
     id="defs67953">
    <path
       id="a"
       d="M40.97 80.92c-6.3-1.36-13.54.35-18.58 4.98-5.24 4.79-6.36 11.91-7.7 18.53-.74 3.6-1.02 8.75-4.15 11.21-1.41 1.11-2.71 1.17-4.35 1.09-.64-.03-3.62-1.05-2.77.91 1.61 3.74 9.63 6.01 13.1 6.79 9.33 2.08 19.33-.46 26.76-6.41.77-.63 1.52-1.29 2.23-1.98 5.74-5.57 10.04-14.12 8.4-22.22-1.48-7.32-6.77-11.57-12.94-12.9z" />
    <clipPath
       id="c-3">
      <use
         xlink:href="#b-7"
         overflow="visible"
         id="use67773" />
    </clipPath>
    <path
       id="b-7"
       d="m 73.56,88.64 c -5.05,-0.2 -10.42,2.1 -13.7,6.37 -3.4,4.42 -3.3,10.08 -3.44,15.38 -0.08,2.88 0.4,6.9 -1.69,9.24 -0.94,1.05 -1.93,1.27 -3.21,1.43 -0.5,0.06 -2.94,-0.32 -2.02,1.08 1.75,2.67 8.26,3.35 11.05,3.47 7.5,0.34 14.88,-2.98 19.83,-8.59 0.51,-0.59 1,-1.2 1.46,-1.83 3.69,-5.08 5.85,-12.28 3.48,-18.33 -2.14,-5.45 -6.8,-8.03 -11.76,-8.22 z" />
    <clipPath
       id="c-6">
      <use
         xlink:href="#b-2"
         overflow="visible"
         id="use67773-7" />
    </clipPath>
    <clipPath
       id="e">
      <use
         xlink:href="#d-0"
         overflow="visible"
         id="use67787" />
    </clipPath>
    <path
       id="b-2"
       d="m 73.56,88.64 c -5.05,-0.2 -10.42,2.1 -13.7,6.37 -3.4,4.42 -3.3,10.08 -3.44,15.38 -0.08,2.88 0.4,6.9 -1.69,9.24 -0.94,1.05 -1.93,1.27 -3.21,1.43 -0.5,0.06 -2.94,-0.32 -2.02,1.08 1.75,2.67 8.26,3.35 11.05,3.47 7.5,0.34 14.88,-2.98 19.83,-8.59 0.51,-0.59 1,-1.2 1.46,-1.83 3.69,-5.08 5.85,-12.28 3.48,-18.33 -2.14,-5.45 -6.8,-8.03 -11.76,-8.22 z" />
    <path
       id="d-0"
       d="m 102.54,68.36 c -0.96,-2.01 -2.82,-3.14 -4.45,-4.14 -0.42,-0.26 -0.84,-0.51 -1.22,-0.77 -2.58,-1.77 -4.79,-2.2 -6.57,-1.35 -2.67,1.28 -4.56,4.66 -6.09,7.38 -0.42,0.74 -0.8,1.42 -1.15,1.98 -2.87,4.47 -5.64,7.9 -10.54,11.2 l -0.42,0.27 c -1.11,0.71 -2.63,1.69 -2.75,3.46 -0.05,0.75 0.16,1.88 1.47,2.99 1.43,1.21 3,1.95 4.52,2.66 0.54,0.25 1.09,0.51 1.62,0.79 1.75,0.92 3.34,2.13 5.03,3.42 l 1,0.75 c 0.26,0.19 0.52,0.45 0.8,0.7 0.78,0.73 1.75,1.65 3.01,2 0.43,0.12 0.81,0.18 1.15,0.18 1.36,0 2.04,-0.84 2.41,-1.29 l 0.15,-0.18 c 1.46,-1.71 2.18,-4 2.81,-6.02 0.3,-0.98 0.59,-1.91 0.93,-2.69 0.54,-1.23 1.05,-2.47 1.56,-3.71 1.12,-2.74 2.18,-5.33 3.55,-7.8 0.32,-0.59 0.79,-1.2 1.29,-1.84 1.47,-1.94 3.5,-4.6 1.89,-7.99 z" />
  </defs>
  <use
     xlink:href="#a"
     overflow="visible"
     fill="#855c52"
     id="use67955"
     style="fill:#ffffff;fill-opacity:1" />
  <clipPath
     id="b">
    <use
       xlink:href="#a"
       overflow="visible"
       id="use67957" />
  </clipPath>
  <path
     d="M28 97.84c.09.33.14.73.12 1.24-.13 3.05 2.03 4.11 4.74 4.59 2.75.48 6.28.48 5.63 4.16-.29 1.58-1.25 2.62.17 3.86 2.13 1.87 6.75 2.33 9.33 1.22 1.59-.69 3.75-1.18 2.38 1.33-.79 1.45-2.07 2.69-3.08 4.01-1.11 1.44-2.38 2.53-3.85 3.59-1.08.79-1.9 1.79-3.1 2.42-3.06 1.57-6.68 1.59-10.01 2.07-4.46.64-8.92 2.39-13.21.33-4.54-2.18-9.85-2.55-14.28-4.93-2.18-1.17-3.38-2.84-2.59-5.27.68-2.09 2.3-2.63 4.33-2.72 2.29-.1 4.2-.38 5.61-2.4 1.21-1.72 1.08-4.55 1.3-6.54.29-2.72.5-5.63 1.65-8.15.96-2.08 1.99-4.15 3.29-6.05.61-.89 1.28-1.99 2.13-2.67 1.32-1.06 2.76-1.4 4.35-1.8.26 1.28-1.07 2.99-1.45 4.17-.65 2.02-.98 4.25.98 5.46 1.89 1.16 4.93-.18 5.56 2.08z"
     clip-path="url(#b)"
     fill="#ed6c30"
     id="path67960" />
  <path
     d="M64.07 56.13c8.55-6.93 21.61-22.09 29.56-29.73 4.88-4.68 9.5-9.72 14.13-14.6 2.93-3.09 7.35-8.65 12.25-7.69.85.17 1.56.66 2.16 1.27 1.33 1.35.86 3.93.08 5.46-3.12 6.11-7.95 11.64-12.13 17.06-1.6 2.08-3.2 4.14-4.87 6.17-4.86 5.94-15.97 18.07-20.57 24.22-1.79 2.4-3.51 4.84-5.13 7.35-1.01 1.55-2.36 2.79-3.11 4.48-.76 1.72-3.96-4.07-4.13-4.51-.65-1.71-1.36-2.67-2.92-3.52-1.12-.6-7.35-2.63-6.48-4.57.22-.52.65-.98 1.16-1.39z"
     fill="#196ca2"
     id="path67962"
     style="fill:#855c52;fill-opacity:1" />
  <g
     id="g67974">
    <defs
       id="defs67965">
      <path
         id="c"
         d="M75.68 68.17C74.47 65.6 72.83 63.61 71 62c-.47-.42-.94-.82-1.36-1.24-2.84-2.79-5.53-3.82-7.95-3.14-3.63 1.02-4.71 2.61-7.22 5.68-.68.84-1.31 1.61-1.88 2.23-4.58 4.97-4.74 4.6-11.61 7.66l-.58.24c-1.55.65-3.67 1.54-4.21 3.73-.23.94-.21 2.4 1.19 4.07 1.53 1.83 3.34 3.1 5.08 4.33.63.44 1.25.88 1.86 1.35 1.99 1.53 3.72 3.41 5.55 5.39l1.08 1.17c.29.3.55.68.85 1.06.82 1.09 1.83 2.45 3.33 3.17.52.25.97.4 1.41.48 1.7.3 2.75-.6 3.3-1.09l.23-.19c2.21-1.83 3.94-5.39 4.92-7.9.62-1.6.57-2 1-3 1.15-2.63 2.99-4.61 4-6 2-2.75 2.81-3.78 3.58-4.48 2.28-2.1 3.43-4.52 2.11-7.35z" />
    </defs>
    <use
       xlink:href="#c"
       overflow="visible"
       fill="#c7e4ea"
       id="use67967"
       style="fill:#78a3ad;fill-opacity:1" />
    <clipPath
       id="d">
      <use
         xlink:href="#c"
         overflow="visible"
         id="use67969" />
    </clipPath>
    <path
       d="M63.99 98.16c-.9-.16-1.71-.75-2.12-1.65-.49-1.11-.72-2.15-.93-3.09-.19-.84-.34-1.57-.67-2.18-2.98-5.64-7.05-9.9-14.03-14.7-2.09-1.44-4.06-2.32-5.82-2.63a2.862 2.862 0 0 1-2.33-3.32c.27-1.56 1.76-2.6 3.33-2.33 2.57.45 5.29 1.65 8.07 3.55 5.44 3.74 11.59 8.66 15.87 16.76.68 1.3.96 2.54 1.19 3.63.17.75.31 1.4.57 1.97.65 1.44 0 3.14-1.44 3.79-.57.24-1.14.3-1.69.2z"
       clip-path="url(#d)"
       fill="#78a3ad"
       id="path67972"
       style="fill:#2f2f2f;fill-opacity:1" />
  </g>
</svg>
