<?xml version="1.0" encoding="UTF-8" standalone="no"?>
<svg
   width="128"
   height="128"
   version="1.1"
   id="svg4"
   sodipodi:docname="emoji_u1f616.svg"
   xml:space="preserve"
   inkscape:version="1.3 (0e150ed6c4, 2023-07-21)"
   xmlns:inkscape="http://www.inkscape.org/namespaces/inkscape"
   xmlns:sodipodi="http://sodipodi.sourceforge.net/DTD/sodipodi-0.dtd"
   xmlns="http://www.w3.org/2000/svg"
   xmlns:svg="http://www.w3.org/2000/svg"><defs
     id="defs4" /><sodipodi:namedview
     id="namedview4"
     pagecolor="#ffffff"
     bordercolor="#000000"
     borderopacity="0.25"
     inkscape:showpageshadow="2"
     inkscape:pageopacity="0.0"
     inkscape:pagecheckerboard="0"
     inkscape:deskcolor="#d1d1d1"
     inkscape:zoom="8.515625"
     inkscape:cx="64"
     inkscape:cy="64"
     inkscape:current-layer="svg4" /><g
     id="g4"
     transform="translate(0.00264378,0.00374437)">&#10;	<path
   fill="#fcc21b"
   d="M 37.48,13.27 C 8.44,18.62 -6.54,44.5 3.97,72.82 8.26,84.38 3.04,85.7 3.04,92.06 c 0,13.44 27.74,24.33 61.95,24.33 34.22,0 61.96,-10.89 61.96,-24.33 C 131.51,51.83 99.91,1.8 37.48,13.27 Z"
   id="path1" />&#10;	<path
   fill="#2f2f2f"
   d="m 19.74,75.95 c -1.19,0 -2.29,-0.75 -2.69,-1.94 -0.51,-1.49 0.31,-3.09 1.8,-3.6 9.76,-3.23 9.86,-10.3 9.85,-10.61 0,-1.55 1.25,-2.83 2.8,-2.87 0.03,0 0.04,0 0.04,0 1.55,0 2.8,1.23 2.84,2.76 0.02,0.48 0.13,11.51 -13.75,16.11 -0.31,0.12 -0.59,0.15 -0.89,0.15 z"
   id="path2" />&#10;	<path
   fill="#2f2f2f"
   d="m 73.09,90.85 c -2.81,-2.6 -6.77,-4.99 -10.48,-6.18 -1.5,-0.5 -3.37,-0.64 -4.95,-0.62 -2.92,0.04 -5.28,2.1 -8.13,2.59 -4.15,0.69 -7.29,-1.65 -11.15,-2.38 -1.55,-0.29 -2.97,-0.35 -4.37,0.24 -2.72,1.07 -3.44,4.38 -5.82,5.72 -2.83,1.59 -7.04,-0.51 -5.92,-4.06 1.22,-3.85 5.94,-6.81 9.85,-7.59 5.77,-1.16 11.77,4.89 17.06,2.84 3.34,-1.31 6.13,-3.19 9.86,-3.49 1.72,-0.13 4.24,0.09 7,0.63 6.66,1.37 14.56,4.77 14.88,10.13 0.28,4.45 -5.25,4.58 -7.83,2.17 z"
   id="path3" />&#10;	<path
   fill="#2f2f2f"
   d="m 76.09,68.07 c -0.31,0.08 -4.04,1.01 -8.97,0.57 -5.3,-0.48 -11.96,-2.54 -17.34,-8.9 -1.05,-1.25 -0.89,-3.13 0.35,-4.18 1.26,-1.06 3.12,-0.89 4.19,0.35 7.93,9.41 19.78,6.56 20.29,6.43 1.58,-0.41 3.2,0.57 3.6,2.14 0.4,1.57 -0.53,3.17 -2.12,3.59 z"
   id="path4" />&#10;</g></svg>
