<?xml version="1.0" encoding="UTF-8" standalone="no"?>
<!-- Generator: Adobe Illustrator 25.2.3, SVG Export Plug-In . SVG Version: 6.00 Build 0)  -->

<svg
   version="1.1"
   id="Layer_2"
   x="0px"
   y="0px"
   viewBox="0 0 128 128"
   style="enable-background:new 0 0 128 128;"
   xml:space="preserve"
   sodipodi:docname="emoji_u1fa72.svg"
   inkscape:version="1.2.2 (732a01da63, 2022-12-09)"
   xmlns:inkscape="http://www.inkscape.org/namespaces/inkscape"
   xmlns:sodipodi="http://sodipodi.sourceforge.net/DTD/sodipodi-0.dtd"
   xmlns="http://www.w3.org/2000/svg"
   xmlns:svg="http://www.w3.org/2000/svg"><defs
   id="defs5121">
	
	
	
	
	
	
</defs><sodipodi:namedview
   id="namedview5119"
   pagecolor="#ffffff"
   bordercolor="#000000"
   borderopacity="0.25"
   inkscape:showpageshadow="2"
   inkscape:pageopacity="0.0"
   inkscape:pagecheckerboard="0"
   inkscape:deskcolor="#d1d1d1"
   showgrid="false"
   inkscape:zoom="2.9996795"
   inkscape:cx="46.338283"
   inkscape:cy="74.674643"
   inkscape:window-width="1366"
   inkscape:window-height="697"
   inkscape:window-x="-8"
   inkscape:window-y="-8"
   inkscape:window-maximized="1"
   inkscape:current-layer="Layer_2" />
<g
   id="g5096"
   style="fill:#41ace7;fill-opacity:1">
		<g
   id="g5094"
   style="fill:#41ace7;fill-opacity:1">
			<path
   style="fill:#41ace7;fill-opacity:1"
   d="m 123.6,65.54 -3.01,-25.19 -0.16,-3.41 c -0.09,-2.66 -2.18,-4.77 -4.71,-4.77 H 64.2 l -0.04,0.02 V 32.17 H 12.64 c -2.54,0 -4.62,2.11 -4.71,4.77 L 7.78,39.97 4.4,65.74 c -0.2,1.48 1.01,2.31 2.28,3.11 22.04,13.8 35.7,30.69 40.19,36.76 0.98,1.32 4.26,1.35 4.26,1.35 0,0 7.56,0.19 12.88,0.19 5.26,0 12.48,-0.22 12.48,-0.22 0,0 3.28,-0.03 4.26,-1.36 5.02,-6.78 20.82,-26.64 40.59,-36.92 1.31,-0.7 2.46,-1.63 2.26,-3.11 z"
   id="path5092" />
		</g>
	</g><path
   style="fill:#1d9ddb;fill-opacity:1"
   d="m 4.2,66.94 c 0,0 3.07,5.43 18.5,20.58 12.39,12.16 25.3,18.89 25.3,18.89 0,0 -7.55,-13.88 -19.45,-23.79 C 16.65,72.71 4.2,66.94 4.2,66.94 Z"
   id="path5098" /><path
   style="fill:#1d9ddb;fill-opacity:1"
   d="m 123.95,66.94 c 0,0 -3.86,5.62 -19.3,20.77 -12.39,12.16 -24.51,18.69 -24.51,18.69 0,0 7.55,-13.88 19.45,-23.79 11.9,-9.91 24.36,-15.67 24.36,-15.67 z"
   id="path5100" /><path
   style="fill:#1c6092;fill-opacity:1"
   d="m 123.99,65.15 c -0.31,-1.68 -0.64,-2.27 -0.64,-2.27 l -1.11,0.37 c -0.24,0.11 -3.14,1.35 -7.34,3.69 l -3.05,-23.5 c 6.25,-0.21 8.96,-0.33 9.07,-0.33 l -0.39,-4.04 c -0.33,0.01 -31.44,1.3 -58.56,1.3 -27.09,0 -53.86,-1.58 -54.13,-1.6 l -0.42,3.99 c 0.1,0.01 3.02,0.23 8.7,0.49 L 13.1,66.87 C 8.97,64.58 6.14,63.37 5.9,63.26 L 4.79,62.89 c 0,0 -0.33,0.59 -0.64,2.27 -0.18,0.96 0,1.77 0,1.77 0,0 17.32,9.46 24.4,15.7 7.08,6.23 18.49,22.07 19.36,23.63 0,0 0.18,0.32 1.24,0.56 1.06,0.24 3.73,0.18 3.73,0.18 l -1.32,-2.52 C 51.24,103.89 43.84,90.75 31.15,79.51 27.59,76.36 23.95,73.67 20.57,71.42 l 3.72,-27.8 c 10.35,0.41 24.07,0.82 37.68,0.82 14.2,0 29.88,-0.37 41.68,-0.72 l 3.78,27.8 c -3.34,2.22 -6.93,4.89 -10.44,7.99 -12.7,11.24 -20.09,24.37 -20.41,24.97 L 75.26,107 c 0,0 2.67,0.06 3.73,-0.18 1.06,-0.24 1.24,-0.56 1.24,-0.56 0.87,-1.56 12.28,-17.4 19.36,-23.63 7.08,-6.23 24.4,-15.7 24.4,-15.7 0,0 0.18,-0.82 0,-1.78 z"
   id="path5102" />
</svg>
