<?xml version="1.0" encoding="UTF-8" standalone="no"?>
<svg
   width="128"
   height="128"
   style="enable-background:new 0 0 128 128;"
   version="1.1"
   id="svg3"
   sodipodi:docname="emoji_u1f9d2_1f3fb.svg"
   inkscape:version="1.3 (0e150ed6c4, 2023-07-21)"
   xmlns:inkscape="http://www.inkscape.org/namespaces/inkscape"
   xmlns:sodipodi="http://sodipodi.sourceforge.net/DTD/sodipodi-0.dtd"
   xmlns="http://www.w3.org/2000/svg"
   xmlns:svg="http://www.w3.org/2000/svg">
  <defs
     id="defs3" />
  <sodipodi:namedview
     id="namedview3"
     pagecolor="#ffffff"
     bordercolor="#000000"
     borderopacity="0.25"
     inkscape:showpageshadow="2"
     inkscape:pageopacity="0.0"
     inkscape:pagecheckerboard="0"
     inkscape:deskcolor="#d1d1d1"
     inkscape:zoom="4.0546875"
     inkscape:cx="64"
     inkscape:cy="64"
     inkscape:window-width="1366"
     inkscape:window-height="697"
     inkscape:window-x="-8"
     inkscape:window-y="-8"
     inkscape:window-maximized="1"
     inkscape:current-layer="svg3" />
  <g
     id="图层_1">
    <g
       id="g3">
      <ellipse
         id="XMLID_1014_"
         cx="64"
         cy="56.06"
         rx="54.5"
         ry="50.3"
         style="fill:#312D2D;" />
      <g
         id="XMLID_449_">
        <path
           id="XMLID_451_"
           d="M108.63,69.78c0,0,8.3,1.44,8.3,10.38c0,7.89-6.06,11-12.11,11V69.78H108.63z"
           style="fill:#DBA689;" />
        <path
           id="XMLID_450_"
           d="M19.37,69.78c0,0-8.3,1.44-8.3,10.38c0,7.89,6.06,11,12.11,11V69.78H19.37z"
           style="fill:#DBA689;" />
      </g>
      <g
         id="XMLID_1007_">
        <g
           id="XMLID_1009_" />
        <g
           id="XMLID_1008_" />
      </g>
      <g
         id="XMLID_1006_">
        <path
           d="M95.59,42.95C88.03,33.53,75.02,29.5,64,29.5c-11.01,0-24.03,4.04-31.58,13.45 c-7.39,9.2-11.26,21.09-11.2,37.04c0.06,12.86,3.36,22.75,12.69,30.53c8.64,7.21,18.63,11.1,29.45,11.1 c10.64,0,22.38-3.72,30.7-11.04c9.13-8.03,12.67-17.73,12.73-30.59C106.85,64.03,102.96,52.15,95.59,42.95z"
           style="fill:#FADCBC;"
           id="path3" />
      </g>
      <path
         id="XMLID_1005_"
         d="M70.25,89.64c-2.2,0.62-4.48,0.93-6.25,0.93s-4.05-0.3-6.25-0.93 c-0.94-0.27-1.31,0.63-0.97,1.22c0.7,1.23,3.51,3.71,7.22,3.71c3.71,0,6.52-2.48,7.22-3.71C71.56,90.27,71.19,89.38,70.25,89.64z"
         style="fill:#DBA689;" />
      <path
         id="XMLID_991_"
         d="M76.93,99.8c-1.81,0-12.93,0-12.93,0s-11.12,0-12.93,0c-1.48,0-2.12,1-1.14,2.49 c1.37,2.09,6.47,6.11,14.07,6.11c7.6,0,12.7-4.02,14.07-6.11C79.05,100.8,78.42,99.8,76.93,99.8z"
         style="fill:#513F35;" />
      <path
         id="XMLID_990_"
         d="M111.79,35.81L76.21,12.1H63.97H63.9h-0.06H51.59L16.01,35.81l-4.66,16.77 l4.9,15.06l3.47,6.67c18.77-4.27,37.62-17.4,43.56-24.77c0.33-0.4,0.93-0.4,1.26,0c5.94,7.37,24.35,20.32,43.56,24.77l3.46-6.67 l4.9-15.06L111.79,35.81z"
         style="fill:#312D2D;" />
      <g
         id="XMLID_1512_">
        <path
           id="XMLID_1435_"
           d="M46.88,80.36c0,3.81-2.55,6.9-5.71,6.9c-3.16,0-5.73-3.09-5.73-6.9 c0-3.82,2.57-6.91,5.73-6.91C44.33,73.45,46.88,76.54,46.88,80.36"
           style="fill:#444444;" />
        <path
           id="XMLID_1436_"
           d="M92.56,80.36c0,3.81-2.55,6.9-5.71,6.9c-3.16,0-5.73-3.09-5.73-6.9 c0-3.82,2.57-6.91,5.73-6.91C90,73.45,92.56,76.54,92.56,80.36"
           style="fill:#444444;" />
      </g>
    </g>
  </g>
</svg>
