<?xml version="1.0" encoding="UTF-8" standalone="no"?>
<svg
   enable-background="new 0 0 128 128"
   viewBox="0 0 128 128"
   version="1.1"
   id="svg15600"
   sodipodi:docname="emoji_u1f9a7.svg"
   inkscape:version="1.2.2 (732a01da63, 2022-12-09)"
   xml:space="preserve"
   xmlns:inkscape="http://www.inkscape.org/namespaces/inkscape"
   xmlns:sodipodi="http://sodipodi.sourceforge.net/DTD/sodipodi-0.dtd"
   xmlns="http://www.w3.org/2000/svg"
   xmlns:svg="http://www.w3.org/2000/svg"><defs
     id="defs15604" /><sodipodi:namedview
     id="namedview15602"
     pagecolor="#ffffff"
     bordercolor="#000000"
     borderopacity="0.25"
     inkscape:showpageshadow="2"
     inkscape:pageopacity="0.0"
     inkscape:pagecheckerboard="0"
     inkscape:deskcolor="#d1d1d1"
     showgrid="false"
     inkscape:zoom="2.9996795"
     inkscape:cx="53.339031"
     inkscape:cy="73.007798"
     inkscape:window-width="1366"
     inkscape:window-height="697"
     inkscape:window-x="-8"
     inkscape:window-y="-8"
     inkscape:window-maximized="1"
     inkscape:current-layer="svg15600" /><linearGradient
     id="b"
     x1="63.696"
     x2="63.885"
     y1="115.66"
     y2="11.887"
     gradientUnits="userSpaceOnUse"><stop
       stop-color="#BF360C"
       offset="0"
       id="stop15530" /><stop
       stop-color="#E64A19"
       offset=".5049"
       id="stop15532" /><stop
       stop-color="#FF7043"
       offset="1"
       id="stop15534" /></linearGradient><linearGradient
     id="a"
     x1="65.962"
     x2="65.962"
     y1="23.278"
     y2="63.348"
     gradientUnits="userSpaceOnUse"><stop
       stop-color="#E64A19"
       offset="0"
       id="stop15559" /><stop
       stop-color="#FF7043"
       offset="1"
       id="stop15561" /></linearGradient><g
     id="g16336"><path
       d="m 67.46,116.74989 c -4.71,0 -12.35,-0.87 -19.67,-3.31 -5.81,-1.94 -13.42,-5.58 -16.61,-11.9 -3.03,-5.989997 -1.57,-13.079997 4.33,-21.089997 2.31,-3.14 3.03,-6.77 3.24,-8.35 -6.34,-1.9 -9.97,-9.16 -11.63,-13.59 0.25,3.52 2.43,8.27 3.47,10.14 l 1.56,2.82 -2.88,-1.44 c -5.27,-2.64 -8.32,-7.8 -10.05,-12.33 0.51,3.99 1.31,7.59 1.32,7.65 l 0.84,3.75 -2.56,-2.86 c -5.12,-5.73 -6.74,-12.56 -7.21,-17.07 -1.37,3.89 -2.02,6.99 -2.03,7.03 l -0.74,3.64 -1.18,-3.52 c -2.86,-8.53 -3.96,-19.56 0.4,-23.62 4.45,-4.15 32.94,-21.32 34.15,-22.05 l 1.29,-0.7799998 0.21,1.4999998 c 2.59,18.3 -6.75,25.4 -7.15,25.7 l -1.9,1.4 0.96,-7.16 c -2.08,4.18 -5.25,8.38 -9.67,8.9 l -1.72,0.2 c 2.1,1.54 6.14,3.81 11.81,3.81 4,0 8.22,-1.11 12.55,-3.31 l 1.97,-1 -0.56,2.12 c -1.05,4.1 -0.84,9.89 -0.37,15.8 6.97,-12.28 12.55,-18.03 17.48,-18.03 7.27,0 10.46,4.61 14.17,11.88 l 0.96,-12.58 1.62,3.26 c 6.35,12.82 16.39,18.48 24.47,23.04 8.87,5 15.87,8.96 13.74,19.52 -0.54,2.7 -2.99,7.23 -13.26,7.23 -1.81,0 -3.8,-0.14 -5.92,-0.43 -2.08,-0.28 -4.06,-0.72 -5.91,-1.32 0.21,1.69 0.31,3.34 0.3,4.92 -0.07,15.819997 -16.1,21.429997 -29.82,21.429997 z M 23.21,39.579893 c 0.21,0.18 0.47,0.4 0.78,0.63 l 1.01,-1.56 c 0.78,-1.21 1.48,-2.48 2.02,-3.61 z"
       fill="url(#b)"
       id="path15537"
       style="fill:#855c52;fill-opacity:1" /><path
       d="M 46.21,18.499893"
       fill="#b39ddb"
       id="path15541" /><path
       d="m 51.94,116.18289 c -3.27,0 -7.06,-0.92 -9.89,-2.41 -4.83,-2.53 -7.79,-6.81 -9.48,-10.19 0.98,3.94 3.75,7.21 3.79,7.26 l 2.95,3.44 -4.13,-1.88 c -8.4,-3.83 -10.84,-10.21 -11.45,-14.689995 -0.83,3.619995 -0.14,6.649995 -0.13,6.689995 l 0.78,3.29 -2.45,-2.33 c -0.2,-0.19 -4.8,-4.64 -5.59,-10.589995 -0.35,-2.61 0.04,-6.55 2.27,-9.09 1.38,-1.57 3.23,-2.37 5.49,-2.37 h 0.12 c 6.28,0.08 21.35,5.67 33.41,26.289995 1.19,2.03 0.88,3.42 0.41,4.23 -0.84,1.52 -3.02,2.35 -6.1,2.35 z"
       fill="#FF7043"
       id="path15543"
       style="fill:#ed6c30" /><path
       id="path15547"
       d="m 56.460938,109.96508 c -0.2,0 -0.410391,0.0298 -0.650391,0.0898 -3.269997,0.98 -10.570391,3.16891 -10.900391,3.37891 -0.609999,0.4 -0.971016,1.09 -1.291015,1.75 -0.55,1.12 -1.648673,3.18984 -2.138672,4.33984 -0.56,1.32 -2.349683,4.17094 2.570312,4.96094 2.319998,0.37 5.9893,0.91992 8.779297,0.91992 1.949998,0 3.469063,-0.25906 3.789063,-1.03906 0.539999,-1.31 0.06125,-1.87109 -1.96875,-2.37109 l -3.470703,-0.50977 c 0.02,-0.12 4.380859,-5.38086 4.380859,-5.38086 l 3.900391,1.32031 c -10e-7,0 -3.021798,1.86071 -3.841797,2.47071 -1.079999,0.8 -0.299296,1.93945 0.720703,1.93945 0.1,0 0.210547,-0.009 0.310547,-0.0293 0.569999,-0.14 3.050001,-0.70953 4.75,-1.51953 1.659998,-0.79 2.000546,-2.64125 1.560547,-4.03125 -0.43,-1.36 -1.79047,-2.71023 -2.730469,-3.74023 -0.929999,-1.01 -2.269533,-2.54883 -3.769531,-2.54883 z"
       style="fill:#5d4037;fill-opacity:1" /><path
       d="m 79.98,116.18289 c -3.08,0 -5.25,-0.83 -6.12,-2.34 -0.47,-0.81 -0.77,-2.21 0.41,-4.23 12.07,-20.619995 27.13,-26.219995 33.41,-26.299995 h 0.12 c 2.27,0 4.11,0.8 5.49,2.37 2.23,2.54 2.61,6.48 2.27,9.09 -0.79,5.949995 -5.39,10.409995 -5.59,10.589995 l -2.43,2.32 0.77,-3.27 c 0.01,-0.04 0.69,-3.07 -0.13,-6.679995 -0.61,4.479995 -3.05,10.849995 -11.45,14.679995 l -4.11,1.87 2.93,-3.43 c 0.04,-0.05 2.8,-3.32 3.78,-7.24 -1.69,3.37 -4.65,7.64 -9.47,10.17 -2.82,1.48 -6.61,2.4 -9.88,2.4 z"
       fill="#FF7043"
       id="path15551"
       style="fill:#ed6c30" /><path
       id="path15555"
       d="m 75.460938,109.96508 c -1.499999,0 -2.840783,1.53883 -3.800782,2.54883 -0.939999,1.02 -2.300469,2.37023 -2.730468,3.74023 -0.43,1.39 -0.09945,3.24125 1.560546,4.03125 1.699999,0.82 4.180001,1.38953 4.75,1.51953 0.11,0.02 0.210547,0.0293 0.310547,0.0293 1.019999,0 1.808749,-1.12945 0.71875,-1.93945 -0.829999,-0.61 -3.839843,-2.47071 -3.839843,-2.47071 l 3.90039,-1.32031 c 0,0 4.37086,5.26086 4.38086,5.38086 l -3.470704,0.50977 c -2.029998,0.5 -2.510702,1.06109 -1.970703,2.37109 0.32,0.77 1.841018,1.03906 3.791016,1.03906 2.789997,0 6.469299,-0.54992 8.779297,-0.91992 4.919995,-0.79 3.130312,-3.64094 2.570312,-4.96094 -0.489999,-1.15 -1.590625,-3.21984 -2.140625,-4.33984 -0.319999,-0.66 -0.679063,-1.35 -1.289062,-1.75 -0.33,-0.21 -7.630394,-2.39891 -10.900391,-3.37891 -0.21,-0.06 -0.419141,-0.0898 -0.61914,-0.0898 z"
       style="fill:#5d4037;fill-opacity:1" /><path
       d="m 65.9,76.039893 c -6.35,0 -9.93,-3.58 -12.14,-7.17 l 0.56,6.67 -2.03,-2.43 c -3.15,-3.78 -4.5,-7.63 -5.01,-10.81 l -1.68,5.48 -0.97,-3.06 c -2.53,-7.95 -1.52,-15.59 3.48,-26.36 3.79,-8.17 8.01,-15.51 17.78,-15.51 h 0.12 c 9.77,0 13.98,7.34 17.78,15.51 5,10.77 6.01,18.41 3.48,26.36 l -0.97,3.06 -1.67,-5.48 c -0.51,3.18 -1.85,7.04 -5.01,10.81 l -2.03,2.43 0.56,-6.67 c -2.21,3.59 -5.79,7.17 -12.14,7.17 z"
       fill="url(#a)"
       id="path15564"
       style="fill:#ed6c30;fill-opacity:1" /><path
       d="m 74.13,32.799893 c -0.62,-0.68 -2.15,-2.59 -3.22,-2.45 -0.24,0.03 -0.46,0.17 -0.67,0.3 -1.45,0.88 -3.09,1.43 -4.78,1.6 0.51,-0.85 0.8,-1.83 0.83,-2.83 -2.02,1.52 -4.23,2.8 -6.56,3.8 0.49,-1.1 0.93,-2.21 1.33,-3.34 -2.59,1.51 -4.4,4.06 -5.4,6.84 -1,2.77 -1.57,5.7 -2,8.61 -0.04,0.25 -0.55,4.56 -0.48,4.56 0.09,0 0.16,-0.07 0.22,-0.13 0.77,-0.72 1.82,-1.16 2.87,-1.5 2.67,-0.87 5.51,-1.28 8.34,-1.57 0.04,0 0.09,-0.01 0.13,-0.01 0.4,-0.04 0.8,-0.08 1.2,-0.11 0.4,0.03 0.8,0.07 1.2,0.11 0.04,0 0.09,0.01 0.13,0.01 2.83,0.29 5.67,0.7 8.34,1.57 1.05,0.34 2.1,0.77 2.87,1.5 0.06,0.06 0.13,0.12 0.22,0.13 0.13,0 -0.91,-13.11 -4.57,-17.09 z"
       fill="#BDAAD1"
       id="path15568"
       style="fill:#855c52;fill-opacity:1" /><path
       d="M 76.99,49.279893"
       fill="none"
       opacity="0.2"
       stroke="#212121"
       stroke-miterlimit="10"
       id="path15572" /><path
       d="m 72.02,38.439893 c -5.3,-1.31 -3.5,4.88 -10.79,3.75 -6.21,-0.96 -6.32,6.67 -6.5,6.81 l 3.09,-0.77 c 2.25,-0.56 4.09,-0.48 5.25,-1.05 0.85,-0.42 1.09,-1.25 1.52,-2.02 0.68,-1.21 2.06,-1.13 2.73,0.04 0.44,0.77 0.67,1.6 1.52,2.02 1.15,0.57 3,0.49 5.25,1.05 3.09,0.77 3.42,1.24 3.42,1.24 0,0 -1.54,-10.09 -5.49,-11.07 z"
       fill="#927DB2"
       id="path15574"
       style="fill:#5d4037" /><path
       d="m 71.38,49.279893 c -1.9,-1.33 -3.25,-2.98 -4.12,-4.28 -0.31,-0.46 -0.81,-0.67 -1.3,-0.65 -0.49,-0.03 -0.99,0.19 -1.3,0.65 -0.87,1.3 -2.23,2.95 -4.12,4.28 -3.59,2.51 -6.3,6.69 -6.2,10.5 0.17,6.38 5.17,11.56 11.56,11.56 h 0.06 0.06 c 6.38,0 11.38,-5.18 11.56,-11.56 0.1,-3.81 -2.61,-7.99 -6.2,-10.5 z"
       fill="#7E6E9E"
       id="path15576"
       style="fill:#8d5f55;fill-opacity:1" /><path
       d="m 67.14,50.369893 1.09,-0.74 c 0.43,-0.29 1.01,-0.17 1.29,0.26 0.29,0.43 0.17,1.02 -0.26,1.3 l -1.09,0.74 c -0.43,0.29 -1.01,0.17 -1.29,-0.26 -0.28,-0.43 -0.17,-1.02 0.26,-1.3 z"
       id="path15580"
       style="fill:#212121" /><path
       d="m 63.85,51.919893 -1.14,-0.66 c -0.44,-0.26 -0.6,-0.84 -0.34,-1.28 0.26,-0.45 0.83,-0.6 1.27,-0.34 l 1.14,0.66 c 0.44,0.26 0.6,0.84 0.34,1.28 -0.25,0.45 -0.83,0.6 -1.27,0.34 z"
       id="path15582"
       style="fill:#212121" /><ellipse
       cx="61.23"
       cy="45.179893"
       rx="2.4400001"
       ry="2.3800001"
       id="ellipse15584"
       style="fill:#212121" /><ellipse
       cx="70.690002"
       cy="45.179893"
       rx="2.4400001"
       ry="2.3800001"
       id="ellipse15586"
       style="fill:#212121" /><path
       d="m 70.69,64.559893 c -0.54,1.75 -2.99,0.94 -4.56,0.94 -1.57,0 -4.16,0.84 -4.16,-0.62 0,-1.46 2.59,-3.04 4.16,-3.04 1.57,0 5.03,1.21 4.56,2.72 z"
       id="path15588"
       style="fill:#212121" /><path
       d="m 63.369937,24.672505 c -0.302692,0 -0.594172,-0.03363 -0.874442,-0.112108 -0.639015,-0.179373 -1.109869,-0.627805 -1.289242,-1.233188 -0.42601,-1.457403 1.199556,-3.95741 2.892386,-6.07625 -0.291481,0.01121 -0.594173,0.02242 -0.896864,0.02242 -2.757856,0 -5.156966,-0.526907 -6.434996,-0.863231 -1.558301,3.318395 -4.204048,6.569526 -12.141291,6.77132 l -1.076237,0.02242 -0.840809,-13.2063158 0.627804,-0.336324 c 0.269059,-0.145741 6.670423,-3.5986654 9.596441,-4.7645881 0.650226,-0.2578483 1.322874,-0.3923778 2.017943,-0.3923778 0.885653,0 1.771305,0.2242159 2.567272,0.6390153 2.735434,1.4461926 9.417068,4.9775924 12.399139,6.6143684 1.12108,0.616594 4.103151,2.242159 2.343056,5.695084 -0.549329,1.065025 -5.112122,7.219752 -8.89016,7.219752 z"
       fill="#bdaad1"
       id="path15590"
       style="fill:#f28d5e;stroke-width:1" /><path
       d="m 90.63,93.080133 c -1.48,0 -2.72,-0.66 -3.41,-1.8 -0.84,-1.4 -0.73,-3.31 0.3,-5.24 1.65,-3.11 5.73,-10.58 7.99,-12.86 1.14,-1.16 2.56,-1.77 4.1,-1.77 0.66,0 1.33,0.11 1.99,0.34 0.79,0.27 7.78,2.69 9.56,4.44 1.76,1.71 2.29,4.16 1.38,6.38 -0.83,2.03 -2.64,3.29 -4.73,3.29 -0.37,0 -0.75,-0.04 -1.13,-0.12 -0.98,-0.2 -2.47,-0.53 -3.22,-0.69 -1.78,1.38 -8.27,6.42 -9.8,7.21 -1.04,0.54 -2.06,0.82 -3.03,0.82 z"
       fill="#BDAAD1"
       id="path15594"
       style="fill:#f28d5e" /></g></svg>
