<?xml version="1.0" encoding="UTF-8" standalone="no"?>
<svg
   height="128"
   width="128"
   version="1.1"
   id="svg7"
   sodipodi:docname="emoji_u1f9fa.svg"
   inkscape:version="1.3 (0e150ed6c4, 2023-07-21)"
   xmlns:inkscape="http://www.inkscape.org/namespaces/inkscape"
   xmlns:sodipodi="http://sodipodi.sourceforge.net/DTD/sodipodi-0.dtd"
   xmlns="http://www.w3.org/2000/svg"
   xmlns:svg="http://www.w3.org/2000/svg">
  <sodipodi:namedview
     id="namedview7"
     pagecolor="#ffffff"
     bordercolor="#000000"
     borderopacity="0.25"
     inkscape:showpageshadow="2"
     inkscape:pageopacity="0.0"
     inkscape:pagecheckerboard="0"
     inkscape:deskcolor="#d1d1d1"
     showguides="false"
     inkscape:zoom="2.867097"
     inkscape:cx="43.074929"
     inkscape:cy="75.51192"
     inkscape:window-width="1366"
     inkscape:window-height="697"
     inkscape:window-x="-8"
     inkscape:window-y="-8"
     inkscape:window-maximized="1"
     inkscape:current-layer="svg7" />
  <defs
     id="defs2">
    <inkscape:path-effect
       effect="powerstroke"
       id="path-effect17"
       is_visible="true"
       lpeversion="1.3"
       scale_width="1"
       interpolator_type="CentripetalCatmullRom"
       interpolator_beta="0.2"
       start_linecap_type="zerowidth"
       end_linecap_type="zerowidth"
       offset_points="0.23797282,2.1060233 | 0.99862325,2.8767491 | 1.7516711,1.9117836"
       linejoin_type="round"
       miter_limit="4"
       not_jump="false"
       sort_points="true"
       message="&lt;b&gt;Ctrl + click&lt;/b&gt; on existing node and move it" />
    <inkscape:path-effect
       effect="powerstroke"
       id="path-effect15"
       is_visible="true"
       lpeversion="1.3"
       scale_width="1"
       interpolator_type="CentripetalCatmullRom"
       interpolator_beta="0.2"
       start_linecap_type="zerowidth"
       end_linecap_type="zerowidth"
       offset_points="0.23797282,2.1060233 | 0.99862325,2.8767491 | 1.7516711,1.9117836"
       linejoin_type="round"
       miter_limit="4"
       not_jump="false"
       sort_points="true"
       message="&lt;b&gt;Ctrl + click&lt;/b&gt; on existing node and move it" />
    <inkscape:path-effect
       effect="powerstroke"
       id="path-effect14"
       is_visible="true"
       lpeversion="1.3"
       scale_width="1"
       interpolator_type="CentripetalCatmullRom"
       interpolator_beta="0.2"
       start_linecap_type="round"
       end_linecap_type="round"
       offset_points="0.014509258,2.4411674 | 0.0035158928,2.4400608 | 0.94739026,3.0738317"
       linejoin_type="round"
       miter_limit="4"
       not_jump="false"
       sort_points="true"
       message="&lt;b&gt;Ctrl + click&lt;/b&gt; on existing node and move it" />
    <inkscape:path-effect
       effect="powerstroke"
       id="path-effect2"
       is_visible="true"
       lpeversion="1.3"
       scale_width="1"
       interpolator_type="CentripetalCatmullRom"
       interpolator_beta="0.2"
       start_linecap_type="round"
       end_linecap_type="round"
       offset_points="0.010991771,2.4411674 | 0,2.4400608 | 0.94296116,3.0738317"
       linejoin_type="round"
       miter_limit="4"
       not_jump="false"
       sort_points="true"
       message="&lt;b&gt;Ctrl + click&lt;/b&gt; on existing node and move it" />
    <inkscape:path-effect
       effect="powerstroke"
       id="path-effect12"
       is_visible="true"
       lpeversion="1.3"
       scale_width="1"
       interpolator_type="CentripetalCatmullRom"
       interpolator_beta="0.2"
       start_linecap_type="round"
       end_linecap_type="round"
       offset_points="0.010991771,2.4411674 | 0,2.4400608 | 0.94296116,3.0738317"
       linejoin_type="round"
       miter_limit="4"
       not_jump="false"
       sort_points="true"
       message="&lt;b&gt;Ctrl + click&lt;/b&gt; on existing node and move it" />
    <inkscape:path-effect
       effect="powerstroke"
       id="path-effect11"
       is_visible="true"
       lpeversion="1.3"
       scale_width="1"
       interpolator_type="CentripetalCatmullRom"
       interpolator_beta="0.2"
       start_linecap_type="zerowidth"
       end_linecap_type="zerowidth"
       offset_points="0.24973723,2.0611945 | 2.0128117,3.1406818 | 3.8370852,2.2040249"
       linejoin_type="round"
       miter_limit="4"
       not_jump="false"
       sort_points="true"
       message="&lt;b&gt;Ctrl + click&lt;/b&gt; on existing node and move it" />
    <inkscape:path-effect
       effect="powerstroke"
       id="path-effect9"
       is_visible="true"
       lpeversion="1.3"
       scale_width="1"
       interpolator_type="CentripetalCatmullRom"
       interpolator_beta="0.2"
       start_linecap_type="zerowidth"
       end_linecap_type="zerowidth"
       offset_points="0.24973723,2.0611945 | 2.0128117,3.1406818 | 3.8370852,2.2040249"
       linejoin_type="round"
       miter_limit="4"
       not_jump="false"
       sort_points="true"
       message="&lt;b&gt;Ctrl + click&lt;/b&gt; on existing node and move it" />
    <linearGradient
       id="a">
      <stop
         offset="0"
         id="stop1" />
      <stop
         offset="1"
         stop-opacity="0"
         id="stop2" />
    </linearGradient>
    <clipPath
       id="b">
      <path
         d="M109.38 48.823a45.525 10.583 0 0 1-45.525 10.583A45.525 10.583 0 0 1 18.33 48.823a45.525 10.583 0 0 1 45.525-10.584 45.525 10.583 0 0 1 45.526 10.584z"
         fill="#ab6208"
         paint-order="stroke fill markers"
         id="path2" />
    </clipPath>
  </defs>
  <g
     id="g17"
     transform="matrix(0.99951174,0,0,0.99951174,151.93202,18.885588)"
     style="stroke-width:1.00049">
    <path
       style="fill:#f79329;fill-rule:nonzero;stroke:none;stroke-width:6.00293;stroke-linecap:round;stroke-opacity:1"
       d="m -126.04431,29.352884 c 0.32483,-0.0074 1.55312,-0.09399 2.00743,-1.014609 0.22694,-0.459881 0.37057,-1.246002 0.34423,-2.45795 -0.0348,-1.600309 -0.40281,-4.368671 -1.58132,-7.141527 a 0.16678866,0.00182876 63.962519 0 0 -0.0554,-0.116604 c -0.99092,-2.040112 -2.13595,-3.796498 -3.42428,-5.240324 -1.26567,-1.418436 -2.65259,-2.515421 -4.12549,-3.275255 -1.50453,-0.7761555 -3.04368,-1.1716044 -4.54235,-1.2328637 -1.59007,-0.064996 -3.05458,0.2483903 -4.33002,0.7830595 -0.0992,0.04167 -0.1973,0.084715 -0.2943,0.1290703 -1.70251,0.7784509 -3.2622,2.0475809 -4.45178,3.7621819 -1.15289,1.661709 -1.93802,3.719622 -2.11847,6.020415 -0.17518,2.233607 0.22699,4.620739 1.32606,6.973858 1.10678,2.369602 2.87062,4.601564 5.28006,6.588559 1.05375,0.866148 2.19005,1.555801 3.21409,2.079194 1.14972,0.587631 2.2332,1.004951 3.09592,1.267422 1.70387,0.518379 2.61815,0.484714 3.07535,0.191667 0.57105,-0.366023 0.9404,-1.69603 1.02306,-1.995166 0.0781,-0.282834 0.46,-1.640976 0.27733,-2.216707 -0.16626,-0.524038 -0.72917,-0.929537 -2.04717,-1.65574 -0.6363,-0.350591 -1.49185,-0.801458 -2.31037,-1.289034 -0.76047,-0.452993 -1.49823,-0.941768 -2.12563,-1.465495 -1.76461,-1.463474 -2.88625,-2.941285 -3.54808,-4.311412 -0.65372,-1.353353 -0.86828,-2.618748 -0.81068,-3.717031 0.06,-1.143611 0.41511,-2.128881 0.91631,-2.894626 0.51797,-0.791368 1.17381,-1.326344 1.82723,-1.630708 0.0374,-0.01743 0.0751,-0.03427 0.11313,-0.0505 0.48295,-0.207452 1.02763,-0.32095 1.62308,-0.293729 0.5574,0.02548 1.20575,0.176557 1.92684,0.547289 0.71406,0.367114 1.51917,0.962086 2.3593,1.877749 0.86257,0.940112 1.73598,2.188313 2.57566,3.801446 l -0.0554,-0.116602 c 0.91637,1.885209 1.48867,4.101518 1.8886,5.409679 0.30607,1.00116 0.54164,1.602971 0.84364,1.978138 0.56406,0.700725 1.77371,0.713686 2.1034,0.706155 z"
       id="path9"
       sodipodi:nodetypes="ccssc" />
    <path
       style="fill:#f79329;fill-rule:nonzero;stroke:none;stroke-width:6.00293;stroke-linecap:round;stroke-opacity:1"
       d="m -49.905657,29.352884 c -0.324833,-0.0074 -1.553122,-0.09399 -2.007431,-1.014609 -0.226943,-0.459881 -0.370571,-1.246002 -0.344225,-2.45795 0.03479,-1.600309 0.402803,-4.368671 1.581318,-7.141527 a 0.00182876,0.16678866 26.037481 0 1 0.05539,-0.116604 c 0.990914,-2.040112 2.135945,-3.796498 3.424275,-5.240324 1.265676,-1.418436 2.652591,-2.515421 4.125489,-3.275255 1.504537,-0.7761555 3.04368,-1.1716044 4.542349,-1.2328637 1.590074,-0.064996 3.054582,0.2483903 4.33002,0.7830595 0.09919,0.04167 0.197302,0.084715 0.294308,0.1290703 1.702503,0.7784509 3.262193,2.0475809 4.451778,3.7621819 1.152889,1.661709 1.938014,3.719622 2.118465,6.020415 0.17518,2.233607 -0.226987,4.620739 -1.32606,6.973858 -1.106773,2.369602 -2.870617,4.601564 -5.28006,6.588559 -1.053749,0.866148 -2.190047,1.555801 -3.214087,2.079194 -1.149724,0.587631 -2.233202,1.004951 -3.09592,1.267422 -1.703868,0.518379 -2.618149,0.484714 -3.075346,0.191667 -0.571052,-0.366023 -0.940404,-1.69603 -1.023063,-1.995166 -0.07816,-0.282834 -0.460005,-1.640976 -0.277336,-2.216707 0.166269,-0.524038 0.729176,-0.929537 2.047176,-1.65574 0.636295,-0.350591 1.491848,-0.801458 2.310371,-1.289034 0.760466,-0.452993 1.49823,-0.941768 2.125633,-1.465495 1.764608,-1.463474 2.886246,-2.941285 3.54807,-4.311412 0.653722,-1.353353 0.868282,-2.618748 0.810687,-3.717031 -0.05997,-1.143611 -0.415116,-2.128881 -0.916311,-2.894626 -0.517967,-0.791368 -1.173809,-1.326344 -1.827233,-1.630708 -0.03742,-0.01743 -0.07514,-0.03427 -0.113123,-0.0505 -0.482955,-0.207452 -1.027635,-0.32095 -1.623088,-0.293729 -0.557395,0.02548 -1.205746,0.176557 -1.926838,0.547289 -0.714057,0.367114 -1.519164,0.962086 -2.359303,1.877749 -0.862571,0.940112 -1.735978,2.188313 -2.575658,3.801446 l 0.05539,-0.116602 c -0.916364,1.885209 -1.488663,4.101518 -1.888593,5.409679 -0.306075,1.00116 -0.541642,1.602971 -0.843641,1.978138 -0.564063,0.700725 -1.773714,0.713686 -2.103402,0.706155 z"
       id="path10"
       sodipodi:nodetypes="ccssc" />
    <path
       d="m -40.67624,37.238453 c 1.561208,-9.177951 -3.866427,-16.921517 -46.82107,-16.921517 -42.95464,0 -48.3812,7.743189 -46.82106,16.920064 l 7.29623,42.917019 c 1.31701,7.746731 7.2659,14.280751 39.523859,14.280751 32.257957,0 38.204193,-6.53418 39.521918,-14.280751 z"
       fill="#ef9d44"
       paint-order="stroke fill markers"
       id="path4-7"
       style="fill:#f79329;stroke:none;stroke-width:1.00049"
       sodipodi:nodetypes="szsszss" />
    <path
       id="path12"
       style="fill:#ed6c30;fill-rule:nonzero;stroke:none;stroke-width:3.00147;stroke-linecap:round;stroke-dasharray:none;stroke-opacity:1"
       d="m -87.565183,39.824329 a 2.7027363,2.7027363 0 0 0 -0.534356,0.06707 2.7027363,2.7027363 0 0 0 -2.100642,2.634998 c 0,0.038 8.3e-5,0.130059 0,0.227156 -1.48e-4,0.17169 0.0029,0.285182 0,0.713915 -0.0223,3.352534 -0.427642,35.481161 -0.592767,50.923831 1.089495,0.01654 2.13875,0.04327 3.29483,0.04327 1.156839,0 2.206832,-0.02671 3.296992,-0.04327 -0.165124,-15.44267 -0.570468,-47.571297 -0.592766,-50.923831 -0.0029,-0.428733 1.47e-4,-0.542225 0,-0.713915 -8.3e-5,-0.0971 0,-0.189154 0,-0.227156 a 2.7027363,2.7027363 0 0 0 -2.771291,-2.702063 z m 26.98818,0.0043 a 2.7027363,2.7027363 0 0 0 -0.538681,0.02163 2.7027363,2.7027363 0 0 0 -2.314817,2.446784 c -0.0103,0.118788 -0.02361,0.285505 -0.06274,0.713916 -0.303285,3.320078 -3.350062,34.619884 -4.8503,50.335392 2.533188,-0.349726 4.748402,-0.777889 6.6935,-1.274232 1.207864,-16.415523 3.295442,-45.394659 3.545782,-48.604686 0.03345,-0.428894 0.04856,-0.595095 0.05842,-0.713916 a 2.7027363,2.7027363 0 0 0 -2.531157,-2.924891 z m -53.301387,0.02163 a 2.7027363,2.7027363 0 0 0 -3.072,2.903258 c 0.01,0.118821 0.0271,0.285022 0.0606,0.713916 0.25035,3.210027 2.33792,32.189163 3.54579,48.604686 1.94536,0.496196 4.16016,0.92463 6.6935,1.274232 -1.50024,-15.715508 -4.54703,-47.015314 -4.8503,-50.335392 -0.0391,-0.428411 -0.0525,-0.595128 -0.0627,-0.713916 a 2.7027363,2.7027363 0 0 0 -2.31483,-2.446784 z" />
    <path
       id="path11"
       style="fill:#fcc21b;stroke-width:6.00292;stroke-linecap:round"
       d="m -40.221075,34.121277 c 0,8.957502 -11.463284,16.218993 -47.276271,16.218993 -35.812984,0 -47.276274,-7.261492 -47.276274,-16.218993 0,-8.957501 11.46329,-16.218993 47.276274,-16.218993 35.812987,0 47.276271,7.26149 47.276271,16.218993 z"
       sodipodi:nodetypes="sssss" />
    <path
       id="path8"
       style="fill:#855c52;stroke-width:6.00292;stroke-linecap:round"
       d="m -55.820652,32.194468 c 0,3.801747 -7.680786,6.883671 -31.676697,6.883671 -23.995911,0 -31.676691,-3.081925 -31.676691,-6.883671 0,-3.801745 7.68078,-6.88367 31.676691,-6.88367 23.995911,0 31.676697,3.081924 31.676697,6.88367 z"
       sodipodi:nodetypes="sssss" />
    <path
       id="path14"
       style="fill:#ed6c30;fill-opacity:1;fill-rule:nonzero;stroke:none;stroke-width:6.00293;stroke-linecap:round;stroke-opacity:1"
       d="m -131.5597,53.460122 0.98866,5.819495 c 2.49169,1.016782 6.13436,2.160599 11.25824,3.247235 8.3283,1.766213 19.10735,3.002759 32.162986,2.991956 h 0.136293 c 12.919272,-0.0195 23.62301,-1.126 31.883913,-2.673938 4.605946,-0.863069 8.031186,-1.769408 10.542157,-2.604712 l 0.919437,-5.412779 c -2.546798,0.442248 -6.480324,1.26131 -12.45026,2.148237 -8.037648,1.194118 -18.261867,2.189477 -30.895247,2.169871 h -0.131967 c -12.698095,-0.02812 -22.941232,-1.285626 -30.936352,-2.782108 -7.13435,-1.33537 -11.19602,-2.515529 -13.47786,-2.903257 z m 2.96166,17.430363 1.06872,6.286785 c 2.17981,0.707457 4.86859,1.440394 8.21652,2.150401 8.3283,1.766212 19.10735,3.002759 32.162986,2.991956 l 0.136293,-0.0022 c 12.919272,-0.01951 23.62301,-1.123838 31.883913,-2.671775 2.969745,-0.556475 5.460096,-1.131412 7.528566,-1.693928 l 0.984339,-5.789209 c -2.38719,0.44639 -5.467346,1.014537 -9.501571,1.613882 -8.037648,1.194119 -18.261867,2.189478 -30.895247,2.169872 h -0.131967 c -12.698095,-0.02812 -22.941232,-1.285626 -30.936352,-2.782108 -4.77161,-0.893125 -8.08352,-1.699592 -10.5162,-2.273713 z" />
  </g>
</svg>
