<?xml version="1.0" encoding="UTF-8" standalone="no"?>
<svg
   width="100%"
   height="100%"
   viewBox="0 0 128 128"
   version="1.1"
   xml:space="preserve"
   style="fill-rule:evenodd;clip-rule:evenodd;stroke-linecap:round;stroke-linejoin:round;stroke-miterlimit:1.5;"
   id="svg36760"
   sodipodi:docname="emoji_u1f97a.svg"
   inkscape:version="1.2.2 (732a01da63, 2022-12-09)"
   xmlns:inkscape="http://www.inkscape.org/namespaces/inkscape"
   xmlns:sodipodi="http://sodipodi.sourceforge.net/DTD/sodipodi-0.dtd"
   xmlns="http://www.w3.org/2000/svg"
   xmlns:svg="http://www.w3.org/2000/svg"><defs
   id="defs36764">
        
        
        
        
        
        
        
        
    
            
        </defs><sodipodi:namedview
   id="namedview36762"
   pagecolor="#ffffff"
   bordercolor="#000000"
   borderopacity="0.25"
   inkscape:showpageshadow="2"
   inkscape:pageopacity="0.0"
   inkscape:pagecheckerboard="0"
   inkscape:deskcolor="#d1d1d1"
   showgrid="false"
   inkscape:zoom="4"
   inkscape:cx="71"
   inkscape:cy="115.25"
   inkscape:window-width="1366"
   inkscape:window-height="697"
   inkscape:window-x="-8"
   inkscape:window-y="-8"
   inkscape:window-maximized="1"
   inkscape:current-layer="svg36760" />
    <rect
   x="0.06"
   y="0"
   width="127.99"
   height="128"
   style="fill:none;"
   id="rect36721" />
    <path
   d="M 63.89,9.64 C 1.58,9.64 0.1,79.5 0.1,93.33 c 0,13.83 28.56,25.03 63.79,25.03 35.24,0 63.79,-11.21 63.79,-25.03 0,-13.83 -1.47,-83.69 -63.79,-83.69 z"
   style="fill:#fcc21b;fill-rule:nonzero"
   id="path36723" />
    
    <g
   id="g26443"
   transform="translate(0,3.1819806)"><g
     transform="matrix(1.2688926,0,0,1.2688926,-4.8373702,-8.7705723)"
     id="g26297"
     style="fill:#ffffff;fill-opacity:1;stroke-width:0.78809">
            <path
   id="path26295"
   style="fill:#ffffff;fill-opacity:1;fill-rule:nonzero;stroke-width:0.78809"
   d="m 38.803973,36.140361 c -0.627987,-0.0221 -1.256449,0.107994 -1.835152,0.37919 -4.616798,2.163555 -9.518433,3.702026 -14.66042,4.347087 -0.693007,0.08694 -1.329554,0.427776 -1.785553,0.956775 -2.729998,3.270997 -4.357089,7.537889 -4.307089,12.194884 0.111,10.17999 8.257938,18.382125 18.197928,18.305125 9.94099,-0.076 17.910538,-8.390928 17.799538,-18.589918 -0.088,-8.093992 -5.231903,-14.927088 -12.292481,-17.391548 -0.362194,-0.126422 -0.739978,-0.188335 -1.116771,-0.201595 z"
   sodipodi:nodetypes="sssccccss" />
        </g><g
     transform="matrix(1.1577014,0,0,1.1577014,-1.0330152,-4.6189826)"
     id="g36741"
     style="fill:#2f2f2f;fill-opacity:1;stroke-width:0.863781">
            <path
   id="path36739"
   style="fill:#2f2f2f;fill-opacity:1;fill-rule:nonzero;stroke-width:0.863781"
   d="m 38.803973,36.140361 c -0.627987,-0.0221 -1.256449,0.107994 -1.835152,0.37919 -4.616798,2.163555 -9.518433,3.702026 -14.66042,4.347087 -0.693007,0.08694 -1.329554,0.427776 -1.785553,0.956775 -2.729998,3.270997 -4.357089,7.537889 -4.307089,12.194884 0.111,10.17999 8.257938,18.382125 18.197928,18.305125 9.94099,-0.076 17.910538,-8.390928 17.799538,-18.589918 -0.088,-8.093992 -5.231903,-14.927088 -12.292481,-17.391548 -0.362194,-0.126422 -0.739978,-0.188335 -1.116771,-0.201595 z"
   sodipodi:nodetypes="sssccccss" />
        </g><g
     transform="matrix(1.121579,0,0,0.9396142,0.29645425,9.5940889)"
     id="g36749"
     style="stroke-width:0.742729">
            <path
   d="m 43.863428,53.232789 c -3.715,2.697 -9.337,1.291 -12.553,-3.134 -3.227,-4.442 -2.828,-10.225 0.887,-12.923 3.707,-2.691 9.337,-1.291 12.564,3.15 3.222,4.434 2.817,10.21 -0.898,12.907 z M 29.035,64.782719 c -2.16,1.159 -5.03,0.01 -6.412,-2.562 -1.387,-2.581 -0.759,-5.61 1.4,-6.77 2.154,-1.155 5.03,-0.01 6.417,2.572 1.384,2.577 0.754,5.602 -1.405,6.76 z"
   style="fill:#ffffff;fill-rule:nonzero;stroke-width:0.742729"
   id="path36747"
   sodipodi:nodetypes="scccsccccc" />
        </g></g><g
   transform="matrix(1,0,0,-1,-64.39971,116.34216)"
   id="g36753">
            
        </g><path
   id="path36755"
   style="fill:none;stroke:#2f2f2f;stroke-width:6;stroke-dasharray:none;stroke-opacity:1"
   d="m 72.991468,93.529962 c 0,0 -3.678694,-3.687366 -9.10147,-3.687366 -5.422777,0 -9.10147,3.687366 -9.10147,3.687366"
   sodipodi:nodetypes="czc" />
<g
   transform="matrix(-1.2688926,0,0,1.2688926,132.61737,-5.5885917)"
   id="g26449"
   style="fill:#ffffff;fill-opacity:1;stroke-width:0.78809">
            <path
   id="path26447"
   style="fill:#ffffff;fill-opacity:1;fill-rule:nonzero;stroke-width:0.78809"
   d="m 38.803973,36.140361 c -0.627987,-0.0221 -1.256449,0.107994 -1.835152,0.37919 -4.616798,2.163555 -9.518433,3.702026 -14.66042,4.347087 -0.693007,0.08694 -1.329554,0.427776 -1.785553,0.956775 -2.729998,3.270997 -4.357089,7.537889 -4.307089,12.194884 0.111,10.17999 8.257938,18.382125 18.197928,18.305125 9.94099,-0.076 17.910538,-8.390928 17.799538,-18.589918 -0.088,-8.093992 -5.231903,-14.927088 -12.292481,-17.391548 -0.362194,-0.126422 -0.739978,-0.188335 -1.116771,-0.201595 z"
   sodipodi:nodetypes="sssccccss" />
        </g><g
   transform="matrix(-1.1577014,0,0,1.1577014,128.81302,-1.437002)"
   id="g26453"
   style="fill:#2f2f2f;fill-opacity:1;stroke-width:0.863781">
            <path
   id="path26451"
   style="fill:#2f2f2f;fill-opacity:1;fill-rule:nonzero;stroke-width:0.863781"
   d="m 38.803973,36.140361 c -0.627987,-0.0221 -1.256449,0.107994 -1.835152,0.37919 -4.616798,2.163555 -9.518433,3.702026 -14.66042,4.347087 -0.693007,0.08694 -1.329554,0.427776 -1.785553,0.956775 -2.729998,3.270997 -4.357089,7.537889 -4.307089,12.194884 0.111,10.17999 8.257938,18.382125 18.197928,18.305125 9.94099,-0.076 17.910538,-8.390928 17.799538,-18.589918 -0.088,-8.093992 -5.231903,-14.927088 -12.292481,-17.391548 -0.362194,-0.126422 -0.739978,-0.188335 -1.116771,-0.201595 z"
   sodipodi:nodetypes="sssccccss" />
        </g><g
   transform="matrix(1.121579,0,0,0.9396142,50.293561,12.776069)"
   id="g26457"
   style="stroke-width:0.742729">
            <path
   d="m 43.863428,53.232789 c -3.715,2.697 -9.337,1.291 -12.553,-3.134 -3.227,-4.442 -2.828,-10.225 0.887,-12.923 3.707,-2.691 9.337,-1.291 12.564,3.15 3.222,4.434 2.817,10.21 -0.898,12.907 z M 29.035,64.782719 c -2.16,1.159 -5.03,0.01 -6.412,-2.562 -1.387,-2.581 -0.759,-5.61 1.4,-6.77 2.154,-1.155 5.03,-0.01 6.417,2.572 1.384,2.577 0.754,5.602 -1.405,6.76 z"
   style="fill:#ffffff;fill-rule:nonzero;stroke-width:0.742729"
   id="path26455"
   sodipodi:nodetypes="scccsccccc" />
        </g></svg>
