<?xml version="1.0" encoding="UTF-8" standalone="no"?>
<svg
   width="100%"
   height="100%"
   viewBox="0 0 128 128"
   version="1.1"
   xml:space="preserve"
   style="fill-rule:evenodd;clip-rule:evenodd;stroke-linecap:round;stroke-linejoin:round;stroke-miterlimit:1.5;"
   id="svg72920"
   sodipodi:docname="emoji_u1f9ae.svg"
   inkscape:version="1.2.2 (732a01da63, 2022-12-09)"
   xmlns:inkscape="http://www.inkscape.org/namespaces/inkscape"
   xmlns:sodipodi="http://sodipodi.sourceforge.net/DTD/sodipodi-0.dtd"
   xmlns="http://www.w3.org/2000/svg"
   xmlns:svg="http://www.w3.org/2000/svg"><defs
   id="defs72924" /><sodipodi:namedview
   id="namedview72922"
   pagecolor="#ffffff"
   bordercolor="#000000"
   borderopacity="0.25"
   inkscape:showpageshadow="2"
   inkscape:pageopacity="0.0"
   inkscape:pagecheckerboard="0"
   inkscape:deskcolor="#d1d1d1"
   showgrid="false"
   inkscape:zoom="2.1210938"
   inkscape:cx="1.1786372"
   inkscape:cy="64.589319"
   inkscape:window-width="1366"
   inkscape:window-height="697"
   inkscape:window-x="-8"
   inkscape:window-y="-8"
   inkscape:window-maximized="1"
   inkscape:current-layer="svg72920" />
    <g
   transform="matrix(0.86814072,0,0,0.84297356,28.911686,-7.1751476)"
   id="g72888"
   style="stroke-width:1.13116">
        <path
   style="color:#000000;clip-rule:nonzero;fill:#757f3f;fill-rule:nonzero;stroke-width:1.13116;stroke-linecap:butt;stroke-linejoin:miter;-inkscape-stroke:none"
   d="m 90.320754,17.914665 c -0.453281,0.109111 -0.844584,0.393961 -1.087693,0.791789 0,0 -8.774068,12.754899 -18.111177,27.993438 -9.33711,15.238538 -19.370067,29.946716 -19.370067,29.946716 -0.975002,1.590492 -0.475349,3.670279 1.115754,4.644284 1.590491,0.975002 3.670279,0.475349 4.644284,-1.115754 0,0 8.523877,-15.178943 17.928804,-30.529502 9.404928,-15.35056 16.787218,-29.105223 16.787218,-29.105223 0.506389,-0.826625 0.247339,-1.907212 -0.578803,-2.414387 -0.39719,-0.24391 -0.875041,-0.319945 -1.32832,-0.211361 z"
   id="path72886"
   sodipodi:nodetypes="cczccczccc" />
    </g>
    <g
   transform="matrix(0.757265,0,0,0.757265,12.098245,27.67758)"
   id="g72892">
        <path
   d="m 59.93,10.84 c 0,0 3.01,0.94 4.1,1.43 l 26.84,28.3 c 0,0 0.94,1.29 3.01,1.91 L 93.01,50.93 75.84,54.9 51.59,37.17 47.05,18.73 Z M 7.29,47.96 c 0,0 -0.67,-5.68 0.32,-10.08 l 22.8,-25.95 c 0,0 0.84,-0.56 4.23,-1.33 l 9.57,3.88 -3.26,27.09 -27.09,21.84 z"
   style="fill:#855c52;fill-rule:nonzero"
   id="path72890" />
    </g>
    <g
   transform="matrix(0.757265,0,0,0.757265,12.098245,27.67758)"
   id="g72896">
        <path
   d="m 126.17,44.5 c -1.42,-0.73 -3.05,0.38 -4.28,0.98 -6.37,3.05 -11.68,5.11 -18.92,3.43 -1.96,-2.3 -4.41,-4.19 -7.13,-5.63 -0.8,-0.42 -1.8,-0.96 -2.74,-0.82 -0.35,0.06 -0.52,0.34 -0.74,0.6 -0.89,1.07 -1.54,2.36 -2.54,3.32 -0.96,0.91 -2.45,1.56 -3.92,1.77 -0.14,0.01 -0.28,0.03 -0.42,0.03 -6.53,0 -9.22,-6.72 -10.83,-10.73 -0.26,-0.64 -0.49,-1.22 -0.71,-1.7 -1.08,-2.3 -3.15,-3.51 -6.43,-5.31 -0.54,-0.3 -1.08,-0.59 -1.62,-0.9 -2.03,-1.15 -3.6,-2.35 -4.81,-3.68 -2.36,-2.59 -3.4,-5.67 -3.08,-9.15 0.19,-2.1 0.88,-4.09 1.93,-5.87 -2.22,-0.65 -7.39,-1.98 -12.83,-1.98 -4.81,0 -9.81,1.05 -12.46,1.74 1.13,1.84 1.86,3.93 2.06,6.12 0.31,3.47 -0.73,6.55 -3.09,9.15 -1.21,1.32 -2.78,2.53 -4.8,3.67 -0.54,0.31 -1.08,0.6 -1.62,0.9 -3.28,1.8 -5.35,3.02 -6.43,5.32 -0.23,0.48 -0.46,1.06 -0.71,1.7 C 18.44,41.47 15.74,48.18 9.17,48.18 8.52,48.17 7.9,48.09 7.29,47.96 c -0.02,0.95 -0.04,1.9 0,2.86 0.63,12.04 4.54,24.43 13.16,32.14 1.84,1.65 3.93,3.01 6.12,4.22 0,0 -0.13,15.2 -0.28,19.33 -0.12,3.57 -1.76,11.18 2.18,13.45 4.87,2.81 14.84,3.34 18.3,-1.85 1.47,-2.22 1.77,-4.93 1.77,-7.5 0,-2.95 0.17,-4.11 0.17,-7.07 0,-1.25 -0.47,-3.57 0.47,-4.55 0.56,-0.59 1.3,-0.45 2.01,-0.45 1.13,0 2.28,-0.12 3.41,-0.23 6.36,-0.65 5.84,2.39 6.38,6.89 0.39,3.27 -0.22,6.52 -0.48,9.81 -0.34,4.32 3.65,5.9 7.51,6.09 4.1,0.2 9.19,-0.25 12.82,-2.31 3.8,-2.17 2.32,-5.58 2.18,-9.11 -0.1,-2.46 -0.3,-4.92 -0.49,-7.37 -0.15,-2 -0.51,-3.99 -0.41,-6 0.1,-1.75 -0.29,-4.79 1.93,-5.52 1.57,-0.52 3.33,0 4.96,-0.31 2.4,-0.44 2.23,4.34 2.3,5.62 0.17,3.09 -0.28,5.32 2.58,7.2 3.4,2.24 9.06,1.65 12.74,0.57 6.68,-1.97 4.46,-7.7 4.78,-12.95 0.32,-5.07 0.3,-10.09 -0.04,-15.16 -0.35,-5.27 -1.04,-10.63 -2.58,-15.65 3.02,0.82 6.31,0.84 9.25,-0.03 3.91,-1.16 6.96,-3.8 8.43,-7.52 0.69,-1.75 2.09,-6.85 -0.29,-8.06 z"
   style="fill:#f79329;fill-rule:nonzero"
   id="path72894" />
    </g>
    <g
   transform="matrix(0.757265,0,0,0.757265,12.098245,27.67758)"
   id="g72900">
        <path
   d="m 27.46,62.56 c -2.79,-0.02 -5.04,-2.63 -5.02,-5.85 0.02,-3.2 2.29,-5.79 5.07,-5.78 2.78,0.01 5.03,2.64 5.01,5.85 -0.01,3.22 -2.29,5.79 -5.06,5.78 z m 29.92,18.97 c -0.24,0.6 -0.84,0.95 -1.28,1.21 l -0.2,0.12 c -2.14,1.29 -5.37,1.11 -7.58,0.07 l -0.23,-0.11 c -0.31,-0.15 -0.44,-0.21 -0.64,-0.21 -0.31,0.03 -0.6,0.15 -0.86,0.27 -0.21,0.09 -0.42,0.17 -0.6,0.23 -2.15,0.68 -4.5,1.13 -6.67,0.31 -0.6,-0.23 -1.41,-0.69 -1.86,-1.32 -0.32,-0.44 -0.44,-1.04 -0.31,-1.53 0.11,-0.42 0.39,-0.76 0.78,-0.96 0.78,-0.37 1.64,-0.04 2.19,0.25 1.38,0.74 3.76,0.79 4.91,-0.43 0.39,-0.42 0.58,-1.03 0.54,-1.81 v -0.2 c -1.16,-0.05 -2.27,-0.24 -3.37,-0.64 -3.37,-1.21 -4.31,-4.29 -2.96,-7.17 0.2,-0.43 0.44,-0.82 0.71,-1.18 1.44,-1.87 3.79,-2.72 6.5,-2.85 3.13,-0.15 7.23,0.99 8.87,3.7 1.06,1.77 0.58,4.49 -0.78,6.01 -1.25,1.42 -3.5,1.82 -5.56,1.99 -0.01,0.73 -0.02,1.51 0.27,2.01 l 0.46,0.37 c 1.32,0.9 3.39,1.08 4.82,0.27 l 0.25,-0.14 c 0.22,-0.13 0.43,-0.25 0.68,-0.34 0.67,-0.25 1.41,-0.05 1.79,0.52 0.29,0.45 0.34,1.04 0.13,1.56 z m 9.78,-18.97 c -2.77,0.01 -5.04,-2.57 -5.05,-5.78 -0.02,-3.21 2.23,-5.83 5.01,-5.85 2.77,-0.01 5.05,2.58 5.07,5.78 0.02,3.22 -2.24,5.83 -5.03,5.85 z"
   style="fill:#2f2f2f;fill-rule:nonzero"
   id="path72898" />
    </g>
    <g
   transform="matrix(0.757265,0,0,0.757265,12.098245,27.67758)"
   id="g72904">
        <path
   d="m 74.18,87.56 c -4.06,3.43 -10.13,7.72 -23.2,7.72 -12.02,0 -19.15,-5.55 -19.15,-5.55 0,0 8.16,2.61 15.78,2.61 4.44,0 8.14,-0.35 11.91,-1.39 5.82,-1.59 10.24,-4.71 12.33,-6.2 3.05,-2.17 9.29,-7.41 13.05,-19.8 0,0.01 -0.55,14.02 -10.72,22.61 z"
   style="fill:#006ca2;fill-rule:nonzero"
   id="path72902" />
    </g>
    <g
   transform="matrix(1.2908,0,0,1.2908,11.837845,-37.44382)"
   id="g72908">
        <path
   d="m 49.756,92.805 c 0.082,-0.299 0.017,-0.81 -0.191,-1.255 0.397,-1.78 0.262,-2.003 0.444,-2.996 0.932,-5.08 1.67,-14.55 1.67,-14.55 0,0 3.529,-0.337 7.645,3.831 -0.342,1.625 -0.839,3.162 -1.431,4.486 -1.367,3.052 -3.666,5.745 -6.467,7.912 -0.276,0.212 -0.483,0.502 -0.595,0.831 -0.03,0.084 -0.062,0.171 -0.097,0.262 -0.841,2.15 -1.318,4.03 -2.287,6.125 -1.064,2.302 -2.073,4.432 -4.078,6.089 -1.297,1.071 -2.637,2.197 -4.216,2.807 -4.074,1.575 -7.374,1.864 -12.962,1.173 -8.968,-1.109 -11.408,-5.206 -11.408,-5.206 2.357,1.147 3.764,2.388 5.784,2.972 2.758,0.797 5.312,1.607 8.188,1.651 5.925,0.09 6.824,-0.635 8.159,-0.98 1.953,-0.504 3.771,-1.606 5.338,-2.848 1.623,-1.286 2.646,-2.887 3.718,-4.623 1.151,-1.864 2.206,-3.564 2.786,-5.681 z"
   style="fill:#bdcf46"
   id="path72906" />
    </g>
    <g
   transform="matrix(0.757265,0,0,0.757265,12.098245,27.67758)"
   id="g72912">
        <path
   d="m 6.3,43.05 c 0.86,0.55 1.82,0.9 2.88,0.9 H 9.2 c 0.16,0 0.31,-0.03 0.46,-0.04 0.13,-0.02 0.24,-0.01 0.34,-0.03 0.21,-0.04 0.4,-0.11 0.59,-0.17 0.05,-0.02 0.11,-0.03 0.15,-0.05 0.24,-0.09 0.47,-0.21 0.68,-0.35 h 0.01 c 2.9,-1.8 4.33,-6.85 5.5,-9.34 1.99,-4.24 5.98,-5.94 9.78,-8.09 1.45,-0.82 2.76,-1.76 3.77,-2.85 1.4,-1.54 2.22,-3.44 2.01,-5.91 V 17.1 C 32.45,16.6 32.36,16.12 32.24,15.65 32.18,15.41 32.08,15.18 32.01,14.94 31.94,14.73 31.88,14.52 31.8,14.32 31.66,13.98 31.49,13.65 31.31,13.33 31.27,13.25 31.23,13.17 31.19,13.1 30.969,12.719 30.725,12.352 30.46,12 30.45,11.98 30.43,11.97 30.42,11.96 30.1,11.54 29.75,11.15 29.37,10.78 L 29.26,10.67 C 28.91,10.33 28.52,10.02 28.12,9.73 L 27.9,9.57 C 27.54,9.33 27.15,9.11 26.76,8.91 26.63,8.85 26.52,8.77 26.4,8.72 25.97,8.53 25.52,8.37 25.07,8.24 24.99,8.21 24.91,8.17 24.83,8.15 23.88,7.91 22.95,7.75 22.03,7.64 21.74,7.6 21.45,7.6 21.16,7.58 c -0.49,-0.04 -1,-0.1 -1.48,-0.1 -0.11,0 -0.22,0.02 -0.32,0.02 -0.34,0.01 -0.66,0.04 -1,0.06 -0.52,0.04 -1.04,0.08 -1.54,0.16 -0.35,0.06 -0.69,0.13 -1.03,0.21 -0.46,0.1 -0.92,0.21 -1.37,0.35 -0.34,0.11 -0.68,0.22 -1.01,0.35 -0.43,0.15 -0.84,0.33 -1.25,0.52 -0.32,0.15 -0.65,0.31 -0.96,0.47 -0.39,0.21 -0.76,0.44 -1.13,0.68 -0.3,0.19 -0.61,0.38 -0.9,0.58 -0.36,0.26 -0.71,0.55 -1.05,0.84 -0.27,0.23 -0.54,0.44 -0.8,0.67 -0.36,0.35 -0.7,0.72 -1.04,1.09 -0.4,0.43 -0.77,0.89 -1.13,1.36 -0.29,0.37 -0.58,0.74 -0.84,1.13 -0.23,0.34 -0.42,0.71 -0.63,1.06 -0.2,0.34 -0.41,0.67 -0.59,1.03 -0.2,0.38 -0.37,0.78 -0.55,1.18 -0.15,0.35 -0.31,0.7 -0.45,1.06 -0.16,0.41 -0.3,0.84 -0.43,1.26 C 1.54,21.92 1.43,22.28 1.33,22.65 1.2,23.06 1.09,23.51 1,23.96 0.92,24.32 0.86,24.7 0.8,25.07 0.73,25.53 0.66,26 0.61,26.47 c -0.04,0.36 -0.05,0.74 -0.07,1.11 -0.03,0.49 -0.06,0.97 -0.05,1.46 0,0.36 0.04,0.71 0.05,1.06 0.03,0.51 0.05,1.03 0.11,1.55 0.03,0.27 0.09,0.54 0.14,0.82 0.09,0.57 0.16,1.13 0.28,1.7 0.63,2.78 2.37,7.02 5.2,8.86 0.01,0.01 0.02,0.02 0.03,0.02 z M 63.28,13.5 c -0.16,0.31 -0.3,0.61 -0.43,0.93 -0.07,0.17 -0.12,0.34 -0.18,0.51 -0.08,0.25 -0.17,0.5 -0.24,0.76 -0.1,0.41 -0.17,0.82 -0.22,1.25 0,0.04 -0.02,0.09 -0.02,0.13 -0.23,2.49 0.59,4.39 2,5.93 1.02,1.1 2.34,2.03 3.78,2.85 2.08,1.18 4.21,2.23 6.05,3.63 1.52,1.16 2.84,2.54 3.74,4.46 1.07,2.3 2.38,6.78 4.85,8.87 0.03,0.03 0.06,0.04 0.09,0.07 0.18,0.14 0.36,0.28 0.54,0.4 0.07,0.04 0.14,0.07 0.2,0.1 0.16,0.09 0.32,0.18 0.49,0.25 0.1,0.04 0.2,0.06 0.31,0.09 0.15,0.04 0.29,0.1 0.44,0.13 0.13,0.03 0.26,0.03 0.39,0.04 0.14,0.02 0.27,0.04 0.4,0.04 h 0.03 c 4.58,-0.02 7.27,-6.15 8.1,-9.78 0.07,-0.32 0.1,-0.64 0.16,-0.97 0.1,-0.54 0.2,-1.08 0.27,-1.62 0.05,-0.39 0.06,-0.77 0.08,-1.15 0.03,-0.5 0.07,-0.99 0.07,-1.49 0,-0.38 -0.02,-0.75 -0.03,-1.13 C 94.13,27.31 94.1,26.82 94.05,26.33 94.01,25.96 93.96,25.6 93.91,25.23 93.84,24.74 93.75,24.26 93.65,23.78 93.58,23.43 93.5,23.09 93.41,22.75 93.29,22.26 93.14,21.78 92.99,21.31 92.88,21 92.78,20.68 92.66,20.37 92.48,19.87 92.26,19.39 92.04,18.92 91.92,18.65 91.8,18.37 91.67,18.11 91.4,17.58 91.1,17.07 90.79,16.57 90.67,16.38 90.57,16.19 90.45,16 89.55,14.63 88.5,13.39 87.33,12.3 87.17,12.15 86.99,12.01 86.82,11.87 86.38,11.5 85.95,11.13 85.49,10.8 L 84.78,10.33 C 84.35,10.05 83.92,9.78 83.46,9.54 83.18,9.39 82.91,9.26 82.62,9.13 82.18,8.92 81.72,8.73 81.25,8.55 80.95,8.44 80.64,8.33 80.33,8.24 79.85,8.12 79.36,8 78.87,7.89 78.55,7.82 78.23,7.75 77.9,7.7 77.38,7.62 76.86,7.57 76.32,7.54 76,7.52 75.68,7.48 75.35,7.48 c -0.11,0 -0.21,-0.02 -0.32,-0.02 -0.48,0 -0.97,0.06 -1.46,0.09 -0.3,0.03 -0.6,0.03 -0.9,0.06 -0.91,0.11 -1.84,0.28 -2.79,0.51 -0.56,0.15 -1.11,0.36 -1.63,0.59 -0.13,0.06 -0.25,0.14 -0.37,0.2 -0.4,0.21 -0.79,0.44 -1.17,0.69 -0.1,0.07 -0.2,0.15 -0.3,0.22 -0.39,0.3 -0.77,0.62 -1.12,0.97 -0.05,0.05 -0.11,0.1 -0.16,0.16 -0.39,0.41 -0.75,0.84 -1.08,1.3 l -0.02,0.02 c 0,0 0,0.01 -0.01,0.02 -0.22,0.32 -0.42,0.65 -0.6,0.99 -0.06,0.08 -0.1,0.15 -0.14,0.22 z"
   style="fill:#f79329;fill-rule:nonzero"
   id="path72910" />
    </g>
    
    <path
   d="m 75.468845,96.54168 c 0.04,-0.157 0.11,-0.32 0.228,-0.473 2.792,-3.727 3.719,-9.053 3.345,-12.603 -0.226,-2.141 -0.744,-4.231 -1.156,-6.358 l 0.335,-1.296 1.162,-0.684 c 0.429,0.113 0.857,0.225 1.286,0.337 l 0.681,1.142 c 0.625,4.412 0.523,8.847 -1.007,13.592 -0.71,2.167 -1.606,4.285 -2.994,6.048 -0.55,-0.01 -1.094,0.012 -1.61,0.183 -0.096,0.032 -0.186,0.069 -0.27,0.112 z"
   style="fill:#bdcf46;fill-rule:nonzero"
   id="path72918" />
<g
   transform="matrix(0.86814072,0,0,0.84297356,38.047856,-2.0176326)"
   id="g73053"
   style="stroke-width:1.13116">
        <path
   style="color:#000000;clip-rule:nonzero;fill:#757f3f;fill-rule:nonzero;stroke-width:1.13116;stroke-linecap:butt;stroke-linejoin:miter;-inkscape-stroke:none"
   d="m 90.320754,17.914665 c -0.453281,0.109111 -0.844584,0.393961 -1.087693,0.791789 0,0 -8.774068,12.754899 -18.111177,27.993438 -9.33711,15.238538 -19.370067,29.946716 -19.370067,29.946716 -0.975002,1.590492 -0.475349,3.670279 1.115754,4.644284 1.590491,0.975002 3.670279,0.475349 4.644284,-1.115754 0,0 8.523877,-15.178943 17.928804,-30.529502 9.404928,-15.35056 16.787218,-29.105223 16.787218,-29.105223 0.506389,-0.826625 0.247339,-1.907212 -0.578803,-2.414387 -0.39719,-0.24391 -0.875041,-0.319945 -1.32832,-0.211361 z"
   id="path73051"
   sodipodi:nodetypes="cczccczccc" />
    </g></svg>
