<?xml version="1.0" encoding="UTF-8" standalone="no"?>
<svg
   width="128"
   height="128"
   version="1.1"
   id="svg4"
   sodipodi:docname="emoji_u1f605.svg"
   xml:space="preserve"
   inkscape:version="1.3 (0e150ed6c4, 2023-07-21)"
   xmlns:inkscape="http://www.inkscape.org/namespaces/inkscape"
   xmlns:sodipodi="http://sodipodi.sourceforge.net/DTD/sodipodi-0.dtd"
   xmlns:xlink="http://www.w3.org/1999/xlink"
   xmlns="http://www.w3.org/2000/svg"
   xmlns:svg="http://www.w3.org/2000/svg"><defs
     id="defs4"><path
       id="SVGID_1_"
       d="M64,9.98c-61.93,0-63.4,69.43-63.4,83.18c0,13.73,28.38,24.87,63.4,24.87      c35.02,0,63.39-11.14,63.39-24.87C127.39,79.41,125.93,9.98,64,9.98z" /></defs><sodipodi:namedview
     id="namedview4"
     pagecolor="#ffffff"
     bordercolor="#000000"
     borderopacity="0.25"
     inkscape:showpageshadow="2"
     inkscape:pageopacity="0.0"
     inkscape:pagecheckerboard="0"
     inkscape:deskcolor="#d1d1d1"
     inkscape:zoom="8.515625"
     inkscape:cx="64"
     inkscape:cy="64"
     inkscape:current-layer="svg4" /><g
     id="g7"
     transform="translate(0.005,-0.005)">&#10;	<g
   id="g4">&#10;		<g
   id="g2">&#10;			<defs
   id="defs1">&#10;				<path
   id="path4"
   d="M 64,9.98 C 2.07,9.98 0.6,79.41 0.6,93.16 c 0,13.73 28.38,24.87 63.4,24.87 35.02,0 63.39,-11.14 63.39,-24.87 C 127.39,79.41 125.93,9.98 64,9.98 Z" />&#10;			</defs>&#10;			<use
   xlink:href="#SVGID_1_"
   overflow="visible"
   fill="#fcc21b"
   id="use1" />&#10;			<clipPath
   id="SVGID_2_">&#10;				<use
   xlink:href="#SVGID_1_"
   overflow="visible"
   id="use2" />&#10;			</clipPath>&#10;		</g>&#10;		<path
   fill="#2f2f2f"
   d="m 26.73,37.92 c 0.13,-0.31 3.41,-7.61 11.19,-7.77 h 0.05 c 7.81,-0.14 11.34,7.07 11.5,7.39 0.66,1.38 0.1,3.05 -1.27,3.72 -0.36,0.19 -0.76,0.28 -1.14,0.29 -1.02,0.02 -2.04,-0.55 -2.52,-1.56 -0.11,-0.2 -2.21,-4.33 -6.47,-4.24 h -0.02 c -4.27,0.09 -6.23,4.29 -6.3,4.46 -0.64,1.4 -2.27,2.02 -3.65,1.39 -1.36,-0.65 -1.99,-2.27 -1.37,-3.68 z"
   id="path2" />&#10;		<path
   fill="#ed6c30"
   d="M 73.15,78.76 C 64.28,84.44 51.23,84.21 41.69,80.91 36.61,79.09 29.3,74.17 26.2,66.42 24.85,63.06 24.64,57.43 25.97,54.18 c 1.04,-2.59 3.47,-3.63 5.92,-3.81 3.76,-0.27 8.34,3.17 12.09,4.45 7.07,2.43 13.82,2.37 22.04,1.38 5.28,-0.9 10.66,-2.65 15.21,0.01 2.71,1.63 3.27,5.13 2.9,8.13 -0.56,4.49 -4.19,10.07 -10.98,14.42 z"
   id="path3" />&#10;		<path
   fill="#2f2f2f"
   d="m 85.96,50.06 c -0.1,0.01 -0.2,0.01 -0.31,0.02 -1.37,0.03 -2.59,-1 -2.78,-2.44 -0.03,-0.2 -0.85,-5.56 -5.62,-7.06 -4.87,-1.51 -8.63,2.59 -8.67,2.63 -1.03,1.15 -2.77,1.22 -3.89,0.19 -1.11,-1.04 -1.2,-2.81 -0.17,-3.94 0.26,-0.29 6.18,-6.77 14.36,-4.22 8.19,2.57 9.41,11.32 9.46,11.7 0.19,1.51 -0.88,2.92 -2.38,3.12 z"
   id="path5" />&#10;	</g>&#10;	<g
   id="g6">&#10;		<g
   id="g5">&#10;			<path
   fill="#ffffff"
   d="m 111.96,67.82 c -0.44,1.89 -1.37,4.52 -3.35,5.44 -1.96,0.91 -4.18,0.38 -5.77,-0.96 -1.97,-1.64 -2.42,-3.92 -2.59,-6.33 -0.12,-1.42 -0.09,-2.81 0.01,-3.93 0.27,-2.91 -0.32,-5.77 -0.12,-8.61 0.06,-0.83 0.4,-1.88 1.37,-1.64 0.8,0.19 1.87,1.01 2.54,1.47 4.46,3.14 9.28,8.76 7.91,14.56 z"
   id="path6" />&#10;		</g>&#10;	</g>&#10;</g></svg>
