<?xml version="1.0" encoding="UTF-8" standalone="no"?>
<svg
   width="128"
   height="128"
   version="1.1"
   id="svg4"
   sodipodi:docname="emoji_u1f62a.svg"
   xml:space="preserve"
   inkscape:version="1.3 (0e150ed6c4, 2023-07-21)"
   xmlns:inkscape="http://www.inkscape.org/namespaces/inkscape"
   xmlns:sodipodi="http://sodipodi.sourceforge.net/DTD/sodipodi-0.dtd"
   xmlns="http://www.w3.org/2000/svg"
   xmlns:svg="http://www.w3.org/2000/svg"><defs
     id="defs4" /><sodipodi:namedview
     id="namedview4"
     pagecolor="#ffffff"
     bordercolor="#000000"
     borderopacity="0.25"
     inkscape:showpageshadow="2"
     inkscape:pageopacity="0.0"
     inkscape:pagecheckerboard="0"
     inkscape:deskcolor="#d1d1d1"
     inkscape:zoom="8.515625"
     inkscape:cx="64"
     inkscape:cy="64"
     inkscape:current-layer="g6" /><g
     id="g7"
     transform="translate(-0.00441636,0.00377098)">&#10;	<g
   id="g1">&#10;		<path
   fill="#fcc21b"
   d="M 16.06,32.87 C 35.27,4.11 67.35,-9.02 101.35,8.28 c 22.75,11.58 30.67,39.06 20.78,71.36 -4.07,13.32 6.12,15.58 5.46,22.65 -1.29,13.84 -28.39,25.18 -63.4,25.18 C 29.17,127.47 1.71,116.16 0.78,102.29 -1.11,74.35 3.81,51.25 16.06,32.87"
   id="path1" />&#10;	</g>&#10;	<g
   id="g6">&#10;		<path
   fill="#ed6c30"
   d="M 86.4,90.26 C 86.16,86.24 85.28,81.9 83.59,77.89 80.46,70.46 77.490482,65.180107 74.030482,62.510107 c -4.63,-3.57 -11.933745,-5.014495 -16.123745,-5.004495 -5.91,0 -13.860974,0.179101 -21.318102,7.87496 -4.824241,4.659265 -6.423654,16.423985 -5.203654,22.243985 C 33.354981,97.164557 46.27,101.33 50.47,103.32 61.19,108.37 87.82,113.85 86.4,90.26"
   id="path2"
   sodipodi:nodetypes="cccccccc" />&#10;		<path
   fill="#2f2f2f"
   d="m 88.11,46.56 c -1.33,-0.07 -2.79,-0.35 -4.35,-0.95 -6.96,-2.68 -8.26,-8.88 -8.31,-9.14 -0.27,-1.39 0.63,-2.74 2.02,-3.01 1.38,-0.27 2.72,0.62 3.01,1.99 0.05,0.21 0.91,3.75 5.12,5.37 4.28,1.65 7.35,-0.5 7.38,-0.52 1.14,-0.85 2.74,-0.62 3.59,0.52 0.85,1.13 0.62,2.74 -0.52,3.59 -0.16,0.12 -3.28,2.4 -7.94,2.15 z"
   id="path3" />&#10;		<path
   fill="#2f2f2f"
   d="m 53.9,35.39 c -1.38,-0.07 -2.87,-0.36 -4.48,-0.97 -7.15,-2.76 -8.45,-9.1 -8.51,-9.36 -0.27,-1.39 0.63,-2.74 2.02,-3.01 1.38,-0.27 2.72,0.62 3.01,2 0.04,0.2 0.92,3.89 5.32,5.59 4.46,1.71 7.66,-0.52 7.69,-0.55 1.14,-0.85 2.74,-0.61 3.59,0.52 0.85,1.13 0.61,2.74 -0.52,3.59 -0.15,0.11 -3.35,2.44 -8.12,2.19 z"
   id="path4" />&#10;		<g
   id="g5"
   transform="rotate(-127.47935,68.962424,47.562653)">&#10;			<path
   fill="#ffffff"
   d="m 47.74,52.43 c -2.71,3.3 -5.15,6.98 -8.8,9.31 -1.11,0.69 -2.29,1.27 -3.53,1.68 -5.11,1.72 -11.67,0.03 -15.63,-3.63 -6.85,-6.34 -3.57,-18.91 4.69,-22.57 3.47,-1.54 7.84,-1.59 11.41,-0.32 4.39,1.56 7.29,5.41 11.1,7.86 1.67,1.08 4.01,2.04 6.02,2.19 0.37,0.02 0.59,0.1 0.23,0.38 -1.65,1.25 -3.28,2.53 -4.66,4.09 -0.27,0.34 -0.56,0.68 -0.83,1.01"
   id="path5" />&#10;		</g>&#10;	</g>&#10;</g></svg>
