<?xml version="1.0" encoding="UTF-8" standalone="no"?>
<svg
   width="100%"
   height="100%"
   viewBox="0 0 128 128"
   version="1.1"
   xml:space="preserve"
   style="fill-rule:evenodd;clip-rule:evenodd;stroke-linejoin:round;stroke-miterlimit:1.41421;"
   id="svg10"
   sodipodi:docname="emoji_u1f9bf.svg"
   inkscape:version="1.3 (0e150ed6c4, 2023-07-21)"
   xmlns:inkscape="http://www.inkscape.org/namespaces/inkscape"
   xmlns:sodipodi="http://sodipodi.sourceforge.net/DTD/sodipodi-0.dtd"
   xmlns="http://www.w3.org/2000/svg"
   xmlns:svg="http://www.w3.org/2000/svg"><sodipodi:namedview
   id="namedview10"
   pagecolor="#ffffff"
   bordercolor="#000000"
   borderopacity="0.25"
   inkscape:showpageshadow="2"
   inkscape:pageopacity="0.0"
   inkscape:pagecheckerboard="0"
   inkscape:deskcolor="#d1d1d1"
   inkscape:zoom="2.867097"
   inkscape:cx="60.514171"
   inkscape:cy="80.046122"
   inkscape:window-width="1366"
   inkscape:window-height="697"
   inkscape:window-x="-8"
   inkscape:window-y="-8"
   inkscape:window-maximized="1"
   inkscape:current-layer="svg10" />&#10;    &#10;    &#10;    &#10;    &#10;    &#10;    &#10;    &#10;    &#10;    &#10;    <defs
   id="defs10">&#10;        <linearGradient
   id="_Linear1"
   x1="0"
   y1="0"
   x2="1"
   y2="0"
   gradientUnits="userSpaceOnUse"
   gradientTransform="matrix(-15.4049,25.4222,-25.4222,-15.4049,54.1815,52.3627)"><stop
     offset="0"
     style="stop-color:rgb(195,195,195);stop-opacity:1"
     id="stop9" /><stop
     offset="1"
     style="stop-color:rgb(152,152,152);stop-opacity:1"
     id="stop10" /></linearGradient>&#10;    </defs>&#10;<path
   style="fill:#6593a2;stroke-width:9.07087;stroke-linecap:round"
   d="m 42.468396,102.71554 c -22.911512,0 -33.316576,9.63044 -33.316576,15.58686 0,5.95644 6.55207,4.64602 11.793728,4.64602 10.245059,0 11.912859,-0.71477 18.107545,-0.71477 4.884272,0 7.5051,0.8339 11.912858,0.8339 4.765143,0 6.6712,-2.62083 6.6712,-5.95643 0,-5.47991 -4.103223,-14.39558 -15.168755,-14.39558 z"
   id="path4"
   sodipodi:nodetypes="sssssss" /><path
   id="circle3"
   style="fill:#4b6b75;stroke-width:9.07085;stroke-linecap:round"
   d="m 42.468852,102.71518 c -5.463368,0 -10.208059,0.55127 -14.277663,1.46607 a 14.955296,14.955296 0 0 0 14.826732,13.13612 14.955296,14.955296 0 0 0 12.741781,-7.16241 c -2.173497,-3.95294 -6.370562,-7.43978 -13.29085,-7.43978 z" /><path
   style="fill:#6593a2;stroke-width:9.07087;stroke-linecap:round"
   d="m 29.109234,39.447114 c -13.269305,3.5555 -7.884225,14.76083 -1.593289,38.238926 6.290938,23.47809 3.61466,36.57346 16.312818,34.8481 C 56.459661,110.8179 53.871375,96.696291 48.228697,75.637526 42.586017,54.578762 38.21454,37.007354 29.109234,39.447114 Z"
   id="path3"
   sodipodi:nodetypes="sssss" /><path
   id="path5"
   style="fill:#4b6b75;fill-opacity:1;stroke-width:9.07087;stroke-linecap:round"
   d="m 30.762942,39.219483 c -0.533564,1.82e-4 -1.083784,0.07583 -1.652866,0.228307 -8.873708,2.377702 -9.388271,8.201683 -6.885052,18.804174 1.61277,1.390145 3.450431,2.534189 5.373699,3.41328 5.08405,2.343357 10.798166,3.119246 16.304122,3.167992 0.450671,-0.04166 0.905189,-0.09575 1.354746,-0.173588 C 41.187329,50.088763 37.222521,39.21728 30.762942,39.219483 Z" /><path
   style="fill:#6593a2;stroke-width:9.07087;stroke-linecap:round"
   d="M 63.704814,10.023237 C 27.247761,23.752902 19.196584,38.188193 22.514189,48.739872 25.831798,59.291552 45.314915,61.626006 74.752764,57.377014 107.52584,52.646624 117.29635,40.302136 116.36223,25.64025 114.74799,0.3032138 89.913663,0.15302941 63.704814,10.023237 Z"
   id="path1"
   sodipodi:nodetypes="sssss" /><circle
   style="fill:#4b6b75;stroke-width:9.0709;stroke-linecap:round"
   id="path2"
   cx="93.033661"
   cy="27.253105"
   r="15.01486" /><circle
   style="fill:#4b6b75;stroke-width:9.0709;stroke-linecap:round"
   id="circle6"
   cx="37.847431"
   cy="43.094551"
   r="7.9421892" /><circle
   style="fill:#4b6b75;stroke-width:9.0709;stroke-linecap:round"
   id="circle7"
   cx="43.089088"
   cy="102.42058"
   r="5.0831032" /></svg>
