<?xml version="1.0" encoding="UTF-8" standalone="no"?>
<!-- Generator: Adobe Illustrator 25.2.3, SVG Export Plug-In . SVG Version: 6.00 Build 0)  -->

<svg
   version="1.1"
   id="Layer_2"
   x="0px"
   y="0px"
   viewBox="0 0 128 128"
   style="enable-background:new 0 0 128 128;"
   xml:space="preserve"
   sodipodi:docname="emoji_u1f97b.svg"
   inkscape:version="1.3 (0e150ed6c4, 2023-07-21)"
   xmlns:inkscape="http://www.inkscape.org/namespaces/inkscape"
   xmlns:sodipodi="http://sodipodi.sourceforge.net/DTD/sodipodi-0.dtd"
   xmlns="http://www.w3.org/2000/svg"
   xmlns:svg="http://www.w3.org/2000/svg"><defs
   id="defs68263">&#10;	&#10;	&#10;	&#10;	&#10;	&#10;	&#10;	&#10;	&#10;	&#10;	&#10;	&#10;	&#10;	&#10;	&#10;	&#10;	&#10;	&#10;	&#10;	&#10;	&#10;	&#10;	&#10;	&#10;	&#10;	&#10;	&#10;	&#10;	&#10;	&#10;	&#10;	&#10;	&#10;	&#10;	&#10;	&#10;	&#10;	&#10;	&#10;	&#10;	&#10;</defs><sodipodi:namedview
   id="namedview68261"
   pagecolor="#ffffff"
   bordercolor="#000000"
   borderopacity="0.25"
   inkscape:showpageshadow="2"
   inkscape:pageopacity="0.0"
   inkscape:pagecheckerboard="0"
   inkscape:deskcolor="#d1d1d1"
   showgrid="false"
   inkscape:zoom="4"
   inkscape:cx="90.375"
   inkscape:cy="69.625"
   inkscape:window-width="1366"
   inkscape:window-height="697"
   inkscape:window-x="-8"
   inkscape:window-y="-8"
   inkscape:window-maximized="1"
   inkscape:current-layer="Layer_2"
   showguides="false" />&#10;<path
   d="m 106.17022,21.378224 c -1.39287,-1.445014 -4.8685,-3.80422 -7.036649,-5.449766 -2.227294,-1.686833 -7.003813,-4.918946 -8.455823,-5.443869 -5.90002,-2.1291831 -8.560942,-2.8664351 -14.263857,-4.2701628 0,0 -5.472959,3.9500288 -11.44525,3.9500288 -5.972293,0 -11.44525,-3.9500288 -11.44525,-3.9500288 -5.702916,1.4037277 -8.357266,2.1409797 -14.263858,4.2701628 -1.458577,0.524923 -6.235097,3.757036 -8.455823,5.443869 -2.168157,1.645546 -5.650348,4.004752 -7.036654,5.449766 -0.137973,0.135655 -0.210245,0.68417 -0.203674,1.232685 0.09198,3.125948 1.931628,4.848168 4.283756,8.109772 2.542652,3.527013 4.356019,5.272826 6.300798,6.617573 0.341649,0.259512 1.215478,0.08847 1.833081,-0.347982 2.082744,-1.480403 2.864596,-2.424086 4.224626,-3.019785 0.0062,0 1.090645,-0.471841 1.445436,-0.100266 0.479621,0.507229 0.216816,17.535604 -0.381075,27.230986 0,0 -0.41392,12.864509 -0.70958,17.08106 -0.335077,4.726834 -0.321935,9.49843 -0.525609,14.278978 -0.170829,4.073313 -0.269376,8.236145 -0.354791,12.040895 0,0.35809 0.262805,0.88628 0.341649,1.08323 1.898781,4.72683 5.755475,6.29349 9.638453,7.27825 5.019611,1.27123 10.170635,1.90685 15.321655,1.90685 5.151019,0 10.29547,-0.63562 15.321655,-1.90685 3.876405,-0.98476 7.7331,-2.54246 9.638452,-7.27825 0.07885,-0.19695 0.341649,-0.72514 0.341649,-1.08323 -0.08541,-3.80475 -0.183965,-7.967582 -0.354789,-12.040895 -0.197105,-4.780548 -0.183965,-9.561096 -0.525615,-14.278978 -0.308799,-4.225503 -0.72929,-17.090012 -0.72929,-17.090012 -0.604456,-9.695382 -0.860693,-26.720703 -0.381069,-27.227933 0.348219,-0.365676 1.438869,0.100267 1.445439,0.100267 1.360027,0.595699 2.135308,1.539381 4.224624,3.019783 0.617597,0.436454 1.49143,0.613394 1.83308,0.347984 1.944769,-1.344748 3.751574,-3.09056 6.300793,-6.617574 2.35213,-3.261602 4.19178,-4.983823 4.28376,-8.109771 0.007,-0.542617 -0.0658,-1.091132 -0.21025,-1.226787 z"
   fill="#89c0e5"
   id="path5"
   style="stroke-width:0.999997;fill:#9531a6"
   sodipodi:nodetypes="ccccsccccccccccccccccsccccccccccccc" /><path
   style="fill:#42ade7;fill-opacity:1"
   d="m 87.690046,29.982182 -10.7,10.22 10.01,55.45 c 8.47,-2.99 14.260004,-8.59 18.910004,-11.48 2.7,-1.68 5.63,-2.59 5.63,-2.59 z"
   id="path68162" /><path
   style="fill:#197cb7;fill-opacity:1"
   d="m 91.290046,37.712182 6.980004,15.16 c 0,0 -7.430004,-6.74 -8.310004,1.45 -0.87,8.19 -2.69,16.24 -2.69,16.24 l -9.13,-34.54 z"
   id="path68164" /><path
   style="fill:#fcc21b"
   d="m 110.63005,79.782182 c -3.91,0.9 -7.01,3.21 -10.42,5.61 -3.800004,2.71 -7.910004,5.62 -13.600004,7.35 l 0.75,3.88 c 7.31,-1.98 12.360004,-5.55 16.460004,-8.42 3.11,-2.2 5.81,-4.11 8.52,-4.71 z"
   id="path68166" /><path
   style="fill:#196ca2;fill-opacity:1"
   d="m 35.105046,92.447182 -3.11,25.349998 c 6.41,4.11 14.03,1.2 18.34,2.2 4.31,1 8.52,4.11 16.03,4.11 7.51,0 9.62,-3.11 13.93,-4.11 4.31,-1 10.22,2 19.34,-3.41 l -14.03,-76.249998 c 0.05,-0.1 -8.92,17.93 -21.89,31.33 -12.29,12.69 -28.61,20.78 -28.61,20.78 z"
   id="path68170" /><path
   id="path68178"
   style="fill:#196ca2;fill-opacity:1"
   d="M 77.4375 6.4726562 C 65.605943 18.260012 45.905786 33.0403 41.84375 36.056641 C 41.908998 38.023981 41.906423 41.116351 41.847656 44.740234 L 42.117188 45.947266 L 41.802734 46.609375 C 41.701326 51.565528 41.524788 56.962329 41.269531 61.101562 C 41.269531 61.101562 40.856207 73.965094 40.560547 78.181641 C 40.287166 82.038148 40.229941 85.927567 40.113281 89.824219 C 48.091073 85.33028 63.818948 75.069751 73.654297 59.347656 C 88.371233 36.283505 89.985017 24.876666 92.28125 11.310547 C 91.603109 10.913087 91.037315 10.614369 90.677734 10.484375 C 85.174474 8.4983733 82.401792 7.7070615 77.4375 6.4726562 z " /><g
   id="g68184"
   transform="translate(0.82504605,0.70718233)">&#10;		<polygon
   style="fill:#fcc21b;fill-opacity:1"
   points="49.42,76.69 46.5,80.29 43.59,76.69 46.5,73.09 "
   id="polygon68182" />&#10;	</g><g
   id="g68190"
   transform="translate(0.82504605,0.70718233)">&#10;		<polygon
   style="fill:#fcc21b;fill-opacity:1"
   points="65.44,61.87 62.04,65.98 58.53,61.77 62.04,57.56 "
   id="polygon68188" />&#10;	</g><g
   id="g68194"
   transform="translate(0.82504605,0.70718233)">&#10;		<polygon
   style="fill:#fcc21b;fill-opacity:1"
   points="79.7,41.69 76.3,45.8 72.79,41.59 76.3,37.39 "
   id="polygon68192" />&#10;	</g><g
   id="g68198"
   transform="translate(0.82504605,0.70718233)">&#10;		<polygon
   style="fill:#fcc21b;fill-opacity:1"
   points="84.2,32.41 81.25,35.97 78.21,32.32 81.25,28.68 "
   id="polygon68196" />&#10;	</g><g
   id="g68202"
   transform="translate(0.82504605,0.70718233)">&#10;		<polygon
   style="fill:#fcc21b;fill-opacity:1"
   points="57.78,69.94 54.57,73.91 51.26,69.94 54.47,65.98 "
   id="polygon68200" />&#10;	</g><polygon
   style="fill:#fcc21b;fill-opacity:1"
   points="45.27,104.16 41.86,108.37 38.35,104.16 41.86,99.95 "
   id="polygon68204"
   transform="translate(0.82504605,0.70718233)" /><polygon
   style="fill:#fcc21b;fill-opacity:1"
   points="90.63,104.16 87.12,108.37 83.61,104.16 87.12,99.95 "
   id="polygon68206"
   transform="translate(0.82504605,0.70718233)" /><polygon
   style="fill:#fcc21b;fill-opacity:1"
   points="95.35,67.79 98.76,63.58 102.26,67.79 98.76,72 "
   id="polygon68208"
   transform="translate(0.95004609,8.3321823)" /><polygon
   style="fill:#fcc21b;fill-opacity:1"
   points="69,110.27 65.49,114.48 61.99,110.27 65.49,106.06 "
   id="polygon68210"
   transform="translate(0.82504605,0.70718233)" /><path
   style="fill:#0c4268;fill-opacity:1"
   d="m 45.175046,93.587182 c 0.82,-0.49 4.53,-2.46 4.19,2.87 -0.54,8.299998 -2.29,23.879998 -2.29,23.879998 0,0 2.96,-1.895 4.25,-1.445 1.45,0.51 4.3,3.735 4.3,3.735 0,0 2.11,-18.97 3.41,-28.419998 1.85,-13.41 7.02,-17.22 8.57,-18.16 1.54,-0.93 4.08,-1.12 5.52,2.14 3.08,6.99 5.61,25.829998 6.08,29.859998 0.47,4.03 1.48,3.48 1.52,-0.27 0.12,-12.149998 0.38,-40.839998 1.37,-48.509998 1.85,-14.34 4.15,-15.42 4.15,-15.42 l -0.65,-3.51 c 0.02,-0.04 0.86,-0.05 -1.3,-0.05 -3.48,7.33 -10.97,21.25 -22.31,32.61 -17.2,17.24 -26.88,19.55 -26.88,19.55 l -0.8,6.61 c 0,0 2.79,-0.6 10.87,-5.47 z"
   id="path68172"
   sodipodi:nodetypes="ccccccccsccccccccc" /><g
   id="g68222"
   transform="translate(0.82504605,0.70718233)">&#10;		<polygon
   style="fill:#fcc21b;fill-opacity:1"
   points="87.18,24.17 84.62,27.32 81.99,24.1 84.55,21.02 "
   id="polygon68220" />&#10;	</g><g
   id="g68226"
   transform="translate(0.82504605,0.70718233)">&#10;		<polygon
   style="fill:#fcc21b;fill-opacity:1"
   points="89.53,15.77 87.33,18.49 85.07,15.71 87.26,13.06 "
   id="polygon68224" />&#10;	</g><g
   id="g68230"
   transform="translate(0.82504605,0.70718233)">&#10;		<polygon
   style="fill:#fcc21b;fill-opacity:1"
   points="73.34,51.6 69.79,55.98 66.14,51.6 69.69,47.22 "
   id="polygon68228" />&#10;	</g><path
   id="path68238"
   style="fill:#fcc21b;fill-opacity:1"
   d="m 91.929688,11.115234 c -0.01091,0.625524 -0.489275,19.36027 -19.484376,47.361328 -10.680445,15.738384 -27.785889,26.288993 -37.145444,30.088954 -0.0332,1.288469 -0.145078,2.590935 -0.194822,3.881666 9.31,-3.285066 28.19328,-14.411793 39.889095,-32.390541 C 81.194499,50.527092 85.33766,41.95565 88.148438,34.753906 l 0.392578,-1.005859 c 4.99804,-12.805924 5.376576,-20.883346 5.402343,-21.398438 -0.730903,-0.467986 -1.435222,-0.907691 -2.013671,-1.234375 z"
   sodipodi:nodetypes="cccccsscc" /><path
   id="path68240"
   style="fill:#fcc21b;fill-opacity:1"
   d="M 85.578125,8.7441406 C 75.432938,39.370509 49.24596,64.539635 36.005845,75.428749 35.943653,76.948707 35.848882,78.203 35.785337,79.471728 48.904476,69.226095 76.091297,43.603601 87.080078,9.2285156 86.557,9.0522566 86.065934,8.9008053 85.578125,8.7441406 Z"
   sodipodi:nodetypes="ccccc" />&#10;<path
   style="fill:#fcc21b;fill-opacity:1"
   d="m 66.365046,124.70718 c -7.65,-0.03 -11.13,-2.59 -16.73,-4.21 -5.49,-0.55 -12.26,1.61 -17.84,-2.2 l 0.75,-5.03 c 5.5,3.88 12.47,1.72 18.28,2.72 5.41,1.43 8.85,4.11 15.43,4.11 6.51,0.05 7.67,-3.27 13.33,-4.01 6.94,-0.9 11.18,1.62 19.2,-4.05 l 1.06,5.25 c -8.82,5.25 -12.55,2.67 -19.06,3.4 -5.07,1.53 -6.66,3.99 -14.42,4.02 z"
   id="path68174" /><path
   style="fill:#0c4268;fill-opacity:1"
   d="m 40.187136,37.297182 c 0,0 1.45,8.03 1.54,8.76 0.09,0.73 -2.62,4.31 -2.62,5.7 0,1.39 -0.03,9.61 -0.03,10.59 0,0.98 -2.54,5.22 -2.66,6.18 -0.12,0.95 -1.32209,23.93 -1.32209,23.93 0,0 3.23,-0.48 7.05,-2.7 0.92,-16.5 -2.39791,-21.92 0.92209,-24.72 3.32,-2.79 9.84,-7.26 18.09,-21.38 0.35,-0.59 0.76,-1.81 -0.06,-2 -0.68,-0.16 -1.47,1.31 -1.62,1.52 -2.4,3.45 -6.21,8.27 -13.65,12.06 -3.2,1.63 -3.05,-6.15 -1.57,-6.96 2.69,-1.59 10.06,-7.6 15.27,-14.29 0.18,-0.24 1.12,-1.32 0.7,-1.72 -0.38,-0.35 -1.42,0.67 -1.42,0.68 0,0 -7.07,6.54 -10.15,7.8 -3.64,1.57 -3.25,-1.97 -3.5,-7.4 -3.81,3.08 -4.97,3.95 -4.97,3.95 z"
   id="path68180"
   sodipodi:nodetypes="csssccccccccccccccc" /><path
   id="path68236"
   style="fill:#fcc21b;fill-opacity:1"
   d="M 76.427734,6.21875 C 62.911729,19.203928 43.501881,32.956342 41.736328,34.199219 c -0.08443,0.05943 -0.349609,0.248047 -0.349609,0.248047 -1.229996,1.029996 -1.360309,2.209773 -1.070313,4.009765 0.513363,-0.312245 1.035492,-0.639016 1.5625,-0.976562 C 55.677793,28.642366 73.72356,11.621544 78.740234,6.8007812 77.992744,6.6111517 77.293384,6.4318449 76.427734,6.21875 Z"
   sodipodi:nodetypes="csccscc" /><path
   id="path6"
   style="fill:#f79329;fill-opacity:1"
   d="M 42.296875 85.169922 C 39.705259 86.598257 37.317839 87.748191 35.302734 88.566406 C 35.296693 88.681229 35.284804 88.875724 35.279297 88.980469 C 35.236073 90.133861 35.149905 91.294259 35.105469 92.447266 C 37.076807 91.751672 39.493398 90.684292 42.164062 89.294922 C 42.23953 87.829045 42.280434 86.463749 42.296875 85.169922 z " /><path
   id="path7"
   style="fill:#f79329;fill-opacity:1"
   d="M 41.597656 70.623047 C 39.567174 72.439672 37.682716 74.050191 36.007812 75.427734 C 35.935126 76.743675 35.865209 78.026505 35.787109 79.470703 C 37.57709 78.072723 39.646085 76.36369 41.882812 74.410156 C 41.764461 72.978874 41.653831 71.687119 41.597656 70.623047 z " /><polygon
   style="fill:#f79329;fill-opacity:1"
   points="40.72,82.04 38.35,84.97 35.99,82.04 38.35,79.12 "
   id="polygon68186"
   transform="translate(0.82504605,0.70718233)" /></svg>
