<?xml version="1.0" encoding="UTF-8" standalone="no"?>
<svg
   width="128"
   height="128"
   version="1.1"
   id="svg316"
   sodipodi:docname="emoji_u1f532.svg"
   inkscape:version="1.3 (0e150ed6c4, 2023-07-21)"
   xmlns:inkscape="http://www.inkscape.org/namespaces/inkscape"
   xmlns:sodipodi="http://sodipodi.sourceforge.net/DTD/sodipodi-0.dtd"
   xmlns="http://www.w3.org/2000/svg"
   xmlns:svg="http://www.w3.org/2000/svg">
  <defs
     id="defs320">
    <inkscape:path-effect
       effect="fillet_chamfer"
       id="path-effect1"
       is_visible="true"
       lpeversion="1"
       nodesatellites_param="F,0,0,1,0,1.4450852,0,1 @ F,0,1,1,0,1.4450852,0,1 @ F,0,1,1,0,1.4450852,0,1 @ F,0,1,1,0,1.4450852,0,1"
       radius="0"
       unit="px"
       method="auto"
       mode="F"
       chamfer_steps="1"
       flexible="false"
       use_knot_distance="true"
       apply_no_radius="true"
       apply_with_radius="true"
       only_selected="false"
       hide_knots="false" />
  </defs>
  <sodipodi:namedview
     id="namedview318"
     pagecolor="#ffffff"
     bordercolor="#000000"
     borderopacity="0.25"
     inkscape:showpageshadow="2"
     inkscape:pageopacity="0.0"
     inkscape:pagecheckerboard="0"
     inkscape:deskcolor="#d1d1d1"
     showgrid="false"
     inkscape:zoom="3.6875"
     inkscape:cx="63.457627"
     inkscape:cy="57.898305"
     inkscape:current-layer="svg316"
     inkscape:window-width="1366"
     inkscape:window-height="697"
     inkscape:window-x="-8"
     inkscape:window-y="-8"
     inkscape:window-maximized="1" />
  <g
     transform="matrix(5.71429,0,0,7.05882,-18.857205,-24.23525)"
     id="g4"
     style="clip-rule:evenodd;fill:#424242;fill-rule:evenodd;stroke-linejoin:round;stroke-miterlimit:2">
    <path
       d="M 25,6.267 C 25,5.016 23.745,4 22.2,4 H 6.8 C 5.255,4 4,5.016 4,6.267 V 18.733 C 4,19.984 5.255,21 6.8,21 h 15.4 c 1.545,0 2.8,-1.016 2.8,-2.267 z"
       style="fill:#424242"
       id="path2" />
  </g>
  <g
     transform="translate(-2.273515,1.04715)"
     id="g12"
     style="clip-rule:evenodd;fill:#616161;fill-rule:evenodd;stroke-linejoin:round;stroke-miterlimit:2" />
  <g
     transform="matrix(5.71429,0,0,7.05882,-18.857159,-30.235275)"
     id="g466"
     style="clip-rule:evenodd;fill:#424242;fill-rule:evenodd;stroke-linejoin:round;stroke-miterlimit:2">
    <path
       d="M 20.754903,7.1166678 H 8.2450816 c -0.7980977,0 -1.4450837,0.5150359 -1.4450837,1.1503647 V 18.432974 c 0,0.635329 0.646986,1.150366 1.4450837,1.150366 H 20.754903 c 0.798097,0 1.445083,-0.515037 1.445083,-1.150366 V 8.2670325 c 0,-0.6353288 -0.646986,-1.1503647 -1.445083,-1.1503647 z"
       style="fill:#eeeeee;stroke-width:1"
       id="path464"
       sodipodi:nodetypes="sssssssss" />
  </g>
</svg>
