<?xml version="1.0" encoding="UTF-8" standalone="no"?>
<!-- Generator: Adobe Illustrator 25.2.3, SVG Export Plug-In . SVG Version: 6.00 Build 0)  -->

<svg
   version="1.1"
   id="Layer_3"
   x="0px"
   y="0px"
   viewBox="0 0 128 128"
   style="enable-background:new 0 0 128 128;"
   xml:space="preserve"
   sodipodi:docname="emoji_u1f9ed.svg"
   inkscape:version="1.2.2 (732a01da63, 2022-12-09)"
   xmlns:inkscape="http://www.inkscape.org/namespaces/inkscape"
   xmlns:sodipodi="http://sodipodi.sourceforge.net/DTD/sodipodi-0.dtd"
   xmlns="http://www.w3.org/2000/svg"
   xmlns:svg="http://www.w3.org/2000/svg"><defs
   id="defs20791">
	
	

		
		
		
		
		
		
		
		
	</defs><sodipodi:namedview
   id="namedview20789"
   pagecolor="#ffffff"
   bordercolor="#000000"
   borderopacity="0.25"
   inkscape:showpageshadow="2"
   inkscape:pageopacity="0.0"
   inkscape:pagecheckerboard="0"
   inkscape:deskcolor="#d1d1d1"
   showgrid="false"
   inkscape:zoom="1.0605469"
   inkscape:cx="34.416206"
   inkscape:cy="124.46409"
   inkscape:window-width="1366"
   inkscape:window-height="697"
   inkscape:window-x="-8"
   inkscape:window-y="-8"
   inkscape:window-maximized="1"
   inkscape:current-layer="Layer_3" />
<path
   style="fill:#196ca2"
   d="M 120.27,7.69 C 117.89,5.31 114.72,4 111.36,4 c -3.36,0 -6.53,1.31 -8.91,3.69 -4.91,4.92 -4.91,12.92 0,17.84 2.38,2.38 5.55,3.69 8.91,3.69 3.37,0 6.53,-1.31 8.92,-3.69 4.91,-4.92 4.91,-12.92 -0.01,-17.84 z m -13.89,3.94 c 1.33,-1.33 3.1,-2.06 4.97,-2.06 1.87,0 3.65,0.73 4.98,2.06 2.75,2.75 2.75,7.22 0,9.96 -1.33,1.33 -3.1,2.06 -4.98,2.06 -1.88,0 -3.65,-0.73 -4.97,-2.06 -2.74,-2.74 -2.74,-7.21 0,-9.96 z"
   id="path20718" /><path
   style="fill:#2e82bd"
   d="m 105.51,30.95 -8.47,-8.48 6.04,-6.05 c 1.34,-1.34 3.51,-1.34 4.86,0 l 3.62,3.62 c 1.34,1.34 1.34,3.51 0,4.85 z"
   id="path20720" /><path
   style="fill:#0c4268"
   d="m 107.69,28.76 c 0,0 1.33,-2.67 -2.24,-6.24 -3.57,-3.57 -6.27,-2.2 -6.27,-2.2 l -2.14,2.15 8.47,8.48 z"
   id="path20722" /><g
   id="g23444"><g
     id="g20726">
			<ellipse
   style="fill:#196ca2"
   cx="62.369999"
   cy="65.629997"
   rx="58.330002"
   ry="58.369999"
   id="ellipse20724" />
		</g><g
     id="g20730">
			<ellipse
   style="fill:#ffffff"
   cx="62.369999"
   cy="65.629997"
   rx="47.290001"
   ry="47.32"
   id="ellipse20728" />
		</g><g
     id="g20740">
			<g
   id="g20734">
				
			</g>
			<g
   id="g20738">
				
			</g>
		</g><g
     id="g20750">
			
			<path
   style="fill:#db4437"
   d="m 87.832947,41.398805 c 0.930071,-1.357936 -0.224631,-2.041464 -1.300652,-1.300652 L 56.71,60.63 67.36,71.29 Z"
   id="path20744"
   sodipodi:nodetypes="ssccs" />
			<path
   style="fill:#196ca2"
   d="m 36.237053,90.541195 c -0.773197,1.129447 -0.04952,2.230212 1.300652,1.300652 L 67.36,71.31 56.7,60.65 Z"
   id="path20746"
   sodipodi:nodetypes="ssccs" />
			
		</g><g
     id="g20780">
			<g
   id="g20776">
				<g
   id="g20756">
					
					
				</g>
				<g
   id="g20762">
					
					
				</g>
				<g
   id="g20768">
					
					
				</g>
				<g
   id="g20774">
					
					
				</g>
			</g>
			
		</g></g>
<g
   id="g23384"
   transform="translate(102.04105,-1.0437245)"><text
     x="-45.733547"
     y="37.368595"
     style="font-weight:700;font-size:19.2155px;font-family:ComicNeue-Bold, 'Comic Neue';clip-rule:evenodd;fill-rule:evenodd;stroke-width:1.02216;fill:#212121"
     id="text18399">N</text><text
     x="-9.7873154"
     y="73.111412"
     style="font-weight:700;font-size:19.2155px;font-family:ComicNeue-Bold, 'Comic Neue';clip-rule:evenodd;fill-rule:evenodd;stroke-width:1.02216;fill:#212121"
     id="text18403">E</text><text
     x="-45.532143"
     y="108.85323"
     style="font-weight:700;font-size:19.2155px;font-family:ComicNeue-Bold, 'Comic Neue';clip-rule:evenodd;fill-rule:evenodd;stroke-width:1.02216;fill:#212121"
     id="text18407">S</text><text
     x="-80.719002"
     y="73.207588"
     style="font-weight:700;font-size:19.2155px;font-family:ComicNeue-Bold, 'Comic Neue';clip-rule:evenodd;fill-rule:evenodd;stroke-width:1.02216;fill:#212121"
     id="text18411">W</text></g><path
   style="fill:#196ca2"
   d="m -25.044674,7.69 c -2.38,-2.38 -5.55,-3.69 -8.91,-3.69 -3.36,0 -6.53,1.31 -8.91,3.69 -4.91,4.92 -4.91,12.92 0,17.84 2.38,2.38 5.55,3.69 8.91,3.69 3.37,0 6.53,-1.31 8.92,-3.69 4.91,-4.92 4.91,-12.92 -0.01,-17.84 z m -13.89,3.94 c 1.33,-1.33 3.1,-2.06 4.97,-2.06 1.87,0 3.65,0.73 4.98,2.06 2.75,2.75 2.75,7.22 0,9.96 -1.33,1.33 -3.1,2.06 -4.98,2.06 -1.88,0 -3.65,-0.73 -4.97,-2.06 -2.74,-2.74 -2.74,-7.21 0,-9.96 z"
   id="path23895" /><path
   style="fill:#2e82bd"
   d="m -39.804674,30.95 -8.47,-8.48 6.04,-6.05 c 1.34,-1.34 3.51,-1.34 4.86,0 l 3.62,3.62 c 1.34,1.34 1.34,3.51 0,4.85 z"
   id="path23897" /><path
   style="fill:#0c4268"
   d="m -37.624674,28.76 c 0,0 1.33,-2.67 -2.24,-6.24 -3.57,-3.57 -6.27,-2.2 -6.27,-2.2 l -2.14,2.15 8.47,8.48 z"
   id="path23899" /><g
   id="g23933"
   transform="translate(-145.31467)"><g
     id="g23903">
			<ellipse
   style="fill:#196ca2"
   cx="62.369999"
   cy="65.629997"
   rx="58.330002"
   ry="58.369999"
   id="ellipse23901" />
		</g><g
     id="g23907">
			<ellipse
   style="fill:#ffffff"
   cx="62.369999"
   cy="65.629997"
   rx="47.290001"
   ry="47.32"
   id="ellipse23905" />
		</g><g
     id="g23913">
			<g
   id="g23909">
				
			</g>
			<g
   id="g23911">
				
			</g>
		</g><g
     id="g23919">
			
			<path
   style="fill:#db4437"
   d="m 87.832947,41.398805 c 0.930071,-1.357936 -0.224631,-2.041464 -1.300652,-1.300652 L 56.71,60.63 67.36,71.29 Z"
   id="path23915"
   sodipodi:nodetypes="ssccs" />
			<path
   style="fill:#196ca2"
   d="m 36.237053,90.541195 c -0.773197,1.129447 -0.04952,2.230212 1.300652,1.300652 L 67.36,71.31 56.7,60.65 Z"
   id="path23917"
   sodipodi:nodetypes="ssccs" />
			
		</g><g
     id="g23931">
			<g
   id="g23929">
				<g
   id="g23921">
					
					
				</g>
				<g
   id="g23923">
					
					
				</g>
				<g
   id="g23925">
					
					
				</g>
				<g
   id="g23927">
					
					
				</g>
			</g>
			
		</g></g><g
   id="g23985"
   transform="translate(174.68533)"><g
     id="g23977"><path
       d="m -251.69905,26.268807 h -2.91521 c -0.17446,0 -0.31429,0.141164 -0.31429,0.314291 v 8.378025 l -5.45217,-8.547157 c -0.0572,-0.09056 -0.15716,-0.145159 -0.26502,-0.145159 h -2.91653 c -0.17311,0 -0.31429,0.141164 -0.31429,0.314291 v 13.446664 c 0,0.173125 0.14117,0.314283 0.31429,0.314283 h 2.91653 c 0.17312,0 0.31562,-0.141158 0.31562,-0.314283 v -8.379363 l 5.45083,8.547157 c 0.0572,0.09061 0.1585,0.145166 0.26636,0.145166 h 2.91519 c 0.17315,0 0.3143,-0.141177 0.3143,-0.314302 V 26.583098 c -9.6e-4,-0.173127 -0.14249,-0.314291 -0.31561,-0.314291 z"
       style="fill:#212121;stroke-width:0.999996"
       id="path23945" /><path
       d="m -253.51396,98.134968 c -1.07605,-1.016133 -2.90587,-1.863111 -4.11643,-2.423793 -0.20509,-0.09454 -0.39019,-0.179779 -0.54735,-0.255689 -0.45678,-0.219744 -1.08138,-0.828348 -0.81236,-1.527523 0.18112,-0.472767 0.64058,-0.71115 1.36771,-0.71115 0.23304,0 0.48874,0.02666 0.76176,0.07728 0.9482,0.177124 1.66735,0.531371 2.07486,0.732465 0.0506,0.02531 0.10916,0.028 0.16247,0.0096 0.0519,-0.01994 0.0959,-0.05993 0.11858,-0.111866 l 0.93355,-2.105492 c 0.0412,-0.09186 0.009,-0.201094 -0.0759,-0.257022 -0.65788,-0.436812 -2.29992,-1.08538 -4.12442,-1.08538 -0.26369,0 -0.52604,0.01333 -0.78173,0.03998 -1.45427,0.149164 -2.91121,0.536702 -3.71825,2.349206 -0.5034,1.12799 -0.50206,2.39848 9.6e-4,3.314733 0.53802,1.00014 1.41964,1.447604 2.53563,2.012265 l 0.14384,0.07326 c 0.80571,0.402179 1.77122,0.849652 2.40647,1.143963 0.93888,0.452796 1.28647,1.257175 1.07072,1.741945 -0.34758,0.78174 -1.11599,0.95354 -2.44509,0.57664 -1.17326,-0.31829 -2.25598,-1.21721 -2.55828,-1.4849 -0.0453,-0.04 -0.10522,-0.0586 -0.16647,-0.0506 -0.0599,0.008 -0.11323,0.0426 -0.14649,0.0919 l -1.44628,2.21736 c -0.0546,0.0838 -0.0427,0.19444 0.0292,0.26369 0.74976,0.72314 1.36104,1.14397 2.41977,1.66468 0.7125,0.35025 1.75526,0.56067 2.79002,0.56067 1.08138,0 3.72223,-0.25037 4.88086,-2.56494 0.73912,-1.48091 0.46344,-3.041726 -0.75777,-4.290901 z"
       style="fill:#212121;stroke-width:0.999996"
       id="path23947" /></g><g
     id="g23973"
     transform="translate(0,4.2253418e-5)"><path
       d="m -219.11484,61.431624 c 0.16379,0 0.29831,-0.133176 0.29831,-0.298313 v -2.226682 c 0,-0.165136 -0.13452,-0.298311 -0.29831,-0.298311 h -6.37773 -0.77241 -2.14411 c -0.16515,0 -0.29832,0.133175 -0.29832,0.298311 v 13.446663 c 0,0.165129 0.13317,0.2983 0.29832,0.2983 h 2.14277 0.77375 6.37905 c 0.16382,0 0.29832,-0.133171 0.29832,-0.2983 v -2.226687 c 0,-0.165138 -0.1345,-0.298319 -0.29832,-0.298319 h -6.08074 v -2.936498 h 4.6771 c 0.16381,0 0.29832,-0.133175 0.29832,-0.298311 v -2.226683 c 0,-0.165135 -0.13451,-0.29831 -0.29832,-0.29831 h -4.6771 v -2.63686 z"
       style="fill:#212121;stroke-width:0.999996"
       id="path23951" /><path
       d="m -279.51995,58.745915 c -0.0612,-0.0759 -0.15315,-0.121186 -0.24903,-0.121186 h -3.30142 c -0.15181,0 -0.28231,0.106542 -0.31028,0.255696 l -1.27581,6.482947 -1.79388,-6.506919 c -0.0102,-0.03863 -0.0292,-0.07191 -0.0519,-0.102547 -9.6e-4,-0.0012 -9.6e-4,-0.0054 -0.004,-0.0066 -0.004,-0.0054 -0.0102,-0.0066 -0.0147,-0.01196 -0.0226,-0.02663 -0.0493,-0.04794 -0.0799,-0.06526 -0.0102,-0.0054 -0.02,-0.01196 -0.0307,-0.01598 -0.0385,-0.01732 -0.0799,-0.0293 -0.12519,-0.0293 h -2.38516 c -0.0439,0 -0.0865,0.01196 -0.1252,0.0293 -0.0102,0.0054 -0.0199,0.01069 -0.0307,0.01598 -0.0307,0.01732 -0.0572,0.03863 -0.0799,0.06526 -0.005,0.0054 -0.0102,0.0066 -0.0147,0.01196 -9.6e-4,0.0027 -9.6e-4,0.0054 -0.004,0.0066 -0.0226,0.03063 -0.0412,0.06526 -0.0519,0.102547 l -1.7912,6.506919 -1.27714,-6.482947 c -0.0292,-0.147824 -0.15982,-0.255696 -0.3103,-0.255696 h -3.30008 c -0.0972,0 -0.19044,0.04528 -0.24902,0.121186 -0.0612,0.07591 -0.0826,0.177123 -0.0599,0.270345 l 3.30142,13.377405 c 9.5e-4,0.0038 0.005,0.0077 0.005,0.01333 0.008,0.02531 0.0173,0.04794 0.0307,0.07057 0.004,0.0067 0.007,0.01333 0.0114,0.01994 0.003,0.0038 0.004,0.0077 0.008,0.01141 0.016,0.02138 0.0334,0.03864 0.0546,0.056 0.003,0.0029 0.007,0.0038 0.0102,0.0067 0.0214,0.01601 0.0453,0.02925 0.0706,0.03854 0.007,0.0029 0.0147,0.0048 0.0226,0.0077 0.0292,0.0086 0.0614,0.01601 0.0933,0.01601 h 2.63419 c 0.0439,0 0.0839,-0.01016 0.12253,-0.028 0.0102,-0.0048 0.0199,-0.01016 0.0307,-0.01601 0.0266,-0.01601 0.0519,-0.03461 0.0733,-0.05868 0.005,-0.0048 0.0133,-0.0077 0.0186,-0.01333 0.003,-0.0038 0.003,-0.0077 0.005,-0.01141 0.0253,-0.03337 0.0453,-0.06923 0.056,-0.110571 l 1.93769,-7.537685 1.93768,7.539027 c 0.0102,0.04133 0.0307,0.07719 0.056,0.110562 0.003,0.0038 0.003,0.0077 0.007,0.01141 0.004,0.0048 0.0114,0.0077 0.0173,0.01333 0.0213,0.02388 0.0453,0.04267 0.0732,0.05868 0.0102,0.0048 0.0199,0.01141 0.0307,0.01601 0.0385,0.01601 0.0786,0.028 0.12253,0.028 h 2.63418 c 0.0319,0 0.0626,-0.0067 0.0933,-0.01601 0.008,-0.0029 0.0147,-0.0048 0.024,-0.0077 0.024,-0.0086 0.0479,-0.02263 0.0707,-0.03854 0.004,-0.0029 0.007,-0.0038 0.0102,-0.0067 0.0199,-0.01601 0.0385,-0.03461 0.0546,-0.05599 0.003,-0.0038 0.004,-0.0077 0.008,-0.01141 0.004,-0.0067 0.007,-0.01333 0.0114,-0.01994 0.0114,-0.02263 0.0226,-0.04526 0.0307,-0.07067 9.6e-4,-0.0038 0.005,-0.0077 0.005,-0.01333 l 3.30141,-13.377402 c 0.0213,-0.09456 0,-0.195767 -0.0599,-0.271677 z"
       style="fill:#212121;stroke-width:0.999996"
       id="path23953" /></g></g></svg>
