<?xml version="1.0" encoding="UTF-8" standalone="no"?>
<svg
   width="128"
   height="128"
   style="enable-background:new 0 0 128 128;"
   version="1.1"
   id="svg24"
   sodipodi:docname="emoji_u1fa71.svg"
   inkscape:version="1.3 (0e150ed6c4, 2023-07-21)"
   xmlns:inkscape="http://www.inkscape.org/namespaces/inkscape"
   xmlns:sodipodi="http://sodipodi.sourceforge.net/DTD/sodipodi-0.dtd"
   xmlns="http://www.w3.org/2000/svg"
   xmlns:svg="http://www.w3.org/2000/svg">
  <defs
     id="defs24" />
  <sodipodi:namedview
     id="namedview24"
     pagecolor="#ffffff"
     bordercolor="#000000"
     borderopacity="0.25"
     inkscape:showpageshadow="2"
     inkscape:pageopacity="0.0"
     inkscape:pagecheckerboard="0"
     inkscape:deskcolor="#d1d1d1"
     showguides="false"
     inkscape:zoom="2.867097"
     inkscape:cx="74.639957"
     inkscape:cy="61.211741"
     inkscape:window-width="1366"
     inkscape:window-height="697"
     inkscape:window-x="-8"
     inkscape:window-y="-8"
     inkscape:window-maximized="1"
     inkscape:current-layer="svg24" />
  <g
     id="g2"
     transform="matrix(0.9361015,0,0,1,4.1638857,0)"
     style="stroke-width:1.03357;fill:#9531a6">
    <path
       id="path1"
       style="fill:#9531a6;stroke-width:1.03357"
       d="m 49.028896,1.1308594 c -2.655922,0 -3.816638,2.2195742 -4.662363,4.1687494 -2.395413,5.5208042 -3.984345,8.4401552 -8.159136,15.4670572 -1.165439,1.96164 -2.083788,4.103609 -3.323942,6.012631 -6.332799,9.748336 -4.974476,16.401042 -1.143484,25.041015 3.339899,7.532419 4.322027,11.749095 4.322027,20.417969 0,14.687533 -9.796558,22.631641 -9.44902,25.424795 0.347538,2.793154 4.389971,1.688377 16.573695,8.722654 12.183723,7.03427 12.55084,18.65994 14.247016,19.54982 1.486949,0.7801 3.774316,0.91406 7.730373,0.91406 3.956058,0 6.243425,-0.13396 7.730374,-0.91406 1.696176,-0.88988 2.102007,-13.05023 14.000385,-19.91976 11.898374,-6.869535 16.472799,-5.55961 16.820329,-8.352714 0.34753,-2.793105 -9.449023,-10.737362 -9.449023,-25.424795 0,-8.668874 0.982139,-12.885547 4.322035,-20.417969 C 102.41915,43.180339 103.77748,36.527636 97.444667,26.779297 96.204514,24.870279 95.286168,22.728306 94.120728,20.766666 89.945937,13.739764 88.357006,10.820413 85.961594,5.2996088 85.115869,3.3504332 83.953903,1.0517176 81.29923,1.1308594 c -0.699646,0.020858 -2.211728,0.039299 -2.592435,0.7792968 -0.226366,0.4399988 0.0415,1.6194523 0.196944,2.0390626 2.941631,7.9403662 8.541246,18.6997282 2.141894,25.4609372 -4.627111,4.888755 -9.544539,6.371094 -15.881569,6.371094 -6.337029,0 -11.254457,-1.482339 -15.881568,-6.371094 C 42.883141,22.648946 48.482754,11.889584 51.424389,3.9492188 51.57984,3.5296074 51.847699,2.350155 51.621333,1.9101562 51.240627,1.1701586 49.728875,1.1308594 49.0289,1.1308594 Z"
       sodipodi:nodetypes="sssssszzssszzsssssssssssssss" />
  </g>
  <g
     id="g24"
     transform="matrix(-1,0,0,1,130.32812,0)" />
  <path
     id="rect24"
     style="fill:#682590;stroke:none;stroke-width:2;stroke-linecap:round"
     d="M 37.8125 68.033203 C 37.877664 69.335072 37.921875 70.699213 37.921875 72.238281 C 37.921875 75.474622 37.462291 78.364333 36.771484 80.962891 L 93.556641 80.962891 C 92.865834 78.364335 92.40625 75.4746 92.40625 72.238281 C 92.40625 70.699213 92.45046 69.335072 92.515625 68.033203 L 37.8125 68.033203 z " />
</svg>
