<?xml version="1.0" encoding="UTF-8" standalone="no"?>
<svg
   width="128"
   height="128"
   version="1.1"
   id="svg7"
   sodipodi:docname="emoji_u1f9ea.svg"
   inkscape:version="1.3 (0e150ed6c4, 2023-07-21)"
   xmlns:inkscape="http://www.inkscape.org/namespaces/inkscape"
   xmlns:sodipodi="http://sodipodi.sourceforge.net/DTD/sodipodi-0.dtd"
   xmlns="http://www.w3.org/2000/svg"
   xmlns:svg="http://www.w3.org/2000/svg">
  <sodipodi:namedview
     id="namedview7"
     pagecolor="#ffffff"
     bordercolor="#000000"
     borderopacity="0.25"
     inkscape:showpageshadow="2"
     inkscape:pageopacity="0.0"
     inkscape:pagecheckerboard="0"
     inkscape:deskcolor="#d1d1d1"
     inkscape:zoom="2.867097"
     inkscape:cx="75.860704"
     inkscape:cy="74.81435"
     inkscape:window-width="1366"
     inkscape:window-height="697"
     inkscape:window-x="-8"
     inkscape:window-y="-8"
     inkscape:window-maximized="1"
     inkscape:current-layer="svg7" />
  <defs
     id="defs2">
    <linearGradient
       id="a">
      <stop
         offset="0"
         id="stop1" />
      <stop
         offset="1"
         stop-opacity="0"
         id="stop2" />
    </linearGradient>
  </defs>
  <g
     id="g7"
     transform="matrix(1.1806935,0,0,1.1806935,-9.5098313,-4.081803)"
     style="stroke-width:0.84696">
    <g
       id="g9"
       transform="rotate(30,81.121156,34.892597)"
       style="stroke-width:0.84696">
      <path
         id="use2"
         style="fill:#ffffff;stroke-width:0.84696"
         d="m 70.919922,21.328125 c -5.659811,0.179622 -11.514453,1.238214 -16.326397,4.381087 -2.884919,1.877806 -5.347708,4.931784 -5.372822,8.515397 -0.128848,3.206291 1.668351,6.033784 3.504038,8.506646 1.53327,2.059044 2.958615,4.210721 3.999589,6.5647 0.787081,1.551731 1.999031,3.03351 3.242467,4.102483 -1.377854,-0.431143 -2.660489,1.015396 -2.422702,2.353505 0.208047,1.575867 -0.0454,3.399156 1.1084,4.681044 0.497859,0.667831 1.120868,1.235744 1.794771,1.72131 -1.525731,-0.346443 -3.026431,1.3567 -2.433594,2.822265 0.08785,1.337243 0.176617,2.674425 0.263672,4.011719 0.909841,0.637279 1.812012,1.285123 2.738281,1.898438 -0.878897,-0.349633 -1.757814,-0.699215 -2.636719,-1.048828 0.154922,2.400188 0.19665,4.832665 0.42238,7.213063 0.46521,1.013634 1.285,1.82886 2.247542,2.37678 -0.703125,-0.234375 -1.40625,-0.46875 -2.109375,-0.703125 0.177922,2.341766 0.270749,4.704471 0.500166,7.033391 0.380875,1.094715 1.259628,1.937111 2.269365,2.466609 -0.701823,-0.193359 -1.403645,-0.386718 -2.105468,-0.580078 0.338098,5.264609 0.612019,10.536296 1.009169,15.795289 0.459092,2.49083 1.706857,4.82837 3.40294,6.69885 2.863645,3.1426 7.452851,4.57376 11.584222,3.5282 2.899002,-0.72822 5.662526,-2.43618 7.28702,-4.98452 1.316791,-2.32308 1.51157,-5.03943 1.950192,-7.62082 1.422732,-11.010489 2.763539,-22.032283 4.078329,-33.056326 0.49579,-4.052779 0.939855,-8.110784 1.322318,-12.175356 0.386535,-3.222439 0.837582,-6.700077 3.059169,-9.240004 1.791857,-2.048976 3.60101,-4.223954 4.310388,-6.912475 0.7215,-2.531028 1.029734,-5.370169 -0.202135,-7.800328 -1.819841,-3.789119 -5.570429,-6.194619 -9.33788,-7.758201 -5.413246,-2.1921 -11.340967,-2.898309 -17.147326,-2.790715 z" />
      <path
         id="path3"
         clip-path="none"
         style="fill:#bdcf46;fill-opacity:1;stroke-width:0.84696"
         d="m 86.222025,64.456004 c -2.514665,2.793444 -5.950752,4.523542 -9.310806,6.085917 -4.32712,1.900153 -8.939292,3.630936 -13.73857,3.473737 -1.589363,-0.03567 -3.09424,-0.585975 -4.623082,-0.956982 0.10007,1.326381 0.08125,2.685744 0.253232,3.992303 0.466552,1.018375 1.290519,1.836232 2.25893,2.384087 -0.707567,-0.235241 -1.415134,-0.470483 -2.122701,-0.705726 0.177677,2.339509 0.26813,4.699921 0.5017,7.026407 0.374759,1.094634 1.255155,1.933158 2.259055,2.465674 -0.69836,-0.191968 -1.396721,-0.383937 -2.095081,-0.575905 0.335162,5.265813 0.610328,10.537196 1.010016,15.796774 0.412115,2.30022 1.530591,4.46466 3.015265,6.25579 2.767673,3.3521 7.430216,5.0031 11.680424,4.0321 3.014462,-0.67362 5.89724,-2.41902 7.578278,-5.04984 1.314099,-2.31798 1.507995,-5.04349 1.94831,-7.61989 1.748802,-13.556574 3.375565,-27.127807 4.982712,-40.702074 -1.199228,1.365876 -2.398455,2.731752 -3.597682,4.097628 z" />
      <path
         id="path12"
         style="fill:#78a3ad;fill-opacity:1;stroke-width:0.84696"
         d="m 53.798081,21.975149 c -5.038672,2.80554 -7.313152,6.195164 -7.730724,10.99979 -0.827169,9.517522 7.322264,12.514297 8.427273,21.200104 1.691592,13.296585 0.54741,32.237712 1.515363,43.520276 0.695351,8.105111 2.945714,20.462881 17.199704,20.462881 14.253989,0 15.213769,-12.83005 16.60027,-21.282893 1.8262,-11.133476 2.374981,-41.460345 6.117339,-47.411284 2.940637,-4.676083 5.328324,-6.905057 5.818514,-12.545123 0.84841,-9.76178 -7.478645,-17.377316 -25.66678,-18.95805 -7.957312,-0.691572 -14.751888,0.485071 -19.949133,2.84566 -0.835272,0.379381 -1.612015,0.767847 -2.331826,1.168639 z m 2.513459,4.647889 c 0.462849,-0.274733 0.953299,-0.536382 1.469918,-0.785623 4.13295,-1.993934 9.955034,-3.131457 16.982146,-2.763919 14.054228,0.735079 22.304758,6.934964 21.77484,13.050733 -0.606247,6.997129 -4.365846,7.91969 -6.287923,12.096017 -1.625056,3.530957 -1.809541,9.022027 -2.233282,12.885767 -1.398945,12.24933 -2.943385,24.480984 -4.456609,36.716544 -0.289871,2.139644 -0.532783,4.290913 -0.964962,6.407843 -0.268318,1.46476 -0.630987,2.96999 -1.555575,4.17398 -0.900632,1.1168 -2.067261,1.99835 -3.324756,2.67787 -1.540781,0.78899 -3.265088,1.25317 -5.001612,1.22587 -1.824843,-0.0206 -3.650728,-0.52379 -5.205726,-1.48327 -1.657927,-1.0239 -3.042819,-2.49337 -3.952133,-4.2184 -0.589015,-1.14051 -1.151776,-2.3345 -1.299553,-3.62389 -0.292778,-4.356826 -0.541171,-8.718595 -0.816788,-13.076963 1.66788,0.45422 3.327237,0.956732 5.02914,1.270052 0.756629,0.1336 1.621984,0.02606 2.181741,-0.545241 0.588658,-0.728312 0.108742,-1.911325 -0.72166,-2.219324 -1.418864,-0.345783 -2.871267,-0.596992 -4.233475,-1.1392 -1.012133,-0.429559 -2.203763,-0.891823 -2.62399,-2.007313 L 60.79639,81.129314 c 1.432064,0.46875 2.853108,0.976353 4.308773,1.368875 1.073557,0.323529 2.292021,0.595016 3.345968,0.05856 0.830739,-0.59259 0.584389,-2.076852 -0.362019,-2.413592 -1.628174,-0.432808 -3.29223,-0.793459 -4.831534,-1.496838 -1.075981,-0.496252 -2.282315,-1.027194 -2.832076,-2.152681 l -0.216685,-4.103918 c 1.807116,0.698001 3.58514,1.509821 5.483294,1.934257 0.967445,0.244423 2.095581,0.350426 2.952213,-0.266135 0.722585,-0.721535 0.319989,-2.091612 -0.601754,-2.431812 L 64.180933,70.866194 C 62.711415,70.007895 61.29563,69.060012 59.913805,68.067422 l -0.23342,-3.530768 c -0.360735,-0.42541 0.403452,-1.035838 0.695426,-0.539034 1.859676,0.886103 3.779478,1.700319 5.81147,2.092429 0.836514,0.184409 1.779858,0.17743 2.513522,-0.314657 0.739524,-0.612347 0.440942,-1.936444 -0.405631,-2.300548 -1.633616,-0.491063 -3.341824,-0.782319 -4.885663,-1.53435 -1.483705,-0.731467 -2.98939,-1.658321 -3.812968,-3.146938 -0.309172,-0.9728 -0.229913,-2.007907 -0.317903,-3.012101 -0.153091,-0.299126 0.0077,-1.03313 0.438912,-0.639251 1.836639,1.010283 3.739604,1.967228 5.798185,2.426729 0.89032,0.206945 1.818022,0.424286 2.727126,0.194271 0.936164,-0.214985 1.359467,-1.592537 0.601691,-2.236502 -0.689607,-0.700754 -1.730673,-0.663132 -2.609979,-0.93427 -1.731129,-0.413549 -3.368703,-1.181126 -4.807904,-2.226778 -0.651517,-0.440984 -2.362345,-1.938988 -3.521706,-4.505106 -2.697642,-5.970934 -7.419996,-8.868158 -6.963377,-14.122079 0.231011,-2.675721 2.130012,-5.192298 5.369954,-7.115431 z"
         sodipodi:nodetypes="sssszssssssssscscccccccccccccccccccccccccccccccccccccccccscs" />
    </g>
    <path
       style="fill:#78a3ad;fill-opacity:1;stroke-width:5.08176;stroke-linecap:round"
       d="m 79.01383,24.303672 c -8.074773,-5.41574 -15.640858,-4.825057 -18.133188,-1.109037 -2.49233,3.71602 2.99601,12.04787 9.249459,16.242052 6.25345,4.194181 14.330061,6.217553 17.364767,1.69286 3.034707,-4.524692 -0.406266,-11.410134 -8.481038,-16.825875 z"
       id="path9"
       sodipodi:nodetypes="zzszz" />
  </g>
</svg>
