<?xml version="1.0" encoding="UTF-8" standalone="no"?>
<svg
   width="100%"
   height="100%"
   viewBox="0 0 128 128"
   version="1.1"
   xml:space="preserve"
   style="fill-rule:evenodd;clip-rule:evenodd;stroke-linejoin:round;stroke-miterlimit:2;"
   id="svg1"
   sodipodi:docname="emoji_u1f96f.svg"
   inkscape:version="1.3 (0e150ed6c4, 2023-07-21)"
   xmlns:inkscape="http://www.inkscape.org/namespaces/inkscape"
   xmlns:sodipodi="http://sodipodi.sourceforge.net/DTD/sodipodi-0.dtd"
   xmlns="http://www.w3.org/2000/svg"
   xmlns:svg="http://www.w3.org/2000/svg"><defs
   id="defs1" /><sodipodi:namedview
   id="namedview1"
   pagecolor="#ffffff"
   bordercolor="#000000"
   borderopacity="0.25"
   inkscape:showpageshadow="2"
   inkscape:pageopacity="0.0"
   inkscape:pagecheckerboard="0"
   inkscape:deskcolor="#d1d1d1"
   inkscape:zoom="2.867097"
   inkscape:cx="43.946891"
   inkscape:cy="59.119032"
   inkscape:window-width="1366"
   inkscape:window-height="697"
   inkscape:window-x="-8"
   inkscape:window-y="-8"
   inkscape:window-maximized="1"
   inkscape:current-layer="svg1" />&#10;    &#10;    &#10;    &#10;    &#10;    &#10;    &#10;    &#10;    &#10;    &#10;    &#10;    &#10;    &#10;    &#10;    &#10;    &#10;    &#10;    &#10;    &#10;    &#10;    &#10;    &#10;    &#10;    &#10;    &#10;    &#10;    &#10;    &#10;    &#10;    &#10;    &#10;    &#10;    &#10;<g
   id="g6"
   transform="matrix(0.73411294,0,0,0.73411294,131.70155,33.360545)"
   style="stroke-width:1.36219"><g
     id="g5"
     style="stroke-width:1.36219"><g
       id="g4"
       transform="matrix(1,0,0,-0.79215858,-50.176516,79.641491)"
       style="clip-rule:evenodd;fill:#f79329;fill-opacity:1;fill-rule:evenodd;stroke-width:1.53049;stroke-linejoin:round;stroke-miterlimit:2"><path
         d="m 24.691989,-14.284736 c -3.39803,-4.253873 -7.93196,-8.009246 -12.30086,-10.823006 -16.6988709,-10.745462 -40.679231,-13.780778 -58.611104,-5.671831 -7.281486,3.301182 -21.57288,12.03575 -26.60196,19.081227 -11.543582,16.1625035 -18.870936,30.949019 -13.580936,48.498236 4.31,14.266502 12.61,25.773747 28.26,31.815717 16.69,6.44123 38.78,7.89627 56.6900001,3.957 7.84,-1.72121 15.7999999,-4.21429 22.3399999,-8.53507 5.54,-3.6642 10.21,-9.227076 13.4,-15.277918 2.26,-4.276402 3.79,-8.792352 4.38,-13.042138 2.03,-14.727855 -2.71311,-35.88910748 -13.97514,-50.002217 z M -2.2628709,30.89325 c -2.28,2.405925 -7.68,4.982115 -11.5300001,5.677983 -10.08,1.828502 -30.52,-1.954352 -26.82,-12.310933 2.48,-6.943869 17.35,-8.187546 25.12,-7.528693 8.1000001,0.681062 19.5500001,7.506485 13.2300001,14.161643 z"
         id="path3"
         style="fill:#f79329;fill-opacity:1;stroke-width:1.53049"
         sodipodi:nodetypes="cccccccccccccccc" /></g><path
       d="m -13.712977,43.69415 c -0.884351,-1.900408 -1.13427,-3.651612 -2.470403,-5.44208 -0.942028,-1.280027 -1.557229,-2.49723 -2.239707,-3.902905 -0.634422,-1.334998 -1.614895,-1.766909 -2.720332,-2.795643 -1.095825,-1.02088 -1.566839,-2.261643 -2.451181,-3.361053 -0.70171,-0.871676 -1.74947,-1.649115 -2.547302,-2.473673 -1.316911,-1.36641 -2.941417,-2.316615 -4.133364,-3.777259 -1.201558,-1.484203 -3.83538,-2.536495 -5.680971,-3.43173 -2.403126,-1.15438 -5.094615,-1.829732 -7.420831,-3.078348 -2.364671,-1.272174 -5.40221,-2.104584 -8.151375,-2.630731 -3.623906,-0.706764 -7.334321,-1.680526 -11.083181,-1.829732 -3.460497,-0.1335 -6.824853,0.282706 -10.256506,0.424058 -6.969049,0.290558 -14.139952,1.256468 -20.878294,2.819201 -3.498942,0.808851 -6.796026,1.853292 -10.218066,2.827055 -1.36497,0.392646 -2.66266,0.879528 -3.9315,1.460645 -1.43226,0.651792 -3.01832,1.107262 -4.40251,1.814026 -2.87413,1.468497 -5.76749,2.560056 -7.75727,4.805993 -1.86481,2.096731 -3.92189,4.162052 -5.89244,6.203813 -2.10513,2.190968 -4.37367,4.468317 -5.63291,7.083342 -0.56713,1.154381 -0.92279,2.261643 -1.76869,3.313936 -0.97086,1.217204 -2.26855,2.426555 -2.7684,3.855788 -0.47101,1.334997 -0.3172,2.662142 -0.99969,3.973582 -0.6921,1.342851 -1.6918,2.395143 -2.00901,3.855793 -0.35566,1.649108 -0.35566,3.109752 0.21147,4.711752 0.56714,1.570587 0.77861,3.133317 1.83598,4.601819 1.93211,2.677848 4.46981,5.065136 7.99758,6.36087 4.02763,1.476351 8.88193,0.573261 12.71731,2.253791 3.98918,1.743346 3.6335,6.502227 4.20065,9.674804 1.12466,6.32161 6.20004,10.656424 14.351419,9.918254 6.488425,-0.581119 10.227673,-5.58343 16.30275,-6.839904 4.162207,-0.86382 7.689982,-1.303582 11.275433,0.94235 3.66235,2.285204 6.007799,4.915933 10.756353,5.858283 5.200357,1.036588 12.025209,0.424067 16.139341,-2.607164 4.258328,-3.133327 4.316005,-9.235051 10.573723,-10.648577 4.998483,-1.130824 9.045337,1.586294 13.688159,-1.27217 2.037844,-1.256474 3.527785,-2.834909 4.6236,-4.593971 4.7581761,-7.703713 4.44096,-20.072081 0.740165,-28.074215 z m -36.508176,10.837044 c -2.191641,3.494549 -5.748259,6.572899 -9.487508,7.986425 -1.701405,0.643943 -3.373977,1.177943 -5.238791,1.523468 -9.054958,1.641261 -20.58031,3.180436 -26.501589,-4.397638 -2.672266,-3.416028 -6.334616,-6.211667 -6.325005,-10.538631 0.01007,-3.887199 2.52808,-8.276987 7.094003,-9.855426 6.132754,-2.12029 9.737437,2.630732 15.591428,2.630732 2.085909,0 4.35445,-0.21203 6.296172,-0.85597 3.854602,-1.272174 6.10392,-3.683023 10.641,-3.329642 5.344543,0.424059 9.045338,4.193465 9.968134,8.237722 0.6152,2.701407 -0.269141,5.78761 -2.037844,8.59896 z"
       style="clip-rule:evenodd;fill:#ffffff;fill-opacity:1;fill-rule:evenodd;stroke-width:1.36218;stroke-linejoin:round;stroke-miterlimit:2"
       id="path1" /></g><g
     id="g2"
     style="stroke-width:1.36219"><g
       id="g3"
       transform="matrix(0.96592583,-0.25881905,0.20502573,0.76516643,-92.72025,4.4491692)"
       style="clip-rule:evenodd;fill:#fcc21b;fill-opacity:1;fill-rule:evenodd;stroke-width:1.53049;stroke-linejoin:round;stroke-miterlimit:2"><path
         d="m 24.691989,-14.284736 c -3.39803,-4.253873 -7.93196,-8.009246 -12.30086,-10.823006 -16.6988709,-10.745462 -40.679231,-13.780778 -58.611104,-5.671831 -7.281486,3.301182 -21.57288,12.03575 -26.60196,19.081227 -11.543582,16.1625035 -18.870936,30.949019 -13.580936,48.498236 4.31,14.266502 12.61,25.773747 28.26,31.815717 16.69,6.44123 38.78,7.89627 56.6900001,3.957 7.84,-1.72121 15.7999999,-4.21429 22.3399999,-8.53507 5.54,-3.6642 10.21,-9.227076 13.4,-15.277918 2.26,-4.276402 3.79,-8.792352 4.38,-13.042138 2.03,-14.727855 -2.71311,-35.88910748 -13.97514,-50.002217 z M -2.2628709,19.685125 c -2.28,2.405925 -7.68,4.982115 -11.5300001,5.677983 -10.08,1.828502 -30.52,-1.954352 -26.82,-12.310933 2.48,-6.9438695 17.35,-8.1875465 25.12,-7.5286935 8.1000001,0.681062 19.5500001,7.5064855 13.2300001,14.1616435 z"
         id="use2"
         style="fill:#fcc21b;fill-opacity:1;stroke-width:1.53049"
         sodipodi:nodetypes="cccccccccccccccc" /></g><g
       id="g1"
       style="fill:#ffffff;fill-opacity:1;stroke-width:1.36219"
       transform="rotate(-8.2291609,360.56465,-665.1957)"><path
         id="path8638-3"
         d="m -231.18835,-71.228237 c -1.19,0.27 -1.23,2.09 -1.59,3.81 -0.73,3.46 0.91,6.26 4.02,5.37 3.56,-1.02 2.75,-4.51 0.66,-6.83 -1.22,-1.34 -1.87,-2.63 -3.09,-2.35 z"
         style="clip-rule:evenodd;fill:#ffffff;fill-opacity:1;fill-rule:nonzero;stroke-width:1.36219;stroke-linejoin:round;stroke-miterlimit:2" /><path
         id="path8640-7"
         d="m -214.48835,-73.678237 c -0.32,0.86 -3.13,1.45 -5.99,1.13 -2.12,-0.24 -3.9,-2.36 -2.77,-4.72 1.15,-2.39 4.01,-2.67 5.95,-0.77 1.99,1.95 3.16,3.41 2.81,4.36 z"
         style="clip-rule:evenodd;fill:#ffffff;fill-opacity:1;fill-rule:nonzero;stroke-width:1.36219;stroke-linejoin:round;stroke-miterlimit:2" /><path
         id="path8642-3"
         d="m -208.35835,-75.228237 c -0.68,-0.14 -2.91,1.77 -3.4,3.9 -0.56,2.38 1.04,3.36 2.36,3.5 1.63,0.17 2.81,-1.09 2.91,-2.72 0.08,-1.62 -1.14,-4.53 -1.87,-4.68 z"
         style="clip-rule:evenodd;fill:#ffffff;fill-opacity:1;fill-rule:nonzero;stroke-width:1.36219;stroke-linejoin:round;stroke-miterlimit:2" /><path
         id="path8644-4"
         d="m -242.90835,-50.168237 c 0.47,1.13 2.27,0.84 4.03,0.89 3.53,0.1 6,-2 4.58,-4.91 -1.63,-3.33 -4.93,-1.9 -6.83,0.56 -1.11,1.44 -2.26,2.31 -1.78,3.46 z"
         style="clip-rule:evenodd;fill:#ffffff;fill-opacity:1;fill-rule:nonzero;stroke-width:1.36219;stroke-linejoin:round;stroke-miterlimit:2" /><path
         id="path8646-9"
         d="m -255.14835,-50.338237 c -1.22,-0.06 -1.73,1.69 -2.53,3.26 -1.61,3.14 -0.77,6.28 2.46,6.24 3.7,-0.04 3.83,-3.63 2.43,-6.41 -0.82,-1.62 -1.11,-3.04 -2.36,-3.09 z"
         style="clip-rule:evenodd;fill:#ffffff;fill-opacity:1;fill-rule:nonzero;stroke-width:1.36219;stroke-linejoin:round;stroke-miterlimit:2" /><path
         id="path8648-4"
         d="m -164.46835,-52.788237 c 1.21,-0.15 1.42,-1.96 1.96,-3.64 1.06,-3.37 -0.29,-6.32 -3.47,-5.74 -3.65,0.66 -3.18,4.22 -1.33,6.73 1.08,1.46 1.6,2.8 2.84,2.65 z"
         style="clip-rule:evenodd;fill:#ffffff;fill-opacity:1;fill-rule:nonzero;stroke-width:1.36219;stroke-linejoin:round;stroke-miterlimit:2" /><path
         id="path8650-0"
         d="m -230.21835,-34.538237 c -0.58,-0.42 -2.42,0.13 -4.06,0.78 -3.28,1.3 -4.72,4.21 -2.27,6.31 2.81,2.41 5.28,-0.2 6.06,-3.21 0.46,-1.75 0.97,-3.37 0.27,-3.88 z"
         style="clip-rule:evenodd;fill:#ffffff;fill-opacity:1;fill-rule:nonzero;stroke-width:1.36219;stroke-linejoin:round;stroke-miterlimit:2" /><path
         id="path8652-2"
         d="m -235.98835,-37.888237 c 0.28,-0.56 -0.47,-2.08 -1.22,-3.29 -0.87,-1.41 -1.86,-2.85 -3.24,-3.24 -4.44,-1.25 -6.04,4.41 -3.06,6.22 1.09,0.66 2.24,0.7 3.51,0.77 1.9,0.08 3.74,0.08 4.01,-0.46 z"
         style="clip-rule:evenodd;fill:#ffffff;fill-opacity:1;fill-rule:nonzero;stroke-width:1.36219;stroke-linejoin:round;stroke-miterlimit:2" /><path
         id="path8654-5"
         d="m -246.07835,-54.198237 c -0.18,1.13 -5.13,2.07 -7.66,0.54 -3.03,-1.84 -1.4,-6.08 2.21,-5.77 3.09,0.28 5.65,3.95 5.45,5.23 z"
         style="clip-rule:evenodd;fill:#ffffff;fill-opacity:1;fill-rule:nonzero;stroke-width:1.36219;stroke-linejoin:round;stroke-miterlimit:2" /><path
         id="path8656-3"
         d="m -243.51835,-60.368237 c 1.17,0.32 4.55,-2.21 5.54,-4.05 0.72,-1.34 1.3,-4.67 -1.04,-5.72 -2.61,-1.17 -4.84,0.55 -5.5,2.7 -0.84,2.84 -0.04,6.79 1,7.07 z"
         style="clip-rule:evenodd;fill:#ffffff;fill-opacity:1;fill-rule:nonzero;stroke-width:1.36219;stroke-linejoin:round;stroke-miterlimit:2" /><path
         id="path8658-3"
         d="m -223.51835,-46.578237 c 0.19,0.87 -1.49,5.63 -5.41,5.81 -2.7,0.12 -5.04,-3.51 -1.67,-5.86 2.56,-1.77 6.95,-0.58 7.08,0.05 z"
         style="clip-rule:evenodd;fill:#ffffff;fill-opacity:1;fill-rule:nonzero;stroke-width:1.36219;stroke-linejoin:round;stroke-miterlimit:2" /><path
         id="path8660-1"
         d="m -220.13835,-38.988237 c -0.77,-0.65 -4.82,2.25 -6.04,4.37 -0.72,1.26 -1.22,3.56 1.76,4.91 2.88,1.31 4.46,-0.9 4.82,-2.7 0.36,-1.8 0.05,-6.08 -0.54,-6.58 z"
         style="clip-rule:evenodd;fill:#ffffff;fill-opacity:1;fill-rule:nonzero;stroke-width:1.36219;stroke-linejoin:round;stroke-miterlimit:2" /><path
         id="path8662-1"
         d="m -216.07835,-24.688237 c 0.99,1.85 6.12,1.05 7.34,0.68 1.76,-0.54 4.25,-2.18 2.66,-5.59 -1.31,-2.79 -4.73,-2.21 -6.8,-0.45 -1.79,1.51 -3.88,4.1 -3.2,5.36 z"
         style="clip-rule:evenodd;fill:#ffffff;fill-opacity:1;fill-rule:nonzero;stroke-width:1.36219;stroke-linejoin:round;stroke-miterlimit:2" /><path
         id="path8664-3"
         d="m -199.54835,-31.218237 c -1.06,0.78 -0.22,5.55 0.41,6.98 0.81,1.85 3.42,2.57 5.18,1.22 2.03,-1.56 1.71,-4.14 0.41,-5.54 -0.99,-1.05 -4.97,-3.43 -6,-2.66 z"
         style="clip-rule:evenodd;fill:#ffffff;fill-opacity:1;fill-rule:nonzero;stroke-width:1.36219;stroke-linejoin:round;stroke-miterlimit:2" /><path
         id="path8666-2"
         d="m -191.93835,-34.148237 c -0.39,0.35 -3.87,0.59 -6.35,-1.53 -1.43,-1.22 -1.39,-4.11 0.05,-5.18 1.58,-1.17 3.74,-0.81 5.13,1.22 0.87,1.25 1.62,5.08 1.17,5.49 z"
         style="clip-rule:evenodd;fill:#ffffff;fill-opacity:1;fill-rule:nonzero;stroke-width:1.36219;stroke-linejoin:round;stroke-miterlimit:2" /><path
         id="path8668-9"
         d="m -186.66835,-35.858237 c 0.7,0.61 5.13,-0.14 6.8,-2.07 0.91,-1.06 2.21,-3.33 0.45,-4.95 -1.76,-1.62 -3.83,-1.31 -5.63,0.9 -1.34,1.63 -2.34,5.49 -1.62,6.12 z"
         style="clip-rule:evenodd;fill:#ffffff;fill-opacity:1;fill-rule:nonzero;stroke-width:1.36219;stroke-linejoin:round;stroke-miterlimit:2" /><path
         id="path8670-1"
         d="m -169.50835,-49.148237 c -0.34,1.36 -5.31,1.92 -7.3,0.99 -2.03,-0.95 -1.67,-3.24 -1.26,-4.23 0.41,-0.99 1.4,-2.16 4.01,-1.44 2.76,0.76 4.78,3.78 4.55,4.68 z"
         style="clip-rule:evenodd;fill:#ffffff;fill-opacity:1;fill-rule:nonzero;stroke-width:1.36219;stroke-linejoin:round;stroke-miterlimit:2" /><path
         id="path8672-2"
         d="m -176.44835,-33.748237 c -1.11,-0.31 -1.76,1.21 -2.48,1.89 -0.9,0.86 -4.68,5.23 0.14,6.35 4.83,1.13 3.51,-4.19 3.33,-5.27 -0.12,-0.75 -0.18,-2.74 -0.99,-2.97 z"
         style="clip-rule:evenodd;fill:#ffffff;fill-opacity:1;fill-rule:nonzero;stroke-width:1.36219;stroke-linejoin:round;stroke-miterlimit:2" /><path
         id="path8674-6"
         d="m -171.26835,-36.578237 c -0.4,1.15 1.85,3.42 2.93,4.73 1.08,1.31 3.47,2.52 4.86,-0.09 1.4,-2.61 -0.77,-4.23 -2.7,-4.68 -1.93,-0.46 -4.73,-1 -5.09,0.04 z"
         style="clip-rule:evenodd;fill:#ffffff;fill-opacity:1;fill-rule:nonzero;stroke-width:1.36219;stroke-linejoin:round;stroke-miterlimit:2" /><path
         id="path8676-3"
         d="m -154.00835,-45.858237 c 0,0.77 -2.7,2.93 -5.72,3.02 -2.25,0.07 -3.92,-0.75 -3.92,-2.97 0,-2.25 2.03,-3.51 4.55,-2.97 1.45,0.3 5.09,1.7 5.09,2.92 z"
         style="clip-rule:evenodd;fill:#ffffff;fill-opacity:1;fill-rule:nonzero;stroke-width:1.36219;stroke-linejoin:round;stroke-miterlimit:2" /><path
         id="path8678-3"
         d="m -159.23835,-52.388237 c 0.23,0.9 2.93,1.17 4.86,1.22 1.94,0.05 4.32,-0.63 3.42,-3.29 -0.9,-2.66 -3.56,-1.98 -4.55,-1.49 -0.98,0.49 -4.03,2.34 -3.73,3.56 z"
         style="clip-rule:evenodd;fill:#ffffff;fill-opacity:1;fill-rule:nonzero;stroke-width:1.36219;stroke-linejoin:round;stroke-miterlimit:2" /><path
         id="path8680-6"
         d="m -167.65835,-70.188237 c -0.81,1.17 0.72,3.6 2.12,4.68 1.4,1.08 3.33,1.76 4.46,-0.14 1.13,-1.89 -0.86,-3.6 -2.07,-4.37 -1.22,-0.75 -3.72,-1.31 -4.51,-0.17 z"
         style="clip-rule:evenodd;fill:#ffffff;fill-opacity:1;fill-rule:nonzero;stroke-width:1.36219;stroke-linejoin:round;stroke-miterlimit:2" /><path
         id="path8682-4"
         d="m -172.20835,-67.978237 c -0.53,-0.33 -3.33,0.38 -4.95,1.85 -1.68,1.52 -2.3,3.74 -0.27,5.32 1.96,1.52 4.09,0.04 4.95,-1.98 0.81,-1.9 0.87,-4.82 0.27,-5.19 z"
         style="clip-rule:evenodd;fill:#ffffff;fill-opacity:1;fill-rule:nonzero;stroke-width:1.36219;stroke-linejoin:round;stroke-miterlimit:2" /><path
         id="path8684-6"
         d="m -194.09835,-69.238237 c 0.54,-0.75 -0.45,-4.77 -1.71,-6.31 -1.26,-1.53 -2.84,-2.12 -4.59,-0.81 -1.38,1.03 -1.89,3.83 0.09,5.27 2.15,1.58 5.62,2.66 6.21,1.85 z"
         style="clip-rule:evenodd;fill:#ffffff;fill-opacity:1;fill-rule:nonzero;stroke-width:1.36219;stroke-linejoin:round;stroke-miterlimit:2" /><path
         id="path8686-3"
         d="m -192.52835,-75.458237 c 0.67,0.49 3.11,0.14 4.77,-0.95 1.66,-1.09 1.91,-2.82 0.95,-4.01 -1.17,-1.44 -3.06,-0.9 -4.41,0.86 -1.18,1.53 -2.16,3.47 -1.31,4.1 z"
         style="clip-rule:evenodd;fill:#ffffff;fill-opacity:1;fill-rule:nonzero;stroke-width:1.36219;stroke-linejoin:round;stroke-miterlimit:2" /><path
         id="path8688-5"
         d="m -188.51835,-69.648237 c 0.54,1.44 5.95,1.13 7.52,0.45 1.58,-0.68 2.68,-2.11 1.8,-4.19 -0.99,-2.34 -2.55,-2.35 -3.69,-2.03 -2.25,0.64 -6.16,4.36 -5.63,5.77 z"
         style="clip-rule:evenodd;fill:#ffffff;fill-opacity:1;fill-rule:nonzero;stroke-width:1.36219;stroke-linejoin:round;stroke-miterlimit:2" /></g></g></g></svg>
