<?xml version="1.0" encoding="UTF-8" standalone="no"?>
<svg
   width="100%"
   height="100%"
   viewBox="0 0 534 534"
   version="1.1"
   xml:space="preserve"
   style="fill-rule:evenodd;clip-rule:evenodd;stroke-linecap:round;stroke-linejoin:round;"
   id="svg17213"
   sodipodi:docname="emoji_u1f928.svg"
   inkscape:version="1.2.2 (732a01da63, 2022-12-09)"
   xmlns:inkscape="http://www.inkscape.org/namespaces/inkscape"
   xmlns:sodipodi="http://sodipodi.sourceforge.net/DTD/sodipodi-0.dtd"
   xmlns="http://www.w3.org/2000/svg"
   xmlns:svg="http://www.w3.org/2000/svg"><defs
     id="defs17217" /><sodipodi:namedview
     id="namedview17215"
     pagecolor="#ffffff"
     bordercolor="#000000"
     borderopacity="0.25"
     inkscape:showpageshadow="2"
     inkscape:pageopacity="0.0"
     inkscape:pagecheckerboard="0"
     inkscape:deskcolor="#d1d1d1"
     showgrid="false"
     inkscape:zoom="1.0168539"
     inkscape:cx="201.60221"
     inkscape:cy="286.17679"
     inkscape:window-width="1366"
     inkscape:window-height="697"
     inkscape:window-x="-8"
     inkscape:window-y="-8"
     inkscape:window-maximized="1"
     inkscape:current-layer="svg17213" /><path
     id="path28498"
     d="M266.667,39.833c-260.042,0 -266.167,291.5 -266.167,349.167c-0,57.75 119.125,104.5 266.167,104.5c147,0 266.166,-46.75 266.166,-104.5c0,-57.667 -6.166,-349.167 -266.166,-349.167Z"
     style="fill:#fcc21b;fill-rule:nonzero;" /><g
     id="g28504"
     transform="translate(0,6.8550289)"><path
       id="path28500"
       d="m 175.875,259.583 c -18.708,0.167 -34.042,-17.791 -34.25,-40.083 -0.208,-22.375 14.792,-40.625 33.5,-40.792 18.667,-0.166 34.042,17.792 34.25,40.167 0.208,22.292 -14.792,40.5 -33.5,40.708 z"
       style="fill:#2f2f2f;fill-rule:nonzero" /><path
       id="path28502"
       d="m 359.667,259.583 c 18.666,-0.041 33.791,-18.166 33.75,-40.458 -0.042,-22.375 -15.25,-40.417 -33.917,-40.375 -18.708,0.042 -33.875,18.167 -33.833,40.542 0.083,22.291 15.291,40.333 34,40.291 z"
       style="fill:#2f2f2f;fill-rule:nonzero" /></g><path
     d="m 336.539,148.04603 c 27.57,-7.617 44.552,-3.854 66.112,15.125"
     style="opacity:1;fill:none;stroke:#925b07;stroke-width:16.67px;stroke-opacity:1"
     id="path17207" /><path
     d="m 141.746,182.76003 c 0,0 34.819,10.162 63.815,-2.959"
     style="fill:none;stroke:#fcc21b;stroke-width:29.17px;stroke-opacity:1"
     id="path17209" /><path
     d="m 141.746,194.23391 c 0,0 34.819,10.162 63.815,-2.959"
     style="opacity:1;fill:none;stroke:#925b07;stroke-width:16.67px;stroke-opacity:1"
     id="path17211" /><path
     style="font-variation-settings:'opsz' 12, 'wght' 400;fill:#ed6c30;fill-opacity:1;stroke-width:5.66929;stroke-linecap:round"
     d="m 344.16904,353.19992 c 0,-5.7704 -30.85064,-32.08642 -98.42189,-32.08642 -85.29624,0 -125.73942,34.18938 -125.73942,62.71157 0,17.26881 10.80172,26.72995 23.42983,26.72995 33.31118,0 36.32999,-60.30501 114.25352,-60.30501 59.57383,0 86.47796,8.72031 86.47796,2.94991 z"
     id="path2500"
     sodipodi:nodetypes="zssssz" /></svg>
