<?xml version="1.0" encoding="UTF-8" standalone="no"?>
<svg
   width="128"
   height="128"
   version="1.1"
   id="svg416"
   sodipodi:docname="emoji_u1f5e3.svg"
   inkscape:version="1.2.2 (732a01da63, 2022-12-09)"
   xml:space="preserve"
   xmlns:inkscape="http://www.inkscape.org/namespaces/inkscape"
   xmlns:sodipodi="http://sodipodi.sourceforge.net/DTD/sodipodi-0.dtd"
   xmlns="http://www.w3.org/2000/svg"
   xmlns:svg="http://www.w3.org/2000/svg"><defs
     id="defs420" /><sodipodi:namedview
     id="namedview418"
     pagecolor="#ffffff"
     bordercolor="#000000"
     borderopacity="0.25"
     inkscape:showpageshadow="2"
     inkscape:pageopacity="0.0"
     inkscape:pagecheckerboard="0"
     inkscape:deskcolor="#d1d1d1"
     showgrid="false"
     inkscape:zoom="2.9996795"
     inkscape:cx="62.339992"
     inkscape:cy="75.67475"
     inkscape:window-width="1366"
     inkscape:window-height="697"
     inkscape:window-x="-8"
     inkscape:window-y="-8"
     inkscape:window-maximized="1"
     inkscape:current-layer="svg416" /><path
     style="fill:#006ca2;fill-opacity:1"
     d="m 106.91016,80.779297 a 0.68,0.68 0 0 0 -0.56055,0.300781 l -0.57031,0.859375 c -0.19,0.28 -0.12914,0.66086 0.13086,0.880859 l 14.66015,12.289063 c 0.13,0.11 0.27969,0.160156 0.42969,0.160156 0.22,0 0.43055,-0.09883 0.56055,-0.298828 l 3.52929,-5.400391 c 0.23,-0.339999 0.0909,-0.810703 -0.28906,-0.970703 l -17.62109,-7.75 a 0.544,0.544 0 0 0 -0.26953,-0.07031 z"
     id="path1310" /><path
     style="fill:#006ca2;fill-opacity:1"
     d="m 125.43945,70.529297 c -0.06,0 -0.11945,0.01148 -0.18945,0.02148 l -18.41992,3.419922 c -0.48,0.09 -0.83008,0.510001 -0.83008,1 v 0.330078 c 0,0.53 0.40922,0.979532 0.94922,1.019531 l 18.48047,1.378907 h 0.0801 c 0.56,0 1.02953,-0.459298 1.01953,-1.029297 l -0.0586,-5.13086 a 1.03,1.03 0 0 0 -1.03125,-1.009765 z"
     id="path1308" /><path
     style="fill:#006ca2;fill-opacity:1"
     d="m 120.57031,55.910156 c -0.25,0 -0.5107,0.07977 -0.7207,0.259766 l -13.95899,11.699219 c -0.43999,0.369999 -0.53093,1.000703 -0.21093,1.470703 l 0.13086,0.199218 c 0.21,0.32 0.56968,0.5 0.92968,0.5 0.15,0 0.29922,-0.02984 0.44922,-0.08984 l 16.78125,-7.378907 c 0.63,-0.279999 0.86024,-1.060625 0.49024,-1.640624 L 121.5,56.410156 c -0.21,-0.329999 -0.56969,-0.5 -0.92969,-0.5 z"
     id="path396" /><path
     id="path410"
     style="stroke:none;fill:#006ca2;fill-opacity:1"
     d="M 48.259766 11.039062 C 44.789769 11.039062 41.110231 11.39047 37.240234 12.230469 C 31.99024 13.370468 19.890851 16.159229 11.130859 26.699219 C 9.9608605 28.109217 6.6698414 32.280084 4.3398438 38.580078 C 0.89984719 47.910069 1.7703131 55.910161 2.3203125 60.410156 C 2.850312 64.760152 4.0600069 74.740087 11 83.830078 C 18.709992 93.930068 31.099923 99.840079 32.169922 100.33008 C 32.169922 100.33008 44.310862 105.83915 46.630859 110.86914 C 47.580858 112.93914 47.25 114.75 47.25 114.75 C 47.07 115.75 46.629999 116.51 45.75 117.75 C 43.100003 121.48 41.94 121.76 42 122.5 C 42.2 124.91 54.719074 125.75977 66.039062 125.75977 C 66.789062 125.75977 67.520001 125.76 68.25 125.75 C 68.25 125.75 85.900079 125.54992 86.330078 122.16992 C 86.410078 121.51992 85.929843 119.85969 85.589844 118.92969 C 85.249844 118.00969 85.149218 117.94906 84.699219 116.78906 C 84.399219 116.01906 84.119922 115.07969 83.919922 113.92969 C 83.799922 113.25969 83.659922 112.44961 83.669922 111.34961 C 83.679922 109.91961 83.669846 106.84953 85.839844 104.76953 C 86.959843 103.69953 88.249844 103.26031 88.839844 103.07031 C 89.659843 102.74031 90.929767 102.27961 92.509766 101.84961 C 94.229764 101.38961 94.770626 101.39008 95.890625 101.08008 C 97.720623 100.58008 99.840626 99.970623 101.14062 98.390625 C 103.24062 95.840628 102.37922 91.480077 102.19922 90.580078 C 101.83922 88.75008 101.02031 86.80953 101.82031 85.519531 C 101.93031 85.339531 102.35977 84.71953 102.75977 83.769531 C 102.93977 83.349532 103.09922 82.970937 103.19922 82.460938 C 103.26922 82.080938 103.52062 80.819531 103.14062 80.269531 C 102.96063 80.019531 102.66094 79.919922 102.21094 79.919922 C 100.89094 79.919922 98.349605 80.829532 94.349609 81.519531 C 93.019611 81.749531 91.890546 81.900391 90.810547 81.900391 C 89.870548 81.900391 88.96953 81.789531 88.019531 81.519531 C 86.739533 81.159532 85.340625 80.77039 85.140625 79.900391 C 84.790625 78.300392 88.729614 75.979528 93.849609 73.019531 C 97.979605 70.629534 100.83063 69.359529 100.89062 67.269531 C 100.91062 66.529532 100.58055 65.909531 100.31055 65.519531 C 99.810547 64.649532 99.359609 64.499609 99.099609 63.849609 C 98.80961 63.13961 99.06961 62.439921 99.349609 61.669922 C 100.16961 59.399924 101.35008 59.260077 101.33008 58.080078 C 101.31008 56.960079 100.24094 56.069218 99.210938 55.199219 C 98.330938 54.469219 97.549531 54.089219 97.269531 53.949219 C 95.049533 52.81922 91.959609 49.809684 91.349609 46.429688 C 91.269609 45.959688 91.380859 46.310384 91.380859 40.150391 L 91.380859 38.580078 C 91.380859 38.580078 91.300547 37.909999 91.060547 37.25 C 89.490548 32.850004 82.919922 25.410156 82.919922 25.410156 C 79.849925 21.93016 79.619453 21.649219 79.439453 21.449219 C 79.399453 21.409219 79.369141 21.379141 79.369141 21.369141 L 79.179688 21.210938 C 80.169687 20.220938 81.279531 18.750546 81.019531 17.560547 C 80.729532 16.200548 78.310389 15.299453 76.900391 14.939453 C 72.700395 13.859454 66.739607 13.009296 64.599609 12.529297 C 62.639611 12.089297 58.890542 11.60039 54.310547 11.400391 C 52.360549 11.170391 50.349764 11.039063 48.259766 11.039062 z " /></svg>
