<?xml version="1.0" encoding="UTF-8" standalone="no"?>
<svg
   width="100%"
   height="100%"
   viewBox="0 0 128 128"
   version="1.1"
   xml:space="preserve"
   style="fill-rule:evenodd;clip-rule:evenodd;stroke-miterlimit:10;"
   id="svg1"
   sodipodi:docname="emoji_u1f9ef.svg"
   inkscape:version="1.3 (0e150ed6c4, 2023-07-21)"
   xmlns:inkscape="http://www.inkscape.org/namespaces/inkscape"
   xmlns:sodipodi="http://sodipodi.sourceforge.net/DTD/sodipodi-0.dtd"
   xmlns="http://www.w3.org/2000/svg"
   xmlns:svg="http://www.w3.org/2000/svg"><defs
   id="defs1"><inkscape:path-effect
     effect="powerstroke"
     id="path-effect10"
     is_visible="true"
     lpeversion="1.3"
     scale_width="1"
     interpolator_type="CentripetalCatmullRom"
     interpolator_beta="0.2"
     start_linecap_type="zerowidth"
     end_linecap_type="zerowidth"
     offset_points="0.2699457,3.5452053 | 2.5681386,3.1514595 | 2.8751772,2.8112308"
     linejoin_type="round"
     miter_limit="4"
     not_jump="false"
     sort_points="true"
     message="&lt;b&gt;Ctrl + click&lt;/b&gt; on existing node and move it" /><inkscape:path-effect
     effect="fillet_chamfer"
     id="path-effect9"
     is_visible="true"
     lpeversion="1"
     nodesatellites_param="F,0,1,1,0,1.5414058,0,1 @ F,0,0,1,0,0,0,1 @ F,0,0,1,0,1.5414058,0,1 @ F,0,1,1,0,1.5414058,0,1 @ F,0,0,1,0,0,0,1 @ F,0,1,1,0,1.5414058,0,1"
     radius="0"
     unit="px"
     method="auto"
     mode="F"
     chamfer_steps="1"
     flexible="false"
     use_knot_distance="true"
     apply_no_radius="true"
     apply_with_radius="true"
     only_selected="false"
     hide_knots="false" /><inkscape:path-effect
     effect="fillet_chamfer"
     id="path-effect6"
     is_visible="true"
     lpeversion="1"
     nodesatellites_param="F,0,1,1,0,1.5414058,0,1 @ F,0,0,1,0,0,0,1 @ F,0,0,1,0,1.5414058,0,1 @ F,0,1,1,0,1.5414058,0,1 @ F,0,0,1,0,0,0,1 @ F,0,1,1,0,1.5414058,0,1"
     radius="0"
     unit="px"
     method="auto"
     mode="F"
     chamfer_steps="1"
     flexible="false"
     use_knot_distance="true"
     apply_no_radius="true"
     apply_with_radius="true"
     only_selected="false"
     hide_knots="false" /><inkscape:path-effect
     effect="fillet_chamfer"
     id="path-effect1"
     is_visible="true"
     lpeversion="1"
     nodesatellites_param="F,0,1,1,0,2.5921841,0,1 @ F,0,0,1,0,2.5921841,0,1 @ F,0,1,1,0,2.5921841,0,1 @ F,0,1,1,0,2.5921841,0,1"
     radius="0"
     unit="px"
     method="auto"
     mode="F"
     chamfer_steps="1"
     flexible="false"
     use_knot_distance="true"
     apply_no_radius="true"
     apply_with_radius="true"
     only_selected="false"
     hide_knots="false" /></defs><sodipodi:namedview
   id="namedview1"
   pagecolor="#ffffff"
   bordercolor="#000000"
   borderopacity="0.25"
   inkscape:showpageshadow="2"
   inkscape:pageopacity="0.0"
   inkscape:pagecheckerboard="0"
   inkscape:deskcolor="#d1d1d1"
   inkscape:zoom="4"
   inkscape:cx="59.625001"
   inkscape:cy="67.875001"
   inkscape:window-width="1366"
   inkscape:window-height="697"
   inkscape:window-x="-8"
   inkscape:window-y="-8"
   inkscape:window-maximized="1"
   inkscape:current-layer="svg1" />&#10;    &#10;    &#10;    &#10;    &#10;    &#10;    &#10;    &#10;    &#10;    &#10;    &#10;    &#10;<path
   id="path3"
   style="fill:#6593a2;fill-rule:nonzero;stroke:none;stroke-width:6;stroke-linecap:round;stroke-opacity:1"
   d="m 94.663246,5.0628077 c -2.725864,1.1045535 -5.218987,2.6861082 -7.814055,4.055905 -1.829732,0.9658173 -3.668782,1.9583043 -5.651308,2.5429883 -4.619277,1.362311 -16.19495,2.039137 -21.884585,2.033979 -1.999249,0.05163 -4.232609,0.183429 -6.399714,0.428525 -3.365737,0.368976 -6.752291,0.95165 -9.833965,2.054107 -1.520673,0.544014 -2.995138,1.222633 -4.38183,2.084284 -1.386774,0.861708 -2.663496,1.893232 -3.802404,3.122403 -1.145419,1.236189 -2.112007,2.631619 -2.907139,4.186677 -0.804372,1.573133 -1.418727,3.281149 -1.87304,5.114141 -0.943988,3.808685 -1.210457,8.220361 -1.009954,13.135418 0.241407,6.316945 0.737438,13.059139 1.249363,18.957735 0.642332,7.400955 1.372024,14.176834 1.860978,18.589564 0.0892,0.8048 0.411771,3.66756 0.500944,4.47236 1.012539,9.013161 0.818175,12.176427 1.867004,13.827487 0.797574,1.255529 2.535304,1.212559 3.054006,1.148779 0.519043,-0.0639 2.212572,-0.43887 2.695892,-1.828781 0.671112,-1.930013 -0.331312,-4.73263 -1.15883,-13.805363 -0.114173,-1.251698 -0.243406,-2.75117 -0.384268,-4.45224 C 38.429909,76.378261 37.907457,69.558108 37.502752,62.26997 37.17829,56.426985 36.90187,49.784616 36.875047,43.654252 c -0.001,-4.50786 0.446114,-8.054459 1.285581,-10.773498 0.396072,-1.282876 0.866073,-2.340212 1.388185,-3.21696 0.511534,-0.858993 1.07694,-1.554752 1.689956,-2.134581 0.609204,-0.576222 1.296859,-1.069145 2.07825,-1.496822 0.789231,-0.43197 1.691964,-0.8055 2.728082,-1.130664 2.156299,-0.676716 4.756219,-1.096752 7.848256,-1.402265 1.909721,-0.180848 3.945833,-0.311798 5.826337,-0.428526 2.230441,-0.138449 5.098302,-0.407699 10.392838,0.132706 5.294535,0.540405 8.329442,0.990627 10.200134,1.432519 3.330412,0.786708 6.669334,1.55242 9.95266,2.518846 2.160473,0.635922 4.296196,1.226048 6.478181,1.708067 0.993333,0.219436 2.039614,0.493609 3.051988,0.179056 1.350705,-0.419675 2.194325,-1.957505 1.824755,-3.315542 -0.27761,-1.02011 -1.07157,-1.826584 -2.023929,-2.25328 -1.730656,-0.775405 -3.47365,-1.515349 -5.246925,-2.204996 -3.185203,-1.238763 -7.519945,-2.103558 -7.309078,-3.854719 0.210866,-1.751162 5.006111,-3.279907 8.640928,-5.287162 C 97.0168,11.388898 98.291545,10.53394 99.501763,9.6075855 100.62329,8.7491191 101.07026,7.0644131 100.44331,5.7528658 99.982247,4.7883309 98.444599,4.0945574 97.570556,4.2097853 96.58291,4.3399904 95.644664,4.6651261 94.663246,5.0628077 Z"
   sodipodi:nodetypes="sssscssssscsscscsssscssssscszsssssssssssss" /><path
   id="path11479-0"
   d="m 42.020766,49.699908 3.542133,61.324242 c 0.123069,2.13068 2.820247,12.77857 21.256664,12.77857 20.956425,0 21.133571,-10.64789 21.256664,-12.77857 L 91.618359,49.711023 C 92.160721,40.322919 87.461142,27.462336 66.447191,27.929189 45.433241,28.396042 41.512475,40.899942 42.020766,49.699908 Z"
   style="clip-rule:evenodd;fill:#db4437;fill-rule:nonzero;stroke-width:1;stroke-miterlimit:10"
   sodipodi:nodetypes="ssssszs" /><path
   id="path11526-8"
   d="m 32.902849,93.17781 -0.752824,-7.416097 c -0.02884,-0.246393 0.181156,-0.438927 0.418628,-0.426249 3.357904,0.248521 5.667366,-0.343971 6.584968,-0.642601 0.234377,-0.07998 0.477009,0.08712 0.505855,0.333516 l 0.752136,7.395524 c 0.01545,0.154078 -0.05179,0.300616 -0.193515,0.3775 -0.758706,0.427294 -3.488147,1.714049 -7.036226,0.709204 -0.145162,-0.02606 -0.263224,-0.166418 -0.279022,-0.330797 z"
   style="clip-rule:evenodd;fill:#cbdbe0;fill-opacity:1;fill-rule:nonzero;stroke-width:1;stroke-miterlimit:10"
   sodipodi:nodetypes="ccccccccc" /><path
   id="path11483-7"
   d="m 52.289032,49.834125 1.348692,27.932806 c 0.02108,0.436717 0.317984,0.81483 0.745272,0.884388 8.625285,1.480612 16.604665,1.56011 24.882156,0.01 0.42729,-0.0795 0.714751,-0.457598 0.735336,-0.884392 l 1.348691,-27.964685 c 0.02849,-0.590813 -0.514822,-1.0406 -1.095367,-0.974879 -8.456253,1.029648 -18.336484,1.226815 -26.847504,0.03286 -0.591501,-0.08763 -1.157253,0.13597 -1.117276,0.963921 z"
   style="clip-rule:evenodd;fill:#fafafa;fill-rule:nonzero;stroke-width:0.999996;stroke-miterlimit:10"
   sodipodi:nodetypes="ssccssccs" /><path
   id="rect1"
   style="fill:#212121;stroke-width:6;stroke-linecap:round"
   d="m 66.819082,6.7544667 c 3.64665,0 4.886671,2.8191481 4.730998,5.7725553 l -0.764216,14.498606 c -0.160224,3.039761 -1.654443,4.140708 -3.966214,4.140708 -2.31177,0 -3.80598,-1.100905 -3.966377,-4.140693 L 62.088244,12.527008 C 61.932408,9.5736601 63.172432,6.7544667 66.819082,6.7544667 Z"
   sodipodi:nodetypes="zsszssz" /><path
   id="path1"
   style="fill:#fafafa;fill-opacity:1;stroke-width:6;stroke-linecap:round"
   d="m 81.239075,83.07862 c -0.527096,0.159173 -0.957539,0.552184 -1.247352,1.013976 -0.500319,0.797217 -0.662268,1.743912 -0.774565,2.6637 -0.144146,1.180644 -0.235533,2.366855 -0.344991,3.551066 -0.281096,3.041131 -0.480301,6.089904 -0.795732,9.127656 -0.109168,1.051342 -0.398315,2.076622 -0.703358,3.088322 -0.281312,0.93298 -0.57834,1.87748 -1.097255,2.70785 -0.564982,0.90408 -1.339135,1.65521 -2.137612,2.35499 -1.145752,1.00412 -2.30802,1.98937 -3.449317,2.99855 -0.730445,0.64589 -1.386624,1.49283 -1.438477,2.50679 -0.04304,0.84151 0.305666,1.67252 0.860458,2.30055 0.596625,0.67537 1.512319,1.00645 2.395049,0.96988 0.937002,-0.0388 1.843942,-0.35517 2.710183,-0.69699 0.984342,-0.38842 1.886783,-0.96338 2.727452,-1.60112 0.911136,-0.69119 1.774616,-1.46772 2.44366,-2.40229 0.664941,-0.92884 1.186312,-1.95804 1.573018,-3.03133 0.39071,-1.08441 0.612504,-2.22268 0.749174,-3.36599 0.141475,-1.18351 0.248741,-2.37074 0.330602,-3.55959 0.129982,-1.887671 0.222899,-3.777718 0.311549,-5.667692 0.06314,-1.346097 0.111997,-2.692678 0.148296,-4.039847 0.03223,-1.196211 0.06327,-2.392505 0.07096,-3.58907 0.0072,-1.125181 0.04285,-2.256132 -0.106628,-3.373885 -0.06651,-0.497333 -0.197202,-1.052369 -0.60557,-1.376111 -0.442938,-0.351148 -1.024678,-0.759052 -1.619545,-0.579415 z"
   sodipodi:nodetypes="ssssssssssssssssssssssss" /><path
   style="fill:#2f2f2f;fill-opacity:1;stroke:none;stroke-width:5.82484;stroke-linecap:round;stroke-opacity:1"
   d="m -69.290972,100.38706 c 2.42281,0.85326 8.219756,2.3202 19.439944,2.3202 11.798812,0 19.026127,-1.42552 21.93855,-2.15041 0.825716,-0.20552 1.448091,0.27631 1.403348,1.12643 l -0.191525,3.63895 c -0.04474,0.85012 -0.721134,1.80081 -1.535599,2.04715 -2.691541,0.81407 -9.310719,2.32056 -21.437997,2.32056 -11.421397,0 -16.932716,-0.9798 -19.262573,-1.59251 -0.821818,-0.21612 -1.488891,-1.17104 -1.522859,-2.02166 l -0.18949,-4.74515 c -0.03397,-0.85061 0.555991,-1.22608 1.358201,-0.94356 z"
   id="path6"
   sodipodi:nodetypes="csccscc"
   inkscape:original-d="m -70.710678,99.790444 c 0,0 5.038136,2.916816 20.85965,2.916816 15.821514,0 23.422912,-2.56326 23.422912,-2.56326 l -0.353553,6.71751 c 0,0 -6.275573,2.82843 -22.892582,2.82843 -16.61701,0 -20.723927,-2.07399 -20.723927,-2.07399 z"
   inkscape:path-effect="#path-effect6"
   transform="matrix(1.0300711,0,0,1.0300711,116.97369,-13.637411)" /><path
   style="fill:#ed6c30;stroke-width:1;stroke-linecap:round"
   d="m 67.390319,52.745557 c -1.449014,0 -2.653652,0.701747 -4.045865,2.986613 -1.392213,2.284867 -4.62926,9.388943 -4.62926,13.280482 0,3.891539 2.15667,7.763234 8.626682,7.763234 6.470013,0 7.817932,-4.153094 7.817932,-7.159256 0,-3.006163 -2.842788,-10.914492 -3.997423,-13.395424 -1.154634,-2.480931 -2.323054,-3.475649 -3.772066,-3.475649 z"
   id="path2"
   sodipodi:nodetypes="sszszss" /><path
   style="fill:#fcc21b;stroke-width:0.999998;stroke-linecap:round"
   d="m 67.074762,62.50581 c -1.787066,0 -3.650728,4.584327 -3.650728,6.778656 0,2.194328 0.913367,3.853257 3.65347,3.853257 2.740103,0 3.310959,-1.848081 3.310959,-3.604472 0,-1.756391 -1.526634,-7.027441 -3.313701,-7.027441 z"
   id="path4"
   sodipodi:nodetypes="zzszz" /></svg>
