<?xml version="1.0" encoding="UTF-8" standalone="no"?>
<!-- Generator: Adobe Illustrator 25.2.3, SVG Export Plug-In . SVG Version: 6.00 Build 0)  -->

<svg
   version="1.1"
   id="Layer_2"
   x="0px"
   y="0px"
   viewBox="0 0 128 128"
   style="enable-background:new 0 0 128 128;"
   xml:space="preserve"
   sodipodi:docname="emoji_u1f960.svg"
   inkscape:version="1.2.2 (732a01da63, 2022-12-09)"
   xmlns:inkscape="http://www.inkscape.org/namespaces/inkscape"
   xmlns:sodipodi="http://sodipodi.sourceforge.net/DTD/sodipodi-0.dtd"
   xmlns="http://www.w3.org/2000/svg"
   xmlns:svg="http://www.w3.org/2000/svg"><defs
   id="defs20095" /><sodipodi:namedview
   id="namedview20093"
   pagecolor="#ffffff"
   bordercolor="#000000"
   borderopacity="0.25"
   inkscape:showpageshadow="2"
   inkscape:pageopacity="0.0"
   inkscape:pagecheckerboard="0"
   inkscape:deskcolor="#d1d1d1"
   showgrid="false"
   inkscape:zoom="2.1210938"
   inkscape:cx="37.71639"
   inkscape:cy="63.174954"
   inkscape:window-width="1366"
   inkscape:window-height="697"
   inkscape:window-x="-8"
   inkscape:window-y="-8"
   inkscape:window-maximized="1"
   inkscape:current-layer="Layer_2" />
<path
   style="fill:#875800;stroke:none;stroke-width:151;stroke-linecap:round;fill-opacity:1"
   d="m 115.84571,52.838977 -56.172669,50.838763 3.333689,12.16797 13.501442,-1.33348 12.834705,-5.00053 21.002243,-16.001711 9.6677,-18.001923 2.00021,-17.50187 -3.167,-5.500587 z"
   id="path20292" /><path
   id="path20042"
   style="fill:#e39300;fill-opacity:1"
   d="M 120.28906 60.835938 C 120.17923 64.652589 119.06814 70.906527 116.13086 77.710938 C 112.40086 86.36092 107.80998 95.189864 94.75 103.83984 C 87.192572 108.84171 70.367632 116.41832 64.720703 114.10352 L 64.902344 117.47656 C 71.173876 118.312 83.279648 115.45476 99.730469 105.41992 C 115.33856 95.899146 122.8225 75.914345 123.30469 60.876953 L 120.28906 60.835938 z " /><path
   style="fill:#e0e0e0;fill-opacity:1;stroke:none;stroke-width:151;stroke-linecap:round"
   d="m 76.773195,76.981419 c 0,0 2.121547,15.519824 8.486188,30.144271 6.364641,14.62445 11.550645,17.9075 11.550645,17.9075 l 23.337022,-16.4152 c 0,0 -12.0221,-11.938332 -16.50092,-22.384368 C 99.167298,75.787586 97.752938,69.519966 97.752938,69.519966 Z"
   id="path27863" />
<radialGradient
   id="SVGID_1_"
   cx="68.4803"
   cy="46.9255"
   r="67.7321"
   gradientTransform="matrix(0.7977 0.6031 -0.7218 0.9547 47.7291 -39.1749)"
   gradientUnits="userSpaceOnUse">
	<stop
   offset="0.3839"
   style="stop-color:#F7C876;stop-opacity:0"
   id="stop20044" />
	<stop
   offset="0.4769"
   style="stop-color:#F6C269;stop-opacity:0.3283"
   id="stop20046" />
	<stop
   offset="0.6493"
   style="stop-color:#F3B346;stop-opacity:0.9376"
   id="stop20048" />
	<stop
   offset="0.667"
   style="stop-color:#F3B142"
   id="stop20050" />
</radialGradient>

<radialGradient
   id="SVGID_2_"
   cx="27.2872"
   cy="37.2976"
   r="41.4394"
   gradientTransform="matrix(0.5121 0.8589 -1.469 0.8759 68.1016 -18.8088)"
   gradientUnits="userSpaceOnUse">
	<stop
   offset="0.5618"
   style="stop-color:#F7C876"
   id="stop20055" />
	<stop
   offset="0.6444"
   style="stop-color:#F6BE5F"
   id="stop20057" />
	<stop
   offset="0.738"
   style="stop-color:#F5B74D"
   id="stop20059" />
	<stop
   offset="0.8369"
   style="stop-color:#F4B242"
   id="stop20061" />
	<stop
   offset="0.9489"
   style="stop-color:#F4B13F"
   id="stop20063" />
</radialGradient>

<linearGradient
   id="SVGID_3_"
   gradientUnits="userSpaceOnUse"
   x1="53.9856"
   y1="52.014"
   x2="88.1474"
   y2="44.1736">
	<stop
   offset="0"
   style="stop-color:#F4B13F;stop-opacity:0"
   id="stop20068" />
	<stop
   offset="1"
   style="stop-color:#F4B13F"
   id="stop20070" />
</linearGradient>




<radialGradient
   id="SVGID_4_"
   cx="106.1334"
   cy="32.1478"
   r="13.8126"
   gradientUnits="userSpaceOnUse">
	<stop
   offset="0"
   style="stop-color:#F3B142"
   id="stop20081" />
	<stop
   offset="0.2822"
   style="stop-color:#F4B54C;stop-opacity:0.7178"
   id="stop20083" />
	<stop
   offset="0.7562"
   style="stop-color:#F6C166;stop-opacity:0.2438"
   id="stop20085" />
	<stop
   offset="1"
   style="stop-color:#F7C876;stop-opacity:0"
   id="stop20087" />
</radialGradient>

<text
   xml:space="preserve"
   style="font-weight:600;font-size:6.55168px;font-family:DynaPuff;-inkscape-font-specification:'DynaPuff Semi-Bold';font-variant-numeric:ordinal;fill:#2f2f2f;fill-opacity:1;stroke:none;stroke-width:151;stroke-linecap:round"
   id="text28910"
   y="-32.53167"
   x="80.555298"
   transform="rotate(60)"><tspan
     sodipodi:role="line"
     id="tspan28908"
     x="80.555298"
     y="-32.53167"
     style="font-style:normal;font-variant:normal;font-weight:bold;font-stretch:normal;font-family:'Comic Neue';-inkscape-font-specification:'Comic Neue Bold';fill:#2f2f2f;fill-opacity:1;stroke-width:151">The blob is here to stay!</tspan></text><path
   id="path34489"
   style="fill:#000000;fill-opacity:1;stroke:none;stroke-width:151;stroke-linecap:round;opacity:0.2"
   d="M 101.54492 81.054688 L 79.113281 88.580078 C 80.312005 93.420958 82.037135 99.261632 84.410156 105.08789 C 86.661024 104.3474 91.045501 102.7124 96.427734 99.677734 C 101.65259 96.731809 104.98424 93.634054 106.65039 91.875 C 105.48582 89.9972 104.44353 88.093348 103.64648 86.234375 C 102.83885 84.350726 102.16294 82.654356 101.54492 81.054688 z " /><path
   id="path27973"
   style="fill:#e39300;fill-opacity:1"
   d="M 78.189453 2.3652344 C 65.283975 2.8596883 49.4342 17.721026 39.800781 22.759766 C 29.170803 28.319754 16.359213 34.359537 13.699219 37.019531 C 11.039223 39.679527 2.3295352 52.250499 4.2695312 67.230469 C 6.2095274 82.210439 12.410322 93.209535 17.320312 95.269531 C 22.820302 97.569527 43.390867 84.429135 47.380859 81.369141 C 56.120843 74.659153 57.919922 70.859375 57.919922 70.859375 C 57.919922 70.859375 53.329064 86.570723 54.289062 96.720703 C 55.249062 106.87068 57.189305 113.87908 61.779297 116.53906 C 62.559537 116.99123 63.61793 117.30546 64.902344 117.47656 L 64.720703 114.10352 C 63.650295 113.66473 62.977089 112.87559 62.849609 111.64062 C 61.829611 101.80064 88.639956 102.13965 104.41992 85.679688 C 118.4499 71.049716 118.15953 57.009766 119.51953 57.009766 C 120.04206 57.009766 120.35759 58.454563 120.28906 60.835938 L 123.30469 60.876953 C 123.43481 56.819086 123.08434 53.100649 122.21094 50.070312 C 117.26094 32.870348 101.41992 23.970703 101.41992 23.970703 C 101.41992 23.970703 93.93982 5.3592134 82.089844 2.6992188 C 80.827971 2.4160942 79.524503 2.3140839 78.189453 2.3652344 z " /><path
   style="fill:#875800;fill-opacity:1"
   d="M77.61,16.63c-5.94-1.02-6.79,10.52-11.71,24.94c-4.92,14.42-9.15,28.82-8.08,29.53  c0.86,0.57,8.59-13.62,14.36-28.72C77.22,29.22,81.46,17.29,77.61,16.63z"
   id="path20079" /></svg>
