<?xml version="1.0" encoding="UTF-8" standalone="no"?>
<svg
   width="100%"
   height="100%"
   viewBox="0 0 128 128"
   version="1.1"
   xml:space="preserve"
   style="fill-rule:evenodd;clip-rule:evenodd;stroke-linejoin:round;stroke-miterlimit:2;"
   id="svg7"
   sodipodi:docname="emoji_u1f998.svg"
   inkscape:version="1.3 (0e150ed6c4, 2023-07-21)"
   xmlns:inkscape="http://www.inkscape.org/namespaces/inkscape"
   xmlns:sodipodi="http://sodipodi.sourceforge.net/DTD/sodipodi-0.dtd"
   xmlns="http://www.w3.org/2000/svg"
   xmlns:svg="http://www.w3.org/2000/svg"><defs
   id="defs7" /><sodipodi:namedview
   id="namedview7"
   pagecolor="#ffffff"
   bordercolor="#000000"
   borderopacity="0.25"
   inkscape:showpageshadow="2"
   inkscape:pageopacity="0.0"
   inkscape:pagecheckerboard="0"
   inkscape:deskcolor="#d1d1d1"
   inkscape:zoom="2.0273438"
   inkscape:cx="34.28131"
   inkscape:cy="105.80347"
   inkscape:window-width="1366"
   inkscape:window-height="697"
   inkscape:window-x="-8"
   inkscape:window-y="-8"
   inkscape:window-maximized="1"
   inkscape:current-layer="svg7" />&#10;    &#10;    &#10;    &#10;    &#10;    &#10;    &#10;    &#10;<g
   id="g20"
   transform="matrix(1.1056248,0,0,1.1056248,80.22619,-3.8135004)"
   style="stroke-width:0.904466"><path
     style="clip-rule:evenodd;fill:#f79329;fill-opacity:1;fill-rule:evenodd;stroke-width:5.4268;stroke-linecap:round;stroke-linejoin:round;stroke-miterlimit:2"
     d="m -23.174904,63.410646 c -5.505889,0 -9.922034,2.870318 -9.922034,10.26963 0,7.399313 7.674412,12.63989 7.278193,14.446786 -0.39622,1.806897 -16.749812,11.757497 -11.19655,16.476768 5.553259,4.7193 6.61794,-2.21331 11.300911,-6.984983 4.682969,-4.771672 8.3308,-5.156521 9.048948,-8.43152 0.718148,-3.275002 -4.500575,-6.604752 -4.500575,-12.154236 0,-5.549485 2.508473,-5.559414 2.508473,-8.618227 0,-3.058814 -2.256244,-5.004218 -4.517366,-5.004218 z"
     id="path14-0"
     sodipodi:nodetypes="sssssssss" /><path
     style="fill:#f79329;fill-opacity:1;stroke-width:5.4268;stroke-linecap:round"
     d="m -40.263951,54.03084 c -2.355469,-0.455561 -5.583632,1.178301 -6.890156,3.272375 -1.306524,2.094075 -2.113082,4.329125 0.295701,5.724846 2.408783,1.395721 3.668404,-2.035781 4.989128,-3.241538 1.320723,-1.205757 3.712467,-0.876017 4.280766,-2.847196 0.5683,-1.971181 -0.832029,-2.551961 -2.675439,-2.908487 z"
     id="path14" /><path
     d="m -32.325216,50.256013 c 1.261413,1.954382 3.017281,4.557246 7.669445,4.557246 9.313626,0 10.865848,-9.342766 22.7711991,-9.342766 7.0265826,0 12.1580379,7.303483 13.7241009,16.616238 1.607006,9.55623 3.873463,13.300649 9.285645,17.380823 3.95118,2.978744 6.430594,4.066955 6.214752,5.944333 -0.181754,1.580879 -2.342296,2.120919 -7.585198,1.414077 C 5.0902949,84.848921 4.5794297,71.60053 -0.58922466,71.60053 c -3.61356194,0 -3.86294824,6.210081 -14.84133134,6.210081 -13.478754,0 -23.502941,-5.558324 -25.742057,-26.733487 -0.365723,-3.458613 0.890809,-4.431365 3.315194,-5.080977 2.424386,-0.649613 3.829982,1.622515 5.532203,4.259866 z"
     fill="#dea850"
     id="path3-8"
     sodipodi:nodetypes="ssssssssssss"
     style="fill:#f79329;fill-opacity:1;stroke-width:0.904466" /><path
     style="fill:#f79329;fill-opacity:1;stroke-width:5.4268;stroke-linecap:round"
     d="m -26.271213,25.078657 c -1.804777,3.839774 -7.095503,10.450699 -9.504474,8.752998 -2.408971,-1.697699 0.0114,-9.7506 2.308374,-14.637578 2.296975,-4.886988 6.11828,-9.4836648 9.19358,-7.316387 3.0753,2.167278 -0.1927,9.361201 -1.99748,13.200967 z"
     id="path12"
     sodipodi:nodetypes="sssss" /><path
     style="fill:#f79329;fill-opacity:1;stroke-width:5.4268;stroke-linecap:round"
     d="m -42.404113,8.3273135 c -3.273889,-0.1331939 -3.744966,6.1971525 -3.85588,10.2848995 -0.110916,4.087752 1.410809,12.427191 3.975357,12.531525 2.564548,0.104326 3.867592,-7.655154 4.008758,-12.857745 0.141164,-5.202591 -0.854344,-9.8254869 -4.128235,-9.9586795 z"
     id="path11"
     sodipodi:nodetypes="sssss" /><path
     style="fill:#f79329;stroke-width:5.4268;stroke-linecap:round"
     d="m -39.591645,25.772641 c -6.86345,0 -9.516503,6.401488 -9.912472,10.097192 -0.778582,7.266742 -7.028437,3.101752 -7.028437,6.401487 0,3.299736 3.86069,9.767218 12.967961,9.767218 9.107271,0 15.838731,-2.111831 15.838731,-12.670985 0,-10.559154 -6.190237,-13.594912 -11.865783,-13.594912 z"
     id="path8"
     sodipodi:nodetypes="ssssss" /><ellipse
     style="fill:#2f2f2f;fill-opacity:1;stroke-width:5.4268;stroke-linecap:round"
     id="path9"
     cx="-39.044212"
     cy="41.314339"
     rx="1.8309492"
     ry="2.2581706"
     transform="rotate(8.3778228)" /><ellipse
     style="fill:#2f2f2f;fill-opacity:1;stroke-width:5.4268;stroke-linecap:round"
     id="ellipse9"
     cx="40.703403"
     cy="29.960487"
     rx="2.1455011"
     ry="2.6461179"
     transform="matrix(-0.9893288,0.1457001,0.1457001,0.9893288,0,0)" /><path
     d="m -51.383369,39.964247 c 0.896977,0.904066 0.18257,2.819107 -0.438982,3.937605 -0.672279,1.206464 -2.298274,3.124983 -3.577505,2.273992 -0.711848,-0.473012 -1.739752,-4.380337 -1.108356,-5.332964 0.608279,-0.946421 4.589569,-1.413924 5.124843,-0.878633 z"
     style="fill:#2f2f2f;fill-opacity:1;fill-rule:nonzero;stroke-width:0.904466"
     id="path10"
     sodipodi:nodetypes="ccccc" /><path
     style="fill:#f79329;fill-opacity:1;stroke-width:5.4268;stroke-linecap:round"
     d="m -35.904465,60.34888 c -3.067592,-0.290041 -6.787122,2.173993 -7.985045,4.986864 -1.197925,2.812871 -1.735227,5.743415 1.601336,7.218298 3.336563,1.474884 4.188348,-3.027017 5.594802,-4.71597 1.406454,-1.688953 4.49278,-1.562771 4.786305,-4.129892 0.293525,-2.567124 -1.596675,-3.132312 -3.997398,-3.3593 z"
     id="path15" /><path
     style="clip-rule:evenodd;fill:#f79329;fill-opacity:1;fill-rule:evenodd;stroke-width:5.4268;stroke-linecap:round;stroke-linejoin:round;stroke-miterlimit:2"
     d="m -4.9785466,62.461147 c -6.7604304,0 -12.1828214,3.355604 -12.1828214,12.440888 0,9.085286 9.6594898,14.550621 9.3240939,16.797042 -0.3353959,2.246422 -19.8388149,15.640163 -12.6440669,20.960543 7.194749,5.32037 8.219076,-3.10706 13.5598277,-9.34132 5.3407569,-6.234266 9.7775733,-7.008536 10.3854775,-11.080169 0.6079049,-4.07164 -5.9758797,-6.405361 -5.9758797,-13.219325 0,-6.813964 3.0800427,-6.826155 3.0800427,-10.581935 0,-3.755781 -2.7703427,-5.975724 -5.5466738,-5.975724 z"
     id="path13"
     sodipodi:nodetypes="sssssssss" /></g></svg>
