<?xml version="1.0" encoding="UTF-8" standalone="no"?>
<svg
   width="100%"
   height="100%"
   viewBox="0 0 128 128"
   version="1.1"
   xml:space="preserve"
   style="fill-rule:evenodd;clip-rule:evenodd;stroke-linejoin:round;stroke-miterlimit:1.41421;"
   id="svg6"
   sodipodi:docname="emoji_u1fa81.svg"
   inkscape:version="1.3 (0e150ed6c4, 2023-07-21)"
   xmlns:inkscape="http://www.inkscape.org/namespaces/inkscape"
   xmlns:sodipodi="http://sodipodi.sourceforge.net/DTD/sodipodi-0.dtd"
   xmlns="http://www.w3.org/2000/svg"
   xmlns:svg="http://www.w3.org/2000/svg"><defs
   id="defs6">&#10;        &#10;        &#10;    </defs><sodipodi:namedview
   id="namedview6"
   pagecolor="#ffffff"
   bordercolor="#000000"
   borderopacity="0.25"
   inkscape:showpageshadow="2"
   inkscape:pageopacity="0.0"
   inkscape:pagecheckerboard="0"
   inkscape:deskcolor="#d1d1d1"
   inkscape:zoom="1.4335485"
   inkscape:cx="42.202967"
   inkscape:cy="100.10125"
   inkscape:window-width="1366"
   inkscape:window-height="697"
   inkscape:window-x="-8"
   inkscape:window-y="-8"
   inkscape:window-maximized="1"
   inkscape:current-layer="svg6" />&#10;    &#10;    &#10;    &#10;    &#10;<g
   id="g21"
   transform="matrix(1.069593,0,0,1.069593,-3.2739612,-4.4913553)"
   style="stroke-width:0.934935"><g
     id="g10"
     transform="matrix(0.95131306,0,0,0.95131306,2.8534969,-0.5802435)"
     style="stroke-width:0.982785"><path
       id="path10"
       style="fill:#6593a2;stroke-width:5.8967;stroke-linecap:round"
       d="M 109.75586 53.462891 C 108.47758 53.696666 107.23152 54.101962 106.06234 54.66899 C 104.66514 55.34627 103.37662 56.237784 102.20508 57.253906 C 99.567153 59.580105 97.704151 62.681763 96.524672 65.972568 C 95.891104 67.711244 95.479287 69.52276 95.188783 71.347916 C 94.904912 73.233661 94.809576 75.144985 94.871985 77.050421 C 94.935709 80.306665 95.5445 83.558402 96.73477 86.593268 C 97.238212 87.959563 97.819021 89.298046 98.502992 90.584134 C 99.657038 92.808166 100.95568 94.956752 102.03698 97.218359 C 102.73041 98.721952 103.36442 100.27637 103.64306 101.91634 C 103.84888 103.31126 103.63963 104.73615 103.25166 106.08056 C 102.67841 107.9254 101.65862 109.62715 100.31337 111.0126 C 99.000089 112.33205 97.464811 113.4208 95.828125 114.30273 C 94.884835 114.7842 93.912657 115.21132 92.902252 115.53169 C 90.535361 116.29273 88.033957 116.63744 85.549109 116.53618 C 83.610959 116.47692 81.69458 116.13408 79.808594 115.70117 C 78.30264 115.29558 76.81533 114.80227 75.404732 114.1325 C 74.158836 113.58624 72.988874 112.88502 71.843468 112.15614 C 70.601542 111.30862 69.430873 110.36092 68.331139 109.33754 C 67.44176 108.52809 66.586858 107.66668 65.896484 106.67773 C 65.054254 105.49028 64.326026 104.22457 63.649612 102.93577 C 63.189195 102.08294 62.822157 101.18291 62.456703 100.28658 C 61.765455 98.503148 61.047554 96.728421 60.34375 94.951172 C 59.934466 94.169308 59.031308 93.653447 58.147848 93.767964 C 57.274405 93.813785 56.595201 94.616029 56.478097 95.445374 C 56.282791 96.748015 56.652025 98.044788 56.962891 99.298828 C 57.290186 100.46216 57.676477 101.6051 58.067189 102.75018 C 58.773916 104.66784 59.554416 106.57808 60.679915 108.29323 C 61.566169 109.69837 62.56077 111.04051 63.576172 112.34766 C 64.805814 113.83199 66.251223 115.12744 67.814292 116.25123 C 70.981252 118.52826 74.626671 120.10286 78.409553 121.0223 C 81.456505 121.76004 84.615481 122.03191 87.743518 121.82329 C 92.272194 121.50345 96.751242 120.1671 100.62691 117.78334 C 102.57882 116.59908 104.35154 115.10843 105.8009 113.34125 C 106.5142 112.47113 107.14683 111.53356 107.69291 110.54993 C 108.51796 109.02838 109.06957 107.35955 109.33309 105.64989 C 109.57003 104.07304 109.57899 102.45841 109.3043 100.88547 C 109.01028 98.96762 108.26259 97.155591 107.39304 95.433014 C 106.02619 92.629319 104.62889 89.839123 103.37891 86.980469 C 102.77386 85.430711 102.30031 83.831032 101.95816 82.203019 C 101.61068 80.604777 101.36656 78.980901 101.3032 77.345006 C 101.18604 74.826909 101.44605 72.286966 102.12713 69.857863 C 102.5181 68.481795 103.06161 67.150802 103.74031 65.891565 C 104.58134 64.28939 105.60306 62.770526 106.8457 61.451172 C 107.75844 60.555655 108.80667 59.77036 110.0126 59.31875 C 110.91242 58.948564 111.84888 58.656413 112.80664 58.480469 C 113.80449 58.289772 114.99745 58.394407 115.75 57.587891 C 116.4088 56.889254 116.59263 55.752482 116.10528 54.90996 C 115.70445 54.2206 114.96027 53.81781 114.19727 53.664062 C 113.04787 53.37797 111.85773 53.316928 110.67773 53.333984 C 110.37044 53.376953 110.06315 53.419922 109.75586 53.462891 z " /><g
       id="g9"
       transform="matrix(0.94074157,-0.25207096,0.25207096,0.94074157,-27.588594,16.032728)"
       style="stroke-width:1.00909"><path
         id="path3"
         style="fill:#fcc21b;stroke-width:1.2775"
         d="m 28.912109,45.515625 c 0.02141,0.38126 0.129058,0.760259 0.333985,1.105469 4.948052,8.322189 27.509017,46.266879 33.363281,56.115236 0.291516,0.4894 0.819649,0.79102 1.390625,0.79101 5.002257,-20.304351 13.144694,-41.21581 0,-58.011715 z"
         sodipodi:nodetypes="cccccc" /><path
         id="path8"
         style="fill:#ed6c30;stroke-width:1.2775"
         d="m 28.912109,45.515625 35.087891,0 c 20.512301,-9.07024 2.543083,-23.3754 0,-35.5820312 -0.651526,1.1e-6 -1.275167,0.2593342 -1.732422,0.7207032 -6.194244,6.260262 -27.166423,27.457869 -32.658203,33.007812 -0.497366,0.50332 -0.735008,1.181311 -0.697266,1.853516 z"
         sodipodi:nodetypes="cccccc" /><path
         id="path7"
         style="fill:#bdcf46;stroke-width:1.2775"
         d="m 64,45.515625 v 58.011715 c 0.569789,1e-5 1.099196,-0.30124 1.390625,-0.79101 5.854265,-9.84838 28.415231,-47.793031 33.363281,-56.115236 0.204925,-0.345211 0.312437,-0.724208 0.333985,-1.105469 z" /><path
         id="path9"
         style="fill:#f79329;stroke-width:1.2775"
         d="M 64,45.515625 H 99.087891 C 99.125882,44.84342 98.888742,44.165427 98.390625,43.662109 92.898835,38.112183 71.924714,16.91454 65.730469,10.654297 65.273216,10.192924 64.650342,9.9335923 64,9.9335938 Z" /></g></g><path
     style="fill:#ed6c30;fill-opacity:1;stroke-width:5.60961;stroke-linecap:round"
     d="m 99.022725,60.164358 c -3.220527,-0.921432 -4.728675,-3.237012 -6.972173,-3.838156 -2.243498,-0.601143 -4.946175,6.428477 -1.93845,7.234394 3.007725,0.805918 4.598983,0.376256 7.848267,1.246899 3.249291,0.870644 4.467841,2.103637 7.106841,2.810756 2.63901,0.70712 4.15448,-6.339575 1.86319,-6.953522 -2.29128,-0.613947 -4.68714,0.421062 -7.907675,-0.500371 z"
     id="path17"
     sodipodi:nodetypes="zzzzzzz" /><path
     style="fill:#f79329;fill-opacity:1;stroke-width:5.60961;stroke-linecap:round"
     d="m 96.585702,77.482414 c -3.249779,0.812283 -5.713663,-0.438994 -7.957162,0.162149 -2.243497,0.601144 -1.069274,8.040312 1.938451,7.234394 3.007725,-0.805917 4.170964,-1.973645 7.420248,-2.844288 3.249281,-0.870644 4.921081,-0.412116 7.560081,-1.119233 2.63901,-0.707121 0.4281,-7.567473 -1.86319,-6.953522 -2.29128,0.613947 -3.848653,2.708221 -7.098428,3.5205 z"
     id="path18"
     sodipodi:nodetypes="zzzzzzz" /><path
     style="fill:#fcc21b;fill-opacity:1;stroke-width:5.60961;stroke-linecap:round"
     d="m 102.82666,93.841159 c -3.349287,-0.0565 -5.405362,-1.902841 -7.728003,-1.902842 -2.322639,10e-7 -3.113825,7.489596 10e-7,7.489596 3.113826,10e-7 4.539658,-0.82687 7.903572,-0.826868 3.3639,-2e-6 4.86006,0.875596 7.59216,0.875597 2.7321,-10e-7 2.37212,-7.198818 0,-7.198816 -2.37211,0 -4.41846,1.619834 -7.76773,1.563333 z"
     id="path19"
     sodipodi:nodetypes="zzzzzzz" /><path
     style="fill:#bdcf46;fill-opacity:1;stroke-width:5.60961;stroke-linecap:round"
     d="m 94.089565,109.65067 c -1.625708,-2.92881 -1.054774,-5.63259 -2.216091,-7.64406 -1.161316,-2.011464 -8.043091,1.04815 -6.486176,3.7448 1.556906,2.69665 2.985915,3.51802 4.667866,6.43126 1.681959,2.91322 1.671747,4.64673 3.037796,7.0128 1.366051,2.36607 7.42041,-1.5451 6.234355,-3.59941 -1.186057,-2.05431 -3.612046,-3.01658 -5.23775,-5.94539 z"
     id="path20"
     sodipodi:nodetypes="zzzzzzz" /><path
     style="fill:#40c0e7;fill-opacity:1;stroke-width:5.60961;stroke-linecap:round"
     d="m 73.965326,109.58401 c 1.72357,-2.87231 4.350579,-3.72975 5.511904,-5.74122 1.161321,-2.01146 -4.929269,-6.441443 -6.486179,-3.74479 -1.556915,2.69664 -1.553738,4.34489 -3.235702,7.25812 -1.681943,2.91323 -3.188313,3.77114 -4.554365,6.13721 -1.366051,2.36607 5.048301,5.65371 6.234358,3.5994 1.186056,-2.05431 0.806412,-4.63641 2.529984,-7.50872 z"
     id="path21"
     sodipodi:nodetypes="zzzzzzz" /></g></svg>
