<?xml version="1.0" encoding="UTF-8" standalone="no"?>
<svg
   width="100%"
   height="100%"
   viewBox="0 0 534 534"
   version="1.1"
   xml:space="preserve"
   style="fill-rule:evenodd;clip-rule:evenodd;stroke-linecap:round;stroke-linejoin:round;stroke-miterlimit:1.5;"
   id="svg12"
   sodipodi:docname="emoji_u1f971.svg"
   inkscape:version="1.2.2 (732a01da63, 2022-12-09)"
   xmlns:inkscape="http://www.inkscape.org/namespaces/inkscape"
   xmlns:sodipodi="http://sodipodi.sourceforge.net/DTD/sodipodi-0.dtd"
   xmlns="http://www.w3.org/2000/svg"
   xmlns:svg="http://www.w3.org/2000/svg"><defs
     id="defs16"><linearGradient
       id="_Linear1"
       x1="0"
       y1="0"
       x2="1"
       y2="0"
       gradientUnits="userSpaceOnUse"
       gradientTransform="matrix(0,452.943,-385.985,0,270.919,36.0382)"><stop
         offset="0"
         style="stop-color:#6fa13a;stop-opacity:1"
         id="stop22" /><stop
         offset="0.52"
         style="stop-color:#d9bf2d;stop-opacity:1"
         id="stop24" /><stop
         offset="1"
         style="stop-color:#ffca28;stop-opacity:1"
         id="stop26" /></linearGradient></defs><sodipodi:namedview
     id="namedview14"
     pagecolor="#ffffff"
     bordercolor="#000000"
     borderopacity="0.25"
     inkscape:showpageshadow="2"
     inkscape:pageopacity="0.0"
     inkscape:pagecheckerboard="0"
     inkscape:deskcolor="#d1d1d1"
     showgrid="false"
     inkscape:zoom="1.0168539"
     inkscape:cx="195.70166"
     inkscape:cy="348.1326"
     inkscape:window-width="1366"
     inkscape:window-height="697"
     inkscape:window-x="-8"
     inkscape:window-y="-8"
     inkscape:window-maximized="1"
     inkscape:current-layer="svg12" /><path
     id="path20"
     d="M 265.792,36 C 6.1669996,36 0,327.083 0,384.708 0,442.333 119,489 265.792,489 412.625,489 531.583,442.292 531.583,384.708 531.583,327.083 525.458,36 265.792,36 Z"
     style="clip-rule:evenodd;fill:#fcc21b;fill-rule:nonzero;stroke-linejoin:round;stroke-miterlimit:2;fill-opacity:1" /><path
     d="M217.944,201.679c0,-0 -50.654,-8.56 -87.636,24.713"
     style="fill:none;stroke:#333;stroke-width:20.83px;"
     id="path4" /><path
     d="M343.516,276.629c-18.803,-6.768 -61.762,18.286 -86.559,18.286c-24.797,-0 -24.283,-1.881 -52.135,-1.881c-27.853,0 -50.417,28.528 -50.417,63.738c0,35.21 22.564,63.737 50.417,63.737c27.852,0 41.229,-14.949 61.845,-14.949c20.616,0 33.993,14.949 61.845,14.949c27.852,0 50.416,-28.57 50.416,-63.78c0,-35.167 -5.033,-69.164 -35.412,-80.1Z"
     style="fill:#ed6c30;fill-rule:nonzero;"
     id="path6" /><path
     d="M119.084,321.079c32.018,-2.794 14.136,38.413 15.521,52.562c0.298,3.142 1.996,6.725 3.964,4.218c0.81,-1.033 61.909,-64.38 61.909,-64.38c6.632,-6.979 16.237,-8.66 23.207,-2.064c6.969,6.596 5.841,16.293 -0.791,23.273l-45.516,49.349l62.716,-64.557c6.632,-6.979 16.237,-8.66 23.206,-2.064c6.97,6.596 5.841,16.294 -0.791,23.273l-61.455,66.509l51.181,-52.692c6.632,-6.979 16.237,-8.66 23.207,-2.064c6.97,6.596 5.841,16.294 -0.791,23.273l-50.015,54.437l31.357,-31.773c6.632,-6.98 16.237,-8.66 23.207,-2.065c6.97,6.596 4.426,14.926 -2.196,21.941c-0,0 -67.141,71.372 -74.669,78.048c-18.822,16.69 -67.199,26.819 -97.35,-1.091c-37.127,-34.388 -15.37,-78.807 -10.474,-95.454c3.846,-13.027 9.548,-26.668 12.073,-40.427c2.207,-12.045 3.054,-37.429 12.5,-38.252Z"
     style="fill:#fac036;stroke:none;stroke-width:12.5px;stroke-linecap:butt;stroke-miterlimit:2"
     id="path8" /><path
     d="M315.389,201.679c0,-0 50.654,-8.56 87.636,24.713"
     style="fill:none;stroke:#333;stroke-width:20.83px;"
     id="path10" /><path
     d="M119.084,321.079c32.018,-2.794 14.136,38.413 15.521,52.562c0.298,3.142 1.996,6.725 3.964,4.218c0.81,-1.033 61.909,-64.38 61.909,-64.38c6.632,-6.979 16.237,-8.66 23.207,-2.064c6.969,6.596 5.841,16.293 -0.791,23.273l-45.516,49.349l62.716,-64.557c6.632,-6.979 16.237,-8.66 23.206,-2.064c6.97,6.596 5.841,16.294 -0.791,23.273l-61.455,66.509l51.181,-52.692c6.632,-6.979 16.237,-8.66 23.207,-2.064c6.97,6.596 5.841,16.294 -0.791,23.273l-50.015,54.437l31.357,-31.773c6.632,-6.98 16.237,-8.66 23.207,-2.065c6.97,6.596 4.426,14.926 -2.196,21.941c-0,0 -67.141,71.372 -74.669,78.048c-18.822,16.69 -67.199,26.819 -97.35,-1.091c-37.127,-34.388 -15.37,-78.807 -10.474,-95.454c3.846,-13.027 9.548,-26.668 12.073,-40.427c2.207,-12.045 3.054,-37.429 12.5,-38.252Z"
     style="fill:none;stroke:#212121;stroke-width:44.031;stroke-linecap:butt;stroke-miterlimit:2;stroke-opacity:1;stroke-dasharray:none"
     id="path2882" /><path
     id="path1303"
     style="fill:#fac036;stroke:none;stroke-width:12.5;stroke-linecap:butt;stroke-miterlimit:2;stroke-dasharray:none;stroke-opacity:1"
     d="m 212.98047,311.28125 c -4.19328,0.27659 -7.83755,2.85756 -10.53929,5.92474 -19.87641,20.64183 -39.79648,41.24229 -59.60178,61.95216 -1.31817,1.32896 -2.5088,3.0767 -4.48588,3.41802 -2.2298,0.50662 -4.62058,-0.63292 -5.76242,-2.58794 -2.21879,-3.32373 -2.23945,-7.52516 -1.89054,-11.36143 0.61478,-6.65998 2.12156,-13.18041 2.95271,-19.8123 0.326,-2.56394 0.63305,-5.35236 0.67115,-8.02416 0.0716,-4.11297 -0.16687,-8.53345 -2.53274,-12.05465 -1.84094,-2.54013 -5.05253,-3.56645 -8.06723,-3.7321 -1.55786,-0.0486 -3.15853,-0.16222 -4.68734,0.18391 -1.57827,0.9387 -2.25291,2.78714 -2.94628,4.39218 -1.42175,3.7 -2.20117,7.60507 -2.84474,11.5043 -0.20521,1.30721 -0.44621,2.85356 -0.65234,4.25391 -1.04823,7.44501 -1.75783,15.04769 -3.77792,22.35157 -3.04697,11.89797 -7.60726,23.33263 -11.064183,35.10773 -1.882527,5.64414 -3.883341,11.25053 -5.581725,16.95476 -0.328741,1.13998 -0.725537,2.51371 -1.047038,3.75472 -2.897992,10.95859 -4.392349,22.48533 -2.64453,33.76378 1.413618,9.56959 5.396109,18.70586 11.299352,26.35672 5.972644,7.73325 13.580774,14.31951 22.456334,18.49629 10.47713,5.04162 22.26744,6.94074 33.83041,6.45271 0.38446,-0.0257 1.28529,-0.0701 1.69741,-0.0929 12.31509,-0.84564 24.5985,-4.102 35.28705,-10.37583 3.74731,-2.21426 7.13489,-5.00294 10.10398,-8.18163 11.80408,-11.92022 23.28987,-24.11358 34.86861,-36.26391 12.33746,-12.99172 24.65161,-25.98591 36.89138,-39.05882 2.37726,-2.76695 4.57846,-6.14854 4.41579,-9.94309 -0.28375,-3.23759 -2.76723,-5.84438 -5.50436,-7.34466 -2.98771,-1.58522 -6.66491,-1.45103 -9.67991,-0.0112 -2.86851,1.27527 -5.07434,3.57051 -7.20193,5.8065 l -30.02255,30.42258 c -1.32534,1.343 -4.29225,1.46349 -5.6582,0.16211 -1.36595,-1.30138 -1.38908,-4.2686 -0.11328,-5.6582 l 51.43376,-56.02159 c 2.67655,-3.15649 4.37087,-7.56533 3.21077,-11.68544 -1.37591,-4.72028 -6.17154,-8.43338 -11.16403,-8.00543 -3.68276,0.26564 -6.9838,2.32108 -9.49427,4.93226 l -51.77334,53.30754 c -1.31555,1.35453 -4.29201,1.47001 -5.66211,0.17188 -1.3701,-1.29813 -1.41085,-4.27227 -0.13086,-5.65821 l 62.82215,-68.02244 c 2.69748,-3.1642 4.4191,-7.58636 3.27102,-11.73086 -1.3404,-4.58241 -5.87745,-8.2347 -10.72816,-8.05142 -3.87205,0.13239 -7.38568,2.2661 -9.9943,5.02041 l -63.25548,65.11244 c -1.31484,1.35344 -4.28831,1.47175 -5.6582,0.17383 -1.36989,-1.29792 -1.41569,-4.27235 -0.13672,-5.66016 l 46.9537,-50.94928 c 2.67565,-3.16702 4.36591,-7.59851 3.17849,-11.72086 -1.39069,-4.6616 -6.1004,-8.31256 -11.04039,-7.96853 z"
     sodipodi:nodetypes="sccccccccccccccccccccccccccccccszsccccszsccccszsccss" /></svg>
