<?xml version="1.0" encoding="UTF-8" standalone="no"?>
<svg
   width="128"
   height="128"
   style="enable-background:new 0 0 128 128;"
   version="1.1"
   id="svg30010"
   sodipodi:docname="emoji_u1f6f5.svg"
   inkscape:version="1.2.2 (732a01da63, 2022-12-09)"
   xmlns:inkscape="http://www.inkscape.org/namespaces/inkscape"
   xmlns:sodipodi="http://sodipodi.sourceforge.net/DTD/sodipodi-0.dtd"
   xmlns="http://www.w3.org/2000/svg"
   xmlns:svg="http://www.w3.org/2000/svg">
  <defs
     id="defs30014" />
  <sodipodi:namedview
     id="namedview30012"
     pagecolor="#ffffff"
     bordercolor="#000000"
     borderopacity="0.25"
     inkscape:showpageshadow="2"
     inkscape:pageopacity="0.0"
     inkscape:pagecheckerboard="0"
     inkscape:deskcolor="#d1d1d1"
     showgrid="false"
     inkscape:zoom="2.9996795"
     inkscape:cx="50.172026"
     inkscape:cy="78.008333"
     inkscape:window-width="1366"
     inkscape:window-height="697"
     inkscape:window-x="-8"
     inkscape:window-y="-8"
     inkscape:window-maximized="1"
     inkscape:current-layer="svg30010" />
  <style
     type="text/css"
     id="style29974">
.st0{fill:#EA6C3A;}
.st1{fill:#FAC136;}
.st2{fill:#2F2F2F;}
.st3{fill:#65878D;}
.st4{fill:#ED6C30;}
.st5{fill:#47C0E5;}
.st6{fill:#BAE9F3;}
.st7{fill:none;stroke:#BAE9F3;stroke-width:2.5;stroke-linecap:round;stroke-miterlimit:10;}
  </style>
  <g
     id="g30008">
    <path
       id="path29976"
       class="st0"
       d="m 109.40039,59.099609 v 7 l 12.792,0 c 1.9,0 2.67383,-1.500002 2.67383,-3.5 0,-1.899998 -0.67383,-3.5 -2.67383,-3.5 z"
       sodipodi:nodetypes="ccsssc" />
    <path
       class="st1"
       d="M29.6,25.3c-0.4,2.8-1.1,8.1-1.5,10.9c-0.2,1.1-1.4,1.8-2.4,1.3c-2.9-1.4-4.7-4.5-4.2-7.8 c0.5-3.3,3.1-5.8,6.2-6.4C28.8,23.1,29.8,24.1,29.6,25.3z"
       id="path29978" />
    <circle
       class="st2"
       cx="19.4"
       cy="90.2"
       r="17.5"
       id="circle29980" />
    <circle
       class="st3"
       cx="19.4"
       cy="90.2"
       r="9.7"
       id="circle29982" />
    <circle
       class="st2"
       cx="97.7"
       cy="90.2"
       r="17.5"
       id="circle29984" />
    <circle
       class="st3"
       cx="97.7"
       cy="90.2"
       r="9.7"
       id="circle29986" />
    <path
       class="st4"
       d="M95.7,54.7"
       id="path29988" />
    <path
       class="st5"
       d="m 127.2,89.3 v 0 c 0,1.9 -1.6,3.5 -3.5,3.5 H 51.6 c -7.6,0 -14.7,-3.3 -19.7,-9 L 22.3,72.7 C 21,71.2 20.5,69.2 20.9,67.2 v 0 c 2,-9.1 5.9,-17.7 11.6,-25.2 l 1.8,-2.4 h 7.5 l -7,28.9 v 0 c 0.5,8.7 7.8,15.5 16.5,15.6 h 12.3 c 5.6,0 10.1,-4.5 10.1,-10.1 v 0 c 0,-3.5 -1.8,-6.7 -4.8,-8.6 L 63,61.7 c -1.2,-0.8 -2,-2.2 -2,-3.6 0,-2.395965 2.000344,-3.50357 3.167005,-3.5 L 96.85,54.7 c 1.154334,0.0035 30.35,2.8 30.35,34.6 z"
       id="path29990"
       sodipodi:nodetypes="ssssccssccccscsssccssss" />
    <path
       id="path29994"
       class="st2"
       d="m 98.490234,44.472656 c -0.292968,-0.007 -0.590625,0.0023 -0.890625,0.02734 -4.899995,0.699999 -9.898833,1 -14.798828,1 h -14.5 c -4.799995,0 -8.601562,2.662045 -8.601562,7.36204 0,4.92523 2.488195,6.637845 9.40039,6.405538 l 31.788541,-1.068359 c 3.57639,-0.120197 5.51224,-2.124731 5.51224,-4.433193 l 0,-1.066807 c 0,-4.499996 -3.51563,-8.121094 -7.910156,-8.226563 z"
       sodipodi:nodetypes="scsssssssss" />
    <path
       class="st2"
       d="M109.7,27.4l-0.1,0.2c-1.8,2.7-2.8,5.8-2.8,9v2c0,0.9,0.6,1.8,1.5,2.1l1.2,0.4c1.1,0.3,2.3-0.3,2.7-1.4l3-9.9 c0.4-1.2-0.3-2.4-1.5-2.7l-1.7-0.5C111.1,26.3,110.2,26.6,109.7,27.4z"
       id="path29996" />
    <path
       class="st2"
       d="M115.5,30L115.5,30c0.6,0.2,0.9,0.8,0.7,1.4l-5.7,20.2c-0.5,1.9-2,3.5-3.8,4.2l-2.5,1v-2.5l0.6-0.2 c2-0.7,3.5-2.3,4.1-4.4l5.2-19C114.3,30.2,114.9,29.8,115.5,30z"
       id="path29998" />
    <path
       class="st5"
       d="M42.7,37.4L44,33c0.4-1.2,0-2.6-1-3.4L38.8,26c-1.7-1.4-3.8-2.3-6-2.5L26.3,23c-0.5,0-0.9,0.2-1.1,0.6 l-0.8,1.8c-1.3,2.9-1.9,6-1.7,9.1l0.1,1.7c0,0.5,0.4,0.9,0.9,1l4.3,0.6c3.4,0.5,5.5,4,4.2,7.3v0l8.6-1.7L42.7,37.4z"
       id="path30000" />
    <path
       class="st2"
       d="M 39.212587,26.229191 C 38.25169,25.710636 36.6,25.2 35.6,27.7 c -1,2.4 -0.39566,4.101447 1.1,4.6 l 7.5,2.5 c 1.5,0.5 3.1,-0.5 3.4,-2.1 v 0 C 47.8,31.6 47.2,30.5 46.2,30 Z"
       id="path30002"
       sodipodi:nodetypes="scsssscs" />
    <path
       class="st5"
       d="M3,83.7l4.5,0c10.3,0.1,20.3,3.4,28.8,9.4l0,0c1.4,1,3.3-0.1,3.2-1.9c-0.1-2.2-0.5-5.2-1.6-8.3 c-2-6-6.2-11.3-12.8-13.1c-13.7-3.7-21,5.5-23.9,10.6C0.5,82,1.5,83.7,3,83.7z"
       id="path30004" />
  </g>
</svg>
