<?xml version="1.0" encoding="UTF-8" standalone="no"?>
<svg
   width="128"
   height="128"
   version="1.1"
   id="svg10"
   sodipodi:docname="emoji_u1f355.svg"
   xml:space="preserve"
   inkscape:version="1.3 (0e150ed6c4, 2023-07-21)"
   xmlns:inkscape="http://www.inkscape.org/namespaces/inkscape"
   xmlns:sodipodi="http://sodipodi.sourceforge.net/DTD/sodipodi-0.dtd"
   xmlns="http://www.w3.org/2000/svg"
   xmlns:svg="http://www.w3.org/2000/svg"><defs
     id="defs10" /><sodipodi:namedview
     id="namedview10"
     pagecolor="#ffffff"
     bordercolor="#000000"
     borderopacity="0.25"
     inkscape:showpageshadow="2"
     inkscape:pageopacity="0.0"
     inkscape:pagecheckerboard="0"
     inkscape:deskcolor="#d1d1d1"
     inkscape:zoom="4.0546876"
     inkscape:cx="57.834295"
     inkscape:cy="62.026973"
     inkscape:window-width="1366"
     inkscape:window-height="697"
     inkscape:window-x="-8"
     inkscape:window-y="-8"
     inkscape:window-maximized="1"
     inkscape:current-layer="svg10" /><path
     id="path1"
     d="m 64.494141,10.191406 c -10.129893,0.106914 -16.221095,7.295402 -17.183594,18.119141 -0.24,2.679997 -2.379767,5.040393 -4.009766,7.150391 C 37.830787,42.57093 32.220463,50.009226 26.480469,56.949219 21.500474,62.959213 17.229605,69.479928 12.849609,75.919922 5.9725259,86.080794 2.2432356,94.512097 3.0097656,104.91211 c -0.00502,-0.008 -0.014946,-0.0136 -0.019531,-0.0215 l 0.1717356,3.11878 c 0.1905733,3.46088 2.0168171,3.47506 6.0784613,3.92268 0.264848,0.0303 0.5364309,0.04 0.8164055,0.0273 0.0054,-2.4e-4 0.01027,2.6e-4 0.01563,0 0.092,-0.004 0.172809,-0.0245 0.261719,-0.0332 4.426692,-0.2969 19.608223,-1.32152 50.771288,-14.0063 39.713776,-16.16531 47.898266,-19.752227 54.978516,-22.392576 0.0986,-0.03655 0.19826,-0.07082 0.29688,-0.107422 2.63729,-0.976058 5.46325,-1.837387 7.42969,-3.59961 0.24248,-0.218063 0.47187,-0.45119 0.68554,-0.699218 1.95974,-1.903449 2.78459,-4.68336 2.31058,-8.759766 C 125.15012,48.115191 115.92351,35.631158 104.55078,26.759766 97.650788,21.379771 89.870382,17.059528 81.650391,14.019531 78.500394,12.869532 73.920073,11.449843 69.080078,10.589844 67.47133,10.306094 65.941268,10.176133 64.494141,10.191406 Z"
     style="fill:#fddd4e;fill-opacity:1"
     sodipodi:nodetypes="sccccccscsccsccccscccs" /><path
     id="path11"
     style="fill:#fcc21b;stroke:none;stroke-width:6;stroke-linecap:round"
     d="M 55.455078 34.949219 C 53.17835 35.49072 51.821151 37.590731 50.166981 39.0641 C 38.37471 51.2939 28.110778 64.954386 19.254193 79.439939 C 17.092209 83.168446 14.60113 86.827981 13.510454 91.048847 C 13.125351 92.228542 13.116815 93.608038 14.005087 94.574178 C 15.1155 96.057764 17.116836 95.995841 18.777838 95.914026 C 22.184568 95.581382 25.385572 94.24372 28.590744 93.125617 C 36.625924 90.11231 44.44145 86.554797 52.366047 83.268846 C 61.44547 79.352743 70.7286 75.943188 80.035912 72.615995 C 85.613232 70.581884 91.236559 68.615276 96.48396 65.825161 C 97.869051 64.994662 99.520576 63.709476 99.283203 61.890625 C 98.919318 59.582702 97.032345 57.948557 95.428851 56.421539 C 91.834439 53.245129 87.928329 50.446512 84.107311 47.553761 C 78.578678 43.503181 72.655126 40.016463 66.283211 37.463838 C 62.818972 36.016747 59.228102 34.817685 55.455078 34.949219 z " /><path
     id="path9"
     style="fill:#fab23d"
     d="M 59.681641 22.501953 C 58.242867 22.654826 56.701878 23.607171 56.496094 25.142578 C 56.333295 26.622809 57.621737 27.942868 59.045718 28.11934 C 61.998243 28.834516 64.955707 29.537365 67.849423 30.469611 C 71.213907 31.504456 74.573787 32.564318 77.88793 33.74997 C 80.96605 34.944777 83.865721 36.556575 86.597293 38.403929 C 89.477077 40.351238 92.324405 42.365012 94.972585 44.619689 C 97.619221 46.99877 99.914254 49.767659 102.21551 52.443072 C 103.19908 53.641703 103.98899 55.002786 105.05859 56.126953 C 105.96516 56.89952 107.45383 57.026222 108.33203 56.140625 C 109.28461 55.276116 109.17761 53.774268 108.64023 52.711161 C 107.10535 48.941472 104.68017 45.579952 101.76113 42.759287 C 98.900915 39.92276 95.870539 37.254714 92.700835 34.769635 C 87.958567 31.078102 82.567702 28.173637 76.777062 26.519757 C 72.525944 25.24601 68.21686 24.17452 63.914103 23.092823 C 62.522627 22.796016 61.119728 22.378643 59.681641 22.501953 z " /><path
     id="path10"
     style="fill:#fab23d"
     d="M 119.03516 55.710938 C 118.63609 55.736617 118.23031 55.796878 117.82031 55.890625 C 114.74033 56.600623 111.03008 60.029615 109.58008 62.849609 C 108.13008 65.659605 107.31936 70.559457 104.60938 72.189453 C 101.47938 74.089449 96.662603 75.720081 58.539062 89.910156 C 20.517665 104.06222 3.1009609 104.88436 3.0078125 104.88867 C 3.0083907 104.89659 3.0091822 104.90419 3.0097656 104.91211 C 3.0047456 104.90411 2.9948194 104.89852 2.9902344 104.89062 L 3.1621094 108.00977 C 3.1861643 108.44425 3.2421799 108.82819 3.3203125 109.17773 C 3.3205691 109.17888 3.3200554 109.18049 3.3203125 109.18164 C 3.3910577 109.48077 3.4877406 109.73986 3.6035156 109.96875 C 3.6514764 110.06359 3.7155898 110.13652 3.7714844 110.2207 C 3.855241 110.34691 3.9390647 110.47365 4.0410156 110.57812 C 4.1208606 110.66 4.2154116 110.72682 4.3066406 110.79688 C 4.408868 110.8754 4.5120932 110.95416 4.6289062 111.01953 C 4.7366611 111.07992 4.8542126 111.13288 4.9746094 111.18359 C 5.1094501 111.24035 5.2493796 111.29334 5.4003906 111.33984 C 5.5242978 111.37815 5.6501592 111.41462 5.7851562 111.44727 C 5.9609212 111.48966 6.1488412 111.52947 6.34375 111.56445 C 6.4808395 111.58917 6.6149878 111.61463 6.7617188 111.63672 C 7.4770724 111.74439 8.285779 111.82645 9.2402344 111.93164 C 9.503816 111.96184 9.7741786 111.97148 10.052734 111.95898 C 10.054072 111.95892 10.055303 111.95905 10.056641 111.95898 C 10.063647 111.95867 10.074767 111.95747 10.083984 111.95703 C 10.086659 111.95687 10.08914 111.95722 10.091797 111.95703 C 10.175507 111.95103 10.251687 111.93378 10.333984 111.92578 C 10.825159 111.89284 11.50054 111.84509 12.263672 111.7793 C 12.558975 111.75369 12.963755 111.70546 13.300781 111.67188 C 13.897641 111.61235 14.530509 111.54315 15.261719 111.45117 C 15.714728 111.39408 16.255944 111.31073 16.761719 111.23828 C 17.529359 111.12823 18.349998 110.99954 19.242188 110.84766 C 19.857796 110.74276 20.534656 110.61424 21.210938 110.48633 C 22.193735 110.3003 23.2571 110.08107 24.371094 109.83984 C 25.409493 109.61495 26.446111 109.39073 27.601562 109.11133 C 27.858876 109.04909 28.103978 108.99287 28.367188 108.92773 C 30.048854 108.51164 31.875405 108.02328 33.802734 107.47852 C 34.428417 107.30162 35.054859 107.12337 35.707031 106.93164 C 36.123493 106.80923 36.541385 106.6853 36.96875 106.55664 C 37.832819 106.29645 38.731516 106.01723 39.640625 105.73047 C 40.132928 105.57519 40.617391 105.42313 41.123047 105.25977 C 42.234008 104.90081 43.382395 104.5188 44.558594 104.11914 C 44.82885 104.02732 45.085639 103.94365 45.359375 103.84961 C 46.904389 103.31874 48.500975 102.7569 50.158203 102.15234 C 50.162473 102.15079 50.167604 102.15 50.171875 102.14844 C 51.872011 101.5275 53.63032 100.86676 55.449219 100.16406 C 55.451827 100.16306 55.454422 100.16116 55.457031 100.16016 C 57.278918 99.456247 59.162063 98.710976 61.105469 97.919922 C 80.237907 90.132151 91.483831 85.495773 99.382812 82.246094 C 99.997302 81.993224 100.25969 81.887715 100.83203 81.652344 C 101.49887 81.378065 101.78555 81.264706 102.39648 81.013672 C 105.13324 79.889633 107.87368 78.763578 109.77734 77.996094 C 112.28061 76.986178 114.25379 76.209855 116.08398 75.527344 C 116.16628 75.496664 116.27737 75.450354 116.35938 75.419922 C 117.1806 75.115986 118.01942 74.818396 118.84766 74.507812 C 118.8614 74.502623 118.87494 74.497388 118.88867 74.492188 C 119.25407 74.353796 119.61732 74.211331 119.97461 74.0625 C 119.98381 74.058699 119.99276 74.054596 120.00195 74.050781 C 120.16736 73.982112 120.33131 73.911523 120.49414 73.839844 C 120.73841 73.731481 120.96338 73.601917 121.20117 73.486328 C 121.52067 73.328692 121.85231 73.184695 122.1543 73.007812 C 122.1662 73.000813 122.17951 72.995291 122.19141 72.988281 C 122.1947 72.986335 122.19788 72.98437 122.20117 72.982422 C 122.34548 72.897102 122.47968 72.801482 122.61914 72.710938 C 122.86502 72.551667 123.1017 72.382916 123.33008 72.205078 C 123.4922 72.078932 123.65825 71.956794 123.81055 71.820312 C 123.81123 71.819697 123.81182 71.818975 123.8125 71.818359 C 124.04944 71.605135 124.27297 71.37662 124.48242 71.134766 C 124.48642 71.129866 124.49139 71.125964 124.49609 71.121094 C 126.45389 69.219533 127.27761 66.442842 126.80664 62.373047 C 126.80642 62.371188 126.80686 62.369046 126.80664 62.367188 C 126.80631 62.365288 126.80697 62.363228 126.80664 62.361328 C 126.62409 61.307882 126.32387 60.313078 125.83008 59.5 C 124.30758 56.980006 121.82858 55.531153 119.03516 55.710938 z " /><path
     d="m 33.046824,71.346052 c 0.230777,-2.215465 1.633905,-4.486317 4.744788,-6.489467 2.243159,-1.440053 4.560166,-1.956994 7.209493,-1.58775 6.037144,0.830799 11.640425,4.070917 9.904977,11.197331 -0.720026,2.963184 -4.51401,5.289423 -7.181801,6.240227 -3.249349,1.163119 -6.867942,1.024653 -9.978825,-0.480018 -1.403128,-0.67387 -3.249349,-1.947763 -4.070917,-3.295504 -0.858493,-1.412359 -0.803106,-3.978607 -0.627715,-5.584819 z"
     fill="#ed6c30"
     id="path3"
     style="stroke-width:0.999996" /><g
     id="g6"
     transform="matrix(0.92311054,0,0,0.92311054,140.85793,12.278774)"
     style="stroke-width:1.08329"><path
       d="m -108.40665,41.3 c -0.15,-2.42 0.95,-5.09 3.92,-7.79 2.14,-1.94 4.530003,-2.9 7.420003,-2.98 6.59,-0.18 13.16,2.28 12.58,10.21 -0.23,3.3 -3.88,6.46 -6.56,7.95 -3.26,1.81 -7.15,2.32 -10.750003,1.27 -1.62,-0.48 -3.82,-1.5 -4.93,-2.8 -1.17,-1.36 -1.56,-4.12 -1.68,-5.86 z"
       fill="#ed6c30"
       id="path5"
       style="stroke-width:1.08329" /></g><g
     id="g8"
     transform="matrix(0.92311054,0,0,0.92311054,130.44426,9.2806865)"
     style="stroke-width:1.08329"><path
       d="m -73.596647,58.63 c 0.25,-2.4 1.77,-4.86 5.14,-7.03 2.43,-1.56 4.94,-2.12 7.8,-1.72 6.54,0.9 12.61,4.41 10.74,12.13 -0.78,3.21 -4.89,5.73 -7.78,6.75 -3.52,1.26 -7.44,1.11 -10.81,-0.52 -1.52,-0.73 -3.52,-2.11 -4.41,-3.57 -0.93,-1.52 -0.87,-4.3 -0.68,-6.04 z"
       fill="#ed6c30"
       id="path7"
       style="stroke-width:1.08329" /></g></svg>
