<?xml version="1.0" encoding="UTF-8" standalone="no"?>
<svg
   width="128"
   height="128"
   style="enable-background:new 0 0 128 128;"
   version="1.1"
   id="svg23542"
   sodipodi:docname="emoji_u1f36f.svg"
   inkscape:version="1.2.2 (732a01da63, 2022-12-09)"
   xmlns:inkscape="http://www.inkscape.org/namespaces/inkscape"
   xmlns:sodipodi="http://sodipodi.sourceforge.net/DTD/sodipodi-0.dtd"
   xmlns="http://www.w3.org/2000/svg"
   xmlns:svg="http://www.w3.org/2000/svg">
  <defs
     id="defs23546" />
  <sodipodi:namedview
     id="namedview23544"
     pagecolor="#ffffff"
     bordercolor="#000000"
     borderopacity="0.25"
     inkscape:showpageshadow="2"
     inkscape:pageopacity="0.0"
     inkscape:pagecheckerboard="0"
     inkscape:deskcolor="#d1d1d1"
     showgrid="false"
     inkscape:zoom="2.9996795"
     inkscape:cx="40.837695"
     inkscape:cy="43.671332"
     inkscape:window-width="1366"
     inkscape:window-height="697"
     inkscape:window-x="-8"
     inkscape:window-y="-8"
     inkscape:window-maximized="1"
     inkscape:current-layer="svg23542" />
  <path
     d="m 18.01854,52.266966 c 0,0 -8.2232595,22.681622 -3.695262,39.367552 4.527997,16.685932 16.675855,32.809762 47.798996,32.809762 31.250455,0 48.975626,-11.0614 52.035536,-36.203157 1.85284,-15.28069 -1.40524,-28.073583 -1.40524,-28.073583 z"
     style="fill:#855c52;stroke-width:1"
     id="path23526"
     sodipodi:nodetypes="cssccc" />
  <path
     id="path23530"
     style="fill:#fcc21b;stroke-width:1"
     d="m 65.429469,5.1773397 c -0.641632,0.00758 -1.271386,0.028463 -1.890733,0.060992 C 51.401634,5.862882 35.067889,8.2457839 26.657273,18.717418 c -3.039481,3.778531 -5.317387,8.536434 -3.714374,13.407929 0.249821,0.739053 0.571937,1.458101 0.977895,2.134698 0.472998,0.832888 1.06948,1.612786 1.726055,2.3441 -0.0279,0.04768 -0.04664,0.07448 -0.07523,0.124015 -2.481924,3.824003 -6.002114,11.844116 -7.365717,15.070961 -0.06245,0.145729 -0.114176,0.321872 -0.18704,0.467601 0.333094,0.75987 0.769549,1.467452 1.331644,2.092002 5.225408,5.704231 14.594257,0.385066 18.539335,7.723537 0.218593,0.426777 0.426614,0.894785 0.61398,1.404834 1.603013,4.330218 5.34,7.22536 9.972084,7.402317 5.683412,0.218592 16.248016,-6.672447 20.328414,-0.166711 3.018662,4.788223 1.448261,11.563801 2.197722,16.862073 0.301866,2.1547 1.332459,5.673579 3.466341,6.828998 4.444719,2.40452 8.48276,1.332534 10.960144,-2.956047 5.214998,-9.066395 -5.443256,-31.758923 12.200301,-31.207236 4.788233,0.145727 10.647873,2.071589 15.123823,-0.09352 -0.80151,-2.862524 -1.73842,-5.474179 -2.68565,-7.764199 -1.77977,-4.335792 -3.93854,-8.429206 -7.43281,-15.469437 0.0687,-0.08131 0.1414,-0.157729 0.2094,-0.2399 0.95765,-1.165827 1.83226,-2.403792 2.59213,-3.67371 0.052,-0.08327 0.0925,-0.176957 0.13419,-0.26023 2.05061,-3.580758 2.29994,-7.661574 0.28055,-11.346423 C 103.53962,17.166534 99.980487,13.37799 95.494131,11.410655 86.994388,7.7023849 75.053931,5.0637434 65.429469,5.1773397 Z"
     sodipodi:nodetypes="scccccccccccccccccccccccccs" />
  <path
     d="m 45.217751,34.030066 c 0.12491,0.04164 0.24982,0.07287 0.364321,0.114502 2.18593,0.791098 4.527997,1.457286 6.93252,1.988155 3.403805,0.749461 6.974157,1.186647 10.534099,1.321967 0.218593,0.01041 0.416368,0.02082 0.64537,0.03123 0.218593,0 0.426777,0.02082 0.634961,0.02082 0.104092,0 0.218593,0.01041 0.333094,0.01041 4.10122,0.05205 8.129576,-0.353913 11.845657,-1.259512 0.270639,-0.06245 0.572505,-0.104092 0.832735,-0.176956 1.80079,-0.478823 3.684853,-1.072147 5.423187,-1.884064 2.623116,-1.228284 4.923547,-2.987437 6.141422,-5.756281 0.24982,-0.530869 0.416367,-1.051328 0.551687,-1.561378 2.362886,-8.452262 -8.285715,-12.491027 -16.581838,-14.062815 -2.154702,-0.405958 -4.153267,-0.655779 -5.725054,-0.77028 -4.871501,-0.353912 -10.336325,0.166547 -15.103733,1.082556 -5.412779,1.040919 -11.314789,3.684853 -13.61522,9.076813 -0.968054,2.290021 -0.874371,4.340632 -0.104091,6.099784 1.15542,2.623116 3.851399,4.590453 6.890883,5.725054 z m 5.412778,-5.215003 c -0.791098,-0.270639 -1.738335,-0.687007 -2.623116,-1.238694 0.03123,-0.426776 0.26023,-0.822326 0.624552,-1.186647 1.165829,-1.15542 3.664034,-1.977746 4.99641,-2.331659 5.069275,-1.353194 10.471645,-1.727925 15.749103,-1.092964 2.31084,0.281048 4.652908,0.541277 6.890883,1.15542 1.259512,0.343503 3.070711,0.947236 4.069993,1.894472 0.468414,0.447595 0.77028,0.957645 0.718234,1.561378 -0.02082,0.176956 -0.04164,0.353913 -0.06245,0.541278 -2.997846,2.123475 -9.003948,2.446159 -12.105887,2.779254 -6.078966,0.666188 -12.480617,-0.13532 -18.257717,-2.081838 z"
     style="fill:#855c52;stroke-width:1"
     id="path23532" />
  <path
     d="m 79.255799,92.269479 c -3.965901,0.759871 -5.631372,-3.476669 -4.954774,-6.724336 0.208184,-0.957646 0.843144,-1.582197 1.759153,-0.916009 1.061737,0.77028 1.446877,2.008974 2.290021,2.95621 0.739053,0.822326 3.445442,1.894472 2.768845,3.34135 -0.353913,0.749461 -1.072147,1.197056 -1.863245,1.342785 z"
     style="fill:#ffffff;stroke-width:1"
     id="path23534" />
  <path
     d="m 30.009926,30.313986 c -1.145011,-0.843144 -2.029792,-2.071429 -2.196339,-3.289304 -0.270639,-1.988155 0.572505,-3.872218 1.769562,-5.423187 1.009691,-1.332376 1.967336,-2.498206 3.487078,-3.226849 0.666188,-0.312275 1.301149,-0.582914 2.029792,-0.229002 0.863963,0.426777 -0.343503,2.237976 -0.64537,2.706389 -1.384422,2.196339 -2.206748,4.11163 -1.530151,6.734745 0.187366,0.739053 1.020101,2.31084 0.614143,3.060302 -0.707825,1.290739 -2.685571,0.270639 -3.528715,-0.333094 z"
     style="fill:#ffffff;stroke-width:1"
     id="path23536" />
  <path
     d="m 25.388246,103.64672 c 0.405958,0.2186 5.287868,1.05133 5.027638,-0.40596 -0.145729,-0.82232 -1.249103,-1.29074 -1.904882,-1.72792 -0.499641,-0.32269 -6.037329,-4.090813 -3.893036,-5.381552 0.478822,-0.291457 3.997128,-0.676597 4.10122,-1.655061 0.145729,-1.41565 -4.600861,-3.133166 -5.620962,-5.600144 -0.614142,-1.457286 0.64537,-1.759153 1.41565,-1.904881 2.102656,-0.416368 4.48636,-0.863963 4.548815,-1.759153 0.09368,-1.394832 -2.269203,-2.029792 -4.684135,-3.487079 -0.947236,-0.572505 -4.475951,-3.549533 -1.582196,-4.122038 1.197056,-0.239412 5.38155,-1.082556 5.600143,-2.331659 0.176956,-1.072146 -4.059583,-2.872936 -5.412778,-4.423905 -0.478823,-0.562096 -1.41565,-1.946518 -0.530869,-2.529433 1.15542,-0.749462 4.507179,-0.364322 6.870065,-0.780689 0.624551,-0.114501 3.029074,-0.780689 0.89519,-2.092247 -2.061019,-1.269921 -6.245513,-2.997847 -7.588298,-3.653626 -0.270639,-0.135319 -0.530869,-0.301866 -0.832736,-0.385139 -0.687006,-0.187366 -1.14501,0.156137 -1.374013,0.749461 -2.113065,5.423188 -6.089375,23.472721 2.414932,38.899135 0.624552,1.10338 1.457287,2.00898 2.550252,2.59189 z"
     style="fill:#b89278;stroke-width:1"
     id="path23538" />
  <path
     id="path23524"
     style="fill:#f79329;stroke-width:1"
     d="m 25.646849,36.604145 c -0.0279,0.04768 -0.04664,0.07448 -0.07523,0.124015 -0.971654,1.497068 -2.093663,3.674269 -3.19188,5.918194 0.884732,0.587027 2.221513,1.139396 3.195946,1.502421 1.64465,0.61414 3.424382,1.394749 5.21476,1.478022 0.895188,0.04164 3.10202,-0.323012 3.466341,-1.374338 0.02082,-0.05205 0.05286,-0.09434 0.05286,-0.146379 0.145729,-0.968052 -0.802404,-1.842428 -1.957822,-2.602297 -1.2491,-0.811915 -2.737129,-1.479 -3.403317,-1.957823 -0.187364,-0.124908 -0.353668,-0.269257 -0.530624,-0.404575 -0.968053,-0.739052 -1.915944,-1.582362 -2.748677,-2.508778 -0.0081,-0.009 -0.01429,-0.01946 -0.02236,-0.02846 z m 76.987341,0.319188 c -0.68841,0.814761 -1.40872,1.592256 -2.17536,2.311572 -0.0833,0.07286 -0.14622,0.15687 -0.2399,0.229734 -0.572504,0.530867 -1.842023,1.330508 -2.705983,2.246515 -0.530867,0.562094 -0.895272,1.16705 -0.864044,1.770781 0.01041,0.166547 0.0102,0.333582 0.09352,0.500129 1.183483,2.603663 6.419987,-0.366754 8.540827,-1.742319 -0.84199,-1.684556 -1.5873,-3.177169 -2.64906,-5.316412 z"
     sodipodi:nodetypes="ccccsccccccccccccccc" />
</svg>
