<?xml version="1.0" encoding="UTF-8" standalone="no"?>
<svg
   width="128"
   height="128"
   style="enable-background:new 0 0 128 128;"
   version="1.1"
   id="svg59248"
   sodipodi:docname="emoji_u1f985.svg"
   inkscape:version="1.3 (0e150ed6c4, 2023-07-21)"
   xml:space="preserve"
   xmlns:inkscape="http://www.inkscape.org/namespaces/inkscape"
   xmlns:sodipodi="http://sodipodi.sourceforge.net/DTD/sodipodi-0.dtd"
   xmlns:xlink="http://www.w3.org/1999/xlink"
   xmlns="http://www.w3.org/2000/svg"
   xmlns:svg="http://www.w3.org/2000/svg"><defs
     id="defs59252"><inkscape:path-effect
       effect="skeletal"
       id="path-effect7"
       is_visible="true"
       lpeversion="1"
       pattern="M 0,18.867925 C 0,8.4528302 8.4528302,0 18.867925,0 c 10.415094,0 18.867924,8.4528302 18.867924,18.867925 0,10.415094 -8.45283,18.867924 -18.867924,18.867924 C 8.4528302,37.735849 0,29.283019 0,18.867925 Z"
       copytype="single_stretched"
       prop_scale="0.11129013"
       scale_y_rel="false"
       spacing="0"
       normal_offset="0"
       tang_offset="0"
       prop_units="false"
       vertical_pattern="false"
       hide_knot="false"
       fuse_tolerance="0" /><inkscape:path-effect
       effect="skeletal"
       id="path-effect6"
       is_visible="true"
       lpeversion="1"
       pattern="M 0,18.867925 C 0,8.4528302 8.4528302,0 18.867925,0 c 10.415094,0 18.867924,8.4528302 18.867924,18.867925 0,10.415094 -8.45283,18.867924 -18.867924,18.867924 C 8.4528302,37.735849 0,29.283019 0,18.867925 Z"
       copytype="single_stretched"
       prop_scale="0.15376452"
       scale_y_rel="false"
       spacing="0"
       normal_offset="0"
       tang_offset="0"
       prop_units="false"
       vertical_pattern="false"
       hide_knot="false"
       fuse_tolerance="0" /><linearGradient
       id="SVGID_4_"
       gradientUnits="userSpaceOnUse"
       x1="64.2407"
       x2="64.2407"
       y1="55.5376"
       y2="125.5886"><stop
         offset="1.585705e-03"
         style="stop-color:#8D6E63"
         id="stop58923" /><stop
         offset="1"
         style="stop-color:#4E342E"
         id="stop58925" /></linearGradient><linearGradient
       id="SVGID_5_"
       gradientUnits="userSpaceOnUse"
       x1="61.5113"
       x2="61.5113"
       y1="7.2491"
       y2="73.2999"><stop
         offset="2.784654e-03"
         style="stop-color:#FAFAFA"
         id="stop58930" /><stop
         offset="0.2324"
         style="stop-color:#F4F4F4"
         id="stop58932" /><stop
         offset="0.5526"
         style="stop-color:#E1E1E1"
         id="stop58934" /><stop
         offset="0.9247"
         style="stop-color:#C4C4C4"
         id="stop58936" /><stop
         offset="1"
         style="stop-color:#BDBDBD"
         id="stop58938" /></linearGradient><linearGradient
       id="SVGID_6_"
       gradientUnits="userSpaceOnUse"
       x1="18.2812"
       x2="54.6712"
       y1="32.112"
       y2="32.112"><stop
         offset="6.461875e-03"
         style="stop-color:#FFD54F"
         id="stop58943" /><stop
         offset="1"
         style="stop-color:#FF8F00"
         id="stop58945" /></linearGradient></defs><sodipodi:namedview
     id="namedview59250"
     pagecolor="#ffffff"
     bordercolor="#000000"
     borderopacity="0.25"
     inkscape:showpageshadow="2"
     inkscape:pageopacity="0.0"
     inkscape:pagecheckerboard="0"
     inkscape:deskcolor="#d1d1d1"
     showgrid="false"
     inkscape:zoom="2.9996795"
     inkscape:cx="82.508815"
     inkscape:cy="77.174912"
     inkscape:window-width="1366"
     inkscape:window-height="697"
     inkscape:window-x="-8"
     inkscape:window-y="-8"
     inkscape:window-maximized="1"
     inkscape:current-layer="svg59248" /><path
     style="fill:#855c52;fill-opacity:1;stroke-width:35.9055;stroke-linecap:round"
     d="M 45.372784,46.524481 C 43.205219,51.176709 37.495769,60.100916 28.556723,66.555876 14.985939,76.355452 3.0094455,78.371181 2.9140746,82.981721 2.818703,87.592262 20.641122,111.28362 51.069564,92.498226 65.877775,83.356182 65.523081,59.701605 63.260621,56.876823 60.998158,54.052037 66.230224,51.152323 58.187237,48.91416 50.144249,46.675995 47.287609,42.414703 45.372784,46.524481 Z"
     id="path1"
     sodipodi:nodetypes="sssssss" /><path
     style="fill:#855c52;fill-opacity:1;stroke-width:35.9055;stroke-linecap:round"
     d="m 83.592051,46.524481 c 2.167565,4.652228 7.877011,13.576435 16.816059,20.031395 13.57078,9.799576 25.54728,11.815305 25.64265,16.425845 0.0954,4.610541 -17.72705,28.301899 -48.155489,9.516505 C 63.08706,83.356182 63.441754,59.701605 65.704214,56.876823 c 2.262463,-2.824786 -2.969603,-5.7245 5.073384,-7.962663 8.042988,-2.238165 10.899628,-6.499457 12.814453,-2.389679 z"
     id="path2"
     sodipodi:nodetypes="sssssss" /><path
     id="path58928"
     style="fill:#e0e0e0;fill-opacity:1"
     d="m 51.333162,5.2843272 c -14.152843,0 -21.755221,8.3587048 -21.755221,16.1828218 0,6.82183 1.215075,9.973573 6.372109,18.933328 5.016271,8.715197 -0.464867,19.709198 -0.464867,39.286432 0,19.577235 9.29536,38.346031 30.496467,38.346031 21.201107,0 31.255244,-21.50584 31.255244,-51.311778 0,-29.805939 -18.779071,-61.4368348 -45.903732,-61.4368348 z"
     sodipodi:nodetypes="ssszzzs" /><g
     id="g58956"
     transform="matrix(1.6267111,0,0,1.7812368,-26.082431,-16.52635)"
     style="fill:#2f2f2f;fill-opacity:1;stroke-width:0.587467"><path
       id="ellipse58954"
       transform="matrix(0.5421,-0.8403,0.8403,0.5421,3.5005,48.7574)"
       d="m 47.415091,18.916886 c 0,1.610828 -1.305834,2.916662 -2.916661,2.916662 -1.610828,0 -2.916662,-1.305834 -2.916662,-2.916662 0,-1.610827 1.305834,-2.916661 2.916662,-2.916661 1.610827,0 2.916661,1.305834 2.916661,2.916661 z"
       sodipodi:nodetypes="sssss"
       style="stroke-width:0.587467" /></g><g
     id="Layer_2"
     style="display:none;"><g
       style="display:inline;"
       id="g59245"><g
         style="opacity:0.6;"
         id="g59027"><circle
           cx="64"
           cy="64"
           r="28"
           style="opacity:0.61;fill:none;stroke:#000000;stroke-width:0.2625;stroke-miterlimit:10;"
           id="circle58999" /><line
           style="opacity:0.61;fill:none;stroke:#000000;stroke-width:0.25;stroke-miterlimit:10;"
           x1="84"
           x2="84"
           y1="0"
           y2="128"
           id="line59001" /><line
           style="opacity:0.61;fill:none;stroke:#000000;stroke-width:0.25;stroke-miterlimit:10;"
           x1="44"
           x2="44"
           y1="0"
           y2="128"
           id="line59003" /><line
           style="opacity:0.61;fill:none;stroke:#000000;stroke-width:0.25;stroke-miterlimit:10;"
           x1="64"
           x2="64"
           y1="0"
           y2="128"
           id="line59005" /><line
           style="opacity:0.61;fill:none;stroke:#000000;stroke-width:0.25;stroke-miterlimit:10;"
           x1="128"
           x2="0"
           y1="64"
           y2="64"
           id="line59007" /><line
           style="opacity:0.61;fill:none;stroke:#000000;stroke-width:0.25;stroke-miterlimit:10;"
           x1="128"
           x2="0"
           y1="44"
           y2="44"
           id="line59009" /><line
           style="opacity:0.61;fill:none;stroke:#000000;stroke-width:0.25;stroke-miterlimit:10;"
           x1="128"
           x2="0"
           y1="83.75"
           y2="83.75"
           id="line59011" /><line
           style="opacity:0.61;fill:none;stroke:#000000;stroke-width:0.25;stroke-miterlimit:10;"
           x1="128"
           x2="0"
           y1="128"
           y2="0"
           id="line59013" /><line
           style="opacity:0.61;fill:none;stroke:#000000;stroke-width:0.25;stroke-miterlimit:10;"
           x1="0"
           x2="128"
           y1="128"
           y2="0"
           id="line59015" /><g
           style="opacity:0.61;"
           id="g59019"><path
             d="M64,4.26c32.94,0,59.74,26.8,59.74,59.74S96.94,123.74,64,123.74S4.26,96.94,4.26,64S31.06,4.26,64,4.26 M64,4 C30.86,4,4,30.86,4,64s26.86,60,60,60s60-26.86,60-60S97.14,4,64,4L64,4z"
             id="path59017" /></g><path
           d="M107.97,115.97H20.03 c-4.42,0-8.03-3.61-8.03-8.03V20.03c0-4.42,3.61-8.03,8.03-8.03h87.94c4.42,0,8.03,3.61,8.03,8.03v87.91 C116,112.36,112.39,115.97,107.97,115.97z"
           style="opacity:0.61;fill:none;stroke:#000000;stroke-width:0.2578;stroke-miterlimit:10;"
           id="path59021" /><path
           d="M100,124H28c-4.4,0-8-3.6-8-8 V12c0-4.4,3.6-8,8-8h72c4.4,0,8,3.6,8,8v104C108,120.4,104.4,124,100,124z"
           style="opacity:0.61;fill:none;stroke:#000000;stroke-width:0.2628;stroke-miterlimit:10;"
           id="path59023" /><path
           d="M113.77,108H14.23 C8.6,108,4,103.4,4,97.77V30.28c0-5.63,4.6-10.23,10.23-10.23h99.54c5.63,0,10.23,4.6,10.23,10.23v67.48 C124,103.4,119.4,108,113.77,108z"
           style="opacity:0.61;fill:none;stroke:#000000;stroke-width:0.2627;stroke-miterlimit:10;"
           id="path59025" /></g><g
         id="g59243"><g
           style="opacity:0.2;"
           id="g59231"><defs
             id="defs59030"><rect
               id="SVGID_2_"
               height="128"
               style="opacity:0.2;"
               width="128"
               x="0"
               y="0" /></defs><clipPath
             id="SVGID_7_"><use
               style="overflow:visible;"
               xlink:href="#SVGID_2_"
               id="use59032" /></clipPath><g
             style="clip-path:url(#SVGID_7_);"
             clip-path="url(#SVGID_7_)"
             id="g59229"><g
               id="g59129"><line
                 style="fill:none;stroke:#000000;stroke-width:0.25;stroke-miterlimit:10;"
                 x1="-28"
                 x2="-28"
                 y1="160"
                 y2="-32"
                 id="line59035" /><line
                 style="fill:none;stroke:#000000;stroke-width:0.25;stroke-miterlimit:10;"
                 x1="-24"
                 x2="-24"
                 y1="160"
                 y2="-32"
                 id="line59037" /><line
                 style="fill:none;stroke:#000000;stroke-width:0.25;stroke-miterlimit:10;"
                 x1="-20"
                 x2="-20"
                 y1="160"
                 y2="-32"
                 id="line59039" /><line
                 style="fill:none;stroke:#000000;stroke-width:0.25;stroke-miterlimit:10;"
                 x1="-16"
                 x2="-16"
                 y1="160"
                 y2="-32"
                 id="line59041" /><line
                 style="fill:none;stroke:#000000;stroke-width:0.25;stroke-miterlimit:10;"
                 x1="-12"
                 x2="-12"
                 y1="160"
                 y2="-32"
                 id="line59043" /><line
                 style="fill:none;stroke:#000000;stroke-width:0.25;stroke-miterlimit:10;"
                 x1="-8"
                 x2="-8"
                 y1="160"
                 y2="-32"
                 id="line59045" /><line
                 style="fill:none;stroke:#000000;stroke-width:0.25;stroke-miterlimit:10;"
                 x1="-4"
                 x2="-4"
                 y1="160"
                 y2="-32"
                 id="line59047" /><line
                 style="fill:none;stroke:#000000;stroke-width:0.25;stroke-miterlimit:10;"
                 x1="0"
                 x2="0"
                 y1="160"
                 y2="-32"
                 id="line59049" /><line
                 style="fill:none;stroke:#000000;stroke-width:0.25;stroke-miterlimit:10;"
                 x1="4"
                 x2="4"
                 y1="160"
                 y2="-32"
                 id="line59051" /><line
                 style="fill:none;stroke:#000000;stroke-width:0.25;stroke-miterlimit:10;"
                 x1="8"
                 x2="8"
                 y1="160"
                 y2="-32"
                 id="line59053" /><line
                 style="fill:none;stroke:#000000;stroke-width:0.25;stroke-miterlimit:10;"
                 x1="12"
                 x2="12"
                 y1="160"
                 y2="-32"
                 id="line59055" /><line
                 style="fill:none;stroke:#000000;stroke-width:0.25;stroke-miterlimit:10;"
                 x1="16"
                 x2="16"
                 y1="160"
                 y2="-32"
                 id="line59057" /><line
                 style="fill:none;stroke:#000000;stroke-width:0.25;stroke-miterlimit:10;"
                 x1="20"
                 x2="20"
                 y1="160"
                 y2="-32"
                 id="line59059" /><line
                 style="fill:none;stroke:#000000;stroke-width:0.25;stroke-miterlimit:10;"
                 x1="24"
                 x2="24"
                 y1="160"
                 y2="-32"
                 id="line59061" /><line
                 style="fill:none;stroke:#000000;stroke-width:0.25;stroke-miterlimit:10;"
                 x1="28"
                 x2="28"
                 y1="160"
                 y2="-32"
                 id="line59063" /><line
                 style="fill:none;stroke:#000000;stroke-width:0.25;stroke-miterlimit:10;"
                 x1="32"
                 x2="32"
                 y1="160"
                 y2="-32"
                 id="line59065" /><line
                 style="fill:none;stroke:#000000;stroke-width:0.25;stroke-miterlimit:10;"
                 x1="36"
                 x2="36"
                 y1="160"
                 y2="-32"
                 id="line59067" /><line
                 style="fill:none;stroke:#000000;stroke-width:0.25;stroke-miterlimit:10;"
                 x1="40"
                 x2="40"
                 y1="160"
                 y2="-32"
                 id="line59069" /><line
                 style="fill:none;stroke:#000000;stroke-width:0.25;stroke-miterlimit:10;"
                 x1="44"
                 x2="44"
                 y1="160"
                 y2="-32"
                 id="line59071" /><line
                 style="fill:none;stroke:#000000;stroke-width:0.25;stroke-miterlimit:10;"
                 x1="48"
                 x2="48"
                 y1="160"
                 y2="-32"
                 id="line59073" /><line
                 style="fill:none;stroke:#000000;stroke-width:0.25;stroke-miterlimit:10;"
                 x1="52"
                 x2="52"
                 y1="160"
                 y2="-32"
                 id="line59075" /><line
                 style="fill:none;stroke:#000000;stroke-width:0.25;stroke-miterlimit:10;"
                 x1="56"
                 x2="56"
                 y1="160"
                 y2="-32"
                 id="line59077" /><line
                 style="fill:none;stroke:#000000;stroke-width:0.25;stroke-miterlimit:10;"
                 x1="60"
                 x2="60"
                 y1="160"
                 y2="-32"
                 id="line59079" /><line
                 style="fill:none;stroke:#000000;stroke-width:0.25;stroke-miterlimit:10;"
                 x1="64"
                 x2="64"
                 y1="160"
                 y2="-32"
                 id="line59081" /><line
                 style="fill:none;stroke:#000000;stroke-width:0.25;stroke-miterlimit:10;"
                 x1="68"
                 x2="68"
                 y1="160"
                 y2="-32"
                 id="line59083" /><line
                 style="fill:none;stroke:#000000;stroke-width:0.25;stroke-miterlimit:10;"
                 x1="72"
                 x2="72"
                 y1="160"
                 y2="-32"
                 id="line59085" /><line
                 style="fill:none;stroke:#000000;stroke-width:0.25;stroke-miterlimit:10;"
                 x1="76"
                 x2="76"
                 y1="160"
                 y2="-32"
                 id="line59087" /><line
                 style="fill:none;stroke:#000000;stroke-width:0.25;stroke-miterlimit:10;"
                 x1="80"
                 x2="80"
                 y1="160"
                 y2="-32"
                 id="line59089" /><line
                 style="fill:none;stroke:#000000;stroke-width:0.25;stroke-miterlimit:10;"
                 x1="84"
                 x2="84"
                 y1="160"
                 y2="-32"
                 id="line59091" /><line
                 style="fill:none;stroke:#000000;stroke-width:0.25;stroke-miterlimit:10;"
                 x1="88"
                 x2="88"
                 y1="160"
                 y2="-32"
                 id="line59093" /><line
                 style="fill:none;stroke:#000000;stroke-width:0.25;stroke-miterlimit:10;"
                 x1="92"
                 x2="92"
                 y1="160"
                 y2="-32"
                 id="line59095" /><line
                 style="fill:none;stroke:#000000;stroke-width:0.25;stroke-miterlimit:10;"
                 x1="96"
                 x2="96"
                 y1="160"
                 y2="-32"
                 id="line59097" /><line
                 style="fill:none;stroke:#000000;stroke-width:0.25;stroke-miterlimit:10;"
                 x1="100"
                 x2="100"
                 y1="160"
                 y2="-32"
                 id="line59099" /><line
                 style="fill:none;stroke:#000000;stroke-width:0.25;stroke-miterlimit:10;"
                 x1="104"
                 x2="104"
                 y1="160"
                 y2="-32"
                 id="line59101" /><line
                 style="fill:none;stroke:#000000;stroke-width:0.25;stroke-miterlimit:10;"
                 x1="108"
                 x2="108"
                 y1="160"
                 y2="-32"
                 id="line59103" /><line
                 style="fill:none;stroke:#000000;stroke-width:0.25;stroke-miterlimit:10;"
                 x1="112"
                 x2="112"
                 y1="160"
                 y2="-32"
                 id="line59105" /><line
                 style="fill:none;stroke:#000000;stroke-width:0.25;stroke-miterlimit:10;"
                 x1="116"
                 x2="116"
                 y1="160"
                 y2="-32"
                 id="line59107" /><line
                 style="fill:none;stroke:#000000;stroke-width:0.25;stroke-miterlimit:10;"
                 x1="120"
                 x2="120"
                 y1="160"
                 y2="-32"
                 id="line59109" /><line
                 style="fill:none;stroke:#000000;stroke-width:0.25;stroke-miterlimit:10;"
                 x1="124"
                 x2="124"
                 y1="160"
                 y2="-32"
                 id="line59111" /><line
                 style="fill:none;stroke:#000000;stroke-width:0.25;stroke-miterlimit:10;"
                 x1="128"
                 x2="128"
                 y1="160"
                 y2="-32"
                 id="line59113" /><line
                 style="fill:none;stroke:#000000;stroke-width:0.25;stroke-miterlimit:10;"
                 x1="132"
                 x2="132"
                 y1="160"
                 y2="-32"
                 id="line59115" /><line
                 style="fill:none;stroke:#000000;stroke-width:0.25;stroke-miterlimit:10;"
                 x1="136"
                 x2="136"
                 y1="160"
                 y2="-32"
                 id="line59117" /><line
                 style="fill:none;stroke:#000000;stroke-width:0.25;stroke-miterlimit:10;"
                 x1="137"
                 x2="137"
                 y1="166.05"
                 y2="-25.95"
                 id="line59119" /><line
                 style="fill:none;stroke:#000000;stroke-width:0.25;stroke-miterlimit:10;"
                 x1="144"
                 x2="144"
                 y1="160"
                 y2="-32"
                 id="line59121" /><line
                 style="fill:none;stroke:#000000;stroke-width:0.25;stroke-miterlimit:10;"
                 x1="148"
                 x2="148"
                 y1="160"
                 y2="-32"
                 id="line59123" /><line
                 style="fill:none;stroke:#000000;stroke-width:0.25;stroke-miterlimit:10;"
                 x1="152"
                 x2="152"
                 y1="160"
                 y2="-32"
                 id="line59125" /><line
                 style="fill:none;stroke:#000000;stroke-width:0.25;stroke-miterlimit:10;"
                 x1="156"
                 x2="156"
                 y1="160"
                 y2="-32"
                 id="line59127" /></g><g
               id="g59225"><line
                 style="fill:none;stroke:#000000;stroke-width:0.25;stroke-miterlimit:10;"
                 x1="-32"
                 x2="160"
                 y1="-28"
                 y2="-28"
                 id="line59131" /><line
                 style="fill:none;stroke:#000000;stroke-width:0.25;stroke-miterlimit:10;"
                 x1="-32"
                 x2="160"
                 y1="-24"
                 y2="-24"
                 id="line59133" /><line
                 style="fill:none;stroke:#000000;stroke-width:0.25;stroke-miterlimit:10;"
                 x1="-32"
                 x2="160"
                 y1="-20"
                 y2="-20"
                 id="line59135" /><line
                 style="fill:none;stroke:#000000;stroke-width:0.25;stroke-miterlimit:10;"
                 x1="-32"
                 x2="160"
                 y1="-16"
                 y2="-16"
                 id="line59137" /><line
                 style="fill:none;stroke:#000000;stroke-width:0.25;stroke-miterlimit:10;"
                 x1="-32"
                 x2="160"
                 y1="-12"
                 y2="-12"
                 id="line59139" /><line
                 style="fill:none;stroke:#000000;stroke-width:0.25;stroke-miterlimit:10;"
                 x1="-32"
                 x2="160"
                 y1="-8"
                 y2="-8"
                 id="line59141" /><line
                 style="fill:none;stroke:#000000;stroke-width:0.25;stroke-miterlimit:10;"
                 x1="-32"
                 x2="160"
                 y1="-4"
                 y2="-4"
                 id="line59143" /><line
                 style="fill:none;stroke:#000000;stroke-width:0.25;stroke-miterlimit:10;"
                 x1="-32"
                 x2="160"
                 y1="0"
                 y2="0"
                 id="line59145" /><line
                 style="fill:none;stroke:#000000;stroke-width:0.25;stroke-miterlimit:10;"
                 x1="-32"
                 x2="160"
                 y1="4"
                 y2="4"
                 id="line59147" /><line
                 style="fill:none;stroke:#000000;stroke-width:0.25;stroke-miterlimit:10;"
                 x1="-32"
                 x2="160"
                 y1="8"
                 y2="8"
                 id="line59149" /><line
                 style="fill:none;stroke:#000000;stroke-width:0.25;stroke-miterlimit:10;"
                 x1="-32"
                 x2="160"
                 y1="12"
                 y2="12"
                 id="line59151" /><line
                 style="fill:none;stroke:#000000;stroke-width:0.25;stroke-miterlimit:10;"
                 x1="-32"
                 x2="160"
                 y1="16"
                 y2="16"
                 id="line59153" /><line
                 style="fill:none;stroke:#000000;stroke-width:0.25;stroke-miterlimit:10;"
                 x1="-32"
                 x2="160"
                 y1="20"
                 y2="20"
                 id="line59155" /><line
                 style="fill:none;stroke:#000000;stroke-width:0.25;stroke-miterlimit:10;"
                 x1="-32"
                 x2="160"
                 y1="24"
                 y2="24"
                 id="line59157" /><line
                 style="fill:none;stroke:#000000;stroke-width:0.25;stroke-miterlimit:10;"
                 x1="-32"
                 x2="160"
                 y1="28"
                 y2="28"
                 id="line59159" /><line
                 style="fill:none;stroke:#000000;stroke-width:0.25;stroke-miterlimit:10;"
                 x1="-32"
                 x2="160"
                 y1="32"
                 y2="32"
                 id="line59161" /><line
                 style="fill:none;stroke:#000000;stroke-width:0.25;stroke-miterlimit:10;"
                 x1="-32"
                 x2="160"
                 y1="36"
                 y2="36"
                 id="line59163" /><line
                 style="fill:none;stroke:#000000;stroke-width:0.25;stroke-miterlimit:10;"
                 x1="-32"
                 x2="160"
                 y1="40"
                 y2="40"
                 id="line59165" /><line
                 style="fill:none;stroke:#000000;stroke-width:0.25;stroke-miterlimit:10;"
                 x1="-32"
                 x2="160"
                 y1="44"
                 y2="44"
                 id="line59167" /><line
                 style="fill:none;stroke:#000000;stroke-width:0.25;stroke-miterlimit:10;"
                 x1="-32"
                 x2="160"
                 y1="48"
                 y2="48"
                 id="line59169" /><line
                 style="fill:none;stroke:#000000;stroke-width:0.25;stroke-miterlimit:10;"
                 x1="-32"
                 x2="160"
                 y1="52"
                 y2="52"
                 id="line59171" /><line
                 style="fill:none;stroke:#000000;stroke-width:0.25;stroke-miterlimit:10;"
                 x1="-32"
                 x2="160"
                 y1="56"
                 y2="56"
                 id="line59173" /><line
                 style="fill:none;stroke:#000000;stroke-width:0.25;stroke-miterlimit:10;"
                 x1="-32"
                 x2="160"
                 y1="60"
                 y2="60"
                 id="line59175" /><line
                 style="fill:none;stroke:#000000;stroke-width:0.25;stroke-miterlimit:10;"
                 x1="-32"
                 x2="160"
                 y1="64"
                 y2="64"
                 id="line59177" /><line
                 style="fill:none;stroke:#000000;stroke-width:0.25;stroke-miterlimit:10;"
                 x1="-32"
                 x2="160"
                 y1="68"
                 y2="68"
                 id="line59179" /><line
                 style="fill:none;stroke:#000000;stroke-width:0.25;stroke-miterlimit:10;"
                 x1="-32"
                 x2="160"
                 y1="72"
                 y2="72"
                 id="line59181" /><line
                 style="fill:none;stroke:#000000;stroke-width:0.25;stroke-miterlimit:10;"
                 x1="-32"
                 x2="160"
                 y1="76"
                 y2="76"
                 id="line59183" /><line
                 style="fill:none;stroke:#000000;stroke-width:0.25;stroke-miterlimit:10;"
                 x1="-32"
                 x2="160"
                 y1="80"
                 y2="80"
                 id="line59185" /><line
                 style="fill:none;stroke:#000000;stroke-width:0.25;stroke-miterlimit:10;"
                 x1="-32"
                 x2="160"
                 y1="84"
                 y2="84"
                 id="line59187" /><line
                 style="fill:none;stroke:#000000;stroke-width:0.25;stroke-miterlimit:10;"
                 x1="-32"
                 x2="160"
                 y1="88"
                 y2="88"
                 id="line59189" /><line
                 style="fill:none;stroke:#000000;stroke-width:0.25;stroke-miterlimit:10;"
                 x1="-32"
                 x2="160"
                 y1="92"
                 y2="92"
                 id="line59191" /><line
                 style="fill:none;stroke:#000000;stroke-width:0.25;stroke-miterlimit:10;"
                 x1="-32"
                 x2="160"
                 y1="96"
                 y2="96"
                 id="line59193" /><line
                 style="fill:none;stroke:#000000;stroke-width:0.25;stroke-miterlimit:10;"
                 x1="-32"
                 x2="160"
                 y1="100"
                 y2="100"
                 id="line59195" /><line
                 style="fill:none;stroke:#000000;stroke-width:0.25;stroke-miterlimit:10;"
                 x1="-32"
                 x2="160"
                 y1="104"
                 y2="104"
                 id="line59197" /><line
                 style="fill:none;stroke:#000000;stroke-width:0.25;stroke-miterlimit:10;"
                 x1="-32"
                 x2="160"
                 y1="108"
                 y2="108"
                 id="line59199" /><line
                 style="fill:none;stroke:#000000;stroke-width:0.25;stroke-miterlimit:10;"
                 x1="-32"
                 x2="160"
                 y1="112"
                 y2="112"
                 id="line59201" /><line
                 style="fill:none;stroke:#000000;stroke-width:0.25;stroke-miterlimit:10;"
                 x1="-32"
                 x2="160"
                 y1="116"
                 y2="116"
                 id="line59203" /><line
                 style="fill:none;stroke:#000000;stroke-width:0.25;stroke-miterlimit:10;"
                 x1="-32"
                 x2="160"
                 y1="120"
                 y2="120"
                 id="line59205" /><line
                 style="fill:none;stroke:#000000;stroke-width:0.25;stroke-miterlimit:10;"
                 x1="-32"
                 x2="160"
                 y1="124"
                 y2="124"
                 id="line59207" /><line
                 style="fill:none;stroke:#000000;stroke-width:0.25;stroke-miterlimit:10;"
                 x1="-32"
                 x2="160"
                 y1="128"
                 y2="128"
                 id="line59209" /><line
                 style="fill:none;stroke:#000000;stroke-width:0.25;stroke-miterlimit:10;"
                 x1="-32"
                 x2="160"
                 y1="132"
                 y2="132"
                 id="line59211" /><line
                 style="fill:none;stroke:#000000;stroke-width:0.25;stroke-miterlimit:10;"
                 x1="-32"
                 x2="160"
                 y1="136"
                 y2="136"
                 id="line59213" /><line
                 style="fill:none;stroke:#000000;stroke-width:0.25;stroke-miterlimit:10;"
                 x1="-32"
                 x2="160"
                 y1="140"
                 y2="140"
                 id="line59215" /><line
                 style="fill:none;stroke:#000000;stroke-width:0.25;stroke-miterlimit:10;"
                 x1="-32"
                 x2="160"
                 y1="144"
                 y2="144"
                 id="line59217" /><line
                 style="fill:none;stroke:#000000;stroke-width:0.25;stroke-miterlimit:10;"
                 x1="-32"
                 x2="160"
                 y1="148"
                 y2="148"
                 id="line59219" /><line
                 style="fill:none;stroke:#000000;stroke-width:0.25;stroke-miterlimit:10;"
                 x1="-32"
                 x2="160"
                 y1="152"
                 y2="152"
                 id="line59221" /><line
                 style="fill:none;stroke:#000000;stroke-width:0.25;stroke-miterlimit:10;"
                 x1="-32"
                 x2="160"
                 y1="156"
                 y2="156"
                 id="line59223" /></g><path
               d="M159.75-31.75v191.5h-191.5v-191.5H159.75 M160-32H-32v192h192V-32L160-32z"
               id="path59227" /></g></g><g
           id="g59241"><rect
             height="128"
             style="opacity:0.3;fill:#F44336;"
             width="4"
             x="0"
             y="0"
             id="rect59233" /><rect
             height="128"
             style="opacity:0.3;fill:#F44336;"
             width="4"
             x="124"
             y="0"
             id="rect59235" /><rect
             height="120"
             style="opacity:0.3;fill:#F44336;"
             transform="matrix(-1.836970e-16 1 -1 -1.836970e-16 66 -62)"
             width="4"
             x="62"
             y="-58"
             id="rect59237" /><rect
             height="120"
             style="opacity:0.3;fill:#F44336;"
             transform="matrix(-1.836970e-16 1 -1 -1.836970e-16 190 62)"
             width="4"
             x="62"
             y="66"
             id="rect59239" /></g></g></g></g><path
     id="path9"
     style="fill:#2f2f2f;fill-opacity:1;stroke-width:35.9055;stroke-linecap:round"
     d="m 37.263672,58.556641 c -1.838905,2.093505 -3.946044,4.19422 -6.324219,6.148437 -0.490027,4.507411 -0.876953,9.474082 -0.876953,15.06836 0,6.798834 0.970294,13.503442 2.957031,19.591796 1.818041,-0.234879 3.716474,-0.644028 5.681641,-1.21875 -0.194388,-0.469901 -0.399274,-0.934098 -0.582031,-1.410156 -1.774848,-5.278623 -2.634766,-11.124393 -2.634766,-17.048828 0,-8.505424 1.023138,-15.350091 1.779297,-21.130859 z m 59.917969,5.453125 c 0.03428,0.904792 0.05469,1.808469 0.05469,2.710937 0,12.367924 -1.737235,23.298928 -5.277344,31.865235 1.88617,0.459149 3.710777,0.770386 5.455078,0.917968 3.198458,-8.799934 4.896268,-19.499623 5.177738,-31.433594 -0.72315,-0.486192 -1.44949,-0.983566 -2.1836,-1.513671 -1.127479,-0.814165 -2.202451,-1.667674 -3.226559,-2.546875 z"
     sodipodi:nodetypes="ccscccsccscccsc" /><path
     id="path3"
     style="fill:#855c52;fill-opacity:1;stroke-width:35.9055;stroke-linecap:round"
     d="M 94.443359 46.882812 C 91.741193 46.882812 88.138294 51.378906 85.976562 51.378906 C 83.814831 51.378906 78.949299 46.998047 76.607422 46.998047 C 74.265546 46.998047 69.183395 51.611328 67.242188 51.611328 C 65.30098 51.611328 61.117724 46.998047 58.595703 46.998047 C 56.073684 46.998047 50.667592 51.726562 48.505859 51.726562 C 46.344129 51.726562 41.661148 46.998047 38.958984 46.998047 C 38.676161 46.998047 38.331308 47.06872 37.958984 47.169922 C 38.638633 54.899598 35.484375 64.813793 35.484375 79.6875 C 35.484375 85.611941 36.344292 91.4577 38.119141 96.736328 C 39.545924 100.4529 41.325727 103.99572 43.480469 107.14844 C 48.458998 113.74943 55.86107 118.0332 65.982422 118.0332 C 87.183508 118.0332 97.236328 96.526611 97.236328 66.720703 C 97.236328 60.077542 96.29904 53.346636 94.548828 46.892578 C 94.513953 46.891068 94.478012 46.882812 94.443359 46.882812 z " /><path
     id="path47682"
     style="fill:#fcc21b;fill-opacity:1;stroke-width:0.999999"
     d="m 37.861582,106.18078 c -8.179849,2.44913 -9.079751,11.49744 -7.830354,12.99145 0.648115,0.76824 1.611083,0.98629 2.699113,0.88331 0.0087,-8.4e-4 0.01743,3.9e-4 0.02626,-3e-4 0.233963,-0.001 0.534053,-0.0564 0.879154,-0.14669 0.665002,-0.1532 1.350412,-0.40026 2.027012,-0.69129 1.190945,-0.45546 2.389482,-0.9135 2.990907,-1.07464 3.160574,-0.84689 5.766628,0.94767 6.761445,2.33292 0.994818,1.38525 3.451322,5.0779 4.510313,4.87843 0.02927,-0.007 0.0547,-0.0181 0.08124,-0.0285 0.117275,0.0886 0.230649,0.16473 0.334321,0.2034 1.220244,0.46523 4.946424,-2.74241 4.023883,-9.4564 -0.938268,-6.70978 -6.754698,-12.18028 -15.688544,-10.1067 -0.279209,0.0647 -0.550957,0.13579 -0.814791,0.21494 z"
     sodipodi:nodetypes="ccscccssccccscc" /><path
     id="path900"
     style="fill:#fcc21b;fill-opacity:1;stroke-width:0.999999"
     d="m 93.169317,106.18078 c 8.179843,2.44913 9.079753,11.49744 7.830353,12.99145 -0.64811,0.76824 -1.611083,0.98629 -2.699112,0.88331 -0.0087,-8.4e-4 -0.01743,3.9e-4 -0.02626,-3e-4 -0.233962,-0.001 -0.534052,-0.0564 -0.879154,-0.14669 -0.665001,-0.1532 -1.350411,-0.40026 -2.027011,-0.69129 -1.190946,-0.45546 -2.389482,-0.9135 -2.990909,-1.07464 -3.160572,-0.84689 -5.766626,0.94767 -6.761443,2.33292 -0.994818,1.38525 -3.451322,5.0779 -4.510314,4.87843 -0.02927,-0.007 -0.0547,-0.0181 -0.08124,-0.0285 -0.117275,0.0886 -0.230649,0.16473 -0.334323,0.2034 -1.220242,0.46523 -4.946422,-2.74241 -4.023881,-9.4564 0.938266,-6.70978 6.754698,-12.18028 15.688543,-10.1067 0.27921,0.0647 0.550958,0.13579 0.814791,0.21494 z"
     sodipodi:nodetypes="ccscccssccccscc" /><path
     style="fill:#ffb300;fill-opacity:1;stroke-width:35.9055;stroke-linecap:round"
     d="m 29.158041,27.381359 c -10.239128,0 -17.139411,5.025634 -17.139411,14.072024 0,4.833122 4.56309,8.843584 6.121219,8.843584 1.558128,0 1.001653,-8.22659 7.011576,-8.22659 4.78568,0 10.684308,1.866994 15.581283,1.866994 4.896975,0 7.345462,-1.645319 7.345462,-4.216128 0,-5.959036 -7.457133,-12.339884 -18.920129,-12.339884 z"
     id="path4"
     sodipodi:nodetypes="sssssss" /><path
     id="path7"
     style="fill:#f17c04;fill-opacity:1;stroke-width:35.9055;stroke-linecap:round"
     d="M 38.939453 36.734375 C 37.511033 36.739512 35.575522 37.067533 33.177734 37.892578 C 28.390578 39.539772 24.471982 41.753291 23.507812 42.314453 C 23.994344 42.159991 24.537761 42.070312 25.152344 42.070312 C 26.361739 42.070312 27.641564 42.188986 28.958984 42.367188 C 30.369297 41.772218 32.092675 41.103874 34.121094 40.427734 C 40.308933 38.365121 41.95966 39.18874 41.841797 37.951172 C 41.775498 37.255041 40.775993 36.727771 38.939453 36.734375 z " /></svg>
