<?xml version="1.0" encoding="UTF-8" standalone="no"?>
<svg
   width="128"
   height="128"
   version="1.1"
   id="svg4"
   sodipodi:docname="emoji_u1f607.svg"
   inkscape:version="1.3 (0e150ed6c4, 2023-07-21)"
   xmlns:inkscape="http://www.inkscape.org/namespaces/inkscape"
   xmlns:sodipodi="http://sodipodi.sourceforge.net/DTD/sodipodi-0.dtd"
   xmlns="http://www.w3.org/2000/svg"
   xmlns:svg="http://www.w3.org/2000/svg">
  <defs
     id="defs4" />
  <sodipodi:namedview
     id="namedview4"
     pagecolor="#ffffff"
     bordercolor="#000000"
     borderopacity="0.25"
     inkscape:showpageshadow="2"
     inkscape:pageopacity="0.0"
     inkscape:pagecheckerboard="0"
     inkscape:deskcolor="#d1d1d1"
     inkscape:zoom="2.867097"
     inkscape:cx="50.39941"
     inkscape:cy="70.628932"
     inkscape:window-width="1366"
     inkscape:window-height="697"
     inkscape:window-x="-8"
     inkscape:window-y="-8"
     inkscape:window-maximized="1"
     inkscape:current-layer="svg4" />
  <path
     d="M63.79 16.91C1.48 16.91 0 86.76 0 100.59c0 13.83 28.56 25.03 63.79 25.03 35.24 0 63.79-11.21 63.79-25.03 0-13.83-1.47-83.68-63.79-83.68z"
     fill="#fcc21b"
     id="path1" />
  <g
     fill="#2f2f2f"
     id="g3">
    <path
       d="M31.96 73.81a2.728 2.728 0 0 1-3.73.93 2.72 2.72 0 0 1-.96-3.71c.18-.31 4.6-7.62 14.37-7.62 9.78 0 14.2 7.31 14.39 7.62a2.735 2.735 0 0 1-2.36 4.11c-.92 0-1.83-.47-2.34-1.32-.13-.22-3.12-4.96-9.69-4.96-6.57-.01-9.54 4.74-9.68 4.95zM100 74.75c-.43.26-.91.38-1.37.38-.94 0-1.85-.49-2.36-1.34-.11-.2-3.08-4.94-9.66-4.94-6.69 0-9.66 4.89-9.69 4.94a2.724 2.724 0 0 1-4.69-2.77c.18-.31 4.6-7.62 14.38-7.62 9.77 0 14.18 7.31 14.36 7.62.76 1.3.32 2.98-.97 3.73z"
       id="path3" />
  </g>
  <path
     d="M63.8 0C32.59 0 7.28 9.4 7.28 21c0 11.61 25.31 21 56.52 21 31.21 0 56.5-9.39 56.5-21 0-11.6-25.29-21-56.5-21zm-.01 25.86c-17.68 0-32.03-3.81-32.03-8.51 0-4.69 14.35-8.51 32.03-8.51 17.67 0 32 3.82 32 8.51 0 4.71-14.33 8.51-32 8.51z"
     fill="#40c0e7"
     id="path4" />
  <path
     style="fill:none;stroke:#2f2f2f;stroke-width:6;stroke-linecap:round;stroke-opacity:1"
     d="m 40.541299,90.105552 c 0,0 8.406824,7.177003 23.248702,7.177003 14.841878,0 23.248703,-7.177003 23.248703,-7.177003"
     id="path5"
     sodipodi:nodetypes="czc" />
</svg>
