<?xml version="1.0" encoding="UTF-8" standalone="no"?>
<svg
   width="128"
   height="128"
   version="1.1"
   id="svg13950"
   sodipodi:docname="emoji_u1f4d5.svg"
   inkscape:version="1.2.2 (732a01da63, 2022-12-09)"
   xml:space="preserve"
   xmlns:inkscape="http://www.inkscape.org/namespaces/inkscape"
   xmlns:sodipodi="http://sodipodi.sourceforge.net/DTD/sodipodi-0.dtd"
   xmlns:xlink="http://www.w3.org/1999/xlink"
   xmlns="http://www.w3.org/2000/svg"
   xmlns:svg="http://www.w3.org/2000/svg"><sodipodi:namedview
     id="namedview13952"
     pagecolor="#ffffff"
     bordercolor="#000000"
     borderopacity="0.25"
     inkscape:showpageshadow="2"
     inkscape:pageopacity="0.0"
     inkscape:pagecheckerboard="0"
     inkscape:deskcolor="#d1d1d1"
     showgrid="false"
     inkscape:zoom="2"
     inkscape:cx="55.5"
     inkscape:cy="79"
     inkscape:window-width="1366"
     inkscape:window-height="697"
     inkscape:window-x="-8"
     inkscape:window-y="-8"
     inkscape:window-maximized="1"
     inkscape:current-layer="svg13950" /><defs
     id="defs13924"><linearGradient
       gradientTransform="matrix(0.51827338,0,-0.0299342,0.51827338,31.751362,8.9792068)"
       xlink:href="#a"
       id="b"
       x1="95.743"
       y1="70.878"
       x2="95.743"
       y2="82.469"
       gradientUnits="userSpaceOnUse" /><linearGradient
       id="a"><stop
         offset="0"
         stop-color="#fff"
         id="stop13919" /><stop
         offset="1"
         stop-color="#fff"
         stop-opacity=".787"
         id="stop13921" /></linearGradient></defs><path
     d="m 112.5211,116.16048 c -3.23877,0.49561 -88.225629,2.602 -92.12136,0.67718 -5.198148,-2.55873 -6.812665,-10.76249 -4.115621,-15.84537 2.212958,-4.172355 7.883666,-4.276087 11.813973,-4.345242 5.947328,-0.103731 78.774048,-0.05763 83.845408,0.680023 1.12953,0.172889 2.02855,0.01153 2.24754,1.325471 0.25357,1.567508 -0.41493,3.503848 -0.47256,5.105938 -0.0806,1.93635 0.18441,3.84963 0.41493,5.76292 0.16137,1.37157 1.04885,3.04281 0.93359,4.40287 -0.10374,1.30241 -1.46248,2.07484 -2.5459,2.23621 z"
     fill="#ffffff"
     id="path13926"
     style="stroke-width:1"
     sodipodi:nodetypes="cccccccccc" /><path
     style="line-height:normal;font-variant-ligatures:normal;font-variant-position:normal;font-variant-caps:normal;font-variant-numeric:normal;font-variant-alternates:normal;font-variant-east-asian:normal;font-feature-settings:normal;text-indent:0;text-align:start;text-decoration-line:none;text-decoration-style:solid;text-decoration-color:#000000;text-transform:none;text-orientation:mixed;shape-padding:0;isolation:auto;mix-blend-mode:normal;fill:#791717;fill-opacity:1"
     d="m 66.5,9.014 c -5.69,0.03 -11.391,0.1 -17.082,0.21 -5.218,0.101 -10.411,0.13 -15.57,0.358 -2.528,0.116 -5.14,0.393 -7.772,0.625 -5.281,0.476 -10.429,2.938 -12.847,7.379 l -0.002,0.002 v 0.002 c -1.07,1.977 -1.644,4.421 -2.008,6.896 C 10.19,31.47 9.563,38.525 9.115,45.611 v 0.002 C 8.66,52.626 8.61,59.686 8.58,66.781 v 0.002 C 8.55,75.437 8.041,84.004 8.041,92.494 v 0.002 c -0.005,4.287 -0.155,8.587 0.504,12.408 0.659,3.82 2.035,7.101 5.146,9.81 l 0.002,0.003 c 2.08,1.806 4.492,2.897 7.186,3.592 h 0.004 c -0.036,-0.01 1.955,0.224 4.515,0.326 2.561,0.101 5.99,0.178 9.989,0.234 7.997,0.113 18.277,0.144 28.562,0.125 10.285,-0.019 20.577,-0.086 28.61,-0.168 8.033,-0.081 13.984,-0.188 14.982,-0.248 2.446,-0.145 5.445,0.068 7.658,-0.375 1.107,-0.221 1.947,-0.589 2.463,-1.047 0.515,-0.457 0.848,-0.987 0.934,-2.17 0.077,-1.144 -0.846,-2.945 -1.815,-4.799 -1.038,-1.97 -1.976,-4.24 -2.11,-6.779 v -0.006 c -0.121,-2.48 0.535,-4.583 0.766,-6.357 l 0.237,-1.807 1.82,0.069 c 0.678,0.025 1.683,-0.604 2.086,-1.352 l 0.004,-0.006 0.002,-0.006 c 0.17,-0.308 0.388,-1.362 0.394,-2.523 0.006,-1.161 -0.123,-2.426 -0.236,-3.38 -0.248,-2.109 -0.248,-4.111 -0.451,-5.933 v -0.002 c -0.852,-7.643 -1.623,-15.28 -2.402,-22.908 v -0.002 c -1.03,-10.222 -2.04,-20.423 -3.217,-30.601 v -0.002 c -0.51,-4.45 -0.773,-8.805 -2.01,-12.692 -0.943,-2.961 -2.872,-4.101 -5.727,-4.83 -2.854,-0.728 -6.436,-0.72 -9.626,-0.96 C 86.346,9.363 76.491,8.964 66.5,9.014 Z M 43.06,9.926 c 4.452,0 8.814,0.166 12.868,0.1 h 0.002 c 10.64,-0.163 21.13,0.872 31.504,1.15 h 0.002 c 3.473,0.095 6.71,0.662 9.82,0.709 h 0.004 c 3.287,0.041 7.563,0.27 10.472,3.537 l 0.002,0.002 c 1.502,1.682 2.214,3.73 2.555,5.676 h 0.002 c 0.28,1.599 0.832,3.33 1.049,5.404 v 0.004 c 1.076,10.129 1.676,20.258 2.394,30.34 v 0.004 c 0.33,4.462 0.678,8.904 1.116,13.326 l 0.002,0.002 v 0.004 c 0.523,5.445 0.95,11.318 0.492,16.943 v 0.006 l -0.002,0.008 c -0.041,0.462 -0.13,0.983 -0.346,1.523 -0.536,1.349 -1.798,2.028 -2.853,2.309 -1.058,0.281 -2.114,0.308 -3.153,0.275 -2.077,-0.065 -4.294,-0.416 -4.732,-0.424 h -0.002 l -13.961,-0.24 c -5.738,-0.1 -11.478,-0.189 -17.23,-0.29 -5.87,-0.09 -11.74,-0.19 -17.596,-0.28 -5.028,-0.08 -10.038,-0.149 -15.051,-0.229 -3.196,-0.05 -6.39,-0.091 -9.576,-0.12 h -0.03 c -0.387,-0.01 -0.802,-0.01 -1.232,-0.01 -6.685,0 -9.77,3.2 -10.096,3.548 -0.03,0.142 -0.025,0.181 -0.14,0.568 -0.18,0.605 -0.503,1.765 -1.92,2.247 -0.61,0.207 -1.45,0.162 -2.033,-0.141 -0.460848,-0.240044 -0.844824,-0.604959 -1.108,-1.053 -0.415,-0.67 -0.515,-1.204 -0.592,-1.484 l -0.004,-0.01 -10e-4,-0.01 c -0.463,-1.772 -0.324,-3.437 -0.305,-4.74 0.03,-2.584 0.201,-5.077 0.24,-7.517 v -0.002 c 0.14,-8.054 0.421,-16.086 0.711,-24.108 v -0.002 c 0.3,-8.096 0.64,-16.183 1.02,-24.27 0.14,-2.999 0.28,-5.995 0.45,-8.997 0.102,-1.834 0.058,-3.762 0.66,-5.713 0.604,-1.952 2.122,-3.854 4.589,-4.834 5.535,-2.202 11.551,-2.936 17.535,-3.14 1.496,-0.052 2.99,-0.071 4.475,-0.071 z m 64.598,82.18 c 0.766,0.011 1.365,0.045 1.875,0.119 h 0.004 c 0.123,0.017 0.55,0.014 1.174,0.158 0.626,0.145 1.62,0.63 2.115,1.564 l 0.008,0.012 0.006,0.014 c 0.447,0.87 0.418,1.998 0.152,2.738 v 0.002 l -0.002,0.004 c -0.45,1.24 -0.696,2.602 -0.806,4.013 -0.162,2.072 -0.34,4.015 -0.182,5.829 v 0.002 c 0.09,0.956 0.255,1.836 0.545,2.658 0.04,0.112 0.257,0.506 0.525,1.05 0.27,0.546 0.635,1.327 0.54,2.385 v 0.016 c -0.125,1.264 -1.126,2.313 -1.948,2.709 -0.822,0.395 -1.53,0.47 -2.02,0.543 -0.485,0.074 -0.847,0.077 -1.603,0.111 -0.761,0.035 -1.777,0.071 -3.021,0.11 -2.489,0.077 -5.883,0.162 -9.887,0.246 -8.008,0.167 -18.452,0.333 -28.916,0.433 -10.465,0.1 -24.031663,0.38503 -34.161,0.0723 -13.26376,-0.40951 -14.887,-5.14229 -15.437,-8.01329 -0.55,-2.871 -0.084,-5.946 1.317,-8.574 v -0.002 c 1.243,-2.353 3.392,-3.818 5.58,-4.7 2.189,-0.882 4.472,-1.225 6.398,-1.26 h 0.002 c 2.39,-0.041 21.268,-0.74 39.904,-1.343 9.318,-0.302 18.613,-0.582 25.864,-0.746 3.625,-0.082 6.738,-0.134 9.097,-0.147 1.179,-0.006 2.111,-0.015 2.877,-0.004 z"
     color="#000000"
     font-weight="400"
     font-family="sans-serif"
     white-space="normal"
     overflow="visible"
     fill="#173479"
     stroke-width="4"
     id="path13928"
     sodipodi:nodetypes="ccccccccccsssscccccccsccccccccccccccscccccccccccccccccccccccccccccccccccccccccccsccccccccccccccccccccccccccccccccccccccccccsssccccccsccc" /><path
     d="m 11.95,110.265 c 1.095573,-11.934849 14.36,-12.57 14.36,-12.57 8.08,-1.5 91.11,-0.39 91.11,-0.39 1.61,0.06 3.17,-1.01 3.92,-2.4 0.96,-1.76 0.62,-5.16 0.39,-7.11 -0.23,-1.95 -0.23,-3.95 -0.45,-5.92 -0.85,-7.63 -1.62,-15.26 -2.4,-22.89 -1.03,-10.22 -2.04,-20.43 -3.22,-30.63 -0.5,-4.37 -0.75,-8.86 -2.09,-13.07 -2.33,-7.32 -11,-6.72 -17.11,-7.18 -10.01,-0.75 -19.92,-1.15 -29.97,-1.1 -5.7,0.03 -11.41,0.1 -17.11,0.21 -5.2,0.1 -10.41,0.13 -15.62,0.36 -2.61,0.12 -5.25,0.4 -7.86,0.63 -5.78,0.52 -11.6,3.22 -14.43,8.42 -1.25,2.31 -1.85,4.98 -2.23,7.56 -1.04,7.07 -1.67,14.18 -2.12,21.3 -0.46,7.09 -0.51,14.19 -0.54,21.29 -0.03,8.58 -0.54,17.15 -0.54,25.72 -0.01,6.27 0.5702956,12.07978 1.7116177,16.87997 0.7481419,3.14655 3.9632533,3.45145 4.1983823,0.89003 z"
     fill="#3666d9"
     id="path13930"
     sodipodi:nodetypes="scccsccccccccccccccss"
     style="fill:#d93636;fill-opacity:1" /><g
     id="g14162"
     transform="matrix(0.89419025,0,0,0.89204854,6.7073058,-0.00875154)"
     style="stroke-width:1.11967"><path
       d="m 63.298159,22.553 c -25.447,0 -28.199771,28.91 -28.66795,35.198 -0.484847,6.49 12.261177,12.03 28.583802,12.175 16.418567,0.146 29.40861,-5.222 28.93725,-11.795 -0.456662,-6.36 -3.167102,-35.578 -28.853102,-35.578 z"
       fill="none"
       stroke="#ffffff"
       stroke-width="1.6"
       id="path13932"
       style="stroke-width:6.71803;stroke-dasharray:none" /><path
       d="m 76.334145,45.165 c 0.439596,0.007 0.789513,0.095 1.1175,0.303 0.13609,0.085 0.249293,0.22 0.317056,0.605 0.06871,0.386 0.0368,0.973 -0.13978,1.641 -0.203473,0.77 -0.594722,1.64 -1.126816,2.49 -3.040128,0.487 -12.333026,1.576 -26.585467,-0.217 -0.49735,-0.825 -0.864891,-1.664 -1.05692,-2.408 -0.171533,-0.666 -0.201803,-1.25 -0.131624,-1.634 0.06912,-0.383 0.180745,-0.515 0.314597,-0.599 0.432595,-0.27 0.907175,-0.332 1.573479,-0.268 0.666246,0.065 1.458828,0.28 2.297009,0.45 l 5.8e-5,-10e-4 c 4.477556,0.908 8.42661,0.959 10.294148,0.967 1.868481,0.009 5.827405,-0.007 10.336769,-0.879 l -5.8e-5,10e-4 c 0.846415,-0.163 1.645486,-0.372 2.318894,-0.431 a 4.4690754,4.7347601 45.827086 0 1 0.471155,-0.02"
       fill="#ffffff"
       stroke-width="3.29072"
       id="path13934" /><path
       d="m 63.298159,22.553 c 25.687,0 28.397382,29.219 28.853102,35.578 0.47236,6.573 -12.518625,11.94 -28.93625,11.795 C 46.892386,69.781 34.145362,64.241 34.629209,57.751 35.09833,51.464 37.852159,22.553 63.298159,22.553"
       fill="#fcc21b"
       id="path13936"
       style="stroke-width:2.53158" /><path
       d="m 77.026988,39.61 c 0.35558,0.544 1.081126,0.725 1.626897,0.4 0.544771,-0.325 0.698086,-1.023 0.352506,-1.567 -0.08243,-0.131 -2.093042,-3.185 -6.261464,-3.195 -4.166423,-0.01 -6.02489,3.028 -6.104399,3.158 -0.323247,0.541 -0.129197,1.25 0.42909,1.574 0.190647,0.11 0.393643,0.162 0.600585,0.163 0.395943,10e-4 0.786321,-0.196 1.002056,-0.555 0.05437,-0.093 1.310251,-2.082 4.126789,-2.074 2.819769,0.004 4.164081,2.007 4.22794,2.096 m -29.2505,0.303 a 1.1298989,1.1970709 45.827086 0 0 1.612103,-0.4 c 0.04979,-0.083 1.389211,-2.064 4.190807,-2.057 2.849538,0.008 4.081846,2.063 4.094633,2.084 0.321465,0.546 1.032606,0.734 1.59532,0.41 0.558424,-0.319 0.754259,-1.026 0.430621,-1.569 -0.07549,-0.13 -1.915793,-3.172 -6.058215,-3.182 -4.132423,-0.01 -6.128255,3.017 -6.211705,3.146 -0.347421,0.544 -0.190966,1.246 0.346436,1.568"
       fill="#2f2f2f"
       id="path13938"
       style="stroke-width:2.53158" /><path
       d="m 49.12448,44.155 c 1.370693,-0.895 3.033039,-0.295 4.513961,0.018 4.143462,0.875 7.809574,0.925 9.57117,0.932 1.762537,0.008 5.439693,-0.012 9.609382,-0.855 1.493385,-0.301 3.173462,-0.891 4.552903,0.019 1.762001,1.16 0.646997,5.35 -2.004825,8.221 -1.620364,1.755 -5.546339,5.2 -12.180798,5.156 -6.619458,-0.044 -10.506404,-3.525 -12.107405,-5.291 -2.613311,-2.886 -3.695231,-7.06 -1.954388,-8.2"
       fill="#ec6c31"
       stroke-width="12.6556"
       id="path13940" /><path
       id="path13942"
       style="fill:url(#b);stroke-width:1.11967"
       d="m 50.763672,43.685547 c -0.571089,0.0091 -1.124663,0.133125 -1.638672,0.46875 -0.68229,0.446801 -0.925531,1.36372 -0.818359,2.482422 4.087258,1.318935 9.371223,2.068817 14.886718,2.097656 5.544911,0.02504 10.87564,-0.682046 15.001953,-1.976563 0.10945,-1.117887 -0.136253,-2.035364 -0.824218,-2.488281 C 75.991654,43.359532 74.311743,43.949 72.818359,44.25 c -4.169684,0.842999 -7.846839,0.863469 -9.609375,0.855469 -1.761594,-0.007 -5.426854,-0.05664 -9.570312,-0.931641 -0.925575,-0.195625 -1.923185,-0.503496 -2.875,-0.488281 z" /></g><g
     style="line-height:89.8%"
     aria-label="Emojipedia The Book"
     font-weight="700"
     font-size="10.667px"
     font-family="'Comic Neue'"
     letter-spacing="0"
     word-spacing="0"
     fill="#ffffff"
     stroke-width="0.2"
     id="g13948"
     transform="matrix(1,0,-0.0633501,1,6.4865245,-5.0005341)"><path
       style="line-height:89.8%;-inkscape-font-specification:'Comic Neue Bold'"
       d="m 47.585472,80.934137 -0.094,-2.293 3.748,-0.017 c 0.344,-0.002 0.59,-0.25 0.575,-0.566 -0.015,-0.315 -0.283,-0.55 -0.626,-0.548 l -3.742,0.013 -0.083,-2.037 4.294,-0.005 c 0.342,0 0.586,-0.257 0.571,-0.558 -0.014,-0.312 -0.282,-0.557 -0.623,-0.557 h -4.892 c -0.345,0 -0.607,0.247 -0.594,0.56 l 0.258,6.587 c 0.012,0.32 0.296,0.569 0.645,0.566 l 4.916,-0.041 c 0.345,-0.003 0.592,-0.255 0.577,-0.573 -0.016,-0.317 -0.285,-0.565 -0.63,-0.562 l -4.3,0.03 m 12.764,-4.665 c -0.564,0.001 -1.219,0.324 -1.742,0.87 -0.375,-0.666 -1,-0.864 -1.544,-0.863 -0.653,0.001 -1.259,0.46 -1.775,1.042 l -0.02,-0.38 c -0.014,-0.28 -0.282,-0.535 -0.61,-0.534 -0.303,0 -0.57,0.258 -0.556,0.537 l 0.226,4.545 c 0.015,0.294 0.309,0.53 0.615,0.527 0.318,-0.002 0.575,-0.242 0.56,-0.536 l -0.12,-2.322 c -0.013,-0.247 0.007,-0.325 0.064,-0.415 0.617,-0.989 1.283,-1.46 1.67,-1.462 0.254,0 0.598,0.099 0.65,1.048 l 0.171,3.132 c 0.016,0.293 0.309,0.528 0.613,0.525 0.327,-0.002 0.569,-0.241 0.552,-0.534 l -0.141,-2.503 c -0.055,-0.982 0.929,-1.677 1.446,-1.678 0.24,-0.001 0.606,0.098 0.662,1.043 l 0.185,3.121 c 0.017,0.292 0.296,0.526 0.61,0.523 0.301,-0.002 0.564,-0.24 0.546,-0.532 l -0.186,-3.05 c -0.106,-1.743 -1.085,-2.106 -1.876,-2.104 m 6.404,5.645 c 1.512,-0.012 2.698,-1.38 2.584,-2.998 -0.096,-1.368 -1.24,-2.553 -2.622,-2.55 -1.505,0.003 -2.69,1.367 -2.588,2.977 0.09,1.428 1.23,2.583 2.627,2.571 m -0.02,-4.567 c 0.733,-0.003 1.377,0.757 1.437,1.63 0.07,1.032 -0.639,1.938 -1.484,1.944 -0.774,0.005 -1.347,-0.727 -1.403,-1.595 -0.069,-1.055 0.596,-1.976 1.45,-1.98 m 4.619,4.407 c -0.08664,-0.236678 -0.318431,-0.388359 -0.57,-0.373 -0.343,0.003 -0.56,0.26 -0.54,0.539 0.004,0.066 0.033,0.144 0.048,0.189 0.113,0.255 0.802,1.6 2.032,1.588 1.296,-0.014 1.42,-1.34 1.364,-2.073 -0.07043,-0.924653 -0.148768,-1.848687 -0.235,-2.772 -0.087,-0.989 -0.179,-1.898 -0.186,-1.986 -0.021,-0.284 -0.308,-0.524 -0.6,-0.524 -0.338,0.001 -0.543,0.232 -0.52,0.538 0.012,0.165 0.125,1.362 0.225,2.551 0.092,1.083 0.194,2.125 0.203,2.258 0.022,0.289 0.05,0.99 -0.35,0.993 -0.354,0.004 -0.7,-0.54 -0.87,-0.927 m 1.858,-6.832 c 0.003,-0.261 -0.228,-0.555 -0.59,-0.555 -0.267,0 -0.511,0.164 -0.526,0.436 l -0.011,0.469 c -0.003,0.273 0.25,0.545 0.577,0.545 0.245,0 0.537,-0.143 0.539,-0.426 l 0.01,-0.469 m 2.972,2.001 c -0.024,-0.295 -0.286,-0.534 -0.61,-0.533 -0.314,0 -0.55,0.24 -0.527,0.536 l 0.284,4.374 c 0.023,0.299 0.3,0.54 0.615,0.537 0.315,-0.002 0.553,-0.248 0.529,-0.546 l -0.291,-4.368 m -0.65,-1.024 c 0.313,0 0.528,-0.218 0.516,-0.512 l -0.022,-0.412 c -0.01,-0.26 -0.284,-0.52 -0.585,-0.52 -0.285244,-0.0068 -0.519052,0.224703 -0.515,0.51 l 0.02,0.402 c 0.01,0.283 0.285,0.533 0.586,0.532 m -33.414174,9.129 -5.154,0.06 c -0.326,0.004 -0.605,0.25 -0.592,0.573 0.012,0.312 0.31,0.575 0.637,0.57 l 1.889,-0.024 0.258,6.202 c 0.013,0.306 0.313,0.57 0.653,0.563 0.34,-0.007 0.604,-0.282 0.591,-0.587 l -0.268,-6.194 2.037,-0.026 c 0.347,-0.005 0.595,-0.272 0.58,-0.582 -0.015,-0.321 -0.285,-0.559 -0.632,-0.555 m 6.949,7.233 c 0.019,-0.325 -0.004,-0.743 -0.043,-1.448 -0.14,-2.547 -0.637,-3.801 -1.961,-3.783 -0.725,0.01 -1.416,0.48 -1.903,1.097 l -0.124,-2.469 c -0.01987,-0.32299 -0.295793,-0.569942 -0.619,-0.554 -0.315354,-0.0046 -0.571408,0.253699 -0.564,0.569 l 0.322,6.661 c 0.014,0.292 0.313,0.555 0.625,0.548 0.323,-0.006 0.586,-0.222 0.567,-0.595 l -0.086,-1.732 c -0.016,-0.313 0.007,-0.592 0.107,-0.825 0.157,-0.327 0.858,-1.596 1.658,-1.608 0.283,-0.004 0.68,0.289 0.813,2.793 0.04,0.73 0.031,1.044 0.048,1.346 0.016,0.302 0.251,0.542 0.609,0.534 0.32,-0.006 0.554,-0.243 0.55,-0.534 m 5.679,-1.149 c -0.25,0.27 -0.772,0.498 -1.174,0.506 -0.695,0.013 -1.235,-0.22 -1.617,-0.685 l 3.15,-1.825 c 0.246,-0.14 0.355,-0.337 0.342,-0.531 -0.034,-0.536 -0.828,-1.63 -2.425,-1.607 -1.663,0.023 -2.667,1.446 -2.578,3.02 0.082,1.443 1.335,2.74 3.193,2.702 0.756,-0.016 1.572,-0.413 1.979,-0.894 0.08783,-0.09377 0.13274,-0.21982 0.124,-0.348 -0.02,-0.31 -0.277,-0.536 -0.605,-0.53 -0.150196,0.0091 -0.290395,0.07834 -0.389,0.192 m -3.195,-1.233 c -0.01,-1.01 0.6,-1.823 1.536,-1.837 0.558,-0.008 0.917,0.112 1.126,0.36 l -2.662,1.477 m 10.852,2.658 c 3.564,-0.072 5.186,-1.005 5.064,-2.545 -0.07,-0.87 -0.505,-1.45 -1.335,-1.798 0.282,-0.32 0.482,-0.784 0.43,-1.435 -0.028,-0.359 -0.428,-2.01 -2.829,-1.982 l -2.01,0.023 c -0.309,0.004 -0.563,0.265 -0.542,0.557 l 0.47,6.565 c 0.038,0.526 0.333,0.623 0.752,0.615 m 0.233,-3.529 1.994,-0.033 c 0.722,-0.011 1.609,0.28 1.668,1.037 0.069,0.884 -1.537,1.313 -3.488,1.384 l -0.174,-2.388 m -0.227,-3.093 1.408,-0.018 c 1.416,-0.018 1.57,0.766 1.582,0.912 0.03548,0.556953 -0.401984,1.030418 -0.96,1.039 l -1.886,0.028 -0.144,-1.96 m 9.029,6.415 c 1.486,-0.03 2.625,-1.431 2.48,-3.07 -0.122,-1.387 -1.271,-2.576 -2.63,-2.557 -1.48,0.02 -2.619,1.417 -2.486,3.05 0.118,1.446 1.262,2.605 2.636,2.577 m -0.112,-4.632 c 0.721,-0.01 1.37,0.752 1.446,1.637 0.091,1.045 -0.589,1.972 -1.42,1.988 -0.761,0.014 -1.34,-0.722 -1.413,-1.602 -0.088,-1.068 0.547,-2.01 1.387,-2.023 m 6.636,4.499 c 1.465,-0.03 2.574,-1.42 2.416,-3.046 -0.133,-1.376 -1.277,-2.557 -2.616,-2.538 -1.459,0.02 -2.568,1.406 -2.422,3.026 0.13,1.436 1.268,2.586 2.622,2.558 m -0.153,-4.596 c 0.71,-0.011 1.357,0.746 1.44,1.625 0.1,1.037 -0.562,1.956 -1.38,1.972 -0.751,0.015 -1.328,-0.716 -1.408,-1.59 -0.097,-1.06 0.52,-1.995 1.348,-2.007 m 8.766,3.486 -2.106,-2.26 c 0.42,-0.427 1.027,-1.133 1.388,-1.678 0.06522,-0.09313 0.09339,-0.20722 0.079,-0.32 -0.03517,-0.291842 -0.288251,-0.507957 -0.582,-0.497 -0.168061,-1.68e-4 -0.32487,0.08444 -0.417,0.225 -0.595471,0.785973 -1.252186,1.523607 -1.964,2.206 l -0.37,-3.57 c -0.03016,-0.305711 -0.289848,-0.537128 -0.597,-0.532 -0.295,0.004 -0.533,0.237 -0.504,0.523 l 0.655,6.39 c 0.028,0.28 0.317,0.532 0.602,0.526 0.297407,0.0036 0.532683,-0.250771 0.506,-0.547 l -0.162,-1.614 c 0.15,-0.103 0.384,-0.263 0.615,-0.456 0.37,0.394 1.395,1.52 2.104,2.332 0.115,0.12 0.28,0.184 0.45,0.18 0.33,-0.006 0.518,-0.266 0.486,-0.566 -0.01914,-0.131888 -0.08389,-0.252899 -0.183,-0.342"
       id="path13946"
       sodipodi:nodetypes="cccccccccsscccccccccccccccccccccccccccccccccccccccccccccccccccccccccsccsccccccccccccccccccccccsccccccccccccccccccccccccccccccccccccccccccccccccccccccccccccccccccccccccccccccccccccccccccccccccc" /></g></svg>
