<?xml version="1.0" encoding="UTF-8" standalone="no"?>
<svg
   width="128"
   height="128"
   version="1.1"
   id="svg7"
   sodipodi:docname="emoji_u1f637.svg"
   xml:space="preserve"
   inkscape:version="1.3 (0e150ed6c4, 2023-07-21)"
   xmlns:inkscape="http://www.inkscape.org/namespaces/inkscape"
   xmlns:sodipodi="http://sodipodi.sourceforge.net/DTD/sodipodi-0.dtd"
   xmlns:xlink="http://www.w3.org/1999/xlink"
   xmlns="http://www.w3.org/2000/svg"
   xmlns:svg="http://www.w3.org/2000/svg"><sodipodi:namedview
     id="namedview7"
     pagecolor="#ffffff"
     bordercolor="#000000"
     borderopacity="0.25"
     inkscape:showpageshadow="2"
     inkscape:pageopacity="0.0"
     inkscape:pagecheckerboard="0"
     inkscape:deskcolor="#d1d1d1"
     inkscape:zoom="2.5345289"
     inkscape:cx="17.360228"
     inkscape:cy="102.18861"
     inkscape:current-layer="g7" /><defs
     id="defs3"><path
   id="a"
   d="M64.1 9.64C1.79 9.64.31 79.5.31 93.33c0 13.83 28.56 25.03 63.79 25.03 35.24 0 63.79-11.21 63.79-25.03 0-13.83-1.46-83.69-63.79-83.69z" /><path
   id="SVGID_1_"
   d="M15.87,32.75C35.15,3.87,67.36-9.3,101.5,8.06c22.84,11.63,30.78,39.21,20.86,71.65      c-4.1,13.37,6.14,15.64,5.48,22.74c-1.3,13.9-28.49,25.28-63.65,25.28c-35.15,0-62.72-11.35-63.65-25.28      C-1.36,74.39,3.58,51.2,15.87,32.75" />&#10;			<defs
   id="defs1">&#10;				<path
   id="path7"
   d="M 15.87,32.75 C 35.15,3.87 67.36,-9.3 101.5,8.06 c 22.84,11.63 30.78,39.21 20.86,71.65 -4.1,13.37 6.14,15.64 5.48,22.74 -1.3,13.9 -28.49,25.28 -63.65,25.28 -35.15,0 -62.72,-11.35 -63.65,-25.28 -1.9,-28.06 3.04,-51.25 15.33,-69.7" />&#10;			</defs>&#10;			&#10;			<clipPath
   id="SVGID_2_">&#10;				<use
   xlink:href="#SVGID_1_"
   overflow="visible"
   id="use2" />&#10;			</clipPath>&#10;			&#10;			&#10;			&#10;			&#10;			&#10;		</defs><clipPath
     id="b"><use
       xlink:href="#a"
       overflow="visible"
       id="use3" /></clipPath><g
     id="g10"
     transform="translate(-0.00811754,-0.00244687)">&#10;	<g
   id="g7">&#10;		<use
   xlink:href="#SVGID_1_"
   overflow="visible"
   fill="#fcc21b"
   id="use1" /><path
   clip-path="url(#SVGID_2_)"
   fill="#ffffff"
   d="M 77.13,99.82 C 76.16,99.79 75.33,99.08 75.2,98.1 75.06,97 75.82,96 76.91,95.85 c 30.05,-4.03 42.91,-15.94 48.41,-25.21 0.56,-0.95 1.79,-1.27 2.74,-0.7 0.95,0.56 1.27,1.78 0.7,2.73 -5.95,10.04 -19.68,22.9 -51.31,27.14 -0.11,0.01 -0.21,0.01 -0.32,0.01 z"
   id="path2" /><path
   clip-path="url(#SVGID_2_)"
   fill="#ffffff"
   d="m 84.55,73.63 c -0.09,0 -0.18,0 -0.28,0 -1.09,-0.03 -1.96,-0.95 -1.93,-2.04 0.02,-1.11 0.93,-1.97 2.03,-1.95 v 0 c 0.1,0 0.19,0.01 0.28,0.01 22.98,0.58 33.65,-4.48 41.77,-10.03 0.91,-0.62 2.15,-0.39 2.76,0.52 0.64,0.91 0.39,2.15 -0.52,2.77 -8.65,5.92 -20,11.32 -44.11,10.72 z"
   id="path3" /><path
   clip-path="url(#SVGID_2_)"
   fill="#ffffff"
   d="m 21.47,56.12 c -0.39,-0.01 -0.8,-0.14 -1.15,-0.39 -6.64,-5 -9.29,-14.12 -9.54,-20.99 -0.04,-1.11 0.83,-2.03 1.92,-2.07 1.09,-0.03 2.03,0.81 2.07,1.92 0.22,5.68 2.42,13.78 7.95,17.94 0.87,0.66 1.06,1.92 0.4,2.8 -0.4,0.54 -1.02,0.81 -1.65,0.79 z"
   id="path4" /><path
   clip-path="url(#SVGID_2_)"
   fill="#ffffff"
   d="M 15.35,87.32 C 15,87.32 14.65,87.21 14.33,87.01 1.48,78.85 0.61,59.09 1.94,49.77 2.1,48.68 3.11,47.95 4.2,48.08 c 1.09,0.16 1.85,1.17 1.7,2.27 -1.41,9.79 0.24,26.75 10.57,33.3 0.93,0.59 1.21,1.82 0.62,2.75 -0.39,0.61 -1.07,0.94 -1.74,0.92 z"
   id="path5" /><path
   clip-path="url(#SVGID_2_)"
   fill="#ffffff"
   d="m 18.06,48.4 c -2.69,4.74 -7.43,17.73 -8.49,35.58 0,0 -1.32,4.76 6.82,9.42 6.33,3.64 14.07,6.81 24.63,9.89 11.18,3.26 21.68,5.01 30.12,5.22 0,0 9.89,2.54 12.22,-7.75 0,0 4.36,-18.3 6.59,-27.48 0,0 4.24,-12.57 -9.52,-15.06 C 73.12,56.9 64.63,54.32 54.45,51.63 43.46,48.74 33.46,44.56 29.8,43.6 24.66,42.26 20.75,43.65 18.06,48.4"
   id="path6" />&#10;		&#10;	<path
   fill="#2f2f2f"
   d="m 46.185431,35.6872 c -1.547753,3.656503 -5.32744,5.624214 -8.453885,4.405609 -3.126444,-1.218607 -4.392636,-5.173404 -2.844884,-8.829908 1.534879,-3.657571 5.315634,-5.638156 8.441011,-4.406677 3.113572,1.217539 4.392636,5.173404 2.857758,8.830976"
   id="path9-6"
   style="stroke-width:1.29177" /><path
   fill="#2f2f2f"
   d="m 89.848123,44.250043 c -0.85669,4.232327 -4.441872,7.136484 -8.032606,6.514496 -3.577862,-0.62092 -5.791292,-4.563578 -4.94961,-8.771226 0.842751,-4.220521 4.455818,-7.14829 8.033679,-6.527369 3.576793,0.633794 5.791287,4.563578 4.948537,8.784099"
   id="path10-7"
   style="stroke-width:1.29177" /></g>&#10;	&#10;</g></svg>
