<?xml version="1.0" encoding="UTF-8" standalone="no"?>
<svg
   enable-background="new 0 0 128 128"
   viewBox="0 0 128 128"
   version="1.1"
   id="svg15600"
   sodipodi:docname="emoji_u1f9a7.svg"
   inkscape:version="1.2.2 (732a01da63, 2022-12-09)"
   xml:space="preserve"
   xmlns:inkscape="http://www.inkscape.org/namespaces/inkscape"
   xmlns:sodipodi="http://sodipodi.sourceforge.net/DTD/sodipodi-0.dtd"
   xmlns="http://www.w3.org/2000/svg"
   xmlns:svg="http://www.w3.org/2000/svg"><defs
     id="defs15604"><inkscape:path-effect
       effect="skeletal"
       id="path-effect41880"
       is_visible="true"
       lpeversion="1"
       pattern="m 93.547351,79.564358 c 0,-0.375376 0.530827,-0.679678 8.111849,-0.679678 7.58102,0 8.11185,0.304302 8.11185,0.679678 0,0.375376 -0.53083,0.679678 -8.11185,0.679678 -7.581022,0 -8.111849,-0.304302 -8.111849,-0.679678 z"
       copytype="single_stretched"
       prop_scale="1.488744"
       scale_y_rel="false"
       spacing="0"
       normal_offset="0"
       tang_offset="0"
       prop_units="false"
       vertical_pattern="false"
       hide_knot="false"
       fuse_tolerance="0" /><inkscape:path-effect
       effect="skeletal"
       id="path-effect41863"
       is_visible="true"
       lpeversion="1"
       pattern="m 93.547351,79.564358 c 0,-0.375376 0.530827,-0.679678 8.111849,-0.679678 7.58102,0 8.11185,0.304302 8.11185,0.679678 0,0.375376 -0.53083,0.679678 -8.11185,0.679678 -7.581022,0 -8.111849,-0.304302 -8.111849,-0.679678 z"
       copytype="single_stretched"
       prop_scale="0.96537284"
       scale_y_rel="false"
       spacing="0"
       normal_offset="0"
       tang_offset="0"
       prop_units="false"
       vertical_pattern="false"
       hide_knot="false"
       fuse_tolerance="0" /><radialGradient
       id="prop-2_1_"
       cx="63.060001"
       cy="56.060001"
       r="65.059998"
       gradientTransform="matrix(0.1743921,0.44891146,-0.44891146,0.1743921,-111.40246,59.101194)"
       gradientUnits="userSpaceOnUse">
		<stop
   offset="0.27"
   style="stop-color:#FFF176"
   id="stop237" />
		<stop
   offset="1"
   style="stop-color:#FFC400"
   id="stop239" />
	</radialGradient></defs><sodipodi:namedview
     id="namedview15602"
     pagecolor="#ffffff"
     bordercolor="#000000"
     borderopacity="0.25"
     inkscape:showpageshadow="2"
     inkscape:pageopacity="0.0"
     inkscape:pagecheckerboard="0"
     inkscape:deskcolor="#d1d1d1"
     showgrid="false"
     inkscape:zoom="2"
     inkscape:cx="38.25"
     inkscape:cy="71.000001"
     inkscape:window-width="1366"
     inkscape:window-height="697"
     inkscape:window-x="-8"
     inkscape:window-y="-8"
     inkscape:window-maximized="1"
     inkscape:current-layer="svg15600"
     showguides="false" /><linearGradient
     id="b"
     x1="63.696"
     x2="63.885"
     y1="115.66"
     y2="11.887"
     gradientUnits="userSpaceOnUse"><stop
       stop-color="#BF360C"
       offset="0"
       id="stop15530" /><stop
       stop-color="#E64A19"
       offset=".5049"
       id="stop15532" /><stop
       stop-color="#FF7043"
       offset="1"
       id="stop15534" /></linearGradient><linearGradient
     id="a"
     x1="65.962"
     x2="65.962"
     y1="23.278"
     y2="63.348"
     gradientUnits="userSpaceOnUse"><stop
       stop-color="#E64A19"
       offset="0"
       id="stop15559" /><stop
       stop-color="#FF7043"
       offset="1"
       id="stop15561" /></linearGradient><g
     id="g2874"
     transform="translate(-0.39255864,0.29442993)"><path
       id="path46001"
       style="fill:#855c52;fill-opacity:1;stroke-width:1.7;stroke-linecap:round"
       d="m 20.977233,37.495398 c -0.10243,1.694066 1.71197,5.349287 6.88985,12.099159 1.39367,1.81678 2.55523,2.623268 2.92189,2.288179 0.62776,-0.573706 -0.41951,-1.673036 -0.76586,-3.466337 -0.634,-3.28264 -1.4e-4,-4.959097 0.54867,-5.021952 0.89537,-0.102546 2.1903,8.867217 9.43702,11.98856 1.18733,0.511413 2.45617,1.105162 2.60928,0.741178 0.17357,-0.412602 -0.88727,-0.965442 -1.59016,-2.014658 -1.95451,-2.917502 -1.82401,-4.752149 -0.86582,-5.019798 0.76466,-0.213594 7.87292,5.321372 7.87292,7.304862 0,4.089089 -6.41767,10.527843 -6.41767,20.580214 0,14.834113 10.32951,31.232195 31.27934,31.232195 20.94981,0 32.078727,-15.869692 32.078727,-31.232195 0,-15.362501 -18.261237,-44.421792 -32.031937,-44.421792 -5.87133,0 -11.75237,4.472255 -16.57207,10.546632 -4.47139,-2.709494 -9.24567,-6.352973 -12.86388,-8.811603 -5.96986,-4.056609 -9.42457,-7.193259 -11.2412,-7.310577 -2.74908,-0.177535 -11.18315,8.765983 -11.2891,10.517933 z"
       sodipodi:nodetypes="sssssssssssssscsss" /><path
       style="fill:#855c52;fill-opacity:1;stroke-width:1.7;stroke-linecap:round"
       d="m 93.681533,47.044955 c 0,0 14.210967,11.390476 14.210967,21.479183 0,10.088707 -9.546297,14.319456 -9.546297,14.319456 L 85.653953,59.303277 Z"
       id="path46901" /><path
       d="m 72.863193,59.277891 c -6.35,0 -11.59485,-7.290285 -12.14,-7.17 -0.54515,0.120285 1.58742,5.575696 0.79869,5.940501 -0.55092,0.254816 -1.59202,-0.890501 -2.26869,-1.700501 -3.15458,-3.776176 -4.46034,-10.693297 -5.01,-10.81 -0.54966,-0.116703 0.13713,4.456743 -0.73709,4.713886 -0.77238,0.227186 -1.58958,-1.273886 -1.91291,-2.293886 -2.521,-7.952857 -1.52,-15.59 3.48,-26.36 3.79,-8.17 8.01,-15.5100002 17.78,-15.5100002 h 0.12 c 9.77,0 13.98,7.3400002 17.78,15.5100002 5,10.77 6.01,18.41 3.48,26.36 -0.72035,2.263565 -0.89987,3.1243 -1.64772,3.001068 -1.33707,-0.220325 -0.52892,-5.21921 -0.99228,-5.421068 -0.46336,-0.201858 -1.85622,7.034791 -5.01,10.81 -0.67667,0.81 -1.77746,1.961682 -2.34253,1.763262 -0.97058,-0.340808 1.39413,-5.506351 0.87253,-6.003262 -0.5216,-0.496911 -5.79,7.17 -12.14,7.17 z"
       fill="url(#a)"
       id="path15564-8"
       style="fill:#ed6c30;fill-opacity:1"
       sodipodi:nodetypes="szsszsscsscsszsszss" /><path
       d="m 81.093193,16.037891 c -0.62,-0.68 -2.15,-2.59 -3.22,-2.45 -0.24,0.03 -0.46,0.17 -0.67,0.3 -1.45,0.88 -4.23981,1.938135 -4.78,1.6 -0.54019,-0.338135 1.43263,-2.463441 0.83,-2.83 -0.60263,-0.366559 -5.92219,3.96398 -6.56,3.8 -0.63781,-0.16398 1.81398,-2.990331 1.33,-3.34 -0.48397,-0.349669 -3.11205,1.565445 -4.85827,5.71488 -1.38367,3.287907 -2.11173,6.82512 -2.54173,9.73512 -0.04,0.25 -0.81172,4.485781 -0.48,4.56 0.0878,0.01965 0.16,-0.07 0.22,-0.13 0.77,-0.72 1.82,-1.16 2.87,-1.5 2.67,-0.87 5.51,-1.28 8.34,-1.57 0.04,0 0.09,-0.01 0.13,-0.01 0.4,-0.04 0.8,-0.08 1.2,-0.11 0.4,0.03 0.8,0.07 1.2,0.11 0.04,0 0.09,0.01 0.13,0.01 2.83,0.29 5.67,0.7 8.34,1.57 1.05,0.34 2.10144,0.768481 2.87,1.5 0.0615,0.0585 0.12996,0.139669 0.22,0.13 0.59092,-0.06346 -0.91,-13.11 -4.57,-17.09 z"
       fill="#BDAAD1"
       id="path15568-8"
       style="fill:#855c52;fill-opacity:1"
       sodipodi:nodetypes="ccczzzzscsccccccccssc" /><path
       d="M 83.953193,32.517891"
       fill="none"
       opacity="0.2"
       stroke="#212121"
       stroke-miterlimit="10"
       id="path15572-9" /><path
       id="path15574-1"
       style="fill:#5d4037"
       d="m 67.925183,21.285707 c -5.36595,0 -6.01263,9.532817 -6.19636,10.803853 0.48012,-0.234677 0.99117,-0.425769 1.5039,-0.591796 2.34913,-0.765445 4.83059,-1.166327 7.32031,-1.451172 l 4.69141,-0.002 c 2.49239,0.284883 4.9765,0.686866 7.32813,1.453125 0.63067,0.204217 1.26193,0.441306 1.83203,0.755859 -0.32814,-2.234824 -1.53018,-10.967869 -5.77738,-10.967869 -1.78367,0 -3.22217,1.419088 -5.35102,1.419088 -2.12885,0 -3.56735,-1.419088 -5.35102,-1.419088 z"
       sodipodi:nodetypes="sccccccszs" /><ellipse
       cx="67.893188"
       cy="26.895926"
       rx="2.4400001"
       ry="2.8640499"
       id="ellipse15584-6"
       style="fill:#212121;stroke-width:1" /><ellipse
       cx="77.953186"
       cy="26.895926"
       rx="2.4400001"
       ry="2.8640499"
       id="ellipse15586-2"
       style="fill:#212121;stroke-width:1" /><path
       style="fill:#8d5f55;fill-opacity:1;stroke-width:1.7;stroke-linecap:round"
       d="m 72.635733,28.846385 c 6.80591,0 11.66726,6.540738 11.66726,13.611806 0,7.071068 -3.80069,11.844038 -11.57887,11.844038 -7.77817,0 -11.57887,-4.154252 -11.57887,-10.606601 0,-6.45235 3.97747,-14.849243 11.49048,-14.849243 z"
       id="path35078-7" /><path
       style="fill:#212121;fill-opacity:1;stroke-width:1"
       d="m 69.531683,38.016994 c 0.48574,0.801182 1.45251,1.174086 2.355638,0.897023 0.646126,-0.215945 0.712088,-1.3526 -0.113343,-2.414262 -0.825429,-1.061664 -1.442249,-1.350899 -2.103043,-0.882365 -0.660784,0.468535 -1.209938,1.196988 -0.139252,2.399604 z"
       id="path24117-1"
       sodipodi:nodetypes="ccssc" /><path
       style="fill:#212121;fill-opacity:1;stroke-width:1"
       d="m 74.321866,36.267451 c -0.684416,0.657244 -0.844812,1.67437 -0.399176,2.511241 0.349576,0.527168 1.493553,0.466833 2.317289,-0.625847 0.682782,-0.847419 0.98667,-1.716825 0.384509,-2.25865 -0.602151,-0.541825 -1.211642,-0.957355 -2.302622,0.373256 z"
       id="path24119-7"
       sodipodi:nodetypes="cccsc" /><path
       id="path35080-6"
       style="fill:#212121;fill-opacity:1;stroke-width:1.7;stroke-linecap:round"
       d="m 66.359525,43.115562 c -1.681851,1.340237 1.019249,6.289227 6.264917,6.289227 5.245668,0 7.925782,-4.888693 6.433473,-6.077887 -1.492309,-1.189195 -1.570208,0.572595 -5.997594,0.572595 -4.427388,0 -5.018945,-2.124172 -6.700796,-0.783935 z"
       sodipodi:nodetypes="zzzzz" /><g
       id="g2844"
       transform="translate(250.43344,-12.727922)"><path
         d="m -193.40499,119.31014 c -3.14889,0 -6.79853,-0.83829 -9.52373,-2.19593 -4.65111,-2.30527 -7.69028,-8.15525 -8.40662,-7.91798 -0.71632,0.23725 2.8872,5.20394 2.92734,5.24823 0.94692,1.04482 1.9705,1.78775 1.7767,2.24844 -0.17095,0.40639 -1.58731,-0.256 -2.91299,-0.827 -8.09119,-3.48509 -10.0294,-13.246 -11.02596,-13.38518 -0.99657,-0.13917 -0.13481,6.05932 -0.12518,6.09577 0.52092,1.97161 1.09698,2.7396 0.75112,2.99776 -0.1882,0.14047 -0.98037,0.0719 -2.52953,-1.96194 -2.71079,-3.5588 -4.64122,-5.99728 -5.21273,-9.81045 -0.35605,-2.375687 0.0385,-5.968205 2.18594,-8.282593 1.32889,-1.430548 3.11038,-2.159489 5.28669,-2.159489 h 0.11555 c 6.04742,0.0729 20.55932,5.166371 32.17268,23.954822 1.14592,1.84969 0.84741,3.11623 0.39482,3.85428 -0.8089,1.38499 -2.90816,2.14126 -5.8741,2.14126 z"
         fill="#FF7043"
         id="path29488-2"
         style="fill:#ed6c30;stroke-width:0.999997"
         sodipodi:nodetypes="sczssszsssscscccs" /><g
         id="g2830"><path
           style="fill:#855c52;fill-opacity:1;stroke-width:0.999999"
           d="m -200.30597,125.32708 12.29873,9.17186 c 0,0 6.373,-2.34059 8.55329,-4.62928 1.46443,-1.56642 1.58219,-4.93012 0.37255,-5.77659 -1.20964,-0.84647 -1.98207,-0.40052 -3.80325,0.54795 -2.28465,1.21606 -5.87048,3.38932 -6.13805,2.92587 -0.26759,-0.46347 -2.66469,-7.11276 -2.66469,-7.11276 1.1025,-0.60564 2.28855,-1.08443 3.51177,-1.4096 0.48737,0.13059 2.68688,2.15641 4.58852,1.88243 1.90162,-0.27399 2.6764,-2.67812 2.6764,-2.67812 l -5.49324,-6.30363 z"
           id="path29490-7"
           sodipodi:nodetypes="cccscsccsccc" /><path
           style="fill:#5d4037;fill-opacity:1;stroke-width:0.999999"
           d="m -204.31385,127.12608 c 1.57281,2.90258 11.16953,8.99986 13.68036,8.88912 2.51082,-0.1108 9.15373,-3.94603 9.22777,-4.70971 0.074,-0.76368 -5.08054,1.90334 -7.99593,0.59982 -2.24943,-1.05979 -4.19921,-2.65304 -5.67397,-4.65443 -0.23495,-0.5853 -0.87443,-2.58487 1.35772,-0.68089 2.23217,1.90397 5.06477,4.49119 6.47904,4.08663 1.41429,-0.40458 5.77894,-1.58565 6.56013,-2.5516 0.78117,-0.96598 1.93895,-4.31219 0.28975,-4.49291 -1.64921,-0.18074 -4.73892,1.60313 -4.73892,1.60313 0,0 -4.68411,-3.47509 -4.44683,-4.84796 0.23727,-1.37289 1.08375,-2.58254 2.30214,-2.25607 1.2184,0.32647 2.27355,1.26213 3.16782,0.84882 0.6447,-0.31042 1.26265,-0.66719 1.85384,-1.07031 l -4.15301,-5.94451 c -1.43909,-1.9396 -3.83646,-2.93454 -6.22896,-2.58316 -3.64877,0.45878 -8.40518,3.1019 -10.01768,6.19569 -1.79089,2.78481 -3.1469,8.82023 -1.66327,11.56834 z"
           id="path29492-4" /></g><path
         d="m -163.33961,119.31014 c 3.14889,0 6.79853,-0.83829 9.52373,-2.19593 4.65112,-2.30527 7.69029,-8.15525 8.40662,-7.91798 0.71632,0.23725 -2.88721,5.20394 -2.92734,5.24823 -0.94692,1.04482 -1.9705,1.78775 -1.7767,2.24844 0.17095,0.40639 1.58731,-0.256 2.91299,-0.827 8.09119,-3.48509 10.02939,-13.246 11.02596,-13.38518 0.99657,-0.13917 0.13481,6.05932 0.12518,6.09577 -0.52093,1.97161 -1.09698,2.7396 -0.75111,2.99776 0.18819,0.14047 0.98036,0.0719 2.52952,-1.96194 2.71079,-3.5588 4.64123,-5.99728 5.21273,-9.81045 0.35605,-2.375687 -0.0386,-5.968205 -2.18594,-8.282593 -1.32889,-1.430548 -3.11038,-2.159489 -5.28669,-2.159489 h -0.11555 c -6.04742,0.0729 -20.55931,5.166371 -32.17268,23.954822 -1.14592,1.84969 -0.84741,3.11623 -0.39482,3.85428 0.8089,1.38499 2.90816,2.14126 5.8741,2.14126 z"
         fill="#FF7043"
         id="path49434"
         style="fill:#ed6c30;stroke-width:0.999997"
         sodipodi:nodetypes="sczssszsssscscccs" /><g
         id="g2834"><path
           style="fill:#855c52;fill-opacity:1;stroke-width:0.999999"
           d="m -156.43862,125.32708 -12.29874,9.17186 c 0,0 -6.37299,-2.34059 -8.55329,-4.62928 -1.46442,-1.56642 -1.58219,-4.93012 -0.37255,-5.77659 1.20964,-0.84647 1.98207,-0.40052 3.80325,0.54795 2.28465,1.21606 5.87048,3.38932 6.13805,2.92587 0.26759,-0.46347 2.6647,-7.11276 2.6647,-7.11276 -1.10251,-0.60564 -2.28855,-1.08443 -3.51178,-1.4096 -0.48737,0.13059 -2.68688,2.15641 -4.58852,1.88243 -1.90162,-0.27399 -2.6764,-2.67812 -2.6764,-2.67812 l 5.49324,-6.30363 z"
           id="path49436"
           sodipodi:nodetypes="cccscsccsccc" /><path
           style="fill:#5d4037;fill-opacity:1;stroke-width:0.999999"
           d="m -152.43074,127.12608 c -1.57282,2.90258 -11.16954,8.99986 -13.68037,8.88912 -2.51082,-0.1108 -9.15372,-3.94603 -9.22777,-4.70971 -0.074,-0.76368 5.08055,1.90334 7.99594,0.59982 2.24942,-1.05979 4.1992,-2.65304 5.67396,-4.65443 0.23495,-0.5853 0.87444,-2.58487 -1.35771,-0.68089 -2.23218,1.90397 -5.06478,4.49119 -6.47905,4.08663 -1.41429,-0.40458 -5.77894,-1.58565 -6.56012,-2.5516 -0.78118,-0.96598 -1.93896,-4.31219 -0.28976,-4.49291 1.64921,-0.18074 4.73893,1.60313 4.73893,1.60313 0,0 4.6841,-3.47509 4.44682,-4.84796 -0.23727,-1.37289 -1.08375,-2.58254 -2.30214,-2.25607 -1.2184,0.32647 -2.27355,1.26213 -3.16782,0.84882 -0.6447,-0.31042 -1.26265,-0.66719 -1.85384,-1.07031 l 4.15301,-5.94451 c 1.43909,-1.9396 3.83646,-2.93454 6.22896,-2.58316 3.64877,0.45878 8.40518,3.1019 10.01768,6.19569 1.79089,2.78481 3.1469,8.82023 1.66328,11.56834 z"
           id="path49438" /></g></g><g
       id="g2821"
       transform="translate(303.70237,-42.072854)"><path
         id="prop-2-6"
         style="fill:#5d4037;fill-opacity:1;stroke-width:0.999998"
         d="m -199.12864,144.55782 c -1.92355,-0.46854 -1.44552,-3.81967 -1.44552,-3.81967 0,0 -0.68737,1.91 -1.36251,3.54139 -0.43226,1.04417 -1.72473,2.31297 -3.01848,2.09814 -1.29377,-0.21481 -1.93145,-2.05365 -1.7299,-3.15605 l 0.7863,-4.31976 c 0,0 -0.0627,1.53039 -2.15521,2.79785 -0.81273,0.6005 -1.95717,0.43173 -2.55768,-0.38101 -0.11414,-0.15279 -0.20156,-0.32149 -0.26043,-0.50124 -0.24843,-0.85094 -0.24889,-1.75438 -0.006,-2.60989 0.80945,-3.21701 2.75708,-11.72291 2.05214,-13.18512 -0.27495,-0.5668 -0.3857,-0.58402 -2.54308,1.6725 -1.25816,1.44168 -3.09864,2.24428 -5.01018,2.18731 -1.1088,-0.0348 -2.09515,-1.79839 -1.40414,-2.74044 0.50377,-0.70503 2.03585,-1.66713 3.40184,-3.08498 2.23328,-2.3572 4.74775,-6.76779 5.01511,-7.15095 1.93713,-2.79529 5.54881,-8.00453 12.38573,-6.67361 6.05356,1.17521 8.99933,8.08134 9.1065,12.16353 0.23325,7.79011 -1.98069,15.90657 -2.02963,16.0625 -0.50548,1.63118 -1.51681,3.32751 -3.03928,3.3275 -1.88275,0.004 -1.72724,-2.47254 -1.72724,-2.47254 -0.26617,1.49991 -0.77074,2.95006 -1.49892,4.28989 -0.78472,1.30705 -1.66076,2.26621 -2.95925,1.95464 z" /><path
         style="fill:#855c52;fill-opacity:1;stroke-width:0.999998"
         d="m -195.51168,142.99935 c -0.50514,0.84248 -1.68418,2.81203 -3.79221,2.30564 -0.74609,-0.18667 -1.33618,-0.62005 -1.71102,-1.24662 -0.49931,1.4919 -2.21866,3.55087 -4.51827,2.96008 -0.85766,-0.2199 -1.73784,-0.93499 -1.9675,-2.52705 -0.16584,-1.14589 0.24378,-2.38937 0.24378,-2.38937 -0.11552,0.0832 -2.13028,1.81881 -3.82178,-0.81547 -0.68051,-1.06096 -0.42751,-2.66528 -0.15333,-3.63709 1.39574,-5.54228 2.1364,-12.3197 1.80588,-11.97224 -1.51049,2.69525 -4.65437,4.34375 -7.04342,3.97391 -1.1022,-0.0319 -2.75765,-2.19272 -1.76255,-3.49388 0.8174,-1.06782 3.2092,-2.49535 4.77258,-4.50467 1.20902,-1.55404 4.95778,-7.96112 7.34019,-9.77932 0,0 -1.15697,1.65977 -2.72449,4.18004 -1.67437,2.68224 -3.79761,6.26724 -4.98301,7.54374 -1.04949,1.14704 -2.48904,2.05129 -3.33467,3.00412 -0.33901,0.43839 -0.33813,1.68122 1.29266,1.84726 1.63078,0.16605 3.1478,-0.80663 4.6159,-2.48321 1.72824,-1.8105 1.63906,-2.2797 2.27915,-2.01357 2.14383,0.9087 -0.69286,12.06013 -1.15865,14.47003 -0.20432,0.71464 -0.20141,1.46928 -0.006,2.15472 0.32093,1.3759 2.12227,0.59943 2.12227,0.59943 1.35657,-0.94867 1.26598,-1.18184 1.94177,-3.164 0.47759,-1.40679 1.75043,-6.22223 2.03164,-9.13547 0,0 0.57338,-0.17345 0.69267,1.07814 0.12111,1.25635 -0.94736,6.78105 -1.93519,9.91949 0,0 -1.4452,4.13211 -0.56013,5.31077 0.90194,1.19399 1.78836,0.71276 2.50892,-0.0546 0.72241,-0.76257 1.36127,-2.27583 2.01231,-4.53315 1.16287,-4.0553 2.52444,-10.16484 2.52444,-10.16484 0,0 0.51466,-0.0849 0.60944,0.96261 0.18822,2.13393 -1.92115,9.84283 -1.92115,9.84283 -0.18048,0.60683 -0.0737,2.36168 1.18587,2.57332 0.60814,0.14164 1.3637,-0.23951 2.27726,-1.91972 1.09977,-2.00448 2.32043,-7.29254 2.9733,-11.73024 0,0 0.57353,0.0948 0.62097,1.23195 0.0456,1.13236 -0.86734,6.26803 -0.83115,7.00973 0.0363,0.74169 0.0819,1.47968 1.02764,1.61615 1.27213,0.10271 1.84924,-0.92102 2.40945,-2.72138 -0.002,-0.0759 2.56961,-8.61061 2.23403,-16.31167 -0.17935,-4.07058 -2.36947,-7.84744 -7.17277,-11.28821 4.46541,1.48548 8.34734,7.0093 8.44424,11.74171 0.15762,7.96188 -2.04182,16.24249 -2.06433,16.31148 -0.40645,1.30796 -1.24506,4.02698 -4.04597,3.79524 -0.64464,-0.0945 -1.12824,-0.3668 -1.4839,-0.73243 -0.26433,0.74342 -0.58917,1.47204 -0.97454,2.18583 z"
         id="path243" /></g><g
       id="g2826"
       transform="translate(305.95237,-42.776281)"><path
         id="prop-2-0-2"
         style="fill:#5d4037;fill-opacity:1;stroke-width:0.999998"
         d="m -293.25976,52.466853 c 1.88298,-0.611598 3.23629,2.491164 3.23629,2.491164 0,0 -0.41826,-1.986359 -0.7006,-3.729214 -0.18057,-1.115593 0.25286,-2.874126 1.46663,-3.370836 1.21377,-0.496722 2.72221,0.733133 3.12972,1.777096 l 1.5998,4.088913 c 0,0 -0.75045,-1.335235 0.36449,-3.512834 0.3762,-0.937871 1.43871,-1.395348 2.3766,-1.019126 0.17738,0.07005 0.34037,0.167705 0.48488,0.289742 0.65834,0.593632 1.13324,1.362183 1.37609,2.217652 1.00084,3.162696 3.81102,11.42384 5.17888,12.297866 0.53167,0.337911 0.63497,0.294394 1.28562,-2.758929 0.31343,-1.887629 1.45806,-3.537292 3.11464,-4.492794 0.96179,-0.552797 2.72745,0.429928 2.63422,1.594513 -0.0584,0.864543 -0.8568,2.487952 -1.27452,4.411938 -0.66237,3.178866 -0.48552,8.252774 -0.51178,8.719259 -0.18026,3.396115 -0.51764,9.725941 -7.03463,12.184316 -5.76862,2.179432 -11.90262,-2.150222 -14.1379,-5.567717 -4.29007,-6.506576 -6.66909,-14.576192 -6.70934,-14.734588 -0.42658,-1.65357 -0.45695,-3.628258 0.83863,-4.42789 1.60018,-0.992044 2.76846,1.196844 2.76846,1.196844 -0.56134,-1.416152 -0.89357,-2.915202 -0.97764,-4.437814 -0.0188,-1.524399 0.22295,-2.800719 1.49157,-3.217596 z" /><path
         style="fill:#855c52;fill-opacity:1;stroke-width:0.999998"
         d="m -295.5191,55.692775 c -0.0126,-0.982231 -0.0438,-3.277502 2.01605,-3.95378 0.73295,-0.23302 1.4627,-0.174156 2.11077,0.162143 -0.35869,-1.531797 0.023,-4.186958 2.29018,-4.892038 0.84531,-0.263331 1.9699,-0.117119 3.00154,1.117043 0.74295,0.888011 1.04743,2.161341 1.04743,2.161341 0.0546,-0.131445 0.85749,-2.666613 3.68048,-1.313362 1.13634,0.545413 1.76369,2.043516 2.0408,3.014488 1.72322,5.449356 4.65262,11.605694 4.7514,11.136414 -0.13025,-3.08691 1.67923,-6.140965 3.90648,-7.081038 0.95466,-0.551796 3.49834,0.417528 3.33494,2.047415 -0.13473,1.337997 -1.42028,3.809005 -1.69531,6.339994 -0.2126,1.95744 -0.0374,9.378573 -1.10985,12.177101 0,0 0.11278,-2.020081 0.12297,-4.988037 0.016,-3.161904 -0.06,-7.327792 0.27817,-9.036646 0.29063,-1.527314 1.04068,-3.05288 1.25984,-4.307857 0.0582,-0.551108 -0.59531,-1.608237 -2.07024,-0.893007 -1.47494,0.715283 -2.25499,2.339723 -2.62371,4.53752 -0.51973,2.448383 -0.19742,2.800818 -0.88189,2.910546 -2.30159,0.352724 -5.7447,-10.626622 -6.61408,-12.922003 -0.20149,-0.715444 -0.60028,-1.3561 -1.12644,-1.836846 -0.99575,-1.002271 -2.12081,0.604579 -2.12081,0.604579 -0.65611,1.519793 -0.45656,1.670634 0.01,3.712306 0.33247,1.447975 1.77854,6.214261 3.06934,8.841013 0,0 -0.39683,0.448758 -1.1557,-0.553649 -0.76294,-1.005495 -2.75543,-6.26799 -3.56317,-9.457529 0,0 -0.94049,-4.275323 -2.31267,-4.813481 -1.39464,-0.542317 -1.89619,0.332769 -2.10633,1.364208 -0.21424,1.028353 0.0369,2.651624 0.66853,4.914466 1.1404,4.061678 3.19066,9.97578 3.19066,9.97578 0,0 -0.39336,0.34258 -1.02421,-0.499047 -1.28096,-1.717026 -3.53488,-9.384909 -3.53488,-9.384909 -0.16512,-0.611191 -1.17768,-2.048424 -2.36071,-1.566943 -0.5919,0.198879 -1.03466,0.920065 -0.92958,2.82969 0.11701,2.283359 1.85565,7.424427 3.6309,11.543633 0,0 -0.53789,0.220544 -1.17548,-0.722191 -0.63359,-0.939623 -2.55408,-5.789402 -2.97443,-6.401545 -0.4205,-0.612066 -0.8469,-1.216117 -1.72334,-0.835539 -1.13647,0.580761 -1.08988,1.755026 -0.621,3.581296 0.0421,0.06318 2.33588,8.676925 6.66626,15.053981 2.2906,3.369712 6.13802,5.433364 12.03262,5.838501 -4.58009,1.081264 -10.78473,-1.580394 -13.35278,-5.556597 -4.31593,-6.692475 -6.7935,-14.894162 -6.81057,-14.964689 -0.3411,-1.32651 -1.05559,-4.080745 1.44961,-5.35466 0.5982,-0.25818 1.15273,-0.280451 1.64742,-0.156111 -0.16551,-0.771465 -0.27179,-1.562099 -0.31876,-2.37191 z"
         id="path243-3" /><path
         style="fill:#855c52;fill-opacity:1;stroke-width:35.9055;stroke-linecap:round"
         d="m -274.5565,63.626477 c 0,0 -0.93845,0.281228 -2.99723,1.53942 -3.20664,1.959714 -4.00664,6.862705 -3.44575,7.225241 0.56084,0.362554 1.34965,-4.072926 4.54488,-6.226436 1.84283,-1.242023 2.59634,-1.421987 2.59634,-1.421987 z"
         id="path1904-0"
         sodipodi:nodetypes="cssscc" /></g></g></svg>
