<?xml version="1.0" encoding="UTF-8" standalone="no"?>
<!-- Generator: Adobe Illustrator 16.0.0, SVG Export Plug-In . SVG Version: 6.00 Build 0)  -->

<svg
   version="1.1"
   id="レイヤー_1"
   x="0px"
   y="0px"
   width="128px"
   height="128px"
   viewBox="0 0 128 128"
   enable-background="new 0 0 128 128"
   xml:space="preserve"
   sodipodi:docname="emoji_u1f6bc.svg"
   inkscape:version="1.3 (0e150ed6c4, 2023-07-21)"
   xmlns:inkscape="http://www.inkscape.org/namespaces/inkscape"
   xmlns:sodipodi="http://sodipodi.sourceforge.net/DTD/sodipodi-0.dtd"
   xmlns="http://www.w3.org/2000/svg"
   xmlns:svg="http://www.w3.org/2000/svg"><defs
   id="defs2" /><sodipodi:namedview
   id="namedview2"
   pagecolor="#ffffff"
   bordercolor="#000000"
   borderopacity="0.25"
   inkscape:showpageshadow="2"
   inkscape:pageopacity="0.0"
   inkscape:pagecheckerboard="0"
   inkscape:deskcolor="#d1d1d1"
   inkscape:zoom="2.867097"
   inkscape:cx="81.26687"
   inkscape:cy="55.979968"
   inkscape:window-width="1366"
   inkscape:window-height="697"
   inkscape:window-x="-8"
   inkscape:window-y="-8"
   inkscape:window-maximized="1"
   inkscape:current-layer="レイヤー_1" />&#10;<path
   d="M 121.005,0.115 H 6.995 c -3.78,0 -6.88,3.09 -6.88,6.88 v 114.01 c 0,3.79 3.1,6.88 6.88,6.88 h 114.01 c 3.78,0 6.88,-3.09 6.88,-6.88 V 6.995 c 0,-3.79 -3.1,-6.88 -6.88,-6.88 z"
   fill="#40c0e7"
   id="path1-8"
   style="fill:#f79329" /><g
   id="g2"
   transform="matrix(0.89988707,0,0,0.89988707,6.4066154,6.4090255)"
   style="stroke-width:1.11125">&#10;	<path
   fill="#fcc21b"
   d="m 108.57,43.58 c -3.31,-1.28 -9.09,-1.48 -10.52,3.46 -0.37,1.3 -0.19,2.39 -0.35,3.71 -0.5,4.19 -6.51,5.92 -10.14,4.97 -1.67,-0.44 -3.01,-0.86 -4.1,-1.25 0.09,-0.09 0.21,-0.16 0.3,-0.25 C 97.47,41.22 95.01,19.34 78.91,9.71 74.53,7.09 69.53,5.66 64.46,5.49 64.16,5.48 63.86,5.51 63.55,5.51 48.8,5.51 49.19,-0.85 45.88,0.45 c -3.35,1.31 -2.37,6.64 1.21,10.02 -15.04,9.97 -17.11,31.08 -3.74,43.76 0.18,0.17 0.39,0.3 0.57,0.47 -0.97,0.33 -2.11,0.68 -3.48,1.04 -3.64,0.95 -9.64,-0.78 -10.14,-4.97 -0.16,-1.32 0.03,-2.41 -0.36,-3.71 -1.42,-4.94 -7.21,-4.75 -10.52,-3.46 -5,1.94 -4.93,7.66 -2.92,12.25 1.36,3.13 3.47,8.44 12.72,11.87 6,2.23 11.09,1.91 14.74,0.73 -0.06,0.33 -0.12,0.67 -0.2,1 -0.15,0.64 -0.31,1.26 -0.44,1.88 -0.9,0.48 -1.72,1.17 -2.43,2.1 -2.18,2.85 -2.9,7.19 -3.12,8.92 -0.54,4.39 0.03,8.64 1.49,12.42 -3.28,2.31 -6.85,6.24 -6.85,10.81 0,8.72 6.92,10.38 7.51,11.75 0.76,1.81 -0.43,3.24 -0.26,5.18 0.24,2.7 2.96,4.96 5.54,5.21 2.65,0.26 5.22,-0.73 7.07,-2.47 3.67,-3.46 5.03,-9.68 1.1,-13.45 -2.25,-2.15 -5.58,-1.89 -4.46,-3.71 0.28,-0.46 1.18,-0.65 2.27,-0.83 0.12,0.06 0.24,0.13 0.36,0.19 3.04,1.41 6.97,2.16 11.37,2.16 4.76,0 9.59,-0.9 13.44,-2.43 1.32,0.2 2.41,0.38 2.73,0.9 1.12,1.82 -2.21,1.56 -4.46,3.71 -3.92,3.77 -2.56,9.99 1.11,13.45 1.84,1.74 4.41,2.72 7.06,2.47 2.58,-0.25 5.31,-2.5 5.54,-5.21 0.17,-1.94 -1.03,-3.37 -0.26,-5.18 0.59,-1.37 7.51,-3.03 7.51,-11.75 0,-4.35 -3.25,-8.14 -6.4,-10.48 2,-4.65 2.32,-10.04 0.74,-15.67 -0.91,-3.25 -2.56,-5.79 -4.84,-7.52 0.08,-0.56 0.13,-1.13 0.09,-1.7 -0.03,-0.49 -0.16,-0.99 -0.24,-1.49 3.56,0.94 8.32,1.07 13.83,-0.99 9.25,-3.43 11.35,-8.74 12.72,-11.87 2.02,-4.61 2.09,-10.32 -2.91,-12.27 z"
   id="path1"
   style="fill:#ffffff;fill-opacity:1;stroke-width:1.26504"
   sodipodi:nodetypes="ccccccccsccccccccccccccccsccccccccscscccccscccccccc" />&#10;	<path
   fill="#ffffff"
   d="m 75.92,101.18 c -5.67,2.97 -16.68,3.6 -21.98,1.13 -1.22,-0.57 -2.46,-1.3 -3.76,-2.22 -5.05,-3.55 -7.64,-10.1 -6.79,-17.08 0.21,-1.75 0.79,-4.13 1.7,-5.64 4.1,3.82 13.14,3.97 19.31,3.92 5.11,-0.04 12.19,-0.13 16.51,-2.45 0.71,-0.38 1.31,-0.84 1.85,-1.35 0.75,0.9 1.35,2.02 1.74,3.45 2.45,8.72 -0.68,16.1 -8.58,20.24 z"
   id="path2"
   style="fill:#f79329;fill-opacity:1;stroke-width:1.26504" />&#10;</g>&#10;</svg>
