<?xml version="1.0" encoding="UTF-8" standalone="no"?>
<svg
   width="128px"
   height="128px"
   version="1.1"
   xml:space="preserve"
   style="fill-rule:evenodd;clip-rule:evenodd;stroke-linejoin:round;stroke-miterlimit:2;"
   id="svg22"
   sodipodi:docname="emoji_u1f9ca.svg"
   inkscape:version="1.3 (0e150ed6c4, 2023-07-21)"
   xmlns:inkscape="http://www.inkscape.org/namespaces/inkscape"
   xmlns:sodipodi="http://sodipodi.sourceforge.net/DTD/sodipodi-0.dtd"
   xmlns="http://www.w3.org/2000/svg"
   xmlns:svg="http://www.w3.org/2000/svg"><sodipodi:namedview
     id="namedview22"
     pagecolor="#ffffff"
     bordercolor="#000000"
     borderopacity="0.25"
     inkscape:showpageshadow="2"
     inkscape:pageopacity="0.0"
     inkscape:pagecheckerboard="0"
     inkscape:deskcolor="#d1d1d1"
     inkscape:zoom="4.0546875"
     inkscape:cx="37.487476"
     inkscape:cy="81.017341"
     inkscape:window-width="1366"
     inkscape:window-height="697"
     inkscape:window-x="-8"
     inkscape:window-y="-8"
     inkscape:window-maximized="1"
     inkscape:current-layer="svg22" /><path
     d="M63.03,5.38L16.79,20.85L10.21,24.64L9.38,49.48L15.33,92.85L46.24,109.55L65.94,116.65L80.47,110.7L114.64,95.03C114.64,95.03 117.98,94.76 116.42,89.65C114.86,84.54 116.84,36.31 116.84,36.31L117.02,24.73C117.02,24.73 117,22 107.95,20.02C98.9,18.04 63.03,5.38 63.03,5.38Z"
     style="fill:#fff;fill-opacity:0.5;fill-rule:nonzero;"
     id="path1" /><path
     d="M 15.32,29.69 63.28,51.61 65.76,114.11794 60.4,114.04 23.86,97.78 15.33,92.85 9.59,35.94 10.9,27.63 Z"
     style="fill:#196ca2;fill-rule:nonzero"
     id="path7"
     sodipodi:nodetypes="ccccccccc" /><path
     d="M64.52,51.89L65.49,115.43L108.9,97.92L115.38,93.37L115.01,87.85L117.03,24.73L110.42,26.39L64.52,51.89Z"
     style="fill:#42ade7;fill-rule:nonzero"
     id="path8" /><g
     transform="matrix(1,0,0,1,0.14,-0.73)"
     id="g9"
     style="fill:#40c0e7"><path
       d="M15.87,31.2L41.78,43.05L63.49,51.8L114.56,26.1L115.74,24.99L62.67,6.11L13.8,21.96L8.84,25.55L8.98,28.72L15.87,31.2Z"
       style="fill:#40c0e7;fill-rule:nonzero"
       id="path9" /></g><path
     d="m 29.247514,25.263227 c -1.606668,-2.363833 -8.051809,0.203142 -10.526447,1.5605 -2.474639,1.357358 -3.924334,3.074831 -3.675023,4.986212 0.24931,1.911381 3.471881,2.871688 6.999164,4.432188 3.527283,1.5605 30.351256,13.758251 32.373442,14.847831 2.880922,1.560499 5.97422,3.564218 6.897593,9.612308 0.600192,3.979736 2.253029,42.188894 2.317665,43.500084 0.14774,3.10253 -0.120038,7.59935 1.754408,7.52548 1.643603,-0.0646 1.311189,-4.15517 1.26502,-7.58088 -0.04617,-3.42572 0.286246,-40.674566 0.295479,-43.195373 0.01847,-3.148701 1.034178,-6.694451 3.148701,-8.559664 2.114523,-1.865212 6.131194,-4.229046 10.895796,-6.657516 5.706442,-2.89939 18.43975,-9.159856 23.268988,-11.320548 4.82924,-2.160691 7.59936,-2.816286 7.59936,-5.189353 0,-2.373068 -10.9789,-5.641807 -12.280858,-5.743378 -1.311189,-0.101571 -2.714716,0.350882 -2.419236,1.966784 0.304713,1.606668 1.532798,4.349085 -0.932607,6.509776 -2.465404,2.160692 -7.802498,5.097017 -10.849627,6.629815 C 80.125342,41.219105 67.45667,47.904322 63.126053,47.59961 58.795436,47.294897 56.08072,46.537731 49.580178,43.823016 43.088868,41.1083 35.277137,37.174733 31.454374,35.115612 28.739659,33.64745 26.874446,31.486758 27.022186,29.224496 c 0.166207,-2.253029 3.61962,-1.920615 2.225328,-3.961269 z"
     style="fill:#ffffff;fill-rule:nonzero;stroke-width:1"
     id="path16" /><path
     d="m 43.75,18.824671 c 0.67,1.73 6.71,-0.05 9.6,-0.93 2.89,-0.87 7.85,-2.45 10.8,-2.62 2.94,-0.16 12.81,2.84 15.32,3.33 2.51,0.49 4.69,0.6 5.23,-0.27 0.54,-0.87 -3,-2.78 -7.96,-4.47 C 71.78,12.174671 66,9.5046712 63.54,9.8246712 61,10.164671 55.55,12.654671 51.22,14.184671 c -2.62,0.93 -8.29,2.51 -7.47,4.64 z"
     style="fill:#ffffff;fill-rule:nonzero"
     id="path17" /><defs
     id="defs22"><radialGradient
       id="_Radial1"
       cx="0"
       cy="0"
       r="1"
       gradientUnits="userSpaceOnUse"
       gradientTransform="matrix(-35.6798,29.3038,-39.0732,-47.5731,61.8423,58.672)"><stop
         offset="0"
         style="stop-color:#fff;stop-opacity:0.9"
         id="stop17" /><stop
         offset="1"
         style="stop-color:#fcfcfc;stop-opacity:0"
         id="stop18" /></radialGradient><radialGradient
       id="_Radial2"
       cx="0"
       cy="0"
       r="1"
       gradientUnits="userSpaceOnUse"
       gradientTransform="matrix(45.0952,30.8411,-36.5176,53.3997,69.4634,53.8459)"><stop
         offset="0"
         style="stop-color:#42ade7;stop-opacity:0.9"
         id="stop19" /><stop
         offset="1"
         style="stop-color:#32afe0;stop-opacity:0"
         id="stop20" /></radialGradient><radialGradient
       id="_Radial3"
       cx="0"
       cy="0"
       r="1"
       gradientUnits="userSpaceOnUse"
       gradientTransform="matrix(-0.0941643,-47.1483,96.6116,-0.192949,63.6479,49.4808)"><stop
         offset="0"
         style="stop-color:#42ade7;stop-opacity:0.9"
         id="stop21" /><stop
         offset="1"
         style="stop-color:#62c0ea;stop-opacity:0.34"
         id="stop22" /></radialGradient></defs><path
     id="path6"
     style="fill:#1995b7;fill-rule:nonzero;fill-opacity:1"
     d="M 62.738281,3.8710938 C 58.367302,3.902771 50.147591,8.0291433 39.160156,11.779297 26.650115,16.049136 16.098821,18.898043 12.419922,20.740234 9.3888262,22.258041 7.865681,24.740586 7.7304688,28.050781 7.595681,31.350586 7.316963,40.719638 9.8007812,64.699219 c 0.7561778,7.300389 3.5286088,25.85994 3.8886718,27.169922 0.665058,2.419618 1.422361,2.625979 2.240235,3.28125 1.158308,0.928022 3.013815,1.761555 5.410156,3.419921 1.95024,1.349646 8.169926,4.830428 15.410156,8.419918 10.489736,5.20049 23.160895,10.41841 28.380859,10.50977 7.35001,0.12864 18.189599,-5.82996 29.669922,-11.19922 11.269629,-5.27072 20.579209,-9.586576 22.629619,-11.802486 1.16115,-1.254874 0.8489,-4.321746 0.8489,-5.828372 0,-2.619998 -0.13938,-27.700637 0.14062,-39.140625 0.28,-11.439989 2.07039,-22.599613 -1.09961,-26.599609 C 114.15032,18.929692 104.36335,16.860124 88.099609,11.210938 77.963369,7.6901298 67.550516,4.4701206 63.560547,3.9199219 63.303644,3.8844962 63.02968,3.8689819 62.738281,3.8710938 Z m 0.8125,4.3085937 c 3.309997,0 25.770004,8.1297675 29.5,9.5097655 3.719997,1.379999 19.709059,5.930862 20.539059,8.130859 0.83,2.199998 1.12581,63.388628 0.21921,65.267143 -0.90661,1.878515 -11.51018,7.33177 -19.928051,11.172315 -7.499984,3.41998 -24.981258,11.10117 -29.03125,11.45117 -4.049992,0.35 -18.520482,-6.52158 -24.980468,-9.60156 C 32.806243,100.7474 20.59957,93.696046 18.327404,91.467478 16.508678,89.68365 15.860607,76.410923 14.480609,62.210938 13.10061,48.010952 11.721079,30.100544 12.961078,27.060547 c 1.239998,-3.039997 9.190005,-5.381252 14.75,-7.03125 C 44.94092,14.929302 60.240785,8.1796875 63.550781,8.1796875 Z"
     sodipodi:nodetypes="ssssssssssssssssssscszcscssscs" /></svg>
