<?xml version="1.0" encoding="UTF-8" standalone="no"?>
<svg
   width="128"
   height="128"
   style="enable-background:new 0 0 128 128;"
   version="1.1"
   id="svg31958"
   sodipodi:docname="emoji_u1f4f3.svg"
   inkscape:version="1.2.2 (732a01da63, 2022-12-09)"
   xmlns:inkscape="http://www.inkscape.org/namespaces/inkscape"
   xmlns:sodipodi="http://sodipodi.sourceforge.net/DTD/sodipodi-0.dtd"
   xmlns="http://www.w3.org/2000/svg"
   xmlns:svg="http://www.w3.org/2000/svg">
  <defs
     id="defs31962" />
  <sodipodi:namedview
     id="namedview31960"
     pagecolor="#ffffff"
     bordercolor="#000000"
     borderopacity="0.25"
     inkscape:showpageshadow="2"
     inkscape:pageopacity="0.0"
     inkscape:pagecheckerboard="0"
     inkscape:deskcolor="#d1d1d1"
     showgrid="false"
     inkscape:zoom="2.9996795"
     inkscape:cx="44.171385"
     inkscape:cy="75.341381"
     inkscape:window-width="1366"
     inkscape:window-height="697"
     inkscape:window-x="-8"
     inkscape:window-y="-8"
     inkscape:window-maximized="1"
     inkscape:current-layer="svg31958" />
  <g
     id="g46812"
     transform="translate(-24.669088)">
    <g
       id="g31956"
       transform="translate(24.669088)">
      <g
         id="g31942">
        <path
           d="M 88.46,6.33 C 84.22,4.43 71.85,3.22 64,3.22 c -7.84,0 -20.23,1.21 -24.46,3.11 -4.15,1.86 -5.82,5.54 -5.82,8.99 v 97.35 c 0,3.46 1.67,7.13 5.82,8.99 4.23,1.9 16.62,3.11 24.46,3.11 7.85,0 20.22,-1.21 24.46,-3.11 4.15,-1.86 5.82,-5.54 5.82,-8.99 V 15.33 c 0,-3.46 -1.67,-7.13 -5.82,-9 z"
           style="fill:#2f2f2f;fill-opacity:1"
           id="path31929" />
        <circle
           cx="83.064957"
           cy="10.417487"
           r="1.99"
           style="fill:#ffffff"
           id="circle31933" />
        <linearGradient
           id="SVGID_1_"
           gradientUnits="userSpaceOnUse"
           x1="63.999699"
           x2="63.999699"
           y1="104.7666"
           y2="22.714399">
          <stop
             offset="0"
             style="stop-color:#FFFFFF"
             id="stop31935" />
          <stop
             offset="1"
             style="stop-color:#00A0D6"
             id="stop31937" />
        </linearGradient>
        <rect
           height="92.582588"
           style="fill:#196ca2;stroke-width:1"
           width="49.57"
           x="39.209999"
           y="17.443701"
           id="rect31940" />
      </g>
      <g
         id="g31954">
        <path
           d="m 48.37,102.93 v 0.7 l -1.53,-1.11 1.53,-1.12 v 0.7 0 h 0.88 c 1.72,0 2.83,0.51 2.83,1.99 0,1.49 -1.11,2 -2.83,2 h -1.98 v -0.83 h 1.98 c 1.46,0 2,-0.32 2,-1.17 0,-0.84 -0.53,-1.16 -2,-1.16 z"
           style="fill:#ffffff"
           id="path31944" />
        <path
           d="m 66.91,105.81 h -5.73 v -2.89 l 2.87,-1.21 2.87,1.21 v 2.89 z m -4.9,-0.84 h 4.07 v -1.51 l -2.03,-0.86 -2.04,0.86 z"
           style="fill:#ffffff"
           id="path31946" />
        <g
           id="g31952">
          <path
             d="m 80.55,105.81 h -4.8 v -3.04 h 4.8 z m -3.96,-0.84 h 3.14 v -1.37 h -3.14 z"
             style="fill:#ffffff"
             id="path31948" />
          <polygon
             points="81.08,110.1 81.08,108.3 77.53,108.3 77.53,107.47 81.91,107.47 81.91,110.1 "
             style="fill:#ffffff"
             id="polygon31950"
             transform="translate(0,-6)" />
        </g>
      </g>
    </g>
    <g
       transform="matrix(0.931817,0,0,0.931817,68.012643,32.783028)"
       id="g32838"
       style="clip-rule:evenodd;fill-rule:evenodd;stroke-linecap:round;stroke-linejoin:round">
        <text
   x="0"
   y="2.1463442"
   style="font-weight:700;font-size:17.333px;font-family:ComicNeue-Bold, 'Comic Neue';fill:#ffffff"
   id="text32836">04:20</text>

    </g>
    <g
       transform="matrix(0.931817,0,0,0.931817,68.012643,45.486528)"
       id="g32842"
       style="clip-rule:evenodd;fill-rule:evenodd;stroke-linecap:round;stroke-linejoin:round">
        <text
   x="0"
   y="-7.3177375e-10"
   style="font-weight:700;font-size:12px;font-family:ComicNeue-Bold, 'Comic Neue';fill:#ffffff"
   id="text32840">17.07.</text>

    </g>
    <path
       d="M 83.123884,116.59788 H 94.214292 M 83.123884,11.402115 h 11.090408"
       style="clip-rule:evenodd;fill:none;fill-rule:evenodd;stroke:#ffffff;stroke-width:2.28;stroke-linecap:round;stroke-linejoin:round;stroke-dasharray:none;stroke-opacity:1"
       id="path32834"
       sodipodi:nodetypes="cccc" />
  </g>
  <g
     id="g49952"
     style="clip-rule:evenodd;fill-rule:evenodd;stroke:#2f2f2f;stroke-linecap:round;stroke-linejoin:round;stroke-opacity:1">
        <path
   d="m 25.326,31.44 c 0,0 -3.219,5.223 -3.219,8.14 0,2.918 3.22,5.223 3.22,8.14 0,2.918 -3.22,5.222 -3.22,8.14 0,2.918 3.22,5.222 3.22,8.14 0,2.918 -3.22,5.222 -3.22,8.14 0,2.918 3.22,5.222 3.22,8.14 0,2.917 -3.22,5.222 -3.22,8.14 0,2.917 3.22,8.14 3.22,8.14 M 11.44,47.72 c 0,2.918 -3.219,5.222 -3.219,8.14 0,2.918 3.22,5.222 3.22,8.14 0,2.918 -3.22,5.222 -3.22,8.14 0,2.918 3.22,5.222 3.22,8.14"
   style="fill:none;stroke:#2f2f2f;stroke-width:3.78px;stroke-opacity:1"
   id="path49950" />

    </g>
  <g
     id="g49956"
     style="clip-rule:evenodd;fill-rule:evenodd;stroke:#2f2f2f;stroke-linecap:round;stroke-linejoin:round;stroke-opacity:1">
        <path
   d="m 102.674,31.44 c 0,0 3.219,5.223 3.219,8.14 0,2.918 -3.22,5.223 -3.22,8.14 0,2.918 3.22,5.222 3.22,8.14 0,2.918 -3.22,5.222 -3.22,8.14 0,2.918 3.22,5.222 3.22,8.14 0,2.918 -3.22,5.222 -3.22,8.14 0,2.917 3.22,5.222 3.22,8.14 0,2.917 -3.22,8.14 -3.22,8.14 M 116.56,47.72 c 0,2.918 3.219,5.222 3.219,8.14 0,2.918 -3.22,5.222 -3.22,8.14 0,2.918 3.22,5.222 3.22,8.14 0,2.918 -3.22,5.222 -3.22,8.14"
   style="fill:none;stroke:#2f2f2f;stroke-width:3.78px;stroke-opacity:1"
   id="path49954" />

    </g>
  <g
     id="g49967"
     style="clip-rule:evenodd;fill-rule:evenodd;stroke-linecap:round;stroke-linejoin:round"
     transform="translate(0,-6)">
        <path
   d="m 64,59.854 c -10.58,0 -19.155,8.576 -19.155,19.15 0,10.58 8.576,19.155 19.155,19.155 10.574,0 19.155,-8.575 19.155,-19.155 C 83.15,68.424 74.575,59.854 64,59.854 Z m 14.824,19.15 c 0,3.549 -1.251,6.804 -3.326,9.353 L 54.642,67.507 c 2.64,-2.154 5.946,-3.329 9.353,-3.327 8.192,0 14.83,6.632 14.83,14.824 z m -29.653,0 c 0,-2.953 0.873,-5.693 2.357,-8.005 L 72,91.47 c -2.385,1.54 -5.166,2.359 -8.005,2.358 -8.187,0.005 -14.824,-6.633 -14.824,-14.825 z"
   style="fill:#ffffff;fill-rule:nonzero"
   id="path49962" />

        <g
   transform="matrix(0.50475,0,0,0.50475,18.931,46.7)"
   id="g49965">
            <path
   id="e"
   d="m 106.64,46.87 c -3.05,-2.79 -7.01,-4.5 -11.1,-5.04 -0.78,-0.1 -2.2,-0.04 -2.69,0.74 -0.51,0.82 -0.44,1.95 -0.3,2.85 0.96,6.4 1.25,12.57 -0.1,18.96 -0.22,1.08 -0.44,2.16 -0.78,3.21 -0.31,0.94 -0.78,2.36 -1.67,2.92 -0.75,0.46 -1.54,-0.21 -2.07,-0.69 -3.06,-2.84 -7.44,-4.63 -11.67,-4.03 -1.25,0.17 -2.66,0.57 -3.77,1.2 -1.14,0.65 -2.49,1.82 -3.14,2.99 -1.34,2.44 -1.61,5.39 -0.6,8 0.27,0.72 0.63,1.45 1.05,2.09 2.33,3.53 6.85,5.1 10.92,5.12 3.53,0.02 7.23,-1.1 9.58,-3.87 1.01,-1.2 1.74,-2.6 2.28,-4.05 0.62,-1.67 1.25,-3.33 1.9,-4.98 0.64,-1.6 1.1,-3.28 1.49,-4.96 0.471,-2.087 0.785,-4.206 0.94,-6.34 0.07,-0.81 0.09,-1.63 0.16,-2.44 0.15,-1.67 -0.14,-3.31 2.14,-2.99 0.7,0.09 1.37,0.47 1.98,0.79 1.55,0.82 2.97,2.02 3.88,3.53 1.05,1.76 0.89,3.67 0.25,5.55 -0.11,0.32 -0.18,0.75 -0.12,1.09 0.15,0.88 0.73,1.33 1.61,1.19 2.03,-0.33 4.3,-4.45 4.6,-6.85 0.63,-4.98 -1.14,-10.66 -4.77,-13.99 z"
   style="fill:#ffffff;fill-rule:nonzero" />

        </g>

    </g>
</svg>
