<?xml version="1.0" encoding="UTF-8" standalone="no"?>
<svg
   width="128"
   height="128"
   version="1.1"
   id="svg11"
   sodipodi:docname="emoji_u1f52b_200d_1f4a3.svg"
   inkscape:version="1.3 (0e150ed6c4, 2023-07-21)"
   xmlns:inkscape="http://www.inkscape.org/namespaces/inkscape"
   xmlns:sodipodi="http://sodipodi.sourceforge.net/DTD/sodipodi-0.dtd"
   xmlns="http://www.w3.org/2000/svg"
   xmlns:svg="http://www.w3.org/2000/svg">
  <defs
     id="defs11" />
  <sodipodi:namedview
     id="namedview11"
     pagecolor="#ffffff"
     bordercolor="#000000"
     borderopacity="0.25"
     inkscape:showpageshadow="2"
     inkscape:pageopacity="0.0"
     inkscape:pagecheckerboard="0"
     inkscape:deskcolor="#d1d1d1"
     inkscape:zoom="2.0273438"
     inkscape:cx="27.375723"
     inkscape:cy="63.876686"
     inkscape:window-width="1366"
     inkscape:window-height="697"
     inkscape:window-x="-8"
     inkscape:window-y="-8"
     inkscape:window-maximized="1"
     inkscape:current-layer="svg11" />
  <g
     id="g12"
     transform="translate(0,-7.4757)">
    <path
       d="m 67.66,73.35 c -0.26,0.11 0.32,1.95 0.39,2.11 0.53,1.33 1.76,2.21 2.36,3.5 0.73,1.58 0.78,3.38 0.13,5.01 -0.41,1.03 -1.34,1.78 0.1,2.47 0.87,0.41 1.34,-0.5 1.83,-1.06 0.5,-0.57 0.93,-1.21 1.27,-1.89 0.98,-1.98 1.02,-4.23 0.23,-6.29 -0.09,-0.24 -0.19,-0.48 -0.3,-0.71 0,0 3.81,-2.19 0.02,-5.76 -0.01,0 -6.01,2.62 -6.03,2.62 z M 92.25,48.1 c -1.47,-0.05 -2.01,-0.64 -2.01,-2.16 0,-0.47 0.15,-1.24 0.48,-1.83 0.33,-0.59 1.39,-0.72 2.23,-0.72 1.01,0 1.78,-0.3 2.29,-0.88 0.69,-0.78 0.59,-1.74 0.58,-1.85 A 0.984,0.984 0 0 0 94.84,39.8 h -4.52 c -0.55,0 -0.99,0.44 -0.99,0.99 0,0.39 -1.11,0.86 -1.89,0.99 -1.45,0 -2.24,-1.27 -2.27,-1.32 -0.18,-0.3 -0.5,-0.49 -0.85,-0.49 h -3.7 c -0.48,0 -0.88,0.34 -0.97,0.81 L 77.02,55 c -0.05,0.28 0.02,0.57 0.19,0.79 0.18,0.22 0.44,0.36 0.72,0.37 l 18.58,0.99 h 0.05 a 0.986,0.986 0 0 0 0.99,-0.98 v -3.21 c 0,-3.36 -2.63,-4.86 -5.3,-4.86 z"
       fill="#426369"
       id="path1" />
    <path
       d="m 2.41,40.84 c 0,0 0.12,-2.78 1.85,-2.63 1.73,0.15 6.53,0 6.53,0 l 7.89,1.61 h 23.8 c 0,0 2.22,-1.75 5.67,-2.05 3.45,-0.29 30.58,0 30.58,0 0,0 2.92,-1.17 2.92,3.07 0,0 0.91,9.36 13.97,11.09 h 4.19 c 0,0 2.23,0.15 2.23,1.12 0,0.97 0,0 0,0 l -1.12,24.81 -20.39,1.1 c 0,0 -2.66,-4.91 -7.35,-4.91 H 58.75 c 0,0 -2.82,0.64 -2.84,2.71 -0.01,2.07 0,0 0,0 h -4.3 c 0,0 -0.39,-1.6 -2.85,-1.6 -2.47,0 -4.69,-0.49 -4.69,-3.45 0,-2.96 -0.49,-10.38 -2.22,-12.72 V 57.67 H 3.64 c 0,0 -1.23,-2.23 -1.23,-5.21 V 41.14"
       fill="#66949e"
       id="path2" />
    <path
       d="m 47.64,72.9 c 0,0 2.25,0.08 3.75,3.19 0.51,1.06 0.47,6.79 4.27,11.38 1.96,2.37 5.69,4.25 10.54,4.86 8.87,1.12 15.77,-1.31 18.34,-8.02 1.09,-2.85 1.7,-4.23 3.92,-4.1 l 0.34,-2.34 -8.98,-1.52 c 0,0 0.89,2.9 1.12,4.72 0.49,3.77 -4.51,9.82 -14.87,8.05 -9.65,-1.65 -9.7,-6.84 -10.07,-9.3 -0.37,-2.46 0.04,-6.57 1.32,-6.49 l -0.18,-1.72 -9.32,-0.18 z"
       fill="#66949e"
       id="path3" />
    <path
       d="m 85.49,82.08 v -4.91 c 0,0 -0.04,-3.56 2.73,-5.72 3.42,-2.66 8.38,-9.02 9.04,-14.94 0,0 -0.33,-1.97 3.95,-1.97 4.27,0 3.76,0.87 5.92,3.95 1.76,2.51 7.3,4.68 12.06,12.11 4.65,7.26 8.56,24.26 7.57,35.37 0,0 -0.57,4.41 -5.41,4.41 h -12.41 c 0,0 -4.1,-0.03 -4.94,-0.95 -0.94,-1.03 -0.4,-1.86 -1.29,-3.21 -0.59,-0.88 -1.1,-1.04 -1.75,-1.43 -1.52,-0.91 -1.78,-1.9 -1.78,-2.99 0,-0.93 -0.1,-3.74 -0.1,-5.37 0,-1.67 -0.21,-7.64 -2.8,-11.17 -1.73,-2.35 -5.43,-4.6 -10.79,-3.18 z"
       fill="#5e3832"
       id="path4" />
    <g
       fill="#66949e"
       id="g5">
      <ellipse
         cx="2.4100001"
         cy="46.709999"
         rx="1.3200001"
         ry="5.8699999"
         id="ellipse4" />
      <path
         d="M 2.41,40.84 H 81.65 V 52.45 H 2.41 Z"
         id="path5" />
    </g>
    <path
       d="M 41.8,45.99 H 3.04 c 0,0 -0.08,-1.55 0.24,-2.5 0.3,-0.87 0.73,-0.72 0.73,-0.72 H 41.8 Z m 2.49,-3.22 h 4.79 v 3.22 h -4.79 z"
       fill="#ffffff"
       id="path6" />
    <path
       fill="#66949e"
       d="M 52.51,42.3 H 77.86 V 64.86 H 52.51 Z"
       id="path7" />
    <path
       d="M 77.87,65.84 H 52.51 c -0.55,0 -0.99,-0.44 -0.99,-0.99 V 42.3 c 0,-0.55 0.44,-0.99 0.99,-0.99 h 25.35 c 0.55,0 0.99,0.44 0.99,0.99 v 22.55 c 0,0.55 -0.44,0.99 -0.98,0.99 z M 53.5,63.87 H 76.88 V 43.29 H 53.5 Z"
       fill="#426369"
       id="path8" />
    <g
       fill="#426369"
       id="g10">
      <path
         d="m 52.51,51.2 h 13.42 v 4.73 H 52.51 Z"
         id="path9" />
      <path
         d="M 65.94,56.92 H 52.51 c -0.55,0 -0.99,-0.44 -0.99,-0.99 V 51.2 c 0,-0.55 0.44,-0.99 0.99,-0.99 h 13.42 c 0.54,0 0.99,0.44 0.99,0.99 v 4.73 c 0,0.55 -0.44,0.99 -0.98,0.99 z M 53.5,54.94 H 64.95 V 52.18 H 53.5 Z"
         id="path10" />
    </g>
    <g
       fill="#426369"
       id="g11">
      <ellipse
         cx="65.940002"
         cy="53.560001"
         rx="4.73"
         ry="2.3699999"
         id="ellipse10" />
      <path
         d="m 65.94,56.92 c -3.26,0 -5.71,-1.44 -5.71,-3.35 0,-1.91 2.46,-3.35 5.71,-3.35 3.26,0 5.71,1.44 5.71,3.35 0,1.91 -2.46,3.35 -5.71,3.35 z m 0,-4.74 c -2.32,0 -3.74,0.89 -3.74,1.38 0,0.49 1.42,1.38 3.74,1.38 2.32,0 3.74,-0.89 3.74,-1.38 0,-0.48 -1.42,-1.38 -3.74,-1.38 z"
         id="path11" />
    </g>
  </g>
</svg>
