<?xml version="1.0" encoding="UTF-8" standalone="no"?>
<svg
   version="1.1"
   viewBox="-30 -210 128 128"
   id="svg1"
   sodipodi:docname="emoji_u1f50c.svg"
   width="128"
   height="128"
   inkscape:version="1.3 (0e150ed6c4, 2023-07-21)"
   xmlns:inkscape="http://www.inkscape.org/namespaces/inkscape"
   xmlns:sodipodi="http://sodipodi.sourceforge.net/DTD/sodipodi-0.dtd"
   xmlns="http://www.w3.org/2000/svg"
   xmlns:svg="http://www.w3.org/2000/svg">
  <defs
     id="defs1">
    <linearGradient
       id="_Linear1"
       x1="0"
       y1="0"
       x2="1"
       y2="0"
       gradientUnits="userSpaceOnUse"
       gradientTransform="matrix(0,452.943,-452.943,0,-1902.4317,136.84196)">
      <stop
         offset="0"
         style="stop-color:rgb(111,161,58);stop-opacity:1"
         id="stop3" />
      <stop
         offset="1"
         style="stop-color:rgb(255,202,40);stop-opacity:1"
         id="stop5" />
    </linearGradient>
  </defs>
  <sodipodi:namedview
     id="namedview1"
     pagecolor="#ffffff"
     bordercolor="#000000"
     borderopacity="0.25"
     inkscape:showpageshadow="2"
     inkscape:pageopacity="0.0"
     inkscape:pagecheckerboard="0"
     inkscape:deskcolor="#d1d1d1"
     inkscape:zoom="2.6120172"
     inkscape:cx="35.987512"
     inkscape:cy="90.925894"
     inkscape:window-width="1366"
     inkscape:window-height="697"
     inkscape:window-x="-8"
     inkscape:window-y="-8"
     inkscape:window-maximized="1"
     inkscape:current-layer="svg1" />
  <path
     fill="currentColor"
     d="m 66.184035,-112.68015 c 0,2.28328 0.394533,4.33989 1.183605,6.16987 0.789071,1.82998 1.670484,3.39974 2.644228,4.70925 0.973749,1.30953 1.888735,2.333634 3.764879,3.769072 1.876144,1.435439 4.290645,3.795076 1.187343,7.103506 -3.202572,3.414262 -5.909177,1.836507 -8.351943,-0.308259 -2.442765,-2.144763 -3.408116,-3.261216 -4.432231,-4.570741 -1.024113,-1.309516 -1.972679,-2.81212 -2.845692,-4.507778 -0.873016,-1.69567 -1.594932,-3.57601 -2.16575,-5.64102 -0.570818,-2.06502 -0.856227,-4.30631 -0.856227,-6.7239 0,-3.42489 0.369354,-6.66512 1.10806,-9.72067 0.369352,-1.54457 0.797464,-3.05557 1.284337,-4.53299 0.486874,-1.47739 1.049297,-2.97159 1.687269,-4.48257 0.637974,-1.511 1.502594,-3.24863 2.593862,-5.21291 1.091271,-1.9643 2.3924,-4.17202 3.903386,-6.62316 1.510989,-2.41759 2.753356,-4.52458 3.727101,-6.32098 0.973749,-1.7964 1.729246,-3.28219 2.266482,-4.4574 2.148962,-4.76802 3.223443,-9.23383 3.223443,-13.39743 0,-3.45848 -0.780678,-6.1363 -2.342031,-8.03343 -1.561354,-1.89712 -3.685132,-2.84568 -6.371334,-2.84568 -2.216112,0 -4.407047,0.67994 -6.572797,2.03983 -2.165748,1.35989 -4.004113,3.21505 -5.515103,5.56547 -0.738703,1.14163 -1.393469,2.38401 -1.964284,3.7271 -0.570819,1.34311 -1.091267,2.78694 -1.561352,4.3315 -0.470087,1.57815 -0.847831,3.63477 -1.13324,6.16987 -0.285411,2.53509 -0.51206,5.58225 -0.679948,9.14147 -0.637974,13.431 -2.333634,23.84004 -5.086989,31.22709 -2.719778,7.35346 -6.472063,12.94411 -11.256863,16.771953 -4.78479,3.827832 -10.350263,5.741753 -16.696411,5.741753 -6.916967,0 -12.4572533,-1.829975 -16.62086485,-5.489923 -2.11538565,-1.880333 -3.68513395,-4.054493 -4.70924515,-6.522423 -1.024116,-2.46795 -1.5361729,-5.2297 -1.5361729,-8.28524 0,-1.47742 0.1259179,-2.99681 0.3777486,-4.55817 0.2518319,-1.56135 0.5960011,-3.19824 1.0325078,-4.9107 l 0.7554944,-2.87087 c 0.4029311,-1.47741 0.7554958,-2.96323 1.0576929,-4.45742 0.3021946,-1.49421 0.5372369,-3.04717 0.7051257,-4.65888 l 9.8214214,1.61171 c -0.4029311,3.39133 -1.1080592,6.95055 -2.1153845,10.67766 -1.208787,3.02197 -1.8131861,6.07753 -1.8131861,9.16667 0,3.29058 1.0996638,5.85926 3.2989901,7.70602 2.199329,1.84676 5.4647406,2.77015 9.7962396,2.77015 5.573864,0 10.199165,-2.35882 13.875903,-7.07646 3.676737,-4.71764 6.237021,-11.81089 7.680853,-21.27974 0.369353,-2.21612 0.663158,-4.71764 0.881413,-7.50459 0.218251,-2.78692 0.428111,-5.90963 0.629576,-9.36811 0.167888,-3.05556 0.352563,-5.59065 0.554028,-7.6053 0.201466,-2.01466 0.386139,-3.54244 0.554029,-4.58333 0.402929,-2.11539 0.956957,-4.21398 1.662085,-6.29579 0.705128,-2.0818 1.678877,-4.31471 2.921244,-6.6987 2.216116,-4.33151 5.305244,-7.80678 9.267393,-10.42582 4.062876,-2.65262 8.243277,-3.97894 12.541197,-3.97894 5.372403,0 9.787843,1.9307 13.246325,5.79212 3.424909,3.82783 5.137364,8.86446 5.137364,15.10987 0,4.02931 -0.663163,8.13416 -1.989474,12.31456 -1.326312,4.18039 -3.366137,8.46992 -6.119499,12.86858 -4.465806,7.152 -7.52136,12.77624 -9.166657,16.87269 -1.645299,4.09646 -2.467947,8.29365 -2.467947,12.59156 z"
     id="path1"
     style="fill:#f79329;stroke-width:0.999999"
     sodipodi:nodetypes="sssssssssscssscscsssscscsccsscsssccscccsssscscscsccscsscsss" />
  <path
     id="path2"
     style="fill:#6593a2;stroke-width:0.999999"
     d="m -3.6267854,-203.44454 c -0.8002705,0.0236 -1.6449859,0.17489 -2.284428,0.6895 -0.34126,0.28905 -0.6248286,0.66828 -0.7452823,1.10243 -0.4369074,2.48262 -0.8061587,4.98595 -1.1994611,7.4797 -0.3061569,1.96707 -0.5913303,3.93419 -0.8399256,5.90826 -0.1438218,1.11633 -0.2802327,2.24859 -0.3947538,3.36783 -0.023098,0.26001 -0.050473,0.55486 -0.075213,0.82827 -0.034621,0.38459 -0.066006,0.76947 -0.099107,1.15418 3.1832674,0.076 6.3665337,0.15214 9.54980234,0.22821 0.27154182,-3.17165 0.5257729,-6.34746 0.74434676,-9.52574 0.116663,-1.66913 0.2264973,-3.34721 0.2892301,-5.02255 0.021221,-0.92072 0.082582,-1.87682 -0.045986,-2.80405 -0.1220572,-0.87932 -0.4535806,-1.77433 -1.1293186,-2.37872 -0.71402865,-0.62947 -1.6712817,-0.88875 -2.599792,-0.98116 -0.3884831,-0.0418 -0.7796829,-0.0498 -1.1701152,-0.0461 z m 23.2222044,1.71238 c -0.838085,0.0239 -1.721495,0.17267 -2.401556,0.69752 -0.344613,0.27863 -0.63722,0.64454 -0.774198,1.0691 -0.306691,2.01244 -0.649837,4.02949 -0.933605,6.03447 -0.458485,3.28402 -0.835901,6.57591 -1.179466,9.8765 -0.08424,0.86497 -0.155022,1.73712 -0.210134,2.58616 -0.02948,0.11856 -0.0017,0.19142 0.131118,0.17971 3.123135,0.51181 6.246272,1.02361 9.369406,1.53544 0.244924,-3.59552 0.498451,-7.19056 0.70558,-10.78851 0.05063,-0.97341 0.101752,-1.96557 0.141496,-2.94673 0.02731,-0.66451 0.04537,-1.31135 0.06072,-1.9784 0.01541,-0.64628 0.02515,-1.2936 -0.0096,-1.93941 -0.0059,-0.0883 -0.01619,-0.23018 -0.02706,-0.33874 -0.01071,-0.11414 -0.02359,-0.23183 -0.03694,-0.32583 -0.116626,-0.87663 -0.37217,-1.76703 -0.92482,-2.47268 -0.36302,-0.44856 -0.887065,-0.73325 -1.43295,-0.89703 -0.798667,-0.25233 -1.645776,-0.2974 -2.477868,-0.29157 z" />
  <path
     fill="currentColor"
     d="m -3.4221348,-135.8738 c -0.4700834,-0.21826 -0.8898016,-0.49527 -1.2591547,-0.83105 -0.3693518,-0.33577 -0.663156,-0.73871 -0.8814098,-1.20879 -0.2182528,-0.47008 -0.3105913,-1.05769 -0.2770145,-1.76282 l 0.2014642,-3.4249 c 0.067158,-0.60439 0.016795,-1.09967 -0.1510978,-1.48581 -0.1678888,-0.38614 -0.3861427,-0.66315 -0.6547606,-0.83104 -7.655672,-3.62638 -11.483507,-12.59156 -11.483507,-26.89558 v -2.61905 c 0,-1.2088 0.05876,-2.2413 0.176282,-3.09751 0.117521,-0.85624 0.310592,-1.53618 0.579211,-2.03984 0.537241,-1.00733 1.460622,-1.82998 2.770145,-2.46795 1.309522,-0.63797 2.737251,-0.99735 4.281132,-1.10807 2.4203027,-0.17355 4.5422486,-0.31444 17.2637759,0.83106 12.7215261,1.14549 16.6012201,1.91973 18.1940681,2.44275 2.249694,0.73871 3.659949,1.64531 4.230767,2.71979 0.335773,0.57081 0.570817,1.35149 0.705126,2.34203 0.13431,0.99053 0.201466,2.19093 0.201466,3.60118 0,6.31258 -1.3431,12.12148 -4.029303,17.42672 -2.719777,5.23809 -6.127893,8.67978 -10.224348,10.3251 l -0.705129,0.50365 c -0.973746,0.43651 -1.56135,1.61173 -1.762818,3.52565 -0.235043,2.24968 -0.53724,3.62636 -0.906591,4.13003 -0.302197,0.43651 -0.864621,0.84783 -1.687272,1.23397 -0.822651,0.38613 -2.7133322,1.44522 -8.0152713,0.73019 -5.1129902,-0.68956 -6.0956747,-1.82146 -6.5657605,-2.03971 z"
     id="path3"
     style="fill:#fcc21b;stroke-width:0.999999"
     sodipodi:nodetypes="sssccscsssssszscsscccccsss" />
</svg>
