<?xml version="1.0" encoding="UTF-8" standalone="no"?>
<svg
   width="128"
   height="128"
   version="1.1"
   id="svg67794"
   sodipodi:docname="emoji_u1f3a8.svg"
   inkscape:version="1.2.2 (732a01da63, 2022-12-09)"
   xmlns:inkscape="http://www.inkscape.org/namespaces/inkscape"
   xmlns:sodipodi="http://sodipodi.sourceforge.net/DTD/sodipodi-0.dtd"
   xmlns:xlink="http://www.w3.org/1999/xlink"
   xmlns="http://www.w3.org/2000/svg"
   xmlns:svg="http://www.w3.org/2000/svg">
  <sodipodi:namedview
     id="namedview67796"
     pagecolor="#ffffff"
     bordercolor="#000000"
     borderopacity="0.25"
     inkscape:showpageshadow="2"
     inkscape:pageopacity="0.0"
     inkscape:pagecheckerboard="0"
     inkscape:deskcolor="#d1d1d1"
     showgrid="false"
     inkscape:zoom="2.9996795"
     inkscape:cx="30.503258"
     inkscape:cy="67.673895"
     inkscape:window-width="1366"
     inkscape:window-height="697"
     inkscape:window-x="-8"
     inkscape:window-y="-8"
     inkscape:window-maximized="1"
     inkscape:current-layer="svg67794" />
  <defs
     id="defs67756">
    <path
       id="a"
       d="M103.44 27.85c-2.15-5.08-6.79-11.67-11.58-14.6C80.72 6.4 66.56 5.08 53.93 7.5 34.09 11.3 15.5 24.13 6.19 42.21c-6.59 12.8-7.95 32.31.83 44.59 5.73 8.01 17.1 11.04 26.12 7.28 6.13-2.55 9.93-8.23 15.23-11.95 6.88-4.84 14.34-3.47 22.32-3.78 22.91-.87 41.64-29.39 32.75-50.5zM69.75 60.89c-1.82.7-4.21 1.11-6.17.82-1.98-.31-4.08-1.76-5.13-3.48-3.65-5.92 2.41-12.77 8.01-14.26 2.78-.74 6.86-.28 9.07 1.63 5.73 4.95-.52 13.25-5.78 15.29z" />
  </defs>
  <g
     id="g70065"
     transform="matrix(1.1017378,0,0,1.1017378,-6.0726249,-5.4452686)"
     style="stroke-width:0.907657">
    <use
       xlink:href="#a"
       overflow="visible"
       fill="#f79329"
       id="use67758"
       transform="translate(10.334437,12.001282)"
       style="stroke-width:0.823841" />
    <path
       d="m 70.966061,26.721118 c 1.930177,-0.571768 4.098902,-0.538149 5.908777,0.02935 3.306744,1.028563 4.40274,4.793838 2.985864,7.887713 -1.803909,3.907942 -6.963831,4.055276 -10.546146,2.40618 -2.782973,-1.27889 -4.070385,-4.787532 -2.470073,-7.352587 0.945715,-1.493092 2.44256,-2.458211 4.121578,-2.970656 z"
       fill="#ed6c30"
       id="path67760"
       style="stroke-width:0.823841" />
    <path
       d="m 33.844807,46.207035 c 2.914985,-3.982846 9.328593,-4.632941 11.782214,0.06585 2.34213,4.469511 -1.771416,9.744777 -6.450465,10.380539 -3.111935,0.42328 -6.453623,-2.078164 -6.804965,-5.365953 -0.195659,-1.819538 0.399606,-3.618054 1.473216,-5.080436 z"
       fill="#bdcf46"
       id="path67762"
       style="stroke-width:0.823841" />
    <path
       d="m 93.980348,27.505734 c -4.787117,-1.113601 -10.136362,2.220653 -9.021816,7.023674 1.053826,4.573531 7.588711,5.898882 11.594428,3.581513 2.664403,-1.540914 3.63693,-5.303136 1.806627,-7.8553 -1.011994,-1.413148 -2.619003,-2.342969 -4.379239,-2.749887 z"
       fill="#bdcf46"
       id="path67762-6"
       style="fill:#db4437;stroke-width:0.907657" />
    <path
       d="m 38.986976,65.964851 c 0.472953,4.839341 -3.434865,10.404048 -8.727339,8.736049 -5.292474,-1.667998 -5.687636,-8.863277 -2.561878,-12.727489 3.118188,-3.845701 8.837251,-2.348935 10.710293,1.788227 0.317642,0.702569 0.51244,1.441321 0.578924,2.203213 z"
       fill="#006ca2"
       id="path67764"
       style="stroke-width:0.823841" />
    <path
       d="m 59.396551,41.295734 c -2.416486,1.971876 -6.533051,2.870148 -9.352631,1.284565 -3.54067,-1.988604 -3.185683,-7.029475 -0.267307,-9.541543 4.000828,-3.44142 11.672789,-2.334259 11.816777,3.969555 0.03663,1.732875 -0.856918,3.204089 -2.196839,4.287423 z"
       fill="#fcc21b"
       id="path67766"
       style="stroke-width:0.823841" />
    <path
       d="m 37.068037,81.79043 c 1.686348,2.866312 1.965661,7.350231 -0.162415,10.064643 -2.669701,3.409007 -7.924545,2.217715 -10.09882,-1.265091 -2.978207,-4.774223 -0.567696,-12.679941 6.099008,-11.809763 1.832153,0.242316 3.237758,1.422496 4.162227,3.010211 z"
       fill="#fcc21b"
       id="path67766-7"
       style="fill:#9531a6;stroke-width:0.907657" />
  </g>
</svg>
