<?xml version="1.0" encoding="UTF-8" standalone="no"?>
<svg
   width="128"
   height="128"
   style="enable-background:new 0 0 128 128;"
   version="1.1"
   id="svg63876"
   sodipodi:docname="emoji_u1f36a.svg"
   inkscape:version="1.2.2 (732a01da63, 2022-12-09)"
   xmlns:inkscape="http://www.inkscape.org/namespaces/inkscape"
   xmlns:sodipodi="http://sodipodi.sourceforge.net/DTD/sodipodi-0.dtd"
   xmlns:xlink="http://www.w3.org/1999/xlink"
   xmlns="http://www.w3.org/2000/svg"
   xmlns:svg="http://www.w3.org/2000/svg">
  <defs
     id="defs63880">
    <defs
       id="defs63837">
      <path
         id="SVGID_1_"
         d="M108.94,112.23c-8.28,5.98-14.04,10.27-24.06,12.88c-9.94,2.59-21.19,1.12-31.24,0.08 c-19.65-2.03-34.71-10.77-45.61-27.35C3.85,91.51,1.7,84.29,1.15,76.76c-0.25-3.36-0.22-6.75-0.12-10.12 c0.1-3.35-0.04-6.93,0.5-10.25c1.04-6.34,2.55-12.67,4.91-18.65c2.45-6.25,6.27-10.76,10.18-16.09 C28.18,5.87,50.86,1.19,69.35,1.46c6.51,0.09,14.07,0.67,20.3,2.62c4.91,1.54,9.83,3.94,14.05,6.89 c4.37,3.04,8.11,7.34,10.78,11.94c2.54,4.38,4.77,9.26,6.37,14.07c0.38,1.14,0.73,2.28,1.07,3.43c2.3,7.99,4.76,17.22,5.06,25.55 C127.62,82.93,123.37,101.82,108.94,112.23z" />
    </defs>
  </defs>
  <sodipodi:namedview
     id="namedview63878"
     pagecolor="#ffffff"
     bordercolor="#000000"
     borderopacity="0.25"
     inkscape:showpageshadow="2"
     inkscape:pageopacity="0.0"
     inkscape:pagecheckerboard="0"
     inkscape:deskcolor="#d1d1d1"
     showgrid="false"
     inkscape:zoom="2.9996795"
     inkscape:cx="22.335719"
     inkscape:cy="51.672186"
     inkscape:window-width="1366"
     inkscape:window-height="697"
     inkscape:window-x="-8"
     inkscape:window-y="-8"
     inkscape:window-maximized="1"
     inkscape:current-layer="svg63876" />
  <use
     style="overflow:visible;fill:#f79329;fill-opacity:1"
     xlink:href="#SVGID_1_"
     id="use63839" />
  <path
     d="m 82.500441,8.4496691 c -0.23043,0.5662867 -0.38683,1.280669 -0.459915,2.1629089 -0.183658,2.335668 -0.224846,5.087718 0.159457,7.358355 0.249831,1.49392 0.652664,4.134198 2.071399,4.756926 1.312053,0.565527 2.543321,-0.2673 3.693879,-0.837902 1.245575,-0.623131 2.558573,-1.348079 3.887992,-1.783361 2.094319,-0.675577 4.039599,-2.347564 5.991447,-3.439522 C 99.494507,15.75316 98.720357,13.322768 97.482672,12.2551 96.621548,11.507594 95.597984,10.914434 94.701562,10.157857 93.741986,9.3329252 92.5231,8.6448934 91.422299,8.1137961 89.797635,7.3264521 88.168402,7.0294 86.44974,6.6646875 84.863241,6.3264918 83.24137,6.6394583 82.500441,8.4496691 Z"
     style="fill:#855c52;stroke-width:0.999996"
     id="path63844"
     clip-path="none" />
  <path
     d="m 104.75001,38.55 c -0.43806,-0.33 -0.98125,-0.54 -1.62081,-0.58 -0.98125,-0.05 -2.17277,0.17 -3.136498,0.31 -1.331696,0.19 -3.127733,0.63 -4.284205,1.34 -0.911161,0.55 -1.156473,0.93 -1.0601,1.99 0.157701,1.97 0.08761,3.8 0.516908,5.75 0.525669,2.43 0.68337,6.71 3.373045,7.08 1.69966,0.23 3.8111,0.12 5.46696,-0.25 1.10391,-0.24 2.92623,-0.47 3.85491,-1.19 0.68337,-0.53 0.76222,-1.46 0.76222,-2.37 -0.009,-1.88 -0.75346,-3.67 -1.15647,-5.46 -0.36797,-1.57 -0.91116,-3.04 -1.39303,-4.55 -0.27159,-0.87 -0.70089,-1.59 -1.32293,-2.07 z"
     style="fill:#855c52;stroke-width:0.999996"
     id="path63846"
     clip-path="none" />
  <path
     d="m 55.205672,31.1 c -1.51568,-0.53 -3.373046,0.07 -4.915009,0.52 -2.49693,0.73 -5.4582,0.94 -7.762384,2.26 -1.322935,0.76 -1.226562,3.83 -1.252846,5.31 -0.03504,1.48 -0.122656,3.07 -0.0088,4.54 0.08761,1.06 0.105134,2.46 0.420536,3.46 0.613281,1.93 3.574551,1.18 5.08147,1.19 2.864898,0.02 5.554573,-0.79 8.279293,-1.7 0.718415,-0.23 1.857365,-0.42 2.400557,-1.13 0.420535,-0.56 0.446819,-1.8 0.525669,-2.49 0.192745,-1.86 0.210268,-3.57 -0.09637,-5.38 -0.280357,-1.67 -0.02628,-3.59 -0.91116,-5.08 -0.481864,-0.8 -1.086383,-1.26 -1.760992,-1.5 z"
     style="fill:#855c52;stroke-width:0.999996"
     id="path63848"
     clip-path="none" />
  <path
     d="m 35.922367,75.02 c -0.105134,-0.03 -0.201507,-0.05 -0.324163,-0.07 -0.902399,-0.13 -1.804798,-0.31 -2.786048,-0.42 -1.025055,-0.12 -1.953737,-0.24 -2.996315,-0.26 -1.498158,-0.02 -2.908704,-0.42 -4.284205,0.67 -0.52567,0.4 -0.762221,0.98 -0.998772,1.57 -1.042578,2.53 -3.048883,6.22 -1.296651,8.92 1.831081,2.83 12.081634,3.46 13.325718,-0.02 0.718415,-1.98 1.226562,-4.3 1.279129,-6.45 0.01752,-1.3 -0.657087,-3.6 -1.918693,-3.94 z"
     style="fill:#855c52;stroke-width:0.999996"
     id="path63850"
     clip-path="none" />
  <path
     d="m 76.083507,86.38 c 0.806026,2.08 1.778515,3.93 3.136494,5.58 0.516908,0.62 1.13895,1.37 1.690903,1.93 0.76222,0.76 1.787276,0.87 2.759764,0.97 1.936216,0.22 4.424384,0.31 6.369361,-0.01 1.585769,-0.26 3.311717,-2.22 3.968803,-3.88 0.797266,-2 1.831082,-3.5 1.541964,-5.81 -0.183984,-1.42 -1.226562,-2.35 -1.874888,-3.5 -0.76222,-1.38 -1.419307,-2.51 -2.584541,-3.53 -1.769753,-1.53 -3.968803,-2.89 -6.246704,-2.37 -2.383034,0.54 -4.275444,2.71 -5.975108,4.53 -1.603292,1.71 -3.889954,3.26 -2.786048,6.09 z"
     style="fill:#855c52;stroke-width:0.999996"
     id="path63852"
     clip-path="none" />
  <path
     d="m 54.89027,107.17 c -2.172767,0.14 -4.328011,1.82 -5.992631,3.42 -1.454352,1.39 -2.672152,2.2 -1.857365,4.6 1.279129,3.74 3.828625,6.7 6.676001,8.75 1.568247,1.13 2.768525,0.56 4.345534,-0.52 2.023827,-1.38 8.498321,-5.31 5.502006,-9.03 -0.823549,-1.03 -1.577008,-1.99 -2.383035,-3.02 -0.954966,-1.22 -2.006305,-2.16 -3.189061,-3.14 -0.99001,-0.84 -2.05011,-1.14 -3.101449,-1.06 z"
     style="fill:#855c52;stroke-width:0.999996"
     id="path63854"
     clip-path="none"
     transform="translate(-5.1860037,-3.3001842)" />
  <g
     id="g63870"
     style="stroke-width:1.06836"
     transform="matrix(0.87611562,0,0,1,8.3422471,0)"
     clip-path="none">
    <path
       d="m 92.23,113.28 c -0.2,-0.48 -0.58,-0.93 -1.17,-1.33 -2.43,-1.61 -6.89,-0.44 -8.31,2.12 -2.04,3.68 4.86,4.8 7.1,3.58 1.4,-0.78 3.07,-2.66 2.38,-4.37 z"
       style="fill:#855c52;stroke-width:1.06836"
       id="path63856" />
    <path
       d="m 99.57,104.17 c 2.19,1.99 8.39,2.29 7.91,-1.94 -0.24,-2.11 -5.09,-2.48 -6.61,-2.07 -1.49,0.41 -2.65,2.79 -1.3,4.01 z"
       style="fill:#855c52;stroke-width:1.06836"
       id="path63858" />
    <path
       d="m 116.61,89.6 c 0.89,-0.37 1.58,-1.02 1.8,-2.01 0.28,-1.3 -0.49,-2.28 -1.76,-2.6 -1.56,-0.39 -4.52,-0.55 -5.66,0.82 -1.02,1.23 -0.55,2.5 0.65,3.37 1.19,0.85 3.39,1.08 4.97,0.42 z"
       style="fill:#855c52;stroke-width:1.06836"
       id="path63860" />
    <path
       d="m 64.14,100.65 c 1.19,0.02 2.31,-0.31 2.87,-1.1 0.89,-1.24 1.05,-4.14 -0.68,-4.81 -2.43,-0.94 -7.95,0.11 -6.46,3.77 0.51,1.28 2.47,2.1 4.27,2.14 z"
       style="fill:#855c52;stroke-width:1.06836"
       id="path63862" />
    <path
       d="m 95.37,67.07 c 1.16,-0.03 3.04,-0.26 3.47,-1.53 0.28,-0.8 0.24,-2.09 -0.29,-2.79 -1.47,-1.9 -8.07,-1.2 -7.33,1.94 0.39,1.73 2.28,2.43 4.15,2.38 z"
       style="fill:#855c52;stroke-width:1.06836"
       id="path63864" />
    <path
       d="m 111.5,72.3 c 2.71,0.77 6.89,-2.14 5.71,-4.87 -1.46,-3.42 -9.12,-1.05 -7.58,3.1 0.39,0.98 1.05,1.54 1.87,1.77 z"
       style="fill:#855c52;stroke-width:1.06836"
       id="path63866" />
    <path
       d="m 80.31,45.46 c 3.49,-0.42 4.35,-4.12 1.59,-5.35 -3.36,-1.49 -7.77,2.76 -4.72,4.82 0.79,0.54 2.08,0.65 3.13,0.53 z"
       style="fill:#855c52;stroke-width:1.06836"
       id="path63868" />
  </g>
</svg>
