<?xml version="1.0" encoding="UTF-8" standalone="no"?>
<svg
   width="128"
   height="128"
   version="1.1"
   id="svg4"
   sodipodi:docname="emoji_u1f6b7.svg"
   inkscape:version="1.3 (0e150ed6c4, 2023-07-21)"
   xmlns:inkscape="http://www.inkscape.org/namespaces/inkscape"
   xmlns:sodipodi="http://sodipodi.sourceforge.net/DTD/sodipodi-0.dtd"
   xmlns="http://www.w3.org/2000/svg"
   xmlns:svg="http://www.w3.org/2000/svg">
  <defs
     id="defs4" />
  <sodipodi:namedview
     id="namedview4"
     pagecolor="#ffffff"
     bordercolor="#000000"
     borderopacity="0.25"
     inkscape:showpageshadow="2"
     inkscape:pageopacity="0.0"
     inkscape:pagecheckerboard="0"
     inkscape:deskcolor="#d1d1d1"
     inkscape:zoom="4.0546875"
     inkscape:cx="53.271676"
     inkscape:cy="63.506744"
     inkscape:window-width="1366"
     inkscape:window-height="697"
     inkscape:window-x="-8"
     inkscape:window-y="-8"
     inkscape:window-maximized="1"
     inkscape:current-layer="svg4" />
  <ellipse
     cx="64"
     cy="64.7"
     rx="61.69"
     ry="61.69"
     fill="#006ca2"
     id="ellipse1" />
  <path
     d="M64 128C28.71 128 0 99.29 0 64S28.71 0 64 0s64 28.71 64 64-28.71 64-64 64zm0-117.11c-29.29 0-53.11 23.83-53.11 53.11 0 29.29 23.83 53.11 53.11 53.11S117.11 93.29 117.11 64 93.29 10.89 64 10.89z"
     fill="#db4437"
     id="path4" />
  <path
     fill="#006ca2"
     d="m 40.100682,106.79572 c 0.91991,0.78152 2.149171,1.4165 3.288882,1.78284 2.710886,0.86292 5.324082,0.28492 6.805708,-2.27943 1.164134,-2.01892 2.255001,-4.01341 3.533106,-5.9672 1.571174,-2.385257 3.15863,-4.737948 4.713523,-7.131342 1.261823,-1.953792 2.132889,-5.828812 4.892619,-6.064895 h 0.293069 c 0.700109,0.03256 1.099008,0.431462 1.668864,0.781517 0.643123,0.382617 1.253683,0.789657 1.83982,1.245542 1.196698,0.928051 2.287565,1.994495 3.297024,3.126066 2.018918,2.263142 3.712204,4.794931 5.397349,7.302296 0.537293,0.805936 0.976896,1.343236 0.81408,2.377116 -0.138394,0.83036 -0.553574,1.57931 -0.765235,2.38525 -0.423322,1.5956 0.382617,3.25632 1.774694,4.09482 4.290201,2.59692 10.241124,-3.65522 10.29811,-7.83144 0.02442,-1.457208 -0.390759,-2.914411 -1.090867,-4.184375 -0.81408,-1.481626 -2.157312,-2.702745 -3.370291,-3.915724 -1.6363,-1.644442 -3.101644,-3.337728 -4.420453,-5.242674 -0.537293,-0.781517 -1.025741,-1.546752 -1.457203,-2.360832 -0.586138,-1.099008 -1.050163,-2.271283 -1.620019,-3.36215 -0.561715,-1.066444 -0.439603,-2.425958 -0.374477,-3.622655 0.179098,-3.272601 0.08141,-6.553343 -0.879206,-9.711973 -0.244224,-0.773375 -1.0176,-2.401535 -0.626841,-3.207474 0.561715,-1.188557 2.889983,0.634982 3.402853,1.107148 1.465344,1.343232 3.012096,3.451699 3.451699,5.39735 0.301209,1.392076 -0.236083,2.702745 -0.236083,4.086681 0,0.455884 -0.04885,0.936191 0,1.392076 0.07327,0.675686 0.260505,1.42464 0.691967,1.994496 0.415181,0.553574 1.033882,0.936192 1.668864,1.196697 0.618701,0.252365 1.204838,0.276787 1.880525,0.276787 1.269964,0 2.800434,-0.09769 3.793612,-0.887347 1.001318,-0.789657 1.782834,-2.238719 2.002636,-3.443558 C 92.511145,66.40922 83.963304,56.941472 76.237686,52.512877 74.13736,51.308039 70.392593,48.597153 73.233731,46.032802 74.927017,44.510473 76.612163,41.791446 77.483228,39.682979 80.096424,33.300593 78.069366,26.364633 72.761565,22.009306 68.512068,18.492481 61.69822,18.069159 56.91143,20.373005 c -6.187006,2.979532 -8.694372,9.663128 -7.627928,15.882698 0.3989,2.303846 1.229261,4.526284 2.458522,6.512639 1.042022,1.685145 2.629477,2.96325 4.298341,3.997132 0.268646,0.162816 0.634982,0.439603 0.789658,0.71639 0.138393,0.252365 0.179097,0.659405 0.179097,0.936192 0,1.563033 -1.082726,2.889983 -2.010777,4.037836 -0.81408,1.009459 -1.392077,2.14103 -2.157312,3.215615 -0.708249,0.985037 -1.359513,2.0352 -2.100326,2.995814 -0.797798,1.0176 -1.424639,2.092185 -2.222438,3.069081 -1.481625,1.83168 -2.873701,3.761049 -4.770508,5.153125 -1.001318,0.732672 -2.027058,1.473485 -2.751589,2.491085 -0.667546,0.936191 -1.131571,2.214297 -1.001319,3.337727 0.04885,0.341913 0.05699,0.553574 0.227943,0.862925 0.219801,0.366336 0.521011,0.667545 0.740812,1.017599 0.187239,0.293069 0.40704,0.553575 0.667546,0.781517 0.51287,0.439603 1.147852,0.708249 1.815398,0.830361 1.294387,0.244224 2.735308,-0.0081 3.87502,-0.659404 1.090867,-0.634982 1.790976,-1.538611 2.580633,-2.499225 0.51287,-0.61056 0.960614,-1.261824 1.400217,-1.921229 0.219802,-0.325632 0.40704,-0.691968 0.651264,-1.001318 0.179098,-0.227942 0.423322,-0.398899 0.602419,-0.634982 0.236083,-0.293069 0.358195,-0.634982 0.545434,-0.936192 0.219801,-0.333773 0.455885,-0.626841 0.61056,-0.985037 0.179097,-0.41518 0.366336,-0.805939 0.797798,-1.009459 1.766553,-0.814079 0.724531,3.109785 0.724531,3.785472 -0.0081,0.586137 -0.170957,1.212979 -0.276787,1.782834 -0.20352,1.131571 -0.455885,2.255002 -0.643123,3.386573 -0.488448,3.028377 -1.351373,6.007909 -2.710886,8.767639 -1.294387,2.621338 -2.287564,5.381068 -3.638937,7.977983 -1.082726,2.084044 -2.556211,4.803071 -5.120562,5.193829 -1.204838,0.187239 -2.482944,-0.04884 -3.500543,0.683827 -0.919911,0.659405 -1.823539,1.432781 -2.189875,2.548068 -0.724531,2.18174 1.302528,4.71352 2.946969,6.1056 z"
     id="path3-2"
     style="fill:#ffffff;fill-opacity:1;stroke-width:0.999999" />
  <path
     fill="#db4437"
     d="M111.37 102.73l-8.43 8.41-86.31-85.73L25.06 17z"
     id="path3" />
</svg>
