<?xml version="1.0" encoding="UTF-8" standalone="no"?>
<svg
   width="100%"
   height="100%"
   viewBox="0 0 128 128"
   version="1.1"
   xml:space="preserve"
   style="fill-rule:evenodd;clip-rule:evenodd;stroke-linejoin:round;stroke-miterlimit:2;"
   id="svg56865"
   sodipodi:docname="emoji_u1f92f.svg"
   inkscape:version="1.3 (0e150ed6c4, 2023-07-21)"
   xmlns:inkscape="http://www.inkscape.org/namespaces/inkscape"
   xmlns:sodipodi="http://sodipodi.sourceforge.net/DTD/sodipodi-0.dtd"
   xmlns="http://www.w3.org/2000/svg"
   xmlns:svg="http://www.w3.org/2000/svg"
   xmlns:serif="http://www.serif.com/"><defs
   id="defs56869" /><sodipodi:namedview
   id="namedview56867"
   pagecolor="#ffffff"
   bordercolor="#000000"
   borderopacity="0.25"
   inkscape:showpageshadow="2"
   inkscape:pageopacity="0.0"
   inkscape:pagecheckerboard="0"
   inkscape:deskcolor="#d1d1d1"
   showgrid="false"
   inkscape:zoom="1.0605469"
   inkscape:cx="92.876611"
   inkscape:cy="125.87845"
   inkscape:window-width="1366"
   inkscape:window-height="697"
   inkscape:window-x="-8"
   inkscape:window-y="-8"
   inkscape:window-maximized="1"
   inkscape:current-layer="svg56865" />&#10;    &#10;    &#10;    &#10;    &#10;    &#10;    &#10;    &#10;    &#10;    &#10;    &#10;    &#10;    &#10;    &#10;    &#10;<g
   id="g1"
   transform="matrix(0.77374185,0,0,0.77374185,124.51633,21.20877)"
   style="stroke-width:1.29242"><path
     d="m -78.212564,15.546553 c -62.309996,0 -63.789996,69.859998 -63.789996,83.689998 0,13.829999 28.56,25.029999 63.789996,25.029999 35.24,0 63.79,-11.21 63.79,-25.029999 0,-13.83 -1.47,-83.689998 -63.79,-83.689998 z"
     fill="#fcc21b"
     id="path2-5"
     style="clip-rule:evenodd;fill-rule:evenodd;stroke-width:1.29242;stroke-linejoin:round;stroke-miterlimit:2" /><g
     id="g54"
     transform="translate(-628.25295,2.1930038)"
     style="clip-rule:evenodd;fill-rule:evenodd;stroke-width:1.29242;stroke-linejoin:round;stroke-miterlimit:2"><path
       d="m 579.06392,44.584168 c -2.25083,0 -5.88588,-3.118104 -8.65616,-3.118104 -2.77024,0 -7.61907,2.944452 -9.35047,2.944452 -1.7314,0 -4.50098,-3.118104 -7.61751,-3.118104 -3.11654,0 -7.44572,3.463973 -10.38911,3.463973 -2.94338,0 -7.44526,-3.809841 -10.21552,-3.809841 -2.77024,0 -6.75126,3.290321 -10.21407,3.290321 -5.07068,0 -10.89186,-2.372345 -11.34282,-7.638174 0,-7.553608 17.14792,-17.639583 41.42785,-17.570833 24.27997,0.06875 36.79299,11.260794 36.79299,17.603326 -0.16,5.428139 -5.43583,7.952984 -10.43518,7.952984 z"
       style="fill:#ed6c30;fill-opacity:1;stroke:none;stroke-width:5.16968;stroke-linecap:round;stroke-dasharray:none;stroke-opacity:1"
       id="path37"
       sodipodi:nodetypes="sssssssszss" /><path
       id="path38"
       style="clip-rule:evenodd;fill:#f79329;fill-rule:evenodd;stroke-width:1.29242;stroke-linejoin:round;stroke-miterlimit:2"
       d="m 535.20653,-0.23242188 c -0.0879,4.64976138 -0.31181,11.00905388 -0.6482,18.41844788 -0.33638,7.409394 -0.81182,15.878095 -1.32116,22.79249 2.78821,0.32284 7.00802,3.777343 9.81417,3.777343 2.94339,0 7.27216,-3.46289 10.38867,-3.46289 3.11653,0 5.88493,3.117187 7.61633,3.117187 1.46008,0 5.12788,-2.078098 7.90575,-2.734375 -0.52367,-6.427497 -0.9398,-14.730533 -1.25778,-22.361328 -0.43744,-10.4977665 -0.68112,-19.54687487 -0.68112,-19.54687488 z"
       sodipodi:nodetypes="cscssscscc" /><path
       id="path39"
       d="m 583.56792,-3.691199 h -0.01 c 0,-0.050548 0.008,-0.098216 0.008,-0.1487709 0,-6.7408541 -5.54636,-12.2857751 -12.28577,-12.2857751 -0.85651,0 -1.71014,0.08954 -2.54786,0.265764 -2.50166,-6.095225 -8.46687,-10.097562 -15.05752,-10.100451 -4.90652,-0.003 -9.56026,2.219991 -12.64253,6.038894 -1.98023,-1.008168 -4.16989,-1.533917 -6.39276,-1.536806 -7.24351,-0.0014 -13.38062,5.55792 -14.09412,12.7667501 -7.99024,0.4246423 -14.40467,6.9748429 -14.51156,15.1080661 -9.4e-4,0.066437 -9.4e-4,0.134327 -9.4e-4,0.2007678 0,8.339767 6.80151,15.227948 15.13839,15.33483 0.66153,0.0057 1.29993,-0.03755 1.93979,-0.1141 3.36826,7.120724 10.57131,11.680588 18.44888,11.679142 4.91373,0 9.41726,-1.741906 12.94152,-4.63208 2.7804,2.071221 6.15733,3.18916 9.6238,3.18916 7.40239,0 13.63193,-4.962842 15.57171,-11.748473 1.25083,0.417421 2.55943,0.631188 3.87812,0.632632 6.75964,-0.0014 12.32334,-5.563697 12.32334,-12.3247727 -0.003,-6.7610775 -5.56796,-12.3233288 -12.32903,-12.3247729 z"
       style="clip-rule:evenodd;fill:#cbdbe0;fill-rule:nonzero;stroke-width:1.29242;stroke-linejoin:round;stroke-miterlimit:2" /><path
       id="path40"
       d="m 590.8042,-1.3397717 c 2.7905,2.8208461 0.81462,9.2843842 -1.10205,11.3931577 -3.77847,4.140997 -10.71288,3.174716 -13.49616,2.579637 -0.75251,-0.163213 -0.87384,-0.106886 -1.12373,0.04333 -0.21809,0.134326 -0.31775,0.345203 -0.56185,0.852175 -0.89261,1.931118 -3.20938,5.674914 -8.09711,7.179943 -5.09139,1.570026 -9.8939,-0.823289 -12.13845,-2.250323 -0.85218,-0.540192 -0.8883,-0.554635 -1.27393,-0.547414 -0.38854,0.0071 -0.7713,0.290319 -1.2335,0.654298 -2.03221,1.597469 -6.67007,4.418316 -13.82258,4.005226 -7.01239,-0.405867 -11.02483,-4.723076 -12.40276,-6.948843 -0.26288,-0.424644 -0.54741,-0.779957 -0.87529,-0.816066 -0.3741,-0.03611 -0.7944,0.348091 -1.10638,0.661519 -2.98406,2.90462 -12.37533,3.779905 -15.48649,-1.172826 3.16894,5.079835 8.06245,7.594476 13.08451,7.658028 0.66152,0.0057 1.29992,-0.03755 1.93833,-0.114102 3.36972,7.120725 10.57277,11.680589 18.44889,11.679143 4.91518,0 9.41727,-1.741905 12.94297,-4.632081 2.7804,2.071221 6.15588,3.189161 9.6238,3.189161 7.40093,0 13.63192,-4.962842 15.57171,-11.748473 1.24938,0.417422 2.55942,0.631187 3.87668,0.632633 6.76108,-0.0014 12.32332,-5.563698 12.32476,-12.3247738 -0.013,-3.6239135 -1.83144,-7.71435848 -5.09283,-9.9733463 z"
       style="clip-rule:evenodd;fill:#93b1bb;fill-rule:nonzero;stroke-width:1.29242;stroke-linejoin:round;stroke-miterlimit:2" /><g
       id="g43"
       transform="translate(476.91003,-30.721122)"
       style="clip-rule:evenodd;fill-rule:evenodd;stroke-width:1.29242;stroke-linejoin:round;stroke-miterlimit:2">&#10;        <ellipse
   id="ellipse40"
   cx="20.49"
   cy="28.605"
   rx="1.911"
   ry="2.152"
   style="fill:#cbdbe0;stroke-width:1.29242" />&#10;        <ellipse
   id="ellipse41"
   cx="18.556999"
   cy="28.829"
   rx="1.6720001"
   ry="1.908"
   style="fill:#cbdbe0;stroke-width:1.29242" />&#10;        <ellipse
   id="ellipse42"
   cx="19.532"
   cy="26.426001"
   rx="2.7509999"
   ry="2.921"
   style="fill:#cbdbe0;stroke-width:1.29242" />&#10;        <ellipse
   id="ellipse43"
   cx="23.066999"
   cy="27.039"
   rx="3.1960001"
   ry="2.97"
   style="fill:#cbdbe0;stroke-width:1.29242" />&#10;    </g><g
       id="g47"
       transform="translate(500.35108,-40.823903)"
       style="clip-rule:evenodd;fill-rule:evenodd;stroke-width:1.29242;stroke-linejoin:round;stroke-miterlimit:2">&#10;        <ellipse
   id="ellipse44"
   cx="92.657997"
   cy="30.908001"
   rx="3.017"
   ry="3.1589999"
   style="fill:#cbdbe0;stroke-width:1.29242" />&#10;        <ellipse
   id="ellipse45"
   cx="96.483002"
   cy="26.973"
   rx="3.3900001"
   ry="3.7579999"
   style="fill:#cbdbe0;stroke-width:1.29242" />&#10;        <ellipse
   id="ellipse46"
   cx="92.060997"
   cy="27.094"
   rx="2.4690001"
   ry="2.951"
   style="fill:#cbdbe0;stroke-width:1.29242" />&#10;        <ellipse
   id="ellipse47"
   cx="96.907997"
   cy="31.294001"
   rx="2.1659999"
   ry="1.898"
   style="fill:#cbdbe0;stroke-width:1.29242" />&#10;    </g><g
       id="g50"
       transform="translate(474.95661,-34.551996)"
       style="clip-rule:evenodd;fill-rule:evenodd;stroke-width:1.29242;stroke-linejoin:round;stroke-miterlimit:2">&#10;        <ellipse
   id="ellipse48"
   cx="100.731"
   cy="9.6540003"
   rx="2.4289999"
   ry="1.446"
   style="fill:#cbdbe0;stroke-width:1.29242" />&#10;        <ellipse
   id="ellipse49"
   cx="100.656"
   cy="11.237"
   rx="2.4489999"
   ry="1.891"
   style="fill:#cbdbe0;stroke-width:1.29242" />&#10;        <ellipse
   id="ellipse50"
   cx="104.294"
   cy="10.339"
   rx="2.0739999"
   ry="2.3529999"
   style="fill:#cbdbe0;stroke-width:1.29242" />&#10;    </g><g
       id="g53"
       transform="translate(482.0605,-32.337713)"
       style="clip-rule:evenodd;fill-rule:evenodd;stroke-width:1.29242;stroke-linejoin:round;stroke-miterlimit:2">&#10;        <ellipse
   id="ellipse51"
   cx="23.888"
   cy="11.704"
   rx="2.063"
   ry="2.1289999"
   style="fill:#cbdbe0;stroke-width:1.29242" />&#10;        <ellipse
   id="ellipse52"
   cx="20.218"
   cy="10.146"
   rx="2.5050001"
   ry="3.3150001"
   style="fill:#cbdbe0;stroke-width:1.29242" />&#10;        <ellipse
   id="ellipse53"
   cx="25.240999"
   cy="8.2259998"
   rx="3.381"
   ry="3.0829999"
   style="fill:#cbdbe0;stroke-width:1.29242" />&#10;    </g><path
       id="path53"
       d="m 605.26867,14.829496 c -3.505,3.03 -2.913,3.407 -5.726,2.904 -2.569,-0.46 -0.709,-2.422 0.515,-6.177 0.854,-2.6209997 3.989,-4.0529997 5.404,-1.8599997 1.635,2.5319997 1.892,3.3299997 -0.193,5.1329997 z m -0.595,12.354 c -3.266,1.397 -5.068,0.324 -4.577,-1.788 0.235,-1.008 0.835,-2.275 3.81,-2.803 1.672,-0.296 4.852,0.448 3.816,2.13 -1.296,2.103 -1.293,1.71 -3.049,2.461 z m -8.371,-6.218756 c 0,0.961 -1.33,1.616 -2.086,1.616 -0.757,0 -0.653,-0.655 -0.653,-1.616 0,-0.962 0.613,-1.741 1.37,-1.741 0.756,0 1.37,0.779 1.37,1.74 z m -98.67104,-3.637287 c 1.68,1.124 0.844,0.718 3.72,2.129 2.344,1.15 1.712,-1.153 0.488,-4.909 -0.854,-2.62 -4.057,-3.745 -5.472,-1.553 -1.635,2.533 -1.026,2.8 1.264,4.333 z m -5.62582,10.769198 c 3.266,1.397 5.069,0.324 4.577,-1.789 -0.234,-1.007 -2.454,-0.165 -3.81,-2.802 -0.777,-1.509 -4.851,0.448 -3.815,2.129 1.296,2.103 1.293,1.71 3.048,2.462 z"
       style="clip-rule:evenodd;fill:#fcc21b;fill-rule:nonzero;stroke-width:1.29242;stroke-linejoin:round;stroke-miterlimit:2"
       sodipodi:nodetypes="cccccccccccssscccscccccccc" /></g><g
     id="g58"
     transform="translate(-482.02879,7.5733978)"
     style="clip-rule:evenodd;fill-rule:evenodd;stroke-width:1.29242;stroke-linejoin:round;stroke-miterlimit:2"><g
       id="g55"
       transform="matrix(-0.11490307,-1.0661011,-1.0652664,0.12240358,513.93668,-12.113744)"
       style="clip-rule:evenodd;fill-rule:evenodd;stroke-width:1.16431;stroke-linejoin:round;stroke-miterlimit:2">&#10;        <ellipse
   cx="-57.916"
   cy="89.811996"
   rx="16.563"
   ry="14.981"
   style="fill:#ffffff;stroke-width:1.16431"
   id="ellipse54" />&#10;    </g><g
       id="g56"
       serif:id="ellipse14306"
       transform="matrix(0.11490307,-1.0661011,1.0652664,0.12240358,293.69577,-12.113744)"
       style="clip-rule:evenodd;fill-rule:evenodd;stroke-width:1.16431;stroke-linejoin:round;stroke-miterlimit:2">&#10;        <ellipse
   cx="-57.916"
   cy="89.811996"
   rx="16.563"
   ry="14.981"
   style="fill:#ffffff;stroke-width:1.16431"
   id="ellipse55" />&#10;    </g><path
       id="path56"
       d="m 430.2753,60.520819 c -0.20203,3.003756 -2.76731,5.294868 -5.7189,5.115042 -2.96046,-0.174275 -5.19829,-2.767318 -4.99626,-5.769963 0.19424,-3.010415 2.74844,-5.294867 5.71002,-5.112821 2.96046,0.173165 5.20717,2.766207 5.00514,5.768852"
       style="clip-rule:evenodd;fill:#2f2f2f;fill-rule:nonzero;stroke-width:1.29242;stroke-linejoin:round;stroke-miterlimit:2" /><g
       id="g57"
       serif:id="path14308"
       transform="matrix(-1.1100352,0,0,1.1100352,475.51754,-14.675184)"
       style="clip-rule:evenodd;fill-rule:evenodd;stroke-width:1.16431;stroke-linejoin:round;stroke-miterlimit:2">&#10;        <path
   d="m 88.43,67.742 c -0.182,2.706 -2.493,4.77 -5.152,4.608 -2.667,-0.157 -4.683,-2.493 -4.501,-5.198 0.175,-2.712 2.476,-4.77 5.144,-4.606 2.667,0.156 4.691,2.492 4.509,5.197"
   style="fill:#2f2f2f;fill-rule:nonzero;stroke-width:1.16431"
   id="path57" />&#10;    </g><path
       id="path58"
       d="m 418.91156,96.797878 c 0,8.904702 -6.76122,12.657732 -15.10536,12.657732 -8.34303,0 -15.10536,-3.75303 -15.10536,-12.657732 0,-8.904702 6.76123,-19.58102 15.10536,-19.58102 8.34303,0 15.10536,10.682978 15.10536,19.58102 z"
       style="clip-rule:evenodd;fill:#ed6c30;fill-rule:nonzero;stroke-width:1.29242;stroke-linejoin:round;stroke-miterlimit:2" /></g></g></svg>
