<?xml version="1.0" encoding="UTF-8" standalone="no"?>
<svg
   width="100%"
   height="100%"
   viewBox="0 0 128 128"
   version="1.1"
   xml:space="preserve"
   style="fill-rule:evenodd;clip-rule:evenodd;stroke-linejoin:round;stroke-miterlimit:2;"
   id="svg56590"
   sodipodi:docname="emoji_u1f973.svg"
   inkscape:version="1.3 (0e150ed6c4, 2023-07-21)"
   xmlns:inkscape="http://www.inkscape.org/namespaces/inkscape"
   xmlns:sodipodi="http://sodipodi.sourceforge.net/DTD/sodipodi-0.dtd"
   xmlns:xlink="http://www.w3.org/1999/xlink"
   xmlns="http://www.w3.org/2000/svg"
   xmlns:svg="http://www.w3.org/2000/svg"><defs
   id="defs56594"><pattern
   inkscape:collect="always"
   xlink:href="#Strips2_1"
   id="pattern64180"
   patternTransform="matrix(7.3650043,0.99308862,1.2397203,-9.1940977,-60.880387,-62.455354)" /><pattern
   inkscape:collect="always"
   patternUnits="userSpaceOnUse"
   width="1.5"
   height="1"
   patternTransform="translate(0,0) scale(10,10)"
   id="Strips2_1"
   inkscape:stockid="Stripes 2:1"><rect
     style="fill:black;stroke:none"
     x="0"
     y="-0.5"
     width="1"
     height="2"
     id="rect58129" /></pattern>&#10;        &#10;    <pattern
   patternUnits="userSpaceOnUse"
   width="64.542633"
   height="30.118849"
   patternTransform="translate(60.880387,62.455354)"
   id="pattern64182"><path
     id="path56718"
     d="m 64.542633,15.487101 c 0,9.841476 -6.51107,14.631748 -14.96934,14.631748 -4.79832,0 -7.22689,-0.401729 -12.00767,-0.937659 L 2.449613,25.244646 C 0.192503,24.991621 0,23.358724 0,20.484154 0,17.301807 0.824177,15.800272 3.082613,16.039868 l 34.33463,3.642544 c 3.62212,0.384269 7.34658,1.308931 10.41229,1.313142 3.78536,0.0052 6.84848,-1.845033 6.84848,-5.508453 0,-3.436981 -2.21343,-6.118592 -6.65354,-6.118592 -5.00835,0 -8.03697,3.827132 -9.245289,3.038491 C 38.152882,11.998231 37.856553,11.149411 36.816557,9.273583 35.776555,7.397747 35.153143,6.486375 35.4326,5.624934 35.972813,3.959705 40.993583,0 48.671073,0 c 10.04944,0 15.87156,6.87143 15.87156,15.487101 z"
     style="fill:url(#pattern64180);fill-opacity:1;fill-rule:nonzero"
     sodipodi:nodetypes="ssssssssssszsss" /></pattern></defs><sodipodi:namedview
   id="namedview56592"
   pagecolor="#ffffff"
   bordercolor="#000000"
   borderopacity="0.25"
   inkscape:showpageshadow="2"
   inkscape:pageopacity="0.0"
   inkscape:pagecheckerboard="0"
   inkscape:deskcolor="#d1d1d1"
   showgrid="false"
   inkscape:zoom="2.8284271"
   inkscape:cx="89.979339"
   inkscape:cy="72.301669"
   inkscape:window-width="1366"
   inkscape:window-height="697"
   inkscape:window-x="-8"
   inkscape:window-y="-8"
   inkscape:window-maximized="1"
   inkscape:current-layer="svg56590"
   showguides="false" />&#10;    <path
   id="path35586"
   d="m 35.804528,68.437872 c -0.932423,0.0093 -1.672768,0.195808 -2.35437,0.63498 h -0.0018 c -0.281592,0.181822 -0.510036,0.468077 -0.625656,1.287677 -0.116553,0.820533 -0.0028,2.066251 0.421455,3.480738 0.486726,1.622416 1.376257,3.453697 2.552977,5.231828 6.413209,1.04618 25.954944,3.408941 56.102064,-0.167836 1.121706,-1.724983 1.972077,-3.491927 2.44295,-5.063992 0.423321,-1.414487 0.537077,-2.66207 0.421456,-3.482603 -0.115621,-0.820532 -0.344996,-1.104921 -0.623792,-1.285812 -0.90818,-0.585562 -1.921725,-0.721696 -3.358589,-0.589292 -1.436865,0.131472 -3.15066,0.587428 -4.959562,0.94268 l 0.0018,-0.0018 c -9.624476,1.898415 -18.048924,1.971144 -22.028508,1.971144 -3.979584,0 -12.401234,-0.07273 -22.026643,-1.971144 v 0.0018 c -1.808902,-0.356185 -3.522697,-0.811208 -4.960494,-0.94268 -0.333808,-0.03263 -0.668548,-0.04848 -1.003288,-0.04662 z"
   style="fill:#ffffff;fill-rule:nonzero;stroke-width:1" />&#10;    <path
   id="path35588"
   d="m 63.729377,16.938863 c -58.0993167,0 -59.4793037,65.139115 -59.4793037,78.034534 0,12.895423 26.6300187,23.338563 59.4793037,23.338563 32.858608,0 59.479303,-10.45247 59.479303,-23.338563 0,-12.895419 -1.37067,-78.034534 -59.479303,-78.034534 z"
   style="fill:#fcc21b;fill-rule:nonzero;stroke-width:1" /><g
   id="g92483"
   transform="matrix(0.90833912,-0.52442981,0.52442981,0.90833912,4.2734057,-50.351648)"
   style="stroke-width:0.953415"><path
     id="path83741"
     style="fill:#f79329;fill-rule:nonzero;stroke-width:5.7205;stroke-linecap:round"
     inkscape:transform-center-y="-7.1706384"
     d="m 1.4224509,82.732415 c -2.20043419,2.748004 -5.9027925,2.7552 -16.2662809,2.755201 -10.363488,0 -14.065849,-0.0072 -16.266283,-2.7552 -2.200433,-2.748004 6.452284,-21.130218 8.905785,-25.825684 2.453498,-4.69547 4.60695,-8.097286 7.360497,-8.097287 2.753546,0 4.9070001,3.401817 7.3604979,8.097287 2.453501,4.695466 11.1062183,23.07768 8.905784,25.825683 z"
     sodipodi:nodetypes="zzzzzzz"
     inkscape:transform-center-x="-5.5345314" /><path
     id="rect83796"
     style="fill:#ed6c30;fill-opacity:1;fill-rule:nonzero;stroke:none;stroke-width:5.7205;stroke-linecap:round"
     d="m -21.06412,54.807035 c -0.375291,0.667491 -0.752849,1.360525 -1.139521,2.100529 -0.649032,1.242109 -1.73621,3.453105 -2.937193,6.067977 l 21.1439581,1.21075 c -1.4158743,-3.141635 -2.7393276,-5.848381 -3.4867197,-7.278727 -0.2471329,-0.47296 -0.4886045,-0.922616 -0.73057,-1.367173 z m -6.779615,14.372587 c -0.295788,0.720041 -0.584235,1.439361 -0.860496,2.151318 -0.0065,0.01695 -0.01259,0.03384 -0.01919,0.05078 -0.270759,0.698839 -0.529671,1.389389 -0.77317,2.065994 -0.0088,0.02447 -0.01678,0.0487 -0.0256,0.07312 -0.240316,0.669837 -0.465686,1.324527 -0.670932,1.958328 -0.01,0.03113 -0.01984,0.06244 -0.0298,0.09345 -0.204948,0.63672 -0.390841,1.252938 -0.551658,1.838471 L 1.5388012,79.263767 C 1.4824362,78.976893 1.417334,78.678002 1.3428468,78.367893 1.3055866,78.212762 1.2586839,78.046876 1.2171846,77.886435 1.120708,77.513513 1.01531,77.129209 0.89768871,76.730533 c -0.0341248,-0.115648 -0.0643462,-0.225731 -0.1001079,-0.343316 -0.0114499,-0.03767 -0.0245906,-0.07794 -0.0362134,-0.115793 -0.1327594,-0.432498 -0.2797746,-0.879984 -0.4323786,-1.334669 -0.0749252,-0.223195 -0.1487232,-0.444776 -0.227904,-0.672413 -0.0064541,-0.01856 -0.0126925,-0.03829 -0.0191738,-0.05688 -0.1368634,-0.392367 -0.2801499,-0.791538 -0.4281189,-1.1945 -0.2776164,-0.756029 -0.5720133,-1.527818 -0.87966771,-2.305709 z" /></g>&#10;    <path
   id="path35590"
   d="m 33.918235,59.011466 c -0.719831,1.187909 -2.28537,1.577661 -3.47794,0.867155 -1.189773,-0.706778 -1.59258,-2.263925 -0.895126,-3.459292 0.167836,-0.289051 4.289148,-7.105068 13.398926,-7.105068 9.119104,0 13.240416,6.816017 13.417577,7.105068 0.226579,0.389753 0.345929,0.831722 0.345929,1.282083 0,1.397702 -1.148746,2.548313 -2.546449,2.550179 -0.85783,0 -1.706335,-0.43824 -2.181871,-1.2308 -0.121216,-0.205133 -2.909162,-4.624822 -9.035186,-4.624822 -6.126022,-0.0093 -8.895321,4.419689 -9.02586,4.615497 z m 63.442104,0.876478 c -0.400942,0.242431 -0.848506,0.354322 -1.27742,0.354322 -0.876478,0 -1.724984,-0.456887 -2.20052,-1.249447 -0.102567,-0.186485 -2.871865,-4.606173 -9.007212,-4.606173 -6.237914,0 -9.007213,4.559551 -9.035185,4.606173 -0.462483,0.747803 -1.281151,1.204691 -2.160425,1.204691 -1.393975,0 -2.539923,-1.145949 -2.539923,-2.539923 0,-0.437306 0.112823,-0.867153 0.327281,-1.247582 0.167836,-0.289052 4.289149,-7.105068 13.408252,-7.105068 9.109778,0 13.221767,6.816016 13.389603,7.105068 0.708642,1.212151 0.298376,2.769298 -0.904451,3.477939 z"
   style="fill:#2f2f2f;fill-rule:nonzero;stroke-width:1" />&#10;    &#10;    &#10;    <path
   id="path39789"
   d="m 41.613942,36.118184 c 1.130889,-0.382395 2.472661,-0.254499 2.799854,-1.995268 0.307416,-1.637234 -0.343464,-3.460252 -0.52345,-5.081878 -0.113483,-1.048279 -0.579768,-1.965596 -1.339853,-2.476401 -0.865689,-0.582705 -1.72911,-0.416122 -2.665077,-0.19738 -0.703581,0.160601 -1.459436,0.148218 -2.170475,0.215734 -0.735886,0.06632 -1.451361,0.332808 -2.182796,0.412364 -0.512314,0.04527 -0.45471,-0.01268 -0.750451,0.425066 -0.169263,0.281546 -0.304135,0.580347 -0.402493,0.890419 -0.475,1.579157 0.37902,3.848408 0.842208,5.321535 0.361124,1.179056 0.240281,3.196292 1.456885,3.47544 0.90076,0.212841 1.935433,-0.179558 2.815772,-0.379062 0.713525,-0.172655 1.420384,-0.376839 2.119872,-0.610561 z"
   style="fill:#40c0e7;fill-opacity:1;fill-rule:nonzero;stroke-width:1" />&#10;    <path
   id="path35596"
   d="m 85.087594,108.31521 c -0.815982,-0.55888 -2.090309,-1.12776 -3.02607,-1.40902 -1.046265,-0.3239 -2.190165,-0.6106 -3.282277,-0.71586 -1.53796,-0.13972 -1.388081,0.66506 -1.82714,1.95342 -0.311752,0.88823 -0.770571,1.63312 -1.014231,2.54132 -0.258142,0.95628 -0.458768,1.9289 -0.725159,2.88066 -0.635453,2.23103 -0.678888,3.47767 1.797127,4.13182 1.787145,0.46907 3.669427,0.73309 5.486633,1.10145 0.534644,-0.20414 0.70615,-1.01254 0.823954,-1.50157 0.210453,-0.86193 0.558765,-1.64946 0.812759,-2.49142 0.476655,-1.51156 1.049773,-3.06032 1.406826,-4.59726 0.1989,-0.77393 0.252438,-1.41901 -0.452422,-1.89354 z"
   style="fill:#40c0e7;fill-opacity:1;fill-rule:nonzero;stroke-width:1" />&#10;    <path
   id="path35600"
   d="m 92.703364,31.427652 c -0.923923,0.01654 -1.761901,0.01871 -2.68913,0.173734 -0.897479,0.159085 -1.209861,0.547223 -1.004086,1.836882 0.119003,0.805075 0.142143,1.626902 0.295028,2.428208 0.13801,0.755453 0.395023,1.502908 0.545429,2.268445 0.110738,0.548462 0.09256,1.433648 0.352875,1.913015 0.368578,0.666643 0.994996,0.443519 1.474312,0.390528 0.597493,-0.06297 1.194985,0.0046 1.809006,-0.099 0.77517,-0.141281 1.538771,-0.358733 2.304852,-0.604754 0.626416,-0.201678 1.519762,-0.330558 2.080893,-0.684742 0.151233,-0.103369 0.27602,-0.246712 0.365273,-0.420082 0.366098,-0.680113 0.3818,-1.838838 0.342959,-2.641362 -0.04959,-1.093975 -0.283458,-2.309145 -0.482623,-3.398361 -0.316514,-1.708514 -1.683391,-1.455923 -2.623844,-1.397812 -0.914832,0.07839 -1.830493,0.221009 -2.770944,0.235297 z"
   style="fill:#40c0e7;fill-opacity:1;fill-rule:nonzero;stroke-width:1" />&#10;    <path
   id="path35602"
   d="m 112.24802,50.635568 c -0.80206,0.301178 -1.77726,0.686136 -2.38338,1.406208 -0.54266,0.63311 -0.13181,1.835704 0.0439,2.697881 0.19519,0.966105 0.61162,1.898274 1.04051,2.781661 0.3997,0.809153 0.79395,1.819798 1.31445,2.550475 0.59159,0.839906 1.01992,0.402984 1.60769,0.04665 0.71486,-0.419954 1.44879,-0.839908 2.23736,-1.092304 1.07368,-0.339355 2.24966,-0.620385 3.26666,-1.048823 0.34878,-0.141044 0.51482,-0.456009 0.55586,-0.863238 0.14636,-1.269403 -0.9199,-3.484763 -1.20677,-4.446626 -0.22168,-0.763552 -0.61524,-2.104008 -1.18442,-2.623647 -0.63589,-0.604479 -1.42771,-0.523881 -2.11394,-0.462373 -1.10799,0.102862 -2.12841,0.654321 -3.17793,1.054125 z"
   style="fill:#d7598b;fill-opacity:1;fill-rule:nonzero;stroke-width:1" />&#10;    <g
   id="g35606"
   transform="matrix(-1.36519,0,0,0.91620601,147.44518,12.986906)"
   style="stroke-width:1.01708">&#10;        <path
   id="ellipse35604"
   style="fill:#ed6c30;stroke-width:1.09146"
   d="m 64.506444,83.04147 c 0,3.75885 -1.196411,5.823528 -3.427089,5.823528 -2.230678,0 -3.427089,-2.064678 -3.427089,-5.823528 0,-3.75885 1.196411,-7.788472 3.427089,-7.788472 2.230678,0 3.427089,4.029622 3.427089,7.788472 z"
   sodipodi:nodetypes="sssss" />&#10;    </g>&#10;    &#10;    &#10;    <path
   id="path39793"
   d="m 33.917659,94.532411 c -0.962229,0.05228 -0.96893,0.976335 -1.390371,1.739892 -0.953951,1.6904 -1.404153,3.581352 -1.909266,5.472547 -0.187846,0.70364 -0.953932,2.38792 -0.398547,3.12438 0.453449,0.59164 1.65478,0.6195 2.319966,0.78523 l 2.596889,0.64117 c 0.409724,0.0989 3.011246,1.04953 3.313788,0.8137 0.53124,-0.39759 0.609288,-1.4672 0.760733,-2.07311 0.255396,-1.11957 0.396277,-2.25823 0.69572,-3.3826 0.38802,-1.45265 0.787428,-3.030927 0.784043,-4.567202 -1.297397,-0.97803 -2.823319,-1.345576 -4.392189,-1.876839 -0.730034,-0.247641 -1.630575,-0.712071 -2.380989,-0.6781 z"
   style="fill:#d7598b;fill-opacity:1;fill-rule:nonzero;stroke-width:1" />&#10;    <path
   id="path35618"
   d="m 22.509395,64.248184 c 0.237329,-0.07017 0.420953,-0.173536 0.546748,-0.302647 0.687038,-0.661781 0.0046,-2.045255 -0.244632,-3.230035 -0.276016,-1.405342 -0.294819,-2.817964 -0.68812,-4.216974 -0.44049,-1.519234 -1.669362,-1.646448 -2.685358,-1.304172 -1.102132,0.375483 -2.281055,0.546975 -3.401518,0.894394 -1.003519,0.305641 -1.85543,0.517107 -1.854116,1.787249 0.0022,1.154791 0.607545,2.298829 1.001238,3.418007 0.740902,2.083935 0.766849,4.608773 3.342749,4.296272 1.444745,-0.171583 2.632442,-0.954009 3.983009,-1.342094 z"
   style="fill:#d7598b;fill-opacity:1;fill-rule:nonzero;stroke-width:1" />&#10;    <path
   id="path40523"
   d="m 75.355956,64.076574 c -0.927326,0.680765 -1.670602,1.419839 -2.476235,2.188798 -0.288082,0.269682 -0.566875,0.394317 -0.595233,0.814147 -0.04709,0.534991 0.407051,1.386311 0.671114,1.830921 0.668026,1.075814 1.414259,1.997105 2.243886,2.924228 0.44098,0.499276 0.985419,1.591123 1.683251,1.742728 0.592156,0.123908 1.363391,-0.459189 1.841229,-0.765313 0.632111,-0.414728 1.348534,-0.750737 1.943903,-1.192433 0.762533,-0.569247 1.717862,-1.395785 2.312637,-2.12174 0.332296,-0.398692 0.344246,-0.791552 0.213897,-1.16765 -0.11471,-0.342569 -0.344353,-0.672019 -0.546335,-0.987619 -1.05378,-1.608616 -2.775464,-3.806159 -4.592985,-4.686635 -0.859375,-0.4191 -2.012547,0.918377 -2.699129,1.420568 z"
   style="fill:#40c0e7;fill-opacity:1;fill-rule:nonzero;stroke-width:1" />&#10;    <path
   id="path35598"
   d="m 66.582059,21.637467 c 0.467539,0.291801 3.825769,3.564216 4.112336,3.217633 0.622854,-0.807203 1.43666,-1.457885 2.085344,-2.266206 0.740911,-0.936892 1.4319,-1.936392 2.367142,-2.691049 1.129122,-0.908942 1.132432,-1.806703 0.653999,-2.655273 -0.680272,-1.19627 -2.343958,-2.287447 -3.275634,-3.158376 -0.73,-0.681987 -1.620178,-1.319252 -2.461092,-1.031923 -0.951727,0.335402 -1.798405,1.245463 -2.447278,1.964343 -0.816095,0.899997 -1.960432,1.788815 -2.535107,2.845334 -0.807216,1.431052 0.24234,2.970551 1.50029,3.775517 z"
   style="fill:#d7598b;fill-opacity:1;fill-rule:nonzero;stroke-width:1" />&#10;<path
   style="fill:#4857ac;fill-opacity:1;stroke-width:6;stroke-linecap:round"
   d="m 64.581573,84.162517 c -1.742032,-0.105274 -3.220126,0.579591 -3.412095,3.971074 -0.178618,3.155624 1.312957,4.575515 3.212212,4.728216 9.876674,0.794085 23.510616,1.420481 34.931809,1.420481 11.848221,0 19.269361,-5.295316 19.269361,-16.000723 0,-10.705409 -7.09953,-15.432827 -16.45875,-15.432827 -7.302135,0 -11.67028,4.904014 -11.67028,10.757783 0,4.756189 3.692882,8.173918 8.40086,8.173918 4.93724,0 7.64033,-3.16295 6.66583,-4.850837 -0.76727,-1.328963 -2.19762,-0.532717 -4.18106,-0.532717 -1.983461,0 -3.182252,-0.800319 -3.182252,-2.469557 0,-1.714972 1.285974,-3.399603 4.686192,-3.399603 3.77074,0 7.06459,2.184816 7.06459,7.205048 0,5.020233 -3.70232,7.892976 -11.033797,7.892976 -9.938845,0 -25.53205,-0.933841 -34.29262,-1.463232 z"
   id="path1"
   sodipodi:nodetypes="sssszssssssszss" /><path
   id="rect2"
   style="fill:#42ade7;fill-opacity:1;stroke-width:6.00001;stroke-linecap:round"
   d="m 63.942266,84.163343 c -1.452564,0.10693 -2.605122,1.002883 -2.773095,3.970426 -0.178622,3.155621 1.312244,4.574589 3.211496,4.72729 3.140869,0.252525 6.684603,0.484763 10.39342,0.68862 l 0.306095,-8.784568 C 71.170129,84.551347 67.459281,84.337257 64.5813,84.163343 c -0.217754,-0.01316 -0.431481,-0.01529 -0.63899,0 z" /></svg>
