<?xml version="1.0" encoding="UTF-8" standalone="no"?>
<svg
   width="128px"
   height="128px"
   version="1.1"
   xml:space="preserve"
   style="fill-rule:evenodd;clip-rule:evenodd;stroke-linejoin:round;stroke-miterlimit:2;"
   id="svg5213"
   sodipodi:docname="emoji_u1f9c5.svg"
   inkscape:version="1.2.2 (732a01da63, 2022-12-09)"
   xmlns:inkscape="http://www.inkscape.org/namespaces/inkscape"
   xmlns:sodipodi="http://sodipodi.sourceforge.net/DTD/sodipodi-0.dtd"
   xmlns:xlink="http://www.w3.org/1999/xlink"
   xmlns="http://www.w3.org/2000/svg"
   xmlns:svg="http://www.w3.org/2000/svg"><sodipodi:namedview
     id="namedview5215"
     pagecolor="#ffffff"
     bordercolor="#000000"
     borderopacity="0.25"
     inkscape:showpageshadow="2"
     inkscape:pageopacity="0.0"
     inkscape:pagecheckerboard="0"
     inkscape:deskcolor="#d1d1d1"
     showgrid="false"
     inkscape:zoom="4"
     inkscape:cx="60"
     inkscape:cy="62.5"
     inkscape:window-width="1366"
     inkscape:window-height="697"
     inkscape:window-x="-8"
     inkscape:window-y="-8"
     inkscape:window-maximized="1"
     inkscape:current-layer="svg5213" /><g
     transform="matrix(1,0,0,1,0.0648382,-0.670929)"
     id="g5191"
     style="fill:#ffd54f"><path
       d="m 62.16,6.84 c -2.654434,0.4428065 -7.09,-5.02 -7.65,-2.58 -0.56,2.44 0.42,7.32 -1.64,10.51 -2.06,3.19 -4.88,4.69 -7.13,5.44 -2.25,0.75 -33.97,14.529723 -33.97,49.436556 0,34.906834 26.743267,48.365724 52.209727,48.365724 25.46646,0 50.616093,-18.897336 50.616093,-49.531175 C 114.59582,34.075627 82.0193,20.662021 75.12,18.27 71.549299,17.032021 70.895138,15.170822 70.47,12.64 70.045136,10.110812 69.77,2.93 67.8,2.5 65.83,2.07 64.499848,6.449672 62.16,6.84 Z"
       style="fill:#ffd54f;fill-rule:nonzero"
       id="path5189"
       sodipodi:nodetypes="sssszzsssss" /></g><path
     d="m 58.97,10.828181 c 1.5,0.14 0.79,-2.5299996 3.05,-2.8599996 1.92,-0.28 2.06,2.4899996 3.28,2.0199996 1.22,-0.4699996 0.79,-4.0299996 0.99,-5.9599996 0.19,-1.88 1.5,-2.21 1.5,-2.21 0,0 -0.93,-1.03 -2.9,-0.47 -1.97,0.56 -2.72,3.1 -2.72,3.1 0,0 -1.88,-3.28 -4.5,-3 -2.43,0.26 -3,1.88 -3,1.88 0,0 1.88,0.09 2.44,1.5 0.56,1.41 -0.15,5.8099996 1.86,5.9999996 z"
     style="fill:#ffa726;fill-rule:nonzero"
     id="path5193" /><path
     id="path6775"
     style="color:#000000;clip-rule:nonzero;fill:#ffd54f;fill-opacity:1;fill-rule:nonzero;stroke-width:0.999996;stroke-linecap:round;stroke-linejoin:miter;-inkscape-stroke:none"
     d="m 62.213973,110.35365 c -1.537064,0.13312 -2.556578,1.42406 -3.77731,2.21053 -2.013143,1.49641 -4.112015,2.90469 -6.452763,3.83853 -0.946287,0.43244 -2.067049,0.553 -2.801157,1.37085 -1.655311,1.5129 -1.557352,4.42216 0.199954,5.81848 1.27294,1.13857 3.166518,1.12398 4.660377,0.46119 1.554473,-0.59841 2.994916,-1.45306 4.396994,-2.34364 -0.124322,1.41234 0.005,2.97508 1.051149,4.04197 1.5325,1.81662 4.621805,1.83042 6.171551,0.0295 1.067019,-1.06738 1.205536,-2.64607 1.078089,-4.07148 1.946358,1.18673 3.951453,2.50686 6.259817,2.80656 2.203516,0.20384 4.277475,-1.75302 4.191826,-3.96485 0.02116,-1.864 -1.459007,-3.5477 -3.282065,-3.8512 -2.215141,-0.86523 -4.303672,-2.02249 -6.208803,-3.44604 -1.258391,-0.82729 -2.364128,-1.87662 -3.664657,-2.6356 -0.583785,-0.19794 -1.206117,-0.34298 -1.823002,-0.26481 z" /><path
     d="m 65.92,32.79 c 0.56,3.52 5.31,21.17 5.54,33.41 0.28,15.3 -1.5,25.64 -2.96,32.57 -1.64,7.79 -3.38,13.94 -3.38,13.94 l 3.193209,-1.57291 C 68.313209,111.13709 73.14,94.46 74.27,82.44 75.26,71.87 74.41,58.93 71.74,46.4 69.06,33.87 67,24.9 66.53,20.63 66.19,17.54 65.69,12.7 65.69,12.7 c 0,0 2.96,6.28 5.02,9.29 1.85,2.7 6.38,8.63 10.89,17.64 5.04,10.07 8.54,23.84 7.98,35.1 -0.56,11.26 -2.63,19.66 -4.88,24.03 -2.25,4.36 -8.45,10.56 -8.45,10.56 l -2.96,2.53 c 0,0 7.74,-2.39 10.7,-6.9 2.96,-4.51 8.96,-13.61 8.68,-31.91 -0.28,-18.3 -5.26,-28.63 -8.82,-35.95 -2.84,-5.83 -11.9,-17.88 -11.9,-17.88 0,0 14.24,10.25 17.71,13.39 8.73,7.88 15.39,17.36 16.42,34.77 0.77,12.99 -3.55353,20.959111 -7.122187,27.952166 C 95.834289,101.44296 87.87,108.34 87.87,108.34 c 0,0 7.199859,-5.23986 11.760537,-11.072912 C 104.19122,91.434036 110.06304,82.924901 109.32,67.23 108.34,46.53 98.48,36.92 92.43,31.33 87.26,26.56 77.68,20.53 73.8,18.24 c -3.31,-1.95 -4.04,-3.8 -4.46,-5.35 -0.42,-1.55 -1.27,-1.5 -1.27,-1.5 L 56.9,12.42 55.82,11.94 c 0,0 -5.3,8.28 -10.75,12.17 C 41,27.02 31,33.73 24.34,43.77 17.59,53.95 16.78,64.7 17.68,75.49 c 0.94,11.26 6.19,23.7 16.19,29.89 10,6.19 22.38,7.88 22.38,7.88 0,0 -7.73,-2.84 -11.64,-4.46 -4.32,-1.78 -9.76,-4.22 -14.97,-10.32 -4.42,-5.17 -11.66,-18.16 -9.43,-35.19 1.6,-12.2 7.03,-20.81 14.08,-27.31 7.37,-6.8 11.16,-9.26 13,-10.79 4.22,-3.52 7.98,-9.13 7.98,-9.13 0,0 1.72,-1.62 0.28,1.48 -1.23,2.65 -5.58,8.67 -6.41,9.85 -3.03,4.36 -7.34,8.12 -12.79,22.48 -5.63,14.85 -3.99,28.02 -2.16,34.91 1.83,6.9 4.22,12.67 7.7,17.08 4.19,5.32 13.8,10.79 13.8,10.79 0,0 -8,-6.91 -11.26,-11.54 C 40.39,95.38 38.3,89.15 36.55,81.68 35.05,75.3 34.48,64.71 38.8,51.55 c 3.38,-10.28 5.98,-13.68 9.36,-18.61 3.38,-4.93 5.65,-7.95 8.47,-12.55 1.65,-2.7 3.21,-7.09 3.21,-7.09 l 0.63,-0.19 c 0,0 -0.7,5.77 -1.41,8.73 -0.71,2.96 -1.45,7.6 -3.28,12.53 -1.83,4.93 -8.24,18.39 -7.7,33.83 0.66,18.63 5.3,30.03 7.13,34.4 1.83,4.37 4.69,12.06 4.69,12.06 l 1.6,-3.66313 c 0,0 -7.13,-16.60687 -9.1,-28.85687 C 50.62,71.07 50.48,63.6 51.84,55.2 c 0.86,-5.29 6.1,-17.97 7.09,-21.63 0.99,-3.66 2.25,-9.48 2.53,-11.17 l 1.48,-6.22 z"
     style="fill:url(#linearGradient5782);fill-opacity:1;fill-rule:nonzero"
     id="path5195"
     sodipodi:nodetypes="cccccccccccscccssccccsczsccsccccccsccccccccccccccccscccsscsccccsccc" /><defs
     id="defs5211"><linearGradient
       inkscape:collect="always"
       id="linearGradient5780"><stop
         style="stop-color:#ffd54f;stop-opacity:1;"
         offset="0"
         id="stop5776" /><stop
         style="stop-color:#ffb74d;stop-opacity:1;"
         offset="0.091"
         id="stop5784" /><stop
         style="stop-color:#ffb74d;stop-opacity:1;"
         offset="0.86159927"
         id="stop5993" /><stop
         style="stop-color:#ffd54f;stop-opacity:1;"
         offset="1"
         id="stop5778" /></linearGradient><radialGradient
       id="_Radial1"
       cx="0"
       cy="0"
       r="1"
       gradientUnits="userSpaceOnUse"
       gradientTransform="matrix(110.269,0,0,110.269,61.8364,1.1749)"><stop
         offset="0"
         style="stop-color:#ffa726;stop-opacity:1"
         id="stop5197" /><stop
         offset="0.22"
         style="stop-color:#ffcc80;stop-opacity:1"
         id="stop5199" /><stop
         offset="0.77"
         style="stop-color:#ffcc80;stop-opacity:1"
         id="stop5201" /><stop
         offset="1"
         style="stop-color:#f79329;stop-opacity:1"
         id="stop5203" /></radialGradient><radialGradient
       id="_Radial2"
       cx="0"
       cy="0"
       r="1"
       gradientUnits="userSpaceOnUse"
       gradientTransform="matrix(96.4928,0,0,96.4928,61.131,10.4503)"><stop
         offset="0"
         style="stop-color:#ffb343;stop-opacity:1"
         id="stop5206" /><stop
         offset="1"
         style="stop-color:#f79329;stop-opacity:1"
         id="stop5208" /></radialGradient><linearGradient
       inkscape:collect="always"
       xlink:href="#linearGradient5780"
       id="linearGradient5782"
       x1="62.638069"
       y1="17.058054"
       x2="62.638069"
       y2="111.23116"
       gradientUnits="userSpaceOnUse" /></defs></svg>
