<?xml version="1.0" encoding="UTF-8" standalone="no"?>
<svg
   enable-background="new 0 0 128 128"
   viewBox="0 0 128 128"
   version="1.1"
   id="svg23404"
   sodipodi:docname="emoji_u1f97c.svg"
   xml:space="preserve"
   inkscape:version="1.2.2 (732a01da63, 2022-12-09)"
   xmlns:inkscape="http://www.inkscape.org/namespaces/inkscape"
   xmlns:sodipodi="http://sodipodi.sourceforge.net/DTD/sodipodi-0.dtd"
   xmlns:xlink="http://www.w3.org/1999/xlink"
   xmlns="http://www.w3.org/2000/svg"
   xmlns:svg="http://www.w3.org/2000/svg"><sodipodi:namedview
     id="namedview23406"
     pagecolor="#ffffff"
     bordercolor="#000000"
     borderopacity="0.25"
     inkscape:showpageshadow="2"
     inkscape:pageopacity="0.0"
     inkscape:pagecheckerboard="0"
     inkscape:deskcolor="#d1d1d1"
     showgrid="false"
     inkscape:zoom="2.8284271"
     inkscape:cx="20.506097"
     inkscape:cy="56.568542"
     inkscape:window-width="1366"
     inkscape:window-height="697"
     inkscape:window-x="-8"
     inkscape:window-y="-8"
     inkscape:window-maximized="1"
     inkscape:current-layer="svg23404" /><linearGradient
     id="f"
     x1="52.5"
     x2="52.5"
     y1="3.9368"
     y2="3.9368"
     gradientUnits="userSpaceOnUse"><stop
       stop-color="#D5ECFD"
       offset="0"
       id="stop23328" /><stop
       stop-color="#A9C9E3"
       offset="1"
       id="stop23330" /></linearGradient><path
     d="m52.5 3.94"
     fill="url(#f)"
     id="path23333" /><linearGradient
     id="e"
     x1="64"
     x2="64"
     y1="10.721"
     y2="123.65"
     gradientUnits="userSpaceOnUse"><stop
       stop-color="#fff"
       offset="0"
       id="stop23335" /><stop
       stop-color="#F8FCFF"
       offset=".3903"
       id="stop23337" /><stop
       stop-color="#E5F3FD"
       offset=".9561"
       id="stop23339" /><stop
       stop-color="#E3F2FD"
       offset=".999"
       id="stop23341" /></linearGradient><path
     d="m101.67 84.94 15.5-5.81c0.48-0.18 0.72-0.71 0.54-1.19-2.96-7.65-23.56-58.09-26.24-60.09-2.51-1.88-17.21-5.66-20.89-6.35-0.48-0.09-6.26 20.97-6.26 20.97-0.24 0.93-1.57 0.92-1.79-0.02 0 0-5.57-21.06-6.06-20.95-3.64 0.81-17.46 4.12-19.95 5.99-2.67 2.01-23.28 51.36-26.23 59.01-0.18 0.48 0.06 1.01 0.54 1.19l15.5 5.81c0.48 0.18 1.01-0.07 1.19-0.54 0 0 10.45-25.48 10.45-24.46v58.34c0 0.3 0.14 0.58 0.39 0.75 1.79 1.23 9.59 6.16 19.81 6.16 25.96 0 30.9-4.93 31.72-6.16 0.1-0.15 0.15-0.33 0.15-0.51v-58.58c0-1.03 10.45 25.9 10.45 25.9 0.17 0.48 0.71 0.72 1.18 0.54z"
     fill="url(#e)"
     id="path23344"
     style="fill:#e0e0e0;fill-opacity:1" /><path
     d="m56.16 5.99h14.61l0.92 11.67-8.38 19.96-7.99-19.4s0.84-12.09 0.84-12.23z"
     fill="#90A4AE"
     id="path23346"
     style="fill:#2f2f2f;fill-opacity:1" /><defs
     id="defs23349"><path
       id="d"
       d="m101.67 85.19 15.5-5.81c0.48-0.18 0.72-0.71 0.54-1.19-2.96-7.65-26.24-60.09-26.24-60.09s-17.21-7.66-20.89-8.35c-0.48-0.09-6.26 22.97-6.26 22.97-0.24 0.93-1.57 0.92-1.79-0.02 0 0-5.57-23.06-6.06-22.95-3.64 0.81-19.95 7.99-19.95 7.99s-23.28 51.36-26.23 59.01c-0.18 0.48 0.06 1.01 0.54 1.19l15.5 5.81c0.48 0.18 1.01-0.07 1.19-0.54 0 0 10.45-25.48 10.45-24.46v58.34c0 0.3 0.14 0.58 0.39 0.75 1.79 1.23 9.59 6.16 19.81 6.16 25.96 0 30.9-4.93 31.72-6.16 0.1-0.15 0.15-0.33 0.15-0.51v-58.58c0-1.03 10.45 25.9 10.45 25.9 0.17 0.48 0.71 0.72 1.18 0.54z" /></defs><clipPath
     id="a"><use
       xlink:href="#d"
       id="use23351" /></clipPath><g
     clip-path="url(#a)"
     id="g23356"
     style="fill:none;fill-opacity:1;stroke:#78a3ad;stroke-opacity:1"><path
       d="m48.15 103.8h-9.79c-1.58 0-2.86-1.28-2.86-2.86v-16.01h15.5v16.02c0 1.57-1.28 2.85-2.85 2.85z"
       fill="none"
       stroke="#CFD8DC"
       stroke-miterlimit="10"
       stroke-width="2"
       id="path23354"
       style="fill:none;fill-opacity:1;stroke:#78a3ad;stroke-opacity:1" /></g><line
     x1="35"
     x2="50.5"
     y1="88.17"
     y2="88.17"
     clip-path="url(#a)"
     fill="none"
     stroke="#CFD8DC"
     stroke-miterlimit="10"
     id="line23358"
     style="stroke:#78a3ad;stroke-opacity:1" /><g
     clip-path="url(#a)"
     id="g23362"
     style="fill:none;fill-opacity:1;stroke:#78a3ad;stroke-opacity:1"><path
       d="m88.81 103.8h-9.79c-1.58 0-2.86-1.28-2.86-2.86v-16.01h15.5v16.02c0.01 1.57-1.27 2.85-2.85 2.85z"
       fill="none"
       stroke="#CFD8DC"
       stroke-miterlimit="10"
       stroke-width="2"
       id="path23360"
       style="fill:none;fill-opacity:1;stroke:#78a3ad;stroke-opacity:1" /></g><line
     x1="75.67"
     x2="91.17"
     y1="88.17"
     y2="88.17"
     clip-path="url(#a)"
     fill="none"
     stroke="#CFD8DC"
     stroke-miterlimit="10"
     id="line23364"
     style="stroke:#78a3ad;stroke-opacity:1" /><line
     x1="8.25"
     x2="31.75"
     y1="71"
     y2="79.5"
     clip-path="url(#a)"
     fill="none"
     stroke="#E2E7EA"
     stroke-miterlimit="10"
     stroke-width=".75"
     id="line23366"
     style="stroke:#78a3ad;stroke-opacity:1" /><line
     x1="120.75"
     x2="97.25"
     y1="72"
     y2="80.5"
     clip-path="url(#a)"
     fill="none"
     stroke="#E2E7EA"
     stroke-miterlimit="10"
     stroke-width=".75"
     id="line23368"
     style="stroke:#78a3ad;stroke-opacity:1" /><path
     d="m79.38 53.89h-3.13c-1.92 0-3.47-1.55-3.47-3.47v-7.88h10.08v7.88c-0.01 1.92-1.56 3.47-3.48 3.47z"
     fill="none"
     stroke="#CFD8DC"
     stroke-miterlimit="10"
     stroke-width="1.0223"
     id="path23370"
     style="stroke:#78a3ad;stroke-opacity:1" /><path
     d="m57.36 20.12c0 0.11 0.02 0.22 0.06 0.33l5.98 15.67 6.28-15.66c0.04-0.11 0.07-0.22 0.07-0.34l0.96-8.23h-14.31l0.96 8.23z"
     fill="none"
     id="path23372" /><linearGradient
     id="c"
     x1="63.398"
     x2="63.398"
     y1="31.346"
     y2="40.884"
     gradientUnits="userSpaceOnUse"><stop
       stop-color="#D5ECFD"
       offset="0"
       id="stop23374" /><stop
       stop-color="#A9C9E3"
       offset="1"
       id="stop23376" /></linearGradient><polygon
     points="63.4 36.12 63.4 36.12"
     fill="url(#c)"
     id="polygon23379" /><path
     d="m78.59 12.83c-0.03-0.17-0.1-0.33-0.21-0.46l-6.75-7.9-0.89 7.42h-0.03l-0.96 8.23c0 0.12-0.02 0.23-0.07 0.34l-6.68 14.84-5.59-14.85c-0.04-0.1-0.06-0.22-0.06-0.33l-0.96-8.23h-0.13l-0.86-7.33-6.67 7.81c-0.11 0.13-0.19 0.29-0.21 0.46l-1.42 9.61c-0.08 0.56 0.36 1.07 0.93 1.05l3.86-0.1c0.82-0.02 1.25 0.96 0.68 1.56l-2.45 2.55c-0.36 0.38-0.34 0.98 0.05 1.32l10.81 9.62c0.29 0.26-1.36 4.14-1.36 4.14l0.15 80.25h1l-0.15-80.25 16.28-13.76c0.41-0.34 0.44-0.96 0.07-1.34l-2.43-2.53c-0.57-0.59-0.14-1.58 0.68-1.56l3.85 0.1c0.57 0.01 1.02-0.49 0.93-1.05l-1.41-9.61z"
     fill="#CDD6DA"
     id="path23381"
     style="fill:#78a3ad;fill-opacity:1" /><linearGradient
     id="b"
     x1="63.509"
     x2="63.509"
     y1="4.2051"
     y2="38.514"
     gradientUnits="userSpaceOnUse"><stop
       stop-color="#D5ECFD"
       offset="0"
       id="stop23383"
       style="stop-color:#e0e0e0;stop-opacity:1;" /><stop
       stop-color="#A9C9E3"
       offset="1"
       id="stop23385" /></linearGradient><path
     d="m71.46 4.27c-0.17-0.2-0.43-0.32-0.7-0.32h-7.12c-0.04-0.04-0.06 0.02-0.09 0.09-0.03-0.07-0.05-0.12-0.09-0.09h-7.12c-0.27 0-0.52 0.12-0.7 0.32l-0.24 0.29 0.88 7.32h14.47l0.89-7.42-0.18-0.19z"
     fill="#ECEFF1"
     id="path23390"
     style="fill:#e0e0e0;fill-opacity:1" /><circle
     cx="64"
     cy="56.64"
     r="1.27"
     fill="#CFD8DC"
     id="circle23392"
     style="fill:#78a3ad;fill-opacity:1" /><circle
     cx="64"
     cy="76.53"
     r="1.27"
     fill="#CFD8DC"
     id="circle23394"
     style="fill:#78a3ad;fill-opacity:1" /><circle
     cx="64"
     cy="96.43"
     r="1.27"
     fill="#CFD8DC"
     id="circle23396"
     style="fill:#78a3ad;fill-opacity:1" /><rect
     x="72.67"
     y="42.25"
     width="10.33"
     height="2.58"
     fill="#CFD8DC"
     id="rect23398"
     style="fill:#78a3ad;fill-opacity:1" /></svg>
