<?xml version="1.0" encoding="UTF-8" standalone="no"?>
<!-- Generator: Adobe Illustrator 25.2.3, SVG Export Plug-In . SVG Version: 6.00 Build 0)  -->

<svg
   version="1.1"
   id="Layer_2"
   x="0px"
   y="0px"
   viewBox="0 0 128 128"
   style="enable-background:new 0 0 128 128;"
   xml:space="preserve"
   sodipodi:docname="emoji_u1f967.svg"
   inkscape:version="1.2.2 (732a01da63, 2022-12-09)"
   xmlns:inkscape="http://www.inkscape.org/namespaces/inkscape"
   xmlns:sodipodi="http://sodipodi.sourceforge.net/DTD/sodipodi-0.dtd"
   xmlns="http://www.w3.org/2000/svg"
   xmlns:svg="http://www.w3.org/2000/svg"><defs
   id="defs46708" /><sodipodi:namedview
   id="namedview46706"
   pagecolor="#ffffff"
   bordercolor="#000000"
   borderopacity="0.25"
   inkscape:showpageshadow="2"
   inkscape:pageopacity="0.0"
   inkscape:pagecheckerboard="0"
   inkscape:deskcolor="#d1d1d1"
   showgrid="false"
   inkscape:zoom="2.9996795"
   inkscape:cx="22.169035"
   inkscape:cy="65.006945"
   inkscape:window-width="1366"
   inkscape:window-height="697"
   inkscape:window-x="-8"
   inkscape:window-y="-8"
   inkscape:window-maximized="1"
   inkscape:current-layer="Layer_2" />
<path
   id="path46664"
   style="fill:#78a3ad;fill-opacity:1;stroke-width:0.999999"
   d="M 117.54062,89.189998 68.83073,101.25144 10.257678,90.155146 c 0,0 3.540872,14.654174 4.75389,16.632794 0.612023,0.99829 2.81069,2.87122 5.75011,4.80631 l 0.02525,0.0854 c 0,0 2.914559,2.0785 7.070635,3.95769 4.191929,1.89823 9.759407,3.34902 9.822375,3.3654 v 0.006 c 0,0 13.005633,3.02291 28.566063,2.5556 14.277813,-0.42753 27.868904,-4.52473 27.868903,-4.52473 l 0.0039,-0.0175 c 0.06655,-0.0208 3.204411,-1.00089 6.480286,-2.43715 2.54534,-1.11359 5.319,-2.68571 5.319,-2.68571 l 0.002,-0.008 c 2.64196,-1.36085 4.92035,-2.75875 5.754,-3.83924 1.5113,-1.95871 5.86662,-18.862135 5.86662,-18.862135 z" />



<radialGradient
   id="SVGID_1_"
   cx="65.7269"
   cy="51.9052"
   r="43.314"
   gradientTransform="matrix(1.028679e-13 1 -2.179 2.241511e-13 178.8293 -13.8216)"
   gradientUnits="userSpaceOnUse">
	<stop
   offset="0.3855"
   style="stop-color:#FAC470"
   id="stop46672" />
	<stop
   offset="0.7673"
   style="stop-color:#ED9C2C"
   id="stop46674" />
</radialGradient>
<path
   style="fill:#f79329;fill-opacity:1;stroke-width:0.999999"
   d="m 8.9957225,74.186425 c 0,1.163305 1.2726755,10.917169 1.2726755,10.917169 0,0 2.903291,4.066596 4.414592,4.881903 1.511303,0.815308 23.574324,8.133191 24.499002,8.361875 0.924678,0.228683 34.252865,1.511303 36.698787,1.511303 2.445923,0 29.032911,-6.273893 29.032911,-6.273893 l 15.08319,-7.327826 c 0,0 0.72582,-6.48269 0.72582,-7.059372 0,-0.57668 -1.70021,-8.023819 -2.32661,-8.590558 -0.8849,-0.805365 -5.58784,-3.032547 -5.58784,-3.032547 0,0 -2.41609,-2.923176 -6.69149,-5.398928 -4.3947,-2.535408 -16.147066,-7.427253 -23.226323,-9.16724 -7.079257,-1.739986 -28.605368,-2.744205 -40.447215,0.159085 -11.841847,2.903291 -19.975038,6.035265 -23.693636,9.982548 -3.718598,3.947281 -5.110587,6.502575 -5.110587,6.502575 z"
   id="path46677" />
<path
   style="fill:#2f2f2f;fill-opacity:1;stroke-width:0.999999"
   d="m 53.966901,54.967039 c 0.21874,0.974391 -1.958728,0.795421 -6.790917,3.012661 -3.668884,1.680329 -7.785194,6.164521 -8.908728,3.609228 -1.193133,-2.694493 2.714378,-5.170244 7.993992,-6.37332 3.857798,-0.884907 7.526682,-1.043991 7.705653,-0.248569 z"
   id="path46679" />
<path
   style="fill:#2f2f2f;fill-opacity:1;stroke-width:0.999999"
   d="m 58.868689,59.192719 c -0.805365,-0.367883 -2.813805,1.958727 -4.722818,5.021102 -1.909013,3.062374 -4.424537,7.119027 -1.809586,8.043706 3.062375,1.083763 3.917454,-4.036768 4.553791,-5.985551 1.232905,-3.778256 2.644779,-6.780975 1.978613,-7.079257 z"
   id="path46681" />
<path
   style="fill:#2f2f2f;fill-opacity:1;stroke-width:0.999999"
   d="m 69.020264,58.635923 c -0.586624,0.288341 0.328111,2.644779 1.342274,5.567955 1.014164,2.923176 1.96867,7.984049 5.100645,6.890344 3.131974,-1.083763 -1.262732,-6.999714 -2.107869,-8.16302 -1.213018,-1.660443 -3.599285,-4.663162 -4.33505,-4.295279 z"
   id="path46683" />
<path
   style="fill:#2f2f2f;fill-opacity:1;stroke-width:0.999999"
   d="m 74.200451,55.593433 c -0.03978,1.083763 4.26545,2.058155 8.471245,4.265452 3.370601,1.779756 7.317883,4.285336 8.063592,2.197353 0.745707,-2.107868 -1.183191,-3.112089 -6.353435,-4.951502 -5.1603,-1.839414 -10.131689,-2.585122 -10.181402,-1.511303 z"
   id="path46685" />
<path
   style="opacity:1;fill:#e0e0e0;fill-opacity:1;stroke-width:0.999999"
   d="m 70.590124,5.8162986 c -1.161655,0.665005 0.07576,3.5102158 -1.144818,6.0944764 -1.22058,2.58426 -4.158387,4.730796 -6.599544,6.380681 -2.441158,1.649887 -9.714123,5.959792 -9.032282,13.771496 0.580827,6.683721 3.400784,10.076088 5.976626,12.66035 2.323309,2.323307 5.496813,4.621362 6.927838,4.478261 1.431022,-0.143103 -0.07576,-5.378965 2.441157,-9.108044 2.5085,-3.729078 6.885748,-6.742646 9.966658,-9.251146 3.080909,-2.508499 6.45644,-8.602975 2.584258,-14.983657 C 77.829419,9.4696171 71.591841,5.2438892 70.590124,5.8162986 Z"
   id="path46687" />
<path
   style="fill:#fcc21b;fill-opacity:1;stroke-width:0.999999"
   d="m 79.012754,95.881563 c 0,0 3.68877,-3.857796 9.515237,-3.937339 5.826467,-0.08948 8.143133,1.630616 8.143133,1.630616 0,0 2.485697,-4.354937 6.870456,-5.508299 5.12053,-1.342275 8.20279,1.053934 8.46131,0.626395 0.25851,-0.427539 1.24284,-5.806581 2.97289,-8.292276 1.9985,-2.853576 3.66888,-2.803862 3.66888,-2.803862 0,0 -0.42754,-3.022604 -2.31666,-5.766811 -1.59085,-2.316667 -3.49986,-4.255508 -3.49986,-4.255508 0,0 4.20579,-0.695994 7.27811,2.913234 2.23713,2.624893 1.75987,7.407368 1.75987,7.407368 0,0 3.00272,1.889127 1.20307,6.423034 -1.79963,4.533906 -5.35915,7.864736 -10.87739,11.304936 -3.87768,2.426037 -18.801791,8.461309 -33.606586,9.405869 -15.480902,0.98433 -33.358015,1.5113 -50.559017,-4.82225 C 15.657382,95.662823 5.6350642,88.643223 4.2927893,81.782706 2.9405717,74.922191 7.9616738,71.561532 9.5226897,70.616969 c 1.5610163,-0.944564 4.1262523,-0.954507 4.1262523,-0.954507 0,0 -1.232904,1.739986 -1.789699,3.400429 -0.556796,1.670387 -0.78548,3.131976 -0.78548,3.131976 0,0 2.008441,2.426037 2.505579,4.046709 0.497139,1.61073 0.556796,5.498356 0.556796,5.498356 0,0 2.386266,-2.535408 6.234121,-0.974392 5.170244,2.097925 10.937053,9.475465 10.937053,9.475465 0,0 1.720101,-3.330829 8.172963,-2.83369 6.452862,0.497138 15.232333,6.890343 15.232333,6.890343 0,0 5.259729,-5.458584 13.363092,-5.2995 7.387483,0.149142 10.937054,2.883405 10.937054,2.883405 z"
   id="path46689" />







</svg>
