<?xml version="1.0" encoding="UTF-8" standalone="no"?>
<!-- Generator: Adobe Illustrator 16.0.0, SVG Export Plug-In . SVG Version: 6.00 Build 0)  -->

<svg
   version="1.1"
   id="レイヤー_1"
   x="0px"
   y="0px"
   width="128px"
   height="128px"
   viewBox="0 0 128 128"
   enable-background="new 0 0 128 128"
   xml:space="preserve"
   sodipodi:docname="emoji_u1f9fe.svg"
   inkscape:version="1.3 (0e150ed6c4, 2023-07-21)"
   xmlns:inkscape="http://www.inkscape.org/namespaces/inkscape"
   xmlns:sodipodi="http://sodipodi.sourceforge.net/DTD/sodipodi-0.dtd"
   xmlns="http://www.w3.org/2000/svg"
   xmlns:svg="http://www.w3.org/2000/svg"><defs
   id="defs8">&#10;	&#10;	&#10;	&#10;</defs><sodipodi:namedview
   id="namedview8"
   pagecolor="#ffffff"
   bordercolor="#000000"
   borderopacity="0.25"
   inkscape:showpageshadow="2"
   inkscape:pageopacity="0.0"
   inkscape:pagecheckerboard="0"
   inkscape:deskcolor="#d1d1d1"
   inkscape:zoom="4.0546875"
   inkscape:cx="53.025048"
   inkscape:cy="69.179191"
   inkscape:window-width="1366"
   inkscape:window-height="697"
   inkscape:window-x="-8"
   inkscape:window-y="-8"
   inkscape:window-maximized="1"
   inkscape:current-layer="レイヤー_1" />&#10;<path
   style="fill:#ffffff;fill-opacity:1;stroke-width:35.9055;stroke-linecap:round"
   d="m 17.788027,28.251573 12.556255,8.370836 2.441494,30.344282 12.207469,36.971189 11.858685,13.9514 12.90504,-1.39514 34.18091,-8.37084 13.60261,-3.13906 5.92935,-12.207471 -8.02206,-16.044103 -15.34653,3.487849 -6.278126,-34.5297 L 88.591351,19.880736 77.430236,13.951394 17.788027,23.71737 Z"
   id="path8" /><g
   id="g7"
   style="fill:#6593a2">&#10;		<path
   fill="#006ca2"
   d="m 125.47,89.66 c -1.23,-9.29 -7.73,-14.72 -8,-14.95 -0.74,-0.61 -1.73,-0.86 -2.66,-0.67 l -11.4,2.28 C 102.06,70.69 101.04,64.96 100.08,59.37 98.81,52 97.1,44.27 95.44,36.8 94.9,34.37 94.36,31.95 93.85,29.59 92.93,25.33 91.52,21.81 89.52,18.84 85.02,12.12 77.03,9.56 65.8,11.36 56.36,12.87 15.74,20.9 14.02,21.24 v 0 l -0.05,0.01 C 13.72,21.3 7.8,22.64 4.5,28.3 1.93,32.71 1.68,38.33 3.75,45 c 0.42,1.36 1.68,2.25 3.05,2.25 0.23,0 0.45,-0.02 0.68,-0.08 l 20.65,-4.45 c 0.25,0.97 0.48,1.99 0.66,3.08 0.75,4.55 1.4,9.22 2.03,13.73 0.7,5.07 1.43,10.31 2.32,15.46 1.94,11.28 7.84,45.62 27.18,45.62 0.57,0 1.15,-0.06 1.73,-0.12 v 0 h 0.01 c 0.15,-0.02 0.28,-0.01 0.42,-0.03 l 0.27,-0.05 h 0.02 l 52.21,-12.1 c 0.27,-0.06 0.52,-0.15 0.76,-0.28 0.47,-0.24 11.36,-6.06 9.73,-18.37 z M 37.16,58.65 C 36.53,54.1 35.87,49.39 35.1,44.76 34.9,43.57 34.66,42.45 34.39,41.38 34.12,40.3 33.81,39.28 33.47,38.3 33.1,37.24 32.7,36.22 32.26,35.29 c -2.07,-4.44 -4.8,-7.5 -7.47,-9.59 -0.01,-0.01 -0.03,-0.02 -0.04,-0.03 9.71,-1.9 24.69,-4.82 34.4,-6.61 1.25,-0.23 2.38,-0.44 3.43,-0.63 1.74,-0.31 3.21,-0.57 4.24,-0.74 8.58,-1.37 14.34,0.17 17.39,4.73 1.53,2.28 2.63,5.08 3.38,8.54 0.52,2.38 1.05,4.8 1.6,7.24 1.64,7.4 3.34,15.05 4.58,22.27 0.97,5.63 2,11.4 3.36,17.13 l -39.02,7.82 c -1.38,0.28 -2.4,1.43 -2.54,2.84 -0.13,1.4 0.621348,2.913271 1.99,3.28 1.020217,0.273366 2.009711,0.594085 4.04237,3.234171 2.694654,3.499909 2.931074,4.94958 3.21763,7.095829 0.226408,1.69575 0.384613,3.88277 0.05,6.1 -0.620676,4.11276 -2.85,5.73 -3.67,6.21 -0.28,0.02 -0.58,0.05 -0.86,0.05 -6.36,0 -15.15,-6.99 -20.87,-40.31 -0.89,-5.06 -1.61,-10.25 -2.31,-15.27 z m 78.15,41.84 c -0.93,0.86 -1.78,1.43 -2.22,1.69 l -0.7,0.16 -41.98,9.73 c 0.01,-0.02 0.01,-0.05 0.02,-0.08 0.93,-2.69 1.37,-6.17 0.78,-10.68 -0.67,-5 -2.72,-8.57 -4.89,-11.02 l 32.47,-6.51 3.15,-0.63 3.15,-0.63 9.33,-1.87 c 1.47,1.6 4.08,5.06 4.72,9.85 0.62,4.8 -1.8,8.11 -3.83,9.99 z"
   id="path3"
   sodipodi:nodetypes="cccccscccscsccscccccsscccccccccccccccccccccccccsssscsccccccccccccccc"
   style="fill:#6593a2" />&#10;		&#10;		&#10;		&#10;		&#10;	</g>&#10;<path
   fill="#006ca2"
   d="m 47.306628,54.800814 c 12.35,-1.72 24.53,-4.44 36.74,-6.92 2.86,-0.58 2.33,-4.94 -0.62,-4.53 -12.35,1.72 -24.45,4.78 -36.78,6.62 -3.1,0.46 -2.46,5.26 0.66,4.83 z"
   id="path5"
   style="fill:#2f2f2f;fill-opacity:1" /><path
   fill="#006ca2"
   d="m 70.676628,63.431277 c 5.63,-1.33 11.65,-1.9 17.08,-3.88 2.97,-1.09 1.03,-5.41 -1.91,-4.47 -5,1.61 -10.73,2.05 -15.89,3.02 -7.63,1.43 -14.81,4.06 -22.61,4.6 -3.59,0.25 -2.82,5.79 0.75,5.53 7.76,-0.58 15.03,-3.02 22.58,-4.8 z"
   id="path6"
   style="fill:#2f2f2f;fill-opacity:1" /><path
   fill="#006ca2"
   d="m 91.062157,72.660014 c 3.31,-1.08 1.18,-6.07 -2.12,-4.98 -1.66,0.55 -3.33,1.04 -5.02,1.49 h -0.15 c -8.73,1.56 -17.24,3.43 -25.81,5.34 -1.88,0.38 -3.74,0.8 -5.59,1.25 -0.82,0.18 -1.63,0.36 -2.43,0.55 -3.55,0.79 -2.85,6.38 0.76,5.64 8.6,-1.77 17.28,-3.75 25.87,-5.82 4.92,-0.87 9.78,-1.94 14.49,-3.47 z"
   id="path7"
   style="fill:#2f2f2f;fill-opacity:1" /><path
   d="m 59.079616,24.995143 c -9.14605,1.266339 -7.94351,11.550677 -7.66244,13.580686 0.28107,2.03001 4.700812,3.093548 9.871976,2.377562 5.172635,-0.716189 9.135464,-2.941853 8.854598,-4.970394 -0.281071,-2.03001 -1.916618,-12.254395 -11.064134,-10.987854 z"
   style="clip-rule:evenodd;fill:#fcc21b;fill-rule:nonzero;stroke-width:0.999998;stroke-linejoin:round;stroke-miterlimit:2"
   id="path23016" /></svg>
