<?xml version="1.0" encoding="UTF-8" standalone="no"?>
<svg
   version="1.1"
   viewBox="-30 -210 128 128"
   id="svg1"
   sodipodi:docname="emoji_u1f50c.svg"
   width="128"
   height="128"
   inkscape:version="1.3 (0e150ed6c4, 2023-07-21)"
   xmlns:inkscape="http://www.inkscape.org/namespaces/inkscape"
   xmlns:sodipodi="http://sodipodi.sourceforge.net/DTD/sodipodi-0.dtd"
   xmlns="http://www.w3.org/2000/svg"
   xmlns:svg="http://www.w3.org/2000/svg">
  <defs
     id="defs1">
    <linearGradient
       id="_Linear1"
       x1="0"
       y1="0"
       x2="1"
       y2="0"
       gradientUnits="userSpaceOnUse"
       gradientTransform="matrix(0,452.943,-452.943,0,-1902.4317,136.84196)">
      <stop
         offset="0"
         style="stop-color:rgb(111,161,58);stop-opacity:1"
         id="stop3" />
      <stop
         offset="1"
         style="stop-color:rgb(255,202,40);stop-opacity:1"
         id="stop5" />
    </linearGradient>
  </defs>
  <sodipodi:namedview
     id="namedview1"
     pagecolor="#ffffff"
     bordercolor="#000000"
     borderopacity="0.25"
     inkscape:showpageshadow="2"
     inkscape:pageopacity="0.0"
     inkscape:pagecheckerboard="0"
     inkscape:deskcolor="#d1d1d1"
     inkscape:zoom="1.8469751"
     inkscape:cx="-21.657033"
     inkscape:cy="52.789017"
     inkscape:window-width="1366"
     inkscape:window-height="697"
     inkscape:window-x="-8"
     inkscape:window-y="-8"
     inkscape:window-maximized="1"
     inkscape:current-layer="svg1" />
  <path
     fill="currentColor"
     d="m 64.048493,-114.89106 c 0,2.13177 0.368354,4.05192 1.105068,5.76047 0.736713,1.70855 1.55964,3.17415 2.468772,4.39677 0.909137,1.22264 1.76341,2.17879 2.562822,2.86848 0.799412,0.68969 1.261819,1.05021 1.387217,1.08155 1.316679,0.909142 1.975018,2.178797 1.975018,3.808972 0,0.626989 -0.133237,1.222631 -0.399707,1.786921 -0.266472,0.564292 -0.611315,1.058047 -1.034532,1.481265 -0.423218,0.423217 -0.916974,0.752386 -1.481264,0.987509 -0.56429,0.23512 -1.128585,0.352682 -1.692874,0.352682 -0.532943,0 -1.00318,-0.0627 -1.410725,-0.1881 -0.407543,-0.125397 -0.799412,-0.313492 -1.175607,-0.56429 -0.125398,-0.09404 -0.501595,-0.384032 -1.128584,-0.869946 -0.62699,-0.485921 -1.363704,-1.159933 -2.210137,-2.022042 -0.84644,-0.862112 -1.747736,-1.904484 -2.703896,-3.127117 -0.956159,-1.222624 -1.841784,-2.625524 -2.656869,-4.208674 -0.815088,-1.58315 -1.489102,-3.33872 -2.022044,-5.26671 -0.532941,-1.928 -0.799412,-4.02057 -0.799412,-6.27774 0,-3.19764 0.344845,-6.22287 1.034535,-9.07567 0.344844,-1.44208 0.744549,-2.85282 1.199116,-4.2322 0.454568,-1.37936 0.979672,-2.77442 1.575312,-4.18514 0.595642,-1.41074 1.402891,-3.03307 2.421749,-4.86701 1.01886,-1.83396 2.233654,-3.89519 3.64438,-6.18369 1.410728,-2.25717 2.570659,-4.22435 3.479792,-5.90155 0.909137,-1.6772 1.614504,-3.06441 2.116092,-4.16164 2.006369,-4.45164 3.009554,-8.62112 3.009554,-12.50845 0,-3.229 -0.728877,-5.72913 -2.186627,-7.50038 -1.457752,-1.77124 -3.440609,-2.65686 -5.94857,-2.65686 -2.069064,0 -4.114621,0.63483 -6.136665,1.90448 -2.022042,1.26966 -3.738424,3.00172 -5.149153,5.19618 -0.689687,1.06588 -1.301007,2.22582 -1.833946,3.47979 -0.532943,1.25399 -1.018857,2.60202 -1.45775,4.04409 -0.438895,1.47343 -0.791574,3.39359 -1.058045,5.76047 -0.266472,2.36688 -0.478082,5.21185 -0.63483,8.5349 -0.595642,12.5398 -2.178788,22.25815 -4.749447,29.15504 -2.539309,6.86553 -6.042615,12.08522 -10.509923,15.65907 -4.4673,3.573839 -9.663481,5.360764 -15.588536,5.360764 -6.457997,0 -11.6306629,-1.708549 -15.5180017,-5.125644 -1.97502106,-1.75557 -3.44061017,-3.78546 -4.3967673,-6.08964 -0.9561617,-2.30419 -1.4342415,-4.88268 -1.4342415,-7.73548 0,-1.37938 0.1175627,-2.79796 0.3526834,-4.25571 0.2351218,-1.45775 0.556454,-2.98603 0.9639966,-4.58486 l 0.7053643,-2.68037 c 0.37619497,-1.37938 0.70536553,-2.76661 0.98751058,-4.16166 0.28214276,-1.39506 0.50158904,-2.84497 0.65833769,-4.34974 l 9.16972963,1.50477 c -0.3761949,3.1663 -1.0345349,6.48935 -1.97502,9.96915 -1.128579,2.82145 -1.6928737,5.67426 -1.6928737,8.55842 0,3.07224 1.0266966,5.47048 3.0800885,7.1947 2.0533945,1.72422 5.1021325,2.58634 9.1462185,2.58634 5.204015,0 9.522409,-2.20231 12.95518,-6.60691 3.43277,-4.40461 5.823169,-11.02719 7.171197,-19.86774 0.344845,-2.06907 0.619154,-4.40461 0.822927,-7.00663 0.203769,-2.602 0.399704,-5.5175 0.587801,-8.7465 0.156748,-2.85281 0.329169,-5.21969 0.517266,-7.10066 0.188098,-1.88098 0.360517,-3.30738 0.517267,-4.2792 0.376193,-1.97503 0.893459,-3.93437 1.551799,-5.87804 0.65834,-1.94367 1.567477,-4.02841 2.727407,-6.25422 2.069068,-4.04409 4.95322,-7.28876 8.652464,-9.73402 3.793287,-2.47661 7.696301,-3.71492 11.709037,-3.71492 5.015922,0 9.138379,1.80259 12.367376,5.40779 3.197653,3.57384 4.796479,8.27626 4.796479,14.10727 0,3.76194 -0.619159,7.59442 -1.857464,11.49743 -1.238306,3.90301 -3.14278,7.90791 -5.713445,12.0147 -4.169481,6.67744 -7.022287,11.92848 -8.558412,15.75312 -1.536126,3.82464 -2.304188,7.74333 -2.304188,11.75606 z"
     id="path1"
     style="fill:#f79329;stroke-width:0.999999"
     sodipodi:nodetypes="sssscsssssscsssssscssscscsssscscsccsscsssccscccsssscscscsccscsscss" />
  <path
     id="path2"
     style="fill:#6593a2;stroke-width:0.999999"
     d="m -1.1300921,-199.63286 c -0.7471692,0.022 -1.5358343,0.16328 -2.1328468,0.64375 -0.318616,0.26987 -0.5833686,0.62393 -0.6958297,1.02928 -0.4079168,2.31788 -0.7526668,4.65511 -1.1198719,6.98339 -0.2858422,1.83654 -0.5520931,3.67314 -0.7841931,5.51622 -0.1342786,1.04226 -0.2616381,2.09939 -0.3685603,3.14436 -0.021565,0.24276 -0.047124,0.51804 -0.070222,0.77331 -0.032324,0.35907 -0.061626,0.71841 -0.092531,1.0776 2.9720445,0.071 5.94408792,0.14204 8.9161336,0.21306 0.2535239,-2.96119 0.4908857,-5.92628 0.6949563,-8.89366 0.1089219,-1.55838 0.2114683,-3.12511 0.2700385,-4.68929 0.019813,-0.85962 0.077102,-1.75228 -0.042935,-2.61799 -0.1139582,-0.82097 -0.4234837,-1.65659 -1.0543837,-2.22088 -0.6666499,-0.5877 -1.56038531,-0.82978 -2.4272851,-0.91606 -0.36270559,-0.039 -0.72794767,-0.0465 -1.0924732,-0.043 z m 21.6813151,1.59875 c -0.782474,0.0223 -1.607266,0.16122 -2.242202,0.65124 -0.321747,0.26014 -0.594938,0.60177 -0.722827,0.99816 -0.286341,1.87891 -0.606718,3.76212 -0.871657,5.63406 -0.428062,3.06611 -0.780435,6.13957 -1.101203,9.22115 -0.07865,0.80758 -0.144736,1.62186 -0.196191,2.41456 -0.02752,0.11069 -0.0016,0.17872 0.122418,0.16779 2.915902,0.47785 5.831806,0.95569 8.747707,1.43355 0.228672,-3.35694 0.465377,-6.71343 0.658762,-10.07264 0.04727,-0.90882 0.095,-1.83515 0.132107,-2.75121 0.0255,-0.62041 0.04236,-1.22433 0.05669,-1.84712 0.01439,-0.6034 0.02348,-1.20777 -0.009,-1.81072 -0.0055,-0.0824 -0.01512,-0.21491 -0.02526,-0.31627 -0.01,-0.10656 -0.02202,-0.21644 -0.03449,-0.30421 -0.108887,-0.81846 -0.347475,-1.64978 -0.863454,-2.3086 -0.338932,-0.4188 -0.828205,-0.6846 -1.337868,-0.83751 -0.745672,-0.23559 -1.536572,-0.27767 -2.313451,-0.27223 z" />
  <path
     fill="currentColor"
     d="m -0.93902089,-136.54572 c -0.43889141,-0.20378 -0.83075961,-0.46241 -1.17560461,-0.77591 -0.3448438,-0.31349 -0.6191528,-0.68969 -0.8229246,-1.12858 -0.2037708,-0.43889 -0.2899823,-0.98751 -0.2586335,-1.64585 l 0.1880963,-3.19764 c 0.062702,-0.56429 0.015681,-1.0267 -0.1410719,-1.38722 -0.1567487,-0.36052 -0.3605205,-0.61915 -0.6113145,-0.7759 -7.1476863,-3.38575 -10.7215293,-11.75606 -10.7215293,-25.11095 v -2.44526 c 0,-1.12859 0.05486,-2.09258 0.164585,-2.89198 0.109723,-0.79942 0.289983,-1.43425 0.540778,-1.90449 0.501593,-0.94049 1.363704,-1.70855 2.586335,-2.30419 1.2226299,-0.59564 2.5556229,-0.93117 3.9970606,-1.03454 2.259706,-0.16204 4.240852,-0.29358 16.1182536,0.77591 11.8774008,1.06948 15.4996608,1.79235 16.9868168,2.28067 2.100417,0.68969 3.417096,1.53613 3.950038,2.53932 0.313493,0.53293 0.532941,1.26181 0.658338,2.18662 0.125398,0.92481 0.188098,2.04556 0.188098,3.36223 0,5.89371 -1.25398,11.31717 -3.761942,16.27039 -2.539309,4.89052 -5.721282,8.10384 -9.545921,9.63998 l -0.65834,0.47023 c -0.909134,0.40755 -1.457748,1.50479 -1.645848,3.29171 -0.219447,2.10041 -0.501592,3.38574 -0.846435,3.85599 -0.282145,0.40754 -0.80725,0.79157 -1.575315,1.15209 -0.768064,0.36051 -2.533291,1.34932 -7.4834246,0.68174 -4.77372225,-0.64381 -5.69120159,-1.7006 -6.13009529,-1.90437 z"
     id="path3"
     style="fill:#fcc21b;stroke-width:0.999999"
     sodipodi:nodetypes="sssccscsssssszscsscccccsss" />
</svg>
