<?xml version="1.0" encoding="UTF-8" standalone="no"?>
<svg
   width="128"
   height="128"
   version="1.1"
   id="svg4865"
   sodipodi:docname="emoji_u1f62b.svg"
   inkscape:version="1.2.2 (732a01da63, 2022-12-09)"
   xmlns:inkscape="http://www.inkscape.org/namespaces/inkscape"
   xmlns:sodipodi="http://sodipodi.sourceforge.net/DTD/sodipodi-0.dtd"
   xmlns="http://www.w3.org/2000/svg"
   xmlns:svg="http://www.w3.org/2000/svg">
  <defs
     id="defs4869" />
  <sodipodi:namedview
     id="namedview4867"
     pagecolor="#ffffff"
     bordercolor="#000000"
     borderopacity="0.25"
     inkscape:showpageshadow="2"
     inkscape:pageopacity="0.0"
     inkscape:pagecheckerboard="0"
     inkscape:deskcolor="#d1d1d1"
     showgrid="false"
     inkscape:zoom="4.2421875"
     inkscape:cx="48.913444"
     inkscape:cy="63.882136"
     inkscape:window-width="1366"
     inkscape:window-height="697"
     inkscape:window-x="-8"
     inkscape:window-y="-8"
     inkscape:window-maximized="1"
     inkscape:current-layer="svg4865" />
  <path
     d="M64.22 9.62C1.81 9.62.34 79.58.34 93.42c0 13.86 28.59 25.08 63.88 25.08 35.28 0 63.88-11.22 63.88-25.08 0-13.84-1.48-83.8-63.88-83.8z"
     fill="#fcc21b"
     id="path4855" />
  <g
     fill="#2f2f2f"
     id="g4859"
     transform="translate(0,-4.243094)">
    <path
       d="m 98.98,61.36 a 2.627,2.627 0 0 1 -2.72,1.76 C 96.05,63.1 95.84,63.06 95.63,62.99 87.52,60.2 76.93,61.22 76.84,61.23 c -1.21,0.12 -2.3,-0.58 -2.73,-1.68 -0.43,-1.11 -0.04,-2.37 0.91,-3.07 8.51,-6.17 21,-9.13 21.52,-9.24 1.43,-0.33 2.84,0.55 3.17,1.97 0.32,1.41 -0.56,2.83 -1.97,3.16 -0.07,0.01 -5.19,1.22 -10.85,3.61 3.28,0.19 7.04,0.87 10.45,2.03 1.38,0.48 2.11,1.98 1.64,3.35 z m -69.54,0 c 0.4,1.17 1.54,1.86 2.72,1.76 0.21,-0.02 0.42,-0.06 0.63,-0.13 8.11,-2.79 18.7,-1.77 18.79,-1.76 1.21,0.12 2.3,-0.58 2.73,-1.68 0.43,-1.11 0.04,-2.37 -0.91,-3.07 -8.51,-6.17 -21,-9.13 -21.52,-9.24 -1.43,-0.33 -2.84,0.55 -3.17,1.97 -0.32,1.41 0.56,2.83 1.97,3.16 0.07,0.01 5.19,1.22 10.85,3.61 -3.28,0.19 -7.04,0.87 -10.45,2.03 a 2.628,2.628 0 0 0 -1.64,3.35 z"
       id="path4857" />
  </g>
  <path
     d="m 84.84,66.529365 c -9.48,0 -12.61,4.66 -21.05,4.66 -8.44,0 -11.57,-4.66 -21.05,-4.66 -9.48,0 -17.16,6.66 -17.16,14.88 0,8.22 7.68,14.88 17.16,14.88 9.48,0 12.61,-4.66 21.05,-4.66 8.44,0 11.57,4.66 21.05,4.66 9.48,0 17.16,-6.67 17.16,-14.89 0,-8.21 -7.68,-14.87 -17.16,-14.87 z"
     fill="#ed6c30"
     id="path4861" />
</svg>
