<?xml version="1.0" encoding="UTF-8" standalone="no"?>
<svg
   width="100%"
   height="100%"
   viewBox="0 0 128 128"
   version="1.1"
   xml:space="preserve"
   style="fill-rule:evenodd;clip-rule:evenodd;stroke-linejoin:round;stroke-miterlimit:1.41421;"
   id="svg15776"
   sodipodi:docname="emoji_u1fa90.svg"
   inkscape:version="1.2.2 (732a01da63, 2022-12-09)"
   xmlns:inkscape="http://www.inkscape.org/namespaces/inkscape"
   xmlns:sodipodi="http://sodipodi.sourceforge.net/DTD/sodipodi-0.dtd"
   xmlns="http://www.w3.org/2000/svg"
   xmlns:svg="http://www.w3.org/2000/svg"><defs
   id="defs15780">
        
        
    
        
        
    
        
        
    </defs><sodipodi:namedview
   id="namedview15778"
   pagecolor="#ffffff"
   bordercolor="#000000"
   borderopacity="0.25"
   inkscape:showpageshadow="2"
   inkscape:pageopacity="0.0"
   inkscape:pagecheckerboard="0"
   inkscape:deskcolor="#d1d1d1"
   showgrid="false"
   inkscape:zoom="4.2421875"
   inkscape:cx="69.893186"
   inkscape:cy="62.939227"
   inkscape:window-width="1366"
   inkscape:window-height="697"
   inkscape:window-x="-8"
   inkscape:window-y="-8"
   inkscape:window-maximized="1"
   inkscape:current-layer="svg15776" />
    <path
   id="circle19283"
   style="fill:#fcc21b;fill-opacity:1;stroke-width:1.26193"
   d="M 60.034189,49.199446 C 26.965753,58.060115 1.0281113,68.490686 4.123776,80.043775 L 14.167693,77.352516 C 12.440515,70.906672 34.265924,63.117135 61.787464,55.742757 89.308999,48.368378 112.10509,44.201628 113.83227,50.647472 l 10.04392,-2.69126 C 120.78053,36.403123 93.10262,40.338778 60.034189,49.199446 Z" /><circle
   cx="45.254822"
   cy="78.383713"
   r="40.367554"
   style="fill:#f79329;fill-opacity:1;stroke-width:1.26193"
   id="circle15748"
   transform="rotate(-15)" />
    
    
    
    
    
<path
   id="path24486"
   style="fill:#ec6c31;fill-opacity:1;stroke:none;stroke-width:5.66929;stroke-linecap:round"
   d="m 53.552191,25.008292 c -6.986345,1.900124 -13.333071,5.644245 -18.375193,10.84006 3.168573,1.668078 12.384165,5.291451 22.123147,2.681897 C 68.421617,35.55026 75.093809,27.130894 76.336277,25.573971 68.953569,23.200878 61.043567,23.004489 53.552191,25.008292 Z m -29.17867,46.149906 c 0.165972,1.104845 0.37774,2.202323 0.634758,3.2896 0.465287,1.696951 1.041034,3.361664 1.723549,4.983487 0.001,0.0024 0.0029,0.0046 0.004,0.007 0.126683,0.303017 0.25599,0.604813 0.389968,0.904499 l 0.0148,0.03244 c 0.604885,1.350313 1.283553,2.666349 2.032932,3.942148 7.31e-4,0.0013 0.0022,0.002 0.0029,0.0032 0.287304,0.488761 0.585398,0.9705 0.893236,1.447027 7.87e-4,0.0012 0.0021,0.002 0.0029,0.0032 0.686543,1.066381 1.422959,2.099815 2.206799,3.096861 0.0034,0.0044 0.0063,0.0092 0.0097,0.01357 0.40593,0.514148 0.818681,1.024203 1.25025,1.519192 6.274403,0.42479 21.293147,0.801391 37.377292,-3.508343 15.50151,-4.153617 27.078336,-10.263081 32.171378,-13.232532 0.39293,-1.558787 0.68474,-3.135609 0.8885,-4.720898 l 4.1e-4,-0.0062 c 0.11872,-0.913217 0.20616,-1.830231 0.26217,-2.749429 7.3e-4,-0.01658 0.004,-0.03317 0.005,-0.04984 0.0439,-0.755284 0.0581,-1.512264 0.0594,-2.268459 -1.1e-4,-0.01197 -0.001,-0.02405 -0.001,-0.03603 -0.002,-1.240604 -0.0607,-2.480467 -0.17669,-3.715643 -2.3e-4,-0.0026 5.9e-4,-0.0055 -8e-5,-0.0081 -0.0427,-0.465539 -0.0808,-0.932039 -0.13956,-1.396222 l 4.1e-4,-0.0062 c -0.21929,-1.736627 -0.55128,-3.457155 -0.99391,-5.150684 -0.21775,-0.801049 -0.46025,-1.595171 -0.72699,-2.381262 C 96.157141,54.863341 83.191863,61.858141 65.480828,66.6038 47.647864,71.382128 31.954283,71.482624 24.374086,71.157951 Z"
   sodipodi:nodetypes="ccsccccscccscscsccsccccccsscccccsc" /><path
   id="path20147"
   style="fill:#fcc21b;fill-opacity:1;stroke-width:1.26193"
   d="M 67.965779,78.800542 C 34.897339,87.661196 7.2193962,91.596876 4.123776,80.043775 l 10.043917,-2.691259 c 1.727142,6.445854 24.523269,2.279085 52.044811,-5.095285 27.521538,-7.374369 49.346906,-15.163905 47.619766,-21.609759 l 10.04392,-2.69126 c 3.09563,11.553099 -22.84198,21.983678 -55.910411,30.84433 z" /></svg>
