<?xml version="1.0" encoding="UTF-8" standalone="no"?>
<svg
   height="128"
   width="128"
   version="1.1"
   id="svg32"
   sodipodi:docname="emoji_u1f99e.svg"
   inkscape:version="1.3 (0e150ed6c4, 2023-07-21)"
   xmlns:inkscape="http://www.inkscape.org/namespaces/inkscape"
   xmlns:sodipodi="http://sodipodi.sourceforge.net/DTD/sodipodi-0.dtd"
   xmlns="http://www.w3.org/2000/svg"
   xmlns:svg="http://www.w3.org/2000/svg">
  <sodipodi:namedview
     id="namedview32"
     pagecolor="#ffffff"
     bordercolor="#000000"
     borderopacity="0.25"
     inkscape:showpageshadow="2"
     inkscape:pageopacity="0.0"
     inkscape:pagecheckerboard="0"
     inkscape:deskcolor="#d1d1d1"
     showguides="true"
     inkscape:zoom="2.867097"
     inkscape:cx="68.187438"
     inkscape:cy="57.026323"
     inkscape:window-width="1366"
     inkscape:window-height="697"
     inkscape:window-x="-8"
     inkscape:window-y="-8"
     inkscape:window-maximized="1"
     inkscape:current-layer="svg32" />
  <defs
     id="defs2">
    <linearGradient
       id="a">
      <stop
         offset="0"
         id="stop1" />
      <stop
         offset="1"
         stop-opacity="0"
         id="stop2" />
    </linearGradient>
  </defs>
  <g
     id="g59"
     transform="translate(126.07102,7.1987348)">
    <g
       id="g58">
      <g
         id="g54">
        <path
           style="fill:#d86030;fill-opacity:1;stroke-width:6;stroke-linecap:round"
           d="m -69.503855,4.5729998 c 0.785085,0.3455424 1.285555,1.0961689 1.503246,1.8631965 0.286362,0.8900654 0.397036,1.8167982 0.519239,2.7352795 0.165145,1.7176892 0.252948,5.9175902 0.377538,8.0052952 0.05401,1.077031 0.148299,2.150274 0.259978,3.219879 0.12247,1.00411 0.166597,2.049753 0.50073,2.992677 0.285367,0.683141 0.994011,1.270006 1.678687,0.974072 0.617654,-0.344676 0.783954,-1.220585 0.758612,-1.931848 0.01445,-1.088341 -0.07038,-2.171776 -0.103584,-3.257648 -0.06987,-1.814152 -0.136479,-3.628532 -0.184941,-5.444164 -0.0438,-1.456343 -0.150833,-4.5890826 -0.213178,-5.7873 -0.100299,-0.9032224 -0.231712,-1.8075996 -0.497209,-2.6838792 -0.225109,-0.7379644 -0.510958,-1.4659939 -0.928038,-2.1295877 -0.394684,-0.6224781 -0.994935,-1.1161902 -1.665952,-1.4613668 -0.746528,-0.3956235 -1.809323,-0.9446851 -3.368614,-0.77197231 -1.55929,0.17271271 -2.945984,0.96405631 -3.758433,2.01520211 -1.371992,1.7750837 -1.456637,4.5912045 -0.499073,6.626627 0.502739,1.0686319 2.262283,1.3079149 2.861488,0.3151958 0.887524,-1.4703831 -0.705285,-3.6381153 0.139925,-4.6158546 0.845211,-0.9777395 1.820983,-1.0311067 2.619571,-0.6638033 z"
           id="path53"
           sodipodi:nodetypes="cccccccccccccccssscc" />
        <path
           style="fill:#d86030;fill-opacity:1;stroke-width:6;stroke-linecap:round"
           d="m -54.638194,4.5729998 c -0.785085,0.3455424 -1.285555,1.0961689 -1.503246,1.8631965 -0.286362,0.8900654 -0.397036,1.8167982 -0.519239,2.7352795 -0.165145,1.7176892 -0.252948,5.9175902 -0.377538,8.0052952 -0.05401,1.077031 -0.148299,2.150274 -0.259978,3.219879 -0.12247,1.00411 -0.166597,2.049753 -0.50073,2.992677 -0.285367,0.683141 -0.994011,1.270006 -1.678687,0.974072 -0.617654,-0.344676 -0.783954,-1.220585 -0.758612,-1.931848 -0.01445,-1.088341 0.07038,-2.171776 0.103584,-3.257648 0.06987,-1.814152 0.136479,-3.628532 0.184941,-5.444164 0.0438,-1.456343 0.150833,-4.5890826 0.213178,-5.7873 0.100299,-0.9032224 0.231712,-1.8075996 0.497209,-2.6838792 0.225109,-0.7379644 0.510958,-1.4659939 0.928038,-2.1295877 0.394684,-0.6224781 0.994935,-1.1161902 1.665952,-1.4613668 0.746528,-0.3956235 1.809323,-0.9446851 3.368614,-0.77197231 1.55929,0.17271271 2.945984,0.96405631 3.758433,2.01520211 1.371992,1.7750837 1.456637,4.5912045 0.499073,6.626627 -0.502739,1.0686319 -2.262283,1.3079149 -2.861488,0.3151958 -0.887524,-1.4703831 0.705285,-3.6381153 -0.139925,-4.6158546 C -52.863826,4.2590638 -53.839598,4.2056966 -54.638186,4.573 Z"
           id="use54"
           sodipodi:nodetypes="cccccccccccccccssscc" />
      </g>
      <g
         id="g57">
        <g
           id="g55">
          <g
             id="g51"
             transform="matrix(-1,0,0,1,-124.14204,0)">
            <g
               id="g38">
              <path
                 id="path36"
                 d="m -76.683601,39.314669 -3.236832,-2.842603 c -0.940618,-0.248987 -1.888153,0.359648 -2.054144,1.321015 l -0.283569,1.652998 c -0.159075,0.940618 0.497974,1.818989 1.445509,1.922734 l 3.520401,1.196522 c 0.823041,0.08991 1.590751,-0.435728 1.791324,-1.244936 v 0 c 0.221322,-0.885288 -0.304317,-1.777492 -1.182689,-2.00573 z"
                 style="fill:#d86030;stroke-width:1" />
              <path
                 id="path37"
                 d="m -82.583212,36.195414 -3.292163,-0.65705 c -1.148108,0.06916 -1.991898,1.099694 -1.825906,2.227052 l 0.283569,1.950399 c 0.159075,1.10661 1.231103,1.846655 2.330796,1.618417 l 2.90485,-0.449561 c 0.961367,-0.200573 1.625332,-1.072028 1.556169,-2.047227 v 0 c -0.06916,-1.058195 -0.885287,-2.704277 -1.957315,-2.64203 z"
                 style="fill:#d86030;stroke-width:1" />
              <path
                 id="path38"
                 d="m -92.5012,45.477101 1.528505,-0.587887 c 1.023613,-0.470309 1.818989,-1.03053 2.033395,-1.314098 l 3.022427,-2.572867 c 0.311234,-0.421895 0.200573,-1.244936 -0.07608,-1.68758 l -0.961367,-1.528504 c -0.484141,-0.76771 -1.597667,-0.795376 -2.11639,-0.04841 l -4.841417,6.36992 c -0.615551,0.892204 0.331983,1.493923 1.410927,1.36943 z"
                 style="fill:#d86030;stroke-width:1" />
            </g>
            <g
               id="g41">
              <path
                 id="path39"
                 d="m -74.387386,45.691506 -4.744588,-1.639165 c -0.940618,-0.248987 -1.888152,0.359648 -2.054144,1.321015 l -0.276652,1.646082 c -0.159075,0.940618 0.497974,1.818989 1.445508,1.922734 l 5.028157,-0.01383 c 0.823041,0.08991 1.590751,-0.435727 1.791324,-1.244936 v 0 c 0.214406,-0.864538 -0.311234,-1.756742 -1.189605,-1.991897 z"
                 style="fill:#d86030;stroke-width:1" />
              <path
                 id="path40"
                 d="m -81.884665,44.626395 -4.993575,-1.072028 c -1.148108,0.06916 -1.991897,1.099693 -1.825906,2.227051 l 0.283569,1.9504 c 0.159075,1.106609 1.231103,1.846654 2.330796,1.618416 l 4.710007,-0.878371 c 0.961366,-0.200573 1.625332,-1.072028 1.556169,-2.047228 v 0 c -0.07608,-1.058195 -0.995948,-1.860487 -2.06106,-1.79824 z"
                 style="fill:#d86030;stroke-width:1" />
              <path
                 id="path41"
                 d="m -94.527678,55.630243 1.528504,-0.587887 c 1.023614,-0.470309 1.818989,-1.03053 2.033395,-1.314098 l 4.039125,-4.703091 c 0.311233,-0.421895 0.200572,-1.244935 -0.07608,-1.687579 l -0.961367,-1.528504 c -0.484142,-0.767711 -1.597667,-0.795376 -2.11639,-0.04841 l -5.851198,8.507061 c -0.622468,0.885287 0.325066,1.48009 1.404011,1.362513 z"
                 style="fill:#d86030;stroke-width:1" />
            </g>
            <path
               id="path42"
               d="M -71.378791,52.538652 -78.364264,51.6257 c -0.961367,-0.145243 -1.839738,0.560221 -1.901985,1.528504 l -0.110661,1.673747 c -0.06225,0.947534 0.684715,1.756742 1.639166,1.763659 l 7.096133,-0.760794 c 0.829957,0.0069 1.53542,-0.601719 1.646081,-1.42476 v 0 c 0.13141,-0.89912 -0.491058,-1.729077 -1.383261,-1.867404 z"
               style="fill:#d86030;stroke-width:1" />
            <path
               id="path43"
               d="m -81.054708,52.490238 -4.191283,-0.110661 c -1.134275,0.186741 -1.867404,1.300266 -1.583835,2.406876 l 0.484141,1.908901 c 0.276653,1.085861 1.417844,1.708329 2.489872,1.362513 l 3.707142,-1.79824 c 0.933701,-0.297402 1.500839,-1.23802 1.334847,-2.199387 v 0 c -0.179824,-1.051279 -1.182689,-1.749826 -2.240884,-1.570002 z"
               style="fill:#d86030;stroke-width:1" />
            <path
               id="path44"
               d="m -91.048775,63.217434 1.459341,-0.746962 c 0.968284,-0.58097 1.583835,-1.210354 1.763659,-1.514671 l 3.112339,-3.140005 c 0.269737,-0.44956 0.06916,-1.258768 -0.255903,-1.673746 l -1.113526,-1.417844 c -0.560221,-0.71238 -1.66683,-0.622468 -2.109474,0.172908 l -4.405689,7.103049 c -0.518723,0.954451 0.484142,1.445509 1.549253,1.217271 z"
               style="fill:#d86030;stroke-width:1" />
            <path
               id="path45"
               d="m -67.892972,58.050951 -8.82521,0.497974 c -1.265685,0.06916 -1.950399,1.521588 -1.203438,2.545202 l 1.549253,2.116391 c 0.401146,0.546388 1.099694,0.781542 1.749827,0.587886 l 7.462697,-2.213219 c 0.940618,-0.276653 1.410927,-1.327932 0.995949,-2.220135 l -0.186741,-0.401146 c -0.276652,-0.587887 -0.885287,-0.947535 -1.542337,-0.912953 z"
               style="fill:#d86030;stroke-width:1" />
            <path
               id="path46"
               d="m -76.256923,61.602209 -1.452737,-1.632292 c -0.448336,-0.507111 -1.177664,-0.650903 -1.790744,-0.373 l -3.783217,1.945852 c -0.932999,0.434155 -1.673577,1.788544 -0.924359,2.893324 l 0.389821,0.854472 c 0.404075,0.453517 1.027975,0.626374 1.606793,0.446396 l 5.264915,-1.648737 c 1.067554,-0.332857 1.4284,-1.657433 0.689528,-2.486015 z"
               style="fill:#d86030;stroke-width:1" />
            <path
               id="path47"
               d="m -85.377038,63.658864 c 0,0 -2.125437,1.670425 -3.002764,3.592841 -0.926857,2.022334 -0.80239,3.075026 -0.379579,3.195574 0.676258,0.188735 2.009611,-2.107004 3.486923,-3.371986 1.470407,-1.264573 2.705744,-2.05108 2.705744,-2.05108 0.248103,-0.257133 0.301243,-0.648251 0.136695,-0.971105 v 0 c -0.591535,-1.101345 -2.093069,-1.303743 -2.947019,-0.394244 z"
               style="fill:#d86030;stroke-width:1" />
            <g
               id="g50"
               transform="rotate(-11.947767,-79.029397,33.352799)">
              <path
                 id="path48"
                 d="m -76.355017,35.721564 c -1.69699,-0.358236 -4.445392,-1.173031 -6.672132,-2.982027 -0.849369,-0.693194 -0.856116,-2.018642 -0.03009,-2.71281 l 0.609468,-0.51171 c 0.62854,-0.533412 1.559671,-0.525749 2.191068,0.03506 1.529426,1.373688 3.469163,2.297326 4.778208,2.81758 0.825702,0.326246 1.084863,2.098369 1.084863,2.098369 v 0 c 0,0 -1.073918,1.440807 -1.961388,1.255542 z"
                 style="fill:#d86030;stroke-width:1"
                 sodipodi:nodetypes="ccccccssc" />
              <path
                 id="path49"
                 d="m -83.680425,23.379024 2.366884,0.07734 c 0.990394,0.03591 1.770347,0.865385 1.734439,1.855779 l -0.147979,4.328126 c -0.02651,0.834033 -0.627553,1.533543 -1.441811,1.70044 l -1.10775,0.219894 c -0.949041,0.190194 -1.876683,-0.400995 -2.102761,-1.34042 l -1.112759,-4.631342 c -0.2686,-1.145981 0.62676,-2.209817 1.811736,-2.209817 z"
                 style="fill:#d86030;stroke-width:1"
                 sodipodi:nodetypes="ccccccccsc" />
              <path
                 id="path50"
                 d="m -91.774376,21.827397 c -1.155007,-2.917404 -3.137353,-7.529346 -0.692319,-13.078741 4.114855,-9.34813967 11.177936,-11.7798835 13.702325,-12.2654985 2.522314,-0.4933547 1.798052,0.704447 0.802385,2.4063287 -0.463079,0.77941346 -1.949083,2.9113129 -2.79599,5.1374176 -0.865421,2.2808386 -1.066452,4.6573988 -0.319814,4.9052861 1.258865,0.4258581 3.514797,-2.2690413 4.110929,-3.5735307 0.648642,-1.4181043 0.698226,-1.8212711 1.17585,-3.8157016 0.464776,-1.94951096 0.512245,-2.8249458 1.000439,-2.45803648 0.495934,0.36483533 1.296423,1.61861996 1.546881,3.45114258 0.206204,1.5125668 -0.131294,3.2869528 -0.08455,5.2570138 0.08612,3.3863085 0.52583,2.4887255 0.544856,6.7391385 0.0072,2.503283 -0.50398,4.125098 -2.590451,6.95709 -2.280221,3.099584 -5.42282,3.69278 -6.62591,4.15617 -1.871181,0.725355 -4.289924,0.212107 -6.717518,-0.365131 -0.587548,-0.149494 -2.565805,-2.207568 -3.057115,-3.452948 z"
                 style="fill:#ed6c30;stroke-width:1"
                 sodipodi:nodetypes="cccccccccccccccc" />
            </g>
          </g>
          <g
             id="g35">
            <g
               id="g33">
              <path
                 id="XMLID_38_"
                 d="m -76.683601,39.314669 -3.236832,-2.842603 c -0.940618,-0.248987 -1.888153,0.359648 -2.054144,1.321015 l -0.283569,1.652998 c -0.159075,0.940618 0.497974,1.818989 1.445509,1.922734 l 3.520401,1.196522 c 0.823041,0.08991 1.590751,-0.435728 1.791324,-1.244936 v 0 c 0.221322,-0.885288 -0.304317,-1.777492 -1.182689,-2.00573 z"
                 style="fill:#d86030;stroke-width:1" />
              <path
                 id="XMLID_37_"
                 d="m -82.583212,36.195414 -3.292163,-0.65705 c -1.148108,0.06916 -1.991898,1.099694 -1.825906,2.227052 l 0.283569,1.950399 c 0.159075,1.10661 1.231103,1.846655 2.330796,1.618417 l 2.90485,-0.449561 c 0.961367,-0.200573 1.625332,-1.072028 1.556169,-2.047227 v 0 c -0.06916,-1.058195 -0.885287,-2.704277 -1.957315,-2.64203 z"
                 style="fill:#d86030;stroke-width:1" />
              <path
                 id="XMLID_36_"
                 d="m -92.5012,45.477101 1.528505,-0.587887 c 1.023613,-0.470309 1.818989,-1.03053 2.033395,-1.314098 l 3.022427,-2.572867 c 0.311234,-0.421895 0.200573,-1.244936 -0.07608,-1.68758 l -0.961367,-1.528504 c -0.484141,-0.76771 -1.597667,-0.795376 -2.11639,-0.04841 l -4.841417,6.36992 c -0.615551,0.892204 0.331983,1.493923 1.410927,1.36943 z"
                 style="fill:#d86030;stroke-width:1" />
            </g>
            <g
               id="g34">
              <path
                 id="XMLID_35_"
                 d="m -74.387386,45.691506 -4.744588,-1.639165 c -0.940618,-0.248987 -1.888152,0.359648 -2.054144,1.321015 l -0.276652,1.646082 c -0.159075,0.940618 0.497974,1.818989 1.445508,1.922734 l 5.028157,-0.01383 c 0.823041,0.08991 1.590751,-0.435727 1.791324,-1.244936 v 0 c 0.214406,-0.864538 -0.311234,-1.756742 -1.189605,-1.991897 z"
                 style="fill:#d86030;stroke-width:1" />
              <path
                 id="XMLID_34_"
                 d="m -81.884665,44.626395 -4.993575,-1.072028 c -1.148108,0.06916 -1.991897,1.099693 -1.825906,2.227051 l 0.283569,1.9504 c 0.159075,1.106609 1.231103,1.846654 2.330796,1.618416 l 4.710007,-0.878371 c 0.961366,-0.200573 1.625332,-1.072028 1.556169,-2.047228 v 0 c -0.07608,-1.058195 -0.995948,-1.860487 -2.06106,-1.79824 z"
                 style="fill:#d86030;stroke-width:1" />
              <path
                 id="XMLID_33_"
                 d="m -94.527678,55.630243 1.528504,-0.587887 c 1.023614,-0.470309 1.818989,-1.03053 2.033395,-1.314098 l 4.039125,-4.703091 c 0.311233,-0.421895 0.200572,-1.244935 -0.07608,-1.687579 l -0.961367,-1.528504 c -0.484142,-0.767711 -1.597667,-0.795376 -2.11639,-0.04841 l -5.851198,8.507061 c -0.622468,0.885287 0.325066,1.48009 1.404011,1.362513 z"
                 style="fill:#d86030;stroke-width:1" />
            </g>
            <path
               id="XMLID_32_"
               d="M -71.378791,52.538652 -78.364264,51.6257 c -0.961367,-0.145243 -1.839738,0.560221 -1.901985,1.528504 l -0.110661,1.673747 c -0.06225,0.947534 0.684715,1.756742 1.639166,1.763659 l 7.096133,-0.760794 c 0.829957,0.0069 1.53542,-0.601719 1.646081,-1.42476 v 0 c 0.13141,-0.89912 -0.491058,-1.729077 -1.383261,-1.867404 z"
               style="fill:#d86030;stroke-width:1" />
            <path
               id="XMLID_31_"
               d="m -81.054708,52.490238 -4.191283,-0.110661 c -1.134275,0.186741 -1.867404,1.300266 -1.583835,2.406876 l 0.484141,1.908901 c 0.276653,1.085861 1.417844,1.708329 2.489872,1.362513 l 3.707142,-1.79824 c 0.933701,-0.297402 1.500839,-1.23802 1.334847,-2.199387 v 0 c -0.179824,-1.051279 -1.182689,-1.749826 -2.240884,-1.570002 z"
               style="fill:#d86030;stroke-width:1" />
            <path
               id="XMLID_30_"
               d="m -91.048775,63.217434 1.459341,-0.746962 c 0.968284,-0.58097 1.583835,-1.210354 1.763659,-1.514671 l 3.112339,-3.140005 c 0.269737,-0.44956 0.06916,-1.258768 -0.255903,-1.673746 l -1.113526,-1.417844 c -0.560221,-0.71238 -1.66683,-0.622468 -2.109474,0.172908 l -4.405689,7.103049 c -0.518723,0.954451 0.484142,1.445509 1.549253,1.217271 z"
               style="fill:#d86030;stroke-width:1" />
            <path
               id="XMLID_29_"
               d="m -67.892972,58.050951 -8.82521,0.497974 c -1.265685,0.06916 -1.950399,1.521588 -1.203438,2.545202 l 1.549253,2.116391 c 0.401146,0.546388 1.099694,0.781542 1.749827,0.587886 l 7.462697,-2.213219 c 0.940618,-0.276653 1.410927,-1.327932 0.995949,-2.220135 l -0.186741,-0.401146 c -0.276652,-0.587887 -0.885287,-0.947535 -1.542337,-0.912953 z"
               style="fill:#d86030;stroke-width:1" />
            <path
               id="XMLID_28_"
               d="m -76.256923,61.602209 -1.452737,-1.632292 c -0.448336,-0.507111 -1.177664,-0.650903 -1.790744,-0.373 l -3.783217,1.945852 c -0.932999,0.434155 -1.673577,1.788544 -0.924359,2.893324 l 0.389821,0.854472 c 0.404075,0.453517 1.027975,0.626374 1.606793,0.446396 l 5.264915,-1.648737 c 1.067554,-0.332857 1.4284,-1.657433 0.689528,-2.486015 z"
               style="fill:#d86030;stroke-width:1" />
            <path
               id="XMLID_27_"
               d="m -85.377038,63.658864 c 0,0 -2.125437,1.670425 -3.002764,3.592841 -0.926857,2.022334 -0.80239,3.075026 -0.379579,3.195574 0.676258,0.188735 2.009611,-2.107004 3.486923,-3.371986 1.470407,-1.264573 2.705744,-2.05108 2.705744,-2.05108 0.248103,-0.257133 0.301243,-0.648251 0.136695,-0.971105 v 0 c -0.591535,-1.101345 -2.093069,-1.303743 -2.947019,-0.394244 z"
               style="fill:#d86030;stroke-width:1" />
            <g
               id="g32"
               transform="rotate(-11.947767,-79.029397,33.352799)">
              <path
                 id="XMLID_11_"
                 d="m -76.355017,35.721564 c -1.69699,-0.358236 -4.445392,-1.173031 -6.672132,-2.982027 -0.849369,-0.693194 -0.856116,-2.018642 -0.03009,-2.71281 l 0.609468,-0.51171 c 0.62854,-0.533412 1.559671,-0.525749 2.191068,0.03506 1.529426,1.373688 3.469163,2.297326 4.778208,2.81758 0.825702,0.326246 1.084863,2.098369 1.084863,2.098369 v 0 c 0,0 -1.073918,1.440807 -1.961388,1.255542 z"
                 style="fill:#d86030;stroke-width:1"
                 sodipodi:nodetypes="ccccccssc" />
              <path
                 id="XMLID_10_"
                 d="m -83.680425,23.379024 2.366884,0.07734 c 0.990394,0.03591 1.770347,0.865385 1.734439,1.855779 l -0.147979,4.328126 c -0.02651,0.834033 -0.627553,1.533543 -1.441811,1.70044 l -1.10775,0.219894 c -0.949041,0.190194 -1.876683,-0.400995 -2.102761,-1.34042 l -1.112759,-4.631342 c -0.2686,-1.145981 0.62676,-2.209817 1.811736,-2.209817 z"
                 style="fill:#d86030;stroke-width:1"
                 sodipodi:nodetypes="ccccccccsc" />
              <path
                 id="XMLID_6_"
                 d="m -91.774376,21.827397 c -1.155007,-2.917404 -3.137353,-7.529346 -0.692319,-13.078741 4.114855,-9.34813967 11.177936,-11.7798835 13.702325,-12.2654985 2.522314,-0.4933547 1.798052,0.704447 0.802385,2.4063287 -0.463079,0.77941346 -1.949083,2.9113129 -2.79599,5.1374176 -0.865421,2.2808386 -1.066452,4.6573988 -0.319814,4.9052861 1.258865,0.4258581 3.514797,-2.2690413 4.110929,-3.5735307 0.648642,-1.4181043 0.698226,-1.8212711 1.17585,-3.8157016 0.464776,-1.94951096 0.512245,-2.8249458 1.000439,-2.45803648 0.495934,0.36483533 1.296423,1.61861996 1.546881,3.45114258 0.206204,1.5125668 -0.131294,3.2869528 -0.08455,5.2570138 0.08612,3.3863085 0.52583,2.4887255 0.544856,6.7391385 0.0072,2.503283 -0.50398,4.125098 -2.590451,6.95709 -2.280221,3.099584 -5.42282,3.69278 -6.62591,4.15617 -1.871181,0.725355 -4.289924,0.212107 -6.717518,-0.365131 -0.587548,-0.149494 -2.565805,-2.207568 -3.057115,-3.452948 z"
                 style="fill:#ed6c30;stroke-width:1"
                 sodipodi:nodetypes="cccccccccccccccc" />
            </g>
          </g>
        </g>
        <g
           id="g56">
          <g
             id="g52"
             transform="translate(-0.50848)">
            <path
               id="path24-9"
               style="fill:#ed6c30"
               d="m -61.5625,17.117022 c -8.136007,-7e-6 -14.499055,7.47751 -14.113487,18.201789 0.385568,10.724279 2.934273,17.051604 3.087316,20.62444 0.153044,3.572837 -2.323215,9.923456 -1.884997,14.19792 0.438218,4.274464 1.443299,8.466096 2.850621,11.234691 2.814304,5.536519 0.293348,20.090678 10.060547,20.090938 9.767697,2.7e-4 7.248494,-14.554328 10.0625,-20.090938 1.407212,-2.768716 2.411661,-6.960226 2.849526,-11.234614 0.437865,-4.274388 -2.038531,-10.62498 -1.885615,-14.197789 0.152915,-3.572809 2.701453,-9.900059 3.087098,-20.624457 0.385646,-10.724398 -5.977502,-18.201973 -14.113509,-18.20198 z"
               sodipodi:nodetypes="szszssszszs" />
            <path
               d="m -44.534699,112.90986 c 6.95e-4,6.07567 -8.513847,3.06665 -17.028555,3.0663 -8.513951,6e-5 -17.02775,3.00992 -17.027572,-3.0672 -6.95e-4,-6.07568 8.513877,-18.937479 17.027392,-18.936812 8.515142,-3.65e-4 17.028911,12.860602 17.029171,18.937002 z"
               fill="#e34400"
               stroke-width="4.285"
               stroke-linecap="round"
               stroke-linejoin="round"
               paint-order="stroke fill markers"
               id="path31-2"
               style="fill:#ed6c30" />
          </g>
          <g
             id="g53"
             transform="translate(-0.50854,13.602609)">
            <ellipse
               id="XMLID_14_"
               cx="-66.086342"
               cy="14.901182"
               rx="2.5408711"
               ry="3.0462885"
               style="fill:#2f2f2f;stroke-width:1" />
            <ellipse
               id="XMLID_13_"
               cx="-57.038635"
               cy="14.809287"
               rx="2.5408711"
               ry="3.0462885"
               style="fill:#2f2f2f;stroke-width:1" />
          </g>
        </g>
      </g>
    </g>
    <path
       id="path58"
       style="fill:#f79329;fill-opacity:1;stroke-width:5.99999;stroke-linecap:round"
       d="m -63.596582,69.414726 c -1.838857,0.128557 -3.581339,0.823374 -5.221423,1.626188 -0.974161,0.446078 -1.980976,1.0183 -2.499329,1.999487 -0.186435,0.379006 -0.414233,0.858012 -0.192405,1.266621 0.20253,0.35445 0.659258,0.283271 0.99536,0.217534 0.77113,-0.16461 1.502149,-0.477291 2.25623,-0.704397 0.979693,-0.309346 1.976566,-0.561854 2.971545,-0.816326 1.454607,-0.369105 2.972017,-0.378304 4.438515,-0.0635 2.168231,0.44952 4.296053,1.08384 6.447229,1.611721 0.585744,0.25679 1.424946,-0.02443 1.580675,-0.683354 0.133798,-0.945502 -0.544413,-1.835715 -1.366693,-2.229178 -2.039243,-1.090169 -4.333419,-1.535954 -6.572849,-2.016579 -0.931718,-0.19308 -1.887794,-0.235404 -2.836855,-0.208215 z" />
    <path
       id="path59"
       style="fill:#f79329;fill-opacity:1;stroke-width:5.99999;stroke-linecap:round"
       d="m -63.003077,76.520252 c -0.711914,0.01865 -1.389501,0.279011 -2.057445,0.503048 -0.999163,0.393449 -2.063978,0.826838 -2.725433,1.717822 -0.362554,0.489996 -0.639052,1.12275 -0.514702,1.740713 0.08224,0.324829 0.375438,0.604356 0.727136,0.560511 1.14312,0.161627 2.216874,-0.361043 3.258916,-0.746634 1.178308,-0.424226 2.499028,-0.691019 3.71852,-0.271828 1.097241,0.335044 2.046173,1.059506 3.179821,1.284853 0.565706,0.09664 1.300201,0.0063 1.588978,-0.558848 0.282755,-0.768145 -0.158849,-1.622211 -0.781563,-2.08237 -1.097845,-0.920608 -2.44976,-1.501984 -3.83076,-1.847996 -0.8374,-0.196806 -1.702511,-0.309321 -2.563468,-0.299271 z" />
  </g>
</svg>
