<?xml version="1.0" encoding="UTF-8" standalone="no"?>
<!-- Generator: Adobe Illustrator 16.0.0, SVG Export Plug-In . SVG Version: 6.00 Build 0)  -->

<svg
   version="1.1"
   id="レイヤー_1"
   x="0px"
   y="0px"
   width="128px"
   height="128px"
   viewBox="0 0 128 128"
   enable-background="new 0 0 128 128"
   xml:space="preserve"
   sodipodi:docname="emoji_u1f6ae.svg"
   inkscape:version="1.3 (0e150ed6c4, 2023-07-21)"
   xmlns:inkscape="http://www.inkscape.org/namespaces/inkscape"
   xmlns:sodipodi="http://sodipodi.sourceforge.net/DTD/sodipodi-0.dtd"
   xmlns="http://www.w3.org/2000/svg"
   xmlns:svg="http://www.w3.org/2000/svg"><defs
   id="defs6" /><sodipodi:namedview
   id="namedview6"
   pagecolor="#ffffff"
   bordercolor="#000000"
   borderopacity="0.25"
   inkscape:showpageshadow="2"
   inkscape:pageopacity="0.0"
   inkscape:pagecheckerboard="0"
   inkscape:deskcolor="#d1d1d1"
   inkscape:zoom="4.0546875"
   inkscape:cx="66.096339"
   inkscape:cy="63.260116"
   inkscape:window-width="1366"
   inkscape:window-height="697"
   inkscape:window-x="-8"
   inkscape:window-y="-8"
   inkscape:window-maximized="1"
   inkscape:current-layer="レイヤー_1" />&#10;<path
   d="M 121.005,0.115 H 6.995 c -3.78,0 -6.88,3.09 -6.88,6.88 v 114.01 c 0,3.79 3.1,6.88 6.88,6.88 h 114.01 c 3.78,0 6.88,-3.09 6.88,-6.88 V 6.995 c 0,-3.79 -3.1,-6.88 -6.88,-6.88 z"
   fill="#40c0e7"
   id="path26" /><g
   id="g6"
   transform="translate(-0.00145152,-6.425)"
   style="fill:#ffffff;fill-opacity:1">&#10;	<g
   id="g5"
   style="fill:#ffffff;fill-opacity:1">&#10;		<g
   id="g2"
   style="fill:#ffffff;fill-opacity:1">&#10;			<path
   fill="#78a3ad"
   d="m 37.7,98.66 c -9.47,0 -16.89,-4.32 -16.89,-9.84 0,-5.52 7.42,-9.84 16.89,-9.84 9.47,0 16.89,4.32 16.89,9.84 0,5.51 -7.42,9.84 -16.89,9.84 z m 0,-16.49 c -8.07,0 -13.69,3.5 -13.69,6.64 0,3.14 5.62,6.64 13.69,6.64 8.07,0 13.69,-3.5 13.69,-6.64 0,-3.14 -5.63,-6.64 -13.69,-6.64 z"
   id="path1"
   style="fill:#ffffff;fill-opacity:1" />&#10;			<path
   fill="#78a3ad"
   d="m 37.7,122.01 c -7.1,0 -12.33,-2.98 -13.31,-7.6 L 20.82,89.04 c -0.12,-0.88 0.49,-1.69 1.37,-1.81 0.92,-0.12 1.68,0.49 1.8,1.36 l 3.55,25.26 c 0.62,2.92 4.72,4.95 10.16,4.95 5.36,0 9.55,-2.08 10.19,-5.06 l 3.52,-25.15 c 0.12,-0.87 0.88,-1.49 1.81,-1.36 0.88,0.12 1.49,0.93 1.36,1.81 l -3.54,25.26 c -1.01,4.66 -6.36,7.71 -13.34,7.71 z"
   id="path2"
   style="fill:#ffffff;fill-opacity:1" />&#10;		</g>&#10;		<g
   id="g4"
   style="fill:#ffffff;fill-opacity:1">&#10;			<g
   id="g3"
   style="fill:#ffffff;fill-opacity:1">&#10;				<path
   fill="#ed6c30"
   d="m 87.82,49.82 c 0,-2 7.26,-4.17 7.5,-14.51 0.23,-10.26 -7.96,-16.47 -16.72,-16.47 -8.76,0 -16.94,6.2 -16.72,16.47 0.08,3.33 0.96,6.6 2.96,9.31 1.17,1.59 2.8,2.7 4.05,4.2 1.13,1.38 -0.01,3.11 -0.68,4.48 -0.63,1.29 -1.7,2.47 -2.14,3.83 -0.36,1.1 -0.75,2.27 -0.85,3.42 -0.08,0.98 0,2 0,2.98 0,1.57 0.31,3.03 0.53,4.5 0.77,5 -1.08,9.83 -1.45,14.81 -0.32,4.31 0.96,7.59 1.94,9.18 1.32,2.15 2.15,17.78 -0.52,19.78 -1.57,1.18 -3.13,2.76 -3.13,4.85 0,3.58 3.3,4.84 8.18,4.24 4.25,-0.52 7.17,-2.48 6.83,-8.59 -0.34,-6.1 -1.88,-16.78 1,-16.78 2.88,0 1.35,10.67 1,16.78 -0.34,6.11 2.59,8.07 6.84,8.59 4.89,0.6 8.17,-0.66 8.17,-4.24 0,-2.09 -1.57,-3.67 -3.13,-4.85 -2.66,-2 -1.83,-17.63 -0.51,-19.78 0.97,-1.59 2.26,-4.88 1.93,-9.18 -0.44,-5.76 -2.73,-12.58 -1.08,-12.93 1.18,-0.25 2.3,-1.21 4.04,3.9 1.74,5.11 -0.31,8.7 -0.31,13.52 0,4.83 8.61,7.52 11.08,0 C 109.1,79.82 103.04,65.77 97.58,59 92.12,52.22 87.82,51.81 87.82,49.82 Z"
   id="path3"
   style="fill:#ffffff;fill-opacity:1" />&#10;			</g>&#10;			<path
   fill="#ed6c30"
   d="m 69.13,50.74 c -2.59,5.86 -12.15,7.35 -17.73,6.5 -2.52,-0.38 -4.83,-1.44 -7.28,-2 -2.68,-0.62 -5.86,-0.21 -7.64,2.05 -1.89,2.4 -1.85,6.52 0.32,8.81 6.54,6.88 18.11,3.84 25.75,0.79 1.2,-0.48 2.71,-0.85 3.19,0.74 0.24,0.82 0.16,1.71 0.53,2.56 0.36,0.83 0.9,1.26 1.83,1.38 0.75,0.1 1.59,0.28 2.35,0.28 1.77,0.01 3.21,-1.96 3.49,-3.55 0.08,-0.52 -0.04,-1 -0.07,-1.52 -0.05,-0.83 0.15,-1.67 0.27,-2.5 0.53,-3.75 0.98,-7.53 0.86,-11.32 -0.05,-1.55 0.08,-3.15 -0.98,-4.43 -0.21,-0.26 -0.51,-0.41 -0.79,-0.58 -0.65,-0.38 -1.64,-0.46 -2.38,-0.46 -0.57,0 -1.62,-0.07 -2.05,0.4 -0.37,0.41 0.22,0.98 0.36,1.37 0.2,0.56 0.16,1.04 -0.03,1.48 z"
   id="path4"
   style="fill:#ffffff;fill-opacity:1" />&#10;		</g>&#10;	</g>&#10;	<polygon
   fill="#fcc21b"
   points="37.85,86.34 41.35,84.76 42.95,81.43 41.54,77.53 36.01,76.44 32.86,80.03 33.95,84.45 "
   id="polygon5"
   style="fill:#ffffff;fill-opacity:1" />&#10;</g>&#10;</svg>
