<?xml version="1.0" encoding="UTF-8" standalone="no"?>
<svg
   width="128"
   height="128"
   version="1.1"
   id="svg44821"
   sodipodi:docname="emoji_u1f917.svg"
   inkscape:version="1.2.2 (732a01da63, 2022-12-09)"
   xmlns:inkscape="http://www.inkscape.org/namespaces/inkscape"
   xmlns:sodipodi="http://sodipodi.sourceforge.net/DTD/sodipodi-0.dtd"
   xmlns="http://www.w3.org/2000/svg"
   xmlns:svg="http://www.w3.org/2000/svg">
  <defs
     id="defs44825" />
  <sodipodi:namedview
     id="namedview44823"
     pagecolor="#ffffff"
     bordercolor="#000000"
     borderopacity="0.25"
     inkscape:showpageshadow="2"
     inkscape:pageopacity="0.0"
     inkscape:pagecheckerboard="0"
     inkscape:deskcolor="#d1d1d1"
     showgrid="false"
     inkscape:zoom="4.2421875"
     inkscape:cx="48.913444"
     inkscape:cy="63.882136"
     inkscape:window-width="1366"
     inkscape:window-height="697"
     inkscape:window-x="-8"
     inkscape:window-y="-8"
     inkscape:window-maximized="1"
     inkscape:current-layer="svg44821" />
  <style
     id="style44713">.st0{fill:#fcc21b}.st1{fill:#fcc01c}.st2{fill:#fcbe1c}.st3{fill:#fbbb1d}.st4{fill:#fbb91e}.st5{fill:#fbb71e}.st6{fill:#fbb51f}.st7{fill:#fab220}.st8{fill:#fab020}.st9{fill:#faae21}.st10{fill:#faac22}.st11{fill:#f9a922}.st12{fill:#f9a723}.st13{fill:#f9a524}.st14{fill:#f9a324}.st15{fill:#f8a025}.st16{fill:#f89e26}.st17{fill:#f89c26}.st18{fill:#f89a27}.st19{fill:#f79728}.st20{fill:#f79528}.st21{fill:#f79329}.st22{fill:#2f2f2f}.st23{fill:#fac036}</style>
  <path
     class="st0"
     d="M63.8 8.7c-56.7 0-58 63.5-58 76.1 0 12.6 26 22.8 58 22.8s58-10.2 58-22.8c0-12.6-1.3-76.1-58-76.1z"
     id="path44715" />
  <path
     class="st22"
     d="M33.1 57.9c-.7 1.2-2.2 1.5-3.4.8-1.2-.7-1.6-2.2-.9-3.4.2-.3 4.2-8 13-8 8.9 0 12.7 7.5 13 8 .7 1.2.3 2.7-.9 3.4-.4.2-.8.3-1.3.3-.8 0-1.7-.4-2.1-1.2-.1-.2-2.8-5.6-8.8-5.6-5.8.1-8.4 5.5-8.6 5.7zM98.4 58.7c-.4.2-.8.3-1.2.3-.9 0-1.7-.4-2.1-1.2-.1-.2-2.8-5.6-8.8-5.6-6.1 0-8.8 5.5-8.8 5.6-.7 1.2-2.2 1.6-3.4.9-1.2-.7-1.6-2.2-.9-3.4.4-.7 4.2-8 13-8 8.9 0 12.6 7.3 13 8 .8 1.2.4 2.7-.8 3.4zM64.1 84.3C48 84.3 40.9 74 40.6 73.6c-1-1.3-.7-3.1.6-4.1 1.3-1 3.1-.7 4.1.6.3.4 5.7 8.4 19 8.4 12.2 0 18-7.7 18.2-8.1.9-1.3 2.7-1.7 4.1-.8 1.3.9 1.7 2.7.8 4-.3.5-7.4 10.7-23.3 10.7z"
     id="path44807" />
  <g
     id="g44819">
    <path
       class="st23"
       d="M30.7 119.7c-3.5 0-6.7-1-9.5-3-3.2-2.2-5.6-3.2-5.7-3.2-4.1-1.7-9.2-4.6-9.2-4.6-2.1-1.2-3.8-3.7-2.7-6.4.5-1.2 1.3-2.1 2.4-2.5-.9-.5-1.3-.8-1.4-.9-1.7-1.3-3.5-4.3-1.9-6.8.9-1.3 2.1-2.2 3.6-2.5-1.4-1.7-2.1-4.2-.8-6.3.9-1.4 2.6-2.3 4.2-2.3 1.2 0 2.4.5 3.4 1.3l.1.1c-.5-1.6-.2-3.3 1.2-4.7 1.1-1 2.3-1.5 3.6-1.5.9 0 2.4.3 3.8 1.8s7.9 8.5 8.8 9.6c.6.6 2.1 2.3 2.3 2.5l.1.1c-.3-.5-.5-1-.6-1.7-.5-1.8-.1-3.7 1-5.1.9-1.2 2.2-1.8 3.7-1.8 3.4 0 4.7 3.2 5.3 4.8.5 1.4 1.3 2.3 2.1 3.4.9 1.2 1.9 2.6 2.9 4.7 1.3 3 1.6 7.3.8 11-1.8 7.9-6.7 10.8-10.8 12.5-1.6.9-3.9 1.5-6.7 1.5z"
       id="path44809" />
    <path
       class="st22"
       d="M18 78.6c.7 0 1.5.3 2.3 1.2 1.4 1.5 7.8 8.5 8.8 9.6.6.7 2.3 2.5 2.3 2.6.9.9 1.8 1.9 3 3.1 0 0 .9.9 1.8.9.6 0 1.2-.4 1.7-1.6-1.5-2.8-3-3.6-3.6-5.8-.6-2.3.8-4.4 2.7-4.4 1.8 0 2.6 1.4 3.4 3.5 1.3 3.2 3.3 4.4 5 8.2 1.2 2.6 1.4 6.6.7 9.8-1.5 6.6-5.2 9.3-9.6 11.1-1.5.6-3.5 1.1-5.8 1.1-2.6 0-5.6-.7-8.4-2.6-3.4-2.4-6-3.4-6-3.4-3.6-1.5-8.1-4-9-4.5-1.1-.6-2.6-2.2-1.9-3.9.4-1 1.3-1.7 2.4-1.7.5 0 1.1.1 1.7.5 1.1.6 3.6 2.1 8 4.3 0 0 .7-.2.8-.6.1-.3.1-.7-.4-1.3C15.3 103 6.3 98 5.7 97.5c-1-.7-2.3-2.7-1.4-4.1.6-.9 1.6-1.6 2.7-1.6.6 0 1.1.2 1.7.6 1.3.9 7.1 4.7 11.1 7.3 0 0 1.8-.3 1.1-1.8-3.4-2.2-12.2-8.2-12.9-9-.9-.9-1.9-2.7-.9-4.2.6-.8 1.5-1.4 2.6-1.4.7 0 1.4.2 2.1.8 1.4 1.2 9.9 8.1 12.4 10.2h.4c.5 0 1.1-.2 1-1.3 0 0-8.8-8.3-9.4-9.1-.8-1-1.8-3-.3-4.4.5-.5 1.3-.9 2.1-.9m0-4c-1.8 0-3.5.7-4.9 2.1-.9.8-1.5 1.8-1.8 2.9-.5-.1-1-.2-1.6-.2-2.3 0-4.6 1.2-5.9 3.1-1.4 2-1.3 4.4-.5 6.4-.9.6-1.7 1.4-2.4 2.4-1.9 3-.7 6.7 1.7 8.9-.4.5-.7 1-.9 1.7-1.5 3.7.8 7.2 3.6 8.8.1 0 5.3 3.1 9.5 4.8 0 0 2.3 1 5.3 3 3.2 2.2 6.9 3.3 10.7 3.3 3.2 0 5.7-.8 7.3-1.4 4.5-1.8 10-5.1 12-13.9.9-4.1.6-8.9-.9-12.3-1-2.3-2.2-3.8-3.1-5.1-.8-1.1-1.4-1.9-1.8-3-.7-1.6-2.4-6-7.1-6h-.1c-2 0-4 .9-5.2 2.6-.5.7-.9 1.5-1.2 2.3-2.3-2.5-6.2-6.8-7.3-8-2.1-2-4.1-2.4-5.4-2.4z"
       id="path44811" />
    <g
       id="g44817">
      <path
         class="st23"
         d="M97.3 119.7c-2.9 0-5.1-.7-6.6-1.3-4.1-1.7-9-4.6-10.8-12.5-.9-3.7-.5-8 .8-11 .9-2.1 2-3.5 2.9-4.7.8-1.1 1.5-2.1 2.1-3.4.6-1.5 1.9-4.7 5.3-4.8 1.5 0 2.8.7 3.7 1.8 1.1 1.4 1.4 3.3 1 5.1-.2.6-.4 1.2-.6 1.7l.2-.2c.1-.2 1.7-1.8 2.2-2.5.9-1.1 7.4-8.1 8.8-9.6 1.4-1.5 2.8-1.8 3.8-1.8 1.3 0 2.5.5 3.6 1.5 1.4 1.3 1.7 3 1.2 4.7.1 0 .1-.1.1-.1 1-.9 2.1-1.3 3.4-1.3 1.7 0 3.3.9 4.2 2.2 1.4 2 .7 4.6-.8 6.3 1.4.2 2.7 1.1 3.6 2.5 1.6 2.5-.1 5.5-1.9 6.8-.2.1-.6.4-1.4.9 1.1.5 1.9 1.4 2.4 2.5 1.1 2.6-.7 5.1-2.7 6.4-.1 0-5.1 3-9.2 4.6 0 0-2.5 1-5.7 3.2-2.9 2-6.1 3-9.6 3z"
         id="path44813" />
      <path
         class="st22"
         d="M110 78.6c.8 0 1.6.4 2.2 1 1.5 1.4.5 3.4-.3 4.4-.6.8-9.4 9.1-9.4 9.1-.1 1.1.5 1.3 1 1.3h.4c2.5-2.2 11-9 12.4-10.2.6-.6 1.4-.8 2.1-.8 1 0 2 .5 2.6 1.4 1 1.5-.1 3.4-.9 4.2-.8.8-9.6 6.8-12.9 9-.7 1.5 1.1 1.8 1.1 1.8 4-2.6 9.8-6.5 11.1-7.3.6-.4 1.2-.6 1.7-.6 1.1 0 2.1.7 2.7 1.6.9 1.5-.4 3.4-1.4 4.1-.6.5-9.6 5.5-12.2 6.9-.5.6-.6 1-.4 1.3.2.5.8.6.8.6 4.4-2.2 6.9-3.7 8-4.3.6-.3 1.2-.5 1.7-.5 1.1 0 2 .6 2.4 1.7.7 1.7-.8 3.3-1.9 3.9-.8.5-5.4 3-9 4.5 0 0-2.6 1.1-6 3.4-2.8 2-5.8 2.6-8.4 2.6-2.3 0-4.3-.5-5.8-1.1-4.4-1.8-8.1-4.5-9.6-11.1-.7-3.2-.5-7.1.7-9.8 1.6-3.7 3.7-5 5-8.2.8-2.1 1.7-3.5 3.4-3.5 1.9 0 3.3 2.1 2.7 4.4-.5 2.2-2 3-3.6 5.8.4 1.2 1.1 1.6 1.7 1.6.9 0 1.8-.9 1.8-.9 1.1-1.1 2.1-2.2 3-3.1.1-.1 1.7-1.9 2.3-2.6 1-1.1 7.3-8.1 8.8-9.6.7-.7 1.5-1 2.2-1m0-4c-1.3 0-3.3.4-5.2 2.4-1.1 1.2-5.1 5.5-7.3 8-.3-.8-.7-1.6-1.2-2.3-1.3-1.7-3.2-2.6-5.3-2.6h-.1c-4.7.1-6.4 4.4-7.1 6-.4 1.1-1 1.9-1.8 3-.9 1.2-2.1 2.8-3.1 5.1-1.5 3.4-1.8 8.2-.9 12.3 2 8.8 7.5 12.1 12 13.9 1.6.6 4.1 1.4 7.3 1.4 3.8 0 7.5-1.2 10.7-3.3 3-2.1 5.3-3 5.3-3 4.2-1.7 9.4-4.7 9.5-4.8 2.8-1.6 5.1-5.1 3.6-8.8-.2-.6-.6-1.2-.9-1.7 2.4-2.2 3.6-5.9 1.7-8.9-.6-1-1.4-1.8-2.4-2.4.8-2 .9-4.4-.5-6.4-1.3-1.9-3.6-3.1-5.9-3.1-.5 0-1.1.1-1.6.2-.3-1.1-.9-2.1-1.8-2.9-1.5-1.4-3.2-2.1-5-2.1z"
         id="path44815" />
    </g>
  </g>
</svg>
