<?xml version="1.0" encoding="UTF-8" standalone="no"?>
<svg
   width="100%"
   height="100%"
   viewBox="0 0 128 128"
   version="1.1"
   xml:space="preserve"
   style="fill-rule:evenodd;clip-rule:evenodd;stroke-linejoin:round;stroke-miterlimit:1.41421;"
   id="svg1"
   sodipodi:docname="emoji_u1f90e.svg"
   inkscape:version="1.3 (0e150ed6c4, 2023-07-21)"
   xmlns:inkscape="http://www.inkscape.org/namespaces/inkscape"
   xmlns:sodipodi="http://sodipodi.sourceforge.net/DTD/sodipodi-0.dtd"
   xmlns="http://www.w3.org/2000/svg"
   xmlns:svg="http://www.w3.org/2000/svg"><defs
   id="defs1" /><sodipodi:namedview
   id="namedview1"
   pagecolor="#ffffff"
   bordercolor="#000000"
   borderopacity="0.25"
   inkscape:showpageshadow="2"
   inkscape:pageopacity="0.0"
   inkscape:pagecheckerboard="0"
   inkscape:deskcolor="#d1d1d1"
   inkscape:zoom="4.0546875"
   inkscape:cx="59.190751"
   inkscape:cy="68.439306"
   inkscape:window-width="1366"
   inkscape:window-height="697"
   inkscape:window-x="-8"
   inkscape:window-y="-8"
   inkscape:window-maximized="1"
   inkscape:current-layer="svg1" />&#10;    <path
   d="M96.67,15.85L96.47,15.85C95.98,15.85 95.48,15.85 94.99,15.87C89.81,15.96 84.78,17.11 80.03,19.1C74.94,21.25 71.45,24.45 66.92,27.33C66.07,27.87 65.03,28.14 64,28.14C62.96,28.14 61.92,27.87 61.07,27.33C56.55,24.45 53.05,21.25 47.96,19.1C43.21,17.11 38.18,15.96 33,15.87C32.51,15.85 32.02,15.85 31.53,15.85L31.33,15.85C18.21,15.85 8.64,23.39 3.03,36.5C0.63,42.08 0.59,50.48 1.57,56.34C2.55,62.18 4.98,67.45 8.29,72.37C19.32,88.8 39,96.42 53.19,109.66C54.7,111.07 56.2,112.6 57.74,114.01C59.38,115.52 61.36,119 64,119.16C66.63,119 68.62,115.53 70.26,114.01C71.8,112.59 73.29,111.07 74.81,109.66C89,96.42 108.67,88.8 119.7,72.38C123.01,67.46 125.44,62.19 126.42,56.35C127.4,50.49 127.36,42.08 124.96,36.51C119.35,23.39 109.79,15.85 96.67,15.85Z"
   style="fill:#855c52;fill-rule:nonzero"
   id="path1" />&#10;</svg>
