<?xml version="1.0" encoding="UTF-8" standalone="no"?>
<svg
   width="128"
   height="128"
   version="1.1"
   id="svg48"
   sodipodi:docname="emoji_u1f624.svg"
   xml:space="preserve"
   inkscape:version="1.3 (0e150ed6c4, 2023-07-21)"
   xmlns:inkscape="http://www.inkscape.org/namespaces/inkscape"
   xmlns:sodipodi="http://sodipodi.sourceforge.net/DTD/sodipodi-0.dtd"
   xmlns:xlink="http://www.w3.org/1999/xlink"
   xmlns="http://www.w3.org/2000/svg"
   xmlns:svg="http://www.w3.org/2000/svg"><defs
     id="defs48"><path
       id="SVGID_1_"
       d="M112.7,37.63c0,0-0.01,0-0.02,0C102.61,23.9,83.67,14.58,64,14.58c-19.68,0-38.62,9.32-48.68,23.05      l-0.02,0c0,0-14.97,12.2-14.97,31.25C0.33,88.37,13,97.64,13,97.64l0.05,0.01c5.52,9.04,26.21,15.77,50.94,15.77      c24.74,0,45.41-6.73,50.93-15.77c0.02,0,0.06-0.02,0.06-0.02s12.69-9.26,12.69-28.76C127.67,49.84,112.7,37.63,112.7,37.63z" /></defs><sodipodi:namedview
     id="namedview48"
     pagecolor="#ffffff"
     bordercolor="#000000"
     borderopacity="0.25"
     inkscape:showpageshadow="2"
     inkscape:pageopacity="0.0"
     inkscape:pagecheckerboard="0"
     inkscape:deskcolor="#d1d1d1"
     inkscape:zoom="8.515625"
     inkscape:cx="64"
     inkscape:cy="64"
     inkscape:current-layer="svg48" /><g
     id="g52">&#10;	<g
   id="g49">&#10;		<g
   id="g47">&#10;			<defs
   id="defs1">&#10;				<path
   id="path48"
   d="m 112.7,37.63 c 0,0 -0.01,0 -0.02,0 C 102.61,23.9 83.67,14.58 64,14.58 44.32,14.58 25.38,23.9 15.32,37.63 H 15.3 c 0,0 -14.97,12.2 -14.97,31.25 C 0.33,88.37 13,97.64 13,97.64 l 0.05,0.01 c 5.52,9.04 26.21,15.77 50.94,15.77 24.74,0 45.41,-6.73 50.93,-15.77 0.02,0 0.06,-0.02 0.06,-0.02 0,0 12.69,-9.26 12.69,-28.76 0,-19.03 -14.97,-31.24 -14.97,-31.24 z" />&#10;			</defs>&#10;			<use
   xlink:href="#SVGID_1_"
   overflow="visible"
   fill="#fcc21b"
   id="use1" />&#10;			<clipPath
   id="SVGID_2_">&#10;				<use
   xlink:href="#SVGID_1_"
   overflow="visible"
   id="use2" />&#10;			</clipPath>&#10;			<g
   clip-path="url(#SVGID_2_)"
   id="g24">&#10;				<g
   id="g23">&#10;					<path
   fill="#fcc21b"
   d="M 36.26,93.27 C 20.85,98.8 3.87,91 -1.73,75.8 -7.32,60.62 0.6,43.8 15.99,38.25 c 15.35,-5.52 32.38,2.3 38,17.49 5.57,15.2 -2.37,32.01 -17.73,37.53 z"
   id="path2" />&#10;					<path
   fill="#fcc01c"
   d="M 35.83,92.12 C 21.07,97.42 4.8,89.94 -0.56,75.38 -5.92,60.84 1.66,44.72 16.41,39.4 31.12,34.11 47.43,41.61 52.82,56.16 58.16,70.73 50.55,86.83 35.83,92.12 Z"
   id="path3" />&#10;					<path
   fill="#fcbe1c"
   d="M 35.41,90.97 C 21.29,96.03 5.73,88.88 0.6,74.96 -4.52,61.06 2.73,45.64 16.84,40.55 30.9,35.5 46.5,42.66 51.65,56.58 56.76,70.51 49.48,85.91 35.41,90.97 Z"
   id="path4" />&#10;					<path
   fill="#fbbb1d"
   d="M 34.98,89.82 C 21.51,94.65 6.66,87.83 1.77,74.54 -3.12,61.27 3.8,46.56 17.26,41.7 30.68,36.88 45.57,43.71 50.49,57 55.36,70.29 48.41,84.99 34.98,89.82 Z"
   id="path5" />&#10;					<path
   fill="#fbb91e"
   d="M 34.56,88.67 C 21.74,93.27 7.6,86.77 2.94,74.12 -1.71,61.49 4.88,47.48 17.69,42.86 30.47,38.27 44.64,44.78 49.33,57.42 53.96,70.08 47.35,84.07 34.56,88.67 Z"
   id="path6" />&#10;					<path
   fill="#fbb71e"
   d="M 34.13,87.51 C 21.96,91.88 8.52,85.71 4.1,73.7 -0.32,61.7 5.94,48.4 18.11,44.01 c 12.14,-4.36 25.6,1.82 30.05,13.83 4.4,12.02 -1.88,25.31 -14.03,29.67 z"
   id="path7" />&#10;					<path
   fill="#fbb51f"
   d="M 33.71,86.36 C 22.18,90.5 9.46,84.66 5.27,73.28 1.08,61.92 7.01,49.32 18.53,45.16 c 11.5,-4.13 24.24,1.73 28.46,13.1 4.17,11.38 -1.78,23.97 -13.28,28.1 z"
   id="path8" />&#10;					<path
   fill="#fab220"
   d="M 33.29,85.21 C 22.4,89.12 10.39,83.6 6.43,72.86 2.48,62.13 8.08,50.24 18.96,46.31 c 10.85,-3.9 22.89,1.63 26.86,12.37 3.94,10.74 -1.68,22.63 -12.53,26.53 z"
   id="path9" />&#10;					<path
   fill="#fab020"
   d="M 32.86,84.06 C 22.62,87.73 11.32,82.54 7.6,72.44 3.88,62.35 9.15,51.16 19.38,47.46 29.59,43.79 40.91,48.99 44.65,59.1 48.36,69.21 43.08,80.39 32.86,84.06 Z"
   id="path10" />&#10;					<path
   fill="#faae21"
   d="M 32.44,82.91 C 22.84,86.35 12.25,81.49 8.77,72.02 5.29,62.56 10.22,52.08 19.81,48.62 c 9.57,-3.44 20.18,1.44 23.68,10.9 3.47,9.47 -1.48,19.95 -11.05,23.39 z"
   id="path11" />&#10;					<path
   fill="#faac22"
   d="M 32.01,81.76 C 23.06,84.97 13.18,80.43 9.93,71.6 6.68,62.78 11.28,53 20.23,49.77 c 8.93,-3.21 18.82,1.34 22.09,10.17 3.24,8.83 -1.38,18.61 -10.31,21.82 z"
   id="path12" />&#10;					<path
   fill="#f9a922"
   d="M 31.59,80.6 C 23.28,83.58 14.12,79.37 11.1,71.17 8.08,62.98 12.36,53.91 20.66,50.91 c 8.28,-2.98 17.47,1.24 20.5,9.44 3,8.2 -1.28,17.28 -9.57,20.25 z"
   id="path13" />&#10;					<path
   fill="#f9a723"
   d="M 31.16,79.45 C 23.5,82.2 15.04,78.31 12.26,70.75 9.48,63.2 13.42,54.83 21.07,52.06 c 7.64,-2.75 16.11,1.15 18.91,8.71 2.78,7.57 -1.17,15.94 -8.82,18.68 z"
   id="path14" />&#10;					<path
   fill="#f9a524"
   d="m 30.74,78.3 c -7.02,2.52 -14.76,-1.04 -17.31,-7.96 -2.55,-6.92 1.06,-14.58 8.07,-17.12 7,-2.52 14.77,1.04 17.32,7.97 2.55,6.92 -1.08,14.6 -8.08,17.11 z"
   id="path15" />&#10;					<path
   fill="#f9a324"
   d="M 30.32,77.15 C 23.95,79.43 16.91,76.2 14.6,69.92 c -2.32,-6.28 0.96,-13.24 7.33,-15.54 6.36,-2.29 13.41,0.95 15.73,7.24 2.31,6.28 -0.99,13.24 -7.34,15.53 z"
   id="path16" />&#10;					<path
   fill="#f8a025"
   d="m 29.89,76 c -5.73,2.05 -12.05,-0.85 -14.13,-6.5 -2.08,-5.64 0.87,-11.91 6.59,-13.97 5.71,-2.05 12.06,0.85 14.14,6.51 2.08,5.64 -0.88,11.9 -6.6,13.96 z"
   id="path17" />&#10;					<path
   fill="#f89e26"
   d="m 29.47,74.85 c -5.08,1.82 -10.7,-0.76 -12.54,-5.77 -1.85,-5.01 0.77,-10.57 5.85,-12.4 5.07,-1.82 10.7,0.75 12.55,5.77 1.84,5.01 -0.79,10.57 -5.86,12.4 z"
   id="path18" />&#10;					<path
   fill="#f89c26"
   d="m 29.04,73.7 c -4.44,1.59 -9.34,-0.66 -10.95,-5.04 -1.61,-4.37 0.67,-9.23 5.11,-10.83 4.43,-1.59 9.35,0.66 10.96,5.04 1.61,4.38 -0.69,9.23 -5.12,10.83 z"
   id="path19" />&#10;					<path
   fill="#f89a27"
   d="m 28.62,72.54 c -3.79,1.36 -7.98,-0.57 -9.36,-4.31 -1.38,-3.74 0.58,-7.89 4.36,-9.26 3.79,-1.36 7.99,0.56 9.37,4.31 1.38,3.75 -0.58,7.9 -4.37,9.26 z"
   id="path20" />&#10;					<path
   fill="#f79728"
   d="m 28.19,71.39 c -3.15,1.13 -6.63,-0.47 -7.77,-3.58 -1.15,-3.1 0.48,-6.55 3.62,-7.68 3.14,-1.13 6.63,0.47 7.78,3.58 1.15,3.1 -0.48,6.55 -3.63,7.68 z"
   id="path21" />&#10;					<path
   fill="#f79528"
   d="m 27.77,70.24 c -2.5,0.89 -5.27,-0.38 -6.18,-2.84 -0.91,-2.47 0.38,-5.21 2.88,-6.11 2.5,-0.9 5.28,0.37 6.19,2.85 0.91,2.46 -0.39,5.2 -2.89,6.1 z"
   id="path22" />&#10;					<path
   fill="#f79329"
   d="m 27.34,69.09 c -1.86,0.66 -3.92,-0.28 -4.59,-2.11 -0.68,-1.83 0.28,-3.87 2.14,-4.54 1.86,-0.67 3.91,0.28 4.6,2.11 0.67,1.83 -0.29,3.87 -2.15,4.54 z"
   id="path23" />&#10;				</g>&#10;			</g>&#10;			<g
   clip-path="url(#SVGID_2_)"
   id="g46">&#10;				<g
   id="g45">&#10;					<path
   fill="#fcc21b"
   d="M 112.34,93.27 C 96.93,98.8 79.94,91 74.35,75.8 68.76,60.63 76.67,43.81 92.07,38.25 c 15.35,-5.52 32.38,2.3 38,17.49 5.56,15.2 -2.38,32.01 -17.73,37.53 z"
   id="path24" />&#10;					<path
   fill="#fcc01c"
   d="M 111.91,92.12 C 97.15,97.42 80.87,89.94 75.51,75.38 70.16,60.84 77.73,44.73 92.49,39.4 c 14.71,-5.29 31.02,2.21 36.41,16.76 5.33,14.57 -2.27,30.67 -16.99,35.96 z"
   id="path25" />&#10;					<path
   fill="#fcbe1c"
   d="M 111.49,90.97 C 97.37,96.04 81.81,88.88 76.68,74.96 71.56,61.06 78.81,45.64 92.92,40.55 c 14.07,-5.05 29.66,2.11 34.82,16.03 5.09,13.93 -2.18,29.33 -16.25,34.39 z"
   id="path26" />&#10;					<path
   fill="#fbbb1d"
   d="M 111.06,89.82 C 97.59,94.65 82.74,87.83 77.84,74.54 72.95,61.27 79.87,46.56 93.33,41.7 c 13.42,-4.82 28.31,2.01 33.23,15.3 4.87,13.29 -2.07,27.99 -15.5,32.82 z"
   id="path27" />&#10;					<path
   fill="#fbb91e"
   d="M 110.64,88.67 C 97.81,93.27 83.67,86.77 79.01,74.12 74.36,61.49 80.94,47.48 93.76,42.86 c 12.78,-4.59 26.95,1.92 31.64,14.56 4.63,12.66 -1.98,26.65 -14.76,31.25 z"
   id="path28" />&#10;					<path
   fill="#fbb71e"
   d="M 110.21,87.51 C 98.03,91.88 84.6,85.71 80.17,73.69 75.75,61.69 82.01,48.39 94.18,44 c 12.14,-4.36 25.6,1.82 30.04,13.83 4.41,12.03 -1.86,25.32 -14.01,29.68 z"
   id="path29" />&#10;					<path
   fill="#fbb51f"
   d="M 109.79,86.36 C 98.25,90.5 85.53,84.65 81.34,73.28 77.16,61.92 83.08,49.32 94.61,45.16 c 11.5,-4.13 24.24,1.73 28.45,13.1 4.17,11.38 -1.77,23.97 -13.27,28.1 z"
   id="path30" />&#10;					<path
   fill="#fab220"
   d="M 109.36,85.21 C 98.47,89.12 86.46,83.6 82.5,72.86 78.55,62.13 84.14,50.24 95.03,46.31 c 10.85,-3.9 22.89,1.63 26.86,12.37 3.94,10.74 -1.67,22.63 -12.53,26.53 z"
   id="path31" />&#10;					<path
   fill="#fab020"
   d="M 108.94,84.06 C 98.69,87.74 87.4,82.54 83.67,72.44 79.95,62.35 85.22,51.16 95.46,47.46 c 10.21,-3.67 21.53,1.53 25.27,11.64 3.7,10.11 -1.58,21.29 -11.79,24.96 z"
   id="path32" />&#10;					<path
   fill="#faae21"
   d="m 108.52,82.91 c -9.6,3.44 -20.19,-1.42 -23.68,-10.89 -3.48,-9.46 1.45,-19.94 11.04,-23.4 9.57,-3.44 20.18,1.44 23.68,10.9 3.47,9.47 -1.47,19.95 -11.04,23.39 z"
   id="path33" />&#10;					<path
   fill="#faac22"
   d="M 108.09,81.76 C 99.14,84.97 89.26,80.43 86,71.6 82.75,62.78 87.35,53 96.3,49.77 c 8.93,-3.21 18.82,1.34 22.09,10.17 3.24,8.83 -1.37,18.61 -10.3,21.82 z"
   id="path34" />&#10;					<path
   fill="#f9a922"
   d="m 107.67,80.6 c -8.31,2.98 -17.48,-1.23 -20.5,-9.43 -3.01,-8.19 1.26,-17.26 9.56,-20.26 8.28,-2.98 17.47,1.24 20.5,9.44 3,8.2 -1.28,17.28 -9.56,20.25 z"
   id="path35" />&#10;					<path
   fill="#f9a723"
   d="m 107.24,79.45 c -7.67,2.75 -16.12,-1.14 -18.91,-8.7 -2.78,-7.55 1.16,-15.92 8.82,-18.69 7.64,-2.75 16.11,1.15 18.91,8.71 2.77,7.57 -1.18,15.94 -8.82,18.68 z"
   id="path36" />&#10;					<path
   fill="#f9a524"
   d="M 106.82,78.3 C 99.8,80.82 92.06,77.26 89.5,70.34 c -2.55,-6.92 1.06,-14.58 8.08,-17.12 7,-2.52 14.76,1.05 17.32,7.97 2.53,6.93 -1.08,14.6 -8.08,17.11 z"
   id="path37" />&#10;					<path
   fill="#f9a324"
   d="M 106.39,77.15 C 100.01,79.43 92.98,76.2 90.66,69.92 88.35,63.64 91.63,56.68 98,54.38 c 6.36,-2.29 13.4,0.95 15.73,7.24 2.31,6.28 -0.98,13.24 -7.34,15.53 z"
   id="path38" />&#10;					<path
   fill="#f8a025"
   d="m 105.97,76 c -5.73,2.05 -12.05,-0.85 -14.14,-6.5 -2.08,-5.64 0.87,-11.91 6.59,-13.97 5.71,-2.05 12.05,0.86 14.14,6.51 2.08,5.65 -0.88,11.9 -6.59,13.96 z"
   id="path39" />&#10;					<path
   fill="#f89e26"
   d="m 105.54,74.85 c -5.08,1.82 -10.7,-0.76 -12.55,-5.77 -1.85,-5.01 0.77,-10.57 5.85,-12.4 5.07,-1.82 10.69,0.76 12.55,5.77 1.85,5.02 -0.78,10.57 -5.85,12.4 z"
   id="path40" />&#10;					<path
   fill="#f89c26"
   d="m 105.12,73.7 c -4.44,1.59 -9.34,-0.66 -10.96,-5.04 -1.61,-4.37 0.68,-9.23 5.11,-10.83 4.43,-1.59 9.34,0.66 10.96,5.04 1.61,4.38 -0.68,9.23 -5.11,10.83 z"
   id="path41" />&#10;					<path
   fill="#f89a27"
   d="m 104.7,72.54 c -3.8,1.36 -7.99,-0.57 -9.37,-4.31 -1.38,-3.74 0.58,-7.89 4.37,-9.26 3.79,-1.36 7.98,0.57 9.37,4.31 1.37,3.75 -0.59,7.9 -4.37,9.26 z"
   id="path42" />&#10;					<path
   fill="#f79728"
   d="m 104.27,71.39 c -3.15,1.13 -6.63,-0.47 -7.78,-3.58 -1.14,-3.1 0.48,-6.55 3.63,-7.68 3.14,-1.13 6.63,0.47 7.78,3.58 1.14,3.11 -0.49,6.55 -3.63,7.68 z"
   id="path43" />&#10;					<path
   fill="#f79528"
   d="m 103.85,70.24 c -2.51,0.89 -5.27,-0.38 -6.19,-2.84 -0.91,-2.47 0.39,-5.21 2.89,-6.11 2.5,-0.9 5.27,0.37 6.18,2.85 0.91,2.46 -0.39,5.2 -2.88,6.1 z"
   id="path44" />&#10;					<path
   fill="#f79329"
   d="m 103.42,69.09 c -1.86,0.66 -3.92,-0.28 -4.6,-2.11 -0.68,-1.83 0.29,-3.87 2.14,-4.54 1.86,-0.67 3.92,0.28 4.59,2.11 0.69,1.83 -0.28,3.87 -2.13,4.54 z"
   id="path45" />&#10;				</g>&#10;			</g>&#10;		</g>&#10;		<g
   id="g48">&#10;			<path
   fill="#ffffff"
   d="m 38.84,86.42 c -2.86,5 -9.27,6.77 -14.34,3.95 C 24.21,90.21 23.96,90 23.71,89.81 20.55,91.72 16.48,91.98 13.02,90.06 7.97,87.24 6.18,80.88 9.04,75.88 9.1,75.77 9.2,75.68 9.27,75.57 7.61,72.53 7.5,68.75 9.35,65.52 c 2.86,-5 9.29,-6.76 14.33,-3.95 2.07,1.16 3.56,2.92 4.44,4.92 3.99,-1.54 8.97,-4.47 14.56,-9.99 0,0 -1.24,7.88 -7.72,15.81 4.97,2.87 6.71,9.15 3.88,14.11 z"
   id="path47" />&#10;			<path
   fill="#ffffff"
   d="m 116.59,89.34 c -3.46,1.92 -7.52,1.66 -10.68,-0.25 -0.27,0.18 -0.51,0.39 -0.8,0.56 -5.06,2.82 -11.49,1.05 -14.34,-3.95 -2.83,-4.96 -1.09,-11.24 3.89,-14.1 -6.49,-7.94 -7.72,-15.81 -7.72,-15.81 5.58,5.52 10.56,8.44 14.55,9.98 0.88,-1.99 2.36,-3.76 4.43,-4.91 5.06,-2.82 11.48,-1.06 14.33,3.95 1.85,3.23 1.74,7 0.09,10.04 0.07,0.11 0.17,0.2 0.23,0.32 2.87,4.99 1.07,11.35 -3.98,14.17 z"
   id="path49" />&#10;		</g>&#10;		<path
   fill="#2f2f2f"
   d="m 84.07,64.53 c -0.48,0.4 -1.06,0.6 -1.63,0.6 -0.72,0 -1.43,-0.31 -1.94,-0.89 -0.18,-0.21 -4.97,-5.32 -15.54,-5.1 -10.7,0.28 -14.59,4.75 -14.75,4.94 -0.9,1.05 -2.48,1.2 -3.54,0.33 -1.06,-0.87 -1.24,-2.44 -0.38,-3.51 0.21,-0.26 5.31,-6.46 18.54,-6.8 13.28,-0.44 19.29,6.59 19.53,6.88 0.9,1.06 0.77,2.65 -0.29,3.55 z"
   id="path50" />&#10;	</g>&#10;	<g
   id="g50">&#10;		<path
   fill="#2f2f2f"
   d="m 73.56,41.14 c 0,-0.88 0.12,-1.71 0.3,-2.51 1.72,-0.47 3.52,-1.13 5.35,-2.22 1.85,-1.11 3.39,-2.23 4.77,-3.37 2.19,1.58 3.67,4.59 3.67,8.1 0,5.11 -3.14,9.25 -7.04,9.25 -3.9,0 -7.05,-4.14 -7.05,-9.25 z"
   id="path51" />&#10;	</g>&#10;	<g
   id="g51">&#10;		<path
   fill="#2f2f2f"
   d="m 55.9,41.14 c 0,-0.88 -0.12,-1.71 -0.3,-2.51 -1.72,-0.47 -3.52,-1.13 -5.34,-2.22 -1.86,-1.11 -3.39,-2.23 -4.77,-3.37 -2.19,1.58 -3.67,4.59 -3.67,8.1 0,5.11 3.14,9.25 7.04,9.25 3.89,0 7.04,-4.14 7.04,-9.25 z"
   id="path52" />&#10;	</g>&#10;</g></svg>
