<?xml version="1.0" encoding="UTF-8" standalone="no"?>
<svg
   width="128"
   height="128"
   version="1.1"
   id="svg43283"
   sodipodi:docname="emoji_u1f98e.svg"
   xml:space="preserve"
   inkscape:version="1.2.2 (732a01da63, 2022-12-09)"
   xmlns:inkscape="http://www.inkscape.org/namespaces/inkscape"
   xmlns:sodipodi="http://sodipodi.sourceforge.net/DTD/sodipodi-0.dtd"
   xmlns="http://www.w3.org/2000/svg"
   xmlns:svg="http://www.w3.org/2000/svg"><defs
     id="defs43287" /><sodipodi:namedview
     id="namedview43285"
     pagecolor="#ffffff"
     bordercolor="#000000"
     borderopacity="0.25"
     inkscape:showpageshadow="2"
     inkscape:pageopacity="0.0"
     inkscape:pagecheckerboard="0"
     inkscape:deskcolor="#d1d1d1"
     showgrid="false"
     inkscape:zoom="4.2421874"
     inkscape:cx="67.300186"
     inkscape:cy="61.053408"
     inkscape:window-width="1366"
     inkscape:window-height="697"
     inkscape:window-x="-8"
     inkscape:window-y="-8"
     inkscape:window-maximized="1"
     inkscape:current-layer="svg43283" /><path
     d="m 49.5,100.62 c -1.446677,0.76428 -6.257992,5.39127 -7.17,6.83 -0.957994,1.51127 -1.073438,3.37008 -1.03,5.11 0.136563,5.47009 -0.739857,13.01916 -6.13,12.1 -4.109857,-0.70084 -1.796593,-8.62924 -1.2,-11.32 0.873407,-3.93925 -1.998404,-2.48695 -2.76,-2.09 -2.538412,1.32305 -9.15282,7.34104 -11.54,0.84 -2.20282,-5.99897 6.130226,-6.60903 8.41,-7.14 2.400227,-0.55903 2.321609,-2.61233 0.89,-3.6 -2.728394,-1.88233 -8.971159,-4.520617 -6.35,-9.44 2.248841,-4.220618 8.640127,0.01992 10.27,2.69 0.830127,1.359923 1.439361,3.390873 2.75,4.35 1.299361,0.950874 2.879439,0.218894 4.16,-0.43 0.94944,-0.481106 1.915544,-0.953863 2.76,-1.6 1.802962,-1.379539 2.83,-3.55 2.83,-6.92 0,-3.04 -3.530715,-6.829566 -5,-9.25 -2.500715,-4.119566 -1.871231,-7.52918 -2.89,-9.06 -0.891232,-1.339181 -2.781476,-1.35843 -4.77,-1.86 -2.493611,-0.628969 -3.901474,-0.401819 -6,1.3 -1.551475,1.258183 -3.073952,2.997761 -4.07,4.76 -1.083956,1.917769 -1.396213,4.182265 -2.54,6.09 -1.536217,2.562272 -4.480367,4.560786 -7.42,3.19 -2.7003668,-1.259214 -3.048623,-4.279001 -1.38,-6.58 1.471378,-2.029002 3.709409,-2.940306 4.91,-5.26 1.009409,-1.950306 -0.579176,-2.766837 -2.8,-2.19 -2.39918,0.623164 -10.17,3.04 -10.17,-3.04 0,-5.99 7.07,-4.52 10.11,-4 2.28,0.39 2.360779,-1.500603 1.61,-2.47 -1.859221,-2.400603 -7.5607157,-8.501063 -4.13,-10.81 6.539285,-4.401063 9.658688,6.000227 10.13,8.72 0.618688,3.570228 5.985686,4.120874 9.15,2.28 3.197713,-1.860305 4.421491,-5.423924 3.17,-9.07 C 32.011479,48.99604 27.96106,44.925247 24.43,44.14 14.111056,41.845246 12.887003,31.619902 13.2,22.08 13.367003,16.989901 15.851928,6.2028632 18.17,4.64 22.481931,1.7328613 30.938801,4.0132584 36.56,6.08 c 7.678803,2.823259 14.25,7.42 15.35,18.07 0.44,4.26 -2.463918,9.13104 -1.35,13.32 1.016083,3.821044 4.284325,9.730719 8.79,5.21 1.49833,-1.503332 2.756789,-6.045724 2.699369,-8.380838 -0.05264,-2.140687 -1.474351,-5.355604 -2.819118,-6.839162 -2.522656,-2.783029 -5.454924,-9.309616 -1.409386,-11.081272 6.790956,-2.973954 7.553491,8.234501 8.261154,9.646915 0.512745,1.023382 2.678661,1.817975 4.293186,-0.02959 2.702883,-3.093018 3.847201,-10.43234 8.730575,-8.253416 6.4927,2.896992 -1.251583,9.668971 -2.712341,11.294341 -2.072142,2.305653 -0.896491,4.230109 1.111572,3.741126 2.606994,-0.634828 12.480093,-3.687698 12.152176,3.211514 -0.287083,6.040075 -8.573581,3.681159 -12.449255,3.178731 C 72.733496,38.588299 70.621662,41.241915 67.12,44.28 c -0.728341,0.631917 -2.494827,3.727281 -3.14,4.86 -1.117812,1.962523 -1.009411,4.108659 1.13,5.05 1.86059,0.81866 3.958664,2.291401 5.5,3.76 2.908665,2.771402 4.271402,6.059428 5.12,8.14 1.121402,2.749428 2.821997,3.77506 5.36,3.64 1.972911,-0.104989 4.862125,-1.547356 6.48,-2.85 1.872129,-1.507359 2.78864,-3.720286 3.27,-6.01 0.62864,-2.990286 0.75935,-4.150086 1.16,-7.18 0.23935,-1.810086 0.169314,-6.844409 4.22,-6.35 5.28932,0.645592 2.153579,9.33098 1.67,11.09 -0.316423,1.150989 0.559598,2.047773 2.38,1.72 1.7896,-0.322227 8.10493,-5.991704 10.16,-0.04 1.79493,5.198301 -5.83043,5.808845 -8.64,6.86 -1.52043,0.568845 -2.150392,2.290989 0.55,3.36 2.62961,1.040989 10.06148,5.031514 5.72,9.28 -4.52852,4.431515 -10.070491,-4.019507 -12.55,-6.49 -3.020491,-3.009507 -12.20541,4.106307 -13.14,7.39 -1.290402,4.533846 1.148768,8.65065 3.38,12.88 3.128768,5.93065 5.291685,10.35707 10.72,13.48 5.26169,3.02707 8.98059,4.292 14.57,2.63 4.9706,-1.478 7.00982,-6.11997 6.35,-10.66 -0.43018,-2.959973 -3.36988,-6.579632 -8.53,-4.93 -2.89726,0.926223 -5.32363,3.702382 -7.06175,1.733369 -1.73812,-1.969013 2.3779,-6.006061 8.54167,-7.261698 6.38006,-1.299698 13.85971,3.081765 14.57011,9.971725 0.9496,9.210044 -4.19734,16.391534 -12.01712,18.862244 -11.17022,3.52929 -22.143429,2.45571 -31.00291,-0.94564 -5.57052,-2.13865 -14.481824,-6.46283 -19.18,-9.71 -2.651911,-1.83289 -9.354572,-7.97683 -13.21,-5.94 z"
     fill="#885c52"
     id="path43277"
     style="fill:#b5bf3d;fill-opacity:1"
     sodipodi:nodetypes="sssssssssssssssssssssssssssssssssssssssssssssssssssssssssssssssssssssssssssssss" /><circle
     cx="22.363131"
     cy="26.94631"
     r="4.25"
     fill="#2f2f2f"
     id="circle43279" /><circle
     cx="39.363125"
     cy="19.296309"
     r="4.25"
     fill="#2f2f2f"
     id="circle43281" /><circle
     style="fill:#e75625;fill-opacity:1;stroke-width:8.99999;stroke-linecap:round"
     id="path5170"
     cx="52.790447"
     cy="64.335945"
     r="4.0739374" /><circle
     style="fill:#e75625;fill-opacity:1;stroke-width:8.99997;stroke-linecap:round"
     id="circle5172"
     cx="70.506111"
     cy="93.163406"
     r="3.366755" /><circle
     style="fill:#e75625;fill-opacity:1;stroke-width:8.99999;stroke-linecap:round"
     id="circle5174"
     cx="61.382507"
     cy="79.719681"
     r="4.0739374" /><circle
     style="fill:#e75625;fill-opacity:1;stroke-width:8.99999;stroke-linecap:round"
     id="circle7867"
     cx="43.640564"
     cy="49.112869"
     r="4.0739374" /><circle
     style="fill:#e75625;fill-opacity:1;stroke-width:9.00002;stroke-linecap:round"
     id="circle7869"
     cx="79.579163"
     cy="104.04486"
     r="2.907146" /></svg>
