<?xml version="1.0" encoding="UTF-8" standalone="no"?>
<svg
   width="128"
   height="128"
   style="enable-background:new 0 0 128 128;"
   version="1.1"
   id="svg15"
   sodipodi:docname="emoji_u1f98f.svg"
   inkscape:version="1.3 (0e150ed6c4, 2023-07-21)"
   xmlns:inkscape="http://www.inkscape.org/namespaces/inkscape"
   xmlns:sodipodi="http://sodipodi.sourceforge.net/DTD/sodipodi-0.dtd"
   xmlns="http://www.w3.org/2000/svg"
   xmlns:svg="http://www.w3.org/2000/svg">
  <defs
     id="defs15">
    <clipPath
       id="clipPath1">
      <rect
         id="rect1"
         height="128"
         width="128"
         x="0"
         y="0" />
    </clipPath>
  </defs>
  <sodipodi:namedview
     id="namedview15"
     pagecolor="#ffffff"
     bordercolor="#000000"
     borderopacity="0.25"
     inkscape:showpageshadow="2"
     inkscape:pageopacity="0.0"
     inkscape:pagecheckerboard="0"
     inkscape:deskcolor="#d1d1d1"
     inkscape:zoom="2.867097"
     inkscape:cx="54.410436"
     inkscape:cy="77.255844"
     inkscape:window-width="1366"
     inkscape:window-height="697"
     inkscape:window-x="-8"
     inkscape:window-y="-8"
     inkscape:window-maximized="1"
     inkscape:current-layer="svg15" />
  <style
     type="text/css"
     id="style1">&#10;.st0{clip-path:url(#SVGID_2_);fill:#79A3AC;}&#10;.st1{clip-path:url(#SVGID_2_);fill:#55787C;}&#10;.st2{clip-path:url(#SVGID_2_);fill:#65878D;}&#10;.st3{clip-path:url(#SVGID_2_);fill:#2F2F2F;}&#10;.st4{clip-path:url(#SVGID_2_);fill:#C2CBCE;}&#10;  </style>
  <g
     id="g16"
     transform="matrix(0.95424722,0,0,0.95424722,4.1132616,3.5116692)"
     style="stroke-width:1.04795">
    <path
       d="m 97.686085,45.096968 c -0.7678,-0.403096 -5.2762,-4.534292 -29.05761,-4.534292 -23.7814,0 -37.42443,12.284301 -37.42443,46.667409 0,19.940005 -0.12477,18.260685 -0.26872,22.224455 -0.11518,3.42631 -1.68917,10.73004 2.09225,12.90867 4.674,2.69691 14.24273,3.20557 17.56347,-1.77554 1.41084,-2.13065 1.69875,-4.73157 1.69875,-7.19814 0,-2.83128 0.16317,-7.61703 0.16317,-10.45791 0,-1.19968 -0.45108,-3.426306 0.45109,-4.366863 0.53746,-0.566254 1.24767,-0.431889 1.92909,-0.431889 1.08452,0 2.18823,-0.11517 3.27275,-0.220743 6.10403,-0.623838 5.60496,2.293805 6.12323,6.612695 0.37431,3.1384 -0.21115,9.93004 -0.46068,13.08761 -0.32632,4.14613 3.50308,5.66255 7.20774,5.84491 3.93498,0.19194 8.82011,-0.23995 12.30401,-2.21705 3.64706,-2.08265 2.22663,-5.3554 2.09227,-8.74333 -0.096,-2.361 -0.28793,-8.39443 -0.47029,-10.74583 -0.14396,-1.9195 -0.48947,-3.829406 -0.39349,-5.758508 0.096,-1.679567 -0.27833,-4.597213 1.85232,-5.297832 1.50681,-0.499071 3.19597,0 4.76036,-0.297523 2.30342,-0.422291 2.14026,9.837773 2.20744,11.066253 0.16316,2.96564 -0.26873,5.10589 2.47616,6.91022 3.26316,2.14985 8.695355,1.58359 12.227235,0.54706 6.41116,-1.89071 4.28052,-7.3901 4.58762,-12.428795 0.30712,-4.865943 0.28792,-15.356347 -0.0384,-20.22229 -0.33591,-5.057892 -0.15259,-13.60287 -3.97731,-20.205816 -3.86004,-6.663905 -8.3075,-9.584887 -10.918025,-10.966931 z"
       id="path2-1"
       sodipodi:nodetypes="czscccsscscccccccccccccccsc"
       style="fill:#6593a2;fill-opacity:1;stroke-width:1.04795" />
    <path
       id="path10"
       style="fill:#2f2f2f;fill-opacity:1;stroke-width:37.627;stroke-linecap:round"
       d="m 54.407295,42.464624 c -12.99503,4.00566 -20.95277,14.682636 -22.78711,35.087891 7.83137,-2.821227 8.58077,-10.14089 14.16992,-14.658204 7.81631,-6.317385 8.54974,-17.954741 8.61719,-20.429687 z" />
    <path
       style="fill:#6593a2;fill-opacity:1;stroke-width:37.627;stroke-linecap:round"
       d="m 95.050725,62.234898 c 0,0 2.14326,-6.467983 8.528725,-8.178966 9.57823,-2.566477 14.50353,1.846762 17.60888,13.436114 1.24338,4.640367 1.70442,9.274864 1.70442,9.274864 l -3.09298,0.828761 c 0,0 -0.56495,-5.022327 -1.80678,-9.656935 -1.7745,-6.622486 -5.53976,-11.894607 -12.82319,-9.943016 -7.283445,1.951589 -10.119075,4.239178 -10.119075,4.239178 z"
       id="path11"
       sodipodi:nodetypes="cssccssc" />
    <path
       d="m 118.08635,85.925932 c 0.0337,1.693186 -0.35715,2.289182 1.82341,2.041968 3.17908,-0.372658 4.92492,-1.786747 5.87024,-4.85323 0.81284,-2.650579 0.3131,-5.516237 -1.87968,-7.372083 -2.23986,-1.899813 -4.53838,-1.137143 -6.12083,1.117392 -2.23837,3.194268 0.24532,5.719417 0.30686,9.065953 z"
       style="fill:#2f2f2f;stroke-width:1.04795"
       id="path1-5" />
    <g
       id="g15"
       transform="matrix(1.0892366,0,0,1.0892366,-2.6491704,-5.5466227)"
       style="stroke-width:0.962092">
      <path
         d="m 31.672285,17.05156 c -3.592984,0.257035 -6.45816,1.554737 -9.32699,3.231029 -2.52589,1.477062 -4.63654,3.530823 -6.12434,6.043866 -2.95376,4.997373 -3.3405,11.095131 -3.55039,16.762975 -0.0819,2.299321 0.28512,5.277623 -0.42943,7.437672 -0.98346,2.944961 -3.47366,5.466208 -4.18198,8.498303 -0.70338,2.952247 0.46348,6.931767 2.56527,9.075448 2.54502,2.591864 6.55259,4.8633 10.16212,5.306713 6.11549,0.748517 13.14617,0.792125 15.9927,-5.875041 0.751,-1.777073 1.05059,-2.409803 2.51368,-3.712065 1.66382,-1.470202 3.37519,-2.737086 5.09088,-4.073838 6.20005,-4.836898 12.200657,-11.59434 11.874157,-19.770031 C 56.111272,36.350646 54.360737,28.394525 48.392854,22.898985 42.424972,17.403444 36.562722,16.701707 31.672285,17.05156 Z"
         style="fill:#6593a2;stroke-width:0.962092"
         id="path1-0-0"
         sodipodi:nodetypes="sccccccccccczs" />
      <path
         d="m 14.923605,62.407925 c 0.42054,0.166249 0.82556,0.421709 1.15825,0.712776 0.6554,0.581518 1.25915,1.35021 0.93293,2.25181 -0.88586,2.500136 -3.41388,0.119722 -3.95069,-1.245976 -0.78803,-2.002402 0.55979,-2.249763 1.85951,-1.71861 z m 14.32161,2.848518 c 1.33055,0.0321 2.70087,0.717905 1.95148,2.144412 -0.72696,1.387814 -3.10444,1.922232 -4.51619,1.744844 -1.25267,-0.157541 -2.45576,-0.792938 -1.83799,-2.197516 0.66696,-1.551827 2.9817,-1.719415 4.4027,-1.69174 z"
         fill="#2f2f2f"
         id="path7-7"
         style="stroke-width:0.962092" />
      <path
         style="fill:#6593a2;stroke-width:34.5444;stroke-linecap:round"
         d="m 17.792895,7.336291 c -3.21522,0.7319269 -4.63936,6.770242 -3.50362,11.75935 1.13576,4.989108 5.8698,9.39231 8.19805,8.862294 2.32824,-0.530015 5.01252,-6.155507 3.82629,-11.366352 -1.18622,-5.210847 -6.30335,-9.7600702 -8.52072,-9.255292 z"
         id="path8-8" />
      <path
         style="fill:#6593a2;stroke-width:34.5444;stroke-linecap:round"
         d="m 54.275436,8.855334 c 3.36268,1.21694 4.08937,7.905829 2.20103,13.123776 -1.88836,5.217951 -7.57119,9.324977 -10.00623,8.443746 -2.43504,-0.881234 -4.57306,-7.294031 -2.60079,-12.743887 1.97229,-5.449859 8.0869,-9.662903 10.40599,-8.823635 z"
         id="path9-4" />
      <path
         d="m 33.047055,37.543783 c -1.41592,1.836186 -1.27608,4.600069 0.30946,6.180845 1.60673,1.562047 4.05369,1.36255 5.46838,-0.453671 1.40656,-1.846784 1.26733,-4.620646 -0.32881,-6.192057 -1.59614,-1.571412 -4.05307,-1.372534 -5.44903,0.464889 z"
         style="fill:#2f2f2f;stroke-width:0.962092"
         id="path1-6" />
      <path
         class="st4"
         d="m 21.485779,41.15884 c -1.391493,1.578113 -2.645882,1.886198 -3.12838,1.913435 -0.160833,0.0091 -0.295953,-0.03075 -0.405363,-0.119478 -0.474945,-0.343334 -1.899779,-1.373334 -3.01607,-2.990207 -1.355786,-1.99248 -2.994936,-4.633326 -2.229608,-5.198529 0.765329,-0.565204 2.576376,0.91754 6.045647,1.680275 1.684471,0.417418 2.802184,1.390324 3.12188,1.75591 0.319696,0.365586 0.725592,1.671399 -0.388106,2.958594 z"
         clip-path="url(#SVGID_2_)"
         id="path11-1"
         style="fill:#ffffff;fill-opacity:1;stroke-width:0.962091"
         sodipodi:nodetypes="csccscsc" />
      <path
         class="st4"
         d="m 17.405051,48.306398 c 1.04631,0.698684 1.539776,4.0408 -0.402428,6.195596 -1.942204,2.154796 -4.257844,2.878529 -5.466906,2.030317 C 8.8327812,54.574213 7.4828391,52.245985 5.8348595,49.343805 3.8514606,45.908362 2.1443574,39.762989 1.8857365,37.349443 c -0.1947921,-1.829676 0.4913048,-2.249777 1.7989062,0.002 1.7667368,2.936256 4.0058326,6.869234 7.5999573,8.633175 3.594125,1.763941 5.194551,1.69617 6.120451,2.321745 z"
         clip-path="url(#SVGID_2_)"
         id="path15"
         style="fill:#ffffff;fill-opacity:1;stroke-width:0.962091" />
    </g>
  </g>
</svg>
