<?xml version="1.0" encoding="UTF-8" standalone="no"?>
<svg
   width="128"
   height="128"
   version="1.1"
   id="svg3683"
   sodipodi:docname="emoji_u1f431_1f3fd.svg"
   inkscape:version="1.2.2 (732a01da63, 2022-12-09)"
   xmlns:inkscape="http://www.inkscape.org/namespaces/inkscape"
   xmlns:sodipodi="http://sodipodi.sourceforge.net/DTD/sodipodi-0.dtd"
   xmlns="http://www.w3.org/2000/svg"
   xmlns:svg="http://www.w3.org/2000/svg">
  <defs
     id="defs3687" />
  <sodipodi:namedview
     id="namedview3685"
     pagecolor="#ffffff"
     bordercolor="#000000"
     borderopacity="0.25"
     inkscape:showpageshadow="2"
     inkscape:pageopacity="0.0"
     inkscape:pagecheckerboard="0"
     inkscape:deskcolor="#d1d1d1"
     showgrid="false"
     inkscape:zoom="4.2421875"
     inkscape:cx="59.167587"
     inkscape:cy="72.368324"
     inkscape:window-width="1366"
     inkscape:window-height="697"
     inkscape:window-x="-8"
     inkscape:window-y="-8"
     inkscape:window-maximized="1"
     inkscape:current-layer="svg3683" />
  <path
     d="M125.47 86.16l-8.27-1.49c.1-1.84.09-3.7 0-5.56l8.4-1.25a2.132 2.132 0 0 0 1.8-2.42c-.17-1.16-1.26-1.96-2.42-1.8l-8.18 1.22c-.9-5.98-3.2-11.94-6.68-17.31 1.05-10.02 3.06-37.18-5.09-42.65-6.5-4.36-21.96 11.82-26.94 17.63-1.15 1.34-2.2 2.55-3.16 3.65-3.48-.53-7.02-.82-10.55-.82-3.53-.01-7.06.29-10.54.82-.96-1.1-2.01-2.31-3.16-3.65-4.98-5.81-20.44-21.99-26.93-17.63-8.15 5.47-6.13 32.63-5.09 42.65-3.47 5.36-5.79 11.33-6.68 17.31L3.8 73.64c-1.16-.16-2.25.63-2.43 1.8-.18 1.16.63 2.25 1.79 2.42l8.4 1.25c-.09 1.86-.1 3.72 0 5.56L3.3 86.16a2.131 2.131 0 1 0 .38 4.23c.12 0 .25-.01.38-.03L12 88.93c.33 2.1.81 4.17 1.5 6.18l-6.48 2.05a2.146 2.146 0 0 0-1.39 2.68 2.136 2.136 0 0 0 2.68 1.39l6.85-2.17c1.98 3.89 4.88 7.47 8.98 10.53 6.05 4.51 13.57 7.57 21.33 9.23 2.94.63 10.56 2.1 18.55 2.1s16.35-1.47 19.3-2.1c7.75-1.66 15.28-4.72 21.33-9.23 4.1-3.06 7-6.64 8.98-10.53l6.84 2.17a2.136 2.136 0 0 0 2.68-1.39c.36-1.12-.26-2.32-1.38-2.68l-6.48-2.06c.69-2 1.18-4.07 1.5-6.18l7.95 1.43a2.149 2.149 0 0 0 2.48-1.72 2.18 2.18 0 0 0-1.75-2.47z"
     fill="#998a6d"
     id="path3647" />
  <path
     d="M64 92.264c-9.729 0-20.623 11.085-20.623 20.363 0 2.409.738 4.455 1.996 6.17l.098.023c2.94.63 10.559 2.1 18.549 2.1 7.687 0 15.601-1.346 18.826-2.01.893-1.458 1.402-3.186 1.402-5.222 0-9.278-10.52-21.424-20.248-21.424z"
     fill="#f1dcb1"
     paint-order="stroke fill markers"
     id="path3649" />
  <path
     d="M70.95 103.19c.21.46-.17 1.2-.28 1.62-.14.53-.27 1.05-.43 1.56-.76 2.52-2.06 4.88-4.85 5.43-2.58.51-5.06-1.25-6.03-3.58-.36-.85-.64-1.73-.94-2.6-.16-.48-.32-.96-.47-1.43-.11-.34-.4-.88-.36-1.23 1.42-.09 3.07-.73 4.29-1.45.4-.24.85-.37 1.22-.66.33-.26.54-.63.96-.76.42.45 1.13.7 1.65 1.05.63.42 1.27.79 1.95 1.11.63.3 1.38.3 2.03.47.34.09.91.04 1.16.33.05.04.08.08.1.14z"
     fill="#ed6c30"
     id="path3651" />
  <ellipse
     cx="1.2583226"
     cy="90.090813"
     rx="11.900902"
     ry="11.842165"
     transform="matrix(0.86810169,-0.4963864,0.42367946,0.90581218,0,0)"
     fill="#f1dcb1"
     paint-order="stroke fill markers"
     id="ellipse3653"
     style="stroke-width:1.00138" />
  <ellipse
     transform="matrix(-0.86748725,-0.49745941,-0.42289808,0.90617725,0,0)"
     ry="11.840418"
     rx="11.845354"
     cy="26.169611"
     cx="-115.11848"
     fill="#f1dcb1"
     paint-order="stroke fill markers"
     id="ellipse3655"
     style="stroke-width:1.00144" />
  <g
     fill="#2f2f2f"
     id="g3659">
    <path
       d="M46.92 81.07c0 4.59-3.31 8.3-7.38 8.3s-7.38-3.72-7.38-8.3c0-4.6 3.31-8.31 7.38-8.31 4.07-.01 7.38 3.71 7.38 8.31zM81.26 81.07c0 4.59 3.3 8.3 7.38 8.3 4.07 0 7.38-3.72 7.38-8.3 0-4.6-3.31-8.31-7.38-8.31-4.07-.01-7.38 3.71-7.38 8.31z"
       id="path3657" />
  </g>
  <path
     d="M64.48 101.33c-.77 0-1.39-.62-1.39-1.39v-8.15c0-.77.62-1.39 1.39-1.39.77 0 1.39.62 1.39 1.39v8.15c0 .77-.62 1.39-1.39 1.39z"
     fill="#2f2f2f"
     id="path3661" />
  <g
     fill="#2f2f2f"
     id="g3667">
    <path
       d="M57.49 104.6c-.43 0-.89-.02-1.36-.06-5.66-.5-8.15-4.89-8.68-7.15a1.71 1.71 0 0 1 1.28-2.05 1.7 1.7 0 0 1 2.05 1.27c.05.21 1.11 4.12 5.65 4.53 4.75.43 6.59-2.06 6.67-2.17.55-.76 1.6-.95 2.37-.42s.97 1.57.45 2.35c-.11.16-2.57 3.7-8.43 3.7z"
       id="path3663" />
    <path
       d="M71.52 104.6c-5.86 0-8.32-3.54-8.43-3.7-.53-.78-.32-1.85.46-2.38.79-.53 1.85-.32 2.38.46.06.08 1.93 2.57 6.65 2.15 4.63-.41 5.64-4.48 5.65-4.52.22-.92 1.14-1.49 2.05-1.28.92.22 1.49 1.13 1.28 2.05-.53 2.25-3.03 6.65-8.68 7.15-.48.05-.93.07-1.36.07z"
       id="path3665" />
  </g>
  <path
     d="M64.49 86.57c-.87 0-1.78.12-2.18.2-1 .18-1.92.53-2.66 1-.96.63-2.09 1.84-1.92 4.08.12 1.54 1.12 3.06 2.59 3.97 1.07.66 2.57 1.04 4.11 1.04v.01h.05c1.54 0 3.04-.38 4.11-1.04 1.48-.92 2.47-2.44 2.59-3.97.18-2.24-.95-3.46-1.92-4.09-.73-.47-1.65-.82-2.65-1-.32-.06-1.18-.2-2.12-.2z"
     fill="#41311d"
     id="path3669" />
  <path
     d="M64.48 113.66c-2.83 0-5.55-1.85-6.76-4.76-.56-1.35-1.69-4.89-1.74-5.04-.3-.93.22-1.93 1.15-2.23.93-.3 1.93.22 2.23 1.15.39 1.22 1.23 3.79 1.63 4.75.62 1.49 2.26 2.88 4.05 2.53 1.64-.32 2.72-1.62 3.5-4.2.1-.35.31-1.14.51-1.88.15-.58.3-1.14.38-1.43.27-.94 1.23-1.49 2.19-1.22.94.27 1.49 1.25 1.22 2.19-.08.28-.22.81-.37 1.37-.2.77-.42 1.6-.54 1.99-.44 1.44-1.76 5.78-6.21 6.66-.4.08-.82.12-1.24.12z"
     fill="#2f2f2f"
     id="path3671" />
  <path
     id="path3677"
     style="stroke-width:0.999999;fill:#3e3e3e;fill-opacity:1"
     d="M 63.521484 35.375 C 62.160465 35.390334 60.800306 35.445874 59.443359 35.546875 C 59.311152 38.356918 59.240783 50.007976 59.240234 51.898438 C 59.240368 59.235524 60.245882 61.188177 61.486328 61.191406 C 62.727933 61.197806 63.734241 59.242379 63.734375 51.898438 C 63.733304 49.959052 63.660755 38.261504 63.521484 35.375 z M 65.310547 35.378906 C 65.171454 38.290862 65.098442 49.958792 65.097656 51.898438 C 65.09779 59.242379 66.106051 61.197871 67.347656 61.191406 C 68.588102 61.188106 69.593615 59.235524 69.59375 51.898438 C 69.592851 50.004161 69.521683 38.449473 69.388672 35.552734 C 68.031183 35.451346 66.670894 35.398381 65.310547 35.378906 z M 58.001953 35.675781 C 56.645477 35.805191 55.291856 35.963119 53.947266 36.166016 C 53.881565 39.179322 53.847975 49.00933 53.847656 50.191406 C 53.847583 56.58938 54.803708 57.78125 55.982422 57.78125 C 57.161137 57.78125 58.115307 56.58938 58.115234 50.191406 C 58.114707 48.93573 58.076163 37.857221 58.001953 35.675781 z M 70.832031 35.683594 C 70.756947 38.031386 70.717492 48.929369 70.716797 50.191406 C 70.716724 56.58938 71.672848 57.78125 72.851562 57.78125 C 74.030662 57.78425 74.986401 56.591477 74.986328 50.191406 C 74.986017 49.039955 74.955051 38.268215 74.892578 36.173828 C 73.546937 35.969573 72.191491 35.813154 70.832031 35.683594 z " />
  <path
     style="line-height:normal;font-variant-ligatures:normal;font-variant-position:normal;font-variant-caps:normal;font-variant-numeric:normal;font-variant-alternates:normal;font-variant-east-asian:normal;font-feature-settings:normal;text-indent:0;text-align:start;text-decoration-line:none;text-decoration-style:solid;text-decoration-color:#000;text-transform:none;text-orientation:mixed;shape-padding:0;isolation:auto;mix-blend-mode:normal;filter-blend-mode:normal;filter-gaussianBlur-deviation:0"
     d="M26.838 83.047c-3.315-.049-6.958 1.03-9.887 2.074-2.929 1.044-5.133 2.106-5.133 2.106a1.89 1.89 0 0 0-1.054 1.925L12 88.93c.098.624.216 1.245.342 1.863a1.89 1.89 0 0 0 1.115-.16s2.032-.978 4.764-1.951c2.732-.974 6.176-1.891 8.562-1.856a1.89 1.89 0 0 0 1.916-1.861 1.89 1.89 0 0 0-1.861-1.918zm3.508 6.467a1.89 1.89 0 0 0-.135.004c-5.723.344-11.972 2.613-16.959 4.806.082.262.159.525.248.785l-5.6 1.772c-.913.469-1.325.683-1.914 1.006a2.141 2.141 0 0 0-.355 1.953 2.132 2.132 0 0 0 1.95 1.484c1.345-.746 3.533-1.919 6.884-3.406 4.834-2.145 11.01-4.328 15.974-4.627a1.89 1.89 0 0 0 1.772-2 1.89 1.89 0 0 0-1.865-1.777zm-.826 6.455c-3.315-.05-6.958 1.03-9.887 2.074a53.78 53.78 0 0 0-4.127 1.652 29.155 29.155 0 0 0 2.027 3.233 57.066 57.066 0 0 1 3.367-1.324c2.733-.974 6.176-1.891 8.563-1.856a1.89 1.89 0 0 0 1.918-1.861 1.89 1.89 0 0 0-1.861-1.918z"
     color="#000"
     font-weight="400"
     font-family="sans-serif"
     white-space="normal"
     overflow="visible"
     fill="#313131"
     fill-opacity=".844"
     fill-rule="evenodd"
     stroke-width="3.78"
     stroke-linecap="round"
     stroke-linejoin="round"
     id="path3679" />
  <path
     style="line-height:normal;font-variant-ligatures:normal;font-variant-position:normal;font-variant-caps:normal;font-variant-numeric:normal;font-variant-alternates:normal;font-variant-east-asian:normal;font-feature-settings:normal;text-indent:0;text-align:start;text-decoration-line:none;text-decoration-style:solid;text-decoration-color:#000;text-transform:none;text-orientation:mixed;shape-padding:0;isolation:auto;mix-blend-mode:normal"
     d="M101.16 83.047a1.89 1.89 0 0 0-1.861 1.918 1.89 1.89 0 0 0 1.918 1.861c2.386-.035 5.83.882 8.562 1.856a53.757 53.757 0 0 1 4.762 1.95 1.89 1.89 0 0 0 1.99-.22c.096-.495.182-.992.258-1.492l.461.082a1.89 1.89 0 0 0-1.068-1.775s-2.206-1.062-5.135-2.106c-2.929-1.044-6.572-2.123-9.887-2.074zm-3.508 6.467a1.89 1.89 0 0 0-1.865 1.777 1.89 1.89 0 0 0 1.774 2c4.965.299 11.138 2.482 15.972 4.627a88.456 88.456 0 0 1 6.422 3.148l.516.164a2.138 2.138 0 0 0 2.68-1.39 2.104 2.104 0 0 0-.022-1.338c-.555-.32-1.88-1.072-4.35-2.293l-3.49-1.11c.053-.152.096-.308.147-.462-.132-.06-.236-.115-.37-.174-5.036-2.235-11.436-4.594-17.279-4.945a1.89 1.89 0 0 0-.133-.004 1.89 1.89 0 0 1-.002 0zm.828 6.455a1.89 1.89 0 0 0-1.86 1.918 1.89 1.89 0 0 0 1.915 1.861c2.387-.035 5.83.882 8.563 1.856 1.934.689 3.21 1.248 3.97 1.593a29.095 29.095 0 0 0 2.06-3.217c-.465-.219-2.202-1.025-4.76-1.937-2.93-1.044-6.573-2.123-9.888-2.074z"
     color="#000"
     font-weight="400"
     font-family="sans-serif"
     white-space="normal"
     overflow="visible"
     fill="#313131"
     fill-opacity=".844"
     fill-rule="evenodd"
     stroke-width="3.78"
     stroke-linecap="round"
     stroke-linejoin="round"
     id="path3681" />
  <g
     id="g61961"
     transform="matrix(1.4182555,-0.14566264,0.14566264,1.4182555,-26.03353,18.149818)"
     style="stroke-width:0.701402">
    <path
       d="m 36,12.52 c -0.73,1.9 -2.2,7.37 -1.28,11.26 0.27,1.16 1.75,1.68 2.8,1.18 2.19,-1.05 5.61,-2.9 6.89,-3.54 2.18,-1.07 2.93,-2.4 1.75,-4.03 C 44.66,15.31 40.92,11 38.71,10.58 37.45,10.34 36.48,11.29 36,12.52 Z"
       style="fill:#fcd4b5;stroke-width:0.701402"
       id="path61957" />
    <path
       d="m 87.6,17.78 c 0.41,2 0.93,7.63 -0.63,11.33 -0.46,1.09 -2.01,1.36 -2.96,0.69 -1.98,-1.4 -5.03,-3.8 -6.2,-4.64 -1.96,-1.42 -2.49,-2.86 -1.05,-4.27 1.82,-1.8 6.23,-5.43 8.48,-5.47 1.29,-0.03 2.1,1.07 2.36,2.36 z"
       style="fill:#fcd4b5;stroke-width:0.701402"
       id="path61959" />
  </g>
</svg>
