<?xml version="1.0" encoding="UTF-8" standalone="no"?>
<svg
   width="128"
   height="128"
   style="enable-background:new 0 0 128 128;"
   version="1.1"
   id="svg49"
   sodipodi:docname="emoji_u1f404.svg"
   inkscape:version="1.2.2 (732a01da63, 2022-12-09)"
   xmlns:inkscape="http://www.inkscape.org/namespaces/inkscape"
   xmlns:sodipodi="http://sodipodi.sourceforge.net/DTD/sodipodi-0.dtd"
   xmlns="http://www.w3.org/2000/svg"
   xmlns:svg="http://www.w3.org/2000/svg"
   xmlns:rdf="http://www.w3.org/1999/02/22-rdf-syntax-ns#"
   xmlns:cc="http://creativecommons.org/ns#"
   xmlns:dc="http://purl.org/dc/elements/1.1/">
  <metadata
     id="metadata55">
    <rdf:RDF>
      <cc:Work
         rdf:about="">
        <dc:format>image/svg+xml</dc:format>
        <dc:type
           rdf:resource="http://purl.org/dc/dcmitype/StillImage" />
      </cc:Work>
    </rdf:RDF>
  </metadata>
  <defs
     id="defs53" />
  <sodipodi:namedview
     pagecolor="#ffffff"
     bordercolor="#666666"
     borderopacity="1"
     objecttolerance="10"
     gridtolerance="10"
     guidetolerance="10"
     inkscape:pageopacity="0"
     inkscape:pageshadow="2"
     inkscape:window-width="1366"
     inkscape:window-height="697"
     id="namedview51"
     showgrid="false"
     inkscape:zoom="3.6875001"
     inkscape:cx="50.711864"
     inkscape:cy="53.694914"
     inkscape:window-x="-8"
     inkscape:window-y="-8"
     inkscape:window-maximized="1"
     inkscape:current-layer="g46"
     inkscape:showpageshadow="2"
     inkscape:pagecheckerboard="0"
     inkscape:deskcolor="#d1d1d1" />
  <g
     id="图层_1">
    <g
       id="g46">
      <path
         d="M70.25,76.07c1.07,2.45,1.35,4.78,1.78,7.34c0.22,1.32-0.2,2.89,0.51,4.13 c1.01,1.74,3.72,1.34,5.65,1.15c1.97-0.2,5.44-1.02,6.23-2.81c0.9-2.03,0.32-4.64-0.03-6.72c-0.4-2.35,0.26-4.78-0.52-7.11 c-0.74-2.22-3.08-3.87-5.95-3.35c-1.79,0.33-3.22,1.42-4.78,2.16c-1.17,0.55-3.09,0.98-3.38,2.24 C69.53,74.06,69.81,75.06,70.25,76.07z"
         style="fill:#2F2F2F;"
         id="path2" />
      <path
         d="M51.64,104.84c0.01,0.48,0.03,0.97,0.02,1.46c-0.05,2.22-0.2,7.01,3.98,7.89 c3.23,0.68,6.9,0.6,8.69,0.1c3.96-1.11,4.48-5.41,4.28-9.46c-1.98,0.7-5.24,1.12-8.41,1.13 C57.21,105.96,53.95,105.75,51.64,104.84z"
         style="fill:#2F2F2F;"
         id="path4" />
      <path
         d="M25.86,96.86c0,0.17,0.02,0.34,0.03,0.5c0,0.32-0.09,0.86-0.17,1.39c-0.3,1.84-0.92,5.66,2.71,6.79 c2.26,0.71,5.32,0.88,9.19-0.22c4.11-1.16,3.76-5.81,3.62-8.12l-0.03-0.61c-1.88,0.7-4.99,1.12-8.01,1.12 C30.68,97.72,27.97,97.55,25.86,96.86z"
         style="fill:#2F2F2F;"
         id="path6" />
      <path
         d="M109.01,87.21c2.5-0.12,5.05-0.5,6.97-1.04c0,0,0-0.01,0-0.01c-0.07-3.39-0.25-5.98-0.61-8.41 c-0.58-4.07-1.38-8.21-2.35-12.28c-0.48-2.03-0.92-4.09-1.36-6.14c-2.02-9.48-4.1-19.28-11-27.25c-7.14-8.25-18-12.8-30.59-12.8 c-2.74,0-5.53,0.22-8.28,0.66c-9.45,1.5-18.84,4.62-25.77,8.56c-2.3,1.31-3.22,2.88-3.89,4.84c-0.47,1.36-0.91,2.73-1.36,4.1 c-1.36,4.18-2.77,8.51-4.78,12.42c-0.87,1.69-1.47,3.54-1.88,5.75c-0.82,0.61-1.6,1.2-2.37,2.44c-1.59,2.57-2.6,5.77-2.74,8.76 c-0.11,2.2,0.66,3.91,1.35,5.42c0.26,0.58,0.52,1.15,0.73,1.77c0.25,0.73,0.5,1.46,0.75,2.19c1.04,2.97,2.01,5.78,2.5,8.71 l0.25,1.51c0.58,3.48,1.17,7.07,1.27,10.45c2.11,0.68,4.83,0.85,7.35,0.85c3.02,0,6.13-0.42,8.01-1.12l-0.01-0.29 c-0.08-2.76,0.2-5.28,0.87-7.77c2.09,0.55,4.39,0.98,6.71,1.24c0.79,2.13,1.52,4.29,1.83,6.39l0.25,1.66 c0.37,2.38,0.71,4.67,0.78,7.01c2.3,0.92,5.57,1.12,8.56,1.11c3.17-0.01,6.43-0.43,8.41-1.13c-0.1-2.02-0.38-3.98-0.51-5.45 c-0.04-0.46-0.08-0.88-0.11-1.26c-0.29-4.04-0.04-7.95,0.25-12.07c0.51-0.26,6.24-3,13.17-5c6.61-1.91,11.57-2.96,13.36-2.89 c2.56,0.1,3.74,1.54,4.86,2.99c0.69,0.9,0.78,1.59,0.95,2.98l0.04,0.28c0.05,0.35,0.12,1.18,0.23,2.2 C103.16,87.29,106.2,87.35,109.01,87.21z"
         style="fill:#E0E0E0;"
         id="path8" />
      <path
         d="M115.99,86.17c-1.93,0.54-4.47,0.92-6.97,1.04c-2.81,0.13-5.86,0.08-8.16-0.6 c0.25,2.36,0.66,5.74,1.23,6.63c1.42,2.25,6.89,1.88,6.89,1.88s5.69-0.33,6.57-2.54c0.46-1.16,0.6-4.37,0.5-5.51 C116.02,86.75,115.99,86.45,115.99,86.17z"
         style="fill:#2F2F2F;"
         id="path10" />
      <path
         d="M124.47,41.06c0.71-0.16,1.5-0.78,2.18-0.61c0.55,0.14,0.59,0.9,0.68,1.33 c0.71,3.19-0.39,6.81-3.44,8.29c-1.08,0.53-2.17,0.83-3.39,0.53c-1.7-0.43-3.45-1.21-4.1-3.01c-0.3-0.84-0.29-1.94,0.01-2.78 c0.27-0.75,0.81-1.89,1.46-2.39c0.88-0.67,1.89-1.17,2.99-1.3c1.11-0.14,2.19,0.02,3.3-0.02 C124.27,41.1,124.37,41.09,124.47,41.06z"
         style="fill:#5d4037;fill-opacity:1"
         id="path12" />
      <path
         d="M82.43,33.43c-0.03-0.22-0.04-0.44-0.02-0.66c0.23-2.16,3.22-3.08,5.03-3.26 c7.3-0.73,16.82-0.58,22.18,5.28c1.41,1.54,2.24,3.44,2.99,5.37c0.11,0.29,0.23,0.58,0.34,0.87c0.81,2.02,2.46,5.2,5.17,4.02 c0.62-0.27,0.86-0.51,1.57-0.49c1.01,0.03,2.01,1.06,1.7,2.15c-0.21,0.75-1.84,1.41-2.5,1.63c-2.18,0.73-4.72-0.09-6.29-1.72 c-1.63-1.7-2.32-3.98-3.37-6.03c-1.19-2.35-2.79-3.95-5.18-5.1c-3.4-1.64-7.48-1.54-11.18-1.55c-1.13,0-2.23,0.28-3.36,0.37 c-1.03,0.07-2.04-0.1-3.08,0.07c-0.79,0.13-1.54,0.64-2.31,0.72C83.12,35.17,82.54,34.35,82.43,33.43z"
         style="fill:#5d4037;fill-opacity:1"
         id="path14" />
      <path
         d="M63.44,37.12c0.64,0.94,1.45,1.8,2.52,2.55c2.19,1.54,6.38,2.09,9.75,1.91 c2.68-0.15,6.53-2.88,9.2-2.69c7.18,0.5,6.79,7.75,11.93,9.18c1.29,0.36,2.86,0.58,4.21,0.63c2.05,0.07,5.36-0.23,7.86-0.86 c0,0-2.07-8.47-7.44-15.1c-4.46-5.5-8.08-7.87-15.08-10.82c-3.45-1.45-7.38-2.23-11.46-2.63c-1.82-0.18-11.19-0.36-12.78,0.57 c-1.39,0.82-0.94,4.9-1.11,6.24c-0.21,1.79-0.16,4.06,0.28,5.8C61.82,33.82,62.41,35.59,63.44,37.12z"
         style="fill:#855c52;fill-opacity:1"
         id="path16" />
      <path
         d="M57.13,54.05c1.68-0.28,2.19,1.94,1.58,4.6c-0.54,2.36-5.67,6.63-6.09,8.33 c-0.65,2.61-3.41,8.64-6.04,11.72c-3.4,3.99-10.12,7.12-22.15,6.73c0,0-1.01-4.47-2.07-7.74c6.47-0.83,11.05-2.44,16.94-5.25 c1.8-0.86,3.6-1.83,4.96-3.29c1.33-1.42,2.17-3.22,3.06-4.95c2.58-5.01,5.84-9.01,11.23-10.66"
         style="fill:#B0BEC5;"
         id="path18" />
      <g
         id="g40">
        <path
           d="M4.33,52.02c-0.67,0.94-1.36,1.98-1.94,3.12C-0.88,61.5,0.6,66.38,2.42,69.35 C7.32,77.39,19.89,80.3,27.14,80.3c5.49-0.01,11.25-0.7,16.59-5.62c1.12-1.04,2.18-2.27,3.14-3.66c0.97-1.38,1.43-2.86,1.8-4.04 c0.26-0.84,0.49-1.57,0.79-1.97c1.11-1.47,2.43-2.78,3.84-4.17c3.14-3.11,6.7-6.64,8-12.35c0.75-3.3,0.9-6.85,0.48-10.32 c4-1.35,7.6-5.19,6.85-10.22c-0.56-3.9-3.28-6.43-6.9-6.43c-0.63,0-1.28,0.08-1.95,0.23c-0.46,0.1-0.91,0.21-1.34,0.32 c-0.99,0.25-1.71,0.43-2.54,0.43c-0.11,0-0.22,0-0.34-0.01c-0.27-0.02-0.53-0.03-0.8-0.05c-2.28-2.4-5.15-4.25-8.57-5.48 c-4.93-1.79-10.22-2.09-14.74-2.15h-0.25c-1.11,0-2.21,0.09-3.3,0.27c0.56,0.26,1.12,0.6,1.65,1.04c0.99,0.81,1.73,1.8,2.29,2.9"
           style="fill:#E0E0E0;"
           id="path20" />
        <path
           id="path22"
           style="fill:#855c52;fill-opacity:1"
           d="m 27.910156,15.089844 c -1.949998,0.319999 -3.860705,0.920548 -5.720703,1.810547 -1.799998,0.859999 -3.459454,2.009923 -4.939453,3.419921 -0.26,0.14 -0.549141,0.280626 -0.869141,0.390626 -0.499999,0.169999 -1.101719,0.25 -2.011718,0.25 -0.67,0 -1.368673,-0.04008 -2.138672,-0.08008 l -0.191407,-0.01172 -0.529296,-0.0293 c -0.49,-0.03 -0.959923,-0.07031 -1.419922,-0.07031 -3.6999966,0 -5.4993761,2.040236 -6.3593752,3.740235 -1.5299985,3.029997 -0.9599196,7.220002 1.3300781,9.75 C 6.2905456,35.589764 7.8592206,36.51 9.6992188,37 c -0.05,0.29 -0.1101563,0.569141 -0.1601563,0.869141 -0.6899993,3.609996 -1.349845,7.030784 -2.5898437,10.050781 -0.4299996,1.049999 -1.2283603,2.150314 -2.0683594,3.320312 -0.1799998,0.25 -0.3705471,0.509298 -0.5605469,0.779297 0,0 12.6720105,-0.41178 18.8501035,-4.712283 8.640408,-6.014494 10.68013,-14.2671 10.140131,-22.397092 -0.13,-1.939998 -0.530939,-4.050861 -1.460938,-5.880859 -0.559999,-1.089999 -1.299063,-2.088438 -2.289062,-2.898438 -0.54,-0.439999 -1.090391,-0.781016 -1.650391,-1.041015 z"
           sodipodi:nodetypes="ccccscccscccccccscccc" />
        <path
           d="M49.57,25.8c0.83,0.43,1.73,0.69,2.51,0.71c1.95,0.08,3.05-1.81,3.74-3.36 c0.77-1.75,1.87-4.27,1.33-6.19c-0.61-2.17-2.8-1.61-4.42-0.95c-0.88,0.36-1.71,0.87-2.5,1.4c-1.42,0.96-2.97,1.77-3.39,3.6 C46.37,23.08,47.79,24.89,49.57,25.8z"
           style="fill:#FCC21B;"
           id="path24" />
        <path
           d="M21.62,23.7c-0.83,0.43-1.73,0.68-2.51,0.71c-1.95,0.07-3.06-1.81-3.74-3.36 c-0.77-1.76-1.87-4.27-1.33-6.19c0.61-2.17,2.8-1.6,4.42-0.95c0.89,0.36,1.71,0.86,2.5,1.39c1.42,0.96,2.97,1.77,3.39,3.6 C24.82,20.98,23.4,22.79,21.62,23.7z"
           style="fill:#FCC21B;"
           id="path26" />
        <g
           id="g36">
          <path
             d="M39.68,42.43c-0.41,2.24,0.86,4.73,2.83,5.6c1.97,0.83,3.93-0.25,4.36-2.45 c0.41-2.22-0.82-4.73-2.81-5.6C42.06,39.1,40.1,40.19,39.68,42.43z"
             style="fill:#2F2F2F;"
             id="path28" />
          <path
             d="m 18.749406,37.872612 c -1.679494,1.085387 -2.490678,3.518939 -1.816595,5.461211 0.719783,1.919421 2.604929,2.616354 4.250147,1.553817 1.645218,-1.085387 2.467828,-3.518939 1.80517,-5.43836 -0.685507,-1.930847 -2.582079,-2.65063 -4.238722,-1.576668 z"
             style="opacity:1;vector-effect:none;fill:#2f2f2f;fill-opacity:1;stroke-width:1;stroke-linecap:butt;stroke-linejoin:miter;stroke-miterlimit:4;stroke-dasharray:none;stroke-dashoffset:0;stroke-opacity:1"
             id="path30" />
        </g>
      </g>
      <path
         d="M111.39,57.29c-1.36-0.34-3.34,1.3-4.34,2.07c-1.06,0.81-1.76,2.12-2.23,3.39 c-0.73,1.96-1.13,4.99-0.08,6.86c1.09,1.97,2.73,3.09,4.76,3.75c0.93,0.31,4.84,1.46,5.34,0.05L111.39,57.29z"
         style="fill:#855c52;fill-opacity:1"
         id="path42" />
      <path
         d="M74.45,55.61c0.18-1.72,1.08-3.43,2.59-4.28c1.82-1.03,4.2-0.65,5.96,0.49 c1.76,1.14,3.01,2.91,4.07,4.72c0.37,0.63,0.73,1.28,1.27,1.76c0.76,0.68,1.78,0.95,2.74,1.27c2.69,0.88,5.33,2.3,6.89,4.66 c1.56,2.36,1.72,5.8-0.22,7.86c-0.54,0.57-1.21,1.01-1.7,1.63c-1.23,1.52-0.91,3.23-2.39,4.52c-3.29,0.43-5.4,1.02-8.14,1.7 c-0.9-1.39-1.4-3.41-1.35-5.07c0.04-1.11,0.3-2.29-0.16-3.3c-0.61-1.34-2.2-1.86-3.61-2.25c-2.08-0.57-4.16-1.13-6.24-1.7 c-1.98-0.54-4-1.09-5.71-2.22c-1.71-1.13-2.73-2.56-2.81-4.62c-0.03-0.69,0.14-1.45,0.69-1.87c0.56-0.43,1.33-0.37,2.03-0.4 C70.79,58.41,74.04,57.86,74.45,55.61z"
         style="fill:#855c52;fill-opacity:1"
         id="path44" />
      <path
         d="m 11.299238,67.808354 c -0.207689,-0.143953 -0.429702,-0.272247 -0.670673,-0.381071 -0.579608,-0.265567 -1.3921534,-0.634907 -1.2972815,-1.431615 0.059196,-0.518742 0.7712795,-1.041945 1.2232785,-1.17264 2.343968,-0.683649 6.313422,0.458847 6.619005,3.311734 0.09398,0.827945 -0.216185,2.213437 -1.05024,2.588267 -1.146658,0.519139 -2.138326,-0.242965 -2.891892,-1.041515 -0.64643,-0.672948 -1.197454,-1.362164 -1.932197,-1.87316 z m 19.354431,1.894799 c 0.256771,-0.112018 0.525759,-0.203933 0.811193,-0.270605 0.687369,-0.164511 1.659715,-0.391011 1.722743,-1.278348 0.03754,-0.577815 -0.61537,-1.298704 -1.08363,-1.538265 -2.412109,-1.247271 -6.960463,-0.854744 -7.914151,2.181702 -0.27981,0.880346 -0.239663,2.453791 0.591768,3.040838 1.131108,0.810142 2.37316,0.19396 3.364061,-0.512924 0.84275,-0.593719 1.589905,-1.22514 2.508016,-1.622398 z"
         fill="#2f2f2f"
         id="path27700"
         style="stroke-width:1"
         sodipodi:nodetypes="cccccccccccccccc" />
    </g>
  </g>
</svg>
