<?xml version="1.0" encoding="UTF-8" standalone="no"?>
<svg
   width="128"
   height="128"
   version="1.1"
   id="svg27702"
   sodipodi:docname="emoji_u1f42e.svg"
   inkscape:version="1.2.2 (732a01da63, 2022-12-09)"
   xmlns:inkscape="http://www.inkscape.org/namespaces/inkscape"
   xmlns:sodipodi="http://sodipodi.sourceforge.net/DTD/sodipodi-0.dtd"
   xmlns="http://www.w3.org/2000/svg"
   xmlns:svg="http://www.w3.org/2000/svg">
  <defs
     id="defs27706" />
  <sodipodi:namedview
     id="namedview27704"
     pagecolor="#ffffff"
     bordercolor="#000000"
     borderopacity="0.25"
     inkscape:showpageshadow="2"
     inkscape:pageopacity="0.0"
     inkscape:pagecheckerboard="0"
     inkscape:deskcolor="#d1d1d1"
     showgrid="false"
     inkscape:zoom="4.2421876"
     inkscape:cx="49.14917"
     inkscape:cy="56.103129"
     inkscape:window-width="1366"
     inkscape:window-height="697"
     inkscape:window-x="-8"
     inkscape:window-y="-8"
     inkscape:window-maximized="1"
     inkscape:current-layer="svg27702" />
  <path
     d="M36.77 25.51c-.19-2.65-.25-5.15-.26-5.65-.18-4.18-1.64-12.45 2.58-14.36 4.35-1.97 7.35 2.42 9.18 6.28.44.93 6.05 13.52 6.2 13.37-.83.82-1.94 1.16-2.77 2.01-1.24 1.23-2.88 1.88-4.42 2.55-.7.29-1.29.45-2 .58-.87.17-1.59.66-2.42.93-.7.24-1.42.43-2.12.67-.78.27-1.53.57-2.36.63-.89.05-1.35-3.6-1.61-7.01zM90.33 25.13c.19-2.65.25-5.15.27-5.65.18-4.18 1.63-12.44-2.6-14.35-4.35-1.97-7.33 2.42-9.18 6.28-.42.93-6.05 13.53-6.19 13.37.81.82 1.92 1.16 2.77 2 1.23 1.23 2.88 1.88 4.44 2.55.69.29 1.27.45 1.97.58.88.17 1.6.66 2.43.93.7.24 1.42.42 2.12.67.78.27 1.52.57 2.36.63.89.06 1.36-3.59 1.61-7.01z"
     fill="#fcc21b"
     id="path27688" />
  <path
     d="m 24.783129,71.852915 c -1.69,1.65 -3.313129,4.599973 -7.293129,10.797085 -1.85,7.72 -0.85,15.02 2.94,21.24 5.54,9.08 16.68,15.6 30.57,17.89 6.47,1.07 12.11,1.58 17.26,1.58 6.85,0 12.85,-0.89 18.34,-2.74 5.95,-1.99 16.65,-6.9 21.5,-17.29 4.27,-9.19 2.11,-18.3 -0.88,-26.78 -2.79,-7.93 -2.12,-15.95 -1.43,-24.46 l 0.24,-2.91 c 0.19,-2.42 0.11,-4.77 -0.24,-7.03 1.1,-0.21 2.25,-0.38 3.44,-0.55 1.56,-0.23 3.12,-0.46 4.67,-0.79 11.94,-2.59 13.74,-10.22 13.15,-16.17 -0.62,-6.24 -6.01,-10.28 -13.74,-10.28 -1.32,0 -2.62,0.13 -3.87,0.38 -3.5,0.72 -6.41,2.58 -8.97,4.23 -2.49,1.6 -4.84,3.11 -7.57,3.4 -0.37,0 -0.76,-0.05 -1.17,-0.1 -1.47,-0.9 -3.02,-1.71 -4.61,-2.41 C 80.24,16.79 71.7,15.1 63.05,15.1 c -3.01,0 -5.97,0.21 -8.82,0.6 3.72,2.13 6.27,4.59 7.63,6.13"
     fill="#e0e0e0"
     id="path27690"
     sodipodi:nodetypes="ccccscccccccccscccccscc" />
  <path
     d="m 64.84,26.16 c -1.022486,-1.977678 -2.348572,-3.782909 -3.93,-5.35 -1.47,-1.49 -3.69,-3.4 -6.68,-5.12 -4.56,0.63 -8.83,1.74 -12.47,3.28 -1.82,0.77 -3.81,1.91 -5.8,3.32 -0.34,0.04 -0.7,0.07 -1.06,0.06 -2.53,-0.27 -4.88,-1.78 -7.38,-3.39 -2.56,-1.65 -5.47,-3.51 -8.96,-4.23 -1.277674,-0.25406 -2.577312,-0.381344 -3.88,-0.38 -7.71,0 -13.11,4.04 -13.74,10.28 -0.59,5.95 1.22,13.58 13.15,16.17 1.54,0.34 3.11,0.56 4.68,0.79 1.66,0.24 3.25,0.47 4.75,0.82 0.05,0.01 0.11,0.03 0.17,0.05 -0.36,3.6 -0.34,7.18 -0.31,10.67 0.01,2.13 0.03,4.26 -0.05,6.38 -0.22,5.9 -1.97,11.13 -3.84,16.67 -0.41,1.19 -0.81,2.39 -1.21,3.62 -0.31,0.95 -0.57,1.89 -0.79,2.83 0,0 12.935621,-2.535052 29.350901,-10.365174 C 71.340642,60.5784 70.64,37.42 64.84,26.16 Z"
     fill="#8b8b8b"
     id="path27692"
     sodipodi:nodetypes="cccscccccccccccccccsc"
     style="fill:#855c52" />
  <path
     d="M123.72 24.98c-.65-6.47-8.3-8.03-13.61-6.94-6.11 1.25-10.37 6.98-16.64 7.66-.84.09-1.88-.06-2.91-.22-1.51-.95-3.1-1.81-4.79-2.56-8.23-3.67-18.29-4.98-27.49-4.28 2.79 1.87 5.1 4.68 6.57 7.53 5.79 11.26 2.1 31.72-9.89 37.71-5.08 2.54-10.62 2.53-15.96 4-4.75 1.31-8.44 4.07-11.9 7.44-1.41 1.37-3.23 3.57-5.29 4.54-.11.33-.22.65-.33.98-7.03 21.72 11.16 34.51 30.08 37.62 11.11 1.83 23.15 2.61 33.98-1.03 7.9-2.65 15.91-7.75 19.53-15.53 3.77-8.12 1.82-16.21-1-24.25-3.36-9.55-2.13-18.92-1.37-28.74.26-3.32-.05-6.34-.82-9.09.71-.3 1.35-.55 1.83-.66 3.12-.74 6.36-.96 9.5-1.63 6.84-1.47 11.27-4.95 10.51-12.55z"
     fill="none"
     id="path27694" />
  <g
     id="g28586">
    <path
       d="m 50.75,54.16 c -0.78,3.51 -3.58,5.73 -6.26,4.99 -2.68,-0.77 -4.22,-4.22 -3.46,-7.73 0.79,-3.5 3.6,-5.74 6.29,-4.98 2.68,0.75 4.22,4.22 3.43,7.72 z"
       style="fill:#2f2f2f;fill-opacity:1"
       id="path24605" />
    <path
       d="m 79.51,54.51 c 1.12,3.39 4.12,5.24 6.71,4.18 2.59,-1.09 3.78,-4.72 2.66,-8.12 -1.12,-3.37 -4.13,-5.25 -6.72,-4.17 -2.58,1.09 -3.78,4.73 -2.65,8.11 z"
       style="fill:#2f2f2f"
       id="path24607" />
  </g>
  <path
     d="M40.88 92.22c-.52-.29-1.07-.54-1.66-.74-1.42-.49-3.41-1.17-3.37-3.06.02-1.23 1.57-2.62 2.6-3.03 5.34-2.14 14.91-.37 16.28 6.25.41 1.92 0 5.24-1.87 6.31-2.57 1.48-5.07-.08-7.02-1.78-1.67-1.43-3.12-2.92-4.96-3.95zM85.2 92.22c.52-.29 1.07-.54 1.66-.74 1.42-.49 3.43-1.17 3.38-3.06-.04-1.23-1.57-2.62-2.61-3.03-5.36-2.14-14.9-.37-16.29 6.25-.41 1.92 0 5.24 1.88 6.31 2.56 1.48 5.06-.08 7.01-1.78 1.66-1.43 3.11-2.92 4.97-3.95z"
     fill="#2f2f2f"
     id="path27700" />
</svg>
