<?xml version="1.0" encoding="UTF-8" standalone="no"?>
<!-- Generator: Adobe Illustrator 16.0.0, SVG Export Plug-In . SVG Version: 6.00 Build 0)  -->

<svg
   version="1.1"
   id="レイヤー_1"
   x="0px"
   y="0px"
   width="128px"
   height="128px"
   viewBox="0 0 128 128"
   enable-background="new 0 0 128 128"
   xml:space="preserve"
   sodipodi:docname="emoji_u1f434.svg"
   inkscape:version="1.2.2 (732a01da63, 2022-12-09)"
   xmlns:inkscape="http://www.inkscape.org/namespaces/inkscape"
   xmlns:sodipodi="http://sodipodi.sourceforge.net/DTD/sodipodi-0.dtd"
   xmlns="http://www.w3.org/2000/svg"
   xmlns:svg="http://www.w3.org/2000/svg"><defs
   id="defs5078" /><sodipodi:namedview
   id="namedview5076"
   pagecolor="#ffffff"
   bordercolor="#000000"
   borderopacity="0.25"
   inkscape:showpageshadow="2"
   inkscape:pageopacity="0.0"
   inkscape:pagecheckerboard="0"
   inkscape:deskcolor="#d1d1d1"
   showgrid="false"
   inkscape:zoom="2.9996795"
   inkscape:cx="73.507852"
   inkscape:cy="63.340099"
   inkscape:window-width="1366"
   inkscape:window-height="697"
   inkscape:window-x="-8"
   inkscape:window-y="-8"
   inkscape:window-maximized="1"
   inkscape:current-layer="レイヤー_1" />
<g
   id="g5073">
	<path
   fill="#2F2F2F"
   d="M56.73,82.38c0,0-0.25-2.68-1.92-6.72l3.22-6.38l9.4-0.98l4.3,7.63l-3.32,7.83L56.73,82.38z"
   id="path5057" />
	<g
   id="g5069">
		<path
   fill="#855C52"
   d="m 60.69,17.96 c 6.88,0.03 13.84,-0.25 20.21,2.7 1.36,0.63 2.71,1.28 4.05,1.94 1.38,0.68 2.83,1.42 4.06,2.35 2.38,1.79 5.25,2.7 8.04,3.63 1.72,0.58 3.65,0.83 5.14,1.94 2.03,1.51 0.87,4.08 -1,5.21 -1.37,0.83 -6.46,1.63 -3.74,4.25 2.12,2.03 6.76,2.57 9.47,3.31 1.85,0.5 5.98,1.46 6.14,3.87 0.25,3.69 -9.66,4.24 -6.36,8.37 1.7,2.12 4.19,3.7 6.75,4.5 1.97,0.62 7.2,2.06 5.65,5.07 -1.4,2.73 -7.37,1.72 -7.77,5.44 -0.34,3.18 3.82,5.49 6.14,6.75 2.04,1.11 7.2,2.35 7.05,5.27 -0.17,3.29 -5.21,2.45 -6.96,4.17 -3.03,2.98 -0.37,6.32 2.32,8.28 0.1,0.08 0.21,0.15 0.31,0.22 1.59,1.12 6.16,2.2 6.74,4.12 0.34,1.12 -0.4,2.55 -1.14,3.32 -1.12,1.17 -2.9,1.57 -4.49,1.45 -2.43,-0.18 -3.85,1.16 -3.23,3.61 0.78,3.08 3.83,5.33 6.58,6.58 2.07,0.94 3.67,3.38 2.65,5.57 -1.35,2.92 -5,3.17 -7.72,3.72 -3.5,0.72 -7.05,1 -10.58,1.54 -0.45,0.07 -0.94,0.35 -1.38,0.21 0.16,-0.56 0.46,-1.03 0.58,-1.65 0.16,-0.81 0.26,-1.63 0.46,-2.42 0.68,-2.72 -0.64,-4.59 -1.75,-6.9 C 103.43,107.15 99.96,99.92 96.48,92.68 92.1,83.57 87.72,74.47 83.34,65.36 79.22,56.79 75.09,48.21 70.97,39.64 c -1.74,-3.62 -3.6,-10.5 -8,-11.95 -1.71,-0.57 -3.77,-0.48 -5.56,-0.29 -5.52,0.58 -10.76,3.11 -16.28,3.93 -1.89,0.29 -5.35,0.96 -7.07,-0.28 -0.96,-0.69 -0.51,-2.08 -0.07,-3.14 0.93,-2.26 2.74,-3.55 4.58,-4.93 6.63,-4.94 14.32,-5.06 22.12,-5.02 z"
   id="path5059"
   style="fill:#b89278;fill-opacity:1"
   sodipodi:nodetypes="ccccccccccccccccccccccccccccccccccccccccc" />
		<g
   id="g5065">
			<path
   fill="#F79329"
   d="M113.84,107.57c0.07-4.35-0.11-8.72-0.52-13.05c-1.45-15.75-5.95-31.2-13.48-44.73     c-2.99-5.37-5.55-11.01-9.08-16.06c-1.96-2.81-3.96-5.71-6.54-8.02c-2.47-2.21-4.84-2.22-4.75-5.74     c0.05-1.87-0.18-3.88-0.48-5.73c-0.46-2.78-0.8-5.58-1.43-8.33c-0.71-3.13-2.6-6.44-6.19-4.21c-2.71,1.69-4.8,4.25-6.32,7.03     c-0.82,1.49-1.47,3.06-1.98,4.68c-0.48,1.53-0.85,2.01-2.49,2.43c-2.44,0.62-5.72,0.91-7.55-1.08c-2.75-2.98-4.82-6.51-7.23-9.76     c-0.71-0.96-1.48-1.88-2.47-2.58c-4.67-3.32-6.05,2.1-6.92,5.6c-0.88,3.54-0.65,9,0.76,14.08c0.16,0.58,0.35,1.15,0.54,1.72     c-2.95,1.57-5.66,3.39-7.92,5.34c-2.28,1.99-2.47,4.4-2.99,7.16c-0.57,3.06-1.64,4.93-3.53,7.38     C17.84,50.76,11.26,56.6,5.56,63.47c-3.45,4.16-6.64,8.85-4.51,14.5c0.97,2.56,2.36,4.66,4.35,6.48     c2.08,1.89,3.92,3.51,6.42,4.88c3.75,2.05,8.22,2.93,12.43,2.04c5.32-1.12,8.46-5.38,12.58-8.55c4.46-3.42,9.73-5.21,15.17-6.38     c2.12-0.46,4.18-1.2,6.15-2.12c0.66-0.31,1.98-1.29,2.72-1.21c1.14,0.12,0.95,1.94,0.63,2.65c-0.59,1.32-1.95,2.36-3.09,3.17     c-0.62,0.45-1.13,0.86-1.37,1.62c-0.61,1.96-0.24,4.26-0.09,6.25c0.19,2.59,0.25,5.19,0.19,7.78     c-0.11,5.13-0.67,10.26-1.64,15.31c-0.44,2.31-1.02,4.58-1.74,6.8c-1.55,4.76-1.71,5.88,2.82,7.6     c9.09,3.43,19.15,2.53,28.59,2.72c3.9,0.08,7.69-0.13,11.57-0.54c4.2-0.44,8.48-1.19,12.65-1.73c1.56-0.2,3.39-1.04,4.1-2.67     c0.71-1.61,0.47-3.69,0.53-5.43C114.11,113.59,113.8,110.6,113.84,107.57z"
   id="path5061"
   style="fill:#855c52;fill-opacity:1" />
			<path
   fill="#855C52"
   d="M87.52,35.54c1.37,1.65,2.69,3.35,3.79,5.27c1.34,2.35,0.73,5.02,1.23,7.63     c0.48,2.49,0.41,4.97,1.99,7.21c2.58,3.65,7.19,6.93,6.57,11.98c-0.16,1.3-0.58,2.35-0.57,3.72c0,1.32-0.11,2.68,0,3.99     c0.22,2.56,2.1,4.47,3.43,6.56c1.81,2.84,3,6.57,1.98,10.01c-1.04,3.51-1.99,7.27-0.53,10.79c1.08,2.58,2.97,4.83,3.64,7.57     c0.75,3.09-0.45,5.9-0.89,8.97c-0.27,1.85-0.79,3.83-0.47,5.74c0.05,0.3,8.86-1.21,9.62-1.44c0.81-4.59-0.7-9.27-0.63-13.86     c0.04-3.14-0.01-6.3-0.38-9.42c-0.71-6.1-2.11-12.07-3.23-18.06c-0.86-4.6-2.06-9.39-3.71-13.77c-0.77-2.05-1.35-4.23-2.28-6.21     c-1.08-2.3-2.35-4.48-3.08-6.92c-0.77-2.57-1.94-5.07-2.63-7.65c-0.2-0.73-0.08-1.51-0.34-2.22c-0.36-0.96-1.26-1.71-2.05-2.31     c-0.8-0.61-1.45-1.3-2.09-2.1c-1.4-1.74-2.06-4.25-2.55-6.39c-0.5-2.19-2.3-4.24-3.75-5.9c-1.71-1.97-3.86-3.43-5.93-4.99     c-1.16-0.88-3.49-3.44-5.06-3.11c-0.54,0.12,2.06,6.05,2.24,6.47C83.33,30.41,85.18,32.72,87.52,35.54z"
   id="path5063"
   style="fill:#b89278;fill-opacity:1" />
		</g>
		<path
   fill="#2F2F2F"
   d="M44.03,48.56c-2.27-1.65-2.78-4.82-1.12-7.09c1.65-2.27,4.82-2.77,7.09-1.13c2.27,1.64,2.77,4.82,1.13,7.1    C49.48,49.7,46.29,50.2,44.03,48.56z"
   id="path5067" />
	</g>
	<path
   fill="#2F2F2F"
   d="M19.63,76.72c-0.38,2-2.95,2.99-4.75,3.14c-1.17,0.1-2.76-0.07-3.59-1.01c-0.84-0.96-0.67-3.14,0.22-4.07   c1.44-1.5,3.79-2.18,5.76-1.53c1.06,0.33,1.97,1.22,2.29,2.27C19.67,75.89,19.7,76.3,19.63,76.72z"
   id="path5071" />
</g>
</svg>
