<?xml version="1.0" encoding="UTF-8" standalone="no"?>
<svg
   width="128"
   height="128"
   style="enable-background:new 0 0 128 128;"
   version="1.1"
   id="svg841"
   sodipodi:docname="emoji_u1f4da.svg"
   inkscape:version="1.2.2 (732a01da63, 2022-12-09)"
   xmlns:inkscape="http://www.inkscape.org/namespaces/inkscape"
   xmlns:sodipodi="http://sodipodi.sourceforge.net/DTD/sodipodi-0.dtd"
   xmlns="http://www.w3.org/2000/svg"
   xmlns:svg="http://www.w3.org/2000/svg">
  <defs
     id="defs845" />
  <sodipodi:namedview
     id="namedview843"
     pagecolor="#ffffff"
     bordercolor="#000000"
     borderopacity="0.25"
     inkscape:showpageshadow="2"
     inkscape:pageopacity="0.0"
     inkscape:pagecheckerboard="0"
     inkscape:deskcolor="#d1d1d1"
     showgrid="false"
     inkscape:zoom="2.1210938"
     inkscape:cx="29.230203"
     inkscape:cy="106.5488"
     inkscape:window-width="1366"
     inkscape:window-height="697"
     inkscape:window-x="-8"
     inkscape:window-y="-8"
     inkscape:window-maximized="1"
     inkscape:current-layer="svg841" />
  <g
     id="g839"
     transform="matrix(-1,0,0,1,128.02294,0)">
    <g
       id="g811">
      <g
         id="g807">
        <path
           d="M 109.98,98.53 C 109.7,92.28 107.59,88.22 103.77,84.7 94.23,75.89 82.73,67.48 72.14,59.95 67.23,56.46 61.77,51.85 56.08,49.72 48.06,46.71 39,47.78 30.41,49 26.66,49.53 22.89,50.13 19.19,51 14.91,52.02 9.83,53.23 6.2,55.8 2.94,58.11 3.34,61 4.94,63.68 c 0.24,1.23 0.01,2.4 0.02,3.65 0.02,2.36 -0.25,4.72 -0.82,7 -0.36,1.41 -0.85,2.77 -1.31,4.15 -1.83,5.34 3.22,9.82 6.96,12.91 2.1,1.73 4.34,3.29 6.45,5.01 8.2,6.67 16.6,12.7 24.99,19.05 9.83,7.45 13.58,10.04 25.85,5.85 3.31,-1.13 6.7,-2.03 10.09,-2.9 4.8,-1.23 11.18,-2.4 15.85,-4.04 4.73,-1.66 10.84,-3.86 14.31,-7.65 1.74,-1.89 2.48,-4.6 2.49,-7.12 0.12,-0.31 0.18,-0.65 0.16,-1.06 z"
           style="fill:#ffffff"
           id="path801" />
        <path
           d="m 13.37,58.22 c 4.72,-1.99 23.27,-4.87 27.36,-5.34 3.47,-0.4 7.84,-0.96 11.28,-0.45 1.39,0.23 5.85,2.56 10.48,5.71 9.47,6.44 34.45,25.17 36.03,26.62 0.42,0.39 3.85,3.66 2.12,3.64 -1.75,-0.02 -3.5,0.1 -5.23,0.3 -2.96,0.35 -20.23,4.46 -28.07,6.38 -1.55,0.38 -5.75,1.16 -6.91,1.39 -3.28,0.67 -5.97,-0.38 -8.65,-2.26 -5.59,-3.9 -40.37,-30.7 -41.28,-32.59 -0.66,-1.34 0.67,-2.47 2.87,-3.4 z"
           style="fill:#bdcf46"
           id="path803" />
        <path
           d="m 110.83,91.97 c -1.08,-2.84 -3.64,-5.09 -5.95,-7.23 C 94.31,74.98 83.2,67 71.56,58.6 68.57,56.44 65.64,54.36 62.53,52.37 60.99,51.39 59.08,50.56 57.44,49.74 52.02,47.03 46.38,47.23 40.52,47.9 29.85,49.12 19.54,49.48 9.3,52.98 6.45,53.96 3.66,55.32 3,58.75 c -0.26,1.39 0.51,3.74 1.01,5 0.39,0.96 -2.89,12.98 -3.38,14.42 -1.22,3.59 0.54,6.81 2.99,9.5 1.34,1.48 39.08,30.57 40.03,31.26 3.6,2.65 6.45,4.46 9.5,5.34 3.86,1.11 8.03,0.69 14.43,-1.49 2.57,-0.88 23.26,-6.01 34.77,-10.56 3.92,-1.55 6.17,-3.63 7.09,-4.64 1.12,-1.22 1.84,-2.77 2.23,-4.4 0.24,-0.99 0.36,-2.02 0.37,-3.02 0.1,-0.31 -0.43,-6.14 -1.21,-8.19 z M 13.37,58.22 c 4.72,-1.99 23.27,-4.87 27.36,-5.34 3.47,-0.4 7.84,-0.96 11.28,-0.45 1.39,0.23 5.85,2.56 10.48,5.71 9.47,6.44 34.45,25.17 36.03,26.62 0.42,0.39 3.85,3.66 2.12,3.64 -1.75,-0.02 -3.5,0.1 -5.23,0.3 -2.96,0.35 -20.23,4.46 -28.07,6.38 -1.55,0.38 -5.75,1.16 -6.91,1.39 -3.28,0.67 -5.97,-0.38 -8.65,-2.26 -5.59,-3.9 -40.37,-30.7 -41.28,-32.59 -0.66,-1.34 0.67,-2.47 2.87,-3.4 z M 9.39,85.99 C 8.42,85.01 4.61,82.49 5.65,79.31 6.77,75.87 7.84,70.3 8.08,66.63 c 4.3,3.45 44.34,34.01 46.82,34.72 1.55,4.82 1.57,10.23 -0.15,15 -0.24,0.66 -0.43,1.3 -0.71,1.94 -1.1,-0.41 -2.18,-0.99 -3.34,-1.7 C 48.84,115.43 12.63,89.26 9.39,85.99 Z m 93.34,20.05 c -3.6,2.57 -9.03,3.6 -12.59,4.65 -7.62,2.26 -15.31,4.32 -23.01,6.28 -2.29,0.58 -4.61,1.28 -6.95,1.67 0.43,-0.95 0.8,-1.93 1.06,-2.96 0.69,-2.72 0.82,-5.64 0.52,-8.43 -0.16,-1.43 -0.21,-4.04 -0.55,-5.42 0.4,-0.03 9.83,-2.26 17.28,-4.16 7.58,-1.93 16.37,-4.6 21.64,-4.71 2.09,-0.04 3.63,0.92 4.33,1.5 1.84,1.51 2.26,4.3 1.8,6.52 -0.43,2.18 -1.76,3.8 -3.53,5.06 z"
           style="fill:#2f2f2f"
           id="path805" />
      </g>
      <path
         d="m 23.86,79.56 c 5.72,4.39 20.66,15.8 27.52,21.04 2.18,1.66 4.63,3.38 9.6,2.48 4.97,-0.9 35.97,-8.94 35.97,-8.94 2.83,-0.74 5.96,-0.94 8.86,-0.55 1.05,0.14 2.08,0.47 3.02,0.97 0.33,0.18 0.68,0.36 0.98,0.6 0.16,0.13 0.27,0.3 0.44,0.42 2.29,1.55 0.89,-3.1 0.63,-3.73 -0.63,-1.53 -1.5,-2.96 -2.5,-4.28 -0.8,-1.04 -1.69,-2.01 -2.66,-2.91 C 95.16,74.91 83.48,66.47 71.84,58.07 68.85,55.91 65.9,53.67 62.79,51.68 61.25,50.7 59.69,49.73 58.06,48.91 52.63,46.2 46.56,46.47 40.7,47.14 30.03,48.36 19.36,48.96 9.12,52.47 c -2.86,0.98 -6.31,2.81 -6.95,6.26 -0.26,1.39 -0.26,3.81 2.19,5.98 1.78,1.58 11.96,9.06 19.5,14.85 z"
         style="fill:#bdcf46"
         id="path809" />
    </g>
    <g
       id="g823">
      <g
         id="g819">
        <path
           d="M 125.71,71.96 C 125.43,65.71 123.32,61.65 119.5,58.13 109.96,49.32 98.46,40.91 87.86,33.38 82.95,29.89 77.49,25.28 71.8,23.15 63.78,20.14 54.72,21.21 46.12,22.43 c -3.75,0.53 -7.52,1.13 -11.21,2 -4.28,1.01 -9.37,2.23 -13,4.8 -3.26,2.31 -2.86,5.21 -1.26,7.88 0.24,1.23 0.01,2.4 0.02,3.65 0.02,2.36 -0.25,4.72 -0.82,7 -0.36,1.41 -0.85,2.77 -1.31,4.15 -1.82,5.34 3.23,9.81 6.98,12.91 2.1,1.73 4.34,3.29 6.45,5.01 8.19,6.67 16.6,12.7 24.98,19.05 9.83,7.45 13.58,10.04 25.85,5.85 3.31,-1.13 6.7,-2.03 10.09,-2.9 4.8,-1.23 11.17,-2.4 15.85,-4.04 4.73,-1.66 10.84,-3.86 14.31,-7.65 1.73,-1.89 2.48,-4.6 2.5,-7.12 0.12,-0.31 0.18,-0.66 0.16,-1.06 z"
           style="fill:#ffffff"
           id="path813" />
        <path
           d="m 29.1,31.65 c 4.72,-1.99 23.26,-4.87 27.36,-5.34 3.47,-0.4 7.83,-0.96 11.28,-0.45 1.39,0.23 5.85,2.56 10.48,5.71 9.47,6.44 34.45,25.17 36.02,26.62 0.42,0.39 3.86,3.66 2.13,3.64 -1.75,-0.02 -3.49,0.1 -5.23,0.3 -2.95,0.35 -20.23,4.46 -28.07,6.38 -1.55,0.38 -5.75,1.16 -6.91,1.39 -3.28,0.67 -5.97,-0.38 -8.66,-2.26 -5.59,-3.9 -40.37,-30.7 -41.28,-32.59 -0.65,-1.34 0.68,-2.47 2.88,-3.4 z"
           style="fill:#bdcf46"
           id="path815" />
        <path
           d="m 126.56,67.38 c -1.08,-2.85 -3.64,-5.1 -5.95,-7.23 C 110.05,50.4 98.94,42.41 87.29,34.02 c -3,-2.16 -5.92,-4.24 -9.03,-6.22 -1.55,-0.98 -3.45,-1.81 -5.09,-2.63 -5.44,-2.71 -11.06,-2.51 -16.93,-1.84 -10.66,1.22 -20.97,1.58 -31.21,5.09 -2.85,0.98 -5.65,2.33 -6.3,5.77 -0.26,1.39 0.5,3.74 1.01,5 0.39,0.96 -2.89,12.98 -3.38,14.41 -1.22,3.59 0.54,6.81 2.99,9.51 1.34,1.48 39.08,30.57 40.03,31.26 3.6,2.64 6.45,4.46 9.5,5.33 3.85,1.1 8.03,0.69 14.43,-1.49 2.57,-0.88 23.26,-6.01 34.77,-10.55 3.92,-1.55 6.17,-3.64 7.09,-4.64 1.12,-1.22 1.84,-2.77 2.24,-4.4 0.24,-0.99 0.36,-2.02 0.37,-3.02 0.09,-0.34 -0.44,-6.17 -1.22,-8.22 z M 29.1,33.63 c 4.72,-1.99 23.26,-4.86 27.36,-5.34 3.47,-0.41 7.83,-0.96 11.28,-0.45 1.39,0.23 5.85,2.56 10.48,5.71 9.47,6.44 34.45,25.17 36.02,26.62 0.42,0.39 3.86,3.66 2.13,3.64 -1.75,-0.02 -3.49,0.09 -5.23,0.3 -2.95,0.35 -20.23,4.47 -28.07,6.38 -1.55,0.38 -5.75,1.15 -6.91,1.39 C 72.88,72.55 70.19,71.5 67.5,69.63 61.91,65.73 27.13,38.93 26.22,37.04 25.57,35.69 26.9,34.56 29.1,33.63 Z M 25.12,61.4 c -0.97,-0.98 -4.78,-3.49 -3.74,-6.68 1.12,-3.44 2.19,-9 2.42,-12.68 4.3,3.44 44.34,34.01 46.82,34.72 1.55,4.82 1.57,10.23 -0.15,14.99 -0.24,0.66 -0.43,1.31 -0.71,1.94 -1.1,-0.41 -2.18,-0.99 -3.34,-1.7 C 64.57,90.84 28.36,64.67 25.12,61.4 Z m 93.34,20.05 c -3.6,2.56 -9.03,3.6 -12.58,4.66 -7.62,2.26 -15.31,4.31 -23.01,6.28 -2.3,0.59 -4.61,1.28 -6.95,1.67 0.43,-0.95 0.79,-1.93 1.06,-2.96 0.69,-2.73 0.82,-5.64 0.53,-8.43 -0.16,-1.43 -0.22,-4.03 -0.56,-5.42 0.4,-0.03 9.83,-2.26 17.28,-4.16 7.58,-1.93 16.36,-4.6 21.65,-4.71 2.09,-0.04 3.63,0.93 4.32,1.5 1.84,1.51 2.27,4.3 1.81,6.52 -0.45,2.17 -1.78,3.79 -3.55,5.05 z"
           style="fill:#2f2f2f"
           id="path817" />
      </g>
      <path
         d="m 39.59,52.99 c 5.72,4.39 20.66,15.8 27.53,21.04 2.18,1.67 4.63,3.38 9.59,2.48 4.96,-0.9 35.97,-8.94 35.97,-8.94 2.82,-0.74 5.96,-0.94 8.86,-0.55 1.06,0.14 2.09,0.47 3.02,0.97 0.33,0.18 0.68,0.36 0.98,0.6 0.16,0.13 0.27,0.3 0.44,0.41 2.29,1.55 0.88,-3.09 0.62,-3.73 -0.63,-1.53 -1.5,-2.96 -2.5,-4.28 -0.8,-1.04 -1.69,-2.01 -2.66,-2.91 C 110.88,48.34 99.21,39.9 87.56,31.5 c -3,-2.16 -5.94,-4.4 -9.05,-6.39 -1.54,-0.98 -3.1,-1.95 -4.73,-2.77 -5.43,-2.71 -11.5,-2.44 -17.36,-1.77 -10.67,1.22 -21.34,1.82 -31.58,5.33 -2.86,0.98 -6.3,2.82 -6.95,6.26 -0.26,1.39 -0.26,3.81 2.19,5.98 1.79,1.58 11.97,9.06 19.51,14.85 z"
         style="fill:#006ca2"
         id="path821" />
    </g>
    <g
       id="g835">
      <g
         id="g831">
        <path
           d="M 115.93,54.96 C 115.65,48.71 113.55,44.65 109.72,41.13 100.18,32.32 88.68,23.91 78.09,16.38 73.18,12.89 67.72,8.28 62.03,6.15 54.01,3.14 44.94,4.21 36.36,5.43 c -3.76,0.53 -7.53,1.13 -11.22,2 -4.28,1.02 -9.37,2.23 -13,4.8 -3.26,2.31 -2.86,5.21 -1.26,7.88 0.23,1.23 0.01,2.4 0.02,3.65 0.02,2.36 -0.25,4.72 -0.83,7 -0.35,1.41 -0.84,2.77 -1.31,4.15 -1.82,5.34 3.23,9.81 6.98,12.91 2.1,1.73 4.34,3.29 6.45,5.01 8.19,6.67 16.6,12.7 24.98,19.05 9.83,7.45 13.59,10.04 25.86,5.85 3.31,-1.13 6.69,-2.03 10.09,-2.9 4.8,-1.23 11.17,-2.4 15.84,-4.04 4.74,-1.66 10.84,-3.86 14.32,-7.65 1.73,-1.89 2.48,-4.6 2.5,-7.12 0.11,-0.31 0.17,-0.66 0.15,-1.06 z"
           style="fill:#ffffff"
           id="path825" />
        <path
           d="m 19.32,14.65 c 4.72,-1.99 23.27,-4.87 27.36,-5.34 3.47,-0.4 7.84,-0.96 11.28,-0.45 1.38,0.23 5.85,2.56 10.48,5.71 9.47,6.44 34.45,25.17 36.02,26.62 0.42,0.39 3.85,3.66 2.12,3.64 -1.75,-0.02 -3.49,0.1 -5.23,0.3 -2.96,0.35 -20.23,4.46 -28.07,6.38 -1.55,0.38 -5.75,1.16 -6.91,1.39 -3.28,0.67 -5.97,-0.38 -8.66,-2.26 -5.59,-3.9 -40.37,-30.7 -41.28,-32.59 -0.63,-1.35 0.69,-2.48 2.89,-3.4 z"
           style="fill:#bdcf46"
           id="path827" />
        <path
           d="M 116.78,48.39 C 115.7,45.55 113.15,43.3 110.83,41.16 100.27,31.41 89.16,23.43 77.51,15.03 74.52,12.87 71.59,10.79 68.48,8.8 66.94,7.82 65.03,6.99 63.39,6.17 57.96,3.46 52.33,3.66 46.47,4.33 35.8,5.55 25.5,5.91 15.25,9.42 12.4,10.4 9.6,11.75 8.95,15.19 c -0.26,1.39 0.5,3.74 1.01,5 0.39,0.96 -2.9,12.98 -3.38,14.42 -1.22,3.59 0.54,6.81 2.99,9.5 1.34,1.48 39.08,30.57 40.03,31.26 3.6,2.65 6.45,4.46 9.5,5.33 3.85,1.11 8.03,0.69 14.43,-1.49 2.58,-0.88 23.26,-6.01 34.77,-10.56 3.92,-1.55 6.17,-3.63 7.09,-4.64 1.12,-1.22 1.84,-2.77 2.24,-4.4 0.24,-0.99 0.35,-2.02 0.37,-3.02 0.09,-0.31 -0.44,-6.14 -1.22,-8.2 z M 19.32,14.65 c 4.72,-1.99 23.27,-4.87 27.36,-5.34 3.47,-0.4 7.84,-0.96 11.28,-0.45 1.38,0.23 5.85,2.56 10.48,5.71 9.47,6.44 34.45,25.17 36.02,26.62 0.42,0.39 3.85,3.66 2.12,3.64 -1.75,-0.02 -3.49,0.1 -5.23,0.3 -2.96,0.35 -20.23,4.46 -28.07,6.38 -1.55,0.38 -5.75,1.16 -6.91,1.39 -3.28,0.67 -5.97,-0.38 -8.66,-2.26 -5.59,-3.9 -40.37,-30.7 -41.28,-32.59 -0.63,-1.35 0.69,-2.48 2.89,-3.4 z m -3.98,27.77 c -0.97,-0.98 -4.78,-3.5 -3.74,-6.68 1.12,-3.44 2.19,-9.01 2.43,-12.68 4.29,3.45 44.33,34.01 46.82,34.72 1.55,4.82 1.57,10.23 -0.15,15 -0.24,0.66 -0.43,1.3 -0.71,1.94 -1.11,-0.41 -2.18,-0.99 -3.34,-1.7 C 54.8,71.86 18.58,45.68 15.34,42.42 Z m 93.35,20.04 c -3.61,2.56 -9.03,3.6 -12.59,4.65 -7.62,2.26 -15.31,4.32 -23.01,6.28 -2.29,0.58 -4.61,1.28 -6.95,1.67 0.43,-0.95 0.8,-1.93 1.06,-2.96 0.69,-2.72 0.82,-5.64 0.52,-8.43 -0.16,-1.43 -0.21,-4.04 -0.55,-5.43 0.4,-0.03 9.83,-2.26 17.28,-4.15 7.58,-1.93 16.37,-4.6 21.65,-4.71 2.09,-0.04 3.63,0.92 4.33,1.5 1.84,1.51 2.26,4.3 1.8,6.52 -0.45,2.18 -1.78,3.81 -3.54,5.06 z"
           style="fill:#2f2f2f"
           id="path829" />
      </g>
      <path
         d="m 29.81,35.98 c 5.73,4.39 20.66,15.8 27.53,21.04 2.18,1.67 4.63,3.38 9.59,2.48 4.96,-0.9 35.97,-8.94 35.97,-8.94 2.83,-0.74 5.96,-0.94 8.86,-0.55 1.05,0.14 2.08,0.47 3.02,0.97 0.33,0.18 0.68,0.36 0.98,0.6 0.16,0.13 0.27,0.3 0.44,0.42 2.29,1.55 0.88,-3.1 0.62,-3.73 -0.63,-1.53 -1.5,-2.96 -2.5,-4.28 -0.8,-1.04 -1.69,-2.01 -2.65,-2.91 C 101.11,31.33 89.43,22.89 77.79,14.49 74.8,12.33 71.85,10.09 68.73,8.1 67.19,7.13 65.64,6.16 64,5.34 58.57,2.63 52.5,2.9 46.64,3.57 35.97,4.8 25.31,5.4 15.07,8.9 c -2.86,0.98 -6.31,2.82 -6.96,6.26 -0.26,1.39 -0.26,3.81 2.19,5.98 1.79,1.58 11.97,9.06 19.51,14.84 z"
         style="fill:#db4437"
         id="path833" />
    </g>
  </g>
  <g
     id="g1420"
     transform="matrix(0.11543962,0.43619434,-0.98129543,0.33486352,108.59442,23.946488)"
     style="stroke-width:1.46381">
    <g
       id="g25600"
       transform="rotate(-40.094677,15.918665,138.12339)"
       style="stroke-width:1.46381">
      <g
         aria-label="Blob Emoji:"
         id="text25582"
         style="font-weight:bold;font-size:11.1435px;font-family:'Comic Neue';-inkscape-font-specification:'Comic Neue Bold';fill:#2f2f2f;stroke-width:52.5588;stroke-linecap:round">
        <path
           d="m 26.314926,64.79399 q -0.356593,0 -0.501458,-0.144866 -0.144866,-0.144865 -0.144866,-0.468027 v -6.396369 q 0,-0.22287 0.167153,-0.378879 0.167153,-0.167153 0.378879,-0.167153 h 1.894395 q 0.802332,0 1.370651,0.278588 0.579462,0.267444 0.869193,0.724327 0.289731,0.44574 0.289731,0.969485 0,0.835762 -0.512601,1.392937 0.568318,0.267445 0.846906,0.713185 0.278587,0.434596 0.278587,1.080919 0,1.158924 -1.236928,1.78296 -1.236929,0.612893 -3.699642,0.612893 z m 2.172982,-4.535405 q 0.456884,0 0.746615,-0.312018 0.300874,-0.323162 0.300874,-0.724328 0,-0.390022 -0.378879,-0.646323 -0.367735,-0.267444 -1.047489,-0.267444 h -1.326076 v 1.950113 z m -1.704955,3.476772 q 1.482085,-0.02229 2.418139,-0.356592 0.947198,-0.334305 0.947198,-0.980628 0,-0.47917 -0.434597,-0.768901 -0.434596,-0.300875 -1.225785,-0.300875 h -1.704955 z"
           id="path1359"
           style="stroke-width:52.5588" />
        <path
           d="m 32.956453,64.771703 q -0.211727,0 -0.378879,-0.144866 -0.156009,-0.156009 -0.156009,-0.356592 v -6.46323 q 0,-0.22287 0.144865,-0.367736 0.156009,-0.156009 0.390023,-0.156009 0.211726,0 0.367735,0.156009 0.167153,0.156009 0.167153,0.367736 v 6.46323 q 0,0.200583 -0.167153,0.356592 -0.167152,0.144866 -0.367735,0.144866 z"
           id="path1361"
           style="stroke-width:52.5588" />
        <path
           d="m 36.9904,64.771703 q -0.635179,0 -1.170067,-0.345449 -0.523745,-0.345448 -0.824619,-0.936054 -0.300875,-0.601749 -0.300875,-1.303789 0,-0.791189 0.356592,-1.470943 0.356592,-0.690897 0.958341,-1.092063 0.601749,-0.412309 1.292646,-0.412309 0.63518,0 1.158924,0.356592 0.534888,0.356592 0.835763,0.947197 0.312018,0.590606 0.312018,1.27036 0,0.802332 -0.356592,1.493229 -0.356592,0.679753 -0.969485,1.092063 -0.601749,0.401166 -1.292646,0.401166 z m 0,-1.002915 q 0.390023,0 0.746615,-0.267444 0.356592,-0.267444 0.568318,-0.713184 0.211727,-0.44574 0.211727,-0.947198 0,-0.423453 -0.167153,-0.791188 -0.167152,-0.37888 -0.456883,-0.60175 -0.289731,-0.234013 -0.63518,-0.234013 -0.390022,0 -0.735471,0.278587 -0.334305,0.267444 -0.534888,0.724328 -0.200583,0.44574 -0.200583,0.958341 0,0.501458 0.167153,0.85805 0.178296,0.356592 0.44574,0.546031 0.278587,0.18944 0.590605,0.18944 z"
           id="path1363"
           style="stroke-width:52.5588" />
        <path
           d="m 41.325225,64.760559 q -0.222871,0 -0.367736,-0.144865 -0.144866,-0.144866 -0.144866,-0.356592 v -6.474374 q 0,-0.22287 0.156009,-0.356592 0.15601,-0.144866 0.37888,-0.144866 0.211726,0 0.367735,0.144866 0.156009,0.133722 0.156009,0.356592 v 2.184126 q 0.323162,-0.356592 0.713184,-0.512601 0.390023,-0.156009 0.85805,-0.156009 0.557175,0 1.014058,0.289731 0.456884,0.278587 0.724328,0.835762 0.278587,0.557176 0.278587,1.348364 0,1.426368 -0.657466,2.184126 -0.657467,0.746615 -1.794104,0.746615 -0.312018,0 -0.66861,-0.100292 -0.345448,-0.111435 -0.534888,-0.245157 v 0.06686 q 0,0.111435 -0.144865,0.22287 -0.133722,0.111435 -0.334305,0.111436 z m 1.604664,-1.103206 q 0.780045,0 1.125493,-0.490314 0.356592,-0.490314 0.356592,-1.392938 0,-0.690897 -0.267444,-1.047489 -0.267444,-0.356592 -0.724327,-0.356592 -0.423453,0 -0.780045,0.156009 -0.356592,0.156009 -0.568319,0.423453 -0.200583,0.267444 -0.200583,0.590606 v 1.927825 q 0.568319,0.18944 1.058633,0.18944 z"
           id="path1365"
           style="stroke-width:52.5588" />
        <path
           d="m 51.242946,64.704842 q -0.234014,0 -0.401166,-0.156009 -0.156009,-0.167153 -0.156009,-0.401166 v -6.351796 q 0,-0.234013 0.156009,-0.390022 0.167152,-0.167153 0.401166,-0.167153 h 4.446256 q 0.234014,0 0.390023,0.167153 0.156009,0.156009 0.156009,0.390022 0,0.234014 -0.156009,0.401166 -0.156009,0.156009 -0.390023,0.156009 h -3.900225 v 1.916682 h 3.387624 q 0.234014,0 0.390023,0.156009 0.156009,0.156009 0.156009,0.390023 0,0.234014 -0.156009,0.401166 -0.156009,0.156009 -0.390023,0.156009 h -3.387624 v 2.217557 h 3.877938 q 0.234014,0 0.390023,0.167152 0.156009,0.156009 0.156009,0.390023 0,0.234013 -0.156009,0.401166 -0.156009,0.156009 -0.390023,0.156009 z"
           id="path1367"
           style="stroke-width:52.5588" />
        <path
           d="m 57.77304,64.771703 q -0.211726,0 -0.378879,-0.156009 -0.156009,-0.156009 -0.156009,-0.367736 v -4.501974 q 0,-0.211727 0.156009,-0.367736 0.167153,-0.167152 0.378879,-0.167152 0.22287,0 0.378879,0.167152 0.156009,0.156009 0.156009,0.367736 v 0.780045 q 0.690897,-1.314933 1.838678,-1.314933 0.456883,0 0.791188,0.267444 0.345449,0.267444 0.490314,0.802332 0.713184,-1.069776 1.738386,-1.069776 0.690897,0 1.092063,0.534888 0.401166,0.523744 0.401166,1.582377 v 2.919597 q 0,0.211727 -0.167152,0.367736 -0.156009,0.156009 -0.367736,0.156009 -0.22287,0 -0.378879,-0.156009 -0.156009,-0.156009 -0.156009,-0.367736 V 61.2615 q 0,-0.512601 -0.144865,-0.768902 -0.144866,-0.2563 -0.456884,-0.2563 -0.323161,0 -0.646323,0.2563 -0.323161,0.256301 -0.534888,0.702041 -0.200583,0.44574 -0.200583,0.980628 v 2.072691 q 0,0.22287 -0.156009,0.378879 -0.156009,0.144866 -0.378879,0.144866 -0.211726,0 -0.378879,-0.156009 -0.156009,-0.156009 -0.156009,-0.367736 V 61.2615 q 0,-0.534888 -0.133722,-0.780045 -0.122578,-0.245157 -0.412309,-0.245157 -0.356592,0 -0.702041,0.289731 -0.345448,0.278587 -0.601749,0.679754 -0.200583,0.334305 -0.300874,0.66861 -0.08915,0.334305 -0.08915,0.735471 l 0.01114,1.638094 q 0,0.211727 -0.156009,0.367736 -0.156009,0.156009 -0.378879,0.156009 z"
           id="path1369"
           style="stroke-width:52.5588" />
        <path
           d="m 68.047345,64.771703 q -0.635179,0 -1.170067,-0.345449 -0.523745,-0.345448 -0.824619,-0.936054 -0.300875,-0.601749 -0.300875,-1.303789 0,-0.791189 0.356592,-1.470943 0.356592,-0.690897 0.958341,-1.092063 0.601749,-0.412309 1.292646,-0.412309 0.63518,0 1.158924,0.356592 0.534888,0.356592 0.835763,0.947197 0.312018,0.590606 0.312018,1.27036 0,0.802332 -0.356592,1.493229 -0.356592,0.679753 -0.969485,1.092063 -0.601749,0.401166 -1.292646,0.401166 z m 0,-1.002915 q 0.390023,0 0.746615,-0.267444 0.356592,-0.267444 0.568318,-0.713184 0.211727,-0.44574 0.211727,-0.947198 0,-0.423453 -0.167153,-0.791188 -0.167152,-0.37888 -0.456883,-0.60175 -0.289731,-0.234013 -0.63518,-0.234013 -0.390022,0 -0.735471,0.278587 -0.334305,0.267444 -0.534888,0.724328 -0.200583,0.44574 -0.200583,0.958341 0,0.501458 0.167153,0.85805 0.178296,0.356592 0.44574,0.546031 0.278587,0.18944 0.590605,0.18944 z"
           id="path1371"
           style="stroke-width:52.5588" />
        <path
           d="m 72.627323,58.653921 q -0.234014,0 -0.390023,-0.167153 -0.144865,-0.178296 -0.122578,-0.390022 l 0.04457,-0.479171 q 0.01114,-0.200583 0.167152,-0.323161 0.167153,-0.122579 0.367736,-0.122579 0.245157,0 0.390022,0.178296 0.156009,0.178296 0.133722,0.390023 l -0.04457,0.47917 q -0.01114,0.200583 -0.189439,0.323162 -0.167153,0.111435 -0.356592,0.111435 z m -0.880337,7.945316 q -0.456883,0 -0.85805,-0.289731 -0.401166,-0.289731 -0.612892,-0.66861 -0.122579,-0.211727 -0.122579,-0.323162 0,-0.211726 0.156009,-0.367735 0.156009,-0.156009 0.390023,-0.156009 0.356592,0 0.512601,0.378879 0.07801,0.200583 0.200583,0.300874 0.133722,0.111435 0.289731,0.111435 0.200583,0 0.312018,-0.211726 0.111435,-0.200583 0.111435,-0.601749 0,-0.534888 -0.01114,-1.236929 -0.01114,-0.713184 -0.02229,-1.415224 -0.03343,-1.504373 -0.03343,-2.38471 0,-0.234013 0.144866,-0.390022 0.156009,-0.156009 0.390022,-0.156009 0.211727,0 0.367736,0.167152 0.167152,0.156009 0.167152,0.367736 l 0.02229,2.273274 q 0.03343,1.548947 0.03343,2.540718 0,1.014059 -0.390023,1.537803 -0.390022,0.523745 -1.047489,0.523745 z"
           id="path1373"
           style="stroke-width:52.5588" />
        <path
           d="m 75.379765,58.743069 q -0.211727,0 -0.378879,-0.167153 -0.156009,-0.167152 -0.144866,-0.378879 l 0.01114,-0.412309 q 0.01114,-0.211727 0.167152,-0.367736 0.156009,-0.156009 0.367736,-0.156009 0.211726,0 0.367735,0.167153 0.167153,0.167152 0.156009,0.367735 l -0.01114,0.423453 q -0.01114,0.22287 -0.167153,0.378879 -0.144865,0.144866 -0.367734,0.144866 z m -0.05572,6.028634 q -0.22287,0 -0.390022,-0.156009 -0.156009,-0.167153 -0.156009,-0.390023 l 0.05572,-4.435113 q 0,-0.22287 0.156009,-0.378879 0.167153,-0.167153 0.390023,-0.167153 0.234013,0 0.390022,0.167153 0.156009,0.156009 0.156009,0.378879 l -0.05572,4.435113 q 0,0.22287 -0.167153,0.390023 -0.156009,0.156009 -0.378879,0.156009 z"
           id="path1375"
           style="stroke-width:52.5588" />
        <path
           d="m 77.909339,61.150065 q -0.2563,0 -0.423453,-0.178296 -0.156009,-0.18944 -0.156009,-0.456884 0,-0.278587 0.200583,-0.490314 0.200583,-0.22287 0.456884,-0.22287 0.245157,0 0.412309,0.178296 0.167153,0.178296 0.167153,0.434597 0,0.300874 -0.200583,0.523745 -0.18944,0.211726 -0.456884,0.211726 z m -0.300874,3.621638 q -0.256301,0 -0.41231,-0.178296 -0.156009,-0.18944 -0.156009,-0.456884 0,-0.278587 0.200583,-0.490314 0.200583,-0.22287 0.456884,-0.22287 0.245157,0 0.401166,0.18944 0.167152,0.178296 0.167152,0.434596 0,0.300875 -0.200583,0.512601 -0.189439,0.211727 -0.456883,0.211727 z"
           id="path1377"
           style="stroke-width:52.5588" />
      </g>
      <g
         aria-label="The Book"
         id="text25594"
         style="font-weight:bold;font-size:11.1435px;font-family:'Comic Neue';-inkscape-font-specification:'Comic Neue Bold';fill:#2f2f2f;stroke-width:52.5588;stroke-linecap:round">
        <path
           d="m 31.995531,75.497304 q -0.22287,0 -0.390023,-0.156009 -0.167152,-0.167153 -0.167152,-0.390023 v -5.872624 h -1.74953 q -0.22287,0 -0.390023,-0.167153 -0.156009,-0.167152 -0.156009,-0.390022 0,-0.234014 0.156009,-0.390023 0.167153,-0.156009 0.390023,-0.156009 h 4.613409 q 0.234014,0 0.390023,0.156009 0.156009,0.156009 0.156009,0.390023 0,0.234013 -0.156009,0.401166 -0.156009,0.156009 -0.390023,0.156009 h -1.760673 v 5.872624 q 0,0.22287 -0.167152,0.390023 -0.156009,0.156009 -0.378879,0.156009 z"
           id="path1380"
           style="stroke-width:52.5588" />
        <path
           d="m 36.230063,75.508447 q -0.211727,0 -0.378879,-0.156009 -0.156009,-0.167152 -0.156009,-0.378879 v -6.418656 q 0,-0.22287 0.156009,-0.378879 0.167152,-0.167152 0.401166,-0.167152 0.22287,0 0.367735,0.167152 0.144866,0.156009 0.144866,0.378879 v 2.395853 q 0.367735,-0.468027 0.835762,-0.746615 0.468027,-0.289731 0.936054,-0.289731 0.880337,0 1.236929,0.89148 0.356592,0.880337 0.356592,2.797019 0,1.080919 -0.03343,1.392937 -0.01114,0.211727 -0.167152,0.356592 -0.144866,0.144866 -0.356592,0.144866 -0.234014,0 -0.378879,-0.144866 -0.144866,-0.156009 -0.144866,-0.378879 0,-0.22287 0.01114,-0.367735 l 0.01114,-0.924911 q 0,-1.615807 -0.178296,-2.161839 -0.167152,-0.546031 -0.423453,-0.546031 -0.323161,0 -0.657466,0.300874 -0.334305,0.289731 -0.579462,0.657467 -0.234014,0.356592 -0.334305,0.568318 -0.133722,0.300875 -0.133722,0.791189 v 1.660381 q 0,0.256301 -0.156009,0.41231 -0.156009,0.144865 -0.378879,0.144865 z"
           id="path1382"
           style="stroke-width:52.5588" />
        <path
           d="m 43.985938,75.497304 q -0.791189,0 -1.426368,-0.334305 -0.624036,-0.345449 -0.980628,-0.969485 -0.356592,-0.635179 -0.356592,-1.493229 0,-0.70204 0.312018,-1.33722 0.323161,-0.646323 0.89148,-1.036345 0.579462,-0.390023 1.314933,-0.390023 0.679753,0 1.158924,0.278588 0.490314,0.267444 0.735471,0.646323 0.245157,0.378879 0.245157,0.679753 0,0.144866 -0.08915,0.278588 -0.08915,0.133722 -0.256301,0.234013 l -2.986458,1.716099 q 0.156009,0.345449 0.546032,0.534888 0.401166,0.18944 0.89148,0.18944 0.646323,0 1.103206,-0.479171 0.178296,-0.178296 0.367736,-0.178296 0.22287,0 0.367735,0.144866 0.156009,0.144865 0.156009,0.356592 0,0.178296 -0.133722,0.334305 -0.312018,0.345448 -0.835762,0.590605 -0.512601,0.234014 -1.025202,0.234014 z m 0.791188,-4.089665 q -0.133722,-0.234013 -0.378879,-0.345448 -0.245157,-0.122579 -0.579462,-0.122579 -0.635179,0 -1.069776,0.434597 -0.423453,0.434596 -0.490314,1.069776 -0.02229,0.167152 -0.02229,0.401166 z"
           id="path1384"
           style="stroke-width:52.5588" />
        <path
           d="m 51.719528,75.519591 q -0.356592,0 -0.501458,-0.144866 -0.144865,-0.144865 -0.144865,-0.468027 v -6.396369 q 0,-0.22287 0.167152,-0.378879 0.167153,-0.167152 0.378879,-0.167152 h 1.894395 q 0.802332,0 1.370651,0.278587 0.579462,0.267444 0.869193,0.724328 0.289731,0.44574 0.289731,0.969484 0,0.835763 -0.512601,1.392938 0.568318,0.267444 0.846906,0.713184 0.278587,0.434596 0.278587,1.080919 0,1.158924 -1.236928,1.78296 -1.236929,0.612893 -3.699642,0.612893 z m 2.172982,-4.535405 q 0.456884,0 0.746615,-0.312018 0.300874,-0.323161 0.300874,-0.724327 0,-0.390023 -0.378879,-0.646323 -0.367735,-0.267444 -1.047489,-0.267444 h -1.326076 v 1.950112 z m -1.704955,3.476772 q 1.482085,-0.02229 2.418139,-0.356592 0.947198,-0.334305 0.947198,-0.980628 0,-0.47917 -0.434597,-0.768901 -0.434596,-0.300875 -1.225785,-0.300875 h -1.704955 z"
           id="path1386"
           style="stroke-width:52.5588" />
        <path
           d="m 59.765136,75.497304 q -0.63518,0 -1.170068,-0.345449 -0.523744,-0.345448 -0.824619,-0.936054 -0.300874,-0.601749 -0.300874,-1.303789 0,-0.791189 0.356592,-1.470942 0.356592,-0.690897 0.958341,-1.092063 0.601749,-0.41231 1.292646,-0.41231 0.635179,0 1.158924,0.356592 0.534888,0.356592 0.835762,0.947198 0.312018,0.590605 0.312018,1.270359 0,0.802332 -0.356592,1.493229 -0.356592,0.679753 -0.969484,1.092063 -0.601749,0.401166 -1.292646,0.401166 z m 0,-1.002915 q 0.390022,0 0.746614,-0.267444 0.356592,-0.267444 0.568319,-0.713184 0.211726,-0.44574 0.211726,-0.947198 0,-0.423453 -0.167152,-0.791188 -0.167153,-0.378879 -0.456884,-0.601749 -0.289731,-0.234014 -0.635179,-0.234014 -0.390023,0 -0.735471,0.278588 -0.334305,0.267444 -0.534888,0.724327 -0.200583,0.44574 -0.200583,0.958341 0,0.501458 0.167152,0.85805 0.178296,0.356592 0.44574,0.546031 0.278588,0.18944 0.590606,0.18944 z"
           id="path1388"
           style="stroke-width:52.5588" />
        <path
           d="m 65.526328,75.497304 q -0.63518,0 -1.170068,-0.345449 -0.523744,-0.345448 -0.824619,-0.936054 -0.300874,-0.601749 -0.300874,-1.303789 0,-0.791189 0.356592,-1.470942 0.356592,-0.690897 0.958341,-1.092063 0.601749,-0.41231 1.292646,-0.41231 0.63518,0 1.158924,0.356592 0.534888,0.356592 0.835763,0.947198 0.312018,0.590605 0.312018,1.270359 0,0.802332 -0.356592,1.493229 -0.356592,0.679753 -0.969485,1.092063 -0.601749,0.401166 -1.292646,0.401166 z m 0,-1.002915 q 0.390023,0 0.746615,-0.267444 0.356592,-0.267444 0.568318,-0.713184 0.211727,-0.44574 0.211727,-0.947198 0,-0.423453 -0.167153,-0.791188 -0.167152,-0.378879 -0.456883,-0.601749 -0.289731,-0.234014 -0.63518,-0.234014 -0.390023,0 -0.735471,0.278588 -0.334305,0.267444 -0.534888,0.724327 -0.200583,0.44574 -0.200583,0.958341 0,0.501458 0.167152,0.85805 0.178296,0.356592 0.44574,0.546031 0.278588,0.18944 0.590606,0.18944 z"
           id="path1390"
           style="stroke-width:52.5588" />
        <path
           d="m 69.905726,75.497304 q -0.200583,0 -0.367735,-0.156009 -0.167153,-0.167153 -0.167153,-0.378879 l -0.02229,-6.4298 q 0,-0.211726 0.156009,-0.367735 0.167153,-0.156009 0.390023,-0.156009 0.234013,0 0.378879,0.167152 0.156009,0.156009 0.156009,0.378879 l 0.01114,3.610494 q 0.468027,-0.401166 1.092063,-1.036345 0.624036,-0.63518 1.058633,-1.158924 0.178296,-0.22287 0.434596,-0.22287 0.22287,0 0.367736,0.144865 0.156009,0.144866 0.156009,0.367736 0,0.189439 -0.111435,0.323161 -0.289731,0.390023 -0.735471,0.85805 -0.434597,0.468027 -0.802332,0.813475 l 1.838677,2.306705 q 0.144866,0.167152 0.144866,0.345448 0,0.234014 -0.156009,0.401166 -0.144866,0.156009 -0.378879,0.156009 -0.267444,0 -0.423453,-0.189439 -0.869193,-1.170068 -1.649238,-2.139552 l -0.178296,-0.234014 q -0.234014,0.178296 -0.646323,0.44574 v 1.615808 q 0,0.211726 -0.156009,0.378879 -0.156009,0.156009 -0.390023,0.156009 z"
           id="path1392"
           style="stroke-width:52.5588" />
      </g>
    </g>
    <path
       d="m -40.480441,12.998423 c -19.778725,15.746088 -2.594498,38.295372 0.900421,42.685354 3.49492,4.389983 15.390868,0.727866 26.573735,-8.174954 C -1.8202427,38.603477 4.4093973,27.830405 0.91700627,23.443593 -2.5779137,19.053615 -20.698538,-2.7501948 -40.480441,12.998423 Z"
       style="clip-rule:evenodd;fill:#fcc21b;fill-rule:nonzero;stroke-width:1.46381;stroke-linejoin:round;stroke-miterlimit:2"
       id="path23016" />
    <g
       id="g23020"
       style="clip-rule:evenodd;fill-rule:evenodd;stroke-width:3.60782;stroke-linejoin:round;stroke-miterlimit:2"
       transform="matrix(0.31742456,-0.25270562,0.25270562,0.31742456,-63.196778,26.083814)">
      <path
         d="m 42,58.3 c -4.49,0.04 -8.17,-4.27 -8.22,-9.62 -0.05,-5.37 3.55,-9.75 8.04,-9.79 4.48,-0.04 8.17,4.27 8.22,9.64 0.05,5.35 -3.55,9.72 -8.04,9.77 z m 44.11,0 c 4.48,-0.01 8.11,-4.36 8.1,-9.71 -0.01,-5.37 -3.66,-9.7 -8.14,-9.69 -4.49,0.01 -8.13,4.36 -8.12,9.73 0.02,5.35 3.67,9.68 8.16,9.67 z"
         style="fill:#2f2f2f;fill-rule:nonzero;stroke-width:3.60782"
         id="path23018" />
    </g>
    <path
       d="m -15.016854,23.765151 c -1.509,0.117452 -2.395047,1.53852 -3.307566,2.633198 -2.54057,3.04942 -5.193068,5.202596 -6.475464,6.223527 -1.282396,1.02093 -3.975324,3.123321 -7.516611,4.915736 -1.271362,0.643936 -2.854877,1.188916 -3.307563,2.633193 -0.574634,1.831781 2.743425,4.116995 6.324305,4.595668 2.164491,0.289015 6.886095,0.435196 11.555409,-3.282104 4.669316,-3.7173 5.585173,-8.351532 5.788668,-10.525732 0.33614,-3.597058 -1.150379,-7.340387 -3.061178,-7.193486 z"
       style="clip-rule:evenodd;fill:#e65619;fill-opacity:1;fill-rule:nonzero;stroke-width:1.46381;stroke-linejoin:round;stroke-miterlimit:2"
       id="path23022" />
    <path
       id="path23026"
       style="clip-rule:evenodd;fill:#fafafa;fill-rule:nonzero;stroke-width:1.46381;stroke-linejoin:round;stroke-miterlimit:2"
       d="m -34.713949,38.873073 c -0.411709,0.341315 -0.739986,0.755959 -0.909741,1.297561 -0.187192,0.596717 0.04334,1.241158 0.55684,1.855984 3.787769,-1.612361 7.980453,-4.175065 11.929352,-7.31531 3.944612,-3.140926 7.382705,-6.649884 9.806895,-9.980071 -0.484938,-0.641708 -1.061639,-1.014226 -1.685912,-0.966228 -1.508996,0.117443 -2.395022,1.538499 -3.307541,2.633177 -2.540568,3.049416 -5.193254,5.203026 -6.475649,6.223955 -1.282393,1.02093 -3.975172,3.122907 -7.516451,4.915328 -0.7946,0.402458 -1.711614,0.766746 -2.397796,1.335611 z" />
  </g>
</svg>
