<?xml version="1.0" encoding="UTF-8" standalone="no"?>
<svg
   width="128"
   height="128"
   version="1.1"
   id="svg17367"
   sodipodi:docname="emoji_u1f980.svg"
   inkscape:version="1.2.2 (732a01da63, 2022-12-09)"
   xmlns:inkscape="http://www.inkscape.org/namespaces/inkscape"
   xmlns:sodipodi="http://sodipodi.sourceforge.net/DTD/sodipodi-0.dtd"
   xmlns="http://www.w3.org/2000/svg"
   xmlns:svg="http://www.w3.org/2000/svg">
  <defs
     id="defs17371" />
  <sodipodi:namedview
     id="namedview17369"
     pagecolor="#ffffff"
     bordercolor="#000000"
     borderopacity="0.25"
     inkscape:showpageshadow="2"
     inkscape:pageopacity="0.0"
     inkscape:pagecheckerboard="0"
     inkscape:deskcolor="#d1d1d1"
     showgrid="false"
     inkscape:zoom="2.9996795"
     inkscape:cx="1.0001068"
     inkscape:cy="74.674643"
     inkscape:window-width="1366"
     inkscape:window-height="697"
     inkscape:window-x="-8"
     inkscape:window-y="-8"
     inkscape:window-maximized="1"
     inkscape:current-layer="svg17367" />
  <path
     d="m -119.45,63.34 -4.7,-4.13 c -1.36,-0.36 -2.74,0.53 -2.98,1.91 l -0.41,2.4 c -0.23,1.36 0.73,2.64 2.1,2.8 l 5.12,1.73 c 1.2,0.13 2.31,-0.64 2.6,-1.8 0.31,-1.28 -0.46,-2.57 -1.73,-2.91 z"
     id="path20706"
     style="fill:#b21818;fill-opacity:1" />
  <path
     d="m -50.92,58.29 c 1.94,-0.99 5,-2.86 7.11,-5.78 0.81,-1.12 0.38,-2.72 -0.84,-3.3 l -0.91,-0.43 c -0.94,-0.44 -2.06,-0.13 -2.64,0.76 -1.41,2.16 -3.46,3.91 -4.87,4.96 -0.89,0.66 -1.17,1.91 -0.63,2.89 0.55,1.02 1.77,1.42 2.78,0.9 z"
     id="path17267"
     style="fill:#b21818;fill-opacity:1" />
  <path
     d="m -128.01,58.82 -4.78,-0.95 c -1.66,0.1 -2.89,1.6 -2.65,3.24 l 0.41,2.83 c 0.23,1.61 1.78,2.68 3.38,2.35 l 4.22,-0.65 a 2.84,2.84 0 0 0 2.26,-2.97 c -0.1,-1.55 -1.29,-3.95 -2.84,-3.85 z"
     id="path17269"
     style="fill:#b21818;fill-opacity:1" />
  <path
     d="M -116.11,72.61 -123,70.23 c -1.36,-0.36 -2.74,0.53 -2.98,1.91 l -0.41,2.4 c -0.23,1.36 0.73,2.64 2.1,2.8 l 7.3,-0.02 c 1.2,0.13 2.31,-0.64 2.6,-1.8 0.32,-1.28 -0.45,-2.58 -1.72,-2.91 z"
     id="path20700"
     style="fill:#b21818;fill-opacity:1" />
  <path
     d="m -142.41,72.3 2.22,-0.85 c 1.49,-0.69 2.65,-1.5 2.95,-1.91 l 4.39,-3.73 c 0.45,-0.61 0.29,-1.81 -0.11,-2.45 l -1.39,-2.22 c -0.7,-1.12 -2.32,-1.15 -3.07,-0.07 l -7.02,9.25 c -0.92,1.28 0.46,2.15 2.03,1.98 z"
     id="path17271"
     style="fill:#b21818;fill-opacity:1" />
  <path
     d="m -127,71.06 -7.25,-1.56 c -1.66,0.1 -2.89,1.6 -2.65,3.24 l 0.41,2.83 c 0.23,1.61 1.78,2.68 3.38,2.35 l 6.84,-1.27 a 2.84,2.84 0 0 0 2.26,-2.97 2.81,2.81 0 0 0 -2.99,-2.62 z"
     id="path17273"
     style="fill:#b21818;fill-opacity:1" />
  <path
     d="m -111.74,82.55 -10.15,-1.32 c -1.39,-0.22 -2.67,0.81 -2.76,2.22 l -0.16,2.43 c -0.09,1.38 1,2.55 2.38,2.56 l 10.31,-1.1 c 1.2,0.01 2.23,-0.87 2.39,-2.07 0.18,-1.31 -0.72,-2.52 -2.01,-2.72 z"
     id="path20694"
     style="fill:#b21818;fill-opacity:1" />
  <path
     d="m -145.35,87.03 2.22,-0.85 c 1.49,-0.69 2.65,-1.5 2.95,-1.91 l 5.86,-6.83 c 0.45,-0.61 0.29,-1.81 -0.11,-2.45 l -1.39,-2.22 c -0.7,-1.12 -2.32,-1.15 -3.07,-0.07 l -8.5,12.35 c -0.91,1.29 0.47,2.15 2.04,1.98 z"
     id="path17275"
     style="fill:#b21818;fill-opacity:1" />
  <path
     d="m -125.79,82.47 -6.08,-0.16 a 2.84,2.84 0 0 0 -2.3,3.5 l 0.71,2.77 c 0.4,1.57 2.05,2.48 3.61,1.98 l 5.38,-2.61 c 1.36,-0.44 2.18,-1.8 1.94,-3.19 a 2.827,2.827 0 0 0 -3.26,-2.29 z"
     id="path17277"
     style="fill:#b21818;fill-opacity:1" />
  <path
     d="m -106.68,90.55 -12.82,0.72 c -1.84,0.1 -2.84,2.21 -1.74,3.7 l 2.25,3.07 c 0.58,0.79 1.6,1.13 2.54,0.85 l 10.83,-3.21 c 1.37,-0.4 2.05,-1.93 1.44,-3.22 l -0.27,-0.58 c -0.4,-0.86 -1.28,-1.38 -2.23,-1.33 z"
     id="path20688"
     style="fill:#b21818;fill-opacity:1" />
  <path
     d="m -140.31,98.05 2.11,-1.08 c 1.41,-0.84 2.3,-1.76 2.56,-2.2 l 4.52,-4.56 c 0.39,-0.65 0.1,-1.83 -0.37,-2.43 l -1.62,-2.06 c -0.82,-1.04 -2.43,-0.91 -3.06,0.25 l -6.39,10.32 c -0.75,1.38 0.71,2.1 2.25,1.76 z"
     id="path17279"
     style="fill:#b21818;fill-opacity:1" />
  <path
     d="m -120.39,93.78 -3.14,0.43 c -0.97,0.13 -1.74,0.89 -1.9,1.86 l -0.72,6.14 c -0.23,1.47 0.81,3.46 2.74,3.45 l 1.34,0.22 c 0.87,-0.12 1.59,-0.73 1.84,-1.58 l 2.27,-7.69 c 0.47,-1.54 -0.83,-3.05 -2.43,-2.83 z"
     id="path17281"
     style="fill:#b21818;fill-opacity:1" />
  <path
     d="m -50.44,63.34 4.7,-4.13 c 1.36,-0.36 2.74,0.53 2.98,1.91 l 0.41,2.4 c 0.23,1.36 -0.73,2.64 -2.1,2.8 l -5.12,1.73 c -1.2,0.13 -2.31,-0.64 -2.6,-1.8 a 2.43,2.43 0 0 1 1.73,-2.91 z"
     id="path20682"
     style="fill:#b21818;fill-opacity:1" />
  <path
     d="m -123.44,107.67 c 0,0 2.24,3.22 4.96,4.66 2.85,1.52 4.39,1.42 4.6,0.83 0.33,-0.96 -2.88,-3.1 -4.59,-5.34 -1.71,-2.24 -2.74,-4.1 -2.74,-4.1 -0.36,-0.38 -0.92,-0.5 -1.39,-0.28 -1.67,0.76 -2.09,2.91 -0.84,4.23 z"
     id="path17283"
     style="fill:#b21818;fill-opacity:1" />
  <path
     d="m -41.87,58.82 4.78,-0.95 c 1.66,0.1 2.89,1.6 2.65,3.24 l -0.41,2.83 c -0.23,1.61 -1.78,2.68 -3.38,2.35 l -4.22,-0.65 a 2.84,2.84 0 0 1 -2.26,-2.97 c 0.1,-1.55 1.28,-3.95 2.84,-3.85 z"
     id="path17285"
     style="fill:#b21818;fill-opacity:1" />
  <path
     d="m -53.77,72.61 6.89,-2.38 c 1.36,-0.36 2.74,0.53 2.98,1.91 l 0.41,2.4 c 0.23,1.36 -0.73,2.64 -2.1,2.8 l -7.3,-0.02 c -1.2,0.13 -2.31,-0.64 -2.6,-1.8 -0.32,-1.28 0.45,-2.58 1.72,-2.91 z"
     id="path20676"
     style="fill:#b21818;fill-opacity:1" />
  <path
     d="m -27.47,72.3 -2.22,-0.85 c -1.49,-0.69 -2.65,-1.5 -2.95,-1.91 l -4.39,-3.73 c -0.45,-0.61 -0.29,-1.81 0.11,-2.45 l 1.39,-2.22 c 0.7,-1.12 2.32,-1.15 3.07,-0.07 l 7.02,9.25 c 0.92,1.28 -0.46,2.15 -2.03,1.98 z"
     id="path17287"
     style="fill:#b21818;fill-opacity:1" />
  <path
     d="m -42.88,71.06 7.25,-1.56 c 1.66,0.1 2.89,1.6 2.65,3.24 l -0.41,2.83 c -0.23,1.61 -1.78,2.68 -3.38,2.35 l -6.84,-1.27 a 2.84,2.84 0 0 1 -2.26,-2.97 2.81,2.81 0 0 1 2.99,-2.62 z"
     id="path17289"
     style="fill:#b21818;fill-opacity:1" />
  <path
     d="m -58.14,82.55 10.15,-1.32 c 1.39,-0.22 2.67,0.81 2.76,2.22 l 0.16,2.43 c 0.09,1.38 -1,2.55 -2.38,2.56 l -10.31,-1.1 c -1.2,0.01 -2.23,-0.87 -2.39,-2.07 -0.18,-1.31 0.71,-2.52 2.01,-2.72 z"
     id="path20670"
     style="fill:#b21818;fill-opacity:1" />
  <path
     d="m -24.53,87.03 -2.22,-0.85 c -1.49,-0.69 -2.65,-1.5 -2.95,-1.91 l -5.86,-6.83 c -0.45,-0.61 -0.29,-1.81 0.11,-2.45 l 1.39,-2.22 c 0.7,-1.12 2.32,-1.15 3.07,-0.07 l 8.5,12.35 c 0.9,1.29 -0.47,2.15 -2.04,1.98 z"
     id="path17291"
     style="fill:#b21818;fill-opacity:1" />
  <path
     d="m -44.09,82.47 6.08,-0.16 a 2.84,2.84 0 0 1 2.3,3.5 l -0.71,2.77 c -0.4,1.57 -2.05,2.48 -3.61,1.98 l -5.38,-2.61 a 2.846,2.846 0 0 1 -1.94,-3.19 2.822,2.822 0 0 1 3.26,-2.29 z"
     id="path17293"
     style="fill:#b21818;fill-opacity:1" />
  <path
     d="m -63.2,90.55 12.82,0.72 c 1.84,0.1 2.84,2.21 1.74,3.7 l -2.25,3.07 a 2.33,2.33 0 0 1 -2.54,0.85 l -10.83,-3.21 a 2.318,2.318 0 0 1 -1.44,-3.22 l 0.27,-0.58 c 0.4,-0.86 1.28,-1.38 2.23,-1.33 z"
     id="path20664"
     style="fill:#b21818;fill-opacity:1" />
  <path
     d="m -29.57,98.05 -2.11,-1.08 c -1.41,-0.84 -2.3,-1.76 -2.56,-2.2 l -4.52,-4.56 c -0.39,-0.65 -0.1,-1.83 0.37,-2.43 l 1.62,-2.06 c 0.82,-1.04 2.43,-0.91 3.06,0.25 l 6.39,10.32 c 0.75,1.38 -0.71,2.1 -2.25,1.76 z"
     id="path17295"
     style="fill:#b21818;fill-opacity:1" />
  <path
     d="m -49.49,93.78 3.14,0.43 c 0.97,0.13 1.74,0.89 1.9,1.86 l 0.72,6.14 c 0.23,1.47 -0.81,3.46 -2.74,3.45 l -1.34,0.22 c -0.87,-0.12 -1.59,-0.73 -1.84,-1.58 l -2.27,-7.69 c -0.47,-1.54 0.83,-3.05 2.43,-2.83 z"
     id="path17297"
     style="fill:#b21818;fill-opacity:1" />
  <path
     d="m -46.44,107.67 c 0,0 -2.24,3.22 -4.96,4.66 -2.85,1.52 -4.39,1.42 -4.6,0.83 -0.33,-0.96 2.88,-3.1 4.59,-5.34 1.71,-2.24 2.74,-4.1 2.74,-4.1 0.36,-0.38 0.92,-0.5 1.39,-0.28 1.67,0.76 2.09,2.91 0.84,4.23 z"
     id="path17299"
     style="fill:#b21818;fill-opacity:1" />
  <circle
     cx="-99.1"
     cy="38.95"
     r="5.17"
     fill="#2f2f2f"
     id="circle17301" />
  <circle
     cx="-72.87"
     cy="38.79"
     r="5.17"
     fill="#2f2f2f"
     id="circle17303" />
  <path
     d="m -119.52,58.29 c -1.94,-0.99 -5,-2.86 -7.11,-5.78 -0.81,-1.12 -0.38,-2.72 0.84,-3.3 l 0.91,-0.43 c 0.94,-0.44 2.06,-0.13 2.64,0.76 1.41,2.16 3.46,3.91 4.87,4.96 0.89,0.66 1.17,1.91 0.63,2.89 -0.56,1.02 -1.78,1.42 -2.78,0.9 z"
     id="path20656"
     style="fill:#b21818;fill-opacity:1" />
  <path
     d="m -45.41,37.39 -3.68,1.12 c -1.54,0.47 -2.41,2.1 -1.94,3.64 l 2.05,6.72 a 2.917,2.917 0 0 0 2.97,2.06 l 1.83,-0.12 a 2.92,2.92 0 0 0 2.73,-2.98 l -0.2,-7.72 c -0.05,-1.93 -1.92,-3.28 -3.76,-2.72 z"
     id="path17305"
     style="fill:#b21818;fill-opacity:1" />
  <path
     d="m -125.04,37.39 3.68,1.12 c 1.54,0.47 2.41,2.1 1.94,3.64 l -2.05,6.72 a 2.917,2.917 0 0 1 -2.97,2.06 l -1.83,-0.12 A 2.92,2.92 0 0 1 -129,47.83 l 0.2,-7.72 c 0.05,-1.93 1.92,-3.28 3.76,-2.72 z"
     id="path17307"
     style="fill:#b21818;fill-opacity:1" />
  <path
     d="M-38.14 36.46c.45-3.91 1.36-10.13-3.4-16.06C-49.56 10.43-58.9 9.78-62.11 10s-1.95 1.44-.19 3.17c.81.8 3.31 2.89 5.05 5.32 1.79 2.48 2.8 5.29 1.98 5.84-1.39.93-4.99-1.61-6.14-3-1.24-1.51-1.44-1.98-2.67-4.23-1.2-2.21-1.53-3.25-2.01-2.65-.48.6-1.04 2.38-.76 4.68.24 1.9 1.23 3.93 1.81 6.33.99 4.12.17 3.19 1.52 8.33.8 3.04 1.95 4.83 5.4 7.58 3.76 3.01 7.76 2.71 9.37 2.89 2.5.27 5.26-1.13 8.01-2.62.68-.37 2.4-3.5 2.6-5.18zM-133.69 36.46c-.45-3.91-1.36-10.13 3.4-16.06 8.01-9.98 17.35-10.63 20.57-10.4 3.21.23 1.95 1.44.19 3.17-.81.8-3.31 2.89-5.05 5.32-1.79 2.48-2.8 5.29-1.98 5.84 1.39.93 4.99-1.61 6.14-3 1.24-1.51 1.44-1.98 2.67-4.23 1.2-2.21 1.53-3.25 2.01-2.65.48.6 1.04 2.38.76 4.68-.24 1.9-1.23 3.93-1.81 6.33-.99 4.12-.17 3.19-1.52 8.33-.8 3.04-1.95 4.83-5.4 7.58-3.76 3.01-7.76 2.71-9.37 2.89-2.5.27-5.26-1.13-8.01-2.62-.68-.37-2.4-3.5-2.6-5.18zM-65.88 96.2c-1.26.16-2.41.77-3.32 1.67-1.93 1.89-6.49 5.46-16.2 5.46-9.85 0-14.79-3.86-16.9-5.87a6.184 6.184 0 0 0-3.48-1.69c-6.94-.91-12.47-6.12-13.18-12.77l-3.7-18.46c-.9-8.43 6.15-13.57 15.34-15.73 0 0 10.24-2.67 21.92-2.67s21.92 2.67 21.92 2.67c9.32 2.16 15.94 7.05 15.39 15.18-.02.36-.09.73-.17 1.08l-4.36 18.35c-.73 6.68-6.29 11.9-13.26 12.78z"
     fill="#ea4832"
     id="path17313" />
  <path
     d="M-112.77 65.09c-1.24 0-2.31-.95-2.47-2.21-.24-1.92.59-5.7 5.19-7.7a2.48 2.48 0 0 1 3.26 1.29c.55 1.26-.03 2.71-1.29 3.26-2.21.96-2.25 2.35-2.24 2.62.17 1.36-.8 2.56-2.16 2.72-.1.01-.2.02-.29.02z"
     fill="#f48a84"
     id="path17315" />
  <path
     style="fill:#d86030;fill-opacity:1"
     d="m 29.51,62.96 -4.68,-4.11 a 2.39,2.39 0 0 0 -2.97,1.91 l -0.41,2.39 c -0.23,1.36 0.72,2.63 2.09,2.78 l 5.09,1.73 c 1.19,0.13 2.3,-0.63 2.59,-1.8 0.32,-1.28 -0.44,-2.57 -1.71,-2.9 z"
     id="path20598" />
  <path
     style="fill:#d86030;fill-opacity:1"
     d="m 97.74,57.93 c 1.93,-0.98 4.98,-2.85 7.08,-5.75 0.8,-1.11 0.38,-2.71 -0.84,-3.28 l -0.9,-0.42 c -0.93,-0.44 -2.05,-0.13 -2.63,0.75 -1.4,2.15 -3.44,3.89 -4.85,4.94 -0.89,0.66 -1.16,1.9 -0.63,2.88 0.55,1 1.77,1.39 2.77,0.88 z"
     id="path17317" />
  <path
     style="fill:#d86030;fill-opacity:1"
     d="M 20.98,58.45 16.22,57.5 c -1.66,0.1 -2.88,1.59 -2.64,3.22 l 0.41,2.82 c 0.23,1.6 1.78,2.67 3.37,2.34 l 4.2,-0.65 a 2.822,2.822 0 0 0 2.25,-2.96 c -0.1,-1.53 -1.28,-3.91 -2.83,-3.82 z"
     id="path17319" />
  <path
     style="fill:#d86030;fill-opacity:1"
     d="M 32.83,72.18 25.97,69.81 A 2.39,2.39 0 0 0 23,71.72 l -0.4,2.38 c -0.23,1.36 0.72,2.63 2.09,2.78 l 7.27,-0.02 c 1.19,0.13 2.3,-0.63 2.59,-1.8 0.31,-1.25 -0.45,-2.54 -1.72,-2.88 z"
     id="path20604" />
  <path
     style="fill:#d86030;fill-opacity:1"
     d="m 6.64,71.87 2.21,-0.85 c 1.48,-0.68 2.63,-1.49 2.94,-1.9 l 4.37,-3.72 c 0.45,-0.61 0.29,-1.8 -0.11,-2.44 L 14.66,60.75 A 1.836,1.836 0 0 0 11.6,60.68 l -7,9.21 c -0.89,1.29 0.48,2.16 2.04,1.98 z"
     id="path17321" />
  <path
     style="fill:#d86030;fill-opacity:1"
     d="m 21.99,70.64 -7.22,-1.55 c -1.66,0.1 -2.88,1.59 -2.64,3.22 l 0.41,2.82 c 0.23,1.6 1.78,2.67 3.37,2.34 l 6.81,-1.27 a 2.822,2.822 0 0 0 2.25,-2.96 2.818,2.818 0 0 0 -2.98,-2.6 z"
     id="path17323" />
  <path
     style="fill:#d86030;fill-opacity:1"
     d="m 37.18,82.08 -10.1,-1.32 c -1.39,-0.21 -2.66,0.81 -2.75,2.21 l -0.16,2.42 c -0.09,1.37 0.99,2.54 2.37,2.55 l 10.26,-1.1 c 1.2,0.01 2.22,-0.87 2.38,-2.06 0.19,-1.3 -0.71,-2.5 -2,-2.7 z"
     id="path20610" />
  <path
     style="fill:#d86030;fill-opacity:1"
     d="M 3.71,86.55 5.92,85.7 C 7.4,85.02 8.55,84.21 8.86,83.8 L 14.7,77 c 0.45,-0.61 0.29,-1.8 -0.11,-2.44 L 13.2,72.35 a 1.836,1.836 0 0 0 -3.06,-0.07 l -8.46,12.3 c -0.9,1.28 0.47,2.14 2.03,1.97 z"
     id="path17325" />
  <path
     style="fill:#d86030;fill-opacity:1"
     d="m 23.19,82.01 -6.06,-0.16 c -1.64,0.27 -2.7,1.88 -2.29,3.48 l 0.7,2.76 c 0.4,1.57 2.05,2.47 3.6,1.97 l 5.36,-2.6 a 2.832,2.832 0 0 0 1.93,-3.18 c -0.26,-1.52 -1.71,-2.53 -3.24,-2.27 z"
     id="path17327" />
  <path
     style="fill:#d86030;fill-opacity:1"
     d="m 42.22,90.05 -12.76,0.72 c -1.83,0.1 -2.82,2.2 -1.74,3.68 l 2.24,3.06 c 0.58,0.79 1.59,1.13 2.53,0.85 l 10.79,-3.2 a 2.32,2.32 0 0 0 1.44,-3.21 l -0.27,-0.58 a 2.32,2.32 0 0 0 -2.23,-1.32 z"
     id="path20616" />
  <path
     style="fill:#d86030;fill-opacity:1"
     d="m 8.74,97.52 2.11,-1.08 c 1.4,-0.84 2.29,-1.75 2.55,-2.19 l 4.5,-4.54 c 0.39,-0.65 0.1,-1.82 -0.37,-2.42 l -1.61,-2.05 c -0.81,-1.03 -2.41,-0.9 -3.05,0.25 L 6.5,95.76 c -0.75,1.38 0.7,2.09 2.24,1.76 z"
     id="path17329" />
  <path
     style="fill:#d86030;fill-opacity:1"
     d="m 28.57,93.27 -3.13,0.43 c -0.97,0.13 -1.73,0.89 -1.89,1.85 l -0.71,6.11 c -0.23,1.47 0.8,3.45 2.73,3.44 l 1.34,0.22 c 0.87,-0.12 1.58,-0.73 1.83,-1.57 L 31,96.1 c 0.46,-1.55 -0.84,-3.05 -2.43,-2.83 z"
     id="path17331" />
  <path
     style="fill:#d86030;fill-opacity:1"
     d="m 98.23,62.96 4.68,-4.11 a 2.39,2.39 0 0 1 2.97,1.91 l 0.41,2.39 c 0.23,1.36 -0.72,2.63 -2.09,2.78 l -5.09,1.73 c -1.19,0.13 -2.3,-0.63 -2.59,-1.8 -0.32,-1.28 0.44,-2.57 1.71,-2.9 z"
     id="path20622" />
  <path
     style="fill:#d86030;fill-opacity:1"
     d="m 25.53,107.1 c 0,0 2.23,3.21 4.93,4.64 2.84,1.51 4.37,1.42 4.58,0.82 0.33,-0.96 -2.87,-3.08 -4.57,-5.32 -1.7,-2.23 -2.73,-4.08 -2.73,-4.08 -0.35,-0.38 -0.91,-0.49 -1.39,-0.28 -1.64,0.76 -2.06,2.91 -0.82,4.22 z"
     id="path17333" />
  <path
     style="fill:#d86030;fill-opacity:1"
     d="m 106.75,58.45 4.76,-0.95 c 1.66,0.1 2.88,1.59 2.64,3.22 l -0.41,2.82 c -0.23,1.6 -1.78,2.67 -3.37,2.34 l -4.2,-0.65 a 2.822,2.822 0 0 1 -2.25,-2.96 c 0.1,-1.53 1.29,-3.91 2.83,-3.82 z"
     id="path17335" />
  <path
     style="fill:#d86030;fill-opacity:1"
     d="m 94.9,72.18 6.86,-2.37 a 2.39,2.39 0 0 1 2.97,1.91 l 0.41,2.39 c 0.23,1.36 -0.72,2.63 -2.09,2.78 l -7.27,-0.02 c -1.19,0.13 -2.3,-0.63 -2.59,-1.8 -0.31,-1.26 0.45,-2.55 1.71,-2.89 z"
     id="path20628" />
  <path
     style="fill:#d86030;fill-opacity:1"
     d="m 121.1,71.87 -2.21,-0.85 c -1.48,-0.68 -2.63,-1.49 -2.94,-1.9 l -4.37,-3.72 c -0.45,-0.61 -0.29,-1.8 0.11,-2.44 l 1.39,-2.21 c 0.7,-1.11 2.31,-1.15 3.06,-0.07 l 6.99,9.21 c 0.9,1.29 -0.47,2.16 -2.03,1.98 z"
     id="path17337" />
  <path
     style="fill:#d86030;fill-opacity:1"
     d="m 105.75,70.64 7.22,-1.55 c 1.66,0.1 2.88,1.59 2.64,3.22 l -0.41,2.82 c -0.23,1.6 -1.78,2.67 -3.37,2.34 l -6.81,-1.27 a 2.822,2.822 0 0 1 -2.25,-2.96 c 0.1,-1.53 1.43,-2.69 2.98,-2.6 z"
     id="path17339" />
  <path
     style="fill:#d86030;fill-opacity:1"
     d="m 90.56,82.08 10.1,-1.32 c 1.39,-0.21 2.66,0.81 2.75,2.21 l 0.16,2.42 c 0.09,1.37 -0.99,2.54 -2.37,2.55 l -10.26,-1.1 c -1.2,0.01 -2.22,-0.87 -2.38,-2.06 -0.19,-1.3 0.7,-2.5 2,-2.7 z"
     id="path20634" />
  <path
     style="fill:#d86030;fill-opacity:1"
     d="m 124.02,86.55 -2.21,-0.85 c -1.48,-0.68 -2.63,-1.49 -2.94,-1.9 L 113.03,77 c -0.45,-0.61 -0.29,-1.8 0.11,-2.44 l 1.39,-2.21 c 0.7,-1.11 2.31,-1.15 3.06,-0.07 l 8.46,12.3 c 0.91,1.28 -0.46,2.14 -2.03,1.97 z"
     id="path17341" />
  <path
     style="fill:#d86030;fill-opacity:1"
     d="m 104.54,82.01 6.06,-0.16 c 1.64,0.27 2.7,1.88 2.29,3.48 l -0.7,2.76 c -0.4,1.57 -2.05,2.47 -3.6,1.97 l -5.36,-2.6 a 2.832,2.832 0 0 1 -1.93,-3.18 2.801,2.801 0 0 1 3.24,-2.27 z"
     id="path17343" />
  <path
     style="fill:#d86030;fill-opacity:1"
     d="m 85.51,90.05 12.76,0.72 c 1.83,0.1 2.82,2.2 1.74,3.68 l -2.24,3.06 c -0.58,0.79 -1.59,1.13 -2.53,0.85 l -10.79,-3.2 a 2.32,2.32 0 0 1 -1.44,-3.21 l 0.27,-0.58 c 0.41,-0.85 1.29,-1.37 2.23,-1.32 z"
     id="path20640" />
  <path
     style="fill:#d86030;fill-opacity:1"
     d="m 119,97.52 -2.11,-1.08 c -1.4,-0.84 -2.29,-1.75 -2.55,-2.19 l -4.5,-4.54 c -0.39,-0.65 -0.1,-1.82 0.37,-2.42 l 1.61,-2.05 c 0.81,-1.03 2.41,-0.9 3.05,0.25 l 6.36,10.27 c 0.76,1.38 -0.69,2.09 -2.23,1.76 z"
     id="path17345" />
  <path
     style="fill:#d86030;fill-opacity:1"
     d="m 99.17,93.27 3.13,0.43 c 0.97,0.13 1.73,0.89 1.89,1.85 l 0.71,6.11 c 0.23,1.47 -0.8,3.45 -2.73,3.44 l -1.34,0.22 C 99.96,105.2 99.25,104.59 99,103.75 l -2.26,-7.66 c -0.46,-1.54 0.83,-3.04 2.43,-2.82 z"
     id="path17347" />
  <path
     style="fill:#d86030;fill-opacity:1"
     d="m 102.2,107.1 c 0,0 -2.23,3.21 -4.93,4.64 -2.84,1.51 -4.37,1.42 -4.58,0.82 -0.33,-0.96 2.87,-3.08 4.57,-5.32 1.7,-2.23 2.73,-4.08 2.73,-4.08 0.35,-0.38 0.91,-0.49 1.39,-0.28 1.65,0.76 2.07,2.91 0.82,4.22 z"
     id="path17349" />
  <ellipse
     cx="50.354172"
     cy="37.769184"
     rx="5.2557821"
     ry="6.0546122"
     fill="#2f2f2f"
     id="ellipse17351"
     style="stroke-width:0.999997" />
  <ellipse
     cx="76.215828"
     cy="37.58654"
     rx="5.2557821"
     ry="6.0546122"
     fill="#2f2f2f"
     id="ellipse17353"
     style="stroke-width:0.999997" />
  <path
     style="fill:#d86030;fill-opacity:1"
     d="m 29.43,57.93 c -1.93,-0.98 -4.98,-2.85 -7.08,-5.75 -0.8,-1.11 -0.38,-2.71 0.84,-3.28 l 0.9,-0.42 c 0.93,-0.44 2.05,-0.13 2.63,0.75 1.4,2.15 3.44,3.89 4.85,4.94 0.89,0.66 1.16,1.9 0.63,2.88 -0.55,1 -1.76,1.39 -2.77,0.88 z"
     id="path20648" />
  <path
     style="fill:#d86030;fill-opacity:1"
     d="m 103.23,37.12 -3.66,1.11 c -1.53,0.47 -2.4,2.09 -1.93,3.62 l 2.04,6.69 a 2.905,2.905 0 0 0 2.96,2.05 l 1.82,-0.12 c 1.56,-0.1 2.76,-1.41 2.72,-2.97 l -0.2,-7.69 c -0.05,-1.9 -1.91,-3.25 -3.75,-2.69 z"
     id="path17355" />
  <path
     style="fill:#d86030;fill-opacity:1"
     d="m 23.94,37.12 3.66,1.11 c 1.53,0.47 2.4,2.09 1.93,3.62 l -2.04,6.69 a 2.905,2.905 0 0 1 -2.96,2.05 L 22.71,50.47 A 2.902,2.902 0 0 1 19.99,47.5 l 0.2,-7.69 c 0.06,-1.9 1.92,-3.25 3.75,-2.69 z"
     id="path17357" />
  <path
     d="M110.47 36.2c.45-3.89 1.35-10.09-3.39-15.99C99.1 10.27 89.8 9.62 86.6 9.85c-3.2.22-1.94 1.43-.19 3.16.81.79 3.29 2.88 5.03 5.29 1.78 2.47 2.79 5.27 1.97 5.81-1.38.92-4.97-1.6-6.11-2.98-1.24-1.5-1.43-1.97-2.65-4.22-1.19-2.2-1.53-3.24-2-2.64-.48.6-1.04 2.37-.75 4.66.24 1.89 1.22 3.92 1.8 6.31.99 4.11.17 3.17 1.52 8.3.8 3.02 1.94 4.81 5.37 7.55 3.75 3 7.73 2.7 9.33 2.87 2.49.27 5.24-1.13 7.98-2.61.65-.37 2.38-3.49 2.57-5.15zM15.33 36.2c-.45-3.89-1.35-10.09 3.39-15.99C26.7 10.27 36 9.62 39.2 9.85c3.2.22 1.94 1.43.19 3.16-.81.79-3.29 2.88-5.03 5.29-1.78 2.47-2.79 5.27-1.97 5.81 1.38.92 4.97-1.6 6.11-2.98 1.24-1.5 1.43-1.97 2.65-4.22 1.19-2.2 1.53-3.24 2-2.64.48.6 1.04 2.37.75 4.66-.24 1.89-1.22 3.92-1.8 6.31-.99 4.11-.17 3.17-1.52 8.3-.8 3.02-1.94 4.81-5.37 7.55-3.75 3-7.73 2.7-9.33 2.87-2.49.27-5.24-1.13-7.98-2.61-.66-.37-2.38-3.49-2.57-5.15zM82.85 95.68c-1.25.16-2.4.77-3.31 1.66-1.92 1.88-6.47 5.44-16.13 5.44-9.81 0-14.73-3.85-16.83-5.85-.96-.91-2.16-1.51-3.46-1.68-6.91-.9-12.42-6.09-13.12-12.71l-3.69-18.38c-.89-8.39 6.13-13.51 15.27-15.66 0 0 10.2-2.66 21.83-2.66s21.82 2.66 21.82 2.66c9.28 2.15 15.87 7.02 15.32 15.12-.02.36-.09.72-.17 1.07l-4.35 18.27c-.7 6.64-6.24 11.84-13.18 12.72z"
     fill="#ed6c30"
     id="path17363"
     style="fill:#ed6c30;fill-opacity:1" />
  <path
     d="m 35.933115,66.523599 c -1.394038,0 -2.605522,-1.070421 -2.771479,-2.489352 -0.265531,-2.157438 0.663827,-6.414231 5.833382,-8.654648 1.410633,-0.61404 3.053605,0.03319 3.659348,1.443825 0.61404,1.410633 -0.03319,3.053605 -1.443825,3.659347 -2.481054,1.07872 -2.530841,2.638714 -2.514245,2.945734 0.19085,1.526803 -0.896167,2.871053 -2.42297,3.061903 -0.11617,0.02489 -0.232339,0.03319 -0.340211,0.03319 z"
     fill="#ffffff"
     id="path17365"
     style="stroke-width:0.999998" />
</svg>
