<?xml version="1.0" encoding="UTF-8" standalone="no"?>
<!-- Generator: Adobe Illustrator 16.0.0, SVG Export Plug-In . SVG Version: 6.00 Build 0)  -->

<svg
   version="1.1"
   id="レイヤー_1"
   x="0px"
   y="0px"
   width="128px"
   height="128px"
   viewBox="0 0 128 128"
   enable-background="new 0 0 128 128"
   xml:space="preserve"
   sodipodi:docname="emoji_u1f9e2.svg"
   inkscape:version="1.3 (0e150ed6c4, 2023-07-21)"
   xmlns:inkscape="http://www.inkscape.org/namespaces/inkscape"
   xmlns:sodipodi="http://sodipodi.sourceforge.net/DTD/sodipodi-0.dtd"
   xmlns="http://www.w3.org/2000/svg"
   xmlns:svg="http://www.w3.org/2000/svg"><defs
   id="defs12">&#10;	&#10;	&#10;&#10;		&#10;		&#10;		&#10;		&#10;	</defs><sodipodi:namedview
   id="namedview12"
   pagecolor="#ffffff"
   bordercolor="#000000"
   borderopacity="0.25"
   inkscape:showpageshadow="2"
   inkscape:pageopacity="0.0"
   inkscape:pagecheckerboard="0"
   inkscape:deskcolor="#d1d1d1"
   showguides="true"
   inkscape:zoom="2.8284271"
   inkscape:cx="68.766134"
   inkscape:cy="74.776542"
   inkscape:window-width="1366"
   inkscape:window-height="697"
   inkscape:window-x="-8"
   inkscape:window-y="-8"
   inkscape:window-maximized="1"
   inkscape:current-layer="レイヤー_1" />&#10;<circle
   style="fill:#005792;fill-opacity:1;stroke-width:5.99998;stroke-linecap:round"
   id="path12"
   cx="74.229645"
   cy="16.96051"
   r="8.7166052"
   transform="rotate(4.3952082)" /><path
   id="path13"
   style="fill:#b5b5b5;fill-opacity:1;stroke-width:6;stroke-linecap:round"
   d="m 81.121063,22.867422 c -26.839329,-6.929484 -52.871993,11.543255 -58.14533,41.25984 -0.555032,3.330739 -0.830387,6.722522 -0.822538,10.131899 0,0 11.609247,-2.171944 44.828647,12.611916 22.418928,9.97725 26.76544,20.354233 26.76544,20.354233 0,0 24.820518,-7.242076 27.636668,-26.936899 4.5465,-31.79632 -13.42363,-50.49115 -40.262887,-57.420989 z"
   sodipodi:nodetypes="cccscsc" /><g
   id="g5"
   transform="matrix(0.97070313,0,0,0.97070313,0.80489965,1.8343629)"
   style="stroke-width:1.03019">&#10;			<g
   id="g4"
   style="stroke-width:1.03019">&#10;				<g
   id="g3"
   style="stroke-width:1.03019">&#10;					<g
   id="g2"
   style="stroke-width:1.03019">&#10;						&#10;					</g>&#10;				</g>&#10;			</g>&#10;		</g><g
   id="g6"
   transform="matrix(0.97070313,0,0,0.97070313,0.80489965,1.8343629)"
   style="stroke-width:1.03019">&#10;			&#10;		</g>&#10;<path
   id="circle15"
   style="fill:#37b4e2;fill-opacity:1;stroke-width:6.00001;stroke-linecap:round"
   d="m 68.674414,21.425976 c -5.37114,0.136448 -10.569528,1.269075 -15.434397,3.246299 -8.778705,9.918061 -15.15497,23.885079 -17.655853,39.239303 -0.501018,3.15892 -0.813764,6.315492 -0.968871,9.457115 8.67693,2.079868 19.12384,5.654692 29.791839,11.888943 1.129815,0.66025 2.2097,1.306184 3.30613,1.957044 8.819542,4.001601 14.759438,8.034812 18.707716,11.431528 1.444928,0.814264 2.902993,1.633692 4.244121,2.404802 3.048257,-6.526344 5.314214,-13.746951 6.577519,-21.504313 3.071262,-19.138278 -0.39146,-39.080027 -8.644574,-54.351385 -2.403169,-0.884372 -4.897838,-1.661697 -7.47691,-2.327609 -4.193642,-1.08273 -8.368581,-1.545328 -12.44672,-1.441727 z" /><path
   fill="#005792"
   d="m 117.92342,92.237342 c 0,4.79527 -21.456323,21.614478 -28.181447,21.614478 -10.957906,0 -20.391552,-26.948762 -59.306219,-26.948762 -17.545349,0 -19.437083,13.856362 -24.7511812,10.788272 -7.3343915,-4.234513 8.9747432,-30.337472 38.5414282,-30.337472 46.953008,0 73.697419,18.125307 73.697419,24.883484 z"
   id="path1"
   style="stroke-width:1"
   sodipodi:nodetypes="ssssss" /></svg>
