<?xml version="1.0" encoding="UTF-8" standalone="no"?>
<svg
   height="128"
   width="128"
   version="1.1"
   id="svg32"
   sodipodi:docname="emoji_u1f9fb.svg"
   inkscape:version="1.3 (0e150ed6c4, 2023-07-21)"
   xmlns:inkscape="http://www.inkscape.org/namespaces/inkscape"
   xmlns:sodipodi="http://sodipodi.sourceforge.net/DTD/sodipodi-0.dtd"
   xmlns="http://www.w3.org/2000/svg"
   xmlns:svg="http://www.w3.org/2000/svg">
  <sodipodi:namedview
     id="namedview32"
     pagecolor="#ffffff"
     bordercolor="#000000"
     borderopacity="0.25"
     inkscape:showpageshadow="2"
     inkscape:pageopacity="0.0"
     inkscape:pagecheckerboard="0"
     inkscape:deskcolor="#d1d1d1"
     showguides="false"
     inkscape:zoom="0.50683594"
     inkscape:cx="69.055877"
     inkscape:cy="294.96724"
     inkscape:window-width="1366"
     inkscape:window-height="697"
     inkscape:window-x="-8"
     inkscape:window-y="-8"
     inkscape:window-maximized="1"
     inkscape:current-layer="svg32" />
  <defs
     id="defs4">
    <inkscape:path-effect
       effect="powerclip"
       id="path-effect33"
       is_visible="true"
       lpeversion="1"
       inverse="true"
       flatten="false"
       hide_clip="false"
       message="Use fill-rule evenodd on &lt;b&gt;fill and stroke&lt;/b&gt; dialog if no flatten result after convert clip to paths." />
    <linearGradient
       id="a">
      <stop
         offset="0"
         id="stop1" />
      <stop
         offset="1"
         stop-opacity="0"
         id="stop2" />
    </linearGradient>
    <clipPath
       id="c">
      <path
         d="M37.576 20.36L60.7 55.42l2.616-1.726.078-.04.365.047.064.128 2.035-1.342-.1-.198.174-.32 2.617-1.726.078-.04.364.047.065.128 2.035-1.342-.101-.198.175-.32 2.616-1.726.078-.04.365.047.064.128 2.035-1.342-.1-.198.175-.32 2.616-1.726.078-.04.365.047.064.128 2.035-1.343-.1-.197.174-.32 2.617-1.726.078-.04.364.046.065.129 2.035-1.343-.101-.197.175-.32 2.616-1.726.078-.04.365.046.064.128 2.035-1.342-.1-.197.175-.321 2.616-1.725.078-.04.365.046.064.128 2.035-1.342-.1-.197.174-.321 1.25-.825-23.121-35.06z"
         fill="#f8f8f8"
         stroke-width="14"
         paint-order="stroke fill markers"
         id="path2" />
    </clipPath>
    <clipPath
       id="e">
      <path
         d="M-.603 8.479L38.886 66.74l4.347-2.947.13-.07.612.072.11.214 3.383-2.293-.174-.328.287-.542L51.93 57.9l.13-.069.612.072.11.213 3.382-2.292-.173-.33.287-.54 4.348-2.947.13-.07.611.072.11.213 3.383-2.292-.173-.329.286-.541 4.348-2.947.13-.07.612.072.11.213 3.382-2.292-.173-.329.287-.541 4.348-2.947.13-.07.612.072.11.213 3.382-2.292-.173-.328.286-.542 4.348-2.947.13-.069.612.071.11.214 3.382-2.293-.173-.328.287-.542 4.348-2.946.13-.07.612.072.11.213 3.382-2.292-.173-.33.287-.54 2.078-1.41-39.489-58.26z"
         fill="#f8f8f8"
         stroke-width="14"
         paint-order="stroke fill markers"
         id="path3" />
    </clipPath>
    <clipPath
       id="d">
      <path
         d="M47.38-21.468L23.404 35.804l4.274 1.79.113.062.243.487-.104.184 3.324 1.392.16-.287.538-.049 4.274 1.79.113.062.243.486-.104.185 3.324 1.392.16-.287.538-.05 4.273 1.79.114.062.243.487-.104.184 3.324 1.392.16-.286.537-.05 4.274 1.79.114.062.243.487-.104.184 3.324 1.392.16-.287.537-.049 4.274 1.79.114.062.243.486-.105.185 3.325 1.391.159-.286.538-.05 4.274 1.79.114.062.242.487-.104.184 3.325 1.392.159-.286.538-.05 4.274 1.79.114.062.242.486-.104.185 3.325 1.392.159-.287.538-.05 2.043.856L109.26 4.44z"
         fill="#f8f8f8"
         stroke-width="14"
         paint-order="stroke fill markers"
         id="path4" />
    </clipPath>
  </defs>
  <g
     stroke-width="9.42867"
     id="g8"
     transform="matrix(0,1.4848242,1.4848242,0,-7.8987949,-60.212712)">
    <path
       d="m 62.526034,17.268 c 0,0 10.690415,13.9491 10.690212,31.155 -2.02e-4,17.205509 -10.690212,31.154 -10.690212,31.154 H 97.348 c 12.63527,0 22.87871,-6.453602 22.879,-31.154 2.9e-4,-24.700398 -10.24405,-31.155 -22.88,-31.155 z"
       fill="#f8f8f8"
       paint-order="stroke fill markers"
       id="path32"
       sodipodi:nodetypes="cscszsc"
       style="fill:#bdbdbd;fill-opacity:1;stroke-width:9.42867" />
    <path
       d="M 76.219788,48.423 C 76.219534,65.630105 69.791888,79.578504 61.863526,79.577 53.935899,79.576248 47.5094,65.628509 47.509145,48.423 c 0,-17.206431 6.426957,-31.155 14.355008,-31.155 7.928297,-7.52e-4 14.355635,13.948037 14.355635,31.155 z"
       fill="#e6e6e6"
       paint-order="stroke fill markers"
       id="path6"
       sodipodi:nodetypes="ccccc"
       style="fill:#eeeeee;stroke-width:9.42867" />
    <path
       id="ellipse6"
       style="fill:#2f2f2f;fill-opacity:1;stroke-width:9.42867;paint-order:stroke fill markers"
       d="m 66.013876,48.423 c 0,7.105696 -2.652549,12.866001 -5.924635,12.866001 -3.272087,0 -5.924636,-5.760305 -5.924636,-12.866001 0,-7.105696 2.65255,-12.866 5.924636,-12.866 3.272085,0 5.924635,5.760304 5.924635,12.866 z"
       sodipodi:nodetypes="sssss" />
    <path
       id="path5"
       clip-path="none"
       style="fill:#fafafa;fill-opacity:1;stroke-width:9.42867"
       d="m 62.525327,17.267856 h 34.821391 c 12.635922,0 22.881002,6.454295 22.880712,31.154644 0,9.01707 0.26497,14.255071 2.71294,24.096724 l -42.135157,3.634767 c 0,0 -3.937001,-9.556927 -4.824455,-28.069334 C 74.62958,19.898898 62.525327,17.267856 62.525327,17.267856 Z"
       sodipodi:nodetypes="cscccsc" />
  </g>
  <g
     opacity=".402"
     id="g32">
    <g
       transform="matrix(.09683 -.04818 .04832 .09712 62.758 39.13)"
       id="b"
       stroke-width="9.232"
       opacity=".642" />
  </g>
  <path
     d="m -395.11445,28.59527 c 0,0 20.71197,15.873388 46.25971,15.873085 25.54715,-2.99e-4 46.25821,-15.873085 46.25821,-15.873085 v 51.7045 c 0,18.76115 -9.58245,33.97087 -46.25821,33.97128 -36.67576,4.4e-4 -46.25971,-15.21061 -46.25971,-33.972767 z"
     fill="#f8f8f8"
     paint-order="stroke fill markers"
     id="path33"
     sodipodi:nodetypes="cscszsc"
     style="stroke-width:13.9999"
     clip-path="none" />
</svg>
