<?xml version="1.0" encoding="UTF-8" standalone="no"?>
<svg
   width="128"
   height="128"
   version="1.1"
   id="svg58"
   sodipodi:docname="emoji_u1f967.svg"
   inkscape:version="1.3 (0e150ed6c4, 2023-07-21)"
   xmlns:inkscape="http://www.inkscape.org/namespaces/inkscape"
   xmlns:sodipodi="http://sodipodi.sourceforge.net/DTD/sodipodi-0.dtd"
   xmlns="http://www.w3.org/2000/svg"
   xmlns:svg="http://www.w3.org/2000/svg"
   xmlns:rdf="http://www.w3.org/1999/02/22-rdf-syntax-ns#"
   xmlns:cc="http://creativecommons.org/ns#"
   xmlns:dc="http://purl.org/dc/elements/1.1/">
  <metadata
     id="metadata64">
    <rdf:RDF>
      <cc:Work
         rdf:about="">
        <dc:format>image/svg+xml</dc:format>
        <dc:type
           rdf:resource="http://purl.org/dc/dcmitype/StillImage" />
      </cc:Work>
    </rdf:RDF>
  </metadata>
  <defs
     id="defs62" />
  <sodipodi:namedview
     pagecolor="#ffffff"
     bordercolor="#666666"
     borderopacity="1"
     objecttolerance="10"
     gridtolerance="10"
     guidetolerance="10"
     inkscape:pageopacity="0"
     inkscape:pageshadow="2"
     inkscape:window-width="1366"
     inkscape:window-height="697"
     id="namedview60"
     showgrid="false"
     inkscape:object-nodes="false"
     inkscape:zoom="2"
     inkscape:cx="57.25"
     inkscape:cy="97.75"
     inkscape:window-x="-8"
     inkscape:window-y="-8"
     inkscape:window-maximized="1"
     inkscape:current-layer="svg58"
     inkscape:showpageshadow="2"
     inkscape:pagecheckerboard="0"
     inkscape:deskcolor="#d1d1d1" />
  <linearGradient
     id="a"
     gradientTransform="rotate(2.292 65.738 66.222)"
     gradientUnits="userSpaceOnUse"
     x1="53.505"
     x2="53.505"
     y1="22.295"
     y2="10.358">
    <stop
       offset="0"
       stop-color="#c29f76"
       id="stop2" />
  </linearGradient>
  <linearGradient
     id="b"
     gradientTransform="rotate(2.292 65.738 66.222)"
     gradientUnits="userSpaceOnUse"
     x1="70.932"
     x2="70.932"
     y1="11.915"
     y2="29.375">
    <stop
       offset=".019"
       stop-color="#f8dfc2"
       id="stop7" />
  </linearGradient>
  <linearGradient
     id="c"
     gradientTransform="rotate(2.292 65.738 66.222)"
     gradientUnits="userSpaceOnUse"
     x1="90.734"
     x2="90.734"
     y1="19.497"
     y2="37.69">
    <stop
       offset=".019"
       stop-color="#f8dfc2"
       id="stop12" />
  </linearGradient>
  <linearGradient
     id="d"
     gradientTransform="rotate(2.292 65.738 66.222)"
     gradientUnits="userSpaceOnUse"
     x1="111.296"
     x2="111.296"
     y1="33.427"
     y2="52.659">
    <stop
       offset=".019"
       stop-color="#f8dfc2"
       id="stop17" />
  </linearGradient>
  <linearGradient
     id="e"
     gradientTransform="rotate(2.292 65.738 66.222)"
     gradientUnits="userSpaceOnUse"
     x1="63.955"
     x2="63.955"
     y1="56.614"
     y2="113.225">
    <stop
       offset="0"
       stop-color="#a68367"
       id="stop24" />
  </linearGradient>
  <linearGradient
     id="f"
     gradientTransform="rotate(2.292 65.738 66.222)"
     gradientUnits="userSpaceOnUse"
     x1="7.025"
     x2="82.139"
     y1="96.858"
     y2="35.144">
    <stop
       offset=".019"
       stop-color="#f89d53"
       id="stop33" />
  </linearGradient>
  <path
     id="path1-8"
     style="clip-rule:evenodd;fill:#fcc21b;fill-opacity:1;fill-rule:nonzero;stroke-width:1;stroke-linejoin:round;stroke-miterlimit:2"
     d="M 50.87759,5.9630918 C 43.32084,7.2136844 45.581999,14.885479 43.523438,17.279297 23.400224,40.679776 13.415708,63.482865 5.8046875,90.755859 c -0.133272,-0.03851 -0.2687994,-0.07253 -0.4121094,-0.07617 -0.9108852,-0.01765 -1.6636936,0.706308 -1.6816406,1.617187 0,0 -0.2821699,14.028934 -0.3320313,23.042964 -0.013288,2.40229 1.0640606,4.42867 2.4921876,5.80078 1.4281268,1.37213 3.186209,2.19545 4.9765622,2.18165 16.847045,-0.12997 42.304207,-5.12111 64.576172,-11.01758 11.135983,-2.94825 21.455245,-6.12549 29.472652,-9.05664 4.00873,-1.46559 7.44126,-2.86774 10.13477,-4.166018 2.69351,-1.298275 4.61873,-2.400666 5.83398,-3.708984 1.42348,-1.532455 1.6153,-3.601592 1.87305,-6.375 0.25775,-2.773408 0.30468,-6.205523 0.26172,-9.951172 -0.0853,-7.43818 0.46588,-16.846291 0.79883,-23.755859 0.3742,-7.765675 3.86755,-13.013725 -1.33985,-16.921875 -6.05605,-4.547288 -9.87019,0.712336 -16.4082,-2.326172 -1.06872,-0.492451 -1.65421,-1.362212 -2.11523,-2.441407 -0.002,0.0068 -0.002,0.01275 -0.004,0.01953 -0.003,-0.01057 -0.005,-0.01871 -0.008,-0.0293 -1.02681,-2.409853 -1.40405,-5.919946 -4.914064,-8.9375 -1.393525,-1.194449 -3.215399,-2.629702 -6.253907,-3.164063 -2.45176,-0.440057 -5.648027,1.43497 -8.068359,0.638672 -0.949136,-0.302469 -1.678748,-0.95855 -2.326172,-1.75 C 81.030629,18.74447 79.270432,13.174994 74.446082,11.895262 68.166077,10.229396 66.384065,15.115306 63.53125,14.095703 61.158506,13.247678 58.434341,4.7124993 50.87759,5.9630918 Z"
     sodipodi:nodetypes="sscccsscssssssscccccccccsss" />
  <g
     id="path882" />
  <path
     style="fill:#ffcc80;fill-opacity:1;stroke:none;stroke-width:4;stroke-linecap:round;stroke-linejoin:round;stroke-miterlimit:4;stroke-dasharray:none;stroke-dashoffset:0;stroke-opacity:1"
     d="M 6.3601083,97.456354 C 13.093518,70.121522 24.526835,44.032736 45.041415,23.843695 72.946675,30.371438 90.287375,48.303781 114.72774,62.75125 82.292745,82.318299 49.494938,91.136704 6.3601083,97.456354 Z"
     id="path888-3"
     inkscape:connector-curvature="0"
     sodipodi:nodetypes="cccc" />
  <path
     id="path17351"
     d="m 48.76644,31.16988 c -1.014242,0.618936 0.415526,4.524776 -0.658773,6.050831 -0.843828,1.198665 -2.693775,2.134072 -5.028142,2.249954 -2.334365,0.115881 -3.436981,0.744082 -4.569397,2.116363 -1.261551,1.53086 -1.256585,3.775304 -1.256585,3.775304 0,0 -1.996627,0.908756 -2.751572,3.031219 -0.794677,2.232247 -0.278137,4.061957 -0.278137,4.061957 0,0 -2.920441,1.116123 -3.590951,4.409601 -0.511574,2.5189 0.941761,5.223269 2.198346,6.54066 1.256584,1.31739 6.24552,5.233637 18.403679,4.852334 12.822881,-0.402151 16.327947,-5.504663 17.358327,-6.907027 1.786372,-2.431276 1.147733,-6.943878 -0.903529,-8.371052 -2.051262,-1.433273 -3.451881,-1.2564 -3.451881,-1.2564 0,0 0.700308,-3.836294 0.09437,-5.092694 -0.605943,-1.2564 -1.306251,-2.061473 -2.468468,-2.805555 -1.167183,-0.744083 -1.723458,-0.689191 -1.723458,-0.689191 0,0 0.878212,-4.183017 -4.237525,-8.153489 -3.451391,-2.678723 -6.122059,-4.431751 -7.136302,-3.812815 z"
     style="clip-rule:evenodd;fill:#ffffff;fill-rule:nonzero;stroke-width:0.999993;stroke-linejoin:round;stroke-miterlimit:2"
     sodipodi:nodetypes="zsscccccsssccsccsz" />
  <g
     id="path890">
    <path
       id="path1"
       style="color:#000000;fill:#f79329;stroke-linecap:round;stroke-linejoin:round;-inkscape-stroke:none"
       d="M 39.365259,21.525197 C 24.954126,39.743831 10.105583,69.342527 4.8430592,83.52489 c -3.1691803,8.540858 -1.4682354,32.87492 -1.4682354,32.87492 0.00538,0.80754 0.2560282,1.20568 1.1694094,1.06537 23.3737938,-3.59058 34.4853038,-5.38256 52.2077198,-9.97962 17.663658,-4.5818 33.62137,-10.186409 56.493717,-17.381423 1.41411,-0.444843 2.09761,-1.364414 2.2213,-2.673395 0.89439,-9.465216 0.38246,-16.337069 0.76741,-27.088945 0.004,-0.11047 -0.0471,-0.221713 -0.0254,-0.330078 0.16403,-0.819714 -0.1235,-1.699406 -0.92187,-2.210938 C 92.16544,42.986177 61.962595,23.1641 46.351212,18.459895 c -3.14866,-0.948791 -5.056988,0.626694 -6.985953,3.065302 z m 6.775173,4.908994 c 2.716325,-5.86e-4 10.368865,5.137479 16.246572,8.321889 14.853679,8.04739 39.248596,21.654911 42.801096,27.140318 0.62836,0.970258 0.37701,2.629674 -1.41756,3.182755 L 17.451038,91.682575 C 14.346145,92.639494 11.931721,92.258539 11.226856,91.0493 9.118183,87.43175 16.22893,73.120794 23.786001,58.783612 30.254375,46.51189 37.278723,34.064485 44.895639,26.747235 c 0.200453,-0.192567 0.856747,-0.312959 1.244793,-0.313044 z"
       sodipodi:nodetypes="sssssssssssssssssssss" />
  </g>
</svg>
