<?xml version="1.0" encoding="UTF-8" standalone="no"?>
<svg
   width="128"
   height="128"
   style="enable-background:new 0 0 128 128;"
   version="1.1"
   id="svg30246"
   sodipodi:docname="emoji_u1f98d.svg"
   inkscape:version="1.2.2 (732a01da63, 2022-12-09)"
   xmlns:inkscape="http://www.inkscape.org/namespaces/inkscape"
   xmlns:sodipodi="http://sodipodi.sourceforge.net/DTD/sodipodi-0.dtd"
   xmlns="http://www.w3.org/2000/svg"
   xmlns:svg="http://www.w3.org/2000/svg">
  <defs
     id="defs30250" />
  <sodipodi:namedview
     id="namedview30248"
     pagecolor="#ffffff"
     bordercolor="#000000"
     borderopacity="0.25"
     inkscape:showpageshadow="2"
     inkscape:pageopacity="0.0"
     inkscape:pagecheckerboard="0"
     inkscape:deskcolor="#d1d1d1"
     showgrid="false"
     inkscape:zoom="2.1210938"
     inkscape:cx="17.208103"
     inkscape:cy="73.075506"
     inkscape:window-width="1366"
     inkscape:window-height="697"
     inkscape:window-x="-8"
     inkscape:window-y="-8"
     inkscape:window-maximized="1"
     inkscape:current-layer="svg30246" />
  <path
     d="m 106.91216,35.487004 c 2.50686,-0.04076 10.30259,5.095246 4.94239,19.555555 l -7.34734,-5.278675 z"
     style="fill:#999999;stroke-width:0.981307"
     id="path30202" />
  <path
     d="m 107.64588,41.6013 c 0,0 4.00486,1.498002 3.44438,5.79839 -0.12228,0.957906 -1.46743,1.141335 -1.84447,0.254762 -0.40762,-0.957906 -1.05982,-1.834289 -2.08906,-2.089051 z"
     style="fill:#2f2f2f;stroke-width:0.981307"
     id="path30204" />
  <path
     d="m 21.10822,35.487004 c -2.506861,-0.04076 -10.302587,5.095246 -4.942388,19.555555 l 7.347344,-5.278675 z"
     style="fill:#999999;stroke-width:0.981307"
     id="path30206" />
  <path
     id="path30208"
     style="fill:#2f2f2f;stroke-width:0.981307"
     d="M 64 0.890625 C 59.475427 1.186149 46.79876 0.72652077 36.353516 8.8789062 C 36.353516 8.8789062 38.890677 8.2988281 40.154297 8.2988281 C 40.154297 8.2988281 34.365273 9.521794 29.585938 13.964844 C 24.460125 18.73399 21.067598 24.501483 20.945312 29.525391 C 20.945312 29.525391 21.830815 28.913237 22.890625 27.996094 C 22.890625 27.996094 18.215024 39.97124 21.068359 48.765625 C 21.068359 48.765625 14.749046 54.481799 12.242188 65.365234 C 12.242188 65.365234 14.289934 62.849202 16.705078 62.15625 C 16.705078 62.15625 11.956972 68.035545 10.927734 75.943359 C 10.173638 81.762125 10.642578 85.410156 10.642578 85.410156 C 10.642578 85.410156 11.927185 82.058364 13.486328 81.080078 C 13.486328 81.080078 12.201402 96.783043 19.691406 102.87695 C 19.691406 102.87695 19.416244 99.513284 20.394531 98.117188 C 20.394531 98.117188 22.157076 102.63208 29.585938 108.31836 C 35.934607 113.17922 38.1875 119.57812 38.1875 119.57812 C 38.1875 119.57812 40.938781 117.36766 40.673828 115.7168 C 40.673828 115.7168 42.71147 121.49458 48.367188 124.1543 C 48.367188 124.1543 48.124125 121.91342 49.082031 120.47656 C 49.082031 120.47656 49.813903 122.33133 51.373047 123.47266 C 53.095239 124.73627 54.441092 125.35648 56.744141 125.75391 C 56.744141 125.75391 55.592387 124.48008 55.765625 123.31836 C 55.765625 123.31836 57.091305 124.48105 59.679688 125.12305 C 62.26807 125.76505 63.194952 126.52852 64 127.10938 C 64.805048 126.52852 65.73193 125.76505 68.320312 125.12305 C 70.908695 124.48105 72.234375 123.31836 72.234375 123.31836 C 72.407613 124.48008 71.255859 125.75391 71.255859 125.75391 C 73.558908 125.35648 74.904761 124.73627 76.626953 123.47266 C 78.186097 122.33133 78.917969 120.47656 78.917969 120.47656 C 79.875875 121.91342 79.632812 124.1543 79.632812 124.1543 C 85.28853 121.49458 87.326172 115.7168 87.326172 115.7168 C 87.061219 117.36766 89.8125 119.57812 89.8125 119.57812 C 89.8125 119.57812 92.065393 113.17922 98.414062 108.31836 C 105.84292 102.63208 107.60547 98.117188 107.60547 98.117188 C 108.58375 99.513284 108.30859 102.87695 108.30859 102.87695 C 115.7986 96.783043 114.51367 81.080078 114.51367 81.080078 C 116.07282 82.058364 117.35742 85.410156 117.35742 85.410156 C 117.35742 85.410156 117.82636 81.762125 117.07227 75.943359 C 116.04303 68.035545 111.29492 62.15625 111.29492 62.15625 C 113.71007 62.849202 115.75781 65.365234 115.75781 65.365234 C 113.25096 54.481799 106.93164 48.765625 106.93164 48.765625 C 109.78498 39.97124 105.10938 27.996094 105.10938 27.996094 C 106.16918 28.913237 107.05469 29.525391 107.05469 29.525391 C 106.9324 24.501483 103.53988 18.73399 98.414062 13.964844 C 93.634727 9.521794 87.845703 8.2988281 87.845703 8.2988281 C 89.109323 8.2988281 91.646484 8.8789062 91.646484 8.8789062 C 81.20124 0.72652077 68.524573 1.186149 64 0.890625 z " />
  <path
     id="path30212"
     style="fill:#999999;stroke-width:0.981307"
     d="M 44.3125 39.951172 C 35.151257 39.951172 29.271135 48.927635 29.607422 62.5625 C 29.648182 64.305072 30.890411 65.804168 32.582031 66.191406 C 36.617462 67.11874 43.619896 69.676886 43.976562 76.208984 C 44.475896 85.41099 37.586993 84.54493 39.482422 97.333984 C 41.377852 110.12304 58.140048 110.31641 64.009766 110.31641 C 69.879484 110.31641 86.643632 110.12304 88.539062 97.333984 C 90.434492 84.54493 83.545588 85.41099 84.044922 76.208984 C 84.401589 69.676886 91.402069 67.11874 95.4375 66.191406 C 97.129119 65.804168 98.373303 64.305072 98.414062 62.5625 C 98.750349 48.927635 92.870227 39.951172 83.708984 39.951172 C 73.864978 39.951172 65.742148 47.379499 64.009766 47.318359 C 62.277384 47.379499 54.156506 39.951172 44.3125 39.951172 z " />
  <path
     d="m 59.750566,70.083725 c -0.112096,-0.917145 -2.588385,-2.832957 -4.392102,-2.985814 -1.630479,-0.142667 -3.811244,0.917144 -5.941057,2.618956 -2.445718,1.956574 -3.036767,4.290197 -3.036767,6.358867 0,2.06867 0.346477,5.879914 3.913149,7.25563 0,0 -1.844479,-2.588385 -1.844479,-5.706675 0,-3.51572 1.100573,-4.667246 2.965433,-6.277343 1.732384,-1.498003 2.843148,-1.987146 4.015054,-2.099242 1.966765,-0.173238 4.320769,0.835621 4.320769,0.835621 z"
     style="fill:#2f2f2f;stroke-width:0.981307"
     id="path30216" />
  <path
     d="m 60.810377,79.754502 c -0.264953,-1.090383 -0.672572,-2.078861 -3.444386,-3.454577 -2.771814,-1.385907 -4.677436,-1.640669 -4.677436,0.692953 0,2.333623 1.120954,3.892768 1.905622,4.320769 0.774477,0.428001 4.922008,1.987146 5.706675,1.385907 0.784668,-0.601239 0.764287,-1.885241 0.509525,-2.945052 z"
     style="fill:#2f2f2f;stroke-width:0.981307"
     id="path30218" />
  <path
     d="m 67.852007,70.083725 c 0.112095,-0.917145 2.588385,-2.832957 4.392102,-2.985814 1.630479,-0.142667 3.811244,0.917144 5.941057,2.618956 2.445718,1.956574 3.036766,4.290197 3.036766,6.358867 0,2.06867 -0.346476,5.879914 -3.913148,7.25563 0,0 1.844479,-2.588385 1.844479,-5.706675 0,-3.51572 -1.100574,-4.667246 -2.965434,-6.277343 -1.732383,-1.498003 -2.843147,-1.987146 -4.015053,-2.099242 -1.966765,-0.173238 -4.320769,0.835621 -4.320769,0.835621 z"
     style="fill:#2f2f2f;stroke-width:0.981307"
     id="path30220" />
  <path
     d="m 66.792196,79.754502 c 0.264953,-1.090383 0.672572,-2.078861 3.444386,-3.454577 2.771814,-1.385907 4.677436,-1.640669 4.677436,0.692953 0,2.333623 -1.120954,3.892768 -1.905622,4.320769 -0.774477,0.428001 -4.922008,1.987146 -5.706676,1.385907 -0.774477,-0.61143 -0.774477,-1.885241 -0.509524,-2.945052 z"
     style="fill:#2f2f2f;stroke-width:0.981307"
     id="path30222" />
  <ellipse
     cx="80.549355"
     cy="55.042557"
     rx="4.8608646"
     ry="5.8391519"
     style="fill:#2f2f2f;stroke-width:0.981307"
     id="ellipse30224" />
  <ellipse
     cx="46.492737"
     cy="55.042557"
     rx="4.8608646"
     ry="5.8391519"
     style="fill:#2f2f2f;stroke-width:0.981307"
     id="ellipse30226" />
  <path
     d="m 20.374505,41.6013 c 0,0 -4.004864,1.498002 -3.444387,5.79839 0.122286,0.957906 1.467431,1.141335 1.84448,0.254762 0.407619,-0.957906 1.059811,-1.834289 2.08905,-2.089051 z"
     style="fill:#2f2f2f;stroke-width:0.981307"
     id="path30230" />
  <g
     id="g30242"
     style="stroke-width:0.981307"
     transform="matrix(1.0190492,0,0,1.0190492,-1.2191478,-1.2191478)">
    <path
       d="m 52.31,108.31 c 0,0 1.19,1.2 1.99,1.88 1.59,1.36 3.4,1.88 3.4,1.88 0,0 -1.55,-1.33 -1.25,-3.44 z"
       style="fill:#999999;stroke-width:0.981307"
       id="path30232" />
    <path
       d="m 57.7,108.91 c 0,0 0.43,1.34 1.88,2.44 1.42,1.07 1.45,2.17 1.45,2.17 0,0 0.68,-1.1 0.14,-2.48 -0.46,-1.19 -0.05,-2.13 -0.05,-2.13 z"
       style="fill:#999999;stroke-width:0.981307"
       id="path30234" />
    <path
       d="m 75.59,108.31 c 0,0 -1.19,1.2 -1.99,1.88 -1.59,1.36 -3.4,1.88 -3.4,1.88 0,0 1.55,-1.33 1.25,-3.44 z"
       style="fill:#999999;stroke-width:0.981307"
       id="path30236" />
    <path
       d="m 70.2,108.91 c 0,0 -0.43,1.34 -1.88,2.44 -1.42,1.07 -1.45,2.17 -1.45,2.17 0,0 -0.68,-1.1 -0.14,-2.48 0.46,-1.19 0.05,-2.13 0.05,-2.13 z"
       style="fill:#999999;stroke-width:0.981307"
       id="path30238" />
    <path
       d="m 62.45,109.17 c 0,0 -0.33,1.48 0.72,3.54 1.05,2.06 0.65,2.78 0.65,2.78 0,0 0.72,-2.03 1.16,-2.82 0.43,-0.8 0.76,-2.77 0.51,-3.5 z"
       style="fill:#999999;stroke-width:0.981307"
       id="path30240" />
  </g>
  <path
     id="path30168"
     style="fill:#2f2f2f"
     d="m 48.640458,98.159568 c -3.789596,0.364182 -3.430001,-3.729297 -4.5,-3.529297 -1.469999,0.53 -0.138314,5.814469 3.93164,5.779299 4.030044,-0.0348 7.619901,-4.636199 15.938477,-4.636199 8.318576,0 11.910386,4.601369 15.94043,4.636199 4.069955,0.0352 5.399686,-5.249299 3.929687,-5.779299 -1.069999,-0.2 -0.710404,3.893479 -4.5,3.529297 -3.3904,-0.325819 -5.41896,-4.586432 -15.36914,-4.586432 -9.95018,0 -11.980694,4.260613 -15.371094,4.586432 z"
     sodipodi:nodetypes="scszscszs" />
</svg>
