<?xml version="1.0" encoding="UTF-8" standalone="no"?>
<svg
   width="128"
   height="128"
   version="1.1"
   id="svg4"
   sodipodi:docname="emoji_u1f622.svg"
   xml:space="preserve"
   inkscape:version="1.3 (0e150ed6c4, 2023-07-21)"
   xmlns:inkscape="http://www.inkscape.org/namespaces/inkscape"
   xmlns:sodipodi="http://sodipodi.sourceforge.net/DTD/sodipodi-0.dtd"
   xmlns="http://www.w3.org/2000/svg"
   xmlns:svg="http://www.w3.org/2000/svg"><defs
     id="defs4" /><sodipodi:namedview
     id="namedview4"
     pagecolor="#ffffff"
     bordercolor="#000000"
     borderopacity="0.25"
     inkscape:showpageshadow="2"
     inkscape:pageopacity="0.0"
     inkscape:pagecheckerboard="0"
     inkscape:deskcolor="#d1d1d1"
     inkscape:zoom="8.515625"
     inkscape:cx="64"
     inkscape:cy="64"
     inkscape:current-layer="svg4" /><g
     id="g6"
     transform="translate(0.00441119,-7.0252969e-4)">&#10;	<g
   id="g1">&#10;		<path
   fill="#fcc21b"
   d="M 37.63,10.71 C 6.88,17.18 -6.23,47.9 4.24,76.13 8.52,87.64 3.32,88.97 3.32,95.32 c 0,13.37 27.63,24.22 61.73,24.22 34.09,0 61.73,-10.85 61.73,-24.22 4.55,-40.11 -20.04,-99.13 -89.15,-84.61 z"
   id="path1" />&#10;	</g>&#10;	<g
   id="g5">&#10;		<path
   fill="#2f2f2f"
   d="m 26.37,75.68 c -6.76,0.26 -10.42,-4.08 -10.58,-4.27 -0.86,-1.04 -0.72,-2.58 0.32,-3.44 1.04,-0.86 2.57,-0.72 3.43,0.32 0.08,0.11 2.66,3.07 7.61,2.42 4.91,-0.62 6.72,-4.21 6.74,-4.25 0.57,-1.22 2.03,-1.76 3.26,-1.17 1.22,0.57 1.73,2.03 1.16,3.26 -0.11,0.24 -2.91,6.05 -10.53,7.02 -0.48,0.05 -0.95,0.09 -1.41,0.11 z"
   id="path2" />&#10;		<path
   fill="#2f2f2f"
   d="m 74.26,94.67 c -0.59,0.69 -1.44,1.06 -2.26,1.08 -0.72,0.02 -1.44,-0.22 -2.03,-0.7 -0.72,-0.61 -18.1,-14.78 -36.07,-0.86 -1.32,1.03 -3.23,0.78 -4.26,-0.55 -1.04,-1.32 -0.79,-3.22 0.55,-4.25 21.89,-16.96 43.48,0.82 43.69,1.01 1.28,1.08 1.44,2.99 0.38,4.27 z"
   id="path3" />&#10;		<path
   fill="#2f2f2f"
   d="m 68.96,71.63 c -7.3,0.28 -11.25,-4.4 -11.43,-4.6 -0.92,-1.1 -0.75,-2.72 0.34,-3.63 1.1,-0.91 2.71,-0.76 3.62,0.34 0.09,0.12 2.94,3.32 8.33,2.67 5.33,-0.69 7.3,-4.52 7.38,-4.69 0.62,-1.26 2.15,-1.79 3.43,-1.19 1.25,0.61 1.8,2.11 1.21,3.39 -0.13,0.27 -3.14,6.52 -11.36,7.59 -0.53,0.06 -1.03,0.11 -1.52,0.12 z"
   id="path4" />&#10;		<path
   fill="#ffffff"
   d="m 90.95,91.37 c -1.89,0.9 -4.28,0.96 -6.08,0.01 -2.19,-1.2 -2.74,-3.06 -3.41,-5.35 -0.38,-1.34 -0.63,-2.64 -0.76,-3.75 -0.31,-2.84 -1.44,-5.46 -1.81,-8.23 -0.11,-0.79 0,-1.88 0.96,-1.83 0.81,0.02 1.97,0.59 2.72,0.92 4.92,2.1 10.3,6 11.09,11.77 0.46,3.35 -0.92,5.62 -2.71,6.46 z"
   id="path5" />&#10;	</g>&#10;</g></svg>
