<?xml version="1.0" encoding="UTF-8" standalone="no"?>
<svg
   width="128"
   height="128"
   version="1.1"
   id="svg5372"
   sodipodi:docname="emoji_u1f4c4.svg"
   inkscape:version="1.3 (0e150ed6c4, 2023-07-21)"
   xmlns:inkscape="http://www.inkscape.org/namespaces/inkscape"
   xmlns:sodipodi="http://sodipodi.sourceforge.net/DTD/sodipodi-0.dtd"
   xmlns="http://www.w3.org/2000/svg"
   xmlns:svg="http://www.w3.org/2000/svg">
  <defs
     id="defs5376" />
  <sodipodi:namedview
     id="namedview5374"
     pagecolor="#ffffff"
     bordercolor="#000000"
     borderopacity="0.25"
     inkscape:showpageshadow="2"
     inkscape:pageopacity="0.0"
     inkscape:pagecheckerboard="0"
     inkscape:deskcolor="#d1d1d1"
     showgrid="false"
     inkscape:zoom="2.9996795"
     inkscape:cx="59.506357"
     inkscape:cy="66.840474"
     inkscape:window-width="1366"
     inkscape:window-height="697"
     inkscape:window-x="-8"
     inkscape:window-y="-8"
     inkscape:window-maximized="1"
     inkscape:current-layer="svg5372" />
  <g
     id="g6720"
     transform="translate(0,1.47)">
    <path
       d="M 14.82,120.02 V 5.04 c 0,-1.6899913 1.370009,-3.06 3.06,-3.06 h 57.29 c 8.054632,0 35.08031,28.567613 35.08,31.23 l -0.01,86.81 c -1.9e-4,1.68999 -1.37001,3.06 -3.06,3.06 h -89.3 c -1.689991,0 -3.06,-1.37001 -3.06,-3.06 z"
       fill="#e0e0e0"
       id="path5360"
       sodipodi:nodetypes="sssssssss" />
    <g
       id="g5343"
       transform="translate(5.4,6.53)">
      <path
         d="m 75.329905,41.924055 c -3.317201,0.03787 -8.273116,0.73257 -11.400096,0.73257 -6.561401,0 -9.525943,-1.078072 -14.87483,-1.108594 -4.210523,-0.02403 -11.353772,1.164381 -14.806503,1.260472 -3.14526,0.08753 -9.607013,0.292596 -12.066366,-0.370998 -2.173362,-0.586427 -3.908198,3.850706 -0.626957,4.910497 3.516198,1.135678 7.312256,1.156553 12.261574,1.185041 4.90066,0.02821 11.077437,-1.218483 15.280659,-1.226644 4.458212,-0.0087 8.886989,0.804171 14.682969,0.528762 4.805888,-0.228363 7.109212,-0.827524 10.962138,-0.939705 3.852926,-0.112181 3.904613,-5.009267 0.587412,-4.971401 z"
         style="fill:#2f2f2f;fill-opacity:1"
         id="path67619"
         sodipodi:nodetypes="zsssssssszz" />
      <path
         d="m 92.605315,26.688341 c -2.816431,-0.611304 -7.273637,-1.091722 -13.112588,-1.121956 -8.061429,-0.04174 -17.074128,1.161339 -22.423015,1.130817 -4.210523,-0.02403 -17.246958,-0.603575 -20.699689,-0.507484 -3.14526,0.08753 -11.575523,0.616322 -14.070049,0.100457 -3.368138,-0.696528 -4.339209,4.588222 -0.940104,5.23549 3.629828,0.691203 9.629086,0.360105 14.578404,0.388593 4.90066,0.02821 13.994725,0.265151 21.36494,0.250841 4.458212,-0.0087 14.622446,-0.942801 21.540006,-0.942801 4.956784,0 9.317565,-0.06916 12.602076,0.58312 3.28451,0.652278 3.976451,-4.505769 1.160019,-5.117077 z"
         style="fill:#2f2f2f;fill-opacity:1"
         id="path67621"
         sodipodi:nodetypes="zsssssssszz" />
      <path
         d="m 61.661778,56.425604 c -3.120654,0.03342 -6.158095,0.518041 -9.277707,0.73257 -2.875695,0.189933 -4.920165,-0.829746 -7.807913,-0.04782 -3.385005,0.92062 -6.878838,0.0098 -10.327682,0.199698 -3.215921,0.174222 -6.95325,3.581622 -9.566099,0.129055 -2.110902,-2.776292 -6.217244,0.60231 -4.187997,3.390115 3.866928,5.294003 9.214277,3.212475 14.655823,1.955343 1.864969,-0.427069 3.998418,0.702531 5.902116,0.480645 2.218277,-0.249096 4.94429,-1.118437 7.146334,-1.117861 4.233976,-0.0067 8.599337,-0.210732 12.875713,-0.333633 3.429476,-0.101461 4.101158,-5.430424 0.587412,-5.388112 z"
         style="fill:#2f2f2f;fill-opacity:1"
         id="path60048-0" />
      <path
         d="m 46.690634,72.557759 c -1.98902,0.363731 -3.217494,0.284665 -5.242087,-0.159771 -1.563459,-0.335553 -3.968625,1.020057 -5.407526,1.411543 -2.587825,0.702896 -5.52838,-0.974225 -8.127174,-1.21768 -2.021982,-0.182724 -4.076973,0.998594 -5.897458,1.671674 -3.525291,1.298006 -1.119241,6.619191 2.406051,5.321185 4.34184,-1.604189 8.114106,0.48227 12.562699,-0.03477 1.771271,-0.205662 3.318544,-1.530934 5.189252,-1.152977 2.305148,0.453864 3.32897,0.280112 5.426342,-0.253206 3.502251,-0.888166 2.741323,-6.267412 -0.910099,-5.586002 z"
         style="fill:#2f2f2f;fill-opacity:1"
         id="path60050-8" />
      <path
         d="m 43.219399,87.410952 c -0.919666,0.426044 -2.286315,-0.05973 -3.303328,-0.04614 -2.105735,0.03973 -3.898511,2.073188 -6.056047,1.363373 -3.995264,-1.305515 -6.318733,-1.680866 -9.969154,0.901096 -1.651954,1.173476 -0.641284,3.703208 1.163476,3.943503 2.498818,0.333482 4.173277,-0.767238 6.747449,0.378599 2.170092,0.972574 4.175334,0.741269 6.332908,-0.07731 1.875445,-0.717569 2.037711,-0.9217 4.105756,-0.794458 1.70793,0.109437 3.159918,-0.310838 4.181151,-1.70155 1.581315,-2.12611 -0.781349,-5.089793 -3.202211,-3.967107 z"
         style="fill:#2f2f2f;fill-opacity:1"
         id="path60052-4" />
    </g>
    <g
       id="g5370">
      <path
         d="m 75.17,1.98 c 5.04,1.89 8.31,9.51 8.97,20.79 0.11,1.84 1.61,3.29 3.45,3.38 8.97,0.4 19.99,1.71 22.66,7.06 0,0 0,-5.17 -13.12,-18.42 C 84.97,2.52 75.17,1.98 75.17,1.98 Z"
         fill="#b0bec5"
         id="path5368"
         style="fill:#bdbdbd;fill-opacity:1" />
    </g>
  </g>
</svg>
