<?xml version="1.0" encoding="UTF-8" standalone="no"?>
<svg
   width="128"
   height="128"
   version="1.1"
   id="svg129986"
   sodipodi:docname="emoji_u1f633.svg"
   inkscape:version="1.3 (0e150ed6c4, 2023-07-21)"
   xmlns:inkscape="http://www.inkscape.org/namespaces/inkscape"
   xmlns:sodipodi="http://sodipodi.sourceforge.net/DTD/sodipodi-0.dtd"
   xmlns:xlink="http://www.w3.org/1999/xlink"
   xmlns="http://www.w3.org/2000/svg"
   xmlns:svg="http://www.w3.org/2000/svg">
  <defs
     id="defs129990">
    <linearGradient
       id="linearGradient1"
       inkscape:collect="always">
      <stop
         style="stop-color:#f79329;stop-opacity:1;"
         offset="0"
         id="stop1" />
      <stop
         style="stop-color:#fcc21b;stop-opacity:1"
         offset="1"
         id="stop2" />
    </linearGradient>
    <radialGradient
       inkscape:collect="always"
       xlink:href="#linearGradient1"
       id="radialGradient2"
       cx="25.288288"
       cy="73.926163"
       fx="25.288288"
       fy="73.926163"
       r="18.291407"
       gradientTransform="matrix(1,0,0,0.9878873,0,0.89544535)"
       gradientUnits="userSpaceOnUse" />
    <radialGradient
       inkscape:collect="always"
       xlink:href="#linearGradient1"
       id="radialGradient4"
       cx="103.28829"
       cy="73.926163"
       fx="103.28829"
       fy="73.926163"
       r="18.291407"
       gradientTransform="matrix(1,0,0,0.9878873,0,0.89544535)"
       gradientUnits="userSpaceOnUse" />
  </defs>
  <sodipodi:namedview
     id="namedview129988"
     pagecolor="#ffffff"
     bordercolor="#000000"
     borderopacity="0.25"
     inkscape:showpageshadow="2"
     inkscape:pageopacity="0.0"
     inkscape:pagecheckerboard="0"
     inkscape:deskcolor="#d1d1d1"
     showgrid="false"
     inkscape:zoom="4"
     inkscape:cx="61.375"
     inkscape:cy="65.125"
     inkscape:window-width="1366"
     inkscape:window-height="697"
     inkscape:window-x="-8"
     inkscape:window-y="-8"
     inkscape:window-maximized="1"
     inkscape:current-layer="svg129986" />
  <path
     d="M63.79 8.64C1.48 8.64 0 78.5 0 92.33c0 13.83 28.56 25.03 63.79 25.03 35.24 0 63.79-11.21 63.79-25.03 0-13.83-1.47-83.69-63.79-83.69z"
     fill="#fcc21b"
     id="path129880" />
  <g
     id="g130131">
    <path
       d="M109.54 90.9c-9.5 3.41-19.98-1.4-23.44-10.78-3.44-9.37 1.43-19.74 10.93-23.17 9.47-3.41 19.98 1.42 23.45 10.79 3.44 9.39-1.46 19.76-10.94 23.16z"
       fill="#fcc21b"
       id="path129882"
       style="fill:url(#radialGradient4)" />
  </g>
  <g
     id="g129970">
    <path
       d="M31.54 90.9c-9.5 3.41-19.98-1.4-23.44-10.78-3.44-9.37 1.43-19.74 10.93-23.17 9.47-3.41 19.98 1.42 23.45 10.79 3.44 9.39-1.46 19.76-10.94 23.16z"
       fill="#fcc21b"
       id="path129926"
       style="fill:url(#radialGradient2);stroke:none" />
  </g>
  <path
     d="M 49.559756,84.23284 H 78.44026"
     fill="none"
     fill-rule="evenodd"
     stroke="#2f2f2f"
     stroke-width="7.38"
     stroke-linecap="round"
     stroke-linejoin="round"
     id="path129984"
     style="stroke-width:6;stroke-dasharray:none" />
  <ellipse
     cx="-63.824356"
     cy="-79.16803"
     rx="16.610579"
     ry="15.500539"
     style="fill:#ffffff;stroke-width:1.00003"
     transform="matrix(-0.11059615,-0.99386543,-0.99386543,0.11059615,0,0)"
     id="ellipse47" />
  <path
     d="m 91.821122,54.647412 c -0.23,3.3 -3.14,5.82 -6.49,5.62 -3.36,-0.19 -5.9,-3.04 -5.67,-6.34 0.22,-3.31 3.12,-5.82 6.48,-5.62 3.36,0.19 5.91,3.04 5.68,6.34"
     style="fill:#2f2f2f"
     id="path48" />
  <ellipse
     cx="-46.244801"
     cy="51.365585"
     rx="15.500487"
     ry="16.610523"
     style="fill:#ffffff;stroke-width:1.00003"
     transform="matrix(-0.99716865,-0.07519764,-0.07519764,0.99716865,0,0)"
     id="ellipse48" />
  <path
     d="m 48.293228,53.417412 c 0.38,3.29 -2,6.3 -5.34,6.72 -3.34,0.43 -6.36,-1.9 -6.74,-5.18 -0.4,-3.29 1.99,-6.3 5.33,-6.73 3.33,-0.42 6.36,1.91 6.75,5.19"
     style="fill:#2f2f2f"
     id="path49" />
</svg>
