<?xml version="1.0" encoding="UTF-8" standalone="no"?>
<svg
   width="128"
   height="128"
   style="enable-background:new 0 0 128 128;"
   version="1.1"
   id="svg126"
   sodipodi:docname="emoji_u1f912.svg"
   inkscape:version="1.2.2 (732a01da63, 2022-12-09)"
   xmlns:inkscape="http://www.inkscape.org/namespaces/inkscape"
   xmlns:sodipodi="http://sodipodi.sourceforge.net/DTD/sodipodi-0.dtd"
   xmlns:xlink="http://www.w3.org/1999/xlink"
   xmlns="http://www.w3.org/2000/svg"
   xmlns:svg="http://www.w3.org/2000/svg">
  <defs
     id="defs130">
    <radialGradient
       inkscape:collect="always"
       xlink:href="#linearGradient41787"
       id="radialGradient41789"
       cx="-34.711712"
       cy="73.926163"
       fx="-34.711712"
       fy="73.926163"
       r="18.291407"
       gradientTransform="matrix(1.0288362,0,0,1.0163743,61.000955,-1.2104896)"
       gradientUnits="userSpaceOnUse" />
    <linearGradient
       inkscape:collect="always"
       id="linearGradient41787">
      <stop
         style="stop-color:#f79329;stop-opacity:1;"
         offset="0"
         id="stop41783" />
      <stop
         style="stop-color:#fcc21b;stop-opacity:1;"
         offset="1"
         id="stop41785" />
    </linearGradient>
    <radialGradient
       inkscape:collect="always"
       xlink:href="#linearGradient41787"
       id="radialGradient41864"
       gradientUnits="userSpaceOnUse"
       gradientTransform="matrix(1.0288362,0,0,1.0163743,138.00439,-1.2104896)"
       cx="-34.711712"
       cy="73.926163"
       fx="-34.711712"
       fy="73.926163"
       r="18.291407" />
  </defs>
  <sodipodi:namedview
     id="namedview128"
     pagecolor="#ffffff"
     bordercolor="#000000"
     borderopacity="0.25"
     inkscape:showpageshadow="2"
     inkscape:pageopacity="0.0"
     inkscape:pagecheckerboard="0"
     inkscape:deskcolor="#d1d1d1"
     showgrid="false"
     inkscape:zoom="2.9996795"
     inkscape:cx="60.173094"
     inkscape:cy="71.007585"
     inkscape:window-width="1366"
     inkscape:window-height="697"
     inkscape:window-x="-8"
     inkscape:window-y="-8"
     inkscape:window-maximized="1"
     inkscape:current-layer="svg126" />
  <style
     type="text/css"
     id="style2">
.st0{fill:#FCC21B;}
.st1{fill:#FCC01C;}
.st2{fill:#FCBE1C;}
.st3{fill:#FBBB1D;}
.st4{fill:#FBB91E;}
.st5{fill:#FBB71E;}
.st6{fill:#FBB51F;}
.st7{fill:#FAB220;}
.st8{fill:#FAB020;}
.st9{fill:#FAAE21;}
.st10{fill:#FAAC22;}
.st11{fill:#F9A922;}
.st12{fill:#F9A723;}
.st13{fill:#F9A524;}
.st14{fill:#F9A324;}
.st15{fill:#F8A025;}
.st16{fill:#F89E26;}
.st17{fill:#F89C26;}
.st18{fill:#F89A27;}
.st19{fill:#F79728;}
.st20{fill:#F79528;}
.st21{fill:#F79329;}
.st22{fill:#2F2F2F;}
.st23{fill:#FFFFFF;}
.st24{fill:#ED6C30;}
.st25{fill:none;stroke:#2F2F2F;stroke-width:3;stroke-linecap:round;stroke-miterlimit:10;}
.st26{fill:none;stroke:#2F2F2F;stroke-width:6;stroke-linecap:round;stroke-linejoin:round;stroke-miterlimit:10;}
  </style>
  <path
     class="st0"
     d="M63.8,8.6C1.5,8.6,0,78.5,0,92.3c0,13.8,28.6,25,63.8,25c35.2,0,63.8-11.2,63.8-25 C127.6,78.5,126.1,8.6,63.8,8.6z"
     id="path4" />
  <g
     id="g41868"
     transform="translate(1.7778415e-4,3.272318e-4)">
    <path
       d="M 32.793341,94.302908 C 21.388783,98.396544 8.8077546,92.622236 4.6540945,81.361736 0.52444397,70.11324 6.3707806,57.664264 17.775339,53.546619 29.143882,49.452982 41.760925,55.2513 45.92659,66.499796 50.056241,77.772301 44.173889,90.221277 32.793341,94.302908 Z"
       style="fill:url(#radialGradient41789);fill-opacity:1;stroke-width:1"
       id="path8838" />
    <path
       d="M 109.79677,94.302908 C 98.39221,98.396544 85.81118,92.622236 81.65752,81.361736 77.52787,70.11324 83.37421,57.664264 94.77877,53.546619 c 11.36854,-4.093637 23.98559,1.704681 28.15125,12.953177 4.12965,11.272505 -1.7527,23.721481 -13.13325,27.803112 z"
       style="fill:url(#radialGradient41864);fill-opacity:1;stroke-width:1"
       id="path41862" />
  </g>
  <g
     id="g104">
    <path
       class="st22"
       d="M35,51.8c0-1,0.2-1.9,0.4-2.7c1.8-0.2,3.8-0.5,5.9-1.1c3.2-0.8,5.5-2.3,7.3-3.9c2,1.9,3.3,4.8,3.2,8.2 c-0.2,5.6-4.1,10-8.7,9.9C38.5,62,34.8,57.3,35,51.8z"
       id="path100" />
    <path
       class="st22"
       d="M92.8,51.8c0-1-0.2-1.9-0.4-2.7c-1.8-0.2-3.8-0.5-5.9-1.1c-3.2-0.8-5.5-2.3-7.3-3.9c-2,1.9-3.3,4.8-3.2,8.2 c0.2,5.6,4.1,10,8.7,9.9C89.4,62,93,57.3,92.8,51.8z"
       id="path102" />
  </g>
  <g
     id="g120">
    <path
       class="st22"
       d="M70.4,95.3l-0.8-0.9c-2.8-3.1-2.5-7.9,0.6-10.6L114,44.9c3.1-2.8,7.9-2.5,10.6,0.6l0.8,0.9 c2.8,3.1,2.5,7.9-0.6,10.6L81,95.9C77.9,98.7,73.2,98.4,70.4,95.3z"
       id="path106" />
    <path
       class="st23"
       d="M69.5,96.1l-0.8-0.9c-1.5-1.7-1.3-4.2,0.3-5.7l46.5-41.2c1.7-1.5,4.2-1.3,5.7,0.3l0.8,0.9 c1.5,1.7,1.3,4.2-0.3,5.7L75.2,96.4C73.6,97.9,71,97.8,69.5,96.1z"
       id="path108" />
    <path
       class="st24"
       d="M70.5,93L70.5,93c-1.3-1.5-1.2-3.8,0.3-5.1l33.9-30.1c1.5-1.3,3.8-1.2,5.1,0.3v0c1.3,1.5,1.2,3.8-0.3,5.1 L75.6,93.3C74.1,94.7,71.8,94.5,70.5,93z"
       id="path110" />
    <line
       class="st25"
       x1="81.9"
       x2="85.4"
       y1="75.7"
       y2="79.2"
       id="line112" />
    <line
       class="st25"
       x1="91.1"
       x2="94.6"
       y1="67.6"
       y2="71.1"
       id="line114" />
    <line
       class="st25"
       x1="100.5"
       x2="104"
       y1="59.5"
       y2="63"
       id="line116" />
    <line
       class="st25"
       x1="110.7"
       x2="114.2"
       y1="50"
       y2="53.5"
       id="line118" />
  </g>
  <path
     class="st0"
     d="M70,81.1c0,0,9.5-1,19,6v2l-11,12l-15-1l3-14L70,81.1z"
     id="path122" />
  <path
     class="st26"
     d="M44,88.5c0,0,6.2-6.4,21-6.4s22,7,22,7"
     id="path124" />
</svg>
