<?xml version="1.0" encoding="UTF-8" standalone="no"?>
<svg
   width="128"
   height="128"
   style="enable-background:new 0 0 128 128;"
   version="1.1"
   id="svg36"
   sodipodi:docname="emoji_u1f97a.svg"
   inkscape:version="1.3 (0e150ed6c4, 2023-07-21)"
   xmlns:inkscape="http://www.inkscape.org/namespaces/inkscape"
   xmlns:sodipodi="http://sodipodi.sourceforge.net/DTD/sodipodi-0.dtd"
   xmlns="http://www.w3.org/2000/svg"
   xmlns:svg="http://www.w3.org/2000/svg">
  <defs
     id="defs40" />
  <sodipodi:namedview
     id="namedview38"
     pagecolor="#ffffff"
     bordercolor="#000000"
     borderopacity="0.25"
     inkscape:showpageshadow="2"
     inkscape:pageopacity="0.0"
     inkscape:pagecheckerboard="0"
     inkscape:deskcolor="#d1d1d1"
     showgrid="false"
     inkscape:zoom="2.1210938"
     inkscape:cx="50.209944"
     inkscape:cy="71.896868"
     inkscape:window-width="1366"
     inkscape:window-height="697"
     inkscape:window-x="-8"
     inkscape:window-y="-8"
     inkscape:window-maximized="1"
     inkscape:current-layer="svg36" />
  <path
     d="m 64,9.56 c -62.41,0 -63.88,69.96 -63.88,83.8 0,13.86 28.59,25.08 63.88,25.08 35.28,0 63.88,-11.22 63.88,-25.08 0,-13.84 -1.48,-83.8 -63.88,-83.8 z"
     style="fill:#fcc21b"
     id="path14" />
  <path
     d="M 38.754534,86.654719 C 50.900846,86.745362 60.855953,76.977821 60.99122,64.853371 61.126486,52.683593 51.387785,42.757405 39.24147,42.666758 27.122208,42.576128 17.140046,52.343655 17.004786,64.51343 c -0.13527,12.147114 9.630486,22.050639 21.749748,22.141289 z"
     style="fill:#ffffff;stroke-width:0.999998"
     id="path16" />
  <g
     id="g6"
     transform="matrix(1.0835017,0,0,1.0835017,-3.87023,-3.7413071)"
     style="stroke-width:0.922934">
    <path
       d="M 39.763768,79.259477 C 29.83707,79.333557 21.70116,71.350933 21.59061,61.442102 21.48007,51.49623 29.439118,43.383951 39.365818,43.309869 c 9.904589,-0.07408 18.06261,7.908542 18.173153,17.854414 0.110558,9.927354 -7.870613,18.021109 -17.775203,18.095194 z"
       style="fill:#2f2f2f;fill-opacity:1;stroke-width:0.922932"
       id="path384" />
    <path
       id="ellipse5"
       style="fill:#ffffff;stroke-width:0.92289"
       d="m 50.721571,66.527314 a 3.8936537,4.2181244 49.989747 0 1 -0.72746,5.6942 3.8936537,4.2181244 49.989747 0 1 -5.73411,-0.270327 3.8936537,4.2181244 49.989747 0 1 0.727459,-5.6942 3.8936537,4.2181244 49.989747 0 1 5.734111,0.270327 z" />
    <path
       id="ellipse6"
       style="fill:#ffffff;stroke-width:0.922961"
       d="M 44.924478,50.324816 A 8.9198344,10.997056 53.338654 0 1 41.428766,64.046284 8.9198344,10.997056 53.338654 0 1 27.28127,63.45715 8.9198344,10.997056 53.338654 0 1 30.776983,49.735685 8.9198344,10.997056 53.338654 0 1 44.924478,50.324816 Z" />
  </g>
  <path
     d="M 89.245456,86.654719 C 77.099144,86.745362 67.144034,76.977821 67.008774,64.853371 66.873504,52.683593 76.612204,42.757405 88.75852,42.666758 c 12.11926,-0.09063 22.10142,9.676897 22.23668,21.846672 0.13527,12.147114 -9.63048,22.050639 -21.749744,22.141289 z"
     style="fill:#ffffff;stroke-width:0.999998"
     id="path2" />
  <g
     id="g7"
     transform="matrix(1.0835017,0,0,1.0835017,-6.8177149,-3.7413071)"
     style="stroke-width:0.922934">
    <path
       d="M 88.63419,79.259477 C 78.707492,79.333557 70.571582,71.350933 70.461032,61.442102 70.350492,51.49623 78.30954,43.383951 88.23624,43.309869 c 9.904589,-0.07408 18.06261,7.908542 18.17315,17.854414 0.11056,9.927354 -7.87061,18.021109 -17.7752,18.095194 z"
       style="fill:#2f2f2f;fill-opacity:1;stroke-width:0.922932"
       id="path3" />
    <path
       id="path4"
       style="fill:#ffffff;stroke-width:0.92289"
       d="m 99.591993,66.527314 a 3.8936537,4.2181244 49.989747 0 1 -0.72746,5.6942 3.8936537,4.2181244 49.989747 0 1 -5.73411,-0.270327 3.8936537,4.2181244 49.989747 0 1 0.727459,-5.6942 3.8936537,4.2181244 49.989747 0 1 5.734111,0.270327 z" />
    <path
       id="path5"
       style="fill:#ffffff;stroke-width:0.922961"
       d="M 93.7949,50.324816 A 8.9198344,10.997056 53.338654 0 1 90.299188,64.046284 8.9198344,10.997056 53.338654 0 1 76.151692,63.45715 8.9198344,10.997056 53.338654 0 1 79.647405,49.735685 8.9198344,10.997056 53.338654 0 1 93.7949,50.324816 Z" />
  </g>
  <path
     d="m 54.934129,95.937272 c 5.539388,-3.905661 12.592354,-3.905661 18.131741,0"
     fill="none"
     stroke="#2f2f2f"
     stroke-width="6"
     stroke-linecap="round"
     stroke-linejoin="round"
     stroke-miterlimit="10"
     id="path7" />
  <ellipse
     style="fill:#fcc21b;fill-opacity:1;stroke-width:6.00036;stroke-linecap:round"
     id="path8"
     cx="20.338797"
     cy="52.2556"
     rx="23.143875"
     ry="7.6897607"
     transform="matrix(0.92703142,-0.37498367,0.36066566,0.93269517,0,0)" />
  <ellipse
     style="fill:#fcc21b;fill-opacity:1;stroke-width:6.00036;stroke-linecap:round"
     id="ellipse9"
     cx="-99.060341"
     cy="4.2520013"
     rx="23.143875"
     ry="7.6897607"
     transform="matrix(-0.92703142,-0.37498367,-0.36066566,0.93269517,0,0)" />
</svg>
