<?xml version="1.0" encoding="UTF-8" standalone="no"?>
<!-- Generator: Adobe Illustrator 19.2.1, SVG Export Plug-In . SVG Version: 6.00 Build 0)  -->

<svg
   version="1.1"
   id="图层_1"
   x="0px"
   y="0px"
   viewBox="0 0 128 128"
   style="enable-background:new 0 0 128 128;"
   xml:space="preserve"
   sodipodi:docname="emoji_u1f6d0.svg"
   inkscape:version="1.3 (0e150ed6c4, 2023-07-21)"
   xmlns:inkscape="http://www.inkscape.org/namespaces/inkscape"
   xmlns:sodipodi="http://sodipodi.sourceforge.net/DTD/sodipodi-0.dtd"
   xmlns="http://www.w3.org/2000/svg"
   xmlns:svg="http://www.w3.org/2000/svg"><defs
   id="defs8" /><sodipodi:namedview
   id="namedview8"
   pagecolor="#ffffff"
   bordercolor="#000000"
   borderopacity="0.25"
   inkscape:showpageshadow="2"
   inkscape:pageopacity="0.0"
   inkscape:pagecheckerboard="0"
   inkscape:deskcolor="#d1d1d1"
   inkscape:zoom="2.8670971"
   inkscape:cx="47.260346"
   inkscape:cy="52.840904"
   inkscape:window-width="1366"
   inkscape:window-height="697"
   inkscape:window-x="-8"
   inkscape:window-y="-8"
   inkscape:window-maximized="1"
   inkscape:current-layer="图层_1" />&#10;<g
   id="g2">&#10;	<g
   id="g1">&#10;		<path
   style="fill:#9531a6"
   d="M121.1,0H6.89C3.1,0,0,3.11,0,6.89v114.21c0,3.79,3.1,6.89,6.89,6.89H121.1    c3.79,0,6.89-3.11,6.89-6.89V6.89C127.99,3.11,124.89,0,121.1,0z"
   id="path1" />&#10;	</g>&#10;</g>&#10;&#10;<g
   id="g9"
   transform="matrix(0.94147331,0,0,0.94147331,3.8586851,0.1948005)"
   style="stroke-width:1.06217"><g
     id="g8"
     style="stroke-width:1.06217">&#10;	<g
   id="g4"
   style="stroke-width:1.06217">&#10;		<g
   id="g3"
   style="stroke-width:1.06217">&#10;			<path
   style="fill:#ffffff;stroke-width:1.06217"
   d="m 104.54,38.05 c -0.74,0 -1.49,-0.2 -2.17,-0.61 L 71.12,18.22 c -3.86,-2.37 -10.62,-2.37 -14.48,0 L 25.39,37.44 c -1.95,1.2 -4.5,0.59 -5.7,-1.36 -1.2,-1.95 -0.59,-4.5 1.36,-5.7 L 52.3,11.17 c 6.49,-3.99 16.66,-3.99 23.16,0 l 31.25,19.21 c 1.95,1.2 2.56,3.75 1.36,5.7 -0.78,1.27 -2.14,1.97 -3.53,1.97 z"
   id="path2" />&#10;		</g>&#10;	</g>&#10;	&#10;	<g
   id="g5"
   style="stroke-width:1.06217">&#10;		&#10;	</g>&#10;	<g
   id="g6"
   style="stroke-width:1.06217">&#10;		&#10;	</g>&#10;	&#10;	&#10;	&#10;</g><path
     id="path1-9"
     style="fill:#ffffff;fill-opacity:1;stroke:none;stroke-width:1.06216;stroke-linecap:round"
     d="m 64.554688,28.826172 c -8.767342,5.39e-4 -15.874792,6.121145 -15.875,14.888487 -2.22e-4,9.388284 8.138297,12.172319 8.138297,15.548724 0,3.376406 -8.166914,10.685836 -10.753532,10.685836 -2.586637,0 -4.852055,-1.762416 -7.158203,-6.056641 -2.306158,-4.294213 -3.658073,-9.781303 -8.111328,-8.111328 -4.453256,1.669966 -5.088115,7.634228 2.148437,16.222656 5.436545,6.452169 8.424516,8.882813 11.601563,8.882813 6.247504,0 9.613476,-6.884776 12.849609,-5.933594 3.235817,0.951089 3.438574,5.476032 -0.08644,13.233895 -8.590604,18.90621 -11.297141,24.51065 -11.297141,30.22637 0,4.04864 1.554328,6.86786 9.049601,6.86786 5.735554,0 25.979588,-1.6875 28.003906,-1.6875 2.024318,0 3.02051,3.77205 6.844206,3.77205 2.586627,0 4.829252,-1.34862 4.007357,-7.82088 -0.82913,-6.52923 -3.991317,-7.31055 -6.015625,-7.31054 -3.373857,0 -5.343511,0.90039 -6.917969,0.90039 -5.173235,0 -7.365366,0.11132 -10.064453,0.11132 -1.743149,0 -3.345703,-0.27976 -3.345703,-1.68554 0,-1.79938 1.429804,-3.29088 4.863281,-4.83594 4.498465,-2.02431 10.009766,-4.33061 10.009765,-11.640626 0,-7.310013 -1.312472,-19.899328 -2.425781,-27.294922 -1.080538,-7.177892 -5.601562,-8.22349 -5.601562,-10.691406 0,-3.068857 6.004066,-5.590229 6.013672,-13.136368 0.01116,-8.768098 -7.108848,-15.135656 -15.876953,-15.135116 z"
     sodipodi:nodetypes="ssssssssssssssssssssssssss" /></g></svg>
