<?xml version="1.0" encoding="UTF-8" standalone="no"?>
<!-- Generator: Adobe Illustrator 16.0.0, SVG Export Plug-In . SVG Version: 6.00 Build 0)  -->

<svg
   version="1.1"
   id="レイヤー_1"
   x="0px"
   y="0px"
   width="128px"
   height="128px"
   viewBox="0 0 128 128"
   enable-background="new 0 0 128 128"
   xml:space="preserve"
   sodipodi:docname="emoji_u1f6c3.svg"
   inkscape:version="1.3 (0e150ed6c4, 2023-07-21)"
   xmlns:inkscape="http://www.inkscape.org/namespaces/inkscape"
   xmlns:sodipodi="http://sodipodi.sourceforge.net/DTD/sodipodi-0.dtd"
   xmlns:xlink="http://www.w3.org/1999/xlink"
   xmlns="http://www.w3.org/2000/svg"
   xmlns:svg="http://www.w3.org/2000/svg"><defs
   id="defs8"><clipPath
   id="SVGID_2_-9">&#10;				<use
   xlink:href="#SVGID_1_-0"
   overflow="visible"
   id="use2-7" />&#10;			</clipPath><clipPath
   id="clipPath1">&#10;				<use
   xlink:href="#SVGID_1_-0"
   overflow="visible"
   id="use1" />&#10;			</clipPath><path
   id="SVGID_1_-0"
   d="M 59.97,54.56 C 59.82,54.1 59.69,53.63 59.58,53.14 56.66,39.84 64,28.71 74.44,26.54 c 14.94,-3.11 25.28,6.58 26.44,16.01 0.37,3.07 0.29,6.16 -0.49,9.17 -0.6,2.28 -1.87,4.53 -1.93,6.92 -0.06,2.51 1.94,4.83 3.85,6.23 0.32,0.24 0.57,0.53 0.91,0.75 0.7,0.47 1.49,0.81 2.19,1.28 2.58,1.72 5.56,2.89 7.8,5.1 0.53,0.52 1.12,1.03 1.69,1.52 2.97,2.65 2.41,6.42 0.07,9.27 -0.64,0.78 -1.45,1.56 -2.4,1.94 -0.78,0.32 -1.64,0.44 -2.38,0.88 -0.47,0.28 -0.92,0.53 -1.3,0.93 -0.43,0.45 -0.73,1.15 -0.5,1.74 0.28,0.74 0.22,1.45 0.22,2.25 0,4.06 0.5,7.85 0.49,11.84 -0.01,3.24 0.24,7.02 0.96,10.18 0.47,2.07 1.84,4.08 1.67,6.27 -0.31,3.76 -9.3,4.42 -11.88,4.7 -6.63,0.7 -15.48,1.32 -22.02,-0.29 -1.84,-0.45 -3.64,-0.49 -5.44,-1.17 -1.72,-0.66 -1.2,-2.71 -0.87,-4.05 0.49,-2.01 0.09,-4.21 0.46,-6.28 0.34,-1.88 0.15,-3.71 0.38,-5.61 0.35,-2.89 0.59,-5.81 0.59,-8.72 0,-2.69 -0.33,-5.05 -0.73,-7.68 -0.2,-1.38 -0.89,-1.54 -2.08,-0.81 -1.74,1.06 -3.26,2.34 -4.95,3.46 -2.07,1.37 -4.24,2.97 -6.53,4.01 -6.22,2.81 -14.66,6.67 -21.54,3.89 -2.32,-0.93 -4.85,-2.22 -5.98,-4.6 -1.19,-2.5 -0.82,-6.33 0.6,-8.66 1.43,-2.33 4.51,-3.09 7.07,-2.99 1.29,0.05 2.15,0.63 3.34,0.91 1.37,0.33 3.28,-0.28 4.61,-0.65 1.44,-0.4 2.89,-1.04 4.17,-1.73 4.31,-2.3 8.24,-5.32 11.77,-8.68 3.13,-2.97 7.64,-6.18 3.5,-10.27 -2.72,-2.66 -5.06,-5.35 -6.23,-9.04 z" />&#10;	&#10;	&#10;	&#10;&#10;		&#10;		&#10;	&#10;			&#10;			&#10;		&#10;			<defs
   id="defs2">&#10;				<path
   id="SVGID_1_"
   d="m 69.16,49.95 c 0.15,-0.5 0.29,-1.01 0.41,-1.54 C 72.74,34.05 64.8,22.03 53.53,19.68 37.4,16.32 26.22,26.79 24.98,36.98 c -0.34,2.72 -0.27,5.49 0,8.2 0.27,2.65 1.77,5.03 2.96,7.35 0.66,1.31 1.89,2.2 2.55,3.52 1.51,3.08 -0.53,3.96 -3.14,4.75 -1.74,0.52 -4.01,1.75 -5.36,3.12 -1.83,1.87 0.47,2.8 1.54,4.39 0.67,0.98 0.76,1.97 0.93,3.08 0.2,1.34 0.99,2.81 0.45,4.15 -0.41,1.06 -1.25,1.72 -1.56,2.88 -0.92,3.57 -1.11,7.5 -1.11,11.17 0,4.38 -0.55,8.48 -0.53,12.79 0,3.5 -0.26,7.58 -1.04,11 -0.51,2.23 -1.99,4.41 -1.8,6.77 0.34,4.06 10.06,4.78 12.84,5.07 7.17,0.75 16.72,1.42 23.78,-0.32 2,-0.49 3.94,-0.52 5.88,-1.27 1.86,-0.71 1.3,-2.93 0.95,-4.38 -0.53,-2.18 -0.1,-4.55 -0.5,-6.78 -0.36,-2.02 -0.15,-4.01 -0.4,-6.06 -0.39,-3.12 -0.63,-6.27 -0.63,-9.42 -0.01,-2.9 0.35,-5.46 0.78,-8.3 0.22,-1.5 0.97,-1.66 2.25,-0.87 1.88,1.14 3.52,2.53 5.35,3.74 2.24,1.48 4.57,3.21 7.07,4.33 6.71,3.04 15.83,7.2 23.26,4.2 2.5,-1.01 5.24,-2.4 6.46,-4.97 1.28,-2.7 0.87,-6.84 -0.66,-9.35 -1.54,-2.52 -4.86,-3.33 -7.63,-3.23 -1.39,0.05 -2.33,0.68 -3.61,0.99 -1.48,0.36 -3.54,-0.3 -4.97,-0.7 C 87.53,82.4 85.98,81.71 84.58,80.96 79.92,78.48 75.67,75.21 71.85,71.59 68.47,68.38 58,64.12 62.47,59.71 c 2.89,-2.86 5.42,-5.77 6.69,-9.76 z" />&#10;			</defs>&#10;			&#10;			<clipPath
   id="SVGID_2_">&#10;				<use
   xlink:href="#SVGID_1_"
   overflow="visible"
   id="use3" />&#10;			</clipPath>&#10;			&#10;			&#10;		&#10;		&#10;		&#10;	</defs><sodipodi:namedview
   id="namedview8"
   pagecolor="#ffffff"
   bordercolor="#000000"
   borderopacity="0.25"
   inkscape:showpageshadow="2"
   inkscape:pageopacity="0.0"
   inkscape:pagecheckerboard="0"
   inkscape:deskcolor="#d1d1d1"
   inkscape:zoom="2.867097"
   inkscape:cx="45.690815"
   inkscape:cy="83.882757"
   inkscape:window-width="1366"
   inkscape:window-height="697"
   inkscape:window-x="-8"
   inkscape:window-y="-8"
   inkscape:window-maximized="1"
   inkscape:current-layer="レイヤー_1" />&#10;<path
   d="M 121.005,0.115 H 6.995 c -3.78,0 -6.88,3.09 -6.88,6.88 v 114.01 c 0,3.79 3.1,6.88 6.88,6.88 h 114.01 c 3.78,0 6.88,-3.09 6.88,-6.88 V 6.995 c 0,-3.79 -3.1,-6.88 -6.88,-6.88 z"
   fill="#40c0e7"
   id="path1-8"
   style="fill:#006ca2;fill-opacity:1" />&#10;<g
   id="g7"
   transform="translate(3.0022522)"><path
     id="use2"
     style="fill:#ffffff;fill-opacity:1;stroke-width:1"
     d="m 80,18.470703 c -1.689572,0.01403 -3.459229,0.198829 -5.298828,0.582031 -10.282597,2.144108 -17.527031,13.11102 -14.634766,26.212891 0.109487,0.483565 0.238142,0.950056 0.375,1.40625 1.158731,3.640422 3.46672,6.294871 6.103516,8.904297 4.078369,4.023625 -5.474727,7.911083 -8.558594,10.839844 -3.485316,3.302839 -8.881163,7.841207 -12.787108,10.659119 -1.17518,0.847824 -3.077905,2.181075 -4.387954,2.861913 -1.202142,0.624759 -12.72392,8.329674 -6.510055,15.46657 6.165445,7.081282 15.027498,-2.26099 20.447379,-6.235701 2.015509,-1.47809 3.844085,-2.793497 5.68681,-4.407393 1.505777,-1.318791 3.161814,-2.497747 4.8771,-3.537868 1.167855,-0.720785 1.85201,-0.573658 2.052734,0.794922 0.392327,2.591179 0.720038,4.926345 0.710938,7.572266 0,2.874018 -0.218388,5.747104 -0.574219,8.59375 -0.228097,1.870396 -0.03678,3.686276 -0.365234,5.529296 -0.364953,2.03463 0.02849,4.19849 -0.455078,6.1875 -0.319336,1.32296 -0.829852,3.3483 0.867187,3.99609 1.770029,0.68429 3.538508,0.71114 5.363281,1.15821 6.44145,1.58755 15.155454,0.9753 21.697266,0.29101 2.536434,-0.26459 11.404635,-0.92071 11.714845,-4.625 0.17335,-2.15323 -1.17726,-4.1431 -1.64258,-6.17773 -0.71166,-3.12036 -0.94922,-6.841805 -0.94922,-10.035158 0.0182,-3.932386 -0.48242,-7.673668 -0.48242,-11.669921 0,-3.348459 -0.17427,-6.934187 -1.01367,-10.191407 -0.28284,-1.058369 -1.0478,-1.659824 -1.42188,-2.626953 -0.49269,-1.222599 0.22768,-2.564511 0.41016,-3.787109 0.15511,-1.01275 0.23636,-1.916408 0.84766,-2.810547 0.97625,-1.450695 3.07591,-2.297743 1.40625,-4.003906 -1.23172,-1.24997 -3.30307,-2.373215 -4.890629,-2.847657 -2.381329,-0.720785 -4.242938,-1.523834 -2.865235,-4.333984 0.602176,-1.204351 1.723997,-2.015712 2.326172,-3.210937 1.08574,-2.116737 2.454832,-4.289207 2.701172,-6.707032 0.24635,-2.472567 0.31021,-4.998777 0,-7.480468 C 99.760061,26.702824 91.827007,18.372532 80,18.470703 Z"
     sodipodi:nodetypes="scccccsssssccccccccccccsccccccccccs" /><path
     clip-path="url(#SVGID_2_)"
     fill="#ffffff"
     d="m 59.52,107.62 c -5.6,0.23 -11.17,0.93 -16.77,0.95 -2.65,0.01 -5.33,-0.24 -7.98,-0.4 -2.97,-0.18 -5.92,-0.37 -8.89,-0.61 -1.14,-0.09 -2.28,-0.19 -3.42,-0.32 -0.4,-0.04 -0.78,-0.1 -1.16,-0.15 -1.33,-0.16 -2.17,2.68 -2.41,3.57 -0.59,2.17 -0.85,3.62 1.56,4.23 3.73,0.92 7.86,1.33 11.7,1.72 2.87,0.29 5.77,0.37 8.65,0.25 4.32,-0.17 8.62,-0.51 12.95,-0.6 1.67,-0.03 3.27,-0.33 4.93,-0.49 1.21,-0.12 4.73,0.05 5.16,-1.45 0.16,-0.54 -0.01,-1.4 -0.01,-1.97 0.01,-0.88 -0.06,-1.81 -0.21,-2.67 -0.12,-0.65 -0.44,-1.77 -1.03,-1.95 -0.5,-0.15 -1.03,0.07 -1.55,0.03 -0.51,-0.05 -0.98,-0.17 -1.52,-0.14 z"
     id="path3"
     style="fill:#006ca2;fill-opacity:1;stroke-width:1.09603"
     transform="matrix(-0.91238749,0,0,0.91238749,123.54118,1.0974007)" /><path
     clip-path="url(#SVGID_2_)"
     fill="#ffffff"
     d="m 67.35,74.06 c -1.52,3.9 -4.41,7.51 -6.85,10.4 -7.67,9.09 -16.97,17.26 -27.03,23.61 -0.95,0.6 -2.38,1.59 -3.47,1.8 -1.4,0.28 -2.85,-0.24 -4.25,-0.25 -1.37,0 -2.83,0.21 -4.16,-0.21 -0.46,-0.15 -0.7,-0.33 -1.19,-0.4 -0.62,-0.08 -1.25,-0.04 -1.88,-0.2 -1.1,-0.28 -1.35,-1.09 -0.17,-1.52 1.07,-0.39 1.9,-1.12 2.83,-1.74 0.85,-0.57 1.67,-1.11 2.48,-1.75 1.96,-1.56 3.93,-3.07 5.94,-4.58 4.79,-3.64 9.64,-7.22 14.15,-11.21 4.32,-3.82 8.5,-7.89 11.91,-12.56 1.11,-1.51 2.15,-3.08 3.02,-4.75 1.31,-2.48 2.66,-4.97 2.88,-7.78 0.05,-0.62 0.31,-0.85 0.79,-0.37 0.87,0.86 1.38,1.83 2.48,2.47 1.41,0.83 3.23,1.11 3.58,2.97 0.38,2 -0.35,4.23 -1.06,6.07 z"
     id="path4"
     style="fill:#006ca2;fill-opacity:1;stroke-width:1.09603"
     transform="matrix(-0.91238749,0,0,0.91238749,123.54118,1.0974007)" /><path
     fill="#006ca2"
     d="m 92.255413,68.604951 c -0.191601,-0.291964 -0.364955,-0.593052 -0.520061,-0.903264 -1.678793,-3.065621 -2.335712,-9.406715 1.751784,-10.90303 3.120365,-1.140484 7.591064,0.766405 10.291734,2.436075 2.62767,1.624049 5.13674,4.032752 7.18049,6.322845 3.72254,4.178735 6.4597,9.078255 8.57644,14.233245 2.14411,5.255352 3.02,11.058136 2.27184,16.696691 -0.28284,2.171482 -0.83939,4.342967 -1.69704,6.368467 -0.84852,1.99813 -1.99813,4.04187 -3.98713,5.07287 -1.04925,0.53831 -2.18061,0.6113 -3.29372,0.88502 -5.95789,1.45982 -13.074512,-6.94327 -8.25711,-12.080013 0.8759,-0.930635 1.91602,-1.797403 2.41783,-3.010878 0.23722,-0.6113 0.18248,-1.295591 0.16423,-1.95251 -0.0456,-1.560182 -0.65692,-3.056498 -1.00363,-4.589309 -0.49268,-2.098491 -1.81565,-3.759036 -2.81015,-5.602059 -0.96713,-1.815651 -2.17148,-3.394081 -3.594806,-4.881273 -2.536437,-2.645924 -5.51082,-4.981636 -7.490701,-8.092877 z"
     id="path5"
     style="fill:#ffffff;fill-opacity:1;stroke-width:1" /><path
     fill="#006ca2"
     d="m 51.964381,22.191799 c -0.09124,0.383203 -0.136858,0.793778 -0.136858,1.186104 0.0091,3.020003 2.691543,4.269974 3.859399,6.669553 0.218973,0.492689 0.474442,1.633173 0.401451,2.171482 -0.09124,0.812025 -1.313838,1.815651 -1.888642,2.344836 -0.748158,0.702538 -1.687917,1.697041 -1.359458,2.855773 0.118611,0.474441 0.465318,0.702538 0.912388,0.985378 1.030998,0.675167 2.207978,0.757282 3.375834,0.903264 6.97064,0.84852 14.242368,-0.182478 21.276876,-1.861271 4.735291,-1.122236 9.434087,-2.262721 14.142006,-3.950638 3.740789,-1.350333 8.576443,-2.536437 7.664053,-7.317347 -0.465316,-2.253597 -0.26459,-5.045503 -1.496314,-7.01626 -1.478067,-2.335712 -4.37946,-3.266347 -6.952392,-3.968886 -7.645807,-2.080243 -15.282491,-3.923266 -23.147271,-3.010878 -3.421453,0.40145 -7.080127,1.149608 -10.018015,3.010878 -1.040121,0.666043 -2.071119,1.140485 -3.010878,1.916014 -1.532811,1.259095 -3.175109,3.047374 -3.622179,5.081998 z"
     id="path6"
     style="fill:#ffffff;fill-opacity:1;stroke-width:1" /><path
     fill="#78a3ad"
     d="m 57.392689,100.19092 c -1.395953,-0.0274 -2.782782,-0.0183 -4.187859,-0.0183 -3.777284,0 -7.53632,0.009 -11.304481,0 -4.707919,0 -9.415839,0 -14.132882,0 -4.151363,0 -8.302726,0 -12.463213,0 -1.487192,0 -2.96526,0 -4.452451,0 -0.629548,0 -1.2590954,0 -1.8977664,0.0547 -0.4744419,0.0365 -0.7481579,0.20073 -0.8120249,0.70254 -0.06387,0.40145 -0.209849,0.8029 -0.255469,1.2226 -0.04562,0.4197 0.0091,0.87589 0.0091,1.31384 0,4.30647 0.675167,10.00889 5.1276183,12.04351 1.468944,0.66605 3.229852,1.08574 4.82653,1.2591 9.114751,0.98538 18.567086,0.958 27.718332,0.52918 4.698796,-0.21897 12.873788,-0.0365 15.437596,-4.99076 1.213476,-2.32659 1.231723,-4.97251 1.158732,-7.52719 -0.02737,-1.43245 0.32846,-4.68055 -1.943385,-4.58931 -0.602176,0.0182 -1.158732,-0.0547 -1.760908,-0.0365 -0.346707,0 -0.702538,0.0456 -1.067493,0.0365 z"
     id="path6-4"
     style="fill:#ffffff;fill-opacity:1;stroke-width:1" /><path
     fill="#78a3ad"
     d="m 27.530246,56.076986 c -0.374079,1.341209 -0.793777,2.664171 -1.195227,4.014505 -1.085741,3.60393 -2.18973,7.216985 -3.266347,10.830039 -1.359458,4.507194 -2.718915,9.014389 -4.078373,13.521583 -1.204351,3.978009 -2.408703,7.956021 -3.60393,11.934031 -0.428822,1.4142 -0.857644,2.83752 -1.286466,4.251716 -0.173354,0.6113 -0.364955,1.20435 -0.602176,1.79741 -0.173354,0.43794 -0.410575,0.66604 -0.912388,0.58392 -0.401451,-0.0639 -0.839397,-0.0365 -1.249971,-0.11861 -0.419698,-0.0821 -0.839396,-0.25546 -1.249971,-0.3832 -4.1239913,-1.24997 -9.3884673,-3.540056 -10.0453863,-8.393956 -0.218973,-1.59668 -0.109487,-3.412333 0.191601,-4.990763 1.687917,-9.014389 4.443327,-18.056149 7.508949,-26.696458 1.5693069,-4.42508 3.7590373,-12.308108 9.2333623,-13.339105 2.572933,-0.49269 5.118494,0.264592 7.536321,1.067493 1.359457,0.44707 4.580185,1.040122 3.841151,3.193356 -0.191601,0.56568 -0.291964,1.131361 -0.474441,1.697041 -0.100363,0.346707 -0.246345,0.68429 -0.346708,1.030998 z"
     id="path7-7"
     style="fill:#ffffff;fill-opacity:1;stroke-width:1" /></g></svg>
