<?xml version="1.0" encoding="UTF-8" standalone="no"?>
<svg
   width="128"
   height="128"
   style="enable-background:new 0 0 128 128;"
   version="1.1"
   id="svg5"
   sodipodi:docname="emoji_u1f4a9.svg"
   inkscape:version="1.3 (0e150ed6c4, 2023-07-21)"
   xmlns:inkscape="http://www.inkscape.org/namespaces/inkscape"
   xmlns:sodipodi="http://sodipodi.sourceforge.net/DTD/sodipodi-0.dtd"
   xmlns="http://www.w3.org/2000/svg"
   xmlns:svg="http://www.w3.org/2000/svg">
  <defs
     id="defs5" />
  <sodipodi:namedview
     id="namedview5"
     pagecolor="#ffffff"
     bordercolor="#000000"
     borderopacity="0.25"
     inkscape:showpageshadow="2"
     inkscape:pageopacity="0.0"
     inkscape:pagecheckerboard="0"
     inkscape:deskcolor="#d1d1d1"
     inkscape:zoom="4.0546875"
     inkscape:cx="64.246628"
     inkscape:cy="69.425819"
     inkscape:window-width="1366"
     inkscape:window-height="697"
     inkscape:window-x="-8"
     inkscape:window-y="-8"
     inkscape:window-maximized="1"
     inkscape:current-layer="svg5" />
  <g
     id="g11">
    <g
       id="图层_2">
      <g
         id="g5">
        <path
           d="M118.89,75.13c-1.31-2.72-3.46-5.53-6.97-7.33c-2.37-1.48-4.57-2.24-6.01-2.63 c1.53-5.6-0.64-10.06-3.69-13.39c-4.53-4.88-9.27-5.59-9.27-5.59l-0.01,0c1.56-3.03,2.15-6.54,1.36-9.99 c-1-4.26-3.29-6.94-6.31-8.73c-3.09-1.83-6.91-2.73-10.83-3.43c-1.88-0.34-9.81-1.45-13.1-6c-2.65-3.69-2.73-10.33-3.45-12.32 c-0.77-2.05-3.38-1.15-6.23,0.76c-3.33,2.22-10.23,9.35-12.89,16.49c-2.03,5.47-2.08,10.21-1.28,13.89 c-3.29,0.55-5.76,1.66-6.23,1.88c-0.16,0.05-0.32,0.1-0.49,0.17c-3.01,1.24-9.43,7.02-10.01,15.85c-0.2,3.14,0.21,6.31,1.2,9.26 c-3.94,1.1-6.22,2.54-6.26,2.57c-2,0.75-5.18,2.95-6.15,4.13c-1.97,2.38-3.34,5.21-4.15,8.18C6.35,85.36,7,92.71,10.14,98.67 c1.74,3.31,4.12,6.83,6.74,9.52c8.55,8.79,23.31,12.11,34.96,14.03c14.19,2.34,29.05,1.52,42.33-3.97 c19.92-8.22,25.22-21.44,26-25.17C121.92,84.77,119.8,77,118.89,75.13z"
           style="fill:#865D53;"
           id="path1" />
        <g
           id="g4">
          <g
             id="g2" />
          <g
             id="g3">
            <ellipse
               cx="-48.84486"
               cy="62.133499"
               rx="14.369454"
               ry="15.398494"
               style="fill:#ffffff;stroke-width:1.00003"
               transform="matrix(-0.99716865,-0.07519764,-0.07519764,0.99716865,0,0)"
               id="ellipse2" />
            <path
               d="m 49.635401,64.452627 c 0.352273,3.049936 -1.863335,5.840304 -4.950353,6.229658 -3.096289,0.398623 -5.895926,-1.761362 -6.248199,-4.802028 -0.370813,-3.049937 1.844794,-5.840305 4.941083,-6.238929 3.087018,-0.389353 5.895926,1.770632 6.257469,4.811299"
               style="fill:#2f2f2f;stroke-width:0.999999"
               id="path3" />
          </g>
        </g>
        <path
           d="m 88.458691,88.261191 c -2.325434,-1.571239 -5.258413,-0.534222 -7.84572,0 -7.2277,1.487439 -13.56503,1.550289 -16.613233,1.550289 -3.048204,0 -9.385535,-0.06285 -16.613233,-1.550289 -2.587306,-0.534222 -5.520286,-1.571239 -7.845719,0 -2.95393,1.990236 -0.775145,9.155085 3.875723,13.994509 2.807279,2.92251 9.500757,8.59991 20.593704,8.59991 11.082472,0 17.77595,-5.6774 20.593705,-8.59991 4.629917,-4.839424 6.808702,-11.993798 3.854773,-13.994509 z"
           style="fill:#ed6d31;stroke-width:0.999999"
           id="path4" />
      </g>
    </g>
    <g
       id="g10"
       transform="matrix(-1,0,0,1,127.99386,0)">
      <g
         id="g9">
        <g
           id="g8">
          <g
             id="g6" />
          <g
             id="g7">
            <ellipse
               cx="-48.84486"
               cy="62.133499"
               rx="14.369454"
               ry="15.398494"
               style="fill:#ffffff;stroke-width:1.00003"
               transform="matrix(-0.99716865,-0.07519764,-0.07519764,0.99716865,0,0)"
               id="ellipse6" />
            <path
               d="m 49.635401,64.452627 c 0.352273,3.049936 -1.863335,5.840304 -4.950353,6.229658 -3.096289,0.398623 -5.895926,-1.761362 -6.248199,-4.802028 -0.370813,-3.049937 1.844794,-5.840305 4.941083,-6.238929 3.087018,-0.389353 5.895926,1.770632 6.257469,4.811299"
               style="fill:#2f2f2f;stroke-width:0.999999"
               id="path6" />
          </g>
        </g>
      </g>
    </g>
  </g>
</svg>
