<?xml version="1.0" encoding="UTF-8" standalone="no"?>
<svg
   width="128"
   height="128"
   version="1.1"
   id="svg4"
   sodipodi:docname="emoji_u1f61c.svg"
   xml:space="preserve"
   inkscape:version="1.3 (0e150ed6c4, 2023-07-21)"
   xmlns:inkscape="http://www.inkscape.org/namespaces/inkscape"
   xmlns:sodipodi="http://sodipodi.sourceforge.net/DTD/sodipodi-0.dtd"
   xmlns="http://www.w3.org/2000/svg"
   xmlns:svg="http://www.w3.org/2000/svg"><defs
     id="defs4" /><sodipodi:namedview
     id="namedview4"
     pagecolor="#ffffff"
     bordercolor="#000000"
     borderopacity="0.25"
     inkscape:showpageshadow="2"
     inkscape:pageopacity="0.0"
     inkscape:pagecheckerboard="0"
     inkscape:deskcolor="#d1d1d1"
     inkscape:zoom="8.515625"
     inkscape:cx="64"
     inkscape:cy="64"
     inkscape:current-layer="svg4" /><g
     id="g5"
     transform="translate(0.00352315,0.0027288)">&#10;	<g
   id="g3">&#10;		<g
   id="g2">&#10;			<g
   id="g1">&#10;				<path
   fill="#fcc21b"
   d="M 15.95,32.79 C 35.2,3.96 67.36,-9.2 101.44,8.14 c 22.82,11.61 30.74,39.16 20.83,71.54 -4.09,13.36 6.13,15.62 5.47,22.71 -1.3,13.88 -28.45,25.24 -63.56,25.24 -35.1,0 -62.63,-11.34 -63.57,-25.24 -1.88,-28.01 3.05,-51.17 15.34,-69.6"
   id="path1" />&#10;			</g>&#10;		</g>&#10;		<path
   fill="#d7598b"
   d="M 72.62,63.69 C 72.73,61.79 66.99,61.72 65.78,61.34 64.05,60.83 62.46,60.13 60.65,59.8 55.22,58.79 50.32,55.34 44.7,55.19 38.6,55.03 34.02,58.82 31,63.85 c -1.6,2.65 -2.53,6.46 -1.42,9.54 0.69,1.91 1.7,3.45 3.61,4.74 2.91,1.97 8.45,2.49 12.38,0.91 6.24,-2.52 9.05,-6.91 13.47,-10.55 5.72,-4.7 11.03,-4.67 13.58,-4.8 z"
   id="path2" />&#10;		<path
   fill="#2f2f2f"
   d="m 87.54,65.92 c -40.13,0 -55.3,-15.64 -55.93,-16.31 -1.11,-1.18 -1.05,-3.03 0.13,-4.14 1.17,-1.11 3.02,-1.05 4.13,0.12 0.23,0.23 14.46,14.47 51.68,14.47 0.23,0 0.42,-0.03 0.68,0 1.61,0 2.92,1.3 2.93,2.92 0.01,1.62 -1.3,2.94 -2.92,2.95 -0.23,-0.01 -0.47,-0.01 -0.7,-0.01 z"
   id="path3" />&#10;	</g>&#10;	<path
   fill="#2f2f2f"
   d="m 54.22,35.5 c -3.13,4.09 -8.41,5.29 -11.79,2.72 -3.38,-2.58 -3.59,-7.99 -0.46,-12.07 3.12,-4.11 8.39,-5.31 11.77,-2.71 3.37,2.56 3.59,7.99 0.48,12.06"
   id="path4" />&#10;	<path
   fill="#2f2f2f"
   d="M 90.1,51.22 C 89.69,51.17 89.29,51.03 88.92,50.78 82.05,46.25 74.18,43.75 74.1,43.73 c -1.17,-0.36 -1.95,-1.46 -1.93,-2.68 0.02,-1.23 0.83,-2.29 2.01,-2.62 8.58,-2.41 18.43,-2.54 18.85,-2.55 1.56,-0.02 2.77,1.21 2.79,2.73 0.02,1.53 -1.21,2.78 -2.74,2.8 -0.06,-0.01 -3.77,0.04 -8.47,0.62 2.33,1.11 4.88,2.49 7.33,4.12 1.28,0.84 1.63,2.56 0.8,3.83 -0.59,0.92 -1.63,1.36 -2.64,1.24 z"
   id="path5" />&#10;</g></svg>
