<?xml version="1.0" encoding="UTF-8" standalone="no"?>
<svg
   width="100%"
   height="100%"
   viewBox="0 0 128 128"
   version="1.1"
   xml:space="preserve"
   style="fill-rule:evenodd;clip-rule:evenodd;stroke-linejoin:round;stroke-miterlimit:2;"
   id="svg2"
   sodipodi:docname="emoji_u1f92a.svg"
   inkscape:version="1.3 (0e150ed6c4, 2023-07-21)"
   xmlns:inkscape="http://www.inkscape.org/namespaces/inkscape"
   xmlns:sodipodi="http://sodipodi.sourceforge.net/DTD/sodipodi-0.dtd"
   xmlns="http://www.w3.org/2000/svg"
   xmlns:svg="http://www.w3.org/2000/svg"><defs
   id="defs2"><clipPath
     clipPathUnits="userSpaceOnUse"
     id="clipPath2"><path
       id="path2"
       style="stroke-width:1.00019"
       d="M 88.277343,35.015625 A 19.895958,18.566364 83.65 0 0 85.628906,35.105469 19.895958,18.566364 83.65 0 0 69.376954,56.933594 19.895958,18.566364 83.65 0 0 90.03125,74.654297 19.895958,18.566364 83.65 0 0 106.2832,52.826172 19.895958,18.566364 83.65 0 0 88.277343,35.015625 Z m -47.042968,0.04883 A 18.566366,19.895958 4.3130002 0 0 21.22461,53.507812 18.566366,19.895958 4.3130002 0 0 38.242188,74.744141 18.566366,19.895958 4.3130002 0 0 58.251953,56.300781 18.566366,19.895958 4.3130002 0 0 41.234375,35.064453 Z" /></clipPath></defs><sodipodi:namedview
   id="namedview2"
   pagecolor="#ffffff"
   bordercolor="#000000"
   borderopacity="0.25"
   inkscape:showpageshadow="2"
   inkscape:pageopacity="0.0"
   inkscape:pagecheckerboard="0"
   inkscape:deskcolor="#d1d1d1"
   inkscape:zoom="4.0546875"
   inkscape:cx="60.67052"
   inkscape:cy="71.645472"
   inkscape:window-width="1366"
   inkscape:window-height="697"
   inkscape:window-x="-8"
   inkscape:window-y="-8"
   inkscape:window-maximized="1"
   inkscape:current-layer="svg2" />&#10;    <path
   id="path10"
   d="M63.89,9.64C1.58,9.64 0.1,79.5 0.1,93.33C0.1,107.16 28.66,118.36 63.89,118.36C99.13,118.36 127.68,107.15 127.68,93.33C127.68,79.5 126.21,9.64 63.89,9.64Z"
   style="fill:rgb(252,194,27);fill-rule:nonzero;" />&#10;    &#10;    &#10;    &#10;    &#10;    &#10;    <path
   id="path20"
   d="m 100.19129,66.563248 c -3.731485,-1.7285 -7.720925,0.458583 -11.338869,1.838736 -10.075567,3.843929 -19.222947,5.415893 -23.619158,6.129121 -4.39621,0.712124 -13.572251,2.111018 -24.346715,1.645822 -3.868179,-0.165354 -8.344862,-0.9811 -11.337768,1.837634 -3.798731,3.574952 1.021888,13.40359 8.868483,19.301215 4.743453,3.563924 15.733979,10.191314 31.741343,7.596354 16.006262,-2.59496 24.340101,-12.355241 27.715526,-17.235386 5.581248,-8.073683 7.039668,-18.919799 2.317158,-21.113496 z"
   style="fill:#ec6c31;fill-rule:nonzero;stroke-width:0.999997" /><path
   id="path4"
   d="m 38.312918,94.190795 c -0.891872,3.328512 -3.638,17.276985 4.383,24.212985 1.494,1.301 3.666,2.332 6.013,2.922 l 0.02,-0.078 -0.02,0.078 c 2.354,0.561 4.757,0.65 6.681,0.193 10.326,-2.436 14.226166,-16.20993 15.093,-19.445 0.866834,-3.235068 -1.236449,-5.538483 -15.384449,-9.140479 -14.148,-3.601996 -15.893679,-2.071018 -16.785551,1.257494 z"
   style="fill:#eb7aa4;fill-rule:nonzero"
   sodipodi:nodetypes="zccccczzz" /><g
   id="ellipse15"
   transform="matrix(0.22745495,-1.091643,1.091643,0.22745495,-3.1791026,-10.397075)"
   style="stroke-width:0.896791">&#10;        <ellipse
   cx="-31.851"
   cy="87.140999"
   rx="16.611"
   ry="15.501"
   style="fill:#ffffff;stroke-width:0.821331"
   id="ellipse1" />&#10;    </g><path
   id="path17"
   d="m 86.938069,52.519436 c -0.496447,2.989474 -3.367711,5.03678 -6.406551,4.564772 -3.047347,-0.464973 -5.118682,-3.283635 -4.623241,-6.274326 0.487402,-3.000415 3.349949,-5.038466 6.39767,-4.565616 3.047347,0.464975 5.127564,3.284477 4.632122,6.27517"
   style="fill:#2f2f2f;fill-rule:nonzero;stroke-width:0.999996" /><g
   id="ellipse19"
   transform="matrix(1.1119295,-0.08386014,0.08386014,1.1119295,-5.7484366,-2.8230289)"
   style="stroke-width:0.896791">&#10;        <ellipse
   cx="40.18"
   cy="51.525002"
   rx="15.5"
   ry="16.611"
   style="fill:#ffffff;stroke-width:0.821331"
   id="ellipse2" />&#10;    </g><path
   id="path21"
   d="m 50.550015,46.063858 c 0.349023,3.018542 -1.844353,5.780614 -4.899693,6.166433 -3.065376,0.394743 -5.836368,-1.743995 -6.185389,-4.753616 -0.367979,-3.019657 1.826512,-5.781728 4.890773,-6.17647 3.055339,-0.384704 5.836367,1.752918 6.194309,4.763653"
   style="fill:#2f2f2f;fill-rule:nonzero;stroke-width:0.999996" />&#10;</svg>
