<?xml version="1.0" encoding="UTF-8" standalone="no"?>
<svg
   width="100%"
   height="100%"
   viewBox="0 0 128 128"
   version="1.1"
   xml:space="preserve"
   style="fill-rule:evenodd;clip-rule:evenodd;stroke-linecap:round;stroke-linejoin:round;stroke-miterlimit:10;"
   id="svg6"
   sodipodi:docname="emoji_u1f964.svg"
   inkscape:version="1.3 (0e150ed6c4, 2023-07-21)"
   xmlns:inkscape="http://www.inkscape.org/namespaces/inkscape"
   xmlns:sodipodi="http://sodipodi.sourceforge.net/DTD/sodipodi-0.dtd"
   xmlns="http://www.w3.org/2000/svg"
   xmlns:svg="http://www.w3.org/2000/svg"><defs
   id="defs6" /><sodipodi:namedview
   id="namedview6"
   pagecolor="#ffffff"
   bordercolor="#000000"
   borderopacity="0.25"
   inkscape:showpageshadow="2"
   inkscape:pageopacity="0.0"
   inkscape:pagecheckerboard="0"
   inkscape:deskcolor="#d1d1d1"
   inkscape:zoom="4"
   inkscape:cx="42.25"
   inkscape:cy="54.875"
   inkscape:window-width="1366"
   inkscape:window-height="697"
   inkscape:window-x="-8"
   inkscape:window-y="-8"
   inkscape:window-maximized="1"
   inkscape:current-layer="svg6" />&#10;    &#10;    &#10;    &#10;    &#10;    &#10;    &#10;    &#10;<path
   d="M 95.999017,44.368246 H 32.000983 c 0,0 6.6297,68.979594 6.841643,70.717974 0.222237,1.82281 1.366562,3.42668 3.052421,4.27607 5.180748,2.61023 12.264032,4.53394 22.149346,4.53394 9.885314,0 16.969174,-1.92257 22.149346,-4.53394 1.687777,-0.85082 2.824828,-2.45453 3.052421,-4.27607 0.217122,-1.73774 6.752857,-70.717974 6.752857,-70.717974 z"
   style="fill:#196ca2;fill-rule:nonzero;stroke-width:1"
   id="path1"
   sodipodi:nodetypes="ccsssssc" /><ellipse
   cx="64"
   cy="41.301262"
   rx="27.455011"
   ry="9.7408638"
   style="fill:#185987;stroke-width:1"
   id="ellipse2" /><path
   id="path7"
   style="fill:#1da3c8;stroke-width:1"
   d="M 64 29.121094 A 32.380001 13.781464 0 0 0 31.619141 42.902344 A 32.380001 13.781464 0 0 0 64 56.683594 A 32.380001 13.781464 0 0 0 96.380859 42.902344 A 32.380001 13.781464 0 0 0 64 29.121094 z M 64 33.292969 A 22.572023 8.0084105 0 0 1 86.572266 41.300781 A 22.572023 8.0084105 0 0 1 86.113281 42.902344 A 22.572023 8.0084105 0 0 1 64 49.310547 A 22.572023 8.0084105 0 0 1 41.939453 42.902344 A 22.572023 8.0084105 0 0 1 41.427734 41.300781 A 22.572023 8.0084105 0 0 1 64 33.292969 z " /><path
   id="path2"
   style="fill:#d7598b;fill-rule:nonzero;stroke-width:0.999999"
   d="M 23.558594 4.1035156 C 21.912536 4.1166429 21.192441 5.4895561 20.742188 7.4003906 C 20.227611 9.5842016 20.254675 11.655591 22.453125 12.103516 L 41.353516 15.955078 C 46.042658 16.910469 50.134601 20.69732 50.541016 25.455078 L 51.482422 36.474609 L 52.480469 48.150391 A 22.572023 8.0084105 0 0 0 60.740234 49.21875 L 59.578125 35.671875 C 59.578125 35.671875 58.636058 24.680897 58.623047 24.550781 C 58.610497 24.425274 58.597519 24.287962 58.574219 24.162109 C 57.106498 16.234205 51.124317 9.6446858 43.224609 8.0351562 L 24.322266 4.1835938 C 24.047459 4.1276032 23.793745 4.1016403 23.558594 4.1035156 z " /><path
   d="m 45.420412,18.690375 c 0.714905,0.527782 1.530724,1.255435 2.346971,2.259117 0.878091,1.079726 1.844953,2.676693 2.123715,3.654894 0.411526,1.444081 1.907698,3.386721 5.635241,2.326191 3.727544,-1.06053 4.007642,-3.500358 3.77575,-4.854818 -0.320341,-1.87108 -1.027237,-4.968765 -2.93751,-7.426693 -1.767069,-2.27367 -3.878853,-3.726262 -5.459533,-4.593538 -1.255768,-0.689006 -3.882802,-0.8554403 -5.941108,2.388903 -2.058307,3.244343 -0.698669,5.393154 0.456474,6.245944 z"
   style="fill:#b32362;fill-rule:nonzero;stroke-width:0.999999"
   id="path3"
   sodipodi:nodetypes="sssssssss" /><g
   id="g6"
   transform="translate(0,0.77123085)">&#10;        <path
   d="m 42.46,36.49 c 0,1.32 4.57,3.45 13.38,4.59 L 55.06,32 c -8.32,1.15 -12.6,3.2 -12.6,4.49 z m 26.41,5.36 c 17.34,0 26.41,-3.49 26.41,-5.36 0,-1.87 -9.07,-5.36 -26.41,-5.36 -2.65,0 -5.09,0.09 -7.35,0.23 l 0.88,10.31 c 2.01,0.11 4.16,0.18 6.47,0.18 z"
   style="fill:none;fill-rule:nonzero"
   id="path5" />&#10;        &#10;    </g></svg>
