<?xml version="1.0" encoding="UTF-8" standalone="no"?>
<svg
   width="100%"
   height="100%"
   viewBox="0 0 128 128"
   version="1.1"
   xml:space="preserve"
   style="fill-rule:evenodd;clip-rule:evenodd;stroke-linejoin:round;stroke-miterlimit:2;"
   id="svg56590"
   sodipodi:docname="emoji_u1f973.svg"
   inkscape:version="1.2.2 (732a01da63, 2022-12-09)"
   xmlns:inkscape="http://www.inkscape.org/namespaces/inkscape"
   xmlns:sodipodi="http://sodipodi.sourceforge.net/DTD/sodipodi-0.dtd"
   xmlns:xlink="http://www.w3.org/1999/xlink"
   xmlns="http://www.w3.org/2000/svg"
   xmlns:svg="http://www.w3.org/2000/svg"><defs
   id="defs56594"><pattern
   inkscape:collect="always"
   xlink:href="#Strips2_1"
   id="pattern64180"
   patternTransform="matrix(7.3650043,0.99308862,1.2397203,-9.1940977,-60.880387,-62.455354)" /><pattern
   inkscape:collect="always"
   patternUnits="userSpaceOnUse"
   width="1.5"
   height="1"
   patternTransform="translate(0,0) scale(10,10)"
   id="Strips2_1"
   inkscape:stockid="Stripes 2:1"><rect
     style="fill:black;stroke:none"
     x="0"
     y="-0.5"
     width="1"
     height="2"
     id="rect58129" /></pattern>
        
    <pattern
   patternUnits="userSpaceOnUse"
   width="64.542633"
   height="30.118849"
   patternTransform="translate(60.880387,62.455354)"
   id="pattern64182"><path
     id="path56718"
     d="m 64.542633,15.487101 c 0,9.841476 -6.51107,14.631748 -14.96934,14.631748 -4.79832,0 -7.22689,-0.401729 -12.00767,-0.937659 L 2.449613,25.244646 C 0.192503,24.991621 0,23.358724 0,20.484154 0,17.301807 0.824177,15.800272 3.082613,16.039868 l 34.33463,3.642544 c 3.62212,0.384269 7.34658,1.308931 10.41229,1.313142 3.78536,0.0052 6.84848,-1.845033 6.84848,-5.508453 0,-3.436981 -2.21343,-6.118592 -6.65354,-6.118592 -5.00835,0 -8.03697,3.827132 -9.245289,3.038491 C 38.152882,11.998231 37.856553,11.149411 36.816557,9.273583 35.776555,7.397747 35.153143,6.486375 35.4326,5.624934 35.972813,3.959705 40.993583,0 48.671073,0 c 10.04944,0 15.87156,6.87143 15.87156,15.487101 z"
     style="fill:url(#pattern64180);fill-opacity:1;fill-rule:nonzero"
     sodipodi:nodetypes="ssssssssssszsss" /></pattern></defs><sodipodi:namedview
   id="namedview56592"
   pagecolor="#ffffff"
   bordercolor="#000000"
   borderopacity="0.25"
   inkscape:showpageshadow="2"
   inkscape:pageopacity="0.0"
   inkscape:pagecheckerboard="0"
   inkscape:deskcolor="#d1d1d1"
   showgrid="false"
   inkscape:zoom="2.9996795"
   inkscape:cx="57.006089"
   inkscape:cy="74.007905"
   inkscape:window-width="1366"
   inkscape:window-height="697"
   inkscape:window-x="-8"
   inkscape:window-y="-8"
   inkscape:window-maximized="1"
   inkscape:current-layer="svg56590" />
    <path
   id="path35586"
   d="M33.983,64.788C32.983,64.798 32.189,64.998 31.458,65.469L31.456,65.469C31.154,65.664 30.909,65.971 30.785,66.85C30.66,67.73 30.782,69.066 31.237,70.583C31.759,72.323 32.713,74.287 33.975,76.194C40.853,77.316 61.811,79.85 94.143,76.014C95.346,74.164 96.258,72.269 96.763,70.583C97.217,69.066 97.339,67.728 97.215,66.848C97.091,65.968 96.845,65.663 96.546,65.469C95.572,64.841 94.485,64.695 92.944,64.837C91.403,64.978 89.565,65.467 87.625,65.848L87.627,65.846C77.305,67.882 68.27,67.96 64.002,67.96C59.734,67.96 50.702,67.882 40.379,65.846L40.379,65.848C38.439,65.466 36.601,64.978 35.059,64.837C34.701,64.802 34.342,64.785 33.983,64.787L33.983,64.788Z"
   style="fill:white;fill-rule:nonzero;" />
    <path
   id="path35588"
   d="m 63.931671,9.5566578 c -62.3099999,0 -63.78999988,69.8600002 -63.78999988,83.6900002 0,13.830002 28.55999988,25.030002 63.78999988,25.030002 35.24,0 63.789999,-11.21 63.789999,-25.030002 0,-13.83 -1.47,-83.6900002 -63.789999,-83.6900002 z"
   style="fill:#fcc21b;fill-rule:nonzero" /><g
   id="g92483"
   transform="rotate(-30,-91.456169,-32.901018)"><path
     id="path83741"
     style="fill:#ed6c30;fill-rule:nonzero;stroke-width:6;stroke-linecap:round"
     inkscape:transform-center-y="-5.1737466"
     d="m -3.4237123,76.768235 c -1.4142203,3.223882 -4.9885616,4.189074 -14.9989237,6.871343 -10.01036,2.682268 -13.58843,3.633555 -16.42512,1.548705 -2.836691,-2.084854 0.763524,-22.080197 1.918148,-27.250682 1.154621,-5.170487 2.354241,-9.013744 5.013964,-9.726415 2.65972,-0.71267 5.620253,2.015878 9.205426,5.916341 3.585176,3.900459 16.7007263,19.416826 15.2865057,22.640708 z"
     sodipodi:nodetypes="zzzzzzz"
     inkscape:transform-center-x="-1.8236414" /><path
     id="rect83796"
     style="fill:#fef070;fill-opacity:1;fill-rule:nonzero;stroke:none;stroke-width:6;stroke-linecap:round"
     d="m -32.371693,55.614342 c -0.189744,0.74188 -0.375066,1.509018 -0.557036,2.323886 -0.305435,1.367766 -0.78332,3.784807 -1.266602,6.621416 L -13.45847,60.25668 c -2.180745,-2.668132 -4.15966,-4.940113 -5.251786,-6.128281 -0.361123,-0.392882 -0.710746,-0.764719 -1.059527,-1.131502 z m -2.828705,15.637546 c -0.09935,0.772062 -0.191794,1.541528 -0.274374,2.300728 -0.0019,0.01806 -0.0034,0.03595 -0.0054,0.05401 -0.08066,0.745105 -0.152022,1.479136 -0.212107,2.195709 -0.0022,0.02592 -0.0036,0.05138 -0.0058,0.07725 -0.05876,0.709211 -0.107005,1.399924 -0.141218,2.06525 -0.0016,0.03265 -0.003,0.06545 -0.0046,0.09798 -0.03317,0.668069 -0.05324,1.311402 -0.05703,1.918606 l 31.6918485,-6.573756 c -0.1286929,-0.262511 -0.2689356,-0.534369 -0.4211474,-0.814632 -0.076143,-0.1402 -0.1643822,-0.288294 -0.2459947,-0.432526 -0.1897097,-0.335244 -0.3909804,-0.679175 -0.607775,-1.033826 -0.06289,-0.102878 -0.1205743,-0.201387 -0.1855533,-0.305708 -0.020813,-0.03342 -0.043925,-0.06892 -0.064945,-0.102477 -0.2401745,-0.383401 -0.4979975,-0.777588 -0.7630836,-1.177283 -0.1301391,-0.196198 -0.258772,-0.391129 -0.3941717,-0.590515 -0.011034,-0.01626 -0.022169,-0.0337 -0.033238,-0.04998 -0.2337524,-0.343574 -0.4754685,-0.692058 -0.7226901,-1.042992 -0.4638322,-0.658416 -0.9479509,-1.327711 -1.4464551,-1.999469 z" /></g>
    <path
   id="path35590"
   d="M31.96,51.85C31.188,53.124 29.509,53.542 28.23,52.78C26.954,52.022 26.522,50.352 27.27,49.07C27.45,48.76 31.87,41.45 41.64,41.45C51.42,41.45 55.84,48.76 56.03,49.07C56.273,49.488 56.401,49.962 56.401,50.445C56.401,51.944 55.169,53.178 53.67,53.18C52.75,53.18 51.84,52.71 51.33,51.86C51.2,51.64 48.21,46.9 41.64,46.9C35.07,46.89 32.1,51.64 31.96,51.85ZM100,52.79C99.57,53.05 99.09,53.17 98.63,53.17C97.69,53.17 96.78,52.68 96.27,51.83C96.16,51.63 93.19,46.89 86.61,46.89C79.92,46.89 76.95,51.78 76.92,51.83C76.424,52.632 75.546,53.122 74.603,53.122C73.108,53.122 71.879,51.893 71.879,50.398C71.879,49.929 72,49.468 72.23,49.06C72.41,48.75 76.83,41.44 86.61,41.44C96.38,41.44 100.79,48.75 100.97,49.06C101.73,50.36 101.29,52.03 100,52.79Z"
   style="fill:rgb(47,47,47);fill-rule:nonzero;" />
    
    
    <path
   id="path39789"
   d="M39.576,30.532C40.815,30.338 42.211,30.73 42.777,28.93C43.309,27.237 42.856,25.163 42.873,23.394C42.887,22.251 42.513,21.181 41.778,20.49C40.941,19.702 40.011,19.716 38.998,19.772C38.237,19.81 37.443,19.653 36.686,19.59C35.903,19.521 35.116,19.67 34.336,19.616C33.791,19.567 33.859,19.516 33.492,19.928C33.278,20.197 33.098,20.491 32.955,20.804C32.254,22.403 32.864,24.993 33.164,26.657C33.394,27.987 33.01,30.122 34.255,30.652C35.176,31.051 36.315,30.828 37.267,30.782C38.04,30.733 38.81,30.649 39.576,30.532Z"
   style="fill:#40c0e7;fill-rule:nonzero;fill-opacity:1" />
    <path
   id="path35596"
   d="m 85.776436,107.619 c -0.778205,-0.616 -1.99788,-1.243 -2.895462,-1.553 -1.003445,-0.357 -2.101491,-0.673 -3.152236,-0.789 -1.479828,-0.154 -1.346936,0.733 -1.788407,2.153 -0.313084,0.979 -0.765816,1.8 -1.01358,2.801 -0.262405,1.054 -0.469626,2.126 -0.739914,3.175 -0.644187,2.459 -0.703876,3.833 1.672408,4.554 1.715204,0.517 3.525008,0.808 5.270619,1.214 0.518052,-0.225 0.694866,-1.116 0.815369,-1.655 0.215105,-0.95 0.561975,-1.818 0.818748,-2.746 0.480888,-1.666 1.05525,-3.373 1.421266,-5.067 0.202716,-0.853 0.263531,-1.564 -0.408811,-2.087 z"
   style="fill:#40c0e7;fill-rule:nonzero;stroke-width:1;fill-opacity:1" />
    <path
   id="path35600"
   d="m 95.522,25.147504 c -1.118,0.06268 -2.132,0.105771 -3.254,0.317133 -1.086,0.21427 -1.464,0.645734 -1.215,2.018849 0.144,0.857633 0.172,1.737895 0.357,2.589839 0.167,0.803491 0.478,1.592615 0.66,2.406317 0.134,0.582825 0.112,1.533048 0.427,2.034494 0.446,0.697029 1.204,0.427263 1.784,0.347117 0.723,-0.09659 1.446,-0.05319 2.189,-0.194167 0.938,-0.189226 1.862,-0.459582 2.789,-0.760697 0.758,-0.246766 1.839,-0.42844 2.518,-0.835589 0.183,-0.118217 0.334,-0.278018 0.442,-0.468294 0.443,-0.747213 0.462,-1.990678 0.415,-2.849475 -0.06,-1.170847 -0.343,-2.462709 -0.584,-3.621177 -0.383,-1.81694 -2.037,-1.479555 -3.175,-1.371485 -1.107,0.128573 -2.215,0.326066 -3.353,0.387135 z"
   style="fill:#40c0e7;fill-rule:nonzero;fill-opacity:1" />
    <path
   id="path35602"
   d="m 114.81854,51.093 c -0.75633,0.284 -1.6759,0.647 -2.24745,1.326 -0.5117,0.597 -0.12429,1.731 0.0414,2.544 0.18405,0.911 0.57674,1.79 0.98116,2.623 0.3769,0.763 0.74866,1.716 1.23948,2.405 0.55784,0.792 0.96174,0.38 1.51599,0.044 0.67408,-0.396 1.36616,-0.792 2.10975,-1.03 1.01243,-0.32 2.12134,-0.585 3.08033,-0.989 0.32889,-0.133 0.48545,-0.43 0.52416,-0.814 0.13801,-1.197 -0.86744,-3.286 -1.13794,-4.193 -0.20904,-0.72 -0.58015,-1.984 -1.11687,-2.474 -0.59962,-0.57 -1.34627,-0.494 -1.99337,-0.436 -1.04479,0.097 -2.00699,0.617 -2.99665,0.994 z"
   style="fill:#d7598b;fill-rule:nonzero;fill-opacity:1" />
    <g
   id="g35606"
   transform="matrix(-1.4641307,0,0,0.98260706,153.71469,2.4898609)"
   style="stroke-width:0.948351">
        <path
   id="ellipse35604"
   style="fill:#ed6c30;stroke-width:1.0177"
   d="m 64.506444,82.058998 c 0,3.75885 -1.196411,6.806 -3.427089,6.806 -2.230678,0 -3.427089,-3.04715 -3.427089,-6.806 0,-3.75885 1.196411,-6.806 3.427089,-6.806 2.230678,0 3.427089,3.04715 3.427089,6.806 z"
   sodipodi:nodetypes="sssss" />
    </g>
    
    
    <path
   id="path39793"
   d="m 32.631,92.773712 c -0.798,0.05607 -0.985,1.047094 -1.48,1.865989 -1.113,1.81291 -1.853,3.840904 -2.638,5.869159 -0.292,0.75464 -1.25,2.56098 -0.94,3.35083 0.255,0.63451 1.233,0.66439 1.745,0.84213 l 2,0.68764 c 0.316,0.10602 2.259,1.12559 2.553,0.87267 0.513,-0.4264 0.787,-1.57354 1.03,-2.22336 0.429,-1.20071 0.768,-2.42189 1.234,-3.62775 0.603,-1.557928 1.24,-3.250587 1.539,-4.898202 -0.87,-1.048912 -2.047,-1.443095 -3.227,-2.01286 -0.549,-0.265589 -1.195,-0.763678 -1.816,-0.727246 z"
   style="fill:#d7598b;fill-rule:nonzero;fill-opacity:1" />
    <path
   id="path35618"
   d="m 19.251,60.29467 c 0.2,-0.07526 0.351,-0.186114 0.45,-0.324582 0.544,-0.709742 -0.152,-2.193483 -0.458,-3.464128 -0.346,-1.507193 -0.47,-3.022193 -0.917,-4.522595 -0.497,-1.629338 -1.57,-1.765772 -2.423,-1.398689 -0.925,0.402695 -1.932,0.586616 -2.875,0.959214 -0.845,0.327792 -1.566,0.554583 -1.468,1.916777 0.09,1.238483 0.701,2.465434 1.127,3.665724 0.8,2.234966 1.015,4.942788 3.22,4.607639 1.237,-0.184018 2.205,-1.023149 3.344,-1.43936 z"
   style="fill:#d7598b;fill-rule:nonzero;fill-opacity:1" />
    <path
   id="path40523"
   d="m 76.015,60.110622 c -0.929,0.730103 -1.655,1.52274 -2.445,2.347428 -0.283,0.289227 -0.57,0.422896 -0.56,0.873152 10e-4,0.573764 0.57,1.486782 0.896,1.963616 0.82,1.153781 1.709,2.141842 2.688,3.136157 0.521,0.535461 1.21,1.706438 1.973,1.869031 0.647,0.132888 1.418,-0.492468 1.901,-0.820779 0.638,-0.444784 1.374,-0.805145 1.97,-1.278852 0.763,-0.610503 1.708,-1.496944 2.276,-2.275512 0.318,-0.427586 0.293,-0.848919 0.117,-1.252274 -0.156,-0.367396 -0.434,-0.720722 -0.681,-1.059195 -1.285,-1.725199 -3.343,-4.082007 -5.377,-5.026294 -0.962,-0.449474 -2.07,0.984935 -2.758,1.523522 z"
   style="fill:#40c0e7;fill-rule:nonzero;stroke-width:1;fill-opacity:1" />
    <path
   id="path35598"
   d="m 71.702361,7.742 c 0.418219,0.261 3.33549,3.188 3.630552,2.878 0.645289,-0.722 1.458635,-1.304 2.128299,-2.027 0.76588,-0.838 1.489424,-1.732 2.424644,-2.407 1.128935,-0.813 1.198211,-1.616 0.810781,-2.375 -0.551639,-1.07 -2.035932,-2.046 -2.847995,-2.825 -0.636309,-0.61 -1.426563,-1.18 -2.238627,-0.923 -0.919825,0.3 -1.783204,1.114 -2.446453,1.757 -0.833872,0.805 -1.975636,1.6 -2.593985,2.545 -0.864661,1.28 0.009,2.657 1.132784,3.377 z"
   style="fill:#d7598b;fill-rule:nonzero;stroke-width:1;fill-opacity:1" />
<path
   id="path65671"
   d="m 123.7404,77.924231 c 0,9.42211 -6.23362,14.008259 -14.33147,14.008259 -4.59385,0 -6.91894,-0.38461 -11.495999,-0.897703 l -33.619645,-3.7688 c -2.16093,-0.242243 -2.34523,-1.805559 -2.34523,-4.557638 0,-3.04674 0.789057,-4.484292 2.951256,-4.254906 l 32.871561,3.487328 c 3.467777,0.367895 7.033527,1.253155 9.968607,1.257186 3.62405,0.005 6.55665,-1.766412 6.55665,-5.273726 0,-3.290524 -2.11911,-5.857866 -6.37002,-5.857866 -4.79494,0 -7.6945,3.66405 -8.851331,2.909014 -0.599612,-0.39135 -0.883315,-1.204 -1.878995,-2.999895 -0.995686,-1.795903 -1.592533,-2.66844 -1.324984,-3.493173 0.517194,-1.59427 5.32402,-5.385244 12.67436,-5.385244 9.62121,0 15.19524,6.578624 15.19524,14.827164 z"
   style="fill:#f07c03;fill-opacity:1;fill-rule:nonzero;stroke-width:1"
   sodipodi:nodetypes="ssssssssssszsss" /><path
   id="rect65725"
   style="fill:#9c4989;fill-opacity:1;fill-rule:nonzero;stroke:none;stroke-width:6.00001;stroke-linecap:round"
   d="m 106.82233,63.175338 c -4.44514,0.367509 -7.781069,2.086447 -9.555182,3.595815 L 96.4874,70.70168 c 0.202984,0.370641 0.436687,0.782789 0.708692,1.273401 0.995679,1.795893 1.27964,2.609836 1.879252,3.001186 0.894698,0.583954 2.836226,-1.47136 5.886436,-2.434608 z m 5.63961,0.325363 -1.78762,9.00543 c 2.41581,0.867977 3.62199,2.937466 3.62199,5.418965 0,3.239135 -2.50339,4.993393 -5.74058,5.239456 l -1.73153,8.717466 c 0.79592,0.03063 1.63422,0.05048 2.58419,0.05048 2.35654,0 4.54797,-0.400735 6.48108,-1.183646 l 4.49523,-22.6239 c -1.90154,-2.265109 -4.57409,-3.907481 -7.92276,-4.624259 z m -46.257543,15.091949 -1.725916,8.693158 8.64828,0.970477 1.737135,-8.745515 z m 14.243015,1.510878 -1.742745,8.777303 8.64828,0.970478 1.753965,-8.829661 z m 13.880256,1.47348 -1.759575,8.859579 5.344169,0.598367 c 1.239185,0.138913 2.303488,0.266463 3.302238,0.381459 l 1.72966,-8.711856 c -1.68839,-0.267419 -3.443898,-0.579372 -5.174009,-0.762918 z" /></svg>
