<?xml version="1.0" encoding="UTF-8" standalone="no"?>
<svg
   width="128"
   height="128"
   version="1.1"
   id="svg47"
   sodipodi:docname="emoji_u1f606.svg"
   xml:space="preserve"
   inkscape:version="1.3 (0e150ed6c4, 2023-07-21)"
   xmlns:inkscape="http://www.inkscape.org/namespaces/inkscape"
   xmlns:sodipodi="http://sodipodi.sourceforge.net/DTD/sodipodi-0.dtd"
   xmlns:xlink="http://www.w3.org/1999/xlink"
   xmlns="http://www.w3.org/2000/svg"
   xmlns:svg="http://www.w3.org/2000/svg"><defs
     id="defs47"><path
       id="SVGID_1_"
       d="M64,9.81c-62.13,0-63.6,69.64-63.6,83.43c0,13.77,28.47,24.94,63.6,24.94c35.13,0,63.59-11.17,63.59-24.94     C127.59,79.45,126.12,9.81,64,9.81z" /></defs><sodipodi:namedview
     id="namedview47"
     pagecolor="#ffffff"
     bordercolor="#000000"
     borderopacity="0.25"
     inkscape:showpageshadow="2"
     inkscape:pageopacity="0.0"
     inkscape:pagecheckerboard="0"
     inkscape:deskcolor="#d1d1d1"
     inkscape:zoom="8.515625"
     inkscape:cx="64"
     inkscape:cy="64"
     inkscape:current-layer="svg47" /><g
     id="g49"
     transform="translate(0.005,0.005)">&#10;	<g
   id="g46">&#10;		<defs
   id="defs1">&#10;			<path
   id="path47"
   d="M 64,9.81 C 1.87,9.81 0.4,79.45 0.4,93.24 c 0,13.77 28.47,24.94 63.6,24.94 35.13,0 63.59,-11.17 63.59,-24.94 C 127.59,79.45 126.12,9.81 64,9.81 Z" />&#10;		</defs>&#10;		<use
   xlink:href="#SVGID_1_"
   overflow="visible"
   fill="#fcc21b"
   id="use1" />&#10;		<clipPath
   id="SVGID_2_">&#10;			<use
   xlink:href="#SVGID_1_"
   overflow="visible"
   id="use2" />&#10;		</clipPath>&#10;		<g
   clip-path="url(#SVGID_2_)"
   id="g23">&#10;			<path
   fill="#fcc21b"
   d="m 22.37,67.06 c -9.18,3 -19.07,-1.9 -22.1,-10.97 -3.03,-9.05 1.92,-18.84 11.1,-21.85 9.15,-2.99 19.06,1.92 22.12,10.98 3.02,9.07 -1.95,18.86 -11.12,21.84 z"
   id="path2" />&#10;			<path
   fill="#fcc01c"
   d="M 22.15,66.4 C 13.34,69.28 3.86,64.58 0.94,55.88 -1.97,47.2 2.78,37.81 11.59,34.92 c 8.78,-2.87 18.29,1.84 21.22,10.53 2.9,8.7 -1.87,18.08 -10.66,20.95 z"
   id="path3" />&#10;			<path
   fill="#fcbe1c"
   d="M 21.92,65.73 C 13.48,68.48 4.4,63.99 1.61,55.66 -1.18,47.34 3.38,38.36 11.81,35.59 20.22,32.84 29.32,37.35 32.13,45.68 34.91,54 30.34,62.98 21.92,65.73 Z"
   id="path4" />&#10;			<path
   fill="#fbbb1d"
   d="M 21.7,65.06 C 13.64,67.69 4.96,63.39 2.29,55.43 -0.37,47.48 3.98,38.89 12.04,36.25 c 8.04,-2.63 16.74,1.69 19.42,9.64 2.65,7.96 -1.71,16.55 -9.76,19.17 z"
   id="path5" />&#10;			<path
   fill="#fbb91e"
   d="M 21.48,64.39 C 13.79,66.9 5.51,62.8 2.97,55.21 0.43,47.63 4.58,39.44 12.26,36.92 c 7.66,-2.51 15.96,1.61 18.52,9.19 2.53,7.59 -1.63,15.78 -9.3,18.28 z"
   id="path6" />&#10;			<path
   fill="#fbb71e"
   d="M 21.25,63.72 C 13.94,66.11 6.06,62.21 3.64,54.99 c -2.42,-7.21 1.53,-15 8.84,-17.4 7.29,-2.38 15.19,1.53 17.62,8.75 2.41,7.21 -1.55,15.01 -8.85,17.38 z"
   id="path7" />&#10;			<path
   fill="#fbb51f"
   d="M 21.03,63.06 C 14.09,65.33 6.62,61.62 4.32,54.77 2.03,47.93 5.77,40.54 12.71,38.26 c 6.92,-2.26 14.41,1.45 16.71,8.3 2.29,6.85 -1.46,14.24 -8.39,16.5 z"
   id="path8" />&#10;			<path
   fill="#fab220"
   d="M 20.8,62.39 C 14.24,64.53 7.17,61.03 5,54.55 2.83,48.08 6.38,41.08 12.94,38.93 c 6.55,-2.14 13.63,1.37 15.81,7.85 2.16,6.48 -1.39,13.47 -7.95,15.61 z"
   id="path9" />&#10;			<path
   fill="#fab020"
   d="M 20.58,61.72 C 14.39,63.74 7.72,60.44 5.67,54.33 c -2.05,-6.1 1.3,-12.7 7.49,-14.73 6.17,-2.02 12.86,1.3 14.91,7.4 2.04,6.11 -1.31,12.71 -7.49,14.72 z"
   id="path10" />&#10;			<path
   fill="#faae21"
   d="M 20.36,61.05 C 14.54,62.95 8.28,59.85 6.35,54.1 4.43,48.37 7.57,42.17 13.38,40.26 c 5.8,-1.9 12.08,1.22 14.01,6.96 1.92,5.74 -1.23,11.94 -7.03,13.83 z"
   id="path11" />&#10;			<path
   fill="#faac22"
   d="M 20.13,60.39 C 14.69,62.17 8.83,59.26 7.02,53.89 5.22,48.52 8.16,42.72 13.6,40.94 c 5.43,-1.77 11.31,1.14 13.11,6.51 1.8,5.36 -1.14,11.16 -6.58,12.94 z"
   id="path12" />&#10;			<path
   fill="#f9a922"
   d="M 19.91,59.72 C 14.84,61.37 9.38,58.67 7.7,53.67 c -1.68,-5 1.06,-10.4 6.13,-12.06 5.05,-1.65 10.53,1.06 12.21,6.06 1.67,5 -1.07,10.4 -6.13,12.05 z"
   id="path13" />&#10;			<path
   fill="#f9a723"
   d="m 19.68,59.05 c -4.7,1.53 -9.75,-0.97 -11.31,-5.61 -1.55,-4.63 0.99,-9.63 5.68,-11.17 4.68,-1.53 9.75,0.98 11.31,5.62 1.56,4.63 -0.99,9.63 -5.68,11.16 z"
   id="path14" />&#10;			<path
   fill="#f9a524"
   d="m 19.46,58.38 c -4.32,1.41 -8.97,-0.9 -10.41,-5.16 -1.43,-4.26 0.91,-8.87 5.23,-10.28 4.31,-1.41 8.98,0.91 10.41,5.17 1.43,4.26 -0.91,8.86 -5.23,10.27 z"
   id="path15" />&#10;			<path
   fill="#f9a324"
   d="M 19.24,57.71 C 15.29,59 11.04,56.89 9.73,53 c -1.31,-3.89 0.83,-8.1 4.77,-9.39 3.94,-1.29 8.2,0.83 9.51,4.72 1.31,3.89 -0.83,8.1 -4.77,9.38 z"
   id="path16" />&#10;			<path
   fill="#f8a025"
   d="m 19.01,57.05 c -3.57,1.16 -7.42,-0.74 -8.61,-4.27 -1.18,-3.52 0.75,-7.33 4.32,-8.5 3.56,-1.17 7.43,0.75 8.61,4.27 1.19,3.52 -0.75,7.33 -4.32,8.5 z"
   id="path17" />&#10;			<path
   fill="#f89e26"
   d="m 18.79,56.38 c -3.2,1.04 -6.65,-0.66 -7.71,-3.82 -1.06,-3.15 0.67,-6.57 3.87,-7.62 3.19,-1.04 6.65,0.67 7.71,3.83 1.06,3.15 -0.68,6.56 -3.87,7.61 z"
   id="path18" />&#10;			<path
   fill="#f89c26"
   d="m 18.56,55.71 c -2.83,0.92 -5.87,-0.59 -6.81,-3.38 -0.94,-2.79 0.6,-5.8 3.42,-6.73 2.82,-0.92 5.88,0.59 6.81,3.38 0.94,2.8 -0.59,5.81 -3.42,6.73 z"
   id="path19" />&#10;			<path
   fill="#f89a27"
   d="m 18.34,55.04 c -2.45,0.8 -5.09,-0.51 -5.91,-2.93 -0.81,-2.42 0.52,-5.03 2.97,-5.84 2.45,-0.8 5.1,0.51 5.91,2.93 0.81,2.43 -0.52,5.04 -2.97,5.84 z"
   id="path20" />&#10;			<path
   fill="#f79728"
   d="m 18.12,54.37 c -2.08,0.68 -4.32,-0.43 -5.01,-2.48 -0.69,-2.05 0.44,-4.27 2.51,-4.95 2.08,-0.68 4.32,0.44 5.01,2.49 0.69,2.05 -0.44,4.27 -2.51,4.94 z"
   id="path21" />&#10;			<path
   fill="#f79528"
   d="m 17.89,53.71 c -1.7,0.55 -3.54,-0.36 -4.11,-2.04 -0.57,-1.68 0.36,-3.5 2.06,-4.06 1.7,-0.56 3.55,0.36 4.11,2.04 0.57,1.68 -0.35,3.5 -2.06,4.06 z"
   id="path22" />&#10;			<path
   fill="#f79329"
   d="m 17.67,53.04 c -1.33,0.43 -2.76,-0.28 -3.21,-1.59 -0.44,-1.31 0.29,-2.73 1.61,-3.17 1.33,-0.43 2.77,0.28 3.21,1.59 0.44,1.31 -0.28,2.73 -1.61,3.17 z"
   id="path23" />&#10;		</g>&#10;		<g
   clip-path="url(#SVGID_2_)"
   id="g45">&#10;			<path
   fill="#fcc21b"
   d="m 101.21,80.98 c -9.18,3 -19.08,-1.9 -22.11,-10.97 -3.03,-9.05 1.92,-18.84 11.1,-21.85 9.16,-2.99 19.07,1.92 22.11,10.98 3.02,9.07 -1.94,18.85 -11.1,21.84 z"
   id="path24" />&#10;			<path
   fill="#fcc01c"
   d="m 100.98,80.31 c -8.81,2.87 -18.3,-1.82 -21.21,-10.52 -2.9,-8.69 1.84,-18.07 10.65,-20.96 8.78,-2.87 18.29,1.84 21.21,10.54 2.91,8.69 -1.86,18.08 -10.65,20.94 z"
   id="path25" />&#10;			<path
   fill="#fcbe1c"
   d="m 100.76,79.64 c -8.44,2.75 -17.52,-1.75 -20.31,-10.07 -2.78,-8.32 1.77,-17.3 10.2,-20.07 8.41,-2.75 17.52,1.76 20.31,10.09 2.78,8.32 -1.79,17.31 -10.2,20.05 z"
   id="path26" />&#10;			<path
   fill="#fbbb1d"
   d="m 100.53,78.98 c -8.06,2.63 -16.75,-1.67 -19.41,-9.63 -2.66,-7.95 1.69,-16.54 9.75,-19.18 8.04,-2.62 16.74,1.69 19.41,9.64 2.66,7.96 -1.7,16.54 -9.75,19.17 z"
   id="path27" />&#10;			<path
   fill="#fbb91e"
   d="m 100.31,78.31 c -7.69,2.51 -15.97,-1.59 -18.51,-9.18 -2.53,-7.58 1.61,-15.77 9.3,-18.29 7.66,-2.5 15.96,1.61 18.51,9.19 2.53,7.59 -1.63,15.78 -9.3,18.28 z"
   id="path28" />&#10;			<path
   fill="#fbb71e"
   d="m 100.09,77.64 c -7.31,2.39 -15.19,-1.52 -17.61,-8.73 -2.41,-7.21 1.53,-15 8.84,-17.4 7.29,-2.38 15.19,1.53 17.61,8.75 2.41,7.21 -1.55,15 -8.84,17.38 z"
   id="path29" />&#10;			<path
   fill="#fbb51f"
   d="m 99.86,76.97 c -6.94,2.26 -14.42,-1.44 -16.71,-8.29 -2.29,-6.84 1.46,-14.23 8.39,-16.51 6.92,-2.26 14.41,1.45 16.71,8.3 2.29,6.85 -1.46,14.24 -8.39,16.5 z"
   id="path30" />&#10;			<path
   fill="#fab220"
   d="M 99.64,76.3 C 93.08,78.44 86,74.94 83.83,68.46 c -2.16,-6.47 1.38,-13.47 7.94,-15.62 6.54,-2.14 13.63,1.37 15.81,7.85 2.16,6.48 -1.39,13.48 -7.94,15.61 z"
   id="path31" />&#10;			<path
   fill="#fab020"
   d="m 99.42,75.64 c -6.19,2.02 -12.86,-1.28 -14.91,-7.39 -2.04,-6.1 1.3,-12.7 7.49,-14.73 6.17,-2.02 12.85,1.29 14.91,7.41 2.03,6.09 -1.32,12.69 -7.49,14.71 z"
   id="path32" />&#10;			<path
   fill="#faae21"
   d="m 99.19,74.97 c -5.82,1.9 -12.09,-1.21 -14.01,-6.95 -1.92,-5.74 1.22,-11.93 7.04,-13.84 5.8,-1.9 12.08,1.22 14.01,6.96 1.91,5.74 -1.23,11.94 -7.04,13.83 z"
   id="path33" />&#10;			<path
   fill="#faac22"
   d="M 98.97,74.3 C 93.53,76.08 87.66,73.17 85.86,67.8 84.07,62.43 87,56.63 92.45,54.85 c 5.43,-1.77 11.3,1.14 13.11,6.51 1.78,5.37 -1.16,11.17 -6.59,12.94 z"
   id="path34" />&#10;			<path
   fill="#f9a922"
   d="m 98.74,73.63 c -5.07,1.65 -10.53,-1.05 -12.21,-6.06 -1.67,-5 1.06,-10.4 6.13,-12.06 5.05,-1.65 10.52,1.06 12.21,6.06 1.68,5.01 -1.07,10.41 -6.13,12.06 z"
   id="path35" />&#10;			<path
   fill="#f9a723"
   d="M 98.52,72.97 C 93.82,74.5 88.76,72 87.21,67.36 c -1.55,-4.63 0.99,-9.63 5.68,-11.17 4.68,-1.53 9.75,0.98 11.31,5.62 1.55,4.62 -0.99,9.63 -5.68,11.16 z"
   id="path36" />&#10;			<path
   fill="#f9a524"
   d="m 98.3,72.3 c -4.32,1.41 -8.98,-0.9 -10.41,-5.16 -1.42,-4.26 0.91,-8.87 5.23,-10.28 4.31,-1.41 8.97,0.9 10.41,5.17 1.42,4.25 -0.92,8.86 -5.23,10.27 z"
   id="path37" />&#10;			<path
   fill="#f9a324"
   d="m 98.07,71.63 c -3.95,1.29 -8.2,-0.82 -9.51,-4.72 -1.3,-3.89 0.83,-8.1 4.78,-9.39 3.94,-1.29 8.19,0.82 9.51,4.72 1.3,3.9 -0.84,8.1 -4.78,9.39 z"
   id="path38" />&#10;			<path
   fill="#f8a025"
   d="m 97.85,70.96 c -3.57,1.16 -7.43,-0.74 -8.61,-4.27 -1.18,-3.52 0.75,-7.33 4.33,-8.5 3.56,-1.16 7.42,0.75 8.61,4.27 1.17,3.53 -0.76,7.34 -4.33,8.5 z"
   id="path39" />&#10;			<path
   fill="#f89e26"
   d="m 97.62,70.29 c -3.2,1.04 -6.65,-0.67 -7.71,-3.83 -1.05,-3.15 0.68,-6.56 3.88,-7.61 3.19,-1.04 6.64,0.67 7.71,3.83 1.05,3.16 -0.68,6.57 -3.88,7.61 z"
   id="path40" />&#10;			<path
   fill="#f89c26"
   d="m 97.4,69.63 c -2.83,0.92 -5.87,-0.59 -6.81,-3.38 -0.93,-2.79 0.6,-5.8 3.42,-6.73 2.82,-0.92 5.86,0.59 6.81,3.38 0.93,2.79 -0.6,5.8 -3.42,6.73 z"
   id="path41" />&#10;			<path
   fill="#f89a27"
   d="m 97.18,68.96 c -2.45,0.8 -5.1,-0.51 -5.91,-2.93 -0.81,-2.42 0.52,-5.03 2.97,-5.84 2.44,-0.8 5.09,0.51 5.91,2.93 0.81,2.42 -0.52,5.04 -2.97,5.84 z"
   id="path42" />&#10;			<path
   fill="#f79728"
   d="m 96.95,68.29 c -2.08,0.68 -4.32,-0.43 -5.01,-2.49 -0.68,-2.05 0.44,-4.26 2.52,-4.95 2.07,-0.68 4.31,0.43 5.01,2.49 0.69,2.05 -0.44,4.27 -2.52,4.95 z"
   id="path43" />&#10;			<path
   fill="#f79528"
   d="m 96.73,67.62 c -1.7,0.55 -3.54,-0.36 -4.11,-2.04 -0.56,-1.68 0.36,-3.5 2.07,-4.06 1.7,-0.56 3.54,0.35 4.11,2.04 0.56,1.69 -0.37,3.5 -2.07,4.06 z"
   id="path44" />&#10;			<path
   fill="#f79329"
   d="m 96.51,66.95 c -1.33,0.43 -2.77,-0.28 -3.21,-1.59 -0.44,-1.31 0.29,-2.73 1.62,-3.17 1.33,-0.43 2.76,0.28 3.21,1.59 0.43,1.32 -0.29,2.74 -1.62,3.17 z"
   id="path45" />&#10;		</g>&#10;	</g>&#10;	<g
   id="g48">&#10;		<path
   fill="#2f2f2f"
   d="m 87.71,53.43 c -0.56,-0.02 -1.1,-0.17 -1.61,-0.51 -7.61,-5.05 -16.31,-7.85 -16.39,-7.88 -1.3,-0.41 -2.17,-1.62 -2.15,-2.98 0.02,-1.35 0.94,-2.54 2.25,-2.91 9.51,-2.64 20.45,-2.75 20.91,-2.76 1.65,0 3.08,1.36 3.1,3.05 0.01,1.69 -1.36,3.08 -3.05,3.1 -0.06,0 -4.19,0.04 -9.39,0.66 2.58,1.25 5.39,2.79 8.11,4.59 1.42,0.94 1.8,2.84 0.87,4.26 -0.62,0.92 -1.62,1.41 -2.65,1.38 z"
   id="path46" />&#10;		<path
   fill="#2f2f2f"
   d="m 29.95,41.17 c -1.46,-0.04 -2.71,-1.11 -2.95,-2.6 -0.26,-1.67 0.9,-3.25 2.58,-3.51 3.44,-0.53 7.36,-0.63 10.77,-0.58 -2.52,-1.75 -4.7,-2.79 -4.74,-2.81 -1.53,-0.72 -2.18,-2.55 -1.47,-4.08 0.72,-1.55 2.53,-2.2 4.08,-1.49 0.34,0.16 8.33,3.95 12.86,10.1 0.71,0.98 0.79,2.29 0.18,3.35 -0.61,1.05 -1.75,1.64 -2.99,1.53 -0.1,-0.01 -10.43,-1.08 -17.76,0.05 -0.18,0.04 -0.38,0.05 -0.56,0.04 z"
   id="path48" />&#10;		&#10;	</g>&#10;</g><path
     d="m 96.178995,66.604426 c -3.331468,-3.078788 -8.29405,-2.204888 -12.58476,-2.03643 -11.949656,0.47237 -22.134246,-1.07846 -27.013558,-1.868017 -4.879314,-0.789558 -15.033248,-2.529849 -26.224096,-6.746761 -4.018612,-1.513049 -8.452332,-3.907434 -12.584762,-2.036433 -5.24217,2.371921 -3.572138,14.186253 2.649497,22.994402 3.761435,5.323508 13.04338,15.975704 30.809393,18.850554 17.766012,2.87485 29.933721,-4.30642 35.182104,-8.171982 8.682004,-6.396484 13.980697,-17.083154 9.766182,-20.985333 z"
     style="clip-rule:evenodd;fill:#d84c15;fill-rule:nonzero;stroke-width:1.21145;stroke-linejoin:round;stroke-miterlimit:2"
     id="path3-5"
     inkscape:transform-center-x="37.997248"
     inkscape:transform-center-y="1.8603302" /><path
     d="m 22.109417,56.307768 c -1.156527,-0.17499 -2.109117,-0.08611 -3.041364,0.336594 l -0.0036,-6.13e-4 c -0.383797,0.173641 -0.726254,0.490063 -1.037201,1.507878 -0.312155,1.017621 -0.426994,2.623717 -0.194577,4.503521 0,0 0,0 0,0 0.122089,0.968801 0.720499,1.820254 1.60103,2.276252 9.30258,4.726728 21.789743,8.545817 35.052113,10.699189 13.239554,2.141175 26.276096,2.465634 36.597359,0.92775 0.996879,-0.155847 1.847273,-0.785009 2.2758,-1.679295 9.84e-4,1.61e-4 9.84e-4,1.61e-4 9.84e-4,1.61e-4 0.813629,-1.711748 1.211139,-3.272106 1.236042,-4.337425 0.02591,-1.063936 -0.197876,-1.473204 -0.503495,-1.758496 -1.002875,-0.925408 -2.22975,-1.30135 -4.033562,-1.420686 -1.802602,-0.119138 -4.014122,0.113571 -6.321657,0.204366 C 71.449349,68.052771 61.020544,66.456345 56.101375,65.660339 51.182206,64.864332 40.784558,63.090671 29.277139,58.754491 27.11479,57.940393 25.089523,57.022097 23.340132,56.566461 22.934993,56.458377 22.523802,56.372389 22.10916,56.307724 Z"
     style="clip-rule:evenodd;fill:#fafafa;fill-rule:nonzero;stroke-width:1.21145;stroke-linejoin:round;stroke-miterlimit:2"
     id="path5-5"
     inkscape:transform-center-x="37.994027"
     inkscape:transform-center-y="-6.0991337" /></svg>
