<?xml version="1.0" encoding="UTF-8" standalone="no"?>
<svg
   width="128"
   height="128"
   version="1.1"
   id="svg9215"
   sodipodi:docname="emoji_u1f632.svg"
   xml:space="preserve"
   inkscape:version="1.3 (0e150ed6c4, 2023-07-21)"
   xmlns:inkscape="http://www.inkscape.org/namespaces/inkscape"
   xmlns:sodipodi="http://sodipodi.sourceforge.net/DTD/sodipodi-0.dtd"
   xmlns="http://www.w3.org/2000/svg"
   xmlns:svg="http://www.w3.org/2000/svg"><defs
     id="defs9219" /><sodipodi:namedview
     id="namedview9217"
     pagecolor="#ffffff"
     bordercolor="#000000"
     borderopacity="0.25"
     inkscape:showpageshadow="2"
     inkscape:pageopacity="0.0"
     inkscape:pagecheckerboard="0"
     inkscape:deskcolor="#d1d1d1"
     showgrid="false"
     inkscape:zoom="2.9996795"
     inkscape:cx="46.504968"
     inkscape:cy="72.174376"
     inkscape:window-width="1366"
     inkscape:window-height="697"
     inkscape:window-x="-8"
     inkscape:window-y="-8"
     inkscape:window-maximized="1"
     inkscape:current-layer="svg9215" /><path
     d="M64 9.56C1.59 9.56.12 79.52.12 93.36c0 13.86 28.59 25.08 63.88 25.08 35.28 0 63.88-11.22 63.88-25.08 0-13.84-1.48-83.8-63.88-83.8z"
     fill="#fcc21b"
     id="path9205" /><g
     fill="#2f2f2f"
     id="g9209"
     transform="translate(0,3.771639)"><path
       d="m 42.005,61.282 c -4.49,0.04 -8.17,-4.27 -8.22,-9.62 -0.05,-5.37 3.55,-9.75 8.04,-9.79 4.48,-0.04 8.17,4.27 8.22,9.64 0.05,5.36 -3.55,9.73 -8.04,9.77 z m 44.11,0 c 4.48,-0.01 8.11,-4.36 8.1,-9.71 -0.01,-5.37 -3.66,-9.7 -8.14,-9.69 -4.49,0.01 -8.13,4.36 -8.12,9.73 0.02,5.35 3.67,9.68 8.16,9.67 z"
       id="path9207" /></g><path
     d="m 86.09,31.871257 c 0,0 8.703,-0.271226 14.61,6.53472 m -58.79,-6.53472 c 0,0 -8.703,-0.271226 -14.61,6.53472"
     fill="none"
     fill-rule="evenodd"
     stroke="#7b4600"
     stroke-width="3.77999"
     stroke-linecap="round"
     stroke-linejoin="round"
     id="path9211"
     style="fill:none;fill-opacity:1;stroke:#e28100;stroke-opacity:1" /><path
     d="m 74.618452,90.598384 c 0,5.292514 -2.482971,11.067746 -10.618455,11.067746 -8.134033,0 -10.618455,-5.774789 -10.618455,-11.067746 0,-5.292958 2.482971,-15.186253 10.618455,-15.186253 8.134033,0 10.618455,9.893737 10.618455,15.186253 z"
     fill="#ed6c30"
     id="path9213"
     sodipodi:nodetypes="zszsz"
     style="stroke-width:0.999997" /></svg>
