<?xml version="1.0" encoding="UTF-8" standalone="no"?>
<svg
   enable-background="new 0 0 128 128"
   viewBox="0 0 128 128"
   version="1.1"
   id="svg9319"
   sodipodi:docname="emoji_u1fa73.svg"
   xml:space="preserve"
   inkscape:version="1.2.2 (732a01da63, 2022-12-09)"
   xmlns:inkscape="http://www.inkscape.org/namespaces/inkscape"
   xmlns:sodipodi="http://sodipodi.sourceforge.net/DTD/sodipodi-0.dtd"
   xmlns:xlink="http://www.w3.org/1999/xlink"
   xmlns="http://www.w3.org/2000/svg"
   xmlns:svg="http://www.w3.org/2000/svg"><defs
     id="defs9323" /><sodipodi:namedview
     id="namedview9321"
     pagecolor="#ffffff"
     bordercolor="#000000"
     borderopacity="0.25"
     inkscape:showpageshadow="2"
     inkscape:pageopacity="0.0"
     inkscape:pagecheckerboard="0"
     inkscape:deskcolor="#d1d1d1"
     showgrid="false"
     inkscape:zoom="4"
     inkscape:cx="58.625"
     inkscape:cy="63"
     inkscape:window-width="1366"
     inkscape:window-height="697"
     inkscape:window-x="-8"
     inkscape:window-y="-8"
     inkscape:window-maximized="1"
     inkscape:current-layer="svg9319" /><radialGradient
     id="a"
     cx="62"
     cy="74.837"
     gradientTransform="matrix(1 0 0 1.0071 0 -.5347)"
     gradientUnits="userSpaceOnUse"
     r="59.487"><stop
       offset="0"
       stop-color="#29b6f6"
       id="stop9265" /><stop
       offset=".3808"
       stop-color="#24a1ea"
       id="stop9267" /><stop
       offset="1"
       stop-color="#1976d2"
       id="stop9269" /></radialGradient><linearGradient
     id="b"
     gradientUnits="userSpaceOnUse"
     x1="-26.706"
     x2="152"
     y1="16.038"
     y2="16.038"><stop
       offset="0"
       stop-color="#212121"
       id="stop9272" /><stop
       offset=".5279"
       stop-color="#283593"
       id="stop9274" /><stop
       offset="1"
       stop-color="#212121"
       id="stop9276" /></linearGradient><linearGradient
     id="c"><stop
       offset=".5447"
       stop-color="#26c6da"
       id="stop9279" /><stop
       offset="1"
       stop-color="#0097a7"
       id="stop9281" /></linearGradient><linearGradient
     id="d"
     gradientUnits="userSpaceOnUse"
     x1="1.2026"
     x2="58.082"
     xlink:href="#c"
     y1="88.28"
     y2="101.66" /><linearGradient
     id="e"><stop
       offset=".6485"
       stop-color="#b9f6ca"
       id="stop9285" /><stop
       offset="1"
       stop-color="#69f0ae"
       id="stop9287" /></linearGradient><linearGradient
     id="f"
     gradientUnits="userSpaceOnUse"
     x1="8.1763"
     x2="59.176"
     xlink:href="#e"
     y1="89.376"
     y2="89.376" /><linearGradient
     id="g"
     gradientUnits="userSpaceOnUse"
     x1="116.66"
     x2="66.683"
     xlink:href="#c"
     y1="90.79"
     y2="104.74" /><linearGradient
     id="h"
     gradientUnits="userSpaceOnUse"
     x1="120.72"
     x2="70.433"
     xlink:href="#e"
     y1="85.228"
     y2="93.749" /><path
     id="path13719"
     style="fill:#8dc54e;fill-opacity:1"
     d="m 19.5,8.3398438 c -2.129998,0 -4.085939,1.7727602 -3.949219,4.0000002 L 16.25,23.730469 4.859375,109.40039 c -0.1,0.78 1.1914062,1.66016 1.1914062,1.66016 18.8699808,9.59999 46.7317178,9.42561 47.4296878,9.57031 0.819999,0.17 1.619531,-0.38117 1.769531,-1.20117 0.07252,-0.39644 2.878544,-28.578292 4.662109,-40.546878 1.371032,-9.200287 2.536028,-11.425781 4.058594,-11.425781 1.522567,0 2.685609,2.225494 4.056641,11.425781 1.783565,11.968586 4.589589,40.150438 4.662109,40.546878 0.15,0.82 0.951485,1.37117 1.771485,1.20117 0.697969,-0.1447 28.559702,0.0297 47.429682,-9.57031 0,0 1.28946,-0.88016 1.18946,-1.66016 l -11.39063,-85.669921 0.70117,-11.390625 c 0.1371,-2.227216 -1.82117,-4.0000002 -3.95117,-4.0000002 z"
     sodipodi:nodetypes="sscccssssssscccsss" /><path
     d="m112.4 12.35c-.08-2.24-1.83-4-3.95-4h-88.95c-2.13 0-3.87 1.77-3.95 4l.64 10.35h95.57z"
     fill="#1565c0"
     id="path9297" /><path
     d="m 112.4,12.35 c 0.13945,-2.237086 -1.83,-4 -3.95,-4 H 19.5 c -2.13,0 -4.08688,1.772768 -3.95,4 l 0.7,11.39 h 95.44 z"
     fill="url(#b)"
     id="path9299"
     style="fill:#747574;fill-opacity:1"
     sodipodi:nodetypes="ssssccs" /><path
     d="m78.17 19.25h-21.89c-1.37 0-2.5-1.12-2.5-2.5v-2.11c0-1.37 1.12-2.5 2.5-2.5h21.89c1.38 0 2.5 1.12 2.5 2.5v2.11c0 1.38-1.13 2.5-2.5 2.5z"
     fill="#1a237e"
     id="path9311"
     style="fill:#2f2f2f;fill-opacity:1" /><path
     d="m59.34 15.82c8.91 1.18 26.15 15.04 22.11 24.79-1.22 2.93-8.41 5.23-11.86-7.81-1.3-4.92-.7-12.27-2.01-12.54s.46 28.81-9.48 31.47c-3.77 1.01-10.94-2.3-6.65-13.33 1.52-3.91 14.97-21.05 25.59-22.58"
     fill="none"
     stroke="#fafafa"
     stroke-linecap="round"
     stroke-miterlimit="10"
     stroke-width="4"
     id="path9313"
     style="stroke:#ffffff" /><path
     style="fill:#2f2f2f;fill-opacity:1;stroke-width:6;stroke-linecap:round"
     d="m 22.796304,39.170491 c -1.419124,0.777964 2.868665,6.272247 1.846975,15.585538 -1.021688,9.313291 -6.843876,12.942678 -5.397314,14.34623 1.446563,1.403552 7.419038,-3.406998 8.566028,-13.862487 1.146991,-10.455488 -3.596566,-16.847245 -5.015689,-16.069281 z"
     id="path13577"
     sodipodi:nodetypes="zzszz" /><path
     style="fill:#2f2f2f;fill-opacity:1;stroke-width:6;stroke-linecap:round"
     d="m 105.17185,39.170491 c 1.41913,0.777964 -2.86866,6.272247 -1.84697,15.585538 1.02169,9.313291 6.84387,12.942678 5.39731,14.34623 -1.44656,1.403552 -7.41904,-3.406998 -8.56603,-13.862487 -1.146986,-10.455488 3.59657,-16.847245 5.01569,-16.069281 z"
     id="path13717"
     sodipodi:nodetypes="zzszz" /></svg>
