<?xml version="1.0" encoding="UTF-8" standalone="no"?>
<svg
   width="128"
   height="128"
   version="1.1"
   id="svg10"
   sodipodi:docname="emoji_u1f355.svg"
   xml:space="preserve"
   inkscape:version="1.3 (0e150ed6c4, 2023-07-21)"
   xmlns:inkscape="http://www.inkscape.org/namespaces/inkscape"
   xmlns:sodipodi="http://sodipodi.sourceforge.net/DTD/sodipodi-0.dtd"
   xmlns="http://www.w3.org/2000/svg"
   xmlns:svg="http://www.w3.org/2000/svg"><defs
     id="defs10" /><sodipodi:namedview
     id="namedview10"
     pagecolor="#ffffff"
     bordercolor="#000000"
     borderopacity="0.25"
     inkscape:showpageshadow="2"
     inkscape:pageopacity="0.0"
     inkscape:pagecheckerboard="0"
     inkscape:deskcolor="#d1d1d1"
     inkscape:zoom="2.8670971"
     inkscape:cx="46.911561"
     inkscape:cy="81.790045"
     inkscape:window-width="1366"
     inkscape:window-height="697"
     inkscape:window-x="-8"
     inkscape:window-y="-8"
     inkscape:window-maximized="1"
     inkscape:current-layer="svg10" /><path
     id="path1"
     d="M 66.517578 12.40625 C 62.101496 12.463051 57.995815 15.015406 55.425764 18.515974 C 52.932732 21.708475 50.994211 25.300775 49.414062 29.021484 C 47.666876 32.048564 44.668126 34.031353 42.521829 36.737929 C 38.307869 41.771364 34.440292 47.081445 30.302706 52.176602 C 25.491506 58.226757 20.672489 64.285806 16.398049 70.733955 C 13.554034 74.940697 10.696135 79.14867 8.1774394 83.560929 C 5.0589949 89.251611 2.9323807 95.629802 2.9559928 102.17142 C 2.9376677 104.47759 3.1246034 106.77893 3.3066406 109.07617 C 3.5669096 110.52428 5.0144697 111.46059 6.4161411 111.54076 C 10.397075 112.31602 14.441783 111.50225 18.395012 110.95147 C 28.106651 109.33154 37.569912 106.49779 46.855807 103.26944 C 58.748026 99.045003 70.36579 94.103544 82.052427 89.35178 C 94.649881 84.213496 107.23133 79.034585 119.89648 74.064453 C 122.42059 73.027896 124.92992 71.400956 126.06329 68.814363 C 127.18962 66.472819 126.9194 63.783 126.61313 61.287061 C 126.12902 57.890909 125.14487 54.576925 123.90422 51.384394 C 120.61545 43.148009 115.00447 36.008232 108.45098 30.107376 C 101.54605 23.903233 93.538263 18.938192 84.946925 15.432821 C 79.50363 13.425297 73.672104 12.970096 67.947266 12.380859 C 67.470703 12.389323 66.994141 12.397786 66.517578 12.40625 z "
     style="fill:#fddd4e;fill-opacity:1"
     sodipodi:nodetypes="sccccccscsccsccccscccs" /><path
     id="path11"
     style="fill:#fcc21b;stroke:none;stroke-width:6;stroke-linecap:round"
     d="M 55.455078 34.949219 C 53.17835 35.49072 51.821151 37.590731 50.166981 39.0641 C 38.37471 51.2939 28.110778 64.954386 19.254193 79.439939 C 17.092209 83.168446 14.60113 86.827981 13.510454 91.048847 C 13.125351 92.228542 13.116815 93.608038 14.005087 94.574178 C 15.1155 96.057764 17.116836 95.995841 18.777838 95.914026 C 22.184568 95.581382 25.385572 94.24372 28.590744 93.125617 C 36.625924 90.11231 44.44145 86.554797 52.366047 83.268846 C 61.44547 79.352743 70.7286 75.943188 80.035912 72.615995 C 85.613232 70.581884 91.236559 68.615276 96.48396 65.825161 C 97.869051 64.994662 99.520576 63.709476 99.283203 61.890625 C 98.919318 59.582702 97.032345 57.948557 95.428851 56.421539 C 91.834439 53.245129 87.928329 50.446512 84.107311 47.553761 C 78.578678 43.503181 72.655126 40.016463 66.283211 37.463838 C 62.818972 36.016747 59.228102 34.817685 55.455078 34.949219 z " /><path
     id="path9"
     style="fill:#fab23d"
     d="M 59.681641 22.501953 C 58.242867 22.654826 56.701878 23.607171 56.496094 25.142578 C 56.333295 26.622809 57.621737 27.942868 59.045718 28.11934 C 61.998243 28.834516 64.955707 29.537365 67.849423 30.469611 C 71.213907 31.504456 74.573787 32.564318 77.88793 33.74997 C 80.96605 34.944777 83.865721 36.556575 86.597293 38.403929 C 89.477077 40.351238 92.324405 42.365012 94.972585 44.619689 C 97.619221 46.99877 99.914254 49.767659 102.21551 52.443072 C 103.19908 53.641703 103.98899 55.002786 105.05859 56.126953 C 105.96516 56.89952 107.45383 57.026222 108.33203 56.140625 C 109.28461 55.276116 109.17761 53.774268 108.64023 52.711161 C 107.10535 48.941472 104.68017 45.579952 101.76113 42.759287 C 98.900915 39.92276 95.870539 37.254714 92.700835 34.769635 C 87.958567 31.078102 82.567702 28.173637 76.777062 26.519757 C 72.525944 25.24601 68.21686 24.17452 63.914103 23.092823 C 62.522627 22.796016 61.119728 22.378643 59.681641 22.501953 z " /><path
     id="path10"
     style="fill:#fab23d"
     d="M 119.12891 61.634766 C 118.14144 61.72119 117.17691 61.985265 116.26205 62.362033 C 114.69638 63.051755 113.24021 63.976656 111.9135 65.054255 C 111.03203 65.768526 110.23977 66.584701 109.41797 67.365234 C 108.54368 68.246037 107.6781 69.135531 106.8517 70.061696 C 106.21585 70.758349 105.53063 71.422888 104.73116 71.930001 C 103.65298 72.621432 102.49346 73.17411 101.33018 73.705183 C 100.31675 74.147714 99.300603 74.583637 98.266982 74.977279 C 95.341633 76.106703 92.40064 77.195535 89.466398 78.30171 C 84.862533 80.033854 80.256756 81.760874 75.642375 83.464843 C 68.950556 85.951194 62.25431 88.425686 55.544936 90.864322 C 52.650614 91.90582 49.75517 92.944991 46.847308 93.948054 C 44.064705 94.887022 41.281453 95.825219 38.471724 96.680594 C 34.440614 97.935346 30.381294 99.097738 26.303292 100.19012 C 23.516486 100.93467 20.717153 101.63329 17.905186 102.27636 C 15.383294 102.82577 12.851694 103.32983 10.31135 103.78643 C 7.8779373 104.19956 5.4320092 104.53179 2.9902344 104.89062 C 3.1321615 106.4375 3.2740885 107.98437 3.4160156 109.53125 C 3.9602123 110.44191 4.8640483 111.12129 5.8808594 111.41602 C 7.0430655 111.63861 8.224066 111.7656 9.4077113 111.77526 C 10.717863 111.81539 12.026737 111.71724 13.329975 111.59373 C 15.22378 111.38726 17.103095 111.07054 18.982427 110.76328 C 20.661047 110.45055 22.341162 110.14541 24.009803 109.78214 C 25.98287 109.38293 27.936949 108.89602 29.889551 108.40807 C 33.761684 107.39602 37.604931 106.27257 41.407026 105.0225 C 44.271971 104.11395 47.108738 103.12006 49.933616 102.09442 C 52.003426 101.34679 54.066055 100.57893 56.113619 99.772185 C 60.453428 98.081328 64.767183 96.324557 69.088046 94.586075 C 83.428279 88.779448 97.771914 82.981207 112.10985 77.168914 C 114.31907 76.266112 116.5337 75.376106 118.73962 74.465494 C 119.88157 73.966061 121.02474 73.468192 122.14062 72.912109 C 122.99717 72.380112 123.81212 71.780431 124.55664 71.099609 C 125.2195 70.380293 125.81281 69.591011 126.25204 68.714345 C 126.61197 67.91202 126.76344 67.031289 126.81956 66.158654 C 126.91635 65.295677 126.758 64.374376 126.23675 63.664279 C 125.7319 62.93457 124.87737 62.553839 124.05164 62.310163 C 122.87297 61.993489 121.67081 61.753104 120.4517 61.667147 C 120.01228 61.633376 119.56947 61.612853 119.12891 61.634766 z " /><path
     d="m 33.046824,71.346052 c 0.230777,-2.215465 1.633905,-4.486317 4.744788,-6.489467 2.243159,-1.440053 4.560166,-1.956994 7.209493,-1.58775 6.037144,0.830799 11.640425,4.070917 9.904977,11.197331 -0.720026,2.963184 -4.51401,5.289423 -7.181801,6.240227 -3.249349,1.163119 -6.867942,1.024653 -9.978825,-0.480018 -1.403128,-0.67387 -3.249349,-1.947763 -4.070917,-3.295504 -0.858493,-1.412359 -0.803106,-3.978607 -0.627715,-5.584819 z"
     fill="#ed6c30"
     id="path3"
     style="stroke-width:0.999996" /><g
     id="g6"
     transform="matrix(0.92311054,0,0,0.92311054,140.85793,12.278774)"
     style="stroke-width:1.08329"><path
       d="m -108.40665,41.3 c -0.15,-2.42 0.95,-5.09 3.92,-7.79 2.14,-1.94 4.530003,-2.9 7.420003,-2.98 6.59,-0.18 13.16,2.28 12.58,10.21 -0.23,3.3 -3.88,6.46 -6.56,7.95 -3.26,1.81 -7.15,2.32 -10.750003,1.27 -1.62,-0.48 -3.82,-1.5 -4.93,-2.8 -1.17,-1.36 -1.56,-4.12 -1.68,-5.86 z"
       fill="#ed6c30"
       id="path5"
       style="stroke-width:1.08329" /></g><g
     id="g8"
     transform="matrix(0.92311054,0,0,0.92311054,130.44426,9.2806865)"
     style="stroke-width:1.08329"><path
       d="m -73.596647,58.63 c 0.25,-2.4 1.77,-4.86 5.14,-7.03 2.43,-1.56 4.94,-2.12 7.8,-1.72 6.54,0.9 12.61,4.41 10.74,12.13 -0.78,3.21 -4.89,5.73 -7.78,6.75 -3.52,1.26 -7.44,1.11 -10.81,-0.52 -1.52,-0.73 -3.52,-2.11 -4.41,-3.57 -0.93,-1.52 -0.87,-4.3 -0.68,-6.04 z"
       fill="#ed6c30"
       id="path7"
       style="stroke-width:1.08329" /></g></svg>
