<?xml version="1.0" encoding="UTF-8" standalone="no"?>
<!-- Generator: Adobe Illustrator 24.1.2, SVG Export Plug-In . SVG Version: 6.00 Build 0)  -->

<svg
   version="1.1"
   id="Layer_2"
   x="0px"
   y="0px"
   viewBox="0 0 128 128"
   style="enable-background:new 0 0 128 128;"
   xml:space="preserve"
   sodipodi:docname="emoji_u1f989.svg"
   inkscape:version="1.2.2 (732a01da63, 2022-12-09)"
   xmlns:inkscape="http://www.inkscape.org/namespaces/inkscape"
   xmlns:sodipodi="http://sodipodi.sourceforge.net/DTD/sodipodi-0.dtd"
   xmlns="http://www.w3.org/2000/svg"
   xmlns:svg="http://www.w3.org/2000/svg"><defs
   id="defs41949" /><sodipodi:namedview
   id="namedview41947"
   pagecolor="#ffffff"
   bordercolor="#000000"
   borderopacity="0.25"
   inkscape:showpageshadow="2"
   inkscape:pageopacity="0.0"
   inkscape:pagecheckerboard="0"
   inkscape:deskcolor="#d1d1d1"
   showgrid="false"
   inkscape:zoom="2.8284271"
   inkscape:cx="43.487067"
   inkscape:cy="78.842406"
   inkscape:window-width="1366"
   inkscape:window-height="697"
   inkscape:window-x="-8"
   inkscape:window-y="-8"
   inkscape:window-maximized="1"
   inkscape:current-layer="Layer_2" />
<path
   style="fill:#855c52;fill-opacity:1"
   d="M97.36,62.59c0,0,4.5-9.71,4.01-18.37c-0.32-5.56,0.92-29.63-35.69-30.34  c-36.6-0.7-38.86,20.74-38.86,31.25c0,7.88,3.52,15.35,3.52,15.35s-2.96-0.7-6.34,3.24s-3.54,12.47-1.13,17.18  c3.03,5.91,8.02,9.29,8.02,9.29l10.42,15.35c0,0-1.55,4.29-4.22,7.46c-1.8,2.14-5.58,5.46-5.49,6.76c0.14,1.97,4.22,0.99,10.14,1.27  c5.91,0.28,22.67-2.53,22.67-2.53s22.81,1.41,25.06,1.55c2.25,0.14,7.11,0.49,7.74-0.99c0.39-0.91-3.42-4.2-5-7.04  c-2.04-3.66-3.31-9.43-3.31-9.43s4.65-9.71,6.62-11.26c1.97-1.55,7.46-8.45,9.01-12.11s2.11-10.56-1.13-13.8  C101,62.99,97.36,62.59,97.36,62.59z"
   id="path41897" />
<path
   style="fill:#6E4F44;"
   d="M86.17,19.51c0,0,2.11-4.5,6.34-7.25c3.9-2.53,8.52-2.25,8.87-1.9c0.35,0.35-0.54,3.68-2.11,5.91  c-1.34,1.9-2.75,3.38-2.53,3.59c0.39,0.39,1.72-1.33,3.45-2.75c2.32-1.9,5.35-2.6,5.7-2.32s0.84,5.35-1.41,9.64  c-2.11,4.01-5.98,6.55-5.98,6.55l-5.42-7.32L86.17,19.51z"
   id="path41899" />
<path
   style="fill:#6E4F44;"
   d="M44.28,19.01c0,0-2.53-5.21-5.56-8.31s-7.74-4.86-8.31-4.29s-0.49,4.01,0.21,6.26s2.82,4.5,2.18,4.93  c-0.63,0.42-1.73-2.13-2.82-3.31c-1.76-1.9-4.93-3.45-5.49-3.1c-0.56,0.35-1.9,5.7,0.77,10.63c2.37,4.37,5.84,8.45,5.84,8.45  l8.17-7.81L44.28,19.01z"
   id="path41901" />
<path
   style="fill:#9e9e9e;fill-opacity:1"
   d="M46.96,111.06c0,0-0.5,2.08-3.1,4.41c-2.96,2.65-7.98,6.1-4.79,7.23c3.19,1.13,7.7,1.13,12.39,0.19  c4.69-0.94,9.29-2.35,12.58-2.35c3.28,0,9.95,1.22,13.23,1.69c3.28,0.47,7.47,0.88,9.85,0.38c2.21-0.47,3.26-1.45-0.54-5.4  c-1.63-1.69-4.43-6.43-4.43-6.43l-18.96,3.1L46.96,111.06z"
   id="path41903" />
<path
   id="path121089"
   style="fill:#2f2f2f;fill-opacity:1;stroke:none;stroke-width:6;stroke-linecap:round"
   d="M 30.054688 67.300781 C 28.286737 67.300781 26.696473 70.777926 25.8125 75.787109 C 25.26072 78.913873 25.024581 82.094401 24.912109 84.158203 L 24.914062 84.160156 C 25.774925 85.33812 26.657642 86.354837 27.472656 87.199219 C 27.475239 87.201895 27.477887 87.204358 27.480469 87.207031 C 27.866083 87.606236 28.232526 87.960306 28.578125 88.28125 C 28.623336 88.322887 28.668565 88.365948 28.712891 88.40625 C 29.035372 88.701579 29.338404 88.967304 29.605469 89.189453 C 29.612948 89.195674 29.62343 89.204774 29.630859 89.210938 L 29.634766 89.212891 L 31.529297 90.341797 L 30.054688 67.300781 z M 96.648438 67.300781 L 95.175781 90.341797 L 98.171875 88.554688 C 99.335394 87.184829 100.61119 85.544081 101.75977 83.894531 C 101.76491 83.887146 101.77025 83.880431 101.77539 83.873047 L 101.77539 83.871094 C 101.65529 81.793761 101.41658 78.767469 100.89062 75.787109 C 100.0067 70.777926 98.416384 67.300781 96.648438 67.300781 z M 89.050781 103.21484 L 79.234375 109.59961 L 80.28125 111.08594 L 82.150391 110.7793 C 82.150391 110.7793 82.924727 112.08817 83.892578 113.57227 C 84.815367 113.06546 86.231607 112.22677 87.8125 111.00391 C 89.229074 109.90814 90.062353 108.86381 90.544922 108.1582 C 89.768246 105.97883 89.25843 104.08107 89.050781 103.21484 z M 41.193359 105.83398 C 41.017949 106.29468 40.423617 107.77054 39.376953 109.62695 C 40.07831 110.32939 41.04344 111.18841 42.333984 112.03516 C 43.491129 112.79437 44.495822 113.41849 45.330078 113.92773 C 46.65272 112.29724 46.960938 111.06055 46.960938 111.06055 L 49.408203 111.48633 L 49.933594 110.60156 L 41.193359 105.83398 z " /><path
   style="fill:#855c52;fill-opacity:1"
   d="M36.45,61.41c0,0-3.85,0.38-5.44,2.53s-3.75,8.26-3.38,16.89c0.38,8.63,4.13,15.96,9.01,22.43  c4.88,6.48,11.54,13.05,26.65,12.58c15.11-0.47,22.99-4.32,26.94-11.26c3.94-6.95,8.82-16.14,9.29-24.78  c0.47-8.63-3.85-16.52-5.26-17.55c-1.41-1.03-30.5-2.44-30.5-2.44L36.45,61.41z"
   id="path41905" />
<linearGradient
   id="SVGID_1_"
   gradientUnits="userSpaceOnUse"
   x1="63.4068"
   y1="60.8187"
   x2="63.7159"
   y2="110.6862">
	<stop
   offset="0.0499"
   style="stop-color:#F5DBB8"
   id="stop41907" />
	<stop
   offset="0.2381"
   style="stop-color:#F2D2AF"
   id="stop41909" />
	<stop
   offset="0.5467"
   style="stop-color:#E9B996"
   id="stop41911" />
	<stop
   offset="0.8936"
   style="stop-color:#DC9673"
   id="stop41913" />
</linearGradient>
<path
   style="fill:#fef6e0;fill-opacity:1"
   d="M42.17,61.41c0,0-9.29,8.35-7.6,22.99c1.49,12.92,10.7,26.19,28.81,26.28  c20.56,0.11,28.14-14.57,29.19-26.47c1.22-13.89-6.66-22.34-7.7-23.18C83.84,60.19,42.17,61.41,42.17,61.41z"
   id="path41916" />
<path
   style="fill:#bb917a;fill-opacity:1"
   d="M64.23,73.43c0,0,8.07-8.54,14.45-10.23c6.38-1.69,15.58-0.94,15.58-0.94s4.29-6.43,4.6-18.77  c0.33-13.25-6.66-18.96-6.66-18.96s-11.64-2.25-19.71,6.19c-6.76,7.07-5.91,15.58-5.91,15.58l-3.64-0.61c0,0,0.05-9.46-6.62-15.27  s-15.84-7.3-15.84-7.3s-11.14,5.95-11.4,19.69c-0.28,14.73,5.28,18.93,5.28,18.93s9.03,0.23,17.01,3.05S64.23,73.43,64.23,73.43z"
   id="path41918" />


<path
   style="fill:#bb917a;fill-opacity:1"
   d="M78.35,73.14c1.67,0.37,2.53-2.82,4.46-1.27c1.92,1.55-0.8,4.5-3.8,4.6c-3,0.09-6.24-1.97-5.12-3.94  C75.02,70.56,76.43,72.72,78.35,73.14z"
   id="path41924" />
<path
   style="fill:#bb917a;fill-opacity:1"
   d="M85.49,81.26c2.39-0.23,3.57-2.91,5.16-1.27s-0.99,4.46-5.02,4.69c-4.04,0.23-6.19-1.83-5.3-3.43  C81.22,79.67,82.62,81.54,85.49,81.26z"
   id="path41926" />
<path
   style="fill:#bb917a;fill-opacity:1"
   d="M64.6,82.34c2.95,0.17,3.14-2.82,5.3-1.78c2.16,1.03-0.37,5.53-5.02,5.49  c-5.26-0.05-7.17-3.88-5.73-5.07C61.22,79.29,61.41,82.15,64.6,82.34z"
   id="path41928" />
<path
   style="fill:#bb917a;fill-opacity:1"
   d="M50.24,73.94c2.02-0.12,1.69-2.63,4.41-1.69c2.3,0.8-0.33,5.21-4.74,5.16  c-3.94-0.04-6.1-3.33-5.02-4.32C47.03,71.15,47.9,74.08,50.24,73.94z"
   id="path41930" />
<path
   style="fill:#bb917a;fill-opacity:1"
   d="M41.42,81.17c1.74-0.05,2.11-2.35,4.04-1.22c1.92,1.13,0.28,4.74-4.18,4.79  c-3.99,0.04-5.46-2.73-4.36-3.94C38.61,78.92,39.69,81.22,41.42,81.17z"
   id="path41932" />




<path
   style="fill:#2f2f2f;fill-opacity:1"
   d="m 59.566796,46.11 c 0,0 -0.16,6.1 0,8.17 0.23,2.96 0.86,5.09 1.74,6.85 0.94,1.88 2.35,3.94 3.05,3.94 0.7,0 2.16,-1.99 3,-3.89 0.7,-1.6 1.45,-3.75 1.78,-7.46 0.28,-3.15 0.28,-6.95 0.28,-6.95 z"
   id="path41942" />

<path
   d="m 47.926322,52.177487 c -5.185438,0.04233 -9.435407,-4.49549 -9.493156,-10.128013 -0.05775,-5.653569 4.09984,-10.264868 9.285271,-10.306973 5.173889,-0.04233 9.435414,4.495479 9.493157,10.149053 0.05776,5.643054 -4.099835,10.243815 -9.285272,10.285933 z"
   style="clip-rule:evenodd;fill:#ffffff;fill-rule:nonzero;stroke-width:0.999994;stroke-linejoin:round;stroke-miterlimit:2"
   id="path129266"
   sodipodi:nodetypes="ccccc" /><path
   d="m 48.102932,45.701976 c -2.236107,0.01721 -4.068813,-1.827897 -4.093716,-4.118118 -0.0249,-2.298779 1.767966,-4.173765 4.004069,-4.190885 2.231127,-0.01721 4.068816,1.827892 4.093717,4.126674 0.0249,2.294503 -1.767964,4.165203 -4.00407,4.182329 z"
   style="clip-rule:evenodd;fill:#2f2f2f;fill-rule:nonzero;stroke-width:0.999993;stroke-linejoin:round;stroke-miterlimit:2"
   id="path128520"
   sodipodi:nodetypes="ccccc" /><path
   d="m 80.248824,52.177487 c 5.185438,0.04233 9.435407,-4.49549 9.493156,-10.128013 0.05775,-5.653569 -4.09984,-10.264868 -9.285271,-10.306973 -5.173889,-0.04233 -9.435414,4.495479 -9.493157,10.149053 -0.05776,5.643054 4.099835,10.243815 9.285272,10.285933 z"
   style="clip-rule:evenodd;fill:#ffffff;fill-rule:nonzero;stroke-width:0.999994;stroke-linejoin:round;stroke-miterlimit:2"
   id="path129268"
   sodipodi:nodetypes="ccccc" /><path
   d="m 80.072214,45.701976 c 2.236107,0.01721 4.068813,-1.827897 4.093716,-4.118118 0.0249,-2.298779 -1.767966,-4.173765 -4.004069,-4.190885 -2.231127,-0.01721 -4.068816,1.827892 -4.093717,4.126674 -0.0249,2.294503 1.767964,4.165203 4.00407,4.182329 z"
   style="clip-rule:evenodd;fill:#2f2f2f;fill-rule:nonzero;stroke-width:0.999993;stroke-linejoin:round;stroke-miterlimit:2"
   id="path129270"
   sodipodi:nodetypes="ccccc" /><path
   d="m 64.435618,40.965486 c -5.71889,0 -5.854727,6.411839 -5.854726,7.681173 0,1.269336 2.621272,2.297286 5.854726,2.297287 3.234373,-10e-7 5.854728,-1.028869 5.854728,-2.297287 0,-1.269334 -0.134919,-7.681173 -5.854728,-7.681173 z"
   style="clip-rule:evenodd;fill:#f79329;fill-opacity:1;fill-rule:nonzero;stroke-width:1;stroke-linejoin:round;stroke-miterlimit:2"
   id="path35588" /></svg>
