<?xml version="1.0" encoding="UTF-8" standalone="no"?>
<svg
   width="128"
   height="128"
   version="1.1"
   id="svg10781"
   sodipodi:docname="emoji_u1f3b5.svg"
   inkscape:version="1.2.2 (732a01da63, 2022-12-09)"
   xmlns:inkscape="http://www.inkscape.org/namespaces/inkscape"
   xmlns:sodipodi="http://sodipodi.sourceforge.net/DTD/sodipodi-0.dtd"
   xmlns="http://www.w3.org/2000/svg"
   xmlns:svg="http://www.w3.org/2000/svg">
  <defs
     id="defs10785" />
  <sodipodi:namedview
     id="namedview10783"
     pagecolor="#ffffff"
     bordercolor="#000000"
     borderopacity="0.25"
     inkscape:showpageshadow="2"
     inkscape:pageopacity="0.0"
     inkscape:pagecheckerboard="0"
     inkscape:deskcolor="#d1d1d1"
     showgrid="false"
     inkscape:zoom="0.53027344"
     inkscape:cx="164.0663"
     inkscape:cy="237.61326"
     inkscape:window-width="1366"
     inkscape:window-height="697"
     inkscape:window-x="-8"
     inkscape:window-y="-8"
     inkscape:window-maximized="1"
     inkscape:current-layer="svg10781" />
  <path
     id="path10779"
     d="M 113.07969,4.8931364 58.170574,12.538489 c -1.491472,0.207675 -5.051932,0.728155 -6.992026,0.904912 -1.940095,0.17676 -3.709994,1.997231 -3.679412,4.211575 L 48.389964,82.14025 C 44.253092,79.640825 39.315555,78.618732 34.294665,78.854342 25.612874,79.270201 16.745463,83.346241 11.56315,89.540138 9.8248789,91.61829 8.1567401,94.270534 7.3094478,96.872582 c -0.8709103,2.682188 -1.3410934,6.480068 -0.684471,9.260638 1.3744267,5.79696 5.1655652,10.91146 10.5167402,13.59613 1.472395,0.74287 3.092755,1.40326 4.689531,1.81051 8.777484,2.27421 18.228003,-1.72468 24.742057,-7.54341 4.94002,-4.41784 9.68684,-11.62947 9.8967,-18.521866 0.07425,-0.299455 0.10454,-0.605427 0.104799,-0.938198 L 55.884182,44.004435 c 0.676034,-0.02677 1.307549,-0.06795 1.789962,-0.06798 2.53426,-0.03114 43.928936,-6.878913 52.092396,-8.230921 l 0.52297,37.884498 c -4.13687,-2.499425 -9.07446,-3.523101 -14.095358,-3.287492 -8.681785,0.415859 -17.5492,4.491902 -22.731512,10.685797 -1.738271,2.078151 -3.406352,4.73199 -4.253643,7.334027 -0.870912,2.682193 -1.341094,6.480065 -0.684471,9.260639 1.374427,5.796958 5.165566,10.911458 10.51674,13.596108 1.472394,0.74288 3.092692,1.40169 4.689471,1.80893 8.777486,2.27422 18.228063,-1.72311 24.742113,-7.54183 4.94002,-4.41783 9.68684,-11.629462 9.89671,-18.521849 0.0742,-0.299446 0.10453,-0.605436 0.1048,-0.938198 l -0.68905,-50.532004 0.0255,-25.7460901 c 0.004,-3.4998988 -2.79107,-4.9917031 -4.73115,-4.8149469 z"
     style="fill:#006ca2;fill-opacity:1;stroke-width:1" />
  <path
     d="m -279.43397,150.84764 -67.95507,6.9082 c -1.84589,0.1876 -6.25355,0.66588 -8.65039,0.79492 -2.39686,0.12905 -4.66116,2.28778 -4.72461,5.01563 l -1.84766,79.4414 c -4.97948,-3.26635 -11.01224,-4.75028 -17.20508,-4.68945 -10.70861,0.11562 -21.81292,4.72747 -28.47656,12.11719 -2.23518,2.4794 -4.41021,5.6708 -5.57227,8.83594 -1.19479,3.26272 -1.94713,7.91746 -1.26562,11.37109 1.4276,7.20038 5.86197,13.67082 12.32812,17.2207 1.779,0.98192 3.74394,1.86708 5.69141,2.44141 10.70361,3.20097 22.52235,-1.28928 30.80859,-8.15625 6.28424,-5.21399 12.45814,-13.8767 13.03125,-22.35352 0.10512,-0.36532 0.15637,-0.74067 0.17188,-1.15039 l 1.45898,-62.25 c 0.83361,-0.002 1.6111,-0.0255 2.20508,-0.004 3.1217,0.0774 54.40042,-6.46171 64.51563,-7.75391 l -1.08594,46.66797 c -4.97948,-3.26636 -11.01029,-4.75029 -17.20313,-4.68945 -10.7086,0.11561 -21.8129,4.72941 -28.47656,12.11914 -2.23517,2.4794 -4.4102,5.66887 -5.57226,8.83398 -1.1948,3.26274 -1.9491,7.91943 -1.26758,11.37305 1.42759,7.20038 5.86392,13.66886 12.33008,17.21875 1.77898,0.98192 3.74198,1.86903 5.68945,2.44336 10.70361,3.20096 22.52429,-1.29123 30.81055,-8.15821 6.28422,-5.21399 12.45616,-13.87475 13.02929,-22.35156 0.10513,-0.36531 0.15831,-0.74068 0.17383,-1.15039 l 1.45703,-62.25195 1.20899,-31.69727 c 0.16428,-4.30914 -3.21058,-6.27553 -5.60743,-6.14648 z"
     id="path12092"
     style="fill:#006ca2;fill-opacity:1" />
  <path
     d="m -342.98279,-25.310561 c -0.4921,-0.02674 -0.98237,-0.01723 -1.46485,0.05273 -0.0411,-0.0037 -0.0936,-0.01539 -0.14453,-0.01758 -2.7248,-0.14385 -5.04993,1.949011 -5.19336,4.673828 l -4.16601,79.351562 c -4.88196,-3.410394 -10.86859,-5.069402 -17.06055,-5.189453 -10.70743,-0.19718 -21.94173,4.089289 -28.81836,11.28125 -2.30663,2.413057 -4.57413,5.538136 -5.82812,8.667969 -1.28958,3.226448 -2.17802,7.858032 -1.59766,11.330078 1.2167,7.239014 5.4606,13.835054 11.82031,17.572267 1.74957,1.03346 3.68732,1.97645 5.61719,2.60742 10.60556,3.5122 22.54994,-0.63186 31.0332,-7.253903 6.43383,-5.02825 12.8573,-13.506427 13.67774,-21.962893 0.11574,-0.36209 0.17956,-0.735452 0.20703,-1.144531 l 3.27539,-62.181641 c 0.83331,0.02223 1.612,0.02316 2.20508,0.0625 3.18147,0.17193 53.79435,0.955528 61.61914,1.076172 l -2.47656,47.134765 c -4.88197,-3.410394 -10.86859,-5.069403 -17.06055,-5.189453 -10.70742,-0.19718 -21.94174,4.089289 -28.81836,11.28125 -2.30663,2.413057 -4.57413,5.538138 -5.82813,8.667969 -1.28957,3.226447 -2.17801,7.858032 -1.59765,11.330078 1.2167,7.239014 5.46059,13.835057 11.82031,17.572267 1.74956,1.03346 3.68733,1.97841 5.61719,2.60938 10.60556,3.51219 22.55188,-0.63382 31.03515,-7.255863 6.43382,-5.02825 12.8573,-13.504473 13.67774,-21.96094 0.11574,-0.362089 0.1776,-0.737404 0.20508,-1.146484 l 3.27539,-62.181641 2.13476,-31.648437 c 0.29003,-4.302521 -3.02619,-6.365632 -5.42578,-6.306641 -0.53778,0.01322 -1.06761,0.142027 -1.57422,0.34375 l 0.002,-0.191406 -65.80274,-1.472657 c -1.39119,-0.03111 -2.88894,-0.431497 -4.36523,-0.511718 z"
     id="path10779-2"
     style="fill:#006ca2;fill-opacity:1" />
  <path
     d="m -180.07661,32.82271 c 0.29003,-4.302526 -3.02485,-6.36517 -5.42444,-6.306179 -2.3996,0.05899 -4.72499,2.151497 -4.86841,4.876316 l -4.16724,79.352523 c -4.88197,-3.4104 -10.8681,-5.07036 -17.06007,-5.19041 -10.70743,-0.19718 -21.94214,4.0899 -28.81877,11.28187 -2.30663,2.41306 -4.57334,5.53844 -5.82734,8.66828 -1.28958,3.22645 -2.17851,7.85803 -1.59815,11.33008 1.2167,7.23902 5.46058,13.83529 11.82031,17.57251 1.74956,1.03346 3.68753,1.9769 5.61739,2.60787 10.60557,3.5122 22.55061,-0.63233 31.03389,-7.25438 6.43382,-5.02825 12.85753,-13.50589 13.67797,-21.96236 0.11574,-0.36209 0.179,-0.73625 0.20648,-1.14533 l 3.2749,-62.181531 z"
     fill="#006ca2"
     id="path10904-4-1"
     sodipodi:nodetypes="ssccccccccccccs" />
</svg>
