<?xml version="1.0" encoding="UTF-8" standalone="no"?>
<svg
   width="128"
   height="128"
   version="1.1"
   id="svg47"
   sodipodi:docname="emoji_u1f623.svg"
   xml:space="preserve"
   inkscape:version="1.3 (0e150ed6c4, 2023-07-21)"
   xmlns:inkscape="http://www.inkscape.org/namespaces/inkscape"
   xmlns:sodipodi="http://sodipodi.sourceforge.net/DTD/sodipodi-0.dtd"
   xmlns:xlink="http://www.w3.org/1999/xlink"
   xmlns="http://www.w3.org/2000/svg"
   xmlns:svg="http://www.w3.org/2000/svg"><defs
     id="defs47"><path
       id="SVGID_1_"
       d="M122.35,44.7C113.3,25.05,89.17,10.94,64,10.94c-25.17,0-49.29,14.12-58.36,33.76     C-8.11,74.53,8.7,97.92,8.7,97.92s0.05,0.04,0.05,0.04c3.47,10.77,26.86,19.1,55.25,19.1c28.4,0,51.77-8.33,55.25-19.1     c0.01-0.01,0.06-0.05,0.06-0.05S136.11,74.53,122.35,44.7z" /></defs><sodipodi:namedview
     id="namedview47"
     pagecolor="#ffffff"
     bordercolor="#000000"
     borderopacity="0.25"
     inkscape:showpageshadow="2"
     inkscape:pageopacity="0.0"
     inkscape:pagecheckerboard="0"
     inkscape:deskcolor="#d1d1d1"
     inkscape:zoom="8.515625"
     inkscape:cx="64"
     inkscape:cy="64"
     inkscape:current-layer="svg47" /><g
     id="g48"
     transform="translate(7.663911e-4)">&#10;	<g
   id="g46">&#10;		<defs
   id="defs1">&#10;			<path
   id="path47"
   d="M 122.35,44.7 C 113.3,25.05 89.17,10.94 64,10.94 38.83,10.94 14.71,25.06 5.64,44.7 -8.11,74.53 8.7,97.92 8.7,97.92 c 0,0 0.05,0.04 0.05,0.04 3.47,10.77 26.86,19.1 55.25,19.1 28.4,0 51.77,-8.33 55.25,-19.1 0.01,-0.01 0.06,-0.05 0.06,-0.05 0,0 16.8,-23.38 3.04,-53.21 z" />&#10;		</defs>&#10;		<use
   xlink:href="#SVGID_1_"
   overflow="visible"
   fill="#fcc21b"
   id="use1" />&#10;		<clipPath
   id="SVGID_2_">&#10;			<use
   xlink:href="#SVGID_1_"
   overflow="visible"
   id="use2" />&#10;		</clipPath>&#10;		<g
   clip-path="url(#SVGID_2_)"
   id="g23">&#10;			<path
   fill="#fcc21b"
   d="M 30.36,83.34 C 17.4,87.99 3.11,81.42 -1.6,68.64 -6.3,55.87 0.35,41.73 13.3,37.05 26.22,32.4 40.54,38.99 45.27,51.77 49.95,64.55 43.28,78.7 30.36,83.34 Z"
   id="path2" />&#10;			<path
   fill="#fcc01c"
   d="M 30.01,82.39 C 17.58,86.86 3.87,80.56 -0.64,68.3 -5.15,56.05 1.23,42.48 13.65,38 26.04,33.54 39.78,39.86 44.32,52.12 48.81,64.37 42.4,77.94 30.01,82.39 Z"
   id="path3" />&#10;			<path
   fill="#fcbe1c"
   d="M 29.66,81.45 C 17.76,85.72 4.63,79.69 0.31,67.95 -4.01,56.22 2.1,43.23 14,38.94 c 11.87,-4.27 25.02,1.78 29.36,13.52 4.3,11.74 -1.83,24.73 -13.7,28.99 z"
   id="path4" />&#10;			<path
   fill="#fbbb1d"
   d="M 29.32,80.51 C 17.95,84.59 5.4,78.83 1.27,67.61 -2.86,56.4 2.98,43.98 14.35,39.88 25.69,35.8 38.27,41.58 42.41,52.8 46.52,64.02 40.66,76.44 29.32,80.51 Z"
   id="path5" />&#10;			<path
   fill="#fbb91e"
   d="M 28.97,79.57 C 18.13,83.46 6.16,77.97 2.22,67.27 -1.72,56.58 3.85,44.74 14.69,40.82 25.5,36.93 37.5,42.44 41.45,53.14 45.37,63.84 39.79,75.68 28.97,79.57 Z"
   id="path6" />&#10;			<path
   fill="#fbb71e"
   d="M 28.62,78.63 C 18.31,82.33 6.92,77.1 3.17,66.92 -0.57,56.75 4.72,45.48 15.04,41.76 25.33,38.06 36.74,43.3 40.5,53.48 44.23,63.66 38.91,74.93 28.62,78.63 Z"
   id="path7" />&#10;			<path
   fill="#fbb51f"
   d="M 28.27,77.68 C 18.48,81.2 7.67,76.23 4.12,66.57 0.58,56.93 5.6,46.24 15.39,42.7 c 9.76,-3.51 20.59,1.46 24.16,11.12 3.53,9.67 -1.51,20.35 -11.28,23.86 z"
   id="path8" />&#10;			<path
   fill="#fab220"
   d="M 27.93,76.74 C 18.67,80.07 8.44,75.37 5.08,66.23 1.72,57.1 6.48,46.98 15.73,43.64 c 9.24,-3.32 19.48,1.38 22.85,10.52 3.36,9.15 -1.41,19.26 -10.65,22.58 z"
   id="path9" />&#10;			<path
   fill="#fab020"
   d="M 27.58,75.8 C 18.85,78.94 9.2,74.51 6.03,65.89 2.86,57.28 7.35,47.74 16.08,44.59 c 8.71,-3.13 18.37,1.31 21.55,9.92 3.16,8.62 -1.34,18.16 -10.05,21.29 z"
   id="path10" />&#10;			<path
   fill="#faae21"
   d="M 27.23,74.86 C 19.02,77.81 9.96,73.65 6.98,65.55 4,57.46 8.22,48.5 16.42,45.53 c 8.19,-2.94 17.26,1.23 20.25,9.32 2.98,8.1 -1.25,17.07 -9.44,20.01 z"
   id="path11" />&#10;			<path
   fill="#faac22"
   d="M 26.89,73.92 C 19.21,76.68 10.73,72.78 7.95,65.21 5.16,57.64 9.11,49.25 16.78,46.48 c 7.66,-2.75 16.15,1.15 18.95,8.72 2.78,7.58 -1.18,15.96 -8.84,18.72 z"
   id="path12" />&#10;			<path
   fill="#f9a922"
   d="M 26.54,72.97 C 19.39,75.54 11.49,71.91 8.9,64.86 6.3,57.81 9.97,50 17.12,47.42 c 7.13,-2.57 15.04,1.07 17.65,8.12 2.59,7.06 -1.09,14.87 -8.23,17.43 z"
   id="path13" />&#10;			<path
   fill="#f9a723"
   d="m 26.19,72.03 c -6.62,2.38 -13.94,-0.98 -16.34,-7.52 -2.4,-6.53 1,-13.77 7.62,-16.16 6.61,-2.38 13.94,0.99 16.35,7.53 2.4,6.54 -1.02,13.78 -7.63,16.15 z"
   id="path14" />&#10;			<path
   fill="#f9a524"
   d="M 25.85,71.09 C 19.75,73.28 13.02,70.19 10.81,64.17 8.6,58.16 11.73,51.5 17.82,49.3 c 6.08,-2.19 12.83,0.91 15.04,6.93 2.21,6.01 -0.93,12.67 -7.01,14.86 z"
   id="path15" />&#10;			<path
   fill="#f9a324"
   d="m 25.5,70.15 c -5.57,2 -11.72,-0.83 -13.74,-6.32 -2.02,-5.49 0.84,-11.58 6.41,-13.59 5.56,-2 11.72,0.83 13.74,6.33 2.02,5.5 -0.85,11.58 -6.41,13.58 z"
   id="path16" />&#10;			<path
   fill="#f8a025"
   d="m 25.15,69.21 c -5.04,1.81 -10.61,-0.75 -12.44,-5.72 -1.83,-4.97 0.76,-10.48 5.8,-12.3 5.03,-1.81 10.61,0.75 12.44,5.73 1.83,4.97 -0.77,10.48 -5.8,12.29 z"
   id="path17" />&#10;			<path
   fill="#f89e26"
   d="m 24.81,68.26 c -4.51,1.62 -9.5,-0.67 -11.14,-5.12 -1.63,-4.45 0.68,-9.39 5.19,-11.02 4.5,-1.62 9.5,0.68 11.14,5.13 1.64,4.46 -0.69,9.39 -5.19,11.01 z"
   id="path18" />&#10;			<path
   fill="#f89c26"
   d="m 24.46,67.32 c -3.99,1.43 -8.39,-0.59 -9.84,-4.53 -1.44,-3.93 0.6,-8.29 4.59,-9.73 3.98,-1.43 8.39,0.6 9.84,4.53 1.44,3.94 -0.61,8.3 -4.59,9.73 z"
   id="path19" />&#10;			<path
   fill="#f89a27"
   d="m 24.11,66.38 c -3.46,1.24 -7.28,-0.52 -8.54,-3.93 -1.25,-3.41 0.52,-7.19 3.98,-8.44 3.45,-1.24 7.28,0.52 8.54,3.93 1.26,3.41 -0.52,7.19 -3.98,8.44 z"
   id="path20" />&#10;			<path
   fill="#f79728"
   d="m 23.76,65.44 c -2.93,1.05 -6.17,-0.44 -7.24,-3.33 -1.06,-2.89 0.44,-6.1 3.37,-7.16 2.93,-1.05 6.17,0.44 7.24,3.33 1.07,2.9 -0.44,6.1 -3.37,7.16 z"
   id="path21" />&#10;			<path
   fill="#f79528"
   d="m 23.42,64.5 c -2.4,0.86 -5.07,-0.36 -5.94,-2.73 -0.87,-2.37 0.36,-5 2.77,-5.87 2.4,-0.86 5.07,0.36 5.93,2.73 0.88,2.37 -0.36,5 -2.76,5.87 z"
   id="path22" />&#10;			<path
   fill="#f79329"
   d="m 23.07,63.55 c -1.88,0.67 -3.96,-0.28 -4.64,-2.13 -0.68,-1.85 0.28,-3.91 2.16,-4.59 1.88,-0.67 3.96,0.28 4.63,2.13 0.69,1.86 -0.27,3.92 -2.15,4.59 z"
   id="path23" />&#10;		</g>&#10;		<g
   clip-path="url(#SVGID_2_)"
   id="g45">&#10;			<path
   fill="#fcc21b"
   d="M 117.62,83.56 C 104.54,88.26 90.11,81.63 85.35,68.72 80.61,55.83 87.32,41.55 100.4,36.83 c 13.04,-4.69 27.51,1.95 32.28,14.86 4.72,12.9 -2.02,27.19 -15.06,31.87 z"
   id="path24" />&#10;			<path
   fill="#fcc01c"
   d="M 117.27,82.61 C 104.72,87.12 90.88,80.76 86.32,68.37 81.77,56 88.21,42.3 100.75,37.77 c 12.51,-4.5 26.39,1.87 30.97,14.25 4.52,12.4 -1.94,26.1 -14.45,30.59 z"
   id="path25" />&#10;			<path
   fill="#fcbe1c"
   d="M 116.91,81.66 C 104.9,85.97 91.64,79.89 87.27,68.03 c -4.35,-11.84 1.81,-24.96 13.82,-29.3 11.98,-4.31 25.27,1.8 29.65,13.65 4.35,11.86 -1.84,24.97 -13.83,29.28 z"
   id="path26" />&#10;			<path
   fill="#fbbb1d"
   d="m 116.56,80.71 c -11.48,4.12 -24.15,-1.7 -28.33,-13.03 -4.16,-11.32 1.73,-23.85 13.21,-28 11.45,-4.12 24.15,1.72 28.34,13.04 4.15,11.34 -1.76,23.87 -13.22,27.99 z"
   id="path27" />&#10;			<path
   fill="#fbb91e"
   d="M 116.21,79.76 C 105.26,83.69 93.18,78.14 89.2,67.33 c -3.97,-10.79 1.65,-22.75 12.6,-26.7 10.92,-3.93 23.03,1.64 27.02,12.44 3.96,10.81 -1.68,22.76 -12.61,26.69 z"
   id="path28" />&#10;			<path
   fill="#fbb71e"
   d="m 115.86,78.81 c -10.41,3.74 -21.91,-1.54 -25.7,-11.82 -3.77,-10.27 1.57,-21.64 11.99,-25.4 10.39,-3.74 21.91,1.56 25.71,11.83 3.76,10.28 -1.61,21.65 -12,25.39 z"
   id="path29" />&#10;			<path
   fill="#fbb51f"
   d="M 115.51,77.86 C 105.63,81.41 94.72,76.4 91.12,66.64 87.54,56.9 92.61,46.1 102.5,42.54 c 9.85,-3.54 20.79,1.48 24.39,11.23 3.58,9.75 -1.52,20.54 -11.38,24.09 z"
   id="path30" />&#10;			<path
   fill="#fab220"
   d="M 115.16,76.9 C 105.81,80.26 95.49,75.52 92.09,66.29 88.7,57.07 93.5,46.86 102.85,43.48 c 9.32,-3.35 19.67,1.4 23.08,10.62 3.38,9.24 -1.44,19.45 -10.77,22.8 z"
   id="path31" />&#10;			<path
   fill="#fab020"
   d="m 114.81,75.95 c -8.82,3.17 -18.55,-1.3 -21.76,-10.01 -3.19,-8.69 1.33,-18.32 10.15,-21.51 8.79,-3.16 18.55,1.32 21.76,10.02 3.19,8.71 -1.35,18.34 -10.15,21.5 z"
   id="path32" />&#10;			<path
   fill="#faae21"
   d="m 114.46,75 c -8.28,2.97 -17.43,-1.23 -20.45,-9.4 -3,-8.17 1.25,-17.22 9.54,-20.21 8.26,-2.97 17.43,1.24 20.45,9.41 3,8.18 -1.27,17.23 -9.54,20.2 z"
   id="path33" />&#10;			<path
   fill="#faac22"
   d="m 114.11,74.05 c -7.75,2.78 -16.31,-1.15 -19.13,-8.8 -2.81,-7.64 1.17,-16.11 8.93,-18.91 7.73,-2.78 16.31,1.16 19.14,8.81 2.79,7.65 -1.2,16.12 -8.94,18.9 z"
   id="path34" />&#10;			<path
   fill="#f9a922"
   d="m 113.76,73.1 c -7.22,2.59 -15.19,-1.07 -17.82,-8.2 -2.61,-7.12 1.09,-15 8.32,-17.61 7.2,-2.59 15.19,1.08 17.82,8.2 2.61,7.13 -1.12,15.02 -8.32,17.61 z"
   id="path35" />&#10;			<path
   fill="#f9a723"
   d="m 113.41,72.15 c -6.69,2.4 -14.07,-0.99 -16.51,-7.59 -2.42,-6.59 1.01,-13.9 7.71,-16.31 6.67,-2.4 14.07,1 16.51,7.6 2.41,6.59 -1.04,13.9 -7.71,16.3 z"
   id="path36" />&#10;			<path
   fill="#f9a524"
   d="m 113.06,71.2 c -6.15,2.21 -12.95,-0.91 -15.19,-6.99 -2.22,-6.07 0.93,-12.79 7.09,-15.02 6.14,-2.21 12.95,0.92 15.19,6.99 2.23,6.08 -0.95,12.81 -7.09,15.02 z"
   id="path37" />&#10;			<path
   fill="#f9a324"
   d="m 112.71,70.25 c -5.62,2.02 -11.83,-0.83 -13.88,-6.38 -2.03,-5.54 0.85,-11.69 6.48,-13.72 5.6,-2.01 11.83,0.84 13.88,6.39 2.03,5.54 -0.87,11.69 -6.48,13.71 z"
   id="path38" />&#10;			<path
   fill="#f8a025"
   d="m 112.36,69.29 c -5.09,1.82 -10.71,-0.76 -12.57,-5.78 -1.84,-5.02 0.77,-10.58 5.87,-12.42 5.07,-1.82 10.71,0.76 12.56,5.78 1.84,5.04 -0.78,10.59 -5.86,12.42 z"
   id="path39" />&#10;			<path
   fill="#f89e26"
   d="m 112.01,68.34 c -4.55,1.63 -9.59,-0.68 -11.25,-5.17 -1.64,-4.49 0.69,-9.48 5.26,-11.12 4.54,-1.63 9.58,0.68 11.25,5.18 1.64,4.5 -0.71,9.47 -5.26,11.11 z"
   id="path40" />&#10;			<path
   fill="#f89c26"
   d="m 111.66,67.39 c -4.02,1.44 -8.48,-0.6 -9.94,-4.57 -1.46,-3.97 0.61,-8.37 4.65,-9.82 4.01,-1.44 8.46,0.6 9.93,4.57 1.45,3.98 -0.62,8.37 -4.64,9.82 z"
   id="path41" />&#10;			<path
   fill="#f89a27"
   d="m 111.31,66.44 c -3.49,1.25 -7.36,-0.52 -8.63,-3.97 -1.27,-3.44 0.53,-7.26 4.03,-8.52 3.48,-1.25 7.34,0.52 8.62,3.97 1.27,3.45 -0.54,7.26 -4.02,8.52 z"
   id="path42" />&#10;			<path
   fill="#f79728"
   d="m 110.96,65.49 c -2.96,1.06 -6.24,-0.44 -7.31,-3.36 -1.07,-2.91 0.46,-6.16 3.42,-7.23 2.95,-1.06 6.22,0.44 7.3,3.36 1.07,2.93 -0.46,6.16 -3.41,7.23 z"
   id="path43" />&#10;			<path
   fill="#f79528"
   d="m 110.61,64.54 c -2.42,0.87 -5.12,-0.36 -6,-2.76 -0.88,-2.39 0.38,-5.05 2.81,-5.93 2.42,-0.87 5.1,0.36 5.99,2.76 0.88,2.4 -0.38,5.05 -2.8,5.93 z"
   id="path44" />&#10;			<path
   fill="#f79329"
   d="m 110.26,63.59 c -1.89,0.68 -3.99,-0.29 -4.69,-2.15 -0.68,-1.87 0.29,-3.94 2.2,-4.63 1.89,-0.68 3.98,0.29 4.67,2.15 0.69,1.87 -0.29,3.94 -2.18,4.63 z"
   id="path45" />&#10;		</g>&#10;	</g>&#10;	<path
   fill="#2f2f2f"
   d="m 34.47,47.52 c -0.23,0.05 -0.45,0.08 -0.67,0.08 -1.24,0 -2.38,-0.84 -2.69,-2.11 -0.38,-1.48 0.53,-2.99 2.02,-3.37 3.09,-0.78 6.4,-1.05 9.43,-1.08 -4.93,-2.52 -9.27,-3.96 -9.34,-3.98 -1.45,-0.48 -2.26,-2.04 -1.79,-3.51 0.49,-1.46 2.05,-2.25 3.51,-1.78 0.5,0.16 12.36,4.1 20.08,10.82 0.95,0.82 1.22,2.18 0.68,3.31 -0.54,1.12 -1.78,1.77 -3.02,1.52 -0.1,-0.01 -10.22,-1.9 -18.21,0.1 z"
   id="path46" />&#10;	<path
   fill="#2f2f2f"
   d="m 89.89,77.01 c -1.1,0 -2.05,-0.64 -2.51,-1.57 C 87.02,74.75 80.13,62.03 66.9,62.03 54.57,62.03 45.94,74.76 45.85,74.89 45,76.17 43.27,76.51 42,75.66 40.71,74.81 40.38,73.08 41.23,71.8 41.63,71.18 51.62,56.47 66.9,56.47 c 16.82,0 25.76,15.85 25.76,17.76 0,1.53 -1.24,2.78 -2.77,2.78 z"
   id="path48" />&#10;	<path
   fill="#2f2f2f"
   d="m 99.5,45.49 c -0.31,1.27 -1.45,2.11 -2.69,2.11 -0.23,0 -0.47,-0.03 -0.68,-0.08 -7.99,-2 -18.12,-0.11 -18.21,-0.1 -1.22,0.25 -2.47,-0.38 -3.02,-1.52 -0.56,-1.12 -0.28,-2.49 0.66,-3.31 7.72,-6.72 19.59,-10.66 20.09,-10.82 1.48,-0.47 3.03,0.33 3.51,1.78 0.49,1.46 -0.31,3.02 -1.77,3.51 -0.06,0.02 -4.41,1.46 -9.33,3.98 3.03,0.03 6.32,0.31 9.41,1.08 1.51,0.38 2.42,1.89 2.03,3.37 z"
   id="path49" />&#10;</g></svg>
