<?xml version="1.0" encoding="UTF-8" standalone="no"?>
<svg
   enable-background="new 0 0 128 128"
   viewBox="0 0 128 128"
   version="1.1"
   id="svg17"
   sodipodi:docname="emoji_u1f6fa.svg"
   inkscape:version="1.3 (0e150ed6c4, 2023-07-21)"
   xmlns:inkscape="http://www.inkscape.org/namespaces/inkscape"
   xmlns:sodipodi="http://sodipodi.sourceforge.net/DTD/sodipodi-0.dtd"
   xmlns="http://www.w3.org/2000/svg"
   xmlns:svg="http://www.w3.org/2000/svg">
  <defs
     id="defs17">
    <inkscape:path-effect
       effect="fillet_chamfer"
       id="path-effect20"
       is_visible="true"
       lpeversion="1"
       nodesatellites_param="F,0,0,1,0,0,0,1 @ F,0,0,1,0,0,0,1 @ F,0,0,1,0,0,0,1 @ F,0,0,1,0,2.52795,0,1 @ F,0,0,1,0,0,0,1 @ F,0,0,1,0,0,0,1 @ F,0,0,1,0,0,0,1 @ F,0,0,1,0,0,0,1 @ F,0,0,1,0,0,0,1"
       radius="0"
       unit="px"
       method="auto"
       mode="F"
       chamfer_steps="1"
       flexible="false"
       use_knot_distance="true"
       apply_no_radius="true"
       apply_with_radius="true"
       only_selected="false"
       hide_knots="false" />
    <inkscape:path-effect
       effect="fillet_chamfer"
       id="path-effect19"
       is_visible="true"
       lpeversion="1"
       nodesatellites_param="F,0,0,1,0,2.217431,0,1 @ F,0,0,1,0,0,0,1 @ F,0,0,1,0,0,0,1 @ F,0,1,1,0,2.217431,0,1"
       radius="0"
       unit="px"
       method="auto"
       mode="F"
       chamfer_steps="1"
       flexible="false"
       use_knot_distance="true"
       apply_no_radius="true"
       apply_with_radius="true"
       only_selected="false"
       hide_knots="false" />
  </defs>
  <sodipodi:namedview
     id="namedview17"
     pagecolor="#ffffff"
     bordercolor="#000000"
     borderopacity="0.25"
     inkscape:showpageshadow="2"
     inkscape:pageopacity="0.0"
     inkscape:pagecheckerboard="0"
     inkscape:deskcolor="#d1d1d1"
     showguides="false"
     inkscape:zoom="2.867097"
     inkscape:cx="42.377359"
     inkscape:cy="57.723892"
     inkscape:window-width="1366"
     inkscape:window-height="697"
     inkscape:window-x="-8"
     inkscape:window-y="-8"
     inkscape:window-maximized="1"
     inkscape:current-layer="svg17" />
  <g
     id="g20"
     transform="matrix(1.1095348,0,0,1.1095348,-7.0803075,-19.885898)"
     style="stroke-width:0.901279">
    <path
       id="rect19"
       style="fill:#285318;fill-opacity:1;stroke-width:5.40766;stroke-linecap:round;stroke-opacity:0.501961"
       d="m 54.751345,75.11526 c -3.716489,0 -7.384775,2.641938 -7.384775,6.999444 V 99.267578 H 64.740234 V 79.29161 77.693388 75.11526 Z"
       sodipodi:nodetypes="sscccccs" />
    <path
       d="m 68.491494,41.821906 c 0.551826,0 0.948659,0.448174 0.948659,1 v 54.513606 c 0,2.179651 -1.856198,3.948658 -4.035861,3.948658 h -7.611351 c -2.179664,0 -3.948667,-1.769007 -3.948667,-3.948658 V 85.738758 c 0,-2.179662 1.769003,-3.948665 3.948667,-3.948665 h 3.774332 c 0.815371,0 1.482723,-0.663277 1.482723,-1.482724 V 42.821906 c 0,-0.551826 0.448174,-1 1.000001,-1 z"
       style="clip-rule:evenodd;fill:#5b8c31;fill-opacity:1;fill-rule:evenodd;stroke-width:1.27543;stroke-linejoin:round;stroke-miterlimit:1.41421"
       id="path1"
       sodipodi:nodetypes="sssssssssssss" />
    <path
       id="path17"
       style="clip-rule:evenodd;fill:#93b1bb;fill-opacity:1;fill-rule:evenodd;stroke-width:1.27543;stroke-linejoin:round;stroke-miterlimit:1.41421"
       d="m 64.050781,41.822266 c -0.551826,0 -1,0.448174 -1,1 v 28.179687 h 6.388672 V 42.822266 c 0,-0.551826 -0.39544,-1 -0.947265,-1 z"
       sodipodi:nodetypes="ssccsss" />
    <path
       id="path4"
       style="fill:#fcc21b;stroke-width:0.901279"
       d="m 94.458984,35.076172 c -0.499627,-0.0079 -0.860312,0.0059 -1.039062,0.0059 H 42.900391 c -0.72,0 -3.010081,-0.0107 -4.830079,2.029297 -4.06999,4.569992 -11.160164,16.459934 -15.160156,22.419922 -1.529996,2.279996 -2.339609,4.951178 -2.349609,7.701172 -0.003,0.816645 -0.0029,2.711206 -0.0059,3.779297 H 40.220703 V 52.472656 c 0,-2.639994 2.139303,-4.781893 4.779297,-4.78125 l 40.099609,0.0098 c 2.639996,6.43e-4 4.78125,2.141256 4.78125,4.78125 v 18.529297 h 25.884761 c -1.07991,-5.130854 -2.76709,-13.06911 -4.5664,-21.369141 C 108.29423,36.193856 97.95638,35.131269 94.458984,35.076172 Z"
       sodipodi:nodetypes="csscccccsssscccc" />
    <path
       id="path5"
       style="fill:#40c0e7;stroke-width:0.901279"
       d="m 33.099609,43.821482 c -3.575003,5.290076 -7.549839,11.777914 -10.189453,15.710938 -1.164045,1.734655 -1.907838,3.694512 -2.203125,5.744141 h 5.66211 c 3.719992,0 6.730468,-3.010476 6.730468,-6.730469 z" />
    <g
       transform="matrix(1.4230772,0,0,1.4230772,-5.2449582,-45.301658)"
       id="g4"
       style="clip-rule:evenodd;fill-rule:evenodd;stroke-width:0.811157;stroke-linejoin:round;stroke-miterlimit:1.41421">&#10;        <circle
   cx="23.868"
   cy="109"
   r="10.132"
   style="fill:#2e2e2e;fill-opacity:1;stroke-width:0.811157"
   id="circle3" />
&#10;    </g>
    <path
       id="path20"
       style="fill:#285318;fill-opacity:1;stroke-width:5.40766;stroke-linecap:round;stroke-opacity:0.501961"
       d="m 81.140555,75.11526 c -3.716489,0 -7.384775,2.641938 -7.384775,6.999444 V 99.267578 H 91.129444 V 79.29161 77.693388 75.11526 Z"
       sodipodi:nodetypes="sscccccs" />
    <path
       d="m 115.92,71.731873 c -0.11,-0.53 -0.02,-0.11 -0.15,-0.72 H 89.88 88.855024 c -4.464955,0 -8.427369,2.194931 -8.427369,9.389623 v 7.855966 c 0,4.236215 0.394651,8.344411 -6.084655,8.344411 H 45 c -2.64,0 -4.78,-2.14 -4.78,-4.78 v -20.81 H 20.55 l -0.02,22.73 9.12,6.399997 c 3.86,3.35 8.8,5.19 13.91,5.19 h 66.53 c 3.3,0 6,-0.94 6,-6.839997 v -25.13 c -0.01,-0.49 -0.06,-1.15 -0.17,-1.63 z"
       fill="#43A047"
       id="path6"
       style="fill:#7cb342;stroke-width:0.901279"
       sodipodi:nodetypes="cccssssssccccssscc" />
    <g
       transform="matrix(1.4230772,0,0,1.4230772,66.37684,-45.301658)"
       id="g5"
       style="clip-rule:evenodd;fill-rule:evenodd;stroke-width:0.811157;stroke-linejoin:round;stroke-miterlimit:1.41421">&#10;        <circle
   cx="23.868"
   cy="109"
   r="10.132"
   style="fill:#2e2e2e;fill-opacity:1;stroke-width:0.811157"
   id="circle4" />
&#10;    </g>
    <path
       d="M 42.265664,105.33187 H 17.145228 c -1.462999,0 -3.955649,-0.56524 -3.955649,-4.14606 0,-3.580817 3.626907,-11.022777 12.69313,-11.022777 9.066223,0 20.3386,7.81369 20.3386,11.022777 0,3.20909 -2.492649,4.14606 -3.955645,4.14606 z"
       fill="#66bb6a"
       id="path15"
       style="fill:#7cb342;stroke-width:0.901279"
       sodipodi:nodetypes="sszzzs" />
    <g
       transform="matrix(0.56182207,0,0,0.56182207,15.311629,48.575128)"
       id="g6"
       style="clip-rule:evenodd;fill:#6593a2;fill-rule:evenodd;stroke-width:0.811157;stroke-linejoin:round;stroke-miterlimit:1.41421">&#10;        <circle
   cx="23.868"
   cy="109"
   r="10.132"
   style="fill:#6593a2;stroke-width:0.811157"
   id="circle5" />
&#10;    </g>
    <g
       transform="matrix(0.56182207,0,0,0.56182207,86.933442,48.575128)"
       id="g7"
       style="clip-rule:evenodd;fill:#6593a2;fill-rule:evenodd;stroke-width:0.811157;stroke-linejoin:round;stroke-miterlimit:1.41421">&#10;        <circle
   cx="23.868"
   cy="109"
   r="10.132"
   style="fill:#6593a2;stroke-width:0.811157"
   id="circle6" />
&#10;    </g>
  </g>
</svg>
