<?xml version="1.0" encoding="UTF-8" standalone="no"?>
<!-- Generator: Adobe Illustrator 25.2.3, SVG Export Plug-In . SVG Version: 6.00 Build 0)  -->

<svg
   version="1.1"
   id="Layer_2"
   x="0px"
   y="0px"
   viewBox="0 0 128 128"
   style="enable-background:new 0 0 128 128;"
   xml:space="preserve"
   sodipodi:docname="emoji_u1f967.svg"
   inkscape:version="1.2.2 (732a01da63, 2022-12-09)"
   xmlns:inkscape="http://www.inkscape.org/namespaces/inkscape"
   xmlns:sodipodi="http://sodipodi.sourceforge.net/DTD/sodipodi-0.dtd"
   xmlns="http://www.w3.org/2000/svg"
   xmlns:svg="http://www.w3.org/2000/svg"><defs
   id="defs46708" /><sodipodi:namedview
   id="namedview46706"
   pagecolor="#ffffff"
   bordercolor="#000000"
   borderopacity="0.25"
   inkscape:showpageshadow="2"
   inkscape:pageopacity="0.0"
   inkscape:pagecheckerboard="0"
   inkscape:deskcolor="#d1d1d1"
   showgrid="false"
   inkscape:zoom="2.9996795"
   inkscape:cx="43.337963"
   inkscape:cy="65.006944"
   inkscape:window-width="1366"
   inkscape:window-height="697"
   inkscape:window-x="-8"
   inkscape:window-y="-8"
   inkscape:window-maximized="1"
   inkscape:current-layer="Layer_2" />
<path
   id="path46664"
   style="fill:#78a3ad;fill-opacity:1"
   d="M 117.84961 87.669922 L 68.859375 99.800781 L 9.9492188 88.640625 C 9.9492188 88.640625 13.51047 103.37914 14.730469 105.36914 C 15.346014 106.37319 17.557335 108.25689 20.513672 110.20312 L 20.539062 110.28906 C 20.539062 110.28906 23.470395 112.37953 27.650391 114.26953 C 31.866446 116.17869 37.465966 117.63782 37.529297 117.6543 L 37.529297 117.66016 C 37.529297 117.66016 50.609781 120.70047 66.259766 120.23047 C 80.619751 119.80047 94.289063 115.67969 94.289062 115.67969 L 94.292969 115.66211 C 94.359909 115.64121 97.515823 114.65547 100.81055 113.21094 C 103.37054 112.09094 106.16016 110.50977 106.16016 110.50977 L 106.16211 110.50195 C 108.81927 109.13327 111.11078 107.72732 111.94922 106.64062 C 113.46922 104.67063 117.84961 87.669922 117.84961 87.669922 z " />



<radialGradient
   id="SVGID_1_"
   cx="65.7269"
   cy="51.9052"
   r="43.314"
   gradientTransform="matrix(1.028679e-13 1 -2.179 2.241511e-13 178.8293 -13.8216)"
   gradientUnits="userSpaceOnUse">
	<stop
   offset="0.3855"
   style="stop-color:#FAC470"
   id="stop46672" />
	<stop
   offset="0.7673"
   style="stop-color:#ED9C2C"
   id="stop46674" />
</radialGradient>
<path
   style="fill:#f79329;fill-opacity:1"
   d="M8.68,72.58c0,1.17,1.28,10.98,1.28,10.98s2.92,4.09,4.44,4.91  c1.52,0.82,23.71,8.18,24.64,8.41s34.45,1.52,36.91,1.52s29.2-6.31,29.2-6.31l15.17-7.37c0,0,0.73-6.52,0.73-7.1  s-1.71-8.07-2.34-8.64c-0.89-0.81-5.62-3.05-5.62-3.05s-2.43-2.94-6.73-5.43c-4.42-2.55-16.24-7.47-23.36-9.22  c-7.12-1.75-28.77-2.76-40.68,0.16c-11.91,2.92-20.09,6.07-23.83,10.04s-5.14,6.54-5.14,6.54L8.68,72.58z"
   id="path46677" />
<path
   style="fill:#2f2f2f;fill-opacity:1"
   d="M53.91,53.25c0.22,0.98-1.97,0.8-6.83,3.03c-3.69,1.69-7.83,6.2-8.96,3.63  c-1.2-2.71,2.73-5.2,8.04-6.41C50.04,52.61,53.73,52.45,53.91,53.25z"
   id="path46679" />
<path
   style="fill:#2f2f2f;fill-opacity:1"
   d="M58.84,57.5c-0.81-0.37-2.83,1.97-4.75,5.05c-1.92,3.08-4.45,7.16-1.82,8.09  c3.08,1.09,3.94-4.06,4.58-6.02C58.09,60.82,59.51,57.8,58.84,57.5z"
   id="path46681" />
<path
   style="fill:#2f2f2f;fill-opacity:1"
   d="M69.05,56.94c-0.59,0.29,0.33,2.66,1.35,5.6s1.98,8.03,5.13,6.93c3.15-1.09-1.27-7.04-2.12-8.21  C72.19,59.59,69.79,56.57,69.05,56.94z"
   id="path46683" />
<path
   style="fill:#2f2f2f;fill-opacity:1"
   d="M74.26,53.88c-0.04,1.09,4.29,2.07,8.52,4.29c3.39,1.79,7.36,4.31,8.11,2.21  c0.75-2.12-1.19-3.13-6.39-4.98C79.31,53.55,74.31,52.8,74.26,53.88z"
   id="path46685" />
<path
   style="opacity:1;fill:#e0e0e0;fill-opacity:1;stroke-width:1"
   d="m 70.628896,3.8163832 c -1.168341,0.6688323 0.0762,3.5304181 -1.151408,6.129552 -1.227604,2.5991328 -4.182319,4.7580228 -6.637526,6.4174038 -2.455207,1.659382 -9.770031,5.994092 -9.084266,13.850755 0.58417,6.722188 3.420357,10.134079 6.011024,12.733213 2.33668,2.336679 5.528449,4.64796 6.967709,4.504035 1.439259,-0.143926 -0.0762,-5.409922 2.455207,-9.160463 2.522937,-3.75054 6.925378,-6.781452 10.024019,-9.304389 3.098641,-2.522937 6.493599,-8.652488 2.599132,-15.069892 C 77.909855,7.4907276 71.636377,3.2406794 70.628896,3.8163832 Z"
   id="path46687" />
<path
   style="fill:#fcc21b;fill-opacity:1"
   d="M79.1,94.4c0,0,3.71-3.88,9.57-3.96c5.86-0.09,8.19,1.64,8.19,1.64s2.5-4.38,6.91-5.54  c5.15-1.35,8.25,1.06,8.51,0.63c0.26-0.43,1.25-5.84,2.99-8.34c2.01-2.87,3.69-2.82,3.69-2.82s-0.43-3.04-2.33-5.8  c-1.6-2.33-3.52-4.28-3.52-4.28s4.23-0.7,7.32,2.93c2.25,2.64,1.77,7.45,1.77,7.45s3.02,1.9,1.21,6.46s-5.39,7.91-10.94,11.37  c-3.9,2.44-18.91,8.51-33.8,9.46c-15.57,0.99-33.55,1.52-50.85-4.85C15.38,94.18,5.3,87.12,3.95,80.22  c-1.36-6.9,3.69-10.28,5.26-11.23c1.57-0.95,4.15-0.96,4.15-0.96s-1.24,1.75-1.8,3.42c-0.56,1.68-0.79,3.15-0.79,3.15  s2.02,2.44,2.52,4.07c0.5,1.62,0.56,5.53,0.56,5.53s2.4-2.55,6.27-0.98c5.2,2.11,11,9.53,11,9.53s1.73-3.35,8.22-2.85  s15.32,6.93,15.32,6.93s5.29-5.49,13.44-5.33C75.53,91.65,79.1,94.4,79.1,94.4z"
   id="path46689" />







</svg>
