<?xml version="1.0" encoding="UTF-8" standalone="no"?>
<svg
   width="128"
   height="128"
   version="1.1"
   id="svg41212"
   sodipodi:docname="emoji_u1f960.svg"
   inkscape:version="1.2.2 (732a01da63, 2022-12-09)"
   xmlns:inkscape="http://www.inkscape.org/namespaces/inkscape"
   xmlns:sodipodi="http://sodipodi.sourceforge.net/DTD/sodipodi-0.dtd"
   xmlns="http://www.w3.org/2000/svg"
   xmlns:svg="http://www.w3.org/2000/svg">
  <defs
     id="defs41216" />
  <sodipodi:namedview
     id="namedview41214"
     pagecolor="#ffffff"
     bordercolor="#000000"
     borderopacity="0.25"
     inkscape:showpageshadow="2"
     inkscape:pageopacity="0.0"
     inkscape:pagecheckerboard="0"
     inkscape:deskcolor="#d1d1d1"
     showgrid="false"
     inkscape:zoom="4"
     inkscape:cx="64"
     inkscape:cy="62.5"
     inkscape:window-width="1366"
     inkscape:window-height="697"
     inkscape:window-x="-8"
     inkscape:window-y="-8"
     inkscape:window-maximized="1"
     inkscape:current-layer="svg41212" />
  <path
     d="m 123.59791,19.174939 c -1.42505,1.222837 -4.34581,2.966295 -5.97907,4.30934 -1.63067,1.333386 -3.15181,2.644357 -4.58014,3.918078 -1.42833,1.273722 -2.7787,2.526923 -4.05109,3.759605 -1.2724,1.232682 -2.48615,2.439668 -3.63418,3.633205 -1.14803,1.193537 -2.25224,2.378109 -3.31523,3.563374 -1.06299,1.185265 -2.08217,2.361564 -3.062711,3.548216 -0.99019,1.184064 -1.94175,2.37848 -2.87659,3.587732 -0.93483,1.209253 -1.85552,2.443 -2.74982,3.694171 -0.894295,1.25117 -1.779628,2.546155 -2.65082,3.865634 -0.87378,1.329138 -1.726346,2.695019 -2.572535,4.114373 -0.846189,1.419353 -1.673753,2.885108 -2.500115,4.423655 -0.823775,1.528887 -1.624442,3.126082 -2.414248,4.798657 -2.227957,-1.228498 -4.201677,-2.285346 -6.055698,-3.248003 -1.85402,-0.962658 -3.576092,-1.838196 -5.320071,-2.709252 a 293.82,293.82 0 0 0 -11.8555,-5.557806 c 0.804642,-1.689305 1.620144,-3.303231 2.451683,-4.861096 0.831539,-1.557865 1.666868,-3.052598 2.511162,-4.503517 0.844294,-1.450919 1.704625,-2.845778 2.566851,-4.209071 0.862226,-1.363292 1.743076,-2.680183 2.625822,-3.965508 0.882745,-1.285326 1.789292,-2.543567 2.70291,-3.789562 0.913618,-1.245995 1.848449,-2.455247 2.805187,-3.668982 0.954149,-1.204076 1.937277,-2.400387 2.942311,-3.601181 1.005034,-1.200794 2.048705,-2.391235 3.133601,-3.580983 1.077826,-1.201995 2.196876,-2.403297 3.371988,-3.620636 a 159.9,159.9 0 0 1 7.765312,-7.537005 c 1.4361,-1.3027 2.95275,-2.6355775 4.56928,-3.9934582 1.61653,-1.3578806 3.325861,-2.7530113 5.159561,-4.1872866 2.14255,1.5472533 3.98256,2.9099156 5.67838,4.1925297 a 287.146,287.146 0 0 1 9.37199,7.4080741 c 1.60302,1.319865 3.6328,2.360675 5.96178,4.216703 z"
     fill="#e1e1e1"
     id="path41200" />
  <text
     style="line-height:25px;-inkscape-font-specification:'Comic Neue';fill:#2e2e2e;fill-opacity:1"
     x="-7.5558825"
     y="90.253159"
     transform="rotate(-46.307)"
     font-size="40px"
     font-family="'Comic Neue'"
     letter-spacing="0"
     word-spacing="0"
     fill="none"
     stroke="#000000"
     id="text41204"><tspan
       x="-7.5558825"
       y="90.253159"
       style="font-style:normal;font-variant:normal;font-weight:bold;font-stretch:normal;line-height:24px;font-family:'Comic Neue';-inkscape-font-specification:'Comic Neue Bold';fill:#2e2e2e;fill-opacity:1"
       font-weight="400"
       font-size="6.667px"
       fill="#51004e"
       stroke="none"
       id="tspan41202">The Blob is here to stay!</tspan></text>
  <path
     id="path39696"
     style="fill:#000000;fill-opacity:0.3;stroke-width:6;stroke-linecap:round"
     d="m 87.451674,22.177055 c -1.653603,-0.469853 -3.132935,-0.752659 -4.41036,-0.926977 -0.445846,0.48225 -0.88983,0.96411 -1.321498,1.445507 -1.084895,1.189747 -2.12807,2.379839 -3.133102,3.580631 -1.005034,1.200794 -1.988375,2.397293 -2.942524,3.601368 -0.481448,0.610775 -0.957581,1.221764 -1.428023,1.835522 l 16.965079,20.622891 c 0.715574,-1.069712 1.437516,-2.125942 2.167863,-3.147736 0.8943,-1.251169 1.81405,-2.484442 2.74888,-3.693693 0.93483,-1.20925 1.88814,-2.404171 2.87834,-3.588234 0.980541,-1.186651 1.998501,-2.361985 3.061491,-3.547249 1.06298,-1.185267 2.16672,-2.370777 3.31475,-3.564312 0.003,-0.0033 0.008,-0.0059 0.0108,-0.0093 -1.32595,-2.392915 -4.04859,-5.861694 -9.568121,-9.0484 -3.02033,-1.743787 -5.863435,-2.855374 -8.343361,-3.560022 z" />
  <path
     id="path39006"
     style="clip-rule:evenodd;fill:#875800;fill-opacity:1;fill-rule:nonzero;stroke-width:1;stroke-linecap:round;stroke-linejoin:round;stroke-miterlimit:1.5"
     d="m 56.966841,20.08441 c -1.316107,0.02958 -2.412362,0.08105 -3.726022,0.160716 -0.586359,0.03557 -1.512881,0.103926 -2.231121,0.166294 -1.075337,0.09339 -2.397257,0.226928 -3.316336,0.343289 -7.66608,0.970563 -15.361027,2.944372 -22.017161,6.933759 -4.932825,2.956513 -9.113644,7.54891 -10.576713,13.186642 -1.129798,4.353524 -0.718767,9.401104 2.299042,12.93286 2.6532,3.105052 6.403916,4.993937 10.038467,6.739813 3.285637,1.578273 12.16396,6.150407 13.670778,7.422885 0.816539,0.689551 1.338026,1.896178 0.804049,2.897638 -0.645327,1.21029 -2.020609,1.749572 -3.22789,2.250134 -2.29645,0.952153 -14.995485,5.062106 -19.109589,7.25248 -3.384451,1.801902 -6.295952,4.777588 -7.263751,8.548151 -1.426758,5.558673 0.386454,11.574009 3.928526,15.987899 4.366013,5.44061 10.747687,8.88807 17.279464,11.12732 7.694491,2.63785 15.872268,3.7138 23.993055,3.84399 2.791956,0.0448 5.587179,-0.0802 8.364395,-0.36823 0.852805,-0.0884 1.983712,-0.2311 2.942989,-0.36975 10.274474,-1.48498 20.296077,-6.05044 27.354313,-13.71686 6.039614,-6.559998 9.925294,-15.123496 11.397724,-23.714694 0.23303,-1.359669 0.42521,-2.711258 0.56386,-3.998035 0.15422,-1.431481 0.27298,-3.158144 0.31831,-4.713344 0.18906,-6.486163 -0.67031,-13.003466 -2.56701,-19.215761 -0.21863,-0.716133 -0.54965,-1.701551 -0.8371,-2.516237 C 101.2446,40.482329 93.529666,30.888561 83.192599,25.625839 81.14393,24.582837 79.025835,23.673805 76.848199,22.930239 76.169646,22.698544 75.193812,22.39121 74.389262,22.159984 68.735528,20.535111 62.839878,19.952442 56.966841,20.08441 Z"
     sodipodi:nodetypes="ssssssssssssssssssssssssssss" />
  <path
     id="path36723"
     style="clip-rule:evenodd;fill:#e39300;fill-opacity:1;fill-rule:nonzero;stroke-width:1;stroke-linecap:round;stroke-linejoin:round;stroke-miterlimit:1.5"
     d="m 58.750379,27.072786 c -17.865693,0 -36.805161,5.937146 -36.805161,18.524938 0,5.678287 4.9958,6.3868 17.383012,13.53856 12.828376,7.406468 18.835437,9.26734 18.835437,12.696267 0,3.428928 -9.50522,5.503048 -22.898669,9.967529 -11.91537,3.971789 -15.97711,5.425456 -15.97711,10.885747 0,11.639993 17.23699,20.189693 39.462491,20.189693 30.462015,0 42.252421,-20.562686 42.252421,-41.518697 0,-20.956007 -11.897387,-44.284037 -42.252421,-44.284037 z"
     sodipodi:nodetypes="ssszsssss" />
</svg>
