<?xml version="1.0" encoding="UTF-8" standalone="no"?>
<!-- Generator: Adobe Illustrator 25.2.3, SVG Export Plug-In . SVG Version: 6.00 Build 0)  -->

<svg
   version="1.1"
   id="Layer_4"
   x="0px"
   y="0px"
   viewBox="0 0 128 128"
   style="enable-background:new 0 0 128 128;"
   xml:space="preserve"
   sodipodi:docname="emoji_u1f9ba.svg"
   inkscape:version="1.2.2 (732a01da63, 2022-12-09)"
   xmlns:inkscape="http://www.inkscape.org/namespaces/inkscape"
   xmlns:sodipodi="http://sodipodi.sourceforge.net/DTD/sodipodi-0.dtd"
   xmlns:xlink="http://www.w3.org/1999/xlink"
   xmlns="http://www.w3.org/2000/svg"
   xmlns:svg="http://www.w3.org/2000/svg"><defs
   id="defs34931"><linearGradient
   inkscape:collect="always"
   id="linearGradient36223"><stop
     style="stop-color:#000000;stop-opacity:1;"
     offset="0"
     id="stop36219" /><stop
     style="stop-color:#000000;stop-opacity:0;"
     offset="1"
     id="stop36221" /></linearGradient><linearGradient
   inkscape:collect="always"
   id="linearGradient36207"><stop
     style="stop-color:#000000;stop-opacity:1;"
     offset="0"
     id="stop36203" /><stop
     style="stop-color:#000000;stop-opacity:0;"
     offset="1"
     id="stop36205" /></linearGradient>
	
	
	

		
		
		
	
		
		
	<linearGradient
   inkscape:collect="always"
   xlink:href="#linearGradient36207"
   id="linearGradient36209"
   x1="11.594768"
   y1="45.226371"
   x2="27.655326"
   y2="45.226371"
   gradientUnits="userSpaceOnUse" /><linearGradient
   inkscape:collect="always"
   xlink:href="#linearGradient36223"
   id="linearGradient36225"
   x1="100.34467"
   y1="45.226371"
   x2="116.40523"
   y2="45.226371"
   gradientUnits="userSpaceOnUse" /></defs><sodipodi:namedview
   id="namedview34929"
   pagecolor="#ffffff"
   bordercolor="#000000"
   borderopacity="0.25"
   inkscape:showpageshadow="2"
   inkscape:pageopacity="0.0"
   inkscape:pagecheckerboard="0"
   inkscape:deskcolor="#d1d1d1"
   showgrid="false"
   inkscape:zoom="2.1210938"
   inkscape:cx="18.858195"
   inkscape:cy="90.047882"
   inkscape:window-width="1366"
   inkscape:window-height="697"
   inkscape:window-x="-8"
   inkscape:window-y="-8"
   inkscape:window-maximized="1"
   inkscape:current-layer="Layer_4" />
<path
   style="fill:#845b52;fill-opacity:1;stroke-width:1"
   d="m 42.952698,14.408786 c 0,0 7.968865,-12.9518558 21.047305,-12.9518558 13.07844,0 21.047305,12.9518558 21.047305,12.9518558 V 122.72897 c 0,0 -8.224543,-3.36506 -21.047305,-3.36506 -12.822763,0 -21.047305,3.36506 -21.047305,3.36506 z"
   id="path34894"
   sodipodi:nodetypes="czccscc" /><g
   id="g34902"
   transform="matrix(1.0450499,0,0,1.0450499,-2.8831909,-2.8594339)"
   style="stroke-width:0.956892">
			<path
   style="fill:#ed6b30;fill-opacity:1;stroke-width:0.956892"
   d="M 57.92,56.45 C 57.92,48.78 54.59,43.79 53.2,40.54 50.94,35.23 49.98,29.73 49.79,24.16 49.61,18.77 51.94,10.78 55.02,6.3 46.63,9.85 25.68,20.6 25.47,20.86 c 0,0 0.61,19 -1.68,27.84 C 20.12,62.88 12.2,68.86 12.2,68.86 v 48.4 c 6.71,2.22 24.96,4.35 36.26,5.52 2.04,0.21 6.47,-0.54 8.05,-1.84 1.67,-1.37 2.71,-3.77 2.74,-5.93 0.23,-19.42 -1.33,-50.88 -1.33,-58.56 z"
   id="path34896" />
			<path
   style="fill:#fcc21b;fill-opacity:1;stroke-width:0.956892"
   d="m 12.23,105.94 c 13.87,4.17 41.09,5.89 46.95,4.86 l -0.19,-8.12 C 53.13,102.66 26.25,102.25 12.22,97.4 Z"
   id="path34898" />
			<path
   style="fill:#fcc21b;fill-opacity:1;stroke-width:0.956892"
   d="m 58.99,84.36 c 0,0 -7.17,0.35 -17.81,-0.71 l 1.31,-71.46 c -3.21,1.48 -8.33,4.16 -8.33,4.16 L 33.17,82.94 C 25.7,82.14 17.81,80.89 12.22,78.96 v 8.54 c 13.87,4.17 41.11,6.51 46.96,5.48 z"
   id="path34900" />
		</g><g
   id="g34906"
   style="fill:#855c52;fill-opacity:1;stroke-width:0.956892"
   transform="matrix(1.0450499,0,0,1.0450499,-2.8831909,-2.8594339)">
			
		</g><g
   id="g34916"
   transform="matrix(1.0450499,0,0,1.0450499,-2.8831909,-2.8594339)"
   style="stroke-width:0.956892">
			<path
   style="fill:#ed6b30;fill-opacity:1;stroke-width:0.956892"
   d="m 70.08,56.45 c 0,-7.67 3.33,-12.66 4.72,-15.91 2.26,-5.31 3.22,-10.81 3.41,-16.38 0.18,-5.39 -2.15,-13.38 -5.23,-17.86 8.39,3.55 29.34,14.3 29.55,14.56 0,0 -0.61,19 1.68,27.84 3.67,14.18 11.59,20.16 11.59,20.16 l -0.05,48.1 c -12.84,3.32 -25.32,5.5 -36.06,5.79 -2.05,0.05 -6.05,0.23 -8.21,-1.81 -2.52,-2.38 -2.63,-3.32 -2.65,-5.48 -0.22,-19.42 1.25,-51.33 1.25,-59.01 z"
   id="path34910" />
			<path
   style="fill:#fcc21b;fill-opacity:1;stroke-width:0.956892"
   d="m 115.73,105.94 c -13.87,4.17 -41.05,5.89 -46.9,4.86 l 0.19,-8.12 c 5.86,-0.02 32.7,-0.43 46.73,-5.28 z"
   id="path34912" />
			<path
   style="fill:#fcc21b;fill-opacity:1;stroke-width:0.956892"
   d="M 94.84,82.94 93.85,16.35 c 0,0 -5.12,-2.68 -8.33,-4.16 l 1.31,71.46 c -8.4,1.1 -17.81,1.22 -17.81,1.22 l -0.19,8.12 c 5.37,0.65 33.05,-1.31 46.92,-5.48 v -8.54 c -5.6,1.92 -13.44,3.17 -20.91,3.97 z"
   id="path34914" />
		</g><g
   id="g34920"
   style="fill:#855c52;fill-opacity:1;stroke-width:0.956892"
   transform="matrix(1.0450499,0,0,1.0450499,-2.8831909,-2.8594339)">
			
		</g>
</svg>
