<?xml version="1.0" encoding="UTF-8" standalone="no"?>
<svg
   sodipodi:docname="emoji_u1f96a.svg"
   id="svg31983"
   style="fill-rule:evenodd;clip-rule:evenodd;stroke-linejoin:round;stroke-miterlimit:2;"
   xml:space="preserve"
   version="1.1"
   viewBox="0 0 128 128"
   height="100%"
   width="100%"
   inkscape:version="1.2.2 (732a01da63, 2022-12-09)"
   xmlns:inkscape="http://www.inkscape.org/namespaces/inkscape"
   xmlns:sodipodi="http://sodipodi.sourceforge.net/DTD/sodipodi-0.dtd"
   xmlns="http://www.w3.org/2000/svg"
   xmlns:svg="http://www.w3.org/2000/svg"><defs
   id="defs31987"><inkscape:path-effect
     effect="envelope"
     id="path-effect38196"
     is_visible="true"
     lpeversion="1"
     yy="true"
     xx="false"
     bendpath1="m -330.83126,-16.512637 h 52.57488"
     bendpath2="M -260.85003,-16.512637 V 88.518904"
     bendpath3="m -346.08953,88.518904 78.78042,0"
     bendpath4="M -352.54861,-16.512637 V 88.518904"
     bendpath1-nodetypes="cc"
     bendpath3-nodetypes="cc" /></defs><sodipodi:namedview
   id="namedview31985"
   pagecolor="#ffffff"
   bordercolor="#000000"
   borderopacity="0.25"
   inkscape:showpageshadow="2"
   inkscape:pageopacity="0.0"
   inkscape:pagecheckerboard="0"
   inkscape:deskcolor="#d1d1d1"
   showgrid="false"
   inkscape:zoom="2"
   inkscape:cx="38.75"
   inkscape:cy="83.5"
   inkscape:window-width="1366"
   inkscape:window-height="697"
   inkscape:window-x="-8"
   inkscape:window-y="-8"
   inkscape:window-maximized="1"
   inkscape:current-layer="svg31983"
   showguides="false" />
    
    
    
    
    
    
    
    
    
    
    
    
    
    
    
    
    
    
    
<g
   id="g1109"
   transform="matrix(1.2710666,0,0,1.605741,-14.165084,-51.553222)"
   style="stroke-width:0.699968"><path
     id="path39232"
     style="fill:#c19048;fill-opacity:1;stroke:none;stroke-width:6.99968;stroke-linecap:round;stroke-dasharray:none;stroke-opacity:1"
     d="m 93.564518,71.905391 c 0,0.715933 1.5062,-0.863228 2.22461,-1.623047 0.005,-0.0051 0.009,-0.01042 0.0137,-0.01563 1.6951,-1.814272 1.79057,-4.237071 0.81641,-6.177734 l -0.002,-0.002 c -1.59269,-3.188912 -5.1891,-5.545216 -9.5,-7.433594 -4.82545,-2.113718 -10.5993,-3.998015 -17.24224,-3.998015 h -0.002 c -1.84707,0 -3.75501,-0.308594 -8.60547,-0.308594 -4.85049,0 -6.75839,0.308594 -8.60547,0.308594 h -0.002 c -6.64294,0 -12.41681,1.884299 -17.24219,3.998047 -4.31091,1.888379 -7.90696,4.24485 -9.5,7.433593 l -0.002,0.0019 c -0.97438,1.940555 -0.8787,4.363468 0.8164,6.177735 0.005,0.0052 0.009,0.01051 0.0137,0.01563 0.71845,0.759777 1.58046,1.120485 2.22461,1.623047 0.12538,0.09782 -0.23452,0.192968 -1.78547,1.563138 -1.55096,1.37017 -3.08961,4.034598 -4.44695,6.319674 -0.16941,0.285204 -0.3791,0.546836 -0.51367,0.84961 l -0.002,0.0059 c -1.39424,3.137036 -3.29037,5.868676 -4.4043,8.740236 -0.0132,0.0341 -0.0545,0.11316 -0.15039,0.32226 -0.18442,0.40216 -0.76172,1.57959 -0.76172,3.26563 0,1.11786 0.027,6.851962 0.041,9.041279 0.0262,4.0892 3.42047,6.0332 8.14843,6.0332 h 72.34375 c 4.727962,0 8.123282,-1.94399 8.148442,-6.0332 0.014,-2.275147 0.041,-8.264629 0.041,-9.299089 0,-1.41337 -0.57728,-2.60567 -0.76172,-3.00782 -0.0959,-0.20911 -0.13716,-0.28816 -0.15039,-0.32226 -1.11391,-2.87157 -3.01006,-5.603205 -4.4043,-8.740236 l -0.002,-0.0059 c -0.13457,-0.302774 -0.344272,-0.564406 -0.513672,-0.84961 -1.35735,-2.285077 -2.89598,-4.949504 -4.44678,-6.31969 -1.5508,-1.370186 -1.78532,-1.702505 -1.78532,-1.563154 z"
     sodipodi:nodetypes="sccccsssssssccccscsccssssssssscccccss" /><path
     d="m 18.024548,78.692548 c 0.10317,2.663124 0.61108,5.387368 1.41262,8.024298 3.72996,12.267837 15.41979,17.690124 26.49061,18.825224 18.29265,1.87729 51.81463,3.11716 57.607962,-22.728228 2.6189,-11.665353 -6.682172,-24.553124 -16.641952,-28.194181 -18.52279,-6.766953 -44.31503,-9.211787 -60.36177,5.823945 -3.99978,3.754567 -8.73762,12.197978 -8.50747,18.248942 z"
     style="fill:#ed6c30;stroke-width:0.699965"
     id="path86449"
     sodipodi:nodetypes="ccccccc" /><path
     d="m 22.024542,75.813296 c -2.366481,0.824466 -6.023105,2.353739 -7.527876,4.171862 -0.99781,1.214662 -1.146798,1.926823 -1.268837,3.443061 -0.21879,2.718299 0.891581,4.246868 3.821635,5.428782 5.229924,2.116806 7.783341,0.108925 8.32826,5.763733 0.392526,4.027589 5.753368,5.760506 10.036989,4.827939 2.298071,-0.49206 3.957385,-1.84901 6.445564,-1.59669 3.257072,0.32855 4.954003,2.334987 7.444455,3.801627 1.893975,1.11169 4.052553,1.52438 6.363013,1.49947 2.01067,-0.0276 3.825077,-0.93014 5.502343,-1.78533 4.373149,-2.251637 7.979196,0.16076 12.202445,1.22111 5.74346,1.43139 9.32698,-1.36409 13.112148,-4.697347 2.224327,-1.95725 4.235588,-1.88872 7.431234,-1.62526 2.591586,0.20992 4.060521,-0.23131 5.518246,-2.086303 1.400769,-1.768917 0.965569,-4.852155 3.432019,-5.986725 1.99088,-0.920408 3.74601,-0.879568 5.34929,-2.5757 3.87991,-4.096409 -0.15511,-8.219732 -4.06767,-10.758606 -2.93151,-1.888561 -6.530658,-2.717768 -10.329816,-2.951478 -7.490447,-0.463172 -14.876909,0.681918 -22.270957,1.222668 -8.434498,0.603774 -16.872218,1.311391 -25.371204,1.447218 -8.040399,0.134073 -16.47827,-1.425663 -24.151281,1.235969 z"
     style="fill:#bdcf46;stroke-width:0.699966"
     id="path86443"
     sodipodi:nodetypes="ccscccccccccccccccccc" /><path
     style="fill:#fcc21b;fill-opacity:1;stroke-width:0.699965;stroke-linecap:round"
     d="m 14.486528,75.763742 c 0,4.218269 13.86097,6.573951 23.01931,11.303223 9.15834,4.729274 19.37329,13.995935 24.21612,13.995935 4.94869,0 14.21222,-9.083471 22.82996,-13.707918 8.61773,-4.62445 23.545832,-6.881154 23.369052,-11.952016 C 107.7442,70.332104 98.736138,69.635037 86.960838,64.792117 75.185548,59.9492 64.708888,52.447239 62.125228,52.447239 c -2.58365,0 -14.48536,6.831092 -27.15537,11.740563 -12.67002,4.909471 -20.48333,7.35767 -20.48333,11.57594 z"
     id="path86724"
     sodipodi:nodetypes="zssszsssz" /><path
     id="path1098"
     style="fill:#c19048;fill-opacity:1;stroke:none;stroke-width:6.99968;stroke-linecap:round;stroke-dasharray:none;stroke-opacity:1"
     d="m 93.564518,55.43747 c 0.64415,-0.502562 1.5062,-0.863228 2.22461,-1.623047 0.005,-0.0051 0.009,-0.01042 0.0137,-0.01563 1.6951,-1.814272 1.79057,-4.237071 0.81641,-6.177734 l -0.002,-0.002 c -1.59269,-3.188911 -6.523941,-11.600172 -35.34969,-11.600172 -28.825749,0 -33.75664,8.41146 -35.34968,11.600203 l -0.002,0.002 c -0.97438,1.940555 -0.8787,4.363468 0.8164,6.177735 0.005,0.0052 0.009,0.01051 0.0137,0.01563 0.71845,0.759777 1.58046,1.120485 2.22461,1.623047 0.12538,0.09782 -0.23452,0.192968 -1.78547,1.563138 -1.55096,1.37017 -3.08961,4.034598 -4.44695,6.319674 -0.16941,0.285204 -0.3791,0.546836 -0.51367,0.84961 l -0.002,0.0059 c -1.39424,3.137036 -3.29037,5.868673 -4.4043,8.740235 -0.0132,0.03409 -0.0545,0.113163 -0.15039,0.322265 -0.18442,0.402155 -0.76172,1.579583 -0.76172,3.265625 0,1.117863 0.027,6.851965 0.041,9.04128 0.0262,4.089203 3.42047,6.033204 8.14843,6.033204 h 72.34375 c 4.727962,0 8.123282,-1.943995 8.148442,-6.033204 0.014,-2.275147 0.041,-8.26463 0.041,-9.299092 0,-1.413371 -0.57728,-2.605665 -0.76172,-3.007813 -0.0959,-0.209109 -0.13716,-0.288165 -0.15039,-0.322265 -1.11391,-2.871568 -3.01006,-5.603204 -4.4043,-8.740235 l -0.002,-0.0059 c -0.13457,-0.302774 -0.344272,-0.564406 -0.513672,-0.84961 -1.35735,-2.285077 -2.89598,-4.949504 -4.44678,-6.31969 -1.5508,-1.370186 -1.9107,-1.465336 -1.78532,-1.563154 z"
     sodipodi:nodetypes="scccczccccscsccssssssssscccccs" /><path
     id="path32148-3"
     style="clip-rule:evenodd;fill:#f9f4d9;fill-rule:evenodd;stroke-width:0.699965;stroke-linejoin:round;stroke-miterlimit:2"
     d="m 30.525388,48.594405 c -0.6214,1.308736 -0.52237,2.506362 0.33008,3.473671 0.59291,0.664935 1.57715,1.106004 2.46875,1.493785 0.61085,0.267863 1.2007,0.525058 1.47851,0.787017 0.72759,0.677954 -0.15646,1.621043 -1.66601,2.976771 -0.23798,0.210301 -0.47764,0.421865 -0.67969,0.615724 -2.47671,2.315613 -3.79414,4.696949 -5.12305,7.072339 -0.17102,0.301145 -0.34159,0.603152 -0.51367,0.904295 -1.67292,2.936599 -3.08439,5.836829 -4.10351,8.62168 -0.0556,0.151719 -0.13616,0.318594 -0.20703,0.486097 -0.53087,1.215752 -1.78393,4.05968 5.52734,4.075506 7.34847,0.01494 14.82915,0.08867 22.07617,0.160491 3.66291,0.03575 7.42241,0.06168 11.1543,0.09105 3.73188,-0.02937 7.49139,-0.05528 11.1543,-0.09105 7.24702,-0.07182 14.72769,-0.145551 22.07617,-0.160491 7.311272,-0.01583 6.058212,-2.859754 5.527342,-4.075506 -0.0709,-0.167503 -0.151432,-0.334378 -0.207032,-0.486097 -1.01912,-2.784851 -2.4306,-5.685081 -4.10352,-8.62168 -0.17208,-0.301143 -0.34265,-0.60315 -0.51367,-0.904295 -1.32891,-2.37539 -2.64634,-4.756726 -5.12305,-7.072339 -0.20204,-0.193859 -0.4417,-0.405423 -0.67968,-0.615724 -1.50955,-1.355728 -2.39361,-2.298817 -1.66602,-2.976771 0.27781,-0.261959 0.86767,-0.519154 1.47852,-0.787017 0.8916,-0.387781 1.87584,-0.82885 2.46875,-1.493785 0.85245,-0.967309 0.95148,-2.164935 0.33008,-3.473671 -0.99999,-2.123479 -5.536459,-9.477219 -30.74219,-9.477219 -25.205731,0 -29.7422,7.35374 -30.74219,9.477219 z"
     sodipodi:nodetypes="ccccccccccccccccccccccccczc" /></g></svg>
