<?xml version="1.0" encoding="UTF-8" standalone="no"?>
<svg
   width="128"
   height="128"
   version="1.1"
   id="svg58"
   sodipodi:docname="emoji_u1f967.svg"
   inkscape:version="1.3 (0e150ed6c4, 2023-07-21)"
   xmlns:inkscape="http://www.inkscape.org/namespaces/inkscape"
   xmlns:sodipodi="http://sodipodi.sourceforge.net/DTD/sodipodi-0.dtd"
   xmlns="http://www.w3.org/2000/svg"
   xmlns:svg="http://www.w3.org/2000/svg"
   xmlns:rdf="http://www.w3.org/1999/02/22-rdf-syntax-ns#"
   xmlns:cc="http://creativecommons.org/ns#"
   xmlns:dc="http://purl.org/dc/elements/1.1/">
  <metadata
     id="metadata64">
    <rdf:RDF>
      <cc:Work
         rdf:about="">
        <dc:format>image/svg+xml</dc:format>
        <dc:type
           rdf:resource="http://purl.org/dc/dcmitype/StillImage" />
      </cc:Work>
    </rdf:RDF>
  </metadata>
  <defs
     id="defs62" />
  <sodipodi:namedview
     pagecolor="#ffffff"
     bordercolor="#666666"
     borderopacity="1"
     objecttolerance="10"
     gridtolerance="10"
     guidetolerance="10"
     inkscape:pageopacity="0"
     inkscape:pageshadow="2"
     inkscape:window-width="1366"
     inkscape:window-height="697"
     id="namedview60"
     showgrid="false"
     inkscape:object-nodes="false"
     inkscape:zoom="2"
     inkscape:cx="79.75"
     inkscape:cy="83.25"
     inkscape:window-x="-8"
     inkscape:window-y="-8"
     inkscape:window-maximized="1"
     inkscape:current-layer="svg58"
     inkscape:showpageshadow="2"
     inkscape:pagecheckerboard="0"
     inkscape:deskcolor="#d1d1d1" />
  <linearGradient
     id="a"
     gradientTransform="rotate(2.292 65.738 66.222)"
     gradientUnits="userSpaceOnUse"
     x1="53.505"
     x2="53.505"
     y1="22.295"
     y2="10.358">
    <stop
       offset="0"
       stop-color="#c29f76"
       id="stop2" />
  </linearGradient>
  <linearGradient
     id="b"
     gradientTransform="rotate(2.292 65.738 66.222)"
     gradientUnits="userSpaceOnUse"
     x1="70.932"
     x2="70.932"
     y1="11.915"
     y2="29.375">
    <stop
       offset=".019"
       stop-color="#f8dfc2"
       id="stop7" />
  </linearGradient>
  <linearGradient
     id="c"
     gradientTransform="rotate(2.292 65.738 66.222)"
     gradientUnits="userSpaceOnUse"
     x1="90.734"
     x2="90.734"
     y1="19.497"
     y2="37.69">
    <stop
       offset=".019"
       stop-color="#f8dfc2"
       id="stop12" />
  </linearGradient>
  <linearGradient
     id="d"
     gradientTransform="rotate(2.292 65.738 66.222)"
     gradientUnits="userSpaceOnUse"
     x1="111.296"
     x2="111.296"
     y1="33.427"
     y2="52.659">
    <stop
       offset=".019"
       stop-color="#f8dfc2"
       id="stop17" />
  </linearGradient>
  <linearGradient
     id="e"
     gradientTransform="rotate(2.292 65.738 66.222)"
     gradientUnits="userSpaceOnUse"
     x1="63.955"
     x2="63.955"
     y1="56.614"
     y2="113.225">
    <stop
       offset="0"
       stop-color="#a68367"
       id="stop24" />
  </linearGradient>
  <linearGradient
     id="f"
     gradientTransform="rotate(2.292 65.738 66.222)"
     gradientUnits="userSpaceOnUse"
     x1="7.025"
     x2="82.139"
     y1="96.858"
     y2="35.144">
    <stop
       offset=".019"
       stop-color="#f89d53"
       id="stop33" />
  </linearGradient>
  <path
     style="fill:#fcc21b;fill-opacity:1;stroke:none;stroke-width:3.3;stroke-linecap:round;stroke-linejoin:round;stroke-miterlimit:4;stroke-dasharray:none;stroke-opacity:1"
     d="m 5.36,92.33 c 7.727592,-28.229464 18.247194,-57.870571 40.347425,-77.157568 0,0 2.737186,-12.5397647 9.538551,-11.0157997 4.266367,0.9559542 3.396711,8.3886977 8.973865,11.0746247 5.313684,2.559041 12.773559,-2.592046 18.214391,0.116151 7.629754,3.797742 4.831931,15.885323 14.171042,18.312504 7.199656,1.871149 12.769636,-1.176612 19.285376,-1.176612 6.18164,0 8.70131,4.379668 8.70131,8.76448 0,6.174179 -2.13493,8.499657 -2.13493,14.844017 C 122.45703,95.356192 45.360354,84.850516 5.36,92.33 Z"
     id="path880"
     inkscape:connector-curvature="0"
     sodipodi:nodetypes="ccsssssssc" />
  <g
     id="path882">
    <path
       id="path2"
       style="color:#000000;fill:#fcc21b;stroke-linecap:round;stroke-linejoin:round;-inkscape-stroke:none"
       d="M 120.77671,54.37376 C 119.52912,54.442534 6.9257812,91.837891 6.9257812,91.837891 6.7154121,91.16337 6.0989138,90.697659 5.3925781,90.679688 c -0.910887,-0.01765 -1.6636936,0.706306 -1.6816406,1.617187 0,0 -0.2821699,14.028915 -0.3320313,23.042965 -0.013288,2.40229 1.0640578,4.42865 2.4921876,5.80078 1.4281298,1.37213 3.186205,2.19545 4.9765622,2.18165 16.847079,-0.12997 42.304163,-5.12109 64.576172,-11.01758 11.136005,-2.94825 21.455221,-6.12547 29.472652,-9.05664 4.00873,-1.46559 7.44126,-2.86774 10.13477,-4.166019 2.69351,-1.298279 4.61871,-2.400664 5.83398,-3.708984 1.42348,-1.532457 1.6153,-3.601586 1.87305,-6.375 0.25775,-2.773414 0.30468,-6.205515 0.26172,-9.951172 -0.0859,-7.491314 -0.54297,-16.228978 -0.54297,-22.955078 3.3e-4,-1.390969 -0.57922,-1.778736 -1.68032,-1.718037 z"
       sodipodi:nodetypes="scccsscsssssscs" />
  </g>
  <path
     style="fill:#fcc21b;fill-opacity:1;stroke:none;stroke-width:4;stroke-linecap:round;stroke-linejoin:round;stroke-miterlimit:4;stroke-dasharray:none;stroke-dashoffset:0;stroke-opacity:1"
     d="M 5.8601083,93.706354 C 12.593518,66.371522 24.026835,40.282736 44.541415,20.093695 72.446675,26.621438 89.787375,44.553781 114.22774,59.00125 81.792745,78.568299 48.994938,87.386704 5.8601083,93.706354 Z"
     id="path888-3"
     inkscape:connector-curvature="0"
     sodipodi:nodetypes="cccc" />
  <path
     id="path17351"
     d="m 48.66924,28.429078 c -1.089141,0.664643 0.446212,4.85892 -0.707422,6.497671 -0.906142,1.287184 -2.892704,2.291668 -5.399458,2.416108 -2.506753,0.124439 -3.690795,0.799031 -4.906837,2.272652 -1.354714,1.64391 -1.349381,4.054101 -1.349381,4.054101 0,0 -2.144074,0.975866 -2.954769,3.255068 -0.853363,2.397093 -0.298677,4.361923 -0.298677,4.361923 0,0 -3.136109,1.198546 -3.856135,4.73524 -0.549352,2.704916 1.011308,5.608996 2.360689,7.023674 1.34938,1.414676 6.706738,5.620129 19.762749,5.210667 13.769822,-0.431849 17.533729,-5.91117 18.640201,-7.417095 1.918291,-2.61082 1.23249,-7.456668 -0.970253,-8.989235 -2.202743,-1.539117 -3.706795,-1.349183 -3.706795,-1.349183 0,0 0.752025,-4.119595 0.101337,-5.468778 -0.65069,-1.349182 -1.402715,-2.213708 -2.650759,-3.012738 -1.253376,-0.799032 -1.850731,-0.740087 -1.850731,-0.740087 0,0 0.943066,-4.491923 -4.550457,-8.755605 -3.706268,-2.876541 -6.574159,-4.759026 -7.663302,-4.094383 z"
     style="clip-rule:evenodd;fill:#ffffff;fill-rule:nonzero;stroke-width:0.999997;stroke-linejoin:round;stroke-miterlimit:2"
     sodipodi:nodetypes="zsscccccsssccsccsz" />
  <g
     id="path890">
    <path
       id="path1"
       style="color:#000000;fill:#f79329;stroke-linecap:round;stroke-linejoin:round;-inkscape-stroke:none"
       d="M 40.365259,20.275197 C 21.867355,39.40706 9.1716327,67.908577 4.8430592,83.52489 c -2.4333546,8.77888 -1.4682354,32.87492 -1.4682354,32.87492 0.00538,0.80754 0.2560282,1.20568 1.1694094,1.06537 23.3737938,-3.59058 34.4853038,-5.38256 52.2077198,-9.97962 17.663658,-4.5818 33.62137,-10.186409 56.493717,-17.381423 1.41411,-0.444843 2.09761,-1.364414 2.2213,-2.673395 0.89439,-9.465216 0.38246,-16.337069 0.76741,-27.088945 0.004,-0.11047 -0.0471,-0.221713 -0.0254,-0.330078 0.16403,-0.819714 -0.1235,-1.699406 -0.92187,-2.210938 C 92.16544,42.986177 62.087595,22.6016 46.476212,17.897395 c -3.14866,-0.948791 -3.949698,0.142476 -6.110953,2.377802 z m 5.275173,4.908994 c 2.716325,-5.86e-4 12.368865,5.137479 18.246572,8.321889 14.853679,8.04739 39.248596,21.654911 42.801096,27.140318 0.62836,0.970258 0.38051,2.641146 -1.41756,3.182755 L 16.951038,90.432575 c -3.110941,0.937071 -5.519317,0.575964 -6.224182,-0.633275 -2.1086727,-3.61755 4.294967,-18.105283 11.852038,-32.442465 6.468374,-12.271722 12.432062,-23.835243 21.816745,-31.8596 0.211264,-0.180641 0.856747,-0.312959 1.244793,-0.313044 z"
       sodipodi:nodetypes="sssssssssssssssssssss" />
  </g>
</svg>
