<?xml version="1.0" encoding="UTF-8" standalone="no"?>
<!-- Generator: Adobe Illustrator 24.1.2, SVG Export Plug-In . SVG Version: 6.00 Build 0)  -->

<svg
   version="1.1"
   id="Layer_2"
   x="0px"
   y="0px"
   viewBox="0 0 128 128"
   style="enable-background:new 0 0 128 128;"
   xml:space="preserve"
   sodipodi:docname="emoji_u1f988.svg"
   inkscape:version="1.3 (0e150ed6c4, 2023-07-21)"
   xmlns:inkscape="http://www.inkscape.org/namespaces/inkscape"
   xmlns:sodipodi="http://sodipodi.sourceforge.net/DTD/sodipodi-0.dtd"
   xmlns="http://www.w3.org/2000/svg"
   xmlns:svg="http://www.w3.org/2000/svg"><defs
   id="defs31384" /><sodipodi:namedview
   id="namedview31382"
   pagecolor="#ffffff"
   bordercolor="#000000"
   borderopacity="0.25"
   inkscape:showpageshadow="2"
   inkscape:pageopacity="0.0"
   inkscape:pagecheckerboard="0"
   inkscape:deskcolor="#d1d1d1"
   showgrid="false"
   inkscape:zoom="4"
   inkscape:cx="52"
   inkscape:cy="57.375"
   inkscape:window-width="1366"
   inkscape:window-height="697"
   inkscape:window-x="-8"
   inkscape:window-y="-8"
   inkscape:window-maximized="1"
   inkscape:current-layer="Layer_2" />&#10;<path
   style="fill:#197cb7;fill-opacity:1"
   d="m 30.77,22.75 c -15.51,7.17 -26.7,18.4 -26.61,21.12 0.05,1.41 0.77,3.94 2.82,6.1 1.21,1.28 4.43,3.61 6.69,3.75 2.25,0.14 18.51,-10.7 18.51,-10.7 l 16.19,-2.25 9.85,23.51 c 0,0 3.24,4.65 7.74,8.45 4.5,3.8 8.87,5.07 9.85,4.22 0.98,-0.85 -1.9,-6.55 -2.11,-8.02 -0.28,-1.96 -1.13,-6.76 3.66,-6.05 4.79,0.71 13.66,4.22 13.66,9.43 0,5.21 -3.52,10.98 -13.51,10.98 -9.99,0 -24.07,-3.24 -30.55,-2.96 -6.48,0.28 -17.375,0.34 -16.735,6.885 0.64,6.545 20.545,5.645 22.655,8.745 2.11,3.1 -3.705,21.685 2.28,23.045 5.985,1.36 12.36,-22.345 14.05,-24.315 1.69,-1.97 8.69,-2.51 14.36,-3.24 5.82,-0.75 38.86,-2.11 38.86,-35.05 0,-26.47 -26.349049,-33.352272 -26.909049,-33.912272 -0.56,-0.56 -0.33107,-3.727788 1.569049,-7.477728 1.499881,-2.96006 5.02912,-5.20989 3.94711,-7.6177282 C 99.235461,3.3830121 90.19,6.56 83.44,10.08 c -6.75,3.52 -11,8.02 -11,8.02 0,0 -25.97,-2.61 -41.67,4.65 z"
   id="path31355"
   sodipodi:nodetypes="cccccccssssssszssscssssscc" />&#10;<path
   style="fill:#40c0e7"
   d="m 34.71,36.82 c 5.13,-2.27 13.53,-4.11 19.85,-4.5 11.33,-0.7 20.98,0.63 20.98,0.63 0,0 4.12,8.59 7.46,12.88 5.84,7.5 14.25,13.3 15.38,11.68 0.94,-1.35 0.18,-8.45 -1.3,-12.81 -0.73,-2.15 -3.1,-7.88 -3.1,-7.88 0,0 10.28,0.84 16.19,9.29 5.91,8.45 8.3,26.33 -4.65,33.93 -11.26,6.62 -26.968718,3.229112 -26.968718,3.229112 0,0 12.035592,-1.656332 11.673718,-9.569112 C 89.940552,67.480232 85.7175,66.16 81.4975,65.36 78.8275,64.86 60.23,65.11 54.18,64.97 48.13,64.83 39.02,64.41 32.73,62.48 29.72,61.56 27.57,60.13 27.57,60.13 l 0.14,-5.07 c 0,0 -5.16,1.03 -8.12,0.75 -2.96,-0.28 -7.13,-1.97 -7.41,-2.39 -0.28,-0.42 3.33,-3.58 6.34,-5.91 3.76,-2.9 10.14,-8.01 16.19,-10.69 z"
   id="path31357"
   sodipodi:nodetypes="cccccccsccscscccsscc" />&#10;<path
   style="fill:#f4a4bf;fill-opacity:1"
   d="M 41.742523,45.947864 C 40.834392,48.429833 39.54946,51.024068 35.14,55.03 c -3.57,3.24 -6.95,5.4 -7.51,5.21 L 18.8,55.69 c 2.77,-0.66 6.91,-2.56 9.67,-4.65 1.92,-1.45 5.61,-4.35 6.76,-5.12 0.99,-0.66 3.874072,-2.626868 5.12,-2.91 1.438567,-0.326908 1.956845,1.395543 1.392523,2.937864 z"
   id="path31359"
   sodipodi:nodetypes="scccccss" />&#10;&#10;<path
   id="path31363"
   style="fill:#fffefd"
   d="M 38.3125 43.957031 C 37.580476 44.379519 36.831191 44.859388 36.210938 45.267578 C 36.211219 45.26815 36.210591 45.268993 36.210938 45.269531 C 36.420936 45.569531 37.899846 47.150779 38.839844 46.300781 C 39.587267 45.630677 38.605335 44.315862 38.3125 43.957031 z M 33.751953 47 C 33.045497 47.531702 32.277754 48.114496 31.439453 48.759766 C 31.550295 48.871365 33.481997 50.963832 34.660156 49.960938 C 35.505223 49.248802 33.916338 47.206638 33.751953 47 z M 37.914062 48.263672 C 37.582812 48.274998 37.267264 48.396719 37.009766 48.699219 C 36.369674 49.448799 37.912946 51.149455 38.419922 51.671875 C 39.140447 50.81455 39.702715 50.02824 40.158203 49.287109 C 39.969792 49.135518 38.881986 48.230577 37.914062 48.263672 z M 28.607422 50.933594 C 28.570362 50.961659 28.506557 51.011985 28.470703 51.039062 C 27.860024 51.501497 27.1789 51.954262 26.462891 52.386719 C 26.536942 52.49197 28.31521 54.768305 29.5 53.759766 C 30.358979 53.035906 28.723518 51.070929 28.607422 50.933594 z M 33.810547 52.267578 C 33.550131 52.269691 33.310389 52.362969 33.119141 52.589844 C 32.465918 53.354801 33.714676 55.319659 34.269531 55.800781 C 34.557693 55.5508 34.848478 55.294439 35.140625 55.029297 C 35.588221 54.622662 35.994779 54.234371 36.380859 53.855469 C 36.112998 53.572385 34.822603 52.259367 33.810547 52.267578 z M 29.566406 55.976562 C 29.315516 55.979514 29.08375 56.073906 28.890625 56.300781 C 28.152734 57.164891 29.67388 59.124084 29.763672 59.238281 C 30.425632 58.813579 31.194823 58.267732 32.041016 57.617188 C 31.932842 57.490604 30.609529 55.964291 29.566406 55.976562 z " />&#10;&#10;&#10;&#10;<path
   style="fill:#0c4268;fill-opacity:1"
   d="M65.17,25.42c-1.13,0.75-0.38,2.35,0.28,3.66c0.66,1.31,1.08,2.51,1.15,4.29  c0.06,1.6-0.35,4.48-0.54,5.47c-0.17,0.91-0.78,2.9,0.56,3.24c1.69,0.42,2.16-0.89,2.53-2.16c0.49-1.65,0.74-5.01,0.66-6.71  c-0.19-3.64-1.41-5.82-1.97-6.66S66.27,24.68,65.17,25.42z"
   id="path31371" />&#10;<path
   style="fill:#0c4268;fill-opacity:1"
   d="m 72.505,27.67 c -0.75,0.6 0,2.39 0.33,3.19 0.33,0.8 0.49,1.92 0.49,3.07 0,0.8 -0.16,2.65 -0.26,3.68 -0.14,1.54 -0.06,2.46 1.08,2.67 1.78,0.33 1.85,-2.06 2.02,-3.05 0.13,-0.79 0.25,-3.39 0.15,-4.61 -0.09,-1.22 -0.67,-2.99 -1.37,-4.07 -0.57,-0.85 -1.5,-1.63 -2.44,-0.88 z"
   id="path31373" />&#10;<path
   style="fill:#0c4268;fill-opacity:1"
   d="M57.66,24.72c-1.54,0.79,0.14,3.43,0.56,4.32s1.03,2.86,0.99,4.93c-0.05,2.06-0.21,4.18-0.56,5.33  c-0.31,1-1.22,2.7-0.52,3.4c1.03,1.03,2.69-0.04,3.26-1.71c0.84-2.46,1.06-4.48,0.96-7.67C62.23,29.03,59.96,23.54,57.66,24.72z"
   id="path31375" />&#10;&#10;&#10;<ellipse
   style="fill:#2f2f2f;fill-opacity:1;stroke-width:5.66929;stroke-linecap:round"
   id="path21969"
   cx="33.970268"
   cy="35.553562"
   rx="3.6436439"
   ry="4.4836297" /></svg>
