<?xml version="1.0" encoding="UTF-8" standalone="no"?>
<svg
   width="100%"
   height="100%"
   viewBox="0 0 128 128"
   version="1.1"
   xml:space="preserve"
   style="fill-rule:evenodd;clip-rule:evenodd;stroke-linecap:round;stroke-linejoin:round;stroke-miterlimit:1.5;"
   id="svg36760"
   sodipodi:docname="emoji_u1f97a.svg"
   inkscape:version="1.2.2 (732a01da63, 2022-12-09)"
   xmlns:inkscape="http://www.inkscape.org/namespaces/inkscape"
   xmlns:sodipodi="http://sodipodi.sourceforge.net/DTD/sodipodi-0.dtd"
   xmlns="http://www.w3.org/2000/svg"
   xmlns:svg="http://www.w3.org/2000/svg"><defs
   id="defs36764">
        
        
        
        
        
        
        
        
    
            
        </defs><sodipodi:namedview
   id="namedview36762"
   pagecolor="#ffffff"
   bordercolor="#000000"
   borderopacity="0.25"
   inkscape:showpageshadow="2"
   inkscape:pageopacity="0.0"
   inkscape:pagecheckerboard="0"
   inkscape:deskcolor="#d1d1d1"
   showgrid="false"
   inkscape:zoom="8"
   inkscape:cx="70.9375"
   inkscape:cy="104.875"
   inkscape:window-width="1366"
   inkscape:window-height="697"
   inkscape:window-x="-8"
   inkscape:window-y="-8"
   inkscape:window-maximized="1"
   inkscape:current-layer="svg36760" />
    <rect
   x="0.06"
   y="0"
   width="127.99"
   height="128"
   style="fill:none;"
   id="rect36721" />
    <path
   d="M63.89,9.64C1.58,9.64 0.1,79.5 0.1,93.33C0.1,107.16 28.66,118.36 63.89,118.36C99.13,118.36 127.68,107.15 127.68,93.33C127.68,79.5 126.21,9.64 63.89,9.64Z"
   style="fill:rgb(252,194,27);fill-rule:nonzero;"
   id="path36723" />
    
    <g
   transform="matrix(1.2207348,0,0,1.2207348,-25.064379,-6.7254068)"
   id="g36729"
   style="stroke-width:0.819179">
            <path
   d="m 87.685,36.458 c 0.978,-0.345 2.052,-0.291 2.99,0.15 4.583,2.105 9.434,3.603 14.521,4.241 1.036,0.13 1.978,0.663 2.624,1.483 2.434,3.133 3.918,7.088 3.965,11.402 0.111,10.199 -7.859,18.513 -17.8,18.589 h 0.001 C 84.045,72.4 75.898,64.199 75.787,54.019 75.699,45.931 80.676,39.023 87.685,36.458 Z"
   style="fill:#ffffff;fill-rule:nonzero;stroke-width:0.819179"
   id="path36727" />
        </g><g
   id="g37340"
   transform="matrix(1.1087798,0,0,1.1087798,-8.9619114,-8.4298016)"
   style="stroke-width:0.901892"><g
     transform="matrix(0.91714209,0,0,0.76834506,2.7178357,21.404055)"
     id="g36733"
     style="stroke-width:0.819179">
            <path
   d="M 93.976,71.799 C 84.5,71.883 76.734,62.787 76.628,51.496 76.523,40.163 84.12,30.92 93.596,30.836 c 9.455,-0.085 17.242,9.01 17.348,20.344 0.105,11.312 -7.492,20.534 -16.968,20.619 z"
   style="fill:#2f2f2f;fill-rule:nonzero;stroke-width:0.819179"
   id="path36731" />
        </g><g
     transform="matrix(0.91714209,0,0,0.76834506,2.7178357,21.404055)"
     id="g36737"
     style="stroke-width:0.819179">
            <path
   d="m 101.85,51.088 c -3.715,2.697 -9.337,1.291 -12.552,-3.134 -3.228,-4.442 -2.83,-10.225 0.886,-12.923 3.707,-2.691 9.337,-1.291 12.564,3.15 3.222,4.434 2.817,10.21 -0.898,12.907 z M 88.607,67.306 c -2.16,1.159 -5.03,0.01 -6.412,-2.562 -1.387,-2.581 -0.759,-5.61 1.4,-6.77 2.155,-1.155 5.03,-0.01 6.417,2.572 1.384,2.577 0.754,5.602 -1.405,6.76 z"
   style="fill:#ffffff;fill-rule:nonzero;stroke-width:0.819179"
   id="path36735" />
        </g></g><g
   transform="matrix(1.2207348,0,0,1.2207348,-3.189673,-6.7254068)"
   id="g36741"
   style="stroke-width:0.819179">
            <path
   id="path36739"
   style="fill:#ffffff;fill-rule:nonzero;stroke-width:0.819179"
   d="m 38.803973,36.140361 c -0.627987,-0.0221 -1.256449,0.107994 -1.835152,0.37919 -4.616798,2.163555 -9.518433,3.702026 -14.66042,4.347087 -0.693007,0.08694 -1.329554,0.427776 -1.785553,0.956775 -2.729998,3.270997 -4.357089,7.537889 -4.307089,12.194884 0.111,10.17999 8.257938,18.382125 18.197928,18.305125 9.94099,-0.076 17.910538,-8.390928 17.799538,-18.589918 -0.088,-8.093992 -5.231903,-14.927088 -12.292481,-17.391548 -0.362194,-0.126422 -0.739978,-0.188335 -1.116771,-0.201595 z"
   sodipodi:nodetypes="sssccccss" />
        </g><g
   id="g37346"
   transform="matrix(1.1087798,0,0,1.1087798,-4.9619114,-8.4298016)"
   style="stroke-width:0.901892"><g
     transform="matrix(0.91714209,0,0,0.76834506,7.8878977,21.404055)"
     id="g36745"
     style="stroke-width:0.819179">
            <path
   d="M 34.404,71.799 C 24.928,71.883 17.162,62.787 17.056,51.496 16.951,40.163 24.548,30.92 34.024,30.836 43.479,30.751 51.266,39.846 51.372,51.18 51.477,62.492 43.88,71.714 34.404,71.799 Z"
   style="fill:#2f2f2f;fill-rule:nonzero;stroke-width:0.819179"
   id="path36743" />
        </g><g
     transform="matrix(0.91714209,0,0,0.76834506,7.8878977,21.404055)"
     id="g36749"
     style="stroke-width:0.819179">
            <path
   d="m 42.278,51.088 c -3.715,2.697 -9.337,1.291 -12.553,-3.134 -3.227,-4.442 -2.828,-10.225 0.887,-12.923 3.707,-2.691 9.337,-1.291 12.564,3.15 3.222,4.434 2.817,10.21 -0.898,12.907 z M 29.035,67.306 c -2.16,1.159 -5.03,0.01 -6.412,-2.562 -1.387,-2.581 -0.759,-5.61 1.4,-6.77 2.154,-1.155 5.03,-0.01 6.417,2.572 1.384,2.577 0.754,5.602 -1.405,6.76 z"
   style="fill:#ffffff;fill-rule:nonzero;stroke-width:0.819179"
   id="path36747" />
        </g></g><g
   transform="matrix(1,0,0,-1,-64.39971,116.34216)"
   id="g36753">
            
        </g><path
   id="path36755"
   style="fill:none;stroke:#2f2f2f;stroke-width:6;stroke-dasharray:none;stroke-opacity:1"
   d="m 77.616468,91.231865 c 0,0 -5.548058,-4.748026 -13.72647,-4.748026 -8.178414,0 -13.72647,4.748026 -13.72647,4.748026"
   sodipodi:nodetypes="czc" />
</svg>
