<?xml version="1.0" encoding="UTF-8" standalone="no"?>
<!-- Generator: Adobe Illustrator 24.1.2, SVG Export Plug-In . SVG Version: 6.00 Build 0)  -->

<svg
   version="1.1"
   id="Layer_3"
   x="0px"
   y="0px"
   viewBox="0 0 128 128"
   style="enable-background:new 0 0 128 128;"
   xml:space="preserve"
   sodipodi:docname="emoji_u1f98a.svg"
   inkscape:version="1.2.2 (732a01da63, 2022-12-09)"
   xmlns:inkscape="http://www.inkscape.org/namespaces/inkscape"
   xmlns:sodipodi="http://sodipodi.sourceforge.net/DTD/sodipodi-0.dtd"
   xmlns="http://www.w3.org/2000/svg"
   xmlns:svg="http://www.w3.org/2000/svg"><defs
   id="defs48658" /><sodipodi:namedview
   id="namedview48656"
   pagecolor="#ffffff"
   bordercolor="#000000"
   borderopacity="0.25"
   inkscape:showpageshadow="2"
   inkscape:pageopacity="0.0"
   inkscape:pagecheckerboard="0"
   inkscape:deskcolor="#d1d1d1"
   showgrid="false"
   inkscape:zoom="2.1210937"
   inkscape:cx="27.108656"
   inkscape:cy="95.705342"
   inkscape:window-width="1366"
   inkscape:window-height="697"
   inkscape:window-x="-8"
   inkscape:window-y="-8"
   inkscape:window-maximized="1"
   inkscape:current-layer="Layer_3"
   showguides="false" />

















<g
   id="g42803"
   transform="translate(1.710931e-6,-4.3072298e-4)"><path
     id="path44048"
     style="fill:#ed6c30;fill-opacity:1;stroke-width:0.999998"
     d="m 42.359379,12.761719 c 0,0 -18.85899,9.390638 -19.70899,16.140625 -0.84999,6.749987 -0.0505,11.499224 0.51954,14.449218 0.55999,2.959995 2.25,7.179688 2.25,7.179688 0,0 -1.69141,2.530559 -3.94141,8.310547 -2.25,5.779989 -4.78914,12.809537 -6.61914,15.769531 -1.41507,2.288858 -3.63011,5.645662 -6.9062504,8.160156 -2.76027,2.118554 -6.97995998,2.907335 -6.82227,3.800782 0.18923,1.134917 5.4336,4.757812 5.4336,4.757812 0,0 -5.42331,0.67651 -5.62304998,1.582031 -0.37846,1.702377 15.95661038,10.783311 22.70117038,13.503911 6.744564,2.7206 14.746025,5.69727 20.789065,9.42578 6.04304,3.7285 10.934624,6.95898 19.56836,6.95898 8.633735,0 13.525319,-3.23048 19.568359,-6.95898 6.04304,-3.72851 14.044503,-6.70518 20.789057,-9.42578 6.74457,-2.7206 23.07962,-11.801534 22.70117,-13.503911 -0.19975,-0.905521 -5.62304,-1.582031 -5.62304,-1.582031 0,0 5.24436,-3.622895 5.43359,-4.757812 0.15769,-0.893447 -4.062,-1.682228 -6.82226,-3.800782 -3.27614,-2.514494 -5.49119,-5.871298 -6.90625,-8.160156 -1.83,-2.959994 -4.36916,-9.989542 -6.61915,-15.769531 -2.24999,-5.779988 -3.9414,-8.310547 -3.9414,-8.310547 0,0 1.69,-4.219693 2.25,-7.179688 0.57003,-2.949994 1.36953,-7.699231 0.51953,-14.449218 -0.85,-6.749987 -19.708981,-16.140625 -19.708981,-16.140625 0,0 -4.179615,3.138912 -6.84961,6.378906 -2.669995,3.239993 -7.740234,12.53125 -7.740234,12.53125 0,0 -3.810789,-0.701172 -7.050781,-0.701172 -3.239993,0 -7.050782,0.701172 -7.050782,0.701172 0,0 -5.070239,-9.291257 -7.740234,-12.53125 -2.669994,-3.239994 -6.849609,-6.378906 -6.849609,-6.378906 z" /><path
     style="fill:#616161"
     d="m 31.099407,5.2506186 c -2.02,0.56 -4.409998,5.1600004 -6.569998,12.7600004 -1.14,4.01 -1.97,11.36 -1.97,11.36 0,0 6.659998,-5.16 12.579998,-7.32 5.92,-2.16 13.42,-3.66 13.42,-3.66 0,0 -3.45,-3.94 -7.51,-7.51 -3.51,-3.0900004 -8.21,-6.1100004 -9.95,-5.6300004 z"
     id="path48623" /><path
     style="fill:#f79329;fill-opacity:1"
     d="m 33.169407,14.070619 c -0.66,0.38 -4.1,7.11 -3.85,17.18 0.19,7.51 1.69,13.51 2.06,13.51 0.19,0 3.84,-4.33 7.7,-7.04 3.86,-2.71 8.82,-4.19 8.96,-4.52 0.28,-0.66 -2.86,-7.21 -7.08,-12.74 -4.22,-5.53 -7.14,-6.76 -7.79,-6.39 z"
     id="path48627" /><path
     id="path48631"
     style="fill:#ffffff;fill-opacity:1;stroke-width:0.999996"
     d="m 28.783204,83.544922 c -5.256755,0.09793 -8.812145,1.712531 -10.714845,2.628906 -2.34179,1.127847 -5.78539,1.704694 -5.65625,2.341797 0.15497,0.809295 4.45117,3.392578 4.45117,3.392578 0,0 -4.44384,0.481239 -4.60742,1.126953 -0.30994,1.213941 12.69921,7.809774 19.957033,10.582034 6.54323,2.50536 19.233963,6.9557 20.52539,7.0332 0.645714,0.0387 10.22461,0.52539 10.22461,0.52539 v -7.39453 l -6.101563,-1.29297 c 0,0 -2.350398,-8.436379 -7.679687,-12.035155 -5.320679,-3.581557 -9.056318,-5.820251 -16.486329,-6.707031 -1.394741,-0.166272 -2.699012,-0.223772 -3.912109,-0.201172 z m 70.433594,0 c -1.213096,-0.0226 -2.517369,0.0349 -3.912109,0.201172 -7.430011,0.88678 -11.16565,3.125474 -16.486329,6.707031 -5.329289,3.598776 -7.679687,12.035155 -7.679687,12.035155 l -6.101563,1.29297 v 7.39453 c 0,0 9.578896,-0.48664 10.22461,-0.52539 1.291427,-0.0775 13.98216,-4.52784 20.52539,-7.0332 7.25782,-2.77226 20.26698,-9.368093 19.95703,-10.582034 -0.16358,-0.645714 -4.60742,-1.126953 -4.60742,-1.126953 0,0 4.2962,-2.583283 4.45117,-3.392578 0.12914,-0.637103 -3.31446,-1.21395 -5.65625,-2.341797 -1.9027,-0.916375 -5.45809,-2.530973 -10.714842,-2.628906 z" /><path
     d="m 64.001516,117.37744 c -8.826053,0 -15.96719,-2.98934 -15.96719,-12.17924 0,-9.196077 7.141137,-16.647851 15.96719,-16.647851 8.819469,0 15.980354,7.451774 15.980354,16.647851 0,9.1899 -7.160885,12.17924 -15.980354,12.17924 z"
     style="fill:#e0e0e0;stroke-width:0.999996"
     id="path72107" /><path
     d="m 72.834516,106.22759 c -0.111924,0.15497 -2.711999,3.73653 -8.83337,3.73653 -6.078323,0 -8.687008,-3.55573 -8.807541,-3.73653 -0.602667,-0.86096 -1.782171,-1.09341 -2.660342,-0.49936 -0.878172,0.59406 -1.102019,1.79078 -0.507962,2.66035 0.146362,0.22384 3.753751,5.39817 11.975845,5.39817 8.230704,0 11.838093,-5.18294 11.993065,-5.39817 0.585447,-0.86957 0.370209,-2.04046 -0.499353,-2.64313 -0.860952,-0.59406 -2.057675,-0.37021 -2.660342,0.48214 z"
     style="fill:#2f2f2f;stroke-width:0.999996"
     id="path72113" /><path
     d="m 64.001813,105.87652 c 3.998783,0 7.243081,-2.60927 7.243081,-5.82841 0,-3.225434 -3.244298,-5.828416 -7.243081,-5.828416 -3.998784,0 -7.230506,2.60927 -7.230506,5.828416 0,3.21914 3.231722,5.82841 7.230506,5.82841 z"
     style="fill:#2f2f2f;stroke-width:0.999996"
     id="path72111" /><g
     id="g42787"
     transform="translate(-0.110101)"><path
       d="m 51.418924,68.421055 c 0,4.883134 -3.31,8.830067 -7.38,8.830067 -4.07,0 -7.38,-3.957572 -7.38,-8.830067 0,-4.893772 3.31,-8.840705 7.38,-8.840705 4.07,-0.01064 7.38,3.946933 7.38,8.840705 z"
       style="fill:#2f2f2f;stroke-width:1"
       id="path35183" /><path
       d="m 76.801278,68.421055 c 0,4.883134 3.3,8.830067 7.38,8.830067 4.07,0 7.38,-3.957572 7.38,-8.830067 0,-4.893772 -3.31,-8.840705 -7.38,-8.840705 -4.07,-0.01064 -7.38,3.946933 -7.38,8.840705 z"
       style="fill:#2f2f2f;stroke-width:1"
       id="path35185" /></g><path
     id="path48639"
     style="fill:#e0e0e0;fill-opacity:1;stroke-width:0.999996"
     d="m 35.41797,90.683594 c -0.586137,-0.0087 -0.986888,0.162796 -1.054688,0.640625 -0.1808,1.274204 2.023718,1.815906 4.003907,2.728515 2.359007,1.084799 5.148788,2.71964 6.664062,3.511719 1.515274,0.792069 3.047918,0.551568 3.332031,-0.300781 C 48.793758,95.989463 47.518079,95.198649 46.60547,94.65625 45.692862,94.113851 41.328878,92.287932 39.210939,91.625 37.887225,91.210667 36.394864,90.698139 35.41797,90.683594 Z m -1.00586,6.164062 c -0.667426,0.0011 -1.123407,0.181988 -1.193359,0.658203 -0.1808,1.213939 3.452697,2.064765 5.820312,3.390621 2.057674,1.15368 5.724505,3.13532 6.421876,0.91407 0.602665,-1.945753 -3.160245,-2.850225 -5.458985,-3.582034 -1.633655,-0.514958 -4.121505,-1.383219 -5.589844,-1.38086 z" /><path
     style="fill:#616161"
     d="m 96.900596,5.2506186 c 2.02,0.56 4.409994,5.1600004 6.569994,12.7600004 1.14,4.01 1.97,11.36 1.97,11.36 0,0 -6.659994,-5.16 -12.579994,-7.32 -5.92,-2.16 -13.42,-3.66 -13.42,-3.66 0,0 3.45,-3.94 7.51,-7.51 3.51,-3.0900004 8.21,-6.1100004 9.95,-5.6300004 z"
     id="path42687" /><path
     style="fill:#f79329;fill-opacity:1"
     d="m 94.830596,14.070619 c 0.66,0.38 4.1,7.11 3.85,17.18 -0.19,7.51 -1.69,13.51 -2.06,13.51 -0.19,0 -3.84,-4.33 -7.7,-7.04 -3.86,-2.71 -8.82,-4.19 -8.96,-4.52 -0.28,-0.66 2.86,-7.21 7.08,-12.74 4.22,-5.53 7.14,-6.76 7.79,-6.39 z"
     id="path42689" /><path
     id="path42782"
     style="fill:#e0e0e0;fill-opacity:1;stroke-width:0.999996"
     d="m 92.58203,90.683594 c 0.586137,-0.0087 0.986888,0.162796 1.054688,0.640625 0.1808,1.274204 -2.023718,1.815906 -4.003907,2.728515 -2.359007,1.084799 -5.148788,2.71964 -6.664062,3.511719 -1.515274,0.792069 -3.047918,0.551568 -3.332031,-0.300781 -0.430476,-1.274209 0.845203,-2.065023 1.757812,-2.607422 0.912608,-0.542399 5.276592,-2.368318 7.394531,-3.03125 1.323714,-0.414333 2.816075,-0.926861 3.792969,-0.941406 z m 1.00586,6.164062 c 0.667426,0.0011 1.123407,0.181988 1.193359,0.658203 0.1808,1.213939 -3.452697,2.064765 -5.820312,3.390621 -2.057674,1.15368 -5.724505,3.13532 -6.421876,0.91407 -0.602665,-1.945753 3.160245,-2.850225 5.458985,-3.582034 1.633655,-0.514958 4.121505,-1.383219 5.589844,-1.38086 z" /></g></svg>
