<?xml version="1.0" encoding="UTF-8" standalone="no"?>
<svg
   width="128"
   height="128"
   style="enable-background:new 0 0 128 128;"
   version="1.1"
   id="svg67071"
   sodipodi:docname="emoji_u1f346.svg"
   inkscape:version="1.3 (0e150ed6c4, 2023-07-21)"
   xmlns:inkscape="http://www.inkscape.org/namespaces/inkscape"
   xmlns:sodipodi="http://sodipodi.sourceforge.net/DTD/sodipodi-0.dtd"
   xmlns="http://www.w3.org/2000/svg"
   xmlns:svg="http://www.w3.org/2000/svg">
  <defs
     id="defs67075" />
  <sodipodi:namedview
     id="namedview67073"
     pagecolor="#ffffff"
     bordercolor="#000000"
     borderopacity="0.25"
     inkscape:showpageshadow="2"
     inkscape:pageopacity="0.0"
     inkscape:pagecheckerboard="0"
     inkscape:deskcolor="#d1d1d1"
     showgrid="false"
     inkscape:zoom="2.1210937"
     inkscape:cx="86.040517"
     inkscape:cy="75.197055"
     inkscape:window-width="1366"
     inkscape:window-height="697"
     inkscape:window-x="-8"
     inkscape:window-y="-8"
     inkscape:window-maximized="1"
     inkscape:current-layer="svg67071" />
  <g
     id="g67069"
     transform="matrix(0.99556346,-0.12566051,0.12566051,0.99556346,-10.330933,14.365596)"
     style="stroke-width:0.996552">
    <g
       id="g67065"
       style="stroke-width:0.996552">
      <path
         d="M 39.141274,51.381355 C 28.645902,54.795892 12.623645,57.246317 6.0708253,73.821377 1.2755162,85.950893 5.4092393,100.41347 14.118676,106.46478 c 9.76292,6.78328 26.543494,7.29122 42.787395,0.68924 C 73.623803,100.35946 89.448396,86.699602 103.23508,68.965101 117.02177,51.2306 122.39,28.38 122.39,28.38 L 94.97,10.1 c 0,0 -18.598436,29.168949 -55.828726,41.281355 z"
         style="fill:#9531a6;stroke-width:0.996552"
         id="path67061"
         sodipodi:nodetypes="sssszccs" />
      <path
         d="m 127.59,56.56 c -0.09,-0.41 -0.38,-0.83 -0.65,-1.24 -0.1,-0.15 -0.2,-0.29 -0.27,-0.41 -2.65,-4.7 -1.71,-9.64 -0.71,-14.87 0.98,-5.13 1.99,-10.43 -0.6,-15.57 -0.32,-0.63 -0.74,-1.27 -1.15,-1.88 -0.9,-1.36 -1.84,-2.76 -1.74,-4.17 0.05,-0.77 0.51,-1.51 1,-2.29 0.68,-1.07 1.44,-2.29 1.13,-3.8 -0.53,-2.5 -3.73,-4.1 -5.85,-5.16 L 118.43,7 c -0.11,-0.05 -0.19,-0.1 -0.26,-0.14 -0.18,-0.1 -0.39,-0.23 -0.7,-0.23 -0.23,0 -0.44,0.06 -0.82,0.18 -0.11,0.03 -0.2,0.05 -0.28,0.07 -0.35,0.08 -0.59,0.16 -1.01,0.5 -1.4,1.17 -2.68,1.72 -4.14,1.78 -0.44,0.02 -0.89,0.02 -1.34,0.02 -1.47,0 -2.97,-0.08 -4.43,-0.17 -1.46,-0.08 -2.98,-0.17 -4.47,-0.17 -2.98,0 -5.38,0.36 -7.54,1.14 -0.88,0.31 -1.76,0.66 -2.65,1 -2.32,0.9 -4.72,1.83 -7.12,2.34 -1,0.21 -1.95,0.31 -2.92,0.31 -1.9,0 -3.62,-0.4 -5.61,-0.86 -0.48,-0.12 -0.96,-0.23 -1.47,-0.34 -0.26,-0.06 -0.51,-0.08 -0.74,-0.08 -0.98,0 -1.51,0.5 -1.78,0.91 -0.7,1.08 -0.44,2.9 0.11,4.13 1.3,2.96 4.17,5.37 8.77,7.35 2.92,1.26 5.88,1.9 8.8,1.9 1.4,0 2.79,-0.15 4.14,-0.45 0.34,-0.07 0.67,-0.13 1,-0.19 0.39,-0.07 0.76,-0.14 1.16,-0.23 l 0.26,-0.06 c 0.38,-0.09 0.96,-0.24 1.39,-0.24 0.24,0 0.32,0.05 0.32,0.05 0.16,0.09 0.22,0.18 -0.08,0.99 -0.13,0.33 -0.31,0.6 -0.53,0.9 -0.15,0.22 -0.3,0.45 -0.44,0.69 -0.31,0.55 -0.5,1.14 -0.69,1.7 -0.08,0.25 -0.16,0.49 -0.25,0.72 -1.31,3.52 -0.79,6.63 -0.02,9.47 0.34,1.27 0.85,2.47 1.45,3.38 0.11,0.18 0.23,0.36 0.34,0.54 0.5,0.82 1.07,1.74 1.88,2.32 0.68,0.5 1.34,0.74 2.01,0.74 1.35,0 2.43,-1.03 3.3,-1.86 1.36,-1.3 2.49,-2.98 3.58,-4.61 l 0.49,-0.74 c 0.56,-0.83 1.67,-2.47 2.66,-3.12 0.63,3.54 3.21,13.05 3.25,13.15 2.37,5.39 6.3,8.36 11.09,8.36 0,0 0,0 0,0 0.18,0 0.3,0 0.43,0.01 0.16,0.01 0.33,0.02 0.49,0.02 0.39,0 0.94,-0.05 1.28,-0.48 0.28,-0.26 0.36,-0.66 0.25,-1.14 z M 72.84,13.08 c 0.04,-0.01 0.08,-0.03 0.12,-0.03 0.18,0 0.38,0.02 0.59,0.07 -0.27,-0.06 -0.5,-0.06 -0.71,-0.04 z m 16.02,12.89 c -0.77,0 -1.54,-0.05 -2.31,-0.15 0.94,0.12 1.89,0.14 2.84,0.12 -0.18,0 -0.35,0.03 -0.53,0.03 z m 11.94,20.36 c -0.04,0 -0.08,-0.02 -0.12,-0.02 0.08,0 0.14,0.01 0.21,0 -0.03,0 -0.06,0.02 -0.09,0.02 z M 100.64,9.54 c 0.12,-0.01 0.25,-0.01 0.37,-0.01 0.13,0 0.27,0.01 0.4,0.01 -0.26,0 -0.52,0 -0.77,0 z m 16.84,-2.23 c 0.01,0 0.02,0.01 0.04,0.01 -0.05,0 -0.1,0 -0.16,0.01 0.04,-0.01 0.09,-0.02 0.12,-0.02 z m 7.7,50.19 c -0.32,0 -0.62,-0.06 -0.93,-0.08 0.33,0.03 0.65,0.08 0.99,0.08 -0.03,0 -0.04,0 -0.06,0 z m 0.92,0.03 c -0.07,0 -0.13,0 -0.2,-0.01 0.17,0.01 0.32,0.01 0.47,-0.01 -0.09,0.01 -0.17,0.02 -0.27,0.02 z"
         style="fill:#bdcf46;stroke-width:0.996552"
         id="path67063" />
    </g>
    <path
       d="m 25.751802,64.796625 c -4.551875,2.129546 -10.52836,8.79178 -12.102607,15.872931 -2.909036,13.085194 7.279789,13.246645 9.227221,6.105457 5.996065,-21.98743 14.828964,-20.84311 13.466246,-23.788628 -0.657297,-1.420749 -7.163788,0.206923 -10.59086,1.81024 z"
       style="fill:#ffffff;stroke-width:0.996552"
       id="path67067"
       sodipodi:nodetypes="sssss" />
  </g>
</svg>
