<?xml version="1.0" encoding="UTF-8" standalone="no"?>
<svg
   width="128px"
   height="128px"
   version="1.1"
   xml:space="preserve"
   style="fill-rule:evenodd;clip-rule:evenodd;stroke-linecap:round;stroke-linejoin:round;stroke-miterlimit:1.5;"
   id="svg9564"
   sodipodi:docname="empty nest.svg"
   inkscape:version="1.2.2 (732a01da63, 2022-12-09)"
   xmlns:inkscape="http://www.inkscape.org/namespaces/inkscape"
   xmlns:sodipodi="http://sodipodi.sourceforge.net/DTD/sodipodi-0.dtd"
   xmlns="http://www.w3.org/2000/svg"
   xmlns:svg="http://www.w3.org/2000/svg"><defs
     id="defs9568" /><sodipodi:namedview
     id="namedview9566"
     pagecolor="#ffffff"
     bordercolor="#000000"
     borderopacity="0.25"
     inkscape:showpageshadow="2"
     inkscape:pageopacity="0.0"
     inkscape:pagecheckerboard="0"
     inkscape:deskcolor="#d1d1d1"
     showgrid="false"
     inkscape:zoom="2.9996795"
     inkscape:cx="42.171171"
     inkscape:cy="59.673041"
     inkscape:window-width="1366"
     inkscape:window-height="697"
     inkscape:window-x="-8"
     inkscape:window-y="-8"
     inkscape:window-maximized="1"
     inkscape:current-layer="svg9564" /><g
     transform="matrix(1.3571322,0,0,1.3612507,-25.806856,-36.00222)"
     id="g9336"
     style="fill:#f28d5e;fill-opacity:1;stroke-width:0.790506"><path
       id="ellipse9334"
       style="fill:#f28d5e;fill-opacity:1;stroke:none;stroke-width:0.735159px"
       d="m 110.72374,81.509003 c 0,15.739009 -15.739253,28.497997 -44.549736,28.497997 -28.810485,0 -44.549741,-12.758987 -44.549742,-28.497997 -1e-6,-15.739011 15.739255,-28.498 44.549742,-28.498 28.810485,10e-7 44.549736,12.75899 44.549736,28.498 z"
       sodipodi:nodetypes="sssss" /></g><g
     transform="matrix(0.92156429,0,0,0.78569366,2.3764042,5.0806547)"
     id="g9340"
     style="fill:#6d4a41;stroke-width:0.733455"><path
       id="ellipse9338"
       style="fill:#6d4a41;stroke-width:0.733455"
       d="m 110.82516,81.509003 c 0,15.739009 -15.840673,28.497997 -44.651156,28.497997 -28.810485,0 -44.448318,-12.758987 -44.448319,-28.497997 -10e-7,-15.739011 15.637832,-28.498 44.448319,-28.498 28.810485,10e-7 44.651166,12.75899 44.651156,28.498 z"
       sodipodi:nodetypes="sssss" /></g><path
     style="fill:#f28d5e;fill-opacity:1;stroke-width:35.9054;stroke-linecap:round"
     d="m 3.5402947,74.95195 c 0,0 -0.1395254,-19.409278 7.6669673,-31.158588 4.623617,-6.958857 11.071083,-14.048883 13.39689,-12.498345 2.325803,1.550535 -8.714282,15.244355 -10.280317,24.859301"
     id="path9745"
     sodipodi:nodetypes="cssc" /><path
     style="fill:#f28d5e;fill-opacity:1;stroke-width:35.9054;stroke-linecap:round"
     d="m 124.45986,74.951948 c 0,0 0.0145,-25.231191 -18.77726,-46.61729 -7.27181,-8.276105 -17.065555,-15.78428 -20.132417,-13.739698 -3.066875,2.044582 9.770054,5.237847 20.030497,35.843982"
     id="path10179"
     sodipodi:nodetypes="cssc" /><path
     style="fill:#f28d5e;fill-opacity:1;stroke-width:35.9054;stroke-linecap:round"
     d="m 114.01206,49.62024 c 0,0 -8.86158,-14.703298 -31.90329,-21.287053 -8.91679,-2.547822 -19.269299,-3.403591 -20.509491,-0.559562 -1.240195,2.844027 12.399919,0.758277 27.884756,13.089314"
     id="path10963"
     sodipodi:nodetypes="cssc" /><path
     style="fill:#f28d5e;fill-opacity:1;stroke:none;stroke-width:35.9054;stroke-linecap:round"
     d="m 30.689862,86.929792 c 0,0 13.442513,-1.560756 26.325511,-4.000102 11.53606,-2.184313 22.62348,-5.372942 23.20885,-3.8774 1.24022,3.168621 -5.955122,7.691136 -21.984618,9.951898 -21.213354,2.991879 -29.862071,3.208449 -29.862071,3.208449 z"
     id="path10961"
     sodipodi:nodetypes="cssscc" /><path
     id="path13889"
     style="fill:#f28d5e;fill-opacity:1;stroke:none;stroke-width:0.99922px"
     d="m 4.0215799,69.53981 c -0.3121484,1.769951 -0.4814767,3.573309 -0.4814767,5.41138 1.3e-6,21.424696 21.3597838,38.79289 60.4593408,38.79289 39.099556,0 60.459336,-17.368195 60.459336,-38.79289 0,-1.838071 -0.16932,-3.641429 -0.48147,-5.41138 H 104.4932 c -0.32694,12.172347 -14.882591,21.972607 -41.132236,21.972607 -26.249645,0 -40.623645,-9.80026 -40.946451,-21.972607 z" /></svg>
