<?xml version="1.0" encoding="UTF-8" standalone="no"?>
<svg
   width="100%"
   height="100%"
   viewBox="0 0 128 128"
   version="1.1"
   xml:space="preserve"
   style="fill-rule:evenodd;clip-rule:evenodd;stroke-linecap:round;stroke-miterlimit:10;"
   id="svg52994"
   sodipodi:docname="face with peeking eye.svg"
   inkscape:version="1.3 (0e150ed6c4, 2023-07-21)"
   xmlns:inkscape="http://www.inkscape.org/namespaces/inkscape"
   xmlns:sodipodi="http://sodipodi.sourceforge.net/DTD/sodipodi-0.dtd"
   xmlns="http://www.w3.org/2000/svg"
   xmlns:svg="http://www.w3.org/2000/svg"><defs
   id="defs52998">&#10;        &#10;    &#10;        &#10;        &#10;    &#10;            &#10;        </defs><sodipodi:namedview
   id="namedview52996"
   pagecolor="#ffffff"
   bordercolor="#000000"
   borderopacity="0.25"
   inkscape:showpageshadow="2"
   inkscape:pageopacity="0.0"
   inkscape:pagecheckerboard="0"
   inkscape:deskcolor="#d1d1d1"
   showgrid="false"
   inkscape:zoom="2.9996795"
   inkscape:cx="57.172774"
   inkscape:cy="61.839939"
   inkscape:window-width="1366"
   inkscape:window-height="697"
   inkscape:window-x="-8"
   inkscape:window-y="-8"
   inkscape:window-maximized="1"
   inkscape:current-layer="svg52994"
   showguides="true" />&#10;    <path
   d="M63.79,8.64C1.48,8.64 0,78.5 0,92.33C0,106.16 28.56,117.36 63.79,117.36C99.03,117.36 127.58,106.15 127.58,92.33C127.58,78.5 126.11,8.64 63.79,8.64Z"
   style="fill:rgb(252,194,27);fill-rule:nonzero;"
   id="path52966" /><ellipse
   cx="-63.824356"
   cy="-79.16803"
   rx="16.610579"
   ry="15.500539"
   style="fill:#ffffff;stroke-width:1.00003"
   transform="matrix(-0.11059615,-0.99386543,-0.99386543,0.11059615,0,0)"
   id="ellipse47" />&#10;    &#10;    &#10;    &#10;    <path
   d="m 51.867302,81.476174 c 5.990005,3.184175 18.275408,3.184175 24.265413,0"
   style="fill:none;fill-rule:nonzero;stroke:#2f2f2f;stroke-width:5.24183px"
   id="path52980" />&#10;    <ellipse
   cx="-49.7145"
   cy="47.629322"
   rx="16.610579"
   ry="15.500539"
   style="fill:#ffffff;stroke-width:1.00003"
   transform="rotate(-83.650318)"
   id="ellipse1" /><g
   transform="matrix(0.20786823,-0.0544703,0.05569811,0.20328597,-40.401958,-1.7693962)"
   id="g15383"
   style="fill:none;fill-opacity:1;stroke:#2f2f2f;stroke-width:44.6395;stroke-dasharray:none;stroke-opacity:1">&#10;            <path
   d="m 304.392,422.333 c 2.433,2.167 4.758,-0.541 4.758,-0.541 0,0 38.921,-43.334 41.467,-45.284 3.587,-2.754 11.304,-7.125 19.333,0.75 3.333,3.267 8.854,10.6 -0.733,22.875 -2.059,2.646 -62.692,69.784 -66.246,73.404 0,0 -28.067,28.692 -45.188,39.663 -4.758,3.058 -10.108,6.275 -16.391,8.6 -6.25,2.321 -13.355,3.983 -20.884,4.179 -7.512,0.279 -15.35,-0.991 -22.8,-3.5 -7.433,-2.529 -14.421,-6.333 -20.766,-10.754 -1.567,-1.125 -3.134,-2.254 -4.625,-3.467 l -4.292,-3.341 c -2.925,-2.35 -5.742,-4.834 -8.446,-7.434 -5.271,-5.012 -10.142,-10.429 -14.567,-16.2 -4.295,-5.65 -7.466,-11.791 -10.904,-17.366 -5.933,-9.617 -8.716,-21.934 -9.883,-31.434 -2.613,-21.4 6.137,-43.475 6.137,-43.475 l 4.013,-7.425 c 14.033,-20.891 47.662,-56.804 47.662,-56.804 10.855,-12.754 22.446,-11.908 27.167,-8.687 13.6,9.271 9.958,21.816 0.342,33.187 l -31.863,34.763 c -1.616,3.762 3.196,7.896 6.3,5.25 9.729,-8.342 30.154,-31.138 30.154,-31.138 9.175,-9.229 60.75,-64.821 64.221,-68.212 6.959,-6.809 15.888,-10.459 22.859,-5.592 7.116,4.963 9.283,12.871 2.741,21.725 -1.775,2.396 -53.879,60.262 -53.879,60.262 -3.05,3.355 0.754,7.875 4.108,4.617 0,0 64.834,-71.083 67.767,-74.412 6.617,-7.563 17.513,-9.459 24.15,-3.546 6.483,5.775 6.575,15.541 -0.154,23.362 -2.15,2.479 -47.792,53.159 -66.075,73.888 -1.233,1.383 -2.154,3.221 -0.25,4.916 0.012,0.013 1.946,2.005 4.308,-0.645 4.959,-5.567 54.596,-59.925 57.367,-62.867 6.346,-6.754 14.992,-10.083 22.167,-3.846 6.562,5.692 7.85,15.896 0.654,23.304 l -60.084,66.755 c 0,0 -1.929,2.437 0.355,4.47 z"
   style="fill:none;fill-opacity:1;fill-rule:nonzero;stroke:#2f2f2f;stroke-width:44.6395;stroke-linecap:butt;stroke-miterlimit:4;stroke-dasharray:none;stroke-opacity:1"
   id="path15381" />&#10;        </g><path
   d="m 35.758878,54.647413 c 0.23,3.3 3.14,5.82 6.49,5.62 3.36,-0.19 5.9,-3.04 5.67,-6.34 -0.22,-3.31 -3.12,-5.82 -6.48,-5.62 -3.36,0.19 -5.91,3.04 -5.68,6.34"
   style="fill:#2f2f2f"
   id="path2" /><path
   id="path17023"
   style="color:#000000;clip-rule:nonzero;fill:#fcc21b;fill-rule:nonzero;stroke:none;stroke-width:0.7;stroke-linecap:butt;stroke-miterlimit:4;-inkscape-stroke:none"
   d="m 46.513524,38.98421 c -1.226964,0.01344 -2.494606,0.828561 -3.15625,2.144531 h -0.002 v 0.002 c -0.231692,0.456821 -2.700309,5.126504 -5.132813,9.726563 -2.432503,4.600056 -4.810546,9.095703 -4.810546,9.095703 l -0.0059,0.0098 -0.0059,0.0098 c -0.167031,0.273675 -0.4083,0.460238 -0.673828,0.523438 -0.265527,0.06319 -0.535434,0.0015 -0.744141,-0.136719 -0.417414,-0.276481 -0.603923,-0.880998 -0.310547,-1.4375 6.75e-4,-0.0013 1.90119,-3.650741 3.832031,-7.373047 0.965589,-1.861484 1.937598,-3.741103 2.683594,-5.191406 0.373,-0.72515 0.689954,-1.342923 0.919922,-1.796875 0.229818,-0.453653 0.389878,-0.786369 0.392578,-0.792969 0.408103,-1.015282 0.387653,-1.818588 0.09961,-2.439453 -0.288043,-0.620865 -0.859199,-1.088093 -1.669922,-1.375 -0.565753,-0.200528 -1.108273,-0.179274 -1.636719,0.01758 h -0.002 c -0.17615,0.06562 -0.350126,0.151212 -0.523438,0.253906 -0.693251,0.410775 -1.342304,1.116396 -1.853515,1.960938 -0.110071,0.181525 -0.702437,1.253242 -1.513672,2.736328 -0.811237,1.483086 -1.858168,3.403799 -2.931641,5.371093 -2.143264,3.927843 -4.381319,8.022348 -5.09375,9.238282 l -0.002,0.0039 -0.0078,0.01172 c -0.01495,0.02894 -2.953471,5.716559 -4.548828,7.996093 -0.175873,0.249751 -0.439738,0.402759 -0.707031,0.449219 -0.267293,0.04646 -0.534206,-0.0012 -0.769531,-0.109375 -0.47065,-0.216399 -0.855778,-0.715357 -0.767578,-1.310547 l 0.0098,-0.05664 4.708985,-8.84375 v -0.002 c 0.663827,-1.379321 0.987512,-2.713122 0.777344,-3.783204 -0.210325,-1.070857 -0.906458,-1.923605 -2.494141,-2.466796 -0.933442,-0.319763 -3.237185,-8.91e-4 -4.726563,3.066406 l -0.0039,0.0078 -0.0039,0.0078 c 0,0 -4.98367,9.134667 -6.7167966,14.080078 L 8.7127432,70.26546 c -0.00509,0.04448 -0.5558875,4.909813 1.125,8.986328 0.7600728,1.839471 2.0123078,4.155076 3.7187498,5.728515 1.03863,0.958473 2.031281,2.023321 3.207031,2.914068 1.226322,0.92083 2.524547,1.74776 3.882812,2.4707 h 0.002 c 0.696399,0.37559 1.409423,0.72158 2.136718,1.03515 l 0.0039,0.002 0.002,0.002 1.076172,0.44336 0.0039,0.0019 c 0.363389,0.15919 0.744411,0.30072 1.130859,0.44336 1.539678,0.5441 3.171403,0.92843 4.816407,1.03516 h 0.002 c 1.64904,0.10167 3.307874,-0.06395 4.80664,-0.51563 h 0.002 0.002 c 1.509767,-0.4371 2.860425,-1.14358 4.003906,-1.9375 1.143187,-0.79178 2.057611,-1.71659 2.871094,-2.59179 v -0.002 C 44.38309,85.193857 48.64243,77.8221 48.64243,77.8221 v -0.002 c 0.112727,-0.195066 0.782671,-1.454053 1.69336,-3.183594 0.910692,-1.72954 2.079276,-3.956497 3.238281,-6.173828 1.159006,-2.217333 2.308913,-4.424613 3.1875,-6.11914 0.439292,-0.847263 0.810252,-1.56712 1.080078,-2.09375 0.269827,-0.526631 0.452414,-0.895048 0.464844,-0.923828 0.628342,-1.448317 0.551966,-2.384142 0.261719,-3.021485 -0.29025,-0.637343 -0.823284,-1.007794 -1.230469,-1.232422 -0.975929,-0.538776 -1.700195,-0.491959 -2.289063,-0.251953 -0.588869,0.240008 -1.039858,0.707882 -1.316406,1.060547 v 0.002 c 0.0076,-0.0097 -0.159657,0.252458 -0.353516,0.59961 -0.193858,0.347152 -0.448941,0.818145 -0.74414,1.367187 -0.590397,1.098089 -1.340541,2.513008 -2.076172,3.912109 -1.469538,2.794925 -2.883419,5.517038 -2.886719,5.523438 -2.29e-4,4.96e-4 -0.107145,0.22906 -0.337891,0.416016 -0.230995,0.187155 -0.668991,0.324038 -1.097656,0.113281 -0.400977,-0.196991 -0.567565,-0.576192 -0.578125,-0.849609 -0.01056,-0.273415 0.08984,-0.486329 0.08984,-0.486329 l 0.0039,-0.0098 8.779297,-16.859375 0.0039,-0.0059 c 0.993752,-1.741174 0.232149,-3.500789 -1.28125,-4.220703 v -0.002 c -0.828132,-0.394987 -1.544732,-0.332371 -2.210937,0.01563 -0.666205,0.347999 -1.267576,1.010959 -1.714844,1.826172 v 0.002 c -0.380691,0.691853 -7.712083,14.519778 -8.419922,15.896485 -0.21306,0.414079 -0.569542,0.609256 -0.855469,0.623046 -0.264693,0.01276 -0.455438,-0.09355 -0.486328,-0.111328 -0.321111,-0.161933 -0.520815,-0.456282 -0.546875,-0.738281 -0.02627,-0.284329 0.06914,-0.526814 0.173829,-0.730469 1.324284,-2.607534 3.651868,-7.106972 5.6875,-11.033203 2.035356,-3.925691 3.796846,-7.312964 3.93164,-7.583984 0.899252,-1.826671 0.384318,-3.562366 -1.109375,-4.296875 C 47.3271,39.064969 46.922512,38.97973 46.513524,38.98421 Z" />&#10;<g
   transform="matrix(0.42573738,-0.1352809,0.13833025,0.41635241,0.91519136,59.034542)"
   id="g15460"
   style="fill:none;stroke:#2f2f2f;stroke-width:21.46;stroke-dasharray:none;stroke-opacity:1">&#10;            <path
   d="m 239.59097,100.72371 c -3.88525,-1.009658 -8.60255,1.34268 -10.38955,8.15968 -2.256,8.607 -3.41348,18.7833 -6.06278,17.92249 -2.17875,-0.70792 -1.04722,-6.48049 -1.04722,-6.48049 0.15,-4.04 2.65,-18.79 3.13,-21.429994 0.83,-4.19 8.14779,-22.036899 9.78873,-29.130912 1.59006,-6.873987 -0.27553,-10.067895 -4.91553,-11.527895 -4.5,-1.41 -8.49264,1.385111 -9.47479,4.370069 -2.33477,7.095857 -8.11124,28.549155 -10.22633,35.803784 -0.90374,3.099758 -5.31367,1.386202 -4.42677,-1.660003 0.0887,-0.304563 8.62446,-30.496849 10.37472,-38.479497 1.98031,-9.031897 -3.66873,-14.06589 -9.38873,-13.42589 -5.17,0.59 -6.93901,6.629 -8.53001,12.99 -0.888,3.55 -5.779,22.791 -9.209,37.271 -2.77,4.23 -6.25,0.63 -6.25,0.63 -7.9751,-18.76916 -9.56222,-24.224013 -12.03375,-29.415863 -3.73019,-7.835849 -7.05698,-10.727979 -11.40996,-9.293881 -4.35299,1.434099 -5.97995,5.445587 -3.43564,13.338096 2.95156,9.155807 6.91578,20.684653 11.03935,30.771646 1.36679,3.34342 -3.11341,5.22319 -4.41875,2.24694 -0.66369,-1.51326 -7.00802,-21.0276 -9.87333,-28.171476 -0.90845,-2.264956 -5.40884,-5.747073 -9.78724,-4.419112 -4.1,1.14 -4.92529,6.349394 -4.00529,9.759394 1.09,4.02 4.80512,14.852782 8.77644,25.571964 2.49589,6.73679 5.99817,14.34229 7.49817,24.76229 2.85,19.76999 7.05,28.74999 15.32,33.20999 13.55,7.24 34.85771,12.30934 49.99771,1.78934 3.45,-2.39 6.71,-6.47 9.74,-9.41 0.47,-0.45 5.353,-6.531 7.447,-14.722 2.92,-11.42199 12.70734,-38.18805 1.77255,-41.02967 z"
   style="fill:none;fill-opacity:1;fill-rule:nonzero;stroke:#2f2f2f;stroke-width:21.46;stroke-linecap:butt;stroke-linejoin:round;stroke-miterlimit:2;stroke-dasharray:none;stroke-opacity:1"
   id="path15458"
   sodipodi:nodetypes="sccccscssssccccszssssccsccccss" />&#10;        </g><path
   d="m 91.821122,54.647413 c -0.23,3.3 -3.14,5.82 -6.49,5.62 -3.36,-0.19 -5.9,-3.04 -5.67,-6.34 0.22,-3.31 3.12,-5.82 6.48,-5.62 3.36,0.19 5.91,3.04 5.68,6.34"
   style="fill:#2f2f2f"
   id="path48" /><g
   transform="matrix(0.42573738,-0.1352809,0.13833025,0.41635241,0.91519136,59.034542)"
   id="g52986"
   style="stroke:none;stroke-width:0.451788;stroke-dasharray:none;stroke-opacity:1">&#10;            <path
   d="m 239.59097,100.72371 c -3.88525,-1.009658 -8.60255,1.34268 -10.38955,8.15968 -2.256,8.607 -3.41348,18.7833 -6.06278,17.92249 -2.17875,-0.70792 -1.04722,-6.48049 -1.04722,-6.48049 0.15,-4.04 1.71985,-11.71421 4.63391,-22.14238 2.91405,-10.428169 6.64388,-21.324513 8.28482,-28.418526 1.59006,-6.873987 -0.27553,-10.067895 -4.91553,-11.527895 -4.5,-1.41 -8.49264,1.385111 -9.47479,4.370069 -2.33477,7.095857 -8.11124,28.549155 -10.22633,35.803784 -0.90374,3.099758 -5.31367,1.386202 -4.42677,-1.660003 0.0887,-0.304563 8.62446,-30.496849 10.37472,-38.479497 1.98031,-9.031897 -3.66873,-14.06589 -9.38873,-13.42589 -5.17,0.59 -6.93901,6.629 -8.53001,12.99 -0.888,3.55 -5.779,22.791 -9.209,37.271 -2.77,4.23 -6.25,0.63 -6.25,0.63 -7.9751,-18.76916 -9.56222,-24.224013 -12.03375,-29.415863 -3.73019,-7.835849 -7.05698,-10.727979 -11.40996,-9.293881 -4.35299,1.434099 -5.97995,5.445587 -3.43564,13.338096 2.95156,9.155807 6.91578,20.684653 11.03935,30.771646 1.36679,3.34342 -3.11341,5.22319 -4.41875,2.24694 -0.66369,-1.51326 -7.00802,-21.0276 -9.87333,-28.171476 -0.90845,-2.264956 -5.40884,-5.747073 -9.78724,-4.419112 -4.1,1.14 -4.92529,6.349394 -4.00529,9.759394 1.09,4.02 4.80512,14.852782 8.77644,25.571964 2.49589,6.73679 5.99817,14.34229 7.49817,24.76229 2.85,19.76999 7.05,28.74999 15.32,33.20999 13.55,7.24 34.85771,12.30934 49.99771,1.78934 3.45,-2.39 6.71,-6.47 9.74,-9.41 0.47,-0.45 5.353,-6.531 7.447,-14.722 2.92,-11.42199 12.70734,-38.18805 1.77255,-41.02967 z"
   style="fill:#fcc21b;fill-opacity:1;fill-rule:nonzero;stroke:none;stroke-width:0.451788;stroke-linecap:butt;stroke-linejoin:round;stroke-miterlimit:2;stroke-dasharray:none;stroke-opacity:1"
   id="path52984"
   sodipodi:nodetypes="sccczscssssccccszssssccsccccss" />&#10;        </g></svg>
