<?xml version="1.0" encoding="UTF-8" standalone="no"?>
<svg
   width="128"
   height="128"
   style="enable-background:new 0 0 128 128;"
   version="1.1"
   id="svg36"
   sodipodi:docname="face holding back tears.svg"
   inkscape:version="1.3 (0e150ed6c4, 2023-07-21)"
   xmlns:inkscape="http://www.inkscape.org/namespaces/inkscape"
   xmlns:sodipodi="http://sodipodi.sourceforge.net/DTD/sodipodi-0.dtd"
   xmlns="http://www.w3.org/2000/svg"
   xmlns:svg="http://www.w3.org/2000/svg">
  <defs
     id="defs40">
    <clipPath
       clipPathUnits="userSpaceOnUse"
       id="clipPath10">
      <path
         d="M 38.754534,86.654719 C 50.900846,86.745362 60.855953,76.977821 60.99122,64.853371 61.126486,52.683593 51.387785,42.757405 39.24147,42.666758 27.122208,42.576128 17.140046,52.343655 17.004786,64.51343 c -0.13527,12.147114 9.630486,22.050639 21.749748,22.141289 z"
         style="fill:#ffffff;stroke-width:0.999998"
         id="path11"
         sodipodi:nodetypes="ccccc" />
    </clipPath>
    <clipPath
       clipPathUnits="userSpaceOnUse"
       id="clipPath13">
      <path
         d="M 39.24148,86.645976 C 27.095168,86.736619 17.140058,76.969078 17.004798,64.844628 16.869528,52.67485 26.608228,42.748662 38.754544,42.658015 c 12.11926,-0.09063 22.10142,9.676897 22.23668,21.846672 0.13527,12.147114 -9.63048,22.050639 -21.749744,22.141289 z"
         style="fill:#ffffff;stroke-width:0.999998"
         id="path15"
         sodipodi:nodetypes="ccccc" />
    </clipPath>
  </defs>
  <sodipodi:namedview
     id="namedview38"
     pagecolor="#ffffff"
     bordercolor="#000000"
     borderopacity="0.25"
     inkscape:showpageshadow="2"
     inkscape:pageopacity="0.0"
     inkscape:pagecheckerboard="0"
     inkscape:deskcolor="#d1d1d1"
     showgrid="false"
     inkscape:zoom="1.4998398"
     inkscape:cx="19.668767"
     inkscape:cy="133.01421"
     inkscape:window-width="1366"
     inkscape:window-height="697"
     inkscape:window-x="-8"
     inkscape:window-y="-8"
     inkscape:window-maximized="1"
     inkscape:current-layer="svg36" />
  <path
     d="m 64,9.56 c -62.41,0 -63.88,69.96 -63.88,83.8 0,13.86 28.59,25.08 63.88,25.08 35.28,0 63.88,-11.22 63.88,-25.08 0,-13.84 -1.48,-83.8 -63.88,-83.8 z"
     style="fill:#fcc21b"
     id="path14" />
  <path
     d="M 38.754534,86.654719 C 50.900846,86.745362 60.855953,76.977821 60.99122,64.853371 61.126486,52.683593 51.387785,42.757405 39.24147,42.666758 27.122208,42.576128 17.140046,52.343655 17.004786,64.51343 c -0.13527,12.147114 9.630486,22.050639 21.749748,22.141289 z"
     style="fill:#ffffff;stroke-width:0.999998"
     id="path16" />
  <g
     id="g6"
     transform="matrix(1.0835017,0,0,1.0835017,-3.87023,-3.7413071)"
     style="stroke-width:0.922934">
    <path
       d="M 39.763768,79.259477 C 29.83707,79.333557 21.70116,71.350933 21.59061,61.442102 21.48007,51.49623 29.439118,43.383951 39.365818,43.309869 c 9.904589,-0.07408 18.06261,7.908542 18.173153,17.854414 0.110558,9.927354 -7.870613,18.021109 -17.775203,18.095194 z"
       style="fill:#2f2f2f;fill-opacity:1;stroke-width:0.922932"
       id="path384" />
    <path
       id="ellipse5"
       style="fill:#ffffff;stroke-width:0.92289"
       d="m 50.721571,66.527314 a 3.8936537,4.2181244 49.989747 0 1 -0.72746,5.6942 3.8936537,4.2181244 49.989747 0 1 -5.73411,-0.270327 3.8936537,4.2181244 49.989747 0 1 0.727459,-5.6942 3.8936537,4.2181244 49.989747 0 1 5.734111,0.270327 z" />
    <path
       id="ellipse6"
       style="fill:#ffffff;stroke-width:0.922961"
       d="M 44.924478,50.324816 A 8.9198344,10.997056 53.338654 0 1 41.428766,64.046284 8.9198344,10.997056 53.338654 0 1 27.28127,63.45715 8.9198344,10.997056 53.338654 0 1 30.776983,49.735685 8.9198344,10.997056 53.338654 0 1 44.924478,50.324816 Z" />
  </g>
  <path
     d="M 89.245456,86.654719 C 77.099144,86.745362 67.144034,76.977821 67.008774,64.853371 66.873504,52.683593 76.612204,42.757405 88.75852,42.666758 c 12.11926,-0.09063 22.10142,9.676897 22.23668,21.846672 0.13527,12.147114 -9.63048,22.050639 -21.749744,22.141289 z"
     style="fill:#ffffff;stroke-width:0.999998"
     id="path2" />
  <g
     id="g7"
     transform="matrix(1.0835017,0,0,1.0835017,-6.8177149,-3.7413071)"
     style="stroke-width:0.922934">
    <path
       d="M 88.63419,79.259477 C 78.707492,79.333557 70.571582,71.350933 70.461032,61.442102 70.350492,51.49623 78.30954,43.383951 88.23624,43.309869 c 9.904589,-0.07408 18.06261,7.908542 18.17315,17.854414 0.11056,9.927354 -7.87061,18.021109 -17.7752,18.095194 z"
       style="fill:#2f2f2f;fill-opacity:1;stroke-width:0.922932"
       id="path3" />
    <path
       id="path4"
       style="fill:#ffffff;stroke-width:0.92289"
       d="m 99.591993,66.527314 a 3.8936537,4.2181244 49.989747 0 1 -0.72746,5.6942 3.8936537,4.2181244 49.989747 0 1 -5.73411,-0.270327 3.8936537,4.2181244 49.989747 0 1 0.727459,-5.6942 3.8936537,4.2181244 49.989747 0 1 5.734111,0.270327 z" />
    <path
       id="path5"
       style="fill:#ffffff;stroke-width:0.922961"
       d="M 93.7949,50.324816 A 8.9198344,10.997056 53.338654 0 1 90.299188,64.046284 8.9198344,10.997056 53.338654 0 1 76.151692,63.45715 8.9198344,10.997056 53.338654 0 1 79.647405,49.735685 8.9198344,10.997056 53.338654 0 1 93.7949,50.324816 Z" />
  </g>
  <path
     d="m 49.702809,93.995869 c 8.735807,5.517122 19.858582,5.517122 28.594389,0"
     fill="none"
     stroke="#2f2f2f"
     stroke-width="5.99999"
     stroke-linecap="round"
     stroke-linejoin="round"
     stroke-miterlimit="10"
     id="path7" />
  <ellipse
     style="fill:#fcc21b;fill-opacity:1;stroke-width:6.00036;stroke-linecap:round"
     id="path8"
     cx="20.338797"
     cy="52.2556"
     rx="23.143875"
     ry="7.6897607"
     transform="matrix(0.92703142,-0.37498367,0.36066566,0.93269517,0,0)" />
  <ellipse
     style="fill:#fcc21b;fill-opacity:1;stroke-width:6.00036;stroke-linecap:round"
     id="ellipse9"
     cx="-99.060341"
     cy="4.2520013"
     rx="23.143875"
     ry="7.6897607"
     transform="matrix(-0.92703142,-0.37498367,-0.36066566,0.93269517,0,0)" />
  <path
     style="opacity:1;fill:#baebf5;fill-opacity:1;stroke-width:6;stroke-linecap:round"
     d="m 21.505555,73.008636 c 3.497588,-0.51326 5.704439,1.914163 8.903443,2.225431 3.241045,0.315359 4.701195,-1.911938 9.30669,-1.694636 4.436278,0.209318 5.204345,2.868419 8.052753,2.946697 4.878268,0.134064 5.648319,-2.72644 10.172143,-2.520257 4.014286,0.182961 5.662207,3.169776 5.40886,6.59369 -0.48788,6.593546 -7.556542,15.041573 -23.338783,14.886655 -15.78224,-0.154918 -24.624462,-4.614476 -25.058043,-14.027173 -0.06976,-1.514682 0.513805,-3.67391 0.77649,-4.286486 0.908546,-2.118699 3.046938,-3.723377 5.776447,-4.123921 z"
     id="path9"
     sodipodi:nodetypes="sssssszsss"
     clip-path="url(#clipPath10)" />
  <path
     style="opacity:1;fill:#baebf5;fill-opacity:1;stroke-width:6;stroke-linecap:round"
     d="m 27.93386,75.351931 c 3.241045,0.315359 4.701195,-0.969028 9.30669,-0.751726 4.436278,0.209318 6.341311,2.675588 9.189719,2.753866 4.878268,0.134064 5.572126,-2.887201 10.09595,-2.681018 4.014286,0.182961 6.251526,3.523367 5.998179,6.947281 -0.48788,6.593546 -6.731496,13.9808 -22.513737,13.825882 -15.78224,-0.154918 -25.2912,-3.864396 -25.724781,-13.277093 -0.06976,-1.514682 0.355497,-4.895445 0.618178,-5.508021 0.908546,-2.118699 1.839068,-3.416739 4.985965,-3.416739 3.146896,0 4.844833,1.7963 8.043837,2.107568 z"
     id="path12"
     sodipodi:nodetypes="ssssszssss"
     clip-path="url(#clipPath13)"
     transform="translate(50.003976,0.00874298)" />
</svg>
