<?xml version="1.0" encoding="UTF-8" standalone="no"?>
<svg
   width="100%"
   height="100%"
   viewBox="0 0 534 534"
   version="1.1"
   xml:space="preserve"
   style="fill-rule:evenodd;clip-rule:evenodd;"
   id="svg19046"
   sodipodi:docname="face with open eyes and hand over mouth.svg"
   inkscape:version="1.2.2 (732a01da63, 2022-12-09)"
   xmlns:inkscape="http://www.inkscape.org/namespaces/inkscape"
   xmlns:sodipodi="http://sodipodi.sourceforge.net/DTD/sodipodi-0.dtd"
   xmlns="http://www.w3.org/2000/svg"
   xmlns:svg="http://www.w3.org/2000/svg"><defs
     id="defs19050" /><sodipodi:namedview
     id="namedview19048"
     pagecolor="#ffffff"
     bordercolor="#000000"
     borderopacity="0.25"
     inkscape:showpageshadow="2"
     inkscape:pageopacity="0.0"
     inkscape:pagecheckerboard="0"
     inkscape:deskcolor="#d1d1d1"
     showgrid="false"
     inkscape:zoom="0.71902431"
     inkscape:cx="65.366357"
     inkscape:cy="294.84399"
     inkscape:window-width="1366"
     inkscape:window-height="697"
     inkscape:window-x="-8"
     inkscape:window-y="-8"
     inkscape:window-maximized="1"
     inkscape:current-layer="svg19046" /><path
     d="M265.833,39.458c-260.5,0 -266.666,292 -266.666,349.792c-0,57.833 119.375,104.625 266.666,104.625c147.292,0 266.625,-46.792 266.625,-104.625c0,-57.792 -6.166,-349.792 -266.625,-349.792Z"
     style="fill:#fcc21b;fill-rule:nonzero;"
     id="path18948" /><path
     d="m 294.32598,419.00584 c 1.98997,1.77041 3.8916,-0.44199 3.8916,-0.44199 0,0 31.83369,-35.40334 33.91607,-36.99647 2.93383,-2.24997 9.24561,-5.82104 15.81257,0.61275 2.72607,2.6691 7.24173,8.66006 -0.59953,18.68858 -1.68406,2.16176 -51.27612,57.01267 -54.18295,59.97098 0,0 -22.95615,23.44019 -36.9595,32.40336 -3.8916,2.49836 -8.2674,5.1266 -13.4063,7.0261 -5.1119,1.89623 -10.92312,3.25406 -17.08113,3.41418 -6.1441,0.22794 -12.55484,-0.80962 -18.64824,-2.85944 -6.07949,-2.06617 -11.79501,-5.17399 -16.98462,-8.78589 -1.28166,-0.91912 -2.56331,-1.84149 -3.78281,-2.8325 l -3.51045,-2.72955 c -2.39156,-1.92075 -4.69642,-3.94769 -6.90803,-6.07349 -4.31036,-4.09392 -8.29438,-8.51955 -11.91443,-13.23519 -3.5129,-4.61599 -6.10648,-9.63311 -8.91843,-14.18782 -4.85263,-7.85696 -7.12887,-17.9198 -8.08337,-25.68118 -2.13718,-17.48354 5.0195,-35.51854 5.0195,-35.51854 l 3.28225,-6.06613 c 11.47766,-17.06769 38.98299,-46.40817 38.98299,-46.40817 8.87837,-10.41986 18.35871,-9.72869 22.22004,-7.09717 11.12351,7.5743 8.1447,17.8234 0.27973,27.11337 l -26.06092,28.40095 c -1.32174,3.0735 2.61402,6.45093 5.15281,4.28917 7.95739,-6.81531 24.66311,-25.43936 24.66311,-25.43936 7.50428,-7.53997 49.68774,-52.95794 52.52669,-55.72835 5.69181,-5.56287 12.99488,-8.54488 18.6965,-4.5686 5.82022,4.05471 7.59262,10.51545 2.24189,17.74906 -1.4518,1.95751 -44.06793,49.23412 -44.06793,49.23412 -2.49461,2.74017 0.6167,6.43378 3.35995,3.77121 0,0 53.02807,-58.07393 55.427,-60.79367 5.41208,-6.17888 14.32396,-7.72789 19.75241,-2.89704 5.3033,4.71811 5.37772,12.69762 -0.12596,19.08646 -1.7585,2.02614 -39.08933,43.43025 -54.04309,60.36558 -1.00849,1.1299 -1.76177,2.63152 -0.20447,4.01713 0.0101,0.0101 1.59164,1.63725 3.52353,-0.52778 4.05599,-4.54816 44.65435,-48.95798 46.92077,-51.36156 5.19043,-5.51793 12.26203,-8.23768 18.13051,-3.14213 5.36709,4.65029 6.42055,12.98683 0.53491,19.03908 l -49.14303,54.53801 c 0,0 -1.57774,1.99099 0.29036,3.65193 z"
     style="fill:none;fill-rule:nonzero;stroke:#2f2f2f;stroke-width:44.031;stroke-dasharray:none;stroke-opacity:1"
     id="path19169" /><path
     id="path19044"
     style="fill:#fac036;fill-rule:nonzero;stroke:none;stroke-width:12.5px"
     d="m 285.48047,306.46289 c -4.12127,0.28106 -7.72936,2.71362 -10.67172,5.45091 -4.09079,4.14882 -8.01537,8.45968 -12.01775,12.69376 -13.07712,13.92613 -26.06556,27.93177 -39.26823,41.73788 -3.0953,3.16813 -5.97579,6.53756 -9.03086,9.74492 -5.39071,5.75616 -10.78747,11.52659 -16.6395,16.82111 -1.17323,1.22664 -2.87658,2.0507 -4.5985,1.72134 -3.28842,-0.4838 -5.74203,-4.2389 -4.51204,-7.41209 0.33074,-1.02132 1.32597,-1.63598 1.9624,-2.47056 8.23253,-8.9875 16.49841,-17.94598 24.71012,-26.9516 2.91532,-3.53269 5.60897,-7.56187 6.25799,-12.19295 0.45837,-3.10901 -0.62354,-6.32761 -2.73468,-8.63232 -1.39942,-1.51162 -2.98692,-2.95248 -4.89473,-3.77993 -4.06056,-1.47858 -8.60578,-0.23953 -12.14435,1.9901 -2.68974,1.6392 -4.86221,3.94902 -6.9312,6.28976 -8.33017,8.99189 -16.54442,18.22719 -24.42482,27.66426 -4.75811,5.76764 -9.49604,11.57906 -13.66118,17.7943 -1.05621,2.02706 -2.24165,3.99525 -3.21536,6.05989 -2.87328,8.07836 -4.69039,16.57143 -5.05006,25.14867 -0.30476,6.97853 0.83653,13.9476 2.64732,20.66851 1.38947,5.07322 3.4117,9.99405 6.27505,14.41975 3.06435,5.15424 5.96364,10.45565 9.85951,15.04982 5.81809,7.1697 12.51045,13.6314 19.8995,19.16975 8.19061,6.51623 17.74576,11.62672 28.12633,13.47153 0.92553,0.1636 1.96294,0.32746 2.76243,0.41955 7.39944,0.94318 14.98556,0.0766 22.04824,-2.28847 1.03684,-0.34893 2.31209,-0.80233 3.41428,-1.26312 1.24012,-0.5063 2.46957,-1.07281 3.57988,-1.63504 6.28172,-3.19339 12.08695,-7.25118 17.50622,-11.74074 9.45825,-7.81535 18.35406,-16.28778 27.00743,-24.97829 9.49063,-10.27036 18.83425,-20.67567 28.22535,-31.03723 8.53133,-9.47344 17.11321,-18.90258 25.54775,-28.4623 2.21302,-2.75376 4.21611,-6.03728 4.2144,-9.68129 -0.006,-3.43687 -2.38651,-6.34658 -5.09265,-8.20873 -2.23478,-1.60586 -5.26075,-1.96165 -7.80048,-0.89432 -1.93088,0.74443 -3.6605,1.96286 -5.00748,3.53405 -7.80685,8.26068 -15.38512,16.71502 -23.01889,25.12454 -3.1678,3.4742 -6.26889,7.0015 -9.46265,10.45078 -1.48183,1.47444 -3.98305,1.96 -5.75184,0.7038 -1.78685,-1.10222 -2.69769,-3.46127 -1.88959,-5.43966 0.57888,-1.64652 2.06467,-2.70633 3.11871,-4.03344 15.93284,-17.69384 31.89055,-35.36739 47.80799,-53.07377 2.45085,-2.9642 3.25699,-7.25306 1.76052,-10.83563 -1.30977,-3.2394 -4.24322,-6.0821 -7.82501,-6.46184 -3.62637,-0.31653 -6.96626,1.72849 -9.52841,4.10572 -2.72298,2.73271 -5.2461,5.65946 -7.88061,8.47749 -13.49615,14.73816 -26.974,29.4931 -40.42693,44.27012 -1.35235,1.46404 -3.73486,1.93119 -5.42378,0.77031 -1.67688,-1.04502 -2.63704,-3.24751 -1.86621,-5.13822 0.73596,-1.90326 2.41391,-3.20059 3.65808,-4.75892 17.15214,-19.31208 34.46817,-38.47811 51.69642,-57.722 2.72786,-3.10986 4.42198,-7.50362 3.26259,-11.61785 -1.0206,-3.81265 -4.58775,-6.79503 -8.55399,-6.97879 -4.5315,-0.32196 -8.91003,2.0679 -11.74216,5.50432 -18.32132,20.17705 -36.72417,40.27879 -55.08754,60.41849 -1.40444,1.48582 -3.83736,2.0263 -5.60351,0.86328 -2.1699,-1.32287 -2.70234,-4.47221 -1.29883,-6.53906 1.23419,-1.68325 2.76811,-3.12955 4.12327,-4.71678 13.23778,-14.7357 26.53788,-29.41636 39.6507,-44.2636 2.20681,-2.50344 3.96395,-5.80294 3.5543,-9.23534 -0.43021,-3.28693 -2.965,-5.94315 -5.82827,-7.3917 -1.18417,-0.54164 -2.49539,-0.76354 -3.79297,-0.70313 z" /><g
     id="g25218"
     style="clip-rule:evenodd;fill-rule:evenodd"
     transform="translate(-0.85447293,-7.0428698)"><path
       d="m 175.022,276.958 c -18.708,0.167 -34.042,-17.791 -34.25,-40.083 -0.208,-22.375 14.792,-40.625 33.5,-40.792 18.667,-0.166 34.042,17.792 34.25,40.167 0.208,22.333 -14.792,40.542 -33.5,40.708 z m 183.792,0 c 18.666,-0.041 33.791,-18.166 33.75,-40.458 -0.042,-22.375 -15.25,-40.417 -33.917,-40.375 -18.708,0.042 -33.875,18.167 -33.833,40.542 0.083,22.291 15.291,40.333 34,40.291 z"
       style="fill:#2f2f2f;fill-rule:nonzero"
       id="path25216" /></g></svg>
