<?xml version="1.0" encoding="UTF-8" standalone="no"?>
<svg
   width="100%"
   height="100%"
   viewBox="0 0 128 128"
   version="1.1"
   xml:space="preserve"
   style="fill-rule:evenodd;clip-rule:evenodd;stroke-linejoin:round;stroke-miterlimit:2;"
   id="svg26489"
   sodipodi:docname="face in clouds.svg"
   inkscape:version="1.2.2 (732a01da63, 2022-12-09)"
   xmlns:inkscape="http://www.inkscape.org/namespaces/inkscape"
   xmlns:sodipodi="http://sodipodi.sourceforge.net/DTD/sodipodi-0.dtd"
   xmlns="http://www.w3.org/2000/svg"
   xmlns:svg="http://www.w3.org/2000/svg"
   xmlns:serif="http://www.serif.com/"><defs
   id="defs26493">
        
        
    
        
        
    
        
        
    
            
        
        
        
    
        
        
    </defs><sodipodi:namedview
   id="namedview26491"
   pagecolor="#ffffff"
   bordercolor="#000000"
   borderopacity="0.25"
   inkscape:showpageshadow="2"
   inkscape:pageopacity="0.0"
   inkscape:pagecheckerboard="0"
   inkscape:deskcolor="#d1d1d1"
   showgrid="false"
   inkscape:zoom="2"
   inkscape:cx="18.5"
   inkscape:cy="88"
   inkscape:window-width="1366"
   inkscape:window-height="697"
   inkscape:window-x="-8"
   inkscape:window-y="-8"
   inkscape:window-maximized="1"
   inkscape:current-layer="svg26489" />
    <path
   style="fill:#e6e6e6;stroke:none;stroke-width:9;stroke-linecap:round"
   d="M 0,31.109375 V 86.996231 L 9.5901357,85.86928 13.081475,89.183843 31.875,82.5 45,91.5 l 12.75,1.75 3.125,7.625 7.625,2.875 7.125,-15.125 19.5,-6.125 11.25,-2.75 6.125,3.375 14.38147,-0.437701 L 128,83.228678 V 31.964844 l -2.40016,1.799505 -7.75608,3.18198 -8.77254,-1.06066 -4.24264,-0.53033 -8.308505,4.065864 -10.076271,-6.187184 -8.662058,-0.883884 -5.656855,-9.192388 -6.540737,-1.944544 -0.883884,-6.363961 -9.899495,5.303301 -4.77297,9.899495 -22.450641,3.712311 -7.247844,1.414213 -5.833631,-3.358757 -8.518427,2.298097 -4.7398251,-1.82301 -1.1600971,-1.104854 z"
   id="path4476" /><path
   id="rect22817"
   style="fill:#ffffff;stroke-width:0.7;stroke-linecap:round"
   d="m 0,0 v 31.009766 c 3.8581655,4.046013 12.6675,1.883947 14.285156,-0.833985 0.172782,-0.299266 0.411638,-0.673306 0.703125,-0.722656 0.253941,-0.0393 0.539503,0.172738 0.824219,0.441406 1.49054,1.400152 5.395098,3.849216 10.771484,2.736328 5.485111,-1.136267 8.418146,-4.204246 9.628907,-5.822265 0.275366,-0.367003 0.507198,-0.659681 0.800781,-0.744141 0.288229,-0.08298 0.317373,-0.07895 1.070312,0.15625 1.983989,0.624007 6.094571,1.460195 9.623047,-0.755859 3.385853,-2.126095 4.377175,-5.422337 4.66211,-7.0625 0.08033,-0.429729 0.112971,-0.611336 0.251953,-0.757813 0.157563,-0.162954 0.236228,-0.230785 0.83789,-0.259765 2.223501,-0.112842 7.656088,-0.78575 9.671875,-4.677735 1.021446,-1.981246 1.204139,-7.2614584 -1.474609,-8.8261716 2.919237,1.0460787 5.119511,3.7671355 5.863281,6.4999996 0.05593,0.20872 0.09329,0.418026 0.134766,0.626953 0.0892,-0.03636 0.172785,-0.08462 0.263672,-0.117187 -0.08925,0.05213 -0.168206,0.118116 -0.25,0.179687 0.458875,2.393796 -0.01344,4.778046 -1.191407,6.748047 0.06253,0.181288 0.12901,0.352337 0.203126,0.496094 1.69497,3.272582 6.261226,3.838711 8.130859,3.933594 0.505909,0.02437 0.572597,0.07978 0.705078,0.216797 0.116865,0.123163 0.1434,0.275385 0.210937,0.636718 0.239597,1.379139 1.072922,4.151722 3.919922,5.939454 2.966927,1.863373 6.423557,1.159464 8.091797,0.634765 0.633113,-0.197768 0.658032,-0.200633 0.900391,-0.130859 0.246861,0.07101 0.442283,0.316407 0.673828,0.625 1.01807,1.360517 3.48354,3.941049 8.095703,4.896484 4.520747,0.935772 7.805267,-1.123462 9.058597,-2.300781 0.2394,-0.225915 0.47984,-0.404136 0.69336,-0.371094 0.2451,0.0415 2.4478,2.576172 8.66992,2.576172 6.58285,0 9.65787,-1.185128 12.16992,-3.152344 V 0 Z m 103.82227,84.541016 c -0.49687,-0.02328 -1.01487,-0.01331 -1.55274,0.03711 -4.484502,0.420013 -7.462459,3.841308 -8.753905,5.681641 -0.491179,0.697034 -0.51262,0.719478 -0.814453,0.83789 -0.30738,0.120707 -0.700109,0.02236 -1.177734,-0.111328 -2.102932,-0.591548 -6.635219,-1.29348 -12.087891,1.339844 -5.34403,2.581866 -7.083793,7.250103 -7.441406,9.431638 -0.05622,0.34791 -0.145331,0.65382 -0.3125,0.82617 4.73162,2.55754 7.280847,8.09984 5.828125,13.52149 -0.917629,3.3717 -3.632746,6.73087 -7.234375,8.02148 3.304925,-1.93046 3.078575,-8.44624 1.818359,-10.89062 -2.486993,-4.80178 -9.186427,-5.63227 -11.929688,-5.77149 -0.672359,-0.0324 -0.816793,-0.10895 -0.982421,-0.27148 -0.176847,0.39729 -0.323673,0.809 -0.398438,1.24805 0.07817,-0.46845 0.181403,-0.92065 0.296875,-1.36329 -0.12765,-0.1718 -0.173851,-0.39715 -0.261719,-0.86718 -0.351538,-2.02357 -1.574633,-6.0898 -5.751953,-8.712893 -4.353283,-2.734072 -9.425285,-1.701513 -11.873047,-0.931641 -0.928946,0.290179 -0.964706,0.293783 -1.320312,0.191406 -0.362223,-0.104149 -0.648544,-0.465179 -0.988281,-0.917968 -1.493785,-1.996245 -5.111612,-5.781712 -11.878907,-7.183594 -6.633158,-1.373033 -11.450099,1.649508 -13.289062,3.376953 -0.35127,0.331475 -0.704279,0.591451 -1.017578,0.542969 -0.359627,-0.0609 -0.655969,-0.523356 -0.869141,-0.892578 C 10.182164,88.914822 4.3703917,86.344362 0,87.412109 V 128 H 128 V 89.886719 c -0.97952,-2.044876 -2.80051,-3.891687 -4.11133,-4.509766 -4.28928,-2.01267 -9.38949,0.981863 -11.37109,2.347656 -0.53518,0.370908 -0.64827,0.36622 -0.89063,0.330079 -0.21557,-0.03423 -0.36326,-0.168588 -0.71484,-0.484376 -1.1579,-1.067099 -3.61176,-2.866345 -7.08984,-3.029296 z"
   sodipodi:nodetypes="cccccccccccccccccccccccccccccccscccscccccccccccccccccccccccccccccccs" /><path
   id="path26453"
   style="fill:#fcc21b;fill-rule:nonzero"
   d="M 61.429688 18.472656 L 52.945312 26.78125 L 38.875 29.5 L 30.375 38.3125 L 16.664062 32.035156 C 3.3339762 50.199728 0.76179331 74.588479 0.265625 87.246094 L 5.4804688 86.001953 L 13.5 88.75 L 21 86 L 33 86.5 L 55.685547 94.044922 L 67.175781 103.5918 L 79.373047 85.900391 L 90.447266 85.900391 L 103.5918 78.3125 L 110.94922 85.669922 L 116.27344 80.347656 L 127.54297 83.367188 C 126.72855 71.231721 123.93813 52.321517 114.41602 36.664062 L 113.25 36.875 L 106.875 35.625 L 96.25 39.25 L 89.978516 32.527344 L 83.173828 33.941406 L 76.191406 31.201172 L 74.953125 24.394531 L 67.882812 23.333984 L 61.429688 18.472656 z " /><g
   id="g26459">
            <path
   d="m 42.21,65.3 c -4.49,0.04 -8.17,-4.27 -8.22,-9.62 -0.05,-5.37 3.55,-9.75 8.04,-9.79 4.48,-0.04 8.17,4.27 8.22,9.64 0.05,5.35 -3.55,9.72 -8.04,9.77 z m 44.11,0 c 4.48,-0.01 8.11,-4.36 8.1,-9.71 -0.01,-5.37 -3.66,-9.7 -8.14,-9.69 -4.49,0.01 -8.13,4.36 -8.12,9.73 0.02,5.35 3.67,9.68 8.16,9.67 z"
   style="fill:#2f2f2f;fill-rule:nonzero"
   id="path26457" />
        </g>
    <g
   id="Cloud"
   transform="matrix(0.55469961,-0.22955356,-0.22955356,-0.55469961,74.986867,152.93139)">
        
        <path
   d="m 119.85,56.79 c 3.93,3.97 1.15,13.07 -1.55,16.04 -5.32,5.83 -15.08,4.47 -19,3.63 -1.06,-0.23 -1.23,-0.15 -1.58,0.06 -0.31,0.19 -0.45,0.49 -0.79,1.2 -1.26,2.72 -4.52,7.99 -11.4,10.11 C 78.36,90.04 71.6,86.67 68.44,84.66 67.24,83.9 67.19,83.88 66.65,83.89 66.1,83.9 65.56,84.3 64.91,84.81 62.05,87.06 55.52,91.03 45.45,90.45 35.58,89.88 29.93,83.8 27.99,80.67 27.62,80.07 27.22,79.57 26.76,79.52 26.23,79.47 25.64,80.01 25.2,80.45 21,84.54 7.78,85.77 3.4,78.8 c 4.46,7.15 11.35,10.69 18.42,10.78 0.93,0.01 1.83,-0.05 2.73,-0.16 4.61,9.72 14.5,16.44 25.97,16.44 6.92,0 13.26,-2.45 18.22,-6.52 3.79,2.81 8.47,4.49 13.55,4.49 10.42,0 19.19,-6.99 21.92,-16.54 1.72,0.57 3.55,0.89 5.46,0.89 9.58,0 17.35,-7.77 17.35,-17.35 -0.02,-5.1 -2.58,-10.86 -7.17,-14.04 z"
   style="fill:#b9cdd2;fill-rule:nonzero"
   id="path26464" />
    </g>
    <path
   d="m 67.918745,10.891588 c -2.252437,1.315697 -2.098325,5.756246 -1.239436,7.422186 1.694976,3.272591 6.261599,3.838744 8.131238,3.933627 0.505912,0.02437 0.572927,0.081 0.705408,0.218022 0.116865,0.123163 0.143759,0.275403 0.211299,0.636739 0.239597,1.379142 1.073091,4.150176 3.9201,5.937911 2.966936,1.863379 6.423332,1.160344 8.091578,0.635645 0.633113,-0.197768 0.658083,-0.200746 0.900442,-0.130972 0.246861,0.07101 0.442093,0.316667 0.673638,0.62526 1.018073,1.36052 3.483625,3.940398 8.095803,4.895836 4.520755,0.935775 7.804015,-1.12376 9.057345,-2.301082 0.2394,-0.225915 0.48026,-0.403095 0.69378,-0.370053 0.2451,0.0415 2.44725,2.576766 8.66937,2.576766 7.72071,0 10.62669,-1.618054 13.44468,-4.232517 -2.87583,2.685983 -7.91402,11.139771 -21.1017,6.790362 -0.42069,-0.107858 -0.81938,-0.243726 -1.21204,-0.40211 -3.25408,3.827056 -8.527139,5.662824 -13.700695,4.276574 -3.12127,-0.836341 -5.684828,-2.70766 -7.430145,-5.142894 -2.049094,0.809397 -4.363054,1.001544 -6.654391,0.387582 -4.699951,-1.259348 -7.810857,-5.472121 -7.888028,-10.109599 -0.844692,0.04922 -1.708799,-0.02762 -2.570299,-0.258453 -4.321069,-1.157827 -6.886656,-5.601561 -5.72883,-9.922627 0.625072,-2.298029 2.476234,-4.586595 4.930881,-5.466196 z"
   style="fill:#e4eae6;fill-opacity:1;fill-rule:nonzero;stroke-width:0.466962"
   id="path26474"
   sodipodi:nodetypes="scccccccccccscccscscccss" /><path
   d="m 61.655868,3.8805804 c 2.678757,1.564718 2.495483,6.8457306 1.474034,8.8269826 -2.015793,3.891997 -7.446741,4.565304 -9.670248,4.678146 -0.601665,0.02898 -0.681358,0.09633 -0.838921,0.259284 -0.138982,0.146477 -0.17096,0.327526 -0.251293,0.757255 -0.284935,1.640169 -1.276192,4.93568 -4.662054,7.061781 -3.528488,2.21606 -7.639077,1.379959 -9.623072,0.755952 -0.752942,-0.2352 -0.782639,-0.238742 -1.070868,-0.155762 -0.293583,0.08446 -0.525769,0.376602 -0.801138,0.743605 -1.210764,1.618025 -4.142972,4.686197 -9.628098,5.82247 -5.376404,1.112891 -9.281084,-1.336455 -10.771627,-2.73661 -0.284716,-0.268671 -0.571151,-0.479388 -0.825092,-0.440091 -0.29149,0.04935 -0.530362,0.423827 -0.703144,0.723096 -1.665099,2.797643 -10.9662787,5.026144 -14.62698613,0.48053 3.88417203,5.757622 10.32073683,5.870733 14.12617013,4.902815 0.500321,-0.128264 0.974464,-0.289857 1.441431,-0.478225 3.869992,4.551401 10.141087,6.734626 16.293837,5.086002 3.712034,-0.994637 6.760796,-3.22014 8.83645,-6.116293 2.436927,0.962594 5.18885,1.191108 7.91387,0.460941 5.589507,-1.497704 9.289223,-6.507831 9.380996,-12.023045 1.004573,0.05854 2.032218,-0.03284 3.056782,-0.307371 5.138915,-1.376968 8.190097,-6.661771 6.813129,-11.800684 -0.743773,-2.7328734 -2.944914,-5.4547016 -5.86416,-6.5007836 z"
   style="fill:#b9cdd2;fill-rule:nonzero;stroke-width:0.555344"
   id="path26469"
   sodipodi:nodetypes="scccccccccccccccscscscss" />
    
    <g
   id="Cloud3"
   serif:id="Cloud"
   transform="matrix(0.66181277,0.1773322,0.1773322,-0.66181277,-19.113311,140.45789)"
   style="fill:#e4eae6;fill-opacity:1">
        
        <path
   d="m 119.85,56.79 c 3.93,3.97 1.15,13.07 -1.55,16.04 -5.32,5.83 -15.08,4.47 -19,3.63 -1.06,-0.23 -1.23,-0.15 -1.58,0.06 -0.31,0.19 -0.45,0.49 -0.79,1.2 -1.26,2.72 -4.52,7.99 -11.4,10.11 C 78.36,90.04 71.6,86.67 68.44,84.66 67.24,83.9 67.19,83.88 66.65,83.89 66.1,83.9 65.56,84.3 64.91,84.81 62.05,87.06 55.52,91.03 45.45,90.45 35.58,89.88 29.93,83.8 27.99,80.67 27.62,80.07 27.22,79.57 26.76,79.52 26.23,79.47 25.64,80.01 25.2,80.45 21,84.54 7.78,85.77 3.4,78.8 c 4.46,7.15 11.35,10.69 18.42,10.78 0.93,0.01 1.83,-0.05 2.73,-0.16 4.61,9.72 14.5,16.44 25.97,16.44 6.92,0 13.26,-2.45 18.22,-6.52 3.79,2.81 8.47,4.49 13.55,4.49 10.42,0 19.19,-6.99 21.92,-16.54 1.72,0.57 3.55,0.89 5.46,0.89 9.58,0 17.35,-7.77 17.35,-17.35 -0.02,-5.1 -2.58,-10.86 -7.17,-14.04 z"
   style="fill:#e4eae6;fill-rule:nonzero;fill-opacity:1"
   id="path26479" />
    </g>
    
</svg>
