<?xml version="1.0" encoding="UTF-8" standalone="no"?>
<svg
   width="128px"
   height="128px"
   version="1.1"
   xml:space="preserve"
   style="fill-rule:evenodd;clip-rule:evenodd;"
   id="svg3"
   sodipodi:docname="face with open eyes and hand over mouth.svg"
   inkscape:version="1.3 (0e150ed6c4, 2023-07-21)"
   xmlns:inkscape="http://www.inkscape.org/namespaces/inkscape"
   xmlns:sodipodi="http://sodipodi.sourceforge.net/DTD/sodipodi-0.dtd"
   xmlns="http://www.w3.org/2000/svg"
   xmlns:svg="http://www.w3.org/2000/svg"><defs
     id="defs3" /><sodipodi:namedview
     id="namedview3"
     pagecolor="#ffffff"
     bordercolor="#000000"
     borderopacity="0.25"
     inkscape:showpageshadow="2"
     inkscape:pageopacity="0.0"
     inkscape:pagecheckerboard="0"
     inkscape:deskcolor="#d1d1d1"
     inkscape:zoom="2.5136347"
     inkscape:cx="-18.300193"
     inkscape:cy="25.858968"
     inkscape:current-layer="svg3" /><g
     id="g6"
     transform="translate(-0.13814508,-0.14910903)">&#10;	<g
   id="g3">&#10;		<g
   id="g2">&#10;			<g
   id="g1">&#10;				<path
   fill="#fcc21b"
   d="M 16.01,32.9 C 35.29,4.02 67.5,-9.15 101.63,8.22 c 22.84,11.63 30.79,39.22 20.86,71.64 -4.09,13.37 6.14,15.64 5.48,22.74 -1.29,13.88 -28.49,25.27 -63.64,25.27 C 29.17,127.87 1.61,116.51 0.67,102.6 -1.23,74.54 3.71,51.35 16.01,32.9"
   id="path1" />&#10;			</g>&#10;		</g>&#10;	</g>&#10;	&#10;	<path
   fill="#2f2f2f"
   d="m 42.545818,36.161232 c -5.43,-1.47 -6.38,-7.72 -3.86,-12.17 1.99,-3.11 5.31,-4.7 8.11,-4.34 2.94,0.4 5.75,2.94 5.88,6.77 0.21,5.69 -4.11,11.26 -10.13,9.74 z"
   id="path4" />&#10;	<path
   fill="#2f2f2f"
   d="m 73.045818,40.791232 c 3.94,4.42 10.37,2.38 13.45,-2.1 2.06,-3.35 2.05,-7.23 0.39,-9.71 -1.76,-2.57 -5.51,-4.02 -9.24,-2.34 -5.54,2.51 -8.87,9.2 -4.6,14.15 z"
   id="path5" />&#10;	&#10;</g><path
     d="m 64.364027,88.679391 c 0.339502,0.750356 1.079418,0.412923 1.079418,0.412923 0,0 12.211982,-5.206388 12.933865,-5.351785 1.017799,-0.206277 3.071998,-0.307232 4.12913,2.328822 0.439103,1.093779 0.999157,3.32964 -2.148241,4.965309 -0.676628,0.353483 -19.669059,8.382702 -20.75499,8.783939 0,0 -8.583983,3.190251 -13.252325,3.695201 -1.29826,0.14238 -2.73865,0.25349 -4.303988,0.0634 -1.557746,-0.18726 -3.243553,-0.61537 -4.894028,-1.41464 -1.654105,-0.77903 -3.243935,-1.93643 -4.642089,-3.32352 -1.392725,-1.389825 -2.577857,-3.011092 -3.570156,-4.696626 -0.24206,-0.423535 -0.483758,-0.84799 -0.701938,-1.282441 l -0.640491,-1.217562 c -0.430226,-0.845824 -0.825356,-1.708947 -1.185934,-2.585224 -0.707629,-1.695796 -1.293333,-3.436013 -1.751518,-5.204489 -0.440668,-1.72736 -0.594516,-3.437324 -0.855492,-5.052093 -0.45099,-2.785834 0.01619,-5.814951 0.589177,-8.041671 1.294104,-5.014237 5.111988,-8.90599 5.111988,-8.90599 l 1.516163,-1.189341 c 4.861199,-3.039462 15.279865,-7.200561 15.279865,-7.200561 3.463867,-1.599662 5.905117,-0.11596 6.649222,1.122962 2.144342,3.567402 0.263335,5.928149 -2.811767,7.361049 L 40.20451,66.05211 c -0.677911,0.649295 0.0067,2.099817 0.910254,1.86336 2.836102,-0.751927 9.249547,-3.496338 9.249547,-3.496338 2.79305,-1.009763 18.816292,-7.504991 19.864216,-7.864987 2.101637,-0.723644 4.356204,-0.529873 5.445328,1.32397 1.112429,1.891306 0.8948,3.878722 -1.294343,5.100403 -0.593419,0.330023 -16.929291,7.268018 -16.929291,7.268018 -0.953363,0.398812 -0.521171,1.822006 0.489847,1.478375 0,0 20.246737,-8.4299 21.172615,-8.83625 2.093093,-0.928282 4.621791,-0.127391 5.547655,1.919915 0.904376,1.999716 0.07498,4.164987 -2.064983,5.137682 -0.682022,0.306451 -14.990855,6.381656 -20.759957,8.909701 -0.387862,0.167227 -0.747419,0.469634 -0.481777,1.056888 0.0017,0.0042 0.24787,0.659952 0.990849,0.339589 1.559766,-0.673463 17.055422,-7.113356 17.912351,-7.452388 1.964045,-0.780229 4.129246,-0.547369 5.14346,1.631793 0.928797,1.990186 0.320793,4.385801 -1.884544,5.21526 l -18.839775,8.006174 c 0,0 -0.630489,0.321967 -0.311935,1.026119 z"
     style="fill:#fac036;fill-rule:nonzero;stroke:#2f2f2f;stroke-width:4.6px"
     id="path2" /></svg>
