<?xml version="1.0" encoding="UTF-8" standalone="no"?>
<svg
   width="128"
   height="128"
   style="enable-background:new 0 0 128 128;"
   version="1.1"
   id="svg4"
   sodipodi:docname="face holding back tears.svg"
   inkscape:version="1.3 (0e150ed6c4, 2023-07-21)"
   xmlns:inkscape="http://www.inkscape.org/namespaces/inkscape"
   xmlns:sodipodi="http://sodipodi.sourceforge.net/DTD/sodipodi-0.dtd"
   xmlns:xlink="http://www.w3.org/1999/xlink"
   xmlns="http://www.w3.org/2000/svg"
   xmlns:svg="http://www.w3.org/2000/svg">
  <defs
     id="defs4">&#10;			&#10;			&#10;			&#10;				&#10;			&#10;				&#10;			&#10;			&#10;			&#10;				&#10;			&#10;				&#10;		<clipPath
   id="SVGID_2_">&#10;		<use
   xlink:href="#SVGID_1_"
   style="overflow:visible"
   id="use8" />
&#10;	</clipPath>
<clipPath
   id="SVGID_4_">&#10;		<use
   xlink:href="#SVGID_3_"
   style="overflow:visible"
   id="use9" />
&#10;	</clipPath>
<path
   id="SVGID_1_"
   d="m 86,47.7 c -9.58,0.03 -17.33,7.82 -17.3,17.4 0.03,9.58 7.82,17.33 17.4,17.3 C 95.68,82.37 103.43,74.58 103.4,65 103.34,55.43 95.57,47.71 86,47.7" />
<path
   id="SVGID_3_"
   d="m 43,47.7 c -9.58,0.03 -17.33,7.82 -17.3,17.4 0.03,9.58 7.82,17.33 17.4,17.3 C 52.68,82.37 60.43,74.58 60.4,65 60.34,55.43 52.57,47.71 43,47.7" />
</defs>
  <sodipodi:namedview
     id="namedview4"
     pagecolor="#ffffff"
     bordercolor="#000000"
     borderopacity="0.25"
     inkscape:showpageshadow="2"
     inkscape:pageopacity="0.0"
     inkscape:pagecheckerboard="0"
     inkscape:deskcolor="#d1d1d1"
     inkscape:zoom="5.7341941"
     inkscape:cx="76.819863"
     inkscape:cy="90.073687"
     inkscape:window-width="1366"
     inkscape:window-height="697"
     inkscape:window-x="-8"
     inkscape:window-y="-8"
     inkscape:window-maximized="1"
     inkscape:current-layer="svg4" />
  <path
     d="m 127.22,93.42 c 0,13.86 -28.29,25.1 -63.22,25.1 C 29.08,118.52 0.77,107.28 0.77,93.42 0.77,79.55 2.24,9.48 64,9.48 c 61.77,0 63.22,70.06 63.22,83.94"
     style="fill:#fcc21b"
     id="path1" />
  <path
     style="fill:none;stroke:#2f2f2f;stroke-width:5.99999;stroke-linecap:round;stroke-opacity:1"
     d="m 50.879494,91.706665 c 0,0 4.735438,5.020511 13.12051,5.020511 8.385072,0 13.12051,-5.020511 13.12051,-5.020511"
     id="path5"
     sodipodi:nodetypes="czc" />
  <g
     id="g7"
     transform="matrix(0.88658088,0,0,0.88658088,3.5253073,10.004367)"
     style="stroke-width:1.12793">
    <path
       style="fill:#ffffff;stroke-width:1.12793"
       d="M 41.047572,42.017594 C 53.035888,42.055119 62.73416,51.803468 62.696619,63.79179 62.659082,75.7801 52.910749,85.478368 40.922433,85.440831 28.934117,85.403305 19.235845,75.654957 19.273386,63.666646 19.348472,51.690845 29.07177,42.030114 41.047572,42.017594"
       id="path5-1" />
    <g
       id="g6"
       style="stroke-width:1.12793">
      <path
         id="circle5"
         style="fill:#2f2f2f;stroke-width:1.12793"
         d="M 59.943561,60.913592 A 19.271405,19.271405 0 0 1 40.672156,80.184996 19.271405,19.271405 0 0 1 21.400751,60.913592 19.271405,19.271405 0 0 1 40.672156,41.642176 19.271405,19.271405 0 0 1 59.943561,60.913592 Z" />
      <path
         id="ellipse5"
         style="fill:#ffffff;stroke-width:1.12787"
         d="m 51.402597,64.888582 a 4.7511724,5.1471029 49.989747 0 1 -0.887672,6.948262 4.7511724,5.1471029 49.989747 0 1 -6.996962,-0.329863 4.7511724,5.1471029 49.989747 0 1 0.887671,-6.948262 4.7511724,5.1471029 49.989747 0 1 6.996963,0.329863 z" />
      <path
         id="ellipse6"
         style="fill:#ffffff;stroke-width:1.12796"
         d="m 44.343301,48.456925 a 8.7824497,10.827677 53.338654 0 1 -3.44187,13.510129 8.7824497,10.827677 53.338654 0 1 -13.929593,-0.58006 8.7824497,10.827677 53.338654 0 1 3.44187,-13.510127 8.7824497,10.827677 53.338654 0 1 13.929593,0.580058 z" />
    </g>
  </g>
  <g
     id="g13"
     transform="matrix(0.88658088,0,0,0.88658088,51.791654,10.004367)"
     style="stroke-width:1.12793">
    <path
       style="fill:#ffffff;stroke-width:1.12793"
       d="M 41.047572,42.017594 C 53.035888,42.055119 62.73416,51.803468 62.696619,63.79179 62.659082,75.7801 52.910749,85.478368 40.922433,85.440831 28.934117,85.403305 19.235845,75.654957 19.273386,63.666646 19.348472,51.690845 29.07177,42.030114 41.047572,42.017594"
       id="path9" />
    <g
       id="g12"
       style="stroke-width:1.12793">
      <path
         id="path10"
         style="fill:#2f2f2f;stroke-width:1.12793"
         d="M 59.943561,60.913592 A 19.271405,19.271405 0 0 1 40.672156,80.184996 19.271405,19.271405 0 0 1 21.400751,60.913592 19.271405,19.271405 0 0 1 40.672156,41.642176 19.271405,19.271405 0 0 1 59.943561,60.913592 Z" />
      <path
         id="path11"
         style="fill:#ffffff;stroke-width:1.12787"
         d="m 51.402597,64.888582 a 4.7511724,5.1471029 49.989747 0 1 -0.887672,6.948262 4.7511724,5.1471029 49.989747 0 1 -6.996962,-0.329863 4.7511724,5.1471029 49.989747 0 1 0.887671,-6.948262 4.7511724,5.1471029 49.989747 0 1 6.996963,0.329863 z" />
      <path
         id="path12"
         style="fill:#ffffff;stroke-width:1.12796"
         d="m 44.343301,48.456925 a 8.7824497,10.827677 53.338654 0 1 -3.44187,13.510129 8.7824497,10.827677 53.338654 0 1 -13.929593,-0.58006 8.7824497,10.827677 53.338654 0 1 3.44187,-13.510127 8.7824497,10.827677 53.338654 0 1 13.929593,0.580058 z" />
    </g>
  </g>
  <path
     style="color:#000000;fill:#e28100;fill-rule:evenodd;stroke-linecap:round;stroke-linejoin:round;-inkscape-stroke:none"
     d="m 41.132812,33.732422 a 1.89,1.89 0 0 0 -1.324218,0.578125 c -4.649501,4.829302 -12.783203,5.761719 -12.783203,5.761719 a 1.89,1.89 0 0 0 -1.701172,2.0625 1.89,1.89 0 0 0 2.0625,1.701171 c 0,0 9.198322,-0.728141 15.144531,-6.904296 a 1.89,1.89 0 0 0 -0.05078,-2.671875 1.89,1.89 0 0 0 -1.347658,-0.527344 z"
     id="path2430" />
  <path
     style="color:#000000;fill:#e28100;fill-rule:evenodd;stroke-linecap:round;stroke-linejoin:round;-inkscape-stroke:none"
     d="m 85.509766,34.259766 a 1.89,1.89 0 0 0 -0.05078,2.671875 c 5.946209,6.176155 15.144534,6.904296 15.144534,6.904296 a 1.89,1.89 0 0 0 2.0625,-1.701171 1.89,1.89 0 0 0 -1.70117,-2.0625 c 0,0 -8.133707,-0.932417 -12.783207,-5.761719 a 1.89,1.89 0 0 0 -2.671875,-0.05078 z"
     id="path14" />
  <g
     id="eyes"
     transform="matrix(1.1133041,0,0,1.1133041,-7.9536228,-5.9655281)"
     style="stroke-width:0.898227">&#10;	&#10;	&#10;	&#10;		&#10;	&#10;		&#10;	&#10;	&#10;	&#10;		&#10;	&#10;		&#10;</g>
  <g
     id="g9"
     transform="matrix(1.1133041,0,0,1.1133041,-7.6716443,-5.9958551)"
     style="stroke-width:0.898227;fill:#40c0e7;fill-opacity:1">&#10;	<defs
   id="defs8">&#10;		<path
   id="path15"
   d="m 86,47.7 c -9.58,0.03 -17.33,7.82 -17.3,17.4 0.03,9.58 7.82,17.33 17.4,17.3 C 95.68,82.37 103.43,74.58 103.4,65 103.34,55.43 95.57,47.71 86,47.7" />
&#10;	</defs>
&#10;	<clipPath
   id="clipPath1">&#10;		<use
   xlink:href="#SVGID_1_"
   style="overflow:visible"
   id="use1" />
&#10;	</clipPath>
&#10;	<g
   clip-path="url(#SVGID_2_)"
   id="g8"
   style="stroke-width:0.898227;fill:#40c0e7;fill-opacity:1">&#10;		<path
   style="fill:#40c0e7;stroke-width:0.898227;fill-opacity:1"
   d="m 102.35,68.47 c -2.16,-0.36 -4.35,0.48 -5.71,2.21 -0.97,1.27 -2.49,1.99 -4.09,1.95 h -0.27 c -1.1,0 -2.19,0.3 -3.13,0.87 -1.48,0.9 -3.35,0.9 -4.83,0 -0.94,-0.57 -2.03,-0.87 -3.13,-0.87 -0.24,-0.02 -0.47,-0.02 -0.71,0 -1.71,0.25 -3.42,-0.43 -4.48,-1.79 -1.14,-1.55 -2.95,-2.46 -4.88,-2.45 -3.31,0.08 -5.96,2.76 -6,6.07 0.03,3.3 2.7,5.97 6,6 0.28,0 0.57,-0.02 0.85,-0.06 1.65,-0.27 3.31,0.4 4.31,1.74 1.85,2.65 5.46,3.36 8.17,1.61 1.41,-0.89 3.2,-0.89 4.61,0 2.63,1.68 6.1,1.07 8,-1.4 0.91,-1.25 2.38,-1.96 3.93,-1.9 h 0.38 c 3.34,-0.05 6.01,-2.8 5.96,-6.14 -0.04,-2.89 -2.12,-5.34 -4.96,-5.86 z"
   id="path8" />
&#10;	</g>
&#10;</g>
  <g
     id="g11"
     transform="matrix(1.1133041,0,0,1.1133041,-8.0659146,-5.9655281)"
     style="stroke-width:0.898227;fill:#40c0e7;fill-opacity:1">&#10;	<defs
   id="defs9">&#10;		<path
   id="path16"
   d="m 43,47.7 c -9.58,0.03 -17.33,7.82 -17.3,17.4 0.03,9.58 7.82,17.33 17.4,17.3 C 52.68,82.37 60.43,74.58 60.4,65 60.34,55.43 52.57,47.71 43,47.7" />
&#10;	</defs>
&#10;	<clipPath
   id="clipPath2">&#10;		<use
   xlink:href="#SVGID_3_"
   style="overflow:visible"
   id="use2" />
&#10;	</clipPath>
&#10;	<g
   clip-path="url(#SVGID_4_)"
   id="g10"
   style="stroke-width:0.898227;fill:#40c0e7;fill-opacity:1">&#10;		<path
   style="fill:#40c0e7;stroke-width:0.898227;fill-opacity:1"
   d="m 59.9,68.47 c -2.16,-0.36 -4.35,0.49 -5.7,2.21 -0.98,1.27 -2.5,1.99 -4.1,1.95 h -0.26 c -1.1,-0.01 -2.19,0.29 -3.13,0.87 -1.49,0.9 -3.35,0.9 -4.84,0 -0.94,-0.58 -2.03,-0.88 -3.13,-0.87 -0.23,-0.01 -0.47,-0.01 -0.7,0 -1.73,0.26 -3.47,-0.44 -4.53,-1.83 -1.14,-1.55 -2.95,-2.46 -4.87,-2.45 -3.31,0.08 -5.96,2.76 -6,6.07 0,3.31 2.69,6 6,6 0.02,0 0.03,0 0.05,0 0.28,0 0.56,-0.02 0.84,-0.06 1.65,-0.27 3.32,0.4 4.32,1.74 1.82,2.66 5.42,3.4 8.15,1.68 1.4,-0.89 3.2,-0.89 4.6,0 2.63,1.68 6.1,1.07 8,-1.4 0.9,-1.25 2.38,-1.96 3.92,-1.9 h 0.39 c 3.31,0.28 6.22,-2.19 6.5,-5.5 0.28,-3.31 -2.19,-6.22 -5.51,-6.51 z"
   id="path9-0" />
&#10;	</g>
&#10;</g>
</svg>
