<?xml version="1.0" encoding="UTF-8" standalone="no"?>
<svg
   width="100%"
   height="100%"
   viewBox="0 0 128 128"
   version="1.1"
   xml:space="preserve"
   style="fill-rule:evenodd;clip-rule:evenodd;stroke-linecap:round;stroke-linejoin:round;stroke-miterlimit:10;"
   id="svg34370"
   sodipodi:docname="face with spiral eyes.svg"
   inkscape:version="1.3 (0e150ed6c4, 2023-07-21)"
   xmlns:inkscape="http://www.inkscape.org/namespaces/inkscape"
   xmlns:sodipodi="http://sodipodi.sourceforge.net/DTD/sodipodi-0.dtd"
   xmlns="http://www.w3.org/2000/svg"
   xmlns:svg="http://www.w3.org/2000/svg"><defs
   id="defs34374" /><sodipodi:namedview
   id="namedview34372"
   pagecolor="#ffffff"
   bordercolor="#000000"
   borderopacity="0.25"
   inkscape:showpageshadow="2"
   inkscape:pageopacity="0.0"
   inkscape:pagecheckerboard="0"
   inkscape:deskcolor="#d1d1d1"
   showgrid="false"
   inkscape:zoom="2.9996795"
   inkscape:cx="50.838765"
   inkscape:cy="72.507746"
   inkscape:window-width="1366"
   inkscape:window-height="697"
   inkscape:window-x="-8"
   inkscape:window-y="-8"
   inkscape:window-maximized="1"
   inkscape:current-layer="svg34370" />&#10;    <g
   id="g4534"
   transform="matrix(1,0,0,1,0,-1.8)">&#10;        <g
   transform="matrix(1,0,0,1,0,1.8)"
   id="g34359">&#10;            <path
   d="M64.22,9.62C1.81,9.62 0.34,79.58 0.34,93.42C0.34,107.28 28.93,118.5 64.22,118.5C99.5,118.5 128.1,107.28 128.1,93.42C128.1,79.58 126.62,9.62 64.22,9.62Z"
   style="fill:rgb(252,194,27);fill-rule:nonzero;"
   id="path34357" />&#10;        </g>&#10;        <g
   transform="matrix(1,0,0,1,0,1.8)"
   id="g34363">&#10;            &#10;        </g>&#10;        <g
   transform="matrix(1,0,0,1,0.403486,5.42264)"
   id="g34367">&#10;            &#10;        </g>&#10;    </g>&#10;<path
   style="fill:none;stroke:#2f2f2f;stroke-width:6;stroke-linecap:round;stroke-opacity:1"
   d="m 22.997061,92.084694 c 12.419217,-12.35337 18.923994,2.776726 27.625425,0.136554 4.902632,-1.487547 8.156068,-5.055244 13.564942,-4.790494 6.661561,0.326066 8.935211,6.430319 17.132488,5.875178 8.260429,-0.559417 11.290424,-11.810852 23.710744,-4.3419"
   id="path1"
   sodipodi:nodetypes="csssc" /><g
   id="g1"
   transform="translate(-0.5603205,1.0001068)"><path
     d="m 88.570321,57.956952 c 0,0 -1.94,2.25 -5,1.05 -2.64,-1.03 -3.4,-4.09 -2.47,-6.68 0.93,-2.59 4.25,-4 7.84,-3.63 3.83,0.39 10.26,5.37 7.9,13.27 -2.56,8.56 -12.55,8.84 -16.98,7.22 -4.55,-1.66 -11.2,-7.34 -9.48,-17.65 1.77,-10.63 11.67,-13.37 17.23,-13.37 5.26,0 17.379999,2.83 20.009999,17.16"
     fill="none"
     stroke="#2f2f2f"
     stroke-width="5"
     stroke-linecap="round"
     stroke-linejoin="round"
     stroke-miterlimit="10"
     id="path34957" /><path
     d="m 37.760321,52.436952 c 0,0 0.84,-2.85 4.12,-3.02 2.83,-0.15 4.78,2.32 5.01,5.06 0.23,2.74 -2.22,5.4 -5.64,6.55 -3.65,1.23 -11.57,-0.64 -12.69,-8.81 -1.21,-8.85 7.77,-13.24 12.47,-13.6 4.82,-0.37 13.23,2.05 15.94,12.15 2.79,10.41 -5.09,17 -10.15,19.3 -4.79,2.18 -16.99,4.62 -25.32,-7.34"
     fill="none"
     stroke="#2f2f2f"
     stroke-width="5"
     stroke-linecap="round"
     stroke-linejoin="round"
     stroke-miterlimit="10"
     id="path34961" /></g></svg>
