<?xml version="1.0" encoding="UTF-8" standalone="no"?>
<svg
   width="100%"
   height="100%"
   viewBox="0 0 534 534"
   version="1.1"
   xml:space="preserve"
   style="fill-rule:evenodd;clip-rule:evenodd;"
   id="svg19046"
   sodipodi:docname="face with open eyes and hand over mouth.svg"
   inkscape:version="1.2.2 (732a01da63, 2022-12-09)"
   xmlns:inkscape="http://www.inkscape.org/namespaces/inkscape"
   xmlns:sodipodi="http://sodipodi.sourceforge.net/DTD/sodipodi-0.dtd"
   xmlns="http://www.w3.org/2000/svg"
   xmlns:svg="http://www.w3.org/2000/svg"><defs
     id="defs19050" /><sodipodi:namedview
     id="namedview19048"
     pagecolor="#ffffff"
     bordercolor="#000000"
     borderopacity="0.25"
     inkscape:showpageshadow="2"
     inkscape:pageopacity="0.0"
     inkscape:pagecheckerboard="0"
     inkscape:deskcolor="#d1d1d1"
     showgrid="false"
     inkscape:zoom="1.0168539"
     inkscape:cx="170.1326"
     inkscape:cy="346.16575"
     inkscape:window-width="1366"
     inkscape:window-height="697"
     inkscape:window-x="-8"
     inkscape:window-y="-8"
     inkscape:window-maximized="1"
     inkscape:current-layer="svg19046" /><path
     d="M265.833,39.458c-260.5,0 -266.666,292 -266.666,349.792c-0,57.833 119.375,104.625 266.666,104.625c147.292,0 266.625,-46.792 266.625,-104.625c0,-57.792 -6.166,-349.792 -266.625,-349.792Z"
     style="fill:#fcc21b;fill-rule:nonzero;"
     id="path18948" /><path
     d="m 296.62481,406.79559 c 2.38038,1.19504 3.6446,-1.43415 3.6446,-1.43415 0,0 21.58593,-42.43617 23.18502,-44.51397 2.25153,-2.93264 7.42398,-8.01564 15.43236,-3.50073 3.324,1.8726 9.23636,6.49068 4.25786,18.20695 -1.06717,2.52397 -34.77296,68.34125 -36.81508,71.9511 0,0 -16.10717,28.58298 -27.31353,40.86507 -3.11237,3.42045 -6.65883,7.09167 -11.131,10.25649 -4.44694,3.15468 -9.70871,5.9703 -15.61545,7.71877 -5.87575,1.81038 -12.33659,2.4674 -18.75289,2.06451 -6.4071,-0.42228 -12.73224,-1.94491 -18.67984,-4.09057 -1.47588,-0.55609 -2.95258,-1.11531 -4.38702,-1.75692 l -4.0973,-1.72798 c -2.80719,-1.23632 -5.55813,-2.59765 -8.24457,-4.07861 -5.22308,-2.83882 -10.21678,-6.08251 -14.93398,-9.70053 -4.58791,-3.5495 -8.39164,-7.72439 -12.28662,-11.39612 -6.72081,-6.33329 -11.52394,-15.46411 -14.45471,-22.71398 -6.58943,-16.33466 -4.34441,-35.60742 -4.34441,-35.60742 l 1.60038,-6.70894 c 6.66912,-19.45676 25.64335,-54.91639 25.64335,-54.91639 5.87899,-12.3627 15.21519,-14.14878 19.62603,-12.60631 12.70486,4.43723 12.48021,15.10808 7.28766,26.1171 l -17.82221,34.17828 c -0.48122,3.31086 4.19457,5.55456 6.08735,2.80937 5.92232,-8.64261 17.23854,-30.95582 17.23854,-30.95582 5.29709,-9.2253 34.28815,-64.01357 36.31333,-67.42436 4.05809,-6.84646 10.34051,-11.61704 16.87699,-9.25193 6.67134,2.41016 10.05551,8.19203 6.7593,16.56403 -0.89569,2.26656 -29.82363,58.96212 -29.82363,58.96212 -1.7004,3.29246 2.26088,6.05495 4.22153,2.77309 0,0 36.19054,-69.81978 37.80381,-73.06773 3.62845,-7.36909 11.83576,-11.17189 18.32955,-7.91063 6.34373,3.18475 8.48087,10.8731 4.81827,18.46871 -1.17417,2.41223 -26.51681,52.06746 -36.57785,72.29605 -0.68169,1.35242 -1.02065,2.99783 0.84221,3.93317 0.0124,0.007 1.96115,1.16951 3.26686,-1.42175 2.74064,-5.44296 30.46154,-58.84718 32.02864,-61.75545 3.58542,-6.67329 9.71214,-11.13063 16.69948,-7.72759 6.3878,3.10273 9.56302,10.88256 5.44436,18.2519 l -33.35304,65.39882 c 0,0 -1.00868,2.3315 1.22565,3.45235 z"
     style="fill:none;fill-rule:nonzero;stroke:#2f2f2f;stroke-width:44.031;stroke-dasharray:none;stroke-opacity:1"
     id="path19169" /><path
     id="path19044"
     style="fill:#fcc21b;fill-rule:nonzero;stroke:none;stroke-width:12.5px;fill-opacity:1"
     d="m 258.95245,300.37683 c -3.9081,1.33815 -6.76365,4.62166 -8.89729,8.02722 -2.87761,5.06623 -5.55273,10.24595 -8.32287,15.37165 -9.02718,16.83622 -17.94813,33.72628 -27.12764,50.47906 -2.16986,3.86131 -4.08013,7.86145 -6.20097,11.75023 -3.71722,6.95525 -7.4366,13.92584 -11.7189,20.55457 -0.81578,1.48849 -2.2478,2.72534 -3.99629,2.85286 -3.30159,0.38379 -6.64349,-2.60831 -6.27669,-5.99172 0.0551,-1.07212 0.85737,-1.92343 1.2561,-2.89429 5.62588,-10.81199 11.29148,-21.60459 16.89256,-32.42869 1.90166,-4.16686 3.46069,-8.75592 2.88899,-13.39718 -0.36192,-3.1217 -2.24,-5.95061 -4.87571,-7.63039 -1.74297,-1.09792 -3.6493,-2.0788 -5.70626,-2.38428 -4.30489,-0.37725 -8.37454,1.99597 -11.21547,5.06548 -2.17383,2.2795 -3.67445,5.07289 -5.06712,7.86936 -5.71905,10.84151 -11.26313,21.88813 -16.43252,33.04324 -3.10321,6.8026 -6.17559,13.64226 -8.59019,20.72374 -0.49557,2.23136 -1.13122,4.4393 -1.53738,6.6856 -0.68454,8.54676 -0.24157,17.22074 1.63097,25.59881 1.5118,6.81962 4.41793,13.25583 7.90652,19.27907 2.65517,4.54073 5.8821,8.77049 9.79334,12.3043 4.29395,4.1855 8.46655,8.55588 13.41873,11.98518 7.4755,5.41957 15.61224,9.92898 24.18294,13.36619 9.59805,4.17431 20.15031,6.63761 30.65464,5.73287 0.93634,-0.0815 1.98081,-0.19175 2.77689,-0.30972 7.39142,-1.00407 14.49476,-3.80455 20.70466,-7.91699 0.9112,-0.6054 2.02565,-1.37341 2.97103,-2.10376 1.06682,-0.81002 2.10775,-1.67543 3.03471,-2.50587 5.24117,-4.71041 9.79836,-10.13244 13.87099,-15.87163 7.1132,-9.99702 13.51307,-20.48317 19.62231,-31.11721 6.50908,-12.37676 12.84124,-24.84583 19.23057,-37.28492 5.78873,-11.35871 11.63775,-22.68772 17.31065,-34.10472 1.42489,-3.2327 2.50989,-6.92277 1.56509,-10.44217 -0.89532,-3.31821 -3.9478,-5.51265 -7.04369,-6.61095 -2.57426,-0.97274 -5.58921,-0.53323 -7.76616,1.15506 -1.67241,1.21882 -3.02774,2.84339 -3.92217,4.70967 -5.40282,9.99976 -10.53472,20.12743 -15.73183,30.22616 -2.16067,4.17571 -4.24316,8.38544 -6.43536,12.5438 -1.04972,1.80772 -3.34004,2.9241 -5.37369,2.1685 -2.01124,-0.60219 -3.50161,-2.64512 -3.23309,-4.76524 0.133,-1.74025 1.29386,-3.14849 1.96851,-4.70319 10.81044,-21.21466 21.65015,-42.41616 32.44247,-63.63894 1.60015,-3.49753 1.26878,-7.84889 -1.10394,-10.92207 -2.10356,-2.79003 -5.6728,-4.77664 -9.23082,-4.2164 -3.58473,0.63283 -6.28153,3.47259 -8.1411,6.43195 -1.92292,3.34436 -3.60257,6.82441 -5.41795,10.22828 -9.22177,17.72903 -18.42151,35.46953 -27.59147,53.22491 -0.92735,1.76417 -3.10777,2.83204 -5.0396,2.14784 -1.89021,-0.5754 -3.3877,-2.45433 -3.13249,-4.48012 0.21829,-2.02889 1.50329,-3.7163 2.30174,-5.54355 11.56936,-23.09334 23.33483,-46.08802 34.99535,-69.13519 1.83002,-3.70991 2.32923,-8.39243 0.1445,-12.0664 -1.97261,-3.41859 -6.19011,-5.3761 -10.06876,-4.52706 -4.46042,0.86185 -8.07122,4.30353 -9.91743,8.35586 -12.47484,24.23144 -25.04791,48.41124 -37.57303,72.61749 -0.97202,1.79868 -3.18216,2.95043 -5.18914,2.28416 -2.43834,-0.71619 -3.76775,-3.62041 -2.947,-5.98009 0.75647,-1.94533 1.8638,-3.73935 2.76198,-5.62324 8.97283,-17.65978 18.02011,-35.28253 26.84337,-53.01771 1.48368,-2.9893 2.32697,-6.63116 1.04291,-9.84057 -1.26627,-3.06359 -4.40217,-4.97325 -7.54279,-5.63137 -1.28401,-0.2167 -2.60798,-0.0917 -3.84571,0.30252 z" /><g
     id="g25218"
     style="clip-rule:evenodd;fill-rule:evenodd"
     transform="translate(-0.85447293,-7.0428698)"><path
       d="m 175.022,276.958 c -18.708,0.167 -34.042,-17.791 -34.25,-40.083 -0.208,-22.375 14.792,-40.625 33.5,-40.792 18.667,-0.166 34.042,17.792 34.25,40.167 0.208,22.333 -14.792,40.542 -33.5,40.708 z m 183.792,0 c 18.666,-0.041 33.791,-18.166 33.75,-40.458 -0.042,-22.375 -15.25,-40.417 -33.917,-40.375 -18.708,0.042 -33.875,18.167 -33.833,40.542 0.083,22.291 15.291,40.333 34,40.291 z"
       style="fill:#2f2f2f;fill-rule:nonzero"
       id="path25216" /></g></svg>
