<?xml version="1.0" encoding="UTF-8" standalone="no"?>
<svg
   width="100%"
   height="100%"
   viewBox="0 0 128 128"
   version="1.1"
   xml:space="preserve"
   style="fill-rule:evenodd;clip-rule:evenodd;stroke-linejoin:round;stroke-miterlimit:2;"
   id="svg12"
   sodipodi:docname="face in clouds.svg"
   inkscape:version="1.3 (0e150ed6c4, 2023-07-21)"
   xmlns:inkscape="http://www.inkscape.org/namespaces/inkscape"
   xmlns:sodipodi="http://sodipodi.sourceforge.net/DTD/sodipodi-0.dtd"
   xmlns="http://www.w3.org/2000/svg"
   xmlns:svg="http://www.w3.org/2000/svg"
   xmlns:serif="http://www.serif.com/"><defs
   id="defs12" /><sodipodi:namedview
   id="namedview12"
   pagecolor="#ffffff"
   bordercolor="#000000"
   borderopacity="0.25"
   inkscape:showpageshadow="2"
   inkscape:pageopacity="0.0"
   inkscape:pagecheckerboard="0"
   inkscape:deskcolor="#d1d1d1"
   inkscape:zoom="4.7468595"
   inkscape:cx="41.290457"
   inkscape:cy="77.103609"
   inkscape:current-layer="svg12" />&#10;    &#10;    <g
   id="Cloud"
   transform="matrix(0.600322,0,0,0.600322,2.13112,61.8721)">&#10;        <path
   d="M109.65,53.48L109.64,53.48C109.64,53.41 109.65,53.34 109.65,53.27C109.65,43.72 101.91,35.97 92.35,35.97C91.12,35.97 89.92,36.1 88.77,36.35C85.34,28.01 77.15,22.13 67.57,22.13C60.38,22.13 53.97,25.45 49.77,30.63C46.982,29.212 43.898,28.472 40.77,28.47C30.42,28.47 21.92,36.35 20.93,46.44C9.68,47.04 0.65,56.26 0.5,67.71C0.34,79.63 9.89,89.43 21.81,89.58C22.74,89.59 23.64,89.53 24.54,89.42C29.15,99.14 39.04,105.86 50.51,105.86C57.43,105.86 63.77,103.41 68.73,99.34C72.52,102.15 77.2,103.83 82.28,103.83C92.7,103.83 101.47,96.84 104.2,87.29C105.92,87.86 107.75,88.18 109.66,88.18C119.24,88.18 127.01,80.41 127.01,70.83C127,61.25 119.24,53.48 109.65,53.48Z"
   style="fill:rgb(227,235,238);fill-opacity:0.94;fill-rule:nonzero;"
   id="path3" />&#10;        <path
   d="M119.85,56.79C123.78,60.76 121,69.86 118.3,72.83C112.98,78.66 103.22,77.3 99.3,76.46C98.24,76.23 98.07,76.31 97.72,76.52C97.41,76.71 97.27,77.01 96.93,77.72C95.67,80.44 92.41,85.71 85.53,87.83C78.36,90.04 71.6,86.67 68.44,84.66C67.24,83.9 67.19,83.88 66.65,83.89C66.1,83.9 65.56,84.3 64.91,84.81C62.05,87.06 55.52,91.03 45.45,90.45C35.58,89.88 29.93,83.8 27.99,80.67C27.62,80.07 27.22,79.57 26.76,79.52C26.23,79.47 25.64,80.01 25.2,80.45C21,84.54 7.78,85.77 3.4,78.8C7.86,85.95 14.75,89.49 21.82,89.58C22.75,89.59 23.65,89.53 24.55,89.42C29.16,99.14 39.05,105.86 50.52,105.86C57.44,105.86 63.78,103.41 68.74,99.34C72.53,102.15 77.21,103.83 82.29,103.83C92.71,103.83 101.48,96.84 104.21,87.29C105.93,87.86 107.76,88.18 109.67,88.18C119.25,88.18 127.02,80.41 127.02,70.83C127,65.73 124.44,59.97 119.85,56.79Z"
   style="fill:rgb(185,205,210);fill-rule:nonzero;"
   id="path4" />&#10;    </g>&#10;    <g
   id="Cloud1"
   serif:id="Cloud"
   transform="matrix(0.555344,0,0,0.555344,4.13716,-8.71743)">&#10;        <path
   d="M109.65,53.48L109.64,53.48C109.64,53.41 109.65,53.34 109.65,53.27C109.65,43.72 101.91,35.97 92.35,35.97C91.12,35.97 89.92,36.1 88.77,36.35C85.34,28.01 77.15,22.13 67.57,22.13C60.38,22.13 53.97,25.45 49.77,30.63C46.982,29.212 43.898,28.472 40.77,28.47C30.42,28.47 21.92,36.35 20.93,46.44C9.68,47.04 0.65,56.26 0.5,67.71C0.34,79.63 9.89,89.43 21.81,89.58C22.74,89.59 23.64,89.53 24.54,89.42C29.15,99.14 39.04,105.86 50.51,105.86C57.43,105.86 63.77,103.41 68.73,99.34C72.52,102.15 77.2,103.83 82.28,103.83C92.7,103.83 101.47,96.84 104.2,87.29C105.92,87.86 107.75,88.18 109.66,88.18C119.24,88.18 127.01,80.41 127.01,70.83C127,61.25 119.24,53.48 109.65,53.48Z"
   style="fill:rgb(227,235,238);fill-opacity:0.91;fill-rule:nonzero;"
   id="path5" />&#10;        <path
   d="M119.85,56.79C123.78,60.76 121,69.86 118.3,72.83C112.98,78.66 103.22,77.3 99.3,76.46C98.24,76.23 98.07,76.31 97.72,76.52C97.41,76.71 97.27,77.01 96.93,77.72C95.67,80.44 92.41,85.71 85.53,87.83C78.36,90.04 71.6,86.67 68.44,84.66C67.24,83.9 67.19,83.88 66.65,83.89C66.1,83.9 65.56,84.3 64.91,84.81C62.05,87.06 55.52,91.03 45.45,90.45C35.58,89.88 29.93,83.8 27.99,80.67C27.62,80.07 27.22,79.57 26.76,79.52C26.23,79.47 25.64,80.01 25.2,80.45C21,84.54 7.78,85.77 3.4,78.8C7.86,85.95 14.75,89.49 21.82,89.58C22.75,89.59 23.65,89.53 24.55,89.42C29.16,99.14 39.05,105.86 50.52,105.86C57.44,105.86 63.78,103.41 68.74,99.34C72.53,102.15 77.21,103.83 82.29,103.83C92.71,103.83 101.48,96.84 104.21,87.29C105.93,87.86 107.76,88.18 109.67,88.18C119.25,88.18 127.02,80.41 127.02,70.83C127,65.73 124.44,59.97 119.85,56.79Z"
   style="fill:rgb(185,205,210);fill-rule:nonzero;"
   id="path6" />&#10;    </g>&#10;    <g
   id="g3"
   transform="translate(0.00497571)">&#10;	<g
   id="g2">&#10;		<path
   fill="#fcc21b"
   d="M 64,9.56 C 1.59,9.56 0.11,79.52 0.11,93.37 c 0,13.85 28.61,25.07 63.89,25.07 35.29,0 63.88,-11.22 63.88,-25.07 C 127.89,79.52 126.42,9.56 64,9.56 Z"
   id="path1" />&#10;	</g>&#10;	<path
   fill="#2f2f2f"
   d="m 40.33,72.12 c -4.19,0 -7.6,-4.05 -7.6,-9.07 0,-5.01 3.41,-9.06 7.6,-9.06 4.2,0 7.6,4.05 7.6,9.06 0,5.02 -3.41,9.07 -7.6,9.07 z"
   id="path2" />&#10;	<path
   fill="#2f2f2f"
   d="m 87.68,72.12 c 4.19,0 7.59,-4.05 7.59,-9.07 0,-5.01 -3.4,-9.06 -7.59,-9.06 -4.2,0 -7.6,4.05 -7.6,9.06 0,5.02 3.4,9.07 7.6,9.07 z"
   id="path3-4" />&#10;</g><g
   id="Cloud2"
   serif:id="Cloud"
   transform="matrix(0.466962,0,0,0.466962,59.1483,-9.41385)">&#10;        <path
   d="M109.65,53.48L109.64,53.48C109.64,53.41 109.65,53.34 109.65,53.27C109.65,43.72 101.91,35.97 92.35,35.97C91.12,35.97 89.92,36.1 88.77,36.35C85.34,28.01 77.15,22.13 67.57,22.13C60.38,22.13 53.97,25.45 49.77,30.63C46.982,29.212 43.898,28.472 40.77,28.47C30.42,28.47 21.92,36.35 20.93,46.44C9.68,47.04 0.65,56.26 0.5,67.71C0.34,79.63 9.89,89.43 21.81,89.58C22.74,89.59 23.64,89.53 24.54,89.42C29.15,99.14 39.04,105.86 50.51,105.86C57.43,105.86 63.77,103.41 68.73,99.34C72.52,102.15 77.2,103.83 82.28,103.83C92.7,103.83 101.47,96.84 104.2,87.29C105.92,87.86 107.75,88.18 109.66,88.18C119.24,88.18 127.01,80.41 127.01,70.83C127,61.25 119.24,53.48 109.65,53.48Z"
   style="fill:rgb(227,235,238);fill-opacity:0.91;fill-rule:nonzero;"
   id="path7" />&#10;        <path
   d="M119.85,56.79C123.78,60.76 121,69.86 118.3,72.83C112.98,78.66 103.22,77.3 99.3,76.46C98.24,76.23 98.07,76.31 97.72,76.52C97.41,76.71 97.27,77.01 96.93,77.72C95.67,80.44 92.41,85.71 85.53,87.83C78.36,90.04 71.6,86.67 68.44,84.66C67.24,83.9 67.19,83.88 66.65,83.89C66.1,83.9 65.56,84.3 64.91,84.81C62.05,87.06 55.52,91.03 45.45,90.45C35.58,89.88 29.93,83.8 27.99,80.67C27.62,80.07 27.22,79.57 26.76,79.52C26.23,79.47 25.64,80.01 25.2,80.45C21,84.54 7.78,85.77 3.4,78.8C7.86,85.95 14.75,89.49 21.82,89.58C22.75,89.59 23.65,89.53 24.55,89.42C29.16,99.14 39.05,105.86 50.52,105.86C57.44,105.86 63.78,103.41 68.74,99.34C72.53,102.15 77.21,103.83 82.29,103.83C92.71,103.83 101.48,96.84 104.21,87.29C105.93,87.86 107.76,88.18 109.67,88.18C119.25,88.18 127.02,80.41 127.02,70.83C127,65.73 124.44,59.97 119.85,56.79Z"
   style="fill:rgb(185,205,210);fill-rule:nonzero;"
   id="path8" />&#10;    </g><g
   id="Cloud3-7"
   serif:id="Cloud"
   transform="matrix(0.33841232,0,0,0.33841232,36.086224,-8.7403869)"
   style="clip-rule:evenodd;fill-rule:evenodd;stroke-linejoin:round;stroke-miterlimit:2">&#10;        <path
   d="m 109.65,53.48 h -0.01 c 0,-0.07 0.01,-0.14 0.01,-0.21 0,-9.55 -7.74,-17.3 -17.3,-17.3 -1.23,0 -2.43,0.13 -3.58,0.38 -3.43,-8.34 -11.62,-14.22 -21.2,-14.22 -7.19,0 -13.6,3.32 -17.8,8.5 -2.788,-1.418 -5.872,-2.158 -9,-2.16 -10.35,0 -18.85,7.88 -19.84,17.97 C 9.68,47.04 0.65,56.26 0.5,67.71 0.34,79.63 9.89,89.43 21.81,89.58 c 0.93,0.01 1.83,-0.05 2.73,-0.16 4.61,9.72 14.5,16.44 25.97,16.44 6.92,0 13.26,-2.45 18.22,-6.52 3.79,2.81 8.47,4.49 13.55,4.49 10.42,0 19.19,-6.99 21.92,-16.54 1.72,0.57 3.55,0.89 5.46,0.89 9.58,0 17.35,-7.77 17.35,-17.35 C 127,61.25 119.24,53.48 109.65,53.48 Z"
   style="fill:#e3ebee;fill-opacity:0.96;fill-rule:nonzero"
   id="path9-8" />&#10;        <path
   d="m 119.85,56.79 c 3.93,3.97 1.15,13.07 -1.55,16.04 -5.32,5.83 -15.08,4.47 -19,3.63 -1.06,-0.23 -1.23,-0.15 -1.58,0.06 -0.31,0.19 -0.45,0.49 -0.79,1.2 -1.26,2.72 -4.52,7.99 -11.4,10.11 C 78.36,90.04 71.6,86.67 68.44,84.66 67.24,83.9 67.19,83.88 66.65,83.89 66.1,83.9 65.56,84.3 64.91,84.81 62.05,87.06 55.52,91.03 45.45,90.45 35.58,89.88 29.93,83.8 27.99,80.67 27.62,80.07 27.22,79.57 26.76,79.52 26.23,79.47 25.64,80.01 25.2,80.45 21,84.54 7.78,85.77 3.4,78.8 c 4.46,7.15 11.35,10.69 18.42,10.78 0.93,0.01 1.83,-0.05 2.73,-0.16 4.61,9.72 14.5,16.44 25.97,16.44 6.92,0 13.26,-2.45 18.22,-6.52 3.79,2.81 8.47,4.49 13.55,4.49 10.42,0 19.19,-6.99 21.92,-16.54 1.72,0.57 3.55,0.89 5.46,0.89 9.58,0 17.35,-7.77 17.35,-17.35 -0.02,-5.1 -2.58,-10.86 -7.17,-14.04 z"
   style="fill:#b9cdd2;fill-rule:nonzero"
   id="path10-4" />&#10;    </g>&#10;    <g
   id="Cloud3"
   serif:id="Cloud"
   transform="matrix(0.685159,0,0,0.685159,40.464286,52.117636)">&#10;        <path
   d="m 109.65,53.48 h -0.01 c 0,-0.07 0.01,-0.14 0.01,-0.21 0,-9.55 -7.74,-17.3 -17.3,-17.3 -1.23,0 -2.43,0.13 -3.58,0.38 -3.43,-8.34 -11.62,-14.22 -21.2,-14.22 -7.19,0 -13.6,3.32 -17.8,8.5 -2.788,-1.418 -5.872,-2.158 -9,-2.16 -10.35,0 -18.85,7.88 -19.84,17.97 C 9.68,47.04 0.65,56.26 0.5,67.71 0.34,79.63 9.89,89.43 21.81,89.58 c 0.93,0.01 1.83,-0.05 2.73,-0.16 4.61,9.72 14.5,16.44 25.97,16.44 6.92,0 13.26,-2.45 18.22,-6.52 3.79,2.81 8.47,4.49 13.55,4.49 10.42,0 19.19,-6.99 21.92,-16.54 1.72,0.57 3.55,0.89 5.46,0.89 9.58,0 17.35,-7.77 17.35,-17.35 C 127,61.25 119.24,53.48 109.65,53.48 Z"
   style="fill:#e3ebee;fill-opacity:0.96;fill-rule:nonzero"
   id="path9" />&#10;        <path
   d="m 119.85,56.79 c 3.93,3.97 1.15,13.07 -1.55,16.04 -5.32,5.83 -15.08,4.47 -19,3.63 -1.06,-0.23 -1.23,-0.15 -1.58,0.06 -0.31,0.19 -0.45,0.49 -0.79,1.2 -1.26,2.72 -4.52,7.99 -11.4,10.11 C 78.36,90.04 71.6,86.67 68.44,84.66 67.24,83.9 67.19,83.88 66.65,83.89 66.1,83.9 65.56,84.3 64.91,84.81 62.05,87.06 55.52,91.03 45.45,90.45 35.58,89.88 29.93,83.8 27.99,80.67 27.62,80.07 27.22,79.57 26.76,79.52 26.23,79.47 25.64,80.01 25.2,80.45 21,84.54 7.78,85.77 3.4,78.8 c 4.46,7.15 11.35,10.69 18.42,10.78 0.93,0.01 1.83,-0.05 2.73,-0.16 4.61,9.72 14.5,16.44 25.97,16.44 6.92,0 13.26,-2.45 18.22,-6.52 3.79,2.81 8.47,4.49 13.55,4.49 10.42,0 19.19,-6.99 21.92,-16.54 1.72,0.57 3.55,0.89 5.46,0.89 9.58,0 17.35,-7.77 17.35,-17.35 -0.02,-5.1 -2.58,-10.86 -7.17,-14.04 z"
   style="fill:#b9cdd2;fill-rule:nonzero"
   id="path10" />&#10;    </g>&#10;    &#10;<g
   id="Cloud3-7-5"
   serif:id="Cloud"
   transform="matrix(0.49423168,0,0,0.49423168,-5.1120501,67.696479)"
   style="clip-rule:evenodd;fill-rule:evenodd;stroke-linejoin:round;stroke-miterlimit:2">&#10;        <path
   d="m 109.65,53.48 h -0.01 c 0,-0.07 0.01,-0.14 0.01,-0.21 0,-9.55 -7.74,-17.3 -17.3,-17.3 -1.23,0 -2.43,0.13 -3.58,0.38 -3.43,-8.34 -11.62,-14.22 -21.2,-14.22 -7.19,0 -13.6,3.32 -17.8,8.5 -2.788,-1.418 -5.872,-2.158 -9,-2.16 -10.35,0 -18.85,7.88 -19.84,17.97 C 9.68,47.04 0.65,56.26 0.5,67.71 0.34,79.63 9.89,89.43 21.81,89.58 c 0.93,0.01 1.83,-0.05 2.73,-0.16 4.61,9.72 14.5,16.44 25.97,16.44 6.92,0 13.26,-2.45 18.22,-6.52 3.79,2.81 8.47,4.49 13.55,4.49 10.42,0 19.19,-6.99 21.92,-16.54 1.72,0.57 3.55,0.89 5.46,0.89 9.58,0 17.35,-7.77 17.35,-17.35 C 127,61.25 119.24,53.48 109.65,53.48 Z"
   style="fill:#e3ebee;fill-opacity:0.96;fill-rule:nonzero"
   id="path9-8-0" />&#10;        <path
   d="m 119.85,56.79 c 3.93,3.97 1.15,13.07 -1.55,16.04 -5.32,5.83 -15.08,4.47 -19,3.63 -1.06,-0.23 -1.23,-0.15 -1.58,0.06 -0.31,0.19 -0.45,0.49 -0.79,1.2 -1.26,2.72 -4.52,7.99 -11.4,10.11 C 78.36,90.04 71.6,86.67 68.44,84.66 67.24,83.9 67.19,83.88 66.65,83.89 66.1,83.9 65.56,84.3 64.91,84.81 62.05,87.06 55.52,91.03 45.45,90.45 35.58,89.88 29.93,83.8 27.99,80.67 27.62,80.07 27.22,79.57 26.76,79.52 26.23,79.47 25.64,80.01 25.2,80.45 21,84.54 7.78,85.77 3.4,78.8 c 4.46,7.15 11.35,10.69 18.42,10.78 0.93,0.01 1.83,-0.05 2.73,-0.16 4.61,9.72 14.5,16.44 25.97,16.44 6.92,0 13.26,-2.45 18.22,-6.52 3.79,2.81 8.47,4.49 13.55,4.49 10.42,0 19.19,-6.99 21.92,-16.54 1.72,0.57 3.55,0.89 5.46,0.89 9.58,0 17.35,-7.77 17.35,-17.35 -0.02,-5.1 -2.58,-10.86 -7.17,-14.04 z"
   style="fill:#b9cdd2;fill-rule:nonzero"
   id="path10-4-3" />&#10;    </g><g
   id="Cloud3-7-5-6"
   serif:id="Cloud"
   transform="matrix(0.20137657,0,0,0.20137657,38.421148,103.71315)"
   style="clip-rule:evenodd;fill-rule:evenodd;stroke-linejoin:round;stroke-miterlimit:2">&#10;        <path
   d="m 109.65,53.48 h -0.01 c 0,-0.07 0.01,-0.14 0.01,-0.21 0,-9.55 -7.74,-17.3 -17.3,-17.3 -1.23,0 -2.43,0.13 -3.58,0.38 -3.43,-8.34 -11.62,-14.22 -21.2,-14.22 -7.19,0 -13.6,3.32 -17.8,8.5 -2.788,-1.418 -5.872,-2.158 -9,-2.16 -10.35,0 -18.85,7.88 -19.84,17.97 C 9.68,47.04 0.65,56.26 0.5,67.71 0.34,79.63 9.89,89.43 21.81,89.58 c 0.93,0.01 1.83,-0.05 2.73,-0.16 4.61,9.72 14.5,16.44 25.97,16.44 6.92,0 13.26,-2.45 18.22,-6.52 3.79,2.81 8.47,4.49 13.55,4.49 10.42,0 19.19,-6.99 21.92,-16.54 1.72,0.57 3.55,0.89 5.46,0.89 9.58,0 17.35,-7.77 17.35,-17.35 C 127,61.25 119.24,53.48 109.65,53.48 Z"
   style="fill:#e3ebee;fill-opacity:0.96;fill-rule:nonzero"
   id="path9-8-0-1" />&#10;        <path
   d="m 119.85,56.79 c 3.93,3.97 1.15,13.07 -1.55,16.04 -5.32,5.83 -15.08,4.47 -19,3.63 -1.06,-0.23 -1.23,-0.15 -1.58,0.06 -0.31,0.19 -0.45,0.49 -0.79,1.2 -1.26,2.72 -4.52,7.99 -11.4,10.11 C 78.36,90.04 71.6,86.67 68.44,84.66 67.24,83.9 67.19,83.88 66.65,83.89 66.1,83.9 65.56,84.3 64.91,84.81 62.05,87.06 55.52,91.03 45.45,90.45 35.58,89.88 29.93,83.8 27.99,80.67 27.62,80.07 27.22,79.57 26.76,79.52 26.23,79.47 25.64,80.01 25.2,80.45 21,84.54 7.78,85.77 3.4,78.8 c 4.46,7.15 11.35,10.69 18.42,10.78 0.93,0.01 1.83,-0.05 2.73,-0.16 4.61,9.72 14.5,16.44 25.97,16.44 6.92,0 13.26,-2.45 18.22,-6.52 3.79,2.81 8.47,4.49 13.55,4.49 10.42,0 19.19,-6.99 21.92,-16.54 1.72,0.57 3.55,0.89 5.46,0.89 9.58,0 17.35,-7.77 17.35,-17.35 -0.02,-5.1 -2.58,-10.86 -7.17,-14.04 z"
   style="fill:#b9cdd2;fill-rule:nonzero"
   id="path10-4-3-0" />&#10;    </g></svg>
