<?xml version="1.0" encoding="UTF-8" standalone="no"?>
<!-- Generator: Adobe Illustrator 26.3.1, SVG Export Plug-In . SVG Version: 6.00 Build 0)  -->

<svg
   version="1.1"
   id="Layer_5"
   x="0px"
   y="0px"
   viewBox="0 0 128 128"
   style="enable-background:new 0 0 128 128;"
   xml:space="preserve"
   sodipodi:docname="flute.svg"
   inkscape:version="1.3 (0e150ed6c4, 2023-07-21)"
   xmlns:inkscape="http://www.inkscape.org/namespaces/inkscape"
   xmlns:sodipodi="http://sodipodi.sourceforge.net/DTD/sodipodi-0.dtd"
   xmlns="http://www.w3.org/2000/svg"
   xmlns:svg="http://www.w3.org/2000/svg"><defs
   id="defs30656"><inkscape:path-effect
     effect="envelope"
     id="path-effect1"
     is_visible="true"
     lpeversion="1"
     yy="true"
     xx="true"
     bendpath1="M 3.9935855,4.027534 H 123.9995"
     bendpath2="M 123.9995,4.027534 V 123.97644"
     bendpath3="M 3.9935855,123.97644 H 123.9995"
     bendpath4="M 3.9935855,4.027534 V 123.97644" /></defs><sodipodi:namedview
   id="namedview30654"
   pagecolor="#ffffff"
   bordercolor="#000000"
   borderopacity="0.25"
   inkscape:showpageshadow="2"
   inkscape:pageopacity="0.0"
   inkscape:pagecheckerboard="0"
   inkscape:deskcolor="#d1d1d1"
   showgrid="false"
   inkscape:zoom="1.4998398"
   inkscape:cx="83.675603"
   inkscape:cy="95.676885"
   inkscape:window-width="1366"
   inkscape:window-height="697"
   inkscape:window-x="-8"
   inkscape:window-y="-8"
   inkscape:window-maximized="1"
   inkscape:current-layer="g30651" />&#10;<g
   id="g30651">&#10;	&#10;	&#10;	&#10;		&#10;	&#10;		&#10;	&#10;	&#10;	&#10;	&#10;<g
   id="g7"
   transform="matrix(0.63048297,0.63048297,-0.63048297,0.63048297,125.58961,43.396134)"
   style="stroke-width:1.12153"><path
     id="rect1"
     style="fill:#fbb817;fill-opacity:1;stroke-width:6.72918;stroke-linecap:round"
     d="m -46.638147,-2.8164079 c 0,-3.9079409 3.29511,-12.6457171 14.134696,-12.6457171 10.839584,0 14.134694,8.7377762 14.134694,12.6457171 V 134.81672 c 0,3.90794 -4.520526,10.44574 -14.134694,10.44574 -9.614169,0 -14.134696,-6.5378 -14.134696,-10.44574 z"
     sodipodi:nodetypes="szsszss" /><circle
     style="fill:#2f2f2f;fill-opacity:1;stroke-width:6.72919;stroke-linecap:round"
     id="path1"
     cx="-36.773479"
     cy="1.4143647"
     r="5.1860037" /><circle
     style="fill:#2f2f2f;fill-opacity:1;stroke-width:6.72919;stroke-linecap:round"
     id="circle1"
     cx="-36.773479"
     cy="34.084522"
     r="5.1860037" /><circle
     style="fill:#2f2f2f;fill-opacity:1;stroke-width:6.72919;stroke-linecap:round"
     id="circle2"
     cx="-36.773479"
     cy="48.084522"
     r="5.1860037" /><circle
     style="fill:#2f2f2f;fill-opacity:1;stroke-width:6.72919;stroke-linecap:round"
     id="circle3"
     cx="-36.773479"
     cy="62.084518"
     r="5.1860037" /><circle
     style="fill:#2f2f2f;fill-opacity:1;stroke-width:6.72919;stroke-linecap:round"
     id="circle4"
     cx="-36.773479"
     cy="76.084518"
     r="5.1860037" /><circle
     style="fill:#2f2f2f;fill-opacity:1;stroke-width:6.72919;stroke-linecap:round"
     id="circle5"
     cx="-36.773479"
     cy="90.084518"
     r="5.1860037" /><circle
     style="fill:#2f2f2f;fill-opacity:1;stroke-width:6.72919;stroke-linecap:round"
     id="circle6"
     cx="-36.773479"
     cy="104.08452"
     r="5.1860037" /><path
     id="path6"
     style="fill:#855c52;fill-opacity:1;stroke-width:6.72918;stroke-linecap:round"
     d="m -32.524383,12.387772 c -10.644692,0 -14.113575,5.757813 -14.113575,5.757813 v 8.943359 c 0,0 5.120761,-5.922706 14.113575,-5.922706 8.992814,0 14.156473,5.909034 14.156473,5.909034 v -8.931641 c 0,0 -3.511781,-5.755859 -14.156473,-5.755859 z"
     sodipodi:nodetypes="zcczccz" /><path
     id="path7"
     style="fill:#855c52;fill-opacity:1;stroke-width:6.72918;stroke-linecap:round"
     d="m -32.524383,112.06508 c -10.644692,0 -14.113575,5.75782 -14.113575,5.75782 v 8.94336 c 0,0 5.120761,-5.92271 14.113575,-5.92271 8.992814,0 14.156473,5.90903 14.156473,5.90903 v -8.93164 c 0,0 -3.511781,-5.75586 -14.156473,-5.75586 z"
     sodipodi:nodetypes="zcczccz" /><ellipse
     style="fill:#2f2f2f;fill-opacity:1;stroke-width:6.72918;stroke-linecap:round"
     id="circle7"
     cx="-32.503448"
     cy="133.78618"
     rx="9.4545908"
     ry="7.0718236" /></g></g>&#10;</svg>
