<?xml version="1.0" encoding="UTF-8" standalone="no"?>
<!-- Generator: Adobe Illustrator 26.3.1, SVG Export Plug-In . SVG Version: 6.00 Build 0)  -->

<svg
   version="1.1"
   id="Layer_5"
   x="0px"
   y="0px"
   viewBox="0 0 128 128"
   style="enable-background:new 0 0 128 128;"
   xml:space="preserve"
   sodipodi:docname="flute.svg"
   inkscape:version="1.2.2 (732a01da63, 2022-12-09)"
   xmlns:inkscape="http://www.inkscape.org/namespaces/inkscape"
   xmlns:sodipodi="http://sodipodi.sourceforge.net/DTD/sodipodi-0.dtd"
   xmlns="http://www.w3.org/2000/svg"
   xmlns:svg="http://www.w3.org/2000/svg"><defs
   id="defs30656" /><sodipodi:namedview
   id="namedview30654"
   pagecolor="#ffffff"
   bordercolor="#000000"
   borderopacity="0.25"
   inkscape:showpageshadow="2"
   inkscape:pageopacity="0.0"
   inkscape:pagecheckerboard="0"
   inkscape:deskcolor="#d1d1d1"
   showgrid="false"
   inkscape:zoom="1.4998398"
   inkscape:cx="-33.003525"
   inkscape:cy="130.01389"
   inkscape:window-width="1366"
   inkscape:window-height="697"
   inkscape:window-x="-8"
   inkscape:window-y="-8"
   inkscape:window-maximized="1"
   inkscape:current-layer="Layer_5" />
<g
   id="g30651">
	<path
   style="fill:#F6BC41;"
   d="M119.02,7c-4.41-3.99-9.01-2.98-10.56-2.48c-0.33,0.11-0.63,0.29-0.88,0.54L6.06,104.96l16.95,16.95   l100.33-103.4c0.35-0.37,0.58-0.84,0.63-1.34C124.12,15.46,123.87,11.38,119.02,7z"
   id="path30591" />
	<path
   style="fill:#A65F3E;"
   d="M30.82,113.89c1.09-4.22-0.25-9.17-3.91-12.83c-3.66-3.66-8.7-5.01-12.91-3.92l-7.93,7.81   l16.95,16.95L30.82,113.89z"
   id="path30593" />
	
		<ellipse
   transform="matrix(0.7071 -0.7071 0.7071 0.7071 -75.8591 43.5437)"
   style="fill:#F6BC41;"
   cx="14.63"
   cy="113.34"
   rx="9.08"
   ry="11.99"
   id="ellipse30595" />
	
		<ellipse
   transform="matrix(0.7071 -0.7071 0.7071 0.7071 -75.8591 43.5437)"
   style="fill:#3E2723;"
   cx="14.63"
   cy="113.34"
   rx="6.23"
   ry="8.23"
   id="ellipse30597" />
	<g
   id="g30643">
		<g
   id="g30635">
			<g
   id="g30603">
				
					<ellipse
   transform="matrix(0.6969 -0.7172 0.7172 0.6969 -57.1117 49.5269)"
   style="fill:#3E2723;"
   cx="30.04"
   cy="92.33"
   rx="4.46"
   ry="4.57"
   id="ellipse30599" />
				
			</g>
			<g
   id="g30609">
				
					<ellipse
   transform="matrix(0.6966 -0.7175 0.7175 0.6966 -46.7589 53.7991)"
   style="fill:#3E2723;"
   cx="40.23"
   cy="82.19"
   rx="4.31"
   ry="4.41"
   id="ellipse30605" />
				
			</g>
			<g
   id="g30615">
				
					<ellipse
   transform="matrix(0.6963 -0.7178 0.7178 0.6963 -36.3945 58.0749)"
   style="fill:#3E2723;"
   cx="50.43"
   cy="72.04"
   rx="4.16"
   ry="4.26"
   id="ellipse30611" />
				
			</g>
			<g
   id="g30621">
				
					<ellipse
   transform="matrix(0.6959 -0.7181 0.7181 0.6959 -26.0166 62.3548)"
   style="fill:#3E2723;"
   cx="60.62"
   cy="61.9"
   rx="4.01"
   ry="4.1"
   id="ellipse30617" />
				
			</g>
			<g
   id="g30627">
				
					<ellipse
   transform="matrix(0.6955 -0.7185 0.7185 0.6955 -15.623 66.6394)"
   style="fill:#3E2723;"
   cx="70.81"
   cy="51.75"
   rx="3.86"
   ry="3.95"
   id="ellipse30623" />
				
			</g>
			<g
   id="g30633">
				
					<ellipse
   transform="matrix(0.695 -0.719 0.719 0.695 -5.2108 70.9296)"
   style="fill:#3E2723;"
   cx="81"
   cy="41.61"
   rx="3.71"
   ry="3.8"
   id="ellipse30629" />
				
			</g>
		</g>
		<g
   id="g30641">
			
				<ellipse
   transform="matrix(0.7248 -0.689 0.689 0.7248 19.0133 77.6292)"
   style="fill:#3E2723;"
   cx="106.67"
   cy="15.02"
   rx="3.42"
   ry="3.63"
   id="ellipse30637" />
			
		</g>
	</g>
	<path
   style="fill:#A65F3E;"
   d="M108.54,33.89c0,0,0.68-5.63-4.64-10.95S93.81,18.6,93.81,18.6l-6.16,6.07c0,0,6.23-0.11,10.43,4.09   s4.7,11.04,4.7,11.04L108.54,33.89z"
   id="path30645" />
	
	
</g>
</svg>
