<?xml version="1.0" encoding="UTF-8" standalone="no"?>
<!-- Generator: Adobe Illustrator 24.0.3, SVG Export Plug-In . SVG Version: 6.00 Build 0)  -->

<svg
   version="1.1"
   id="Layer_2"
   x="0px"
   y="0px"
   viewBox="0 0 128 128"
   style="enable-background:new 0 0 128 128;"
   xml:space="preserve"
   sodipodi:docname="fly.svg"
   inkscape:version="1.2.2 (732a01da63, 2022-12-09)"
   xmlns:inkscape="http://www.inkscape.org/namespaces/inkscape"
   xmlns:sodipodi="http://sodipodi.sourceforge.net/DTD/sodipodi-0.dtd"
   xmlns="http://www.w3.org/2000/svg"
   xmlns:svg="http://www.w3.org/2000/svg"><defs
   id="defs55040">
	
	
	
	
	
	
	
	
	
	
	
	
	
	
	
	
	
	
	
	
	
	
</defs><sodipodi:namedview
   id="namedview55038"
   pagecolor="#ffffff"
   bordercolor="#000000"
   borderopacity="0.25"
   inkscape:showpageshadow="2"
   inkscape:pageopacity="0.0"
   inkscape:pagecheckerboard="0"
   inkscape:deskcolor="#d1d1d1"
   showgrid="false"
   inkscape:zoom="4.2421875"
   inkscape:cx="60.110497"
   inkscape:cy="78.968692"
   inkscape:window-width="1366"
   inkscape:window-height="697"
   inkscape:window-x="-8"
   inkscape:window-y="-8"
   inkscape:window-maximized="1"
   inkscape:current-layer="Layer_2" />
<path
   d="m 25.28483,6.919188 c 3.052869,-3.7513852 7.827722,-5.5066566 12.777304,-4.6775963 2.119469,0.3440225 4.043399,1.052962 5.739039,2.111736 14.197739,8.8867273 10.648326,30.1593773 7.123049,47.3484123 -0.02393,0.105011 -1.45621,8.804343 -4.298569,9.910641 -2.317768,0.902083 -5.667274,-2.234413 -5.667274,-2.234413 -0.147107,-0.09828 -3.711804,-3.443808 -4.118782,-3.906051 -6.502908,-6.891088 -11.383078,-14.918848 -14.535536,-23.866994 -0.697832,-1.98553 -1.232378,-4.219531 -1.515798,-6.594373 -0.113687,-0.913441 -0.18942,-1.842992 -0.205886,-2.78189 -0.02687,-0.876514 -0.01424,-1.75926 0.03947,-2.63836 0.282024,-4.24577 1.544546,-8.565184 4.333827,-12.2547517 z"
   fill="#bdbdbd"
   id="path57653" /><path
   style="fill:#6593a2"
   d="m 63.3,84.21 -10.48,7.58 c 0,0 2.96,4.32 2.8,5.6 -0.1,0.77 -9.32,3.43 -10.62,5.41 -1.3,1.98 -3.09,12.07 -3.09,12.07 0,0 -5.7,7.15 -2.66,8.74 4.02,2.1 8.21,-4.88 8.93,-6.9 0.72,-2.03 2.46,-8.64 3.09,-8.98 2.27,-1.22 8.5,-2.51 11.59,-5.41 2.69,-2.52 4.63,-11.68 4.63,-11.68 l 7.56,5.31 c 0,0 1.49,15.21 2.2,17.86 0.92,3.43 4.02,6.71 6.28,8.59 2.9,2.41 6.08,-0.19 4.92,-2.41 -2.04,-3.91 -5.12,-8.01 -5.12,-8.01 0,0 0.58,-17.09 -0.77,-19.94 -0.73,-1.53 -9.08,-7.29 -9.08,-7.29 0,0 5.41,-0.43 8.01,-0.29 2.61,0.14 5.36,0.14 6.08,1.16 0.72,1.01 0.56,17.9 2.32,19.5 1.54,1.41 2.97,2.08 5.6,3.48 3.28,1.74 6.18,2.03 7.15,0.58 1.18,-1.76 -0.39,-4.4 -2.99,-5.89 -2.61,-1.5 -4.83,-2.32 -4.83,-2.32 0,0 0.41,-18.35 -0.68,-20.37 -1.09,-2.03 -3.67,-2.95 -10.04,-3.96 -6.37,-1.01 -14.15,0.19 -14.15,0.19 z"
   id="path54981" /><path
   style="fill:#6593a2"
   d="m 39.78,96.43 -7.7,-4.61 c 0,0 -6.88,3.16 -6.93,7.57 -0.05,3.8 0.24,11.72 0,13.46 -0.24,1.74 -3.66,5.75 -1.39,7.68 2.72,2.32 7.46,-3.43 8.11,-7.1 0.58,-3.28 0.19,-9.65 0.19,-12.36 0,-2.13 7.72,-4.64 7.72,-4.64 z"
   id="path54983" /><path
   style="fill:#5a818e"
   d="m 47.49,49.58 c 0,0 1.59,-9.27 6.52,-15.35 4.93,-6.08 16.07,-10.43 28.82,-10.43 12.75,0 20.18,11.15 19.58,22.16 -0.6,11.01 -6.4,17.6 -13.06,23.86 -6.66,6.26 -20.83,13.94 -20.83,13.94 l -2.37,1.45 c 0,0 -6.52,21.16 -35.26,10.82 C 14.61,90.19 16.35,72.5 19.39,66.39 22.4,60.34 27.75,56.9 36.92,55.82 38.31,55.65 47.49,49.58 47.49,49.58 Z"
   id="path54985" /><g
   id="g54989">
		
	</g><g
   id="g54993">
		
	</g><g
   id="g54997">
		
	</g><g
   id="g55001">
		
	</g><g
   id="g55005">
		
	</g><path
   d="m 105.56841,15.331598 c 5.38307,0.386038 10.03815,3.626202 12.45378,8.678656 1.04468,2.154046 1.61923,4.371069 1.74471,6.594008 0.98199,18.644683 -20.719832,29.030267 -38.677049,36.811701 -0.111356,0.05001 -8.968009,4.315232 -11.802999,2.420141 -2.302307,-1.538914 -1.588,-6.615001 -1.588,-6.615001 -0.0037,-0.19413 0.772504,-5.594367 0.929453,-6.256685 2.127078,-10.344644 6.331762,-19.946618 12.482985,-28.545887 1.361943,-1.908508 3.063033,-3.83373 5.049885,-5.602609 0.762739,-0.689225 1.561017,-1.351307 2.412607,-1.972672 0.783277,-0.5835 1.592281,-1.141731 2.433072,-1.653172 4.053754,-2.463703 8.809337,-4.070641 13.967016,-3.890509 z"
   fill="#eceff1"
   id="path57655" /><path
   style="fill:#93b1bb"
   d="m 33.6,56.37 c -0.01,-0.05 2.03,-5.02 5.79,-8.01 5.03,-4 11.3,-5.21 14.87,-5.12 3.97,0.11 6.38,1.56 7.34,2.22 2.8,1.93 6.47,4.92 8.69,10.33 2.22,5.41 2.15,14.43 1.83,16.8 -1.16,8.59 -3.48,11.84 -6.08,12.81 1.57,-3.81 1.54,-7.74 0.97,-11.21 -0.45,-2.68 -2.46,-7.46 -5,-9.85 -3.89,-3.66 -7.67,-6.71 -17.12,-8.06 -6.91,-1 -11.28,0.14 -11.29,0.09 z"
   id="path55007" />
<path
   d="m 34.384198,89.333386 c -2.039847,-1.273674 -3.230488,-3.027549 -3.407014,-3.294733 -0.625005,-0.962777 -0.352469,-2.24981 0.60913,-2.876621 0.959211,-0.6264 2.244708,-0.355504 2.869561,0.604722 0.04324,0.05643 1.595752,2.330559 3.816916,2.716815 1.195263,0.206763 2.412324,-0.17128 3.724384,-1.157097 0.920603,-0.692 2.228245,-0.50436 2.917112,0.41859 0.69016,0.921441 0.502851,2.226952 -0.41859,2.917112 -2.260838,1.688337 -4.605922,2.333249 -6.96646,1.918827 -1.207625,-0.234099 -2.255695,-0.69231 -3.145039,-1.247615 z"
   id="path61673"
   style="fill:#2f2f2f;fill-opacity:1;stroke-width:1" /><ellipse
   style="fill:#9b1818;fill-opacity:1;stroke:none;stroke-width:35.9054;stroke-linecap:round;stroke-opacity:1"
   id="path63508"
   cx="30.056423"
   cy="70.79866"
   rx="8.6690025"
   ry="8.9075985" /><path
   id="ellipse64981"
   style="fill:#2f2f2f;fill-opacity:1;stroke:none;stroke-width:35.9054;stroke-linecap:round;stroke-opacity:1"
   d="M 30.056641 61.890625 A 8.6690025 8.9075985 0 0 0 21.386719 70.798828 A 8.6690025 8.9075985 0 0 0 24.912109 77.941406 A 8.6690025 8.9075985 0 0 0 27.972656 78.539062 A 8.6690025 8.9075985 0 0 0 36.642578 69.632812 A 8.6690025 8.9075985 0 0 0 33.136719 62.476562 A 8.6690025 8.9075985 0 0 0 33.132812 62.472656 A 8.6690025 8.9075985 0 0 0 30.056641 61.890625 z " /><ellipse
   style="fill:#9b1818;fill-opacity:1;stroke:none;stroke-width:35.9054;stroke-linecap:round;stroke-opacity:1"
   id="ellipse65135"
   cx="50.141914"
   cy="74.215698"
   rx="9.0023575"
   ry="9.2501287" /><path
   id="path65137"
   style="fill:#2f2f2f;fill-opacity:1;stroke:none;stroke-width:35.9054;stroke-linecap:round;stroke-opacity:1"
   d="m 50.142141,64.965117 a 9.0023577,9.2501286 0 0 0 -9.003313,9.250756 9.0023577,9.2501286 0 0 0 3.660954,7.417237 9.0023577,9.2501286 0 0 0 3.178237,0.620638 9.0023577,9.2501286 0 0 0 9.003312,-9.248729 9.0023577,9.2501286 0 0 0 -3.640672,-7.431434 9.0023577,9.2501286 0 0 0 -0.004,-0.004 9.0023577,9.2501286 0 0 0 -3.194461,-0.604412 z" /></svg>
