<?xml version="1.0" encoding="UTF-8" standalone="no"?>
<svg
   width="100%"
   height="100%"
   viewBox="0 0 128 128"
   version="1.1"
   xml:space="preserve"
   style="fill-rule:evenodd;clip-rule:evenodd;stroke-linecap:round;stroke-linejoin:round;stroke-miterlimit:10;"
   id="svg7"
   sodipodi:docname="foot dark skin tone.svg"
   inkscape:version="1.3 (0e150ed6c4, 2023-07-21)"
   xmlns:inkscape="http://www.inkscape.org/namespaces/inkscape"
   xmlns:sodipodi="http://sodipodi.sourceforge.net/DTD/sodipodi-0.dtd"
   xmlns="http://www.w3.org/2000/svg"
   xmlns:svg="http://www.w3.org/2000/svg"><defs
   id="defs7">&#10;        &#10;        &#10;    &#10;            &#10;            &#10;            &#10;            &#10;        <clipPath
   clipPathUnits="userSpaceOnUse"
   id="clipPath15"><path
     d="M 45.450658,112.41122 C 20.280658,103.95122 13.31,103.98 9.42,99.09 3.17,91.23 4.35,84.21 8.72,74.01 14.26,61.09 14.38,52.73 14.11,39.06 13.95,30.88 13.42,28.132331 13.01,21.892331 c 0,-6.712084 0.46411,-14.3931499 21.143025,-14.3931499 20.678915,0 22.117868,6.6517849 21.99557,14.1731499 -0.26,14.4 -0.264132,29.00618 0.04527,36.652386 0.231548,5.722288 1.907778,11.563937 3.990366,14.042566 3.777267,4.495582 7.515548,8.904049 25.393556,14.414695 13.597185,4.191143 19.420003,5.548223 26.567113,6.936678 8.96073,1.740782 14.24565,7.348104 13.35259,12.588364 -0.30315,1.7788 -1.87121,2.12368 -2.04121,3.56544 -0.22,1.84083 -0.52612,2.73526 -1.88164,4.47261 -0.82603,1.05872 -1.78687,1.16559 -2.08955,1.47582 -0.29585,0.30322 -0.99421,0.75165 -1.47107,1.78564 -0.26328,0.57088 -0.72364,2.10171 -3.18291,2.76066 -2.10913,0.56513 -3.91638,-0.57845 -4.55218,-0.84192 -0.61486,-0.25479 -0.88057,-0.14911 -1.52513,0.75963 -0.40035,0.56441 -1.18708,2.26254 -4.76821,2.69638 -3.16724,0.3837 -4.908799,-0.51818 -5.966249,-0.65168 -1.67372,-0.21209 -5.078007,2.48299 -14.654143,2.48299 -13.959318,0 -18.652649,-5.92717 -37.914535,-12.40137 z"
     style="fill:#fac036;fill-opacity:1;fill-rule:nonzero"
     id="path16"
     sodipodi:nodetypes="scccczcssssscsssssssssss" /></clipPath></defs><sodipodi:namedview
   id="namedview7"
   pagecolor="#ffffff"
   bordercolor="#000000"
   borderopacity="0.25"
   inkscape:showpageshadow="2"
   inkscape:pageopacity="0.0"
   inkscape:pagecheckerboard="0"
   inkscape:deskcolor="#d1d1d1"
   showguides="false"
   inkscape:zoom="2.867097"
   inkscape:cx="41.679789"
   inkscape:cy="77.953413"
   inkscape:window-width="1366"
   inkscape:window-height="697"
   inkscape:window-x="-8"
   inkscape:window-y="-8"
   inkscape:window-maximized="1"
   inkscape:current-layer="svg7" />&#10;    <path
   d="M 45.450658,112.41122 C 20.280658,103.95122 13.31,103.98 9.42,99.09 3.17,91.23 4.35,84.21 8.72,74.01 c 5.54,-12.92 5.66,-23.006397 5.39,-36.676397 -0.16,-8.18 -0.69,-10.927669 -1.1,-17.167669 0,-6.712084 0.46411,-14.3931498 21.143025,-14.3931498 20.678915,0 22.117868,6.6517848 21.99557,14.1731498 -0.26,14.4 -0.264132,30.732577 0.04527,38.378783 0.231548,5.722288 1.907778,11.563937 3.990366,14.042566 3.777267,4.495582 7.515548,8.904049 25.393556,14.414695 13.597185,4.191143 19.420003,5.548223 26.567113,6.936678 8.96073,1.740782 14.24565,7.348104 13.35259,12.588364 -0.30315,1.7788 -1.87121,2.12368 -2.04121,3.56544 -0.22,1.84083 -0.52612,2.73526 -1.88164,4.47261 -0.82603,1.05872 -1.78687,1.16559 -2.08955,1.47582 -0.29585,0.30322 -0.99421,0.75165 -1.47107,1.78564 -0.26328,0.57088 -0.72364,2.10171 -3.18291,2.76066 -2.10913,0.56513 -3.91638,-0.57845 -4.55218,-0.84192 -0.61486,-0.25479 -0.88057,-0.14911 -1.52513,0.75963 -0.40035,0.56441 -1.18708,2.26254 -4.76821,2.69638 -3.16724,0.3837 -4.908799,-0.51818 -5.966249,-0.65168 -1.67372,-0.21209 -5.078007,2.48299 -14.654143,2.48299 -13.959318,0 -18.652649,-5.92717 -37.914535,-12.40137 z"
   style="fill:#70534a;fill-opacity:1;fill-rule:nonzero"
   id="path1"
   sodipodi:nodetypes="scccczcssssscsssssssssss" />&#10;    &#10;            &#10;        &#10;    &#10;<path
   style="fill:#35201a;fill-opacity:1;stroke-width:4.99999;stroke-linecap:round"
   d="m 31.009998,69.733603 c -1.82334,-1.82334 -10.38135,2.683103 -10.38135,12.770408 0,8.946168 9.345571,14.667078 11.560645,12.452004 1.928388,-1.928389 -7.941251,-4.763468 -7.941251,-12.452004 0,-9.590432 8.585295,-10.947069 6.761956,-12.770408 z"
   id="path11"
   sodipodi:nodetypes="zsssz" /><path
   id="path12"
   style="fill:#35201a;fill-opacity:1;stroke-width:5;stroke-linecap:round"
   d="m 118.56514,101.96546 c -0.96823,0 -1.53066,0.52814 -1.53066,1.17256 0,1.1897 2.75208,3.1859 4.33233,5.1329 1.58024,1.94698 2.38042,3.78467 3.54059,3.45652 1.16018,-0.32814 1.56087,-1.90397 -0.35942,-4.50725 -1.92029,-2.60328 -4.65808,-5.25473 -5.98284,-5.25473 z m -7.59703,4.61245 c -1.02515,0 -1.72603,0.59769 -1.72603,1.32645 0,1.3454 3.63243,4.52536 5.54414,6.88073 1.91167,2.35537 2.87862,4.57868 4.28214,4.18171 1.40352,-0.39697 1.88781,-2.30298 -0.43524,-5.45228 -2.32307,-3.14931 -5.98421,-6.93661 -7.66501,-6.93661 z m -10.03169,2.75519 c -1.111878,0 -1.871023,0.64774 -1.871023,1.43814 0,1.4592 5.858393,7.12638 7.657173,9.34264 1.79876,2.21623 2.70926,4.3076 4.02988,3.93407 1.32061,-0.37352 1.77608,-2.16619 -0.40977,-5.12948 -2.18586,-2.96329 -7.5833,-9.58537 -9.40626,-9.58537 z m -11.442225,1.77391 c -1.214927,0 -1.921153,0.69173 -1.921153,1.53576 0,1.55818 5.11135,5.78883 7.006155,8.1234 1.894803,2.33455 2.853899,5.1273 4.245022,4.73383 1.391121,-0.39346 1.870891,-2.28338 -0.431645,-5.40487 -2.302545,-3.12148 -6.911812,-8.98812 -8.898379,-8.98812 z"
   clip-path="url(#clipPath15)"
   sodipodi:nodetypes="ssssssssssssssssssssssss" /></svg>
