<?xml version="1.0" encoding="UTF-8" standalone="no"?>
<!-- Generator: Adobe Illustrator 26.3.1, SVG Export Plug-In . SVG Version: 6.00 Build 0)  -->

<svg
   version="1.1"
   id="Art"
   x="0px"
   y="0px"
   viewBox="0 0 128 128"
   style="enable-background:new 0 0 128 128;"
   xml:space="preserve"
   sodipodi:docname="goose.svg"
   inkscape:version="1.2.2 (732a01da63, 2022-12-09)"
   xmlns:inkscape="http://www.inkscape.org/namespaces/inkscape"
   xmlns:sodipodi="http://sodipodi.sourceforge.net/DTD/sodipodi-0.dtd"
   xmlns="http://www.w3.org/2000/svg"
   xmlns:svg="http://www.w3.org/2000/svg"><defs
   id="defs21721" /><sodipodi:namedview
   id="namedview21719"
   pagecolor="#ffffff"
   bordercolor="#000000"
   borderopacity="0.25"
   inkscape:showpageshadow="2"
   inkscape:pageopacity="0.0"
   inkscape:pagecheckerboard="0"
   inkscape:deskcolor="#d1d1d1"
   showgrid="false"
   inkscape:zoom="2"
   inkscape:cx="56.75"
   inkscape:cy="46"
   inkscape:window-width="1366"
   inkscape:window-height="697"
   inkscape:window-x="-8"
   inkscape:window-y="-8"
   inkscape:window-maximized="1"
   inkscape:current-layer="Art"
   showguides="true" />


<g
   fill="#fcc21b"
   id="g22204"
   transform="rotate(-17.71899,39.151073,77.36192)"
   style="fill:#ed6c30"><path
     d="m 52.29,103.85 c -0.75,2.44 -1.25,5.18 -2.68,7.25 -3.2,4.63 -10.878549,-0.49575 -14.454676,1.60823 -1.658623,0.96657 -1.742331,3.51677 -0.930061,5.03579 1.253245,2.34245 4.173653,2.06638 6.432883,2.54333 1.250082,0.27293 2.549573,0.30931 3.845874,0.37716 1.162887,0.067 2.07598,0.20549 3.21598,0.42549 1.5,0.3 3.12,-0.09 4.25,-1.14 1.36,-1.24 1.3,-2.8 1.65,-4.48 0.49,-2.43 1.44,-4.75 2.41,-7.03 0.87,-2.07 2.88,-5.1 2.58,-7.43 -0.08,-0.66 -0.6,-0.99 -1.22,-1.21 -0.71,-0.26 -1.74,-0.56 -2.5,-0.48 -1.4,0.13 -1.87,2.44 -2.26,3.5 -0.12,0.34 -0.23,0.68 -0.34,1.03 z"
     id="path22202"
     style="fill:#ed6c30"
     sodipodi:nodetypes="ccccccccccccccc" /></g><g
   fill="#fcc21b"
   id="g22374"
   transform="rotate(-17.71899,56.788118,23.497065)"
   style="fill:#ed6c30"><path
     d="m 52.29,103.85 c -0.75,2.44 -1.560934,5.68781 -2.518348,8.01443 -2.142924,5.2043 -8.013572,1.35516 -10.473164,4.01628 -1.142169,1.22494 -0.821547,3.79996 0.03909,5.20183 1.327685,2.16169 3.554364,1.43743 5.381344,1.57091 1.012276,0.0829 2.027157,-0.0794 3.044319,-0.20957 0.913412,-0.11057 1.823232,-0.13071 2.719375,-0.34341 1.182485,-0.26982 2.594904,-0.82359 3.475943,-2.08976 1.065405,-1.5007 0.675242,-3.01231 0.66021,-4.72832 C 54.581148,112.80377 55.06,110.72 56.03,108.44 c 0.87,-2.07 2.88,-5.1 2.58,-7.43 -0.08,-0.66 -0.6,-0.99 -1.22,-1.21 -0.71,-0.26 -1.74,-0.56 -2.5,-0.48 -1.4,0.13 -1.87,2.44 -2.26,3.5 -0.12,0.34 -0.23,0.68 -0.34,1.03 z"
     id="path22372"
     style="fill:#ed6c30"
     sodipodi:nodetypes="ccccccccccccccc" /></g><path
   id="path21704"
   style="fill:#e0e0e0"
   d="M 36.441406,5.8769531 C 30.55891,5.7772463 23.790039,9.564242 23.790039,17.391095 c 0,7.826854 4.292667,8.498422 6.172663,9.006864 3.219994,0.854618 9.192623,1.100169 10.462619,4.313093 1.579998,3.980996 -1.149405,6.846272 -4.095243,12.589729 -4.329992,8.499984 -7.050234,13.05845 -6.990234,18.898438 0.07,7.429984 3.320637,14.631502 9.890625,23.021484 6.569986,8.389984 9.174377,10.749768 19.584258,14.289922 9.809998,3.009995 20.468991,3.630745 34.499219,-6.449988 15.869144,-11.401995 17.448624,-24.403591 17.619614,-27.140602 0.21338,-3.415489 -2.18411,-3.390191 -3.49411,-3.080191 -0.82,0.19 -5.62039,1.100625 -10.15039,1.390625 -2.01999,0.13 -13.248591,-4.529922 -13.308591,-4.419922 -0.0011,0.002 0.0067,0.0095 0.0059,0.01172 -1.945812,-1.069746 -9.111023,-4.780701 -9.568359,-5.017578 0.110224,-0.261639 -4.433154,-2.696199 -7.228516,-3.074219 -4.929995,-0.67 -7.859375,0.128906 -7.859375,0.128906 0,0 -5.123145,-0.977611 -5.243145,-8.717604 C 53.995034,37.53337 56.374219,31.563226 55.994219,24.142121 55.514219,14.611519 51.39941,11.452082 45.859416,8.509603 42.287504,6.6097019 39.115268,5.9222744 36.441406,5.8769531 Z"
   sodipodi:nodetypes="szccccscssccccccccccs" />






<path
   style="fill:#86a8b4;stroke-width:35.9054;stroke-linecap:round"
   d="m 64.493597,47.691159 c -13.167246,0 -23.437698,7.50533 -23.437698,19.882542 0,12.377212 11.850522,19.22418 30.284667,19.22418 18.434146,0 28.046224,-8.427038 28.046224,-10.270452 0,-1.843415 -5.081883,-1.410611 -5.081883,-2.10891 0,-0.698297 11.871073,-2.746642 11.871073,-10.567586 0,-2.700088 -2.51387,-1.396597 -7.44852,-1.396597 -11.68464,0 -14.183166,-14.763177 -34.233863,-14.763177 z"
   id="path21948"
   sodipodi:nodetypes="ssssssss" /><path
   style="fill:#ed6c30;stroke-width:35.9055;stroke-linecap:round"
   d="m 25.985787,15.84099 c -2.379523,0 -3.532824,2.196131 -7.229843,4.374148 -3.381651,1.992225 -5.55162,2.086152 -5.55162,4.551324 0,2.326644 2.869002,3.096716 9.752622,3.096716 6.883619,0 7.29032,-1.515283 6.979417,-4.811648 -0.349621,-3.706869 -1.686156,-7.21054 -3.950576,-7.21054 z"
   id="path22009"
   sodipodi:nodetypes="ssssss" /><ellipse
   style="fill:#212121;stroke-width:35.9055;stroke-linecap:round"
   id="path22072"
   cx="36.178135"
   cy="17.202368"
   rx="2.9831069"
   ry="3.3782203" /></svg>
