<?xml version="1.0" encoding="UTF-8" standalone="no"?>
<!-- Generator: Adobe Illustrator 26.3.1, SVG Export Plug-In . SVG Version: 6.00 Build 0)  -->

<svg
   version="1.1"
   id="Art"
   x="0px"
   y="0px"
   viewBox="0 0 128 128"
   style="enable-background:new 0 0 128 128;"
   xml:space="preserve"
   sodipodi:docname="goose.svg"
   inkscape:version="1.2.2 (732a01da63, 2022-12-09)"
   xmlns:inkscape="http://www.inkscape.org/namespaces/inkscape"
   xmlns:sodipodi="http://sodipodi.sourceforge.net/DTD/sodipodi-0.dtd"
   xmlns="http://www.w3.org/2000/svg"
   xmlns:svg="http://www.w3.org/2000/svg"><defs
   id="defs21721" /><sodipodi:namedview
   id="namedview21719"
   pagecolor="#ffffff"
   bordercolor="#000000"
   borderopacity="0.25"
   inkscape:showpageshadow="2"
   inkscape:pageopacity="0.0"
   inkscape:pagecheckerboard="0"
   inkscape:deskcolor="#d1d1d1"
   showgrid="false"
   inkscape:zoom="2"
   inkscape:cx="53.75"
   inkscape:cy="88.5"
   inkscape:window-width="1366"
   inkscape:window-height="697"
   inkscape:window-x="-8"
   inkscape:window-y="-8"
   inkscape:window-maximized="1"
   inkscape:current-layer="Art"
   showguides="true" />
<path
   style="fill:#ed6c30"
   d="m 56.33,99.95 c -0.45,2.26 -2.28,11.09 -3.3,12.27 -0.79,0.92 -3.18,2.16 -5.4,2.59 -1.73,0.33 -3.53,0.23 -4.64,0.81 -1.41,0.74 -2.57,2.3 -2.42,3.6 0.12,1.06 2.49,1.17 4.63,1.27 4.25,0.18 11.87,-0.21 13.68,-0.67 1.46,-0.37 2.62,-0.62 2.71,-2.34 0.09,-1.63 -1.23,-1.92 -1.23,-3.42 0,-1.51 3.04,-12.6 3.04,-12.6 z"
   id="path21700" />
<path
   style="fill:#ed6c30"
   d="m 78.94,100.03 c 0,0 2.84,5.24 3.92,7.92 0.35,0.87 0.67,2.02 0.63,3.28 -0.05,1.45 -0.88,2.83 -2.77,3.92 -1.89,1.09 -3.85,1.68 -4.78,1.81 -1.18,0.17 -1.74,1.01 -1.68,1.89 0.08,1.22 1.18,1.12 2.23,1.16 1.58,0.05 7.68,0.06 9.4,-0.58 0.67,-0.25 3.36,-1.86 5.14,-3.91 1.58,-1.81 2.31,-4.05 2.26,-4.76 -0.17,-2.23 -2.1,-3.04 -2.94,-3.49 -1.81,-0.97 -5.82,-10.06 -5.82,-10.06 z"
   id="path21702" />
<path
   id="path21704"
   style="fill:#e0e0e0"
   d="M 36.441406,5.8769531 C 30.55891,5.7772463 23.790039,9.564242 23.790039,17.391095 c 0,7.826854 6.060434,9.735859 7.94043,10.244301 3.219994,0.854618 7.424856,-0.137268 8.694852,3.075656 1.579998,3.980996 -1.149405,6.846272 -4.095243,12.589729 -4.329992,8.499984 -7.050234,13.05845 -6.990234,18.898438 0.07,7.429984 3.320637,14.631502 9.890625,23.021484 6.569986,8.389984 8.799377,9.499768 9.609375,10.509766 0.809998,1.009998 2.600004,5.659691 4.75,7.679691 3.799992,3.55998 8.249693,3.66 10.679687,2.75 2.429996,-0.91 4.580078,-4.35938 4.580078,-4.35938 0,0 10.434109,1.34059 24.464337,-8.740143 15.869144,-11.401995 17.448624,-24.403591 17.619614,-27.140602 0.21338,-3.415489 -2.18411,-3.390191 -3.49411,-3.080191 -0.82,0.19 -5.62039,1.100625 -10.15039,1.390625 -2.01999,0.13 -13.248591,-4.529922 -13.308591,-4.419922 -0.0011,0.002 0.0067,0.0095 0.0059,0.01172 -1.945812,-1.069746 -9.111023,-4.780701 -9.568359,-5.017578 0.110224,-0.261639 -4.433154,-2.696199 -7.228516,-3.074219 -4.929995,-0.67 -7.859375,0.128906 -7.859375,0.128906 0,0 -5.299922,-2.568601 -5.419922,-10.308594 -0.09194,-5.608402 2.729187,-7.954624 2.349187,-15.375729 -0.48,-9.530602 -4.859974,-14.722971 -10.399968,-17.66545 -3.571912,-1.8999011 -6.744148,-2.5873286 -9.41801,-2.6326499 z"
   sodipodi:nodetypes="szccccsscscssccccccccccs" />






<path
   style="fill:#86a8b4;stroke-width:35.9054;stroke-linecap:round"
   d="m 64.493597,47.691159 c -13.167246,0 -23.437698,7.50533 -23.437698,19.882542 0,12.377212 11.850522,19.22418 30.284667,19.22418 18.434146,0 28.046224,-8.427038 28.046224,-10.270452 0,-1.843415 -5.081883,-1.410611 -5.081883,-2.10891 0,-0.698297 11.871073,-2.746642 11.871073,-10.567586 0,-2.700088 -2.51387,-1.396597 -7.44852,-1.396597 -4.93464,0 -18.433166,-14.763177 -34.233863,-14.763177 z"
   id="path21948" /><path
   style="fill:#ed6c30;stroke-width:35.9055;stroke-linecap:round"
   d="m 25.985787,15.84099 c -2.379523,0 -3.532824,2.196131 -7.229843,4.374148 -3.381651,1.992225 -5.55162,2.086152 -5.55162,4.551324 0,2.326644 2.869002,3.096716 9.752622,3.096716 6.883619,0 7.29032,-1.515283 6.979417,-4.811648 -0.349621,-3.706869 -1.686156,-7.21054 -3.950576,-7.21054 z"
   id="path22009"
   sodipodi:nodetypes="ssssss" /><ellipse
   style="fill:#212121;stroke-width:35.9055;stroke-linecap:round"
   id="path22072"
   cx="36.178135"
   cy="17.202368"
   rx="2.9831069"
   ry="3.3782203" /></svg>
