<?xml version="1.0" encoding="UTF-8" standalone="no"?>
<!-- Generator: Adobe Illustrator 26.3.1, SVG Export Plug-In . SVG Version: 6.00 Build 0)  -->

<svg
   version="1.1"
   id="Art"
   x="0px"
   y="0px"
   viewBox="0 0 128 128"
   style="enable-background:new 0 0 128 128;"
   xml:space="preserve"
   sodipodi:docname="goose.svg"
   inkscape:version="1.3 (0e150ed6c4, 2023-07-21)"
   xmlns:inkscape="http://www.inkscape.org/namespaces/inkscape"
   xmlns:sodipodi="http://sodipodi.sourceforge.net/DTD/sodipodi-0.dtd"
   xmlns="http://www.w3.org/2000/svg"
   xmlns:svg="http://www.w3.org/2000/svg"><defs
   id="defs21721" /><sodipodi:namedview
   id="namedview21719"
   pagecolor="#ffffff"
   bordercolor="#000000"
   borderopacity="0.25"
   inkscape:showpageshadow="2"
   inkscape:pageopacity="0.0"
   inkscape:pagecheckerboard="0"
   inkscape:deskcolor="#d1d1d1"
   showgrid="false"
   inkscape:zoom="4"
   inkscape:cx="64.625"
   inkscape:cy="64.375"
   inkscape:window-width="1366"
   inkscape:window-height="697"
   inkscape:window-x="-8"
   inkscape:window-y="-8"
   inkscape:window-maximized="1"
   inkscape:current-layer="Art"
   showguides="true" />&#10;&#10;&#10;<path
   style="fill:#ed6c30;fill-opacity:1;stroke-width:6;stroke-linecap:round"
   d="m 83.533286,90.828481 c -4.200767,0.74444 -5.553477,3.732102 -5.675688,13.092169 -0.04685,3.58882 0.07449,6.81284 -0.809923,7.993 -0.884403,1.18016 -2.929303,1.88324 -7.796997,3.82099 -4.881725,1.94335 -6.51119,4.35032 -6.51119,5.87244 0,1.52211 3.360614,3.51416 17.538203,1.00167 5.250959,-0.93055 6.511189,-3.66537 6.511189,-8.38393 0,-8.37162 -0.210038,-23.936056 -3.255594,-23.396339 z"
   id="path2"
   sodipodi:nodetypes="sszsssss" /><path
   style="fill:#ed6c30;fill-opacity:1;stroke-width:6;stroke-linecap:round"
   d="m 59.503169,85.501085 c -5.157904,0.74444 -3.418805,4.593143 -5.286851,13.092177 -0.776529,3.532958 -1.494381,6.812828 -2.580295,7.992998 -1.085914,1.18015 -3.692937,1.88324 -9.669727,3.82099 -5.994016,1.94335 -7.994751,4.35032 -7.994751,5.87243 0,1.52211 4.126323,3.51416 21.534249,1.00168 6.44738,-0.93055 7.994751,-3.66538 7.994751,-8.38393 0,-8.37162 -0.257896,-23.936064 -3.997376,-23.396345 z"
   id="path1"
   sodipodi:nodetypes="sszsssss" /><g
   fill="#fcc21b"
   id="g22204"
   transform="matrix(0.93667537,-0.29927335,0.29927335,0.93667537,-20.332139,15.423644)"
   style="fill:#ed6c30;stroke-width:1.01696" /><path
   id="path21704"
   style="fill:#e0e0e0;stroke-width:1"
   d="M 37.246996,5.8769225 C 30.1233,5.7561777 21.308009,11.70303 21.308009,21.18134 c 0,9.478311 2.535431,9.441818 4.812104,10.057541 3.899409,1.034941 11.094719,0.452514 12.632683,4.343361 1.913375,4.820982 -0.286976,9.509765 -2.895088,13.363101 -3.612271,5.336922 -7.915985,9.39905 -7.856986,15.141648 0.06883,7.306078 2.159022,11.806276 8.619446,20.056343 6.460423,8.25007 11.971352,10.32467 22.207634,13.805787 9.646402,2.959799 20.127642,3.570199 33.923896,-6.342425 15.604502,-11.211851 17.157642,-23.996627 17.325782,-26.687995 0.20982,-3.358531 -2.14769,-3.333654 -3.43584,-3.028824 -0.80633,0.186831 -5.52666,1.08227 -9.981119,1.367434 -1.986304,0.127832 -8.848527,-3.102309 -8.907526,-2.994143 -0.0011,0.002 0.0066,0.0093 0.0058,0.01152 -1.913363,-1.051906 -8.959084,-4.700976 -9.408794,-4.933903 0.108386,-0.257275 -4.359224,-2.651236 -7.10797,-3.022952 -4.84778,-0.658827 -7.728309,0.126757 -7.728309,0.126757 0,0 -7.304718,2.727654 -7.422717,-4.883264 C 56.0006,42.046456 61.38561,36.98297 60.925431,27.996021 60.344151,16.454472 55.361122,12.628398 48.652195,9.0650586 44.326614,6.7642805 40.48504,5.9318065 37.246996,5.8769225 Z"
   sodipodi:nodetypes="szccccscssccccccccccs" />&#10;&#10;&#10;&#10;&#10;&#10;&#10;<path
   style="fill:#9e9e9e;stroke-width:35.9054;stroke-linecap:round"
   d="m 64.411969,46.993818 c -12.947664,0 -23.046842,7.380168 -23.046842,19.550972 0,12.170805 11.652898,18.90359 29.779628,18.90359 18.126731,0 27.578514,-8.286505 27.578514,-10.099178 0,-1.812673 -4.997136,-1.387087 -4.997136,-2.073741 0,-0.686652 11.673107,-2.700838 11.673107,-10.391356 0,-2.655061 -2.47195,-1.373307 -7.324306,-1.373307 -11.489782,0 -13.946642,-14.51698 -33.662965,-14.51698 z"
   id="path21948"
   sodipodi:nodetypes="ssssssss" /><path
   style="fill:#ed6c30;stroke-width:35.9055;stroke-linecap:round"
   d="m 24.585253,17.94336 c -2.881599,0 -4.278246,2.659513 -8.755331,5.297088 -4.095176,2.412583 -6.7230061,2.526328 -6.7230061,5.511649 0,2.817562 3.4743581,3.750119 11.8104141,3.750119 8.336055,0 8.82857,-1.835006 8.452067,-5.8269 -0.423391,-4.489014 -2.041934,-8.731956 -4.784144,-8.731956 z"
   id="path22009"
   sodipodi:nodetypes="ssssss" /><path
   id="path22072"
   style="fill:#212121;stroke-width:35.9055;stroke-linecap:round"
   d="m 40.786547,18.37029 c -10e-7,2.127756 -1.67242,3.852645 -3.735455,3.852645 -2.063034,0 -3.735454,-1.724889 -3.735455,-3.852645 0,-2.127759 1.672421,-3.852649 3.735455,-3.852649 2.063035,0 3.735455,1.72489 3.735455,3.852649 z"
   sodipodi:nodetypes="sssss" /></svg>
