<?xml version="1.0" encoding="UTF-8" standalone="no"?>
<!-- Generator: Adobe Illustrator 26.3.1, SVG Export Plug-In . SVG Version: 6.00 Build 0)  -->

<svg
   version="1.1"
   id="Art"
   x="0px"
   y="0px"
   viewBox="0 0 128 128"
   style="enable-background:new 0 0 128 128;"
   xml:space="preserve"
   sodipodi:docname="goose.svg"
   inkscape:version="1.3 (0e150ed6c4, 2023-07-21)"
   xmlns:inkscape="http://www.inkscape.org/namespaces/inkscape"
   xmlns:sodipodi="http://sodipodi.sourceforge.net/DTD/sodipodi-0.dtd"
   xmlns="http://www.w3.org/2000/svg"
   xmlns:svg="http://www.w3.org/2000/svg"><defs
   id="defs21721" /><sodipodi:namedview
   id="namedview21719"
   pagecolor="#ffffff"
   bordercolor="#000000"
   borderopacity="0.25"
   inkscape:showpageshadow="2"
   inkscape:pageopacity="0.0"
   inkscape:pagecheckerboard="0"
   inkscape:deskcolor="#d1d1d1"
   showgrid="false"
   inkscape:zoom="2.8284271"
   inkscape:cx="42.603184"
   inkscape:cy="81.140503"
   inkscape:window-width="1366"
   inkscape:window-height="697"
   inkscape:window-x="-8"
   inkscape:window-y="-8"
   inkscape:window-maximized="1"
   inkscape:current-layer="Art"
   showguides="true" />&#10;&#10;&#10;<path
   style="fill:#ed6c30;fill-opacity:1;stroke-width:6;stroke-linecap:round"
   d="m 82.40855,92.428249 c -3.996978,0.708325 -5.284065,3.551049 -5.400347,12.457041 -0.04458,3.41471 0.07088,6.48233 -0.770632,7.60524 -0.841498,1.1229 -2.787195,1.79188 -7.418746,3.63562 -4.644901,1.84908 -6.195317,4.13928 -6.195317,5.58756 0,1.44826 3.197583,3.34368 16.687384,0.95307 4.996222,-0.8854 6.195316,-3.48755 6.195316,-7.9772 0,-7.9655 -0.199849,-22.774865 -3.097658,-22.261331 z"
   id="path2"
   sodipodi:nodetypes="sszsssss" /><path
   style="fill:#ed6c30;fill-opacity:1;stroke-width:6;stroke-linecap:round"
   d="m 59.54419,87.359297 c -4.907682,0.708326 -3.25295,4.370319 -5.030373,12.457045 -0.738858,3.361568 -1.421885,6.482318 -2.455119,7.605238 -1.033234,1.1229 -3.513784,1.79188 -9.200626,3.63563 -5.703232,1.84907 -7.606907,4.13927 -7.606907,5.58754 0,1.44827 3.926146,3.34368 20.489572,0.95309 6.134603,-0.88541 7.606907,-3.48757 7.606907,-7.97721 0,-7.96549 -0.245384,-22.774869 -3.803454,-22.261333 z"
   id="path1"
   sodipodi:nodetypes="sszsssss" /><g
   fill="#fcc21b"
   id="g22204"
   transform="matrix(0.89123506,-0.2847549,0.2847549,0.89123506,-16.41812,20.681477)"
   style="fill:#ed6c30;stroke-width:1.06881" /><path
   id="path21704"
   style="fill:#e0e0e0;stroke-width:1"
   d="m 39.794948,6.126835 c -6.778109,-0.1148872 -15.165749,5.543469 -15.165749,14.561964 0,9.018496 2.412431,8.983774 4.578657,9.569627 3.71024,0.984733 10.556488,0.430561 12.019842,4.132654 1.820553,4.587105 -1.700286,14.519478 -4.181872,18.18588 -3.437031,5.078015 -7.531962,8.94308 -7.475825,14.407091 0.06549,6.951643 2.054283,11.233526 8.201296,19.083363 6.147013,7.84984 11.390594,9.823796 21.13029,13.136036 9.178433,2.81621 19.151203,3.397 32.278168,-6.034739 14.847495,-10.667938 16.325285,-22.832495 16.485265,-25.393298 0.19964,-3.195601 -2.0435,-3.171931 -3.26916,-2.881889 -0.76721,0.177767 -5.258545,1.029767 -9.496908,1.301097 -1.889943,0.12163 -8.419264,-2.951809 -8.475401,-2.84889 -0.001,0.0019 0.0063,0.0088 0.0055,0.01096 -1.820541,-1.000876 -8.524458,-4.472921 -8.952351,-4.694548 0.103127,-0.244794 -4.147748,-2.522619 -6.763146,-2.876302 -4.612603,-0.626865 -7.353391,0.120608 -7.353391,0.120608 0,0 -6.950349,2.595329 -7.062624,-4.646365 -0.08602,-5.247331 6.464983,-15.53623 6.027129,-24.087201 C 61.771606,16.191243 57.030315,12.550781 50.646854,9.1603072 46.531117,6.9711452 42.875907,6.1790564 39.794948,6.126835 Z"
   sodipodi:nodetypes="szccccscssccccccccccs" />&#10;&#10;&#10;&#10;&#10;&#10;&#10;<path
   style="fill:#9e9e9e;stroke-width:35.9054;stroke-linecap:round"
   d="m 64.214853,50.720108 c -12.319542,0 -21.928786,7.022139 -21.928786,18.602508 0,11.580371 11.087589,17.986533 28.334949,17.986533 17.247361,0 26.240616,-7.884507 26.240616,-9.609243 0,-1.724736 -4.754714,-1.319796 -4.754714,-1.973139 0,-0.653341 11.106822,-2.569814 11.106822,-9.887247 0,-2.526258 -2.35203,-1.306685 -6.968991,-1.306685 -10.932386,0 -13.270058,-13.812727 -32.029896,-13.812727 z"
   id="path21948"
   sodipodi:nodetypes="ssssssss" /><path
   style="fill:#ed6c30;stroke-width:35.9055;stroke-linecap:round"
   d="m 27.747456,17.607901 c -2.741806,0 -4.070699,2.530494 -8.33059,5.040114 -3.896509,2.295543 -6.396857,2.40377 -6.396857,5.244266 0,2.680876 3.305809,3.568192 11.237463,3.568192 7.931654,0 8.400276,-1.745985 8.042038,-5.544223 -0.402852,-4.271242 -1.942875,-8.308349 -4.552054,-8.308349 z"
   id="path22009"
   sodipodi:nodetypes="ssssss" /><path
   id="path22072"
   style="fill:#212121;stroke-width:35.9055;stroke-linecap:round"
   d="m 43.162787,18.01412 c -1e-6,2.024534 -1.591287,3.665744 -3.554239,3.665744 -1.962952,0 -3.554239,-1.64121 -3.55424,-3.665744 0,-2.024536 1.591288,-3.665748 3.55424,-3.665748 1.962952,0 3.554239,1.641212 3.554239,3.665748 z"
   sodipodi:nodetypes="sssss" /></svg>
