<?xml version="1.0" encoding="UTF-8" standalone="no"?>
<svg
   width="100%"
   height="100%"
   viewBox="0 0 128 128"
   version="1.1"
   xml:space="preserve"
   style="fill-rule:evenodd;clip-rule:evenodd;stroke-linecap:round;stroke-linejoin:round;stroke-miterlimit:1.5;"
   id="svg31463"
   sodipodi:docname="head shaking horizontally.svg"
   inkscape:version="1.3 (0e150ed6c4, 2023-07-21)"
   xmlns:inkscape="http://www.inkscape.org/namespaces/inkscape"
   xmlns:sodipodi="http://sodipodi.sourceforge.net/DTD/sodipodi-0.dtd"
   xmlns="http://www.w3.org/2000/svg"
   xmlns:svg="http://www.w3.org/2000/svg"><defs
   id="defs31467" /><sodipodi:namedview
   id="namedview31465"
   pagecolor="#ffffff"
   bordercolor="#000000"
   borderopacity="0.25"
   inkscape:showpageshadow="2"
   inkscape:pageopacity="0.0"
   inkscape:pagecheckerboard="0"
   inkscape:deskcolor="#d1d1d1"
   showgrid="false"
   inkscape:zoom="4.2421874"
   inkscape:cx="68.950277"
   inkscape:cy="67.300185"
   inkscape:window-width="1366"
   inkscape:window-height="697"
   inkscape:window-x="-8"
   inkscape:window-y="-8"
   inkscape:window-maximized="1"
   inkscape:current-layer="svg31463" />&#10;    &#10;    &#10;    &#10;    &#10;    &#10;    &#10;<path
   fill="#fcc21b"
   d="M 119.72099,74.070498 C 126.86747,46.869822 111.71215,19.779234 84.676599,14.806968 26.513941,4.119351 0.93704983,54.530046 5.1845752,92.005512 c 0,12.494888 25.8337598,22.641248 57.7039618,22.641248 29.870287,0 54.447213,-8.91706 57.401223,-20.32942 0.20183,-0.761435 0.30275,-1.532045 0.30275,-2.311828 0,-5.944701 -3.78883,-6.843743 -0.87152,-17.935014 z"
   id="path18932-9"
   style="clip-rule:evenodd;display:inline;fill-rule:evenodd;stroke-width:1;stroke-linecap:round;stroke-linejoin:round;stroke-miterlimit:1.5" /><g
   transform="matrix(0.86447598,-0.23922191,0.24288414,0.90633475,-13.123127,29.495134)"
   id="g31445"
   style="stroke:#808080;stroke-width:1.09005;stroke-opacity:0.5">&#10;        <path
   d="M 20.479,24.379 C 7.894,28.577 27.101,41.783 37.07,44.841"
   style="fill:none;stroke:#808080;stroke-width:6.56208px;stroke-opacity:0.5"
   id="path31443" />&#10;    </g><g
   transform="matrix(0.86447598,-0.23922191,0.24288414,0.90633475,-20.140517,39.534523)"
   id="g31449"
   style="stroke:#808080;stroke-width:1.09005;stroke-opacity:0.5">&#10;        <path
   d="m 20.033,29.267 c -4.397,3.366 6.418,12.199 15.674,15.279"
   style="fill:none;stroke:#808080;stroke-width:6.56208px;stroke-opacity:0.5"
   id="path31447" />&#10;    </g><g
   transform="matrix(0.4400161,-0.7618721,0.77353582,0.57332601,73.957678,68.471913)"
   id="g31453"
   style="stroke:#808080;stroke-width:1.09005;stroke-opacity:0.5">&#10;        <path
   d="m 25.315731,40.480788 c 1.857,4.254 10.856,6.39 13.612,2.259"
   style="fill:none;stroke:#808080;stroke-width:5.75545px;stroke-opacity:0.5"
   id="path31451" />&#10;    </g><g
   transform="matrix(0.90799994,0,0.07913729,0.90454338,14.99516,7.6912383)"
   id="g5"
   style="clip-rule:evenodd;fill-rule:evenodd;stroke-width:1.10168;stroke-linecap:round;stroke-linejoin:round;stroke-miterlimit:1.5">&#10;        &#10;    </g><path
   style="clip-rule:evenodd;fill:none;fill-rule:evenodd;stroke:#2f2f2f;stroke-width:6.00001;stroke-linecap:round;stroke-linejoin:round;stroke-miterlimit:1.5;stroke-opacity:1"
   d="m 61.9899,78.757764 c 0,0 6.583069,-1.689219 20.347087,-1.689219 10.358258,0 15.727785,1.293806 15.727785,1.293806"
   id="path6"
   sodipodi:nodetypes="csc" /><path
   fill="#2f2f2f"
   d="m 108.50988,50.561071 c -1.41484,-4.32101 -5.48373,-6.877424 -9.08384,-5.743517 -3.592573,1.144085 -5.367951,5.556428 -3.960616,9.86726 1.407332,4.310831 5.466026,6.874767 9.067456,5.73201 3.59258,-1.144085 5.37812,-5.563952 3.977,-9.855753 z"
   id="path2"
   style="stroke-width:0.999999" /><path
   fill="#2f2f2f"
   d="m 61.003698,54.075538 c 0.291231,4.632014 3.663031,8.215048 7.532555,7.999418 3.897403,-0.220493 6.813585,-4.153919 6.54005,-8.783278 -0.289908,-4.640867 -3.661705,-8.223898 -7.550256,-8.002074 -3.877054,0.205447 -6.800757,4.128696 -6.522349,8.785934 z"
   id="path4"
   style="stroke-width:0.999999" /></svg>
