<?xml version="1.0" encoding="UTF-8" standalone="no"?>
<!-- Generator: Adobe Illustrator 16.0.0, SVG Export Plug-In . SVG Version: 6.00 Build 0)  -->

<svg
   version="1.1"
   id="レイヤー_1"
   x="0px"
   y="0px"
   width="128px"
   height="128px"
   viewBox="0 0 128 128"
   enable-background="new 0 0 128 128"
   xml:space="preserve"
   sodipodi:docname="head shaking vertically.svg"
   inkscape:version="1.2.2 (732a01da63, 2022-12-09)"
   xmlns:inkscape="http://www.inkscape.org/namespaces/inkscape"
   xmlns:sodipodi="http://sodipodi.sourceforge.net/DTD/sodipodi-0.dtd"
   xmlns:xlink="http://www.w3.org/1999/xlink"
   xmlns="http://www.w3.org/2000/svg"
   xmlns:svg="http://www.w3.org/2000/svg"><defs
   id="defs32529">
	
	
</defs><sodipodi:namedview
   id="namedview32527"
   pagecolor="#ffffff"
   bordercolor="#000000"
   borderopacity="0.25"
   inkscape:showpageshadow="2"
   inkscape:pageopacity="0.0"
   inkscape:pagecheckerboard="0"
   inkscape:deskcolor="#d1d1d1"
   showgrid="false"
   showguides="false"
   inkscape:zoom="2.9996795"
   inkscape:cx="65.006944"
   inkscape:cy="73.007798"
   inkscape:window-width="1366"
   inkscape:window-height="697"
   inkscape:window-x="-8"
   inkscape:window-y="-8"
   inkscape:window-maximized="1"
   inkscape:current-layer="レイヤー_1" />
<g
   id="g32518">
		<g
   id="g32474">
			<path
   fill="#fcc21b"
   d="m 121.35,95.94 c 0,12.57 -25.67,22.77 -57.35,22.77 -31.68,0 -57.36,-10.2 -57.36,-22.77 0,-12.58 25.68,-22.78 57.36,-22.78 31.68,-0.01 57.35,10.2 57.35,22.78"
   id="path32472" />
		</g>
		<g
   id="g32478">
			<path
   fill="#fcc21b"
   d="M 121.7,42.28 C 112.75,23.08 88.9,9.29 64,9.29 39.1,9.29 15.25,23.08 6.3,42.28 -7.3,71.43 7.1,98.77 7.1,98.77 c 0,0 25.23,19.94 56.9,19.94 31.68,0 56.9,-19.94 56.9,-19.94 0,0 14.4,-27.34 0.8,-56.49"
   id="path32476" />
		</g>
		<g
   id="g32482">
			
		</g>
		<g
   id="g32486">
			
		</g>
		<g
   id="g32516">
			<defs
   id="defs32489">
				<path
   id="SVGID_1_"
   d="m 19.17,53.92 c 0,0 5.01,29.66 45.69,29.66 40.68,0 45.72,-29.66 45.72,-29.66 0,0 -13.89,2.23 -45.69,2.23 -31.81,0 -45.72,-2.23 -45.72,-2.23" />
			</defs>
			
			<clipPath
   id="SVGID_2_">
				<use
   xlink:href="#SVGID_1_"
   overflow="visible"
   id="use32493" />
			</clipPath>
			<g
   clip-path="url(#SVGID_2_)"
   id="g32498">
				
			</g>
			<g
   clip-path="url(#SVGID_2_)"
   id="g32502">
				
			</g>
			<g
   clip-path="url(#SVGID_2_)"
   id="g32506">
				
			</g>
			<g
   clip-path="url(#SVGID_2_)"
   id="g32510">
				
			</g>
			<g
   clip-path="url(#SVGID_2_)"
   id="g32514">
				
			</g>
		</g>
	</g><g
   transform="translate(1.3189177,6.3514921)"
   id="g31613"
   style="clip-rule:evenodd;fill-rule:evenodd;stroke-linecap:round;stroke-linejoin:round;stroke-miterlimit:1.5">
        <g
   id="g31611">
            <g
   transform="matrix(1,0,0,0.839361,0,6.46804)"
   id="g31605">
                <path
   d="m 96.16,56.601666 c 0.77,-1.519368 2.458,-2.031838 3.73,-1.118774 1.262,0.901034 1.7,2.938887 0.96,4.463066 -2.85,5.90424 -8.86,9.16673 -14.37,9.16673 -5.607,0 -11.401,-3.299782 -14.39,-9.16673 -0.242,-0.500441 -0.371,-1.075467 -0.371,-1.654101 0,-1.782821 1.249,-3.287753 2.731,-3.290159 0.947,0 1.852,0.609913 2.34,1.587938 1.921,3.910897 6.055,5.966795 9.69,5.966795 3.689,0.0072 7.683,-2.07274 9.68,-5.954765 z M 28.12,55.470862 c 0.411,-0.299543 0.89,-0.457134 1.37,-0.457134 0.958,0 1.868,0.624348 2.36,1.611997 0.438,0.957575 1.169,1.805678 1.849,2.516641 2.164,2.261607 4.958,3.426095 7.811,3.426095 3.647,0 7.746,-2.045071 9.69,-5.942736 0.491,-0.957574 1.382,-1.554254 2.317,-1.554254 1.478,0 2.724,1.498917 2.724,3.276926 0,0.561793 -0.122,1.119977 -0.351,1.609591 -2.852,5.907849 -8.868,9.16673 -14.38,9.16673 -5.511,0 -11.51,-3.26249 -14.36,-9.16673 -0.748,-1.538615 -0.307,-3.58128 0.97,-4.487126 z"
   style="fill:#2f2f2f;fill-rule:nonzero;stroke-width:0.999999"
   id="path31603"
   sodipodi:nodetypes="cccscscccccsccscsscscc" />
            </g>
            <g
   transform="matrix(1.81558,0,0,1.85302,-48.2666,-82.8919)"
   id="g31609">
                <path
   d="m 54.618,86.653236 c 4.829,1.919 9.705,1.766 14.431,-0.378"
   style="fill:none;stroke:#2f2f2f;stroke-width:3.27117;stroke-dasharray:none"
   id="path31607"
   sodipodi:nodetypes="cc" />
            </g>
        </g>
    </g><g
   id="g32522">
		
	</g>
<path
   style="font-variation-settings:'opsz' 12, 'wght' 400;fill:none;stroke:#808080;stroke-width:6;stroke-linecap:round;stroke-dasharray:none;paint-order:stroke fill markers;stroke-opacity:0.5"
   d="m 20.39594,60.359755 c 0,0 -11.5365537,-12.138823 -11.5365537,-26.780411 0,-14.641587 12.8988847,-25.2650969 12.8988847,-25.2650969"
   id="path36645"
   sodipodi:nodetypes="csc" /><path
   style="font-variation-settings:'opsz' 12, 'wght' 400;fill:none;stroke:#808080;stroke-width:5.99999;stroke-linecap:round;stroke-dasharray:none;paint-order:stroke fill markers;stroke-opacity:0.5"
   d="m 26.417539,47.358366 c 0,0 -4.39008,-5.546728 -4.39008,-11.83497 0,-6.288241 5.117006,-12.265171 5.117006,-12.265171"
   id="path37119"
   sodipodi:nodetypes="csc" /></svg>
