<?xml version="1.0" encoding="UTF-8" standalone="no"?>
<svg
   width="100%"
   height="100%"
   viewBox="0 0 128 128"
   version="1.1"
   xml:space="preserve"
   style="fill-rule:evenodd;clip-rule:evenodd;stroke-linecap:round;stroke-linejoin:round;stroke-miterlimit:1.5;"
   id="svg31463"
   sodipodi:docname="head shaking horizontally.svg"
   inkscape:version="1.3 (0e150ed6c4, 2023-07-21)"
   xmlns:inkscape="http://www.inkscape.org/namespaces/inkscape"
   xmlns:sodipodi="http://sodipodi.sourceforge.net/DTD/sodipodi-0.dtd"
   xmlns="http://www.w3.org/2000/svg"
   xmlns:svg="http://www.w3.org/2000/svg"><defs
   id="defs31467" /><sodipodi:namedview
   id="namedview31465"
   pagecolor="#ffffff"
   bordercolor="#000000"
   borderopacity="0.25"
   inkscape:showpageshadow="2"
   inkscape:pageopacity="0.0"
   inkscape:pagecheckerboard="0"
   inkscape:deskcolor="#d1d1d1"
   showgrid="false"
   inkscape:zoom="2.9996795"
   inkscape:cx="42.504541"
   inkscape:cy="82.842184"
   inkscape:window-width="1366"
   inkscape:window-height="697"
   inkscape:window-x="-8"
   inkscape:window-y="-8"
   inkscape:window-maximized="1"
   inkscape:current-layer="svg31463" />&#10;    &#10;    &#10;    &#10;    &#10;    &#10;    &#10;<path
   fill="#fcc21b"
   d="M 119.13288,73.964195 C 126.20393,47.050609 111.20857,20.245949 84.458367,15.326163 26.909587,4.7513488 1.6026478,54.629983 5.8053426,91.709914 c 0,12.363006 25.5610974,22.402276 57.0949244,22.402276 29.555021,0 53.872553,-8.82294 56.795383,-20.114848 0.1997,-0.753399 0.29955,-1.515875 0.29955,-2.287428 0,-5.881957 -3.74884,-6.771511 -0.86232,-17.745719 z"
   id="path18932-9"
   style="clip-rule:evenodd;display:inline;fill-rule:evenodd;stroke-width:1;stroke-linecap:round;stroke-linejoin:round;stroke-miterlimit:1.5" /><g
   transform="matrix(0.85535187,-0.23669704,0.24032062,0.89676884,-12.309131,29.859303)"
   id="g31445"
   style="stroke:#808080;stroke-width:1.10168;stroke-opacity:0.5">&#10;        <path
   d="M 20.479,24.379 C 7.894,28.577 27.101,41.783 37.07,44.841"
   style="fill:none;stroke:#808080;stroke-width:6.63208px;stroke-opacity:0.5"
   id="path31443" />&#10;    </g><g
   transform="matrix(0.85535187,-0.23669704,0.24032062,0.89676884,-19.252456,39.792731)"
   id="g31449"
   style="stroke:#808080;stroke-width:1.10168;stroke-opacity:0.5">&#10;        <path
   d="m 20.033,29.267 c -4.397,3.366 6.418,12.199 15.674,15.279"
   style="fill:none;stroke:#808080;stroke-width:6.63208px;stroke-opacity:0.5"
   id="path31447" />&#10;    </g><g
   transform="matrix(0.43537195,-0.75383092,0.76537154,0.56727484,73.85258,68.424702)"
   id="g31453"
   style="stroke:#808080;stroke-width:1.10168;stroke-opacity:0.5">&#10;        <path
   d="m 25.315731,40.480788 c 1.857,4.254 10.856,6.39 13.612,2.259"
   style="fill:none;stroke:#808080;stroke-width:5.81684px;stroke-opacity:0.5"
   id="path31451" />&#10;    </g><g
   id="g7"
   style="clip-rule:evenodd;fill-rule:evenodd;stroke-width:1.10168;stroke-linecap:round;stroke-linejoin:round;stroke-miterlimit:1.5"
   transform="matrix(0.90770947,0,0,0.90770947,8.3152802,7.4895398)"><g
     transform="matrix(1.00032,0,0.0871835,0.996512,7.35905,0.222206)"
     id="g5"
     style="stroke-width:1.10168">&#10;        <path
   d="m 48.816601,62.203968 c -4.426241,-0.470512 -7.018012,-5.15136 -5.790954,-10.44844 1.23183,-5.316862 5.817908,-9.239918 10.244149,-8.769406 4.416404,0.469377 7.018012,5.151361 5.786183,10.468222 -1.227059,5.29708 -5.810751,9.210246 -10.239378,8.749624 z m 41.38977,-1.198917 c 3.922304,-0.823662 6.79352,-5.255757 6.406598,-9.892764 -0.388336,-4.654348 -3.890607,-7.744772 -7.812915,-6.921122 -3.931061,0.825482 -6.811034,5.259396 -6.422699,9.913744 0.395679,4.635188 3.897951,7.725611 7.829016,6.900142 z"
   style="fill:#2f2f2f;fill-rule:nonzero;stroke-width:1.10168"
   id="path5"
   sodipodi:nodetypes="cccccscccs" />&#10;    </g><path
     style="fill:none;stroke:#2f2f2f;stroke-width:6.61005;stroke-linecap:round;stroke-opacity:1"
     d="m 55.079073,81.047261 c 0,0 7.175852,-3.095245 22.17927,-3.095245 11.290983,0 17.144016,1.909553 17.144016,1.909553"
     id="path6"
     sodipodi:nodetypes="csc" /></g></svg>
