<?xml version="1.0" encoding="UTF-8" standalone="no"?>
<svg
   width="100%"
   height="100%"
   viewBox="0 0 128 128"
   version="1.1"
   xml:space="preserve"
   style="fill-rule:evenodd;clip-rule:evenodd;stroke-linecap:round;stroke-linejoin:round;stroke-miterlimit:1.5;"
   id="svg7"
   sodipodi:docname="head shaking vertically.svg"
   inkscape:version="1.3 (0e150ed6c4, 2023-07-21)"
   xmlns:inkscape="http://www.inkscape.org/namespaces/inkscape"
   xmlns:sodipodi="http://sodipodi.sourceforge.net/DTD/sodipodi-0.dtd"
   xmlns:xlink="http://www.w3.org/1999/xlink"
   xmlns="http://www.w3.org/2000/svg"
   xmlns:svg="http://www.w3.org/2000/svg"><defs
   id="defs7"><clipPath
     id="SVGID_2_">&#10;				<use
   xlink:href="#SVGID_1_"
   overflow="visible"
   id="use32493" />&#10;			</clipPath><clipPath
     id="clipPath1">&#10;				<use
   xlink:href="#SVGID_1_"
   overflow="visible"
   id="use1" />&#10;			</clipPath><clipPath
     id="clipPath2">&#10;				<use
   xlink:href="#SVGID_1_"
   overflow="visible"
   id="use2" />&#10;			</clipPath><clipPath
     id="clipPath3">&#10;				<use
   xlink:href="#SVGID_1_"
   overflow="visible"
   id="use3" />&#10;			</clipPath><clipPath
     id="clipPath4">&#10;				<use
   xlink:href="#SVGID_1_"
   overflow="visible"
   id="use4" />&#10;			</clipPath><path
     id="SVGID_1_"
     d="m 19.17,53.92 c 0,0 5.01,29.66 45.69,29.66 40.68,0 45.72,-29.66 45.72,-29.66 0,0 -13.89,2.23 -45.69,2.23 -31.81,0 -45.72,-2.23 -45.72,-2.23" /></defs><sodipodi:namedview
   id="namedview7"
   pagecolor="#ffffff"
   bordercolor="#000000"
   borderopacity="0.25"
   inkscape:showpageshadow="2"
   inkscape:pageopacity="0.0"
   inkscape:pagecheckerboard="0"
   inkscape:deskcolor="#d1d1d1"
   inkscape:zoom="1.4335485"
   inkscape:cx="166.37037"
   inkscape:cy="87.544997"
   inkscape:window-width="1366"
   inkscape:window-height="697"
   inkscape:window-x="-8"
   inkscape:window-y="-8"
   inkscape:window-maximized="1"
   inkscape:current-layer="svg7" />&#10;    &#10;    &#10;    &#10;    &#10;<g
   id="g10"
   transform="matrix(0.94587672,0,0,0.94587672,3.4638899,2.6183066)"
   style="stroke-width:1.05722"><g
     id="g32518"
     transform="matrix(1,0,0,0.9553739,0,5.0275643)"
     style="stroke-width:1.08163">&#10;		<g
   id="g32474"
   style="stroke-width:1.08163">&#10;			<path
   fill="#fcc21b"
   d="m 121.35,95.94 c 0,12.57 -25.67,22.77 -57.35,22.77 -31.68,0 -57.36,-10.2 -57.36,-22.77 0,-12.58 25.68,-22.78 57.36,-22.78 31.68,-0.01 57.35,10.2 57.35,22.78"
   id="path32472"
   style="stroke-width:1.08163" />&#10;		</g>&#10;		<g
   id="g32478"
   style="stroke-width:1.08163">&#10;			<path
   fill="#fcc21b"
   d="M 121.7,42.28 C 112.75,23.08 88.9,9.29 64,9.29 39.1,9.29 15.25,23.08 6.3,42.28 -7.3,71.43 7.1,98.77 7.1,98.77 c 0,0 25.23,19.94 56.9,19.94 31.68,0 56.9,-19.94 56.9,-19.94 0,0 14.4,-27.34 0.8,-56.49"
   id="path32476"
   style="stroke-width:1.08163" />&#10;		</g>&#10;		<g
   id="g32482"
   style="stroke-width:1.08163">&#10;			&#10;		</g>&#10;		<g
   id="g32486"
   style="stroke-width:1.08163">&#10;			&#10;		</g>&#10;		<g
   id="g32516"
   style="stroke-width:1.08163">&#10;			<defs
   id="defs32489">&#10;				<path
   id="path7"
   d="m 19.17,53.92 c 0,0 5.01,29.66 45.69,29.66 40.68,0 45.72,-29.66 45.72,-29.66 0,0 -13.89,2.23 -45.69,2.23 -31.81,0 -45.72,-2.23 -45.72,-2.23" />&#10;			</defs>&#10;			&#10;			<clipPath
   id="clipPath5">&#10;				<use
   xlink:href="#SVGID_1_"
   overflow="visible"
   id="use5" />&#10;			</clipPath>&#10;			<g
   clip-path="url(#SVGID_2_)"
   id="g32498"
   style="stroke-width:1.08163">&#10;				&#10;			</g>&#10;			<g
   clip-path="url(#SVGID_2_)"
   id="g32502"
   style="stroke-width:1.08163">&#10;				&#10;			</g>&#10;			<g
   clip-path="url(#SVGID_2_)"
   id="g32506"
   style="stroke-width:1.08163">&#10;				&#10;			</g>&#10;			<g
   clip-path="url(#SVGID_2_)"
   id="g32510"
   style="stroke-width:1.08163">&#10;				&#10;			</g>&#10;			<g
   clip-path="url(#SVGID_2_)"
   id="g32514"
   style="stroke-width:1.08163">&#10;				&#10;			</g>&#10;		</g>&#10;	</g><g
     transform="translate(1.3189182,6.0814921)"
     id="g31613"
     style="clip-rule:evenodd;fill-rule:evenodd;stroke-width:1.05722;stroke-linecap:round;stroke-linejoin:round;stroke-miterlimit:1.5">&#10;        <g
   id="g31611"
   style="stroke-width:1.05722">&#10;            <g
   transform="matrix(1,0,0,0.839361,0,6.46804)"
   id="g31605"
   style="stroke-width:1.05722">&#10;                <path
   d="m 96.16,56.601666 c 0.77,-1.519368 2.458,-2.031838 3.73,-1.118774 1.262,0.901034 1.7,2.938887 0.96,4.463066 -2.85,5.90424 -8.86,9.16673 -14.37,9.16673 -5.607,0 -11.401,-3.299782 -14.39,-9.16673 -0.242,-0.500441 -0.371,-1.075467 -0.371,-1.654101 0,-1.782821 1.249,-3.287753 2.731,-3.290159 0.947,0 1.852,0.609913 2.34,1.587938 1.921,3.910897 6.055,5.966795 9.69,5.966795 3.689,0.0072 7.683,-2.07274 9.68,-5.954765 z M 28.12,55.470862 c 0.411,-0.299543 0.89,-0.457134 1.37,-0.457134 0.958,0 1.868,0.624348 2.36,1.611997 0.438,0.957575 1.169,1.805678 1.849,2.516641 2.164,2.261607 4.958,3.426095 7.811,3.426095 3.647,0 7.746,-2.045071 9.69,-5.942736 0.491,-0.957574 1.382,-1.554254 2.317,-1.554254 1.478,0 2.724,1.498917 2.724,3.276926 0,0.561793 -0.122,1.119977 -0.351,1.609591 -2.852,5.907849 -8.868,9.16673 -14.38,9.16673 -5.511,0 -11.51,-3.26249 -14.36,-9.16673 -0.748,-1.538615 -0.307,-3.58128 0.97,-4.487126 z"
   style="fill:#2f2f2f;fill-rule:nonzero;stroke-width:1.05722"
   id="path31603"
   sodipodi:nodetypes="cccscscccccsccscsscscc" />&#10;            </g>&#10;            <g
   transform="matrix(1.81558,0,0,1.85302,-48.2666,-82.8919)"
   id="g31609"
   style="stroke-width:1.05722">&#10;                <path
   d="m 52.944886,86.259736 c 0,0 4.023707,2.320826 8.861721,2.320826 4.838014,0 8.861721,-2.320826 8.861721,-2.320826"
   style="fill:none;stroke:#2f2f2f;stroke-width:3.45835;stroke-dasharray:none"
   id="path31607"
   sodipodi:nodetypes="czc" />&#10;            </g>&#10;        </g>&#10;    </g><path
     style="font-variation-settings:'opsz' 12, 'wght' 400;fill:none;stroke:#808080;stroke-width:6.34332;stroke-linecap:round;stroke-dasharray:none;stroke-opacity:0.5;paint-order:stroke fill markers"
     d="M 11.459763,44.060385 C 8.8996092,26.212995 18.928,13.432038 18.928,13.432038"
     id="path36645"
     sodipodi:nodetypes="cc" /><path
     style="font-variation-settings:'opsz' 12, 'wght' 400;fill:none;stroke:#808080;stroke-width:6.34331;stroke-linecap:round;stroke-dasharray:none;stroke-opacity:0.5;paint-order:stroke fill markers"
     d="M 26.679698,34.17455 C 24.146493,22.364863 34.417484,11.09327 34.417484,11.09327"
     id="path37119"
     sodipodi:nodetypes="cc" /></g></svg>
