<?xml version="1.0" encoding="UTF-8" standalone="no"?>
<svg
   width="100%"
   height="100%"
   viewBox="0 0 128 128"
   version="1.1"
   xml:space="preserve"
   style="fill-rule:evenodd;clip-rule:evenodd;stroke-linecap:round;stroke-linejoin:round;stroke-miterlimit:1.5;"
   id="svg31463"
   sodipodi:docname="head shaking horizontally.svg"
   inkscape:version="1.2.2 (732a01da63, 2022-12-09)"
   xmlns:inkscape="http://www.inkscape.org/namespaces/inkscape"
   xmlns:sodipodi="http://sodipodi.sourceforge.net/DTD/sodipodi-0.dtd"
   xmlns="http://www.w3.org/2000/svg"
   xmlns:svg="http://www.w3.org/2000/svg"><defs
   id="defs31467" /><sodipodi:namedview
   id="namedview31465"
   pagecolor="#ffffff"
   bordercolor="#000000"
   borderopacity="0.25"
   inkscape:showpageshadow="2"
   inkscape:pageopacity="0.0"
   inkscape:pagecheckerboard="0"
   inkscape:deskcolor="#d1d1d1"
   showgrid="false"
   inkscape:zoom="2.9996795"
   inkscape:cx="36.337215"
   inkscape:cy="88.67614"
   inkscape:window-width="1366"
   inkscape:window-height="697"
   inkscape:window-x="-8"
   inkscape:window-y="-8"
   inkscape:window-maximized="1"
   inkscape:current-layer="svg31463" />
    <g
   transform="matrix(1.00032,0,0,1.00032,-0.0204687,-0.0207255)"
   id="g31441">
        <path
   d="m 74.411,10.81 c -62.12,0 -74.001,69.65 -74.001,83.44 0,13.77 23.285655,24.94 68.303041,24.94 35.119999,0 58.570959,-5.29042 58.570959,-16.74883 0,-6.222718 -5.4886,-14.130226 -5.4886,-24.652007 0,-9.000274 2.07926,-16.2706 2.07926,-25.044043 C 123.87466,28.882003 108.05876,10.81 74.411,10.81 Z"
   style="fill:#fcc21b;fill-rule:nonzero"
   id="path31439"
   sodipodi:nodetypes="sssssss" />
    </g>
    <g
   transform="matrix(0.942319,-0.260763,0.264755,0.987947,-14.7616,26.3882)"
   id="g31445"
   style="stroke:#808080;stroke-opacity:0.5">
        <path
   d="M20.479,24.379C7.894,28.577 27.101,41.783 37.07,44.841"
   style="fill:none;stroke:#808080;stroke-opacity:0.5;stroke-width:6.02px"
   id="path31443" />
    </g>
    <g
   transform="matrix(0.942319,-0.260763,0.264755,0.987947,-23.0002,37.3316)"
   id="g31449"
   style="stroke:#808080;stroke-opacity:0.5">
        <path
   d="M20.033,29.267C15.636,32.633 26.451,41.466 35.707,44.546"
   style="fill:none;stroke:#808080;stroke-opacity:0.5;stroke-width:6.02px"
   id="path31447" />
    </g>
    
    
    
<g
   transform="translate(20.177806,0.77149069)"
   id="g31613"
   style="clip-rule:evenodd;fill-rule:evenodd;stroke-linecap:round;stroke-linejoin:round;stroke-miterlimit:1.5">
        <g
   id="g31611">
            <g
   transform="matrix(1,0,0,0.839361,0,6.46804)"
   id="g31605">
                <path
   d="m 94.281127,57.021053 c 0.710808,-1.402568 2.269045,-1.875643 3.443261,-1.032769 1.164985,0.831768 1.569315,2.712963 0.886201,4.119973 -2.630909,5.450358 -8.178898,8.462048 -13.265323,8.462048 -5.175969,0 -10.524562,-3.046115 -13.283786,-8.462048 -0.223397,-0.461971 -0.34248,-0.992792 -0.34248,-1.526944 0,-1.645769 1.152985,-3.035011 2.521058,-3.037232 0.8742,0 1.709629,0.563026 2.160115,1.465867 1.773325,3.610251 5.589529,5.508105 8.945093,5.508105 3.405412,0.0066 7.092378,-1.913401 8.935861,-5.497 z M 28.12,55.470862 c 0.411,-0.299543 0.89,-0.457134 1.37,-0.457134 0.958,0 1.868,0.624348 2.36,1.611997 0.438,0.957575 1.169,1.805678 1.849,2.516641 2.164,2.261607 4.958,3.426095 7.811,3.426095 3.647,0 7.746,-2.045071 9.69,-5.942736 0.491,-0.957574 1.382,-1.554254 2.317,-1.554254 1.478,0 2.724,1.498917 2.724,3.276926 0,0.561793 -0.122,1.119977 -0.351,1.609591 -2.852,5.907849 -8.868,9.16673 -14.38,9.16673 -5.511,0 -11.51,-3.26249 -14.36,-9.16673 -0.748,-1.538615 -0.307,-3.58128 0.97,-4.487126 z"
   style="fill:#2f2f2f;fill-rule:nonzero;stroke-width:0.999999"
   id="path31603"
   sodipodi:nodetypes="cccscscccccsccscsscscc" />
            </g>
            <g
   transform="matrix(1.81558,0,0,1.85302,-48.2666,-82.8919)"
   id="g31609">
                <path
   d="m 54.618,86.653236 c 4.829,1.919 9.705,1.766 14.431,-0.378"
   style="fill:none;stroke:#2f2f2f;stroke-width:3.27117;stroke-dasharray:none"
   id="path31607"
   sodipodi:nodetypes="cc" />
            </g>
        </g>
    </g><g
   transform="matrix(0.479638,-0.830476,0.84319,0.624952,74.2945,68.8747)"
   id="g31453"
   style="stroke:#808080;stroke-opacity:0.5">
        <path
   d="M22.664,36.957C24.521,41.211 33.52,43.347 36.276,39.216"
   style="fill:none;stroke:#808080;stroke-opacity:0.5;stroke-width:5.28px"
   id="path31451" />
    </g></svg>
