<?xml version="1.0" encoding="UTF-8" standalone="no"?>
<!-- Generator: Adobe Illustrator 26.3.1, SVG Export Plug-In . SVG Version: 6.00 Build 0)  -->

<svg
   version="1.1"
   id="emoji_x5F_u1faf6"
   x="0px"
   y="0px"
   viewBox="0 0 128 128"
   style="enable-background:new 0 0 128 128;"
   xml:space="preserve"
   sodipodi:docname="heart hands medium skin tone.svg"
   inkscape:version="1.3 (0e150ed6c4, 2023-07-21)"
   xmlns:inkscape="http://www.inkscape.org/namespaces/inkscape"
   xmlns:sodipodi="http://sodipodi.sourceforge.net/DTD/sodipodi-0.dtd"
   xmlns="http://www.w3.org/2000/svg"
   xmlns:svg="http://www.w3.org/2000/svg"><defs
   id="defs3260">&#10;	&#10;	&#10;	&#10;</defs><sodipodi:namedview
   id="namedview3258"
   pagecolor="#ffffff"
   bordercolor="#000000"
   borderopacity="0.25"
   inkscape:showpageshadow="2"
   inkscape:pageopacity="0.0"
   inkscape:pagecheckerboard="0"
   inkscape:deskcolor="#d1d1d1"
   showgrid="false"
   inkscape:zoom="4"
   inkscape:cx="44.5"
   inkscape:cy="71.125001"
   inkscape:window-width="1366"
   inkscape:window-height="697"
   inkscape:window-x="-8"
   inkscape:window-y="-8"
   inkscape:window-maximized="1"
   inkscape:current-layer="emoji_x5F_u1faf6" />&#10;<g
   id="g1"><g
     id="g3249">&#10;		<g
   id="g3223">&#10;			<path
   style="fill:#bf8f68;fill-opacity:1"
   d="M 4.02,110.52 C 4.01,110.64 4,110.76 4,110.89 c 7.22,-9.07 10.55,-12.14 13.75,-13.1 4.11,-1.23 7.36,1.69 18,-0.78 7.69,-1.78 14.85,-0.14 19.54,5.46 2.22,2.65 4.5,3.64 5.75,3.56 1.52,-0.1 2.04,-0.79 2.47,-1.52 0.76,-1.29 0.53,-3.31 0.53,-6.22 0,-5.72 -4.94,-10.63 -8.31,-12.7 -7,-4.63 -14.7,-5.98 -21.56,-10.9 -2.24,-1.57 -4.23,-3.65 -5.18,-6.27 -2.36,-8.25 1.68,-20.52 11.07,-22.07 4.17,-0.89 9.09,-0.7 12.3,2.47 1.73,2.32 1.51,4.06 3.56,6.25 1.63,1.74 3.92,2.55 5.73,2.53 1.4,-0.02 2.43,-0.81 2.44,-2.02 L 64.02,34.2 c 0,0 1.21,-5.18 -4.39,-8.33 C 56.08,23.88 49.95,20.64 46.56,18.82 43.16,17 40.17,16 33.81,19.19 c -9.98,5 -29.76,23 -29.76,23 0,0 0.21,46.68 -0.03,68.33 z"
   id="path3221" />&#10;		</g>&#10;		<g
   id="g3233">&#10;			<g
   id="g3227">&#10;				<path
   style="fill:#99674f;fill-opacity:1"
   d="m 47.39,98.42 c -3.13,-0.7 -6.11,-1.37 -12.52,-0.07 -5.89,1.19 -12.34,1.72 -17.81,0.13 -6.76,-1.97 -8.21,-6.81 -8.21,-6.81 0.04,0.03 8.19,7.82 25.44,3.74 6.78,-1.6 11.02,-0.47 14.42,0.83 5.64,2.16 8.28,7.86 8.39,8.05 0,0 -3.91,-4.58 -9.71,-5.87 z"
   id="path3225" />&#10;			</g>&#10;			<g
   id="g3231">&#10;				<path
   style="fill:#99674f;fill-opacity:1"
   d="M 27.23,63.33 C 25.91,52.52 32.87,46.12 40.5,44.35 c 5.43,-1.26 11.22,1.76 11.91,3.65 0.96,2.64 3.03,6.52 3.03,6.52 -1.84,-1.69 -3.64,-5.11 -4.84,-5.64 -0.84,-0.37 -5.44,-2.23 -10.13,-0.69 -6.11,2 -10.34,7.68 -9.71,14.62 0.26,2.89 0.85,6.84 3.87,10.19 4.75,5.28 12.77,8.29 12.77,8.29 0.15,0.07 0.07,0.3 -0.09,0.26 -2.39,-0.57 -9.33,-2.33 -14.38,-7.14 -3.76,-3.62 -5.2,-7.01 -5.7,-11.08 z"
   id="path3229" />&#10;			</g>&#10;		</g>&#10;		<g
   id="g3237">&#10;			<path
   style="fill:#bf8f68;fill-opacity:1"
   d="m 123.95,42.19 c 0,0 -19.78,-18 -29.76,-23 C 87.83,16 84.84,17 81.44,18.82 c -3.4,1.81 -9.53,5.05 -13.07,7.05 -5.6,3.15 -4.39,8.33 -4.39,8.33 l -0.11,21.35 c 0.01,1.21 1.08,2.03 2.48,2.05 1.82,0.02 4.11,-0.79 5.73,-2.53 2.05,-2.19 1.83,-3.92 3.56,-6.25 3.21,-3.17 8.13,-3.35 12.3,-2.47 9.39,1.55 13.42,13.82 11.07,22.07 -0.96,2.62 -2.94,4.7 -5.18,6.27 -6.86,4.91 -14.56,6.27 -21.56,10.9 -3.38,2.07 -8.31,6.98 -8.31,12.7 0,2.97 -0.08,4.99 0.75,6.27 0.44,0.69 0.78,1.25 2.26,1.47 1.24,0.19 3.53,-0.91 5.75,-3.56 4.69,-5.61 11.85,-7.25 19.54,-5.46 10.64,2.47 13.89,-0.45 18,0.78 3.2,0.95 6.53,4.02 13.75,13.1 -0.01,-0.12 -0.01,-0.24 -0.02,-0.37 -0.25,-21.65 -0.04,-68.33 -0.04,-68.33 z"
   id="path3235" />&#10;		</g>&#10;		<g
   id="g3247">&#10;			<g
   id="g3241">&#10;				<path
   style="fill:#99674f;fill-opacity:1"
   d="m 80.61,98.42 c 3.13,-0.7 6.11,-1.37 12.52,-0.07 5.89,1.19 12.34,1.72 17.81,0.13 6.76,-1.97 8.21,-6.81 8.21,-6.81 -0.04,0.03 -8.19,7.82 -25.44,3.74 -6.78,-1.6 -11.02,-0.47 -14.42,0.83 -5.64,2.16 -8.22,7.84 -8.33,8.03 0,0 1.17,-1.27 3.26,-2.88 1.6,-1.24 3.83,-2.4 6.39,-2.97 z"
   id="path3239" />&#10;			</g>&#10;			<g
   id="g3245">&#10;				<path
   style="fill:#99674f;fill-opacity:1"
   d="M 100.77,63.33 C 102.09,52.52 95.13,46.12 87.5,44.35 82.06,43.1 76.27,46.11 75.58,48 c -0.96,2.64 -3.03,6.52 -3.03,6.52 1.84,-1.69 3.64,-5.11 4.84,-5.64 0.84,-0.37 5.44,-2.23 10.13,-0.69 6.11,2 10.34,7.68 9.71,14.62 -0.26,2.89 -0.85,6.84 -3.87,10.19 -4.75,5.28 -12.77,8.29 -12.77,8.29 -0.15,0.07 -0.07,0.3 0.09,0.26 2.39,-0.57 9.33,-2.33 14.38,-7.14 3.77,-3.62 5.21,-7.01 5.71,-11.08 z"
   id="path3243" />&#10;			</g>&#10;		</g>&#10;	</g><path
     style="fill:#99674f;fill-opacity:1"
     d="M 107.74,36.91 C 105.4,35.12 92.86,28.22 92.86,28.22 88.24,25.57 84.75,25.57 80.81,27.26 c -2.87,1.23 -13.14,6.63 -14.7,8 -1.55,1.35 -1.9,3.34 -1.97,4.7 -0.08,-1.37 -0.43,-3.35 -1.97,-4.7 -1.56,-1.36 -11.84,-6.77 -14.7,-8 -3.95,-1.69 -7.44,-1.69 -12.05,0.96 0,0 -12.54,6.89 -14.88,8.69 -2.34,1.8 -3.81,4.29 -3.81,4.29 0,0 16.64,-8.57 20.33,-10.21 3.69,-1.64 6.28,-1.49 10,-0.31 2.9,0.92 8.63,4.1 10.23,5.03 0.43,0.25 2.97,1.29 4.04,3.8 1.06,2.48 1.34,6.5 1.44,8.55 0.16,3.24 1.35,7.3 1.35,7.3 0,0 1.16,-4.43 1.33,-7.67 0.08,-1.59 0.46,-5.69 1.52,-8.17 1.07,-2.51 3.62,-3.56 4.04,-3.8 1.6,-0.93 7.33,-4.11 10.23,-5.03 3.72,-1.18 6.31,-1.33 10,0.31 3.69,1.64 20.33,10.21 20.33,10.21 0,0 -1.49,-2.51 -3.83,-4.3 z"
     id="path3251" /><path
     style="fill:#99674f;fill-opacity:1"
     d="m 79.64,19.85 c 0,0 -9.87,4.81 -12.16,6.05 -1.88,1.02 -2.99,2.75 -3.34,5.07 C 63.8,28.65 62.68,26.93 60.8,25.9 58.51,24.65 48.64,19.85 48.64,19.85 c -0.18,-0.07 -0.28,0.17 -0.13,0.28 0,0 10.76,7.5 11.45,8.06 0.69,0.56 2.53,2.04 2.81,3.89 0.19,1.27 1.1,6.41 1.34,7.74 v 0.33 c 0,0 0.01,-0.06 0.03,-0.15 0.02,0.09 0.03,0.15 0.03,0.15 v -0.33 c 0.24,-1.34 1.15,-6.48 1.34,-7.74 0.27,-1.85 2.12,-3.32 2.81,-3.89 0.69,-0.56 11.45,-8.06 11.45,-8.06 0.15,-0.11 0.04,-0.35 -0.13,-0.28 z"
     id="path3253" /></g>&#10;</svg>
