<?xml version="1.0" encoding="UTF-8" standalone="no"?>
<svg
   width="100%"
   height="100%"
   viewBox="0 0 128 128"
   version="1.1"
   xml:space="preserve"
   style="fill-rule:evenodd;clip-rule:evenodd;stroke-linejoin:round;stroke-miterlimit:2;"
   id="svg613"
   sodipodi:docname="heart on fire.svg"
   inkscape:version="1.2.2 (732a01da63, 2022-12-09)"
   xmlns:inkscape="http://www.inkscape.org/namespaces/inkscape"
   xmlns:sodipodi="http://sodipodi.sourceforge.net/DTD/sodipodi-0.dtd"
   xmlns="http://www.w3.org/2000/svg"
   xmlns:svg="http://www.w3.org/2000/svg"><defs
   id="defs617"><radialGradient
     id="SVGID_1_"
     cx="56.143002"
     cy="84.308601"
     r="87.4645"
     gradientTransform="matrix(1.0817856,0,0,1.0999596,-4.0596088,-17.541376)"
     gradientUnits="userSpaceOnUse">
		<stop
   offset="0.3903"
   style="stop-color:#FFD600"
   id="stop132" />
		<stop
   offset="0.6895"
   style="stop-color:#FF9800"
   id="stop134" />
		<stop
   offset="1"
   style="stop-color:#F44336"
   id="stop136" />
	</radialGradient><linearGradient
     id="SVGID_5_"
     gradientUnits="userSpaceOnUse"
     x1="94.720901"
     y1="46.472099"
     x2="120.6082"
     y2="61.141499"
     gradientTransform="matrix(1.0817856,0,0,1.0817856,-4.0596088,-16.012164)">
			<stop
   offset="0"
   style="stop-color:#FFD600"
   id="stop174" />
			<stop
   offset="1"
   style="stop-color:#FFD600;stop-opacity:0"
   id="stop176" />
		</linearGradient><linearGradient
     id="SVGID_4_"
     gradientUnits="userSpaceOnUse"
     x1="44.847198"
     y1="96.121002"
     x2="59.7309"
     y2="141.3302"
     gradientTransform="translate(0.92847959,-0.93332704)">
			<stop
   offset="0.0759"
   style="stop-color:#FFEB3B"
   id="stop165" />
			<stop
   offset="1"
   style="stop-color:#FFD600;stop-opacity:0"
   id="stop167" />
		</linearGradient><linearGradient
     id="SVGID_6_"
     gradientUnits="userSpaceOnUse"
     x1="87.652603"
     y1="65.353996"
     x2="94.908401"
     y2="140.3306"
     gradientTransform="translate(-4.0720546,-0.93332704)">
			<stop
   offset="0.1873"
   style="stop-color:#FFEB3B"
   id="stop183" />
			<stop
   offset="0.9339"
   style="stop-color:#FFD600;stop-opacity:0"
   id="stop185" />
		</linearGradient><linearGradient
     id="SVGID_2_"
     gradientUnits="userSpaceOnUse"
     x1="66.375999"
     y1="55.1768"
     x2="67.864304"
     y2="7.9211001"
     gradientTransform="translate(1.9920139,-15.381795)">
		<stop
   offset="0.1645"
   style="stop-color:#FFEB3B"
   id="stop141" />
		<stop
   offset="1"
   style="stop-color:#FFD600"
   id="stop143" />
	</linearGradient></defs><sodipodi:namedview
   id="namedview615"
   pagecolor="#ffffff"
   bordercolor="#000000"
   borderopacity="0.25"
   inkscape:showpageshadow="2"
   inkscape:pageopacity="0.0"
   inkscape:pagecheckerboard="0"
   inkscape:deskcolor="#d1d1d1"
   showgrid="false"
   inkscape:zoom="2.1210938"
   inkscape:cx="30.40884"
   inkscape:cy="73.546961"
   inkscape:window-width="1366"
   inkscape:window-height="697"
   inkscape:window-x="-8"
   inkscape:window-y="-8"
   inkscape:window-maximized="1"
   inkscape:current-layer="svg613" />
    
    
    
    
    <path
   style="fill:#ed6c30;stroke-width:0.999996"
   d="M 98.905892,50.770922 C 96.380685,36.217766 90.229062,31.717964 84.798922,27.749785 81.068074,25.025221 77.840368,22.670895 76.217022,17.506566 74.479757,12.00048 78.875133,6.2665546 78.922599,6.2095952 79.046012,6.0577029 79.055504,5.8393587 78.951075,5.6684796 78.846649,5.4976014 78.666277,5.4121619 78.457426,5.4501353 78.087189,5.5165926 77.612526,5.583041 77.052425,5.6494937 71.261541,6.4184469 55.891965,8.4405096 51.84784,29.05036 c -0.531623,2.715071 -2.173955,4.917505 -3.892234,5.230783 -1.101214,0.199358 -2.135977,-0.408209 -2.971385,-1.765745 -3.322637,-5.392168 3.654903,-14.47721 3.73085,-14.572143 0.123412,-0.151891 0.132905,-0.370237 0.02848,-0.541114 -0.104424,-0.170879 -0.303783,-0.256319 -0.493649,-0.218346 -0.199358,0.03797 -19.651032,4.091592 -27.549417,23.979955 -2.401793,6.047202 -9.132509,27.188675 5.012437,45.339773 14.182918,18.198567 22.793299,19.442187 22.983164,19.546607 0.06644,0.0475 55.108334,-19.831404 50.209808,-55.279208 z"
   id="path139" /><path
   style="opacity:1;fill:#fcc21b;stroke-width:0.999996"
   d="M 71.69371,35.262496 C 68.209821,28.48778 62.558373,14.280182 77.441688,6.513829 66.252876,8.5234278 58.030195,16.482842 58.697136,29.918193 c 0.430001,8.757989 5.35308,16.568219 7.643494,25.027839 3.080215,11.434528 0.754698,18.577817 -0.58796,23.974774 19.095574,-12.531471 10.40779,-34.988076 5.94104,-43.65831 z"
   id="path146" /><path
   style="fill:#f79329;stroke-width:0.999996"
   d="m 103.80442,81.044903 c 0,0 8.62936,-4.983957 10.76534,-16.983428 1.39551,-7.831933 -0.26581,-15.654373 -7.77497,-23.334414 -2.66761,-2.734057 -11.391906,-9.388827 -8.040786,-20.856676 0,0 -8.202171,6.958555 -5.420648,19.508634 3.132777,14.135453 16.470794,18.986505 10.471064,41.665884 z"
   id="path179" /><g
   transform="matrix(0.80402369,0,0,0.80402369,12.564208,27.474025)"
   id="g605"
   style="stroke-width:1.13953">
        <path
   d="m 96.67,15.85 h -0.2 c -0.49,0 -0.99,0 -1.48,0.02 -5.18,0.09 -10.21,1.24 -14.96,3.23 -5.09,2.15 -8.58,5.35 -13.11,8.23 -0.85,0.54 -1.89,0.81 -2.92,0.81 -1.04,0 -2.08,-0.27 -2.93,-0.81 C 56.55,24.45 53.05,21.25 47.96,19.1 43.21,17.11 38.18,15.96 33,15.87 32.51,15.85 32.02,15.85 31.53,15.85 h -0.2 c -13.12,0 -22.69,7.54 -28.3,20.65 -2.4,5.58 -2.44,13.98 -1.46,19.84 0.98,5.84 3.41,11.11 6.72,16.03 11.03,16.43 30.71,24.05 44.9,37.29 1.51,1.41 3.01,2.94 4.55,4.35 1.64,1.51 3.62,4.99 6.26,5.15 2.63,-0.16 4.62,-3.63 6.26,-5.15 1.54,-1.42 3.03,-2.94 4.55,-4.35 C 89,96.42 108.67,88.8 119.7,72.38 c 3.31,-4.92 5.74,-10.19 6.72,-16.03 0.98,-5.86 0.94,-14.27 -1.46,-19.84 C 119.35,23.39 109.79,15.85 96.67,15.85 Z"
   style="fill:#db4437;fill-rule:nonzero;stroke-width:1.31425"
   id="path603" />
    </g>
    
    
<path
   style="fill:#fcc21b;stroke-width:0.999996"
   d="m 63.573234,123.70104 c -10.618403,-1.41286 -15.62046,-4.35267 -19.297412,-12.02249 -1.877965,-3.92266 -1.886741,-10.62718 -1.956945,-14.778009 -0.07898,-4.598382 -1.465515,-8.573701 -1.465515,-8.573701 2.773071,0.49143 7.801454,5.361855 10.118197,14.36556 4.027973,15.62923 12.601675,21.00864 12.601675,21.00864 z"
   id="path170" /><path
   style="fill:#fcc21b;stroke-width:0.999996"
   d="m 90.180202,73.487402 c 2.132457,0.754696 10.767588,14.207599 2.737968,28.336218 -7.143289,12.56657 -21.105173,14.51474 -21.105173,14.51474 0,0 11.022077,-11.03963 15.330868,-21.517621 3.896339,-9.451255 3.036337,-21.333337 3.036337,-21.333337 z"
   id="path188" /></svg>
