<?xml version="1.0" encoding="UTF-8" standalone="no"?>
<svg
   width="100%"
   height="100%"
   viewBox="0 0 128 128"
   version="1.1"
   xml:space="preserve"
   style="fill-rule:evenodd;clip-rule:evenodd;stroke-linejoin:round;stroke-miterlimit:2;"
   id="svg613"
   sodipodi:docname="heart on fire.svg"
   inkscape:version="1.2.2 (732a01da63, 2022-12-09)"
   xmlns:inkscape="http://www.inkscape.org/namespaces/inkscape"
   xmlns:sodipodi="http://sodipodi.sourceforge.net/DTD/sodipodi-0.dtd"
   xmlns="http://www.w3.org/2000/svg"
   xmlns:svg="http://www.w3.org/2000/svg"><defs
   id="defs617"><radialGradient
     id="SVGID_1_"
     cx="56.143002"
     cy="84.308601"
     r="87.4645"
     gradientTransform="matrix(1.0817856,0,0,1.0999596,-4.0596088,-17.541376)"
     gradientUnits="userSpaceOnUse">
		<stop
   offset="0.3903"
   style="stop-color:#FFD600"
   id="stop132" />
		<stop
   offset="0.6895"
   style="stop-color:#FF9800"
   id="stop134" />
		<stop
   offset="1"
   style="stop-color:#F44336"
   id="stop136" />
	</radialGradient><linearGradient
     id="SVGID_5_"
     gradientUnits="userSpaceOnUse"
     x1="94.720901"
     y1="46.472099"
     x2="120.6082"
     y2="61.141499"
     gradientTransform="matrix(1.0817856,0,0,1.0817856,-4.0596088,-16.012164)">
			<stop
   offset="0"
   style="stop-color:#FFD600"
   id="stop174" />
			<stop
   offset="1"
   style="stop-color:#FFD600;stop-opacity:0"
   id="stop176" />
		</linearGradient><linearGradient
     id="SVGID_4_"
     gradientUnits="userSpaceOnUse"
     x1="44.847198"
     y1="96.121002"
     x2="59.7309"
     y2="141.3302"
     gradientTransform="translate(0.92847959,-0.93332704)">
			<stop
   offset="0.0759"
   style="stop-color:#FFEB3B"
   id="stop165" />
			<stop
   offset="1"
   style="stop-color:#FFD600;stop-opacity:0"
   id="stop167" />
		</linearGradient><linearGradient
     id="SVGID_6_"
     gradientUnits="userSpaceOnUse"
     x1="87.652603"
     y1="65.353996"
     x2="94.908401"
     y2="140.3306"
     gradientTransform="translate(-4.0720546,-0.93332704)">
			<stop
   offset="0.1873"
   style="stop-color:#FFEB3B"
   id="stop183" />
			<stop
   offset="0.9339"
   style="stop-color:#FFD600;stop-opacity:0"
   id="stop185" />
		</linearGradient><linearGradient
     id="SVGID_2_"
     gradientUnits="userSpaceOnUse"
     x1="66.375999"
     y1="55.1768"
     x2="67.864304"
     y2="7.9211001"
     gradientTransform="translate(1.9920139,-15.381795)">
		<stop
   offset="0.1645"
   style="stop-color:#FFEB3B"
   id="stop141" />
		<stop
   offset="1"
   style="stop-color:#FFD600"
   id="stop143" />
	</linearGradient></defs><sodipodi:namedview
   id="namedview615"
   pagecolor="#ffffff"
   bordercolor="#000000"
   borderopacity="0.25"
   inkscape:showpageshadow="2"
   inkscape:pageopacity="0.0"
   inkscape:pagecheckerboard="0"
   inkscape:deskcolor="#d1d1d1"
   showgrid="false"
   inkscape:zoom="2.1210938"
   inkscape:cx="23.337017"
   inkscape:cy="59.403315"
   inkscape:window-width="1366"
   inkscape:window-height="697"
   inkscape:window-x="-8"
   inkscape:window-y="-8"
   inkscape:window-maximized="1"
   inkscape:current-layer="svg613" />
    
    
    
    
    <path
   style="fill:#ed6c30;stroke-width:0.999996"
   d="M 101.1601,49.87507 C 98.470967,34.377187 91.920008,29.585278 86.137367,25.359502 82.164329,22.458072 78.727094,19.950913 76.998368,14.451339 75.148327,8.5878218 79.829031,2.4816752 79.879579,2.4210182 80.011003,2.2592657 80.021111,2.0267476 79.909903,1.8447758 79.798698,1.6628049 79.606617,1.571819 79.384209,1.6122575 78.989938,1.6830289 78.484462,1.7537909 77.888001,1.8245574 71.721199,2.6434276 55.353897,4.7967537 51.047246,26.744505 c -0.566134,2.891321 -2.315079,5.236728 -4.144901,5.570342 -1.1727,0.2123 -2.274635,-0.434708 -3.164274,-1.880369 -3.538328,-5.742204 3.892163,-15.417007 3.97304,-15.518102 0.131423,-0.161752 0.141533,-0.394272 0.03033,-0.576241 -0.111203,-0.181972 -0.323503,-0.272958 -0.525695,-0.23252 -0.212299,0.04044 -20.92669,4.3572 -29.337804,25.536628 -2.557707,6.43976 -9.725351,28.953644 5.337823,48.283031 15.10361,19.379936 24.272939,20.704286 24.47513,20.815486 0.07075,0.0506 58.685725,-21.11877 53.469205,-58.86769 z"
   id="path139" /><path
   style="opacity:1;fill:#fcc21b;stroke-width:0.999996"
   d="M 72.181422,33.359905 C 68.471374,26.145405 62.453059,11.015512 78.302534,2.7450015 66.387393,4.8850546 57.630932,13.361159 58.341168,27.668674 c 0.457914,9.326519 5.700578,17.643755 8.139676,26.652536 3.280169,12.176807 0.803689,19.783807 -0.626128,25.531111 20.335175,-13.344959 11.083418,-37.259348 6.326706,-46.492416 z"
   id="path146" /><path
   style="fill:#f79329;stroke-width:0.999996"
   d="m 106.37662,82.114305 c 0,0 9.18954,-5.307494 11.46418,-18.085918 1.4861,-8.340347 -0.28307,-16.670586 -8.27969,-24.849181 -2.84078,-2.91154 -12.131419,-9.998308 -8.56276,-22.2106 0,0 -8.734619,7.410274 -5.772531,20.775049 3.336143,15.053064 17.540001,20.219025 11.150801,44.37065 z"
   id="path179" /><g
   transform="matrix(0.8562174,0,0,0.8562174,9.2134935,25.065842)"
   id="g605"
   style="stroke-width:1.07007">
        <path
   d="m 96.67,15.85 h -0.2 c -0.49,0 -0.99,0 -1.48,0.02 -5.18,0.09 -10.21,1.24 -14.96,3.23 -5.09,2.15 -8.58,5.35 -13.11,8.23 -0.85,0.54 -1.89,0.81 -2.92,0.81 -1.04,0 -2.08,-0.27 -2.93,-0.81 C 56.55,24.45 53.05,21.25 47.96,19.1 43.21,17.11 38.18,15.96 33,15.87 32.51,15.85 32.02,15.85 31.53,15.85 h -0.2 c -13.12,0 -22.69,7.54 -28.3,20.65 -2.4,5.58 -2.44,13.98 -1.46,19.84 0.98,5.84 3.41,11.11 6.72,16.03 11.03,16.43 30.71,24.05 44.9,37.29 1.51,1.41 3.01,2.94 4.55,4.35 1.64,1.51 3.62,4.99 6.26,5.15 2.63,-0.16 4.62,-3.63 6.26,-5.15 1.54,-1.42 3.03,-2.94 4.55,-4.35 C 89,96.42 108.67,88.8 119.7,72.38 c 3.31,-4.92 5.74,-10.19 6.72,-16.03 0.98,-5.86 0.94,-14.27 -1.46,-19.84 C 119.35,23.39 109.79,15.85 96.67,15.85 Z"
   style="fill:#db4437;fill-rule:nonzero;stroke-width:1.23414"
   id="path603" />
    </g>
    
    
<path
   style="fill:#fcc21b;stroke-width:0.999996"
   d="m 63.533801,127.53949 c -11.307703,-1.50458 -16.634472,-4.63523 -20.550116,-12.80294 -1.999874,-4.1773 -2.009219,-11.31705 -2.083981,-15.737329 -0.08411,-4.896889 -1.56065,-9.130268 -1.56065,-9.130268 2.953087,0.523332 8.30789,5.709923 10.775026,15.298107 4.289452,16.64381 13.419721,22.37243 13.419721,22.37243 z"
   id="path170" /><path
   style="fill:#fcc21b;stroke-width:0.999996"
   d="m 91.867976,74.066204 c 2.270887,0.803688 11.466574,15.129894 2.915705,30.175676 -7.607,13.38234 -22.475228,15.45698 -22.475228,15.45698 0,0 11.737581,-11.75628 16.32608,-22.914452 4.149272,-10.064789 3.233443,-22.718204 3.233443,-22.718204 z"
   id="path188" /></svg>
