<?xml version="1.0" encoding="UTF-8" standalone="no"?>
<svg
   width="128"
   height="128"
   style="enable-background:new 0 0 128 128;"
   version="1.1"
   id="svg7"
   sodipodi:docname="hut.svg"
   inkscape:version="1.3 (0e150ed6c4, 2023-07-21)"
   xmlns:inkscape="http://www.inkscape.org/namespaces/inkscape"
   xmlns:sodipodi="http://sodipodi.sourceforge.net/DTD/sodipodi-0.dtd"
   xmlns:xlink="http://www.w3.org/1999/xlink"
   xmlns="http://www.w3.org/2000/svg"
   xmlns:svg="http://www.w3.org/2000/svg">
  <defs
     id="defs7">
    <defs
       id="defs4">
      <path
         id="SVGID_3_"
         d="m 66.15,89.5 c -2.51,0 -4.81,-0.71 -6.51,-2.01 l -0.43,-0.34 c -0.38,-0.31 -0.64,-0.51 -0.89,-0.63 -0.17,0.14 -0.41,0.37 -0.57,0.53 -0.54,0.52 -1.16,1.1 -1.99,1.45 -1.66,0.69 -3.47,0.83 -4.7,0.83 -0.58,0 -1.14,-0.03 -1.68,-0.09 -2.63,-0.28 -5.57,-1.64 -7.12,-4.05 -0.04,0.02 -0.08,0.05 -0.11,0.06 l -0.27,0.16 c -2.4,1.43 -6.25,1.69 -8.94,0.89 -2.15,-0.64 -3.69,-2.22 -4.54,-4.69 -0.04,-0.12 -0.08,-0.26 -0.12,-0.41 -0.11,0.07 -0.2,0.13 -0.28,0.18 -2.19,1.22 -4.16,1.78 -6.04,1.71 -1.63,-0.06 -6.53,-1.38 -6.85,-7.38 -0.33,-6.17 -0.62,-8.96 0.91,-10.7 1.38,-1.58 41.32,-25.07 43.47,-25.88 0.79,-0.3 2.29,-1.17 3.04,-1.17 1.21,0 4.34,0.38 4.34,0.38 0,0 21.47,12.61 28.03,16.26 5.16,2.86 10.47,5.8 13.62,7.89 1.71,1.12 3.02,2.21 2.88,5.2 -0.11,2.12 -0.03,4.9 -0.2,6.09 -0.42,3.05 -1.18,3.44 -2.98,4.87 -1.31,1.03 -3.22,1.67 -5.01,1.67 -0.98,0 -1.86,-0.18 -2.64,-0.54 -1.17,1.85 -2.73,3.71 -5.26,4.72 -2.05,0.82 -4.65,0.13 -6.01,-0.46 -0.05,-0.03 -0.1,-0.05 -0.15,-0.08 -0.13,0.19 -0.25,0.39 -0.34,0.54 -0.36,0.58 -0.7,1.11 -1.11,1.52 -0.75,0.74 -1.8,1.32 -2.83,1.85 -2.26,1.17 -5.07,1.47 -7.59,0.8 l -0.29,-0.08 c -0.87,-0.23 -1.86,-0.49 -2.85,-1.12 -0.2,-0.13 -0.41,-0.28 -0.62,-0.43 -0.04,-0.03 -0.1,-0.07 -0.14,-0.11 -0.71,0.69 -1.22,1.03 -2.2,1.5 -1.46,0.7 -3.21,1.07 -5.03,1.07 z" />
    </defs>
    <defs
       id="defs1">
      <path
         id="SVGID_1_"
         d="m 120.65,106.34 c -3.7,-6.37 -7.74,-12.57 -10.99,-19.16 -1.21,-2.46 -2.33,-4.98 -3.28,-7.54 -0.15,-0.42 -0.3,-0.83 -0.45,-1.25 -1.4,-4.04 -0.33,-8.93 -5.99,-7.24 -1.52,0.45 -3.09,0.66 -4.65,0.79 -6.05,0.51 -12.02,1.27 -17.96,2.46 -2.93,0.58 -5.64,2.05 -8.63,2.35 -1.53,0.15 -3.11,0.13 -4.7,0.06 -1.59,0.07 -3.18,0.09 -4.71,-0.06 -2.99,-0.3 -5.7,-1.76 -8.63,-2.35 -5.93,-1.18 -11.91,-1.95 -17.95,-2.46 -1.57,-0.13 -3.15,-0.35 -4.66,-0.79 -5.65,-1.69 -4.59,3.21 -5.98,7.24 -0.14,0.42 -0.3,0.83 -0.45,1.25 -0.96,2.56 -2.07,5.08 -3.28,7.54 -3.25,6.58 -7.3,12.79 -11,19.16 -7.55,13 12.62,17.89 21.75,20.11 1.68,0.41 3.38,0.78 5.08,1.11 3.07,0.61 5.5,0.29 8.16,-1.37 2.51,-1.57 4.73,-3.7 6.42,-6.13 0.32,-0.46 0.62,-0.93 0.89,-1.41 4.57,-7.99 10.8,-36.26 10.8,-36.26 l 6.69,-0.26 c 0,0 1.91,33.1 19.4,42.99 4.08,2.3 7.88,2.42 12.38,1.34 9.14,-2.23 29.31,-7.12 21.74,-20.12 z" />
    </defs>
    <clipPath
       id="SVGID_2_">
      <use
         style="overflow:visible"
         xlink:href="#SVGID_1_"
         id="use2" />
    </clipPath>
    <clipPath
       clipPathUnits="userSpaceOnUse"
       id="clipPath10">
      <path
         style="fill:#f79329;stroke-width:9.07088;stroke-linecap:round"
         d="m 21.618446,50.834266 c 0,0 -4.766546,41.373613 -4.766546,48.237433 0,6.863831 11.249047,14.108981 47.284128,14.108981 36.035082,0 43.887092,-7.25654 43.887092,-13.997453 0,-6.740914 -3.77492,-49.882756 -3.77492,-49.882756 z"
         id="path11"
         sodipodi:nodetypes="cssscc" />
    </clipPath>
  </defs>
  <sodipodi:namedview
     id="namedview7"
     pagecolor="#ffffff"
     bordercolor="#000000"
     borderopacity="0.25"
     inkscape:showpageshadow="2"
     inkscape:pageopacity="0.0"
     inkscape:pagecheckerboard="0"
     inkscape:deskcolor="#d1d1d1"
     showguides="true"
     inkscape:zoom="2.0273438"
     inkscape:cx="41.680154"
     inkscape:cy="91.499037"
     inkscape:window-width="1366"
     inkscape:window-height="697"
     inkscape:window-x="-8"
     inkscape:window-y="-8"
     inkscape:window-maximized="1"
     inkscape:current-layer="svg7" />
  <path
     style="fill:#f79329;stroke-width:9.07088;stroke-linecap:round"
     d="m 16.502858,52.797941 c 0,0 -5.353348,46.467052 -5.353348,54.175859 0,7.70883 12.633899,15.84592 53.105201,15.84592 40.471299,0 49.289959,-8.14988 49.289959,-15.72066 0,-7.570772 -4.23964,-56.023737 -4.23964,-56.023737 z"
     id="path7" />
  <g
     clip-path="url(#SVGID_2_)"
     id="g3"
     transform="translate(0,-28.600358)" />
  <path
     id="use4"
     d="m 66.51662,72.72036 c -2.819002,0 -5.402151,-0.797407 -7.311435,-2.257448 l -0.482937,-0.381857 c -0.426781,-0.348164 -0.718789,-0.572785 -0.999567,-0.707558 -0.190928,0.157235 -0.460474,0.41555 -0.640171,0.595247 -0.606479,0.584016 -1.302806,1.235419 -2.234986,1.628507 -1.86436,0.774945 -3.897186,0.93218 -5.278609,0.93218 -0.651403,0 -1.280344,-0.03369 -1.886823,-0.10108 -2.953775,-0.31447 -6.255713,-1.841897 -7.996531,-4.548589 -0.04492,0.02246 -0.08985,0.05616 -0.123542,0.06739 l -0.30324,0.179697 c -2.69546,1.606045 -7.019427,1.898053 -10.040589,0.999567 -2.414683,-0.71879 -4.14427,-2.493301 -5.098912,-5.267379 -0.04492,-0.134773 -0.08985,-0.292008 -0.134773,-0.460474 -0.123542,0.07862 -0.224622,0.146004 -0.31447,0.202159 -2.459608,1.370193 -4.672131,1.999133 -6.783575,1.920516 -1.830667,-0.06739 -7.3338978,-1.54989 -7.6932925,-8.28854 C 8.8225418,50.303116 13.589242,45.504819 15.307598,43.550611 16.857487,41.7761 60.102646,9.9602579 63.418281,9.9602579 c 3.315635,0 28.020115,19.4642731 35.387706,23.5636181 5.795243,3.21209 11.758943,6.514029 15.083343,11.798254 3.3244,5.284225 3.41425,8.406467 3.22332,9.742966 -0.4717,3.42548 -1.32526,3.863492 -3.34686,5.469537 -1.47127,1.156802 -3.61641,1.875591 -5.62677,1.875591 -1.10065,0 -2.08898,-0.202159 -2.96501,-0.606478 -1.31404,2.077751 -3.06608,4.166732 -5.907549,5.301072 -2.302372,0.920948 -5.222454,0.146004 -6.749881,-0.51663 -0.05616,-0.03369 -0.112311,-0.05616 -0.168467,-0.08985 -0.146004,0.213391 -0.280777,0.438012 -0.381856,0.606479 -0.404319,0.651402 -0.786176,1.24665 -1.246651,1.707124 -0.842331,0.831101 -2.021595,1.482503 -3.178396,2.077751 -2.538225,1.314037 -5.69416,1.650969 -8.524393,0.898487 l -0.325702,-0.08985 c -0.977104,-0.258315 -2.088981,-0.550323 -3.200859,-1.257881 -0.224621,-0.146005 -0.460474,-0.314471 -0.696327,-0.482937 -0.04492,-0.03369 -0.112311,-0.07862 -0.157235,-0.123542 -0.797407,0.774945 -1.370192,1.156802 -2.470838,1.684663 -1.639739,0.786176 -3.605178,1.201726 -5.649236,1.201726 z"
     style="fill:#855c52;stroke-width:1"
     sodipodi:nodetypes="scccccsccccccccccczccccscccccccccccccs" />
  <path
     id="path5"
     clip-path="url(#SVGID_4_)"
     style="fill:#855c52;stroke-width:1"
     d="m 63.418999,9.9609025 c -0.542602,0.087985 -1.880095,0.5547215 -3.641104,1.4293795 -0.265448,0.283329 -0.536729,0.56006 -0.833675,0.813453 -1.090992,0.907834 -1.942464,1.965982 -2.945858,2.961412 -1.401565,1.377675 -2.836237,2.747706 -4.261694,4.101493 -3.511878,3.328719 -14.274081,18.378002 -19.11467,23.173664 -1.695889,1.673429 -3.427721,3.347528 -5.909481,7.638015 -2.481758,4.290488 -2.728801,5.875088 -2.728801,7.436206 0,2.488108 0.0246,4.814146 0.344391,6.870264 1.08e-4,6.99e-4 -1.09e-4,0.0015 0,0.0022 0.0012,0.0031 0.0031,0.0056 0.0044,0.0088 0.12134,0.302313 0.251488,0.592427 0.392649,0.868654 0.0027,0.0053 0.0061,0.01011 0.0088,0.01535 0.13835,0.26953 0.288204,0.525596 0.445294,0.769944 0.0133,0.02059 0.02606,0.04102 0.03949,0.06142 0.148337,0.226448 0.304884,0.4407 0.469424,0.64491 0.03093,0.03814 0.06283,0.07452 0.09432,0.111873 0.154818,0.184805 0.316283,0.360833 0.48478,0.526457 0.05056,0.04936 0.103955,0.09495 0.155743,0.142583 0.15429,0.142909 0.310905,0.28278 0.476005,0.410197 0.09314,0.0714 0.193021,0.133135 0.289551,0.199615 0.136241,0.09443 0.269383,0.191877 0.412392,0.27639 0.142664,0.08384 0.293821,0.154113 0.443101,0.228132 0.111356,0.05549 0.218361,0.118958 0.333423,0.168905 0.270372,0.116854 0.549801,0.220674 0.840138,0.307099 0.377645,0.112311 0.776283,0.205911 1.188915,0.280777 1.237897,0.224601 2.608333,0.279023 3.955009,0.157938 1.795568,-0.161447 3.550516,-0.635961 4.898244,-1.438983 l 0.302713,-0.179873 c 0.01319,-0.0044 0.0323,-0.01706 0.04826,-0.02632 0.0046,-0.05247 0.0169,-0.100114 0.01975,-0.153549 0.213388,-3.975797 1.734365,-11.347709 2.559896,-13.545302 1.734828,-4.618171 12.502134,-29.859361 14.532812,-32.805836 1.767885,-2.564227 3.335946,-5.494232 5.207355,-7.986788 -0.143342,0.820235 -3.81484,42.949082 -3.81484,44.251885 0,2.459603 -0.24647,9.300132 -0.212776,11.759735 3.1e-4,0.01552 0.006,0.03057 0.0066,0.04607 0.0022,0.0013 0.0044,0.003 0.0066,0.0044 0.228326,0.137312 0.472869,0.317299 0.807234,0.590071 l 0.482586,0.38168 c 0.23866,0.182506 0.48695,0.353956 0.745814,0.51549 0.517726,0.323069 1.074456,0.60411 1.662726,0.840138 1.176543,0.472056 2.479702,0.765643 3.856299,0.864267 0.344853,0.02475 0.693209,0.03729 1.046333,0.03729 2.044055,0 4.008709,-0.415901 5.648446,-1.202076 1.100645,-0.527861 1.674748,-0.909719 2.472154,-1.684663 0.02087,0.02087 0.04633,0.03729 0.07238,0.05703 0.0018,-0.0028 0.0026,-0.0082 0.0044,-0.01101 0.471703,-0.730018 -1.753016,-12.957341 -2.112409,-14.832927 -0.292008,-1.460039 -7.39898,-40.606223 -7.53436,-41.808703 0.18316,0.23094 14.398312,25.283838 17.194847,29.338251 1.796969,2.605607 4.047419,6.708141 5.918255,10.469915 0.829667,1.668249 3.426621,6.971085 3.41539,8.846672 -0.01123,1.100644 0.178469,1.954386 0.425553,2.987644 0.172618,0.697175 0.446431,1.292422 0.783105,1.809696 0.0052,0.002 0.0124,0.0045 0.01755,0.0066 0.583076,0.233052 1.314254,0.467173 2.116796,0.62736 0.03883,0.0076 0.07931,0.01251 0.118453,0.01975 0.22877,0.04319 0.46238,0.08075 0.699749,0.109682 0.08346,0.0099 0.168069,0.01406 0.25226,0.02193 0.204073,0.01969 0.40948,0.03775 0.616394,0.04387 0.136429,0.0037 0.273452,-0.0037 0.410198,-0.0066 0.156859,-0.003 0.312935,-4.93e-4 0.469425,-0.01316 0.190299,-0.01555 0.378057,-0.05005 0.565941,-0.08117 0.110244,-0.01826 0.222198,-0.02633 0.331229,-0.05045 0.294707,-0.06509 0.58422,-0.15121 0.864267,-0.263228 0.35455,-0.14154 0.691537,-0.297842 1.01343,-0.467232 0.32329,-0.170139 0.63061,-0.353937 0.9235,-0.548392 0.29045,-0.192761 0.56608,-0.394687 0.82917,-0.607619 0.002,-0.0013 0.003,-0.003 0.004,-0.0044 0.26287,-0.212995 0.51216,-0.435221 0.7502,-0.664652 l 0.004,-0.0044 c 0.23711,-0.228765 0.46288,-0.464934 0.67781,-0.70633 0.002,-0.0024 0.004,-0.0043 0.007,-0.0066 0.21431,-0.241036 0.4173,-0.487104 0.612,-0.73704 0.002,-0.0029 0.004,-0.0058 0.007,-0.0088 0.39014,-0.501508 0.74426,-1.018215 1.07046,-1.533306 0.006,-0.04591 0.0145,-0.08979 0.0198,-0.136002 0.54905,-7.053554 -2.74905,-12.502117 -6.512756,-15.945027 C 98.481855,45.544093 93.155953,38.779207 93.155953,38.779207 88.034588,34.062161 76.996993,20.094502 73.365663,16.75782 71.8765,15.380144 70.380047,14.002709 68.890884,12.632998 68.475289,12.248965 68.068294,11.840681 67.648149,11.454031 65.728744,10.544624 64.193449,9.8353154 63.419116,9.9608834 Z"
     sodipodi:nodetypes="scccccssscsscccccccccccccssccccsccscccccsscscccccccscccccccccccsccscscssscsccccccccss" />
  <path
     id="path8"
     style="fill:#2f2f2f;fill-opacity:1;stroke-width:8.07658;stroke-linecap:round"
     d="M 49.084042,80.269798 C 46.13184,82.150269 44.47855,113.40873 44.47855,113.40873 l 17.959745,1.77291 18.204804,-1.77291 c 0,0 -2.10457,-31.796798 -3.710727,-33.568825 -1.606162,-1.772026 -6.07155,-0.489563 -14.426681,-0.489563 -8.355131,0 -11.251843,-0.46265 -13.421649,0.919456 z"
     clip-path="url(#clipPath10)"
     sodipodi:nodetypes="scccszs"
     transform="matrix(1.1231084,0,0,1.1231084,-7.7770004,-4.2944507)" />
</svg>
