<?xml version="1.0" encoding="UTF-8" standalone="no"?>
<svg
   width="128"
   height="128"
   style="enable-background:new 0 0 128 128;"
   version="1.1"
   id="svg7"
   sodipodi:docname="hut.svg"
   inkscape:version="1.3 (0e150ed6c4, 2023-07-21)"
   xmlns:inkscape="http://www.inkscape.org/namespaces/inkscape"
   xmlns:sodipodi="http://sodipodi.sourceforge.net/DTD/sodipodi-0.dtd"
   xmlns:xlink="http://www.w3.org/1999/xlink"
   xmlns="http://www.w3.org/2000/svg"
   xmlns:svg="http://www.w3.org/2000/svg">
  <defs
     id="defs7">
    <defs
       id="defs4">
      <path
         id="SVGID_3_"
         d="m 66.15,89.5 c -2.51,0 -4.81,-0.71 -6.51,-2.01 l -0.43,-0.34 c -0.38,-0.31 -0.64,-0.51 -0.89,-0.63 -0.17,0.14 -0.41,0.37 -0.57,0.53 -0.54,0.52 -1.16,1.1 -1.99,1.45 -1.66,0.69 -3.47,0.83 -4.7,0.83 -0.58,0 -1.14,-0.03 -1.68,-0.09 -2.63,-0.28 -5.57,-1.64 -7.12,-4.05 -0.04,0.02 -0.08,0.05 -0.11,0.06 l -0.27,0.16 c -2.4,1.43 -6.25,1.69 -8.94,0.89 -2.15,-0.64 -3.69,-2.22 -4.54,-4.69 -0.04,-0.12 -0.08,-0.26 -0.12,-0.41 -0.11,0.07 -0.2,0.13 -0.28,0.18 -2.19,1.22 -4.16,1.78 -6.04,1.71 -1.63,-0.06 -6.53,-1.38 -6.85,-7.38 -0.33,-6.17 -0.62,-8.96 0.91,-10.7 1.38,-1.58 41.32,-25.07 43.47,-25.88 0.79,-0.3 2.29,-1.17 3.04,-1.17 1.21,0 4.34,0.38 4.34,0.38 0,0 21.47,12.61 28.03,16.26 5.16,2.86 10.47,5.8 13.62,7.89 1.71,1.12 3.02,2.21 2.88,5.2 -0.11,2.12 -0.03,4.9 -0.2,6.09 -0.42,3.05 -1.18,3.44 -2.98,4.87 -1.31,1.03 -3.22,1.67 -5.01,1.67 -0.98,0 -1.86,-0.18 -2.64,-0.54 -1.17,1.85 -2.73,3.71 -5.26,4.72 -2.05,0.82 -4.65,0.13 -6.01,-0.46 -0.05,-0.03 -0.1,-0.05 -0.15,-0.08 -0.13,0.19 -0.25,0.39 -0.34,0.54 -0.36,0.58 -0.7,1.11 -1.11,1.52 -0.75,0.74 -1.8,1.32 -2.83,1.85 -2.26,1.17 -5.07,1.47 -7.59,0.8 l -0.29,-0.08 c -0.87,-0.23 -1.86,-0.49 -2.85,-1.12 -0.2,-0.13 -0.41,-0.28 -0.62,-0.43 -0.04,-0.03 -0.1,-0.07 -0.14,-0.11 -0.71,0.69 -1.22,1.03 -2.2,1.5 -1.46,0.7 -3.21,1.07 -5.03,1.07 z" />
    </defs>
    <defs
       id="defs1">
      <path
         id="SVGID_1_"
         d="m 120.65,106.34 c -3.7,-6.37 -7.74,-12.57 -10.99,-19.16 -1.21,-2.46 -2.33,-4.98 -3.28,-7.54 -0.15,-0.42 -0.3,-0.83 -0.45,-1.25 -1.4,-4.04 -0.33,-8.93 -5.99,-7.24 -1.52,0.45 -3.09,0.66 -4.65,0.79 -6.05,0.51 -12.02,1.27 -17.96,2.46 -2.93,0.58 -5.64,2.05 -8.63,2.35 -1.53,0.15 -3.11,0.13 -4.7,0.06 -1.59,0.07 -3.18,0.09 -4.71,-0.06 -2.99,-0.3 -5.7,-1.76 -8.63,-2.35 -5.93,-1.18 -11.91,-1.95 -17.95,-2.46 -1.57,-0.13 -3.15,-0.35 -4.66,-0.79 -5.65,-1.69 -4.59,3.21 -5.98,7.24 -0.14,0.42 -0.3,0.83 -0.45,1.25 -0.96,2.56 -2.07,5.08 -3.28,7.54 -3.25,6.58 -7.3,12.79 -11,19.16 -7.55,13 12.62,17.89 21.75,20.11 1.68,0.41 3.38,0.78 5.08,1.11 3.07,0.61 5.5,0.29 8.16,-1.37 2.51,-1.57 4.73,-3.7 6.42,-6.13 0.32,-0.46 0.62,-0.93 0.89,-1.41 4.57,-7.99 10.8,-36.26 10.8,-36.26 l 6.69,-0.26 c 0,0 1.91,33.1 19.4,42.99 4.08,2.3 7.88,2.42 12.38,1.34 9.14,-2.23 29.31,-7.12 21.74,-20.12 z" />
    </defs>
    <clipPath
       id="SVGID_2_">
      <use
         style="overflow:visible"
         xlink:href="#SVGID_1_"
         id="use2" />
    </clipPath>
    <clipPath
       clipPathUnits="userSpaceOnUse"
       id="clipPath10">
      <path
         style="fill:#f79329;stroke-width:9.07088;stroke-linecap:round"
         d="m 21.618446,50.834266 c 0,0 -4.766546,41.373613 -4.766546,48.237433 0,6.863831 11.249047,14.108981 47.284128,14.108981 36.035082,0 43.887092,-7.25654 43.887092,-13.997453 0,-6.740914 -3.77492,-49.882756 -3.77492,-49.882756 z"
         id="path11"
         sodipodi:nodetypes="cssscc" />
    </clipPath>
  </defs>
  <sodipodi:namedview
     id="namedview7"
     pagecolor="#ffffff"
     bordercolor="#000000"
     borderopacity="0.25"
     inkscape:showpageshadow="2"
     inkscape:pageopacity="0.0"
     inkscape:pagecheckerboard="0"
     inkscape:deskcolor="#d1d1d1"
     showguides="true"
     inkscape:zoom="1.4335485"
     inkscape:cx="3.8366333"
     inkscape:cy="53.364082"
     inkscape:window-width="1366"
     inkscape:window-height="697"
     inkscape:window-x="-8"
     inkscape:window-y="-8"
     inkscape:window-maximized="1"
     inkscape:current-layer="svg7" />
  <path
     style="fill:#f79329;stroke-width:9.07088;stroke-linecap:round"
     d="m 18.773753,53.322715 c 0,0 -5.084776,44.135843 -5.084776,51.457905 0,7.32208 12.000067,15.05095 50.440961,15.05095 38.440892,0 46.817122,-7.74101 46.817122,-14.93197 0,-7.190956 -4.02694,-53.21308 -4.02694,-53.21308 z"
     id="path7" />
  <g
     clip-path="url(#SVGID_2_)"
     id="g3"
     transform="translate(0,-28.600358)" />
  <path
     id="use4"
     d="m 66.835113,77.859805 c -3.087441,0 -5.916571,-0.87334 -8.007667,-2.472413 l -0.528924,-0.418221 c -0.467423,-0.381318 -0.787237,-0.627327 -1.094751,-0.774934 -0.20911,0.172207 -0.504324,0.45512 -0.701131,0.651929 -0.664231,0.639629 -1.426867,1.353062 -2.447814,1.783581 -2.041893,0.84874 -4.268295,1.020948 -5.781265,1.020948 -0.713433,0 -1.402265,-0.0369 -2.066496,-0.110706 -3.235048,-0.344415 -6.851414,-2.017291 -8.758002,-4.981729 -0.0492,0.0246 -0.0984,0.06151 -0.135306,0.07381 l -0.332116,0.196808 c -2.952135,1.758981 -7.687852,2.078796 -10.996705,1.094751 -2.644621,-0.787236 -4.538909,-2.730726 -5.584457,-5.768966 -0.04919,-0.147606 -0.0984,-0.319814 -0.147607,-0.504322 -0.135306,0.08611 -0.24601,0.159907 -0.344415,0.221409 -2.693824,1.50067 -5.117035,2.189501 -7.429542,2.103397 C 10.473923,69.901338 4.4466463,68.277663 4.0530282,60.897325 3.6471096,53.307876 8.8677191,48.05266 10.749706,45.912363 12.447183,43.968875 59.810368,9.1233643 63.441735,9.1233643 c 3.631366,0 30.688334,21.3177607 38.757505,25.8074667 6.34709,3.517961 12.87869,7.134328 16.51966,12.921744 3.64097,5.787415 3.73937,9.206973 3.53026,10.670742 -0.51662,3.751671 -1.45147,4.231393 -3.66556,5.990374 -1.61138,1.266958 -3.96079,2.054194 -6.16258,2.054194 -1.20546,0 -2.28791,-0.22141 -3.24736,-0.664229 -1.43917,2.275604 -3.35805,4.563509 -6.4701,5.805867 -2.52161,1.008645 -5.71976,0.159907 -7.392637,-0.565827 -0.06151,-0.0369 -0.123006,-0.06151 -0.184509,-0.0984 -0.159908,0.233712 -0.307515,0.479722 -0.418218,0.664232 -0.442821,0.713432 -0.86104,1.365362 -1.365365,1.869685 -0.92254,0.910242 -2.2141,1.623673 -3.481058,2.275604 -2.779928,1.439168 -6.236387,1.808183 -9.33613,0.984047 l -0.356716,-0.0984 c -1.070149,-0.282912 -2.287905,-0.602727 -3.505662,-1.377663 -0.24601,-0.159908 -0.504322,-0.344417 -0.762634,-0.528924 -0.0492,-0.0369 -0.123006,-0.0861 -0.172208,-0.135307 -0.87334,0.84874 -1.500669,1.266959 -2.706123,1.845085 -1.795884,0.86104 -3.948483,1.31616 -6.187187,1.31616 z"
     style="fill:#855c52;stroke-width:1"
     sodipodi:nodetypes="scccccsccccccccccczccccscccccccccccccs" />
  <path
     id="path5"
     clip-path="url(#SVGID_4_)"
     style="fill:#855c52;stroke-width:1"
     d="m 63.442522,9.1240703 c -0.594272,0.096364 -2.059128,0.6075448 -3.987829,1.5654927 -0.290726,0.310309 -0.58784,0.613391 -0.913062,0.890914 -1.194881,0.994282 -2.127436,2.153193 -3.226378,3.243412 -1.53503,1.508865 -3.106318,3.009358 -4.667515,4.49206 -3.846296,3.645696 -15.633331,20.128049 -20.934865,25.380379 -1.857381,1.83278 -3.754128,3.666296 -6.472212,8.365345 -2.718085,4.69905 -2.988653,6.434544 -2.988653,8.144319 0,2.725039 0.02694,5.272574 0.377186,7.524486 1.18e-4,7.65e-4 -1.19e-4,0.0017 0,0.0024 0.0014,0.0034 0.0034,0.0061 0.0048,0.0096 0.132896,0.3311 0.275438,0.64884 0.43004,0.95137 0.0029,0.0058 0.0067,0.01107 0.0096,0.01681 0.151524,0.295196 0.315647,0.575647 0.487697,0.843263 0.01457,0.02255 0.02854,0.04493 0.04324,0.06727 0.162462,0.248012 0.333917,0.482666 0.514125,0.706322 0.03387,0.04177 0.06881,0.08161 0.103302,0.122526 0.169561,0.202403 0.346402,0.395193 0.530944,0.576589 0.05537,0.05406 0.113853,0.103992 0.170573,0.15616 0.168983,0.156517 0.340512,0.309708 0.521333,0.449258 0.102005,0.07819 0.211401,0.145812 0.317123,0.218623 0.149215,0.103418 0.295035,0.210149 0.451663,0.30271 0.156248,0.09182 0.321801,0.168789 0.485294,0.249856 0.12196,0.06077 0.239155,0.130285 0.365174,0.184989 0.296118,0.127981 0.602156,0.241687 0.920141,0.336343 0.413605,0.123005 0.850203,0.225518 1.302129,0.307513 1.355776,0.245989 2.856712,0.305594 4.331626,0.172978 1.96655,-0.17682 3.888613,-0.696521 5.364679,-1.57601 l 0.331539,-0.197002 c 0.01445,-0.0048 0.03538,-0.01868 0.05286,-0.02882 0.0051,-0.05747 0.01851,-0.109647 0.02163,-0.16817 C 37.622414,68.080662 39.288227,60.00676 40.192369,57.5999 42.092396,52.541963 53.88502,24.897178 56.10907,21.670124 c 1.936231,-2.808406 3.653611,-6.017421 5.703226,-8.74733 -0.156992,0.898342 -4.178108,47.038913 -4.178108,48.465776 0,2.693819 -0.269941,10.185738 -0.233039,12.879558 3.4e-4,0.017 0.0066,0.03349 0.0073,0.05046 0.0024,0.0015 0.0048,0.0033 0.0073,0.0048 0.250068,0.150389 0.517898,0.347514 0.884102,0.646262 l 0.528541,0.418025 c 0.261387,0.199885 0.53332,0.387661 0.816834,0.564577 0.567027,0.353834 1.176771,0.661637 1.821059,0.920141 1.288579,0.517008 2.715832,0.838551 4.223516,0.946566 0.377692,0.02711 0.75922,0.04084 1.14597,0.04084 2.2387,0 4.390439,-0.455505 6.18632,-1.316544 1.205454,-0.578126 1.834226,-0.996347 2.707565,-1.845084 0.02286,0.02286 0.05074,0.04084 0.07927,0.06245 0.002,-0.0031 0.0028,-0.0089 0.0048,-0.01205 0.516608,-0.799495 -1.91996,-14.191167 -2.313575,-16.245355 -0.319815,-1.599072 -8.10355,-44.472956 -8.251821,-45.789943 0.200601,0.252932 15.769394,27.691495 18.832228,32.13199 1.968087,2.853726 4.432835,7.346925 6.481822,11.466914 0.908672,1.827109 3.752922,7.634908 3.74062,9.689097 -0.01231,1.205454 0.195465,2.140493 0.466077,3.272144 0.189055,0.763563 0.488942,1.415492 0.857676,1.982025 0.0057,0.0022 0.01358,0.0049 0.01922,0.0073 0.638599,0.255245 1.439404,0.511661 2.318368,0.687101 0.04253,0.0083 0.08687,0.0137 0.129732,0.02163 0.250555,0.04731 0.506411,0.08845 0.766384,0.120127 0.0914,0.01084 0.184073,0.0154 0.276281,0.02402 0.223506,0.02156 0.448474,0.04135 0.675091,0.04804 0.149426,0.004 0.299481,-0.004 0.449251,-0.0073 0.17181,-0.0033 0.34275,-5.4e-4 0.51414,-0.01441 0.20842,-0.01703 0.41405,-0.05481 0.61982,-0.0889 0.12075,-0.02 0.24336,-0.02884 0.36277,-0.05525 0.32276,-0.07129 0.63985,-0.165609 0.94657,-0.288293 0.38831,-0.155019 0.75739,-0.326205 1.10993,-0.511725 0.35407,-0.186341 0.69066,-0.38764 1.01145,-0.600613 0.31811,-0.211116 0.61997,-0.432271 0.90812,-0.665479 0.002,-0.0015 0.003,-0.0033 0.004,-0.0048 0.2879,-0.233277 0.56093,-0.476665 0.82164,-0.727944 l 0.004,-0.0048 c 0.25968,-0.250549 0.50695,-0.509208 0.74235,-0.773591 0.002,-0.0026 0.004,-0.0047 0.007,-0.0073 0.23471,-0.263989 0.45704,-0.533489 0.67028,-0.807226 0.002,-0.0032 0.004,-0.0064 0.007,-0.0096 0.4273,-0.549264 0.81513,-1.115174 1.1724,-1.679315 0.006,-0.05029 0.0159,-0.09834 0.0217,-0.148953 0.60133,-7.725229 -3.01083,-13.692632 -7.13293,-17.463394 -0.20787,-0.209097 -6.040918,-7.61817 -6.040918,-7.61817 C 90.402133,35.520374 78.313481,20.222643 74.336358,16.568226 72.705389,15.05936 71.066436,13.550758 69.435467,12.050616 68.980298,11.630014 68.534547,11.182851 68.074393,10.759382 65.972212,9.7633767 64.290718,8.9865241 63.442649,9.1240493 Z"
     sodipodi:nodetypes="scccccssscsscccccccccccccssccccsccscccccsscscccccccscccccccccccsccscscssscsccccccccss" />
  <path
     id="path8"
     style="fill:#2f2f2f;fill-opacity:1;stroke-width:8.50317;stroke-linecap:round"
     d="m 48.118577,82.591394 c -3.292971,1.860565 -2.03557,31.780006 -2.03557,31.780006 l 18.129975,1.61247 16.430117,-1.61247 c 0,0 0.329856,-30.452079 -1.461698,-32.205349 -1.791559,-1.753269 -6.772381,-0.484381 -16.091933,-0.484381 -9.319552,0 -12.550627,-0.457752 -14.970891,0.909724 z"
     clip-path="url(#clipPath10)"
     sodipodi:nodetypes="scccszs"
     transform="matrix(1.066763,0,0,1.066763,-4.2880072,-0.90540249)" />
</svg>
