<?xml version="1.0" encoding="UTF-8" standalone="no"?>
<svg
   width="128"
   height="128"
   style="enable-background:new 0 0 128 128;"
   version="1.1"
   id="svg7"
   sodipodi:docname="hut.svg"
   inkscape:version="1.3 (0e150ed6c4, 2023-07-21)"
   xmlns:inkscape="http://www.inkscape.org/namespaces/inkscape"
   xmlns:sodipodi="http://sodipodi.sourceforge.net/DTD/sodipodi-0.dtd"
   xmlns:xlink="http://www.w3.org/1999/xlink"
   xmlns="http://www.w3.org/2000/svg"
   xmlns:svg="http://www.w3.org/2000/svg">
  <defs
     id="defs7">
    <defs
       id="defs4">
      <path
         id="SVGID_3_"
         d="m 66.15,89.5 c -2.51,0 -4.81,-0.71 -6.51,-2.01 l -0.43,-0.34 c -0.38,-0.31 -0.64,-0.51 -0.89,-0.63 -0.17,0.14 -0.41,0.37 -0.57,0.53 -0.54,0.52 -1.16,1.1 -1.99,1.45 -1.66,0.69 -3.47,0.83 -4.7,0.83 -0.58,0 -1.14,-0.03 -1.68,-0.09 -2.63,-0.28 -5.57,-1.64 -7.12,-4.05 -0.04,0.02 -0.08,0.05 -0.11,0.06 l -0.27,0.16 c -2.4,1.43 -6.25,1.69 -8.94,0.89 -2.15,-0.64 -3.69,-2.22 -4.54,-4.69 -0.04,-0.12 -0.08,-0.26 -0.12,-0.41 -0.11,0.07 -0.2,0.13 -0.28,0.18 -2.19,1.22 -4.16,1.78 -6.04,1.71 -1.63,-0.06 -6.53,-1.38 -6.85,-7.38 -0.33,-6.17 -0.62,-8.96 0.91,-10.7 1.38,-1.58 41.32,-25.07 43.47,-25.88 0.79,-0.3 2.29,-1.17 3.04,-1.17 1.21,0 4.34,0.38 4.34,0.38 0,0 21.47,12.61 28.03,16.26 5.16,2.86 10.47,5.8 13.62,7.89 1.71,1.12 3.02,2.21 2.88,5.2 -0.11,2.12 -0.03,4.9 -0.2,6.09 -0.42,3.05 -1.18,3.44 -2.98,4.87 -1.31,1.03 -3.22,1.67 -5.01,1.67 -0.98,0 -1.86,-0.18 -2.64,-0.54 -1.17,1.85 -2.73,3.71 -5.26,4.72 -2.05,0.82 -4.65,0.13 -6.01,-0.46 -0.05,-0.03 -0.1,-0.05 -0.15,-0.08 -0.13,0.19 -0.25,0.39 -0.34,0.54 -0.36,0.58 -0.7,1.11 -1.11,1.52 -0.75,0.74 -1.8,1.32 -2.83,1.85 -2.26,1.17 -5.07,1.47 -7.59,0.8 l -0.29,-0.08 c -0.87,-0.23 -1.86,-0.49 -2.85,-1.12 -0.2,-0.13 -0.41,-0.28 -0.62,-0.43 -0.04,-0.03 -0.1,-0.07 -0.14,-0.11 -0.71,0.69 -1.22,1.03 -2.2,1.5 -1.46,0.7 -3.21,1.07 -5.03,1.07 z" />
    </defs>
    <defs
       id="defs1">
      <path
         id="SVGID_1_"
         d="m 120.65,106.34 c -3.7,-6.37 -7.74,-12.57 -10.99,-19.16 -1.21,-2.46 -2.33,-4.98 -3.28,-7.54 -0.15,-0.42 -0.3,-0.83 -0.45,-1.25 -1.4,-4.04 -0.33,-8.93 -5.99,-7.24 -1.52,0.45 -3.09,0.66 -4.65,0.79 -6.05,0.51 -12.02,1.27 -17.96,2.46 -2.93,0.58 -5.64,2.05 -8.63,2.35 -1.53,0.15 -3.11,0.13 -4.7,0.06 -1.59,0.07 -3.18,0.09 -4.71,-0.06 -2.99,-0.3 -5.7,-1.76 -8.63,-2.35 -5.93,-1.18 -11.91,-1.95 -17.95,-2.46 -1.57,-0.13 -3.15,-0.35 -4.66,-0.79 -5.65,-1.69 -4.59,3.21 -5.98,7.24 -0.14,0.42 -0.3,0.83 -0.45,1.25 -0.96,2.56 -2.07,5.08 -3.28,7.54 -3.25,6.58 -7.3,12.79 -11,19.16 -7.55,13 12.62,17.89 21.75,20.11 1.68,0.41 3.38,0.78 5.08,1.11 3.07,0.61 5.5,0.29 8.16,-1.37 2.51,-1.57 4.73,-3.7 6.42,-6.13 0.32,-0.46 0.62,-0.93 0.89,-1.41 4.57,-7.99 10.8,-36.26 10.8,-36.26 l 6.69,-0.26 c 0,0 1.91,33.1 19.4,42.99 4.08,2.3 7.88,2.42 12.38,1.34 9.14,-2.23 29.31,-7.12 21.74,-20.12 z" />
    </defs>
    <clipPath
       id="SVGID_2_">
      <use
         style="overflow:visible"
         xlink:href="#SVGID_1_"
         id="use2" />
    </clipPath>
    <clipPath
       clipPathUnits="userSpaceOnUse"
       id="clipPath10">
      <path
         style="fill:#f79329;stroke-width:9.07088;stroke-linecap:round"
         d="m 21.618446,50.834266 c 0,0 -4.766546,41.373613 -4.766546,48.237433 0,6.863831 11.249047,14.108981 47.284128,14.108981 36.035082,0 43.887092,-7.25654 43.887092,-13.997453 0,-6.740914 -3.77492,-49.882756 -3.77492,-49.882756 z"
         id="path11"
         sodipodi:nodetypes="cssscc" />
    </clipPath>
  </defs>
  <sodipodi:namedview
     id="namedview7"
     pagecolor="#ffffff"
     bordercolor="#000000"
     borderopacity="0.25"
     inkscape:showpageshadow="2"
     inkscape:pageopacity="0.0"
     inkscape:pagecheckerboard="0"
     inkscape:deskcolor="#d1d1d1"
     showguides="true"
     inkscape:zoom="2.0273438"
     inkscape:cx="1.7263969"
     inkscape:cy="104.81696"
     inkscape:window-width="1366"
     inkscape:window-height="697"
     inkscape:window-x="-8"
     inkscape:window-y="-8"
     inkscape:window-maximized="1"
     inkscape:current-layer="svg7" />
  <path
     style="fill:#f79329;stroke-width:9.07088;stroke-linecap:round"
     d="m 16.471197,52.716083 c 0,0 -5.353092,46.464829 -5.353092,54.173267 0,7.70846 12.633294,15.84517 53.10266,15.84517 40.469365,0 49.287595,-8.1495 49.287595,-15.71991 0,-7.570415 -4.23944,-56.021062 -4.23944,-56.021062 z"
     id="path7" />
  <g
     clip-path="url(#SVGID_2_)"
     id="g3"
     transform="translate(0,-28.600358)" />
  <path
     id="use4"
     style="fill:#855c52;stroke-width:1"
     d="m 61.716201,6.9081065 c -0.133016,-0.010159 -0.25209,-0.00442 -0.360252,0.012212 -0.0035,-3.58e-5 -0.0088,-0.00203 -0.01221,-0.00203 -0.137199,0 -0.349888,0.060551 -0.602457,0.1526494 -0.783111,0.2355741 -2.024723,0.72129 -3.551644,1.4796813 -0.302961,0.3233695 -0.613623,0.6389063 -0.952531,0.9281092 -0.07475,0.062187 -0.140841,0.1299769 -0.21371,0.1933557 C 42.379697,18.113297 11.841186,42.296427 10.366444,43.9849 8.4052529,46.215273 2.9643098,51.691064 3.3873118,59.599922 c 0.4101838,7.690946 6.6910232,9.383279 8.7803962,9.460194 2.40983,0.08973 3.15657,-0.556886 3.810647,-0.921259 0.10254,-0.06409 0.217217,-0.140257 0.358218,-0.229991 0.05128,0.192273 0.103424,0.371295 0.154685,0.525114 0.07213,0.209593 0.158283,0.400845 0.238133,0.600421 v 0.0021 c 0.0015,0.0036 0.0047,0.0065 0.0061,0.01021 0.135936,0.338711 0.281638,0.663235 0.43963,0.972885 0.0029,0.0058 0.0052,0.01251 0.0081,0.01832 0.0031,0.006 0.0072,0.01234 0.01021,0.01832 0.0019,0.0037 0.0043,0.0065 0.0061,0.01021 0.156248,0.302639 0.32143,0.592623 0.498656,0.867049 4.9e-4,7.65e-4 0.0016,0.0013 0.0021,0.0021 0.01518,0.0235 0.03149,0.04592 0.04681,0.06921 0.169589,0.257525 0.34715,0.504732 0.535291,0.736789 0.0353,0.04353 0.07193,0.08356 0.107871,0.12619 0.177519,0.210613 0.360393,0.413855 0.553609,0.602456 0.02246,0.02193 0.04653,0.04147 0.06921,0.0631 0.03631,0.03297 0.07178,0.06652 0.107873,0.09973 0.0092,0.0085 0.01927,0.01592 0.02849,0.02442 0.165231,0.150576 0.330861,0.300326 0.506795,0.43556 0.0031,0.0023 0.0052,0.0058 0.0081,0.0081 0.106298,0.08148 0.219552,0.152081 0.329724,0.227956 0.0048,0.0034 0.0095,0.0068 0.01424,0.01021 0.146767,0.100592 0.29014,0.206518 0.443701,0.297158 0.0042,0.0025 0.008,0.0056 0.01221,0.0081 0.09222,0.0542 0.190687,0.09869 0.286981,0.146544 0.07371,0.03662 0.145942,0.07531 0.219816,0.111943 0.12568,0.06233 0.244739,0.135099 0.374499,0.19132 0.002,8.57e-4 0.0042,0.0012 0.0061,0.0021 0.308581,0.133366 0.627271,0.251436 0.95864,0.350075 0.431012,0.128182 0.886616,0.236136 1.357562,0.321582 0.420284,0.07626 0.856178,0.129247 1.298538,0.170967 0.138372,0.01308 0.277316,0.02084 0.417242,0.03053 0.345156,0.02384 0.692516,0.03766 1.044122,0.0407 0.114384,0.001 0.227166,0.0033 0.341935,0.0021 0.470059,-0.0051 0.940391,-0.02287 1.410482,-0.06513 1.023981,-0.09206 2.037187,-0.272778 2.985822,-0.545468 0.949151,-0.272988 1.836123,-0.638788 2.605217,-1.09704 l 0.346006,-0.203533 c 0.01505,-0.0051 0.03673,-0.01997 0.05494,-0.03053 0.02829,-0.01642 0.05431,-0.03124 0.08548,-0.04681 1.986828,3.089199 5.755203,4.83117 9.126401,5.19008 0.692187,0.07692 1.409916,0.116014 2.153376,0.116014 1.576644,0 3.896737,-0.180016 6.024564,-1.064476 1.063915,-0.448637 1.858078,-1.191705 2.550264,-1.858252 0.20509,-0.205092 0.512771,-0.500344 0.730682,-0.679799 0.0671,0.03221 0.14419,0.08872 0.213709,0.130261 0.0025,0.0016 0.0055,0.0046 0.0081,0.0061 7.79e-4,4.68e-4 0.0013,0.0016 0.0021,0.0021 0.251383,0.151361 0.527911,0.353738 0.889437,0.647234 0.01082,0.0088 0.01751,0.01342 0.02849,0.02238 5.5e-4,4.48e-4 0.0015,-4.5e-4 0.0021,0 l 0.549538,0.43556 c 0.272388,0.208297 0.555321,0.405882 0.850767,0.590244 0.59089,0.368725 1.227552,0.689255 1.898958,0.958638 0.671406,0.269384 1.37863,0.488156 2.114705,0.65334 0.736298,0.165235 1.500103,0.275478 2.28567,0.331758 0.393588,0.02825 0.791711,0.04274 1.194738,0.04274 1.166457,0 2.310836,-0.117213 3.396958,-0.348042 1.086346,-0.230728 2.113185,-0.57513 3.048918,-1.023769 0.628094,-0.301228 1.106148,-0.560017 1.540742,-0.854837 0.433881,-0.294336 0.826127,-0.625373 1.280221,-1.06651 0.05127,0.05128 0.127837,0.101982 0.179108,0.140437 0.269183,0.192272 0.539449,0.384935 0.795812,0.551574 1.269007,0.807549 2.536188,1.140086 3.651375,1.434904 l 0.372466,0.101771 c 3.230198,0.858821 6.831933,0.475968 9.728856,-1.023769 1.320281,-0.679368 2.667621,-1.422605 3.628988,-2.371155 0.525549,-0.525547 0.961235,-1.206384 1.422692,-1.949843 0.115362,-0.192274 0.268921,-0.448461 0.43556,-0.69201 0.06409,0.03845 0.127222,0.06535 0.191321,0.103803 0.09147,0.03968 0.229831,0.07593 0.329723,0.116014 0.0059,0.0023 0.01447,0.0056 0.02035,0.0081 0.889887,0.355394 2.054747,0.709519 3.346076,0.862978 0.0014,1.59e-4 0.0027,-1.58e-4 0.0041,0 0.09524,0.0113 0.190892,0.01544 0.286981,0.02442 0.234198,0.02191 0.466962,0.04443 0.704223,0.05088 0.04197,0.0012 0.08417,-0.0026 0.126191,-0.0021 0.113947,-9.55e-4 0.227931,-0.0036 0.341935,-0.0061 0.172549,-0.0037 0.344962,-5.73e-4 0.516962,-0.01424 0.006,-4.55e-4 0.0122,4.94e-4 0.0183,0 0.21719,-0.01775 0.43077,-0.05809 0.6452,-0.09362 0.0345,-0.0057 0.0691,-0.0117 0.1038,-0.01629 0.0859,-0.01548 0.17337,-0.02007 0.25849,-0.03867 0.005,-0.0012 0.0109,-8.56e-4 0.0163,-0.0021 0.3357,-0.07416 0.66603,-0.173734 0.98509,-0.301228 0.20269,-0.08092 0.38691,-0.17747 0.58008,-0.266628 0.19264,-0.08895 0.39433,-0.169963 0.57802,-0.266627 0.18434,-0.09701 0.3517,-0.207042 0.52715,-0.311405 0.17582,-0.104403 0.35984,-0.202364 0.52715,-0.313441 0.3315,-0.220001 0.64615,-0.451024 0.94643,-0.694046 0.002,-0.0016 0.003,-0.0025 0.004,-0.0041 0.19521,-0.158169 0.37283,-0.32813 0.55564,-0.494584 0.0981,-0.08937 0.20428,-0.173113 0.2992,-0.264592 l 0.006,-0.0061 c 1.09326,-1.05456 1.96908,-2.241409 2.71919,-3.427489 0.99984,0.461455 2.12857,0.69201 3.38476,0.69201 3.85446,0 8.7687,-2.180648 9.05308,-8.062247 0.36324,-7.512439 -6.2397,-17.220853 -19.70646,-24.906151 C 95.506278,30.259722 78.241442,17.127174 68.288269,10.6124 68.055721,10.398444 67.822433,10.182886 67.590153,9.9692368 67.115827,9.5309334 66.65105,9.065177 66.17153,8.6238869 64.254708,7.7157035 62.673596,6.9812407 61.716201,6.9081065 Z"
     sodipodi:nodetypes="scsccccccccccccccsccsccscscccccccccsssccsccccscccsccsccccsccsccssscsccsccccccccccccscssccccscscccsccccscccssscccs" />
  <path
     id="path8"
     style="fill:#2f2f2f;fill-opacity:1;stroke-width:8.07696;stroke-linecap:round"
     d="m 48.118577,82.591394 c -3.292971,1.860565 -2.03557,31.780006 -2.03557,31.780006 l 18.129975,1.61247 16.430117,-1.61247 c 0,0 0.329856,-30.452079 -1.461698,-32.205349 -1.791559,-1.753269 -6.772381,-0.484381 -16.091933,-0.484381 -9.319552,0 -12.550627,-0.457752 -14.970891,0.909724 z"
     clip-path="url(#clipPath10)"
     sodipodi:nodetypes="scccszs"
     transform="matrix(1.1230546,0,0,1.1230546,-7.8074996,-4.3735768)" />
</svg>
