<?xml version="1.0" encoding="UTF-8" standalone="no"?>
<svg
   width="128"
   height="128"
   style="enable-background:new 0 0 128 128;"
   version="1.1"
   id="svg7"
   sodipodi:docname="hut.svg"
   inkscape:version="1.3 (0e150ed6c4, 2023-07-21)"
   xmlns:inkscape="http://www.inkscape.org/namespaces/inkscape"
   xmlns:sodipodi="http://sodipodi.sourceforge.net/DTD/sodipodi-0.dtd"
   xmlns:xlink="http://www.w3.org/1999/xlink"
   xmlns="http://www.w3.org/2000/svg"
   xmlns:svg="http://www.w3.org/2000/svg">
  <defs
     id="defs7">
    <defs
       id="defs4">
      <path
         id="SVGID_3_"
         d="m 66.15,89.5 c -2.51,0 -4.81,-0.71 -6.51,-2.01 l -0.43,-0.34 c -0.38,-0.31 -0.64,-0.51 -0.89,-0.63 -0.17,0.14 -0.41,0.37 -0.57,0.53 -0.54,0.52 -1.16,1.1 -1.99,1.45 -1.66,0.69 -3.47,0.83 -4.7,0.83 -0.58,0 -1.14,-0.03 -1.68,-0.09 -2.63,-0.28 -5.57,-1.64 -7.12,-4.05 -0.04,0.02 -0.08,0.05 -0.11,0.06 l -0.27,0.16 c -2.4,1.43 -6.25,1.69 -8.94,0.89 -2.15,-0.64 -3.69,-2.22 -4.54,-4.69 -0.04,-0.12 -0.08,-0.26 -0.12,-0.41 -0.11,0.07 -0.2,0.13 -0.28,0.18 -2.19,1.22 -4.16,1.78 -6.04,1.71 -1.63,-0.06 -6.53,-1.38 -6.85,-7.38 -0.33,-6.17 -0.62,-8.96 0.91,-10.7 1.38,-1.58 41.32,-25.07 43.47,-25.88 0.79,-0.3 2.29,-1.17 3.04,-1.17 1.21,0 4.34,0.38 4.34,0.38 0,0 21.47,12.61 28.03,16.26 5.16,2.86 10.47,5.8 13.62,7.89 1.71,1.12 3.02,2.21 2.88,5.2 -0.11,2.12 -0.03,4.9 -0.2,6.09 -0.42,3.05 -1.18,3.44 -2.98,4.87 -1.31,1.03 -3.22,1.67 -5.01,1.67 -0.98,0 -1.86,-0.18 -2.64,-0.54 -1.17,1.85 -2.73,3.71 -5.26,4.72 -2.05,0.82 -4.65,0.13 -6.01,-0.46 -0.05,-0.03 -0.1,-0.05 -0.15,-0.08 -0.13,0.19 -0.25,0.39 -0.34,0.54 -0.36,0.58 -0.7,1.11 -1.11,1.52 -0.75,0.74 -1.8,1.32 -2.83,1.85 -2.26,1.17 -5.07,1.47 -7.59,0.8 l -0.29,-0.08 c -0.87,-0.23 -1.86,-0.49 -2.85,-1.12 -0.2,-0.13 -0.41,-0.28 -0.62,-0.43 -0.04,-0.03 -0.1,-0.07 -0.14,-0.11 -0.71,0.69 -1.22,1.03 -2.2,1.5 -1.46,0.7 -3.21,1.07 -5.03,1.07 z" />
    </defs>
    <defs
       id="defs1">
      <path
         id="SVGID_1_"
         d="m 120.65,106.34 c -3.7,-6.37 -7.74,-12.57 -10.99,-19.16 -1.21,-2.46 -2.33,-4.98 -3.28,-7.54 -0.15,-0.42 -0.3,-0.83 -0.45,-1.25 -1.4,-4.04 -0.33,-8.93 -5.99,-7.24 -1.52,0.45 -3.09,0.66 -4.65,0.79 -6.05,0.51 -12.02,1.27 -17.96,2.46 -2.93,0.58 -5.64,2.05 -8.63,2.35 -1.53,0.15 -3.11,0.13 -4.7,0.06 -1.59,0.07 -3.18,0.09 -4.71,-0.06 -2.99,-0.3 -5.7,-1.76 -8.63,-2.35 -5.93,-1.18 -11.91,-1.95 -17.95,-2.46 -1.57,-0.13 -3.15,-0.35 -4.66,-0.79 -5.65,-1.69 -4.59,3.21 -5.98,7.24 -0.14,0.42 -0.3,0.83 -0.45,1.25 -0.96,2.56 -2.07,5.08 -3.28,7.54 -3.25,6.58 -7.3,12.79 -11,19.16 -7.55,13 12.62,17.89 21.75,20.11 1.68,0.41 3.38,0.78 5.08,1.11 3.07,0.61 5.5,0.29 8.16,-1.37 2.51,-1.57 4.73,-3.7 6.42,-6.13 0.32,-0.46 0.62,-0.93 0.89,-1.41 4.57,-7.99 10.8,-36.26 10.8,-36.26 l 6.69,-0.26 c 0,0 1.91,33.1 19.4,42.99 4.08,2.3 7.88,2.42 12.38,1.34 9.14,-2.23 29.31,-7.12 21.74,-20.12 z" />
    </defs>
    <clipPath
       id="SVGID_2_">
      <use
         style="overflow:visible"
         xlink:href="#SVGID_1_"
         id="use2" />
    </clipPath>
    <clipPath
       clipPathUnits="userSpaceOnUse"
       id="clipPath10">
      <path
         style="fill:#f79329;stroke-width:9.07088;stroke-linecap:round"
         d="m 21.618446,50.834266 c 0,0 -4.766546,41.373613 -4.766546,48.237433 0,6.863831 11.249047,14.108981 47.284128,14.108981 36.035082,0 43.887092,-7.25654 43.887092,-13.997453 0,-6.740914 -3.77492,-49.882756 -3.77492,-49.882756 z"
         id="path11"
         sodipodi:nodetypes="cssscc" />
    </clipPath>
  </defs>
  <sodipodi:namedview
     id="namedview7"
     pagecolor="#ffffff"
     bordercolor="#000000"
     borderopacity="0.25"
     inkscape:showpageshadow="2"
     inkscape:pageopacity="0.0"
     inkscape:pagecheckerboard="0"
     inkscape:deskcolor="#d1d1d1"
     showguides="true"
     inkscape:zoom="2.0273438"
     inkscape:cx="41.680154"
     inkscape:cy="91.499037"
     inkscape:window-width="1366"
     inkscape:window-height="697"
     inkscape:window-x="-8"
     inkscape:window-y="-8"
     inkscape:window-maximized="1"
     inkscape:current-layer="svg7" />
  <path
     style="fill:#f79329;stroke-width:9.07088;stroke-linecap:round"
     d="m 17.934611,52.065675 c 0,0 -5.18088,44.970026 -5.18088,52.430475 0,7.46047 12.226873,15.33542 51.394313,15.33542 39.167436,0 47.701986,-7.88732 47.701986,-15.21419 0,-7.326867 -4.10306,-54.218825 -4.10306,-54.218825 z"
     id="path7" />
  <g
     clip-path="url(#SVGID_2_)"
     id="g3"
     transform="translate(0,-28.600358)" />
  <path
     id="use4"
     d="m 66.69993,73.229892 c -2.973503,0 -5.698227,-0.841111 -7.712153,-2.381172 l -0.509405,-0.402786 c -0.450172,-0.367246 -0.758184,-0.604177 -1.05435,-0.746337 -0.201393,0.165853 -0.485712,0.438325 -0.675257,0.627871 -0.639718,0.616024 -1.374209,1.303128 -2.357479,1.71776 -1.96654,0.817418 -4.110779,0.98327 -5.567914,0.98327 -0.687104,0 -1.350516,-0.03554 -1.990234,-0.10662 -3.115662,-0.331705 -6.59857,-1.942845 -8.434797,-4.797883 -0.04738,0.02369 -0.09477,0.05924 -0.130313,0.07108 l -0.319859,0.189546 c -2.84319,1.694068 -7.404141,2.00208 -10.590884,1.05435 -2.547024,-0.758184 -4.371405,-2.629951 -5.378368,-5.556068 -0.04738,-0.142159 -0.09477,-0.308012 -0.14216,-0.485711 -0.130313,0.08293 -0.236932,0.154006 -0.331705,0.213239 -2.594411,1.445289 -4.928196,2.108699 -7.155362,2.025773 -1.931,-0.07108 -7.7358468,-1.634835 -8.1149389,-8.74281 C 5.8438125,49.584026 10.871761,44.522748 12.684295,42.461436 14.319129,40.58967 59.934425,7.0300966 63.43178,7.0300966 c 3.497355,0 29.555814,20.5310514 37.3272,24.8550694 6.11286,3.388135 12.40342,6.871043 15.91002,12.444881 3.5066,5.573837 3.60137,8.8672 3.39998,10.276949 -0.49756,3.61322 -1.3979,4.075238 -3.53029,5.769305 -1.55191,1.220203 -3.81462,1.978387 -5.93516,1.978387 -1.16097,0 -2.20347,-0.213239 -3.12751,-0.639717 -1.38606,2.191626 -3.23413,4.395098 -6.23133,5.591608 -2.428556,0.971422 -5.508679,0.154006 -7.11982,-0.544945 -0.05924,-0.03554 -0.118467,-0.05924 -0.1777,-0.09477 -0.154006,0.225087 -0.296166,0.462018 -0.402785,0.639719 -0.426478,0.687103 -0.829264,1.314975 -1.314976,1.800686 -0.888496,0.876651 -2.132392,1.563754 -3.352594,2.191626 -2.677338,1.386056 -6.00624,1.741454 -8.99159,0.947731 l -0.343552,-0.09477 c -1.030656,-0.272472 -2.203472,-0.580484 -3.376289,-1.326822 -0.236932,-0.154007 -0.485711,-0.331706 -0.73449,-0.509405 -0.04738,-0.03554 -0.118467,-0.08293 -0.165853,-0.130313 -0.84111,0.817418 -1.445288,1.220203 -2.606257,1.776994 -1.729608,0.829264 -3.802767,1.267589 -5.958854,1.267589 z"
     style="fill:#855c52;stroke-width:1"
     sodipodi:nodetypes="scccccsccccccccccczccccscccccccccccccs" />
  <path
     id="path5"
     clip-path="url(#SVGID_4_)"
     style="fill:#855c52;stroke-width:1"
     d="M 63.432538,7.0307765 C 62.860197,7.1235837 61.4494,7.6159006 59.591876,8.538496 59.311879,8.8373534 59.02573,9.1292512 58.71251,9.3965319 57.561724,10.354122 56.663585,11.470263 55.605198,12.52025 c -1.478381,1.453181 -2.991683,2.8983 -4.495265,4.326284 -3.704353,3.511156 -15.0564,19.385245 -20.162287,24.443743 -1.788836,1.765144 -3.615585,3.530996 -6.233362,8.056631 -2.617776,4.525637 -2.878359,6.197084 -2.878359,7.843762 0,2.624474 0.02595,5.077995 0.363266,7.246803 1.14e-4,7.37e-4 -1.15e-4,0.0016 0,0.0023 0.0013,0.0033 0.0033,0.0059 0.0046,0.0093 0.127991,0.318882 0.265272,0.624896 0.414169,0.916262 0.0028,0.0056 0.0064,0.01066 0.0093,0.01619 0.145932,0.284303 0.303999,0.554403 0.469699,0.812143 0.01403,0.02172 0.02749,0.04327 0.04165,0.06479 0.156467,0.238859 0.321594,0.464853 0.495152,0.680256 0.03262,0.04023 0.06627,0.0786 0.09949,0.118004 0.163303,0.194934 0.333618,0.380609 0.51135,0.555311 0.05333,0.05206 0.109652,0.100153 0.164278,0.150397 0.162747,0.150741 0.327945,0.298278 0.502094,0.432679 0.09824,0.07531 0.2036,0.140431 0.30542,0.210555 0.143708,0.0996 0.284147,0.202393 0.434994,0.291538 0.150483,0.08844 0.309925,0.16256 0.467386,0.240635 0.117459,0.05853 0.230329,0.125478 0.351697,0.178163 0.28519,0.123258 0.579934,0.232768 0.886184,0.32393 0.398342,0.118466 0.818828,0.217196 1.254075,0.296165 1.305743,0.236911 2.751288,0.294316 4.171772,0.166594 1.893977,-0.170295 3.745109,-0.670816 5.166702,-1.517849 l 0.319304,-0.189731 c 0.01391,-0.0046 0.03407,-0.01799 0.05091,-0.02776 0.0049,-0.05535 0.01783,-0.105601 0.02083,-0.161964 0.225083,-4.193699 1.82942,-11.969643 2.700196,-14.28768 1.829909,-4.871279 13.187339,-31.495863 15.329312,-34.603825 1.864777,-2.704765 3.518779,-5.795355 5.492755,-8.42452 -0.151199,0.86519 -4.02392,45.302992 -4.02392,46.677198 0,2.594406 -0.259979,9.809844 -0.224438,12.404251 3.27e-4,0.01637 0.0063,0.03225 0.007,0.04859 0.0023,0.0014 0.0046,0.0032 0.007,0.0046 0.24084,0.144838 0.498786,0.334689 0.851476,0.622411 l 0.509036,0.402599 c 0.25174,0.192508 0.513638,0.373355 0.786689,0.543742 0.546101,0.340776 1.133344,0.63722 1.753855,0.886184 1.241026,0.497928 2.615607,0.807605 4.067652,0.911634 0.363753,0.02611 0.731201,0.03933 1.103679,0.03933 2.156083,0 4.228414,-0.438695 5.95802,-1.267958 1.160968,-0.556791 1.766536,-0.959578 2.607646,-1.776994 0.02201,0.02201 0.04887,0.03933 0.07635,0.06015 0.0019,-0.003 0.0027,-0.0086 0.0046,-0.01161 0.497555,-0.770028 -1.849094,-13.667494 -2.228184,-15.645875 -0.308012,-1.54006 -7.804496,-42.831729 -7.947296,-44.100113 0.193199,0.243597 15.187441,26.669569 18.137245,30.946193 1.895456,2.748412 4.269246,7.075794 6.242617,11.043739 0.875139,1.759681 3.614424,7.35315 3.602577,9.331532 -0.01185,1.160967 0.188251,2.0615 0.448877,3.151388 0.182078,0.735385 0.470898,1.363255 0.826024,1.90888 0.0055,0.0021 0.01308,0.0047 0.01851,0.007 0.615033,0.245825 1.386284,0.492778 2.232811,0.661744 0.04096,0.008 0.08366,0.0132 0.124945,0.02083 0.241309,0.04556 0.487722,0.08518 0.738101,0.115693 0.08803,0.01044 0.17728,0.01483 0.266085,0.02313 0.215258,0.02077 0.431923,0.03982 0.650177,0.04627 0.143906,0.0039 0.288439,-0.0039 0.43268,-0.007 0.165456,-0.0032 0.330086,-5.2e-4 0.495152,-0.01388 0.200729,-0.0164 0.398778,-0.05279 0.596959,-0.08562 0.116285,-0.01926 0.234375,-0.02777 0.349375,-0.05321 0.31086,-0.06866 0.61624,-0.159497 0.91164,-0.277654 0.37398,-0.149298 0.72944,-0.314166 1.06897,-0.49284 0.34101,-0.179464 0.66517,-0.373335 0.97412,-0.578448 0.30637,-0.203325 0.5971,-0.416318 0.87461,-0.64092 0.002,-0.0014 0.003,-0.0032 0.004,-0.0046 0.27728,-0.224668 0.54023,-0.459074 0.79132,-0.701079 l 0.004,-0.0046 c 0.2501,-0.241303 0.48824,-0.490416 0.71495,-0.745042 0.002,-0.0025 0.004,-0.0045 0.007,-0.007 0.22605,-0.254246 0.44017,-0.513801 0.64554,-0.777435 0.002,-0.0031 0.004,-0.0061 0.007,-0.0093 0.41153,-0.528994 0.78505,-1.07402 1.12913,-1.617342 0.006,-0.04843 0.0153,-0.09471 0.0209,-0.143456 0.57914,-7.440138 -2.89972,-13.18732 -6.8697,-16.818926 -0.2014,-0.201392 -5.819192,-7.337041 -5.819192,-7.337041 C 89.397233,32.452953 77.754701,17.719768 73.924349,14.200213 72.353569,12.74703 70.7751,11.294102 69.20432,9.8493215 68.765948,9.4442408 68.336647,9.01358 67.893475,8.6057389 65.868873,7.64649 64.249433,6.8983063 63.432661,7.0307563 Z"
     sodipodi:nodetypes="scccccssscsscccccccccccccssccccsccscccccsscscccccccscccccccccccsccscscssscsccccccccss" />
  <path
     id="path8"
     style="fill:#2f2f2f;fill-opacity:1;stroke-width:8.34544;stroke-linecap:round"
     d="M 49.084042,80.269798 C 46.13184,82.150269 44.47855,113.40873 44.47855,113.40873 l 17.959745,1.77291 18.204804,-1.77291 c 0,0 -2.10457,-31.796798 -3.710727,-33.568825 -1.606162,-1.772026 -6.07155,-0.489563 -14.426681,-0.489563 -8.355131,0 -11.251843,-0.46265 -13.421649,0.919456 z"
     clip-path="url(#clipPath10)"
     sodipodi:nodetypes="scccszs"
     transform="matrix(1.0869252,0,0,1.0869252,-5.5630243,-3.1873726)" />
</svg>
