<?xml version="1.0" encoding="UTF-8" standalone="no"?>
<svg
   width="128px"
   height="128px"
   version="1.1"
   xml:space="preserve"
   style="fill-rule:evenodd;clip-rule:evenodd;stroke-linejoin:round;stroke-miterlimit:2;"
   id="svg6532"
   sodipodi:docname="index pointing at the viewer dark skin tone.svg"
   inkscape:version="1.2.2 (732a01da63, 2022-12-09)"
   xmlns:inkscape="http://www.inkscape.org/namespaces/inkscape"
   xmlns:sodipodi="http://sodipodi.sourceforge.net/DTD/sodipodi-0.dtd"
   xmlns="http://www.w3.org/2000/svg"
   xmlns:svg="http://www.w3.org/2000/svg"><defs
     id="defs6536" /><sodipodi:namedview
     id="namedview6534"
     pagecolor="#ffffff"
     bordercolor="#000000"
     borderopacity="0.25"
     inkscape:showpageshadow="2"
     inkscape:pageopacity="0.0"
     inkscape:pagecheckerboard="0"
     inkscape:deskcolor="#d1d1d1"
     showgrid="false"
     inkscape:zoom="2.9996795"
     inkscape:cx="45.171492"
     inkscape:cy="90.676352"
     inkscape:window-width="1366"
     inkscape:window-height="697"
     inkscape:window-x="-8"
     inkscape:window-y="-8"
     inkscape:window-maximized="1"
     inkscape:current-layer="svg6532" /><path
     d="m 99.131203,48.546964 c 0,0 4.053797,-1.856964 2.678797,-6.756964 -0.09,-1.17 -0.19,-2.28 -0.32,-3.3 -0.25,-2.01 2.121,-10.671 -11.259,-10.881 -4.31,-0.07 -4.111,-0.121 -7.136,0.979 -0.66,0.24 -3.335,3.379 -4.185,2.309 C 77.62,24.927 73.7,22.13 66.37,23.2 58.03,24.42 56.2,27.63 55.43,31.42 h -0.05 c 0,0 -1.52,2.07 -3.07,0.94 -0.9,-2.5 -2.99,-3.69 -7.66,-3.18 -12.55,1.35 -12.34,9.55 -12.89,13.97 -0.39,0.22 -0.86,0.28 -1.4,-0.07 -0.8,-1.29 -2.28,-2.11 -4.91,-2.11 -6.25,0 -10.63,9.28 -10.94,12.97 -0.34,4.02 1.41,19.75 2.43,24.48 1.03,4.72 6.83,7.71 11.46,6.05 3.34,-1.2 6.04,-2.36 3.85,-9.2 -0.06,-0.19 -0.13,-0.43 -0.21,-0.68 l 1.17,0.16 c 0.61,4.84 2.38,10.61 9.46,10.57 3.56,-0.02 7.91,-2.2 8.45,-8.16 l 3.86,0.52 c 0.04,0.49 0.09,0.99 0.13,1.48 0.55,5.8 7.42,7.79 11.97,7.8 l -9.074,1.13 -4.37,-0.55 c 0,0 -6.995,2.771 -4.785,11.641 1.28,5.16 4.545,4.449 12.245,5.499 5.83,0.79 14.52668,-0.16694 22.060689,-2.66536 7.53401,-2.498426 19.226491,-8.166806 19.226491,-22.593538 0,-14.426733 -2.09599,-25.751523 -3.251977,-30.874138 z"
     style="fill:#70534a;fill-rule:nonzero;fill-opacity:1"
     id="path6518"
     sodipodi:nodetypes="ccccsccccccccsccccccccccccccczzc" /><path
     d="M81.09,85.21C82.411,82.83 83.04,75.22 83.04,75.22C83.37,56.74 82.1,46.63 82.1,46.63C81.92,45.72 81.91,43.11 80.88,41.25C79.56,38.86 78.92,41.38 78.92,41.38C79.94,60.44 79.05,74.66 79.05,74.66C78.95,80.22 76.84,82.97 75.23,84.27C73.32,85.87 67.23,86.2 67.23,86.2C55.13,86.45 55.06,76.89 55.06,76.89C55.06,76.89 53.54,67.26 54.09,45.65C54.09,45.65 54.01,42.57 52.26,43.68C52.26,43.68 51.16,46.75 50.95,50.16C50.95,50.16 49.52,62.07 51.07,77.55C50.38,83.23 46.15,85.32 42.67,85.34C38.43,85.36 36.1,83.29 34.78,80.59C33.9,77.5 32.26,69.54 32.43,53.36C32.43,53.36 32.83,49.54 31.59,50.23C31.59,50.23 30.44,50.64 29.62,56.45C29.62,56.45 28.47,64.77 30.15,77.69C30.69,82.63 29.43,84.15 27.82,84.64C24.25,85.61 20.16,84.01 18.11,81.06C19.67,83.95 22.9,88.17 28.47,87.95C28.47,87.95 32.19,87.52 33.57,85.64C36.64,90.69 45.45,89.53 45.45,89.53C49.61,88.96 51.78,86.89 52.92,84.7L52.93,84.71C56.87,91.61 67.22,91.07 67.22,91.07C76.05,91.07 79.63,87.84 81.09,85.21Z"
     style="fill:#35201a;fill-rule:nonzero;fill-opacity:1"
     id="path6520" /><path
     d="m 103.94738,37.163294 c -0.11311,-5.356025 -3.05181,-9.047855 -5.568526,-10.635533 -2.749455,-1.736884 -5.842596,-2.031465 -8.731266,-1.993207 -3.954522,0.04973 -7.774181,1.656542 -11.030461,5.895453 -2.438405,3.175356 -3.032235,9.568154 -1.035398,14.357971 0.515523,1.235711 1.207239,2.410211 1.916355,3.251872 0.96144,1.143894 2.07732,2.04294 3.164923,2.693315 4.167691,2.490552 9.120631,2.322219 13.340527,0.405527 1.931582,-0.876091 3.880567,-2.391082 5.405376,-4.763036 1.48567,-2.310743 2.61243,-5.543484 2.53847,-9.212362 z"
     fill="#78a3ad"
     id="path6711"
     style="fill:#35201a;fill-opacity:1;stroke-width:0.999995"
     sodipodi:nodetypes="cccccccccc" /><path
     d="m 98.907831,44.490227 c -1.172947,1.846179 -2.676977,3.027737 -4.163977,3.71346 -3.252104,1.491011 -7.071766,1.624639 -10.282249,-0.316488 -0.838093,-0.506381 -1.696997,-1.209688 -2.438605,-2.09937 -0.546747,-0.657594 -1.091603,-1.557827 -1.475649,-2.535424 -1.295923,-3.294995 -1.428354,-8.070448 0.796472,-11.186098 2.45374,-3.439172 5.452335,-4.553916 8.500119,-4.592597 2.226716,-0.02813 4.608565,0.200443 6.727447,1.550792 1.939156,1.23782 4.203711,4.114348 4.290731,8.288475 0.0586,2.855427 -0.8116,5.376783 -1.954289,7.17725 z"
     fill="#78a3ad"
     id="path7441"
     style="fill:#70534a;fill-opacity:1;stroke-width:0.999995"
     sodipodi:nodetypes="cccccccccc" /></svg>
