<?xml version="1.0" encoding="UTF-8" standalone="no"?>
<svg
   width="128px"
   height="128px"
   version="1.1"
   xml:space="preserve"
   style="fill-rule:evenodd;clip-rule:evenodd;stroke-linejoin:round;stroke-miterlimit:2;"
   id="svg7"
   sodipodi:docname="jellyfish.svg"
   inkscape:version="1.3 (0e150ed6c4, 2023-07-21)"
   xmlns:inkscape="http://www.inkscape.org/namespaces/inkscape"
   xmlns:sodipodi="http://sodipodi.sourceforge.net/DTD/sodipodi-0.dtd"
   xmlns="http://www.w3.org/2000/svg"
   xmlns:svg="http://www.w3.org/2000/svg"><defs
     id="defs7"><inkscape:path-effect
       effect="powerstroke"
       id="path-effect17"
       is_visible="true"
       lpeversion="1.3"
       scale_width="1"
       interpolator_type="CentripetalCatmullRom"
       interpolator_beta="0.2"
       start_linecap_type="zerowidth"
       end_linecap_type="zerowidth"
       offset_points="0.25345859,2.3760391 | 1.5,4.4499998 | 3.483127,3.1728447"
       linejoin_type="round"
       miter_limit="4"
       not_jump="false"
       sort_points="true"
       message="&lt;b&gt;Ctrl + click&lt;/b&gt; on existing node and move it" /><inkscape:path-effect
       effect="powerstroke"
       id="path-effect15"
       is_visible="true"
       lpeversion="1.3"
       scale_width="1"
       interpolator_type="CentripetalCatmullRom"
       interpolator_beta="0.2"
       start_linecap_type="zerowidth"
       end_linecap_type="zerowidth"
       offset_points="0.25345859,2.3760391 | 1.5,4.4499998 | 3.483127,3.1728447"
       linejoin_type="round"
       miter_limit="4"
       not_jump="false"
       sort_points="true"
       message="&lt;b&gt;Ctrl + click&lt;/b&gt; on existing node and move it" /><inkscape:path-effect
       effect="powerstroke"
       id="path-effect13"
       is_visible="true"
       lpeversion="1.3"
       scale_width="1"
       interpolator_type="CentripetalCatmullRom"
       interpolator_beta="0.2"
       start_linecap_type="zerowidth"
       end_linecap_type="zerowidth"
       offset_points="0.25345859,2.3760391 | 1.5,4.4499998 | 3.483127,3.1728447"
       linejoin_type="round"
       miter_limit="4"
       not_jump="false"
       sort_points="true"
       message="&lt;b&gt;Ctrl + click&lt;/b&gt; on existing node and move it" /><inkscape:path-effect
       effect="powerstroke"
       id="path-effect11"
       is_visible="true"
       lpeversion="1.3"
       scale_width="1"
       interpolator_type="CentripetalCatmullRom"
       interpolator_beta="0.2"
       start_linecap_type="zerowidth"
       end_linecap_type="zerowidth"
       offset_points="0.25345859,2.3760391 | 1.5,4.4499998 | 3.483127,3.1728447"
       linejoin_type="round"
       miter_limit="4"
       not_jump="false"
       sort_points="true"
       message="&lt;b&gt;Ctrl + click&lt;/b&gt; on existing node and move it" /></defs><sodipodi:namedview
     id="namedview7"
     pagecolor="#ffffff"
     bordercolor="#000000"
     borderopacity="0.25"
     inkscape:showpageshadow="2"
     inkscape:pageopacity="0.0"
     inkscape:pagecheckerboard="0"
     inkscape:deskcolor="#d1d1d1"
     inkscape:zoom="2.867097"
     inkscape:cx="85.62668"
     inkscape:cy="76.907059"
     inkscape:window-width="1366"
     inkscape:window-height="697"
     inkscape:window-x="-8"
     inkscape:window-y="-8"
     inkscape:window-maximized="1"
     inkscape:current-layer="svg7" /><path
     style="fill:#eb7aa4;fill-opacity:1;fill-rule:nonzero;stroke:none;stroke-width:8.84857;stroke-linecap:round;stroke-linejoin:miter;stroke-dasharray:none;stroke-opacity:1"
     d="m 40.113644,131.89717 c 0.278124,0.26637 1.435968,1.05116 3.316286,-0.18487 0.963491,-0.63335 2.407223,-1.92978 4.025302,-3.98042 1.258696,-1.59519 2.724406,-3.78894 3.844578,-6.33985 0.999304,-2.27567 1.825941,-5.07084 1.762637,-8.06142 -0.07255,-3.13728 -0.727989,-5.95229 -1.656084,-8.5538 -0.907895,-2.54488 -2.093307,-4.91635 -3.125315,-6.978574 -0.987114,-1.972515 -2.033102,-4.029907 -2.824582,-6.111941 -0.719977,-1.893941 -1.265749,-3.890552 -1.436803,-6.121847 -0.146954,-1.92252 -0.0475,-3.40519 0.170437,-4.600849 0.21214,-1.163854 0.552436,-2.144303 0.977448,-3.082641 0.458869,-1.013085 0.982623,-1.915159 1.64002,-3.092028 0.669349,-1.198264 1.386047,-2.529127 1.957664,-4.071757 0.919237,-2.360268 1.011915,-4.616905 0.819388,-6.404124 -0.217345,-2.017605 -0.818501,-3.677004 -1.367441,-4.790833 -0.04794,-0.09728 -0.0968,-0.19264 -0.146463,-0.286065 -2.19303,-4.125761 -4.603637,-3.590913 -4.874769,-3.421522 -0.238154,0.148789 -0.615413,0.539148 -0.851379,1.444821 -0.241571,0.927189 -0.28972,2.178408 -0.229105,3.802836 0.0029,0.07801 0.0061,0.156448 0.0094,0.23522 0.03934,0.922255 0.08982,2.079131 -0.04125,3.225534 -0.118025,1.032297 -0.375328,2.008504 -0.873737,2.892166 -0.493901,0.88799 -1.043917,1.678894 -1.803912,2.780371 -0.670251,0.971409 -1.542293,2.239385 -2.304178,3.705695 -0.778712,1.498696 -1.46278,3.232255 -1.882803,5.318778 -0.424797,2.110239 -0.549883,4.433581 -0.339299,7.06237 0.268338,3.361599 1.122242,6.25089 2.113565,8.721782 1.051484,2.620845 2.39809,5.080178 3.400586,6.917398 1.139136,2.08763 2.16934,3.96926 2.979911,5.92132 0.79342,1.91077 1.343534,3.81742 1.534462,5.90154 0.166154,1.46575 -0.08687,3.156 -0.63983,4.96495 -0.60252,1.9711 -1.501927,3.89134 -2.295813,5.47251 -1.085905,2.16277 -1.772938,3.35225 -2.2073,4.50504 -0.717204,1.90344 0.03162,2.90684 0.348364,3.21021 z"
     id="path15"
     sodipodi:nodetypes="csssc"
     transform="matrix(1.0058118,0,0,1.0058118,31.108637,-12.284425)"
     inkscape:original-d="m 40.113644,131.89717 c 0,0 9.310135,-9.72085 8.871691,-18.35963 C 48.450918,103.00775 40.30394,96.798367 39.449681,85.923434 38.724541,76.692221 42.822178,74.020877 44.987561,69.06619 47.657789,62.956349 43.195947,55.814629 43.195947,55.814629"
     inkscape:path-effect="#path-effect17" /><path
     style="fill:#eb7aa4;fill-opacity:1;fill-rule:nonzero;stroke:none;stroke-width:8.84857;stroke-linecap:round;stroke-linejoin:miter;stroke-dasharray:none;stroke-opacity:1"
     d="m 43.980456,133.09125 0,0 c 0.206519,0.31464 1.154874,1.37045 3.0698,0.65477 0.966566,-0.36124 2.500643,-1.25306 4.226398,-2.88387 1.346153,-1.27209 2.9465,-3.13744 4.159514,-5.54871 1.099093,-2.18482 1.931916,-4.92833 1.816758,-8.09184 -0.12602,-3.28578 -1.022817,-6.16137 -2.250216,-8.7491 -1.19217,-2.51346 -2.733424,-4.81481 -4.02708,-6.75884 -1.256704,-1.888514 -2.528561,-3.785007 -3.472808,-5.724504 -0.849379,-1.744636 -1.454896,-3.55734 -1.612248,-5.613788 -0.148769,-1.945484 -0.06557,-3.430701 0.132114,-4.66738 0.194688,-1.21792 0.516183,-2.299688 0.949345,-3.50064 0.443101,-1.228509 1.021373,-2.610024 1.585715,-4.245483 0.607923,-1.761757 1.142069,-3.673504 1.500387,-5.950819 0.387845,-2.467263 0.04288,-4.623191 -0.502043,-6.33076 -0.605769,-1.898258 -1.504282,-3.360614 -2.249704,-4.311371 -0.065,-0.08291 -0.130514,-0.163755 -0.196417,-0.242549 -2.906273,-3.474716 -5.124616,-2.409588 -5.352502,-2.188151 -0.20128,0.195584 -0.493516,0.651319 -0.561591,1.55597 -0.06947,0.923182 0.100662,2.112252 0.44684,3.616969 0.01667,0.07245 0.03366,0.145259 0.05094,0.218346 0.201943,0.853957 0.460782,1.931135 0.55272,3.046962 0.08251,1.001457 0.03155,2.013653 -0.273788,3.019017 -0.433252,1.691643 -0.957399,3.083485 -1.546692,4.443029 -0.56044,1.29298 -1.197156,2.572873 -1.828958,4.089826 -0.626917,1.505227 -1.218705,3.201292 -1.581837,5.235637 -0.369283,2.068797 -0.473312,4.323158 -0.264492,6.929369 0.28044,3.515775 1.365062,6.496625 2.622416,8.96285 1.327266,2.60335 3.037485,4.98256 4.28,6.71607 1.429945,1.99501 2.681538,3.72944 3.661258,5.54886 0.947338,1.75929 1.581338,3.49871 1.791044,5.42892 0.190386,1.56841 -0.0531,3.0767 -0.555626,4.52799 -0.560833,1.61966 -1.420758,3.09435 -2.220372,4.31967 -1.007367,1.54367 -1.864201,2.66484 -2.30091,3.4808 -0.816325,1.52525 -0.291205,2.64217 -0.04797,3.01275 z"
     id="path13"
     inkscape:path-effect="#path-effect15"
     inkscape:original-d="m 43.980456,133.09125 c 0,0 9.793876,-6.42839 9.198673,-15.60543 C 52.496785,106.96521 42.174853,101.60929 41.320594,90.734354 40.595454,81.503141 44.384528,79.36523 46.015364,71.203263 47.321838,64.664655 41.757469,58.938215 41.757469,58.938215"
     sodipodi:nodetypes="csssc"
     transform="matrix(1.0058118,0,0,1.0058118,10.425615,-15.528882)" /><path
     style="fill:#eb7aa4;fill-opacity:1;fill-rule:nonzero;stroke:none;stroke-width:8.84857;stroke-linecap:round;stroke-linejoin:miter;stroke-dasharray:none;stroke-opacity:1"
     d="m 44.460398,132.68559 0,0 c 0.314991,0.23817 1.504636,0.85624 3.191364,-0.41731 0.01585,-0.012 0.03173,-0.0241 0.04762,-0.0364 0.88678,-0.68542 2.137783,-1.99963 3.553267,-3.96444 1.092257,-1.51615 2.356429,-3.53455 3.329725,-5.70514 0.447545,-0.99809 0.858221,-2.08364 1.149605,-3.20042 0.278822,-1.06863 0.475001,-2.26607 0.438067,-3.50228 -0.126265,-3.28378 -1.039373,-6.24907 -2.2627,-8.95329 -1.196787,-2.64556 -2.745978,-5.14609 -4.081019,-7.309758 -1.285399,-2.083211 -2.630647,-4.243756 -3.629768,-6.39094 -0.909239,-1.954023 -1.538212,-3.884707 -1.697507,-5.966822 -0.158721,-2.072213 -0.149094,-3.607024 -0.04859,-4.821849 0.0967,-1.168837 0.282747,-2.131566 0.537948,-3.132684 0.266198,-1.044259 0.640878,-2.227208 1.042694,-3.69149 0.43416,-1.582148 0.848713,-3.333801 1.188415,-5.518122 0.336991,-2.208034 0.227751,-4.250003 -0.02845,-5.894725 -0.291024,-1.868314 -0.795467,-3.395086 -1.270166,-4.461172 -0.04092,-0.09189 -0.08259,-0.182078 -0.124938,-0.270536 -1.846457,-3.857096 -4.033057,-3.607237 -4.410803,-3.432904 -0.656583,0.303019 -1.584708,1.417926 -1.639333,4.9147 -0.0012,0.07938 -0.002,0.159483 -0.0024,0.240275 -0.0037,0.8789 0.02822,2.240575 -0.03852,3.525472 -0.06272,1.207626 -0.213624,2.504569 -0.570903,3.763336 -0.454235,1.794002 -0.923714,3.1866 -1.406453,4.500669 -0.419306,1.141393 -0.965031,2.516222 -1.377115,3.818693 -0.443214,1.400865 -0.808765,2.924466 -0.998369,4.778465 -0.190373,1.861502 -0.19089,3.932281 0.007,6.399842 0.281679,3.53154 1.38115,6.588882 2.633612,9.164373 1.3315,2.738017 3.052592,5.332557 4.335243,7.269657 1.464423,2.21161 2.785988,4.19465 3.819523,6.21796 1.010902,1.97901 1.664569,3.84724 1.875017,5.77929 0.0643,0.26682 0.08066,0.71769 0.0035,1.339 -0.07895,0.63606 -0.24388,1.36538 -0.476343,2.15622 -0.506283,1.72239 -1.283044,3.56907 -1.956139,5.12303 -0.901815,2.082 -1.509137,3.4222 -1.815165,4.54078 -0.005,0.0182 -0.0098,0.0363 -0.01458,0.0544 -0.503157,1.9154 0.355516,2.82623 0.696571,3.08411 z"
     id="path12"
     sodipodi:nodetypes="csssc"
     transform="matrix(1.0006292,0.10197349,-0.10197349,1.0006292,57.491557,-14.777161)"
     inkscape:original-d="m 44.460398,132.68559 c 0,0 8.021946,-10.6093 7.635883,-16.56175 C 51.413936,105.60323 40.783346,98.472731 39.929087,87.597795 39.203947,78.366582 41.545946,77.428856 43.176782,69.266889 44.483256,62.728281 41.385168,56.015328 41.385168,56.015328"
     inkscape:path-effect="#path-effect13" /><path
     style="fill:#eb7aa4;fill-opacity:1;fill-rule:nonzero;stroke:none;stroke-width:8.84857;stroke-linecap:round;stroke-linejoin:miter;stroke-dasharray:none;stroke-opacity:1"
     d="m 43.320923,131.89717 c 0.235678,0.30269 1.250944,1.2255 3.243432,0.32902 0.0187,-0.008 0.03746,-0.017 0.05629,-0.0257 1.033052,-0.47918 2.633243,-1.53948 4.458756,-3.28709 1.412102,-1.35183 3.106451,-3.26844 4.416186,-5.56274 0.605415,-1.06052 1.15816,-2.25372 1.546625,-3.54903 0.377441,-1.25855 0.609404,-2.64165 0.561239,-4.11362 -0.05471,-1.56751 -0.357082,-3.04183 -0.838516,-4.43008 -0.473837,-1.36634 -1.109501,-2.61632 -1.812109,-3.76275 -1.368239,-2.23253 -3.156871,-4.31241 -4.58191,-6.01731 -1.414481,-1.692269 -2.808192,-3.386554 -3.834435,-5.16662 -0.470345,-0.815835 -0.859495,-1.64112 -1.149027,-2.503 -0.277472,-0.82598 -0.470448,-1.707285 -0.544174,-2.672335 -0.146274,-1.913724 -0.05202,-3.434075 0.170314,-4.748256 0.220423,-1.302898 0.580544,-2.490557 1.055875,-3.802737 0.483562,-1.3349 1.095463,-2.806043 1.683425,-4.504269 0.631692,-1.824533 1.184772,-3.783052 1.544803,-6.068456 0.336986,-2.208037 0.227737,-4.250012 -0.02848,-5.894755 -0.291041,-1.868289 -0.795505,-3.395052 -1.270251,-4.461166 -0.04092,-0.09189 -0.0826,-0.182076 -0.124946,-0.270534 -1.846478,-3.856857 -4.032973,-3.607274 -4.410795,-3.432906 -0.656614,0.303033 -1.584581,1.418071 -1.639325,4.914698 -0.0012,0.07938 -0.002,0.159484 -0.0024,0.240277 -0.0037,0.878922 0.02815,2.240623 -0.0386,3.525478 -0.06274,1.207633 -0.213657,2.504561 -0.570938,3.763306 -0.431526,1.682608 -0.970369,3.118554 -1.591902,4.56271 -0.589581,1.369914 -1.26441,2.750143 -1.928426,4.353139 -0.656435,1.584693 -1.281267,3.362885 -1.672484,5.455637 -0.39935,2.13626 -0.527251,4.447791 -0.315919,7.08581 0.142726,1.790107 0.516227,3.428887 1.038911,4.928553 0.53894,1.546309 1.230887,2.928551 1.971275,4.158566 1.544102,2.56524 3.510825,4.78303 4.932441,6.36642 1.659343,1.84818 3.017078,3.31158 4.077697,4.84205 0.502331,0.72486 0.890224,1.40114 1.174103,2.0567 0.282843,0.65316 0.471546,1.30642 0.556846,1.99185 0.07312,0.46281 0.06768,1.00511 -0.04166,1.641 -0.1134,0.65952 -0.330495,1.37195 -0.637358,2.12318 -0.674618,1.65155 -1.700453,3.29236 -2.646648,4.69007 -1.302736,1.92439 -2.107097,2.94052 -2.700342,4.0279 -0.009,0.0165 -0.01788,0.033 -0.02663,0.0494 -0.927623,1.74016 -0.349352,2.82294 -0.08097,3.16764 z"
     id="path11"
     inkscape:path-effect="#path-effect11"
     inkscape:original-d="m 43.320923,131.89717 c 0,0 10.685856,-8.32021 10.208059,-15.95417 C 52.960778,106.86457 41.127519,102.36982 40.27326,91.494883 39.54812,82.26367 43.623998,79.366344 45.254834,71.204377 46.561308,64.665769 43.46322,57.952816 43.46322,57.952816"
     sodipodi:nodetypes="csssc"
     transform="matrix(1.0058118,0,0,1.0058118,-7.2984943,-12.548658)" /><g
     transform="matrix(1.1057583,0,0,1.1830566,-9.6046755,-23.995594)"
     id="g5"
     style="stroke-width:1.33277"><path
       d="m 41.885469,73.021231 c -6.059217,-1.6019 -8.111699,-5.473928 -8.111699,-10.722734 0,-0.463363 0.0073,-0.929658 0.02214,-1.398381 0.528791,-16.745762 10.229469,-35.093556 35.747059,-35.093556 25.51759,0 33.899681,22.445784 33.899681,38.089091 0,6.537175 -3.540847,11.464023 -10.175633,12.335504 -5.184054,0.680927 -6.625057,-2.811263 -11.697155,-2.786915 -5.845086,0.02806 -6.663171,3.306621 -13.830478,3.452427 -7.794764,0.158572 -7.213744,-5.117209 -12.550375,-5.481116 -4.882151,-0.332917 -6.554072,3.390065 -13.30354,1.60568 z"
       style="fill:#d7598b;stroke-width:1.33277"
       id="path5"
       sodipodi:nodetypes="ssszssssss" /></g><g
     transform="matrix(1.1033181,-0.07342025,0.08267396,1.242378,-8.3674731,-18.338347)"
     id="g7"
     style="stroke-width:1.25595"><path
       d="m 61.019337,29.561202 c -5.380975,-0.009 -15.767965,2.713322 -20.310584,10.707322 -1.689269,2.97274 -2.558321,8.808999 2.266307,9.689058 2.909651,0.53075 5.394717,-1.851417 6.196201,-3.557995 2.619942,-5.57857 9.008963,-9.930799 13.337776,-11.268394 4.019795,-1.242111 3.433834,-5.561785 -1.4897,-5.569991 z"
       style="fill:#ffffff;fill-opacity:1;stroke-width:1.25595"
       id="path7"
       sodipodi:nodetypes="ssssss" /></g><path
     id="path21"
     style="fill:#b32362;fill-opacity:1;stroke:none;stroke-width:8.9;stroke-linecap:round;stroke-linejoin:miter;stroke-dasharray:none;stroke-opacity:1"
     d="m 27.764319,48.343826 c -0.01132,0.45392 -0.02406,0.906928 -0.02406,1.363033 0,6.209629 2.269943,10.791101 8.969966,12.686237 7.463272,2.111026 9.312268,-2.294088 14.710742,-1.90023 5.901018,0.430524 5.257771,6.672033 13.876887,6.484434 7.925302,-0.172497 8.830796,-4.051893 15.294042,-4.085093 5.608509,-0.02881 7.202485,4.102913 12.93479,3.29734 6.22516,-0.874837 9.975574,-5.210701 10.972434,-11.22699 -3.51363,2.036853 -8.227311,4.365718 -11.561745,4.365718 -5.906208,0 -8.015521,-3.923998 -13.384802,-3.923998 -5.369282,0 -7.132763,4.600513 -13.217948,4.600513 -6.085185,0 -7.680766,-6.80696 -14.302879,-6.80696 -6.098935,0 -7.134821,2.193682 -13.503475,2.193682 -5.340875,0 -8.997673,-4.357155 -10.763958,-7.047686 z"
     sodipodi:nodetypes="csssssscssssscc" /></svg>
