<?xml version="1.0" encoding="UTF-8" standalone="no"?>
<!-- Generator: Adobe Illustrator 26.3.1, SVG Export Plug-In . SVG Version: 6.00 Build 0)  -->

<svg
   version="1.1"
   id="Art"
   x="0px"
   y="0px"
   viewBox="0 0 128 128"
   style="enable-background:new 0 0 128 128;"
   xml:space="preserve"
   sodipodi:docname="jellyfish.svg"
   inkscape:version="1.2.2 (732a01da63, 2022-12-09)"
   xmlns:inkscape="http://www.inkscape.org/namespaces/inkscape"
   xmlns:sodipodi="http://sodipodi.sourceforge.net/DTD/sodipodi-0.dtd"
   xmlns="http://www.w3.org/2000/svg"
   xmlns:svg="http://www.w3.org/2000/svg"><defs
   id="defs7975" /><sodipodi:namedview
   id="namedview7973"
   pagecolor="#ffffff"
   bordercolor="#000000"
   borderopacity="0.25"
   inkscape:showpageshadow="2"
   inkscape:pageopacity="0.0"
   inkscape:pagecheckerboard="0"
   inkscape:deskcolor="#d1d1d1"
   showgrid="false"
   inkscape:zoom="2.9996795"
   inkscape:cx="55.005876"
   inkscape:cy="48.005128"
   inkscape:window-width="1366"
   inkscape:window-height="697"
   inkscape:window-x="-8"
   inkscape:window-y="-8"
   inkscape:window-maximized="1"
   inkscape:current-layer="Art" />
<g
   id="g7874"
   style="fill:#f193b3;fill-opacity:1">
	<g
   id="g7872"
   style="fill:#f193b3;fill-opacity:1">
		<path
   style="fill:#f193b3;fill-opacity:1"
   d="M64.24,86.95c-3.23,0-6.21-1.16-8.09-4.59c-2.17-3.97-1.51-8.39,1.91-12.78    c2.44-3.12,4.89-4.62,5.02-4.7c0.68-0.45,1.6-0.27,2.05,0.41c0.45,0.68,0.27,1.6-0.41,2.06c-0.1,0.07-9.83,6.54-5.97,13.59    c2.69,4.91,8.77,3.36,17.07-0.47c3.79-1.75,6.93-1.89,9.69-2.02c2.35-0.11,4.38-0.2,6.58-1.2c4.92-2.24,5.78-6.63,6.69-11.28    c0.48-2.44,0.97-4.95,2.08-7.17c2.28-4.56,5.85-7.11,6.5-7.51c0.76-0.47,1.59-1.03,2.12-0.39c0.52,0.63-0.23,1.45-0.86,1.97    c-0.04,0.03-3.07,2.29-5.25,6.81c-0.9,1.87-1.22,4.52-1.68,6.87c-0.97,4.94-2.06,10.53-8.37,13.41c-2.72,1.24-5.24,1.35-7.67,1.47    c-2.61,0.12-5.32,0.24-8.58,1.75C73.94,84.59,68.84,86.95,64.24,86.95z"
   id="path7870" />
	</g>
</g>
<g
   id="g7880"
   style="fill:#f193b3;fill-opacity:1">
	<g
   id="g7878"
   style="fill:#f193b3;fill-opacity:1">
		<path
   style="fill:#f193b3;fill-opacity:1"
   d="M80.87,123.51c-0.94-0.47-9.7-5.01-18.01-8.12c-1.53-0.57-3.12-1.1-4.81-1.66    c-6.76-2.24-15.18-5.02-24.76-12.89c-12.8-10.51-14.32-20.39-14.09-25.34c0.19-3.98,1.74-6.99,3.38-10.18    c0.69-1.34,1.4-2.72,2.02-4.21c1.8-4.31,1.13-11.01,1.12-11.08c-0.08-0.81,0.51-1.54,1.32-1.63c0.82-0.08,1.54,0.51,1.63,1.32    c0.03,0.3,0.75,7.52-1.34,12.53c-0.67,1.6-1.41,3.04-2.12,4.43c-1.55,3.02-2.9,5.63-3.05,8.96c-0.16,3.54,0.77,12.86,13.01,22.91    c9.16,7.52,16.95,10.1,23.82,12.37c1.72,0.57,3.34,1.11,4.92,1.7c8.55,3.21,16.26,7.93,17.37,8.53c1.12,0.61,2.61,2.02,2.19,2.73    C83.19,124.34,81.81,123.98,80.87,123.51z"
   id="path7876" />
	</g>
</g>
<g
   id="g7886"
   style="fill:#f193b3;fill-opacity:1">
	<g
   id="g7884"
   style="fill:#f193b3;fill-opacity:1">
		<path
   style="fill:#f193b3;fill-opacity:1"
   d="M60.72,99.12c-1.32,0-2.66-0.11-4.03-0.35c-13.12-2.28-21.1-12.07-19.41-23.8    c1.77-12.24,10.22-21.55,10.58-21.94c0.55-0.6,1.49-0.64,2.09-0.09c0.6,0.55,0.64,1.49,0.09,2.09c-0.08,0.09-8.2,9.05-9.83,20.35    c-1.7,11.8,7.3,18.77,16.98,20.46c8.75,1.52,16.58-2.96,22.3-6.24c1.27-0.73,2.46-1.41,3.52-1.94c2.6-1.3,4.99-1.63,7.29-1.94    c3.06-0.42,6.28-0.59,9.94-3.16c4.53-3.19,6.37-8.2,6.39-8.26c0.26-0.88,0.75-2.01,1.53-1.76c0.78,0.25,0.6,2.04,0.35,2.82    c-0.36,1.09-1.53,5.63-6.9,9.41c-4.25,2.99-7.79,3.47-10.91,3.9c-2.16,0.3-4.21,0.58-6.37,1.66c-0.98,0.49-2.15,1.16-3.38,1.86    C76,95.03,68.85,99.12,60.72,99.12z"
   id="path7882" />
	</g>
</g>
<radialGradient
   id="SVGID_1_"
   cx="35.1453"
   cy="76.8976"
   r="73.6997"
   gradientUnits="userSpaceOnUse">
	<stop
   offset="0.1223"
   style="stop-color:#FFA8D2"
   id="stop7888" />
	<stop
   offset="0.3647"
   style="stop-color:#F1B0DF"
   id="stop7890" />
	<stop
   offset="0.7812"
   style="stop-color:#DCBBF1"
   id="stop7892" />
</radialGradient>

<radialGradient
   id="SVGID_00000044136627956389054060000016442804711932414336_"
   cx="35.1453"
   cy="76.8976"
   r="73.6997"
   gradientUnits="userSpaceOnUse">
	<stop
   offset="0.1746"
   style="stop-color:#FFA8D2"
   id="stop7897" />
	<stop
   offset="0.4543"
   style="stop-color:#EDB2E2;stop-opacity:0.5388"
   id="stop7899" />
	<stop
   offset="0.7812"
   style="stop-color:#DCBBF1;stop-opacity:0"
   id="stop7901" />
</radialGradient>

<radialGradient
   id="SVGID_00000014595265266348623260000016092020333597520018_"
   cx="63.6332"
   cy="11.5167"
   r="50.2254"
   gradientTransform="matrix(-0.3376 0.9413 -2.3779 -0.8529 112.5032 -38.5568)"
   gradientUnits="userSpaceOnUse">
	<stop
   offset="0.0479"
   style="stop-color:#FE635D"
   id="stop7906" />
	<stop
   offset="0.1278"
   style="stop-color:#FE7053"
   id="stop7908" />
	<stop
   offset="0.3256"
   style="stop-color:#FF8C3C"
   id="stop7910" />
	<stop
   offset="0.4401"
   style="stop-color:#FF9734"
   id="stop7912" />
	<stop
   offset="0.5272"
   style="stop-color:#FE8B34"
   id="stop7914" />
	<stop
   offset="0.6826"
   style="stop-color:#FC6D36"
   id="stop7916" />
	<stop
   offset="0.825"
   style="stop-color:#F94B37"
   id="stop7918" />
</radialGradient>
<path
   style="fill:#eb7aa4;fill-opacity:1"
   d="M17.57,43.34  c-0.72-1.59-1.94-8.95,2.92-19.79S43.25-4.44,70.6,8.32c26.1,12.18,18.95,41.2,13.97,49.61c-4.66,7.86-8.82,9.84-12.89,10.23  c-2.69,0.25-10.03-5.47-13.17-5.67c-3.14-0.2-11.75,1.22-15.91-1.01c-4.15-2.23-9.63-9.73-11.45-10.44S20.41,49.62,17.57,43.34z"
   id="path7921" />








<radialGradient
   id="SVGID_00000053536485062739825200000012941812416223411358_"
   cx="63.578"
   cy="17.5838"
   r="45.0291"
   gradientTransform="matrix(-0.3794 0.9252 -1.6774 -0.6878 117.1934 -29.147)"
   gradientUnits="userSpaceOnUse">
	<stop
   offset="0.3617"
   style="stop-color:#FFCA87"
   id="stop7939" />
	<stop
   offset="0.4434"
   style="stop-color:#FFBF82"
   id="stop7941" />
	<stop
   offset="0.5872"
   style="stop-color:#FFA274"
   id="stop7943" />
	<stop
   offset="0.775"
   style="stop-color:#FF725F"
   id="stop7945" />
	<stop
   offset="0.812"
   style="stop-color:#FF685A"
   id="stop7947" />
</radialGradient>

<g
   id="g7962"
   style="fill:#f193b3;fill-opacity:1">
	<g
   id="g7960"
   style="fill:#f193b3;fill-opacity:1">
		<path
   style="fill:#f193b3;fill-opacity:1"
   d="M48.79,121.64c-5.86,0-16.27-1.52-22.59-12.08c-7.66-12.8-2.47-21.64,2.35-30.03    c1.88-3.27,3.65-6.36,4.73-9.71c2.85-8.92,1.7-14.02,1.69-14.07c-0.19-0.79,0.3-1.59,1.09-1.79c0.79-0.19,1.82,1.13,1.92,1.94    c0.13,1.04,1.26,5.02-1.88,14.83c-1.17,3.65-3.1,7.02-4.98,10.28c-4.59,8-8.93,15.56-2.17,26.86    c8.15,13.63,21.63,11.11,22.6,11.06c0.82-0.04,2.73-0.22,2.9,0.59c0.17,0.8-0.89,1.49-1.69,1.66    C52.71,121.18,51.48,121.64,48.79,121.64z"
   id="path7958" />
	</g>
</g><g
   id="g7968"
   style="fill:#f193b3;fill-opacity:1">
	<g
   id="g7966"
   style="fill:#f193b3;fill-opacity:1">
		<path
   style="fill:#f193b3;fill-opacity:1"
   d="M74.08,110.08c-4.1,0-8.66-0.82-13.8-2.82c-12.45-4.84-18.43-17.85-17.73-27.63    c0.8-11.16,7.22-17.77,7.49-18.05c0.58-0.58,1.51-0.59,2.1-0.01c0.58,0.58,0.59,1.51,0.01,2.1c-0.1,0.1-5.93,6.19-6.65,16.18    c-0.5,6.96,3.54,19.44,16.03,24.3c16.95,6.59,26.62-0.26,35.3-6.63c3.31-2.43,6.44-4.73,9.63-5.89    c8.83-3.21,13.25,1.15,13.47,1.34c0.62,0.54,1.48,1.51,0.94,2.13c-0.54,0.62-1.37-0.21-2.25-0.67c-1.49-0.77-4.36-2.81-11.48-0.22    c-2.79,1.01-5.43,3.39-8.57,5.69C92.21,104.58,84.71,110.08,74.08,110.08z"
   id="path7964" />
	</g>
</g><path
   style="fill:#d7598b;fill-opacity:1"
   d="M33.2,49.79c-4.37-2.58-7.01-1.63-10.19-3.57c-4.62-2.82-3.94-5.8-5.17-5.34  c-1.12,0.43-0.5,6.67,4.96,9.5s6.68,1.03,9.76,3.73c3.08,2.7,3.31,6.67,10.34,9.18c6.23,2.23,10.54-0.32,14.42,0.53  c5.12,1.12,3.31,3.63,9.18,4.85c4.57,0.96,8.47-0.79,8.22-1.55c-0.25-0.75-3.57,0.37-7.37-1.39c-2.69-1.25-5.03-4.19-8.21-5.02  c-6.35-1.65-9.95,1.7-16.17-1.44C36.74,56.15,38.1,52.68,33.2,49.79z"
   id="path7952" />
<path
   style="fill:#f196b6;fill-opacity:1"
   d="M48.14,9.02c0.25,1.89,2.29,1.83,3.39,1.77c1.3-0.07,3.46-0.65,3.2-2.71  c-0.19-1.5-1.5-2.03-3.44-1.88C49.49,6.33,47.92,7.3,48.14,9.02z"
   id="path7954" />
<path
   style="fill:#f196b6;fill-opacity:1"
   d="M32.14,13.72c6.31-5.19,9.82-5.35,11.01-5.22c1.1,0.12,2.32,0.89,2.02,2.35s-1.78,1.84-2.88,2.26  c-1.1,0.42-2.97,0.89-7.12,4.19c-3.18,2.52-6.09,6.86-7.48,7.96c-0.75,0.59-3,0.42-2.58-2.17S28.31,16.87,32.14,13.72z"
   id="path7956" />


<path
   style="fill:#f193b3;stroke:#E92A01;stroke-width:3;stroke-linecap:round;stroke-miterlimit:10;fill-opacity:1"
   d="M59.89,103.59"
   id="path7970" />
</svg>
