<?xml version="1.0" encoding="UTF-8" standalone="no"?>
<svg
   width="100%"
   height="100%"
   viewBox="0 0 128 128"
   version="1.1"
   xml:space="preserve"
   style="fill-rule:evenodd;clip-rule:evenodd;stroke-linejoin:round;stroke-miterlimit:2;"
   id="svg5"
   sodipodi:docname="leftwards pushing hand light skin tone.svg"
   inkscape:version="1.3 (0e150ed6c4, 2023-07-21)"
   xmlns:inkscape="http://www.inkscape.org/namespaces/inkscape"
   xmlns:sodipodi="http://sodipodi.sourceforge.net/DTD/sodipodi-0.dtd"
   xmlns="http://www.w3.org/2000/svg"
   xmlns:svg="http://www.w3.org/2000/svg"><sodipodi:namedview
   id="namedview5"
   pagecolor="#ffffff"
   bordercolor="#000000"
   borderopacity="0.25"
   inkscape:showpageshadow="2"
   inkscape:pageopacity="0.0"
   inkscape:pagecheckerboard="0"
   inkscape:deskcolor="#d1d1d1"
   inkscape:zoom="2.867097"
   inkscape:cx="63.130057"
   inkscape:cy="69.582577"
   inkscape:window-width="1366"
   inkscape:window-height="697"
   inkscape:window-x="-8"
   inkscape:window-y="-8"
   inkscape:window-maximized="1"
   inkscape:current-layer="svg5"
   showguides="false" />&#10;    &#10;    &#10;    &#10;    &#10;    &#10;    <defs
   id="defs5">&#10;        <linearGradient
   id="_Linear1"
   x1="0"
   y1="0"
   x2="1"
   y2="0"
   gradientUnits="userSpaceOnUse"
   gradientTransform="matrix(16.5047,-25.6882,33.2068,21.3354,44.8131,61.3841)"><stop
     offset="0"
     style="stop-color:rgb(255,143,0);stop-opacity:0"
     id="stop4" /><stop
     offset="1"
     style="stop-color:rgb(255,160,0);stop-opacity:1"
     id="stop5" /></linearGradient>&#10;    </defs>&#10;<g
   id="g7"
   transform="matrix(-1,0,0,1,33.490486,0)"><path
     d="m -61.659184,120.18297 c -6.490038,0 -13.515198,-2.23722 -13.515198,-17.2306 0,-14.993351 6.98349,-18.830233 13.515198,-18.830233 h 23.971936 c 8.306609,0 17.176138,-2.129377 18.928826,-11.391449 2.326881,-12.296556 4.709351,-27.514192 8.219641,-51.635095 C -9.0238608,10.685805 -6.8407258,3.1794275 2.4284052,2.9966152 11.697574,2.8139612 13.294986,11.491069 12.36971,23.739247 c -1.582555,20.94882 -6.6975878,52.77777 -6.6975878,65.312409 0,23.043884 -17.7921912,31.131314 -36.4826312,31.131314 z"
     style="clip-rule:evenodd;fill:#fadcbc;fill-opacity:1;fill-rule:evenodd;stroke:none;stroke-width:3.99999;stroke-linecap:round;stroke-linejoin:round;stroke-miterlimit:2;stroke-dasharray:none;stroke-opacity:1"
     id="path1-1"
     sodipodi:nodetypes="sssssssssss" /><path
     style="clip-rule:evenodd;fill:#fadcbc;fill-opacity:1;fill-rule:evenodd;stroke-width:3.99999;stroke-linecap:round;stroke-linejoin:round;stroke-miterlimit:2"
     d="m -19.752282,99.548575 c 0,0 8.999507,-25.451863 10.2868832,-35.38358 1.287375,-9.931718 4.149738,-16.669877 10.632895,-16.669877 6.447022,0 11.6739848,6.374872 11.6739848,18.53089 0,9.620259 -9.7243388,33.27985 -9.7243388,33.27985"
     id="path5"
     sodipodi:nodetypes="csssc" /><path
     id="path6"
     style="clip-rule:evenodd;fill:#dba689;fill-opacity:1;fill-rule:evenodd;stroke-width:3.99999;stroke-linecap:round;stroke-linejoin:round;stroke-miterlimit:2"
     d="m 0.97826517,44.842867 c -7.30387297,0 -11.70033417,5.394918 -12.88861717,20.020334 -1.188323,14.62542 -10.638522,35.052346 -8.408833,35.649799 2.22969,0.59742 10.269013,-18.864821 11.8007342,-33.824682 1.211462,-11.831837 3.148984,-17.913748 9.49671597,-17.913748 6.21579203,0 8.78638303,5.079888 9.41612383,16.911724 C 11.193631,80.703134 1.4006272,101.11042 3.6302782,100.513 5.8599672,99.915547 15.240037,79.488621 14.051754,64.863201 12.863431,50.237785 8.2820982,44.842867 0.97826517,44.842867 Z"
     sodipodi:nodetypes="sssssssss" /></g></svg>
