<?xml version="1.0" encoding="UTF-8" standalone="no"?>
<svg
   width="100%"
   height="100%"
   viewBox="0 0 128 128"
   version="1.1"
   xml:space="preserve"
   style="fill-rule:evenodd;clip-rule:evenodd;stroke-linejoin:round;stroke-miterlimit:1.41421;"
   id="svg10"
   sodipodi:docname="emoji_u1f9b5_1f3fd.svg"
   inkscape:version="1.3 (0e150ed6c4, 2023-07-21)"
   xmlns:inkscape="http://www.inkscape.org/namespaces/inkscape"
   xmlns:sodipodi="http://sodipodi.sourceforge.net/DTD/sodipodi-0.dtd"
   xmlns="http://www.w3.org/2000/svg"
   xmlns:svg="http://www.w3.org/2000/svg"><sodipodi:namedview
   id="namedview10"
   pagecolor="#ffffff"
   bordercolor="#000000"
   borderopacity="0.25"
   inkscape:showpageshadow="2"
   inkscape:pageopacity="0.0"
   inkscape:pagecheckerboard="0"
   inkscape:deskcolor="#d1d1d1"
   inkscape:zoom="2.867097"
   inkscape:cx="49.701841"
   inkscape:cy="70.977716"
   inkscape:window-width="1366"
   inkscape:window-height="697"
   inkscape:window-x="-8"
   inkscape:window-y="-8"
   inkscape:window-maximized="1"
   inkscape:current-layer="svg10" />&#10;    &#10;    &#10;    &#10;    &#10;    &#10;    &#10;    &#10;    &#10;    &#10;    <defs
   id="defs10">&#10;        <linearGradient
   id="_Linear1"
   x1="0"
   y1="0"
   x2="1"
   y2="0"
   gradientUnits="userSpaceOnUse"
   gradientTransform="matrix(-15.4049,25.4222,-25.4222,-15.4049,54.1815,52.3627)"><stop
     offset="0"
     style="stop-color:rgb(195,195,195);stop-opacity:1"
     id="stop9" /><stop
     offset="1"
     style="stop-color:rgb(152,152,152);stop-opacity:1"
     id="stop10" /></linearGradient>&#10;    </defs>&#10;<path
   style="fill:#bf8f68;fill-opacity:1;stroke-width:5;stroke-linecap:round"
   d="m 88.685478,4.6559847 c -28.059071,0 -57.883085,17.3536473 -60.562071,27.3517613 -2.678987,9.998114 14.489093,57.289178 13.386352,64.870514 -1.102738,7.58134 -5.902228,10.19516 -14.152546,12.40582 -8.250317,2.21067 -9.556361,6.26107 -9.556361,9.88589 0,3.62483 4.723259,4.17404 12.082756,4.17404 8.123434,0 12.530507,-0.76379 18.898257,-0.76379 6.311834,0 9.209261,0.32776 13.882446,0.32776 3.641445,0 6.596564,-1.76599 6.596564,-6.48661 0,-6.58974 -4.178218,-7.86997 -8.143903,-22.670109 C 56.785823,77.587198 49.628669,53.781844 53.5311,51.528773 c 3.902432,-2.25307 56.66798,1.252012 56.66798,-26.624182 0,-14.697482 -7.29849,-20.2486063 -21.513602,-20.2486063 z"
   id="path10"
   sodipodi:nodetypes="sssssssssssss" /><path
   id="path11"
   style="fill:#99674f;fill-opacity:1;stroke-width:5;stroke-linecap:round"
   d="M 71.271015,6.8443174 C 69.520643,7.2025566 67.880767,7.5796596 66.268302,7.9603382 46.578285,13.474952 30.083019,24.694299 28.123634,32.006822 c -0.167436,0.624881 -0.257827,1.395817 -0.279515,2.29325 -0.01084,0.448721 -0.0038,0.928569 0.01836,1.438382 0.617673,14.272919 13.696578,51.574183 13.698294,60.314114 v 0.0021 c -2.1e-5,0.311177 -0.01663,0.587929 -0.05101,0.824264 -0.06892,0.473833 -0.15321,0.926753 -0.250953,1.362893 -1.41e-4,6.3e-4 1.42e-4,0.0014 0,0.0021 -0.09764,0.43542 -0.208351,0.852653 -0.334601,1.252718 -1.93e-4,6.09e-4 1.92e-4,0.0015 0,0.0021 -0.885214,2.803707 -2.474169,4.766327 -4.741561,6.269707 -0.324007,0.21479 -0.662261,0.42106 -1.014008,0.61821 -0.35125,0.19686 -0.71683,0.38568 -1.095619,0.56718 -1.138036,0.54532 -2.400224,1.0263 -3.784679,1.47307 -0.92297,0.29785 -1.900562,0.58057 -2.93185,0.8569 -0.800049,0.21438 -1.514953,0.45085 -2.189198,0.69777 -0.115649,0.0423 -0.236744,0.0833 -0.348884,0.12651 -0.633503,0.24429 -1.211683,0.50287 -1.738299,0.77325 -0.08725,0.0447 -0.170557,0.0913 -0.255033,0.1367 -0.524941,0.28248 -1.008837,0.57392 -1.432262,0.87935 -0.0215,0.0155 -0.03996,0.0313 -0.0612,0.0469 -0.441727,0.32345 -0.834156,0.65768 -1.175189,1.00176 -0.0069,0.007 -0.01555,0.0134 -0.02244,0.0204 -0.344232,0.34964 -0.63625,0.70945 -0.889554,1.07522 -0.0128,0.0184 -0.02619,0.0367 -0.03876,0.0551 -0.245602,0.36137 -0.450205,0.72982 -0.620239,1.10174 -0.05259,0.11457 -0.0824,0.23157 -0.128536,0.34684 -0.270159,0.67763 -0.454111,1.36342 -0.544749,2.04842 2.562318,-1.36216 7.868526,-3.61713 16.127792,-5.23278 C 44.216409,110.3703 48.59395,105.08294 48.59395,96.815492 48.59395,83.647211 39.833168,63.9373 36.053135,41.110403 33.673121,26.737952 40.965092,19.38422 71.271022,6.8443801 Z M 110.09713,22.101368 c -1.31923,4.014578 -7.34208,17.960835 -32.935988,21.178355 -26.050654,3.274939 -28.23011,4.35447 -27.886709,7.535811 0.267435,2.477581 3.562061,2.172878 7.438174,1.791571 6.094878,-0.599574 53.486543,-1.283635 53.486543,-27.702423 0,-0.9762 -0.0377,-1.906758 -0.10206,-2.803314 z"
   sodipodi:nodetypes="ccsscsssscsccssssccccccsccccccsssccssssccs" /></svg>
