<?xml version="1.0" encoding="UTF-8" standalone="no"?>
<svg
   width="100%"
   height="100%"
   viewBox="0 0 128 128"
   version="1.1"
   xml:space="preserve"
   style="fill-rule:evenodd;clip-rule:evenodd;stroke-linejoin:round;stroke-miterlimit:2;"
   id="svg5768"
   sodipodi:docname="low battery.svg"
   inkscape:version="1.2.2 (732a01da63, 2022-12-09)"
   xmlns:inkscape="http://www.inkscape.org/namespaces/inkscape"
   xmlns:sodipodi="http://sodipodi.sourceforge.net/DTD/sodipodi-0.dtd"
   xmlns="http://www.w3.org/2000/svg"
   xmlns:svg="http://www.w3.org/2000/svg"><defs
   id="defs5772" /><sodipodi:namedview
   id="namedview5770"
   pagecolor="#ffffff"
   bordercolor="#000000"
   borderopacity="0.25"
   inkscape:showpageshadow="2"
   inkscape:pageopacity="0.0"
   inkscape:pagecheckerboard="0"
   inkscape:deskcolor="#d1d1d1"
   showgrid="false"
   inkscape:zoom="2.8284271"
   inkscape:cx="99.348502"
   inkscape:cy="68.942911"
   inkscape:window-width="1366"
   inkscape:window-height="697"
   inkscape:window-x="-8"
   inkscape:window-y="-8"
   inkscape:window-maximized="1"
   inkscape:current-layer="svg5768" />
    <path
   d="M35.52,21.24L40.33,113.71C40.33,121.53 50.93,127.86 64,127.86C77.07,127.86 87.66,121.53 87.66,113.71L92.47,21.24L35.52,21.24Z"
   style="fill:#cbdbe0;fill-rule:nonzero;fill-opacity:1"
   id="path5752" />
    <ellipse
   cx="64"
   cy="20.43"
   rx="22.38"
   ry="12.12"
   style="fill:white;"
   id="ellipse5754" />
    <path
   d="M64,4.22C48.27,4.22 35.52,11.84 35.52,21.25C35.52,30.65 48.27,38.27 64,38.27C79.72,38.27 92.48,30.65 92.48,21.25C92.48,11.84 79.72,4.22 64,4.22ZM64,32.55C51.64,32.55 41.62,27.12 41.62,20.43C41.62,13.74 51.64,8.31 64,8.31C76.36,8.31 86.38,13.74 86.38,20.43C86.38,27.13 76.36,32.55 64,32.55Z"
   style="fill:rgb(120,163,173);fill-rule:nonzero;"
   id="path5756" />
    <path
   d="M75.13,10.22C72.16,8.65 68.27,7.7 64,7.7C59.73,7.7 55.84,8.65 52.87,10.22L47.13,10.22L47.13,17.37L47.16,17.37C47.15,17.51 47.13,17.64 47.13,17.78C47.13,23.35 54.68,27.86 64,27.86C73.09,27.86 80.47,23.56 80.83,18.18L80.86,18.18L80.86,10.21L75.13,10.21L75.13,10.22Z"
   style="fill:rgb(153,153,153);fill-rule:nonzero;"
   id="path5758" />
    <path
   d="M75.13,10.22C72.16,8.65 68.27,7.7 64,7.7C59.73,7.7 55.84,8.65 52.87,10.22L47.13,10.22L47.13,17.37L47.16,17.37C47.15,17.51 47.13,17.64 47.13,17.78C47.13,23.35 54.68,27.86 64,27.86C73.09,27.86 80.47,23.56 80.83,18.18L80.86,18.18L80.86,10.21L75.13,10.21L75.13,10.22Z"
   style="fill:rgb(120,163,173);fill-rule:nonzero;"
   id="path5760" />
    <ellipse
   cx="64"
   cy="9.74"
   rx="10.95"
   ry="5.93"
   style="fill:white;"
   id="ellipse5762" />
    <path
   d="M64,0.14C54.68,0.14 47.13,4.65 47.13,10.23C47.13,15.8 54.68,20.31 64,20.31C73.31,20.31 80.87,15.8 80.87,10.23C80.87,4.65 73.31,0.14 64,0.14ZM64,15.67C57.95,15.67 53.05,13.02 53.05,9.74C53.05,6.46 57.95,3.81 64,3.81C70.05,3.81 74.95,6.46 74.95,9.74C74.95,13.01 70.05,15.67 64,15.67Z"
   style="fill:rgb(120,163,173);fill-rule:nonzero;"
   id="path5764" />
    <path
   d="m 39.216,92.283999 c 2.69,6.307 12.773,11.000001 24.784,11.000001 11.995,0 22.065,-4.680001 24.773,-10.973001 L 87.66,113.71 c 0,7.82 -10.59,14.15 -23.66,14.15 -13.07,0 -23.67,-6.33 -23.67,-14.15 z"
   style="clip-rule:evenodd;fill:#d3302c;fill-rule:evenodd;stroke-linejoin:round;stroke-miterlimit:2"
   id="path5456" /><path
   d="M74.91,52.43C74.08,50.58 71.88,50.18 70.07,50.04C69.4,49.99 68.35,50.19 68.21,49.26C68.16,48.91 68.12,48.56 68.09,48.21C68.03,47.68 68.01,47.15 67.92,46.63C67.77,45.73 67.22,44.72 66.49,43.99C66,43.5 65.41,43.13 64.8,43C63.83,42.8 62.73,42.9 61.81,43.31C59.92,44.16 59.56,46.4 59.41,48.24C59.38,48.61 59.39,48.97 59.36,49.33C59.34,49.58 59.27,49.82 59.04,49.95C58.942,50.007 58.833,50.045 58.72,50.06L57.91,50.15C57.51,50.19 57.1,50.21 56.7,50.27C55.76,50.42 54.6,50.8 53.86,51.37C53.22,51.85 52.64,52.51 52.44,53.28C52.17,54.33 52.18,55.51 52.69,56.49C53.65,58.33 55.8,58.67 57.67,58.81C58.13,58.84 58.78,58.72 59.16,59.06C59.41,59.29 59.4,59.71 59.44,60.02C59.49,60.52 59.56,61.02 59.64,61.52C59.79,62.46 60.17,63.62 60.74,64.36C61.22,65 61.88,65.58 62.65,65.77C63.7,66.04 64.88,66.03 65.86,65.52C67.7,64.56 68.04,62.41 68.18,60.54C68.21,60.19 68.17,59.78 68.26,59.44C68.41,58.82 69.15,58.86 69.63,58.81C70.28,58.74 70.94,58.65 71.59,58.54C72.49,58.38 73.5,57.84 74.23,57.11C74.72,56.61 75.09,56.03 75.22,55.42C75.43,54.45 75.32,53.34 74.91,52.43ZM72.78,113.31C73.2,112.89 73.52,112.39 73.63,111.86C73.81,111.02 73.71,110.07 73.36,109.29C72.41,107.17 69.48,107.27 67.53,107.13C64.28,106.9 60.92,106.92 57.7,107.43C56.89,107.56 55.9,107.89 55.26,108.37C54.71,108.78 54.21,109.35 54.04,110.01C53.81,110.91 53.82,111.93 54.26,112.77C55.08,114.35 56.93,114.64 58.54,114.77C62.36,115.06 66.72,115.2 70.51,114.54C71.29,114.4 72.16,113.94 72.78,113.31Z"
   style="fill:white;fill-rule:nonzero;"
   id="path5766" />
</svg>
