<?xml version="1.0" encoding="UTF-8" standalone="no"?>
<!-- Generator: Adobe Illustrator 24.0.3, SVG Export Plug-In . SVG Version: 6.00 Build 0)  -->

<svg
   version="1.1"
   id="Layer_8"
   x="0px"
   y="0px"
   viewBox="0 0 128 128"
   style="enable-background:new 0 0 128 128;"
   xml:space="preserve"
   sodipodi:docname="mammoth.svg"
   inkscape:version="1.2.2 (732a01da63, 2022-12-09)"
   xmlns:inkscape="http://www.inkscape.org/namespaces/inkscape"
   xmlns:sodipodi="http://sodipodi.sourceforge.net/DTD/sodipodi-0.dtd"
   xmlns:xlink="http://www.w3.org/1999/xlink"
   xmlns="http://www.w3.org/2000/svg"
   xmlns:svg="http://www.w3.org/2000/svg"><defs
   id="defs35897"><linearGradient
     inkscape:collect="always"
     id="linearGradient40788"><stop
       style="stop-color:#6d4a41;stop-opacity:1;"
       offset="0"
       id="stop40784" /><stop
       style="stop-color:#8d6b63;stop-opacity:1;"
       offset="1"
       id="stop40786" /></linearGradient><linearGradient
     inkscape:collect="always"
     xlink:href="#linearGradient40788"
     id="linearGradient40790"
     x1="118.95706"
     y1="66.363449"
     x2="120.84626"
     y2="75.447754"
     gradientUnits="userSpaceOnUse" /></defs><sodipodi:namedview
   id="namedview35895"
   pagecolor="#ffffff"
   bordercolor="#000000"
   borderopacity="0.25"
   inkscape:showpageshadow="2"
   inkscape:pageopacity="0.0"
   inkscape:pagecheckerboard="0"
   inkscape:deskcolor="#d1d1d1"
   showgrid="false"
   inkscape:zoom="2.9996795"
   inkscape:cx="44.671438"
   inkscape:cy="84.675711"
   inkscape:window-width="1366"
   inkscape:window-height="697"
   inkscape:window-x="-8"
   inkscape:window-y="-8"
   inkscape:window-maximized="1"
   inkscape:current-layer="Layer_8" />
<g
   id="g35892">
	<path
   style="fill:url(#linearGradient40790);fill-opacity:1"
   d="M116.51,48.97c3.78,5.6,4.32,10.42,5.2,17.19c0.8,6.16,1.6,10.68,2.97,15.43   c-3.76-1.43-9.14-5.45-9.39-14.36"
   id="path35798" />
	<g
   id="g35813">
		<linearGradient
   id="SVGID_1_"
   gradientUnits="userSpaceOnUse"
   x1="85.995"
   y1="98.9395"
   x2="85.995"
   y2="82.7869">
			<stop
   offset="0.2921"
   style="stop-color:#85574A"
   id="stop35800" />
			<stop
   offset="1"
   style="stop-color:#6A463E"
   id="stop35802" />
		</linearGradient>
		<path
   style="fill:#4e342e"
   d="M88.86,62.11c-6.94-2.38-11.06,3.03-11.19,5.83c-0.42,8.84-1.75,31.81-0.21,34.8    c1.29,2.51,4.02,3.05,8.81,3.05c2.16,0,6.51-0.27,8.13-2.49c1.26-1.73-0.01-5-0.31-8.13c-0.42-4.43-0.19-10.99,0.66-16.52    C95.78,72.02,95.8,64.48,88.86,62.11z"
   id="path35805" />
		<g
   id="g35811">
			<path
   style="fill:#bdbdbd"
   d="M82.05,101.41c-1.24-0.12-2.11,2.05-2.51,3.38c1.18,0.6,2.75,0.86,4.77,0.95     C84.14,103.78,83.87,101.59,82.05,101.41z"
   id="path35807" />
			<path
   style="fill:#bdbdbd"
   d="M87.81,101.98c-1.26,0.21-1.84,2.24-2.07,3.81c0.18,0,0.35,0.01,0.54,0.01     c1.13,0,2.85-0.08,4.47-0.46C89.96,103.09,89.07,101.77,87.81,101.98z"
   id="path35809" />
		</g>
	</g>
	<path
   style="fill:#ffa000;fill-opacity:1"
   d="M19.68,87.56c0,0,8.93,1.4,14.6-9.58c2.71-5.25,1.84-10.2,1.84-10.2l-5.78-6.01L19.68,87.56z"
   id="path35815" />
	<g
   id="g35832">
		<linearGradient
   id="SVGID_2_"
   gradientUnits="userSpaceOnUse"
   x1="44.6148"
   y1="99.2238"
   x2="44.6148"
   y2="80.4537">
			<stop
   offset="0"
   style="stop-color:#9B6A57"
   id="stop35817" />
			<stop
   offset="0.8691"
   style="stop-color:#85574A"
   id="stop35819" />
		</linearGradient>
		<path
   style="fill:#6d4a41"
   d="M55.25,72.46c-0.05-0.23-0.97-10.53-9.82-10.36c-8.85,0.18-11.16,3.67-11.65,6.74    c-0.91,5.74,0.52,14.38,0.96,18.24c0.53,4.66,1.59,9.34,0.99,14.04c-0.3,2.33-0.82,4.64-1.4,6.92c-1.07,4.22-0.84,6.24,1.62,7.76    c2.27,1.41,5.29,1.73,7.89,1.73c4.41,0,10.81-1.14,10.64-6.7c-0.05-1.62-0.52-3.2-0.81-4.8c-1.09-5.96-0.35-14.81,1.31-21.39    C55.68,81.83,56.15,76.62,55.25,72.46z"
   id="path35822" />
		<g
   id="g35830">
			<path
   style="fill:#e0e0e0"
   d="M35.08,111.99c-0.29-0.06-0.7-0.12-1.28,0.56c-0.01,0.01-0.01,0.02-0.02,0.03     c0.17,1.4,0.83,2.39,2.16,3.22c0.17,0.1,0.34,0.19,0.51,0.28C36.46,114.6,36.2,112.21,35.08,111.99z"
   id="path35824" />
			<path
   style="fill:#e0e0e0"
   d="M40.73,112.99c-1.66,0-2.78,2.3-3.23,3.56c1.8,0.69,3.84,0.93,5.73,0.96     C43.05,115.2,42.2,112.99,40.73,112.99z"
   id="path35826" />
			<path
   style="fill:#e0e0e0"
   d="M47.21,113.71c-1.44,0.2-2,2.52-2.25,3.79c1.75-0.08,3.67-0.36,5.33-1     C49.61,114.76,48.35,113.55,47.21,113.71z"
   id="path35828" />
		</g>
	</g>
	<path
   style="fill:#ffa000"
   d="M20.6,87.46c-2.26,0.24-14.38-0.05-16.87-10.61c-1.31-5.55,0.87-13.9,1.69-15.46   c0.96-1.84,2.5-0.72,2.33,1.18c-0.14,1.54-0.65,9.95,1.77,12.66c5.09,5.71,10.47,2.25,10.47,2.25L20.6,87.46z"
   id="path35834" />
	<radialGradient
   id="SVGID_3_"
   cx="58.5126"
   cy="44.436"
   r="46.0355"
   gradientUnits="userSpaceOnUse">
		<stop
   offset="0.27"
   style="stop-color:#85574A"
   id="stop35836" />
		<stop
   offset="0.8589"
   style="stop-color:#9B6A57"
   id="stop35838" />
	</radialGradient>
	<path
   style="fill:#6d4a41"
   d="M113.74,45.09c-3.55-3.87-8.33-6.19-13.21-7.92c-4.6-1.63-10.19-2.5-12.87-5.98   c-2.91-3.78-6-5.12-6-5.12c1.73-0.47,6.09,0.22,6.09,0.22s-5.58-7.7-15.94-5.64c1.21-1.59,4.43-3.18,4.43-3.18   s-13.37-6.09-22.58,9.03c-0.38,0.62-20.17,39.16-20.17,39.16C35.4,71.42,41.75,79.24,49.27,83c2.13,1.06,7.99,2.79,7.99,2.79   s2.72,6.77,2.38,14.71c-0.23,5.29-1.63,10.19-1.88,15.84c-0.12,2.74,0.71,4.59,3.19,5.66c2.59,1.11,5.26,1.6,8.08,1.6   c2.99,0,7.84-0.63,10.06-3.24c2.42-2.86,0.45-9.44,0.05-13.14c-0.4-3.75-0.6-16.8,2.7-21.85c0,0,2.41-0.02,4.4-0.28   c9.77-1.26,13.95-2.16,13.95-2.16c1.6,3.56-0.25,14.38-0.55,16.48c-0.49,3.43-1.22,6.73,0.19,8.6c2.04,2.7,6.65,3.29,9.65,3.29   c2.69,0,6.58-0.33,8.7-2.28c2.19-2.03,1.04-6.77,0.59-9.36c-1.4-8.06-3.34-14.87-2.09-23.06c0.57-3.75,1.75-9.43,1.75-14.47   C118.45,62.1,120.8,52.8,113.74,45.09z"
   id="path35841" />
	<linearGradient
   id="SVGID_4_"
   gradientUnits="userSpaceOnUse"
   x1="36.706"
   y1="77.2026"
   x2="76.2667"
   y2="22.4142">
		<stop
   offset="0.137"
   style="stop-color:#754D41"
   id="stop35843" />
		<stop
   offset="0.7859"
   style="stop-color:#805447;stop-opacity:0.2481"
   id="stop35845" />
		<stop
   offset="1"
   style="stop-color:#85574A;stop-opacity:0"
   id="stop35847" />
	</linearGradient>
	
	<g
   id="g35858">
		<path
   style="fill:#e0e0e0"
   d="M61.7,118.28c-1.07-0.1-2.3,1.03-2.72,2.37c0.44,0.53,1.08,0.96,1.98,1.35    c0.9,0.39,1.82,0.7,2.74,0.94C63.68,121.64,63.36,118.43,61.7,118.28z"
   id="path35852" />
		<path
   style="fill:#e0e0e0"
   d="M68.05,118.71c-2.11,0.22-2.77,3.46-2.94,4.54c1.29,0.24,2.6,0.35,3.94,0.35    c0.71,0,1.54-0.03,2.41-0.11C71.06,120.83,69.73,118.53,68.05,118.71z"
   id="path35854" />
		<path
   style="fill:#e0e0e0"
   d="M75.02,118.7c-1.22,0.4-1.83,3.12-1.94,4.58c1.98-0.33,3.98-0.97,5.33-2.18    C77.51,119.74,76.28,118.28,75.02,118.7z"
   id="path35856" />
	</g>
	<g
   id="g35866">
		<path
   style="fill:#e0e0e0"
   d="M102.68,105.94c-1.01-0.09-2.25,1.11-2.65,2.37c0.42,0.5,1.09,1.07,1.94,1.43    c0.9,0.39,1.61,0.75,2.66,0.99C104.6,109.51,104.24,106.08,102.68,105.94z"
   id="path35860" />
		<path
   style="fill:#e0e0e0"
   d="M108.65,106.34c-1.99,0.2-2.67,3.58-2.83,4.6c1.21,0.22,2.41,0.34,3.68,0.34    c0.67,0,1.61-0.03,2.43-0.1C111.56,108.68,110.23,106.18,108.65,106.34z"
   id="path35862" />
		<path
   style="fill:#e0e0e0"
   d="M115.21,106.33c-1.15,0.38-1.73,3.33-1.83,4.71c1.86-0.31,3.97-1.08,5.06-2.31    C117.6,107.45,116.4,105.94,115.21,106.33z"
   id="path35864" />
	</g>
	<g
   id="g35886">
		<path
   style="fill:#855c52"
   d="M24.72,87.63c2.21-5.95,4.5-10.46,8.15-15.6c3.87-5.46,8.04-9.25,9.27-9.63    c1.25-0.38,3.4-1.7,4.74-2.21c3.56-1.35,6.2-3.61,6.11-5.71c-0.16-3.86,7.85-16.72,1.16-26.69c-2.18-3.25-5.75-5.59-9.3-7.24    c-3.72-1.73-7.28-3.7-11.42-4.32c-3.96-0.6-1.79,3.11-5,5.52c-7.6,5.7-7.69,12.94-8.9,15.34s-2.96,3.5-2.85,6.46    c0.11,2.66,0.89,3.24,1.04,5.85s-1.33,11.71-2.47,15.06c-2.12,6.22-3.37,12.78-3.62,19.39c-0.34,8.95,2.78,18.77,10.48,23.35    c1.93,1.15,4.32,1.92,6.4,1.08s3.21-3.9,1.58-5.44c-0.94-0.89-2.37-0.97-3.53-1.53c-1.91-0.92-2.98-3.08-3.16-5.19    C23.15,93.48,23.8,90.11,24.72,87.63z"
   id="path35868" />
		
			
		<path
   style="fill:#fcc21b"
   d="M37.22,90.57c-22.35,0.72-26.23-28.49-26.45-29.43c-0.35-1.45,1.32-2.15,2.2-0.51    C13.74,62.08,25.41,86.4,37,80.75c4.79-2.34,5.14-18.41,2.82-21.91c-1.23-1.85,8.53-2.45,8.53-2.45c2.42,5.26,4.4,23.43-4.25,31.1    C42.1,89.28,39.83,90.41,37.22,90.57z"
   id="path35872" />
		<path
   style="fill:#855c52;fill-opacity:1"
   d="M39.59,56.98c-1.18,1.55-0.61,4.89,0,6.33c1.13,2.67,3.98,5.06,3.98,5.06l0.84-2.98l2.43,2.98    l1.74-3.26c0,0,0.71,2.18,2.14,3.43c0,0,1.73-4.54,3.12-6.99c1.75-3.09,3.62-2.83,3.91-7.04"
   id="path35874" />
		<path
   style="fill:#855c52;stroke-width:1"
   d="m 28.541552,13.727802 c -7.286322,2.337858 -11.095081,1.003331 -11.095081,1.003331 0,0 0.253268,4.81209 3.623678,4.880277 -3.964616,0.584465 -6.156357,2.406045 -8.581885,6.487554 0,0 9.781177,1.784829 10.570203,2.242654 0,0 -1.491523,4.283865 18.165962,9.018026 2.854133,0.691616 11.504206,-1.198152 11.465241,-3.876947 -0.02922,-2.113813 4.944419,-0.70631 3.794972,-2.81038 0,0 0.08762,1.113739 1.38318,-0.561724 C 56.406661,29.126744 54.838349,26.623289 53.912947,25.132905 51.380268,21.09036 44.935776,14.536312 41.088053,13.279713 36.724052,11.857517 32.876329,12.334829 28.541552,13.727802 Z"
   id="path35876"
   sodipodi:nodetypes="cccccccccccc" />
		<g
   id="g35880">
			
		</g>
		<path
   style="fill:#855c52;fill-opacity:1"
   d="M56.66,30.16c2.86-1.55,7.62-1.52,10.36-0.27c10.15,4.64,6.62,18.18,6.62,18.18    c-1.25-1.59-3.58-4.33-3.58-4.33c0.28,5.86-4,10.65-4,10.65c-0.18-0.77-1.11-2.89-1.4-3.44c-2.6,3.91-5.26,10.65-5.26,10.65    c-2.56-1.02-5.73-3.94-6.6-5.77c-0.49-1.03-4.8-8.26-1.02-19.77C52.75,33.09,53.74,31.74,56.66,30.16z"
   id="path35882" />
		<path
   style="fill:#2f2f2f;fill-opacity:1"
   d="M58.56,28.68c-3.37,1.01-5.46,2.97-6.43,4.09c-0.41,0.47-0.82,1.52,0.41,0.46    c1.21-1.05,9.89-6.5,16.68-0.03c4.52,4.3,3.36,12.14,3.36,12.14c-1.98-2.95-3.8-3.51-3.8-3.51s1.47,7.23-2.28,10.48    c0,0-1.06-2.92-2.14-3.22c0,0-0.65,2.96-2.31,4.9c-1.52,1.78-2.45,4.08-3.03,6.17c-6.73-2.37-7.39-10.06-7.4-10.13l-0.17-1.93    c-0.4,0.29-1.44,4.2,0.89,8.28c2.76,4.84,7.45,6.25,8.41,5.89c0,0-0.6-3.16,2.38-6.72c0.93-1.11,1.67-2.47,1.67-2.47    c0.44,0.68,0.74,2.73,0.74,2.73s5.27-2.65,5.31-9.37c1.12,0.67,2.65,3.28,2.65,3.28s4.4-7.04-1.07-16.33    C68.89,27.37,61.64,27.75,58.56,28.68z"
   id="path35884" />
	</g>
	
	
</g>
<ellipse
   style="fill:#2f2f2f;fill-opacity:1;stroke-width:35.9055;stroke-linecap:round"
   id="path38604"
   cx="37.754036"
   cy="43.629662"
   rx="3.8337429"
   ry="4.4854789" /></svg>
