<?xml version="1.0" encoding="UTF-8" standalone="no"?>
<!-- Generator: Adobe Illustrator 24.0.3, SVG Export Plug-In . SVG Version: 6.00 Build 0)  -->

<svg
   version="1.1"
   id="Layer_8"
   x="0px"
   y="0px"
   viewBox="0 0 128 128"
   style="enable-background:new 0 0 128 128;"
   xml:space="preserve"
   sodipodi:docname="mammoth.svg"
   inkscape:version="1.2.2 (732a01da63, 2022-12-09)"
   xmlns:inkscape="http://www.inkscape.org/namespaces/inkscape"
   xmlns:sodipodi="http://sodipodi.sourceforge.net/DTD/sodipodi-0.dtd"
   xmlns:xlink="http://www.w3.org/1999/xlink"
   xmlns="http://www.w3.org/2000/svg"
   xmlns:svg="http://www.w3.org/2000/svg"><defs
   id="defs35897"><linearGradient
   inkscape:collect="always"
   id="linearGradient40788"><stop
     style="stop-color:#6d4a41;stop-opacity:1;"
     offset="0"
     id="stop40784" /><stop
     style="stop-color:#8d6b63;stop-opacity:1;"
     offset="1"
     id="stop40786" /></linearGradient><linearGradient
   inkscape:collect="always"
   xlink:href="#linearGradient40788"
   id="linearGradient40790"
   x1="118.95706"
   y1="66.363449"
   x2="120.84626"
   y2="75.447754"
   gradientUnits="userSpaceOnUse" />
	
	
	
	
	
	<radialGradient
   id="SVGID_3_"
   cx="58.5126"
   cy="44.436"
   r="46.0355"
   gradientUnits="userSpaceOnUse">
		<stop
   offset="0.27"
   style="stop-color:#85574A"
   id="stop35836" />
		<stop
   offset="0.8589"
   style="stop-color:#9B6A57"
   id="stop35838" />
	</radialGradient>
	
	<linearGradient
   id="SVGID_4_"
   gradientUnits="userSpaceOnUse"
   x1="36.706"
   y1="77.2026"
   x2="76.2667"
   y2="22.4142">
		<stop
   offset="0.137"
   style="stop-color:#754D41"
   id="stop35843" />
		<stop
   offset="0.7859"
   style="stop-color:#805447;stop-opacity:0.2481"
   id="stop35845" />
		<stop
   offset="1"
   style="stop-color:#85574A;stop-opacity:0"
   id="stop35847" />
	</linearGradient>
	
	
	
	
	
	

		
		
			
		
		
		
		
		
		
	</defs><sodipodi:namedview
   id="namedview35895"
   pagecolor="#ffffff"
   bordercolor="#000000"
   borderopacity="0.25"
   inkscape:showpageshadow="2"
   inkscape:pageopacity="0.0"
   inkscape:pagecheckerboard="0"
   inkscape:deskcolor="#d1d1d1"
   showgrid="false"
   inkscape:zoom="2.9996795"
   inkscape:cx="63.673469"
   inkscape:cy="64.006838"
   inkscape:window-width="1366"
   inkscape:window-height="697"
   inkscape:window-x="-8"
   inkscape:window-y="-8"
   inkscape:window-maximized="1"
   inkscape:current-layer="Layer_8" />
<g
   id="g46847"><path
     style="fill:url(#linearGradient40790);fill-opacity:1"
     d="m 116.51,48.97 c 3.78,5.6 4.32,10.42 5.2,17.19 0.8,6.16 1.6,10.68 2.97,15.43 -3.76,-1.43 -9.14,-5.45 -9.39,-14.36"
     id="path35798" /><g
     id="g35813">
		<linearGradient
   id="SVGID_1_"
   gradientUnits="userSpaceOnUse"
   x1="85.995003"
   y1="98.939499"
   x2="85.995003"
   y2="82.786903">
			<stop
   offset="0.2921"
   style="stop-color:#85574A"
   id="stop35800" />
			<stop
   offset="1"
   style="stop-color:#6A463E"
   id="stop35802" />
		</linearGradient>
		<path
   style="fill:#4e342e"
   d="m 88.86,62.11 c -6.94,-2.38 -11.06,3.03 -11.19,5.83 -0.42,8.84 -1.75,31.81 -0.21,34.8 1.29,2.51 4.02,3.05 8.81,3.05 2.16,0 6.51,-0.27 8.13,-2.49 1.26,-1.73 -0.01,-5 -0.31,-8.13 C 93.67,90.74 93.9,84.18 94.75,78.65 95.78,72.02 95.8,64.48 88.86,62.11 Z"
   id="path35805" />
		<g
   id="g35811">
			<path
   style="fill:#bdbdbd"
   d="m 82.05,101.41 c -1.24,-0.12 -2.11,2.05 -2.51,3.38 1.18,0.6 2.75,0.86 4.77,0.95 -0.17,-1.96 -0.44,-4.15 -2.26,-4.33 z"
   id="path35807" />
			<path
   style="fill:#bdbdbd"
   d="m 87.81,101.98 c -1.26,0.21 -1.84,2.24 -2.07,3.81 0.18,0 0.35,0.01 0.54,0.01 1.13,0 2.85,-0.08 4.47,-0.46 -0.79,-2.25 -1.68,-3.57 -2.94,-3.36 z"
   id="path35809" />
		</g>
	</g><g
     id="g35832">
		<linearGradient
   id="SVGID_2_"
   gradientUnits="userSpaceOnUse"
   x1="44.614799"
   y1="99.223801"
   x2="44.614799"
   y2="80.453697">
			<stop
   offset="0"
   style="stop-color:#9B6A57"
   id="stop35817" />
			<stop
   offset="0.8691"
   style="stop-color:#85574A"
   id="stop35819" />
		</linearGradient>
		<path
   style="fill:#6d4a41"
   d="M 55.25,72.46 C 55.2,72.23 54.28,61.93 45.43,62.1 c -8.85,0.18 -11.16,3.67 -11.65,6.74 -0.91,5.74 0.52,14.38 0.96,18.24 0.53,4.66 1.59,9.34 0.99,14.04 -0.3,2.33 -0.82,4.64 -1.4,6.92 -1.07,4.22 -0.84,6.24 1.62,7.76 2.27,1.41 5.29,1.73 7.89,1.73 4.41,0 10.81,-1.14 10.64,-6.7 -0.05,-1.62 -0.52,-3.2 -0.81,-4.8 -1.09,-5.96 -0.35,-14.81 1.31,-21.39 0.7,-2.81 1.17,-8.02 0.27,-12.18 z"
   id="path35822" />
		<g
   id="g35830">
			<path
   style="fill:#e0e0e0"
   d="m 35.08,111.99 c -0.29,-0.06 -0.7,-0.12 -1.28,0.56 -0.01,0.01 -0.01,0.02 -0.02,0.03 0.17,1.4 0.83,2.39 2.16,3.22 0.17,0.1 0.34,0.19 0.51,0.28 0.01,-1.48 -0.25,-3.87 -1.37,-4.09 z"
   id="path35824" />
			<path
   style="fill:#e0e0e0"
   d="m 40.73,112.99 c -1.66,0 -2.78,2.3 -3.23,3.56 1.8,0.69 3.84,0.93 5.73,0.96 -0.18,-2.31 -1.03,-4.52 -2.5,-4.52 z"
   id="path35826" />
			<path
   style="fill:#e0e0e0"
   d="m 47.21,113.71 c -1.44,0.2 -2,2.52 -2.25,3.79 1.75,-0.08 3.67,-0.36 5.33,-1 -0.68,-1.74 -1.94,-2.95 -3.08,-2.79 z"
   id="path35828" />
		</g>
	</g><path
     style="fill:#6d4a41"
     d="m 113.74,45.09 c -3.55,-3.87 -8.33,-6.19 -13.21,-7.92 -4.6,-1.63 -10.19,-2.5 -12.87,-5.98 -2.91,-3.78 -6,-5.12 -6,-5.12 1.73,-0.47 6.09,0.22 6.09,0.22 0,0 -5.58,-7.7 -15.94,-5.64 1.21,-1.59 4.43,-3.18 4.43,-3.18 0,0 -13.37,-6.09 -22.58,9.03 -0.38,0.62 -20.17,39.16 -20.17,39.16 1.91,5.76 8.26,13.58 15.78,17.34 2.13,1.06 7.99,2.79 7.99,2.79 0,0 2.72,6.77 2.38,14.71 -0.23,5.29 -1.63,10.19 -1.88,15.84 -0.12,2.74 0.71,4.59 3.19,5.66 2.59,1.11 5.26,1.6 8.08,1.6 2.99,0 7.84,-0.63 10.06,-3.24 2.42,-2.86 0.45,-9.44 0.05,-13.14 -0.4,-3.75 -0.6,-16.8 2.7,-21.85 0,0 2.41,-0.02 4.4,-0.28 9.77,-1.26 13.95,-2.16 13.95,-2.16 1.6,3.56 -0.25,14.38 -0.55,16.48 -0.49,3.43 -1.22,6.73 0.19,8.6 2.04,2.7 6.65,3.29 9.65,3.29 2.69,0 6.58,-0.33 8.7,-2.28 2.19,-2.03 1.04,-6.77 0.59,-9.36 -1.4,-8.06 -3.34,-14.87 -2.09,-23.06 0.57,-3.75 1.75,-9.43 1.75,-14.47 0.02,-0.03 2.37,-9.33 -4.69,-17.04 z"
     id="path35841" /><g
     id="g35858">
		<path
   style="fill:#e0e0e0"
   d="m 61.7,118.28 c -1.07,-0.1 -2.3,1.03 -2.72,2.37 0.44,0.53 1.08,0.96 1.98,1.35 0.9,0.39 1.82,0.7 2.74,0.94 -0.02,-1.3 -0.34,-4.51 -2,-4.66 z"
   id="path35852" />
		<path
   style="fill:#e0e0e0"
   d="m 68.05,118.71 c -2.11,0.22 -2.77,3.46 -2.94,4.54 1.29,0.24 2.6,0.35 3.94,0.35 0.71,0 1.54,-0.03 2.41,-0.11 -0.4,-2.66 -1.73,-4.96 -3.41,-4.78 z"
   id="path35854" />
		<path
   style="fill:#e0e0e0"
   d="m 75.02,118.7 c -1.22,0.4 -1.83,3.12 -1.94,4.58 1.98,-0.33 3.98,-0.97 5.33,-2.18 -0.9,-1.36 -2.13,-2.82 -3.39,-2.4 z"
   id="path35856" />
	</g><g
     id="g35866">
		<path
   style="fill:#e0e0e0"
   d="m 102.68,105.94 c -1.01,-0.09 -2.25,1.11 -2.65,2.37 0.42,0.5 1.09,1.07 1.94,1.43 0.9,0.39 1.61,0.75 2.66,0.99 -0.03,-1.22 -0.39,-4.65 -1.95,-4.79 z"
   id="path35860" />
		<path
   style="fill:#e0e0e0"
   d="m 108.65,106.34 c -1.99,0.2 -2.67,3.58 -2.83,4.6 1.21,0.22 2.41,0.34 3.68,0.34 0.67,0 1.61,-0.03 2.43,-0.1 -0.37,-2.5 -1.7,-5 -3.28,-4.84 z"
   id="path35862" />
		<path
   style="fill:#e0e0e0"
   d="m 115.21,106.33 c -1.15,0.38 -1.73,3.33 -1.83,4.71 1.86,-0.31 3.97,-1.08 5.06,-2.31 -0.84,-1.28 -2.04,-2.79 -3.23,-2.4 z"
   id="path35864" />
	</g><g
     id="g35880">
			
		</g></g>
<g
   id="g46817"><path
     style="fill:#ffa000;fill-opacity:1"
     d="m 19.68,87.56 c 0,0 8.93,1.4 14.6,-9.58 2.71,-5.25 1.84,-10.2 1.84,-10.2 l -5.78,-6.01 z"
     id="path35815" /><path
     style="fill:#ffa000"
     d="M 20.6,87.46 C 18.34,87.7 6.22,87.41 3.73,76.85 2.42,71.3 4.6,62.95 5.42,61.39 c 0.96,-1.84 2.5,-0.72 2.33,1.18 -0.14,1.54 -0.65,9.95 1.77,12.66 5.09,5.71 10.47,2.25 10.47,2.25 z"
     id="path35834" /><path
     style="fill:#855c52"
     d="m 24.72,87.63 c 2.21,-5.95 4.5,-10.46 8.15,-15.6 3.87,-5.46 8.04,-9.25 9.27,-9.63 1.25,-0.38 3.4,-1.7 4.74,-2.21 3.56,-1.35 6.2,-3.61 6.11,-5.71 -0.16,-3.86 7.85,-16.72 1.16,-26.69 -2.18,-3.25 -5.75,-5.59 -9.3,-7.24 -3.72,-1.73 -7.28,-3.7 -11.42,-4.32 -3.96,-0.6 -1.79,3.11 -5,5.52 -7.6,5.7 -7.69,12.94 -8.9,15.34 -1.21,2.4 -2.96,3.5 -2.85,6.46 0.11,2.66 0.89,3.24 1.04,5.85 0.15,2.61 -1.33,11.71 -2.47,15.06 -2.12,6.22 -3.37,12.78 -3.62,19.39 -0.34,8.95 2.78,18.77 10.48,23.35 1.93,1.15 4.32,1.92 6.4,1.08 2.08,-0.84 3.21,-3.9 1.58,-5.44 -0.94,-0.89 -2.37,-0.97 -3.53,-1.53 -1.91,-0.92 -2.98,-3.08 -3.16,-5.19 -0.25,-2.64 0.4,-6.01 1.32,-8.49 z"
     id="path35868" /><path
     style="fill:#fcc21b"
     d="M 37.22,90.57 C 14.87,91.29 10.99,62.08 10.77,61.14 c -0.35,-1.45 1.32,-2.15 2.2,-0.51 0.77,1.45 12.44,25.77 24.03,20.12 4.79,-2.34 5.14,-18.41 2.82,-21.91 -1.23,-1.85 8.53,-2.45 8.53,-2.45 2.42,5.26 4.4,23.43 -4.25,31.1 -2,1.79 -4.27,2.92 -6.88,3.08 z"
     id="path35872" /><path
     style="fill:#855c52;fill-opacity:1"
     d="m 39.59,56.98 c -1.18,1.55 -0.61,4.89 0,6.33 1.13,2.67 3.98,5.06 3.98,5.06 l 0.84,-2.98 2.43,2.98 1.74,-3.26 c 0,0 0.71,2.18 2.14,3.43 0,0 1.73,-4.54 3.12,-6.99 1.75,-3.09 3.62,-2.83 3.91,-7.04"
     id="path35874" /><path
     style="fill:#855c52;fill-opacity:1"
     d="m 56.66,30.16 c 2.86,-1.55 7.62,-1.52 10.36,-0.27 10.15,4.64 6.62,18.18 6.62,18.18 -1.25,-1.59 -3.58,-4.33 -3.58,-4.33 0.28,5.86 -4,10.65 -4,10.65 C 65.88,53.62 64.95,51.5 64.66,50.95 62.06,54.86 59.4,61.6 59.4,61.6 56.84,60.58 53.67,57.66 52.8,55.83 52.31,54.8 48,47.57 51.78,36.06 c 0.97,-2.97 1.96,-4.32 4.88,-5.9 z"
     id="path35882" /><path
     style="fill:#2f2f2f;fill-opacity:1"
     d="m 58.56,28.68 c -3.37,1.01 -5.46,2.97 -6.43,4.09 -0.41,0.47 -0.82,1.52 0.41,0.46 1.21,-1.05 9.89,-6.5 16.68,-0.03 4.52,4.3 3.36,12.14 3.36,12.14 -1.98,-2.95 -3.8,-3.51 -3.8,-3.51 0,0 1.47,7.23 -2.28,10.48 0,0 -1.06,-2.92 -2.14,-3.22 0,0 -0.65,2.96 -2.31,4.9 -1.52,1.78 -2.45,4.08 -3.03,6.17 C 52.29,57.79 51.63,50.1 51.62,50.03 L 51.45,48.1 c -0.4,0.29 -1.44,4.2 0.89,8.28 2.76,4.84 7.45,6.25 8.41,5.89 0,0 -0.6,-3.16 2.38,-6.72 0.93,-1.11 1.67,-2.47 1.67,-2.47 0.44,0.68 0.74,2.73 0.74,2.73 0,0 5.27,-2.65 5.31,-9.37 1.12,0.67 2.65,3.28 2.65,3.28 0,0 4.4,-7.04 -1.07,-16.33 -3.54,-6.02 -10.79,-5.64 -13.87,-4.71 z"
     id="path35884" /><ellipse
     style="fill:#2f2f2f;fill-opacity:1;stroke-width:35.9055;stroke-linecap:round"
     id="path38604"
     cx="37.754036"
     cy="43.629662"
     rx="3.8337429"
     ry="4.4854789" /><path
     style="fill:#855c52;stroke-width:1;fill-opacity:1"
     d="m 37.85,9.880493 c -7.48,2.400007 -11.39,1.030003 -11.39,1.030003 0,0 0.26,4.940015 3.72,5.010015 -4.07,0.600002 -6.32,2.470008 -8.81,6.66002 0,0 7.56,-0.05 8.37,0.420001 0,0 0.95,6.280019 21.13,11.140034 2.93,0.710002 11.81,-1.230004 11.77,-3.980012 -0.03,-2.170007 -0.49,-3.750011 -1.67,-5.910018 0,0 2.4,0.630002 3.73,-1.090003 C 63.2,22.15053 61.59,19.580522 60.64,18.050518 58.04,13.900505 54.68,10.710495 50.73,9.4204916 46.25,7.9604872 42.3,8.4504887 37.85,9.880493 Z"
     id="path43071" /><path
     style="fill:#2f2f2f;stroke-width:1;fill-opacity:1"
     d="m 31.93,18.96052 c -0.72,0.750003 -1.36,1.540005 -1.84,2.410008 -0.5,0.850002 -0.85,1.770005 -1.1,2.700008 -0.26,0.930002 -0.38,1.880005 -0.41,2.840008 -0.05,0.930003 0.01,1.950006 0.17,2.760008 l -1.98,-0.770002 3.43,-2.990009 1.69,-1.510004 c 0.55,-0.500002 1.13,-1.000003 1.61,-1.480005 l 2.17,-2.150006 0.3,3.060009 0.37,3.700011 c 0.12,1.230004 0.21,2.470007 0.31,3.710011 l -1.98,-1.260004 c 0.77,-0.27 1.51,-0.570001 2.25,-0.900002 0.73,-0.330001 1.44,-0.720002 2.11,-1.150004 0.66,-0.450001 1.32,-0.900002 1.91,-1.430004 0.58,-0.510002 1.16,-1.150003 1.54,-1.680005 l 1.11,-1.500005 0.57,1.510005 c 0.21,0.550002 0.52,1.160003 0.86,1.710005 0.33,0.570002 0.7,1.110003 1.13,1.610005 0.85,1.000003 1.91,1.850005 3.25,2.290007 -1.41,0.01 -2.84,-0.610002 -4,-1.500005 -0.58,-0.450001 -1.12,-0.960003 -1.61,-1.510004 -0.48,-0.570002 -0.91,-1.130004 -1.31,-1.830006 h 1.67 c -0.43,1.010003 -0.96,1.730005 -1.58,2.470008 -0.61,0.720002 -1.29,1.390004 -2.03,1.960006 -0.74,0.570001 -1.53,1.090003 -2.34,1.550004 -0.81,0.470002 -1.67,0.820003 -2.53,1.170004 l -1.8,0.730002 -0.18,-1.990006 c -0.11,-1.240004 -0.24,-2.470007 -0.34,-3.710011 l -0.29,-3.710011 2.49,0.930002 c -0.61,0.580002 -1.19,1.080004 -1.79,1.570005 l -1.8,1.440004 c -1.21,0.940003 -2.4,1.890006 -3.65,2.800009 l -1.82,1.330004 -0.15,-2.090006 c -0.09,-1.230004 0.01,-2.270007 0.19,-3.380011 0.21,-1.090003 0.54,-2.150006 1.01,-3.140009 0.48,-0.990003 1.1,-1.910006 1.84,-2.690008 0.75,-0.780002 1.62,-1.420004 2.55,-1.880006 z"
     id="path43073" /></g></svg>
