<?xml version="1.0" encoding="UTF-8" standalone="no"?>
<!-- Generator: Adobe Illustrator 26.3.1, SVG Export Plug-In . SVG Version: 6.00 Build 0)  -->

<svg
   version="1.1"
   id="Layer_3"
   x="0px"
   y="0px"
   viewBox="0 0 128 128"
   style="enable-background:new 0 0 128 128;"
   xml:space="preserve"
   sodipodi:docname="maracas.svg"
   inkscape:version="1.2.2 (732a01da63, 2022-12-09)"
   xmlns:inkscape="http://www.inkscape.org/namespaces/inkscape"
   xmlns:sodipodi="http://sodipodi.sourceforge.net/DTD/sodipodi-0.dtd"
   xmlns="http://www.w3.org/2000/svg"
   xmlns:svg="http://www.w3.org/2000/svg"><defs
   id="defs30931">
	
	
	
	
	
	
	
		
	
	
	
	
	
	
	
	
		
	
		
	
	
	
	
	
		
	
	
	
	
	
	
	
	
		
	
		
	
	
	
	
	
	
	
</defs><sodipodi:namedview
   id="namedview30929"
   pagecolor="#ffffff"
   bordercolor="#000000"
   borderopacity="0.25"
   inkscape:showpageshadow="2"
   inkscape:pageopacity="0.0"
   inkscape:pagecheckerboard="0"
   inkscape:deskcolor="#d1d1d1"
   showgrid="false"
   inkscape:zoom="1.4998398"
   inkscape:cx="80.008546"
   inkscape:cy="99.343945"
   inkscape:window-width="1366"
   inkscape:window-height="697"
   inkscape:window-x="-8"
   inkscape:window-y="-8"
   inkscape:window-maximized="1"
   inkscape:current-layer="Layer_3" />
<path
   style="fill:#e6a467"
   d="M 68.19,93.59 C 66.36,89.52 62.44,84.31 59.22,79.72 54.88,73.52 53.09,71.16 50.97,66.44 50.21,64.75 49.73,63.19 49.43,61.72 l -10.29,4.4 c 0.91,1.18 1.78,2.62 2.6,4.46 2.12,4.72 3.12,7.44 4.86,14.8 1.29,5.46 2.57,11.84 4.4,15.92 2.83,6.3 7.82,8.55 13.09,6.18 5.29,-2.37 6.93,-7.59 4.1,-13.89 z"
   id="path30854" /><path
   id="path31727"
   style="fill:#ce894b;fill-opacity:1;stroke-width:0.999998"
   d="M 60.585938 81.646484 C 60.097554 82.17246 59.605327 82.703422 59.054688 83.283203 C 55.694791 86.820507 51.932666 90.590515 48.705078 94.261719 C 49.386604 96.894912 50.130046 99.361213 51 101.30078 C 53.829997 107.60077 58.819849 109.85047 64.089844 107.48047 C 64.751093 107.18422 65.354805 106.84279 65.900391 106.46094 C 66.173183 106.27001 66.432505 106.06845 66.675781 105.85742 C 66.919057 105.64639 67.146016 105.42559 67.359375 105.19531 C 67.572734 104.96504 67.772036 104.72521 67.955078 104.47656 C 68.128004 104.24166 68.286121 103.99861 68.431641 103.74805 C 68.450382 103.71577 68.468045 103.68293 68.486328 103.65039 C 68.626618 103.40085 68.755984 103.14489 68.869141 102.88086 C 68.990107 102.59861 69.095974 102.30774 69.185547 102.00977 C 69.185727 102.00917 69.185367 102.00841 69.185547 102.00781 C 69.275234 101.70922 69.348482 101.40336 69.40625 101.08984 C 69.464018 100.77633 69.505801 100.45647 69.53125 100.12891 C 69.556699 99.801338 69.565864 99.465759 69.558594 99.125 C 69.551323 98.784241 69.526719 98.43707 69.486328 98.083984 C 69.405529 97.377784 69.258643 96.648746 69.042969 95.898438 C 68.827305 95.148145 68.543203 94.377343 68.189453 93.589844 C 68.005281 93.180236 67.795518 92.756628 67.572266 92.326172 C 67.546915 92.277331 67.523864 92.228777 67.498047 92.179688 C 67.389644 91.97341 67.264644 91.759174 67.148438 91.548828 C 66.959873 91.207807 66.769597 90.866183 66.5625 90.515625 C 66.462354 90.345944 66.355973 90.17356 66.251953 90.001953 C 66.017307 89.61521 65.777322 89.225163 65.525391 88.830078 C 65.427435 88.676339 65.328732 88.521961 65.228516 88.367188 C 64.951245 87.939299 64.666667 87.508224 64.375 87.074219 C 64.285226 86.940557 64.196354 86.807911 64.105469 86.673828 C 63.740207 86.135243 63.368303 85.594861 62.990234 85.052734 C 62.60343 84.498081 62.21205 83.943641 61.820312 83.390625 C 61.787553 83.344369 61.755421 83.29818 61.722656 83.251953 C 61.336794 82.707641 60.967641 82.183566 60.585938 81.646484 z " /><path
   style="fill:#e6a467"
   d="m 74.804256,69.656121 c -0.450531,1.835953 -1.28004,3.849883 -2.799195,6.196662 -2.8118,4.350492 -4.548634,6.659648 -9.773504,12.133883 -3.87173,4.056132 -8.53765,8.603449 -10.960949,12.354054 -3.750792,5.8071 -2.91985,11.20613 1.944291,14.34191 4.864142,3.13578 10.120922,1.67662 13.871714,-4.13048 2.423299,-3.7506 4.653613,-9.87193 6.752064,-15.076147 2.842042,-7.013402 3.84704,-9.798178 6.65884,-14.14867 1.270045,-1.958006 2.614912,-3.461147 3.966478,-4.641557 z"
   id="path30852" /><path
   style="fill:#784d30"
   d="m 49.17,55.72 c -0.16,2.48 0.02,6.29 1.37,9.68 -1.24,0.96 -2.73,1.86 -4.4,2.61 -1.67,0.75 -3.33,1.26 -4.87,1.55 -1.73,-3.47 -4.04,-5.69 -6.04,-7.17 1.46,-1.56 11.82,-6.61 13.94,-6.67 z"
   id="path30856" /><path
   style="fill:#3fc0e7;fill-opacity:1"
   d="m 49.47,24.47 c 2.63,6.43 2.82,13.58 1.73,20.37 -0.54,3.98 -1.66,7.27 -2.09,11.36 -3,3.18 -9.53,6.1 -13.89,6.19 -2.19,-1.5 -3.42,-2.23 -5.94,-3.82 v 0 C 24,55.23 18.88,51.44 14.84,46.63 13.24,44.71 11.84,42.62 10.8,40.34 3.6,24.28 6.7,10.87 18.18,5.71 29.91,0.17 43.03,8.49 49.47,24.47 Z"
   id="path30858" /><path
   style="fill:#784d30"
   d="m 88.509306,73.990955 c -2.169693,1.220014 -5.26109,3.445741 -7.382636,6.417919 -1.475786,-0.519669 -3.042109,-1.281005 -4.587541,-2.274857 -1.535772,-0.991264 -2.872997,-2.105323 -3.955106,-3.2442 1.972546,-3.343391 2.566357,-6.486811 2.724571,-8.970491 2.113669,0.380006 11.990495,6.329024 13.200712,8.071629 z"
   id="path30884" /><path
   style="fill:#ed6b30;fill-opacity:1"
   d="m 114.8844,57.236437 c -3.97226,5.706342 -9.86213,9.760058 -16.145337,12.538516 -3.63574,1.707174 -7.00249,2.565026 -10.669971,4.429336 -4.302024,-0.790377 -10.310577,-4.677972 -12.760498,-8.284963 0.06888,-2.652557 0.01777,-4.084579 -0.03148,-7.069018 v 0 c -0.07432,-6.252278 0.323641,-12.605767 2.161528,-18.614841 0.733981,-2.391521 1.735833,-4.700913 3.088514,-6.812773 C 90.080959,18.6314 103.0161,13.939383 113.58885,20.768509 c 11.03589,6.839343 11.20152,22.371457 1.29555,36.467928 z"
   id="path30886" />
</svg>
