<?xml version="1.0" encoding="UTF-8" standalone="no"?>
<!-- Generator: Adobe Illustrator 26.3.1, SVG Export Plug-In . SVG Version: 6.00 Build 0)  -->

<svg
   version="1.1"
   id="Layer_3"
   x="0px"
   y="0px"
   viewBox="0 0 128 128"
   style="enable-background:new 0 0 128 128;"
   xml:space="preserve"
   sodipodi:docname="maracas.svg"
   inkscape:version="1.2.2 (732a01da63, 2022-12-09)"
   xmlns:inkscape="http://www.inkscape.org/namespaces/inkscape"
   xmlns:sodipodi="http://sodipodi.sourceforge.net/DTD/sodipodi-0.dtd"
   xmlns="http://www.w3.org/2000/svg"
   xmlns:svg="http://www.w3.org/2000/svg"><defs
   id="defs30931">
	
	
	
	
	
	
	
		
	
	
	
	
	
	
	
	
		
	
		
	
	
	
	
	
		
	
	
	
	
	
	
	
	
		
	
		
	
	
	
	
	
	
	
</defs><sodipodi:namedview
   id="namedview30929"
   pagecolor="#ffffff"
   bordercolor="#000000"
   borderopacity="0.25"
   inkscape:showpageshadow="2"
   inkscape:pageopacity="0.0"
   inkscape:pagecheckerboard="0"
   inkscape:deskcolor="#d1d1d1"
   showgrid="false"
   inkscape:zoom="4.2421876"
   inkscape:cx="57.988949"
   inkscape:cy="53.981583"
   inkscape:window-width="1366"
   inkscape:window-height="697"
   inkscape:window-x="-8"
   inkscape:window-y="-8"
   inkscape:window-maximized="1"
   inkscape:current-layer="Layer_3" />
<path
   style="fill:#855c52;fill-opacity:1"
   d="M 68.19,93.59 C 66.36,89.52 62.44,84.31 59.22,79.72 54.88,73.52 53.09,71.16 50.97,66.44 50.21,64.75 49.73,63.19 49.43,61.72 l -10.29,4.4 c 0.91,1.18 1.78,2.62 2.6,4.46 2.12,4.72 3.12,7.44 4.86,14.8 1.29,5.46 2.57,11.84 4.4,15.92 2.83,6.3 7.82,8.55 13.09,6.18 5.29,-2.37 6.93,-7.59 4.1,-13.89 z"
   id="path30854" /><path
   id="path31727"
   style="fill:#2f2f2f;fill-opacity:1;stroke-width:0.999998"
   d="M 62.308594 84.083984 C 61.900228 84.523219 61.497475 84.956987 61.042969 85.435547 C 57.341928 89.332007 53.219974 93.473973 49.623047 97.525391 C 50.049917 98.907319 50.503288 100.19336 51 101.30078 C 53.829997 107.60077 58.819849 109.85047 64.089844 107.48047 C 69.379838 105.11047 71.01945 99.889837 68.189453 93.589844 C 66.922662 90.772444 64.652922 87.410123 62.308594 84.083984 z " /><path
   style="fill:#855c52;fill-opacity:1"
   d="m 74.804256,69.656121 c -0.450531,1.835953 -1.28004,3.849883 -2.799195,6.196662 -2.8118,4.350492 -4.548634,6.659648 -9.773504,12.133883 -3.87173,4.056132 -8.53765,8.603449 -10.960949,12.354054 -3.750792,5.8071 -2.91985,11.20613 1.944291,14.34191 4.864142,3.13578 10.120922,1.67662 13.871714,-4.13048 2.423299,-3.7506 4.653613,-9.87193 6.752064,-15.076147 2.842042,-7.013402 3.84704,-9.798178 6.65884,-14.14867 1.270045,-1.958006 2.614912,-3.461147 3.966478,-4.641557 z"
   id="path30852" /><path
   style="fill:#2f2f2f;fill-opacity:1"
   d="m 49.17,55.72 c -0.16,2.48 0.02,6.29 1.37,9.68 -1.24,0.96 -2.73,1.86 -4.4,2.61 -1.67,0.75 -3.33,1.26 -4.87,1.55 -1.73,-3.47 -4.04,-5.69 -6.04,-7.17 1.46,-1.56 11.82,-6.61 13.94,-6.67 z"
   id="path30856" /><path
   style="fill:#3fc0e7;fill-opacity:1"
   d="m 49.47,24.47 c 2.63,6.43 2.82,13.58 1.73,20.37 -0.54,3.98 -1.66,7.27 -2.09,11.36 -3,3.18 -9.53,6.1 -13.89,6.19 -2.19,-1.5 -3.42,-2.23 -5.94,-3.82 v 0 C 24,55.23 18.88,51.44 14.84,46.63 13.24,44.71 11.84,42.62 10.8,40.34 3.6,24.28 6.7,10.87 18.18,5.71 29.91,0.17 43.03,8.49 49.47,24.47 Z"
   id="path30858" /><path
   style="fill:#2f2f2f;fill-opacity:1"
   d="m 88.509306,73.990955 c -2.169693,1.220014 -5.26109,3.445741 -7.382636,6.417919 -1.475786,-0.519669 -3.042109,-1.281005 -4.587541,-2.274857 -1.535772,-0.991264 -2.872997,-2.105323 -3.955106,-3.2442 1.972546,-3.343391 2.566357,-6.486811 2.724571,-8.970491 2.113669,0.380006 11.990495,6.329024 13.200712,8.071629 z"
   id="path30884" /><path
   style="fill:#ed6b30;fill-opacity:1"
   d="m 114.8844,57.236437 c -3.97226,5.706342 -9.86213,9.760058 -16.145337,12.538516 -3.63574,1.707174 -7.00249,2.565026 -10.669971,4.429336 -4.302024,-0.790377 -10.310577,-4.677972 -12.760498,-8.284963 0.06888,-2.652557 0.01777,-4.084579 -0.03148,-7.069018 v 0 c -0.07432,-6.252278 0.323641,-12.605767 2.161528,-18.614841 0.733981,-2.391521 1.735833,-4.700913 3.088514,-6.812773 C 90.080959,18.6314 103.0161,13.939383 113.58885,20.768509 c 11.03589,6.839343 11.20152,22.371457 1.29555,36.467928 z"
   id="path30886" />
</svg>
