<?xml version="1.0" encoding="UTF-8" standalone="no"?>
<svg
   width="128px"
   height="128px"
   version="1.1"
   xml:space="preserve"
   style="fill-rule:evenodd;clip-rule:evenodd;stroke-linecap:round;stroke-miterlimit:10;"
   id="svg5"
   sodipodi:docname="melting face.svg"
   inkscape:version="1.3 (0e150ed6c4, 2023-07-21)"
   xmlns:inkscape="http://www.inkscape.org/namespaces/inkscape"
   xmlns:sodipodi="http://sodipodi.sourceforge.net/DTD/sodipodi-0.dtd"
   xmlns="http://www.w3.org/2000/svg"
   xmlns:svg="http://www.w3.org/2000/svg"><defs
     id="defs5" /><sodipodi:namedview
     id="namedview5"
     pagecolor="#ffffff"
     bordercolor="#000000"
     borderopacity="0.25"
     inkscape:showpageshadow="2"
     inkscape:pageopacity="0.0"
     inkscape:pagecheckerboard="0"
     inkscape:deskcolor="#d1d1d1"
     inkscape:zoom="3.2232183"
     inkscape:cx="131.85579"
     inkscape:cy="11.168961"
     inkscape:current-layer="svg5" /><g
     transform="matrix(1.04244,0,0,1.04244,-4.3417148,7.5507333)"
     id="g1"><path
       d="m 122.65771,77.464067 c 4.29609,6.979025 -0.4209,12.186795 -0.83411,15.83478 0.36302,3.051948 3.9284,4.198153 4.5624,7.141153 0.509,2.36 0.64707,4.83418 -0.86893,7.04018 -0.816,1.187 -1.59407,1.42382 -4.31807,1.91282 -5.334,0.958 -12.88,-0.808 -15.196,-1.537 -2.795,-0.881 -8.508,-4.319 -14.446,-0.657 -1.699,1.048 -1.289,1.98 -0.727,3.714 1.492,4.602 -5.592,5.289 -8.507,4.151 -6.133,-2.394 -11.988,-4.572 -18.532,-4.195 -3.103,0.179 -8.771,1.413 -11.804,2.006 -4.024,0.786 -8.81,1.299 -12.907,0.931 -2.156,-0.194 -3.688,-1.633 -5.444,-2.711 -1.487,-0.911 -3.114,-1.442 -4.843,-1.647 -1.691,-0.2 -3.507,0.667 -5.137,1.009 -4.681,0.981 -11.543,2.428 -15.82,-0.473 -0.639,-0.433 -1.197,-1.024 -1.64,-1.652 -0.347,-0.491 -0.707,-1.035 -0.913,-1.604 -0.979,-2.715 4.606,-3.583 4.833,-6.795 C 9.16391,95.824484 9.1128665,97.537138 7.3566704,95.068425 5.4892725,92.242818 5.8634478,90.199822 5.550779,85.430622 5.2083611,78.962744 4.6177076,80.065548 6.819311,70.528388"
       style="fill:#fcc21b"
       id="path1"
       sodipodi:nodetypes="cccccccccccccccccccccc" /></g><g
     id="g4534"
     transform="matrix(1,0,0,1,0,-1.8)"><path
       fill="#fcc21b"
       d="M 113.80437,78.337503 C 116.06048,55.148491 112.01847,35.579669 89.182807,24.303632 37.648587,7.3284962 -2.1391278,58.202657 2.4308721,98.592657 c 0,13.470013 26.2304499,22.357423 60.5704499,22.357423 34.35,0 60.520268,-30.847705 60.520268,-30.847705 0,0 -9.42753,-3.990775 -9.71722,-11.764872 z"
       id="path1-4"
       style="stroke-width:0.999999"
       sodipodi:nodetypes="cccscc" /><g
       transform="matrix(0.858607,0.0574837,-0.0574837,0.858607,9.60276,4.29839)"
       id="g3"><path
         d="M86.32,66.47C90.8,66.46 94.43,62.11 94.42,56.76C94.41,51.39 90.76,47.06 86.28,47.07C81.79,47.08 78.15,51.43 78.16,56.8C78.18,62.15 81.83,66.48 86.32,66.47Z"
         style="fill:#2f2f2f;"
         id="path3" /></g><g
       transform="matrix(0.858607,0.0574837,-0.0574837,0.858607,9.60276,0.207378)"
       id="g4"><path
         d="M42.21,66.47C37.72,66.51 34.04,62.2 33.99,56.85C33.94,51.48 37.54,47.1 42.03,47.06C46.51,47.02 50.2,51.33 50.25,56.7C50.3,62.06 46.7,66.43 42.21,66.47Z"
         style="fill:#2f2f2f;"
         id="path4" /></g><g
       transform="matrix(0.84863,0.142605,-0.142605,0.84863,21.0935,-0.899181)"
       id="g5"><path
         d="M36.19,81.17C48.229,91.802 57.449,90.946 78.214,85.52"
         style="fill:none;fill-rule:nonzero;stroke:#2f2f2f;stroke-width:6px;"
         id="path5" /></g></g></svg>
