<?xml version="1.0" encoding="UTF-8" standalone="no"?>
<svg
   width="100%"
   height="100%"
   viewBox="0 0 128 128"
   version="1.1"
   xml:space="preserve"
   style="fill-rule:evenodd;clip-rule:evenodd;stroke-linejoin:round;stroke-miterlimit:2;"
   id="svg54867"
   sodipodi:docname="mending heart.svg"
   inkscape:version="1.2.2 (732a01da63, 2022-12-09)"
   xmlns:inkscape="http://www.inkscape.org/namespaces/inkscape"
   xmlns:sodipodi="http://sodipodi.sourceforge.net/DTD/sodipodi-0.dtd"
   xmlns="http://www.w3.org/2000/svg"
   xmlns:svg="http://www.w3.org/2000/svg"><defs
   id="defs54871" /><sodipodi:namedview
   id="namedview54869"
   pagecolor="#ffffff"
   bordercolor="#000000"
   borderopacity="0.25"
   inkscape:showpageshadow="2"
   inkscape:pageopacity="0.0"
   inkscape:pagecheckerboard="0"
   inkscape:deskcolor="#d1d1d1"
   showgrid="false"
   showguides="false"
   inkscape:zoom="2.8284271"
   inkscape:cx="54.623999"
   inkscape:cy="70.357124"
   inkscape:window-width="1366"
   inkscape:window-height="697"
   inkscape:window-x="-8"
   inkscape:window-y="-8"
   inkscape:window-maximized="1"
   inkscape:current-layer="svg54867" />
    <path
   d="M96.67,15.85L96.47,15.85C95.98,15.85 95.48,15.85 94.99,15.87C89.81,15.96 84.78,17.11 80.03,19.1C74.94,21.25 71.45,24.45 66.92,27.33C66.07,27.87 65.03,28.14 64,28.14C62.96,28.14 61.92,27.87 61.07,27.33C56.55,24.45 53.05,21.25 47.96,19.1C43.21,17.11 38.18,15.96 33,15.87C32.51,15.85 32.02,15.85 31.53,15.85L31.33,15.85C18.21,15.85 8.64,23.39 3.03,36.5C0.63,42.08 0.59,50.48 1.57,56.34C2.55,62.18 4.98,67.45 8.29,72.37C19.32,88.8 39,96.42 53.19,109.66C54.7,111.07 56.2,112.6 57.74,114.01C59.38,115.52 61.36,119 64,119.16C66.63,119 68.62,115.53 70.26,114.01C71.8,112.59 73.29,111.07 74.81,109.66C89,96.42 108.67,88.8 119.7,72.38C123.01,67.46 125.44,62.19 126.42,56.35C127.4,50.49 127.36,42.08 124.96,36.51C119.35,23.39 109.79,15.85 96.67,15.85Z"
   style="fill:rgb(219,68,55);fill-rule:nonzero;"
   id="path54847" />
    
    
<path
   id="path54996"
   style="fill:#ffffff;stroke:#6593a2;stroke-width:2.99999;stroke-linecap:round;stroke-linejoin:round;stroke-miterlimit:10"
   class="st2"
   d="M 127.01562 48.742188 L 11.103516 76.121094 C 18.961822 85.763939 29.851974 92.319714 40.162109 99.474609 C 65.281015 90.680778 91.588734 82.093019 118.35938 74.222656 C 118.81071 73.61345 119.27289 73.015528 119.69922 72.380859 C 123.00922 67.460864 125.43992 62.189604 126.41992 56.349609 C 126.79782 54.089941 127.0179 51.451146 127.01562 48.742188 z " /><path
   id="path55172"
   style="fill:#ffffff;stroke:#6593a2;stroke-width:2.99999;stroke-linecap:round;stroke-linejoin:round;stroke-miterlimit:10"
   class="st2"
   d="M 120.35938 28.238281 C 109.94297 29.832933 96.485871 31.425147 66.771484 39.621094 C 36.064322 48.09087 16.837658 57.458267 3.3671875 62.966797 C 4.600589 66.262375 6.27878 69.381047 8.2890625 72.369141 C 10.550292 75.737409 13.188205 78.722545 16.054688 81.474609 C 53.425152 68.965037 90.615369 58.629396 126.87891 52.339844 C 127.26605 47.055536 126.85511 40.90582 124.96094 36.509766 C 123.64551 33.433394 122.10413 30.6758 120.35938 28.238281 z " /></svg>
