<?xml version="1.0" encoding="UTF-8" standalone="no"?>
<svg
   width="100%"
   height="100%"
   viewBox="0 0 128 128"
   version="1.1"
   xml:space="preserve"
   style="fill-rule:evenodd;clip-rule:evenodd;stroke-linejoin:round;stroke-miterlimit:2;"
   id="svg54867"
   sodipodi:docname="mending heart.svg"
   inkscape:version="1.2.2 (732a01da63, 2022-12-09)"
   xmlns:inkscape="http://www.inkscape.org/namespaces/inkscape"
   xmlns:sodipodi="http://sodipodi.sourceforge.net/DTD/sodipodi-0.dtd"
   xmlns="http://www.w3.org/2000/svg"
   xmlns:svg="http://www.w3.org/2000/svg"><defs
   id="defs54871" /><sodipodi:namedview
   id="namedview54869"
   pagecolor="#ffffff"
   bordercolor="#000000"
   borderopacity="0.25"
   inkscape:showpageshadow="2"
   inkscape:pageopacity="0.0"
   inkscape:pagecheckerboard="0"
   inkscape:deskcolor="#d1d1d1"
   showgrid="false"
   showguides="false"
   inkscape:zoom="2.8284271"
   inkscape:cx="84.676037"
   inkscape:cy="77.074639"
   inkscape:window-width="1366"
   inkscape:window-height="697"
   inkscape:window-x="-8"
   inkscape:window-y="-8"
   inkscape:window-maximized="1"
   inkscape:current-layer="svg54867" />
    <path
   d="M96.67,15.85L96.47,15.85C95.98,15.85 95.48,15.85 94.99,15.87C89.81,15.96 84.78,17.11 80.03,19.1C74.94,21.25 71.45,24.45 66.92,27.33C66.07,27.87 65.03,28.14 64,28.14C62.96,28.14 61.92,27.87 61.07,27.33C56.55,24.45 53.05,21.25 47.96,19.1C43.21,17.11 38.18,15.96 33,15.87C32.51,15.85 32.02,15.85 31.53,15.85L31.33,15.85C18.21,15.85 8.64,23.39 3.03,36.5C0.63,42.08 0.59,50.48 1.57,56.34C2.55,62.18 4.98,67.45 8.29,72.37C19.32,88.8 39,96.42 53.19,109.66C54.7,111.07 56.2,112.6 57.74,114.01C59.38,115.52 61.36,119 64,119.16C66.63,119 68.62,115.53 70.26,114.01C71.8,112.59 73.29,111.07 74.81,109.66C89,96.42 108.67,88.8 119.7,72.38C123.01,67.46 125.44,62.19 126.42,56.35C127.4,50.49 127.36,42.08 124.96,36.51C119.35,23.39 109.79,15.85 96.67,15.85Z"
   style="fill:rgb(219,68,55);fill-rule:nonzero;"
   id="path54847" />
    
    
<path
   id="path54996"
   style="fill:#ffffff;stroke:#6593a2;stroke-width:2.99999;stroke-linecap:round;stroke-linejoin:round;stroke-miterlimit:10"
   class="st2"
   d="M 125.26188,41.739649 14.529607,78.615418 C 22.188075,86.829037 32.081882,92.767889 41.408886,99.291073 67.413958,88.011554 94.568283,76.77441 122.2116,66.057071 c 1.44826,-3.042077 2.52561,-6.231473 3.09438,-9.620016 0.71035,-4.246508 0.86707,-9.851636 -0.0441,-14.697406 z" /><path
   id="path55172"
   style="fill:#ffffff;stroke:#6593a2;stroke-width:2.99999;stroke-linecap:round;stroke-linejoin:round;stroke-miterlimit:10"
   class="st2"
   d="m 113.72986,22.790959 c -9.97191,2.79232 -23.22897,6.911018 -43.131458,14.237394 -30.318918,11.160801 -50.207315,21.581893 -64.8112708,28.892631 1.0136986,2.147776 2.2058005,4.224247 3.5602582,6.237005 2.7793476,4.138985 6.1237646,7.703464 9.7873556,10.942552 35.862272,-14.934166 71.550787,-28.201794 106.527835,-38.52223 -0.28349,-2.757344 -0.84081,-5.411838 -1.78875,-7.611293 -2.55534,-5.974573 -5.95712,-10.751879 -10.14397,-14.176059 z" /></svg>
