<?xml version="1.0" encoding="UTF-8" standalone="no"?>
<svg
   width="100%"
   height="100%"
   viewBox="0 0 128 128"
   version="1.1"
   xml:space="preserve"
   style="fill-rule:evenodd;clip-rule:evenodd;stroke-miterlimit:10;"
   id="svg13"
   sodipodi:docname="military helmet.svg"
   inkscape:version="1.3 (0e150ed6c4, 2023-07-21)"
   xmlns:inkscape="http://www.inkscape.org/namespaces/inkscape"
   xmlns:sodipodi="http://sodipodi.sourceforge.net/DTD/sodipodi-0.dtd"
   xmlns="http://www.w3.org/2000/svg"
   xmlns:svg="http://www.w3.org/2000/svg"><defs
   id="defs13" /><sodipodi:namedview
   id="namedview13"
   pagecolor="#ffffff"
   bordercolor="#000000"
   borderopacity="0.25"
   inkscape:showpageshadow="2"
   inkscape:pageopacity="0.0"
   inkscape:pagecheckerboard="0"
   inkscape:deskcolor="#d1d1d1"
   inkscape:zoom="2.867097"
   inkscape:cx="53.887259"
   inkscape:cy="56.328753"
   inkscape:window-width="1366"
   inkscape:window-height="697"
   inkscape:window-x="-8"
   inkscape:window-y="-8"
   inkscape:window-maximized="1"
   inkscape:current-layer="svg13" />&#10;    <g
   id="g13">&#10;        &#10;        <g
   id="g2">&#10;            <path
   d="M82.54,113.99C89.86,102.78 83.08,79.16 80.29,73.03L69.18,77.4C70.38,80.04 78.61,99.69 70.27,117.38L82.54,113.99Z"
   style="fill:rgb(93,64,55);fill-rule:nonzero;"
   id="path2" />&#10;        </g>&#10;        <path
   d="M63.55,120.4C56.12,119.15 49.97,116.67 44.94,113.63L51.83,103.75C59.38,109.29 69.06,113.97 82.13,115.26C82.12,115.26 72.96,121.58 63.55,120.4Z"
   style="fill:rgb(133,92,82);fill-rule:nonzero;"
   id="path3" />&#10;        <g
   id="g4">&#10;            <path
   d="M57.6,107.39C66.33,112.45 77.76,117.46 81.62,114.5C89.58,108.38 83.96,80.7 80.29,73.04"
   style="fill:none;fill-rule:nonzero;stroke:rgb(188,170,164);stroke-width:2px;"
   id="path4" />&#10;        </g>&#10;        <path
   d="M59.11,105.47L47.23,97.13C46.62,96.7 45.77,96.85 45.34,97.46L36.95,109.38C36.52,110 36.67,110.85 37.28,111.28L49.16,119.62C49.77,120.05 50.62,119.9 51.05,119.29L59.44,107.37C59.87,106.75 59.72,105.9 59.11,105.47ZM46.84,100.46L50.27,102.87L43.7,112.19L40.27,109.78L46.84,100.46ZM46.11,113.88L52.68,104.56L56.11,106.97L49.54,116.29L46.11,113.88Z"
   style="fill:rgb(101,147,162);fill-rule:nonzero;"
   id="path5" />&#10;        <path
   d="M47.66,101.04C42.23,97.53 38.28,90.13 37.69,88.31L26.49,92.17C27.75,96.03 31.46,101.93 37.7,107.79C39.09,109.1 41.29,109.47 41.56,109.1C43.75,106.06 45.98,103.34 47.66,101.04Z"
   style="fill:rgb(133,92,82);fill-rule:nonzero;"
   id="path6" />&#10;        <path
   d="M49.54,116.29C49.54,116.29 42.54,111.38 42.49,111.34C42.44,111.3 48.9,101.91 48.9,101.91L55.51,107.81L49.54,116.29Z"
   style="fill:rgb(133,92,82);fill-rule:nonzero;"
   id="path7" />&#10;        <g
   id="g8">&#10;            <path
   d="M57.91,109.53L62.78,114.65L55.29,122.39L51.52,118.62L57.91,109.53Z"
   style="fill:rgb(133,92,82);fill-rule:nonzero;"
   id="path8" />&#10;        </g>&#10;        <g
   id="g9">&#10;            <path
   d="M43.79,100.34C39.83,96.17 36.86,91.06 36.27,89.27L38.14,88.66C38.65,90.21 42.36,96.94 46.86,100.5C46.86,100.5 44.8,101.42 43.79,100.34Z"
   style="fill:rgb(188,170,164);fill-rule:nonzero;"
   id="path9" />&#10;        </g>&#10;        <g
   id="g10">&#10;            <path
   d="M54.91,108.65C54.91,108.65 49.97,104.89 49.08,104.13C48.19,103.37 48.9,101.92 48.9,101.92L56.11,106.98L54.91,108.65Z"
   style="fill:rgb(188,170,164);fill-rule:nonzero;"
   id="path10" />&#10;        </g>&#10;        <g
   id="g11">&#10;            <path
   d="M57.76,122.05L55.29,122.39L61.45,114.69L57.34,110.35L58.49,108.71L64.1,114.61L57.76,122.05Z"
   style="fill:rgb(188,170,164);fill-rule:nonzero;"
   id="path11" />&#10;        </g>&#10;        &#10;        <path
   d="M 117.75,57.88 C 103.19,53.93 105.55,51.27 101.62,43.44 89.52,19.33 72.4,5.49 47.55,7.77 19.15,10.39 2,34.17 4.56,62.03 5.22,69.16 6.52,75.04 9.14,81.59 v 0.01 c 2.65,7.55 -0.94,12 -2.56,13.58 -1.62,1.58 -3.45,3.99 0.15,5.26 3.98,1.4 19.159079,1.44672 59.473728,-12.181919 C 107.99815,74.129191 116.53804,70.584256 121.94994,66.886339 125.17451,64.683013 125.25,59.91 117.75,57.88 Z"
   style="fill:#5b8c31;fill-rule:nonzero"
   id="path13"
   sodipodi:nodetypes="ccccccscssc" />&#10;    </g>&#10;</svg>
