<?xml version="1.0" encoding="UTF-8" standalone="no"?>
<svg
   width="128"
   height="128"
   version="1.1"
   id="svg9"
   sodipodi:docname="military helmet.svg"
   inkscape:version="1.3 (0e150ed6c4, 2023-07-21)"
   xmlns:inkscape="http://www.inkscape.org/namespaces/inkscape"
   xmlns:sodipodi="http://sodipodi.sourceforge.net/DTD/sodipodi-0.dtd"
   xmlns:xlink="http://www.w3.org/1999/xlink"
   xmlns="http://www.w3.org/2000/svg"
   xmlns:svg="http://www.w3.org/2000/svg">
  <sodipodi:namedview
     id="namedview9"
     pagecolor="#ffffff"
     bordercolor="#000000"
     borderopacity="0.25"
     inkscape:showpageshadow="2"
     inkscape:pageopacity="0.0"
     inkscape:pagecheckerboard="0"
     inkscape:deskcolor="#d1d1d1"
     inkscape:zoom="2.867097"
     inkscape:cx="53.538474"
     inkscape:cy="58.770247"
     inkscape:window-width="1366"
     inkscape:window-height="697"
     inkscape:window-x="-8"
     inkscape:window-y="-8"
     inkscape:window-maximized="1"
     inkscape:current-layer="svg9" />
  <defs
     id="defs1">
    <path
       id="a"
       d="M0 0h128v128H0z" />
  </defs>
  <clipPath
     id="b">
    <use
       xlink:href="#a"
       overflow="visible"
       id="use1" />
  </clipPath>
  <path
     d="M64.71 11.75h.19-.36.17z"
     clip-path="url(#b)"
     fill="#37b4e2"
     id="path1" />
  <g
     clip-path="url(#b)"
     id="g9">
    <path
       d="M64.71 123.92c-31.32 0-56.79-25.3-56.79-56.4 0-31.1 25.48-56.4 56.79-56.4s56.79 25.3 56.79 56.4c0 31.1-25.47 56.4-56.79 56.4zm0-107.06c-28.42 0-51.55 22.73-51.55 50.67s23.12 50.66 51.55 50.66c28.42 0 51.55-22.73 51.55-50.66 0-27.94-23.12-50.67-51.55-50.67z"
       fill="#875e54"
       id="path2" />
    <path
       fill="#875e54"
       d="M54.03 112.3h20.32v10.03H54.03z"
       id="path3" />
    <path
       d="M125.41 60.07c-.03-.37-2.27.22-3.41-3.87-3.98-14.23-15.58-48.67-57.99-48.67l-.01.95-.01-.95c-42.53 0-52.97 33.14-56.94 47.64-1.23 4.47-4.42 4.51-4.46 4.91-.34 3.7 3.44 8.92 11.81 14.07 12.4 7.62 33.65 11.72 49.59 11.73h.02c15.94 0 37.19-4.11 49.59-11.73 8.37-5.15 12.15-10.37 11.81-14.08"
       fill="#be1931"
       id="path4"
       style="fill:#5b8c31" />
    <path
       d="M7.64 53.05s-4.58 2.74-5.05 7.02l3.87 1.59 1.18-8.61zM120.38 52.33s4.25 2.42 5.05 7.78l-3.87 1.59-1.18-9.37z"
       fill="#be1931"
       id="path8"
       style="fill:#5b8c31" />
  </g>
</svg>
