<?xml version="1.0" encoding="UTF-8" standalone="no"?>
<svg
   width="128px"
   height="128px"
   version="1.1"
   xml:space="preserve"
   style="fill-rule:evenodd;clip-rule:evenodd;stroke-linecap:round;stroke-linejoin:round;stroke-miterlimit:1.5;"
   id="svg29077"
   sodipodi:docname="mirror ball.svg"
   inkscape:version="1.3 (0e150ed6c4, 2023-07-21)"
   xmlns:inkscape="http://www.inkscape.org/namespaces/inkscape"
   xmlns:sodipodi="http://sodipodi.sourceforge.net/DTD/sodipodi-0.dtd"
   xmlns="http://www.w3.org/2000/svg"
   xmlns:svg="http://www.w3.org/2000/svg"><defs
     id="defs29081"><clipPath
       clipPathUnits="userSpaceOnUse"
       id="clipPath44069"><circle
         style="fill:#b32362;stroke:none;stroke-width:1;stroke-linecap:round"
         id="circle44071"
         cx="64"
         cy="64"
         r="51.338818" /></clipPath></defs><sodipodi:namedview
     id="namedview29079"
     pagecolor="#ffffff"
     bordercolor="#000000"
     borderopacity="0.25"
     inkscape:showpageshadow="2"
     inkscape:pageopacity="0.0"
     inkscape:pagecheckerboard="0"
     inkscape:deskcolor="#d1d1d1"
     showgrid="false"
     inkscape:zoom="2.9996795"
     inkscape:cx="50.172027"
     inkscape:cy="70.840902"
     inkscape:window-width="1366"
     inkscape:window-height="697"
     inkscape:window-x="-8"
     inkscape:window-y="-8"
     inkscape:window-maximized="1"
     inkscape:current-layer="svg29077" /><path
     id="path2"
     style="fill:#2f2f2f;fill-opacity:1;stroke-width:9.07088;stroke-linecap:round"
     d="m 64.000003,7.2689518 c -12.234027,0 -18.867278,1.3525579 -18.867278,5.1026622 0,6.403955 12.188769,3.047435 12.188769,6.387912 V 48.266728 H 70.678512 V 18.759526 c 0,-3.340477 12.179609,-0.12745 12.188769,-6.387912 0.0055,-3.7500957 -6.633251,-5.1026622 -18.867278,-5.1026622 z"
     sodipodi:nodetypes="zssccssz" /><g
     id="g43948"
     clip-path="url(#clipPath44069)"
     transform="matrix(0.95454544,0,0,0.95454544,2.9090911,12.243422)"
     style="stroke-width:1.04762"><path
       d="m 64.000002,7.3059975 21.695996,4.3150005 18.393002,12.29 12.29,18.393 4.315,21.696 -4.315,21.696 -12.29,18.393002 -18.393002,12.29 -21.695996,4.315 -21.696,-4.315 -18.393,-12.29 -12.29,-18.393002 -4.315,-21.696 4.315,-21.696 12.29,-18.393 18.393,-12.29 z"
       style="clip-rule:evenodd;fill:#86a8b4;fill-rule:evenodd;stroke-width:1.04762;stroke-linecap:round;stroke-linejoin:round;stroke-miterlimit:1.5"
       id="path28845" /><g
       id="g42001"
       style="stroke:none;stroke-width:1.04762"><path
         d="m 42.304,11.621 h 1.652 l -16.993,12.29 h -3.052 z"
         style="fill:#86a8b4;stroke:none;stroke-width:1.04762px;stroke-opacity:0.16"
         id="path28850"
         clip-path="none" /><g
         transform="matrix(1,0,0,-1,0,128)"
         id="g28854"
         clip-path="none"
         style="stroke:none;stroke-width:1.04762"><path
           d="m 42.304,11.621 h 1.652 l -16.993,12.29 h -3.052 z"
           style="fill:#afc7cf;stroke:none;stroke-width:1.04762px;stroke-opacity:0.16"
           id="path28852" /></g><g
         transform="matrix(-1,0,0,1,128,0)"
         id="g28858"
         clip-path="none"
         style="stroke:none;stroke-width:1.04762"><path
           d="m 42.304,11.621 h 1.652 l -16.993,12.29 h -3.052 z"
           style="fill:#e0e0e0;stroke:none;stroke-width:1.04762px;stroke-opacity:0.16"
           id="path28856" /></g><g
         transform="rotate(180,64,64)"
         id="g28862"
         clip-path="none"
         style="stroke:none;stroke-width:1.04762"><path
           d="m 42.304,11.621 h 1.652 l -16.993,12.29 h -3.052 z"
           style="fill:#86a8b4;stroke:none;stroke-width:1.04762px;stroke-opacity:0.16"
           id="path28860" /></g><path
         d="m 43.956,11.621 h 4.703 l -13.006,12.29 h -8.69 z"
         style="fill:#94d4f1;stroke:none;stroke-width:1.04762px;stroke-opacity:0.16"
         id="path28864"
         clip-path="none" /><g
         transform="matrix(1,0,0,-1,0,128)"
         id="g28868"
         clip-path="none"
         style="stroke:none;stroke-width:1.04762"><path
           d="m 43.956,11.621 h 4.703 l -13.006,12.29 h -8.69 z"
           style="fill:#62cdea;fill-opacity:0.47;stroke:none;stroke-width:1.04762px;stroke-opacity:0.16"
           id="path28866" /></g><g
         transform="matrix(-1,0,0,1,128,0)"
         id="g28872"
         clip-path="none"
         style="stroke:none;stroke-width:1.04762"><path
           d="m 43.956,11.621 h 4.703 l -13.006,12.29 h -8.69 z"
           style="fill:#86a8b4;stroke:none;stroke-width:1.04762px;stroke-opacity:0.16"
           id="path28870" /></g><g
         transform="rotate(180,64,64)"
         id="g28876"
         clip-path="none"
         style="stroke:none;stroke-width:1.04762"><path
           d="m 43.956,11.621 h 4.703 l -13.006,12.29 h -8.69 z"
           style="fill:#e0e0e0;fill-opacity:0.7;stroke:none;stroke-width:1.04762px;stroke-opacity:0.16"
           id="path28874" /></g><path
         d="m 48.659,11.621 h 7.038 l -7.038,12.29 H 35.653 Z"
         style="fill:#86a8b4;stroke:none;stroke-width:1.04762px;stroke-opacity:0.16"
         id="path28878"
         clip-path="none" /><g
         transform="matrix(1,0,0,-1,0,128)"
         id="g28882"
         clip-path="none"
         style="stroke:none;stroke-width:1.04762"><path
           d="m 48.659,11.621 h 7.038 l -7.038,12.29 H 35.653 Z"
           style="fill:#94d4f1;fill-opacity:0.7;stroke:none;stroke-width:1.04762px;stroke-opacity:0.16"
           id="path28880" /></g><g
         transform="matrix(-1,0,0,1,128,0)"
         id="g28886"
         clip-path="none"
         style="stroke:none;stroke-width:1.04762"><path
           d="m 48.659,11.621 h 7.038 l -7.038,12.29 H 35.653 Z"
           style="fill:#afc7cf;stroke:none;stroke-width:1.04762px;stroke-opacity:0.16"
           id="path28884" /></g><g
         transform="rotate(180,64,64)"
         id="g28890"
         clip-path="none"
         style="stroke:none;stroke-width:1.04762"><path
           d="m 48.659,11.621 h 7.038 l -7.038,12.29 H 35.653 Z"
           style="fill:#62cdea;fill-opacity:0.47;stroke:none;stroke-width:1.04762px;stroke-opacity:0.16"
           id="path28888" /></g><path
         d="M 55.697,11.621 H 64 v 12.29 H 48.659 Z"
         style="fill:#62cdea;fill-opacity:0.47;stroke:none;stroke-width:1.04762px;stroke-opacity:0.16"
         id="path28892"
         clip-path="none" /><g
         transform="matrix(1,0,0,-1,0,128)"
         id="g28896"
         clip-path="none"
         style="stroke:none;stroke-width:1.04762"><path
           d="M 55.697,11.621 H 64 v 12.29 H 48.659 Z"
           style="fill:#86a8b4;stroke:none;stroke-width:1.04762px;stroke-opacity:0.16"
           id="path28894" /></g><g
         transform="matrix(-1,0,0,1,128,0)"
         id="g28900"
         clip-path="none"
         style="stroke:none;stroke-width:1.04762"><path
           d="M 55.697,11.621 H 64 v 12.29 H 48.659 Z"
           style="fill:#e0e0e0;fill-opacity:0.7;stroke:none;stroke-width:1.04762px;stroke-opacity:0.16"
           id="path28898" /></g><g
         transform="rotate(180,64,64)"
         id="g28904"
         clip-path="none"
         style="stroke:none;stroke-width:1.04762"><path
           d="M 55.697,11.621 H 64 v 12.29 H 48.659 Z"
           style="fill:#94d4f1;stroke:none;stroke-width:1.04762px;stroke-opacity:0.16"
           id="path28902" /></g><path
         d="m 64,7.306 -8.303,4.315 H 64 Z"
         style="fill:#afc7cf;stroke:none;stroke-width:1.04762px;stroke-opacity:0.16"
         id="path28906"
         clip-path="none" /><g
         transform="matrix(1,0,0,-1,0,128)"
         id="g28910"
         clip-path="none"
         style="stroke:none;stroke-width:1.04762"><path
           d="m 64,7.306 -8.303,4.315 H 64 Z"
           style="fill:#94d4f1;stroke:none;stroke-width:1.04762px;stroke-opacity:0.16"
           id="path28908" /></g><g
         transform="matrix(-1,0,0,1,128,0)"
         id="g28914"
         clip-path="none"
         style="stroke:none;stroke-width:1.04762"><path
           d="m 64,7.306 -8.303,4.315 H 64 Z"
           style="fill:#e0e0e0;stroke:none;stroke-width:1.04762px;stroke-opacity:0.16"
           id="path28912" /></g><g
         transform="rotate(180,64,64)"
         id="g28918"
         clip-path="none"
         style="stroke:none;stroke-width:1.04762"><path
           d="m 64,7.306 -8.303,4.315 H 64 Z"
           style="fill:#86a8b4;stroke:none;stroke-width:1.04762px;stroke-opacity:0.16"
           id="path28916" /></g><path
         d="M 48.659,11.621 64,7.306 55.697,11.621 Z"
         style="fill:#86a8b4;stroke:none;stroke-width:1.04762px;stroke-opacity:0.16"
         id="path28920"
         clip-path="none" /><g
         transform="matrix(1,0,0,-1,0,128)"
         id="g28924"
         clip-path="none"
         style="stroke:none;stroke-width:1.04762"><path
           d="M 48.659,11.621 64,7.306 55.697,11.621 Z"
           style="fill:#86a8b4;stroke:none;stroke-width:1.04762px;stroke-opacity:0.16"
           id="path28922" /></g><g
         transform="matrix(-1,0,0,1,128,0)"
         id="g28928"
         clip-path="none"
         style="stroke:none;stroke-width:1.04762"><path
           d="M 48.659,11.621 64,7.306 55.697,11.621 Z"
           style="fill:#e0e0e0;fill-opacity:0.7;stroke:none;stroke-width:1.04762px;stroke-opacity:0.16"
           id="path28926" /></g><g
         transform="rotate(180,64,64)"
         id="g28932"
         clip-path="none"
         style="stroke:none;stroke-width:1.04762"><path
           d="M 48.659,11.621 64,7.306 55.697,11.621 Z"
           style="fill:#86a8b4;stroke:none;stroke-width:1.04762px;stroke-opacity:0.16"
           id="path28930" /></g><path
         d="M 43.956,11.621 64,7.306 48.659,11.621 Z"
         style="fill:#e0e0e0;stroke:none;stroke-width:1.04762px;stroke-opacity:0.16"
         id="path28934"
         clip-path="none" /><g
         transform="matrix(1,0,0,-1,0,128)"
         id="g28938"
         clip-path="none"
         style="stroke:none;stroke-width:1.04762"><path
           d="M 43.956,11.621 64,7.306 48.659,11.621 Z"
           style="fill:#86a8b4;stroke:none;stroke-width:1.04762px;stroke-opacity:0.16"
           id="path28936" /></g><g
         transform="matrix(-1,0,0,1,128,0)"
         id="g28942"
         clip-path="none"
         style="stroke:none;stroke-width:1.04762"><path
           d="M 43.956,11.621 64,7.306 48.659,11.621 Z"
           style="fill:#86a8b4;stroke:none;stroke-width:1.04762px;stroke-opacity:0.16"
           id="path28940" /></g><g
         transform="rotate(180,64,64)"
         id="g28946"
         clip-path="none"
         style="stroke:none;stroke-width:1.04762"><path
           d="M 43.956,11.621 64,7.306 48.659,11.621 Z"
           style="fill:#86a8b4;stroke:none;stroke-width:1.04762px;stroke-opacity:0.16"
           id="path28944" /></g><path
         d="M 43.956,11.621 64,7.306 42.304,11.621 Z"
         style="fill:#86a8b4;stroke:none;stroke-width:1.04762px;stroke-opacity:0.16"
         id="path28948"
         clip-path="none" /><g
         transform="matrix(1,0,0,-1,0,128)"
         id="g28952"
         clip-path="none"
         style="stroke:none;stroke-width:1.04762"><path
           d="M 43.956,11.621 64,7.306 42.304,11.621 Z"
           style="fill:#94d4f1;stroke:none;stroke-width:1.04762px;stroke-opacity:0.16"
           id="path28950" /></g><g
         transform="matrix(-1,0,0,1,128,0)"
         id="g28956"
         clip-path="none"
         style="stroke:none;stroke-width:1.04762"><path
           d="M 43.956,11.621 64,7.306 42.304,11.621 Z"
           style="fill:#afc7cf;stroke:none;stroke-width:1.04762px;stroke-opacity:0.16"
           id="path28954" /></g><g
         transform="rotate(180,64,64)"
         id="g28960"
         clip-path="none"
         style="stroke:none;stroke-width:1.04762"><path
           d="M 43.956,11.621 64,7.306 42.304,11.621 Z"
           style="fill:#62cdea;fill-opacity:0.47;stroke:none;stroke-width:1.04762px;stroke-opacity:0.16"
           id="path28958" /></g><path
         d="m 23.911,23.911 -12.29,18.393 h 3.987 L 26.963,23.911 Z"
         style="fill:#86a8b4;stroke:none;stroke-width:1.04762px;stroke-opacity:0.16"
         id="path28962"
         clip-path="none" /><g
         transform="matrix(1,0,0,-1,0,128)"
         id="g28966"
         clip-path="none"
         style="stroke:none;stroke-width:1.04762"><path
           d="m 23.911,23.911 -12.29,18.393 h 3.987 L 26.963,23.911 Z"
           style="fill:#e0e0e0;stroke:none;stroke-width:1.04762px;stroke-opacity:0.16"
           id="path28964" /></g><g
         transform="matrix(-1,0,0,1,128,0)"
         id="g28970"
         clip-path="none"
         style="stroke:none;stroke-width:1.04762"><path
           d="m 23.911,23.911 -12.29,18.393 h 3.987 L 26.963,23.911 Z"
           style="fill:#94d4f1;stroke:none;stroke-width:1.04762px;stroke-opacity:0.16"
           id="path28968" /></g><g
         transform="rotate(180,64,64)"
         id="g28974"
         clip-path="none"
         style="stroke:none;stroke-width:1.04762"><path
           d="m 23.911,23.911 -12.29,18.393 h 3.987 L 26.963,23.911 Z"
           style="fill:#afc7cf;stroke:none;stroke-width:1.04762px;stroke-opacity:0.16"
           id="path28972" /></g><path
         d="m 26.963,23.911 h 8.69 l -8.69,18.393 H 15.608 Z"
         style="fill:#86a8b4;stroke:none;stroke-width:1.04762px;stroke-opacity:0.16"
         id="path28976"
         clip-path="none" /><g
         transform="matrix(1,0,0,-1,0,128)"
         id="g28980"
         clip-path="none"
         style="stroke:none;stroke-width:1.04762"><path
           d="m 26.963,23.911 h 8.69 l -8.69,18.393 H 15.608 Z"
           style="fill:#e0e0e0;fill-opacity:0.7;stroke:none;stroke-width:1.04762px;stroke-opacity:0.16"
           id="path28978" /></g><g
         transform="matrix(-1,0,0,1,128,0)"
         id="g28984"
         clip-path="none"
         style="stroke:none;stroke-width:1.04762"><path
           d="m 26.963,23.911 h 8.69 l -8.69,18.393 H 15.608 Z"
           style="fill:#86a8b4;stroke:none;stroke-width:1.04762px;stroke-opacity:0.16"
           id="path28982" /></g><g
         transform="rotate(180,64,64)"
         id="g28988"
         clip-path="none"
         style="stroke:none;stroke-width:1.04762"><path
           d="m 26.963,23.911 h 8.69 l -8.69,18.393 H 15.608 Z"
           style="fill:#94d4f1;fill-opacity:0.7;stroke:none;stroke-width:1.04762px;stroke-opacity:0.16"
           id="path28986" /></g><path
         d="M 35.653,23.911 H 48.659 L 43.956,42.304 H 26.963 Z"
         style="fill:#afc7cf;stroke:none;stroke-width:1.04762px;stroke-opacity:0.16"
         id="path28990"
         clip-path="none" /><g
         transform="matrix(1,0,0,-1,0,128)"
         id="g28994"
         clip-path="none"
         style="stroke:none;stroke-width:1.04762"><path
           d="M 35.653,23.911 H 48.659 L 43.956,42.304 H 26.963 Z"
           style="fill:#86a8b4;stroke:none;stroke-width:1.04762px;stroke-opacity:0.16"
           id="path28992" /></g><g
         transform="matrix(-1,0,0,1,128,0)"
         id="g28998"
         clip-path="none"
         style="stroke:none;stroke-width:1.04762"><path
           d="M 35.653,23.911 H 48.659 L 43.956,42.304 H 26.963 Z"
           style="fill:#94d4f1;fill-opacity:0.7;stroke:none;stroke-width:1.04762px;stroke-opacity:0.16"
           id="path28996" /></g><g
         transform="rotate(180,64,64)"
         id="g29002"
         clip-path="none"
         style="stroke:none;stroke-width:1.04762"><path
           d="M 35.653,23.911 H 48.659 L 43.956,42.304 H 26.963 Z"
           style="fill:#86a8b4;stroke:none;stroke-width:1.04762px;stroke-opacity:0.16"
           id="path29000" /></g><path
         d="M 48.659,23.911 H 64 V 42.304 H 43.956 Z"
         style="fill:#e0e0e0;fill-opacity:0.7;stroke:none;stroke-width:1.04762px;stroke-opacity:0.16"
         id="path29004"
         clip-path="none" /><g
         transform="matrix(1,0,0,-1,0,128)"
         id="g29008"
         clip-path="none"
         style="stroke:none;stroke-width:1.04762"><path
           d="M 48.659,23.911 H 64 V 42.304 H 43.956 Z"
           style="fill:#94d4f1;stroke:none;stroke-width:1.04762px;stroke-opacity:0.16"
           id="path29006" /></g><g
         transform="matrix(-1,0,0,1,128,0)"
         id="g29012"
         clip-path="none"
         style="stroke:none;stroke-width:1.04762"><path
           d="M 48.659,23.911 H 64 V 42.304 H 43.956 Z"
           style="fill:#86a8b4;stroke:none;stroke-width:1.04762px;stroke-opacity:0.16"
           id="path29010" /></g><g
         transform="rotate(180,64,64)"
         id="g29016"
         clip-path="none"
         style="stroke:none;stroke-width:1.04762"><path
           d="M 48.659,23.911 H 64 V 42.304 H 43.956 Z"
           style="fill:#e0e0e0;stroke:none;stroke-width:1.04762px;stroke-opacity:0.16"
           id="path29014" /></g><path
         d="M 43.956,42.304 H 64 V 64 H 42.304 Z"
         style="fill:#afc7cf;stroke:none;stroke-width:1.04762px;stroke-opacity:0.16"
         id="path29018"
         clip-path="none" /><g
         transform="matrix(1,0,0,-1,0,128)"
         id="g29022"
         clip-path="none"
         style="stroke:none;stroke-width:1.04762"><path
           d="M 43.956,42.304 H 64 V 64 H 42.304 Z"
           style="fill:#86a8b4;stroke:none;stroke-width:1.04762px;stroke-opacity:0.16"
           id="path29020" /></g><g
         transform="matrix(-1,0,0,1,128,0)"
         id="g29026"
         clip-path="none"
         style="stroke:none;stroke-width:1.04762"><path
           d="M 43.956,42.304 H 64 V 64 H 42.304 Z"
           style="fill:#62cdea;fill-opacity:0.47;stroke:none;stroke-width:1.04762px;stroke-opacity:0.16"
           id="path29024" /></g><g
         transform="rotate(180,64,64)"
         id="g29030"
         clip-path="none"
         style="stroke:none;stroke-width:1.04762"><path
           d="M 43.956,42.304 H 64 V 64 H 42.304 Z"
           style="fill:#e0e0e0;fill-opacity:0.7;stroke:none;stroke-width:1.04762px;stroke-opacity:0.16"
           id="path29028" /></g><path
         d="M 26.963,42.304 H 43.956 L 42.304,64 H 23.911 Z"
         style="fill:#86a8b4;stroke:none;stroke-width:1.04762px;stroke-opacity:0.16"
         id="path29032"
         clip-path="none" /><g
         transform="matrix(1,0,0,-1,0,128)"
         id="g29036"
         clip-path="none"
         style="stroke:none;stroke-width:1.04762"><path
           d="M 26.963,42.304 H 43.956 L 42.304,64 H 23.911 Z"
           style="fill:#afc7cf;stroke:none;stroke-width:1.04762px;stroke-opacity:0.16"
           id="path29034" /></g><g
         transform="matrix(-1,0,0,1,128,0)"
         id="g29040"
         clip-path="none"
         style="stroke:none;stroke-width:1.04762"><path
           d="M 26.963,42.304 H 43.956 L 42.304,64 H 23.911 Z"
           style="fill:#86a8b4;stroke:none;stroke-width:1.04762px;stroke-opacity:0.16"
           id="path29038" /></g><g
         transform="rotate(180,64,64)"
         id="g29044"
         clip-path="none"
         style="stroke:none;stroke-width:1.04762"><path
           d="M 26.963,42.304 H 43.956 L 42.304,64 H 23.911 Z"
           style="fill:#afc7cf;stroke:none;stroke-width:1.04762px;stroke-opacity:0.16"
           id="path29042" /></g><path
         d="M 15.608,42.304 H 26.963 L 23.911,64 h -12.29 z"
         style="fill:#94d4f1;stroke:none;stroke-width:1.04762px;stroke-opacity:0.16"
         id="path29046"
         clip-path="none" /><g
         transform="matrix(1,0,0,-1,0,128)"
         id="g29050"
         clip-path="none"
         style="stroke:none;stroke-width:1.04762"><path
           d="M 15.608,42.304 H 26.963 L 23.911,64 h -12.29 z"
           style="fill:#86a8b4;stroke:none;stroke-width:1.04762px;stroke-opacity:0.16"
           id="path29048" /></g><g
         transform="matrix(-1,0,0,1,128,0)"
         id="g29054"
         clip-path="none"
         style="stroke:none;stroke-width:1.04762"><path
           d="M 15.608,42.304 H 26.963 L 23.911,64 h -12.29 z"
           style="fill:#e0e0e0;fill-opacity:0.7;stroke:none;stroke-width:1.04762px;stroke-opacity:0.16"
           id="path29052" /></g><g
         transform="rotate(180,64,64)"
         id="g29058"
         clip-path="none"
         style="stroke:none;stroke-width:1.04762"><path
           d="M 15.608,42.304 H 26.963 L 23.911,64 h -12.29 z"
           style="fill:#62cdea;fill-opacity:0.47;stroke:none;stroke-width:1.04762px;stroke-opacity:0.16"
           id="path29056" /></g><path
         d="m 11.621,42.304 h 3.987 L 11.621,64 H 7.306 Z"
         style="fill:#afc7cf;stroke:none;stroke-width:1.04762px;stroke-opacity:0.16"
         id="path29060"
         clip-path="none" /><g
         transform="matrix(1,0,0,-1,0,128)"
         id="g29064"
         clip-path="none"
         style="stroke:none;stroke-width:1.04762"><path
           d="m 11.621,42.304 h 3.987 L 11.621,64 H 7.306 Z"
           style="fill:#86a8b4;stroke:none;stroke-width:1.04762px;stroke-opacity:0.16"
           id="path29062" /></g><g
         transform="matrix(-1,0,0,1,128,0)"
         id="g29068"
         clip-path="none"
         style="stroke:none;stroke-width:1.04762"><path
           d="m 11.621,42.304 h 3.987 L 11.621,64 H 7.306 Z"
           style="fill:#e0e0e0;fill-opacity:0.7;stroke:none;stroke-width:1.04762px;stroke-opacity:0.16"
           id="path29066" /></g><g
         transform="rotate(180,64,64)"
         id="g29072"
         clip-path="none"
         style="stroke:none;stroke-width:1.04762"><path
           d="m 11.621,42.304 h 3.987 L 11.621,64 H 7.306 Z"
           style="fill:#afc7cf;stroke:none;stroke-width:1.04762px;stroke-opacity:0.16"
           id="path29070" /></g></g></g><path
     id="rect1"
     style="fill:#ffffff;stroke-width:9.07084"
     d="m 65.018664,50.497201 c 0,-3.026569 5.481318,-2.07229 8.661861,-5.252833 3.180543,-3.180543 2.226264,-8.661861 5.252832,-8.661861 3.026569,0 2.072291,5.481319 5.252834,8.661862 3.180542,3.180542 8.66186,2.226263 8.66186,5.252832 0,3.026569 -5.481318,2.07229 -8.66186,5.252833 -3.180544,3.180543 -2.226265,8.661861 -5.252834,8.661861 -3.026568,0 -2.072289,-5.481318 -5.252832,-8.661861 -3.180543,-3.180543 -8.661861,-2.226264 -8.661861,-5.252833 z"
     sodipodi:nodetypes="zzzzzzzzz" /><path
     id="path1"
     style="fill:#ffffff;stroke-width:9.07084"
     d="m 88.39913,67.111121 c 0,-1.771649 3.208575,-1.213046 5.070354,-3.074827 1.861779,-1.86178 1.303178,-5.070355 3.074827,-5.070355 1.771649,0 1.213049,3.208575 3.074829,5.070356 1.86179,1.86178 5.07035,1.303177 5.07035,3.074826 0,1.771649 -3.20856,1.213048 -5.07035,3.074827 -1.86178,1.861781 -1.30318,5.070355 -3.074829,5.070355 -1.771649,0 -1.213048,-3.208574 -3.074827,-5.070355 C 91.607705,68.324169 88.39913,68.88277 88.39913,67.111121 Z"
     sodipodi:nodetypes="zzzzzzzzz" /></svg>
