<?xml version="1.0" encoding="UTF-8" standalone="no"?>
<!-- Generator: Adobe Illustrator 26.3.1, SVG Export Plug-In . SVG Version: 6.00 Build 0)  -->

<svg
   version="1.1"
   id="Art"
   x="0px"
   y="0px"
   viewBox="0 0 128 128"
   style="enable-background:new 0 0 128 128;"
   xml:space="preserve"
   sodipodi:docname="moose.svg"
   inkscape:version="1.2.2 (732a01da63, 2022-12-09)"
   xmlns:inkscape="http://www.inkscape.org/namespaces/inkscape"
   xmlns:sodipodi="http://sodipodi.sourceforge.net/DTD/sodipodi-0.dtd"
   xmlns="http://www.w3.org/2000/svg"
   xmlns:svg="http://www.w3.org/2000/svg"><defs
   id="defs33802" /><sodipodi:namedview
   id="namedview33800"
   pagecolor="#ffffff"
   bordercolor="#000000"
   borderopacity="0.25"
   inkscape:showpageshadow="2"
   inkscape:pageopacity="0.0"
   inkscape:pagecheckerboard="0"
   inkscape:deskcolor="#d1d1d1"
   showgrid="false"
   inkscape:zoom="4"
   inkscape:cx="73"
   inkscape:cy="71.25"
   inkscape:window-width="1366"
   inkscape:window-height="697"
   inkscape:window-x="-8"
   inkscape:window-y="-8"
   inkscape:window-maximized="1"
   inkscape:current-layer="Art" />
<path
   id="path33783"
   style="fill:#885c52;fill-opacity:1"
   d="m 51.052734,54.636719 c -0.838905,0.0072 -1.302734,0.0332 -1.302734,0.0332 0,0 -2.690629,-0.240076 -6.390625,2.419922 -2.839997,2.039998 -5.130004,4.850549 -8.75,7.060547 -3.619996,2.219997 -8.269692,3.459688 -13.179687,4.429687 C 9.8496991,70.890076 4.3001559,79.570242 3.9101562,86.740234 c -0.2699997,4.919995 1.2095346,8.589924 4.5195313,10.169922 3.2599965,1.549999 6.3105465,0.628906 6.3105465,0.628906 0,0 1.631815,5.958988 9.519532,5.958988 10.63291,0 14.744116,-4.85716 21.323695,-4.85716 4.761018,0 6.368145,1.115649 8.47318,3.28684 1.590708,1.6407 2.132578,3.73282 2.392578,4.63282 0.269999,0.9 2.811641,8.85015 3.18164,9.91015 0.37,1.06 0.76922,2.43985 1.449219,2.83985 0.46,0.27 2.450704,0.27906 3.470703,0.28906 1.049128,0.01 7.121353,-0.009 7.363281,-0.01 0.0029,3.6e-4 0.01299,0.01 0.01563,0.01 0.819999,0 29.759688,-0.15039 34.429688,-0.15039 4.66999,0 15.62968,-0.11875 16.67968,-0.46875 1.05,-0.35 1.1707,-2.09961 0.47071,-3.84961 -0.7,-1.75 -2.86923,-5.93172 -5.44922,-9.76172 -1.53,-2.28 -3.33008,-4.89844 -3.33008,-4.89844 0,0 1.45945,0.15946 3.18945,-0.560544 1.4,-0.579999 1.54945,-2.049375 0.43946,-2.609375 -0.71,-0.349999 -2.90915,-1.430548 -4.61915,-2.560547 -1.70999,-1.129998 -2.95117,-2.330078 -2.95117,-2.330078 0,0 2.69118,-0.559766 3.70117,-1.259765 1.03,-0.71 0.75899,-1.779845 0.20899,-2.339844 -0.55,-0.56 -3.03,-1.229688 -4,-1.679688 -3.48,-1.629998 -6.24876,-3.921331 -10.21875,-7.111328 C 96.790472,77.059534 90.280232,71.359763 87.990234,68.759766 85.700237,66.159768 82,62.849609 82,62.849609 c 0,0 -9.989381,-5.289063 -15.609375,-6.539062 -6.922493,-1.544999 -12.821174,-1.695391 -15.337891,-1.673828 z"
   sodipodi:nodetypes="scccccccssscscccssssccccsccsccsccs" />
<path
   style="fill:#2f2f2f;fill-opacity:1"
   d="M13.74,80.39c-1.38,0.17-1.89,1.27-1.99,2.26c-0.17,1.85,0.24,3.95-0.31,5.32  c-0.55,1.37-2.11,2.81-2.3,3.64c-0.2,0.91,0.58,1.89,1.99,1.58c0.7-0.15,2.17-0.85,3.33-2.06c1.16-1.22,2.02-2.96,2.13-3.77  c0.27-2.13,0.15-3.76-0.07-4.74C16.32,81.69,15.53,80.17,13.74,80.39z"
   id="path33785" />
<path
   style="fill:#2f2f2f;fill-opacity:1"
   d="M10.36,97.53c0.5-0.12,2.27-0.51,4.51-1.6c2.61-1.27,4.84-3.09,6.54-4.71  c1.78-1.7,3.42-4.08,4.71-4.91c1.16-0.74,2.15-0.51,2.86,0.08c0.52,0.43,0.87,1.38,0.39,2.84c-0.65,1.99-3.24,4.74-6.39,6.42  s-6.07,2.13-7.75,2.26C13.54,98.05,10.36,97.7,10.36,97.53z"
   id="path33787" />
<path
   style="fill:#875d51;fill-opacity:1"
   d="M72.7,54.89c0,0,0.92-2.44,1.35-4.67c0.48-2.54,0.96-10.66-0.35-13.06  c-1.31-2.4-10.49,2.58-16.13,8.59c-4.64,4.94-8.37,13.16-8.37,13.16s-0.6-0.65-0.8,0.61c-0.28,1.75,1.4,5.77,5.82,6.46  c3.58,0.56,5.39-0.67,6.24-1.36c1.89-1.54,2.96-3.66,6.9-3.49c1.97,0.08,4.15,0.75,7.88,3.04c3.73,2.29,6.01,3.96,7.82,4.28  c1.81,0.32,4.18-0.53,4.18-0.53s-4.94-6.2-8.62-9.09C74.84,55.87,72.7,54.89,72.7,54.89z"
   id="path33789" />

<path
   d="m 50.366125,69.438922 c -0.584168,2.628758 -2.681184,4.291392 -4.688327,3.737181 -2.007143,-0.57668 -3.160501,-3.160502 -2.591311,-5.78926 0.591658,-2.621269 2.696162,-4.298881 4.710794,-3.729691 2.007144,0.5617 3.160502,3.160501 2.568844,5.78177 z"
   style="fill:#2f2f2f;fill-opacity:1;stroke-width:0.999999"
   id="path24605" />

<path
   style="fill:#cb9865;fill-opacity:1"
   d="M48.39,59.28c0.03,0.6,0.42,3.58,5.36,3.58c3.99,0,5.16-2.26,5.29-3.19  c0.14-0.97,0.08-3.66,0.86-5.41c0.95-2.13,2.16-4.16,8.19-5.45c6.02-1.29,10.19-1.03,18.74-3.38c9.45-2.59,15.99-7,20.99-11.09  c6.19-5.06,9.77-10.01,11.54-13.17c1.29-2.31,1.14-4.98-0.34-5.91c-2.58-1.63-4.61,0.96-5.57,2.26c-1.63,2.21-3.22,4.17-5.34,6.13  c-2.44,2.25-5.29,0.81-3.95-1.41c1.13-1.87,2.36-3.15,3.38-5.12c0.63-1.23,0.9-3.55-0.79-4.84s-4-0.68-5.46,1.01  c-1.41,1.63-3.32,5.21-5.93,7.73c-1.69,1.63-4.44,1.65-3.66-1.5c0.4-1.61,1.38-3.74,1.88-5.39c0.62-2.03-0.02-4.35-1.88-4.85  c-1.86-0.51-3.75-0.34-5.61,3.33c-1.97,3.88-4.27,8.59-6.36,11.76c-0.76,1.15-3.88,2.74-5.85,0.2c-1.49-1.92-2.22-11.4-3.09-13.69  c-0.86-2.25-2.4-3.4-4.31-3.19c-2.13,0.24-3.91,2.04-3.91,5.24s0.96,14.69,1.01,16.88c0.06,2.19-0.74,7.01-5.97,7.6  c-4.91,0.55-8.39-1.86-11.54-7.99c-3.15-6.13-6.21-12.27-7.99-15.36c-1.58-2.76-3.49-3.6-5.52-2.65c-1.98,0.94-2.35,3.31-1.74,5.85  c0.9,3.77,2.53,7.09,3.26,9.85c0.73,2.76-1.16,5.5-4.32,3.56c-3.74-2.29-9.25-7.53-11.44-10.16c-2.47-2.97-4.89-4.29-7.38-2.53  c-1.74,1.24-1.38,4.29,0.79,7.77c2.36,3.78,6.3,9.4,11.93,13.34s8.5,5.35,12.04,6.7c3.55,1.35,9.68,3.1,11.48,6.02  C48.95,54.69,48.3,57.88,48.39,59.28z"
   id="path33797" />
</svg>
