<?xml version="1.0" encoding="UTF-8" standalone="no"?>
<svg
   width="128px"
   height="128px"
   version="1.1"
   xml:space="preserve"
   style="fill-rule:evenodd;clip-rule:evenodd;stroke-linejoin:round;stroke-miterlimit:2;"
   id="svg24"
   sodipodi:docname="mountain railway.svg"
   inkscape:version="1.3 (0e150ed6c4, 2023-07-21)"
   xmlns:inkscape="http://www.inkscape.org/namespaces/inkscape"
   xmlns:sodipodi="http://sodipodi.sourceforge.net/DTD/sodipodi-0.dtd"
   xmlns="http://www.w3.org/2000/svg"
   xmlns:svg="http://www.w3.org/2000/svg"><defs
     id="defs24"><clipPath
       id="_clip2"><rect
         x="258.92999"
         y="3.023"
         width="122.14"
         height="122.118"
         id="rect3" /></clipPath></defs><sodipodi:namedview
     id="namedview24"
     pagecolor="#ffffff"
     bordercolor="#000000"
     borderopacity="0.25"
     inkscape:showpageshadow="2"
     inkscape:pageopacity="0.0"
     inkscape:pagecheckerboard="0"
     inkscape:deskcolor="#d1d1d1"
     inkscape:zoom="2.867097"
     inkscape:cx="53.364082"
     inkscape:cy="74.465565"
     inkscape:window-width="1366"
     inkscape:window-height="697"
     inkscape:window-x="-8"
     inkscape:window-y="-8"
     inkscape:window-maximized="1"
     inkscape:current-layer="svg24" /><g
     id="g83"><g
       clip-path="url(#_clip2)"
       id="g6"
       transform="matrix(1.04798,0,0,1.04798,-271.3524,-3.14393)"><g
         transform="matrix(1.20326,0,0,1.20326,242.991,-26.0179)"
         id="g3"><path
           d="m 56.625,24.117 c -1.586,-0.005 -3.3,0.236 -5.145,0.72 -3.164,0.83 -4.705,3.4 -5.826,5.28 -0.502,0.83 -1.005,1.693 -1.484,2.102 l -0.162,0.129 c -0.783,0.689 -0.936,0.793 -1.45,0.898 -1.004,0.21 -1.423,0.012 -2.533,-0.537 -1.53,-0.747 -3.83,-1.893 -7.146,-0.854 -3.363,1.075 -5.63,4.288 -8,8.784 -2.5,4.74 -6.047,13.881 -11.633,25.507 v 59.477 H 114.754 V 69.358 C 102.33,45.418 101.23,42.85 100.352,41.395 98.915,39.002 95.867,37.04 93.508,37.169 c -2.359,0.128 -5.068,1.47 -6.48,3.525 -0.456,0.678 -3.76,5.56 -8.198,12.135 -1.296,-2.569 -2.535,-4.986 -3.656,-7.217 -4.508,-8.886 -6.89,-13.594 -7.567,-14.761 -2.61,-4.493 -6.224,-6.72 -10.982,-6.735 z"
           style="fill:#6593a2;fill-rule:nonzero"
           id="path3" /></g><g
         transform="matrix(1.20326,0,0,1.20326,242.991,-26.0179)"
         id="g4" /><g
         transform="translate(256,1.06068)"
         id="g5"><path
           d="m 119.06,106.566 c -0.49,0.64 -0.85,1.34 -1.65,1.47 -1.64,0.27 -3.13,1 -4.32,2.05 -0.79,0.7 -1.95,0.8 -2.84,0.22 l -0.02,-0.02 c -1.91,-3.61 -5.53,-5.26 -9.9,-5.26 -4.11,0 -7.88,1.36 -9.88,4.63 -0.56,0.9 -1.68,1.2 -2.64,0.74 -1.196,-0.573 -2.515,-0.841 -3.84,-0.78 -0.96,0.04 -1.81,-0.55 -2.17,-1.44 -2.06,-5.2 -6.95,-7.4 -12.89,-7.4 -6.11,0 -11.47,2.39 -13.42,7.83 -0.18,0.5 -0.5,0.94 -0.97,1.21 -0.22,0.13 -0.44,0.27 -0.64,0.43 -0.61,0.49 -1.44,0.52 -2.15,0.19 -1.141,-0.527 -2.383,-0.8 -3.64,-0.8 -1.34,0 -2.61,0.31 -3.75,0.86 -0.86,0.41 -1.88,0.24 -2.54,-0.45 -1.63,-1.72 -3.9,-2.694 -6.27,-2.69 -2.52,0 -4.78,1.08 -6.37,2.79 -0.76,0.83 -2,0.87 -2.87,0.15 -0.903,-0.746 -2.039,-1.153 -3.21,-1.15 -1.05,0 -2.02,0.33 -2.82,0.88 -0.39,0.27 -1.46,0.41 -2.47,0.06 -0.83,-0.28 -1.59,-0.95 -2.1,-1.66 -3.57,-5.05 -8.01,-6.96 -9.3,-7.56 -2.4,-1.13 -3.46,-0.81 -3.46,-0.81 v 18.81 c 0,0.22 122.14,0 122.14,0 v -17.9 c 0,-1.72 -3.88,2.81 -6.01,5.6 z"
           style="fill:#bdcf46;fill-rule:nonzero"
           id="path5" /></g></g><path
       d="M 97.48496,54.67253 C 96.07139,54.554 95.08403,53.4645 94.09794,52.346 92.53683,50.54909 90.4461,47.472264 87.55969,42.361461 c 0,0 8.24689,-11.425852 8.83577,-12.192535 3.96078,-4.888868 7.06787,-1.559848 8.59997,0.500614 0.66202,0.883956 10.9555,18.421838 11.13204,19.52647 0.0883,0.55988 -0.14753,0.75029 -0.36821,1.04536 -0.11853,0.16141 -0.0593,0.76542 -2.16512,0.61789 -0.2522,-0.0101 -0.50314,-0.0404 -0.75029,-0.0883 -0.62545,-0.10088 -1.24082,-0.25346 -1.84105,-0.45648 -0.67715,-0.23455 -3.03395,-1.04537 -4.904,-0.82469 -0.64815,0.0744 -0.76542,0.22193 -3.75524,1.94445 -3.46016,2.04659 -4.06417,2.3114 -4.8586,2.23826 z M 28.33466,21.260015 c 0.92809,-0.132405 3.770367,0.176539 4.8296,0.617886 1.148765,0.486743 5.316344,0.943222 7.023728,0.575012 1.443836,-0.308943 2.416062,-0.646889 4.344119,-2.767878 2.180256,-2.385798 3.563564,-6.199039 5.552149,-7.539473 3.770368,-2.5320731 7.804282,-0.117273 9.718469,3.195354 0.751551,1.2963 4.520658,8.732373 9.277121,18.126766 0.588883,1.163896 1.737648,3.446292 4.035176,7.982082 2.664477,5.241945 3.90151,7.936686 3.165091,9.762606 -0.36821,0.91296 -1.221902,2.00245 -2.370666,2.26726 -1.619114,0.36821 -2.443803,-1.22316 -5.257077,-2.23826 -1.030231,-0.36821 -4.07805,-1.44258 -5.919099,-0.1324 -1.369438,0.97096 -0.824689,2.38579 -2.105857,5.12467 -0.339207,0.72129 -1.841049,3.93177 -4.344119,5.12341 -3.813241,1.82592 -8.922782,-1.50058 -10.66043,-2.63547 -5.905227,-3.84351 -6.906455,-8.64411 -10.66169,-8.42343 -1.001228,0.0593 -1.987324,0.14753 -4.123446,1.25216 -3.356761,1.72252 -3.62157,3.12222 -6.007367,4.28486 -1.428705,0.69354 -4.904,2.38579 -8.291025,1.04662 -0.412345,-0.16267 -3.003684,-1.48797 -3.371894,-4.62406 -0.176539,-1.53211 0.456479,-2.78301 0.824689,-3.371894 C 24.064939,26.135011 24.962766,21.746758 28.33466,21.260015 Z"
       style="clip-rule:evenodd;fill:#fafafa;fill-rule:nonzero;stroke-width:1.26099;stroke-linejoin:round;stroke-miterlimit:2"
       id="path4" /></g><g
     transform="matrix(0.99999846,0,0,0.49072513,-3.6109e-4,65.187058)"
     id="g21"
     clip-path="none"><rect
       x="0"
       y="117.809"
       width="128"
       height="10.191"
       style="fill:#5d4037;fill-rule:nonzero"
       id="rect20" /></g><g
     transform="matrix(0.99999846,0,0,1.99293,-3.6109e-4,-124.33162)"
     id="g22"
     clip-path="none"><rect
       x="0"
       y="122.611"
       width="128"
       height="2.0039999"
       style="fill:#383838;fill-rule:nonzero"
       id="rect21" /></g><g
     id="Bogie"
     transform="translate(-351.06527,1.6870377)"
     clip-path="none"><g
       transform="matrix(1.0145,0,0,0.833333,383.128,21.1627)"
       id="g7" /><g
       transform="matrix(0.974184,0,0,0.975398,387.186,5.03056)"
       id="g8"><path
         d="m 94.314,109.202 c 0,5.103 -4.139,9.227 -9.234,9.227 -5.103,0 -9.243,-4.132 -9.243,-9.227 0,-5.11 4.14,-9.227 9.243,-9.227 5.095,0 9.234,4.124 9.234,9.227 z"
         style="fill:#212121"
         id="path7" /></g><g
       transform="matrix(0.974184,0,0,0.975398,383.38,5.03056)"
       id="g9"><path
         d="m 33.551,109.202 c 0,5.103 -4.14,9.227 -9.235,9.227 -5.103,0 -9.242,-4.132 -9.242,-9.227 0,-5.11 4.14,-9.227 9.242,-9.227 5.096,0 9.235,4.124 9.235,9.227 z"
         style="fill:#212121"
         id="path8" /></g><g
       transform="matrix(0.974184,0,0,0.975398,384.231,5.03056)"
       id="g10"><path
         d="m 52.18,109.202 c 0,5.103 -4.139,9.227 -9.234,9.227 -5.103,0 -9.242,-4.132 -9.242,-9.227 0,-5.11 4.139,-9.227 9.242,-9.227 5.103,0 9.235,4.124 9.235,9.227 z"
         style="fill:#212121"
         id="path9" /></g></g><g
     id="Livery"
     transform="translate(-235.15438,1.3540834)"
     clip-path="none"
     style="fill:#fcc21b"><g
       clip-path="none"
       id="g16"
       style="fill:#fcc21b" /><path
       d="m 312,40.879 h 51.15437 V 113 H 270.85336 C 259.21395,113 250.42985,110.90708 250.42985,99.522388 250.42985,90.753582 259.31041,76.65074 271,61 284.86095,42.44211 303.74982,40.879 312,40.879 Z"
       clip-rule="nonzero"
       id="path10"
       sodipodi:nodetypes="sccssss" /></g><g
     id="Windows"
     transform="translate(-235.15438,1.3540834)"
     clip-path="none"><g
       transform="matrix(0.71309,0,0,0.999109,95.4587,-0.0488068)"
       id="g17"><path
         d="M 374,55.002 C 374,53.897 372.743,53 371.195,53 H 312 v 28 h 59.195 C 372.743,81 374,80.103 374,78.998 Z"
         style="fill:#42ade7"
         id="path16" /></g><g
       transform="matrix(1.08333,0,0,1.403,-7.05713,-27.0668)"
       id="g18"><path
         d="m 301.118,76.94 h -19.606 c -1.215,0 -2.337,-0.502 -2.942,-1.315 -0.605,-0.813 -0.601,-1.814 0.01,-2.624 3.346,-4.9 8.962,-12.827 11.461,-14.19 C 293.313,57.026 300,57 300,57 l 1.118,-0.018 z"
         style="fill:#42ade7"
         id="path17" /></g><g
       transform="matrix(1,0,0,1.00303,-6.81535,-0.293948)"
       id="g19"><path
         id="path18"
         style="fill:#42ade7"
         d="m 302.16116,57.05482 c -3.352,0.137 -10.67111,0.58628 -13.16211,1.945278 -2.186,1.191999 -6.38689,7.340589 -9.46289,12.080584 -0.833,1.110999 -0.9648,2.596035 -0.3418,3.836034 0.623,1.239998 1.89511,2.023166 3.28711,2.023166 h 7.85742 c 0.298,0 0.57529,-0.151181 0.73829,-0.399181 1.51399,-2.312997 9.19314,-14.039563 11.86914,-18.132559 0.182,-0.277 0.19139,-0.631143 0.0254,-0.917143 -0.165,-0.285 -0.47955,-0.454179 -0.81055,-0.436179 z" /></g><g
       transform="matrix(1.77778,0,0,0.909091,-367.179,3.24264)"
       id="g20"><path
         d="m 408,61.2 c 0,-1.214 -0.504,-2.2 -1.125,-2.2 h -15.75 C 390.504,59 390,59.986 390,61.2 v 17.6 c 0,1.214 0.504,2.2 1.125,2.2 h 15.75 C 407.496,81 408,80.014 408,78.8 Z"
         style="fill:#94d4f1"
         id="path19" /></g></g></svg>
