<?xml version="1.0" encoding="UTF-8" standalone="no"?>
<svg
   width="100%"
   height="100%"
   viewBox="0 0 128 128"
   version="1.1"
   xml:space="preserve"
   style="fill-rule:evenodd;clip-rule:evenodd;stroke-linejoin:round;stroke-miterlimit:2;"
   id="svg62332"
   sodipodi:docname="mouse trap.svg"
   inkscape:version="1.2.2 (732a01da63, 2022-12-09)"
   xmlns:inkscape="http://www.inkscape.org/namespaces/inkscape"
   xmlns:sodipodi="http://sodipodi.sourceforge.net/DTD/sodipodi-0.dtd"
   xmlns="http://www.w3.org/2000/svg"
   xmlns:svg="http://www.w3.org/2000/svg"><defs
   id="defs62336" /><sodipodi:namedview
   id="namedview62334"
   pagecolor="#ffffff"
   bordercolor="#000000"
   borderopacity="0.25"
   inkscape:showpageshadow="2"
   inkscape:pageopacity="0.0"
   inkscape:pagecheckerboard="0"
   inkscape:deskcolor="#d1d1d1"
   showgrid="false"
   inkscape:zoom="2.9996795"
   inkscape:cx="44.838123"
   inkscape:cy="80.341915"
   inkscape:window-width="1366"
   inkscape:window-height="697"
   inkscape:window-x="-8"
   inkscape:window-y="-8"
   inkscape:window-maximized="1"
   inkscape:current-layer="svg62332" />
    <g
   id="g64426"><g
     id="g62330">
        <path
   d="M104.23,98.02L44.69,98.02L5.47,41.23L65.01,41.23L104.23,98.02Z"
   style="fill:rgb(109,76,65);fill-rule:nonzero;"
   id="path62294" />
        <path
   d="M38.05,20.75C48.62,36.59 62.99,57.95 62.99,57.95L44.69,98.02L104.22,98.02L102.3,33.02C102.31,33.02 31.97,11.64 38.05,20.75Z"
   style="fill:rgb(78,52,46);fill-rule:nonzero;"
   id="path62296" />
        <path
   d="M5.47,41.23L29.77,4L86.56,4L65.01,41.23L5.47,41.23Z"
   style="fill:rgb(204,150,113);fill-rule:nonzero;"
   id="path62298" />
        <path
   d="M86.56,4C86.88,4.95 122.53,57.95 122.53,57.95L104.23,98.02L65.01,41.23L86.56,4Z"
   style="fill:rgb(141,110,99);fill-rule:nonzero;"
   id="path62300" />
        <g
   id="g62304">
            <path
   d="M 26.261671,41.23 C 23.131671,40.18 22.21,36.42 22.47,34.21 c 0.39,-3.28 -0.7,-3.97 -1.51,-4.23 -2.68,-0.87 -4.65,1.29 -4.65,6.39 0,6.26 5.53,8.47 5.53,8.52 v 75.27 c 0,0.74 0.51,1.37 1.23,1.53 0.27,0.06 0.6,0.1 1,0.1 0.49,0 0.87,-0.06 1.18,-0.14 0.66,-0.18 1.1,-0.81 1.1,-1.49 v -74 c 0.22,0.01 6.08,0.2 8.89,-4.93 z"
   style="fill:#ffa95c;fill-rule:nonzero"
   id="path62302"
   sodipodi:nodetypes="cccssssscsccc" />
        </g>
        <g
   transform="matrix(0.422921,0,0,0.422921,33.1098,66.5966)"
   id="g62328">
            
            
            
            
            
            
            
            
            
            
            
        </g>
    </g><g
     id="g64386"
     transform="matrix(1.1176589,0,0,1.1176589,-12.87436,-13.802539)"
     style="stroke-width:0.894727"><path
       d="m 54.318497,95.740651 h 0.0041 c -0.01239,0.08258 -0.01652,0.16935 -0.01652,0.256078 0,1.028457 0.875629,1.862779 1.961904,1.862779 1.082145,0 1.961903,-0.834322 1.961903,-1.862779 0,-0.280854 -0.06609,-0.549328 -0.181734,-0.788887 L 73.31386,93.01877 c 0.276732,1.945383 1.949513,3.44469 3.973372,3.44469 2.217983,0 4.014673,-1.796691 4.014673,-4.014675 0,-0.194124 -0.01652,-0.379989 -0.0413,-0.565853 l 4.989431,-0.714546 c 1.668649,-0.235429 3.329039,0.933452 3.585118,2.55254 v 0.0041 c 0.02065,0.13217 0.03304,0.26434 0.03718,0.400641 l -0.08674,15.141773 c 0.01941,1.5311 -1.127992,2.84703 -2.647536,3.03578 l -37.635505,4.29553 c -1.796691,0.22305 -3.382735,-1.16888 -3.390995,-2.97796 L 45.92156,99.58599 c 0,-0.05778 0,-0.115657 0.0041,-0.173475 0.07435,-1.439004 1.167229,-2.634735 2.593843,-2.837533 z m 31.654797,7.715439 c 0,-1.68929 -1.367138,-3.05643 -3.056439,-3.05643 -1.689302,0 -3.052309,1.36714 -3.052309,3.05643 0,1.68931 1.367137,3.05231 3.052309,3.05231 1.689301,0 3.056439,-1.363 3.056439,-3.05231 z m -11.593817,4.27076 c 0,-1.04084 -0.842586,-1.88343 -1.883428,-1.88343 -1.040842,0 -1.883428,0.84259 -1.883428,1.88343 0,1.04084 0.842586,1.88343 1.883428,1.88343 1.044972,0 1.883428,-0.84672 1.883428,-1.88343 z m -5.228989,-5.61311 c 0,-2.564928 -2.077553,-4.646608 -4.646614,-4.646608 -2.569061,0 -4.646614,2.08168 -4.646614,4.646608 0,2.56494 2.077553,4.64662 4.646614,4.64662 2.569061,0 4.646614,-2.07756 4.646614,-4.64662 z m -9.669087,9.02063 c 0,-1.458 -1.181272,-2.63515 -2.635145,-2.63515 -1.453874,0 -2.635147,1.18127 -2.635147,2.63515 0,1.45388 1.181273,2.63515 2.635147,2.63515 1.453873,0 2.635145,-1.17715 2.635145,-2.63515 z m -6.530041,-7.15372 c 0,-0.78063 -0.631939,-1.41257 -1.41257,-1.41257 -0.780632,0 -1.412572,0.63194 -1.412572,1.41257 0,0.78063 0.63194,1.41257 1.412572,1.41257 0.780631,0 1.41257,-0.63194 1.41257,-1.41257 z"
       style="clip-rule:evenodd;fill:#fcc21b;fill-rule:nonzero;stroke-width:0.894726;stroke-linejoin:round;stroke-miterlimit:2"
       id="path5766" /><path
       d="m 81.256465,91.882932 c -0.400641,-1.40018 -2.027989,-2.436891 -3.899026,-2.436891 -2.17668,0 -4.060107,1.449744 -4.060107,3.188609 0,0.136301 -0.0083,0.25608 0.0083,0.388251 l -15.265674,2.189071 -0.01652,0.0041 c -0.309786,-0.458469 -0.983029,-0.776504 -1.759529,-0.776504 -1.053233,0 -1.91234,0.578245 -1.949513,1.305183 l -5.798974,0.830197 c -1.426614,0.202798 -2.519498,1.398529 -2.593844,2.837533 0.06195,-2.6558 1.53235,-3.403393 1.53235,-3.403393 L 67.944433,81.342346 c 2.003207,-1.458004 4.564007,-1.92473 6.947203,-1.251487 2.284069,0.64433 5.133992,1.619086 7.310673,2.920139 2.531887,1.515828 4.869651,3.903155 6.364826,5.613109 0.095,0.111518 0.63607,0.7765 0.916932,1.656259 0.297383,0.921062 0.334556,2.077553 0.342817,3.44469 -0.256081,-1.619087 -1.91647,-2.787969 -3.58512,-2.55254 z m -4.993561,-7.471756 c 0,-0.809542 -0.88802,-1.462134 -1.986685,-1.462134 -1.098667,0 -1.990817,0.656722 -1.990817,1.462134 0,0.805414 0.88802,1.466266 1.990817,1.466266 1.098665,0 1.986685,-0.656722 1.986685,-1.466266 z m -8.57455,4.208801 c 0,-1.098667 -1.329965,-1.986687 -2.973833,-1.986687 -1.639738,0 -2.969702,0.88802 -2.969702,1.986687 0,1.098665 1.329964,1.990815 2.969702,1.990815 1.639738,-0.0041 2.973833,-0.89215 2.973833,-1.990815 z"
       style="clip-rule:evenodd;fill:#ffee58;fill-rule:nonzero;stroke-width:0.894726;stroke-linejoin:round;stroke-miterlimit:2"
       id="path5768" /><circle
       cx="82.920982"
       cy="103.45611"
       r="3.0564394"
       style="clip-rule:evenodd;fill:#f79329;fill-rule:evenodd;stroke-width:0.894726;stroke-linejoin:round;stroke-miterlimit:2"
       id="circle5770" /><ellipse
       cx="74.276215"
       cy="84.411179"
       rx="1.9866854"
       ry="1.4662647"
       style="clip-rule:evenodd;fill:#fcc21b;fill-rule:evenodd;stroke-width:0.894726;stroke-linejoin:round;stroke-miterlimit:2"
       id="ellipse5774" /><circle
       cx="72.496048"
       cy="107.72685"
       r="1.8834274"
       style="clip-rule:evenodd;fill:#f79329;fill-rule:evenodd;stroke-width:0.894726;stroke-linejoin:round;stroke-miterlimit:2"
       id="circle5776" /><circle
       cx="64.503876"
       cy="102.11374"
       r="4.6466136"
       style="clip-rule:evenodd;fill:#f79329;fill-rule:evenodd;stroke-width:0.894726;stroke-linejoin:round;stroke-miterlimit:2"
       id="circle5778" /><ellipse
       cx="64.714516"
       cy="88.61998"
       rx="2.9738326"
       ry="1.9866854"
       style="clip-rule:evenodd;fill:#fcc21b;fill-rule:evenodd;stroke-width:0.894726;stroke-linejoin:round;stroke-miterlimit:2"
       id="ellipse5780" /><circle
       cx="56.846252"
       cy="111.13436"
       r="2.6351464"
       style="clip-rule:evenodd;fill:#f79329;fill-rule:evenodd;stroke-width:0.894726;stroke-linejoin:round;stroke-miterlimit:2"
       id="circle5782" /><path
       id="path5784"
       style="clip-rule:evenodd;fill:#fcc21b;fill-opacity:1;fill-rule:nonzero;stroke-width:0.894726;stroke-linejoin:round;stroke-miterlimit:2"
       d="m 77.361537,89.441523 c -2.180808,10e-7 -4.06014,1.450036 -4.06014,3.1889 0,0.135888 -0.01172,0.248711 0.0065,0.375924 l 0.0016,0.0121 c 1.94e-4,0.0014 6.19e-4,0.0027 8.26e-4,0.004 l 7.946032,-1.138258 c -6.9e-5,-5.37e-4 7.1e-5,-0.001 0,-0.0016 -0.400641,-1.400179 -2.027861,-2.436956 -3.894766,-2.441086 z m -21.093688,4.994303 c -1.053232,0 -1.911824,0.577504 -1.948996,1.304439 -1.95e-4,9.4e-4 1.89e-4,0.0028 0,0.0038 l 3.726164,-0.53404 c -3.78e-4,-7.43e-4 -4.13e-4,-0.0017 -8.26e-4,-0.0024 l -0.01694,0.004 c -0.309776,-0.45816 -0.978793,-0.775744 -1.759424,-0.775744 z" /><circle
       cx="51.542919"
       cy="103.98065"
       r="1.4125706"
       style="clip-rule:evenodd;fill:#f79329;fill-rule:evenodd;stroke-width:0.894726;stroke-linejoin:round;stroke-miterlimit:2"
       id="circle5786" /><path
       id="path62678"
       style="clip-rule:evenodd;fill:#f79329;fill-rule:nonzero;stroke-width:0.894726;stroke-linejoin:round;stroke-miterlimit:2"
       d="m 81.256303,91.884222 -7.946032,1.138259 c 0.278497,1.947509 1.954705,3.440594 3.973017,3.440594 2.217981,0 4.014157,-1.796179 4.014157,-4.01416 0,-0.189456 -0.01648,-0.379332 -0.04114,-0.564693 z m -23.211286,3.326039 -3.726164,0.534035 c -0.01194,0.08146 -0.01694,0.167124 -0.01694,0.252499 0,1.028457 0.875629,1.862685 1.961903,1.862685 1.082143,0 1.961904,-0.834228 1.961904,-1.862685 0,-0.279971 -0.06167,-0.54755 -0.180703,-0.786534 z" /></g></g>
</svg>
