<?xml version="1.0" encoding="UTF-8" standalone="no"?>
<svg
   width="100%"
   height="100%"
   viewBox="0 0 128 128"
   version="1.1"
   xml:space="preserve"
   style="fill-rule:evenodd;clip-rule:evenodd;stroke-linejoin:round;stroke-miterlimit:2;"
   id="svg19"
   sodipodi:docname="nesting dolls.svg"
   inkscape:version="1.3 (0e150ed6c4, 2023-07-21)"
   xmlns:inkscape="http://www.inkscape.org/namespaces/inkscape"
   xmlns:sodipodi="http://sodipodi.sourceforge.net/DTD/sodipodi-0.dtd"
   xmlns="http://www.w3.org/2000/svg"
   xmlns:svg="http://www.w3.org/2000/svg"><defs
   id="defs19" /><sodipodi:namedview
   id="namedview19"
   pagecolor="#ffffff"
   bordercolor="#000000"
   borderopacity="0.25"
   inkscape:showpageshadow="2"
   inkscape:pageopacity="0.0"
   inkscape:pagecheckerboard="0"
   inkscape:deskcolor="#d1d1d1"
   inkscape:zoom="2.0273438"
   inkscape:cx="64.369942"
   inkscape:cy="65.356455"
   inkscape:window-width="1366"
   inkscape:window-height="697"
   inkscape:window-x="-8"
   inkscape:window-y="-8"
   inkscape:window-maximized="1"
   inkscape:current-layer="svg19" />&#10;    &#10;<g
   id="g20"
   transform="translate(133.26372,8.57188)"><path
     style="fill:#db4437;fill-opacity:1;stroke-width:6;stroke-linecap:round"
     d="m -69.289521,55.571776 c -29.851889,0 -54.345769,-0.96696 -54.345769,14.020869 0,14.98784 11.48152,47.263595 53.963052,47.263595 42.481542,0 55.111194,-30.825315 55.111194,-45.813155 0,-14.987839 -24.876582,-15.471309 -54.728477,-15.471309 z"
     id="path44"
     sodipodi:nodetypes="zszsz" /><path
     id="path38"
     style="fill:#e0e0e0;fill-opacity:1;stroke-width:6;stroke-linecap:round"
     d="m -77.91565,42.090633 c -6.45911,0.0052 -12.37653,0.09717 -17.44268,0.578565 -0.64274,2.483029 -1.03284,5.174619 -1.03284,8.031344 0,9.526402 7.07661,25.516549 27.968458,24.944949 20.891845,-0.57157 28.488804,-14.910083 28.488804,-24.944949 0,-2.526027 -0.359541,-4.970744 -0.942847,-7.285637 -7.651219,-1.221154 -17.603325,-1.315701 -28.407558,-1.315701 -2.953387,0 -5.840047,-0.01086 -8.631337,-0.0086 z"
     sodipodi:nodetypes="scssscsss" /><path
     id="path45"
     style="fill:#ed6c30;stroke-width:6;stroke-linecap:round"
     d="m -14.528537,68.152456 c 0,7.281559 -14.900538,13.184429 -54.735326,13.184429 -39.834777,0 -54.735327,-5.90287 -54.735327,-13.184429 0,-7.28155 8.96785,-13.18441 54.735327,-13.18441 45.767476,0 54.735326,5.90286 54.735326,13.18441 z"
     sodipodi:nodetypes="szszs" /><path
     id="path46"
     style="fill:#4e342e;stroke-width:6;stroke-linecap:round"
     d="m -25.546384,66.598666 c 0,3.709489 -11.901161,6.716609 -43.717479,6.716609 -31.816307,0 -43.717477,-3.00712 -43.717477,-6.716609 0,-3.70948 7.16269,-6.71662 43.717477,-6.71662 36.554796,0 43.71748,3.00714 43.717479,6.71662 z"
     sodipodi:nodetypes="szszs" /><path
     style="fill:#b22424;fill-opacity:1;stroke-width:6;stroke-linecap:round"
     d="m -69.284142,42.099569 c -23.627118,0 -43.013488,-0.765326 -43.013488,11.09722 0,11.862546 9.08737,37.408102 42.710576,37.408102 33.623214,0 43.619308,-24.397566 43.619308,-36.260113 0,-11.862547 -19.689272,-12.245209 -43.316396,-12.245209 z"
     id="path34"
     sodipodi:nodetypes="zszsz" /><path
     id="path39"
     style="fill:#ed6c30;stroke-width:6;stroke-linecap:round"
     d="m -25.942017,52.056912 c 0,5.763192 -11.793451,10.435182 -43.321817,10.435182 -31.528356,0 -43.321816,-4.671989 -43.321816,-10.435182 0,-5.763191 7.09786,-10.435181 43.321816,-10.435181 36.223959,0 43.321817,4.671991 43.321817,10.435181 z"
     sodipodi:nodetypes="szszs" /><path
     id="path40"
     style="fill:#4e342e;stroke-width:6;stroke-linecap:round"
     d="m -34.662403,50.827116 c 0,2.935976 -9.419509,5.316055 -34.601431,5.316055 -25.181916,0 -34.601426,-2.380078 -34.601426,-5.316055 0,-2.935977 5.66911,-5.316056 34.601426,-5.316056 28.932324,0 34.601432,2.38008 34.601431,5.316056 z"
     sodipodi:nodetypes="szszs" /><path
     style="fill:#db4437;stroke-width:6;stroke-linecap:round"
     d="M -68.395189,-6 C -79.8264,-6 -86.94638,0.928544 -90.27426,17.528072 c -2.55344,12.736626 -9.0641,16.106154 -9.0641,29.507189 0,13.401034 14.9722,21.21733 31.407635,21.21733 16.435437,0 29.003704,-8.454441 29.003704,-19.941041 0,-11.486601 -5.952547,-14.145751 -8.326597,-29.60626 C -49.627668,3.244782 -56.963986,-6 -68.395189,-6 Z"
     id="path31"
     sodipodi:nodetypes="zsssszz" /><path
     id="path42"
     style="fill:#e0e0e0;fill-opacity:1;stroke-width:6;stroke-linecap:round"
     d="m -42.337081,60.803139 c -6.628862,1.064188 -15.457661,1.689453 -26.927734,1.689453 -10.232625,0 -18.354645,-0.499573 -24.701175,-1.361328 3.56054,7.667057 11.37052,14.901427 25.542972,14.513677 14.371912,-0.3932 22.444055,-7.3015 26.085937,-14.841802 z" /><path
     id="path33"
     style="fill:#ffffff;fill-opacity:1;stroke-width:6;stroke-linecap:round"
     d="m -80.34881,29.693767 c -2.5272,0.677162 -8.66601,7.162663 -8.66601,16.051725 0,6.23993 6.32315,14.054329 21.050786,13.679934 14.727634,-0.374394 18.748047,-7.106953 18.748047,-13.679934 0,-8.042335 -5.747782,-14.957077 -8.588153,-15.824457 -2.461083,-0.751559 -3.939982,2.134447 -11.352646,2.134447 -7.412664,0 -8.664824,-3.038877 -11.192024,-2.361715 z"
     sodipodi:nodetypes="zsssszz" /><path
     id="use27-2"
     d="m -82.25448,13.860829 c 0,6.99 6,11.73 13.42,11.73 7.4,0 13.41,-4.74 13.41,-11.73 0,-6.99 -6,-13.58 -13.41,-13.58 -7.42,0 -13.42,6.59 -13.42,13.58 z"
     style="fill:#ffe0b2" /><path
     d="m -60.194478,14.690829 c 0.02,-0.76 -0.33,-1.54 -1.06,-2.05 -0.81,-0.57 -2.24,-0.59 -3.12,-0.16 -1.18,0.57 -1.55,2.07 -1.03,3.19 0.68,1.46 2.59,1.88 3.98,1.14 0.79,-0.42 1.22,-1.23 1.23,-2.12 z m -17.310002,0 c -0.02,-0.76 0.33,-1.54 1.06,-2.05 0.81,-0.57 2.24,-0.59 3.12,-0.16 1.18,0.57 1.55,2.07 1.03,3.19 -0.68,1.46 -2.57,1.88 -3.98,1.14 -0.78,-0.42 -1.21,-1.23 -1.23,-2.12 z"
     fill="#2f2f2f"
     id="path28-4" /><path
     id="path32"
     style="fill:#855c52;stroke-width:6;stroke-linecap:round"
     d="m -68.835128,0.281655 c -6.734192,0 -12.298442,5.427412 -13.269532,11.65625 1.46442,-0.230794 3.55691,-0.62415 6.00195,-1.279297 4.736119,-1.269039 6.626481,-3.662109 8.283208,-3.662109 2.441491,0 3.82227,1.529642 7.0625,3.40039 1.854795,1.070867 3.850531,1.648243 5.236328,1.955078 C -56.304387,5.951989 -61.96172,0.281655 -68.835128,0.281655 Z" /><path
     id="path41"
     style="fill:#ed6c30;stroke-width:6;stroke-linecap:round"
     d="m -112.58629,52.057081 c 0,5.763186 11.79317,10.434627 43.321488,10.434627 31.528333,0 43.323655,-4.671442 43.323655,-10.434627 l -8.721546,-1.229516 c 0,2.935972 -9.420212,5.314894 -34.602109,5.314894 -25.181888,0 -34.599948,-2.378921 -34.599948,-5.314894 z"
     sodipodi:nodetypes="csccscc" /><path
     id="path47"
     style="fill:#ed6c30;stroke-width:6;stroke-linecap:round"
     d="m -124,68.152676 c 0,7.281539 14.90019,13.183719 54.734914,13.183719 39.834746,0 54.737649,-5.90218 54.737649,-13.183719 l -11.019313,-1.55344 c 0,3.709469 -11.902049,6.715139 -43.718336,6.715139 -31.816274,0 -43.715604,-3.00567 -43.715604,-6.715139 z"
     sodipodi:nodetypes="csccscc" /><path
     id="path48"
     style="fill:#ffffff;fill-opacity:1;stroke-width:6;stroke-linecap:round"
     d="m -35.243023,79.202955 c -8.375293,1.34456 -19.530116,2.13456 -34.02208,2.13456 -12.928497,0 -23.190337,-0.6312 -31.208917,-1.71998 4.4986,9.687 14.36619,18.82732 32.272493,18.33742 18.158317,-0.49679 28.357137,-9.22515 32.958504,-18.752 z" /></g></svg>
