<?xml version="1.0" encoding="UTF-8" standalone="no"?>
<svg
   width="128px"
   height="128px"
   version="1.1"
   xml:space="preserve"
   style="fill-rule:evenodd;clip-rule:evenodd;stroke-linecap:round;stroke-linejoin:round;stroke-miterlimit:1.5;"
   id="svg9564"
   sodipodi:docname="nest with eggs.svg"
   inkscape:version="1.2.2 (732a01da63, 2022-12-09)"
   xmlns:inkscape="http://www.inkscape.org/namespaces/inkscape"
   xmlns:sodipodi="http://sodipodi.sourceforge.net/DTD/sodipodi-0.dtd"
   xmlns="http://www.w3.org/2000/svg"
   xmlns:svg="http://www.w3.org/2000/svg"
   xmlns:serif="http://www.serif.com/"><defs
     id="defs9568" /><sodipodi:namedview
     id="namedview9566"
     pagecolor="#ffffff"
     bordercolor="#000000"
     borderopacity="0.25"
     inkscape:showpageshadow="2"
     inkscape:pageopacity="0.0"
     inkscape:pagecheckerboard="0"
     inkscape:deskcolor="#d1d1d1"
     showgrid="false"
     inkscape:zoom="2.9996795"
     inkscape:cx="68.840687"
     inkscape:cy="74.674643"
     inkscape:window-width="1366"
     inkscape:window-height="697"
     inkscape:window-x="-8"
     inkscape:window-y="-8"
     inkscape:window-maximized="1"
     inkscape:current-layer="svg9564" /><path
     style="fill:#855c52;stroke-width:35.9054;stroke-linecap:round"
     d="m 131.04637,82.044159 c 0,0 -25.03157,10.221174 -66.595514,10.221174 -33.633995,0 -44.234057,-8.37164 -45.417813,-4.207584 -1.183758,4.164057 15.079029,11.13892 44.569482,11.13892 44.831525,0 69.145585,-10.053077 69.145585,-10.053077 z"
     id="path9743"
     sodipodi:nodetypes="cszscc" /><g
     transform="matrix(1.0129657,0,0,1.0160398,0.96842857,-17.724012)"
     id="g9336"
     style="fill:#f28d5e;fill-opacity:1;stroke-width:1.05909"><path
       id="ellipse9334"
       style="fill:#f28d5e;fill-opacity:1;stroke:none;stroke-width:0.984937px"
       d="m 110.72374,81.509003 c 0,15.739009 -15.739253,28.497997 -44.549736,28.497997 -28.810485,0 -44.549741,-12.758987 -44.549742,-28.497997 -1e-6,-15.739011 15.739255,-28.498 44.549742,-28.498 28.810485,10e-7 44.549736,12.75899 44.549736,28.498 z"
       sodipodi:nodetypes="sssss" /></g><g
     transform="matrix(0.6878571,0,0,0.58644304,22.00446,12.940313)"
     id="g9340"
     style="fill:#6d4a41;stroke-width:0.982655"><path
       id="ellipse9338"
       style="fill:#6d4a41;stroke-width:0.982655"
       d="m 110.82516,81.509003 c 0,15.739009 -15.840673,28.497997 -44.651156,28.497997 -28.810485,0 -44.448318,-12.758987 -44.448319,-28.497997 -10e-7,-15.739011 15.637832,-28.498 44.448319,-28.498 28.810485,10e-7 44.651166,12.75899 44.651156,28.498 z"
       sodipodi:nodetypes="sssss" /></g><path
     style="fill:#f28d5e;fill-opacity:1;stroke-width:35.9054;stroke-linecap:round"
     d="m 22.87319,65.092364 c 0,0 -0.104142,-14.487117 5.722637,-23.256821 3.451076,-5.194103 8.263475,-10.48611 9.999461,-9.328786 1.735984,1.157322 -6.504354,11.378412 -7.673245,18.555024"
     id="path9745"
     sodipodi:nodetypes="cssc" /><path
     style="fill:#f28d5e;fill-opacity:1;stroke-width:35.9054;stroke-linecap:round"
     d="m 113.12775,65.092363 c 0,0 0.0108,-18.832603 -14.015369,-34.795223 -5.427695,-6.177299 -12.737763,-11.781413 -15.026874,-10.255334 -2.28912,1.52608 7.292385,3.909538 14.950796,26.754008"
     id="path10179"
     sodipodi:nodetypes="cssc" /><path
     style="fill:#f28d5e;fill-opacity:1;stroke-width:35.9054;stroke-linecap:round"
     d="m 105.3295,46.184734 c 0,0 -6.614296,-10.974566 -23.812669,-15.888692 -6.655507,-1.901698 -14.382637,-2.540446 -15.308319,-0.417658 -0.925683,2.122787 9.255321,0.565979 20.813229,9.769886"
     id="path10963"
     sodipodi:nodetypes="cssc" /><path
     d="m 25.431939,81.392869 c -1.558556,-1.253791 -3.313861,-2.264538 -5.20805,-2.91651 -2.94737,-1.0609 -6.133925,-1.276937 -9.243325,-1.018462 C 8.2723775,77.68551 5.421452,78.468644 3.0103177,76.744199 2.8174269,76.609177 2.5705266,76.173244 2.3274844,76.138524 1.9609918,76.09223 1.9532764,76.65547 1.926272,76.88694 1.6948031,78.715545 1.8221108,80.57887 2.1808879,82.380469 3.4153883,88.603124 7.2230514,95.369731 13.403272,97.780863 17.392254,99.335571 26.284973,99.742016 28.952653,93.635085 31.620332,87.528162 27.908658,83.3835 25.431939,81.392869 Z"
     fill="#757f3f"
     id="path12192"
     style="stroke-width:1"
     sodipodi:nodetypes="ccccccccsc" /><g
     id="Ebene1"
     transform="matrix(0.22035196,-0.06698353,0.06698353,0.22035196,30.584893,59.80874)"
     style="clip-rule:evenodd;fill-rule:evenodd;stroke-width:1.48005;stroke-linecap:round;stroke-linejoin:round;stroke-miterlimit:1.5"><path
       d="m 64,3.78 c -25.09,0 -47.36,32.62 -47.36,70.89 0,31.99 21.96,49.56 47.36,49.56 25.4,0 47.36,-17.57 47.36,-49.56 C 111.36,36.4 89.09,3.78 64,3.78 Z"
       style="fill:#40c0e7;fill-rule:nonzero;stroke-width:1.48005"
       id="path13513" /><path
       d="m 100.33,30.17 c 0.3,18.78 -4.39,39.85 -16.99,55.16 -18.91,22.99 -49.4,20.24 -60.93,14.81 8.16,15.71 24.05,24.09 41.59,24.09 25.41,0 47.36,-17.57 47.36,-49.56 0,-16.64 -4.21,-32.21 -11.03,-44.5 z"
       style="fill:#197cb7;fill-rule:nonzero;stroke-width:1.48005"
       id="path13515" /></g><g
     id="g13983"
     serif:id="Ebene1"
     transform="matrix(0.23896636,-0.03523153,0.03523153,0.23896636,50.244848,53.798679)"
     style="clip-rule:evenodd;fill-rule:evenodd;stroke-width:1.21158;stroke-linecap:round;stroke-linejoin:round;stroke-miterlimit:1.5"><path
       d="m 64,3.78 c -25.09,0 -47.36,32.62 -47.36,70.89 0,31.99 21.96,49.56 47.36,49.56 25.4,0 47.36,-17.57 47.36,-49.56 C 111.36,36.4 89.09,3.78 64,3.78 Z"
       style="fill:#40c0e7;fill-rule:nonzero;stroke-width:1.21158"
       id="path13979" /><path
       d="m 100.33,30.17 c 0.3,18.78 -4.39,39.85 -16.99,55.16 -18.91,22.99 -49.4,20.24 -60.93,14.81 8.16,15.71 24.05,24.09 41.59,24.09 25.41,0 47.36,-17.57 47.36,-49.56 0,-16.64 -4.21,-32.21 -11.03,-44.5 z"
       style="fill:#197cb7;fill-rule:nonzero;stroke-width:1.21158"
       id="path13981" /></g><g
     id="Ebene11"
     serif:id="Ebene1"
     transform="matrix(0.21636506,0.0575083,-0.0575083,0.21636506,75.897831,50.889934)"
     style="clip-rule:evenodd;fill-rule:evenodd;stroke-width:1.30722;stroke-linecap:round;stroke-linejoin:round;stroke-miterlimit:1.5"><path
       d="m 64,3.78 c -25.09,0 -47.36,32.62 -47.36,70.89 0,31.99 21.96,49.56 47.36,49.56 25.4,0 47.36,-17.57 47.36,-49.56 C 111.36,36.4 89.09,3.78 64,3.78 Z"
       style="fill:#40c0e7;fill-rule:nonzero;stroke-width:1.30722"
       id="path13518" /><path
       d="m 100.33,30.17 c 0.3,18.78 -4.39,39.85 -16.99,55.16 -18.91,22.99 -49.4,20.24 -60.93,14.81 8.16,15.71 24.05,24.09 41.59,24.09 25.41,0 47.36,-17.57 47.36,-49.56 0,-16.64 -4.21,-32.21 -11.03,-44.5 z"
       style="fill:#197cb7;fill-rule:nonzero;stroke-width:1.30722"
       id="path13520" /></g><path
     style="fill:#f28d5e;fill-opacity:1;stroke:none;stroke-width:35.9054;stroke-linecap:round"
     d="m 43.137672,74.032646 c 0,0 10.033515,-1.164951 19.649405,-2.985683 8.610535,-1.630375 16.886204,-4.010373 17.323125,-2.894098 0.925702,2.365064 -4.444913,5.740677 -16.409356,7.428113 -15.833682,2.233144 -22.289099,2.394792 -22.289099,2.394792 z"
     id="path10961"
     sodipodi:nodetypes="cssscc" /><path
     id="path13889"
     style="fill:#f28d5e;fill-opacity:1;stroke:none;stroke-width:0.99922px"
     d="M 23.232422 61.052734 C 22.999434 62.373828 22.873047 63.719858 22.873047 65.091797 C 22.873048 81.083226 38.816025 94.046875 68 94.046875 C 97.183973 94.046875 113.12695 81.083225 113.12695 65.091797 C 113.12695 63.719858 113.00057 62.373828 112.76758 61.052734 L 98.224609 61.052734 C 97.980574 70.138194 87.116216 77.453125 67.523438 77.453125 C 47.930659 77.453125 37.201881 70.138194 36.960938 61.052734 L 23.232422 61.052734 z " /></svg>
