<?xml version="1.0" encoding="UTF-8" standalone="no"?>
<svg
   width="128px"
   height="128px"
   version="1.1"
   xml:space="preserve"
   style="fill-rule:evenodd;clip-rule:evenodd;stroke-linecap:round;stroke-linejoin:round;stroke-miterlimit:1.5;"
   id="svg9564"
   sodipodi:docname="nest with eggs.svg"
   inkscape:version="1.2.2 (732a01da63, 2022-12-09)"
   xmlns:inkscape="http://www.inkscape.org/namespaces/inkscape"
   xmlns:sodipodi="http://sodipodi.sourceforge.net/DTD/sodipodi-0.dtd"
   xmlns="http://www.w3.org/2000/svg"
   xmlns:svg="http://www.w3.org/2000/svg"
   xmlns:serif="http://www.serif.com/"><defs
     id="defs9568" /><sodipodi:namedview
     id="namedview9566"
     pagecolor="#ffffff"
     bordercolor="#000000"
     borderopacity="0.25"
     inkscape:showpageshadow="2"
     inkscape:pageopacity="0.0"
     inkscape:pagecheckerboard="0"
     inkscape:deskcolor="#d1d1d1"
     showgrid="false"
     inkscape:zoom="2.9996795"
     inkscape:cx="68.840687"
     inkscape:cy="74.674643"
     inkscape:window-width="1366"
     inkscape:window-height="697"
     inkscape:window-x="-8"
     inkscape:window-y="-8"
     inkscape:window-maximized="1"
     inkscape:current-layer="svg9564" /><g
     transform="matrix(1.2448861,0,0,1.248664,-18.379085,-27.731208)"
     id="g9336"
     style="fill:#f28d5e;fill-opacity:1;stroke-width:0.861783"><path
       id="ellipse9334"
       style="fill:#f28d5e;fill-opacity:1;stroke:none;stroke-width:0.801445px"
       d="m 110.72374,81.509003 c 0,15.739009 -15.739253,28.497997 -44.549736,28.497997 -28.810485,0 -44.549741,-12.758987 -44.549742,-28.497997 -1e-6,-15.739011 15.739255,-28.498 44.549742,-28.498 28.810485,10e-7 44.549736,12.75899 44.549736,28.498 z"
       sodipodi:nodetypes="sssss" /></g><g
     transform="matrix(0.84534329,0,0,0.72071029,7.4731859,9.9537724)"
     id="g9340"
     style="fill:#6d4a41;stroke-width:0.799588"><path
       id="ellipse9338"
       style="fill:#6d4a41;stroke-width:0.799588"
       d="m 110.82516,81.509003 c 0,15.739009 -15.840673,28.497997 -44.651156,28.497997 -28.810485,0 -44.448318,-12.758987 -44.448319,-28.497997 -10e-7,-15.739011 15.637832,-28.498 44.448319,-28.498 28.810485,10e-7 44.651166,12.75899 44.651156,28.498 z"
       sodipodi:nodetypes="sssss" /></g><path
     style="fill:#f28d5e;fill-opacity:1;stroke-width:35.9054;stroke-linecap:round"
     d="m 8.5408133,74.046135 c 0,0 -0.1279855,-17.80397 7.0328457,-28.581515 4.241206,-6.383302 10.155413,-12.886925 12.288857,-11.464629 2.13344,1.422293 -7.993539,13.983521 -9.43005,22.803232"
     id="path9745"
     sodipodi:nodetypes="cssc" /><path
     style="fill:#f28d5e;fill-opacity:1;stroke-width:35.9054;stroke-linecap:round"
     d="m 119.45933,74.046133 c 0,0 0.0133,-23.144363 -17.22422,-42.761655 -6.670374,-7.591603 -15.654096,-14.47879 -18.467303,-12.603312 -2.813219,1.875479 8.96199,4.804634 18.373813,32.879389"
     id="path10179"
     sodipodi:nodetypes="cssc" /><path
     style="fill:#f28d5e;fill-opacity:1;stroke-width:35.9054;stroke-linecap:round"
     d="m 109.87565,50.809567 c 0,0 -8.12865,-13.487214 -29.264623,-19.526438 -8.179298,-2.337096 -17.675569,-3.122086 -18.813187,-0.513282 -1.13762,2.608803 11.374344,0.695561 25.578457,12.00672"
     id="path10963"
     sodipodi:nodetypes="cssc" /><g
     id="Ebene1"
     transform="matrix(0.27080196,-0.08231954,0.08231954,0.27080196,18.018125,67.552815)"
     style="clip-rule:evenodd;fill-rule:evenodd;stroke-width:1.20432;stroke-linecap:round;stroke-linejoin:round;stroke-miterlimit:1.5"><path
       d="m 64,3.78 c -25.09,0 -47.36,32.62 -47.36,70.89 0,31.99 21.96,49.56 47.36,49.56 25.4,0 47.36,-17.57 47.36,-49.56 C 111.36,36.4 89.09,3.78 64,3.78 Z"
       style="fill:#40c0e7;fill-rule:nonzero;stroke-width:1.20432"
       id="path13513" /><path
       d="m 100.33,30.17 c 0.3,18.78 -4.39,39.85 -16.99,55.16 -18.91,22.99 -49.4,20.24 -60.93,14.81 8.16,15.71 24.05,24.09 41.59,24.09 25.41,0 47.36,-17.57 47.36,-49.56 0,-16.64 -4.21,-32.21 -11.03,-44.5 z"
       style="fill:#197cb7;fill-rule:nonzero;stroke-width:1.20432"
       id="path13515" /></g><g
     id="g13983"
     serif:id="Ebene1"
     transform="matrix(0.29367816,-0.04329786,0.04329786,0.29367816,42.179264,60.166739)"
     style="clip-rule:evenodd;fill-rule:evenodd;stroke-width:0.985865;stroke-linecap:round;stroke-linejoin:round;stroke-miterlimit:1.5"><path
       d="m 64,3.78 c -25.09,0 -47.36,32.62 -47.36,70.89 0,31.99 21.96,49.56 47.36,49.56 25.4,0 47.36,-17.57 47.36,-49.56 C 111.36,36.4 89.09,3.78 64,3.78 Z"
       style="fill:#40c0e7;fill-rule:nonzero;stroke-width:0.985865"
       id="path13979" /><path
       d="m 100.33,30.17 c 0.3,18.78 -4.39,39.85 -16.99,55.16 -18.91,22.99 -49.4,20.24 -60.93,14.81 8.16,15.71 24.05,24.09 41.59,24.09 25.41,0 47.36,-17.57 47.36,-49.56 0,-16.64 -4.21,-32.21 -11.03,-44.5 z"
       style="fill:#197cb7;fill-rule:nonzero;stroke-width:0.985865"
       id="path13981" /></g><g
     id="Ebene11"
     serif:id="Ebene1"
     transform="matrix(0.26590225,0.07067493,-0.07067493,0.26590225,73.705547,56.592031)"
     style="clip-rule:evenodd;fill-rule:evenodd;stroke-width:1.06369;stroke-linecap:round;stroke-linejoin:round;stroke-miterlimit:1.5"><path
       d="m 64,3.78 c -25.09,0 -47.36,32.62 -47.36,70.89 0,31.99 21.96,49.56 47.36,49.56 25.4,0 47.36,-17.57 47.36,-49.56 C 111.36,36.4 89.09,3.78 64,3.78 Z"
       style="fill:#40c0e7;fill-rule:nonzero;stroke-width:1.06369"
       id="path13518" /><path
       d="m 100.33,30.17 c 0.3,18.78 -4.39,39.85 -16.99,55.16 -18.91,22.99 -49.4,20.24 -60.93,14.81 8.16,15.71 24.05,24.09 41.59,24.09 25.41,0 47.36,-17.57 47.36,-49.56 0,-16.64 -4.21,-32.21 -11.03,-44.5 z"
       style="fill:#197cb7;fill-rule:nonzero;stroke-width:1.06369"
       id="path13520" /></g><path
     style="fill:#f28d5e;fill-opacity:1;stroke:none;stroke-width:35.9054;stroke-linecap:round"
     d="m 33.444887,85.033311 c 0,0 12.330707,-1.431669 24.148174,-3.669261 10.581933,-2.003652 20.752332,-4.928555 21.289287,-3.556707 1.137643,2.90655 -5.462584,7.055016 -20.166309,9.128794 -19.458834,2.744426 -27.392231,2.943084 -27.392231,2.943084 z"
     id="path10961"
     sodipodi:nodetypes="cssscc" /><path
     id="path13889"
     style="fill:#f28d5e;fill-opacity:1;stroke:none;stroke-width:0.99922px"
     d="m 8.9822922,69.081624 c -0.2863311,1.623561 -0.4416546,3.277767 -0.4416546,4.963814 1.2e-6,19.652697 19.5931534,35.584402 55.4588544,35.584402 35.865699,0 55.458848,-15.931706 55.458848,-35.584402 0,-1.686047 -0.15531,-3.340253 -0.44165,-4.963814 h -17.87261 c -0.2999,11.165593 -13.651678,20.155291 -37.73026,20.155291 -24.078583,0 -37.263735,-8.989698 -37.559842,-20.155291 z" /></svg>
