<?xml version="1.0" encoding="UTF-8" standalone="no"?>
<svg
   width="100%"
   height="100%"
   viewBox="0 0 128 128"
   version="1.1"
   xml:space="preserve"
   style="fill-rule:evenodd;clip-rule:evenodd;stroke-linejoin:round;stroke-miterlimit:2;"
   id="svg5"
   sodipodi:docname="palm down hand medium-light skin tone.svg"
   inkscape:version="1.3 (0e150ed6c4, 2023-07-21)"
   xmlns:inkscape="http://www.inkscape.org/namespaces/inkscape"
   xmlns:sodipodi="http://sodipodi.sourceforge.net/DTD/sodipodi-0.dtd"
   xmlns="http://www.w3.org/2000/svg"
   xmlns:svg="http://www.w3.org/2000/svg"><sodipodi:namedview
   id="namedview5"
   pagecolor="#ffffff"
   bordercolor="#000000"
   borderopacity="0.25"
   inkscape:showpageshadow="2"
   inkscape:pageopacity="0.0"
   inkscape:pagecheckerboard="0"
   inkscape:deskcolor="#d1d1d1"
   inkscape:zoom="4.0546875"
   inkscape:cx="63.38343"
   inkscape:cy="64.246628"
   inkscape:window-width="1366"
   inkscape:window-height="697"
   inkscape:window-x="-8"
   inkscape:window-y="-8"
   inkscape:window-maximized="1"
   inkscape:current-layer="svg5"
   showguides="false" />&#10;    &#10;    &#10;    &#10;    &#10;    &#10;    <defs
   id="defs5">&#10;        <linearGradient
   id="_Linear1"
   x1="0"
   y1="0"
   x2="1"
   y2="0"
   gradientUnits="userSpaceOnUse"
   gradientTransform="matrix(16.5047,-25.6882,33.2068,21.3354,44.8131,61.3841)"><stop
     offset="0"
     style="stop-color:rgb(255,143,0);stop-opacity:0"
     id="stop4" /><stop
     offset="1"
     style="stop-color:rgb(255,160,0);stop-opacity:1"
     id="stop5" /></linearGradient>&#10;    </defs>&#10;<path
   style="fill:#e0bb95;fill-opacity:1;stroke-width:3.99999;stroke-linecap:round"
   d="m 103.78738,82.184029 c -5.54396,0 -8.98502,-2.771981 -12.521677,-11.374677 C 87.72901,62.206656 86.39083,60.486139 81.420411,57.33182 c -4.970457,-3.154318 -9.271808,-3.632239 -9.271808,-7.933605 0,-4.301329 5.639531,-5.639547 12.139336,-5.639547 6.499842,0 15.580411,9.749745 19.881781,17.109808 4.30133,7.360063 6.11746,13.095194 6.11746,16.058344 0,2.963149 -2.29406,5.257209 -6.4998,5.257209 z"
   id="path2" /><path
   id="path8"
   style="fill:#c48e6a;fill-opacity:1;stroke-width:3.99999;stroke-linecap:round"
   d="m 97.04789,79.944508 c -1.30593,-1.081852 -2.50413,-2.604624 -3.66406,-4.675805 l -2.00586,-12.345713 5.498303,1.456617 c 0,0 1.956777,7.007937 1.956777,10.990652 0,2.022577 -0.8995,3.553512 -1.78516,4.574249 z"
   sodipodi:nodetypes="ccccsc" /><path
   style="fill:#e0bb95;fill-opacity:1;stroke-width:3.99999;stroke-linecap:round"
   d="m 90.727366,79.246656 c -4.596057,0 -6.961663,-4.460863 -9.462463,-11.422526 -2.500801,-6.961702 -4.122936,-8.98938 -7.840339,-12.301228 -3.7174,-3.311849 -7.145609,-5.455597 -7.145609,-9.279005 0,-3.823408 4.396928,-3.823408 8.124759,-3.823408 3.727847,0 18.734726,7.455647 18.734726,16.44068 0,8.985033 6.6481,20.385487 -2.411074,20.385487 z"
   id="path3" /><path
   id="path9"
   style="fill:#c48e6a;fill-opacity:1;stroke-width:3.99999;stroke-linecap:round"
   d="m 85.905312,76.981585 c -1.802313,-1.976012 -3.200447,-5.149077 -4.640625,-9.158174 -0.01852,-0.05102 -0.03439,-0.08995 -0.05272,-0.140598 l 0.17382,-16.876952 9.026387,4.425074 c 0,0 0.524141,9.991935 -0.494835,15.877642 -0.46351,2.677342 -2.590724,4.582677 -4.012023,5.873046 z"
   sodipodi:nodetypes="cccccscc" /><path
   style="fill:#e0bb95;fill-opacity:1;stroke-width:3.99999;stroke-linecap:round"
   d="m 81.495352,74.515443 c -3.041537,0 -5.136794,-2.5008 -6.556158,-6.758929 C 73.51983,63.498423 74.06053,59.240293 68.991352,56.0636 c -5.069178,-3.176693 -8.88796,-5.001599 -8.88796,-8.887937 0,-3.886375 4.557898,-5.519849 7.903389,-5.519849 3.34549,0 18.925912,3.345486 18.925912,15.484838 0,12.139351 0.595541,17.37479 -5.437341,17.374791 z"
   id="path4" /><path
   id="path7"
   style="fill:#c48e6a;fill-opacity:1;stroke-width:3.99999;stroke-linecap:round"
   d="m 109.96391,78.735513 c -0.92652,-0.248693 -2.222,-0.619314 -3.40039,-1.664051 -2.70779,-2.400793 -6.34644,-5.022689 -9.88559,-8.879508 -2.7853,-3.035302 -8.751984,-11.258873 -26.043954,-11.258873 -12.425413,0 -12.902816,4.986822 -12.902816,4.986822 l -1.46372,-6.634734 c 1.791734,-0.497348 11.185678,-3.073436 14.147641,-3.073436 10.138356,0 18.114962,-0.136441 27.171869,10.137071 6.32501,7.174564 9.41888,10.97983 12.50586,12.626948 0.13221,0.742942 0.19533,1.395591 0.19533,1.951143 0,0.64029 -0.11388,1.247207 -0.32421,1.808618 z"
   sodipodi:nodetypes="csssccsscscc" /><path
   style="fill:#e0bb95;fill-opacity:1;stroke-width:3.99999;stroke-linecap:round"
   d="m 17.425733,55.590479 c 5.822623,0 1.466593,7.551648 12.776826,13.976278 6.686294,3.798047 21.355669,11.302035 27.776629,19.750677 7.164449,9.935622 6.826499,11.084636 10.138371,11.084636 4.393289,0 7.705149,-3.176692 7.705149,-8.583836 0,-5.407105 -2.989051,-11.16359 -8.819758,-16.420762 -5.830723,-5.25721 -9.27179,-8.985033 -9.27179,-13.477569 0,-4.492498 2.54606,-8.637052 12.684427,-8.637052 10.138367,0 17.253619,1.182652 27.075223,10.787112 9.792,9.575471 11.58573,11.932422 16.85768,11.932422 5.27195,0 6.62373,-3.244271 6.62373,-5.812649 0,-2.568378 -3.92016,-5.947842 -7.70517,-13.51782 C 109.48208,49.101937 99.88443,40.856067 84.879665,35.71931 69.874869,30.582515 55.182522,27.597932 19.090094,27.597932 c -7.870247,0 -12.062314,1.518503 -12.062314,15.993303 0,11.230602 3.801929,11.999244 10.397953,11.999244 z"
   id="path1"
   sodipodi:nodetypes="sscsssssssssssss" /></svg>
