<?xml version="1.0" encoding="UTF-8" standalone="no"?>
<!-- Generator: Adobe Illustrator 26.3.1, SVG Export Plug-In . SVG Version: 6.00 Build 0)  -->

<svg
   version="1.1"
   id="Layer_6"
   x="0px"
   y="0px"
   viewBox="0 0 128 128"
   style="enable-background:new 0 0 128 128;"
   xml:space="preserve"
   sodipodi:docname="pea pod.svg"
   inkscape:version="1.2.2 (732a01da63, 2022-12-09)"
   xmlns:inkscape="http://www.inkscape.org/namespaces/inkscape"
   xmlns:sodipodi="http://sodipodi.sourceforge.net/DTD/sodipodi-0.dtd"
   xmlns="http://www.w3.org/2000/svg"
   xmlns:svg="http://www.w3.org/2000/svg"><defs
   id="defs3074">
	
	
	
	
	
	
	
	
	
	
	
	
	
	
	
</defs><sodipodi:namedview
   id="namedview3072"
   pagecolor="#ffffff"
   bordercolor="#000000"
   borderopacity="0.25"
   inkscape:showpageshadow="2"
   inkscape:pageopacity="0.0"
   inkscape:pagecheckerboard="0"
   inkscape:deskcolor="#d1d1d1"
   showgrid="false"
   inkscape:zoom="2.9996795"
   inkscape:cx="46.671652"
   inkscape:cy="72.341061"
   inkscape:window-width="1366"
   inkscape:window-height="697"
   inkscape:window-x="-8"
   inkscape:window-y="-8"
   inkscape:window-maximized="1"
   inkscape:current-layer="Layer_6" />
<g
   id="g6713"><g
     id="g6689"><path
       style="fill:#689f38"
       d="m 8.47,111.58 c 0,0 47.81,8.47 75.37,-39.89 16.23,-28.47 12.79,-52.12 12.79,-52.12 0,0 -24.39,5.79 -52.3,36.86 C 15.14,88.92 8.47,111.58 8.47,111.58 Z"
       id="path3041" /><path
       style="fill:#487628;fill-opacity:1"
       d="m 14.54,111.22 c 0,0 42.45,-1.21 67.69,-38.7 17.35,-25.77 10.1,-44.65 10.1,-44.65 0,0 -7.63,1.77 -13.58,5.3 -6.65,3.95 -18.05,12.37 -32.27,28.29 -25,27.97 -31.94,49.76 -31.94,49.76 z"
       id="path3043" /></g><g
     id="g6681"><circle
       style="fill:#9ccc65"
       cx="43.16"
       cy="102.81"
       r="16.860001"
       id="circle3047" /><path
       style="fill:#2f2f2f;fill-opacity:1"
       d="m 54.48,100.45 c -3.91,-2.06 -6.32,-4.84 -7.28,-9.85 -0.5,-2.63 0.24,-4.82 1.56,-4.63 0.78,0.11 8.67,7.49 12.06,8.82 z"
       id="path3049" /><circle
       style="fill:#9ccc65"
       cx="64.879997"
       cy="77.769997"
       r="18.66"
       id="circle3051" /><path
       style="fill:#2f2f2f;fill-opacity:1"
       d="M 79.34,76.32 C 74.21,74.57 70.05,71.1 68.45,65.53 c -0.93,-3.27 -0.78,-6.09 0.83,-6.13 0.96,-0.02 12.02,7.55 16.37,8.48 z"
       id="path3053" /><circle
       style="fill:#9ccc65"
       cx="85.660004"
       cy="54.029999"
       r="16.860001"
       id="circle3055" /></g><path
     style="fill:#689f38"
     d="M 52.74,106.8"
     id="path3045" /><g
     id="g6685"><path
       style="fill:#6fa03b;fill-opacity:1"
       d="m 111.62,35.54 c 0,-5.38 -7.28,-5.2 -15.59,-1.75 0,0 1.14,31.94 -31.05,58.73 -32.19,26.79 -56.51,19.06 -56.51,19.06 -2.04,3.42 1.3,6.63 2.58,7.39 15.26,9.11 48.81,7.05 72.83,-16.16 23.6,-22.8 27.76,-41.36 27.74,-67.27 z"
       id="path3039" /><path
       style="fill:#bcdd97;fill-opacity:1"
       d="m 8.47,111.58 c 0.85,-1.23 3.06,-1.44 6.07,-1.47 11.02,-0.12 30.49,-2.85 53.03,-23.5 C 84.03,71.52 90.83,54.3 92.01,42.76 93.26,30.59 90.89,25.18 92.43,23.64 c 1.53,-1.53 3.91,1.67 4.74,7.67 0.84,6 4.09,32.19 -26.03,59.19 -19.61,17.57 -37.72,24.47 -49.5,24.5 -11.27,0.03 -14.31,-1.77 -13.17,-3.42 z"
       id="path3057" /></g><path
     style="fill:#285318;fill-opacity:1"
     d="m 119.72,41.64 c -0.94,-0.76 -2.86,1.46 -4.48,0.73 -3.34,-1.5 -3.51,-9.49 -2.9,-14.3 0.96,-7.56 4.1,-15.19 4.34,-16.39 0.72,-3.53 0.21,-5.65 -1.63,-6.89 -2.83,-1.9 -5.12,-0.23 -7.23,1.62 -3.36,2.95 -6.82,5.77 -10.46,8.36 -2.38,1.69 -15.31,9.15 -15.86,2.12 -0.14,-1.76 2.3,-3.92 -0.29,-4.23 -3.16,-0.37 -7.57,5.33 -5.81,10.17 1.49,4.07 4.271644,6.24 9.840134,6.24 3.953395,0 5.442643,-1.183747 6.199812,-0.218224 C 92.197115,29.817298 90.76,33.52 92.48,38.82 c 1.18,3.64 3.92,6.78 7.43,8.3 1.55,0.67 3.98,1.34 5.12,0.08 0.62,-0.69 0.21,-1.37 -1.21,-2.59 -1.48,-1.28 -2.01,-3.32 -2.18,-5.53 -0.33,-4.43 2.49,-6.58 3.41,-5.94 0.92,0.64 0.19,2.9 0.86,6.2 0.69,3.35 3.15,9.23 8.67,8.41 4.09,-0.61 6.7,-4.85 5.14,-6.11 z"
     id="path3065"
     sodipodi:nodetypes="ccccccccccszcccccsccc" /></g>
</svg>
