<?xml version="1.0" encoding="UTF-8" standalone="no"?>
<svg
   width="128px"
   height="128px"
   version="1.1"
   xml:space="preserve"
   style="fill-rule:evenodd;clip-rule:evenodd;stroke-linecap:round;stroke-miterlimit:10;"
   id="svg11"
   sodipodi:docname="person bowing medium-light skin tone.svg"
   inkscape:version="1.3 (0e150ed6c4, 2023-07-21)"
   xmlns:inkscape="http://www.inkscape.org/namespaces/inkscape"
   xmlns:sodipodi="http://sodipodi.sourceforge.net/DTD/sodipodi-0.dtd"
   xmlns="http://www.w3.org/2000/svg"
   xmlns:svg="http://www.w3.org/2000/svg"><defs
     id="defs11" /><sodipodi:namedview
     id="namedview11"
     pagecolor="#ffffff"
     bordercolor="#000000"
     borderopacity="0.25"
     inkscape:showpageshadow="2"
     inkscape:pageopacity="0.0"
     inkscape:pagecheckerboard="0"
     inkscape:deskcolor="#d1d1d1"
     inkscape:zoom="4.0546875"
     inkscape:cx="64"
     inkscape:cy="64"
     inkscape:window-width="1366"
     inkscape:window-height="697"
     inkscape:window-x="-8"
     inkscape:window-y="-8"
     inkscape:window-maximized="1"
     inkscape:current-layer="svg11" /><path
     d="M113.05,95.9C99.04,81.41 68.83,80.36 64.5,80.28L64.5,80.27L63.96,80.27L63.96,80.28C59.63,80.36 29.42,81.41 15.41,95.9C5.2,106.46 7.4,116.7 9.52,119.71C13.53,125.39 24.27,127.96 24.27,127.96L104.17,127.96C104.17,127.96 114.91,125.39 118.92,119.71C121.05,116.7 123.26,106.46 113.05,95.9Z"
     style="fill:#da4105;fill-rule:nonzero;"
     id="path1" /><path
     d="M84.27,99.19C76.7,96.75 66.41,96.87 64,96.93C61.59,96.86 51.3,96.74 43.73,99.19C28.54,104.1 26.74,110.31 26.74,110.31L50.4,128L77.61,128L101.26,110.31C101.27,110.31 99.47,104.1 84.27,99.19Z"
     style="fill-opacity:0.2;fill-rule:nonzero;"
     id="path2" /><path
     d="M72.7,90.91L55.21,90.91L55.21,100.15C55.21,104.33 58.77,107.72 63.16,107.72L64.75,107.72C69.14,107.72 72.7,104.33 72.7,100.15L72.7,90.91Z"
     style="fill:#c48e6a;fill-rule:nonzero;"
     id="path3" /><g
     id="g4"><path
       d="M94.86,67.97C94.86,67.97 100.49,68.95 100.49,75.01C100.49,80.36 96.38,82.48 92.27,82.48L92.27,67.97L94.86,67.97ZM33.41,67.97C33.41,67.97 27.78,68.95 27.78,75.01C27.78,80.36 31.89,82.48 36,82.48L36,67.97L33.41,67.97Z"
       style="fill:#c48e6a;fill-rule:nonzero;"
       id="path4" /></g><path
     d="M64.13,28.23C39.85,28.23 33.49,45.68 33.49,70.2C33.49,95.62 51.11,102.2 64.13,102.2C76.95,102.2 94.77,95.81 94.77,70.2C94.77,45.69 88.42,28.23 64.13,28.23Z"
     style="fill:#e0bb95;fill-rule:nonzero;"
     id="path5" /><path
     d="M54.05,77.88C54.05,80.61 52.22,82.82 49.96,82.82C47.7,82.82 45.86,80.61 45.86,77.88C45.86,75.14 47.7,72.93 49.96,72.93C52.22,72.93 54.05,75.14 54.05,77.88M74.22,77.88C74.22,80.61 76.05,82.82 78.32,82.82C80.58,82.82 82.42,80.61 82.42,77.88C82.42,75.14 80.58,72.93 78.32,72.93C76.05,72.93 74.22,75.14 74.22,77.88"
     style="fill:#444;fill-rule:nonzero;"
     id="path6" /><path
     d="M68.42,88.97C66.91,89.4 65.35,89.61 64.14,89.61C62.93,89.61 61.37,89.4 59.86,88.97C59.21,88.79 58.96,89.4 59.19,89.8C59.67,90.64 61.6,92.34 64.14,92.34C66.68,92.34 68.61,90.64 69.09,89.8C69.32,89.4 69.06,88.79 68.42,88.97Z"
     style="fill:#c48e6a;fill-rule:nonzero;"
     id="path7" /><g
     id="g8"><path
       d="M52.56,18.99L49.86,8.9M37.69,26.42L30.3,19.04M90.31,26.42L97.7,19.04M75.44,18.99L78.14,8.9"
       style="fill:none;fill-rule:nonzero;stroke:#444;stroke-width:4px;"
       id="path8" /></g><g
     id="g9"><path
       d="M36.9,117.41L42.27,117.77C43.48,117.77 44.68,117.95 45.84,118.3C49.44,119.4 57.38,122.17 61.69,123.27C62.75,123.54 63.49,124.5 63.49,125.59C63.49,126.907 62.407,127.99 61.09,127.99L33.76,127.99L36.9,117.41ZM91.12,117.41L85.75,117.77C84.54,117.77 83.34,117.95 82.18,118.3C78.58,119.4 70.64,122.17 66.33,123.27C65.27,123.54 64.53,124.5 64.53,125.59C64.53,126.907 65.613,127.99 66.93,127.99L94.26,127.99L91.12,117.41Z"
       style="fill:#e0bb95;fill-rule:nonzero;"
       id="path9" /></g><g
     id="g10"><path
       d="M27.24,106.22L38.83,113.98C39.61,114.5 39.9,115.51 39.52,116.37L34.29,128L24.27,128L27.24,106.22ZM100.78,106.22L89.19,113.98C88.41,114.5 88.12,115.51 88.5,116.37L93.72,128L104.17,128L100.78,106.22Z"
       style="fill:#da4105;fill-rule:nonzero;"
       id="path10" /></g><g
     transform="matrix(1,0,0,0.918588,60.3495,17.5257)"
     id="g11"><path
       d="m -18.81,19.165 c 4.989,-3.96 11.975,-7.298 21.816,-7.493 0,0 0.469,-0.019 0.685,-0.019 0.195,0 0.682,0.019 0.682,0.019 7.113,0.2 12.948,2.025 17.612,4.558 1.556,0.491 3.049,1.13 4.342,1.87 0.786,0.449 1.499,0.948 2.206,1.512 0.146,0.117 0.683,0.413 0.731,0.591 0.055,0.199 -0.411,-0.03 -0.618,-0.048 C 28.35,20.13 28.05,20.109 27.753,20.071 L 27.656,20.06 c 1.153,0.952 2.193,1.935 3.12,2.917 0.518,0.312 1.031,0.654 1.537,1.037 0.628,0.474 1.142,1.057 1.635,1.663 0.17,0.21 0.346,0.415 0.494,0.643 0.093,0.143 0.441,0.411 0.273,0.43 -0.314,0.036 -0.692,-0.13 -1.033,-0.239 0.937,1.319 1.664,2.57 2.19,3.663 1.851,3.853 2.933,7.585 3.524,10.998 1.116,1.493 2.024,3.12 2.191,4.719 0.026,0.247 -0.385,-0.314 -0.585,-0.457 -0.373,-0.268 -0.767,-0.501 -1.151,-0.751 0.206,2.391 0.187,4.556 0.061,6.407 0.707,0.86 1.757,1.984 1.881,3.118 0.01,0.103 -0.189,-0.086 -0.281,-0.132 -0.258,-0.128 -0.493,-0.248 -0.728,-0.419 -0.356,-0.258 -0.702,-0.537 -1.027,-0.837 -0.348,3.109 -0.939,4.967 -0.939,4.967 0,0 -0.409,-0.428 -1.189,-1.034 -0.84,-0.644 -1.757,-1.015 -1.757,-1.015 1.225,5.533 2.267,14.384 0,18.212 -3.69,-3.096 -8.713,-7.162236 -10.084,-25.317236 -1.254,1.098 -2.53,2.084 -3.631,2.551 0.08,0.333 0.159,0.665 0.264,0.977 0.12,0.357 0.262,0.709 0.436,1.042 0.093,0.176 0.503,0.543 0.306,0.512 -0.478,-0.072 -1.205,-0.806 -1.629,-1.068 -0.857,-0.532 -1.758,-0.974 -2.71,-1.272 -0.94,-0.059 -1.879,-0.149 -2.803,-0.308 0.346,1.159 0.627,2.341 0.729,3.545 0.036,0.428 0.08,1.673 -0.249,1.973 0,0 -0.313,-0.42 -0.338,-0.457 -0.214,-0.306 -0.432,-0.61 -0.65,-0.912 -0.626,-0.864 -1.249,-1.722 -1.97,-2.512 -1.338,-1.468 -2.722,-2.855 -4.258,-4.04 -1.482,-0.673 -2.965,-1.342 -4.533,-1.824 -2.084,-0.643 -4.228,-0.731 -6.356,-1.119 -0.371,-0.069 -0.74,-0.155 -1.105,-0.254 -0.214,0.008 -0.428,0.017 -0.64,0.029 1.214,2.937 1.621,6.191 0.684,9.231 -0.417,1.35 -1.03,2.637 -1.833,3.797 -0.06,0.086 -0.635,0.927 -0.788,0.864 -0.438,-0.183 -1.098,-1.602 -1.373,-2.002 -1.031,-1.5 -2.126,-3.045 -3.426,-4.332 -2.392,-2.373 -5.275,-3.931 -8.235,-5.369 0.181,11.015 -3.188,19.364236 -10.172,26.265236 -1.801,-4.039 -1.524,-13.243 0,-18.212 0,0 -0.937,0.371 -1.755,1.015 -0.761,0.606 -1.192,1.034 -1.192,1.034 0,0 -1.323,-4.952 -1.342,-11.21 -0.352,0.31 -0.986,1.104 -1.386,1.167 -0.117,0.019 0.021,-0.237 0.034,-0.356 0.033,-0.285 0.079,-0.57 0.125,-0.853 0.107,-0.659 0.248,-1.313 0.434,-1.956 0.248,-0.864 0.602,-1.673 1.017,-2.451 0.422,-3.952 1.516,-8.072 3.828,-11.6 -0.471,-0.036 -0.928,-0.084 -1.36,-0.136 -0.554,-0.069 -1.109,-0.185 -1.633,-0.378 -0.068,-0.025 -0.43,-0.107 -0.453,-0.18 0,0 1,-0.484 1.153,-0.566 1.264,-0.671 2.511,-1.43 3.738,-2.17 0.641,-0.388 1.293,-0.822 1.937,-1.287 1.13,-1.436 2.47,-2.975 4.063,-4.493 -0.436,-0.346 -0.824,-0.771 -1.149,-1.3 -0.367,-0.601 -0.711,-1.293 -0.795,-2.002 -0.029,-0.241 0.137,-0.857 0.546,-0.778 1.085,0.208 1.574,1.776 2.75,2.042 0.298,0.067 0.719,-0.01 1.122,-0.115 z"
       style="fill:#bfa055;fill-rule:nonzero"
       id="path11"
       sodipodi:nodetypes="ccsccccccccccccccccccccccccccccccccccccccccccccccccccccccccccccccccccccccccccc" /></g></svg>
