<?xml version="1.0" encoding="UTF-8" standalone="no"?>
<svg
   width="100%"
   height="100%"
   viewBox="0 0 128 128"
   version="1.1"
   xml:space="preserve"
   style="fill-rule:evenodd;clip-rule:evenodd;stroke-linejoin:round;stroke-miterlimit:2;"
   id="svg5"
   sodipodi:docname="pinched fingers.svg"
   inkscape:version="1.3 (0e150ed6c4, 2023-07-21)"
   xmlns:inkscape="http://www.inkscape.org/namespaces/inkscape"
   xmlns:sodipodi="http://sodipodi.sourceforge.net/DTD/sodipodi-0.dtd"
   xmlns:xlink="http://www.w3.org/1999/xlink"
   xmlns="http://www.w3.org/2000/svg"
   xmlns:svg="http://www.w3.org/2000/svg"><sodipodi:namedview
   id="namedview5"
   pagecolor="#ffffff"
   bordercolor="#000000"
   borderopacity="0.25"
   inkscape:showpageshadow="2"
   inkscape:pageopacity="0.0"
   inkscape:pagecheckerboard="0"
   inkscape:deskcolor="#d1d1d1"
   inkscape:zoom="2.867097"
   inkscape:cx="86.149857"
   inkscape:cy="62.60688"
   inkscape:window-width="1366"
   inkscape:window-height="697"
   inkscape:window-x="-8"
   inkscape:window-y="-8"
   inkscape:window-maximized="1"
   inkscape:current-layer="svg5" />&#10;    &#10;    &#10;    &#10;    &#10;    &#10;    <defs
   id="defs5">&#10;        <linearGradient
   id="_Linear1"
   x1="0"
   y1="0"
   x2="1"
   y2="0"
   gradientUnits="userSpaceOnUse"
   gradientTransform="matrix(16.5047,-25.6882,33.2068,21.3354,44.8131,61.3841)"><stop
     offset="0"
     style="stop-color:rgb(255,143,0);stop-opacity:0"
     id="stop4" /><stop
     offset="1"
     style="stop-color:rgb(255,160,0);stop-opacity:1"
     id="stop5" /></linearGradient>&#10;    <linearGradient
   inkscape:collect="always"
   xlink:href="#linearGradient13"
   id="linearGradient14"
   x1="100.24141"
   y1="205.54565"
   x2="95.47538"
   y2="226.39848"
   gradientUnits="userSpaceOnUse"
   gradientTransform="translate(-18.68395,-181.27167)" /><linearGradient
   id="linearGradient13"
   inkscape:collect="always"><stop
     style="stop-color:#e48c15;stop-opacity:1;"
     offset="0"
     id="stop13" /><stop
     style="stop-color:#fac036;stop-opacity:1;"
     offset="1"
     id="stop14" /></linearGradient></defs>&#10;<g
   id="g5"
   transform="translate(-4.3598105,0.80209626)"><path
     d="M 118.1703,36.081202 C 112.72346,18.336301 106.7697,8.116408 100.44345,5.6714452 94.117208,3.226485 90.927766,5.684594 89.597869,9.1256514 86.171515,17.991215 100.41763,34.513806 101.34294,46.280409"
     style="fill:#e48c15;fill-opacity:1;stroke:none;stroke-width:4;stroke-linecap:round;stroke-dasharray:none;stroke-opacity:1"
     id="path1"
     sodipodi:nodetypes="cssc" /><path
     style="fill:#fac036;fill-opacity:1;stroke:none;stroke-width:4;stroke-linecap:round;stroke-dasharray:none;stroke-opacity:1"
     d="M 41.501529,83.456025 H 27.181251 c -6.23068,0 -12.89232,3.660066 -12.89232,17.962425 0,14.30235 6.70139,17.96242 12.89232,17.96242 12.011932,0 17.068316,2.33012 33.839031,2.33012 40.940278,0 61.410408,-31.44509 61.410408,-59.067445 0,-18.99036 -3.8678,-32.5516 -15.72649,-41.96879 C 94.845519,11.257565 92.465372,6.9055846 85.683092,6.9055846 c -6.78227,0 -8.87113,3.4426024 -8.87113,7.1317084 0,9.504637 13.06381,13.708369 17.87306,22.217039 4.809251,8.50868 7.377688,15.167177 7.377688,18.226764 0,3.760021 -8.695462,8.409079 -12.063621,8.409079 -1.97303,0 -4.06937,-3.69942 -4.06937,-6.53565 -9.618496,-6.031399 -19.236991,0.724439 -28.855487,4.80925 -5.425819,13.07129 -6.362392,22.29225 -15.572703,22.29225 z"
     id="path11"
     sodipodi:nodetypes="sszsssssssssccs" /><path
     d="m 85.929719,56.354525 c 0,-2.83622 4.43931,-18.62042 4.43931,-23.30635 0,-10.85164 -6.28902,-16.27746 -12.578034,-16.27746 -6.289017,0 -8.613394,4.16275 -8.613394,7.36892 0,3.95845 2.498769,5.62137 2.498769,11.78344 0,6.24928 -9.176319,12.16941 -14.602138,25.2407 9.728388,0.649709 19.567676,3.572873 28.855487,-4.80925 z"
     style="fill:url(#linearGradient14);stroke:none;stroke-width:4;stroke-linecap:round;stroke-dasharray:none;stroke-opacity:1"
     id="path1-3"
     sodipodi:nodetypes="csssscc" /></g></svg>
