<?xml version="1.0" encoding="UTF-8" standalone="no"?>
<svg
   width="100%"
   height="100%"
   viewBox="0 0 128 128"
   version="1.1"
   xml:space="preserve"
   style="fill-rule:evenodd;clip-rule:evenodd;stroke-linejoin:round;stroke-miterlimit:2;"
   id="svg11412"
   sodipodi:docname="pinched fingers.svg"
   inkscape:version="1.2.2 (732a01da63, 2022-12-09)"
   xmlns:inkscape="http://www.inkscape.org/namespaces/inkscape"
   xmlns:sodipodi="http://sodipodi.sourceforge.net/DTD/sodipodi-0.dtd"
   xmlns="http://www.w3.org/2000/svg"
   xmlns:svg="http://www.w3.org/2000/svg"
   xmlns:serif="http://www.serif.com/"><sodipodi:namedview
   id="namedview11414"
   pagecolor="#ffffff"
   bordercolor="#000000"
   borderopacity="0.25"
   inkscape:showpageshadow="2"
   inkscape:pageopacity="0.0"
   inkscape:pagecheckerboard="0"
   inkscape:deskcolor="#d1d1d1"
   showgrid="false"
   inkscape:zoom="2.1210938"
   inkscape:cx="13.907919"
   inkscape:cy="93.819521"
   inkscape:window-width="1366"
   inkscape:window-height="697"
   inkscape:window-x="-8"
   inkscape:window-y="-8"
   inkscape:window-maximized="1"
   inkscape:current-layer="svg11412" />
    <path
   id="hand_x5F_fill_1_"
   d="M103.65,27.08C101.82,25.55 90.05,14.06 89.54,13.57L89.45,13.47C89.42,13.43 86.19,9.7 83.55,6.93C82.81,6.16 81.95,6.06 81.35,6.12C79.87,6.25 78.05,7.96 76.71,8.46C75.6,8.88 75.45,8.34 74.34,8.77C72.9,9.33 70.47,11.38 70.05,12.87C69.63,14.35 70.15,17.3 69.52,17.09C67.44,16.43 61.75,15.58 60.44,18.41C60.05,19.26 59.65,20.48 59.2,21.89C57.71,26.52 56.38,32.76 50.04,40.26C49.18,41.28 48.21,42.38 47.16,43.58C42.76,48.6 37.43,54.33 32.59,62.31C29.74,67.02 27.55,71.73 25.89,76.96C24.94,79.94 23.8,85.62 23.19,88.94C18.2,93.76 8.57,105.96 8.66,106.34C8.94,107.52 22.9,121.34 43.89,124.27C43.89,124.27 46.61,122.45 48.98,120.36C51.17,118.44 58.12,113.87 58.12,113.87C58.12,113.87 58.03,113.79 57.91,113.67C70.52,111.25 83.25,103.82 91.59,96.28C96.76,91.6 102.47,86.02 104.75,78.91C107.78,69.49 108.9,49.68 108.91,38.66C108.94,35.11 108.31,30.96 103.65,27.08ZM75.63,58.82C73.98,59.19 60.25,59.77 59.21,59.67C60.14,55.86 63.04,49.96 65.1,46.67C66.19,44.93 67.24,43.14 68,41.22C68.56,39.83 68.72,38.08 69.51,36.85C70.65,39.23 71.55,41.76 72.82,44.13C73.74,45.84 74.61,47.46 75.12,49.06C75.61,50.6 77.92,58.3 75.63,58.82Z"
   style="fill:#fac036;fill-rule:nonzero;fill-opacity:1" />
    <path
   id="hand_x5F_fill_2_"
   d="M103.65,27.08C101.82,25.55 90.05,14.06 89.54,13.57L89.45,13.47C89.42,13.43 86.19,9.7 83.55,6.93C82.81,6.16 81.95,6.06 81.35,6.12C79.87,6.25 78.05,7.96 76.71,8.46C75.6,8.88 75.45,8.34 74.34,8.77C72.9,9.33 70.47,11.38 70.05,12.87C69.63,14.35 70.15,17.3 69.52,17.09C67.44,16.43 61.75,15.58 60.44,18.41C60.05,19.26 59.65,20.48 59.2,21.89C57.71,26.52 56.38,32.76 50.04,40.26C49.18,41.28 48.21,42.38 47.16,43.58C43.51,47.74 38.78,51.89 36.97,57.18C34.86,63.35 35.85,69.8 38.16,75.78C42.97,88.23 53.74,99.27 67.03,100.49C71.13,100.87 75.25,100.31 79.33,99.76C85.26,98.96 90.08,97.86 94.44,93.63C98.76,89.44 102.88,84.74 104.76,78.91C107.79,69.49 108.91,49.68 108.92,38.66C108.94,35.11 108.31,30.96 103.65,27.08ZM75.63,58.82L59.21,59.67C59.21,59.67 68.72,38.08 69.52,36.85C70.66,39.23 74.62,47.45 75.13,49.06C75.61,50.6 75.63,58.82 75.63,58.82Z"
   style="fill:rgb(252,194,27);fill-rule:nonzero;" />
    <path
   id="hand_x5F_fill_2_1"
   serif:id="hand_x5F_fill_2_"
   d="M 103.65,27.08 C 101.82,25.55 90.05,14.06 89.54,13.57 l -0.09,-0.1 C 89.42,13.43 86.19,9.7 83.55,6.93 82.81,6.16 81.95,6.06 81.35,6.12 79.87,6.25 78.05,7.96 76.71,8.46 75.6,8.88 75.45,8.34 74.34,8.77 c -1.44,0.56 -3.87,2.61 -4.29,4.1 -0.42,1.48 0.1,4.43 -0.53,4.22 -2.08,-0.66 -7.77,-1.51 -9.08,1.32 -0.39,0.85 -0.79,2.07 -1.24,3.48 -1.49,4.63 -2.82,10.87 -9.16,18.37 -0.86,1.02 -1.83,2.12 -2.88,3.32 -3.65,4.16 -8.38,8.31 -10.19,13.6 -2.11,6.17 -1.12,12.62 1.19,18.6 4.81,12.45 15.58,23.49 28.87,24.71 4.1,0.38 8.22,-0.18 12.3,-0.73 5.93,-0.8 10.75,-1.9 15.11,-6.13 4.32,-4.19 8.44,-8.89 10.32,-14.72 3.03,-9.42 4.15,-29.23 4.16,-40.25 0.02,-3.55 -0.61,-7.7 -5.27,-11.58 z M 75.63,58.82 59.21,59.67 c 0,0 9.926711,-20.756578 10.726711,-21.986578 1.14,2.38 4.683289,9.766578 5.193289,11.376578 0.48,1.54 0.5,9.76 0.5,9.76 z"
   style="fill:url(#_Linear1);fill-rule:nonzero"
   sodipodi:nodetypes="cccccccccccccccccccccccccc" />
    <path
   d="M49.64,63.08C49.64,63.08 50.818,62.189 54.327,60.991C65.486,57.18 68.631,58.544 75.628,58.448L80.51,57.325C81.36,57.335 77.14,57.81 77.13,58.64C77.12,59.47 76.488,59.615 75.63,59.67C68.592,60.118 58.13,60.79 49.64,63.08Z"
   style="fill:#e48c15;fill-rule:nonzero;fill-opacity:1"
   id="path11395" />
    <g
   id="hand_x5F_stroke">
        <path
   id="hand_x5F_fill"
   d="M75.911,7.186C77.167,5.591 78.875,4.598 80.7,4.43C82.45,4.27 84.09,4.87 85.3,6.14C87.77,8.72 90.73,12.14 91.12,12.58C95.27,16.63 103.37,24.48 104.67,25.57C110.21,30.18 110.91,35.27 110.91,39.19C110.9,50.13 109.77,69.87 106.71,79.39C104.25,87.03 98.36,92.82 93.02,97.64C82.12,107.51 69.03,111.99 62.74,114.14L61.65,114.52C56.8,116.2 51.89,119.54 46.78,124.65L43.08,124.14C47.258,119.718 51.34,116.382 55.386,114.089C49.867,114.676 44.438,113.502 40.26,107.52C37.98,104.25 37.73,95.86 40.41,91.07C52.22,69.99 71.02,71.1 76.58,69.47C76.371,68.425 76.188,67.373 76.023,66.318C75.644,64.142 75.279,61.836 74.96,59.72C74.34,55.56 73.8,51.97 73.2,50.08C72.73,48.61 71.9,47.05 70.93,45.26C69.16,41.97 66.96,37.87 66.33,32.56C65.71,27.31 65.47,23.94 67.42,21.4C67.855,20.833 68.356,20.343 68.9,19.942C68.033,16.402 68.355,13.117 69.85,10.62C70.9,8.86 72.43,7.67 74.18,7.28C74.799,7.141 75.375,7.116 75.911,7.186Z"
   style="fill:#fac036;fill-rule:nonzero;fill-opacity:1" />
        <path
   d="M71.007,18.888C69.937,18.668 71.45,18.31 73.65,18.76C75.67,19.17 77.2,20.79 77.85,23.19C78.12,23.83 79.67,27.41 80.81,29.6C81.29,30.52 82.15,31.84 83.14,33.37C84.71,35.78 86.66,38.79 88.33,42.04C91.03,47.3 93.069,51.735 93.909,60.585C94.209,63.775 94.736,64.547 93.938,64.527C93.718,64.522 92.902,62.827 92.792,62.327C91.912,58.127 90.684,50.207 87.054,42.707C85.524,39.557 83.544,36.657 82.014,34.297C80.984,32.707 80.084,31.337 79.544,30.287C78.234,27.787 76.514,23.737 76.434,23.567L76.364,23.357C76.124,22.417 72.167,19.118 71.007,18.888Z"
   style="fill:#e48c15;fill-rule:nonzero;fill-opacity:1"
   id="path11398" />
        <path
   d="M104.85,57.84C105.02,59.86 103.003,55.324 99.427,38.254L99.347,37.944C98.597,35.074 95.967,31.534 93.747,29.534C89.947,26.084 83.318,17.898 81.508,14.758L81.018,13.908C79.064,8.772 75.84,6.91 74.18,7.28C73.25,7.49 72.43,7.67 74.18,7.28C78.14,6.39 80.31,10.19 82.04,13.25L82.51,14.08C84.01,16.68 90.84,24.44 94.68,27.92C97.15,30.15 100.23,34.2 101.17,37.8L101.25,38.11C102.46,42.76 104.34,51.92 104.85,57.84Z"
   style="fill:#e48c15;fill-rule:nonzero;fill-opacity:1"
   id="path11400" />
        <path
   d="M40.82,90.24C54.197,71.996 76.58,69.47 76.58,69.47C76.58,69.47 52.507,76.336 43.682,90.889C42.99,92.03 39.95,95.53 39.71,94.96C39.42,94.28 39.801,91.63 40.82,90.24Z"
   style="fill:#e48c15;fill-rule:nonzero;fill-opacity:1"
   id="path11402" />
    </g>
    <defs
   id="defs11410">
        <linearGradient
   id="_Linear1"
   x1="0"
   y1="0"
   x2="1"
   y2="0"
   gradientUnits="userSpaceOnUse"
   gradientTransform="matrix(16.5047,-25.6882,33.2068,21.3354,44.8131,61.3841)"><stop
     offset="0"
     style="stop-color:#fac036;stop-opacity:1;"
     id="stop11405" /><stop
     offset="1"
     style="stop-color:#e48c15;stop-opacity:1;"
     id="stop11407" /></linearGradient>
    </defs>
</svg>
