<?xml version="1.0" encoding="UTF-8" standalone="no"?>
<!-- Generator: Adobe Illustrator 25.2.3, SVG Export Plug-In . SVG Version: 6.00 Build 0)  -->

<svg
   version="1.1"
   id="Layer_4"
   x="0px"
   y="0px"
   viewBox="0 0 128 128"
   style="enable-background:new 0 0 128 128;"
   xml:space="preserve"
   sodipodi:docname="playground slide.svg"
   inkscape:version="1.3 (0e150ed6c4, 2023-07-21)"
   xmlns:inkscape="http://www.inkscape.org/namespaces/inkscape"
   xmlns:sodipodi="http://sodipodi.sourceforge.net/DTD/sodipodi-0.dtd"
   xmlns="http://www.w3.org/2000/svg"
   xmlns:svg="http://www.w3.org/2000/svg"><defs
   id="defs6252">&#10;	&#10;	&#10;	&#10;	&#10;	&#10;	&#10;	&#10;	&#10;	&#10;	&#10;	&#10;	&#10;	&#10;	&#10;	&#10;	&#10;	&#10;	&#10;	&#10;</defs><sodipodi:namedview
   id="namedview6250"
   pagecolor="#ffffff"
   bordercolor="#000000"
   borderopacity="0.25"
   inkscape:showpageshadow="2"
   inkscape:pageopacity="0.0"
   inkscape:pagecheckerboard="0"
   inkscape:deskcolor="#d1d1d1"
   showgrid="false"
   inkscape:zoom="2.9996795"
   inkscape:cx="48.505182"
   inkscape:cy="66.507105"
   inkscape:window-width="1366"
   inkscape:window-height="697"
   inkscape:window-x="-8"
   inkscape:window-y="-8"
   inkscape:window-maximized="1"
   inkscape:current-layer="Layer_4" />&#10;<g
   transform="matrix(1.5705353,0,0,1.5583799,-18.753081,-37.405657)"
   id="g4"
   style="clip-rule:evenodd;fill-rule:evenodd;stroke:#40c0e7;stroke-width:0.761586;stroke-linecap:round;stroke-linejoin:round;stroke-miterlimit:1.5"><path
     d="M 31.21,45.847 15.387,94.789"
     style="fill:none;stroke:#40c0e7;stroke-width:3.19602;stroke-dasharray:none"
     id="path4" /></g><path
   d="M 54.926981,28.697238 30.263296,104.8724"
   style="clip-rule:evenodd;fill:none;fill-rule:evenodd;stroke:#40c0e7;stroke-width:5;stroke-linecap:round;stroke-linejoin:round;stroke-miterlimit:1.5;stroke-dasharray:none"
   id="path5" /><path
   d="M 8.8835987,99.265349 33.947771,94.17569"
   style="clip-rule:evenodd;fill:none;fill-rule:evenodd;stroke:#40c0e7;stroke-width:4;stroke-linecap:round;stroke-linejoin:round;stroke-miterlimit:1.5;stroke-dasharray:none"
   id="path6" /><path
   d="M 12.513106,88.127614 37.704492,83.011453"
   style="clip-rule:evenodd;fill:none;fill-rule:evenodd;stroke:#40c0e7;stroke-width:4;stroke-linecap:round;stroke-linejoin:round;stroke-miterlimit:1.5;stroke-dasharray:none"
   id="path7" /><path
   d="M 16.062516,77.231421 40.95707,72.176037"
   style="clip-rule:evenodd;fill:none;fill-rule:evenodd;stroke:#40c0e7;stroke-width:4;stroke-linecap:round;stroke-linejoin:round;stroke-miterlimit:1.5;stroke-dasharray:none"
   id="path8" /><path
   d="M 19.613496,66.33523 44.453082,61.292312"
   style="clip-rule:evenodd;fill:none;fill-rule:evenodd;stroke:#40c0e7;stroke-width:4;stroke-linecap:round;stroke-linejoin:round;stroke-miterlimit:1.5;stroke-dasharray:none"
   id="path9" /><path
   d="M 23.162906,55.439037 47.9381,50.408587"
   style="clip-rule:evenodd;fill:none;fill-rule:evenodd;stroke:#40c0e7;stroke-width:4;stroke-linecap:round;stroke-linejoin:round;stroke-miterlimit:1.5;stroke-dasharray:none"
   id="path10" /><path
   d="M 26.713886,44.544403 51.419977,39.52642"
   style="clip-rule:evenodd;fill:none;fill-rule:evenodd;stroke:#40c0e7;stroke-width:4;stroke-linecap:round;stroke-linejoin:round;stroke-miterlimit:1.5;stroke-dasharray:none"
   id="path11" /><path
   style="fill:#ed6c30;fill-opacity:1;stroke-width:1"
   d="m 123.24699,98.738899 c -0.10132,-1.925143 -1.25618,-3.587324 -3.11039,-4.124338 l -2.98904,-1.013233 C 108.68706,90.673083 103.99088,85.205776 101.05251,76.441307 98.81326,69.764098 90.383158,46.581315 85.479107,34.381984 83.098009,28.444436 78.872825,24.057135 73.573614,22.010403 69.52068,20.450023 57.017378,18.139851 55.862292,17.896675 l -1.844085,9.281219 c 4.03267,0.830851 13.546932,2.989039 16.039487,3.941478 2.73573,1.053763 4.985108,3.505788 6.352974,6.889988 4.843256,12.057479 13.172035,34.936291 15.370752,41.522309 3.99214,11.915626 11.91563,19.585803 23.59821,22.807881 l 7.7814,1.29742 z"
   id="path6209"
   sodipodi:nodetypes="cccccccccccccc" /><g
   id="g6215"
   style="stroke-width:0.986939"
   transform="matrix(1.0132335,0,0,1.0132335,4.8561177,-1.719526)">&#10;		&#10;		&#10;	</g><path
   style="fill:#b9e4ea;stroke-width:1"
   d="m 79.551692,105.19687 c 0.222911,-0.33436 22.250608,-6.454294 22.250608,-6.454294 1.30707,-0.30397 2.6648,-0.13172 3.85029,0.506617 1.68196,0.901777 5.15735,2.066997 9.37241,3.333537 0.69913,0.21278 0.67886,1.20575 -0.0203,1.39826 l -23.020663,6.53536 z"
   id="path6217" /><g
   id="g6229"
   style="stroke-width:0.986939"
   transform="matrix(1.0132335,0,0,1.0132335,4.8561177,-1.719526)">&#10;		&#10;		&#10;		&#10;		&#10;	</g><path
   id="path6233"
   style="fill:#f79329;fill-opacity:1;stroke-width:1"
   d="M 53.693181,26.195849 28.677,32.558243 c 0,0 9.106532,5.133451 16.898289,9.53088 4.974972,2.806654 19.41696,51.008961 29.417564,61.009567 8.683403,8.6834 19.77133,10.30991 19.77133,10.30991 l 28.396847,-9.77163 c 0,0 -9.6738,-1.66619 -20.13209,-8.954848 -0.52743,-0.40494 -1.75074,-1.368106 -2.06802,-1.612862 C 98.427838,91.123853 95.924671,86.614639 92.874842,79.572673 87.606033,67.383486 81.609185,49.601057 77.444799,38.881057 76.835965,37.308236 76.110257,36.078996 75.444059,35.051748 75.312963,34.834921 75.182882,34.649043 75.052222,34.452119 73.196829,31.655761 71.405231,30.772508 70.330396,30.318047 64.281398,27.764701 53.693181,26.195849 53.693181,26.195849 Z"
   sodipodi:nodetypes="cccscccccccscc" /><path
   id="path1"
   style="fill:#ffb74d;fill-opacity:1;stroke:none;stroke-width:4;stroke-linecap:round;stroke-dasharray:none"
   d="M 76.534707,36.899492 C 68.06542,38.010396 60.209773,40.348584 53.073769,44.126054 L 73.872598,97.838945 C 80.243405,97.17994 85.585589,97.647521 98.282754,90.059648 96.605232,87.631304 94.855285,84.146777 92.874551,79.57332 87.605747,67.384145 81.609245,49.601903 77.444863,38.881914 77.16124,38.14922 76.851225,37.497376 76.534707,36.899492 Z"
   sodipodi:nodetypes="ccccccc" /><path
   style="fill:#ed6c30;fill-opacity:1;stroke-width:1"
   d="m 94.421669,105.20768 c -0.08106,-1.98594 -1.614247,-2.71843 -3.539391,-3.22505 L 89.24084,101.54694 C 80.82087,99.226634 74.303142,94.618716 71.364765,85.854246 69.125519,79.166905 60.695416,55.984122 55.791366,43.794923 53.410267,37.857375 49.185084,33.470074 43.885872,31.423342 39.832938,29.862963 28.606311,27.512261 27.329637,27.24882 l -1.985938,9.564924 c 4.488625,0.932175 12.533699,2.755996 15.016121,3.718567 2.73573,1.053763 5.349873,1.975806 6.130062,3.961743 4.782463,12.067611 13.384815,37.864536 15.593664,44.450554 3.99214,11.915622 13.125231,19.002662 24.807813,22.214612 l 7.872824,2.24938 z"
   id="path6239"
   sodipodi:nodetypes="cccccccccccccc" />&#10;</svg>
