<?xml version="1.0" encoding="UTF-8" standalone="no"?>
<svg
   width="100%"
   height="100%"
   viewBox="0 0 128 128"
   version="1.1"
   xml:space="preserve"
   style="fill-rule:evenodd;clip-rule:evenodd;stroke-linejoin:round;stroke-miterlimit:2;"
   id="svg11073"
   sodipodi:docname="pouring liquid.svg"
   inkscape:version="1.2.2 (732a01da63, 2022-12-09)"
   xmlns:inkscape="http://www.inkscape.org/namespaces/inkscape"
   xmlns:sodipodi="http://sodipodi.sourceforge.net/DTD/sodipodi-0.dtd"
   xmlns="http://www.w3.org/2000/svg"
   xmlns:svg="http://www.w3.org/2000/svg"><defs
   id="defs11077" /><sodipodi:namedview
   id="namedview11075"
   pagecolor="#ffffff"
   bordercolor="#000000"
   borderopacity="0.25"
   inkscape:showpageshadow="2"
   inkscape:pageopacity="0.0"
   inkscape:pagecheckerboard="0"
   inkscape:deskcolor="#d1d1d1"
   showgrid="false"
   inkscape:zoom="2.9996795"
   inkscape:cx="37.170637"
   inkscape:cy="75.341381"
   inkscape:window-width="1366"
   inkscape:window-height="697"
   inkscape:window-x="-8"
   inkscape:window-y="-8"
   inkscape:window-maximized="1"
   inkscape:current-layer="svg11073" />
    
    
    
    
    <g
   id="g13341"
   transform="translate(-1.6350106,-0.37283354)"><path
     id="path39677"
     d="m 33.981328,3.1091514 c 0,0 -12.320005,3.359999 -18.240001,21.1199996 -6.1799953,18.530001 2.389999,28.36 2.389999,28.36 l 70.090001,32.580001 4.230004,-1.41 8.740009,-5.52 9.81999,-16.580001 5.36001,-22.959999 -4.9,-14.46 z"
     style="fill:#dcf6f5;fill-opacity:1;fill-rule:nonzero" /><path
     id="path39679"
     d="m 41.461332,10.619153 c -6.230003,-2.0500007 -15.83,6.929999 -18.350007,18.259998 -2.519997,11.330001 -0.279993,20.600001 5.340007,22.660001 5.619995,2.06 14.139995,-6.740001 17.139996,-17.140001 2.989999,-10.39 2.429999,-21.63 -4.129996,-23.779998 z"
     style="fill:#afc7cf;fill-rule:nonzero" /><path
     id="path39685"
     d="m 111.43133,24.20915 -2.64999,2.630003 c 0,0 4.32999,0.139999 5.21999,7.619998 0.81001,6.750001 -0.31,14.579999 -2.88,22.06 -2.86,8.339999 -7.83,16.8 -13.490006,21.919999 -4.339992,3.930003 -7.649997,2.860001 -7.649997,2.860001 l -1.76,3.88 c 0,0 5.169998,2.25 11.969993,-3.95 6.73001,-6.13 11.55001,-15.13 14.30002,-23.529999 3.29999,-10.120001 3.78999,-17.92 2.86,-24.05 -0.91001,-6.010002 -3.00001,-8.410001 -5.92001,-9.440002 z"
     style="fill:#afc7cf;fill-opacity:1;fill-rule:nonzero" /><path
     id="path39687"
     d="m 25.881326,50.739151 c -0.329997,0.650001 0.750006,0.940002 6.550001,3.73 4.83,2.33 19.64,9.16 32.94,15 10.98,4.82 22.49,10.18 23.29,10.76 2.160001,1.57 2.920003,3.330001 2.92,9.5 5e-6,7.600004 -0.529997,24.560009 -0.530002,27.279999 5e-6,3.40001 -0.449996,8.39001 3.740006,8.62001 4.199993,0.22999 3.969993,-4.99 3.970003,-7.71 0,-2.72001 -1e-5,-23.280005 -2.27,-34.980007 -0.54001,-2.760003 -1.46001,-6.470003 -6.680007,-9.610002 -2.24,-1.339999 -5.4,-2.5 -9.4,-4.07 -16.28,-6.42 -37.57,-15.55 -46.08,-18.61 -3.369997,-1.199999 -7.379999,-2.049997 -8.450001,0.09 z"
     style="fill:#40c0e7;fill-rule:nonzero" /><path
     d="m 62.563801,24.315703 v 0 c -0.41048,0.912363 0.04192,1.727612 0.679377,1.99172 v 0 L 92.750811,38.532937 100.99665,27.617931 70.036534,17.2261 c -0.412564,-0.127638 -1.547451,-0.262285 -2.396629,0.533265 -0.714026,0.678355 -3.24282,3.202657 -5.076104,6.556338 z"
     style="clip-rule:evenodd;fill:#fafafa;fill-rule:evenodd;stroke-linejoin:round;stroke-miterlimit:2"
     id="path6082" /><path
     id="path39691"
     d="m 85.251327,48.999151 c -4.09,10.12 -5.13,21.63 -3.25,28.66 1.82,6.8 6.210001,7.52 6.210001,7.52 l 1.759999,-3.88 c 0,0 -2.43,0.29 -3.89,-3.79 -1.46,-4.09 -1.46,-18.4 2.72,-28.02 5.79,-13.3 12.820003,-19.11 16.050003,-20.789999 3.46,-1.800001 5.94001,-0.81 5.94001,-0.81 l 0.67,-3.65 c 0,0 -4.78001,-2.220001 -11.44002,2.829999 -6.319993,4.81 -11.139992,12.94 -14.769993,21.93 z"
     style="fill:#afc7cf;fill-opacity:1;fill-rule:nonzero" /></g>
</svg>
