<?xml version="1.0" encoding="UTF-8" standalone="no"?>
<!-- Generator: Adobe Illustrator 25.2.3, SVG Export Plug-In . SVG Version: 6.00 Build 0)  -->

<svg
   version="1.1"
   id="Layer_2"
   x="0px"
   y="0px"
   viewBox="0 0 128 128"
   style="enable-background:new 0 0 128 128;"
   xml:space="preserve"
   sodipodi:docname="ring buoy.svg"
   inkscape:version="1.2.2 (732a01da63, 2022-12-09)"
   xmlns:inkscape="http://www.inkscape.org/namespaces/inkscape"
   xmlns:sodipodi="http://sodipodi.sourceforge.net/DTD/sodipodi-0.dtd"
   xmlns="http://www.w3.org/2000/svg"
   xmlns:svg="http://www.w3.org/2000/svg"><defs
   id="defs47888">
	
	
	
	
	
	
	
	
	
	
	
	
	
	
</defs><sodipodi:namedview
   id="namedview47886"
   pagecolor="#ffffff"
   bordercolor="#000000"
   borderopacity="0.25"
   inkscape:showpageshadow="2"
   inkscape:pageopacity="0.0"
   inkscape:pagecheckerboard="0"
   inkscape:deskcolor="#d1d1d1"
   showgrid="false"
   inkscape:zoom="2.9996795"
   inkscape:cx="55.005876"
   inkscape:cy="71.674323"
   inkscape:window-width="1366"
   inkscape:window-height="697"
   inkscape:window-x="-8"
   inkscape:window-y="-8"
   inkscape:window-maximized="1"
   inkscape:current-layer="Layer_2" />
<path
   id="path47849"
   style="fill:#db4436;fill-opacity:1"
   d="m 64.080078,4.9199219 c -37.294826,0 -57.9324445,32.2701051 -58.0507811,63.3007811 -0.120011,31.46974 24.9900331,55.259767 58.0000001,55.259767 34.009966,0 58.089843,-23.641361 58.089843,-55.111329 0,-35.826067 -20.74424,-63.4492191 -58.039062,-63.4492191 z M 63.869141,37.320312 c 14.779985,0 26.771484,11.989547 26.771484,26.769532 0,14.779985 -11.991499,26.769531 -26.771484,26.769531 -14.789986,0 -26.769532,-11.989546 -26.769532,-26.769531 0,-14.779985 11.989546,-26.769532 26.769532,-26.769532 z"
   sodipodi:nodetypes="zssszsssss" /><g
   style="opacity:0.88"
   id="g47855">
		
	</g><path
   id="path47857"
   style="fill:#d3d3d3;fill-opacity:1"
   d="M 64.080078 4.9199219 C 60.358913 4.9199219 56.81145 5.255993 53.425781 5.8652344 C 52.916756 8.4265484 52.369255 12.798087 52.529297 18.910156 C 52.712602 26.004035 54.755078 32.98912 55.123047 34.609375 C 55.491017 36.229631 56.880859 38.080078 56.880859 38.080078 C 56.932739 38.145608 56.987817 38.183017 57.041016 38.232422 C 57.051355 38.229696 57.061922 38.227325 57.072266 38.224609 C 57.919174 38.002395 58.780772 37.822682 59.658203 37.683594 C 59.983346 37.629867 60.307813 37.577085 60.636719 37.535156 C 60.957617 37.496425 61.279231 37.462811 61.603516 37.435547 C 62.350625 37.368378 63.104162 37.320312 63.869141 37.320312 C 64.641705 37.320312 65.401762 37.367485 66.15625 37.435547 C 66.486667 37.46359 66.81373 37.50107 67.140625 37.541016 C 67.487671 37.585606 67.831002 37.641471 68.173828 37.699219 C 69.111993 37.851353 70.032699 38.047897 70.935547 38.294922 C 71.008407 38.244032 71.078968 38.188462 71.150391 38.119141 C 71.150391 38.119141 72.669128 35.800543 72.988281 34.445312 C 73.307436 33.090083 75.109375 26.206114 75.109375 18.980469 C 75.109375 13.436098 74.964686 8.4463804 74.630859 5.71875 C 71.275603 5.1989764 67.761991 4.9199219 64.080078 4.9199219 z M 107.66406 50.925781 C 107.06329 50.925415 106.43492 50.932979 105.7793 50.949219 C 99.019312 51.109219 94.04996 52.718814 92.240234 53.710938 C 90.430509 54.703062 89.997272 55.085507 89.769531 55.410156 C 89.572153 55.691525 89.471704 55.849881 89.392578 56.005859 C 89.393573 56.009001 89.393537 56.012482 89.394531 56.015625 C 89.464806 56.23779 89.517442 56.46678 89.582031 56.691406 C 89.738457 57.234824 89.881386 57.782978 90.003906 58.339844 C 90.065312 58.619881 90.117366 58.902308 90.169922 59.185547 C 90.272776 59.73733 90.357394 60.294322 90.425781 60.857422 C 90.45681 61.11446 90.491942 61.369682 90.515625 61.628906 C 90.590258 62.440167 90.640625 63.259049 90.640625 64.089844 C 90.640625 64.872675 90.593024 65.643841 90.523438 66.408203 C 90.496479 66.721496 90.461496 67.031676 90.423828 67.341797 C 90.374764 67.727197 90.313325 68.108099 90.248047 68.488281 C 90.093464 69.420457 89.894822 70.335372 89.646484 71.232422 C 89.942611 71.297602 90.579718 71.126613 92.445312 70.767578 C 94.310907 70.408543 98.868617 69.627752 106.24023 69.929688 C 116.00302 70.320561 120.76657 71.766757 121.99414 72.052734 C 122.06826 70.836279 122.11914 69.610948 122.11914 68.369141 C 122.11914 62.825465 121.61849 57.479291 120.64062 52.400391 C 118.80023 51.901844 114.36874 50.929868 107.66406 50.925781 z M 20.335938 51.419922 C 14.000139 51.428415 9.8085784 52.247096 7.7988281 52.740234 C 6.6540116 57.832226 6.0490461 63.041992 6.0292969 68.220703 C 6.0249029 69.37292 6.0645536 70.511742 6.1269531 71.642578 C 7.6491523 71.219003 11.523336 70.431809 20.5 69.980469 C 26.469982 69.680469 33.130787 70.329219 35.050781 70.449219 C 35.481407 70.475209 35.909969 70.442522 36.28125 70.388672 C 36.580727 70.38871 36.85627 70.324391 37.009766 70.300781 C 37.36654 70.249351 37.610826 70.196042 37.810547 70.136719 C 37.593605 69.198586 37.422083 68.244445 37.306641 67.271484 C 37.300332 67.220881 37.289229 67.171783 37.283203 67.121094 C 37.256225 66.88206 37.237436 66.641285 37.216797 66.400391 C 37.147256 65.638233 37.099609 64.870443 37.099609 64.089844 C 37.099609 63.259259 37.149534 62.441698 37.224609 61.630859 C 37.25008 61.351803 37.288289 61.0773 37.322266 60.800781 C 37.387733 60.274537 37.466866 59.752661 37.5625 59.236328 C 37.622494 58.909457 37.684099 58.584327 37.755859 58.261719 C 37.857392 57.808199 37.977571 57.362635 38.101562 56.917969 C 38.194015 56.585436 38.274067 56.24907 38.378906 55.921875 C 38.379531 55.919924 38.380234 55.917966 38.380859 55.916016 C 38.321789 55.833936 38.309219 55.796689 38.230469 55.689453 C 37.995469 55.374453 37.538828 54.996013 37.142578 54.697266 C 36.832336 54.423685 36.213489 53.968149 35.189453 53.589844 C 33.949456 53.129844 28.980682 51.599453 22.220703 51.439453 C 21.565081 51.424453 20.936704 51.419112 20.335938 51.419922 z M 71.679688 89.695312 C 70.97549 89.909985 70.256474 90.088662 69.529297 90.246094 C 69.277371 90.300399 69.02208 90.343469 68.767578 90.390625 C 68.203009 90.495838 67.633028 90.58321 67.056641 90.652344 C 66.808873 90.681818 66.562291 90.713675 66.3125 90.736328 C 65.506858 90.810088 64.694074 90.859375 63.869141 90.859375 C 63.060555 90.859375 62.264086 90.810456 61.474609 90.738281 C 61.183931 90.71248 60.897301 90.675641 60.609375 90.640625 C 60.136425 90.581643 59.668108 90.509123 59.203125 90.425781 C 58.851563 90.363881 58.499024 90.307897 58.152344 90.232422 C 57.54384 90.098402 56.944339 89.942858 56.351562 89.769531 C 56.332994 89.764104 56.313474 89.761326 56.294922 89.755859 C 55.815614 89.985175 55.358099 90.364106 55 90.960938 C 54.9278 91.084378 54.889802 91.215573 54.878906 91.347656 C 54.486945 92.079986 52.949219 95.592769 52.949219 105.67969 C 52.949219 111.47966 53.389219 116.00992 53.699219 118.41992 C 53.752789 118.83843 53.854182 119.22428 53.962891 119.55859 C 53.959491 119.65229 53.973796 119.75924 54.009766 119.88086 C 54.279124 120.79669 54.741922 122.1721 55.404297 122.91602 C 56.668885 123.08151 57.952536 123.20094 59.246094 123.29492 C 59.503625 123.31325 59.760889 123.33228 60.019531 123.34766 C 61.342778 123.42825 62.677192 123.48047 64.029297 123.48047 C 65.413064 123.48047 66.774166 123.42845 68.123047 123.34961 C 68.403308 123.33358 68.682185 123.31422 68.960938 123.29492 C 70.268639 123.2027 71.565435 123.08542 72.839844 122.92383 C 72.848219 122.92277 72.856861 122.92294 72.865234 122.92188 C 73.440748 122.16103 73.935136 120.661 74.150391 119.63086 C 74.187891 119.45836 74.184577 119.32687 74.148438 119.23047 C 74.221257 119.01899 74.283952 118.78932 74.320312 118.53906 C 74.670312 116.15906 75.199219 111.57966 75.199219 105.67969 C 75.190419 95.482451 73.624414 92.011851 73.251953 91.330078 C 73.244253 91.186551 73.200533 91.043337 73.119141 90.910156 C 72.741778 90.290205 72.211354 89.906879 71.679688 89.695312 z " /><g
   id="g47877">
		
	</g><g
   id="g47881">
		
	</g>
</svg>
