<?xml version="1.0" encoding="UTF-8" standalone="no"?>
<svg
   width="128px"
   height="128px"
   version="1.1"
   xml:space="preserve"
   style="fill-rule:evenodd;clip-rule:evenodd;stroke-linejoin:round;stroke-miterlimit:2;"
   id="svg4"
   sodipodi:docname="saluting face.svg"
   inkscape:version="1.3 (0e150ed6c4, 2023-07-21)"
   xmlns:inkscape="http://www.inkscape.org/namespaces/inkscape"
   xmlns:sodipodi="http://sodipodi.sourceforge.net/DTD/sodipodi-0.dtd"
   xmlns="http://www.w3.org/2000/svg"
   xmlns:svg="http://www.w3.org/2000/svg"><defs
     id="defs4" /><sodipodi:namedview
     id="namedview4"
     pagecolor="#ffffff"
     bordercolor="#000000"
     borderopacity="0.25"
     inkscape:showpageshadow="2"
     inkscape:pageopacity="0.0"
     inkscape:pagecheckerboard="0"
     inkscape:deskcolor="#d1d1d1"
     inkscape:zoom="2.8672063"
     inkscape:cx="56.849763"
     inkscape:cy="93.819548"
     inkscape:current-layer="svg4" /><path
     fill="#fcc21b"
     d="m 122.35894,78.531941 c 9.83002,-30.02 1.98002,-55.55 -20.69998,-66.309997 C 72.728967,-1.5180561 44.508967,5.5819409 25.898967,24.151943 c -7.74,7.719998 -14.23,16.209998 -20.5300005,33.059998 -7.87,21.04 -4.69999998,39.36 -3.9,44.099999 2.02,12.17 29.7000005,21.64 62.9700005,21.64 0,0 0.07,-0.01 0.10998,-0.01 0.0299,0 0.07,0.01 0.07,0.01 8.49,0 16.47,-0.63 23.76999,-1.75 0.20002,-0.04 0.43,-0.06 0.64,-0.1 0.08,-0.01 0.15999,-0.02 0.24,-0.04 20.060003,-3.19 34.700003,-10.12 37.660023,-18.43 0.42999,-1.01 0.76996,-2.03 0.87998,-3.079999 0.63999,-6.56 -9.48,-8.67 -5.45,-21.02"
     id="path1-26"
     style="stroke-width:0.999999" /><path
     d="m 40.225258,55.221628 c -4.342415,-1.142423 -6.759164,-6.268613 -5.400181,-11.443375 1.364243,-5.194059 5.989557,-8.472911 10.331972,-7.330488 4.332767,1.139792 6.759164,6.268613 5.394921,11.462671 -1.361613,5.18441 -5.984297,8.453615 -10.326712,7.311192 z m 42.556758,11.602345 c 4.324877,1.168736 8.971244,-2.073281 10.368817,-7.237523 1.402835,-5.183537 -0.979709,-10.321132 -5.304586,-11.489868 -4.334524,-1.171366 -8.990539,2.068021 -10.393373,7.251558 -1.387926,5.166872 0.994618,10.304467 5.329142,11.475833 z"
     style="fill:#2f2f2f;fill-rule:nonzero"
     id="path2" /><g
     transform="matrix(0.65693522,0.17568733,-0.04832821,0.18071027,13.158337,64.609769)"
     id="g3"><path
       d="m 34.793,96.38 c 14.42,17.508 43.994,17.508 58.414,0 2.31,-2.803 3.558,-11.895 2.787,-20.29 -0.771,-8.395 -3.272,-12.934 -5.581,-10.13 -13.04,15.832 -39.786,15.832 -52.826,0 -2.309,-2.804 -4.81,1.735 -5.581,10.13 -0.771,8.395 0.477,17.487 2.787,20.29 z"
       style="fill:#2f2f2f"
       id="path3" /></g><g
     transform="matrix(0.214232,0.956755,-1.25256,0.280468,144.66429,-26.403391)"
     id="g4"><path
       d="m 29.92,120.105 c 3.17,0.483 9.28,0.395 9.4,-4.075 l 0.66,-14.77 C 40,101.02 41.06,85.23 32.89,76.8 L 32.77,76.67 C 27.02,69.91 24.5,65.12 21.92,56.69 21.06,53.9 19.03,51.28 15.54,51.7 c -2.47,0.3 -4.85,1.35 -4.69,9.23 0.19,9.18 2.02,18.32 5.7,24.72 5.14,8.95 3.8,19.17 4.36,25.72 0.34,4.11 1.705,7.623 9.01,8.735 z"
       style="fill:#ef6c00"
       id="path4" /></g></svg>
