<?xml version="1.0" encoding="UTF-8" standalone="no"?>
<!-- Generator: Adobe Illustrator 24.0.3, SVG Export Plug-In . SVG Version: 6.00 Build 0)  -->

<svg
   version="1.1"
   id="Layer_7"
   x="0px"
   y="0px"
   viewBox="0 0 128 128"
   style="enable-background:new 0 0 128 128;"
   xml:space="preserve"
   sodipodi:docname="seal.svg"
   inkscape:version="1.2.2 (732a01da63, 2022-12-09)"
   xmlns:inkscape="http://www.inkscape.org/namespaces/inkscape"
   xmlns:sodipodi="http://sodipodi.sourceforge.net/DTD/sodipodi-0.dtd"
   xmlns="http://www.w3.org/2000/svg"
   xmlns:svg="http://www.w3.org/2000/svg"><defs
   id="defs65426">
	
	
	
	
	
	
		<radialGradient
   id="SVGID_1_"
   cx="34.7393"
   cy="55.447"
   r="137.2468"
   gradientTransform="matrix(0.9434 0.3318 -0.2479 0.7049 15.715 4.8349)"
   gradientUnits="userSpaceOnUse">
		<stop
   offset="0.0874"
   style="stop-color:#CFD8DC;stop-opacity:0"
   id="stop65404" />
		<stop
   offset="0.9587"
   style="stop-color:#6899AD"
   id="stop65406" />
	</radialGradient>
	
	
	
	
	
	
</defs><sodipodi:namedview
   id="namedview65424"
   pagecolor="#ffffff"
   bordercolor="#000000"
   borderopacity="0.25"
   inkscape:showpageshadow="2"
   inkscape:pageopacity="0.0"
   inkscape:pagecheckerboard="0"
   inkscape:deskcolor="#d1d1d1"
   showgrid="false"
   inkscape:zoom="4.2421874"
   inkscape:cx="56.456723"
   inkscape:cy="51.860038"
   inkscape:window-width="1366"
   inkscape:window-height="697"
   inkscape:window-x="-8"
   inkscape:window-y="-8"
   inkscape:window-maximized="1"
   inkscape:current-layer="Layer_7" />

<g
   id="g15006"><path
     style="fill:#cad8dd"
     d="m 103.24,43.26 c 0.09,-1.8 -1.64,-10.16 -8.63,-13.52 -1.86,-0.9 -6.69,-1.38 -5.59,3.66 1.03,4.69 1.58,11.9 1.04,16.51 -0.54,4.55 -2.62,9.92 -8.01,12.19 C 77.37,64.07 72.03,63.31 68.12,59.97 62.92,55.52 61.31,48.5 61.25,41.92 61.08,24.17 55.064862,14.616409 40.784862,11.446409 c -4.2,-0.93 -9.37,-0.8 -13.66,0.52 C 21.864862,13.516409 17.11,16.81 10.46,28.34 c -6.68,11.57 -7.84,27.11 -5.72,40 7.16,43.53 42.02,54.32 67.34,46.64 28.11,-8.52 35.96,-32.27 38.37,-46.49 1.32,-7.76 2.4,-15.1 7.17,-21.71 2.94,-4.07 8.98,-8.93 5.01,-11.53 -7.8,-5.1 -17.39,3.59 -19.39,8.01 z"
     id="path65354"
     sodipodi:nodetypes="cccccccccccccccc" /><g
     id="g65360"
     transform="translate(-3.3001842,6.1289135)">
		<path
   id="circle65356"
   style="fill:#2f2f2f"
   d="m 32.022665,23.513033 c -0.40547,1.973234 -2.177006,3.276375 -3.956836,2.910646 -1.779829,-0.365728 -2.893967,-2.261833 -2.488496,-4.235068 0.405471,-1.973234 2.177006,-3.276374 3.956836,-2.910645 1.779829,0.365728 2.893967,2.261832 2.488496,4.235067 z"
   sodipodi:nodetypes="sssss" />
		<path
   id="circle65358"
   style="fill:#2f2f2f"
   d="m 53.33402,28.173463 c -0.303377,2.034398 -2.006185,3.466351 -3.80333,3.198355 -1.797144,-0.267997 -3.008082,-2.134457 -2.704706,-4.168855 0.303377,-2.034398 2.006185,-3.466351 3.80333,-3.198355 1.797144,0.267997 3.008082,2.134457 2.704706,4.168855 z"
   sodipodi:nodetypes="sssss" />
	</g><g
     id="g65366"
     transform="translate(-3.3001842,6.1289135)">
		<path
   style="fill:#2f2f2f;fill-opacity:1;stroke-width:1"
   d="m 42.131414,33.446799 c -0.144167,1.480815 -3.238486,2.880108 -4.92368,2.573969 -1.685195,-0.30614 -4.179161,-2.702318 -4.034987,-4.183132 0.144167,-1.480814 2.241412,-2.047189 4.704958,-1.602745 2.474872,0.443666 4.396576,1.718393 4.253709,3.211908 z"
   id="path65362"
   sodipodi:nodetypes="csscc" />
		
	</g><g
     id="g65396">
		<g
   id="g65380">
			<g
   id="g65370">
				
			</g>
			<g
   id="g65374">
				
			</g>
			<g
   id="g65378">
				
			</g>
		</g>
		<g
   id="g65394">
			<g
   id="g65384">
				
			</g>
			<g
   id="g65388">
				
			</g>
			<g
   id="g65392">
				
			</g>
		</g>
	</g><g
     id="g65402">
		
		
	</g><path
     style="fill:#78909c"
     d="m 111.15,35.53 c -3.21,1.69 -5.85,4.37 -7.23,6.51 C 99.17,26.88 91.56,28.99 90.7,29.29 c -0.97,0.35 -1.55,1 -1.76,1.93 1,-0.94 4.31,-2.02 8.15,2.16 2,2.42 3.28,6.63 3.5,9.66 0.61,8.07 -1.99,13.33 -3.45,15.6 -0.28,0.43 0.38,1.05 0.89,0.67 1.53,-1.14 3.25,-3.79 4.58,-7.8 1.44,-4.33 3.35,-11.04 10.81,-14.49 3.68,-1.7 6.75,-1.75 8.59,-1.14 1.4,0.47 1.93,1.51 1.93,1.51 0,-1.08 -0.61,-2.2 -1.65,-2.8 -0.65,-0.38 -4.57,-2.54 -11.14,0.94 z"
     id="path65411" /><path
     style="fill:#cad8dd"
     d="m 58.08,56.22 c 2.91,11.84 -1.18,15.31 -1.26,26.46 -0.07,8.86 2.78,17.83 9.51,15.79 5.03,-1.52 12.49,-21.04 8.83,-30.88"
     id="path65413" /><path
     style="fill:#728e9c"
     d="m 59.6,58.07 c 1.93,9.91 -2.12,18.1 -1.21,28.44 0.71,8.7 4.35,10.72 5.96,10.8 1.74,0.23 3.1,-1.2 4.14,-2.76 1.19,-1.78 2.65,-4.25 3.91,-7.3 2.93,-7.35 3.35,-16 2.89,-19.07 -0.22,-0.95 0.56,-1.04 0.84,-0.17 0.29,0.9 0.84,3.45 0.48,9.79 -0.25,3.47 -0.95,6.91 -2.03,10.23 -0.53,1.66 -2.14,6.13 -4.79,9.53 -0.61,0.73 -1.95,2.92 -5.54,2.65 -1.08,-0.03 -7.58,-0.97 -8.66,-13.42 -0.13,-1.77 -0.39,-5.97 0.58,-10.51 0.6,-3.46 1.69,-6.68 2.12,-9.97 0.42,-2.68 0.12,-5.41 0.03,-8.19 -0.04,-1.04 1.03,-1.32 1.28,-0.05 z"
     id="path65415" /><path
     d="m 40.98873,46.678661 c -0.29158,0.428395 -0.821884,0.598837 -1.21135,0.726438 l -0.177344,0.05942 c -1.898621,0.640537 -4.39689,-0.05834 -5.947865,-1.254478 l -0.161112,-0.125845 c -0.216846,-0.171013 -0.308285,-0.240449 -0.464902,-0.274994 -0.247933,-0.03009 -0.495761,0.01383 -0.720089,0.06289 -0.179993,0.03421 -0.358259,0.06058 -0.509577,0.07647 -1.801087,0.16113 -3.719063,0.107604 -5.276715,-0.909349 -0.430123,-0.283747 -0.984966,-0.783878 -1.228533,-1.354947 -0.174586,-0.39983 -0.164919,-0.890408 0.02152,-1.251664 0.158687,-0.309895 0.436677,-0.52778 0.776623,-0.617031 0.674718,-0.155014 1.291169,0.251945 1.671773,0.574047 0.952837,0.817849 2.807938,1.268099 3.919215,0.51138 0.377949,-0.26153 0.6321,-0.706393 0.735505,-1.324109 l 0.03454,-0.156617 c -0.89974,-0.239521 4.337013,0.702076 2.694496,0.479381 -0.13405,0.569895 -0.276487,1.179001 -0.13576,1.620636 l 0.296307,0.369194 c 0.878214,0.932778 2.468107,1.431284 3.727827,1.043988 l 0.219954,-0.06645 c 0.194733,-0.0638 0.379909,-0.121497 0.591224,-0.148792 0.567848,-0.08004 1.112785,0.204397 1.311901,0.716391 0.149366,0.402478 0.08661,0.873135 -0.167649,1.244066 z"
     style="fill:#2f2f2f;fill-rule:nonzero;stroke-width:0.757265"
     id="path27816"
     sodipodi:nodetypes="ccccccccccccccccccccccccc" /><path
     style="fill:#cad8dd"
     d="m 18.31,65.27 c 2.89,10.91 23.71,14.25 28.76,32.13 1.54,5.46 -2.37,7.48 -5.89,7.48 -19.2,0 -28.96,-15.8 -28.96,-15.8"
     id="path65417" /><path
     style="fill:#728e9c"
     d="m 19.17,67.08 c 1.78,2.45 3.99,4.53 6.45,6.25 3.03,2.12 6.27,4.01 9.35,6.23 3.11,2.18 6.05,4.73 8.51,7.79 5.21,7.59 5.62,12.33 5.2,14.01 -0.28,1.18 -0.98,2.32 -1.91,3.1 -1.66,1.32 -4.26,1.94 -6.25,1.81 -3.89,-0.13 -7.78,-0.91 -11.36,-2.38 -3.6,-1.44 -6.89,-3.55 -9.76,-6.06 -2,-1.79 -3.51,-3.4 -4.94,-5.65 -0.77,-1.22 -1.21,-2.65 -0.13,-1.43 6.66,7.58 12.22,9.8 15.64,10.96 3.43,1.12 7,1.79 10.6,1.74 0.47,0 3.12,-0.15 4.3,-1.19 0.99,-0.85 1.26,-2.2 0.94,-3.77 C 44.83,94.35 41.92,87.44 32.82,80.85 29.08,78.15 20,72 18.31,67.34 c -0.39,-1.08 0.38,-0.93 0.86,-0.26 z"
     id="path65419" /><path
     d="m 19.326378,35.942294 c -0.07427,0 -0.148537,-0.0074 -0.222806,-0.02228 l -6.104888,-1.195726 c -0.623857,-0.11883 -1.032335,-0.727833 -0.906078,-1.35169 0.11883,-0.623857 0.742687,-1.039762 1.351691,-0.906079 l 6.104887,1.203154 c 0.623857,0.118829 1.032335,0.727833 0.906079,1.344263 -0.111404,0.542162 -0.59415,0.928359 -1.128885,0.928359 z m -6.275706,4.678928 c -0.571869,0 -1.062042,-0.423331 -1.136311,-1.002627 -0.08912,-0.631284 0.35649,-1.203153 0.987774,-1.292276 l 6.17173,-0.809528 c 0.61643,-0.08912 1.203153,0.356489 1.292275,0.987773 0.0817,0.631284 -0.363917,1.21058 -0.987774,1.292276 l -6.171729,0.809529 c -0.05199,0.01485 -0.09655,0.01485 -0.155965,0.01485 z m 1.819584,5.19881 c -0.497601,0 -0.958067,-0.326782 -1.106604,-0.839236 -0.178245,-0.609004 0.178245,-1.240288 0.794675,-1.418533 l 5.978631,-1.70818 c 0.609003,-0.170818 1.247714,0.178245 1.425959,0.794675 0.170818,0.609004 -0.178245,1.247714 -0.794675,1.418533 l -5.978631,1.70818 c -0.111403,0.02971 -0.215379,0.04456 -0.319355,0.04456 z"
     style="clip-rule:evenodd;fill:#2f2f2f;fill-opacity:1;fill-rule:nonzero;stroke-width:0.999998;stroke-linejoin:round;stroke-miterlimit:2"
     id="path13703" /><path
     d="m 48.55559,42.461709 c 0.07345,0.01102 0.147991,0.01473 0.223646,0.01103 l 6.214739,-0.276471 c 0.634584,-0.02493 1.128919,-0.566567 1.096646,-1.202253 -0.02493,-0.634584 -0.580154,-1.138468 -1.202254,-1.096647 l -6.21584,0.283817 c -0.634584,0.02493 -1.12892,0.566566 -1.095545,1.194908 0.02971,0.552691 0.449795,1.006255 0.978608,1.085613 z m 5.511821,5.558479 c 0.565536,0.08487 1.113107,-0.261028 1.272525,-0.822887 0.181821,-0.611067 -0.173985,-1.242735 -0.785051,-1.424559 l -5.983246,-1.716497 c -0.596377,-0.179616 -1.242735,0.173984 -1.424558,0.785051 -0.174483,0.612168 0.180228,1.251182 0.785052,1.424559 l 5.983244,1.716498 c 0.04921,0.0224 0.09328,0.02901 0.152034,0.03783 z m -2.570979,4.871199 c 0.49209,0.07385 0.995954,-0.180979 1.218899,-0.665714 0.266652,-0.575807 0.0078,-1.253006 -0.575354,-1.520761 l -5.658917,-2.57654 c -0.576909,-0.259307 -1.26035,-0.0089 -1.528105,0.574252 -0.259307,0.576909 -0.0089,1.26035 0.575354,1.52076 l 5.658917,2.57654 c 0.10576,0.04591 0.206381,0.07603 0.309206,0.09146 z"
     style="clip-rule:evenodd;fill:#2f2f2f;fill-opacity:1;fill-rule:nonzero;stroke-width:0.999998;stroke-linejoin:round;stroke-miterlimit:2"
     id="path14229" /></g></svg>
