<?xml version="1.0" encoding="UTF-8" standalone="no"?>
<!-- Generator: Adobe Illustrator 24.0.3, SVG Export Plug-In . SVG Version: 6.00 Build 0)  -->

<svg
   version="1.1"
   id="Layer_7"
   x="0px"
   y="0px"
   viewBox="0 0 128 128"
   style="enable-background:new 0 0 128 128;"
   xml:space="preserve"
   sodipodi:docname="seal.svg"
   inkscape:version="1.2.2 (732a01da63, 2022-12-09)"
   xmlns:inkscape="http://www.inkscape.org/namespaces/inkscape"
   xmlns:sodipodi="http://sodipodi.sourceforge.net/DTD/sodipodi-0.dtd"
   xmlns="http://www.w3.org/2000/svg"
   xmlns:svg="http://www.w3.org/2000/svg"><defs
   id="defs65426"><inkscape:path-effect
   effect="skeletal"
   id="path-effect17700"
   is_visible="true"
   lpeversion="1"
   pattern="m -1.8858198,40.427253 c 10e-7,2.179509 -9.6040272,1.691293 -21.4511962,1.691293 -11.847169,0 -21.451198,0.488216 -21.451196,-1.691293 1e-6,-2.179508 9.604028,-1.691292 21.451196,-1.691292 11.847168,0 21.4511952,-0.488216 21.4511962,1.691292 z"
   copytype="single_stretched"
   prop_scale="1"
   scale_y_rel="false"
   spacing="0"
   normal_offset="0"
   tang_offset="0"
   prop_units="false"
   vertical_pattern="false"
   hide_knot="false"
   fuse_tolerance="0" /><inkscape:path-effect
   effect="skeletal"
   id="path-effect17615"
   is_visible="true"
   lpeversion="1"
   pattern="m -1.8858198,40.427253 c 10e-7,2.179509 -9.6040272,1.691293 -21.4511962,1.691293 -11.847169,0 -21.451198,0.488216 -21.451196,-1.691293 1e-6,-2.179508 9.604028,-1.691292 21.451196,-1.691292 11.847168,0 21.4511952,-0.488216 21.4511962,1.691292 z"
   copytype="single_stretched"
   prop_scale="1"
   scale_y_rel="false"
   spacing="0"
   normal_offset="0"
   tang_offset="0"
   prop_units="false"
   vertical_pattern="false"
   hide_knot="false"
   fuse_tolerance="0" /><inkscape:path-effect
   effect="skeletal"
   id="path-effect17380"
   is_visible="true"
   lpeversion="1"
   pattern="m -1.8858198,40.427253 c 10e-7,2.179509 -9.6040272,1.691293 -21.4511962,1.691293 -11.847169,0 -21.451198,0.488216 -21.451196,-1.691293 1e-6,-2.179508 9.604028,-1.691292 21.451196,-1.691292 11.847168,0 21.4511952,-0.488216 21.4511962,1.691292 z"
   copytype="single_stretched"
   prop_scale="1"
   scale_y_rel="false"
   spacing="0"
   normal_offset="0"
   tang_offset="0"
   prop_units="false"
   vertical_pattern="false"
   hide_knot="false"
   fuse_tolerance="0" />
	
	
	
	
	
	
		<radialGradient
   id="SVGID_1_"
   cx="34.7393"
   cy="55.447"
   r="137.2468"
   gradientTransform="matrix(0.9434 0.3318 -0.2479 0.7049 15.715 4.8349)"
   gradientUnits="userSpaceOnUse">
		<stop
   offset="0.0874"
   style="stop-color:#CFD8DC;stop-opacity:0"
   id="stop65404" />
		<stop
   offset="0.9587"
   style="stop-color:#6899AD"
   id="stop65406" />
	</radialGradient>
	
	
	
	
	
	

		
		
	
		
		
	</defs><sodipodi:namedview
   id="namedview65424"
   pagecolor="#ffffff"
   bordercolor="#000000"
   borderopacity="0.25"
   inkscape:showpageshadow="2"
   inkscape:pageopacity="0.0"
   inkscape:pagecheckerboard="0"
   inkscape:deskcolor="#d1d1d1"
   showgrid="false"
   inkscape:zoom="2.9996795"
   inkscape:cx="63.506785"
   inkscape:cy="80.341917"
   inkscape:window-width="1366"
   inkscape:window-height="697"
   inkscape:window-x="-8"
   inkscape:window-y="-8"
   inkscape:window-maximized="1"
   inkscape:current-layer="Layer_7" />

<path
   style="fill:#cad8dd"
   d="m 104.35002,40.656619 c 0.09,-1.8 -1.64,-10.16 -8.630003,-13.52 -1.86,-0.9 -6.69,-1.38 -5.59,3.66 1.03,4.69 1.58,11.9 1.04,16.51 -0.54,4.55 -2.62,9.92 -8.01,12.19 -4.68,1.97 -10.02,1.21 -13.93,-2.13 -5.2,-4.45 -7.939302,-12.831708 -8.594517,-19.379279 C 58.868004,20.324742 53.074573,10.763301 38.26055,9.1192334 23.446527,7.4751654 14.414023,15.428401 8.8279595,27.509763 3.221063,39.636181 3.7300171,52.846619 5.8500171,65.736619 13.010017,109.26662 47.870017,120.05662 73.190017,112.37662 c 28.110003,-8.52 35.960003,-32.270001 38.370003,-46.490001 1.32,-7.76 2.4,-15.1 7.17,-21.71 2.94,-4.07 8.98,-8.93 5.01,-11.53 -7.8,-5.1 -17.39,3.59 -19.39,8.01 z"
   id="path65354"
   sodipodi:nodetypes="ccccccszscccccc" /><path
   id="circle65356"
   style="fill:#2f2f2f"
   d="m 27.133445,28.692048 c -0.225907,2.001756 -1.872733,3.459316 -3.678289,3.25555 -1.805555,-0.203766 -3.086113,-1.991695 -2.860204,-3.993452 0.225908,-2.001755 1.872734,-3.459313 3.67829,-3.255546 1.805554,0.203765 3.086112,1.991693 2.860203,3.993448 z"
   sodipodi:nodetypes="sssss" /><path
   id="circle65358"
   style="fill:#2f2f2f"
   d="m 48.778196,31.412017 c -0.118715,2.053466 -1.68548,3.633116 -3.499468,3.528245 -1.813988,-0.104871 -3.188278,-1.854547 -3.069564,-3.908013 0.118716,-2.053465 1.68548,-3.633115 3.499469,-3.528245 1.813987,0.104872 3.188277,1.854549 3.069563,3.908013 z"
   sodipodi:nodetypes="sssss" /><path
   style="fill:#2f2f2f;fill-opacity:1;stroke-width:1"
   d="m 38.096673,37.673928 c -0.01007,1.487783 -2.965619,3.160367 -4.671551,3.007415 -1.705934,-0.152952 -4.405787,-2.314508 -4.395714,-3.802291 0.01007,-1.487781 2.047704,-2.240942 4.541288,-2.020427 2.504794,0.218719 4.533603,1.314989 4.525977,2.815303 z"
   id="path65362"
   sodipodi:nodetypes="csscc" /><g
   id="g65396"
   transform="translate(1.1100171,-2.6033806)">
		<g
   id="g65380">
			<g
   id="g65370">
				
			</g>
			<g
   id="g65374">
				
			</g>
			<g
   id="g65378">
				
			</g>
		</g>
		<g
   id="g65394">
			<g
   id="g65384">
				
			</g>
			<g
   id="g65388">
				
			</g>
			<g
   id="g65392">
				
			</g>
		</g>
	</g><g
   id="g65402"
   transform="translate(1.1100171,-2.6033806)">
		
		
	</g><path
   id="path65411"
   style="fill:#78909c;stroke-width:0.999998"
   d="M 92.84375 26.570312 C 91.410743 26.637107 90.077532 27.304788 89.980469 29.220703 C 90.113899 29.106708 90.243185 28.987587 90.380859 28.878906 C 91.471468 28.183054 92.886403 28.246043 94.056641 28.699219 C 95.417001 29.22682 96.568423 30.187229 97.529297 31.267578 C 98.724124 32.791029 99.480972 34.607417 100.04102 36.447266 C 100.3533 37.495599 100.58901 38.567361 100.73047 39.652344 C 100.76147 39.8963 100.79611 40.224345 100.81641 40.501953 C 101.16862 45.105921 100.49821 49.911401 98.398438 54.080078 C 98.098467 54.693438 97.742331 55.277695 97.390625 55.861328 C 97.100506 56.463818 97.540924 57.204605 98.158203 57.369141 C 98.610589 57.523023 99.092519 57.316617 99.419922 56.998047 C 100.70023 55.912154 101.60396 54.460588 102.36914 52.984375 C 103.21121 51.356434 103.81045 49.621574 104.37109 47.880859 C 104.62905 47.100639 104.89992 46.317784 105.1875 45.570312 C 105.94445 43.591956 106.89963 41.671272 108.18555 39.980469 C 108.34117 39.775669 108.55174 39.510044 108.73828 39.289062 C 110.21303 37.53386 112.07487 36.116454 114.13672 35.119141 C 114.23698 35.071381 114.43422 34.974745 114.57617 34.912109 C 115.07323 34.685796 115.58216 34.48314 116.09766 34.302734 C 116.23495 34.255014 116.46985 34.176756 116.64648 34.123047 C 117.33131 33.912518 118.0313 33.747474 118.74023 33.642578 C 118.86944 33.624978 119.10276 33.592682 119.27148 33.576172 C 120.50347 33.462698 121.794 33.493029 122.95117 33.974609 C 123.57559 34.25508 124.0907 34.752664 124.39844 35.363281 C 124.53059 35.584433 124.66278 35.806192 124.79492 36.027344 C 125.27219 34.715459 125.11172 33.544684 123.74023 32.646484 C 115.94024 27.546489 106.34961 36.236254 104.34961 40.65625 C 104.43961 38.856252 102.7107 30.496715 95.720703 27.136719 C 95.023204 26.799219 93.907225 26.520742 92.84375 26.570312 z " /><path
   d="m 40.885804,44.553422 c -0.251768,0.452939 -0.764544,0.670501 -1.140919,0.832697 l -0.171265,0.07517 c -1.833135,0.809112 -4.384241,0.338331 -6.036746,-0.713096 l -0.171802,-0.110806 c -0.231382,-0.150765 -0.328709,-0.211674 -0.487803,-0.231958 -0.249636,-0.0076 -0.492495,0.05847 -0.711486,0.127559 -0.176175,0.0503 -0.351337,0.09264 -0.500606,0.122103 -1.779224,0.322864 -3.694214,0.442485 -5.337213,-0.429884 -0.453954,-0.243811 -1.05163,-0.691879 -1.345694,-1.238662 -0.209925,-0.38246 -0.244529,-0.871912 -0.09142,-1.248506 0.1301,-0.32294 0.387313,-0.565002 0.717827,-0.68454 0.657994,-0.215217 1.308626,0.134504 1.716722,0.420978 1.022695,0.728608 2.910836,1.009764 3.949359,0.155932 0.35283,-0.294541 0.565836,-0.760507 0.613125,-1.385031 l 0.02028,-0.159093 c -0.917671,-0.157423 4.38265,0.308182 2.726744,0.234487 -0.08212,0.57966 -0.16906,1.199127 0.01091,1.626275 l 0.328388,0.340975 c 0.958738,0.849797 2.587102,1.202924 3.806772,0.703627 l 0.213067,-0.08601 c 0.188187,-0.0811 0.367407,-0.155256 0.5754,-0.201492 0.558319,-0.130913 1.126682,0.103233 1.371149,0.595189 0.185046,0.387371 0.164981,0.86177 -0.0548,1.254115 z"
   style="fill:#2f2f2f;fill-rule:nonzero;stroke-width:0.757265"
   id="path27816"
   sodipodi:nodetypes="ccccccccccccccccccccccccc" /><path
   d="m 18.343665,35.81391 c -0.07397,0.0067 -0.148599,0.006 -0.223907,-0.0021 l -6.187833,-0.640425 c -0.63203,-0.0621 -1.093753,-0.631791 -1.024259,-1.264491 0.0621,-0.63203 0.645915,-1.10249 1.264492,-1.02426 l 6.188501,0.647823 c 0.63203,0.0621 1.093754,0.631791 1.023591,1.257094 -0.06207,0.549998 -0.508027,0.978148 -1.040585,1.02636 z m -5.828282,5.225703 c 0.05156,0.569539 -1.095885,-0.325851 -1.222082,-0.896091 -0.145675,-0.620678 0.246559,-1.230395 0.867236,-1.376073 l 6.073604,-1.362688 c 0.605884,-0.144336 1.230395,0.246558 1.376072,0.867235 0.138285,0.621347 -0.253287,1.238461 -0.867237,1.376073 l -6.073603,1.362689 c -0.05044,0.01948 -0.159348,-0.03032 -0.153991,0.02885 z m 2.280909,5.013577 c 0.04486,0.495575 -0.983628,-0.239069 -1.177764,-0.736043 -0.232429,-0.590453 0.06569,-1.251308 0.66354,-1.484406 l 5.800267,-2.240269 c 0.591121,-0.225032 1.258703,0.06502 1.491801,0.66287 0.225031,0.591123 -0.06502,1.258704 -0.66354,1.484406 l -5.800267,2.240269 c -0.108271,0.03963 -0.323412,-0.03038 -0.314037,0.07317 z"
   style="clip-rule:evenodd;fill:#2f2f2f;fill-opacity:1;fill-rule:nonzero;stroke-width:0.999998;stroke-linejoin:round;stroke-miterlimit:2"
   id="path13703"
   sodipodi:nodetypes="sccccccssccccccsssccccccss" /><path
   d="m 48.041635,39.671399 c 0.0067,0.07397 0.148716,0.0013 0.223729,-0.0092 l 6.1645,-0.83568 c 0.629752,-0.08204 1.073238,-0.666045 0.983782,-1.296232 -0.08204,-0.629752 -0.680438,-1.081524 -1.296234,-0.983783 l -6.164934,0.843095 c -0.629751,0.08204 -1.073239,0.666045 -0.983347,1.288818 0.07942,0.547762 1.024291,0.460402 1.072503,0.992958 z m 5.990537,5.038882 c 0.05156,0.569539 1.085038,-0.360325 1.193148,-0.934269 0.125986,-0.624972 -0.285324,-1.221987 -0.910295,-1.347975 l -6.11364,-1.170043 c -0.610142,-0.125114 -1.221986,0.285323 -1.347974,0.910295 -0.118578,0.625406 0.292304,1.229836 0.910296,1.347975 l 6.113638,1.170044 c 0.05103,0.01787 0.149469,-0.0352 0.154826,0.02397 z m -2.12131,5.083164 c 0.04486,0.495574 0.97558,-0.270039 1.153912,-0.772901 0.21365,-0.597504 -0.105205,-1.248606 -0.710125,-1.462692 l -5.868176,-2.055825 c -0.597939,-0.206236 -1.256019,0.104772 -1.470105,0.70969 -0.206236,0.597939 0.104772,1.256019 0.710126,1.462691 l 5.868175,2.055825 c 0.109469,0.03619 0.306818,-0.04034 0.316193,0.06321 z"
   style="clip-rule:evenodd;fill:#2f2f2f;fill-opacity:1;fill-rule:nonzero;stroke-width:0.999998;stroke-linejoin:round;stroke-miterlimit:2"
   id="path14229"
   sodipodi:nodetypes="sccccccsssccccccsssccccccss" /><path
   style="fill:#cad8dd;fill-opacity:1;stroke-width:35.9055;stroke-linecap:round"
   d="m 31.225933,85.706583 -9.429098,8.014733 -11.550645,1.88582 -5.8931857,8.250454 1.8858195,7.07183 8.0147332,4.71455 16.736648,0.94291 10.607735,-4.00737 5.893186,-7.07182 z"
   id="path17756" /><path
   style="fill:#728e9c;stroke-width:35.9055;stroke-linecap:round"
   d="m 48.193358,103.57865 c 0.519317,0.3019 0.07273,2.36686 -2.168172,5.30761 -2.169326,2.84682 -6.249398,6.63811 -12.367597,8.68125 -5.127592,1.6999 -11.469797,2.19793 -17.934556,0.37198 -2.430713,-0.68014 -4.900266,-1.72181 -7.1511003,-3.27282 -0.4766046,-0.32332 -0.9449629,-0.67693 -1.3967393,-1.0618 -1.3106098,-1.11654 -2.4451046,-2.4649 -3.2522448,-4.05307 -1.0246706,-2.08073 -1.23856,-4.44705 -0.6508222,-6.62083 0.8400258,-2.84977 2.6728308,-5.065083 4.5511122,-6.676859 0,0 3.3e-6,-10e-7 3.3e-6,-10e-7 2.4510761,-2.086292 5.3949101,-3.008091 7.7962521,-3.575081 3.035687,-0.790168 5.149595,-1.158864 7.114984,-2.258817 0,0 2e-6,-2e-6 2e-6,-2e-6 6.621251,-3.608301 9.123836,-7.974425 10.04206,-7.43305 0.599309,0.353345 -0.687335,5.733745 -8.405726,10.305014 -1e-6,0 -1e-6,10e-7 -2e-6,10e-7 -2.489062,1.437578 -4.990298,2.017605 -7.893349,2.744836 -2.254714,0.622579 -4.753011,1.32393 -6.363867,2.816287 1e-6,1e-6 -2e-6,2e-6 -2e-6,2e-6 -1.5602123,1.41808 -3.0590964,3.09335 -3.5462978,4.99753 -0.3886846,1.32403 -0.2507835,2.88322 0.3986659,4.20272 0.5155834,1.09837 1.3691514,2.0816 2.4092515,2.96355 0.3583607,0.30387 0.7353224,0.59273 1.1223654,0.86712 1.855874,1.29112 3.993443,2.16636 6.14483,2.76754 5.68677,1.57224 11.396787,1.09128 15.940133,-0.37156 5.320964,-1.69808 9.111337,-4.93456 11.41488,-7.17753 2.379849,-2.31726 3.612929,-3.86296 4.195936,-3.52402 z"
   id="path17600" /><path
   style="fill:#cad8dd;fill-opacity:1;stroke-width:35.9055;stroke-linecap:round"
   d="m 86.150427,85.235128 -11.032504,21.506502 5.8465,5.60215 13.200737,4.12523 15.9116,-2.47514 5.5396,-3.41804 1.2965,-6.95396 -3.53591,-5.893191 -14.025786,-3.889499 -9.664825,-3.300184 z"
   id="path17758" /><path
   style="fill:#728e9c;stroke-width:35.9055;stroke-linecap:round"
   d="m 84.940465,83.314594 c 0.638167,-0.11203 1.102806,1.8872 3.116018,3.994234 0.83748,0.901065 1.962115,1.742638 3.493339,2.502293 2.762948,1.380724 5.609666,1.91619 9.959128,2.743109 2.97661,0.532923 6.97078,1.107386 10.57339,2.645594 1.44153,0.60735 2.92577,1.507353 4.16263,2.842893 1.19512,1.344049 1.95155,3.022343 2.19619,4.798973 0.25287,1.72686 0.20594,3.58799 -0.31306,5.41969 -0.35841,1.22329 -0.93133,2.37816 -1.68657,3.41101 -0.21781,0.29787 -0.44973,0.58413 -0.69454,0.85774 -2.40844,2.62224 -5.60204,4.05893 -8.58328,4.82971 -3.65776,0.98665 -7.322021,1.2356 -10.665756,1.1194 -3.60123,-0.11279 -6.903559,-0.63859 -9.911237,-1.59482 0,0 -2e-6,0 -2e-6,0 -5.826974,-1.84499 -9.633542,-5.36793 -11.600157,-8.11069 -2.016941,-2.81295 -2.238425,-4.77018 -1.74361,-5.01226 0.566068,-0.27694 1.58386,1.21013 3.724099,3.34653 2.105336,2.10156 5.584798,4.95592 10.640012,6.50154 0,0 2e-6,0 2e-6,0 2.680631,0.81603 5.660446,1.27377 9.010095,1.39978 3.09636,0.10503 6.431744,-0.0862 9.659834,-0.94969 2.60802,-0.73094 5.26692,-1.83223 6.94796,-3.78423 0.17113,-0.19165 0.33349,-0.39215 0.48588,-0.6004 0.52855,-0.72224 0.92795,-1.52471 1.1637,-2.35498 0.37298,-1.2512 0.38255,-2.64056 0.19458,-3.99607 -0.17259,-1.14067 -0.64697,-2.21126 -1.36499,-2.97471 -0.74323,-0.845651 -1.8406,-1.462762 -2.99272,-1.975804 -2.96929,-1.300518 -6.77768,-1.816531 -9.84148,-2.418751 -4.307408,-0.800013 -7.669524,-1.614583 -10.79738,-3.376982 -1.818967,-1.028946 -3.172331,-2.311151 -4.089053,-3.636089 -2.281932,-3.367905 -1.371905,-5.569285 -1.043022,-5.62702 z"
   id="path17685"
   sodipodi:nodetypes="cssc" /></svg>
