<?xml version="1.0" encoding="UTF-8" standalone="no"?>
<svg
   width="128px"
   height="128px"
   version="1.1"
   xml:space="preserve"
   style="fill-rule:evenodd;clip-rule:evenodd;stroke-linejoin:round;stroke-miterlimit:2;"
   id="svg24"
   sodipodi:docname="shaking face.svg"
   inkscape:version="1.2.2 (732a01da63, 2022-12-09)"
   xmlns:inkscape="http://www.inkscape.org/namespaces/inkscape"
   xmlns:sodipodi="http://sodipodi.sourceforge.net/DTD/sodipodi-0.dtd"
   xmlns="http://www.w3.org/2000/svg"
   xmlns:svg="http://www.w3.org/2000/svg"><defs
     id="defs28" /><sodipodi:namedview
     id="namedview26"
     pagecolor="#ffffff"
     bordercolor="#000000"
     borderopacity="0.25"
     inkscape:showpageshadow="2"
     inkscape:pageopacity="0.0"
     inkscape:pagecheckerboard="0"
     inkscape:deskcolor="#d1d1d1"
     showgrid="false"
     inkscape:zoom="2.9996796"
     inkscape:cx="27.836306"
     inkscape:cy="72.00769"
     inkscape:window-width="1366"
     inkscape:window-height="697"
     inkscape:window-x="-8"
     inkscape:window-y="-8"
     inkscape:window-maximized="1"
     inkscape:current-layer="svg24"
     showguides="false" /><g
     id="g57810"
     style="opacity:0.6"
     transform="matrix(-1,0,0,1,368.00001,0)"><path
       d="M 317.38939,20.9019 C 366.83535,20.9019 368,76.286598 368,87.243205 c 0,10.972441 -22.65118,19.854895 -50.61061,19.854895 -27.9515,0 -50.6106,-8.882454 -50.6106,-19.854895 0,-10.956607 1.17256,-66.341305 50.6106,-66.341305 z"
       style="opacity:1;fill:#fcc21b;fill-opacity:1;fill-rule:nonzero;stroke-width:0.801192"
       id="path57790" /><g
       id="g57808"><path
         d="m 315.98953,86.237794 c 0,4.354144 3.31172,6.1908 7.39986,6.1908 4.08815,0 7.39986,-1.836656 7.39986,-6.1908 0,-4.354142 -3.31171,-9.579113 -7.39986,-9.579113 -4.08814,0 -7.39986,5.224971 -7.39986,9.579113 z"
         style="opacity:1;fill:#ed6c30;fill-rule:nonzero;stroke-width:0.80119"
         id="path57792" /><g
         id="g57806"><g
           id="g57798"><ellipse
             cx="22.900362"
             cy="-310.65012"
             rx="13.13549"
             ry="12.257682"
             style="opacity:1;fill:#ffffff;stroke-width:1.00003"
             transform="rotate(96.349682)"
             id="ellipse57794" /><path
             d="m 303.00383,57.079265 c 0.18188,2.609609 2.48308,4.602402 5.13223,4.444244 2.65705,-0.150251 4.66566,-2.404004 4.48378,-5.013613 -0.17397,-2.617517 -2.46727,-4.602402 -5.12432,-4.444244 -2.65706,0.150251 -4.67358,2.404004 -4.49169,5.013613"
             style="opacity:1;fill:#2f2f2f;stroke-width:1"
             id="path57796"
             sodipodi:nodetypes="ccccc" /></g><g
           id="g57804"><ellipse
             cx="-335.33865"
             cy="-82.556534"
             rx="12.257641"
             ry="13.135447"
             style="opacity:1;fill:#ffffff;stroke-width:1.00003"
             transform="rotate(175.68742)"
             id="ellipse57800" /><path
             d="m 337.41944,56.106593 c -0.3005,2.601701 1.58949,4.981981 4.22282,5.314113 2.64124,0.34004 5.02943,-1.502502 5.32992,-4.096296 0.31631,-2.601701 -1.57368,-4.981981 -4.21492,-5.322021 -2.63332,-0.332132 -5.02942,1.51041 -5.33782,4.104204"
             style="opacity:1;fill:#2f2f2f;stroke-width:1"
             id="path57802"
             sodipodi:nodetypes="ccccc" /></g></g></g></g><g
     id="g57788"
     style="opacity:0.6"
     transform="translate(-240)"><path
       d="M 317.38939,20.9019 C 366.83535,20.9019 368,76.286598 368,87.243205 c 0,10.972441 -22.65118,19.854895 -50.61061,19.854895 -27.9515,0 -50.6106,-8.882454 -50.6106,-19.854895 0,-10.956607 1.17256,-66.341305 50.6106,-66.341305 z"
       style="opacity:1;fill:#fcc21b;fill-opacity:1;fill-rule:nonzero;stroke-width:0.801192"
       id="path19726" /><g
       id="g57776"><path
         d="m 315.98953,86.237794 c 0,4.354144 3.31172,6.1908 7.39986,6.1908 4.08815,0 7.39986,-1.836656 7.39986,-6.1908 0,-4.354142 -3.31171,-9.579113 -7.39986,-9.579113 -4.08814,0 -7.39986,5.224971 -7.39986,9.579113 z"
         style="opacity:1;fill:#ed6c30;fill-rule:nonzero;stroke-width:0.80119"
         id="path19728" /><g
         id="g57766"><g
           id="g57754"><ellipse
             cx="22.900362"
             cy="-310.65012"
             rx="13.13549"
             ry="12.257682"
             style="opacity:1;fill:#ffffff;stroke-width:1.00003"
             transform="rotate(96.349682)"
             id="ellipse19730" /><path
             d="m 302.60383,57.079265 c 0.18187,2.609609 2.48307,4.602402 5.13223,4.444244 2.65705,-0.150251 4.66566,-2.404004 4.48378,-5.013613 -0.17397,-2.617517 -2.46727,-4.602402 -5.12432,-4.444244 -2.65706,0.150251 -4.67358,2.404004 -4.49169,5.013613"
             style="opacity:1;fill:#2f2f2f;stroke-width:1"
             id="path19732"
             sodipodi:nodetypes="ccccc" /></g><g
           id="g57758"><ellipse
             cx="-335.33865"
             cy="-82.556534"
             rx="12.257641"
             ry="13.135447"
             style="opacity:1;fill:#ffffff;stroke-width:1.00003"
             transform="rotate(175.68742)"
             id="ellipse19736" /><path
             d="m 337.01943,56.106593 c -0.3005,2.601701 1.58949,4.981981 4.22282,5.314113 2.64124,0.34004 5.02943,-1.502502 5.32993,-4.096296 0.31631,-2.601701 -1.57368,-4.981981 -4.21492,-5.322021 -2.63333,-0.332132 -5.02943,1.51041 -5.33783,4.104204"
             style="opacity:1;fill:#2f2f2f;stroke-width:1"
             id="path19738"
             sodipodi:nodetypes="ccccc" /></g></g></g></g><path
     style="font-variation-settings:'opsz' 12, 'wght' 400;fill:none;stroke:#808080;stroke-width:5.99999;stroke-linecap:round;stroke-dasharray:none;stroke-opacity:0.5;paint-order:stroke fill markers"
     d="m 2.999995,33.988481 c 0,0 3.4317599,-7.40385 10.690669,-12.151906 6.115313,-4.000029 9.004408,-4.918388 9.004408,-4.918388"
     id="path37119"
     sodipodi:nodetypes="csc" /><path
     style="font-variation-settings:'opsz' 12, 'wght' 400;fill:none;stroke:#808080;stroke-width:5.99999;stroke-linecap:round;stroke-dasharray:none;stroke-opacity:0.5;paint-order:stroke fill markers"
     d="m 125.00001,33.988481 c 0,0 -3.43176,-7.40385 -10.69067,-12.151906 -6.11532,-4.000029 -9.00441,-4.918388 -9.00441,-4.918388"
     id="path21825"
     sodipodi:nodetypes="csc" /></svg>
