<?xml version="1.0" encoding="UTF-8" standalone="no"?>
<svg
   width="128px"
   height="128px"
   version="1.1"
   xml:space="preserve"
   style="fill-rule:evenodd;clip-rule:evenodd;stroke-linejoin:round;stroke-miterlimit:2;"
   id="svg24"
   sodipodi:docname="shaking face.svg"
   inkscape:version="1.2.2 (732a01da63, 2022-12-09)"
   xmlns:inkscape="http://www.inkscape.org/namespaces/inkscape"
   xmlns:sodipodi="http://sodipodi.sourceforge.net/DTD/sodipodi-0.dtd"
   xmlns="http://www.w3.org/2000/svg"
   xmlns:svg="http://www.w3.org/2000/svg"><defs
     id="defs28" /><sodipodi:namedview
     id="namedview26"
     pagecolor="#ffffff"
     bordercolor="#000000"
     borderopacity="0.25"
     inkscape:showpageshadow="2"
     inkscape:pageopacity="0.0"
     inkscape:pagecheckerboard="0"
     inkscape:deskcolor="#d1d1d1"
     showgrid="false"
     inkscape:zoom="4.2421876"
     inkscape:cx="60.22836"
     inkscape:cy="60.110496"
     inkscape:window-width="1366"
     inkscape:window-height="697"
     inkscape:window-x="-8"
     inkscape:window-y="-8"
     inkscape:window-maximized="1"
     inkscape:current-layer="svg24" /><g
     id="g5887"
     style="opacity:0.6;stroke-width:1.11086"
     transform="matrix(0.90020823,0,0,0.90020823,-1.1990774e-6,6.3866735)"><path
       d="M 56.221001,16.124299 C 1.2937532,16.124299 1.332e-6,77.648617 1.332e-6,89.819809 1.332e-6,102.00859 25.162155,111.8757 56.221001,111.8757 c 31.050044,0 56.220999,-9.86711 56.220999,-22.055891 0,-12.171192 -1.30255,-73.69551 -56.220999,-73.69551 z"
       style="opacity:1;fill:#fcc21b;fill-opacity:1;fill-rule:nonzero;stroke-width:0.890007"
       id="path2" /><g
       id="g5149"
       transform="matrix(0.87845305,0,0,0.87845305,1.6190054e-7,7.7790049)"
       style="stroke-width:1.26456"><path
         d="m 65.77021,92.120961 c 0,5.506063 -4.187852,7.82862 -9.357546,7.82862 -5.169693,0 -9.357546,-2.322557 -9.357546,-7.82862 0,-5.506062 4.187853,-12.113337 9.357546,-12.113337 5.169694,0 9.357546,6.607275 9.357546,12.113337 z"
         style="fill:#ed6c30;fill-rule:nonzero;stroke-width:1.01315"
         id="path19" /><g
         id="g3497"
         transform="translate(-0.01289595,7.8883336)"
         style="stroke-width:1.26456"><g
           id="g3489"
           style="stroke-width:1.26456"><ellipse
             cx="-38.453407"
             cy="82.909142"
             rx="16.610579"
             ry="15.500539"
             style="fill:#ffffff;stroke-width:1.2646"
             transform="rotate(-83.650318)"
             id="ellipse3485" /><path
             d="m 82.303544,47.36 c -0.23,3.3 -3.14,5.82 -6.49,5.62 -3.36,-0.19 -5.9,-3.04 -5.67,-6.34 0.22,-3.31 3.12,-5.82 6.48,-5.62 3.36,0.19 5.91,3.04 5.68,6.34"
             style="fill:#2f2f2f;stroke-width:1.26456"
             id="path3487" /></g><g
           id="g3495"
           style="stroke-width:1.26456"><ellipse
             cx="31.002705"
             cy="49.872723"
             rx="15.500487"
             ry="16.610523"
             style="fill:#ffffff;stroke-width:1.2646"
             transform="rotate(-4.3125781)"
             id="ellipse3491" /><path
             d="m 38.693544,46.13 c 0.38,3.29 -2.01,6.3 -5.34,6.72 -3.34,0.43 -6.36,-1.9 -6.74,-5.18 -0.4,-3.29 1.99,-6.3 5.33,-6.73 3.33,-0.42 6.36,1.91 6.75,5.19"
             style="fill:#2f2f2f;stroke-width:1.26456"
             id="path3493" /></g></g></g></g><g
     id="g19746"
     style="opacity:0.6;stroke-width:1.11086"
     transform="matrix(-0.90020823,0,0,0.90020823,128,6.3866735)"><path
       d="M 56.221001,16.124299 C 1.2937532,16.124299 1.332e-6,77.648617 1.332e-6,89.819809 1.332e-6,102.00859 25.162155,111.8757 56.221001,111.8757 c 31.050044,0 56.220999,-9.86711 56.220999,-22.055891 0,-12.171192 -1.30255,-73.69551 -56.220999,-73.69551 z"
       style="opacity:1;fill:#fcc21b;fill-opacity:1;fill-rule:nonzero;stroke-width:0.890007"
       id="path19726" /><g
       id="g19744"
       transform="matrix(0.87845305,0,0,0.87845305,1.6190054e-7,7.7790049)"
       style="stroke-width:1.26456"><path
         d="m 65.77021,92.120961 c 0,5.506063 -4.187852,7.82862 -9.357546,7.82862 -5.169693,0 -9.357546,-2.322557 -9.357546,-7.82862 0,-5.506062 4.187853,-12.113337 9.357546,-12.113337 5.169694,0 9.357546,6.607275 9.357546,12.113337 z"
         style="fill:#ed6c30;fill-rule:nonzero;stroke-width:1.01315"
         id="path19728" /><g
         id="g19742"
         transform="translate(-0.01289595,7.8883336)"
         style="stroke-width:1.26456"><g
           id="g19734"
           style="stroke-width:1.26456"><ellipse
             cx="-38.453407"
             cy="82.909142"
             rx="16.610579"
             ry="15.500539"
             style="fill:#ffffff;stroke-width:1.2646"
             transform="rotate(-83.650318)"
             id="ellipse19730" /><path
             d="m 82.303544,47.36 c -0.23,3.3 -3.14,5.82 -6.49,5.62 -3.36,-0.19 -5.9,-3.04 -5.67,-6.34 0.22,-3.31 3.12,-5.82 6.48,-5.62 3.36,0.19 5.91,3.04 5.68,6.34"
             style="fill:#2f2f2f;stroke-width:1.26456"
             id="path19732" /></g><g
           id="g19740"
           style="stroke-width:1.26456"><ellipse
             cx="31.002705"
             cy="49.872723"
             rx="15.500487"
             ry="16.610523"
             style="fill:#ffffff;stroke-width:1.2646"
             transform="rotate(-4.3125781)"
             id="ellipse19736" /><path
             d="m 38.693544,46.13 c 0.38,3.29 -2.01,6.3 -5.34,6.72 -3.34,0.43 -6.36,-1.9 -6.74,-5.18 -0.4,-3.29 1.99,-6.3 5.33,-6.73 3.33,-0.42 6.36,1.91 6.75,5.19"
             style="fill:#2f2f2f;stroke-width:1.26456"
             id="path19738" /></g></g></g></g><path
     style="font-variation-settings:'opsz' 12, 'wght' 400;fill:none;stroke:#808080;stroke-width:5.99999;stroke-linecap:round;stroke-dasharray:none;stroke-opacity:0.5;paint-order:stroke fill markers"
     d="m 2.999995,33.988481 c 0,0 3.4317599,-7.40385 10.690669,-12.151906 6.115313,-4.000029 9.004408,-4.918388 9.004408,-4.918388"
     id="path37119"
     sodipodi:nodetypes="csc" /><path
     style="font-variation-settings:'opsz' 12, 'wght' 400;fill:none;stroke:#808080;stroke-width:5.99999;stroke-linecap:round;stroke-dasharray:none;stroke-opacity:0.5;paint-order:stroke fill markers"
     d="m 125.00001,33.988481 c 0,0 -3.43176,-7.40385 -10.69067,-12.151906 -6.11532,-4.000029 -9.00441,-4.918388 -9.00441,-4.918388"
     id="path21825"
     sodipodi:nodetypes="csc" /></svg>
