<?xml version="1.0" encoding="UTF-8" standalone="no"?>
<svg
   width="100%"
   height="100%"
   viewBox="0 0 128 128"
   version="1.1"
   xml:space="preserve"
   style="fill-rule:evenodd;clip-rule:evenodd;stroke-linejoin:round;stroke-miterlimit:2;"
   id="svg18540"
   sodipodi:docname="smiling face with tear.svg"
   inkscape:version="1.3 (0e150ed6c4, 2023-07-21)"
   xmlns:inkscape="http://www.inkscape.org/namespaces/inkscape"
   xmlns:sodipodi="http://sodipodi.sourceforge.net/DTD/sodipodi-0.dtd"
   xmlns="http://www.w3.org/2000/svg"
   xmlns:svg="http://www.w3.org/2000/svg"><defs
   id="defs18544">&#10;        &#10;        &#10;    </defs><sodipodi:namedview
   id="namedview18542"
   pagecolor="#ffffff"
   bordercolor="#000000"
   borderopacity="0.25"
   inkscape:showpageshadow="2"
   inkscape:pageopacity="0.0"
   inkscape:pagecheckerboard="0"
   inkscape:deskcolor="#d1d1d1"
   showgrid="false"
   inkscape:zoom="4.2421876"
   inkscape:cx="67.064455"
   inkscape:cy="58.106813"
   inkscape:window-width="1366"
   inkscape:window-height="697"
   inkscape:window-x="-8"
   inkscape:window-y="-8"
   inkscape:window-maximized="1"
   inkscape:current-layer="svg18540" />&#10;    <path
   d="M 64,9.64 C 1.69,9.64 0.21,79.5 0.21,93.33 c 0,13.83 28.56,25.03 63.79,25.03 35.24,0 63.79,-11.21 63.79,-25.03 C 127.79,79.5 126.32,9.64 64,9.64 Z"
   style="fill:#fcc21b;fill-rule:nonzero"
   id="path18520" />&#10;    <path
   d="m 42.005247,66.941455 c -4.49,0.04 -8.17,-4.27 -8.22,-9.62 -0.05,-5.37 3.55,-9.75 8.04,-9.79 4.48,-0.04 8.17,4.27 8.22,9.64 0.05,5.36 -3.55,9.73 -8.04,9.77 z m 44.11,0 c 4.48,-0.01 8.11,-4.36 8.1,-9.71 -0.01,-5.37 -3.66,-9.7 -8.14,-9.69 -4.49,0.01 -8.13,4.36 -8.12,9.73 0.02,5.35 3.67,9.68 8.16,9.67 z"
   style="fill:#2f2f2f;fill-rule:nonzero"
   id="path18522" /><path
   id="path5"
   style="font-variation-settings:'wght' 1000;fill:none;stroke:#2f2f2f;stroke-width:6.00003;stroke-linecap:round;stroke-dasharray:none;stroke-opacity:1"
   d="m 48.418355,82.92436 c 0,0 5.225084,4.659738 15.600135,4.659738 10.375049,0 15.563136,-4.659738 15.563136,-4.659738"
   sodipodi:nodetypes="czc" />&#10;    <g
   transform="matrix(1.13352,0,0,0.833333,38.5462,11.5)"
   id="g18530">&#10;        <ellipse
   cx="42.12"
   cy="69"
   rx="11.88"
   ry="6"
   style="fill:#fcc21b;"
   id="ellipse18528" />&#10;    </g>&#10;    <g
   transform="matrix(1.13352,0,0,0.833333,-5.62376,11.5)"
   id="g18534">&#10;        <ellipse
   cx="42.12"
   cy="69"
   rx="11.88"
   ry="6"
   style="fill:#fcc21b;"
   id="ellipse18532" />&#10;    </g>&#10;    &#10;<path
   d="m 101.50172,94.034039 c -1.550005,-2.5 -3.310005,-7.87 -3.570005,-9.57 -0.46,-2.94 -1.7,-8.28 -2.599997,-12.74 -0.24,-1.21 -0.23,-2.88 1.289997,-2.96 1.21,-0.04 3.12,0.69 4.240005,1.07 3.29001,1.12 6.74001,3.04 9.6,4.97 5.22,3.57 8.75,9.3 8.05,15.78 -0.53,4.78 -5.02,7.94 -9.07999,7.75 -2.92,-0.14 -6.48,-1.98 -7.93001,-4.3 z"
   fill="#fff"
   id="path16024"
   style="fill:#ffffff;fill-opacity:1" /></svg>
