<?xml version="1.0" encoding="UTF-8" standalone="no"?>
<svg
   width="100%"
   height="100%"
   viewBox="0 0 128 128"
   version="1.1"
   xml:space="preserve"
   style="fill-rule:evenodd;clip-rule:evenodd;stroke-linejoin:round;stroke-miterlimit:2;"
   id="svg6"
   sodipodi:docname="smiling face with tear.svg"
   inkscape:version="1.3 (0e150ed6c4, 2023-07-21)"
   xmlns:inkscape="http://www.inkscape.org/namespaces/inkscape"
   xmlns:sodipodi="http://sodipodi.sourceforge.net/DTD/sodipodi-0.dtd"
   xmlns="http://www.w3.org/2000/svg"
   xmlns:svg="http://www.w3.org/2000/svg"><defs
   id="defs6" /><sodipodi:namedview
   id="namedview6"
   pagecolor="#ffffff"
   bordercolor="#000000"
   borderopacity="0.25"
   inkscape:showpageshadow="2"
   inkscape:pageopacity="0.0"
   inkscape:pagecheckerboard="0"
   inkscape:deskcolor="#d1d1d1"
   inkscape:zoom="2.5836035"
   inkscape:cx="-102.18286"
   inkscape:cy="102.95697"
   inkscape:current-layer="svg6" />&#10;    &#10;    <path
   fill="#fcc21b"
   d="m 122.66312,42.914886 c -9.11,-18.650004 -32.760006,-32.04 -58.660005,-32.04 -25.889999,0 -49.55,13.389996 -58.6600003,32.029984 -13.829998,28.310022 4.150001,54.860034 4.150001,54.860034 l 0.05,0.0302 c 3.4099993,10.890017 26.4600003,19.330007 54.4600003,19.330007 27.990002,0 51.040004,-8.43001 54.460004,-19.319987 0.01,0 0.04,-0.0401 0.04,-0.0401 0,0 17.98,-26.550015 4.16,-54.850021 z"
   id="path1-1"
   style="stroke-width:0.999999" /><g
   id="g3">&#10;        <path
   d="M42.21,66.47C37.72,66.51 34.04,62.2 33.99,56.85C33.94,51.48 37.54,47.1 42.03,47.06C46.51,47.02 50.2,51.33 50.25,56.7C50.3,62.06 46.7,66.43 42.21,66.47ZM86.32,66.47C90.8,66.46 94.43,62.11 94.42,56.76C94.41,51.39 90.76,47.06 86.28,47.07C81.79,47.08 78.15,51.43 78.16,56.8C78.18,62.15 81.83,66.48 86.32,66.47Z"
   style="fill:#2f2f2f;fill-rule:nonzero;"
   id="path2" />&#10;        <path
   d="M63.89,95.08C49.76,95.08 41.71,86.94 41.37,86.6C40.814,85.999 40.505,85.21 40.505,84.391C40.505,82.606 41.974,81.137 43.759,81.137C44.612,81.137 45.432,81.472 46.04,82.07C46.29,82.32 52.62,88.58 63.89,88.58C75.16,88.58 81.49,82.33 81.76,82.06C83.011,80.798 85.077,80.78 86.35,82.02C86.976,82.629 87.329,83.467 87.329,84.34C87.329,85.184 86.999,85.996 86.41,86.6C86.07,86.94 78.02,95.08 63.89,95.08Z"
   style="fill:#2f2f2f;fill-rule:nonzero;"
   id="path3" />&#10;    </g>&#10;    <g
   transform="matrix(1.13352,0,0,0.833333,38.5462,11.5)"
   id="g4">&#10;        <ellipse
   cx="42.12"
   cy="69"
   rx="11.88"
   ry="6"
   style="fill:#fcc21b;"
   id="ellipse3" />&#10;    </g>&#10;    <g
   transform="matrix(1.13352,0,0,0.833333,-5.62376,11.5)"
   id="g5">&#10;        <ellipse
   cx="42.12"
   cy="69"
   rx="11.88"
   ry="6"
   style="fill:#fcc21b;"
   id="ellipse4" />&#10;    </g>&#10;    <g
   transform="matrix(0.243233,-0.0274734,0.0274734,0.243233,77.061,64.8947)"
   id="g6">&#10;        <path
   d="M61.02,5.55C61.32,5.55 61.49,5.59 61.54,5.6C62.07,5.75 62.64,6.13 63.21,6.72C66.84,10.48 69.28,15.65 71.64,20.64C80.88,40.25 93.51,61.74 96.45,83.52C96.47,83.71 96.51,83.89 96.56,84.06C99.19,103.43 90.34,112.85 88.52,114.55C81.18,121.42 69.76,123.92 60.03,122.39C50.58,120.91 40.4,116.4 35.82,107.52C33.4,102.83 31.85,96.46 31.77,91.17C31.83,90.89 31.86,90.6 31.85,90.31C31.68,85.63 32.18,80.92 33.34,76.3C38.47,55.84 50.11,37.65 54.62,16.97L54.68,16.67C55.34,13.64 55.97,10.77 57.33,8.37C57.93,7.31 58.54,6.54 59.2,6.02C59.47,5.84 60.21,5.55 61.02,5.55"
   style="fill:#fff;fill-rule:nonzero;"
   id="path5" />&#10;    </g>&#10;</svg>
