<?xml version="1.0" encoding="UTF-8" standalone="no"?>
<svg
   width="100%"
   height="100%"
   viewBox="0 0 128 128"
   version="1.1"
   xml:space="preserve"
   style="fill-rule:evenodd;clip-rule:evenodd;stroke-linejoin:round;stroke-miterlimit:2;"
   id="svg8"
   sodipodi:docname="teapot.svg"
   inkscape:version="1.3 (0e150ed6c4, 2023-07-21)"
   xmlns:inkscape="http://www.inkscape.org/namespaces/inkscape"
   xmlns:sodipodi="http://sodipodi.sourceforge.net/DTD/sodipodi-0.dtd"
   xmlns="http://www.w3.org/2000/svg"
   xmlns:svg="http://www.w3.org/2000/svg"><defs
   id="defs8" /><sodipodi:namedview
   id="namedview8"
   pagecolor="#ffffff"
   bordercolor="#000000"
   borderopacity="0.25"
   inkscape:showpageshadow="2"
   inkscape:pageopacity="0.0"
   inkscape:pagecheckerboard="0"
   inkscape:deskcolor="#d1d1d1"
   inkscape:zoom="2"
   inkscape:cx="43.25"
   inkscape:cy="104.25"
   inkscape:window-width="1366"
   inkscape:window-height="697"
   inkscape:window-x="-8"
   inkscape:window-y="-8"
   inkscape:window-maximized="1"
   inkscape:current-layer="svg8" />&#10;    <path
   id="path1"
   style="fill:#db4437;fill-rule:nonzero;stroke-width:0.999998"
   d="m 20.141286,45.553813 c -5.949608,0.280696 -11.4687361,4.382658 -13.563858,9.940969 -2.6657304,6.548789 -1.0649216,14.665476 4.102489,19.548164 4.723405,4.927855 11.088223,7.935597 17.560446,9.821768 2.129846,0.610516 4.406397,1.119738 6.610868,0.644052 2.205988,-0.639645 3.940722,-2.488509 4.510416,-4.673144 1.186672,-3.422709 1.205881,-7.126442 1.337073,-10.733482 0.105024,-2.045926 -0.420494,-4.0413 -1.059066,-5.965777 C 38.305933,59.75855 36.580903,55.42895 33.815058,51.730938 31.26459,48.398213 27.384672,45.965763 23.13623,45.673387 22.142578,45.558642 21.140683,45.538259 20.141286,45.553813 Z m 0.886396,9.790642 c 2.901475,0.0097 5.462563,1.915818 6.985561,4.279956 2.219963,3.041723 3.612518,6.583442 4.825372,10.121095 0.320031,1.824389 0.40508,3.69 0.419352,5.53751 -0.0076,0.996432 -0.739994,2.160725 -1.862143,1.977666 -1.070868,-0.124346 -1.977751,-0.769931 -2.98054,-1.115266 -4.615382,-2.071018 -8.916932,-5.222745 -11.579248,-9.591958 -1.386239,-2.515213 -1.537895,-5.806501 0.111568,-8.243425 0.875348,-1.478126 2.298598,-2.803841 4.080078,-2.965578 z" />&#10;    <path
   d="m 46.608378,101.71789 c 0.403226,-0.87576 0.930521,-1.65237 1.623244,-2.16461 1.209678,-0.89228 9.077759,-2.47854 17.824664,-4.01524 8.736568,1.5367 16.614987,3.12296 17.824666,4.01524 0.692722,0.51224 1.220018,1.28885 1.623244,2.16461 1.375104,3.02381 2.528475,6.74297 1.628413,10.10204 -0.930511,3.47271 -9.701095,4.97583 -21.076323,4.97583 -11.375226,0 -19.278713,-1.86228 -21.076321,-4.97583 -1.75441,-3.03873 0.253308,-7.06169 1.628413,-10.10204 z"
   style="fill:#c62a2a;fill-rule:nonzero;stroke-width:0.999998"
   id="path2"
   sodipodi:nodetypes="cccccsssc" />&#10;    <path
   d="m 48.198277,39.340832 c 0,0 12.603241,-4.115945 17.848861,-4.115945 5.24562,0 17.848861,4.115945 17.848861,4.115945 10.06884,8.222068 21.277181,21.120006 21.277181,33.330317 0,12.858645 -7.671968,24.970721 -19.862632,30.707501 -5.540317,2.60317 -12.505008,3.16309 -19.26341,3.16309 -6.758402,0 -13.713269,-0.5501 -19.26341,-3.16309 C 34.583241,97.64187 26.921099,85.529794 26.921099,72.671149 c 0,-12.210311 11.218162,-25.108249 21.277178,-33.330317 z"
   style="fill:#db4437;fill-rule:nonzero;stroke-width:0.999998"
   id="path3" />&#10;    <path
   d="m 122.78628,44.969559 -0.11788,-1.424372 -9.33209,-0.707275 c 0,0 -3.32027,2.809452 -5.34386,8.202421 -1.90571,5.088448 -3.38902,10.275129 -5.80554,10.677882 l -2.426348,0.402754 c 0,0 -5.520671,1.178791 -5.805546,12.23978 -0.284874,11.060989 5.805546,12.799706 5.805546,12.799706 0,0 7.269208,1.011796 12.917588,-9.695556 5.64837,-10.707352 3.6346,-17.96674 5.45191,-23.418649 1.8173,-5.451908 4.65622,-9.076691 4.65622,-9.076691 z"
   style="fill:#db4437;fill-rule:nonzero;stroke-width:0.999998"
   id="path4" />&#10;    <ellipse
   cx="118.01218"
   cy="43.997055"
   rx="5.1965036"
   ry="2.7210426"
   style="fill:#db4437;stroke-width:0.999998"
   id="ellipse4" />&#10;    <ellipse
   cx="118.01218"
   cy="43.800591"
   rx="3.2343435"
   ry="1.3617493"
   style="fill-opacity:0.23;stroke-width:0.999998"
   id="ellipse5" />&#10;    <ellipse
   cx="65.516678"
   cy="44.851677"
   rx="25.235952"
   ry="8.2810078"
   style="fill:#fcc21b;stroke-width:0.999998"
   id="ellipse6" />&#10;    <path
   d="m 86.626865,41.3546 c 0,0 -7.878253,-8.389063 -21.208415,-8.389063 -13.330162,0 -21.208415,8.389063 -21.208415,8.389063 0,3.742662 9.489267,6.778049 21.208415,6.778049 11.719147,0 21.208415,-3.035387 21.208415,-6.778049 z"
   style="fill:#db4437;fill-rule:nonzero;stroke-width:0.999998"
   id="path6" />&#10;    <circle
   cx="65.418449"
   cy="30.634464"
   r="7.1808019"
   style="fill:#db4437;stroke-width:0.999998"
   id="circle6" />&#10;    <g
   id="g7"
   transform="matrix(0.98232586,0,0,0.98232586,1.5672689,1.3316474)"
   style="stroke-width:1.01799">&#10;        &#10;    </g>&#10;    <path
   d="m 36.724426,61.854157 c 2.495028,-6.29674 7.966661,-7.62867 10.442123,-5.628727 4.773307,3.856387 -2.453078,9.172655 -4.567815,14.744711 -1.225817,3.229869 -2.324776,8.724015 -2.56387,9.548208 -0.96917,3.340876 -3.456378,1.10967 -4.233825,-1.954829 -1.246144,-4.911987 -1.552154,-10.461802 0.923387,-16.709363 z"
   style="fill:#ef9a9a;fill-opacity:0.928709;fill-rule:nonzero;stroke-width:0.999998"
   id="path8"
   sodipodi:nodetypes="ssssss" />&#10;    <g
   transform="matrix(0.35453908,0,0,0.35453908,56.954632,100.70562)"
   id="g8"
   style="stroke-width:1.01799">&#10;        <text
   x="10.841976"
   y="36.351852"
   style="font-weight:700;font-size:21.851px;font-family:ComicNeue-Bold, 'Comic Neue';fill:#9b1818;fill-opacity:1;stroke-width:1.01799"
   id="text8">418</text>&#10;    </g>&#10;</svg>
