<?xml version="1.0" encoding="UTF-8" standalone="no"?>
<svg
   width="100%"
   height="100%"
   viewBox="0 0 128 128"
   version="1.1"
   xml:space="preserve"
   style="fill-rule:evenodd;clip-rule:evenodd;stroke-linejoin:round;stroke-miterlimit:2;"
   id="svg8"
   sodipodi:docname="teapot.svg"
   inkscape:version="1.3 (0e150ed6c4, 2023-07-21)"
   xmlns:inkscape="http://www.inkscape.org/namespaces/inkscape"
   xmlns:sodipodi="http://sodipodi.sourceforge.net/DTD/sodipodi-0.dtd"
   xmlns="http://www.w3.org/2000/svg"
   xmlns:svg="http://www.w3.org/2000/svg"><defs
   id="defs8" /><sodipodi:namedview
   id="namedview8"
   pagecolor="#ffffff"
   bordercolor="#000000"
   borderopacity="0.25"
   inkscape:showpageshadow="2"
   inkscape:pageopacity="0.0"
   inkscape:pagecheckerboard="0"
   inkscape:deskcolor="#d1d1d1"
   inkscape:zoom="2.8284271"
   inkscape:cx="59.220193"
   inkscape:cy="92.100658"
   inkscape:window-width="1366"
   inkscape:window-height="697"
   inkscape:window-x="-8"
   inkscape:window-y="-8"
   inkscape:window-maximized="1"
   inkscape:current-layer="svg8" />&#10;    <path
   id="path1"
   style="fill:#db4437;fill-rule:nonzero;stroke-width:0.999998"
   d="m 20.141286,52.053813 c -5.949608,0.280696 -11.4687361,4.382658 -13.563858,9.940969 -2.6657304,6.548789 -1.0649216,14.665476 4.102489,19.548164 4.723405,4.927855 11.088223,7.935597 17.560446,9.821768 2.129846,0.610516 4.406397,1.119738 6.610868,0.644052 2.205988,-0.639645 3.940722,-2.488509 4.510416,-4.673144 1.186672,-3.422709 1.205881,-7.126442 1.337073,-10.733482 0.105024,-2.045926 -0.420494,-4.0413 -1.059066,-5.965777 C 38.305933,66.25855 36.580903,61.92895 33.815058,58.230938 31.26459,54.898213 27.384672,52.465763 23.13623,52.173387 22.142578,52.058642 21.140683,52.038259 20.141286,52.053813 Z m 0.886396,9.790642 c 2.901475,0.0097 5.462563,1.915818 6.985561,4.279956 2.219963,3.041723 3.612518,6.583442 4.825372,10.121095 0.320031,1.824389 0.40508,3.69 0.419352,5.53751 -0.0076,0.996432 -0.739994,2.160725 -1.862143,1.977666 -1.070868,-0.124346 -1.977751,-0.769931 -2.98054,-1.115266 -4.615382,-2.071018 -8.916932,-5.222745 -11.579248,-9.591958 -1.386239,-2.515213 -1.537895,-5.806501 0.111568,-8.243425 0.875348,-1.478126 2.298598,-2.803841 4.080078,-2.965578 z" />&#10;    <path
   d="m 47.569589,109.14698 c 0.383107,-0.83206 0.884093,-1.56992 1.542252,-2.0566 1.149321,-0.84776 8.624821,-2.35488 16.935297,-3.8149 8.300654,1.46002 15.785977,2.96714 16.935298,3.8149 0.658159,0.48668 1.159145,1.22454 1.542252,2.0566 1.306493,2.87294 3.569648,8.62119 1.547163,9.598 -3.075864,1.48559 -9.217056,3.49012 -20.024713,3.49012 -10.807656,0 -16.948849,-2.00453 -20.024712,-3.49012 -2.022485,-0.97681 0.24067,-6.70935 1.547163,-9.598 z"
   style="fill:#c62a2a;fill-rule:nonzero;stroke-width:0.999998"
   id="path2"
   sodipodi:nodetypes="cccccsssc" />&#10;    <path
   d="m 48.198277,45.840832 c 0,0 12.603241,-4.115945 17.848861,-4.115945 5.24562,0 17.848861,4.115945 17.848861,4.115945 10.06884,8.222068 21.277181,21.120006 21.277181,33.330317 0,12.858645 -7.671968,24.970721 -19.862632,30.707501 -5.540317,2.60317 -12.505008,3.16309 -19.26341,3.16309 -6.758402,0 -13.713269,-0.5501 -19.26341,-3.16309 -12.200487,-5.73678 -19.862629,-17.848856 -19.862629,-30.707501 0,-12.210311 11.218162,-25.108249 21.277178,-33.330317 z"
   style="fill:#db4437;fill-rule:nonzero;stroke-width:0.999998"
   id="path3" />&#10;    <path
   d="m 122.78628,51.469559 -0.11788,-1.424372 -9.33209,-0.707275 c 0,0 -3.32027,2.809452 -5.34386,8.202421 -1.90571,5.088448 -3.38902,10.275129 -5.80554,10.677882 l -2.426348,0.402754 c 0,0 -5.520671,1.178791 -5.805546,12.23978 -0.284874,11.060989 5.805546,12.799706 5.805546,12.799706 0,0 7.269208,1.011796 12.917588,-9.695556 5.64837,-10.707352 3.6346,-17.96674 5.45191,-23.418649 1.8173,-5.451908 4.65622,-9.076691 4.65622,-9.076691 z"
   style="fill:#db4437;fill-rule:nonzero;stroke-width:0.999998"
   id="path4" />&#10;    <ellipse
   cx="118.01218"
   cy="50.497055"
   rx="5.1965036"
   ry="2.7210426"
   style="fill:#db4437;stroke-width:0.999998"
   id="ellipse4" />&#10;    <ellipse
   cx="118.01218"
   cy="50.300591"
   rx="3.2343435"
   ry="1.3617493"
   style="fill-opacity:0.23;stroke-width:0.999998"
   id="ellipse5" />&#10;    <ellipse
   cx="65.516678"
   cy="51.351677"
   rx="25.235952"
   ry="8.2810078"
   style="fill:#fcc21b;stroke-width:0.999998"
   id="ellipse6" />&#10;    <path
   d="m 86.626865,47.8546 c 0,0 -7.878253,-8.389063 -21.208415,-8.389063 -13.330162,0 -21.208415,8.389063 -21.208415,8.389063 0,3.742662 9.489267,6.778049 21.208415,6.778049 11.719147,0 21.208415,-3.035387 21.208415,-6.778049 z"
   style="fill:#db4437;fill-rule:nonzero;stroke-width:0.999998"
   id="path6" />&#10;    <circle
   cx="65.418449"
   cy="37.134464"
   r="7.1808019"
   style="fill:#db4437;stroke-width:0.999998"
   id="circle6" />&#10;    <g
   id="g7"
   transform="matrix(0.98232586,0,0,0.98232586,1.5672689,1.3316474)"
   style="stroke-width:1.01799">&#10;        &#10;    </g>&#10;    <path
   d="m 36.724426,68.354157 c 2.495028,-6.29674 7.966661,-7.62867 10.442123,-5.628727 4.773307,3.856387 -2.453078,9.172655 -4.567815,14.744711 -1.225817,3.229869 -2.324776,8.724015 -2.56387,9.548208 -0.96917,3.340876 -3.456378,1.10967 -4.233825,-1.954829 -1.246144,-4.911987 -1.552154,-10.461802 0.923387,-16.709363 z"
   style="fill:#ef9a9a;fill-opacity:0.928709;fill-rule:nonzero;stroke-width:0.999998"
   id="path8"
   sodipodi:nodetypes="ssssss" />&#10;    <g
   transform="matrix(0.35453908,0,0,0.35453908,56.954632,107.01812)"
   id="g8"
   style="stroke-width:1.01799">&#10;        <text
   x="10.841976"
   y="36.351852"
   style="font-weight:700;font-size:21.851px;font-family:ComicNeue-Bold, 'Comic Neue';fill:#9b1818;fill-opacity:1;stroke-width:1.01799"
   id="text8">418</text>&#10;    </g>&#10;</svg>
