<?xml version="1.0" encoding="UTF-8" standalone="no"?>
<svg
   width="128"
   height="128"
   style="enable-background:new 0 0 128 128;"
   version="1.1"
   id="svg5"
   sodipodi:docname="train.svg"
   inkscape:version="1.3 (0e150ed6c4, 2023-07-21)"
   xmlns:inkscape="http://www.inkscape.org/namespaces/inkscape"
   xmlns:sodipodi="http://sodipodi.sourceforge.net/DTD/sodipodi-0.dtd"
   xmlns:xlink="http://www.w3.org/1999/xlink"
   xmlns="http://www.w3.org/2000/svg"
   xmlns:svg="http://www.w3.org/2000/svg">
  <defs
     id="defs5" />
  <sodipodi:namedview
     id="namedview5"
     pagecolor="#ffffff"
     bordercolor="#000000"
     borderopacity="0.25"
     inkscape:showpageshadow="2"
     inkscape:pageopacity="0.0"
     inkscape:pagecheckerboard="0"
     inkscape:deskcolor="#d1d1d1"
     inkscape:zoom="2.867097"
     inkscape:cx="50.922588"
     inkscape:cy="43.074929"
     inkscape:window-width="1366"
     inkscape:window-height="697"
     inkscape:window-x="-8"
     inkscape:window-y="-8"
     inkscape:window-maximized="1"
     inkscape:current-layer="svg5" />
  <g
     id="g10"
     transform="translate(-0.00165211,4)">&#10;		<path
   style="fill:#2f2f2f;fill-opacity:1"
   d="m 29.3,105.76 c 0,0 -0.37,1.11 -0.38,1.98 -0.01,0.87 0.12,2.64 1.68,2.64 2.02,0 24.86,-0.07 35.87,0 11.01,0.07 31.28,-0.14 32.7,-0.22 1.42,-0.07 1.03,-3.22 0.94,-4.3 z"
   id="path1-5" />
&#10;		<path
   style="fill:#2f2f2f;fill-opacity:1"
   d="m 102.23,116.02 2.89,1.99 c 0,0 1.87,1.63 2.12,2.61 0.25,0.98 -0.33,2.84 -1.16,3.23 L 62.74,124 22.32,123.88 c -0.63,-0.16 -1.39,-0.77 -1.58,-1.89 -0.19,-1.12 0.43,-2.37 0.82,-3.15 0.39,-0.78 8.43,-2.81 8.43,-2.81 z"
   id="path2-8" />
&#10;		<path
   style="fill:#855c52"
   d="m 25.89,113.94 c -0.78,0.01 -1.35,0.94 -1.82,1.55 -1.22,1.57 -1.99,2.56 -2.5,3.35 -0.7,1.09 0.7,2.03 1.95,2.03 1.25,0 83.39,0.12 83.59,-0.41 0.27,-0.7 -1.33,-3.09 -2.65,-5.29 -0.46,-0.77 -1.46,-1.82 -2.36,-1.81 z"
   id="path3-2" />
&#10;		<path
   style="fill:#855c52"
   d="m 32.22,100.82 -2.78,4.53 c -0.48,0.78 0.08,1.78 1,1.78 l 68.52,-0.04 c 0.91,0 1.47,-0.99 1.01,-1.77 l -2.69,-4.51 H 32.22 Z"
   id="path4-0" />
&#10;		<g
   id="g9">&#10;			<g
   id="g6">&#10;				<path
   id="path5-5"
   style="fill:#6593a2"
   d="m 42.370793,99.099609 -9.041016,19.451171 v 0.002 c -1.339317,2.8417 -2.477639,5.27135 -2.519531,5.41797 l 5.349609,-0.0312 h 4.939453 l 8.150391,-22.38867 c 0.45,-1.45 -6.878906,-2.461171 -6.878906,-2.451171 z" />
&#10;				&#10;			</g>
&#10;			<g
   id="g8">&#10;				<path
   id="path7"
   style="fill:#6593a2"
   d="m 84.870793,99.099609 c 0.01,-0.01 -7.330859,1.001171 -6.88086,2.451171 l 8.189453,22.35938 4.890625,-0.01 0.002,-0.004 5.347656,-0.0156 c -0.05369,-0.18791 -1.804318,-3.8956 -3.667969,-7.82227 z" />
&#10;				&#10;			</g>
&#10;		</g>
&#10;	</g>
  <g
     id="g5"
     transform="matrix(0.87258435,0,0,0.87258435,8.1539648,7.9590521)"
     style="stroke-width:1.14603">
    <g
       id="g4"
       style="stroke-width:1.14603">
      <path
         d="m 43.57,122.22 c 0,2.79 -2.26,5.06 -5.06,5.06 v 0 c -2.78,0 -5.04,-2.27 -5.04,-5.06 V 102.8 c 0,-2.78 2.26,-5.05 5.04,-5.05 v 0 c 2.8,0 5.06,2.27 5.06,5.05 z"
         style="fill:#2f2f2f;stroke-width:1.14603"
         id="path1" />
      <path
         d="m 84.44,122.22 c 0,2.79 2.26,5.06 5.05,5.06 v 0 c 2.79,0 5.05,-2.27 5.05,-5.06 V 102.8 c 0,-2.78 -2.26,-5.05 -5.05,-5.05 v 0 c -2.79,0 -5.05,2.27 -5.05,5.05 z"
         style="fill:#2f2f2f;stroke-width:1.14603"
         id="path2" />
      <g
         id="g3"
         style="stroke-width:1.14603">
        <defs
           id="defs2">
          <path
             id="SVGID_1_"
             d="m 115.23,87.76 c 0,12.81 -10.38,23.18 -23.18,23.18 h -56.1 c -12.79,0 -23.19,-10.38 -23.19,-23.18 V 23.9 C 12.76,11.09 23.15,0.72 35.95,0.72 h 56.1 c 12.81,0 23.18,10.38 23.18,23.18 z" />
        </defs>
        <use
           style="overflow:visible;fill:#fcc21b;stroke-width:1.14603"
           xlink:href="#SVGID_1_"
           id="use2" />
        <clipPath
           id="SVGID_2_">
          <use
             style="overflow:visible"
             xlink:href="#SVGID_1_"
             id="use3" />
        </clipPath>
      </g>
      <path
         d="m 105.01,36.75 c 0,6.9 -5.58,12.5 -12.5,12.5 H 35.5 C 28.6,49.25 23,43.65 23,36.75 V 20.94 C 23,14.04 28.6,8.45 35.5,8.45 h 57.01 c 6.92,0 12.5,5.59 12.5,12.49 z"
         style="fill:#40c0e7;stroke-width:1.14603"
         id="path3" />
    </g>
    <path
       d="m 40.05,87.78 c 0,4.64 -3.77,8.4 -8.41,8.4 -4.65,0 -8.42,-3.76 -8.42,-8.4 0,-4.65 3.77,-8.42 8.42,-8.42 4.64,0 8.41,3.77 8.41,8.42 z"
       style="fill:#ffffff;stroke-width:1.24291"
       id="path4" />
    <path
       d="m 87.96,87.78 c 0,4.64 3.76,8.4 8.41,8.4 4.64,0 8.4,-3.76 8.4,-8.4 0,-4.65 -3.76,-8.42 -8.4,-8.42 -4.65,0 -8.41,3.77 -8.41,8.42 z"
       style="fill:#ffffff;stroke-width:1.24291"
       id="path5" />
  </g>
</svg>
