<?xml version="1.0" encoding="UTF-8" standalone="no"?>
<svg
   width="128"
   height="128"
   style="enable-background:new 0 0 128 128;"
   version="1.1"
   id="svg5"
   sodipodi:docname="train.svg"
   inkscape:version="1.3 (0e150ed6c4, 2023-07-21)"
   xmlns:inkscape="http://www.inkscape.org/namespaces/inkscape"
   xmlns:sodipodi="http://sodipodi.sourceforge.net/DTD/sodipodi-0.dtd"
   xmlns:xlink="http://www.w3.org/1999/xlink"
   xmlns="http://www.w3.org/2000/svg"
   xmlns:svg="http://www.w3.org/2000/svg">
  <defs
     id="defs5"><inkscape:path-effect
   effect="powerclip"
   id="path-effect32"
   is_visible="true"
   lpeversion="1"
   inverse="true"
   flatten="false"
   hide_clip="false"
   message="Use fill-rule evenodd on &lt;b&gt;fill and stroke&lt;/b&gt; dialog if no flatten result after convert clip to paths." />
<inkscape:path-effect
   effect="powerclip"
   id="path-effect16"
   is_visible="true"
   lpeversion="1"
   inverse="true"
   flatten="false"
   hide_clip="false"
   message="Use fill-rule evenodd on &lt;b&gt;fill and stroke&lt;/b&gt; dialog if no flatten result after convert clip to paths." />
<clipPath
   clipPathUnits="userSpaceOnUse"
   id="clipPath15">
  <rect
     style="display:block;fill:#6593a2;fill-opacity:1;stroke-width:35.9055;stroke-linecap:round"
     id="rect16"
     width="117.35965"
     height="221.12959"
     x="64.008476"
     y="-4.1854181" />
</clipPath>
&#10;		&#10;		&#10;		&#10;		&#10;		&#10;	</defs>
  <sodipodi:namedview
     id="namedview5"
     pagecolor="#ffffff"
     bordercolor="#000000"
     borderopacity="0.25"
     inkscape:showpageshadow="2"
     inkscape:pageopacity="0.0"
     inkscape:pagecheckerboard="0"
     inkscape:deskcolor="#d1d1d1"
     inkscape:zoom="2.8284271"
     inkscape:cx="65.584154"
     inkscape:cy="100.93949"
     inkscape:window-width="1366"
     inkscape:window-height="697"
     inkscape:window-x="-8"
     inkscape:window-y="-8"
     inkscape:window-maximized="1"
     inkscape:current-layer="svg5" />
  <g
     id="g41"
     transform="translate(0,0.75)">
    <path
       id="path23"
       style="fill:#2f2f2f;fill-opacity:1;stroke-width:1"
       d="m 22.669922,94.138672 -3.125,2.152344 c 0,0 -2.020745,1.760849 -2.291016,2.820312 -0.27027,1.059452 0.356607,3.070562 1.253906,3.492192 l 37.484376,0.13086 v 0.0273 l 4.324218,-0.0137 3.675782,0.0137 v -0.0234 l 45.484372,-0.13476 c 0.8973,-0.42163 1.52418,-2.43274 1.25391,-3.492192 -0.27027,-1.059463 -2.29102,-2.820312 -2.29102,-2.820312 l -3.125,-2.152344 -41.322262,0.0039 h -8 z m -5.013672,17.787108 -3.503906,2.41406 c 0,0 -2.26725,1.9741 -2.570313,3.16211 -0.303062,1.188 0.400082,3.44519 1.40625,3.91797 l 43.003907,0.14844 v 0.0273 l 4.291015,-0.0137 3.708985,0.0137 v -0.0234 l 51.003902,-0.15235 c 1.00617,-0.47278 1.70932,-2.72997 1.40625,-3.91797 -0.30306,-1.18801 -2.57031,-3.16211 -2.57031,-3.16211 l -3.50391,-2.41406 -46.335932,0.006 z m -6.267578,19.27149 -3.9765626,2.73828 c 0,0 -2.5739162,2.24311 -2.9179688,3.59179 -0.3440525,1.34868 0.4534487,3.9086 1.5957032,4.44532 l 49.9023442,0.17382 v 0.0274 l 4.257812,-0.0137 3.742188,0.0137 v -0.0254 l 57.902342,-0.17578 c 1.14226,-0.53672 1.93976,-3.09664 1.5957,-4.44532 -0.34405,-1.34868 -2.91796,-3.59179 -2.91796,-3.59179 l -3.97657,-2.73828 -52.603512,0.006 z m -6.1582032,21.00585 -4.44335942,3.06055 c 0,0 -2.87543058,2.50512 -3.25976558,4.01172 -0.3843353,1.50659 0.5072106,4.36723 1.78320308,4.9668 l 56.68164112,0.19726 v 0.0274 l 4.232421,-0.0137 3.767579,0.0137 v -0.0254 l 64.681642,-0.19922 c 1.27599,-0.59957 2.16754,-3.46021 1.7832,-4.9668 -0.38433,-1.5066 -3.25976,-4.01172 -3.25976,-4.01172 l -4.44336,-3.06055 -58.761722,0.008 z" />
    <path
       id="path24"
       style="fill:#855c52;stroke-width:1"
       d="m 22.810547,91.263672 c -0.972975,-0.01088 -2.055436,1.122647 -2.552735,1.955078 -1.42703,2.37838 -3.155173,4.961989 -2.863281,5.71875 0.09822,0.260278 18.47033,0.371931 38.597657,0.419922 v 0.01953 c 1.308765,-0.002 2.787017,-0.0072 4.142578,-0.0098 1.306482,0.0025 2.549086,0.0077 3.857422,0.0098 v -0.01953 c 21.735269,-0.04722 46.498542,-0.157264 46.597652,-0.419922 0.2919,-0.756761 -1.43625,-3.34037 -2.86328,-5.71875 -0.4973,-0.832431 -1.57976,-1.965958 -2.55273,-1.955078 L 60.345703,91.548828 Z M 17.8125,108.70312 c -1.091026,-0.0122 -2.303693,1.25994 -2.861328,2.19336 -1.600172,2.66695 -3.538245,5.56353 -3.210938,6.41211 0.111724,0.29608 21.299272,0.42022 44.251954,0.47266 v 0.0195 c 1.313624,-0.002 2.775359,-0.007 4.126953,-0.01 1.312436,0.002 2.559351,0.008 3.873047,0.01 v -0.0195 c 24.425951,-0.0517 52.139422,-0.17445 52.251952,-0.47266 0.32731,-0.84858 -1.61077,-3.74516 -3.21094,-6.41211 -0.55763,-0.93342 -1.7703,-2.20555 -2.86132,-2.19336 l -49.861333,0.32227 z m -6.244141,18.83399 c -1.238588,-0.0138 -2.616943,1.43056 -3.2499996,2.49023 -1.8165973,3.02767 -4.016108,6.31595 -3.6445313,7.2793 0.1286078,0.34081 24.8407079,0.48108 51.3183599,0.53906 v 0.0195 c 1.318976,-0.002 2.764189,-0.007 4.113281,-0.01 1.317604,0.002 2.568357,0.008 3.886719,0.01 v -0.0195 c 27.810491,-0.0573 59.189032,-0.19635 59.318362,-0.53906 0.37157,-0.96335 -1.82794,-4.25163 -3.64453,-7.2793 -0.63306,-1.05967 -2.01142,-2.50403 -3.25,-2.49023 l -56.140629,0.37109 z m -6.1386715,20.57812 c -1.3836063,-0.0154 -2.9217297,1.59752 -3.6289063,2.78125 -2.02928909,3.38216 -4.4873475,7.05668 -4.0722656,8.13282 0.1452004,0.38477 28.3271234,0.5401 58.2636724,0.60351 v 0.0195 c 1.322738,-0.002 2.754251,-0.007 4.101562,-0.01 1.321848,0.002 2.576159,0.008 3.898438,0.01 v -0.0195 c 31.154673,-0.0628 66.117822,-0.21703 66.263672,-0.60351 0.41508,-1.07614 -2.04298,-4.75066 -4.07227,-8.13282 -0.70717,-1.18373 -2.2453,-2.79665 -3.6289,-2.78125 l -62.306643,0.41602 z" />
  </g>
  <g
     id="g40"
     transform="translate(0,1.0463557)" />
  <g
     id="g39"
     transform="translate(0,1.0463523)" />
  <g
     id="g38" />
  <g
     id="g42"
     transform="matrix(-1,0,0,1,127.98438,0)" />
  <g
     id="g44"
     transform="matrix(-1,0,0,1,127.98438,1.0463557)" />
  <g
     id="g46"
     transform="matrix(-1,0,0,1,127.98438,1.0463523)" />
  <g
     id="g48"
     transform="matrix(-1,0,0,1,127.98438,0)" />
  <g
     id="g52"
     transform="translate(1.690321,0.75)">
    <g
       id="g29"
       style="stroke-width:0.650473"
       transform="matrix(1.5373434,0,0,1.5373434,-35.060262,-26.158655)">&#10;			<g
   id="g27"
   style="stroke-width:0.650473">&#10;				<path
   style="fill:#6593a2;stroke-width:0.650473"
   d="m 51.387979,77.211984 -21.87862,46.758996 5.349079,-0.0309 h 4.940326 L 57.622169,79.433056 Z"
   id="path27"
   sodipodi:nodetypes="cccccc" />
&#10;				&#10;			</g>
&#10;			<g
   id="g28"
   style="stroke-width:0.650473">&#10;				&#10;				&#10;			</g>
&#10;		</g>
    <g
       id="g51"
       style="stroke-width:0.650473"
       transform="matrix(-1.5373434,0,0,1.5373434,159.67962,-26.158655)">&#10;			<g
   id="g49"
   style="stroke-width:0.650473">&#10;				<path
   style="fill:#6593a2;stroke-width:0.650473"
   d="m 51.387979,77.211984 -21.87862,46.758996 5.349079,-0.0309 h 4.940326 L 57.622169,79.433056 Z"
   id="path49"
   sodipodi:nodetypes="cccccc" />
&#10;				&#10;			</g>
&#10;			<g
   id="g50"
   style="stroke-width:0.650473">&#10;				&#10;				&#10;			</g>
&#10;		</g>
  </g>
  <g
     id="g5"
     transform="matrix(0.84715428,0,0,0.84715428,9.7863619,13.114236)"
     style="stroke-width:1.18044">
    <g
       id="g4"
       style="stroke-width:1.18044">
      <path
         d="m 43.57,122.22 c 0,2.79 -2.26,5.06 -5.06,5.06 v 0 c -2.78,0 -5.04,-2.27 -5.04,-5.06 V 102.8 c 0,-2.78 2.26,-5.05 5.04,-5.05 v 0 c 2.8,0 5.06,2.27 5.06,5.05 z"
         style="fill:#2f2f2f;stroke-width:1.18044"
         id="path1" />
      <path
         d="m 84.44,122.22 c 0,2.79 2.26,5.06 5.05,5.06 v 0 c 2.79,0 5.05,-2.27 5.05,-5.06 V 102.8 c 0,-2.78 -2.26,-5.05 -5.05,-5.05 v 0 c -2.79,0 -5.05,2.27 -5.05,5.05 z"
         style="fill:#2f2f2f;stroke-width:1.18044"
         id="path2" />
      <g
         id="g3"
         style="stroke-width:1.18044">
        <defs
           id="defs2">
          <path
             id="SVGID_1_"
             d="m 115.23,87.76 c 0,12.81 -10.38,23.18 -23.18,23.18 h -56.1 c -12.79,0 -23.19,-10.38 -23.19,-23.18 V 23.9 C 12.76,11.09 23.15,0.72 35.95,0.72 h 56.1 c 12.81,0 23.18,10.38 23.18,23.18 z" />
        </defs>
        <use
           style="overflow:visible;fill:#fcc21b;stroke-width:1.18044"
           xlink:href="#SVGID_1_"
           id="use2" />
        <clipPath
           id="SVGID_2_">
          <use
             style="overflow:visible"
             xlink:href="#SVGID_1_"
             id="use3" />
        </clipPath>
      </g>
      <path
         d="m 105.01,36.75 c 0,6.9 -5.58,12.5 -12.5,12.5 H 35.5 C 28.6,49.25 23,43.65 23,36.75 V 20.94 C 23,14.04 28.6,8.45 35.5,8.45 h 57.01 c 6.92,0 12.5,5.59 12.5,12.49 z"
         style="fill:#40c0e7;stroke-width:1.18044"
         id="path3" />
    </g>
    <path
       d="m 40.05,87.78 c 0,4.64 -3.77,8.4 -8.41,8.4 -4.65,0 -8.42,-3.76 -8.42,-8.4 0,-4.65 3.77,-8.42 8.42,-8.42 4.64,0 8.41,3.77 8.41,8.42 z"
       style="fill:#ffffff;stroke-width:1.28023"
       id="path4" />
    <path
       d="m 87.96,87.78 c 0,4.64 3.76,8.4 8.41,8.4 4.64,0 8.4,-3.76 8.4,-8.4 0,-4.65 -3.76,-8.42 -8.4,-8.42 -4.65,0 -8.41,3.77 -8.41,8.42 z"
       style="fill:#ffffff;stroke-width:1.28023"
       id="path5" />
  </g>
</svg>
