<?xml version="1.0" encoding="UTF-8" standalone="no"?>
<svg
   width="128"
   height="128"
   version="1.1"
   id="svg4648"
   sodipodi:docname="transgender symbol.svg"
   inkscape:version="1.2.2 (732a01da63, 2022-12-09)"
   xmlns:inkscape="http://www.inkscape.org/namespaces/inkscape"
   xmlns:sodipodi="http://sodipodi.sourceforge.net/DTD/sodipodi-0.dtd"
   xmlns="http://www.w3.org/2000/svg"
   xmlns:svg="http://www.w3.org/2000/svg">
  <defs
     id="defs4652" />
  <sodipodi:namedview
     id="namedview4650"
     pagecolor="#ffffff"
     bordercolor="#000000"
     borderopacity="0.25"
     inkscape:showpageshadow="2"
     inkscape:pageopacity="0.0"
     inkscape:pagecheckerboard="0"
     inkscape:deskcolor="#d1d1d1"
     showgrid="false"
     inkscape:zoom="2.9996795"
     inkscape:cx="26.169462"
     inkscape:cy="61.673254"
     inkscape:window-width="1366"
     inkscape:window-height="697"
     inkscape:window-x="-8"
     inkscape:window-y="-8"
     inkscape:window-maximized="1"
     inkscape:current-layer="svg4648" />
  <g
     id="g6087"
     transform="matrix(0.7479802,0,0,0.7479802,27.655642,3.0141825)"
     style="stroke-width:1.33694">
    <g
       fill="#fcc21b"
       id="g4646"
       style="stroke-width:1.59851">
      <path
         d="m 123.175,5.018 v 41.26 h -16.42 V 5.018 Z"
         id="path4638"
         sodipodi:nodetypes="ccccc"
         style="stroke-width:1.33694" />
      <path
         d="M 123.278,21.432 H 82.018 V 5.012 h 41.26 z"
         id="path4640"
         sodipodi:nodetypes="ccccc"
         style="stroke-width:1.33694" />
      <path
         d="M 114.389,25.414 78.873,60.93 67.263,49.32 102.778,13.804 Z"
         id="path4642"
         sodipodi:nodetypes="ccccc"
         style="stroke-width:1.33694" />
      <path
         d="m 77.49,50.7 c -15.96,-15.96 -41.84,-15.96 -57.8,0 -15.96,15.96 -15.96,41.84 0,57.8 15.96,15.96 41.84,15.96 57.8,0 15.96,-15.96 15.96,-41.84 0,-57.8 z M 31.61,96.58 c -9.38,-9.38 -9.38,-24.58 0,-33.96 9.38,-9.38 24.58,-9.38 33.96,0 9.38,9.38 9.38,24.58 0,33.96 -9.37,9.38 -24.58,9.38 -33.96,0 z"
         id="path4644"
         style="stroke-width:1.33694" />
    </g>
    <g
       fill="#fcc21b"
       id="g4775"
       transform="translate(-14.91,34.05)"
       style="stroke-width:1.59851">
      <path
         d="m 71.926,83.696 v 40.31 h -16.86 v -40.31 z"
         id="path4771"
         style="stroke-width:1.33694" />
      <path
         d="M 83.65,111.532 H 43.34 v -16.86 h 40.31 z"
         id="path4773"
         sodipodi:nodetypes="ccccc"
         style="stroke-width:1.33694" />
    </g>
    <g
       id="g6072"
       style="stroke-width:1.33694">
      <path
         d="m -25.995,5.018 v 41.26 h 16.42 V 5.018 Z"
         id="path4939"
         sodipodi:nodetypes="ccccc"
         style="fill:#fcc21b;stroke-width:1.33694" />
      <path
         d="m -26.098,21.432 h 41.26 V 5.012 h -41.26 z"
         id="path4941"
         sodipodi:nodetypes="ccccc"
         style="fill:#fcc21b;stroke-width:1.33694" />
      <path
         d="m -17.202916,25.699787 35.516,35.516 11.61,-11.61 -35.515,-35.516 z"
         id="path4943"
         sodipodi:nodetypes="ccccc"
         style="fill:#fcc21b;stroke-width:1.33694" />
      <path
         d="M 30.572731,33.361961 2.0692575,61.865433 -9.852563,49.943615 18.650911,21.440141 Z"
         id="path4773-2"
         sodipodi:nodetypes="ccccc"
         style="fill:#fcc21b;fill-opacity:1;stroke-width:1.33694" />
    </g>
  </g>
</svg>
