<?xml version="1.0" encoding="UTF-8" standalone="no"?>
<svg
   width="128"
   height="128"
   version="1.1"
   id="svg4648"
   sodipodi:docname="transgender symbol.svg"
   inkscape:version="1.3 (0e150ed6c4, 2023-07-21)"
   xmlns:inkscape="http://www.inkscape.org/namespaces/inkscape"
   xmlns:sodipodi="http://sodipodi.sourceforge.net/DTD/sodipodi-0.dtd"
   xmlns="http://www.w3.org/2000/svg"
   xmlns:svg="http://www.w3.org/2000/svg">
  <defs
     id="defs4652" />
  <sodipodi:namedview
     id="namedview4650"
     pagecolor="#ffffff"
     bordercolor="#000000"
     borderopacity="0.25"
     inkscape:showpageshadow="2"
     inkscape:pageopacity="0.0"
     inkscape:pagecheckerboard="0"
     inkscape:deskcolor="#d1d1d1"
     showgrid="false"
     inkscape:zoom="2.9996795"
     inkscape:cx="46.171599"
     inkscape:cy="71.507639"
     inkscape:window-width="1366"
     inkscape:window-height="697"
     inkscape:window-x="-8"
     inkscape:window-y="-8"
     inkscape:window-maximized="1"
     inkscape:current-layer="svg4648" />
  <g
     id="g6087"
     transform="matrix(0.7479802,0,0,0.7479802,27.655642,3.0141825)"
     style="stroke-width:1.33694">
    <g
       fill="#fcc21b"
       id="g4646"
       style="stroke-width:1.59851">
      <path
         d="m 123.175,5.018 v 41.26 H 105.68509 V 5.018 Z"
         id="path4638"
         sodipodi:nodetypes="ccccc"
         style="stroke-width:1.33694" />
      <path
         d="M 123.278,22.501689 H 82.018 V 5.012 h 41.26 z"
         id="path4640"
         sodipodi:nodetypes="ccccc"
         style="stroke-width:1.33694" />
      <path
         d="M 114.92415,25.414 79.408152,60.93 66.727835,49.320089 l 35.515005,-35.516 z"
         id="path4642"
         sodipodi:nodetypes="ccccc"
         style="stroke-width:1.33694" />
      <path
         d="m 77.49,50.7 c -15.96,-15.96 -41.84,-15.96 -57.8,0 -15.96,15.96 -15.96,41.84 0,57.8 15.96,15.96 41.84,15.96 57.8,0 15.96,-15.96 15.96,-41.84 0,-57.8 z M 33.838461,94.351539 c -8.148966,-8.148966 -8.148966,-21.354112 0,-29.503078 8.148966,-8.148966 21.354112,-8.148966 29.503078,0 8.148966,8.148966 8.148966,21.354112 0,29.503078 -8.140278,8.148961 -21.354112,8.148961 -29.503078,0 z"
         id="path4644"
         style="stroke-width:1.33694"
         sodipodi:nodetypes="sssssssscs" />
    </g>
    <g
       fill="#fcc21b"
       id="g4775"
       transform="translate(-14.91,34.05)"
       style="stroke-width:1.59851">
      <path
         d="m 74.064451,83.696 v 40.31 l -21.136923,-5.3e-4 V 83.695465 Z"
         id="path4771"
         style="stroke-width:1.33694"
         sodipodi:nodetypes="ccccc" />
      <path
         d="M 85.540912,110.4616 H 41.449088 V 91.998132 l 44.091824,-2.18e-4 z"
         id="path4773"
         sodipodi:nodetypes="ccccc"
         style="stroke-width:1.33694" />
    </g>
    <g
       id="g6072"
       style="stroke-width:1.33694">
      <path
         d="m -25.995,5.018 v 41.26 H -8.6387875 V 5.018 Z"
         id="path4939"
         sodipodi:nodetypes="ccccc"
         style="fill:#fcc21b;stroke-width:1.33694" />
      <path
         d="m -26.098,22.501689 h 41.26 V 5.012 h -41.26 z"
         id="path4941"
         sodipodi:nodetypes="ccccc"
         style="fill:#fcc21b;stroke-width:1.33694" />
      <path
         d="m -17.603696,25.699787 35.516,35.516 12.545631,-11.61 -35.5149999,-35.516 z"
         id="path4943"
         sodipodi:nodetypes="ccccc"
         style="fill:#fcc21b;stroke-width:1.33694" />
      <path
         d="M 30.572731,33.361961 2.0692575,61.865433 -9.852563,49.943615 18.650911,21.440141 Z"
         id="path4773-2"
         sodipodi:nodetypes="ccccc"
         style="fill:#fcc21b;fill-opacity:1;stroke-width:1.33694" />
    </g>
  </g>
</svg>
