<?xml version="1.0" encoding="UTF-8" standalone="no"?>
<!-- Generator: Adobe Illustrator 26.3.1, SVG Export Plug-In . SVG Version: 6.00 Build 0)  -->

<svg
   version="1.1"
   id="Art"
   x="0px"
   y="0px"
   viewBox="0 0 128 128"
   style="enable-background:new 0 0 128 128;"
   xml:space="preserve"
   sodipodi:docname="wing.svg"
   inkscape:version="1.2.2 (732a01da63, 2022-12-09)"
   xmlns:inkscape="http://www.inkscape.org/namespaces/inkscape"
   xmlns:sodipodi="http://sodipodi.sourceforge.net/DTD/sodipodi-0.dtd"
   xmlns="http://www.w3.org/2000/svg"
   xmlns:svg="http://www.w3.org/2000/svg"><defs
   id="defs26980" /><sodipodi:namedview
   id="namedview26978"
   pagecolor="#ffffff"
   bordercolor="#000000"
   borderopacity="0.25"
   inkscape:showpageshadow="2"
   inkscape:pageopacity="0.0"
   inkscape:pagecheckerboard="0"
   inkscape:deskcolor="#d1d1d1"
   showgrid="false"
   inkscape:zoom="2.8284271"
   inkscape:cx="71.594561"
   inkscape:cy="85.55992"
   inkscape:window-width="1366"
   inkscape:window-height="697"
   inkscape:window-x="-8"
   inkscape:window-y="-8"
   inkscape:window-maximized="1"
   inkscape:current-layer="Art" />

<path
   id="path1137"
   style="fill:none;fill-opacity:1;stroke:#6a97a5;stroke-width:6;stroke-dasharray:none;stroke-opacity:0.988235"
   d="m 119.74414,9.3046875 c -0.79986,0.079043 -1.1705,1.3121785 -2.25781,3.1679685 -1.02245,1.74509 -4.69173,5.125111 -9.69336,9.1875 -5.0017,4.062389 -13.462967,8.061213 -17.066408,8.830078 -0.694581,0.149369 -1.252823,0.171752 -1.716796,0.119141 0.15073,0.908724 0.216787,1.974124 0.160156,3.240234 -0.26,5.939964 -6.830078,12.089844 -6.830078,12.089844 0,0 2.089615,0.970559 2.849609,3.060547 0.769994,2.089988 0.491226,7.320962 -3.96875,11.710938 -4.45997,4.38997 -6.910156,5.308593 -6.910156,5.308593 0,0 2.030162,0.541028 2.660156,3.041016 0.62,2.499982 -0.70143,7.029159 -4.941406,10.369141 -4.249976,3.339976 -7.679688,4.740234 -7.679688,4.740234 0,0 2.19086,0.08001 2.88086,1.75 0.699994,1.669988 0.329417,5.680727 -5.560547,9.470703 -4.319976,2.779982 -7.390625,4.019531 -7.390625,4.019531 0,0 2.351094,0.44907 2.621094,2.539064 0.269994,2.09 -0.840337,5.39029 -4.570313,7.49023 -3.015329,1.69613 -6.508132,2.51521 -6.83789,1.3086 0.07435,-1.28456 2.369131,-0.86469 5.748046,-2.91797 3.379979,-2.06 4.1189,-5.08102 3.128907,-6.29102 -0.929993,-1.15 -3.778914,-0.80812 -5.378907,-0.57812 -1.609986,0.23 -2.78946,0.63836 -4.189453,1.06836 -1.239993,0.38 -1.641633,-0.96883 -0.18164,-1.54883 0.619993,-0.25 6.040432,-1.881038 11.40039,-4.541017 5.359965,-2.659979 8.220625,-5.158771 8.140625,-7.96875 -0.02584,-0.923912 -0.712323,-1.332851 -1.208984,-1.525391 -0.05495,-0.03193 -0.122637,-0.05756 -0.195313,-0.08203 -0.05235,-0.01635 -0.06653,-0.0247 -0.107421,-0.03516 -0.04245,-0.01091 -0.08184,-0.0224 -0.128907,-0.03125 -0.01409,-0.0026 -0.07031,-0.01758 -0.07031,-0.01758 0,0 -0.0096,0.0077 -0.0098,0.0078 -0.244916,-0.03863 -0.533783,-0.05762 -0.882812,-0.04492 -1.790285,0.06515 -4.859407,0.807195 -8.296875,2.257812 -1.252252,0.528373 -2.324331,1.005839 -3.234375,1.464844 -0.946985,0.343093 -1.396824,0.334285 -1.615235,-0.0957 -0.649993,-1.299993 1.780021,-2.049617 4.25,-3.09961 2.469986,-1.049993 9.528955,-3.469175 15.628906,-7.86914 5.849965,-4.209972 6.741094,-7.601336 6.371094,-9.111329 -0.255841,-1.04412 -0.958095,-1.700967 -1.550781,-1.986328 -0.044,-0.02565 -0.09131,-0.0461 -0.138672,-0.06641 -0.004,-0.0017 -0.0077,-0.0042 -0.01172,-0.0059 -0.0021,-8.15e-4 -0.0038,-0.0011 -0.0059,-0.002 -0.06746,-0.02775 -0.142776,-0.04307 -0.216797,-0.06055 -0.06,-0.01345 -0.113373,-0.02038 -0.166016,-0.02344 -0.08799,-0.01173 -0.167755,-0.03541 -0.263671,-0.03516 -2.087878,0.0056 -6.011524,2.755641 -10.576172,5 -3.233977,1.589202 -5.393078,2.483746 -7.048828,3.376953 -0.06206,0.02278 -0.28652,0.08745 -0.322266,0.103516 -1.499992,0.679993 -1.639609,-1.060007 -0.849609,-1.5 0.559993,-0.31 7.871128,-4.130568 12.871093,-7.060547 4.789972,-2.799979 10.369091,-5.45941 14.039063,-10.109375 2.839979,-3.589979 2.690305,-6.608998 1.320312,-7.708984 -1.269986,-1.029993 -2.840085,-0.671172 -3.830078,-0.201172 -0.009,0.0044 -0.04539,0.04793 -0.05859,0.05859 -0.07754,0.0307 -0.158069,0.05075 -0.232421,0.0918 -0.959992,0.53 -5.489493,3.360485 -9.689453,5.480469 -3.117297,1.592901 -6.319477,2.970761 -8.164063,4.056641 -3.126883,1.397226 -2.971805,-0.399378 -2.15625,-0.886719 0.619993,-0.36 6.489722,-3.320177 10.929687,-5.910156 6.049958,-3.539979 10.701832,-6.660042 15.091797,-12.5 4.389972,-5.839965 2.469354,-11.723772 1.269532,-11.904297 -1.199822,-0.180525 -2.704107,3.717778 -4.732422,5.746094 -1.949988,1.949988 -7.818618,6.70009 -11.808594,8.830078 -2.867289,1.530656 -9.914616,4.006733 -13.28125,5.130859 0.625043,1.147026 1.587025,3.651374 0.986328,5.876953 -1.670659,6.189796 -5.59375,8.179688 -5.59375,8.179688 0,0 1.868277,2.819934 0.488281,6.669922 -1.669992,4.64998 -5.808593,7.720703 -5.808593,7.720703 0,0 1.859761,1.929547 0.759765,5.769531 -1.239996,4.319984 -5.320312,7.611328 -5.320312,7.611328 0,0 1.89521,1.048335 1.61914,2.988281 -0.369999,2.599992 -2.350479,4.493266 -6.068359,6.447266 -3.322096,1.745997 -4.800781,2.490237 -4.800781,2.490237 0,0 2.026414,0.88839 1.480468,3.68359 -0.374813,1.91907 -2.880797,5.2486 -7.550781,6.5586 -3.426848,0.96088 -4.043319,-0.87443 -3.472656,-1.71875 0.147591,-0.0206 0.299753,-0.0339 0.443359,-0.0605 4.459984,-0.83 8.41,-3.3293 8.25,-6.0293 -0.159996,-2.69996 -4.919921,-1.19054 -4.919922,-2.06054 0,-0.87 4.428923,-2.089627 9.128907,-4.599615 5.719976,-3.069988 5.858458,-5.25287 5.080078,-6.03125 -1.049244,-1.049244 -5.139301,2.081402 -6.529297,1.441406 -1.099996,-0.509996 -0.969452,-1.540707 0.06055,-2.220703 1.619992,-1.079996 5.200008,-1.620321 7.75,-4.320313 3.059988,-3.239984 1.809062,-6.859925 1.539062,-7.169921 -0.142595,0.09043 -0.552681,0.287806 -0.923828,0.46875 -0.234339,0.06584 -1.320172,0.616219 -2.703125,1.216796 -1.569503,0.654174 -3.173672,1.245898 -3.783203,1.275391 -1.259996,0.05 -1.938515,-1.350242 -0.978515,-2.490234 1.619992,-1.919992 8.699937,-3.379473 12.419921,-8.189453 2.879988,-3.719988 1.549375,-6.810704 1.109375,-6.970704 -0.09656,-0.03621 -0.788503,0.352769 -1.664062,0.863282 -0.0024,-0.0074 -0.0033,-0.01627 -0.0059,-0.02344 -0.539996,0.26 -3.110632,1.910551 -4.890624,2.560547 -2.510792,0.91762 -3.828573,1.217842 -4.958985,1.478516 -1.266391,0.17357 -2.345549,0.110849 -2.550781,-0.798829 -0.24,-1.039992 0.440477,-2.370472 2.980469,-2.980468 1.809992,-0.43 7.669707,-2.329153 12.179687,-5.869141 5.94573,-4.666763 4.325523,-11.428501 3.269531,-11.599609 -1.055993,-0.171108 -5.899535,3.958283 -8.019531,5.238281 C 41.960189,54.379441 34.839517,57.040008 27.519531,61.25 18.539549,66.41999 12.56976,72.310096 9.7597656,80.830078 7.1507343,88.743819 8.1844489,97.46147 8.9294527,100.73646 c 1.3948993,6.13189 2.8109753,11.19401 8.4709353,14.99401 4.20996,2.83 12.768946,-0.20078 17.628906,-2.05078 4.85996,-1.85 9.589938,-1.29883 11.669922,-1.04883 2.999976,0.36 5.590751,1.56969 11.220703,1.17969 7.489936,-0.52 10.980937,-4.88125 10.460937,-6.20117 -0.135902,-0.35213 -0.578285,-0.45581 -1.02539,-0.47852 -0.617177,-0.16809 -4.237135,0.0488 -5.97461,0.0488 -0.734376,0 -1.355322,-0.0459 -1.921875,-0.0996 -1.085367,-0.2139 -1.0956,-1.63008 0.0918,-1.68946 0.799992,-0.0399 2.019079,0.0495 3.789063,-0.0605 1.759984,-0.12 8.129868,-0.31985 11.839844,-2.58985 3.311293,-2.02944 3.686858,-5.292013 3.669921,-5.857418 -2e-6,-0.0088 0.01043,-0.02497 0.0098,-0.0332 -5.98e-4,-0.0071 -0.0033,-0.0106 -0.0039,-0.01758 -4.01e-4,-0.0065 0.0044,-0.03754 0.0039,-0.04297 -4.98e-4,-0.0051 -0.01558,-0.0088 -0.01758,-0.01367 -0.08003,-0.637779 -0.416982,-0.816783 -1.460938,-0.835938 -1.159982,-0.02 -4.091346,0.42 -6.611328,0.5 -1.555981,0.04976 -3.004744,0.0052 -4.273437,0.0039 -0.106082,-0.01558 -0.283404,-0.02331 -0.355469,-0.04297 -1.269992,-0.34 -1.190926,-1.560391 0.03906,-1.650391 0.589992,-0.04 3.551219,-0.06048 8.701171,-0.980469 6.579952,-1.179992 9.868688,-4.149391 11.638672,-6.359375 1.759984,-2.209984 1.161399,-4.579453 0.441407,-4.689453 -0.0037,-5.65e-4 -0.0137,0.0043 -0.01758,0.0039 -0.133903,-0.05737 -0.295589,-0.09219 -0.488281,-0.101562 -1.424455,-0.06932 -4.269384,1.036406 -5.765625,1.316406 -1.963356,0.378722 -4.384236,0.717616 -7.429687,0.779297 -0.0084,-2.29e-4 -0.03107,-0.0078 -0.03906,-0.0078 C 72.28068,84.710919 71.940016,83.26 73.75,83 81.309936,81.900008 87.499649,79.700757 92.349609,76.800781 98.779561,72.960813 100.32078,70.109984 100.30078,68 c -0.009,-1.006048 -0.58321,-2.297273 -1.453124,-2.214844 -0.0053,-7.68e-4 -0.008,-0.0035 -0.01367,-0.0039 -0.540811,-0.04087 -2.776589,1.448837 -5.523437,2.658203 -3.269973,1.449991 -7.249784,2.661016 -9.509766,3.291016 -1.055268,0.295568 -1.966007,0.503537 -2.746093,0.6875 -1.557152,-0.04654 -1.415501,-1.374708 -0.333985,-1.867188 0.809992,-0.359992 3.278391,-0.901109 7.068359,-2.621093 5.37996,-2.439984 9.631808,-4.599033 19.511716,-10.708985 7.71992,-4.76996 11.19883,-8.73143 11.54883,-11.691406 0.22428,-1.949474 -0.85982,-3.111712 -1.76563,-3.447266 -0.013,-0.0048 -0.0261,-0.01505 -0.0391,-0.01953 -0.2935,-0.144622 -0.68308,-0.26986 -1.14648,-0.291016 -0.44666,-0.02039 -0.95125,0.05281 -1.46875,0.289063 -1.04,0.479991 -9.09978,6.178699 -15.429688,9.888672 -3.242769,1.908049 -7.15215,3.774941 -10.470703,5.490234 -0.653263,0.09805 -1.067245,-0.132746 -1.388672,-0.798828 -0.43,-0.899992 0.938914,-1.540469 1.878906,-1.980469 C 94.339529,52.160173 106.94938,44.59996 112.35938,40 c 3.80992,-3.239976 6.94171,-6.893593 7.36132,-10.25 0.31224,-2.497551 -0.67391,-4.045697 -2.50586,-4.050784 -0.36473,-0.001 -0.6503,0.16349 -0.92578,0.361328 -0.37204,0.26718 -4.72922,4.30902 -9.94922,7.708984 -5.21991,3.399973 -12.500336,7.819775 -15.320309,9.259766 -0.613807,0.31126 -1.189242,0.623551 -1.734375,0.935547 -1.095676,0.106758 -1.568377,-1.329509 -0.464844,-2.115235 0.77,-0.539992 18.339378,-9.7389 27.029298,-19.048828 6.91992,-7.409936 5.4946,-13.11931 4.26758,-13.4589841 -0.13513,-0.037408 -0.25878,-0.048401 -0.37305,-0.037109 z"
   sodipodi:nodetypes="ssccccccscccccccscccccccscccccccscccscscsccccccccccccccsccccsssscscccccsscscccsscsccsccccccccccccccscccscsccccsccccccccccccccccsccccsccccccccccccscsccccccssscccccsss" /><path
   id="path26929"
   style="fill:#ffffff;fill-opacity:1"
   d="m 118.88867,8.8613281 c 0.0448,1.0491948 -0.69808,2.4093109 -1.40234,3.6113279 -1.02246,1.745083 -4.69172,5.125107 -9.69336,9.1875 -5.0017,4.062393 -13.462964,8.061212 -17.066408,8.830078 -0.694582,0.149369 -1.252822,0.171752 -1.716796,0.119141 0.150731,0.908725 0.216787,1.974122 0.160156,3.240234 -0.26,5.93997 -6.830078,12.089844 -6.830078,12.089844 0,0 2.089614,0.970557 2.849609,3.060547 0.769995,2.08999 0.49123,7.320958 -3.96875,11.710938 -4.459975,4.389975 -6.910156,5.308593 -6.910156,5.308593 0,0 2.030161,0.541026 2.660156,3.041016 0.62,2.499985 -0.701426,7.029156 -4.941406,10.369141 -4.24998,3.33998 -7.679688,4.740234 -7.679688,4.740234 0,0 2.19086,0.08001 2.88086,1.75 0.699995,1.66999 0.329423,5.680723 -5.560547,9.470703 -4.31998,2.779985 -7.390625,4.019531 -7.390625,4.019531 0,0 2.351094,0.449069 2.621094,2.539064 0.269995,2.09 -0.840333,5.39028 -4.570313,7.49023 -3.015332,1.69613 -6.508131,2.51521 -6.83789,1.3086 0.07435,-1.28456 2.369127,-0.86469 5.748046,-2.91797 3.379982,-2.06 4.118901,-5.08102 3.128907,-6.29102 -0.929994,-1.15 -3.778913,-0.80812 -5.378907,-0.57812 -1.609988,0.23 -2.789459,0.63836 -4.189453,1.06836 -1.239994,0.38 -1.641634,-0.96883 -0.18164,-1.54883 0.619994,-0.25 6.040426,-1.881035 11.40039,-4.541017 5.35997,-2.659982 8.220625,-5.158768 8.140625,-7.96875 -0.02584,-0.923913 -0.712322,-1.332851 -1.208984,-1.525391 -0.05495,-0.03193 -0.122637,-0.05756 -0.195313,-0.08203 -0.05235,-0.01635 -0.06653,-0.0247 -0.107421,-0.03516 -0.04245,-0.01091 -0.08184,-0.0224 -0.128907,-0.03125 -0.01409,-0.0026 -0.07031,-0.01758 -0.07031,-0.01758 0,0 -0.0096,0.0077 -0.0098,0.0078 -0.244916,-0.03863 -0.533782,-0.05762 -0.882812,-0.04492 -1.790286,0.06515 -4.859403,0.807194 -8.296875,2.257812 -1.252253,0.528374 -2.32433,1.005839 -3.234375,1.464844 -0.946986,0.343094 -1.396824,0.334289 -1.615235,-0.0957 -0.649994,-1.299994 1.780018,-2.049616 4.25,-3.09961 2.469988,-1.049994 9.528948,-3.46917 15.628906,-7.86914 5.84997,-4.209976 6.741094,-7.601335 6.371094,-9.111329 -0.255842,-1.044122 -0.958094,-1.700967 -1.550781,-1.986328 -0.044,-0.02565 -0.09131,-0.0461 -0.138672,-0.06641 -0.004,-0.0017 -0.0077,-0.0042 -0.01172,-0.0059 -0.0021,-8.15e-4 -0.0038,-0.0011 -0.0059,-0.002 -0.06746,-0.02775 -0.142776,-0.04307 -0.216797,-0.06055 -0.06,-0.01345 -0.113373,-0.02038 -0.166016,-0.02344 -0.08799,-0.01173 -0.167755,-0.03541 -0.263671,-0.03516 -2.08788,0.0056 -6.011519,2.755639 -10.576172,5 -3.23398,1.589204 -5.393076,2.483745 -7.048828,3.376953 -0.06206,0.02278 -0.28652,0.08745 -0.322266,0.103516 -1.499993,0.679994 -1.639609,-1.060006 -0.849609,-1.5 0.559994,-0.31 7.871123,-4.130565 12.871093,-7.060547 4.789976,-2.799982 10.369087,-5.459405 14.039063,-10.109375 2.839982,-3.589982 2.690306,-6.608996 1.320312,-7.708984 -1.269988,-1.029994 -2.840084,-0.671172 -3.830078,-0.201172 -0.009,0.0044 -0.04539,0.04793 -0.05859,0.05859 -0.07754,0.0307 -0.158069,0.05075 -0.232421,0.0918 -0.959993,0.53 -5.489488,3.360483 -9.689453,5.480469 -3.1173,1.592903 -6.319475,2.97076 -8.164063,4.056641 -3.126886,1.397228 -2.971806,-0.399377 -2.15625,-0.886719 0.619994,-0.36 6.489717,-3.320174 10.929687,-5.910156 6.049964,-3.539982 10.701827,-6.660036 15.091797,-12.5 4.389976,-5.83997 2.688348,-10.570944 1.06836,-11.960938 -0.07332,-0.06193 -0.146689,-0.117979 -0.220703,-0.169922 -0.558956,1.198866 -2.28223,3.944339 -4.310547,5.972657 -1.94999,1.94999 -7.818614,6.700088 -11.808594,8.830078 -2.867292,1.530658 -9.914333,4.006901 -13.28097,5.131028 0.625044,1.147027 1.586482,3.651955 0.985785,5.877536 -1.670661,6.189802 -5.593487,8.178936 -5.593487,8.178936 0,0 1.868278,2.819931 0.488281,6.669922 -1.669994,4.649985 -5.808593,7.720703 -5.808593,7.720703 0,0 1.859762,1.929543 0.759765,5.769531 -1.239997,4.319988 -5.319787,7.611742 -5.319787,7.611742 0,0 1.894685,1.047919 1.618615,2.987867 -0.37,2.599994 -2.350475,4.493264 -6.068359,6.447266 -3.322099,1.745997 -4.800781,2.490237 -4.800781,2.490237 0,0 2.026414,0.88838 1.480468,3.68359 -0.374814,1.91907 -2.880793,5.2486 -7.550781,6.5586 -3.426852,0.96088 -4.04332,-0.87443 -3.472656,-1.71875 0.147591,-0.0206 0.299752,-0.0339 0.443359,-0.0605 4.459988,-0.83 8.41,-3.3293 8.25,-6.0293 -0.159997,-2.69997 -4.919922,-1.19054 -4.919922,-2.06054 0,-0.87 4.428919,-2.089624 9.128907,-4.599615 5.719982,-3.069991 5.858459,-5.252869 5.080078,-6.03125 -1.049245,-1.049245 -5.1393,2.081403 -6.529297,1.441406 -1.099997,-0.509997 -0.96945,-1.540706 0.06055,-2.220703 1.619994,-1.079997 5.200006,-1.620319 7.75,-4.320313 3.059991,-3.239988 1.809062,-6.859924 1.539062,-7.169921 -0.142596,0.09043 -0.552681,0.287806 -0.923828,0.46875 -0.234339,0.06584 -1.320171,0.616218 -2.703125,1.216796 -1.569505,0.654174 -3.173672,1.245898 -3.783203,1.275391 -1.259997,0.05 -1.938515,-1.35024 -0.978515,-2.490234 1.619994,-1.919994 8.699933,-3.379468 12.419921,-8.189453 2.879991,-3.719991 1.549375,-6.810704 1.109375,-6.970704 -0.09656,-0.03621 -0.788502,0.352769 -1.664062,0.863282 -0.0024,-0.0074 -0.0033,-0.01627 -0.0059,-0.02344 -0.539997,0.26 -3.11063,1.91055 -4.890624,2.560547 -2.510794,0.917621 -3.828572,1.217842 -4.958985,1.478516 -1.266392,0.173571 -2.345549,0.110849 -2.550781,-0.798829 -0.24,-1.039994 0.440475,-2.370471 2.980469,-2.980468 1.809994,-0.43 7.669702,-2.32915 12.179687,-5.869141 5.945736,-4.666768 4.221285,-10.948411 3.214844,-11.560547 -0.04902,-0.07086 -0.108691,-0.108543 -0.185547,-0.08008 -0.919999,0.35 -5.659299,3.999298 -7.779297,5.279297 C 41.96008,54.379374 34.839524,57.040004 27.519531,61.25 18.53954,66.419995 12.569763,72.310087 9.7597656,80.830078 7.1507317,88.743827 8.2765701,97.441858 8.9294512,100.73646 c 1.1574598,5.84083 2.8109718,11.19401 8.4709368,14.99401 4.209965,2.83 12.768941,-0.20078 17.628906,-2.05078 4.859965,-1.85 9.589936,-1.29883 11.669922,-1.04883 2.999979,0.36 5.590745,1.56969 11.220703,1.17969 7.489944,-0.52 10.980937,-4.88124 10.460937,-6.20117 -0.135903,-0.35213 -0.578284,-0.45581 -1.02539,-0.47852 -0.617177,-0.16809 -4.237134,0.0488 -5.97461,0.0488 -0.734377,0 -1.355322,-0.0459 -1.921875,-0.0996 -1.085368,-0.2139 -1.095598,-1.63008 0.0918,-1.68946 0.799993,-0.0399 2.019077,0.0495 3.789063,-0.0605 1.759986,-0.12 8.129865,-0.31985 11.839844,-2.58985 3.311297,-2.02945 3.686858,-5.292013 3.669921,-5.857418 -2e-6,-0.0088 0.01046,-0.02497 0.0098,-0.0332 -5.98e-4,-0.0071 -0.0033,-0.0106 -0.0039,-0.01758 -4.01e-4,-0.0065 0.0044,-0.03754 0.0039,-0.04297 -4.98e-4,-0.0051 -0.01558,-0.0088 -0.01758,-0.01367 -0.08003,-0.637779 -0.416981,-0.816783 -1.460938,-0.835938 -1.159984,-0.02 -4.091344,0.42 -6.611328,0.5 -1.555983,0.04976 -3.004742,0.0052 -4.273437,0.0039 -0.106082,-0.01558 -0.283404,-0.02331 -0.355469,-0.04297 -1.269993,-0.34 -1.19093,-1.560391 0.03906,-1.650391 0.589993,-0.04 3.551213,-0.06048 8.701171,-0.980469 6.579958,-1.179993 9.868686,-4.149389 11.638672,-6.359375 1.759986,-2.209986 1.1614,-4.579453 0.441407,-4.689453 -0.0037,-5.65e-4 -0.0137,0.0043 -0.01758,0.0039 -0.133904,-0.05737 -0.295589,-0.09219 -0.488281,-0.101562 -1.424457,-0.06932 -4.269383,1.036406 -5.765625,1.316406 -1.963358,0.378722 -4.384233,0.717616 -7.429687,0.779297 -0.0084,-2.29e-4 -0.03107,-0.0078 -0.03906,-0.0078 C 72.28071,84.710938 71.940014,83.26 73.75,83 81.309944,81.900007 87.499644,79.70076 92.349609,76.800781 98.779567,72.960809 100.32078,70.109986 100.30078,68 c -0.009,-1.006049 -0.583209,-2.297273 -1.453124,-2.214844 -0.0053,-7.68e-4 -0.008,-0.0035 -0.01367,-0.0039 -0.540812,-0.04087 -2.776586,1.448836 -5.523437,2.658203 -3.269976,1.449992 -7.249782,2.661016 -9.509766,3.291016 -1.055269,0.295569 -1.966006,0.503537 -2.746093,0.6875 -1.557153,-0.04654 -1.415502,-1.374708 -0.333985,-1.867188 0.809993,-0.359993 3.278387,-0.901107 7.068359,-2.621093 5.379965,-2.439986 9.631795,-4.599027 19.511716,-10.708985 7.71993,-4.769965 11.19883,-8.731427 11.54883,-11.691406 0.22428,-1.949476 -0.85982,-3.111712 -1.76563,-3.447266 -0.013,-0.0048 -0.0261,-0.01505 -0.0391,-0.01953 -0.2935,-0.144622 -0.68308,-0.26986 -1.14648,-0.291016 -0.44666,-0.02039 -0.95125,0.05281 -1.46875,0.289063 -1.04,0.479992 -9.09977,6.178696 -15.429688,9.888672 -3.242772,1.908051 -7.152147,3.774939 -10.470703,5.490234 -0.653264,0.09805 -1.067245,-0.132745 -1.388672,-0.798828 -0.43,-0.899993 0.938913,-1.540469 1.878906,-1.980469 C 94.339496,52.160177 106.94938,44.599965 112.35938,40 c 3.80993,-3.239979 6.97132,-6.890021 7.36132,-10.25 0.39,-3.359979 -2.11133,-3.990234 -2.11132,-3.990234 l -0.008,0.0078 c -0.13917,-0.0455 -0.26758,-0.06637 -0.38672,-0.06836 -0.36468,-0.0061 -0.64828,0.166328 -0.92578,0.361328 -0.37,0.27 -4.72922,4.309016 -9.94922,7.708984 -5.21992,3.399976 -12.500333,7.819774 -15.320309,9.259766 -0.613808,0.31126 -1.189242,0.623551 -1.734375,0.935547 -1.095677,0.106758 -1.568379,-1.329509 -0.464844,-2.115235 0.77,-0.539993 18.339368,-9.738891 27.029298,-19.048828 6.91993,-7.409944 5.38094,-11.791101 4.21094,-13.1210935 -0.35435,-0.3993883 -0.76354,-0.6393272 -1.17188,-0.8183594 z"
   sodipodi:nodetypes="csccccccscccccccscccccccscccccccscccscscsccccscccccccccsccccsccsscscccccsscscccsscsccscccccccccccccccccccscsccccscccccscsccccccccscsccsccccscccccccscsccccccsccsccccccccc" />























</svg>
