<?xml version="1.0" encoding="UTF-8" standalone="no"?>
<svg
   width="128px"
   height="128px"
   version="1.1"
   xml:space="preserve"
   style="fill-rule:evenodd;clip-rule:evenodd;stroke-linecap:round;stroke-linejoin:round;stroke-miterlimit:1.5;"
   id="svg3360"
   sodipodi:docname="wing.svg"
   inkscape:version="1.2.2 (732a01da63, 2022-12-09)"
   xmlns:inkscape="http://www.inkscape.org/namespaces/inkscape"
   xmlns:sodipodi="http://sodipodi.sourceforge.net/DTD/sodipodi-0.dtd"
   xmlns="http://www.w3.org/2000/svg"
   xmlns:svg="http://www.w3.org/2000/svg"><defs
     id="defs3364" /><sodipodi:namedview
     id="namedview3362"
     pagecolor="#ffffff"
     bordercolor="#000000"
     borderopacity="0.25"
     inkscape:showpageshadow="2"
     inkscape:pageopacity="0.0"
     inkscape:pagecheckerboard="0"
     inkscape:deskcolor="#d1d1d1"
     showgrid="false"
     inkscape:zoom="2.8284271"
     inkscape:cx="54.977552"
     inkscape:cy="72.124892"
     inkscape:window-width="1366"
     inkscape:window-height="697"
     inkscape:window-x="-8"
     inkscape:window-y="-8"
     inkscape:window-maximized="1"
     inkscape:current-layer="svg3360" /><path
     id="path3925"
     style="fill:none;stroke-width:9;stroke:#6593a2;stroke-opacity:1;stroke-dasharray:none"
     d="m 108.36328,16.955078 c -0.44099,0.0051 -0.86642,0.07771 -1.24404,0.244141 -12.782463,5.633685 -27.747856,9.633983 -42.576274,12.601562 -4.569757,0.753655 -15.0849,1.427451 -21.888376,1.8125 -3.43203,0.226089 -6.089456,2.366955 -6.899374,5.554688 l 3.69e-4,0.002 c -1.552455,6.036485 -4.043574,15.722003 -6.149704,23.916016 -1.053066,4.097005 -2.010975,7.82086 -2.706514,10.529296 -0.347768,1.354219 -0.629566,2.454756 -0.825926,3.220704 -0.09818,0.382973 -0.174218,0.683166 -0.226727,0.888671 -0.02625,0.102754 -0.04619,0.182209 -0.05993,0.236329 -0.01375,0.05414 -0.04554,0.190627 -0.01689,0.05664 l 3.68e-4,0.002 c -2.424102,11.24743 -9.526512,27.569195 -13.31269,34.183585 -0.0083,0.0133 -0.01693,0.0264 -0.02599,0.0391 -0.02345,0.0357 -0.01907,0.0775 0.0099,0.11719 0.02901,0.0398 0.06744,0.0568 0.110931,0.0508 1.608874,-0.23108 3.21969,-0.95962 4.386478,-1.79102 0.584521,-0.4165 1.057518,-0.85806 1.365886,-1.24609 0.308372,-0.38803 0.416129,-0.74701 0.417333,-0.78711 0.02323,-0.72022 0.822117,-1.02895 1.485893,-0.57422 2.635311,1.80465 5.053351,2.47808 11.15722,4.17773 4.989352,1.38937 9.197572,0.71556 10.778912,-0.35156 0.395334,-0.26678 0.612289,-0.54651 0.686463,-0.73633 0.07417,-0.18982 0.06496,-0.24902 -0.01756,-0.40234 -0.165049,-0.30663 -1.109111,-1.1167 -3.245559,-1.76563 -0.0083,-0.006 -0.01652,-0.0116 -0.02473,-0.0176 -4.69576,-1.01326 -9.167636,-3.08004 -13.094841,-5.6504 -0.497167,-0.32439 -0.702109,-0.94217 -0.457436,-1.378897 0.244456,-0.436703 0.845526,-0.526819 1.341805,-0.201172 3.765839,2.464739 8.036704,4.418069 12.484317,5.347649 0.0039,-2e-5 0.0078,-2e-5 0.01172,0 0.0078,0.003 0.01344,0.006 0.02101,0.008 1.315214,0.27334 2.644848,0.46141 3.982591,0.54101 3.678398,0.21901 6.074463,-0.0937 7.399692,-0.60742 0.66261,-0.25688 1.048158,-0.55875 1.238101,-0.81641 0.189937,-0.25766 0.215056,-0.44826 0.173834,-0.67773 -0.08234,-0.45894 -0.664425,-1.25757 -1.805792,-1.98633 -1.141367,-0.72875 -2.747693,-1.3569 -4.507756,-1.60937 -0.06813,-0.01563 -0.135719,-0.03788 -0.201701,-0.06641 -5.172362,-1.014363 -10.10764,-2.783237 -14.442989,-5.091797 -0.505652,-0.268891 -0.765437,-0.856813 -0.579956,-1.3125 0.184781,-0.456059 0.744788,-0.607414 1.250183,-0.33789 4.118542,2.19311 8.851351,3.890529 13.819172,4.865234 0.02746,-0.0025 0.05525,-0.0038 0.08326,-0.0039 0.482722,0.06924 0.955156,0.162536 1.416025,0.275391 0.954445,0.157451 1.914716,0.291199 2.880997,0.392578 3.075667,0.322602 5.166159,0.227598 6.391121,-0.08203 1.186972,-0.300028 1.433083,-0.693089 1.457123,-0.984376 l -0.01998,-0.171874 c -0.06205,-0.328854 -0.363715,-0.882692 -1.095686,-1.556641 -0.819083,-0.754159 -2.063335,-1.573039 -3.517819,-2.267578 -5.062257,-1.141179 -9.894878,-2.8297 -14.199208,-5.09375 -0.506765,-0.2662 -0.769884,-0.853239 -0.587409,-1.310547 0.181952,-0.456494 0.738996,-0.61119 1.244836,-0.345703 5.846473,3.075208 12.859305,5.092939 20.111626,6.027343 5.012255,0.645559 8.372585,-0.591687 9.432826,-1.857421 0.530118,-0.63287 0.537748,-1.063424 0.25614,-1.523438 C 69.748378,88.982093 68.891786,88.296854 67.18618,87.79522 60.196418,86.479769 53.457946,84.422556 47.587903,81.236626 47.083904,80.963165 46.829182,80.373808 47.018946,79.92022 c 0.189653,-0.454751 0.753523,-0.600926 1.258203,-0.326172 6.465302,3.509001 14.219927,5.652652 22.252903,6.888672 6.575806,1.011847 9.463759,-0.61908 10.11954,-2.158203 0.327891,-0.769562 0.197782,-1.521064 -0.285286,-2.22461 -0.483066,-0.703543 -1.374358,-1.369937 -2.693735,-1.707031 -0.01095,-0.0057 -0.02173,-0.01158 -0.03254,-0.01758 -7.950024,-1.228167 -15.592637,-3.460184 -22.17922,-6.753906 -0.503889,-0.252436 -0.776136,-0.827792 -0.608115,-1.285156 0.167274,-0.458047 0.711988,-0.625108 1.216354,-0.373047 6.370546,3.185688 13.887432,5.380534 21.738238,6.576171 0.0072,-7.9e-5 0.01427,-7.9e-5 0.02148,0 0.0077,0.002 0.0149,0.0039 0.02257,0.0059 0.883651,0.134132 1.7709,0.260445 2.661831,0.36914 6.128524,0.747432 9.068353,-0.876265 9.660787,-2.273437 0.296218,-0.698585 0.171106,-1.290821 -0.390025,-1.945313 -0.558766,-0.651733 -1.670109,-1.340885 -3.368796,-1.703124 -0.04876,-0.0057 -0.09442,-0.0096 -0.143507,-0.01563 h -0.002 C 77.253957,71.877201 68.512373,69.509158 61.105067,65.80502 c -0.504478,-0.251753 -0.777684,-0.827278 -0.610069,-1.285157 0.16809,-0.457332 0.712806,-0.623465 1.216715,-0.371093 7.099389,3.550158 15.621266,5.872847 24.443758,6.949218 6.135432,0.748274 9.166416,-0.817614 9.798354,-2.152344 0.315981,-0.667363 0.211924,-1.197504 -0.31937,-1.816406 -0.531297,-0.6189 -1.637072,-1.301941 -3.353779,-1.664062 -0.03987,-0.01593 -0.07912,-0.0342 -0.117509,-0.05469 C 83.195605,64.654558 74.5641,62.9146 67.162605,60.101562 c -0.492517,-0.187021 -0.808524,-0.710068 -0.705643,-1.167968 0.102547,-0.458025 0.585104,-0.677566 1.077554,-0.490235 7.167997,2.724294 15.654141,4.444134 24.497749,5.1875 0.09984,-0.02227 0.205951,-0.02693 0.313885,-0.01367 0.08834,0.01863 0.170974,0.04235 0.257621,0.0625 0.583655,0.04619 1.169524,0.08925 1.755836,0.126953 3.3768,0.216999 5.851103,-0.09875 7.497023,-0.66211 1.64593,-0.563359 2.41821,-1.379788 2.60077,-2.005859 0.18255,-0.626071 7.8e-4,-1.114929 -0.79983,-1.742188 -0.74241,-0.581646 -2.07776,-1.140278 -3.91035,-1.367187 -9.767343,-0.591639 -19.240195,-2.382097 -27.467348,-5.509766 -0.508339,-0.192754 -0.834523,-0.732614 -0.728112,-1.205078 0.105556,-0.472788 0.603622,-0.699407 1.111782,-0.505859 8.757696,3.329361 19.122584,5.140658 29.754658,5.521484 7.36909,0.263651 10.6118,-2.506245 10.92049,-4.677734 0.15432,-1.085745 -0.25399,-2.021543 -1.35275,-2.833985 -1.09877,-0.812439 -2.99486,-1.436674 -5.65475,-1.326171 -0.0103,-0.0018 -0.02,-0.0038 -0.0304,-0.0059 -0.19038,0.02168 -0.37236,0.04832 -0.56782,0.06641 -10.513248,0.972604 -20.979675,0.451115 -30.197789,-1.898437 -0.517355,-0.13138 -0.903811,-0.637867 -0.862862,-1.130859 0.04043,-0.493125 0.492872,-0.78617 1.010187,-0.654297 8.918482,2.273179 19.194422,2.801136 29.543174,1.84375 3.58398,-0.33172 6.17368,-1.316736 7.78892,-2.5 1.61523,-1.183267 2.20481,-2.544762 2.09071,-3.542969 -0.1141,-0.998207 -0.77653,-1.859888 -2.55643,-2.498047 -1.77986,-0.638159 -4.6148,-0.856316 -8.40406,-0.115234 -0.005,-7e-4 -0.0108,-0.0013 -0.016,-0.002 -9.021538,1.784138 -18.067649,2.311299 -26.337726,1.21875 -0.518001,-0.06848 -0.957956,-0.533697 -0.982651,-1.039063 -0.02454,-0.504502 0.374143,-0.858356 0.891223,-0.791016 8.936151,1.180545 18.960177,0.416951 28.859484,-1.863281 3.45965,-0.797071 6.07532,-1.815087 7.42689,-3.207031 1.35155,-1.391944 1.61903,-2.684192 1.4649,-3.342904 -0.0771,-0.329354 -0.23131,-0.615215 -0.61054,-0.943502 -0.37923,-0.328285 -0.98675,-0.651705 -1.80686,-0.8425 -1.6403,-0.381597 -4.4005,1.065574 -7.50777,1.949218 -8.835982,3.180084 -17.910595,4.996098 -26.397456,4.929688 -0.510298,-0.004 -0.996998,-0.420123 -1.087478,-0.929688 -0.08988,-0.509559 0.250537,-0.919515 0.760746,-0.916015 8.810424,0.06894 18.421762,-1.972559 27.712798,-5.539063 3.2374,-1.24289 5.00542,-2.620068 5.78782,-3.808593 0.7824,-1.188526 0.66546,-2.093371 0.20891,-2.88086 -0.68481,-1.181233 -2.52472,-2.11269 -4.14787,-2.09375 z"
     sodipodi:nodetypes="ssccccsssssccccccsscccssscccccccccsscscccccccccsccscccccsscccccsscccccccccsscccccccsscccccccccsssccccccscccccccsssccccccsssscccccssss" /><path
     id="path3308"
     style="fill:#ffffff;stroke-width:1.23245"
     d="m 108.36328,16.955078 c -0.44099,0.0051 -0.86642,0.07771 -1.24404,0.244141 -12.782463,5.633685 -27.747856,9.633983 -42.576274,12.601562 -4.569757,0.753655 -15.0849,1.427451 -21.888376,1.8125 -3.43203,0.226089 -6.089456,2.366955 -6.899374,5.554688 l 3.69e-4,0.002 c -1.552455,6.036485 -4.043574,15.722003 -6.149704,23.916016 -1.053066,4.097005 -2.010975,7.82086 -2.706514,10.529296 -0.347768,1.354219 -0.629566,2.454756 -0.825926,3.220704 -0.09818,0.382973 -0.174218,0.683166 -0.226727,0.888671 -0.02625,0.102754 -0.04619,0.182209 -0.05993,0.236329 -0.01375,0.05414 -0.04554,0.190627 -0.01689,0.05664 l 3.68e-4,0.002 c -2.424102,11.24743 -9.526512,27.569195 -13.31269,34.183585 -0.0083,0.0133 -0.01693,0.0264 -0.02599,0.0391 -0.02345,0.0357 -0.01907,0.0775 0.0099,0.11719 0.02901,0.0398 0.06744,0.0568 0.110931,0.0508 1.608874,-0.23108 3.21969,-0.95962 4.386478,-1.79102 0.584521,-0.4165 1.057518,-0.85806 1.365886,-1.24609 0.308372,-0.38803 0.418714,-0.5796 0.522294,-0.84235 0.258674,-0.65618 0.246843,-0.97839 0.465262,-1.04327 0.206627,-0.0614 0.374207,0.18609 0.91567,0.52429 2.708993,1.69204 5.053351,2.47808 11.15722,4.17773 4.989352,1.38937 9.197572,0.71556 10.778912,-0.35156 0.395334,-0.26678 0.612289,-0.54651 0.686463,-0.73633 0.07417,-0.18982 0.06496,-0.24902 -0.01756,-0.40234 -0.165049,-0.30663 -1.109111,-1.1167 -3.245559,-1.76563 -0.0083,-0.006 -0.01652,-0.0116 -0.02473,-0.0176 -4.69576,-1.01326 -9.167636,-3.08004 -13.094841,-5.6504 -0.497167,-0.32439 -0.702109,-0.94217 -0.457436,-1.378897 0.244456,-0.436703 0.845526,-0.526819 1.341805,-0.201172 3.765839,2.464739 8.036704,4.418069 12.484317,5.347649 0.0039,-2e-5 0.0078,-2e-5 0.01172,0 0.0078,0.003 0.01344,0.006 0.02101,0.008 1.315214,0.27334 2.644848,0.46141 3.982591,0.54101 3.678398,0.21901 6.074463,-0.0937 7.399692,-0.60742 0.66261,-0.25688 1.048158,-0.55875 1.238101,-0.81641 0.189937,-0.25766 0.215056,-0.44826 0.173834,-0.67773 -0.08234,-0.45894 -0.664425,-1.25757 -1.805792,-1.98633 -1.141367,-0.72875 -2.747693,-1.3569 -4.507756,-1.60937 -0.06813,-0.01563 -0.135719,-0.03788 -0.201701,-0.06641 -5.172362,-1.014363 -10.10764,-2.783237 -14.442989,-5.091797 -0.505652,-0.268891 -0.765437,-0.856813 -0.579956,-1.3125 0.184781,-0.456059 0.744788,-0.607414 1.250183,-0.33789 4.118542,2.19311 8.851351,3.890529 13.819172,4.865234 0.02746,-0.0025 0.05525,-0.0038 0.08326,-0.0039 0.482722,0.06924 0.955156,0.162536 1.416025,0.275391 0.954445,0.157451 1.914716,0.291199 2.880997,0.392578 3.075667,0.322602 5.166159,0.227598 6.391121,-0.08203 1.186972,-0.300028 1.433083,-0.693089 1.457123,-0.984376 l -0.01998,-0.171874 c -0.06205,-0.328854 -0.363715,-0.882692 -1.095686,-1.556641 -0.819083,-0.754159 -2.063335,-1.573039 -3.517819,-2.267578 -5.062257,-1.141179 -9.894878,-2.8297 -14.199208,-5.09375 -0.506765,-0.2662 -0.769884,-0.853239 -0.587409,-1.310547 0.181952,-0.456494 0.738996,-0.61119 1.244836,-0.345703 5.846473,3.075208 12.859305,5.092939 20.111626,6.027343 5.012255,0.645559 8.372585,-0.591687 9.432826,-1.857421 0.530118,-0.63287 0.537748,-1.063424 0.25614,-1.523438 C 69.748378,88.982093 68.891786,88.296854 67.18618,87.79522 60.196418,86.479769 53.457946,84.422556 47.587903,81.236626 47.083904,80.963165 46.829182,80.373808 47.018946,79.92022 c 0.189653,-0.454751 0.753523,-0.600926 1.258203,-0.326172 6.465302,3.509001 14.219927,5.652652 22.252903,6.888672 6.575806,1.011847 9.463759,-0.61908 10.11954,-2.158203 0.327891,-0.769562 0.197782,-1.521064 -0.285286,-2.22461 -0.483066,-0.703543 -1.374358,-1.369937 -2.693735,-1.707031 -0.01095,-0.0057 -0.02173,-0.01158 -0.03254,-0.01758 -7.950024,-1.228167 -15.592637,-3.460184 -22.17922,-6.753906 -0.503889,-0.252436 -0.776136,-0.827792 -0.608115,-1.285156 0.167274,-0.458047 0.711988,-0.625108 1.216354,-0.373047 6.370546,3.185688 13.887432,5.380534 21.738238,6.576171 0.0072,-7.9e-5 0.01427,-7.9e-5 0.02148,0 0.0077,0.002 0.0149,0.0039 0.02257,0.0059 0.883651,0.134132 1.7709,0.260445 2.661831,0.36914 6.128524,0.747432 9.068353,-0.876265 9.660787,-2.273437 0.296218,-0.698585 0.171106,-1.290821 -0.390025,-1.945313 -0.558766,-0.651733 -1.670109,-1.340885 -3.368796,-1.703124 -0.04876,-0.0057 -0.09442,-0.0096 -0.143507,-0.01563 h -0.002 C 77.253957,71.877201 68.512373,69.509158 61.105067,65.80502 c -0.504478,-0.251753 -0.777684,-0.827278 -0.610069,-1.285157 0.16809,-0.457332 0.712806,-0.623465 1.216715,-0.371093 7.099389,3.550158 15.621266,5.872847 24.443758,6.949218 6.135432,0.748274 9.166416,-0.817614 9.798354,-2.152344 0.315981,-0.667363 0.211924,-1.197504 -0.31937,-1.816406 -0.531297,-0.6189 -1.637072,-1.301941 -3.353779,-1.664062 -0.03987,-0.01593 -0.07912,-0.0342 -0.117509,-0.05469 C 83.195605,64.654558 74.5641,62.9146 67.162605,60.101562 c -0.492517,-0.187021 -0.808524,-0.710068 -0.705643,-1.167968 0.102547,-0.458025 0.585104,-0.677566 1.077554,-0.490235 7.167997,2.724294 15.654141,4.444134 24.497749,5.1875 0.09984,-0.02227 0.205951,-0.02693 0.313885,-0.01367 0.08834,0.01863 0.170974,0.04235 0.257621,0.0625 0.583655,0.04619 1.169524,0.08925 1.755836,0.126953 3.3768,0.216999 5.851103,-0.09875 7.497023,-0.66211 1.64593,-0.563359 2.41821,-1.379788 2.60077,-2.005859 0.18255,-0.626071 7.8e-4,-1.114929 -0.79983,-1.742188 -0.74241,-0.581646 -2.07776,-1.140278 -3.91035,-1.367187 -9.767343,-0.591639 -19.240195,-2.382097 -27.467348,-5.509766 -0.508339,-0.192754 -0.834523,-0.732614 -0.728112,-1.205078 0.105556,-0.472788 0.603622,-0.699407 1.111782,-0.505859 8.757696,3.329361 19.122584,5.140658 29.754658,5.521484 7.36909,0.263651 10.6118,-2.506245 10.92049,-4.677734 0.15432,-1.085745 -0.25399,-2.021543 -1.35275,-2.833985 -1.09877,-0.812439 -2.99486,-1.436674 -5.65475,-1.326171 -0.0103,-0.0018 -0.02,-0.0038 -0.0304,-0.0059 -0.19038,0.02168 -0.37236,0.04832 -0.56782,0.06641 -10.513248,0.972604 -20.979675,0.451115 -30.197789,-1.898437 -0.517355,-0.13138 -0.903811,-0.637867 -0.862862,-1.130859 0.04043,-0.493125 0.492872,-0.78617 1.010187,-0.654297 8.918482,2.273179 19.194422,2.801136 29.543174,1.84375 3.58398,-0.33172 6.17368,-1.316736 7.78892,-2.5 1.61523,-1.183267 2.20481,-2.544762 2.09071,-3.542969 -0.1141,-0.998207 -0.77653,-1.859888 -2.55643,-2.498047 -1.77986,-0.638159 -4.6148,-0.856316 -8.40406,-0.115234 -0.005,-7e-4 -0.0108,-0.0013 -0.016,-0.002 -9.021538,1.784138 -18.067649,2.311299 -26.337726,1.21875 -0.518001,-0.06848 -0.957956,-0.533697 -0.982651,-1.039063 -0.02454,-0.504502 0.374143,-0.858356 0.891223,-0.791016 8.936151,1.180545 18.960177,0.416951 28.859484,-1.863281 3.45965,-0.797071 6.07532,-1.815087 7.42689,-3.207031 1.35155,-1.391944 1.61903,-2.684192 1.4649,-3.342904 -0.0771,-0.329354 -0.23131,-0.615215 -0.61054,-0.943502 -0.37923,-0.328285 -0.98675,-0.651705 -1.80686,-0.8425 -1.6403,-0.381597 -4.4005,1.065574 -7.50777,1.949218 -8.835982,3.180084 -17.910595,4.996098 -26.397456,4.929688 -0.510298,-0.004 -0.996998,-0.420123 -1.087478,-0.929688 -0.08988,-0.509559 0.250537,-0.919515 0.760746,-0.916015 8.810424,0.06894 18.421762,-1.972559 27.712798,-5.539063 3.2374,-1.24289 5.00542,-2.620068 5.78782,-3.808593 0.7824,-1.188526 0.66546,-2.093371 0.20891,-2.88086 -0.68481,-1.181233 -2.52472,-2.11269 -4.14787,-2.09375 z"
     sodipodi:nodetypes="ssccccsssssccccccssssscssscccccccccsscscccccccccsccscccccsscccccsscccccccccsscccccccsscccccccccsssccccccscccccccsssccccccsssscccccssss" /></svg>
