<?xml version="1.0" encoding="UTF-8" standalone="no"?>
<svg
   width="128px"
   height="128px"
   version="1.1"
   xml:space="preserve"
   style="fill-rule:evenodd;clip-rule:evenodd;stroke-linecap:round;stroke-linejoin:round;stroke-miterlimit:1.5;"
   id="svg3360"
   sodipodi:docname="wing.svg"
   inkscape:version="1.2.2 (732a01da63, 2022-12-09)"
   xmlns:inkscape="http://www.inkscape.org/namespaces/inkscape"
   xmlns:sodipodi="http://sodipodi.sourceforge.net/DTD/sodipodi-0.dtd"
   xmlns="http://www.w3.org/2000/svg"
   xmlns:svg="http://www.w3.org/2000/svg"><defs
     id="defs3364" /><sodipodi:namedview
     id="namedview3362"
     pagecolor="#ffffff"
     bordercolor="#000000"
     borderopacity="0.25"
     inkscape:showpageshadow="2"
     inkscape:pageopacity="0.0"
     inkscape:pagecheckerboard="0"
     inkscape:deskcolor="#d1d1d1"
     showgrid="false"
     inkscape:zoom="2.8284271"
     inkscape:cx="33.057242"
     inkscape:cy="62.225397"
     inkscape:window-width="1366"
     inkscape:window-height="697"
     inkscape:window-x="-8"
     inkscape:window-y="-8"
     inkscape:window-maximized="1"
     inkscape:current-layer="svg3360" /><path
     id="path3925"
     style="fill:none;stroke:#6593a2;stroke-width:9;stroke-dasharray:none;stroke-opacity:1"
     d="m 107.30262,8.8264993 c -0.44099,0.00598 -0.86642,0.091147 -1.24404,0.2863567 -12.782463,6.607834 -27.747856,11.299843 -42.576274,14.780561 -4.569757,0.883973 -15.0849,1.674279 -21.888376,2.125908 -3.43203,0.265184 -6.089456,2.776238 -6.899374,6.515177 l 3.69e-4,0.0023 c -1.552455,7.080284 -4.043574,18.440573 -6.149704,28.051454 -1.053066,4.805439 -2.010975,9.173204 -2.706514,12.349969 -0.347768,1.588384 -0.629566,2.87922 -0.825926,3.777612 -0.09818,0.449195 -0.174218,0.801296 -0.226727,1.042336 -0.02625,0.120522 -0.04619,0.213716 -0.05993,0.277194 -0.01375,0.0635 -0.04554,0.223589 -0.01689,0.06643 l 3.68e-4,0.0023 c -2.424102,13.19228 -9.526512,32.336323 -13.31269,40.094433 -0.0083,0.0156 -0.01693,0.031 -0.02599,0.0459 -0.02345,0.0419 -0.01907,0.0909 0.0099,0.13747 0.02901,0.0467 0.06744,0.0666 0.110931,0.0596 1.608874,-0.27104 3.21969,-1.12555 4.386478,-2.10072 0.584521,-0.48851 1.057518,-1.00642 1.365886,-1.46156 0.308372,-0.45513 0.416129,-0.87618 0.417333,-0.92321 0.02323,-0.84475 0.822117,-1.20686 1.485893,-0.67352 2.635311,2.11671 5.053351,2.90659 11.15722,4.90014 4.989352,1.62961 9.197572,0.83929 10.778912,-0.41236 0.395334,-0.31291 0.612289,-0.641 0.686463,-0.86365 0.07417,-0.22264 0.06496,-0.29207 -0.01756,-0.47191 -0.165049,-0.35965 -1.109111,-1.30979 -3.245559,-2.07093 -0.0083,-0.007 -0.01652,-0.0136 -0.02473,-0.0206 -4.69576,-1.18847 -9.167636,-3.61263 -13.094841,-6.62745 -0.497167,-0.38048 -0.702109,-1.10509 -0.457436,-1.61732 0.244456,-0.51222 0.845526,-0.61792 1.341805,-0.23597 3.765839,2.89093 8.036704,5.18202 12.484317,6.27234 0.0039,-2e-5 0.0078,-2e-5 0.01172,0 0.0078,0.004 0.01344,0.007 0.02101,0.009 1.315214,0.32061 2.644848,0.5412 3.982591,0.63456 3.678398,0.25688 6.074463,-0.1099 7.399692,-0.71245 0.66261,-0.3013 1.048158,-0.65537 1.238101,-0.95758 0.189937,-0.30221 0.215056,-0.52577 0.173834,-0.79492 -0.08234,-0.5383 -0.664425,-1.47502 -1.805792,-2.3298 -1.141367,-0.85476 -2.747693,-1.59153 -4.507756,-1.88765 -0.06813,-0.0183 -0.135719,-0.0444 -0.201701,-0.0779 -5.172362,-1.18977 -10.10764,-3.2645 -14.442989,-5.97225 -0.505652,-0.315381 -0.765437,-1.004963 -0.579956,-1.539445 0.184781,-0.534919 0.744788,-0.712445 1.250183,-0.396316 4.118542,2.572331 8.851351,4.563251 13.819172,5.706501 0.02746,-0.003 0.05525,-0.004 0.08326,-0.005 0.482722,0.0812 0.955156,0.19064 1.416025,0.32301 0.954445,0.18467 1.914716,0.34155 2.880997,0.46046 3.075667,0.37838 5.166159,0.26695 6.391121,-0.0962 1.186972,-0.35191 1.433083,-0.81293 1.457123,-1.15459 l -0.01998,-0.20159 c -0.06205,-0.38572 -0.363715,-1.03532 -1.095686,-1.82581 -0.819083,-0.88456 -2.063335,-1.845035 -3.517819,-2.65967 -5.062257,-1.338506 -9.894878,-3.318998 -14.199208,-5.974536 -0.506765,-0.31223 -0.769884,-1.000777 -0.587409,-1.53716 0.181952,-0.535429 0.738996,-0.716874 1.244836,-0.40548 5.846473,3.606957 12.859305,5.973584 20.111626,7.069561 5.012255,0.757186 8.372585,-0.693999 9.432826,-2.178597 0.530118,-0.742303 0.537748,-1.247306 0.25614,-1.786863 -0.280177,-0.536794 -1.136769,-1.340521 -2.842375,-1.928896 -6.989762,-1.542912 -13.728234,-3.955848 -19.598277,-7.692673 -0.503999,-0.320746 -0.758721,-1.012012 -0.568957,-1.544032 0.189653,-0.533384 0.753523,-0.704835 1.258203,-0.382572 6.465302,4.11576 14.219927,6.63008 22.252903,8.079827 6.575806,1.18681 9.463759,-0.726129 10.11954,-2.531389 0.327891,-0.902631 0.197782,-1.784079 -0.285286,-2.609279 -0.483066,-0.825196 -1.374358,-1.606819 -2.693735,-2.002202 -0.01095,-0.0067 -0.02173,-0.01358 -0.03254,-0.02062 -7.950024,-1.440535 -15.592637,-4.058501 -22.17922,-7.921757 -0.503889,-0.296086 -0.776136,-0.97093 -0.608115,-1.507379 0.167274,-0.53725 0.711988,-0.733199 1.216354,-0.437553 6.370546,3.736542 13.887432,6.31091 21.738238,7.71329 0.0072,-9.3e-5 0.01427,-9.3e-5 0.02148,0 0.0077,0.0023 0.0149,0.0046 0.02257,0.0069 0.883651,0.157326 1.7709,0.30548 2.661831,0.43297 6.128524,0.876674 9.068353,-1.027784 9.660787,-2.666548 0.296218,-0.819381 0.171106,-1.514024 -0.390025,-2.281687 -0.558766,-0.764427 -1.670109,-1.572744 -3.368796,-1.99762 -0.04876,-0.0067 -0.09442,-0.01126 -0.143507,-0.01833 h -0.002 c -9.013671,-1.289847 -17.755255,-4.06736 -25.162561,-8.411999 -0.504478,-0.295285 -0.777684,-0.970327 -0.610069,-1.50738 0.16809,-0.536411 0.712806,-0.731271 1.216715,-0.43526 7.099389,4.164033 15.621266,6.88835 24.443758,8.150842 6.135432,0.877661 9.166416,-0.958992 9.798354,-2.524517 0.315981,-0.78276 0.211924,-1.40457 -0.31937,-2.13049 -0.531297,-0.725917 -1.637072,-1.527066 -3.353779,-1.951803 -0.03987,-0.01869 -0.07912,-0.04011 -0.117509,-0.06415 -8.967562,-0.886639 -17.599067,-2.927462 -25.000562,-6.226916 -0.492517,-0.21936 -0.808524,-0.83285 -0.705643,-1.369928 0.102547,-0.537224 0.585104,-0.794727 1.077554,-0.575004 7.167997,3.195366 15.654141,5.212592 24.497749,6.084497 0.09984,-0.02612 0.205951,-0.03159 0.313885,-0.01603 0.08834,0.02185 0.170974,0.04967 0.257621,0.07331 0.583655,0.05418 1.169524,0.104683 1.755836,0.148906 3.3768,0.254521 5.851103,-0.115826 7.497023,-0.776599 1.64593,-0.660772 2.41821,-1.618374 2.60077,-2.352702 0.18255,-0.734328 7.8e-4,-1.307717 -0.79983,-2.043439 -0.74241,-0.682221 -2.07776,-1.337449 -3.91035,-1.603594 -9.767343,-0.693942 -19.240195,-2.793997 -27.467348,-6.462487 -0.508339,-0.226084 -0.834523,-0.859294 -0.728112,-1.413454 0.105556,-0.55454 0.603622,-0.820345 1.111782,-0.59333 8.757696,3.905058 19.122584,6.029555 29.754658,6.476232 7.36909,0.30924 10.6118,-2.939613 10.92049,-5.486585 0.15432,-1.273486 -0.25399,-2.371098 -1.35275,-3.324023 -1.09877,-0.952922 -2.99486,-1.685097 -5.65475,-1.555486 -0.0103,-0.0021 -0.02,-0.0045 -0.0304,-0.0069 -0.19038,0.02543 -0.37236,0.05667 -0.56782,0.07789 -10.513248,1.140782 -20.979675,0.529119 -30.197789,-2.226705 -0.517355,-0.154098 -0.903811,-0.748164 -0.862862,-1.326402 0.04043,-0.578393 0.492872,-0.92211 1.010187,-0.767435 8.918482,2.666246 19.194422,3.285495 29.543174,2.162562 3.58398,-0.389079 6.17368,-1.544419 7.78892,-2.932287 1.61523,-1.387872 2.20481,-2.98479 2.09071,-4.155601 -0.1141,-1.170812 -0.77653,-2.181491 -2.55643,-2.929997 -1.77986,-0.748507 -4.6148,-1.004386 -8.40406,-0.13516 -0.005,-8.21e-4 -0.0108,-0.0015 -0.016,-0.0023 -9.021538,2.092642 -18.067649,2.710957 -26.337726,1.42949 -0.518001,-0.08032 -0.957956,-0.625981 -0.982651,-1.218732 -0.02454,-0.591738 0.374143,-1.006779 0.891223,-0.927795 8.936151,1.384679 18.960177,0.489048 28.859484,-2.18547 3.45965,-0.934897 6.07532,-2.128943 7.42689,-3.761575 1.35155,-1.632632 1.61903,-3.148329 1.4649,-3.920942 -0.0771,-0.386304 -0.23131,-0.721595 -0.61054,-1.106648 -0.37923,-0.38505 -0.98675,-0.764394 -1.80686,-0.988181 -1.6403,-0.44758 -4.4005,1.249828 -7.50777,2.286267 -8.835982,3.729969 -17.910595,5.859999 -26.397456,5.782105 -0.510298,-0.0047 -0.996998,-0.492768 -1.087478,-1.090445 -0.08988,-0.597669 0.250537,-1.078512 0.760746,-1.074407 8.810424,0.08086 18.421762,-2.313644 27.712798,-6.49685 3.2374,-1.457805 5.00542,-3.073117 5.78782,-4.467156 0.7824,-1.39404 0.66546,-2.455346 0.20891,-3.379004 -0.68481,-1.385486 -2.52472,-2.4780059 -4.14787,-2.4557909 z"
     sodipodi:nodetypes="ssccccsssssccccccsscccssscccccccccsscscccccccccsccscccccsscccccsscccccccccsscccccccsscccccccccsssccccccscccccccsssccccccsssscccccssss" /><path
     id="path3308"
     style="fill:#ffffff;stroke-width:1.23245"
     d="m 107.30262,8.8264993 c -0.44099,0.00598 -0.86642,0.091147 -1.24404,0.2863567 -12.782463,6.607834 -27.747856,11.299843 -42.576274,14.780561 -4.569757,0.883973 -15.0849,1.674279 -21.888376,2.125908 -3.43203,0.265184 -6.089456,2.776238 -6.899374,6.515177 l 3.69e-4,0.0023 c -1.552455,7.080284 -4.043574,18.440573 -6.149704,28.051454 -1.053066,4.805439 -2.010975,9.173204 -2.706514,12.349969 -0.347768,1.588384 -0.629566,2.87922 -0.825926,3.777612 -0.09818,0.449195 -0.174218,0.801296 -0.226727,1.042336 -0.02625,0.120522 -0.04619,0.213716 -0.05993,0.277194 -0.01375,0.0635 -0.04554,0.223589 -0.01689,0.06643 l 3.68e-4,0.0023 c -2.424102,13.19228 -9.526512,32.336323 -13.31269,40.094433 -0.0083,0.0156 -0.01693,0.031 -0.02599,0.0459 -0.02345,0.0419 -0.01907,0.0909 0.0099,0.13747 0.02901,0.0467 0.06744,0.0666 0.110931,0.0596 1.608874,-0.27104 3.21969,-1.12555 4.386478,-2.10072 0.584521,-0.48851 1.057518,-1.00642 1.365886,-1.46156 0.308372,-0.45513 0.418714,-0.67982 0.522294,-0.98801 0.258674,-0.76964 0.246843,-1.14756 0.465262,-1.22366 0.206627,-0.072 0.374207,0.21826 0.91567,0.61494 2.708993,1.98463 5.053351,2.90659 11.15722,4.90014 4.989352,1.62961 9.197572,0.83929 10.778912,-0.41236 0.395334,-0.31291 0.612289,-0.641 0.686463,-0.86365 0.07417,-0.22264 0.06496,-0.29207 -0.01756,-0.47191 -0.165049,-0.35965 -1.109111,-1.30979 -3.245559,-2.07093 -0.0083,-0.007 -0.01652,-0.0136 -0.02473,-0.0206 -4.69576,-1.18847 -9.167636,-3.61263 -13.094841,-6.62745 -0.497167,-0.38048 -0.702109,-1.10509 -0.457436,-1.61732 0.244456,-0.51222 0.845526,-0.61792 1.341805,-0.23597 3.765839,2.89093 8.036704,5.18202 12.484317,6.27234 0.0039,-2e-5 0.0078,-2e-5 0.01172,0 0.0078,0.004 0.01344,0.007 0.02101,0.009 1.315214,0.32061 2.644848,0.5412 3.982591,0.63456 3.678398,0.25688 6.074463,-0.1099 7.399692,-0.71245 0.66261,-0.3013 1.048158,-0.65537 1.238101,-0.95758 0.189937,-0.30221 0.215056,-0.52577 0.173834,-0.79492 -0.08234,-0.5383 -0.664425,-1.47502 -1.805792,-2.3298 -1.141367,-0.85476 -2.747693,-1.59153 -4.507756,-1.88765 -0.06813,-0.0183 -0.135719,-0.0444 -0.201701,-0.0779 -5.172362,-1.18977 -10.10764,-3.2645 -14.442989,-5.97225 -0.505652,-0.315381 -0.765437,-1.004963 -0.579956,-1.539445 0.184781,-0.534919 0.744788,-0.712445 1.250183,-0.396316 4.118542,2.572331 8.851351,4.563251 13.819172,5.706501 0.02746,-0.003 0.05525,-0.004 0.08326,-0.005 0.482722,0.0812 0.955156,0.19064 1.416025,0.32301 0.954445,0.18467 1.914716,0.34155 2.880997,0.46046 3.075667,0.37838 5.166159,0.26695 6.391121,-0.0962 1.186972,-0.35191 1.433083,-0.81293 1.457123,-1.15459 l -0.01998,-0.20159 c -0.06205,-0.38572 -0.363715,-1.03532 -1.095686,-1.82581 -0.819083,-0.88456 -2.063335,-1.845035 -3.517819,-2.65967 -5.062257,-1.338506 -9.894878,-3.318998 -14.199208,-5.974536 -0.506765,-0.31223 -0.769884,-1.000777 -0.587409,-1.53716 0.181952,-0.535429 0.738996,-0.716874 1.244836,-0.40548 5.846473,3.606957 12.859305,5.973584 20.111626,7.069561 5.012255,0.757186 8.372585,-0.693999 9.432826,-2.178597 0.530118,-0.742303 0.537748,-1.247306 0.25614,-1.786863 -0.280177,-0.536794 -1.136769,-1.340521 -2.842375,-1.928896 -6.989762,-1.542912 -13.728234,-3.955848 -19.598277,-7.692673 -0.503999,-0.320746 -0.758721,-1.012012 -0.568957,-1.544032 0.189653,-0.533384 0.753523,-0.704835 1.258203,-0.382572 6.465302,4.11576 14.219927,6.63008 22.252903,8.079827 6.575806,1.18681 9.463759,-0.726129 10.11954,-2.531389 0.327891,-0.902631 0.197782,-1.784079 -0.285286,-2.609279 -0.483066,-0.825196 -1.374358,-1.606819 -2.693735,-2.002202 -0.01095,-0.0067 -0.02173,-0.01358 -0.03254,-0.02062 -7.950024,-1.440535 -15.592637,-4.058501 -22.17922,-7.921757 -0.503889,-0.296086 -0.776136,-0.97093 -0.608115,-1.507379 0.167274,-0.53725 0.711988,-0.733199 1.216354,-0.437553 6.370546,3.736542 13.887432,6.31091 21.738238,7.71329 0.0072,-9.3e-5 0.01427,-9.3e-5 0.02148,0 0.0077,0.0023 0.0149,0.0046 0.02257,0.0069 0.883651,0.157326 1.7709,0.30548 2.661831,0.43297 6.128524,0.876674 9.068353,-1.027784 9.660787,-2.666548 0.296218,-0.819381 0.171106,-1.514024 -0.390025,-2.281687 -0.558766,-0.764427 -1.670109,-1.572744 -3.368796,-1.99762 -0.04876,-0.0067 -0.09442,-0.01126 -0.143507,-0.01833 h -0.002 c -9.013671,-1.289847 -17.755255,-4.06736 -25.162561,-8.411999 -0.504478,-0.295285 -0.777684,-0.970327 -0.610069,-1.50738 0.16809,-0.536411 0.712806,-0.731271 1.216715,-0.43526 7.099389,4.164033 15.621266,6.88835 24.443758,8.150842 6.135432,0.877661 9.166416,-0.958992 9.798354,-2.524517 0.315981,-0.78276 0.211924,-1.40457 -0.31937,-2.13049 -0.531297,-0.725917 -1.637072,-1.527066 -3.353779,-1.951803 -0.03987,-0.01869 -0.07912,-0.04011 -0.117509,-0.06415 -8.967562,-0.886639 -17.599067,-2.927462 -25.000562,-6.226916 -0.492517,-0.21936 -0.808524,-0.83285 -0.705643,-1.369928 0.102547,-0.537224 0.585104,-0.794727 1.077554,-0.575004 7.167997,3.195366 15.654141,5.212592 24.497749,6.084497 0.09984,-0.02612 0.205951,-0.03159 0.313885,-0.01603 0.08834,0.02185 0.170974,0.04967 0.257621,0.07331 0.583655,0.05418 1.169524,0.104683 1.755836,0.148906 3.3768,0.254521 5.851103,-0.115826 7.497023,-0.776599 1.64593,-0.660772 2.41821,-1.618374 2.60077,-2.352702 0.18255,-0.734328 7.8e-4,-1.307717 -0.79983,-2.043439 -0.74241,-0.682221 -2.07776,-1.337449 -3.91035,-1.603594 -9.767343,-0.693942 -19.240195,-2.793997 -27.467348,-6.462487 -0.508339,-0.226084 -0.834523,-0.859294 -0.728112,-1.413454 0.105556,-0.55454 0.603622,-0.820345 1.111782,-0.59333 8.757696,3.905058 19.122584,6.029555 29.754658,6.476232 7.36909,0.30924 10.6118,-2.939613 10.92049,-5.486585 0.15432,-1.273486 -0.25399,-2.371098 -1.35275,-3.324023 -1.09877,-0.952922 -2.99486,-1.685097 -5.65475,-1.555486 -0.0103,-0.0021 -0.02,-0.0045 -0.0304,-0.0069 -0.19038,0.02543 -0.37236,0.05667 -0.56782,0.07789 -10.513248,1.140782 -20.979675,0.529119 -30.197789,-2.226705 -0.517355,-0.154098 -0.903811,-0.748164 -0.862862,-1.326402 0.04043,-0.578393 0.492872,-0.92211 1.010187,-0.767435 8.918482,2.666246 19.194422,3.285495 29.543174,2.162562 3.58398,-0.389079 6.17368,-1.544419 7.78892,-2.932287 1.61523,-1.387872 2.20481,-2.98479 2.09071,-4.155601 -0.1141,-1.170812 -0.77653,-2.181491 -2.55643,-2.929997 -1.77986,-0.748507 -4.6148,-1.004386 -8.40406,-0.13516 -0.005,-8.21e-4 -0.0108,-0.0015 -0.016,-0.0023 -9.021538,2.092642 -18.067649,2.710957 -26.337726,1.42949 -0.518001,-0.08032 -0.957956,-0.625981 -0.982651,-1.218732 -0.02454,-0.591738 0.374143,-1.006779 0.891223,-0.927795 8.936151,1.384679 18.960177,0.489048 28.859484,-2.18547 3.45965,-0.934897 6.07532,-2.128943 7.42689,-3.761575 1.35155,-1.632632 1.61903,-3.148329 1.4649,-3.920942 -0.0771,-0.386304 -0.23131,-0.721595 -0.61054,-1.106648 -0.37923,-0.38505 -0.98675,-0.764394 -1.80686,-0.988181 -1.6403,-0.44758 -4.4005,1.249828 -7.50777,2.286267 -8.835982,3.729969 -17.910595,5.859999 -26.397456,5.782105 -0.510298,-0.0047 -0.996998,-0.492768 -1.087478,-1.090445 -0.08988,-0.597669 0.250537,-1.078512 0.760746,-1.074407 8.810424,0.08086 18.421762,-2.313644 27.712798,-6.49685 3.2374,-1.457805 5.00542,-3.073117 5.78782,-4.467156 0.7824,-1.39404 0.66546,-2.455346 0.20891,-3.379004 -0.68481,-1.385486 -2.52472,-2.4780059 -4.14787,-2.4557909 z"
     sodipodi:nodetypes="ssccccsssssccccccssssscssscccccccccsscscccccccccsccscccccsscccccsscccccccccsscccccccsscccccccccsssccccccscccccccsssccccccsssscccccssss" /></svg>
