<?xml version="1.0" encoding="UTF-8" standalone="no"?>
<!-- Generator: Adobe Illustrator 26.3.1, SVG Export Plug-In . SVG Version: 6.00 Build 0)  -->

<svg
   version="1.1"
   id="Art"
   x="0px"
   y="0px"
   viewBox="0 0 128 128"
   style="enable-background:new 0 0 128 128;"
   xml:space="preserve"
   sodipodi:docname="wing.svg"
   inkscape:version="1.2.2 (732a01da63, 2022-12-09)"
   xmlns:inkscape="http://www.inkscape.org/namespaces/inkscape"
   xmlns:sodipodi="http://sodipodi.sourceforge.net/DTD/sodipodi-0.dtd"
   xmlns="http://www.w3.org/2000/svg"
   xmlns:svg="http://www.w3.org/2000/svg"><defs
   id="defs26980" /><sodipodi:namedview
   id="namedview26978"
   pagecolor="#ffffff"
   bordercolor="#000000"
   borderopacity="0.25"
   inkscape:showpageshadow="2"
   inkscape:pageopacity="0.0"
   inkscape:pagecheckerboard="0"
   inkscape:deskcolor="#d1d1d1"
   showgrid="false"
   inkscape:zoom="2.9996795"
   inkscape:cx="47.005021"
   inkscape:cy="79.008439"
   inkscape:window-width="1366"
   inkscape:window-height="697"
   inkscape:window-x="-8"
   inkscape:window-y="-8"
   inkscape:window-maximized="1"
   inkscape:current-layer="Art" />
<path
   id="path26927"
   style="fill:#92989b"
   d="m 119.64258,7.4101562 c -0.58224,-0.04233 -1.03047,0.076536 -1.42383,0.2402344 -0.81186,-0.4305154 -3.01888,2.0578777 -3.19141,2.3632814 -0.17596,0.311504 -5.57618,6.184642 -11.83007,9.863281 -6.264399,3.688123 -7.986332,5.091797 -7.986332,5.091797 -1.315761,0.674365 -8.241367,2.977645 -8.265626,3.457031 -0.02416,0.477707 0.238339,2.807929 3.746094,2.070313 C 74.096233,41.999324 48.319565,59.658624 35.25,67.589844 20.26373,76.684209 14.01893,95.455566 11.957031,103.43359 c -0.01303,-0.0657 -0.02372,-0.15357 -0.03711,-0.21289 -1.289998,-5.659982 0.210937,-22.320309 0.210937,-22.320309 l 9.279297,-12.371094 c 0,0 4.669536,-6.249457 7.019532,-7.939453 C 30.789682,58.899846 50.793965,47.975189 50.471616,46.490076 50.169493,45.098145 17.930922,61.700643 10.710938,70.640625 3.9809504,78.970609 2.5501626,89.42963 5.6601562,100.09961 c 1.4093233,4.83196 3.9785069,10.40956 4.1933594,10.87305 0.1589914,0.64613 0.3816574,1.37596 0.7363284,2.26757 1.819996,4.56 5.131027,7.0193 10.791015,7.2793 7.289986,0.33 15.349231,-4.91875 20.949219,-4.96875 5.59999,-0.05 8.199854,1.15883 12.839844,1.29883 6.869986,0.2 9.979537,-0.85953 13.019531,-3.01953 4.149992,-2.95 3.521484,-6.63086 3.521485,-6.63086 0,0 6.398912,-0.90908 9.378906,-6.03906 1.939996,-3.34 1.019531,-6.550785 1.019531,-6.550785 0,0 2.740084,-0.798834 6.080078,-3.798828 2.769994,-2.479996 4.521248,-6.560473 3.78125,-8.480469 -0.379998,-0.989998 -2.070312,-1.179687 -2.070312,-1.179687 0,0 4.258992,-1.719616 8.708984,-5.09961 5.269985,-4.009992 6.600785,-9.221488 5.550785,-10.771484 -0.9,-1.329998 -2.24024,-1.458984 -2.24024,-1.458985 0,0 10.11955,-4.190012 16.26953,-11 3.83,-4.23999 5.28063,-10.160863 3.89063,-12.130859 -1.37,-1.949996 -3.97071,-1.740234 -3.9707,-1.740234 0,0 3.48015,-4.209069 4.41015,-7.789063 0.93,-3.579992 -0.0594,-6.141094 -0.93945,-6.871094 -0.88,-0.729998 -2.49024,-0.689453 -2.49024,-0.689453 0,0 4.57946,-3.870557 4.93946,-9.310547 0.28,-4.05999 -1.50868,-6.2397661 -3.63868,-6.7597651 -0.26623,-0.065 -0.51593,-0.1022657 -0.74804,-0.1191407 z M 83.339844,26.699219 c -0.204892,0.01012 -0.400547,0.04578 -0.560547,0.113281 -0.629999,0.26 -3.239773,4.270864 -10.259766,9.380859 -3.559996,2.579998 -18.673438,9.689845 -19.023437,10.089844 -0.37,0.43 0.02031,1.87125 0.07031,2.03125 0.17,0.5 10.802973,-3.61219 14.792969,-5.742187 3.989996,-2.129998 9.858596,-6.88008 11.808594,-8.830078 2.499997,-2.499998 4.567578,-6.132735 4.517578,-6.552735 -0.0375,-0.315 -0.731028,-0.520584 -1.345703,-0.490234 z"
   sodipodi:nodetypes="scsccscscccccscccccsccccccccccccccssccsssccccssss" />
<path
   id="path26929"
   style="fill:#ffffff;fill-opacity:1"
   d="M 118.88867 8.8613281 C 118.9335 9.9105279 118.19059 11.270634 117.48633 12.472656 C 116.46387 14.217744 112.79466 17.597743 107.79297 21.660156 C 102.79127 25.722569 94.330021 29.721363 90.726562 30.490234 C 89.441756 30.766528 88.592006 30.632038 88.027344 30.328125 L 15.25 83.419922 L 10.140625 103.86914 C 10.140625 103.86914 11.740401 111.93047 17.400391 115.73047 C 21.610381 118.56047 30.169307 115.52969 35.029297 113.67969 C 39.889287 111.82969 44.619223 112.38086 46.699219 112.63086 C 49.699213 112.99086 52.289934 114.20055 57.919922 113.81055 C 65.409906 113.29055 68.900859 108.92936 68.380859 107.60938 C 68.244951 107.25725 67.80258 107.15357 67.355469 107.13086 C 66.738292 106.96277 63.11834 107.17969 61.380859 107.17969 C 60.646477 107.17969 60.025537 107.13379 59.458984 107.08008 C 58.373611 106.86618 58.363381 105.45 59.550781 105.39062 C 60.350779 105.35064 61.569848 105.44008 63.339844 105.33008 C 65.09984 105.21008 71.469694 105.01023 75.179688 102.74023 C 78.491005 100.71073 78.866546 97.448217 78.849609 96.882812 C 78.849607 96.873999 78.860071 96.857845 78.859375 96.849609 C 78.858777 96.842531 78.856121 96.839005 78.855469 96.832031 C 78.855068 96.825544 78.859905 96.794493 78.859375 96.789062 C 78.858877 96.783999 78.843793 96.78028 78.841797 96.775391 C 78.761765 96.137612 78.424821 95.958608 77.380859 95.939453 C 76.220865 95.919453 73.289525 96.359453 70.769531 96.439453 C 69.213538 96.489218 67.764799 96.4447 66.496094 96.443359 C 66.390012 96.427778 66.21269 96.420045 66.140625 96.400391 C 64.870627 96.060391 64.94969 94.84 66.179688 94.75 C 66.769686 94.71 69.730871 94.689529 74.880859 93.769531 C 81.460847 92.589533 84.749535 89.620152 86.519531 87.410156 C 88.279527 85.20016 87.680936 82.830703 86.960938 82.720703 C 86.95724 82.720138 86.947242 82.724997 86.943359 82.724609 C 86.80945 82.667242 86.64777 82.632423 86.455078 82.623047 C 85.030611 82.553731 82.1857 83.659453 80.689453 83.939453 C 78.726085 84.318175 76.305235 84.657069 73.259766 84.71875 C 73.251382 84.718521 73.228699 84.710938 73.220703 84.710938 C 72.280705 84.710938 71.940004 83.26 73.75 83 C 81.309984 81.900002 87.499619 79.700775 92.349609 76.800781 C 98.779597 72.960789 100.32078 70.109996 100.30078 68 C 100.29164 66.993946 99.717576 65.702727 98.847656 65.785156 C 98.842357 65.784388 98.839624 65.781676 98.833984 65.78125 C 98.293167 65.740381 96.057413 67.230081 93.310547 68.439453 C 90.040556 69.88945 86.060775 71.100469 83.800781 71.730469 C 82.745507 72.026043 81.83478 72.234006 81.054688 72.417969 C 79.49753 72.371434 79.639181 71.043261 80.720703 70.550781 C 81.530701 70.190783 83.99907 69.649684 87.789062 67.929688 C 93.169052 65.489692 97.420802 63.330691 107.30078 57.220703 C 115.02076 52.450713 118.49961 48.489291 118.84961 45.529297 C 119.07389 43.579811 117.98979 42.417585 117.08398 42.082031 C 117.07097 42.07721 117.05786 42.066977 117.04492 42.0625 C 116.75142 41.917878 116.36184 41.79264 115.89844 41.771484 C 115.45178 41.751094 114.94719 41.824297 114.42969 42.060547 C 113.38969 42.540544 105.32997 48.239228 99 51.949219 C 95.757213 53.85728 91.847868 55.724148 88.529297 57.439453 C 87.876028 57.537503 87.462052 57.306713 87.140625 56.640625 C 86.710625 55.740627 88.079533 55.100156 89.019531 54.660156 C 94.339521 52.160162 106.94938 44.59999 112.35938 40 C 116.16936 36.760006 119.3307 33.109994 119.7207 29.75 C 120.1107 26.390006 117.60937 25.759766 117.60938 25.759766 L 117.60156 25.767578 C 117.46239 25.722077 117.33398 25.701209 117.21484 25.699219 C 116.85016 25.693125 116.56656 25.865547 116.28906 26.060547 C 115.91906 26.330547 111.55984 30.369543 106.33984 33.769531 C 101.11987 37.169522 93.839522 41.5893 91.019531 43.029297 C 90.405718 43.340557 89.830289 43.652848 89.285156 43.964844 C 88.189474 44.071602 87.716767 42.635335 88.820312 41.849609 C 89.590312 41.309611 107.15963 32.110763 115.84961 22.800781 C 122.76959 15.390797 121.23055 11.009685 120.06055 9.6796875 C 119.7062 9.2802972 119.29701 9.0403613 118.88867 8.8613281 z " />
<path
   style="fill:#92989B;"
   d="M81.57,29.23c0.35-0.7,0.63-0.91,0.77-1.6s1.11-1.88,2.79-1.74c1.67,0.14,4.32,1.7,4.04,7.96  c-0.26,5.94-6.83,12.09-6.83,12.09s2.09,0.97,2.85,3.06c0.77,2.09,0.49,7.32-3.97,11.71c-4.46,4.39-6.91,5.31-6.91,5.31  s2.03,0.54,2.66,3.04c0.62,2.5-0.7,7.03-4.94,10.37c-4.25,3.34-7.68,4.74-7.68,4.74s2.19,0.08,2.88,1.75  c0.7,1.67,0.33,5.68-5.56,9.47c-4.32,2.78-7.39,4.02-7.39,4.02s2.35,0.45,2.62,2.54s-0.84,5.39-4.57,7.49  c-3.04,1.71-6.57,2.53-6.85,1.28c-0.28-1.25-7.42-6.78-8.4-7.82s3.9-38.16,8.36-42.47s26.04-19.71,25.76-19.5  C70.92,41.14,81.57,29.23,81.57,29.23z"
   id="path26931" />
<path
   id="path26933"
   style="fill:#ffffff;fill-opacity:1"
   d="M 84.478516 27.769531 C 83.91956 28.968401 82.196294 31.713862 80.167969 33.742188 C 78.217971 35.692186 72.349371 40.442268 68.359375 42.572266 C 65.159041 44.280715 57.766546 47.226225 54.845703 48.082031 L 45.789062 56.380859 L 36.929688 69.220703 L 32.470703 99.539062 L 40.320312 109.96094 C 40.320312 109.96094 46.360312 112.48936 46.070312 111.60938 C 45.950314 111.24938 45.480234 111.03977 45.490234 110.75977 C 45.550234 109.45977 47.850242 109.89008 51.240234 107.83008 C 54.620228 105.77008 55.359139 102.74906 54.369141 101.53906 C 53.439143 100.38906 50.590232 100.73094 48.990234 100.96094 C 47.380238 101.19094 46.200779 101.5993 44.800781 102.0293 C 43.560783 102.4093 43.159143 101.06047 44.619141 100.48047 C 45.239139 100.23047 50.659543 98.599447 56.019531 95.939453 C 61.379521 93.279459 64.240156 90.780697 64.160156 87.970703 C 64.134312 87.046786 63.447838 86.637852 62.951172 86.445312 C 62.896219 86.413374 62.828535 86.387747 62.755859 86.363281 C 62.703507 86.346933 62.689336 86.338577 62.648438 86.328125 C 62.605984 86.317213 62.566594 86.305721 62.519531 86.296875 C 62.505441 86.294249 62.449219 86.279297 62.449219 86.279297 C 62.449219 86.279297 62.439614 86.286972 62.439453 86.287109 C 62.194537 86.248477 61.905675 86.229485 61.556641 86.242188 C 59.766351 86.307337 56.697254 87.049378 53.259766 88.5 C 52.007509 89.028378 50.93544 89.505839 50.025391 89.964844 C 49.078401 90.307942 48.628567 90.299137 48.410156 89.869141 C 47.760158 88.569143 50.190162 87.819529 52.660156 86.769531 C 55.130152 85.719533 62.189076 83.300381 68.289062 78.900391 C 74.139052 74.690399 75.030156 71.29906 74.660156 69.789062 C 74.40431 68.744932 73.702066 68.088095 73.109375 67.802734 C 73.06537 67.777085 73.018064 67.756633 72.970703 67.736328 C 72.96671 67.734616 72.963001 67.732143 72.958984 67.730469 C 72.956883 67.729654 72.955222 67.72932 72.953125 67.728516 C 72.885664 67.700765 72.810349 67.685446 72.736328 67.667969 C 72.676325 67.65452 72.622955 67.647592 72.570312 67.644531 C 72.482315 67.632804 72.402557 67.609117 72.306641 67.609375 C 70.218753 67.615003 66.295142 70.365006 61.730469 72.609375 C 58.496477 74.198587 56.337401 75.093116 54.681641 75.986328 C 54.619582 76.009113 54.395121 76.073778 54.359375 76.089844 C 52.859378 76.769842 52.719766 75.029842 53.509766 74.589844 C 54.069764 74.279844 61.380869 70.459291 66.380859 67.529297 C 71.170851 64.729303 76.74993 62.069912 80.419922 57.419922 C 83.259916 53.829928 83.110232 50.810934 81.740234 49.710938 C 80.470238 48.68094 78.900154 49.039766 77.910156 49.509766 C 77.901117 49.514163 77.864762 49.557695 77.851562 49.568359 C 77.774016 49.599064 77.693493 49.619107 77.619141 49.660156 C 76.659144 50.190156 72.129673 53.020631 67.929688 55.140625 C 64.812376 56.733536 61.610221 58.111381 59.765625 59.197266 C 56.638727 60.594502 56.793815 58.797893 57.609375 58.310547 C 58.229373 57.950547 64.099072 54.990385 68.539062 52.400391 C 74.58905 48.860397 79.240869 45.740379 83.630859 39.900391 C 88.020851 34.060401 86.319215 29.329451 84.699219 27.939453 C 84.625902 27.877526 84.55253 27.821474 84.478516 27.769531 z M 77.429688 32.205078 C 76.577966 32.956908 75.630266 33.762983 74.609375 34.59375 C 75.675015 33.747698 76.604337 32.95246 77.429688 32.205078 z " />
<path
   style="fill:#92989b"
   d="m 49.829893,45.07 c 0.12,-0.25 0.8,-1.58 2.54,-1.36 2.22,0.28 5.07,3.22 3.4,9.4 -1.67,6.19 -5.3,8.65 -5.3,8.65 0,0 1.87,2.82 0.49,6.67 -1.67,4.65 -5.81,7.72 -5.81,7.72 0,0 1.86,1.93 0.76,5.77 -1.24,4.32 -4.73,7.2 -4.73,7.2 0,0 1.4,0.8 1.03,3.4 -0.37,2.6 -2.35,5.97 -6.07,7.92 -3.32,1.75 -4.8,2.1 -4.8,2.1 0,0 1.86,0.68 1.48,2.6 -0.37,1.92 -2.88,5.25 -7.55,6.56 -4.03,1.13 -4.191989,-1.62077 -3.081989,-2.06077 1.11,-0.44 0.731989,-8.57923 0.731989,-8.57923 0,0 3.15,-38.6 3.28,-38.91 0.12,-0.31 20.54,-13.48 21.4,-14.29 0.86,-0.81 2.23,-2.79 2.23,-2.79 z"
   id="path26935"
   sodipodi:nodetypes="ccccccccsccccsccsc" />
















<path
   id="path26969"
   style="fill:#ffffff;fill-opacity:1"
   d="M 51.970703 47.859375 C 51.510704 48.449374 50.339217 51.730001 48.449219 53 C 46.559221 54.269999 31.740621 61.60094 27.890625 64.210938 C 24.030629 66.800935 15.189138 75.600162 12.869141 81.660156 C 10.549143 87.72015 11.439453 94.759766 11.439453 94.759766 C 11.359453 97.619763 14.85047 108.96945 15.730469 109.43945 C 16.600468 109.91945 19.760237 110.37992 22.240234 109.91992 C 26.70023 109.08992 30.650234 106.59062 30.490234 103.89062 C 30.330235 101.19063 25.570312 102.70008 25.570312 101.83008 C 25.570312 100.96008 29.999223 99.740466 34.699219 97.230469 C 40.419213 94.160472 40.099297 91.519218 39.779297 91.199219 C 39.459297 90.879219 34.639999 93.280624 33.25 92.640625 C 32.150001 92.130626 32.280548 91.099921 33.310547 90.419922 C 34.930545 89.339923 38.510549 88.799607 41.060547 86.099609 C 44.120544 82.859613 42.869609 79.239687 42.599609 78.929688 C 42.457011 79.020116 42.046928 79.217494 41.675781 79.398438 C 41.441442 79.464282 40.355612 80.014654 38.972656 80.615234 C 37.403147 81.269408 35.798984 81.861132 35.189453 81.890625 C 33.929454 81.940625 33.250938 80.540389 34.210938 79.400391 C 35.830936 77.480393 42.910863 76.020933 46.630859 71.210938 C 49.510856 67.490941 48.180234 64.400234 47.740234 64.240234 C 47.643671 64.204023 46.951734 64.593003 46.076172 65.103516 C 46.073768 65.096128 46.072829 65.08725 46.070312 65.080078 C 45.530313 65.340078 42.959686 66.990626 41.179688 67.640625 C 38.66889 68.558248 37.351118 68.858467 36.220703 69.119141 C 34.954309 69.292714 33.875154 69.22999 33.669922 68.320312 C 33.429922 67.280314 34.110393 65.949843 36.650391 65.339844 C 38.460389 64.909844 44.320083 63.0107 48.830078 59.470703 C 54.920072 54.690708 52.960702 48.199375 51.970703 47.859375 z " />


<path
   style="fill:#ffffff;fill-opacity:1"
   d="M51.86,47.83c0.54-0.2,0.38,2.34-0.3,3.57c-0.87,1.59-5.12,4.63-7.54,6  c-2.42,1.37-23.87,12.11-27.66,22.83s-2.14,19.07-0.59,25.67c0.27,1.15,0.85,3.42,0.39,3.74c-0.13,0.09-3.48-0.81-5.64-5.43  c-2.76-5.91-3.47-15.16-0.76-23.38c2.81-8.52,8.78-14.41,17.76-19.58c7.32-4.21,14.44-6.87,16.56-8.14  C46.2,51.83,50.94,48.18,51.86,47.83z"
   id="path26975" />
</svg>
