<?xml version="1.0" encoding="UTF-8" standalone="no"?>
<!-- Generator: Adobe Illustrator 25.2.3, SVG Export Plug-In . SVG Version: 6.00 Build 0)  -->

<svg
   version="1.1"
   id="Layer_4"
   x="0px"
   y="0px"
   viewBox="0 0 128 128"
   style="enable-background:new 0 0 128 128;"
   xml:space="preserve"
   sodipodi:docname="wing.svg"
   inkscape:version="1.2.2 (732a01da63, 2022-12-09)"
   xmlns:inkscape="http://www.inkscape.org/namespaces/inkscape"
   xmlns:sodipodi="http://sodipodi.sourceforge.net/DTD/sodipodi-0.dtd"
   xmlns="http://www.w3.org/2000/svg"
   xmlns:svg="http://www.w3.org/2000/svg"><defs
   id="defs7878" /><sodipodi:namedview
   id="namedview7876"
   pagecolor="#ffffff"
   bordercolor="#000000"
   borderopacity="0.25"
   inkscape:showpageshadow="2"
   inkscape:pageopacity="0.0"
   inkscape:pagecheckerboard="0"
   inkscape:deskcolor="#d1d1d1"
   showgrid="false"
   inkscape:zoom="2.1210938"
   inkscape:cx="46.909761"
   inkscape:cy="101.83425"
   inkscape:window-width="1366"
   inkscape:window-height="697"
   inkscape:window-x="-8"
   inkscape:window-y="-8"
   inkscape:window-maximized="1"
   inkscape:current-layer="Layer_4" />
<path
   style="fill:none;stroke:#6593a2;stroke-width:13.9999;stroke-dasharray:none;stroke-opacity:1"
   d="M 17.836731,97.683683 C 14.299721,91.832372 13.220319,89.907035 14.06117,73.558723 14.878734,57.418646 9.9023325,49.132676 15.63106,29.500158 18.05137,21.201686 26.03051,8.7213063 51.421659,16.362117 c 9.681862,2.904698 32.431907,6.298065 53.639321,4.05946 17.05502,-1.802863 11.43249,9.816272 8.74807,12.823852 -9.56178,10.73798 -26.061493,-0.252366 -28.21881,8.224349 -2.157316,8.476715 27.50073,5.652618 16.37271,16.267598 -9.037092,8.597212 -23.051933,-6.371069 -27.230754,0.566861 -4.178821,6.937929 18.42148,9.525225 9.584227,19.082679 -6.06662,6.563951 -22.045828,-9.138599 -25.96636,-2.301329 -3.920532,6.837271 15.781841,11.347471 12.285603,17.297073 -5.318609,9.09784 -18.971373,-4.730316 -22.063071,1.648448 -3.091698,6.378762 15.356072,11.622562 11.406646,16.915152 -5.88599,7.89208 -20.85676,2.24278 -20.85676,2.24278 0,0 -14.973068,-5.04008 -21.28575,-15.505357 z"
   id="path8405"
   sodipodi:nodetypes="cccccczczczczccc" /><path
   style="fill:#fafafa;stroke-width:1"
   d="M 17.836731,97.683683 C 14.299721,91.832372 13.220319,89.907035 14.06117,73.558723 14.878734,57.418646 9.9023325,49.132676 15.63106,29.500158 18.05137,21.201686 26.03051,8.7213063 51.421659,16.362117 c 9.681862,2.904698 32.431907,6.298065 53.639321,4.05946 17.05502,-1.802863 11.43249,9.816272 8.74807,12.823852 -9.56178,10.73798 -28.21881,8.224349 -28.21881,8.224349 0,0 27.50073,5.652618 16.37271,16.267598 -9.037092,8.597212 -27.230754,0.566861 -27.230754,0.566861 0,0 18.42148,9.525225 9.584227,19.082679 -6.06662,6.563951 -25.96636,-2.301329 -25.96636,-2.301329 0,0 15.781841,11.347471 12.285603,17.297073 -5.318609,9.09784 -22.063071,1.648448 -22.063071,1.648448 0,0 15.356072,11.622562 11.406646,16.915152 -5.88599,7.89208 -20.85676,2.24278 -20.85676,2.24278 0,0 -14.973068,-5.04008 -21.28575,-15.505357 z"
   id="path7863-3" /><path
   id="path7867-0"
   style="fill:#6593a2;stroke-width:1"
   d="m 50.040606,21.252673 c -3.983635,0.01828 -7.144646,0.667992 -7.057575,1.967765 0.120645,1.800945 7.406978,-0.187656 15.23424,2.228953 4.856654,1.507926 9.347633,2.558654 8.068227,7.915777 -0.320873,1.299354 -2.801035,4.046847 -11.073219,3.253918 -8.770775,-0.847768 -20.034508,-4.909737 -21.068311,-3.514648 -1.055357,1.391572 14.044254,3.934293 22.655264,13.078242 3.235755,3.443291 3.084323,8.321152 -6.374921,7.546583 -10.286928,-0.830065 -21.641952,-9.175328 -22.7783,-8.433066 0,0 4.893727,6.282636 12.32443,10.675348 7.430704,4.392712 10.21215,6.71533 8.287189,9.67623 -4.140303,6.368456 -18.872185,-7.358349 -19.633589,-6.330536 -1.153391,1.556955 4.652883,7.483315 11.335974,12.139612 1.04931,0.731083 6.188782,3.889668 2.481568,9.261147 -3.400992,4.884477 -16.370158,-3.027428 -16.955996,-1.30991 -0.561671,1.721462 5.796834,5.374409 9.18389,9.196486 1.264675,1.454685 3.847337,4.550618 3.155138,8.539445 -0.6922,3.988851 -10.149159,-0.793438 -9.721911,0.227357 0.427245,1.02084 5.24995,5.642954 11.506972,5.147864 1.737515,-0.13255 3.976617,-1.87762 4.470994,-3.877585 1.870406,-7.482265 -5.536609,-12.11041 -5.536609,-12.11041 0,0 9.177528,2.657264 10.989804,-4.745295 0.976086,-4.002609 -0.743854,-6.693894 -2.988309,-8.383007 3.394872,0.157503 6.730428,-0.897141 8.212116,-3.673171 2.942333,-5.509886 -0.746556,-9.611569 -0.746556,-9.611569 0,0 13.178481,0.878533 13.757067,-6.845739 0.543653,-7.411924 -6.122594,-10.408362 -6.122594,-10.408362 0,0 6.604634,1.396082 11.984518,-5.306387 2.624419,-3.25589 3.930237,-11.603824 -4.746261,-14.079447 -6.159019,-1.758487 -13.045704,-2.252203 -18.84324,-2.225595 z"
   sodipodi:nodetypes="sscccccccsssscccsscccccccccccs" />
</svg>
