<?xml version="1.0" encoding="UTF-8" standalone="no"?>
<svg
   width="128px"
   height="128px"
   version="1.1"
   xml:space="preserve"
   style="fill-rule:evenodd;clip-rule:evenodd;stroke-linecap:round;stroke-linejoin:round;stroke-miterlimit:1.5;"
   id="svg3360"
   sodipodi:docname="wing.svg"
   inkscape:version="1.3 (0e150ed6c4, 2023-07-21)"
   xmlns:inkscape="http://www.inkscape.org/namespaces/inkscape"
   xmlns:sodipodi="http://sodipodi.sourceforge.net/DTD/sodipodi-0.dtd"
   xmlns="http://www.w3.org/2000/svg"
   xmlns:svg="http://www.w3.org/2000/svg"><defs
     id="defs3364" /><sodipodi:namedview
     id="namedview3362"
     pagecolor="#ffffff"
     bordercolor="#000000"
     borderopacity="0.25"
     inkscape:showpageshadow="2"
     inkscape:pageopacity="0.0"
     inkscape:pagecheckerboard="0"
     inkscape:deskcolor="#d1d1d1"
     showgrid="false"
     inkscape:zoom="4"
     inkscape:cx="63.875"
     inkscape:cy="71.625"
     inkscape:window-width="1366"
     inkscape:window-height="697"
     inkscape:window-x="-8"
     inkscape:window-y="-8"
     inkscape:window-maximized="1"
     inkscape:current-layer="svg3360" /><path
     id="path1"
     style="fill:#ffffff;fill-opacity:1;stroke-width:16;stroke-linecap:round;stroke:#6593a2;stroke-opacity:1;stroke-dasharray:none"
     d="m 28.68535,55.520667 c -7.77484,29.016195 -17.3543,28.655938 -17.3543,40.965733 0,7.8702 5.65229,10.89602 13.72425,10.89602 15.942162,0 30.446654,-7.10729 30.446654,-12.761734 0,-3.457269 -5.324902,-4.289578 -5.324902,-6.610233 0,-2.018006 9.731515,-1.454741 16.348402,-3.227701 6.616884,-1.77302 8.76167,-3.796722 8.76167,-7.114363 0,-3.567308 -6.921904,-3.869159 -6.921904,-5.956798 0,-1.962581 25.115938,-1.639919 25.115938,-12.19932 0,-3.638682 -8.992042,-3.854667 -8.992042,-6.280438 0,-2.71121 32.177264,-3.067631 32.177264,-20.048244 0,-2.925221 -1.14019,-6.490556 -6.41986,-6.490556 -12.985115,0 -16.980782,1.854493 -30.964857,-0.42881 C 65.297701,23.980921 62.365257,20.61064 51.998482,20.610751 40.204783,20.610866 36.460197,26.504526 28.68535,55.520667 Z"
     sodipodi:nodetypes="sssssssssssssss" /><path
     id="path2"
     style="fill:#ffffff;fill-opacity:1;stroke-width:6;stroke-linecap:round"
     d="m 28.68535,55.520667 c -7.77484,29.016195 -17.3543,28.655938 -17.3543,40.965733 0,7.8702 5.65229,10.89602 13.72425,10.89602 15.942162,0 30.446654,-7.10729 30.446654,-12.761734 0,-3.457269 -5.324902,-4.289578 -5.324902,-6.610233 0,-2.018006 9.731515,-1.454741 16.348402,-3.227701 6.616884,-1.77302 8.76167,-3.796722 8.76167,-7.114363 0,-3.567308 -6.921904,-3.869159 -6.921904,-5.956798 0,-1.962581 25.115938,-1.639919 25.115938,-12.19932 0,-3.638682 -8.992042,-3.854667 -8.992042,-6.280438 0,-2.71121 32.177264,-3.067631 32.177264,-20.048244 0,-2.925221 -1.14019,-6.490556 -6.41986,-6.490556 -12.985115,0 -16.980782,1.854493 -30.964857,-0.42881 C 65.297701,23.980921 62.365257,20.61064 51.998482,20.610751 40.204783,20.610866 36.460197,26.504526 28.68535,55.520667 Z"
     sodipodi:nodetypes="sssssssssssssss" /></svg>
